<svg xmlns="http://www.w3.org/2000/svg" viewBox="0 0 24 24"><title>Artboard-81</title><g id="Double_Arrow_right_circle" data-name="Double Arrow right circle"><circle cx="12" cy="12" r="10" style="fill:#ece4b7"/><path d="M13,16a1,1,0,0,1-.707-1.707L14.586,12,12.293,9.707a1,1,0,0,1,1.414-1.414l3,3a1,1,0,0,1,0,1.414l-3,3A1,1,0,0,1,13,16Z" style="fill:#ff8e31"/><path d="M9,16a1,1,0,0,1-.707-1.707L10.586,12,8.293,9.707A1,1,0,0,1,9.707,8.293l3,3a1,1,0,0,1,0,1.414l-3,3A1,1,0,0,1,9,16Z" style="fill:#ff8e31"/></g></svg>