<svg xmlns="http://www.w3.org/2000/svg" viewBox="0 0 24 24"><title>Artboard-74</title><g id="Double_Arrow_Left" data-name="Double Arrow Left"><rect x="2" y="2" width="20" height="20" rx="1" ry="1" style="fill:#ece4b7"/><path d="M12,17a1,1,0,0,1-.707-.293l-4-4a1,1,0,0,1,0-1.414l4-4a1,1,0,1,1,1.414,1.414L9.414,12l3.293,3.293A1,1,0,0,1,12,17Z" style="fill:#ff8e31"/><path d="M16,17a1,1,0,0,1-.707-.293l-4-4a1,1,0,0,1,0-1.414l4-4a1,1,0,1,1,1.414,1.414L13.414,12l3.293,3.293A1,1,0,0,1,16,17Z" style="fill:#ff8e31"/></g></svg>