<svg xmlns="http://www.w3.org/2000/svg" viewBox="0 0 24 24"><title>Artboard-73</title><g id="Double_Arrow_Box" data-name="Double Arrow Box"><rect x="2" y="2" width="20" height="20" rx="1" ry="1" style="fill:#ece4b7"/><path d="M12,17a1,1,0,0,1-.707-1.707L14.586,12,11.293,8.707a1,1,0,1,1,1.414-1.414l4,4a1,1,0,0,1,0,1.414l-4,4A1,1,0,0,1,12,17Z" style="fill:#ff8e31"/><path d="M8,17a1,1,0,0,1-.707-1.707L10.586,12,7.293,8.707A1,1,0,1,1,8.707,7.293l4,4a1,1,0,0,1,0,1.414l-4,4A1,1,0,0,1,8,17Z" style="fill:#ff8e31"/></g></svg>