<svg xmlns="http://www.w3.org/2000/svg" viewBox="0 0 24 24"><title>Artboard-83</title><g id="Double_arrow_down_circle" data-name="Double arrow down circle"><circle cx="12" cy="12" r="10" style="fill:#ece4b7"/><path d="M12,17a1,1,0,0,1-.707-.293l-3-3a1,1,0,0,1,1.414-1.414L12,14.586l2.293-2.293a1,1,0,0,1,1.414,1.414l-3,3A1,1,0,0,1,12,17Z" style="fill:#ff8e31"/><path d="M12,13a1,1,0,0,1-.707-.293l-3-3A1,1,0,0,1,9.707,8.293L12,10.586l2.293-2.293a1,1,0,0,1,1.414,1.414l-3,3A1,1,0,0,1,12,13Z" style="fill:#ff8e31"/></g></svg>