<svg xmlns="http://www.w3.org/2000/svg" viewBox="0 0 24 24"><title>Artboard-171</title><g id="Refresh"><path d="M21.383,2.076a1,1,0,0,0-1.09.217L18.329,4.257A10,10,0,0,0,2,12a1,1,0,0,0,2,0A7.992,7.992,0,0,1,16.9,5.685L15.293,7.293A1,1,0,0,0,16,9h5a1,1,0,0,0,1-1V3A1,1,0,0,0,21.383,2.076Z" style="fill:#ece4b7"/><path d="M21,11a1,1,0,0,0-1,1A7.992,7.992,0,0,1,7.1,18.315l1.608-1.608A1,1,0,0,0,8,15H3a1,1,0,0,0-1,1v5a1,1,0,0,0,.617.924A.987.987,0,0,0,3,22a1,1,0,0,0,.707-.293l1.964-1.964A10,10,0,0,0,22,12,1,1,0,0,0,21,11Z" style="fill:#ff8e31"/></g></svg>