<svg xmlns="http://www.w3.org/2000/svg" viewBox="0 0 24 24"><title>Artboard-164</title><g id="Fullscreen"><path d="M5.414,4H7A1,1,0,0,0,7,2H3A1,1,0,0,0,2,3V7A1,1,0,0,0,4,7V5.414l5.293,5.293a1,1,0,0,0,1.414-1.414Z" style="fill:#ff8e31"/><path d="M21,2H17a1,1,0,0,0,0,2h1.586L13.293,9.293a1,1,0,0,0,1.414,1.414L20,5.414V7a1,1,0,0,0,2,0V3A1,1,0,0,0,21,2Z" style="fill:#ff8e31"/><path d="M9.293,13.293,4,18.586V17a1,1,0,0,0-2,0v4a1,1,0,0,0,1,1H7a1,1,0,0,0,0-2H5.414l5.293-5.293a1,1,0,0,0-1.414-1.414Z" style="fill:#ff8e31"/><path d="M21,16a1,1,0,0,0-1,1v1.586l-5.293-5.293a1,1,0,0,0-1.414,1.414L18.586,20H17a1,1,0,0,0,0,2h4a1,1,0,0,0,1-1V17A1,1,0,0,0,21,16Z" style="fill:#ff8e31"/></g></svg>