<svg xmlns="http://www.w3.org/2000/svg" viewBox="0 0 24 24"><title>Artboard-162</title><g id="Shuffle-2" data-name="Shuffle"><path d="M21.706,16.708l-2,2a1,1,0,0,1-1.414-1.414L18.586,17H15.663a3.978,3.978,0,0,1-3.392-1.88L11.5,13.887l-.771,1.233A3.978,3.978,0,0,1,7.337,17H3a1,1,0,0,1,0-2H7.337a1.992,1.992,0,0,0,1.7-.94L10.321,12,9.033,9.94A1.989,1.989,0,0,0,7.337,9H3A1,1,0,0,1,3,7H7.337a3.978,3.978,0,0,1,3.392,1.88l.771,1.233.771-1.233A3.978,3.978,0,0,1,15.663,7h2.923l-.293-.293a1,1,0,0,1,1.414-1.414l2,2a1,1,0,0,1,0,1.416l-2,2a1,1,0,0,1-1.414-1.414L18.586,9H15.663a1.992,1.992,0,0,0-1.7.94L12.679,12l1.288,2.06a1.989,1.989,0,0,0,1.7.94h2.923l-.293-.293a1,1,0,0,1,1.414-1.414l2,2A1,1,0,0,1,21.706,16.708Z" style="fill:#ff8e31"/></g></svg>