<svg xmlns="http://www.w3.org/2000/svg" viewBox="0 0 24 24"><title>Artboard-166</title><g id="Assemble_point" data-name="Assemble point"><path d="M21,11H17.414l.293-.293a1,1,0,0,0-1.414-1.414l-2,2a1,1,0,0,0,0,1.416l2,2a1,1,0,0,0,1.414-1.414L17.414,13H21a1,1,0,0,0,0-2Z" style="fill:#ff8e31"/><path d="M9.706,11.292l-2-2a1,1,0,0,0-1.414,1.414L6.586,11H3a1,1,0,0,0,0,2H6.586l-.293.293a1,1,0,0,0,1.414,1.414l2-2A1,1,0,0,0,9.706,11.292Z" style="fill:#ff8e31"/><path d="M12.708,14.294a1,1,0,0,0-1.416,0l-2,2a1,1,0,0,0,1.414,1.414L11,17.414V21a1,1,0,0,0,2,0V17.414l.293.293a1,1,0,0,0,1.414-1.414Z" style="fill:#ff8e31"/><path d="M11.292,9.706a1,1,0,0,0,1.416,0l2-2a1,1,0,1,0-1.414-1.414L13,6.586V3a1,1,0,0,0-2,0V6.586l-.293-.293A1,1,0,0,0,9.293,7.707Z" style="fill:#ff8e31"/><circle cx="12" cy="12" r="1" style="fill:#ece4b7"/></g></svg>