<svg xmlns="http://www.w3.org/2000/svg" viewBox="0 0 24 24"><title>Artboard-163</title><g id="Minimize"><path d="M10,13H5a1,1,0,0,0,0,2H7.586L2.293,20.293a1,1,0,0,0,1.414,1.414L9,16.414V19a1,1,0,0,0,2,0V14A1,1,0,0,0,10,13Z" style="fill:#ff8e31"/><path d="M16.414,15H19a1,1,0,0,0,0-2H14a1,1,0,0,0-1,1v5a1,1,0,0,0,2,0V16.414l5.293,5.293a1,1,0,0,0,1.414-1.414Z" style="fill:#ff8e31"/><path d="M10,4A1,1,0,0,0,9,5V7.586L3.707,2.293A1,1,0,0,0,2.293,3.707L7.586,9H5a1,1,0,0,0,0,2h5a1,1,0,0,0,1-1V5A1,1,0,0,0,10,4Z" style="fill:#ff8e31"/><path d="M14,11h5a1,1,0,0,0,0-2H16.414l5.293-5.293a1,1,0,1,0-1.414-1.414L15,7.586V5a1,1,0,0,0-2,0v5A1,1,0,0,0,14,11Z" style="fill:#ff8e31"/></g></svg>