<?xml version="1.0" encoding="utf-8"?>
<!-- Generator: Adobe Illustrator 18.0.0, SVG Export Plug-In . SVG Version: 6.00 Build 0)  -->
<!DOCTYPE svg PUBLIC "-//W3C//DTD SVG 1.1//EN" "http://www.w3.org/Graphics/SVG/1.1/DTD/svg11.dtd">
<svg version="1.1" id="Icon_Set" xmlns="http://www.w3.org/2000/svg" xmlns:xlink="http://www.w3.org/1999/xlink" x="0px" y="0px"
	 viewBox="0 0 512 512" style="enable-background:new 0 0 512 512;" xml:space="preserve">
<style type="text/css">
	.st0{fill:#F0C48A;}
	.st1{fill:#FD919E;}
	.st2{fill:#E8677D;}
	.st3{fill:#4C4372;}
	.st4{fill:#D3E6F8;}
	.st5{fill:#A4CFF2;}
	.st6{fill:#FFFFFF;}
	.st7{fill:#7BABF1;}
</style>
<g>
	<circle class="st0" cx="256" cy="256" r="207"/>
	<g>
		<g>
			<g>
				<path class="st7" d="M432.383,474.402H113.342c-21.786,0-39.448-17.661-39.448-39.448V45.31
					c0-21.786,17.661-39.448,39.448-39.448h319.042c21.786,0,39.448,17.661,39.448,39.448v389.644
					C471.831,456.741,454.169,474.402,432.383,474.402z"/>
			</g>
			<g>
				<path class="st3" d="M432.383,480.265H113.341c-24.984,0-45.31-20.326-45.31-45.311V45.311C68.031,20.326,88.357,0,113.341,0
					h319.042c24.984,0,45.31,20.326,45.31,45.311v389.644C477.693,459.939,457.367,480.265,432.383,480.265z M113.341,11.725
					c-18.519,0-33.585,15.066-33.585,33.585v389.644c0,18.519,15.066,33.585,33.585,33.585h319.042
					c18.519,0,33.585-15.066,33.585-33.585V45.311c0-18.519-15.066-33.585-33.585-33.585H113.341z"/>
			</g>
		</g>
		<g>
			<g>
				<g>
					<path class="st6" d="M398.659,506.137H79.617c-21.786,0-39.448-17.661-39.448-39.448V77.046
						c0-21.786,17.661-39.448,39.448-39.448h319.042c21.786,0,39.448,17.661,39.448,39.448V466.69
						C438.107,488.476,420.445,506.137,398.659,506.137z"/>
				</g>
				<g>
					<path class="st4" d="M413.422,503.271c14.47-5.846,24.685-20.016,24.685-36.581V120.032h-24.685V503.271z"/>
				</g>
				<g>
					<path class="st4" d="M398.659,37.598H79.618c-21.786,0-39.448,17.661-39.448,39.448v42.986h397.937V77.046
						C438.107,55.259,420.445,37.598,398.659,37.598z"/>
				</g>
				<g>
					<path class="st7" d="M413.422,40.465v79.567h24.685V77.046C438.107,60.481,427.892,46.31,413.422,40.465z"/>
				</g>
				<g>
					<circle class="st7" cx="80.619" cy="79.163" r="15.074"/>
				</g>
				<g>
					<circle class="st6" cx="128.769" cy="79.163" r="15.074"/>
				</g>
				<g>
					<circle class="st1" cx="176.919" cy="79.163" r="15.074"/>
				</g>
				<g>
					<path class="st3" d="M398.659,512H79.618c-24.984,0-45.311-20.326-45.311-45.311V77.046c0-24.984,20.326-45.311,45.311-45.311
						h319.041c24.985,0,45.311,20.326,45.311,45.311v389.644C443.97,491.674,423.643,512,398.659,512z M79.618,43.46
						c-18.519,0-33.585,15.066-33.585,33.585v389.644c0,18.519,15.066,33.585,33.585,33.585h319.041
						c18.519,0,33.586-15.066,33.586-33.585V77.046c0-18.519-15.067-33.585-33.586-33.585H79.618z"/>
				</g>
				<g>
					<path class="st3" d="M438.107,125.895H40.17c-3.238,0-5.863-2.625-5.863-5.863c0-3.238,2.625-5.863,5.863-5.863h397.938
						c3.238,0,5.863,2.624,5.863,5.863C443.97,123.27,441.345,125.895,438.107,125.895z"/>
				</g>
				<g>
					<path class="st3" d="M80.619,100.099c-11.544,0-20.937-9.392-20.937-20.936s9.392-20.937,20.937-20.937
						c11.544,0,20.936,9.392,20.936,20.937S92.163,100.099,80.619,100.099z M80.619,69.951c-5.079,0-9.211,4.132-9.211,9.211
						c0,5.079,4.132,9.211,9.211,9.211c5.079,0,9.211-4.132,9.211-9.211C89.829,74.084,85.697,69.951,80.619,69.951z"/>
				</g>
				<g>
					<path class="st3" d="M128.769,100.099c-11.544,0-20.936-9.392-20.936-20.936s9.392-20.937,20.936-20.937
						c11.544,0,20.936,9.392,20.936,20.937S140.313,100.099,128.769,100.099z M128.769,69.951c-5.079,0-9.211,4.132-9.211,9.211
						c0,5.079,4.132,9.211,9.211,9.211c5.079,0,9.211-4.132,9.211-9.211C137.98,74.084,133.848,69.951,128.769,69.951z"/>
				</g>
				<g>
					<path class="st3" d="M176.919,100.099c-11.544,0-20.936-9.392-20.936-20.936s9.392-20.937,20.936-20.937
						c11.544,0,20.937,9.392,20.937,20.937S188.464,100.099,176.919,100.099z M176.919,69.951c-5.079,0-9.211,4.132-9.211,9.211
						c0,5.079,4.132,9.211,9.211,9.211c5.079,0,9.211-4.132,9.211-9.211C186.131,74.084,181.998,69.951,176.919,69.951z"/>
				</g>
			</g>
			<g>
				<g>
					<path class="st1" d="M355.572,332.992v-33.75h-29.799c-2.292-11.831-6.929-22.825-13.436-32.46l21.064-21.064l-23.864-23.864
						l-21.063,21.064c-9.635-6.506-20.63-11.144-32.462-13.435v-29.799h-33.748v29.799c-11.832,2.292-22.826,6.928-32.461,13.435
						l-21.064-21.064l-23.864,23.864l21.063,21.064c-6.506,9.634-11.143,20.629-13.435,32.46h-29.799v33.75h29.799
						c2.291,11.831,6.929,22.825,13.435,32.461l-21.063,21.063l23.864,23.865l21.064-21.065
						c9.634,6.507,20.629,11.144,32.461,13.436v29.798h33.748v-29.798c11.832-2.292,22.826-6.929,32.462-13.436l21.063,21.065
						l23.864-23.865l-21.064-21.063c6.507-9.635,11.144-20.63,13.436-32.461H355.572z M238.575,359.311
						c-23.855,0-43.193-19.339-43.193-43.194s19.338-43.193,43.193-43.193c23.856,0,43.194,19.338,43.194,43.193
						S262.431,359.311,238.575,359.311z"/>
				</g>
				<g>
					<g>
						<path class="st3" d="M238.575,365.174c-27.05,0-49.056-22.007-49.056-49.056c0-27.049,22.006-49.055,49.056-49.055
							c27.05,0,49.057,22.006,49.057,49.055C287.632,343.167,265.625,365.174,238.575,365.174z M238.575,278.787
							c-20.584,0-37.331,16.746-37.331,37.33c0,20.584,16.747,37.331,37.331,37.331c20.584,0,37.332-16.747,37.332-37.331
							C275.907,295.533,259.16,278.787,238.575,278.787z"/>
					</g>
					<g>
						<path class="st3" d="M256.012,438.414h-33.748c-3.238,0-5.863-2.625-5.863-5.863v-25.088
							c-9.116-2.254-17.755-5.829-25.782-10.671l-17.734,17.735c-1.099,1.099-2.591,1.717-4.146,1.717
							c-1.555,0-3.046-0.618-4.145-1.717l-23.864-23.865c-2.29-2.29-2.29-6.001,0-8.291l17.734-17.733
							c-4.842-8.03-8.417-16.669-10.67-25.782h-25.089c-3.238,0-5.863-2.625-5.863-5.863v-33.749c0-3.238,2.625-5.863,5.863-5.863
							h25.089c2.254-9.115,5.829-17.754,10.67-25.782l-17.734-17.734c-2.29-2.29-2.29-6.001,0-8.291l23.864-23.864
							c2.289-2.289,6.001-2.289,8.291,0l17.734,17.733c8.027-4.841,16.667-8.416,25.782-10.67v-25.089
							c0-3.238,2.625-5.863,5.863-5.863h33.748c3.238,0,5.863,2.625,5.863,5.863v25.089c9.115,2.253,17.753,5.828,25.783,10.67
							l17.734-17.733c2.288-2.289,6.002-2.289,8.29,0l23.865,23.864c1.1,1.099,1.718,2.591,1.718,4.146s-0.617,3.046-1.718,4.145
							l-17.734,17.734c4.842,8.028,8.417,16.667,10.671,25.782h25.089c3.238,0,5.863,2.625,5.863,5.863v33.749
							c0,3.238-2.625,5.863-5.863,5.863h-25.089c-2.254,9.115-5.829,17.753-10.671,25.782l17.734,17.733
							c1.1,1.099,1.718,2.591,1.718,4.146c0,1.555-0.617,3.046-1.717,4.146l-23.865,23.865c-1.1,1.099-2.592,1.717-4.146,1.717
							c-1.555,0-3.046-0.618-4.146-1.717l-17.733-17.735c-8.029,4.842-16.667,8.417-25.783,10.671v25.088
							C261.874,435.789,259.249,438.414,256.012,438.414z M228.126,426.689h22.023v-23.936c0-2.808,1.991-5.221,4.748-5.756
							c10.914-2.114,21.106-6.333,30.295-12.539c2.328-1.572,5.442-1.273,7.427,0.713l16.917,16.919l15.574-15.574l-16.918-16.917
							c-1.986-1.985-2.285-5.1-0.714-7.427c6.207-9.191,10.426-19.384,12.539-30.295c0.534-2.757,2.948-4.748,5.756-4.748h23.936
							v-22.024h-23.936c-2.808,0-5.221-1.991-5.756-4.748c-2.113-10.912-6.332-21.105-12.539-30.295
							c-1.571-2.327-1.272-5.441,0.714-7.427l16.918-16.918l-15.574-15.573l-16.918,16.918c-1.985,1.985-5.1,2.283-7.426,0.713
							c-9.193-6.207-19.385-10.425-30.296-12.538c-2.757-0.534-4.748-2.947-4.748-5.756v-23.937h-22.023v23.937
							c0,2.808-1.991,5.221-4.748,5.756c-10.914,2.115-21.106,6.333-30.295,12.538c-2.328,1.572-5.441,1.273-7.426-0.713
							l-16.918-16.918l-15.572,15.573l16.917,16.918c1.985,1.985,2.284,5.1,0.713,7.427c-6.206,9.189-10.424,19.382-12.538,30.295
							c-0.534,2.757-2.948,4.748-5.756,4.748h-23.937v22.024h23.937c2.808,0,5.222,1.991,5.756,4.748
							c2.113,10.91,6.332,21.103,12.538,30.295c1.571,2.327,1.272,5.441-0.713,7.426l-16.918,16.917l15.573,15.574l16.918-16.919
							c1.985-1.985,5.099-2.284,7.427-0.713c9.188,6.206,19.38,10.424,30.294,12.539c2.757,0.534,4.748,2.948,4.748,5.756V426.689z"
							/>
					</g>
				</g>
			</g>
		</g>
	</g>
</g>
</svg>
