<?xml version="1.0" encoding="utf-8"?>
<!-- Generator: Adobe Illustrator 18.0.0, SVG Export Plug-In . SVG Version: 6.00 Build 0)  -->
<!DOCTYPE svg PUBLIC "-//W3C//DTD SVG 1.1//EN" "http://www.w3.org/Graphics/SVG/1.1/DTD/svg11.dtd">
<svg version="1.1" id="Icon_Set" xmlns="http://www.w3.org/2000/svg" xmlns:xlink="http://www.w3.org/1999/xlink" x="0px" y="0px"
	 viewBox="0 0 512 512" style="enable-background:new 0 0 512 512;" xml:space="preserve">
<style type="text/css">
	.st0{fill:#F0C48A;}
	.st1{fill:#FD919E;}
	.st2{fill:#E8677D;}
	.st3{fill:#4C4372;}
	.st4{fill:#D3E6F8;}
	.st5{fill:#A4CFF2;}
	.st6{fill:#FFFFFF;}
	.st7{fill:#7BABF1;}
</style>
<g>
	<circle class="st0" cx="256" cy="256" r="207"/>
	<g>
		<g>
			<rect x="246.21" y="222.294" class="st6" width="19.58" height="283.843"/>
		</g>
		<g>
			<rect x="257.069" y="222.294" class="st4" width="9.011" height="282.631"/>
		</g>
		<g>
			<polygon class="st6" points="402.151,506.137 381.402,506.137 264.707,173.342 283.183,166.863 			"/>
		</g>
		<g>
			<polygon class="st6" points="109.849,506.137 130.598,506.137 247.294,173.342 228.817,166.863 			"/>
		</g>
		<g>
			<polygon class="st4" points="247.294,173.342 239.222,170.511 120.845,506.137 130.598,506.137 			"/>
		</g>
		<g>
			<polygon class="st4" points="275.855,173.342 283.927,170.511 402.304,506.137 392.551,506.137 			"/>
		</g>
		<g>
			<path class="st3" d="M402.151,512h-20.749c-2.491,0-4.708-1.573-5.533-3.923L259.174,175.281
				c-0.514-1.467-0.425-3.079,0.249-4.48c0.674-1.401,1.876-2.477,3.344-2.992l18.477-6.479c3.056-1.07,6.401,0.538,7.472,3.592
				l118.967,339.275c0.629,1.793,0.349,3.781-0.75,5.331C405.834,511.079,404.052,512,402.151,512z M385.558,500.275h8.324
				l-114.292-325.94l-7.412,2.599L385.558,500.275z"/>
		</g>
		<g>
			<path class="st3" d="M130.598,512h-20.749c-1.9,0-3.683-0.921-4.782-2.472c-1.099-1.55-1.379-3.537-0.75-5.331l118.968-339.275
				c0.515-1.467,1.591-2.67,2.992-3.344c1.401-0.674,3.013-0.762,4.48-0.249l18.477,6.479c3.055,1.072,4.664,4.417,3.593,7.472
				L136.13,508.077C135.306,510.427,133.088,512,130.598,512z M118.117,500.275h8.323l113.381-323.341l-7.412-2.599L118.117,500.275
				z"/>
		</g>
		<g>
			<rect x="238.292" y="194.51" class="st4" width="35.415" height="27.42"/>
		</g>
		<g>
			<rect x="262.256" y="194.687" class="st5" width="10.071" height="27.066"/>
		</g>
		<g>
			<rect x="209.332" y="49.76" class="st4" width="93.336" height="144.75"/>
		</g>
		<g>
			<rect x="284.556" y="50.419" class="st5" width="18.113" height="144.091"/>
		</g>
		<g>
			<rect x="239.662" y="5.863" class="st7" width="32.676" height="16.478"/>
		</g>
		<g>
			<path class="st3" d="M273.707,227.792h-35.415c-3.238,0-5.863-2.625-5.863-5.863V194.51c0-3.238,2.625-5.863,5.863-5.863h35.415
				c3.238,0,5.863,2.625,5.863,5.863v27.419C279.57,225.167,276.945,227.792,273.707,227.792z M244.155,216.067h23.69v-15.694
				h-23.69V216.067z"/>
		</g>
		<g>
			<rect x="192.121" y="68.673" class="st7" width="17.211" height="89.525"/>
		</g>
		<g>
			<rect x="302.668" y="68.673" class="st7" width="17.211" height="89.525"/>
		</g>
		<g>
			<path class="st3" d="M302.668,200.373h-93.336c-3.238,0-5.863-2.625-5.863-5.863V49.76c0-3.238,2.625-5.863,5.863-5.863h93.336
				c3.238,0,5.863,2.625,5.863,5.863V194.51C308.531,197.748,305.906,200.373,302.668,200.373z M215.194,188.648h81.611V55.623
				h-81.611V188.648z"/>
		</g>
		<g>
			<path class="st3" d="M209.332,164.061h-17.211c-3.238,0-5.863-2.625-5.863-5.863V68.673c0-3.238,2.625-5.863,5.863-5.863h17.211
				c3.238,0,5.863,2.625,5.863,5.863v89.525C215.194,161.436,212.569,164.061,209.332,164.061z M197.984,152.335h5.486v-77.8h-5.486
				V152.335z"/>
		</g>
		<g>
			<path class="st3" d="M319.879,164.061h-17.211c-3.238,0-5.863-2.625-5.863-5.863V68.673c0-3.238,2.625-5.863,5.863-5.863h17.211
				c3.238,0,5.863,2.625,5.863,5.863v89.525C325.742,161.436,323.117,164.061,319.879,164.061z M308.531,152.335h5.486v-77.8h-5.486
				V152.335z"/>
		</g>
		<g>
			<rect x="226.596" y="22.341" class="st1" width="58.807" height="143.101"/>
		</g>
		<g>
			<path class="st3" d="M272.338,28.203h-32.676c-3.238,0-5.863-2.625-5.863-5.863V5.863c0-3.238,2.625-5.863,5.863-5.863h32.676
				c3.238,0,5.863,2.625,5.863,5.863v16.478C278.201,25.578,275.576,28.203,272.338,28.203z M245.525,16.478h20.951v-4.753h-20.951
				V16.478z"/>
		</g>
		<g>
			<path class="st3" d="M265.79,512h-19.58c-3.238,0-5.863-2.625-5.863-5.863V222.294c0-3.238,2.625-5.863,5.863-5.863h19.58
				c3.238,0,5.863,2.625,5.863,5.863v283.843C271.653,509.375,269.028,512,265.79,512z M252.073,500.275h7.855V228.157h-7.855
				V500.275z"/>
		</g>
		<g>
			<rect x="267.291" y="21.846" class="st2" width="18.113" height="144.091"/>
		</g>
		<g>
			<path class="st3" d="M285.404,171.304h-58.807c-3.238,0-5.863-2.625-5.863-5.863V22.341c0-3.237,2.625-5.862,5.863-5.862h58.807
				c3.238,0,5.863,2.625,5.863,5.862v143.101C291.267,168.679,288.642,171.304,285.404,171.304z M232.459,159.579h47.082V28.203
				h-47.082V159.579z"/>
		</g>
		<g>
			<circle class="st6" cx="256" cy="106.721" r="22.045"/>
		</g>
		<g>
			<path class="st3" d="M256,134.629c-15.388,0-27.907-12.519-27.907-27.907c0-15.388,12.519-27.907,27.907-27.907
				c15.388,0,27.907,12.519,27.907,27.907C283.908,122.11,271.389,134.629,256,134.629z M256,90.539
				c-8.923,0-16.182,7.26-16.182,16.182s7.26,16.182,16.182,16.182c8.923,0,16.182-7.26,16.182-16.182S264.923,90.539,256,90.539z"
				/>
		</g>
	</g>
</g>
</svg>
