<?xml version="1.0" encoding="utf-8"?>
<!-- Generator: Adobe Illustrator 18.0.0, SVG Export Plug-In . SVG Version: 6.00 Build 0)  -->
<!DOCTYPE svg PUBLIC "-//W3C//DTD SVG 1.1//EN" "http://www.w3.org/Graphics/SVG/1.1/DTD/svg11.dtd">
<svg version="1.1" id="Icon_Set" xmlns="http://www.w3.org/2000/svg" xmlns:xlink="http://www.w3.org/1999/xlink" x="0px" y="0px"
	 viewBox="0 0 512 512" style="enable-background:new 0 0 512 512;" xml:space="preserve">
<style type="text/css">
	.st0{fill:#F0C48A;}
	.st1{fill:#FD919E;}
	.st2{fill:#E8677D;}
	.st3{fill:#4C4372;}
	.st4{fill:#D3E6F8;}
	.st5{fill:#A4CFF2;}
	.st6{fill:#FFFFFF;}
	.st7{fill:#7BABF1;}
</style>
<g>
	<circle class="st0" cx="256" cy="256" r="207"/>
	<g>
		<g>
			<g>
				<path class="st5" d="M5.878,73.91L5.863,60.489C5.837,38.068,24.159,19.703,46.58,19.677l298.333-0.347
					c22.421-0.026,40.786,18.297,40.812,40.717l0.347,298.333c0.026,22.421-18.297,40.786-40.717,40.812l-298.333,0.347
					c-22.42,0.026-40.786-18.297-40.812-40.717L5.929,117.825L5.878,73.91z"/>
			</g>
			<g>
				<path class="st7" d="M359.697,22.114v374.432c12.238-4.655,21.701-15.051,25.054-27.854v-317.4
					C381.783,37.942,372.223,27.012,359.697,22.114z"/>
			</g>
			<g>
				<path class="st4" d="M102.339,193.298l-39.557,0.046c-16.693,0.02-30.368-13.623-30.387-30.316l-0.102-87.326
					C32.274,59.008,45.916,45.334,62.61,45.315l87.326-0.102c16.693-0.019,30.368,13.623,30.387,30.316l0.102,87.326
					c0.02,16.693-13.623,30.368-30.316,30.387l-4.102,0.005L102.339,193.298z"/>
			</g>
			<g>
				<path class="st5" d="M155.86,44.766V192c13.283-2.14,23.744-12.977,25.324-26.427V72.201
					C180.032,58.307,169.425,47,155.86,44.766z"/>
			</g>
			<g>
				<path class="st3" d="M106.672,151.413c-3.238,0-5.863-2.625-5.863-5.863V91.006c0-3.238,2.625-5.863,5.863-5.863
					s5.863,2.625,5.863,5.863v54.544C112.535,148.788,109.91,151.413,106.672,151.413z"/>
			</g>
			<g>
				<path class="st3" d="M133.945,124.141H79.4c-3.238,0-5.863-2.625-5.863-5.863s2.625-5.863,5.863-5.863h54.544
					c3.238,0,5.863,2.625,5.863,5.863S137.182,124.141,133.945,124.141z"/>
			</g>
			<g>
				<g>
					<path class="st4" d="M102.339,373.609l-39.557,0.046c-16.693,0.019-30.368-13.623-30.387-30.316l-0.102-87.326
						c-0.019-16.693,13.623-30.368,30.316-30.387l87.326-0.102c16.693-0.019,30.368,13.623,30.387,30.316l0.102,87.326
						c0.02,16.693-13.623,30.368-30.316,30.387l-4.102,0.005L102.339,373.609z"/>
				</g>
				<g>
					<path class="st5" d="M155.86,225.931v147.234c13.283-2.14,23.744-12.977,25.324-26.427v-93.373
						C180.032,239.472,169.425,228.165,155.86,225.931z"/>
				</g>
				<g>
					<path class="st3" d="M87.388,324.591c-1.501,0-3.001-0.572-4.146-1.717c-2.29-2.29-2.29-6.001,0-8.291l38.569-38.569
						c2.289-2.289,6.002-2.289,8.291,0c2.29,2.29,2.29,6.001,0,8.291l-38.569,38.569C90.389,324.018,88.888,324.591,87.388,324.591z
						"/>
				</g>
				<g>
					<path class="st3" d="M125.957,324.591c-1.501,0-3.001-0.572-4.146-1.717l-38.569-38.569c-2.29-2.29-2.29-6.002,0-8.291
						c2.289-2.289,6.002-2.289,8.291,0l38.569,38.569c2.29,2.29,2.29,6.001,0,8.291
						C128.958,324.018,127.457,324.591,125.957,324.591z"/>
				</g>
				<g>
					<path class="st3" d="M62.746,379.518c-9.624,0.001-18.696-3.764-25.55-10.603c-6.865-6.849-10.651-15.929-10.663-25.569
						l-0.102-87.326c-0.011-9.64,3.754-18.729,10.603-25.594c6.849-6.864,15.929-10.651,25.569-10.662l87.326-0.102
						c0.013,0,0.029,0,0.042,0c19.95,0,36.191,16.217,36.215,36.172l0.102,87.326c0.012,9.64-3.754,18.729-10.603,25.594
						c-6.849,6.865-15.929,10.651-25.569,10.662l-47.769,0.056l0,0l-39.557,0.046C62.775,379.518,62.76,379.518,62.746,379.518z
						 M102.339,373.609h0.01H102.339z M149.971,231.386c-0.01,0-0.019,0-0.029,0l-87.326,0.102
						c-6.508,0.008-12.646,2.571-17.282,7.219c-4.637,4.647-7.186,10.791-7.178,17.299l0.102,87.326
						c0.008,6.508,2.571,12.646,7.219,17.282c4.64,4.63,10.773,7.178,17.27,7.178c0.01,0,0.019,0,0.029,0l87.326-0.102
						c6.508-0.008,12.645-2.571,17.282-7.219c4.636-4.647,7.186-10.791,7.178-17.299l-0.102-87.326
						C174.445,242.354,163.461,231.386,149.971,231.386z"/>
				</g>
			</g>
			<g>
				<g>
					<path class="st4" d="M281.557,193.298l-39.557,0.046c-16.693,0.02-30.368-13.623-30.387-30.316l-0.102-87.326
						c-0.019-16.693,13.623-30.368,30.316-30.387l87.326-0.102c16.693-0.019,30.368,13.623,30.387,30.316l0.102,87.326
						c0.019,16.693-13.623,30.368-30.316,30.387l-4.102,0.005L281.557,193.298z"/>
				</g>
				<g>
					<path class="st5" d="M334.103,44.766V192c13.283-2.14,23.744-12.977,25.324-26.427V72.201
						C358.275,58.307,347.668,47,334.103,44.766z"/>
				</g>
				<g>
					<path class="st3" d="M313.162,124.141h-54.544c-3.238,0-5.863-2.625-5.863-5.863s2.625-5.863,5.863-5.863h54.544
						c3.238,0,5.863,2.625,5.863,5.863S316.399,124.141,313.162,124.141z"/>
				</g>
				<g>
					<path class="st3" d="M241.963,199.207c-9.624,0.001-18.696-3.764-25.551-10.603c-6.865-6.849-10.651-15.929-10.663-25.569
						l-0.102-87.326c-0.011-9.64,3.754-18.729,10.603-25.594c6.849-6.865,15.929-10.651,25.569-10.662l87.326-0.102
						c0.013,0,0.029,0,0.042,0c19.95,0,36.191,16.217,36.214,36.172l0.102,87.326c0.012,9.64-3.754,18.729-10.603,25.594
						c-6.849,6.864-15.929,10.651-25.569,10.662l-47.769,0.056l0,0l-39.557,0.046C241.992,199.207,241.977,199.207,241.963,199.207z
						 M281.556,193.298h0.01H281.556z M329.189,51.075c-0.01,0-0.019,0-0.029,0l-87.326,0.102
						c-6.508,0.008-12.645,2.571-17.282,7.218c-4.636,4.647-7.186,10.791-7.178,17.299l0.102,87.326
						c0.008,6.508,2.572,12.645,7.219,17.282c4.64,4.63,10.773,7.178,17.27,7.178c0.009,0,0.019,0,0.029,0l87.326-0.102
						c6.508-0.008,12.645-2.571,17.282-7.219c4.636-4.647,7.186-10.791,7.178-17.299l-0.102-87.326
						C353.662,62.043,342.678,51.075,329.189,51.075z"/>
				</g>
			</g>
			<g>
				<g>
					<path class="st1" d="M281.557,373.609l-39.557,0.046c-16.693,0.019-30.368-13.623-30.387-30.316l-0.102-87.326
						c-0.019-16.693,13.623-30.368,30.316-30.387l87.326-0.102c16.693-0.019,30.368,13.623,30.387,30.316l0.102,87.326
						c0.019,16.693-13.623,30.368-30.316,30.387l-4.102,0.005L281.557,373.609z"/>
				</g>
				<g>
					<path class="st2" d="M334.103,225.931v147.234c13.283-2.14,23.744-12.977,25.324-26.427v-93.373
						C358.275,239.472,347.668,228.165,334.103,225.931z"/>
				</g>
				<g>
					<path class="st3" d="M313.162,296.54h-54.544c-3.238,0-5.863-2.625-5.863-5.863s2.625-5.863,5.863-5.863h54.544
						c3.238,0,5.863,2.625,5.863,5.863S316.399,296.54,313.162,296.54z"/>
				</g>
				<g>
					<path class="st3" d="M313.162,315.046h-54.544c-3.238,0-5.863-2.625-5.863-5.863s2.625-5.863,5.863-5.863h54.544
						c3.238,0,5.863,2.625,5.863,5.863S316.399,315.046,313.162,315.046z"/>
				</g>
				<g>
					<path class="st3" d="M241.963,379.518c-9.624,0.001-18.696-3.764-25.551-10.603c-6.865-6.849-10.651-15.929-10.663-25.569
						l-0.102-87.326c-0.011-9.64,3.754-18.729,10.603-25.594c6.849-6.864,15.929-10.651,25.569-10.662l87.326-0.102
						c0.013,0,0.029,0,0.042,0c19.95,0,36.191,16.217,36.214,36.172l0.102,87.326c0.012,9.64-3.754,18.729-10.603,25.594
						c-6.849,6.865-15.929,10.651-25.569,10.662l-47.769,0.056l0,0l-39.557,0.046C241.992,379.518,241.977,379.518,241.963,379.518z
						 M281.556,373.609h0.01H281.556z M329.189,231.386c-0.01,0-0.019,0-0.029,0l-87.326,0.102
						c-6.508,0.008-12.645,2.571-17.282,7.219c-4.636,4.647-7.186,10.791-7.178,17.299l0.102,87.326
						c0.008,6.508,2.572,12.646,7.219,17.282c4.64,4.63,10.773,7.178,17.27,7.178c0.009,0,0.019,0,0.029,0l87.326-0.102
						c6.508-0.008,12.645-2.571,17.282-7.219c4.636-4.647,7.186-10.791,7.178-17.299l-0.102-87.326
						C353.662,242.354,342.678,231.386,329.189,231.386z"/>
				</g>
			</g>
			<g>
				<path class="st3" d="M46.974,405.402c-25.687,0.001-46.597-20.88-46.627-46.573L0,60.495
					c-0.014-12.409,4.834-24.112,13.653-32.951c8.819-8.839,20.51-13.716,32.92-13.73l298.333-0.347c0.018,0,0.037,0,0.055,0
					c12.389,0,24.069,4.847,32.896,13.653c8.839,8.819,13.716,20.51,13.73,32.92l0.347,298.333
					c0.03,25.71-20.863,46.651-46.573,46.681l-298.333,0.347C47.012,405.402,46.991,405.402,46.974,405.402z M344.961,25.192
					c-0.014,0-0.027,0-0.042,0L46.586,25.539c-9.277,0.011-18.025,3.664-24.632,10.286c-6.607,6.623-10.24,15.379-10.229,24.656
					l0.016,13.422l0,0l0.332,284.912c0.023,19.23,15.677,34.86,34.902,34.861c0.014,0,0.027,0,0.041,0l298.333-0.347
					c19.245-0.022,34.883-15.698,34.861-34.943l-0.347-298.333c-0.011-9.277-3.664-18.025-10.286-24.632
					C362.964,28.823,354.223,25.192,344.961,25.192z"/>
			</g>
			<g>
				<path class="st3" d="M62.746,199.207c-9.624,0.001-18.696-3.764-25.55-10.603c-6.865-6.849-10.651-15.929-10.663-25.569
					l-0.102-87.326c-0.011-9.64,3.754-18.729,10.603-25.594c6.849-6.865,15.929-10.651,25.569-10.662l87.326-0.102
					c0.013,0,0.029,0,0.042,0c19.95,0,36.191,16.217,36.215,36.172l0.102,87.326c0.012,9.64-3.754,18.729-10.603,25.594
					c-6.849,6.864-15.929,10.651-25.569,10.662l-47.769,0.056l0,0l-39.557,0.046C62.775,199.207,62.76,199.207,62.746,199.207z
					 M102.339,193.298h0.01H102.339z M149.971,51.075c-0.01,0-0.019,0-0.029,0l-87.326,0.102
					c-6.508,0.008-12.646,2.571-17.282,7.218c-4.637,4.647-7.186,10.791-7.178,17.299l0.102,87.326
					c0.008,6.508,2.571,12.645,7.219,17.282c4.64,4.63,10.773,7.178,17.27,7.178c0.01,0,0.019,0,0.029,0l87.326-0.102
					c6.508-0.008,12.645-2.571,17.282-7.219c4.636-4.647,7.186-10.791,7.178-17.299l-0.102-87.326
					C174.445,62.043,163.461,51.075,149.971,51.075z"/>
			</g>
		</g>
		<g>
			<g>
				<g>
					<polygon class="st1" points="417.039,244.209 417.039,452.454 445.976,452.454 445.976,148.286 417.039,148.286 
						417.039,194.46 					"/>
				</g>
				<g>
					<rect x="430.498" y="148.286" class="st2" width="15.478" height="304.168"/>
				</g>
				<g>
					<path class="st3" d="M445.976,458.317h-28.937c-3.238,0-5.863-2.625-5.863-5.863V148.286c0-3.238,2.625-5.863,5.863-5.863
						h28.937c3.238,0,5.863,2.625,5.863,5.863v304.168C451.838,455.692,449.213,458.317,445.976,458.317z M422.901,446.592h17.212
						V154.149h-17.212V446.592z"/>
				</g>
				<g>
					<path class="st3" d="M431.507,498.533c-3.238,0-5.863-2.625-5.863-5.863v-40.217c0-3.238,2.625-5.863,5.863-5.863
						c3.238,0,5.863,2.625,5.863,5.863v40.217C437.37,495.908,434.745,498.533,431.507,498.533z"/>
				</g>
			</g>
			<g>
				<g>
					<path class="st1" d="M483.116,426.519c5.484,0,10.514,1.925,14.469,5.126V148.286h-28.937v283.359
						C472.602,428.444,477.632,426.519,483.116,426.519z"/>
				</g>
				<g>
					<rect x="482.107" y="148.286" class="st2" width="15.478" height="304.168"/>
				</g>
				<g>
					<circle class="st1" cx="483.116" cy="449.541" r="23.022"/>
				</g>
				<g>
					<path class="st3" d="M483.116,498.533c-3.238,0-5.863-2.625-5.863-5.863v-20.108c0-3.238,2.625-5.863,5.863-5.863
						c3.238,0,5.863,2.625,5.863,5.863v20.108C488.978,495.908,486.353,498.533,483.116,498.533z"/>
				</g>
				<g>
					<path class="st3" d="M497.585,437.507c-1.319,0-2.626-0.444-3.689-1.306c-3.087-2.499-6.815-3.82-10.78-3.82
						c-3.965,0-7.692,1.321-10.78,3.82c-1.756,1.422-4.173,1.708-6.213,0.734c-2.04-0.973-3.338-3.031-3.338-5.291V148.286
						c0-3.238,2.624-5.863,5.863-5.863h28.937c3.238,0,5.863,2.625,5.863,5.863v283.358c0,2.259-1.299,4.318-3.338,5.292
						C499.305,437.319,498.442,437.507,497.585,437.507z M474.51,154.149v267.827c5.544-1.736,11.668-1.736,17.212,0V154.149H474.51
						z"/>
				</g>
				<g>
					<path class="st3" d="M483.116,478.425c-15.927,0-28.885-12.958-28.885-28.885s12.958-28.884,28.885-28.884
						S512,433.613,512,449.54S499.043,478.425,483.116,478.425z M483.116,432.381c-9.462,0-17.159,7.697-17.159,17.159
						c0,9.462,7.698,17.159,17.159,17.159s17.159-7.698,17.159-17.159C500.275,440.079,492.577,432.381,483.116,432.381z"/>
				</g>
			</g>
			<g>
				<g>
					<rect x="442.632" y="19.329" class="st5" width="29.358" height="67.623"/>
				</g>
				<g>
					<rect x="457.311" y="21.244" class="st7" width="15.478" height="65.708"/>
				</g>
				<g>
					<path class="st7" d="M457.311,102.095c1.93,0,3.824,0.144,5.682,0.407v-15.55H451.63v15.55
						C453.487,102.24,455.382,102.095,457.311,102.095z"/>
				</g>
				<g>
					<circle class="st5" cx="457.311" cy="142.368" r="40.273"/>
				</g>
				<g>
					<circle class="st7" cx="457.311" cy="142.368" r="21.212"/>
				</g>
				<g>
					<path class="st3" d="M457.311,169.443c-14.929,0-27.075-12.146-27.075-27.075c0-14.929,12.146-27.074,27.075-27.074
						c14.929,0,27.075,12.146,27.075,27.074C484.386,157.297,472.241,169.443,457.311,169.443z M457.311,127.019
						c-8.464,0-15.349,6.885-15.349,15.349c0,8.464,6.885,15.349,15.349,15.349c8.464,0,15.35-6.885,15.35-15.349
						C472.661,133.905,465.775,127.019,457.311,127.019z"/>
				</g>
				<g>
					<path class="st3" d="M462.993,108.364c-0.272,0-0.547-0.019-0.82-0.058c-3.277-0.463-6.446-0.463-9.723,0
						c-1.683,0.238-3.383-0.266-4.665-1.379c-1.282-1.114-2.018-2.728-2.018-4.426v-15.55c0-3.238,2.625-5.863,5.863-5.863h11.363
						c3.238,0,5.863,2.625,5.863,5.863v15.55c0,1.698-0.736,3.313-2.018,4.426C465.764,107.86,464.397,108.364,462.993,108.364z"/>
				</g>
				<g>
					<path class="st3" d="M457.311,188.504c-25.439,0-46.135-20.696-46.135-46.135s20.696-46.135,46.135-46.135
						c25.439,0,46.135,20.696,46.135,46.135S482.751,188.504,457.311,188.504z M457.311,107.958c-18.974,0-34.41,15.437-34.41,34.41
						c0,18.974,15.436,34.41,34.41,34.41c18.974,0,34.41-15.437,34.41-34.41C491.721,123.395,476.285,107.958,457.311,107.958z"/>
				</g>
				<g>
					<path class="st3" d="M471.991,92.815h-29.358c-3.238,0-5.863-2.625-5.863-5.863V19.329c0-3.238,2.625-5.863,5.863-5.863h29.358
						c3.238,0,5.863,2.625,5.863,5.863v67.623C477.853,90.19,475.228,92.815,471.991,92.815z M448.495,81.09h17.633V25.192h-17.633
						V81.09z"/>
				</g>
			</g>
		</g>
	</g>
</g>
</svg>
