<?xml version="1.0" encoding="utf-8"?>
<!-- Generator: Adobe Illustrator 18.0.0, SVG Export Plug-In . SVG Version: 6.00 Build 0)  -->
<!DOCTYPE svg PUBLIC "-//W3C//DTD SVG 1.1//EN" "http://www.w3.org/Graphics/SVG/1.1/DTD/svg11.dtd">
<svg version="1.1" id="Icon_Set" xmlns="http://www.w3.org/2000/svg" xmlns:xlink="http://www.w3.org/1999/xlink" x="0px" y="0px"
	 viewBox="0 0 512 512" style="enable-background:new 0 0 512 512;" xml:space="preserve">
<style type="text/css">
	.st0{fill:#F0C48A;}
	.st1{fill:#FD919E;}
	.st2{fill:#E8677D;}
	.st3{fill:#4C4372;}
	.st4{fill:#D3E6F8;}
	.st5{fill:#A4CFF2;}
	.st6{fill:#FFFFFF;}
	.st7{fill:#7BABF1;}
</style>
<g>
	<circle class="st0" cx="256" cy="256" r="207"/>
	<g>
		<g>
			<path class="st3" d="M506.137,160.374h-74.624c-3.238,0-5.863-2.625-5.863-5.862c0-3.238,2.625-5.863,5.863-5.863h74.624
				c3.238,0,5.863,2.625,5.863,5.863C512,157.749,509.375,160.374,506.137,160.374z"/>
		</g>
		<g>
			<rect x="355.174" y="110.634" class="st7" width="31.076" height="87.753"/>
		</g>
		<g>
			<path class="st1" d="M153.282,216.876H67.648v174.598c0,15.674,12.706,28.379,28.379,28.379h28.876
				c15.673,0,28.379-12.706,28.379-28.379V275.487h143.281l58.611-58.611H153.282z M110.465,394.843
				c-9.353,0-16.935-7.582-16.935-16.935c0-9.353,7.582-16.935,16.935-16.935s16.935,7.582,16.935,16.935
				C127.4,387.261,119.818,394.843,110.465,394.843z"/>
		</g>
		<g>
			<path class="st2" d="M346.433,216.876l-42.62,1.566l-13.691,13.691c-6.401,6.401-15.083,9.997-24.136,9.997H149.427h-5.287
				c-15.661,0-28.356,12.695-28.356,28.356v93.199c4.665,3.016,7.761,8.253,7.761,14.221c0,5.969-3.095,11.206-7.761,14.221v27.725
				h5.264c15.673,0,28.379-12.706,28.379-28.379V275.487h143.281L346.433,216.876z"/>
		</g>
		<g>
			<path class="st4" d="M355.174,216.876H68.228c-34.443,0-62.365-27.922-62.365-62.365v0c0-34.443,27.922-62.365,62.365-62.365
				h286.946V216.876z"/>
		</g>
		<g>
			<rect x="306.103" y="98.554" class="st5" width="44.186" height="118.323"/>
		</g>
		<g>
			<path class="st7" d="M400.421,185.604H386.25v-62.186h14.171c17.172,0,31.093,13.921,31.093,31.093v0
				C431.514,171.683,417.593,185.604,400.421,185.604z"/>
		</g>
		<g>
			<path class="st3" d="M355.174,222.74H68.228C30.607,222.74,0,192.133,0,154.512c0-37.621,30.607-68.228,68.228-68.228h286.946
				c3.238,0,5.863,2.625,5.863,5.863v124.731C361.036,220.115,358.411,222.74,355.174,222.74z M68.228,98.009
				c-31.156,0-56.503,25.347-56.503,56.503c0,31.156,25.347,56.503,56.503,56.503h281.083V98.009H68.228z"/>
		</g>
		<g>
			<path class="st3" d="M400.421,191.467H386.25c-3.238,0-5.863-2.625-5.863-5.863v-62.186c0-3.238,2.625-5.863,5.863-5.863h14.171
				c20.377,0,36.955,16.578,36.955,36.956C437.376,174.888,420.798,191.467,400.421,191.467z M392.113,179.741h8.308
				c13.912,0,25.23-11.318,25.23-25.23c0-13.912-11.318-25.231-25.23-25.231h-8.308V179.741z"/>
		</g>
		<g>
			<path class="st3" d="M136.896,140.576h-74.5c-3.238,0-5.863-2.625-5.863-5.863s2.625-5.863,5.863-5.863h74.5
				c3.238,0,5.863,2.625,5.863,5.863S140.134,140.576,136.896,140.576z"/>
		</g>
		<g>
			<path class="st3" d="M136.896,180.863h-74.5c-3.238,0-5.863-2.625-5.863-5.862c0-3.238,2.625-5.863,5.863-5.863h74.5
				c3.238,0,5.863,2.625,5.863,5.863C142.759,178.238,140.134,180.863,136.896,180.863z"/>
		</g>
		<g>
			<path class="st3" d="M124.903,425.717H96.027c-18.881,0-34.242-15.361-34.242-34.241V216.877c0-3.238,2.625-5.863,5.863-5.863
				h287.526c2.371,0,4.509,1.428,5.416,3.619c0.907,2.191,0.407,4.712-1.271,6.388l-58.611,58.611
				c-1.099,1.1-2.591,1.718-4.145,1.718H159.145v110.125C159.145,410.356,143.784,425.717,124.903,425.717z M73.511,222.74v168.736
				c0,12.415,10.101,22.516,22.517,22.516h28.875c12.416,0,22.517-10.101,22.517-22.516V275.488c0-3.238,2.625-5.863,5.863-5.863
				h140.852l46.886-46.885H73.511z M110.465,400.706c-12.571,0-22.797-10.227-22.797-22.798c0-12.571,10.227-22.798,22.797-22.798
				s22.797,10.227,22.797,22.798C133.262,390.479,123.036,400.706,110.465,400.706z M110.465,366.836
				c-6.105,0-11.072,4.967-11.072,11.072c0,6.105,4.967,11.073,11.072,11.073c6.105,0,11.072-4.967,11.072-11.073
				C121.537,371.803,116.57,366.836,110.465,366.836z"/>
		</g>
		<g>
			<path class="st3" d="M386.25,204.25h-31.076c-3.238,0-5.863-2.625-5.863-5.863v-87.753c0-3.238,2.625-5.863,5.863-5.863h31.076
				c3.238,0,5.863,2.625,5.863,5.863v87.753C392.113,201.625,389.488,204.25,386.25,204.25z M361.036,192.525h19.351v-76.028
				h-19.351V192.525z"/>
		</g>
	</g>
</g>
</svg>
