<?xml version="1.0" encoding="utf-8"?>
<!-- Generator: Adobe Illustrator 18.0.0, SVG Export Plug-In . SVG Version: 6.00 Build 0)  -->
<!DOCTYPE svg PUBLIC "-//W3C//DTD SVG 1.1//EN" "http://www.w3.org/Graphics/SVG/1.1/DTD/svg11.dtd">
<svg version="1.1" id="Icon_Set" xmlns="http://www.w3.org/2000/svg" xmlns:xlink="http://www.w3.org/1999/xlink" x="0px" y="0px"
	 viewBox="0 0 512 512" style="enable-background:new 0 0 512 512;" xml:space="preserve">
<style type="text/css">
	.st0{fill:#F0C48A;}
	.st1{fill:#FD919E;}
	.st2{fill:#E8677D;}
	.st3{fill:#4C4372;}
	.st4{fill:#D3E6F8;}
	.st5{fill:#A4CFF2;}
	.st6{fill:#FFFFFF;}
	.st7{fill:#7BABF1;}
</style>
<g>
	<circle class="st0" cx="256" cy="256" r="207"/>
	<g>
		<g>
			<g>
				<circle class="st6" cx="256.207" cy="330.04" r="112.051"/>
			</g>
		</g>
		<g>
			<path class="st3" d="M256.329,117.145c-32.297,0-58.572-26.276-58.572-58.572C197.757,26.276,224.032,0,256.329,0
				c32.297,0,58.573,26.276,58.573,58.572C314.901,90.869,288.625,117.145,256.329,117.145z M256.329,11.725
				c-25.831,0-46.846,21.015-46.846,46.847c0,25.832,21.015,46.847,46.846,46.847c25.832,0,46.847-21.015,46.847-46.847
				C303.176,32.741,282.161,11.725,256.329,11.725z"/>
		</g>
		<g>
			<path class="st1" d="M255,217.989c10.857,0,21,1.55,31,4.43V88.113c0-17.274-13.725-31.278-31-31.278l0,0
				c-17.275,0-31,14.004-31,31.278v134.306C233,219.539,244.143,217.989,255,217.989z"/>
		</g>
		<g>
			<path class="st7" d="M255.5,442.091c-25.207,0-49.5-8.326-67.5-22.375v19.231c0,37.108,30.392,67.19,67.5,67.19l0,0
				c37.108,0,67.5-30.082,67.5-67.19v-19.231C304,433.765,280.708,442.091,255.5,442.091z"/>
		</g>
		<g>
			<g>
				<path class="st2" d="M255.525,56.835c-3.657,0-7.14,0.633-10.402,1.787C257.271,62.916,266,74.495,266,88.113v130.383
					c7,0.667,14,1.986,20,3.923V88.113C286,70.839,272.8,56.835,255.525,56.835z"/>
			</g>
		</g>
		<g>
			<path class="st4" d="M256.207,217.989c-5.488,0-10.881,0.402-16.157,1.164c54.227,7.833,95.894,54.49,95.894,110.887
				c0,56.397-41.667,103.054-95.894,110.887c5.277,0.762,10.67,1.165,16.157,1.165c61.884,0,112.051-50.167,112.051-112.051
				C368.258,268.156,318.091,217.989,256.207,217.989z"/>
		</g>
		<g>
			<g>
				<circle class="st7" cx="256.207" cy="330.04" r="20.972"/>
			</g>
		</g>
		<g>
			<path class="st3" d="M254.5,512c-40.408,0-73.5-32.772-73.5-73.053v-19.231c0-2.225,1.684-4.259,3.676-5.249
				c1.992-0.991,4.587-0.769,6.361,0.574c18.053,13.662,40.847,21.187,63.988,21.187c23.141,0,45.881-7.525,63.935-21.187
				c1.774-1.343,3.974-1.566,5.969-0.574c1.992,0.99,3.072,3.024,3.072,5.249v19.231C328,479.228,294.908,512,254.5,512z
				 M193,430.783v8.163c0,33.817,27.557,61.328,61.5,61.328s61.5-27.511,61.5-61.328v-8.163c-18,11.131-39.687,17.17-61.5,17.17
				S211,441.914,193,430.783z"/>
		</g>
		<g>
			<path class="st3" d="M286.398,228.281c-0.508,0-1.017-0.066-1.518-0.199c-10.916-2.927-20.091-4.231-29.749-4.231
				c-10.524,0-21.531,1.548-29.442,4.139c-1.788,0.585-4.244,0.279-5.766-0.824c-1.522-1.103-2.923-2.868-2.923-4.747V88.113
				c0-20.479,16.527-37.14,37-37.14s37,16.661,37,37.14v134.306c0,1.822-0.217,3.542-1.663,4.652
				C288.301,227.865,287.675,228.281,286.398,228.281z M254.5,212.126c8.45,0,16.5,0.886,25.5,2.828V88.113
				c0-14.014-11.491-25.415-25.5-25.415S229,74.098,229,88.113v126.66C237,213.068,245.719,212.126,254.5,212.126z"/>
		</g>
		<g>
			<g>
				<path class="st3" d="M256.207,447.953c-65.017,0-117.913-52.896-117.913-117.913c0-65.018,52.896-117.914,117.913-117.914
					c65.018,0,117.914,52.896,117.914,117.914C374.121,395.057,321.225,447.953,256.207,447.953z M256.207,223.851
					c-58.553,0-106.188,47.637-106.188,106.189s47.635,106.188,106.188,106.188s106.189-47.635,106.189-106.188
					S314.759,223.851,256.207,223.851z"/>
			</g>
		</g>
		<g>
			<g>
				<path class="st3" d="M256.207,356.874c-14.797,0-26.834-12.037-26.834-26.834c0-14.797,12.037-26.834,26.834-26.834
					c14.797,0,26.834,12.037,26.834,26.834C283.041,344.837,271.003,356.874,256.207,356.874z M256.207,314.931
					c-8.331,0-15.109,6.778-15.109,15.109s6.778,15.109,15.109,15.109c8.331,0,15.109-6.778,15.109-15.109
					S264.538,314.931,256.207,314.931z"/>
			</g>
		</g>
		<g>
			<path class="st3" d="M255,245.252c-3.238,0-6-2.625-6-5.863v-21.496c0-3.238,2.762-5.863,6-5.863c3.238,0,6,2.625,6,5.863v21.496
				C261,242.627,258.238,245.252,255,245.252z"/>
		</g>
		<g>
			<path class="st3" d="M255,447.512c-3.238,0-6-2.625-6-5.863v-22.473c0-3.238,2.762-5.863,6-5.863c3.238,0,6,2.625,6,5.863v22.473
				C261,444.887,258.238,447.512,255,447.512z"/>
		</g>
		<g>
			<path class="st3" d="M367.498,336h-22.473c-3.238,0-5.863-2.762-5.863-6s2.625-6,5.863-6h22.473c3.238,0,5.863,2.762,5.863,6
				S370.735,336,367.498,336z"/>
		</g>
		<g>
			<path class="st3" d="M166.215,336h-22.473c-3.238,0-5.863-2.762-5.863-6s2.625-6,5.863-6h22.473c3.238,0,5.863,2.762,5.863,6
				S169.453,336,166.215,336z"/>
		</g>
		<g>
			<path class="st3" d="M192.675,271.62c-1.5,0-3.001-0.573-4.145-1.717l-15.564-15.564c-2.29-2.289-2.29-6.001,0-8.29
				c2.288-2.29,6.002-2.29,8.29,0l15.564,15.564c2.29,2.289,2.29,6.001,0,8.29C195.676,271.048,194.175,271.62,192.675,271.62z"/>
		</g>
		<g>
			<path class="st3" d="M335.208,414.153c-1.5,0-3.001-0.573-4.145-1.718l-15.564-15.564c-2.29-2.289-2.29-6.001,0-8.29
				c2.288-2.29,6.002-2.29,8.29,0l15.564,15.564c2.29,2.289,2.29,6.001,0,8.29C338.208,413.58,336.708,414.153,335.208,414.153z"/>
		</g>
		<g>
			<path class="st3" d="M319.644,272.439c-1.5,0-3.001-0.573-4.145-1.717c-2.29-2.289-2.29-6.001,0-8.29l15.564-15.564
				c2.288-2.29,6.002-2.29,8.29,0c2.29,2.289,2.29,6.001,0,8.29l-15.564,15.564C322.645,271.866,321.144,272.439,319.644,272.439z"
				/>
		</g>
		<g>
			<path class="st3" d="M177.111,414.971c-1.5,0-3.001-0.573-4.145-1.718c-2.29-2.289-2.29-6.001,0-8.29L188.53,389.4
				c2.288-2.29,6.002-2.29,8.29,0c2.29,2.289,2.29,6.001,0,8.29l-15.564,15.564C180.112,414.399,178.611,414.971,177.111,414.971z"
				/>
		</g>
		<g>
			<path class="st3" d="M255,314.626c-3.238,0-6-2.625-6-5.863v-39.084c0-3.238,2.762-5.863,6-5.863c3.238,0,6,2.625,6,5.863v39.084
				C261,312.001,258.238,314.626,255,314.626z"/>
		</g>
	</g>
</g>
</svg>
