<?xml version="1.0" encoding="utf-8"?>
<!-- Generator: Adobe Illustrator 18.0.0, SVG Export Plug-In . SVG Version: 6.00 Build 0)  -->
<!DOCTYPE svg PUBLIC "-//W3C//DTD SVG 1.1//EN" "http://www.w3.org/Graphics/SVG/1.1/DTD/svg11.dtd">
<svg version="1.1" id="Icon_Set" xmlns="http://www.w3.org/2000/svg" xmlns:xlink="http://www.w3.org/1999/xlink" x="0px" y="0px"
	 viewBox="0 0 512 512" style="enable-background:new 0 0 512 512;" xml:space="preserve">
<style type="text/css">
	.st0{fill:#F0C48A;}
	.st1{fill:#FD919E;}
	.st2{fill:#E8677D;}
	.st3{fill:#4C4372;}
	.st4{fill:#D3E6F8;}
	.st5{fill:#A4CFF2;}
	.st6{fill:#FFFFFF;}
	.st7{fill:#7BABF1;}
</style>
<g>
	<circle class="st0" cx="256" cy="256" r="207"/>
	<g>
		<g>
			<path class="st4" d="M387.038,506.137H124.962v-24.335c0-19.737,16-35.737,35.737-35.737h190.601
				c19.737,0,35.737,16,35.737,35.737V506.137z"/>
		</g>
		<g>
			<path class="st5" d="M351.181,447H322v59h64v-24.199C386,462.064,370.918,447,351.181,447z"/>
		</g>
		<g>
			<path class="st4" d="M461.949,393.964H50.051c-17.054,0-30.878-13.825-30.878-30.878V36.741
				c0-17.053,13.824-30.878,30.878-30.878h411.898c17.053,0,30.878,13.825,30.878,30.878v326.345
				C492.827,380.139,479.002,393.964,461.949,393.964z"/>
		</g>
		<g>
			<path class="st5" d="M461.829,7H423v387h38.829C478.883,394,492,380.139,492,363.086V36.741C492,19.687,478.883,7,461.829,7z"/>
		</g>
		<g>
			<rect x="69.041" y="47.796" class="st7" width="373.918" height="304.234"/>
		</g>
		<g>
			<rect x="201.389" y="393.964" class="st5" width="109.223" height="52.101"/>
		</g>
		<g>
			<path class="st3" d="M461.948,399.826H50.052c-20.26,0-36.742-16.482-36.742-36.74V36.741C13.31,16.482,29.792,0,50.052,0
				h411.897c20.26,0,36.741,16.482,36.741,36.741v326.345C498.69,383.345,482.208,399.826,461.948,399.826z M50.052,11.725
				c-13.794,0-25.016,11.221-25.016,25.015v326.345c0,13.794,11.222,25.015,25.016,25.015h411.897
				c13.794,0,25.016-11.221,25.016-25.015V36.741c0-13.794-11.222-25.015-25.016-25.015H50.052z"/>
		</g>
		<g>
			<path class="st3" d="M310.612,451.927H201.388c-3.238,0-5.863-2.625-5.863-5.863v-52.101c0-3.238,2.625-5.863,5.863-5.863
				h109.223c3.238,0,5.863,2.625,5.863,5.863v52.101C316.474,449.302,313.849,451.927,310.612,451.927z M207.251,440.202h97.498
				v-40.376h-97.498V440.202z"/>
		</g>
		<g>
			<path class="st3" d="M387.038,512H124.962c-3.238,0-5.863-2.625-5.863-5.863v-24.336c0-22.938,18.662-41.599,41.6-41.599h190.601
				c22.938,0,41.6,18.661,41.6,41.599v24.336C392.901,509.375,390.276,512,387.038,512z M130.824,500.275h250.351v-18.473
				c0-16.472-13.402-29.874-29.875-29.874H160.699c-16.473,0-29.875,13.402-29.875,29.874V500.275z"/>
		</g>
		<g>
			<path class="st3" d="M442.959,357.892H69.041c-3.238,0-5.863-2.625-5.863-5.863V47.797c0-3.238,2.625-5.863,5.863-5.863h373.918
				c3.238,0,5.863,2.625,5.863,5.863V352.03C448.822,355.267,446.197,357.892,442.959,357.892z M74.904,346.167h362.193V53.659
				H74.904V346.167z"/>
		</g>
		<g>
			<path class="st3" d="M268.292,295c-0.027,0-0.053,0-0.079,0c-2.499,0-4.702-1.768-5.488-4.141l-51.62-156.075l-34.963,70.06
				c-0.991,1.99-3.024,3.156-5.247,3.156h-61.46c-3.238,0-5.863-2.762-5.863-6s2.625-6,5.863-6h57.831l39.69-79.435
				c1.059-2.125,3.296-3.306,5.665-3.133c2.369,0.169,4.402,1.801,5.148,4.055l50.762,153.448l48.69-134.892
				c0.832-2.305,3.01-3.844,5.462-3.866c2.408-0.023,4.658,1.266,5.531,3.556l22.3,58.266h46.189c3.238,0,5.863,2.762,5.863,6
				s-2.625,6-5.863,6h-50.228c-2.432,0-4.612-1.418-5.478-3.69l-18.11-47.454l-49.081,136.131
				C272.966,293.312,270.759,295,268.292,295z"/>
		</g>
		<g>
			<rect x="109.825" y="240.384" class="st1" width="96.317" height="26.994"/>
		</g>
		<g>
			<rect x="109.825" y="288.929" class="st1" width="96.317" height="26.994"/>
		</g>
		<g>
			<path class="st3" d="M206.142,273.241h-96.318c-3.238,0-5.863-2.625-5.863-5.863v-26.994c0-3.238,2.625-5.863,5.863-5.863h96.318
				c3.238,0,5.863,2.625,5.863,5.863v26.994C212.005,270.616,209.38,273.241,206.142,273.241z M115.687,261.515h84.592v-15.269
				h-84.592V261.515z"/>
		</g>
		<g>
			<path class="st3" d="M206.142,321.785h-96.318c-3.238,0-5.863-2.625-5.863-5.863v-26.994c0-3.238,2.625-5.863,5.863-5.863h96.318
				c3.238,0,5.863,2.625,5.863,5.863v26.994C212.005,319.16,209.38,321.785,206.142,321.785z M115.687,310.06h84.592v-15.269
				h-84.592V310.06z"/>
		</g>
	</g>
</g>
</svg>
