<?xml version="1.0" encoding="utf-8"?>
<!-- Generator: Adobe Illustrator 18.0.0, SVG Export Plug-In . SVG Version: 6.00 Build 0)  -->
<!DOCTYPE svg PUBLIC "-//W3C//DTD SVG 1.1//EN" "http://www.w3.org/Graphics/SVG/1.1/DTD/svg11.dtd">
<svg version="1.1" id="Icon_Set" xmlns="http://www.w3.org/2000/svg" xmlns:xlink="http://www.w3.org/1999/xlink" x="0px" y="0px"
	 viewBox="0 0 512 512" style="enable-background:new 0 0 512 512;" xml:space="preserve">
<style type="text/css">
	.st0{fill:#F0C48A;}
	.st1{fill:#FD919E;}
	.st2{fill:#E8677D;}
	.st3{fill:#4C4372;}
	.st4{fill:#D3E6F8;}
	.st5{fill:#A4CFF2;}
	.st6{fill:#FFFFFF;}
	.st7{fill:#7BABF1;}
</style>
<g>
	<circle class="st0" cx="256" cy="256" r="207"/>
	<g>
		<g>
			<rect x="113.428" y="5.863" class="st4" width="285.144" height="500.275"/>
		</g>
		<g>
			<rect x="358.901" y="5.863" class="st5" width="39.671" height="500.275"/>
		</g>
		<g>
			<rect x="151.336" y="47.159" class="st7" width="209.329" height="88.741"/>
		</g>
		<g>
			<path class="st1" d="M256,370.62L256,370.62c-21.209,0-38.402-17.193-38.402-38.402V203.707
				c0-21.209,17.193-38.402,38.402-38.402h0c21.209,0,38.402,17.193,38.402,38.402v128.511
				C294.402,353.427,277.209,370.62,256,370.62z"/>
		</g>
		<g>
			<circle class="st1" cx="169.108" cy="410.739" r="17.772"/>
		</g>
		<g>
			<circle class="st1" cx="227.036" cy="410.739" r="17.772"/>
		</g>
		<g>
			<circle class="st1" cx="284.964" cy="410.739" r="17.772"/>
		</g>
		<g>
			<circle class="st1" cx="342.892" cy="410.739" r="17.772"/>
		</g>
		<g>
			<circle class="st1" cx="169.108" cy="459.937" r="17.772"/>
		</g>
		<g>
			<circle class="st1" cx="227.036" cy="459.937" r="17.772"/>
		</g>
		<g>
			<circle class="st1" cx="284.964" cy="459.937" r="17.772"/>
		</g>
		<g>
			<circle class="st1" cx="342.892" cy="459.937" r="17.772"/>
		</g>
		<g>
			<path class="st3" d="M398.572,512H113.428c-3.238,0-5.863-2.625-5.863-5.863V5.863c0-3.238,2.625-5.863,5.863-5.863h285.144
				c3.238,0,5.863,2.625,5.863,5.863v500.275C404.435,509.375,401.81,512,398.572,512z M119.291,500.275H392.71V11.725H119.291
				V500.275z"/>
		</g>
		<g>
			<path class="st3" d="M360.665,141.762H151.335c-3.238,0-5.863-2.625-5.863-5.863v-88.74c0-3.238,2.625-5.863,5.863-5.863h209.329
				c3.238,0,5.863,2.625,5.863,5.863v88.74C366.527,139.137,363.902,141.762,360.665,141.762z M157.198,130.037h197.604V53.022
				H157.198V130.037z"/>
		</g>
		<g>
			<path class="st3" d="M339.861,120.309H172.139c-3.238,0-5.863-2.625-5.863-5.863V68.613c0-3.238,2.625-5.863,5.863-5.863h167.721
				c3.238,0,5.863,2.625,5.863,5.863v45.834C345.723,117.684,343.099,120.309,339.861,120.309z M178.002,108.584h155.996V74.475
				H178.002V108.584z"/>
		</g>
		<g>
			<path class="st3" d="M256,376.483c-24.408,0-44.265-19.857-44.265-44.264V203.707c0-24.408,19.857-44.264,44.265-44.264
				s44.265,19.857,44.265,44.264v128.511C300.265,356.626,280.408,376.483,256,376.483z M256,171.168
				c-17.942,0-32.54,14.597-32.54,32.539v128.511c0,17.942,14.597,32.539,32.54,32.539c17.942,0,32.54-14.597,32.54-32.539V203.707
				C288.54,185.765,273.942,171.168,256,171.168z"/>
		</g>
		<g>
			<path class="st3" d="M169.108,434.374c-13.033,0-23.635-10.602-23.635-23.634s10.603-23.635,23.635-23.635
				c13.032,0,23.635,10.603,23.635,23.635S182.14,434.374,169.108,434.374z M169.108,398.829c-6.567,0-11.91,5.343-11.91,11.91
				c0,6.567,5.343,11.909,11.91,11.909c6.567,0,11.91-5.343,11.91-11.909C181.018,404.172,175.675,398.829,169.108,398.829z"/>
		</g>
		<g>
			<path class="st3" d="M227.036,434.374c-13.032,0-23.635-10.602-23.635-23.634s10.603-23.635,23.635-23.635
				c13.033,0,23.635,10.603,23.635,23.635S240.068,434.374,227.036,434.374z M227.036,398.829c-6.567,0-11.91,5.343-11.91,11.91
				c0,6.567,5.342,11.909,11.91,11.909c6.567,0,11.91-5.343,11.91-11.909C238.946,404.172,233.603,398.829,227.036,398.829z"/>
		</g>
		<g>
			<path class="st3" d="M284.964,434.374c-13.032,0-23.635-10.602-23.635-23.634s10.603-23.635,23.635-23.635
				c13.033,0,23.635,10.603,23.635,23.635S297.997,434.374,284.964,434.374z M284.964,398.829c-6.567,0-11.91,5.343-11.91,11.91
				c0,6.567,5.343,11.909,11.91,11.909c6.567,0,11.91-5.343,11.91-11.909C296.874,404.172,291.531,398.829,284.964,398.829z"/>
		</g>
		<g>
			<path class="st3" d="M342.892,434.374c-13.032,0-23.635-10.602-23.635-23.634s10.603-23.635,23.635-23.635
				c13.032,0,23.635,10.603,23.635,23.635S355.925,434.374,342.892,434.374z M342.892,398.829c-6.567,0-11.91,5.343-11.91,11.91
				c0,6.567,5.342,11.909,11.91,11.909c6.567,0,11.91-5.343,11.91-11.909C354.802,404.172,349.46,398.829,342.892,398.829z"/>
		</g>
		<g>
			<path class="st3" d="M169.108,483.572c-13.033,0-23.635-10.602-23.635-23.635c0-13.032,10.603-23.635,23.635-23.635
				c13.032,0,23.635,10.603,23.635,23.635C192.743,472.97,182.14,483.572,169.108,483.572z M169.108,448.027
				c-6.567,0-11.91,5.343-11.91,11.91c0,6.567,5.343,11.909,11.91,11.909c6.567,0,11.91-5.343,11.91-11.909
				C181.018,453.369,175.675,448.027,169.108,448.027z"/>
		</g>
		<g>
			<path class="st3" d="M227.036,483.572c-13.032,0-23.635-10.602-23.635-23.635c0-13.032,10.603-23.635,23.635-23.635
				c13.033,0,23.635,10.603,23.635,23.635C250.671,472.97,240.068,483.572,227.036,483.572z M227.036,448.027
				c-6.567,0-11.91,5.343-11.91,11.91c0,6.567,5.342,11.909,11.91,11.909c6.567,0,11.91-5.343,11.91-11.909
				C238.946,453.369,233.603,448.027,227.036,448.027z"/>
		</g>
		<g>
			<path class="st3" d="M284.964,483.572c-13.032,0-23.635-10.602-23.635-23.635c0-13.032,10.603-23.635,23.635-23.635
				c13.033,0,23.635,10.603,23.635,23.635C308.599,472.97,297.997,483.572,284.964,483.572z M284.964,448.027
				c-6.567,0-11.91,5.343-11.91,11.91c0,6.567,5.343,11.909,11.91,11.909c6.567,0,11.91-5.343,11.91-11.909
				C296.874,453.369,291.531,448.027,284.964,448.027z"/>
		</g>
		<g>
			<path class="st3" d="M342.892,483.572c-13.032,0-23.635-10.602-23.635-23.635c0-13.032,10.603-23.635,23.635-23.635
				c13.032,0,23.635,10.603,23.635,23.635C366.527,472.97,355.925,483.572,342.892,483.572z M342.892,448.027
				c-6.567,0-11.91,5.343-11.91,11.91c0,6.567,5.342,11.909,11.91,11.909c6.567,0,11.91-5.343,11.91-11.909
				C354.802,453.369,349.46,448.027,342.892,448.027z"/>
		</g>
		<g>
			<path class="st3" d="M272.611,338h-35.176c-3.238,0-5.863-2.762-5.863-6s2.625-6,5.863-6h35.176c3.238,0,5.863,2.762,5.863,6
				S275.848,338,272.611,338z"/>
		</g>
		<g>
			<path class="st3" d="M272.611,306h-35.176c-3.238,0-5.863-2.762-5.863-6s2.625-6,5.863-6h35.176c3.238,0,5.863,2.762,5.863,6
				S275.848,306,272.611,306z"/>
		</g>
		<g>
			<path class="st3" d="M272.611,273h-35.176c-3.238,0-5.863-2.762-5.863-6s2.625-6,5.863-6h35.176c3.238,0,5.863,2.762,5.863,6
				S275.848,273,272.611,273z"/>
		</g>
		<g>
			<path class="st3" d="M272.611,241h-35.176c-3.238,0-5.863-2.262-5.863-5.5s2.625-5.5,5.863-5.5h35.176
				c3.238,0,5.863,2.262,5.863,5.5S275.848,241,272.611,241z"/>
		</g>
		<g>
			<path class="st3" d="M272.611,209h-35.176c-3.238,0-5.863-2.762-5.863-6s2.625-6,5.863-6h35.176c3.238,0,5.863,2.762,5.863,6
				S275.848,209,272.611,209z"/>
		</g>
	</g>
</g>
</svg>
