<?xml version="1.0" encoding="utf-8"?>
<!-- Generator: Adobe Illustrator 18.0.0, SVG Export Plug-In . SVG Version: 6.00 Build 0)  -->
<!DOCTYPE svg PUBLIC "-//W3C//DTD SVG 1.1//EN" "http://www.w3.org/Graphics/SVG/1.1/DTD/svg11.dtd">
<svg version="1.1" id="Icon_Set" xmlns="http://www.w3.org/2000/svg" xmlns:xlink="http://www.w3.org/1999/xlink" x="0px" y="0px"
	 viewBox="0 0 512 512" style="enable-background:new 0 0 512 512;" xml:space="preserve">
<style type="text/css">
	.st0{fill:#F0C48A;}
	.st1{fill:#FD919E;}
	.st2{fill:#E8677D;}
	.st3{fill:#4C4372;}
	.st4{fill:#D3E6F8;}
	.st5{fill:#A4CFF2;}
	.st6{fill:#FFFFFF;}
	.st7{fill:#7BABF1;}
</style>
<g>
	<circle class="st0" cx="256" cy="256" r="207"/>
	<g>
		<g>
			<polygon class="st6" points="339.379,82.393 172.621,149.813 5.863,82.393 5.863,362.188 172.621,429.607 339.379,362.188 
				506.137,429.607 506.137,149.813 			"/>
		</g>
		<g>
			<polygon class="st7" points="23.212,113.277 23.212,347.59 172.721,407.612 340.391,340.429 488.653,401.609 488.653,164.9 
				340.236,104.952 173.812,172.067 			"/>
		</g>
		<g>
			<path class="st5" d="M26.954,256.282c0,0,29.787,76.637,15.722,99.122c-19.464-7.814-19.464-7.814-19.464-7.814L26.954,256.282z"
				/>
		</g>
		<g>
			<path class="st5" d="M488.653,311.425V164.9l-148.417-59.948l-166.424,67.115l-105.26-41.091
				c-36.189,76.776,46.537,156.563,46.537,156.563c40.841,43.753,78.433,75.708,112.803,97.966l112.499-45.076l105.565,43.561
				C464.699,363.952,478.923,338.608,488.653,311.425z"/>
		</g>
		<g>
			<path class="st4" d="M280.717,155.03c-21.483,19.354-41.667,9.787-61.436-1.299l-45.47,18.337l-29.74-11.61
				c-36.004,53.994,26.081,113.879,26.081,113.879c45.321,48.552,84.678,75.448,118.121,86.976l52.118-20.883l33.401,13.783
				c45.14-29.447,63.469-99.231,55.398-148.238C413.395,110.067,328.102,112.341,280.717,155.03z"/>
		</g>
		<g>
			<path class="st3" d="M172.621,435.47c-0.746,0-1.493-0.143-2.197-0.427L3.665,367.623C1.45,366.727,0,364.577,0,362.188V82.394
				c0-1.949,0.969-3.771,2.585-4.861c1.615-1.091,3.668-1.307,5.475-0.574l164.561,66.532l164.561-66.532
				c1.409-0.57,2.986-0.57,4.395,0l166.758,67.42c2.215,0.896,3.665,3.046,3.665,5.435v279.794c0,1.949-0.969,3.771-2.585,4.861
				c-1.616,1.09-3.669,1.305-5.475,0.574l-164.561-66.531l-164.561,66.531C174.113,435.327,173.367,435.47,172.621,435.47z
				 M11.725,358.234l160.895,65.05l164.561-66.531c1.409-0.57,2.986-0.57,4.395,0l158.698,64.161V153.767l-160.896-65.05
				l-164.561,66.531c-1.409,0.57-2.986,0.57-4.395,0L11.725,91.087V358.234z"/>
		</g>
		<g>
			<path class="st2" d="M228.282,260.397c0,0-31.842-30.711-10.614-57.266c21.228-26.555,40.94,20.49,63.684,0
				c22.744-20.49,63.684-21.582,71.266,24.453C360.199,273.619,319.259,357.86,228.282,260.397z"/>
		</g>
		<g>
			<path class="st3" d="M312.265,336.061c-26.781,0.001-63.483-15.113-111.081-66.07c-1.354-1.329-12.418-12.447-20.02-28.201
				c-10.958-22.706-9.406-43.895,4.487-61.275c18.814-23.535,38.163-12.576,53.711-3.771c15.695,8.89,25.918,13.795,37.816,3.076
				c20.637-18.592,48.574-25.487,71.168-17.567c21.236,7.444,35.523,27.283,40.23,55.863c6.448,39.152-9.848,92.849-47.42,111.329
				C333.274,333.322,323.667,336.061,312.265,336.061z M211.058,178.161c-5.571,0-10.702,2.737-16.249,9.676
				c-11.033,13.801-12.071,30.239-3.086,48.857c7.036,14.579,17.615,24.873,17.721,24.975c0.074,0.072,0.146,0.145,0.216,0.219
				c27.043,28.971,52.427,48.12,75.447,56.916c19.088,7.294,36.206,7.333,50.874,0.118c31.715-15.599,46.818-63.733,41.025-98.902
				c-4.036-24.506-15.288-40.656-32.539-46.703c-18.325-6.424-42.212-0.309-59.442,15.214c-18.778,16.917-36.889,6.658-51.443-1.585
				C224.592,181.854,217.529,178.161,211.058,178.161z"/>
		</g>
		<g>
			<path class="st1" d="M256.636,253.598c0,0-15.015-14.482-5.005-27.004c10.01-12.522,19.305,9.662,30.03,0
				c10.725-9.662,30.03-10.177,33.605,11.531C318.842,259.833,299.537,299.557,256.636,253.598z"/>
		</g>
		<g>
			<path class="st3" d="M288.273,367.174c-0.645,0-1.291-0.106-1.91-0.32c-37.021-12.76-77.528-42.506-120.4-88.414
				c-1.606-1.571-16.629-16.558-27.581-38.143c-15.433-30.417-15.153-59.15,0.812-83.092c1.528-2.292,4.445-3.21,7.01-2.209
				l27.574,10.764l43.312-17.467c1.649-0.666,3.51-0.546,5.061,0.324c19.878,11.149,36.525,18.38,54.644,2.057l3.924,4.356
				l-3.924-4.356c13.885-12.508,30.56-21.585,48.223-26.25c18.556-4.9,36.879-4.506,52.99,1.142
				c21.246,7.447,48.375,27.277,56.969,79.455c8.5,51.613-10.863,123.366-57.979,154.102c-1.619,1.055-3.653,1.246-5.439,0.509
				l-31.198-12.874l-49.905,19.995C289.755,367.033,289.014,367.174,288.273,367.174z M146.488,167.695
				c-11.116,19.531-10.379,42.057,2.216,67.033c10.415,20.653,25.371,35.246,25.521,35.391c0.071,0.069,0.144,0.144,0.212,0.216
				c40.783,43.691,79.026,72.18,113.705,84.713l50.068-20.061c1.42-0.568,3.004-0.56,4.417,0.022l30.485,12.579
				c18.499-13.066,33.625-34.964,42.78-62.039c8.745-25.861,11.484-54.518,7.513-78.624c-6.063-36.813-23.103-61.12-49.278-70.295
				c-27.658-9.693-63.618-0.55-89.486,22.754c-24.584,22.146-48.917,10.203-65.771,0.832l-42.866,17.287
				c-1.386,0.56-2.933,0.568-4.325,0.024L146.488,167.695z"/>
		</g>
		<g>
			<path class="st3" d="M256.936,379.731c-0.963,0-1.922-0.237-2.789-0.706c-36.11-19.532-74.759-51.218-114.879-94.182
				c-1.748-1.706-19.157-19.012-32.551-44.264c-18.684-35.227-20.279-68.882-4.61-97.327c1.419-2.575,4.528-3.7,7.267-2.633
				l66.571,25.987c3.016,1.178,4.507,4.577,3.33,7.593c-1.177,3.016-4.577,4.507-7.593,3.33l-61.624-24.056
				c-27.644,59.225,36.798,122.398,37.469,123.046c0.074,0.071,0.146,0.144,0.216,0.219c38.39,41.126,75.245,71.614,109.583,90.66
				l80.886-32.409c1.42-0.568,3.004-0.56,4.417,0.022l65.813,27.157c43.483-41.145,58.359-115.212,50.132-165.166
				c-2.698-16.386-7.197-30.951-13.38-43.334l-107.152-43.28c-3.002-1.213-4.453-4.629-3.241-7.632
				c1.213-3.002,4.632-4.453,7.632-3.241l109.181,44.099c1.291,0.521,2.355,1.486,3,2.719c7.264,13.891,12.489,30.297,15.53,48.762
				c4.801,29.155,2.336,62.74-6.941,94.57c-10.171,34.893-27.338,63.844-49.646,83.722c-1.677,1.495-4.06,1.9-6.137,1.042
				l-67.06-27.672l-81.242,32.552C258.415,379.592,257.674,379.731,256.936,379.731z"/>
		</g>
		<g>
			<path class="st3" d="M227.892,391.368c-1.116,0-2.225-0.318-3.188-0.942c-36.201-23.445-74.491-56.681-113.803-98.781
				c-1.894-1.846-21.851-21.63-37.795-50.783c-22.077-40.366-25.486-79.229-9.857-112.385c1.315-2.788,4.564-4.081,7.435-2.962
				l103.093,40.245l164.266-66.245c1.408-0.568,2.981-0.567,4.388,0.001l148.418,59.947c2.216,0.895,3.667,3.046,3.667,5.436
				v146.525c0,0.673-0.116,1.342-0.343,1.976c-10.478,29.273-25.67,55.067-43.936,74.594c-1.666,1.781-4.261,2.347-6.518,1.415
				l-103.361-42.652l-110.286,44.189C229.369,391.229,228.629,391.368,227.892,391.368z M71.674,138.489
				c-28.231,70.646,46.707,144.08,47.485,144.831c0.074,0.071,0.146,0.144,0.216,0.219c37.772,40.465,74.484,72.542,109.168,95.39
				l109.667-43.941c1.418-0.569,3.003-0.561,4.417,0.022l101.765,41.993c15.782-17.773,29.005-40.692,38.398-66.602V168.854
				l-142.557-57.58l-164.229,66.23c-1.386,0.56-2.932,0.568-4.325,0.024L71.674,138.489z M488.653,311.425h0.01H488.653z"/>
		</g>
		<g>
			<path class="st3" d="M172.72,413.474c-0.742,0-1.483-0.141-2.184-0.422L21.028,353.03c-2.222-0.892-3.679-3.046-3.679-5.44
				V113.277c0-1.937,0.957-3.748,2.556-4.841c1.598-1.093,3.633-1.325,5.438-0.62l148.433,57.945l164.266-66.245
				c1.408-0.568,2.981-0.567,4.388,0.001l148.418,59.947c2.216,0.895,3.667,3.046,3.667,5.436v236.709
				c0,1.957-0.976,3.784-2.602,4.873c-1.626,1.088-3.689,1.292-5.497,0.547l-146.059-60.271l-165.458,66.295
				C174.201,413.334,173.461,413.474,172.72,413.474z M29.074,343.626l143.648,57.669l165.488-66.308
				c1.42-0.568,3.005-0.56,4.417,0.022l140.164,57.838V168.854l-142.557-57.58l-164.229,66.23c-1.386,0.56-2.932,0.568-4.325,0.024
				l-142.605-55.67V343.626z"/>
		</g>
		<g>
			<path class="st3" d="M84.109,377.9c-3.22,0-5.84-2.6-5.862-5.824c-0.525-80.151-59.715-203.387-60.313-204.623
				c-1.41-2.915-0.191-6.42,2.724-7.831c2.915-1.411,6.421-0.191,7.831,2.724c0.152,0.314,15.392,31.926,30.476,73.21
				c20.347,55.689,30.779,101.594,31.008,136.443c0.021,3.238-2.586,5.88-5.824,5.901C84.135,377.9,84.122,377.9,84.109,377.9z"/>
		</g>
		<g>
			<path class="st3" d="M194.671,404.679c-1.459,0-2.919-0.541-4.055-1.63l-73.573-70.504c-1.771-1.698-3.605-0.924-4.312-0.512
				c-0.706,0.412-2.283,1.626-1.679,4.004l12.188,47.986c0.797,3.138-1.101,6.328-4.239,7.126c-3.138,0.799-6.328-1.101-7.125-4.239
				l-12.188-47.986c-1.702-6.699,1.167-13.54,7.139-17.02c5.971-3.481,13.337-2.607,18.328,2.176l73.573,70.504
				c2.338,2.241,2.417,5.951,0.176,8.289C197.753,404.074,196.213,404.679,194.671,404.679z"/>
		</g>
		<g>
			<path class="st3" d="M48.8,363.723c-0.131,0-0.263-0.004-0.396-0.013c-3.23-0.216-5.675-3.009-5.459-6.24
				c3.063-45.898-24.774-106.872-25.056-107.482c-1.355-2.94-0.072-6.423,2.868-7.779c2.939-1.357,6.421-0.074,7.779,2.866
				c1.201,2.601,29.372,64.271,26.109,113.176C54.437,361.348,51.86,363.723,48.8,363.723z"/>
		</g>
		<g>
			<path class="st3" d="M291.972,280.723c-9.816,0-22.964-5.314-39.521-23.017c-6.52-6.361-15.893-21.645-5.399-34.772
				c8.307-10.392,17.702-5.07,22.75-2.21c5.395,3.055,6.263,3.021,7.935,1.516c7.872-7.09,18.644-9.678,27.445-6.593
				c4.884,1.712,13.441,6.785,15.869,21.527c2.359,14.321-3.781,34.05-17.811,40.951
				C300.159,279.639,296.404,280.722,291.972,280.723z M258.544,228.528c-0.953,0-1.465,0.641-2.334,1.728
				c-6.598,8.254,4.384,19.015,4.496,19.123c0.074,0.072,0.146,0.145,0.216,0.219c14.964,16.031,28.155,22.424,37.143,18.004
				c8.785-4.321,13.068-18.501,11.417-28.524c-0.757-4.6-2.791-10.479-8.178-12.367c-4.742-1.663-11.059,0.04-15.718,4.239
				c-8.307,7.482-16.603,2.783-21.562-0.025C261.064,229.249,259.556,228.528,258.544,228.528z"/>
		</g>
		<g>
			<path class="st3" d="M303.202,311.331c-19.203,0.001-45.381-10.734-79.103-46.823c-12.341-11.972-30.381-40.806-11.01-65.037
				c14.118-17.66,29.006-9.23,39.875-3.073c10.628,6.02,17.005,9.097,24.464,2.379c14.932-13.453,35.199-18.423,51.631-12.664
				c15.515,5.438,25.937,19.829,29.344,40.519c4.621,28.057-7.137,66.574-34.189,79.88
				C318.478,309.332,311.488,311.331,303.202,311.331z M232.298,200.604c-3.47,0-6.544,1.8-10.051,6.188
				c-7.222,9.034-7.921,19.843-2.076,32.125c4.751,9.985,12.114,17.196,12.188,17.268c0.069,0.067,0.143,0.142,0.209,0.212
				c18.769,20.106,36.337,33.378,52.217,39.446c12.905,4.931,24.429,4.98,34.253,0.148c17.38-8.549,32.696-37.693,27.794-67.454
				c-2.717-16.503-10.205-27.347-21.653-31.359c-12.254-4.297-28.291-0.153-39.904,10.31c-14.099,12.701-27.966,4.847-38.091-0.888
				C240.844,203.008,236.307,200.604,232.298,200.604z"/>
		</g>
	</g>
</g>
</svg>
