<?xml version="1.0" encoding="utf-8"?>
<!-- Generator: Adobe Illustrator 18.0.0, SVG Export Plug-In . SVG Version: 6.00 Build 0)  -->
<!DOCTYPE svg PUBLIC "-//W3C//DTD SVG 1.1//EN" "http://www.w3.org/Graphics/SVG/1.1/DTD/svg11.dtd">
<svg version="1.1" id="Icon_Set" xmlns="http://www.w3.org/2000/svg" xmlns:xlink="http://www.w3.org/1999/xlink" x="0px" y="0px"
	 viewBox="0 0 512 512" style="enable-background:new 0 0 512 512;" xml:space="preserve">
<style type="text/css">
	.st0{fill:#F0C48A;}
	.st1{fill:#FD919E;}
	.st2{fill:#E8677D;}
	.st3{fill:#4C4372;}
	.st4{fill:#D3E6F8;}
	.st5{fill:#A4CFF2;}
	.st6{fill:#FFFFFF;}
	.st7{fill:#7BABF1;}
</style>
<g>
	<circle class="st0" cx="256" cy="256" r="207"/>
	<g>
		<g>
			<g>
				<rect x="211.099" y="244.697" class="st7" width="192.536" height="195.535"/>
			</g>
		</g>
		<g>
			<g>
				<path class="st3" d="M403.635,446.095H211.099c-3.238,0-5.863-2.625-5.863-5.863V244.697c0-3.238,2.625-5.863,5.863-5.863
					h192.536c3.238,0,5.863,2.625,5.863,5.863v195.535C409.497,443.47,406.872,446.095,403.635,446.095z M216.961,434.369h180.811
					v-183.81H216.961V434.369z"/>
			</g>
		</g>
		<g>
			<g>
				<rect x="248.677" y="5.862" class="st4" width="117.379" height="500.275"/>
			</g>
		</g>
		<g>
			<g>
				<rect x="327.263" y="6.197" class="st5" width="38.793" height="499.94"/>
			</g>
		</g>
		<g>
			<g>
				<polygon class="st1" points="52.618,287.244 160.156,329.096 248.677,329.096 248.677,244.697 38.667,244.697 				"/>
			</g>
		</g>
		<g>
			<g>
				<polygon class="st1" points="52.618,47.714 160.156,5.862 248.677,5.862 248.677,90.262 38.667,90.262 				"/>
			</g>
		</g>
		<g>
			<rect x="366.056" y="129.946" class="st7" width="64.534" height="37.81"/>
		</g>
		<g>
			<path class="st7" d="M451.962,207.222L451.962,207.222c-11.803,0-21.371-9.568-21.371-21.371v-73.998
				c0-11.803,9.568-21.371,21.371-21.371h0c11.803,0,21.371,9.568,21.371,21.371v73.998
				C473.332,197.654,463.764,207.222,451.962,207.222z"/>
		</g>
		<g>
			<g>
				<path class="st3" d="M366.057,512h-117.38c-3.238,0-5.863-2.625-5.863-5.863V5.863c0-3.238,2.625-5.863,5.863-5.863h117.38
					c3.238,0,5.863,2.625,5.863,5.863v500.275C371.919,509.375,369.295,512,366.057,512z M254.539,500.275h105.655V11.725H254.539
					V500.275z"/>
			</g>
		</g>
		<g>
			<g>
				<path class="st3" d="M248.677,334.959h-88.521c-0.728,0-1.449-0.136-2.126-0.399L50.491,292.708
					c-1.634-0.636-2.898-1.97-3.444-3.637l-13.95-42.548c-0.586-1.785-0.28-3.744,0.823-5.266c1.102-1.522,2.868-2.423,4.748-2.423
					h210.01c3.238,0,5.863,2.625,5.863,5.863v84.4C254.539,332.334,251.915,334.959,248.677,334.959z M161.257,323.234h81.557
					v-72.675H46.759l10.566,32.226L161.257,323.234z"/>
			</g>
		</g>
		<g>
			<g>
				<path class="st3" d="M248.677,96.124H38.667c-1.879,0-3.645-0.901-4.748-2.423c-1.103-1.522-1.409-3.481-0.823-5.266
					l13.95-42.548c0.546-1.667,1.81-3.001,3.445-3.637L158.03,0.399C158.708,0.135,159.429,0,160.156,0h88.521
					c3.238,0,5.863,2.625,5.863,5.863v84.399C254.539,93.499,251.915,96.124,248.677,96.124z M46.759,84.399h196.055V11.725h-81.557
					L57.325,52.173L46.759,84.399z"/>
			</g>
		</g>
		<g>
			<path class="st3" d="M430.59,173.619h-64.534c-3.238,0-5.863-2.625-5.863-5.863v-37.81c0-3.238,2.625-5.863,5.863-5.863h64.534
				c3.238,0,5.863,2.625,5.863,5.863v37.81C436.453,170.994,433.828,173.619,430.59,173.619z M371.919,161.894h52.809v-26.085
				h-52.809V161.894z"/>
		</g>
		<g>
			<path class="st3" d="M451.962,213.084c-15.017,0-27.234-12.217-27.234-27.233v-73.998c0-15.017,12.217-27.234,27.234-27.234
				c15.017,0,27.234,12.217,27.234,27.234v73.998C479.195,200.867,466.978,213.084,451.962,213.084z M451.962,96.344
				c-8.551,0-15.508,6.957-15.508,15.509v73.998c0,8.551,6.957,15.508,15.508,15.508c8.552,0,15.509-6.957,15.509-15.508v-73.998
				C467.47,103.301,460.513,96.344,451.962,96.344z"/>
		</g>
		<g>
			<path class="st3" d="M283.473,61h-34.198c-3.238,0-5.863-2.762-5.863-6s2.625-6,5.863-6h34.198c3.238,0,5.863,2.762,5.863,6
				S286.711,61,283.473,61z"/>
		</g>
		<g>
			<path class="st3" d="M283.473,141h-34.198c-3.238,0-5.863-2.762-5.863-6s2.625-6,5.863-6h34.198c3.238,0,5.863,2.762,5.863,6
				S286.711,141,283.473,141z"/>
		</g>
		<g>
			<path class="st3" d="M283.473,221h-34.198c-3.238,0-5.863-2.762-5.863-6s2.625-6,5.863-6h34.198c3.238,0,5.863,2.762,5.863,6
				S286.711,221,283.473,221z"/>
		</g>
		<g>
			<path class="st3" d="M283.473,301h-34.198c-3.238,0-5.863-2.762-5.863-6s2.625-6,5.863-6h34.198c3.238,0,5.863,2.762,5.863,6
				S286.711,301,283.473,301z"/>
		</g>
		<g>
			<path class="st3" d="M283.473,381h-34.198c-3.238,0-5.863-2.762-5.863-6s2.625-6,5.863-6h34.198c3.238,0,5.863,2.762,5.863,6
				S286.711,381,283.473,381z"/>
		</g>
		<g>
			<path class="st3" d="M283.473,461h-34.198c-3.238,0-5.863-2.762-5.863-6s2.625-6,5.863-6h34.198c3.238,0,5.863,2.762,5.863,6
				S286.711,461,283.473,461z"/>
		</g>
	</g>
</g>
</svg>
