<?xml version="1.0" encoding="utf-8"?>
<!-- Generator: Adobe Illustrator 18.0.0, SVG Export Plug-In . SVG Version: 6.00 Build 0)  -->
<!DOCTYPE svg PUBLIC "-//W3C//DTD SVG 1.1//EN" "http://www.w3.org/Graphics/SVG/1.1/DTD/svg11.dtd">
<svg version="1.1" id="Icon_Set" xmlns="http://www.w3.org/2000/svg" xmlns:xlink="http://www.w3.org/1999/xlink" x="0px" y="0px"
	 viewBox="0 0 512 512" style="enable-background:new 0 0 512 512;" xml:space="preserve">
<style type="text/css">
	.st0{fill:#F0C48A;}
	.st1{fill:#FD919E;}
	.st2{fill:#E8677D;}
	.st3{fill:#4C4372;}
	.st4{fill:#D3E6F8;}
	.st5{fill:#A4CFF2;}
	.st6{fill:#FFFFFF;}
	.st7{fill:#7BABF1;}
</style>
<g>
	<circle class="st0" cx="256" cy="256" r="207"/>
	<g>
		<g>
			<rect x="5.863" y="121.123" class="st4" width="500.275" height="235.363"/>
		</g>
		<g>
			<rect x="34.923" y="148.41" class="st6" width="269.183" height="180.79"/>
		</g>
		<g>
			<rect x="278.359" y="148.411" class="st4" width="25.746" height="129.992"/>
		</g>
		<g>
			<path class="st1" d="M34.923,280.371l17.946-24.827c12.786-17.688,38.443-17.688,51.229,0l8.129,11.246
				c12.786,17.688,38.443,17.688,51.229,0l40.513-56.044c12.786-17.688,38.443-17.688,51.229,0l48.907,67.657V329.2H34.923V280.371z
				"/>
		</g>
		<g>
			<polygon class="st2" points="304.105,328.336 278.359,328.336 278.359,242.786 304.105,273.202 			"/>
		</g>
		<g>
			<rect x="474.023" y="125.227" class="st5" width="28.592" height="228.044"/>
		</g>
		<g>
			<g>
				<rect x="66.623" y="356.487" class="st7" width="96.554" height="34.389"/>
			</g>
			<g>
				<rect x="348.823" y="356.487" class="st7" width="96.554" height="34.389"/>
			</g>
		</g>
		<g>
			<path class="st1" d="M362.615,224.308L362.615,224.308c-15.094,0-27.33-12.236-27.33-27.33v0c0-15.094,12.236-27.33,27.33-27.33
				h0c15.094,0,27.33,12.236,27.33,27.33v0C389.945,212.072,377.709,224.308,362.615,224.308z"/>
		</g>
		<g>
			<path class="st1" d="M362.615,307.962L362.615,307.962c-15.094,0-27.33-12.236-27.33-27.33l0,0
				c0-15.094,12.236-27.33,27.33-27.33h0c15.094,0,27.33,12.236,27.33,27.33l0,0C389.945,295.726,377.709,307.962,362.615,307.962z"
				/>
		</g>
		<g>
			<path class="st1" d="M449.072,224.308L449.072,224.308c-15.094,0-27.33-12.236-27.33-27.33v0c0-15.094,12.236-27.33,27.33-27.33
				h0c15.094,0,27.33,12.236,27.33,27.33v0C476.401,212.072,464.165,224.308,449.072,224.308z"/>
		</g>
		<g>
			<path class="st1" d="M449.072,307.962L449.072,307.962c-15.094,0-27.33-12.236-27.33-27.33l0,0
				c0-15.094,12.236-27.33,27.33-27.33h0c15.094,0,27.33,12.236,27.33,27.33l0,0C476.401,295.726,464.165,307.962,449.072,307.962z"
				/>
		</g>
		<g>
			<path class="st3" d="M506.137,362.349H5.863c-3.238,0-5.863-2.625-5.863-5.863V121.123c0-3.238,2.625-5.863,5.863-5.863h500.275
				c3.238,0,5.863,2.625,5.863,5.863v235.363C512,359.724,509.375,362.349,506.137,362.349z M11.725,350.624h488.55V126.986H11.725
				V350.624z"/>
		</g>
		<g>
			<path class="st3" d="M304.105,335.063H34.923c-3.238,0-5.863-2.625-5.863-5.863V148.41c0-3.238,2.625-5.863,5.863-5.863h269.182
				c3.238,0,5.863,2.625,5.863,5.863V329.2C309.968,332.438,307.343,335.063,304.105,335.063z M40.785,323.338h257.457V154.273
				H40.785V323.338z"/>
		</g>
		<g>
			<path class="st3" d="M362.616,230.171c-18.303,0-33.193-14.89-33.193-33.193c0-18.303,14.89-33.192,33.193-33.192
				c18.302,0,33.193,14.889,33.193,33.192C395.808,215.281,380.918,230.171,362.616,230.171z M362.616,175.512
				c-11.837,0-21.468,9.63-21.468,21.467c0,11.837,9.631,21.467,21.468,21.467c11.837,0,21.467-9.631,21.467-21.467
				C384.083,185.141,374.452,175.512,362.616,175.512z"/>
		</g>
		<g>
			<path class="st3" d="M362.616,313.824c-18.303,0-33.193-14.89-33.193-33.193c0-18.303,14.89-33.192,33.193-33.192
				c18.302,0,33.193,14.889,33.193,33.192C395.808,298.934,380.918,313.824,362.616,313.824z M362.616,259.165
				c-11.837,0-21.468,9.63-21.468,21.467c0,11.837,9.631,21.467,21.468,21.467c11.837,0,21.467-9.631,21.467-21.467
				C384.083,268.795,374.452,259.165,362.616,259.165z"/>
		</g>
		<g>
			<path class="st3" d="M362.616,202.841c-3.238,0-5.863-2.625-5.863-5.863v-27.329c0-3.238,2.625-5.863,5.863-5.863
				c3.238,0,5.863,2.625,5.863,5.863v27.329C368.478,200.216,365.853,202.841,362.616,202.841z"/>
		</g>
		<g>
			<path class="st3" d="M389.946,286.494h-27.33c-3.238,0-5.863-2.625-5.863-5.863c0-3.238,2.625-5.863,5.863-5.863h27.33
				c3.238,0,5.863,2.625,5.863,5.863C395.808,283.869,393.183,286.494,389.946,286.494z"/>
		</g>
		<g>
			<path class="st3" d="M449.072,230.171c-18.302,0-33.193-14.89-33.193-33.193c0-18.303,14.89-33.192,33.193-33.192
				c18.302,0,33.193,14.889,33.193,33.192C482.264,215.281,467.374,230.171,449.072,230.171z M449.072,175.512
				c-11.837,0-21.468,9.63-21.468,21.467c0,11.837,9.631,21.467,21.468,21.467c11.837,0,21.467-9.631,21.467-21.467
				C470.539,185.141,460.908,175.512,449.072,175.512z"/>
		</g>
		<g>
			<path class="st3" d="M449.072,313.824c-18.302,0-33.193-14.89-33.193-33.193c0-18.303,14.89-33.192,33.193-33.192
				c18.302,0,33.193,14.889,33.193,33.192C482.264,298.934,467.374,313.824,449.072,313.824z M449.072,259.165
				c-11.837,0-21.468,9.63-21.468,21.467c0,11.837,9.631,21.467,21.468,21.467c11.837,0,21.467-9.631,21.467-21.467
				C470.539,268.795,460.908,259.165,449.072,259.165z"/>
		</g>
		<g>
			<path class="st3" d="M449.072,230.084c-3.238,0-5.863-2.625-5.863-5.863v-27.329c0-3.238,2.625-5.863,5.863-5.863
				s5.863,2.625,5.863,5.863v27.329C454.934,227.459,452.309,230.084,449.072,230.084z"/>
		</g>
		<g>
			<path class="st3" d="M450.066,286.494h-27.329c-3.238,0-5.863-2.625-5.863-5.863c0-3.238,2.625-5.863,5.863-5.863h27.329
				c3.238,0,5.863,2.625,5.863,5.863C455.928,283.869,453.303,286.494,450.066,286.494z"/>
		</g>
		<g>
			<path class="st3" d="M34.918,286.234c-1.19,0-2.391-0.361-3.429-1.112c-2.624-1.897-3.214-5.561-1.317-8.185l17.947-24.826
				c7.209-9.974,18.277-15.695,30.364-15.695c12.089,0,23.157,5.721,30.366,15.695l8.129,11.245
				c4.979,6.887,12.584,10.838,20.864,10.838s15.885-3.95,20.864-10.838l40.513-56.044c7.209-9.974,18.277-15.695,30.364-15.695
				c12.089,0,23.157,5.72,30.366,15.695l48.906,67.657c1.897,2.624,1.307,6.288-1.317,8.185c-2.624,1.897-6.289,1.306-8.185-1.317
				l-48.907-67.656c-4.979-6.887-12.584-10.838-20.865-10.838c-8.28,0-15.884,3.95-20.863,10.838l-40.513,56.044
				c-7.21,9.974-18.278,15.695-30.365,15.695s-23.156-5.72-30.366-15.695l-8.129-11.245c-4.979-6.887-12.584-10.838-20.865-10.838
				c-8.28,0-15.884,3.95-20.863,10.838l-17.947,24.826C38.528,285.391,36.736,286.234,34.918,286.234z"/>
		</g>
		<g>
			<g>
				<path class="st3" d="M163.176,396.74H66.623c-3.238,0-5.863-2.625-5.863-5.863v-34.39c0-3.238,2.625-5.863,5.863-5.863h96.553
					c3.238,0,5.863,2.625,5.863,5.863v34.39C169.039,394.115,166.414,396.74,163.176,396.74z M72.486,385.014h84.828v-22.665H72.486
					V385.014z"/>
			</g>
			<g>
				<path class="st3" d="M445.377,396.74h-96.553c-3.238,0-5.863-2.625-5.863-5.863v-34.39c0-3.238,2.625-5.863,5.863-5.863h96.553
					c3.238,0,5.863,2.625,5.863,5.863v34.39C451.24,394.115,448.615,396.74,445.377,396.74z M354.686,385.014h84.828v-22.665
					h-84.828V385.014z"/>
			</g>
		</g>
	</g>
</g>
</svg>
