<?xml version="1.0" encoding="utf-8"?>
<!-- Generator: Adobe Illustrator 18.0.0, SVG Export Plug-In . SVG Version: 6.00 Build 0)  -->
<!DOCTYPE svg PUBLIC "-//W3C//DTD SVG 1.1//EN" "http://www.w3.org/Graphics/SVG/1.1/DTD/svg11.dtd">
<svg version="1.1" id="Icon_Set" xmlns="http://www.w3.org/2000/svg" xmlns:xlink="http://www.w3.org/1999/xlink" x="0px" y="0px"
	 viewBox="0 0 512 512" style="enable-background:new 0 0 512 512;" xml:space="preserve">
<style type="text/css">
	.st0{fill:#F0C48A;}
	.st1{fill:#FD919E;}
	.st2{fill:#E8677D;}
	.st3{fill:#4C4372;}
	.st4{fill:#D3E6F8;}
	.st5{fill:#A4CFF2;}
	.st6{fill:#FFFFFF;}
	.st7{fill:#7BABF1;}
</style>
<g>
	<circle class="st0" cx="256" cy="256" r="207"/>
	<g>
		<g>
			<polygon class="st7" points="35.803,294.795 35.803,398.482 127.347,398.482 			"/>
		</g>
		<g>
			<polyline class="st7" points="304.402,160.015 376.383,160.015 360.863,234.689 312.675,234.689 			"/>
		</g>
		<g>
			<path class="st3" d="M360.863,240.552h-48.188c-3.238,0-5.863-2.625-5.863-5.863c0-3.238,2.625-5.863,5.863-5.863h43.419
				l13.083-62.949h-64.775c-3.238,0-5.863-2.625-5.863-5.863c0-3.238,2.625-5.863,5.863-5.863h71.981
				c1.764,0,3.435,0.795,4.548,2.163c1.113,1.368,1.551,3.165,1.192,4.892l-15.519,74.675
				C366.038,238.602,363.642,240.552,360.863,240.552z"/>
		</g>
		<g>
			<g>
				<path class="st2" d="M171.705,71.88c90.461,0,163.793,73.333,163.793,163.793v163.793H171.705
					c-90.461,0-163.793-73.333-163.793-163.793S81.245,71.88,171.705,71.88z"/>
			</g>
		</g>
		<g>
			<path class="st1" d="M169.656,64.318v41.836c0,0,53.893,6.394,86.31,33.3c32.417,26.906,44.601,95.235,44.601,95.235
				l29.445-5.886C330.013,228.803,332.685,88.686,169.656,64.318z"/>
		</g>
		<g>
			<circle class="st1" cx="169.656" cy="234.689" r="97.484"/>
		</g>
		<g>
			<polyline class="st4" points="333.449,285.449 506.137,285.449 506.137,398.482 333.449,398.482 			"/>
		</g>
		<g>
			<rect x="333.449" y="353.51" class="st5" width="172.688" height="45.956"/>
		</g>
		<g>
			<path class="st3" d="M333.449,404.345H169.656C76.107,404.345,0,328.238,0,234.689S76.107,65.033,169.656,65.033
				s169.656,76.108,169.656,169.656v163.793C339.312,401.72,336.688,404.345,333.449,404.345z M169.656,76.758
				c-87.084,0-157.931,70.847-157.931,157.931c0,87.083,70.847,157.93,157.931,157.93h157.931v-157.93
				C327.587,147.605,256.74,76.758,169.656,76.758z"/>
		</g>
		<g>
			<path class="st3" d="M169.656,338.035c-56.986,0-103.347-46.361-103.347-103.346s46.361-103.347,103.347-103.347
				s103.347,46.362,103.347,103.347S226.642,338.035,169.656,338.035z M169.656,143.067c-50.521,0-91.622,41.101-91.622,91.622
				c0,50.52,41.101,91.621,91.622,91.621s91.622-41.101,91.622-91.621C261.278,184.168,220.176,143.067,169.656,143.067z"/>
		</g>
		<g>
			<circle class="st1" cx="169.656" cy="234.689" r="40.121"/>
		</g>
		<g>
			<path class="st3" d="M506.137,404.345H333.449c-3.238,0-5.863-2.625-5.863-5.863s2.625-5.863,5.863-5.863h166.825V291.312
				H333.449c-3.238,0-5.863-2.625-5.863-5.863c0-3.238,2.625-5.863,5.863-5.863h172.688c3.238,0,5.863,2.625,5.863,5.863v113.032
				C512,401.72,509.375,404.345,506.137,404.345z"/>
		</g>
		<g>
			<path class="st3" d="M506.137,404.345c-3.238,0-5.863-2.625-5.863-5.863v-41.715c0-3.238,2.625-5.863,5.863-5.863
				c3.238,0,5.863,2.625,5.863,5.863v41.715C512,401.72,509.375,404.345,506.137,404.345z"/>
		</g>
		<g>
			<path class="st3" d="M447.561,404.345c-3.238,0-5.863-2.625-5.863-5.863v-41.715c0-3.238,2.625-5.863,5.863-5.863
				s5.863,2.625,5.863,5.863v41.715C453.424,401.72,450.799,404.345,447.561,404.345z"/>
		</g>
		<g>
			<path class="st3" d="M388.985,404.345c-3.238,0-5.863-2.625-5.863-5.863v-41.715c0-3.238,2.625-5.863,5.863-5.863
				c3.238,0,5.863,2.625,5.863,5.863v41.715C394.847,401.72,392.222,404.345,388.985,404.345z"/>
		</g>
		<g>
			<path class="st3" d="M169.656,280.672c-25.355,0-45.983-20.628-45.983-45.983c0-25.356,20.628-45.984,45.983-45.984
				c25.355,0,45.983,20.628,45.983,45.984C215.639,260.044,195.012,280.672,169.656,280.672z M169.656,200.43
				c-18.89,0-34.258,15.368-34.258,34.259c0,18.889,15.368,34.258,34.258,34.258s34.258-15.368,34.258-34.258
				C203.914,215.799,188.546,200.43,169.656,200.43z"/>
		</g>
		<g>
			<path class="st3" d="M333.449,240.552h-37.526c-3.117,0-5.689-2.439-5.854-5.553c-2.737-51.615-23.65-87.958-62.16-108.017
				c-29.064-15.139-57.898-14.974-58.174-14.967c-1.577,0.054-3.08-0.589-4.195-1.691c-1.115-1.102-1.746-2.604-1.746-4.171V70.895
				c0-3.238,2.624-5.863,5.863-5.863c3.238,0,5.863,2.625,5.863,5.863v29.599c10.556,0.683,33.611,3.598,57.37,15.862
				c28.589,14.758,63.26,46.205,68.522,112.47h32.039c3.238,0,5.863,2.625,5.863,5.863
				C339.312,237.927,336.687,240.552,333.449,240.552z"/>
		</g>
		<g>
			<path class="st3" d="M506.137,447.682c-3.238,0-5.863-2.625-5.863-5.863v-88.309c0-3.238,2.625-5.863,5.863-5.863
				c3.238,0,5.863,2.625,5.863,5.863v88.309C512,445.057,509.375,447.682,506.137,447.682z"/>
		</g>
		<g>
			<path class="st3" d="M169.656,404.345H35.803c-3.238,0-5.863-2.625-5.863-5.863v-69.377c0-3.238,2.625-5.863,5.863-5.863
				c3.238,0,5.863,2.625,5.863,5.863v63.514h127.99c3.238,0,5.863,2.625,5.863,5.863S172.894,404.345,169.656,404.345z"/>
		</g>
	</g>
</g>
</svg>
