<?xml version="1.0" encoding="utf-8"?>
<!-- Generator: Adobe Illustrator 18.0.0, SVG Export Plug-In . SVG Version: 6.00 Build 0)  -->
<!DOCTYPE svg PUBLIC "-//W3C//DTD SVG 1.1//EN" "http://www.w3.org/Graphics/SVG/1.1/DTD/svg11.dtd">
<svg version="1.1" id="Icon_Set" xmlns="http://www.w3.org/2000/svg" xmlns:xlink="http://www.w3.org/1999/xlink" x="0px" y="0px"
	 viewBox="0 0 512 512" style="enable-background:new 0 0 512 512;" xml:space="preserve">
<style type="text/css">
	.st0{fill:#F0C48A;}
	.st1{fill:#FD919E;}
	.st2{fill:#E8677D;}
	.st3{fill:#4C4372;}
	.st4{fill:#D3E6F8;}
	.st5{fill:#A4CFF2;}
	.st6{fill:#FFFFFF;}
	.st7{fill:#7BABF1;}
</style>
<g>
	<circle class="st0" cx="256" cy="256" r="207"/>
	<g>
		<g>
			<g>
				<path class="st5" d="M496.115,52.887L496.115,52.887c18.162,26.964,11.026,63.546-15.938,81.708l-140.378,94.552l-65.77-97.646
					l140.378-94.552C441.371,18.787,477.953,25.923,496.115,52.887z"/>
			</g>
			<g>
				<path class="st4" d="M484.556,40.197c-19.582-16.023-48.083-18.111-70.148-3.249L274.029,131.5l51.562,76.552l138.814-93.499
					C488.989,97.995,497.08,66.129,484.556,40.197z"/>
			</g>
		</g>
		<g>
			<g>
				<path class="st5" d="M16.701,53.139L16.701,53.139c18.391-26.808,55.033-33.631,81.841-15.24l139.566,95.747l-66.601,97.081
					L31.941,134.98C5.133,116.588-1.69,79.947,16.701,53.139z"/>
			</g>
			<g>
				<path class="st4" d="M9.154,68.556c-7.695,24.103,0.849,51.373,22.787,66.424l139.565,95.747l52.213-76.109L85.709,59.937
					C61.268,43.17,28.66,47.369,9.154,68.556z"/>
			</g>
		</g>
		<g>
			<g>
				<path class="st5" d="M259.045,487.845L259.045,487.845c32.509-0.319,58.603-26.932,58.284-59.44l-1.663-169.243l-117.724,1.157
					l1.663,169.243C199.924,462.07,226.537,488.164,259.045,487.845z"/>
			</g>
			<g>
				<path class="st4" d="M242.039,485.514c-24.299-7.052-42.173-29.349-42.434-55.953l-1.663-169.243l92.293-0.907l1.644,167.358
					C292.17,456.407,270.503,481.134,242.039,485.514z"/>
			</g>
		</g>
		<g>
			<path class="st3" d="M339.804,235.01c-1.885,0-3.736-0.908-4.868-2.589l-65.77-97.645c-0.868-1.289-1.19-2.871-0.892-4.397
				c0.298-1.527,1.19-2.872,2.479-3.741l140.378-94.551c14.34-9.658,31.583-13.152,48.553-9.845
				c16.97,3.31,31.634,13.031,41.293,27.371l0,0c19.939,29.602,12.077,69.907-17.525,89.846l-140.378,94.552
				C342.07,234.686,340.931,235.01,339.804,235.01z M282.168,133.089l59.219,87.919l135.515-91.276
				c24.24-16.327,30.677-49.33,14.35-73.57l0,0c-7.909-11.742-19.917-19.701-33.812-22.412c-13.894-2.712-28.014,0.152-39.756,8.062
				L282.168,133.089z"/>
		</g>
		<g>
			<path class="st3" d="M172.196,235.01c-1.127,0-2.266-0.324-3.27-1.001L28.547,139.457C-1.055,119.518-8.916,79.214,11.022,49.612
				c9.659-14.34,24.323-24.061,41.293-27.371c16.972-3.308,34.213,0.187,48.553,9.845l140.378,94.551
				c1.29,0.868,2.182,2.214,2.479,3.741c0.298,1.526-0.023,3.108-0.892,4.397l-65.77,97.645
				C175.932,234.103,174.08,235.009,172.196,235.01z M64.818,32.754c-3.407,0-6.839,0.329-10.257,0.996
				c-13.896,2.71-25.903,10.67-33.812,22.412l0,0c-16.327,24.24-9.889,57.242,14.35,73.57l135.515,91.276l59.219-87.919
				L94.317,41.812C85.464,35.849,75.259,32.754,64.818,32.754z M15.885,52.887h0.01H15.885z"/>
		</g>
		<g>
			<path class="st3" d="M258.258,490.975c-35.691,0-64.728-29.037-64.728-64.728V256.995c0-3.238,2.625-5.863,5.863-5.863h117.73
				c3.238,0,5.863,2.625,5.863,5.863v169.252C322.986,461.938,293.949,490.975,258.258,490.975z M205.256,262.858v163.389
				c0,29.225,23.776,53.002,53.002,53.002c29.225,0,53.002-23.776,53.002-53.002V262.858H205.256z"/>
		</g>
		<g>
			<circle class="st2" cx="258.258" cy="204.352" r="107.069"/>
		</g>
		<g>
			<circle class="st1" cx="258.258" cy="204.352" r="53.021"/>
		</g>
		<g>
			<path class="st3" d="M258.258,263.236c-32.469,0-58.884-26.415-58.884-58.884c0-32.469,26.415-58.885,58.884-58.885
				c32.469,0,58.884,26.416,58.884,58.885C317.142,236.821,290.727,263.236,258.258,263.236z M258.258,157.194
				c-26.003,0-47.158,21.155-47.158,47.158c0,26.003,21.155,47.157,47.158,47.157c26.003,0,47.158-21.155,47.158-47.157
				C305.416,178.349,284.261,157.194,258.258,157.194z"/>
		</g>
		<g>
			<path class="st3" d="M258.258,317.284c-62.271,0-112.932-50.661-112.932-112.931S195.987,91.42,258.258,91.42
				c62.271,0,112.932,50.662,112.932,112.932S320.529,317.284,258.258,317.284z M258.258,103.147
				c-55.805,0-101.205,45.401-101.205,101.206c0,55.804,45.401,101.205,101.205,101.205s101.205-45.401,101.205-101.205
				C359.463,148.547,314.063,103.147,258.258,103.147z"/>
		</g>
	</g>
</g>
</svg>
