<?xml version="1.0" encoding="utf-8"?>
<!-- Generator: Adobe Illustrator 18.0.0, SVG Export Plug-In . SVG Version: 6.00 Build 0)  -->
<!DOCTYPE svg PUBLIC "-//W3C//DTD SVG 1.1//EN" "http://www.w3.org/Graphics/SVG/1.1/DTD/svg11.dtd">
<svg version="1.1" id="Icon_Set" xmlns="http://www.w3.org/2000/svg" xmlns:xlink="http://www.w3.org/1999/xlink" x="0px" y="0px"
	 viewBox="0 0 512 512" style="enable-background:new 0 0 512 512;" xml:space="preserve">
<style type="text/css">
	.st0{fill:#F0C48A;}
	.st1{fill:#FD919E;}
	.st2{fill:#E8677D;}
	.st3{fill:#4C4372;}
	.st4{fill:#D3E6F8;}
	.st5{fill:#A4CFF2;}
	.st6{fill:#FFFFFF;}
	.st7{fill:#7BABF1;}
</style>
<g>
	<circle class="st0" cx="256" cy="256" r="207"/>
	<g>
		<g>
			<path class="st4" d="M484.075,364.783H27.925c-12.184,0-22.062-9.878-22.062-22.062V123.527c0-12.185,9.878-22.062,22.062-22.062
				h456.151c12.185,0,22.062,9.878,22.062,22.062V342.72C506.137,354.905,496.26,364.783,484.075,364.783z"/>
		</g>
		<g>
			<path class="st5" d="M484.075,364.783h-26.073V101.465h26.073c12.185,0,22.062,9.878,22.062,22.062V342.72
				C506.137,354.905,496.26,364.783,484.075,364.783z"/>
		</g>
		<g>
			<rect x="42.258" y="364.783" class="st7" width="427.484" height="45.753"/>
		</g>
		<g>
			<rect x="102.333" y="128.254" class="st6" width="355.143" height="99.189"/>
		</g>
		<g>
			<rect x="102.333" y="251.793" class="st1" width="355.143" height="87.193"/>
		</g>
		<g>
			<circle class="st1" cx="53.527" cy="178.367" r="24.664"/>
		</g>
		<g>
			<circle class="st5" cx="53.527" cy="273.761" r="13.483"/>
		</g>
		<g>
			<circle class="st7" cx="53.527" cy="317.018" r="13.483"/>
		</g>
		<g>
			<path class="st3" d="M484.075,370.645H27.925C12.527,370.645,0,358.118,0,342.72V123.527c0-15.398,12.527-27.925,27.925-27.925
				h456.151c15.398,0,27.925,12.527,27.925,27.925V342.72C512,358.118,499.473,370.645,484.075,370.645z M27.925,107.327
				c-8.932,0-16.199,7.267-16.199,16.199V342.72c0,8.932,7.267,16.199,16.199,16.199h456.151c8.932,0,16.199-7.267,16.199-16.199
				V123.527c0-8.932-7.267-16.199-16.199-16.199H27.925z"/>
		</g>
		<g>
			<path class="st3" d="M469.742,416.398H42.258c-3.238,0-5.863-2.625-5.863-5.863v-45.753c0-3.238,2.625-5.863,5.863-5.863h427.485
				c3.238,0,5.863,2.625,5.863,5.863v45.753C475.605,413.773,472.98,416.398,469.742,416.398z M48.12,404.673H463.88v-34.028H48.12
				V404.673z"/>
		</g>
		<g>
			<path class="st3" d="M457.477,233.305H102.334c-3.238,0-5.863-2.625-5.863-5.863v-99.189c0-3.238,2.625-5.863,5.863-5.863
				h355.143c3.238,0,5.863,2.625,5.863,5.863v99.189C463.34,230.68,460.715,233.305,457.477,233.305z M108.197,221.58h343.418
				v-87.464H108.197V221.58z"/>
		</g>
		<g>
			<path class="st3" d="M457.477,344.848H102.334c-3.238,0-5.863-2.625-5.863-5.863v-87.193c0-3.238,2.625-5.863,5.863-5.863
				h355.143c3.238,0,5.863,2.625,5.863,5.863v87.193C463.34,342.223,460.715,344.848,457.477,344.848z M108.197,333.123h343.418
				v-75.468H108.197V333.123z"/>
		</g>
		<g>
			<path class="st3" d="M53.527,208.893C36.695,208.893,23,195.199,23,178.366c0-16.832,13.695-30.526,30.527-30.526
				c16.832,0,30.527,13.694,30.527,30.526C84.053,195.199,70.359,208.893,53.527,208.893z M53.527,159.566
				c-10.367,0-18.801,8.434-18.801,18.801c0,10.367,8.434,18.801,18.801,18.801c10.367,0,18.802-8.434,18.802-18.801
				C72.328,168,63.894,159.566,53.527,159.566z"/>
		</g>
		<g>
			<path class="st3" d="M53.527,293.107c-10.667,0-19.345-8.678-19.345-19.345c0-10.668,8.678-19.346,19.345-19.346
				c10.668,0,19.346,8.678,19.346,19.346C72.873,284.428,64.195,293.107,53.527,293.107z M53.527,266.14
				c-4.201,0-7.62,3.419-7.62,7.621c0,4.201,3.419,7.62,7.62,7.62c4.202,0,7.621-3.419,7.621-7.62
				C61.148,269.559,57.729,266.14,53.527,266.14z"/>
		</g>
		<g>
			<path class="st3" d="M53.527,336.363c-10.667,0-19.345-8.678-19.345-19.345c0-10.668,8.678-19.346,19.345-19.346
				c10.668,0,19.346,8.678,19.346,19.346C72.873,327.685,64.195,336.363,53.527,336.363z M53.527,309.397
				c-4.201,0-7.62,3.419-7.62,7.621s3.419,7.62,7.62,7.62c4.202,0,7.621-3.418,7.621-7.62S57.729,309.397,53.527,309.397z"/>
		</g>
		<g>
			<path class="st3" d="M141,344.916c-3.238,0-6-2.625-6-5.863v-86.962c0-3.238,2.762-5.863,6-5.863c3.238,0,6,2.625,6,5.863v86.962
				C147,342.291,144.238,344.916,141,344.916z"/>
		</g>
		<g>
			<path class="st3" d="M180,344.916c-3.238,0-6-2.625-6-5.863v-86.962c0-3.238,2.762-5.863,6-5.863c3.238,0,6,2.625,6,5.863v86.962
				C186,342.291,183.238,344.916,180,344.916z"/>
		</g>
		<g>
			<path class="st3" d="M220,344.916c-3.238,0-6-2.625-6-5.863v-86.962c0-3.238,2.762-5.863,6-5.863c3.238,0,6,2.625,6,5.863v86.962
				C226,342.291,223.238,344.916,220,344.916z"/>
		</g>
		<g>
			<path class="st3" d="M260,344.916c-3.238,0-6-2.625-6-5.863v-86.962c0-3.238,2.762-5.863,6-5.863c3.238,0,6,2.625,6,5.863v86.962
				C266,342.291,263.238,344.916,260,344.916z"/>
		</g>
		<g>
			<path class="st3" d="M300,344.916c-3.238,0-6-2.625-6-5.863v-86.962c0-3.238,2.762-5.863,6-5.863c3.238,0,6,2.625,6,5.863v86.962
				C306,342.291,303.238,344.916,300,344.916z"/>
		</g>
		<g>
			<path class="st3" d="M339,344.916c-3.238,0-6-2.625-6-5.863v-86.962c0-3.238,2.762-5.863,6-5.863c3.238,0,6,2.625,6,5.863v86.962
				C345,342.291,342.238,344.916,339,344.916z"/>
		</g>
		<g>
			<path class="st3" d="M379,344.916c-3.238,0-6-2.625-6-5.863v-86.962c0-3.238,2.762-5.863,6-5.863c3.238,0,6,2.625,6,5.863v86.962
				C385,342.291,382.238,344.916,379,344.916z"/>
		</g>
		<g>
			<path class="st3" d="M419,344.916c-3.238,0-6-2.625-6-5.863v-86.962c0-3.238,2.762-5.863,6-5.863c3.238,0,6,2.625,6,5.863v86.962
				C425,342.291,422.238,344.916,419,344.916z"/>
		</g>
		<g>
			<path class="st3" d="M459.237,301H102.595c-3.238,0-5.863-2.762-5.863-6s2.625-6,5.863-6h356.641c3.238,0,5.863,2.762,5.863,6
				S462.474,301,459.237,301z"/>
		</g>
	</g>
</g>
</svg>
