<?xml version="1.0" encoding="utf-8"?>
<!-- Generator: Adobe Illustrator 18.0.0, SVG Export Plug-In . SVG Version: 6.00 Build 0)  -->
<!DOCTYPE svg PUBLIC "-//W3C//DTD SVG 1.1//EN" "http://www.w3.org/Graphics/SVG/1.1/DTD/svg11.dtd">
<svg version="1.1" id="Icon_Set" xmlns="http://www.w3.org/2000/svg" xmlns:xlink="http://www.w3.org/1999/xlink" x="0px" y="0px"
	 viewBox="0 0 512 512" style="enable-background:new 0 0 512 512;" xml:space="preserve">
<style type="text/css">
	.st0{fill:#F0C48A;}
	.st1{fill:#FD919E;}
	.st2{fill:#E8677D;}
	.st3{fill:#4C4372;}
	.st4{fill:#D3E6F8;}
	.st5{fill:#A4CFF2;}
	.st6{fill:#FFFFFF;}
	.st7{fill:#7BABF1;}
</style>
<g>
	<circle class="st0" cx="256" cy="256" r="207"/>
	<g>
		<g>
			<g>
				<path class="st6" d="M434.006,183.869c0-98.253-79.604-177.914-177.836-178.006C157.955,5.771,77.993,85.656,77.994,183.871
					c0.001,74.657,45.967,138.567,111.138,165.004v118.204c0,21.229,17.21,38.439,38.439,38.439h56.859
					c21.229,0,38.439-17.21,38.439-38.439V348.875C388.039,322.438,434.006,258.526,434.006,183.869z"/>
			</g>
		</g>
		<g>
			<g>
				<path class="st4" d="M256.042,5.864c-0.004,0.02,0.001-0.007-0.002,0.012c2.563,0.923,146.08,53.112,146.08,177.064
					c0,92.802-61.359,125.607-93.02,136.357c-11.016,3.74-18.427,14.064-18.427,25.697v60.84h32.196v-19.74v-37.22
					c65.171-26.437,111.138-90.349,111.138-165.006C434.006,85.573,354.333,5.885,256.042,5.864z"/>
			</g>
		</g>
		<g>
			<g>
				<path class="st5" d="M282.097,506.137h-52.194c-22.517,0-40.771-18.254-40.771-40.771v-59.531h133.737v59.531
					C322.868,487.883,304.614,506.137,282.097,506.137z"/>
			</g>
		</g>
		<g>
			<g>
				<path class="st7" d="M290.673,505.226c18.398-3.94,32.196-20.285,32.196-39.86v-59.531h-32.196V505.226z"/>
			</g>
		</g>
		<g>
			<g>
				<path class="st3" d="M284.429,511.381h-56.859c-24.428,0-44.301-19.874-44.301-44.302V352.778
					c-31.943-13.76-59.189-36.17-78.979-65.005c-21.039-30.655-32.159-66.583-32.159-103.902
					c-0.001-49.039,19.148-95.193,53.917-129.96C160.816,19.146,206.968,0,256.001,0h0.175
					c49.077,0.046,95.208,19.192,129.897,53.911c34.691,34.722,53.796,80.875,53.796,129.957c0,37.319-11.12,73.248-32.159,103.903
					c-19.79,28.836-47.035,51.245-78.979,65.006v114.301C328.731,491.507,308.857,511.381,284.429,511.381z M256.001,11.725
					c-45.902,0-89.109,17.926-121.661,50.477c-32.555,32.553-50.484,75.762-50.483,121.669
					c0.001,70.451,42.189,133.087,107.479,159.572c2.212,0.897,3.659,3.046,3.659,5.432v118.204
					c0,17.963,14.614,32.576,32.576,32.576h56.859c17.963,0,32.576-14.613,32.576-32.576V348.875c0-2.387,1.447-4.535,3.659-5.432
					c65.291-26.486,107.479-89.122,107.479-159.574c0-94.831-77.149-172.055-171.979-172.144H256.001z"/>
			</g>
		</g>
		<g>
			<g>
				<path class="st3" d="M282.097,512h-52.194c-25.714,0-46.634-20.92-46.634-46.634v-59.531c0-3.238,2.625-5.863,5.863-5.863
					h133.737c3.238,0,5.863,2.625,5.863,5.863v59.531C328.731,491.08,307.811,512,282.097,512z M194.994,411.698v53.668
					c0,19.249,15.66,34.909,34.909,34.909h52.194c19.249,0,34.909-15.66,34.909-34.909v-53.668H194.994z"/>
			</g>
		</g>
		<g>
			<g>
				<path class="st3" d="M241.284,224.822V115.733c0-8.101,6.751-14.851,14.851-14.851c8.101,0,14.582,6.751,14.582,14.851v109.089
					c0,8.371-6.481,14.851-14.582,14.851C248.034,239.674,241.284,233.193,241.284,224.822z M256.135,289.898
					c-8.101,0-14.851-6.48-14.851-14.851v-5.4c0-8.101,6.751-14.851,14.851-14.851c8.101,0,14.582,6.751,14.582,14.851v5.4
					C270.716,283.418,264.235,289.898,256.135,289.898z"/>
			</g>
		</g>
		<g>
			<path class="st3" d="M322.443,448H189.557c-3.238,0-5.863-2.762-5.863-6s2.625-6,5.863-6h132.885c3.238,0,5.863,2.762,5.863,6
				S325.68,448,322.443,448z"/>
		</g>
		<g>
			<path class="st3" d="M322.443,481H189.557c-3.238,0-5.863-2.762-5.863-6s2.625-6,5.863-6h132.885c3.238,0,5.863,2.762,5.863,6
				S325.68,481,322.443,481z"/>
		</g>
	</g>
</g>
</svg>
