<?xml version="1.0" encoding="utf-8"?>
<!-- Generator: Adobe Illustrator 18.0.0, SVG Export Plug-In . SVG Version: 6.00 Build 0)  -->
<!DOCTYPE svg PUBLIC "-//W3C//DTD SVG 1.1//EN" "http://www.w3.org/Graphics/SVG/1.1/DTD/svg11.dtd">
<svg version="1.1" id="Icon_Set" xmlns="http://www.w3.org/2000/svg" xmlns:xlink="http://www.w3.org/1999/xlink" x="0px" y="0px"
	 viewBox="0 0 512 512" style="enable-background:new 0 0 512 512;" xml:space="preserve">
<style type="text/css">
	.st0{fill:#F0C48A;}
	.st1{fill:#FD919E;}
	.st2{fill:#E8677D;}
	.st3{fill:#4C4372;}
	.st4{fill:#D3E6F8;}
	.st5{fill:#A4CFF2;}
	.st6{fill:#FFFFFF;}
	.st7{fill:#7BABF1;}
</style>
<g>
	<circle class="st0" cx="256" cy="256" r="207"/>
	<g>
		<g>
			<g>
				<path class="st3" d="M84.101,475.205c-34.656,0-62.851-28.195-62.851-62.851V178.068c0-3.238,2.625-5.863,5.862-5.863
					c3.238,0,5.863,2.625,5.863,5.863v234.286c0,28.191,22.935,51.126,51.126,51.126s51.126-22.935,51.126-51.126v-20.052
					c0-3.238,2.625-5.863,5.863-5.863c3.238,0,5.863,2.625,5.863,5.863v20.052C146.952,447.01,118.757,475.205,84.101,475.205z"/>
			</g>
			<g>
				<path class="st3" d="M427.9,475.205c-34.657,0-62.851-28.195-62.851-62.851v-20.052c0-3.238,2.625-5.863,5.863-5.863
					c3.238,0,5.863,2.625,5.863,5.863v20.052c0,28.191,22.935,51.126,51.126,51.126c28.191,0,51.126-22.935,51.126-51.126V178.068
					c0-3.238,2.625-5.863,5.863-5.863s5.863,2.625,5.863,5.863v234.286C490.751,447.01,462.556,475.205,427.9,475.205z"/>
			</g>
			<g>
				<path class="st1" d="M27.112,350.508L27.112,350.508c-11.736,0-21.25-9.514-21.25-21.25V222.961
					c0-11.736,9.514-21.249,21.25-21.249l0,0c11.736,0,21.25,9.514,21.25,21.249v106.297
					C48.362,340.994,38.848,350.508,27.112,350.508z"/>
			</g>
			<g>
				<path class="st2" d="M484.888,350.508L484.888,350.508c11.736,0,21.249-9.514,21.249-21.25V222.961
					c0-11.736-9.514-21.249-21.249-21.249h0c-11.736,0-21.249,9.514-21.249,21.249v106.297
					C463.638,340.994,473.152,350.508,484.888,350.508z"/>
			</g>
			<g>
				<path class="st3" d="M27.112,356.37C12.162,356.37,0,344.208,0,329.259V222.962c0-14.95,12.162-27.113,27.112-27.113
					c14.95,0,27.112,12.162,27.112,27.113v106.297C54.224,344.208,42.062,356.37,27.112,356.37z M27.112,207.574
					c-8.484,0-15.387,6.903-15.387,15.387v106.297c0,8.484,6.903,15.386,15.387,15.386c8.484,0,15.387-6.903,15.387-15.386V222.962
					C42.499,214.477,35.596,207.574,27.112,207.574z"/>
			</g>
			<g>
				<path class="st3" d="M484.888,356.37c-14.95,0-27.113-12.162-27.113-27.112V222.962c0-14.95,12.162-27.113,27.113-27.113
					c14.949,0,27.112,12.162,27.112,27.113v106.297C512,344.208,499.838,356.37,484.888,356.37z M484.888,207.574
					c-8.485,0-15.387,6.903-15.387,15.387v106.297c0,8.484,6.903,15.386,15.387,15.386c8.484,0,15.386-6.903,15.386-15.386V222.962
					C500.275,214.477,493.372,207.574,484.888,207.574z"/>
			</g>
		</g>
		<g>
			<path class="st4" d="M397.592,392.638H114.408c-18.445,0-33.398-14.953-33.398-33.398V76.056
				c0-18.445,14.953-33.398,33.398-33.398h283.184c18.445,0,33.398,14.953,33.398,33.398V359.24
				C430.99,377.685,416.037,392.638,397.592,392.638z"/>
		</g>
		<g>
			<path class="st5" d="M397.592,43H386v349h11.592C416.037,392,430,377.685,430,359.24V76.056C430,57.611,416.037,43,397.592,43z"
				/>
		</g>
		<g>
			<rect x="125.475" y="86.84" class="st6" width="261.05" height="121.204"/>
		</g>
		<g>
			<rect x="351.841" y="86.84" class="st4" width="34.684" height="121.204"/>
		</g>
		<g>
			<circle class="st1" cx="256.061" cy="300.954" r="49.996"/>
		</g>
		<g>
			<path class="st3" d="M397.592,398.5H114.408c-21.648,0-39.26-17.613-39.26-39.26V76.056c0-21.649,17.612-39.261,39.26-39.261
				h283.184c21.648,0,39.26,17.613,39.26,39.261V359.24C436.852,380.887,419.24,398.5,397.592,398.5z M114.408,48.52
				c-15.183,0-27.535,12.353-27.535,27.536V359.24c0,15.183,12.352,27.535,27.535,27.535h283.184
				c15.183,0,27.535-12.352,27.535-27.535V76.056c0-15.183-12.352-27.536-27.535-27.536H114.408z"/>
		</g>
		<g>
			<path class="st3" d="M386.525,213.906h-261.05c-3.238,0-5.863-2.625-5.863-5.863V86.84c0-3.238,2.625-5.863,5.863-5.863h261.05
				c3.238,0,5.863,2.625,5.863,5.863v121.204C392.387,211.281,389.762,213.906,386.525,213.906z M131.337,202.181h249.325V92.702
				H131.337V202.181z"/>
		</g>
		<g>
			<path class="st3" d="M256.061,356.814c-14.92,0-28.948-5.811-39.498-16.362c-21.779-21.779-21.779-57.217,0-78.995
				c10.551-10.551,24.578-16.361,39.498-16.361c14.92,0,28.948,5.81,39.498,16.361c21.78,21.779,21.78,57.217,0,78.995
				C285.009,351.003,270.981,356.814,256.061,356.814z M256.061,256.822c-11.789,0-22.871,4.591-31.207,12.926
				c-17.208,17.208-17.208,45.207,0,62.415c8.336,8.335,19.418,12.927,31.207,12.927s22.872-4.592,31.208-12.927
				c17.207-17.208,17.207-45.207,0-62.415C278.932,261.412,267.849,256.822,256.061,256.822z"/>
		</g>
		<g>
			<path class="st3" d="M220.435,342.205c-1.5,0-3-0.573-4.146-1.718c-2.29-2.289-2.29-6.001,0-8.291l70.894-70.892
				c2.289-2.289,6.002-2.288,8.291,0.001c2.289,2.289,2.289,6.001-0.001,8.291l-70.893,70.892
				C223.436,341.633,221.935,342.205,220.435,342.205z"/>
		</g>
		<g>
			<path class="st3" d="M256.061,213.906c-1.5,0-3.001-0.572-4.146-1.718l-70.508-70.508c-2.29-2.289-2.29-6.001,0-8.29
				c2.289-2.29,6.002-2.29,8.291,0l70.508,70.508c2.289,2.289,2.289,6.001,0,8.29C259.061,213.334,257.561,213.906,256.061,213.906z
				"/>
		</g>
		<g>
			<circle class="st1" cx="143.163" cy="300.763" r="17.688"/>
		</g>
		<g>
			<circle class="st1" cx="368.837" cy="300.763" r="17.688"/>
		</g>
		<g>
			<path class="st3" d="M143.163,324.314c-12.986,0-23.551-10.565-23.551-23.552c0-12.986,10.565-23.551,23.551-23.551
				c12.986,0,23.551,10.565,23.551,23.551C166.714,313.749,156.149,324.314,143.163,324.314z M143.163,288.937
				c-6.521,0-11.826,5.304-11.826,11.825s5.305,11.826,11.826,11.826c6.521,0,11.826-5.305,11.826-11.826
				S149.684,288.937,143.163,288.937z"/>
		</g>
		<g>
			<path class="st3" d="M368.837,324.314c-12.986,0-23.551-10.565-23.551-23.552c0-12.986,10.565-23.551,23.551-23.551
				c12.986,0,23.55,10.565,23.55,23.551C392.387,313.749,381.823,324.314,368.837,324.314z M368.837,288.937
				c-6.521,0-11.825,5.304-11.825,11.825s5.304,11.826,11.825,11.826c6.521,0,11.825-5.305,11.825-11.826
				S375.358,288.937,368.837,288.937z"/>
		</g>
	</g>
</g>
</svg>
