<?xml version="1.0" encoding="utf-8"?>
<!-- Generator: Adobe Illustrator 18.0.0, SVG Export Plug-In . SVG Version: 6.00 Build 0)  -->
<!DOCTYPE svg PUBLIC "-//W3C//DTD SVG 1.1//EN" "http://www.w3.org/Graphics/SVG/1.1/DTD/svg11.dtd">
<svg version="1.1" id="Icon_Set" xmlns="http://www.w3.org/2000/svg" xmlns:xlink="http://www.w3.org/1999/xlink" x="0px" y="0px"
	 viewBox="0 0 512 512" style="enable-background:new 0 0 512 512;" xml:space="preserve">
<style type="text/css">
	.st0{fill:#F0C48A;}
	.st1{fill:#FD919E;}
	.st2{fill:#E8677D;}
	.st3{fill:#4C4372;}
	.st4{fill:#D3E6F8;}
	.st5{fill:#A4CFF2;}
	.st6{fill:#FFFFFF;}
	.st7{fill:#7BABF1;}
</style>
<g>
	<circle class="st0" cx="256" cy="256" r="207"/>
	<g>
		<g>
			<g>
				<path class="st1" d="M218.54,60.104c-46.255,0-83.712,37.668-83.368,84.003c0.341,45.969,38.445,82.739,84.415,82.739h131.484
					v54.241H220.034c-76.056,0-138.842-61.07-139.105-137.125C80.666,67.737,142.377,5.863,218.54,5.863h43.246
					c19.183,0,37.58,7.62,51.144,21.185h0h38.141v33.057H218.54z"/>
			</g>
		</g>
		<g>
			<g>
				<rect x="290" y="226" class="st2" width="60" height="55"/>
			</g>
			<g>
				<path class="st2" d="M312.057,27.023C305.875,20.841,299,15.933,290,12.379V61h60V27h-37.069L312.057,27.023z"/>
			</g>
		</g>
		<g>
			<rect x="238.734" y="281.087" class="st5" width="74.299" height="140.19"/>
		</g>
		<g>
			<rect x="286.113" y="281.087" class="st7" width="26.92" height="140.19"/>
		</g>
		<g>
			<rect x="253.396" y="421.277" class="st6" width="44.975" height="84.861"/>
		</g>
		<g>
			<rect x="276.629" y="421.277" class="st4" width="21.743" height="84.861"/>
		</g>
		<g>
			<g>
				<rect x="260.021" y="60.104" class="st4" width="31.725" height="37.988"/>
			</g>
		</g>
		<g>
			<g>
				<rect x="260.021" y="146.862" class="st4" width="31.725" height="79.983"/>
			</g>
		</g>
		<g>
			<g>
				<path class="st3" d="M291.746,103.954h-31.725c-3.238,0-5.863-2.625-5.863-5.863V60.104c0-3.238,2.625-5.863,5.863-5.863h31.725
					c3.238,0,5.863,2.625,5.863,5.863v37.988C297.609,101.329,294.984,103.954,291.746,103.954z M265.884,92.229h20V65.967h-20
					V92.229z"/>
			</g>
		</g>
		<g>
			<g>
				<path class="st3" d="M291.746,232.708h-31.725c-3.238,0-5.863-2.625-5.863-5.863v-79.984c0-3.238,2.625-5.863,5.863-5.863
					h31.725c3.238,0,5.863,2.625,5.863,5.863v79.984C297.609,230.083,294.984,232.708,291.746,232.708z M265.884,220.983h20v-68.259
					h-20V220.983z"/>
			</g>
		</g>
		<g>
			<g>
				<path class="st3" d="M351.072,286.949H220.034c-79.662,0-144.695-64.135-144.967-142.967
					c-0.134-38.424,14.728-74.571,41.844-101.783C144.031,14.987,180.123,0,218.54,0h43.246c20.062,0,38.969,7.503,53.519,21.184
					h35.766c3.238,0,5.863,2.625,5.863,5.863v33.057c0,3.238-2.625,5.863-5.863,5.863H218.54c-20.812,0-40.348,8.134-55.011,22.907
					c-14.661,14.77-22.65,34.37-22.495,55.19c0.314,42.414,35.553,76.92,78.553,76.92h131.485c3.238,0,5.863,2.625,5.863,5.863
					v54.241C356.934,284.324,354.309,286.949,351.072,286.949z M218.54,11.725c-35.278,0-68.421,13.762-93.324,38.751
					c-24.901,24.988-38.547,58.181-38.425,93.466c0.251,72.389,60.023,131.282,133.242,131.282h125.175v-42.516H219.587
					c-49.417,0-89.916-39.727-90.278-88.557c-0.178-23.97,9.02-46.533,25.899-63.538c16.88-17.006,39.372-26.371,63.332-26.371
					h126.669V32.909H312.93c-1.555,0-3.046-0.617-4.145-1.718c-12.554-12.553-29.245-19.467-46.999-19.467H218.54z"/>
			</g>
		</g>
		<g>
			<path class="st3" d="M313.032,427.139h-74.299c-3.238,0-5.863-2.625-5.863-5.863v-140.19c0-3.238,2.625-5.863,5.863-5.863h74.299
				c3.238,0,5.863,2.625,5.863,5.863v140.19C318.895,424.514,316.27,427.139,313.032,427.139z M244.596,415.414h62.573V286.949
				h-62.573V415.414z"/>
		</g>
		<g>
			<path class="st3" d="M298.371,512h-44.975c-3.238,0-5.863-2.625-5.863-5.863v-84.861c0-3.238,2.625-5.863,5.863-5.863h44.975
				c3.238,0,5.863,2.625,5.863,5.863v84.861C304.234,509.375,301.609,512,298.371,512z M259.259,500.275h33.25v-73.135h-33.25
				V500.275z"/>
		</g>
		<g>
			<path class="st3" d="M312.733,325h-74.259c-3.238,0-5.863-2.262-5.863-5.5s2.625-5.5,5.863-5.5h74.259
				c3.238,0,5.863,2.262,5.863,5.5S315.97,325,312.733,325z"/>
		</g>
	</g>
</g>
</svg>
