<?xml version="1.0" encoding="utf-8"?>
<!-- Generator: Adobe Illustrator 18.0.0, SVG Export Plug-In . SVG Version: 6.00 Build 0)  -->
<!DOCTYPE svg PUBLIC "-//W3C//DTD SVG 1.1//EN" "http://www.w3.org/Graphics/SVG/1.1/DTD/svg11.dtd">
<svg version="1.1" id="Icon_Set" xmlns="http://www.w3.org/2000/svg" xmlns:xlink="http://www.w3.org/1999/xlink" x="0px" y="0px"
	 viewBox="0 0 512 512" style="enable-background:new 0 0 512 512;" xml:space="preserve">
<style type="text/css">
	.st0{fill:#F0C48A;}
	.st1{fill:#FD919E;}
	.st2{fill:#E8677D;}
	.st3{fill:#4C4372;}
	.st4{fill:#D3E6F8;}
	.st5{fill:#A4CFF2;}
	.st6{fill:#FFFFFF;}
	.st7{fill:#7BABF1;}
</style>
<g>
	<circle class="st0" cx="256" cy="256" r="207"/>
	<g>
		<g>
			<path class="st1" d="M365.649,181.316H146.351c-10.094,0-18.276-8.182-18.276-18.276l0,0c0-10.094,8.182-18.276,18.276-18.276
				h219.297c10.094,0,18.276,8.183,18.276,18.276l0,0C383.925,173.134,375.742,181.316,365.649,181.316z"/>
		</g>
		<g>
			<path class="st2" d="M383.87,164.126H128.13c0.565,9.585,8.494,17.19,18.221,17.19h219.297
				C375.376,181.316,383.305,173.711,383.87,164.126z"/>
		</g>
		<g>
			<path class="st1" d="M256,5.863L256,5.863c-51.248,0-92.793,41.545-92.793,92.793v46.108h185.586V98.656
				C348.793,47.407,307.248,5.863,256,5.863z"/>
		</g>
		<g>
			<path class="st2" d="M348.793,98.656c0-51.248-41.545-92.793-92.793-92.793h0c-2.129,0-4.239,0.078-6.332,0.219
				c41.766,9.048,73.057,46.208,73.057,90.682v46.108H163.207v1.891h185.586V98.656z"/>
		</g>
		<g>
			<path class="st1" d="M256,5.863L256,5.863c-7.25,0-14.306,0.833-21.077,2.406v136.496h42.154V8.268
				C270.305,6.695,263.25,5.863,256,5.863z"/>
		</g>
		<g>
			<path class="st5" d="M431.732,506.137H80.268V395.06c0-21.106,17.11-38.215,38.215-38.215h275.035
				c21.106,0,38.215,17.109,38.215,38.215V506.137z"/>
		</g>
		<g>
			<path class="st7" d="M406.328,359.052v147.085h25.405V395.06C431.732,378.449,421.131,364.319,406.328,359.052z"/>
		</g>
		<g>
			<path class="st7" d="M164.407,506.137h-16.898v-60.905l0,0c9.333,0,16.898,7.566,16.898,16.898V506.137z"/>
		</g>
		<g>
			<path class="st3" d="M431.733,512H80.267c-3.238,0-5.863-2.625-5.863-5.863V395.06c0-24.305,19.774-44.078,44.078-44.078h275.034
				c24.304,0,44.078,19.773,44.078,44.078v111.078C437.595,509.375,434.97,512,431.733,512z M86.13,500.275h339.74V395.06
				c0-17.839-14.513-32.353-32.353-32.353H118.483c-17.84,0-32.353,14.513-32.353,32.353V500.275z"/>
		</g>
		<g>
			<path class="st3" d="M147.509,512c-3.238,0-5.863-2.625-5.863-5.863v-60.905c0-3.238,2.625-5.863,5.863-5.863
				c3.238,0,5.863,2.625,5.863,5.863v60.905C153.371,509.375,150.746,512,147.509,512z"/>
		</g>
		<g>
			<path class="st3" d="M358.638,512c-3.238,0-5.863-2.625-5.863-5.863v-60.905c0-3.238,2.625-5.863,5.863-5.863
				s5.863,2.625,5.863,5.863v60.905C364.501,509.375,361.876,512,358.638,512z"/>
		</g>
		<g>
			<path class="st4" d="M256,427.431L256,427.431c-24.609,0-44.558-19.949-44.558-44.557v-95.319h89.115v95.319
				C300.558,407.482,280.608,427.431,256,427.431z"/>
		</g>
		<g>
			<path class="st5" d="M275.153,423.112c15.022-7.163,25.405-22.487,25.405-40.238v-95.319h-25.405V423.112z"/>
		</g>
		<g>
			<path class="st3" d="M256,433.293c-27.801,0-50.42-22.618-50.42-50.42v-95.319c0-3.238,2.625-5.863,5.863-5.863h89.115
				c3.238,0,5.863,2.625,5.863,5.863v95.319C306.42,410.675,283.801,433.293,256,433.293z M217.305,293.417v89.456
				c0,21.336,17.359,38.695,38.695,38.695s38.695-17.358,38.695-38.695v-89.456H217.305z"/>
		</g>
		<g>
			<path class="st4" d="M256,331.695L256,331.695c-45.329,0-82.075-36.746-82.075-82.075v-68.304h164.15v68.304
				C338.075,294.948,301.329,331.695,256,331.695z"/>
		</g>
		<g>
			<path class="st5" d="M311.659,249.114c0,41.364-30.604,75.565-70.401,81.234c4.785,0.868,9.706,1.346,14.742,1.346h0
				c45.329,0,82.075-36.746,82.075-82.075v-68.304h-26.416V249.114z"/>
		</g>
		<g>
			<path class="st3" d="M256,337.557c-48.49,0-87.938-39.449-87.938-87.938v-68.304c0-3.238,2.625-5.863,5.863-5.863h164.151
				c3.238,0,5.863,2.625,5.863,5.863v68.304C343.938,298.109,304.49,337.557,256,337.557z M179.787,187.179v62.441
				c0,42.024,34.189,76.212,76.213,76.212s76.213-34.189,76.213-76.212v-62.441H179.787z"/>
		</g>
		<g>
			<path class="st3" d="M348.793,150.626H163.207c-3.238,0-5.863-2.625-5.863-5.863V98.656C157.344,44.257,201.601,0,256,0
				s98.655,44.257,98.655,98.656v46.108C354.655,148.002,352.03,150.626,348.793,150.626z M169.07,138.901H342.93V98.656
				c0-47.933-38.997-86.93-86.93-86.93s-86.93,38.997-86.93,86.93V138.901z"/>
		</g>
		<g>
			<path class="st3" d="M365.649,187.179H146.351c-13.31,0-24.138-10.828-24.138-24.139s10.828-24.139,24.138-24.139h219.298
				c13.31,0,24.138,10.829,24.138,24.139S378.959,187.179,365.649,187.179z M146.351,150.626c-6.844,0-12.413,5.569-12.413,12.414
				c0,6.845,5.569,12.413,12.413,12.413h219.298c6.844,0,12.413-5.569,12.413-12.413c0-6.845-5.569-12.414-12.413-12.414H146.351z"
				/>
		</g>
		<g>
			<path class="st3" d="M234.923,150.626c-3.238,0-5.863-2.625-5.863-5.863V10.332c0-3.238,2.625-5.863,5.863-5.863
				c3.238,0,5.863,2.625,5.863,5.863v134.432C240.785,148.002,238.16,150.626,234.923,150.626z"/>
		</g>
		<g>
			<path class="st3" d="M277.077,150.626c-3.238,0-5.863-2.625-5.863-5.863V10.332c0-3.238,2.625-5.863,5.863-5.863
				s5.863,2.625,5.863,5.863v134.432C282.94,148.002,280.315,150.626,277.077,150.626z"/>
		</g>
	</g>
</g>
</svg>
