<?xml version="1.0" encoding="utf-8"?>
<!-- Generator: Adobe Illustrator 18.0.0, SVG Export Plug-In . SVG Version: 6.00 Build 0)  -->
<!DOCTYPE svg PUBLIC "-//W3C//DTD SVG 1.1//EN" "http://www.w3.org/Graphics/SVG/1.1/DTD/svg11.dtd">
<svg version="1.1" id="Icon_Set" xmlns="http://www.w3.org/2000/svg" xmlns:xlink="http://www.w3.org/1999/xlink" x="0px" y="0px"
	 viewBox="0 0 512 512" style="enable-background:new 0 0 512 512;" xml:space="preserve">
<style type="text/css">
	.st0{fill:#F0C48A;}
	.st1{fill:#FD919E;}
	.st2{fill:#E8677D;}
	.st3{fill:#4C4372;}
	.st4{fill:#D3E6F8;}
	.st5{fill:#A4CFF2;}
	.st6{fill:#FFFFFF;}
	.st7{fill:#7BABF1;}
</style>
<g>
	<circle class="st0" cx="256" cy="256" r="207"/>
	<g>
		<g>
			<path class="st6" d="M380.092,5.863v283.379c0,68.534-55.558,124.092-124.092,124.092h0
				c-68.534,0-124.092-55.558-124.092-124.092V5.863H50.056v294.331c0,113.739,92.204,205.943,205.943,205.943h0
				c113.739,0,205.943-92.204,205.943-205.943V5.863H380.092z"/>
		</g>
		<g>
			<path class="st4" d="M240.969,415.35H256l-2.24-2.044c-67.5-1.196-121.852-56.279-121.852-124.064V5.863H98.742v267.26
				C98.742,351.672,162.419,415.35,240.969,415.35z"/>
		</g>
		<g>
			<rect x="50.057" y="5.863" class="st1" width="81.164" height="116.857"/>
		</g>
		<g>
			<rect x="98.742" y="5.863" class="st2" width="34.828" height="116.857"/>
		</g>
		<g>
			<rect x="381.289" y="5.863" class="st5" width="81.164" height="116.857"/>
		</g>
		<g>
			<rect x="428.326" y="5.863" class="st7" width="34.828" height="116.857"/>
		</g>
		<g>
			<path class="st4" d="M461.944,300.194V121.985h-33.618v290.992C449.574,380.578,461.944,341.833,461.944,300.194z"/>
		</g>
		<g>
			<path class="st3" d="M256,512c-56.576,0-109.765-22.031-149.77-62.036c-40.005-40.006-62.037-93.195-62.037-149.77V5.863
				C44.194,2.625,46.818,0,50.056,0h81.852c3.238,0,5.863,2.625,5.863,5.863v283.379c0,65.192,53.038,118.23,118.23,118.23
				s118.229-53.038,118.229-118.23V5.863c0-3.238,2.625-5.863,5.863-5.863h81.852c3.238,0,5.863,2.625,5.863,5.863v294.331
				c0,56.575-22.031,109.764-62.037,149.77C365.765,489.969,312.576,512,256,512z M55.919,11.725v288.469
				c0,110.325,89.756,200.081,200.081,200.081s200.081-89.756,200.081-200.081V11.725h-70.126v277.516
				c0,71.658-58.297,129.955-129.955,129.955s-129.955-58.298-129.955-129.955V11.725H55.919z"/>
		</g>
		<g>
			<path class="st3" d="M131.22,128.582H52.118c-3.238,0-5.863-2.625-5.863-5.863c0-3.238,2.625-5.863,5.863-5.863h79.102
				c3.238,0,5.863,2.625,5.863,5.863C137.083,125.957,134.458,128.582,131.22,128.582z"/>
		</g>
		<g>
			<path class="st3" d="M455.709,128.582h-74.532c-3.238,0-5.863-2.625-5.863-5.863c0-3.238,2.625-5.863,5.863-5.863h74.532
				c3.238,0,5.863,2.625,5.863,5.863C461.572,125.957,458.947,128.582,455.709,128.582z"/>
		</g>
	</g>
</g>
</svg>
