<?xml version="1.0" encoding="utf-8"?>
<!-- Generator: Adobe Illustrator 18.0.0, SVG Export Plug-In . SVG Version: 6.00 Build 0)  -->
<!DOCTYPE svg PUBLIC "-//W3C//DTD SVG 1.1//EN" "http://www.w3.org/Graphics/SVG/1.1/DTD/svg11.dtd">
<svg version="1.1" id="Icon_Set" xmlns="http://www.w3.org/2000/svg" xmlns:xlink="http://www.w3.org/1999/xlink" x="0px" y="0px"
	 viewBox="0 0 512 512" style="enable-background:new 0 0 512 512;" xml:space="preserve">
<style type="text/css">
	.st0{fill:#F0C48A;}
	.st1{fill:#FD919E;}
	.st2{fill:#E8677D;}
	.st3{fill:#4C4372;}
	.st4{fill:#D3E6F8;}
	.st5{fill:#A4CFF2;}
	.st6{fill:#FFFFFF;}
	.st7{fill:#7BABF1;}
</style>
<g>
	<circle class="st0" cx="256" cy="256" r="207"/>
	<g>
		<g>
			<path class="st3" d="M376.858,483.865H256.264c-3.238,0-5.863-2.625-5.863-5.863c0-3.238,2.625-5.863,5.863-5.863h120.594
				c3.238,0,5.863,2.625,5.863,5.863C382.72,481.24,380.095,483.865,376.858,483.865z"/>
		</g>
		<g>
			<g>
				<rect x="299.078" y="309.194" class="st6" width="34.965" height="154.564"/>
			</g>
			<g>
				<rect x="316.561" y="312.581" class="st5" width="11.835" height="149.611"/>
			</g>
			<g>
				<path class="st3" d="M334.043,469.62h-34.965c-3.238,0-5.863-2.625-5.863-5.863V309.194c0-3.238,2.625-5.863,5.863-5.863h34.965
					c3.238,0,5.863,2.625,5.863,5.863v154.564C339.906,466.995,337.281,469.62,334.043,469.62z M304.941,457.895h23.24V315.056
					h-23.24V457.895z"/>
			</g>
		</g>
		<g>
			<g>
				<rect x="299.078" y="198.368" class="st4" width="34.965" height="51.045"/>
			</g>
			<g>
				<rect x="316.561" y="200.935" class="st5" width="11.835" height="44.52"/>
			</g>
			<g>
				<path class="st3" d="M334.043,255.276h-34.965c-3.238,0-5.863-2.625-5.863-5.863v-51.045c0-3.238,2.625-5.863,5.863-5.863
					h34.965c3.238,0,5.863,2.625,5.863,5.863v51.045C339.906,252.651,337.281,255.276,334.043,255.276z M304.941,243.551h23.24
					v-39.32h-23.24V243.551z"/>
			</g>
		</g>
		<g>
			<g>
				<rect x="283.462" y="168.779" class="st5" width="66.198" height="29.59"/>
			</g>
			<g>
				<rect x="324.106" y="172.526" class="st7" width="22.095" height="22.095"/>
			</g>
			<g>
				<path class="st3" d="M349.659,204.231h-66.198c-3.238,0-5.863-2.625-5.863-5.863v-29.59c0-3.238,2.625-5.863,5.863-5.863h66.198
					c3.238,0,5.863,2.625,5.863,5.863v29.59C355.522,201.606,352.897,204.231,349.659,204.231z M289.324,192.506h54.472v-17.865
					h-54.472V192.506z"/>
			</g>
		</g>
		<g>
			<g>
				<g>
					<rect x="380.131" y="451.535" class="st5" width="29.59" height="54.602"/>
				</g>
				<g>
					<rect x="383.878" y="480.583" class="st7" width="22.095" height="22.095"/>
				</g>
				<g>
					<path class="st3" d="M409.72,512h-29.59c-3.238,0-5.863-2.625-5.863-5.863v-54.602c0-3.238,2.625-5.863,5.863-5.863h29.59
						c3.238,0,5.863,2.625,5.863,5.863v54.602C415.583,509.375,412.958,512,409.72,512z M385.993,500.275h17.865v-42.877h-17.865
						V500.275z"/>
				</g>
			</g>
			<g>
				<g>
					<rect x="223.401" y="451.535" class="st5" width="29.59" height="54.602"/>
				</g>
				<g>
					<rect x="227.148" y="480.583" class="st7" width="22.095" height="22.095"/>
				</g>
				<g>
					<path class="st3" d="M252.991,512h-29.59c-3.238,0-5.863-2.625-5.863-5.863v-54.602c0-3.238,2.625-5.863,5.863-5.863h29.59
						c3.238,0,5.863,2.625,5.863,5.863v54.602C258.853,509.375,256.228,512,252.991,512z M229.263,500.275h17.865v-42.877h-17.865
						V500.275z"/>
				</g>
			</g>
		</g>
		<g>
			<g>
				<rect x="283.462" y="463.757" class="st5" width="66.198" height="29.59"/>
			</g>
			<g>
				<rect x="324.106" y="467.505" class="st7" width="22.095" height="22.095"/>
			</g>
			<g>
				<path class="st3" d="M349.659,499.21h-66.198c-3.238,0-5.863-2.625-5.863-5.863v-29.59c0-3.238,2.625-5.863,5.863-5.863h66.198
					c3.238,0,5.863,2.625,5.863,5.863v29.59C355.522,496.585,352.897,499.21,349.659,499.21z M289.324,487.485h54.472V469.62
					h-54.472V487.485z"/>
			</g>
		</g>
		<g>
			<path class="st3" d="M334.043,440.882c-1.5,0-3.001-0.573-4.145-1.718l-35.127-35.127c-2.29-2.289-2.29-6.001,0-8.29
				c2.288-2.29,6.002-2.29,8.29,0l35.127,35.127c2.29,2.289,2.29,6.001,0,8.29C337.044,440.309,335.543,440.882,334.043,440.882z"/>
		</g>
		<g>
			<path class="st3" d="M334.043,392.335c-1.5,0-3.001-0.573-4.145-1.717l-35.127-35.127c-2.29-2.289-2.29-6.001,0-8.29
				c2.288-2.29,6.002-2.29,8.29,0l35.127,35.127c2.29,2.289,2.29,6.001,0,8.29C337.044,391.762,335.543,392.335,334.043,392.335z"/>
		</g>
		<g>
			<path class="st3" d="M334.043,343.788c-1.501,0-3.001-0.573-4.146-1.718l-35.127-35.128c-2.289-2.289-2.289-6.001,0.001-8.291
				c2.288-2.289,6.001-2.288,8.291,0.001l35.127,35.128c2.289,2.289,2.289,6.001-0.001,8.291
				C337.044,343.216,335.543,343.788,334.043,343.788z"/>
		</g>
		<g>
			<path class="st3" d="M334.043,246.694c-1.5,0-3.001-0.572-4.145-1.718l-35.127-35.127c-2.29-2.289-2.29-6.001,0-8.29
				c2.288-2.29,6.002-2.29,8.29,0l35.127,35.127c2.29,2.289,2.29,6.001,0,8.29C337.044,246.121,335.543,246.694,334.043,246.694z"/>
		</g>
		<g>
			<rect x="214.13" y="48.57" class="st2" width="29.715" height="218.276"/>
		</g>
		<g>
			<path class="st3" d="M243.845,272.708H214.13c-3.238,0-5.863-2.625-5.863-5.863V48.57c0-3.238,2.625-5.863,5.863-5.863h29.716
				c3.238,0,5.863,2.625,5.863,5.863v218.276C249.708,270.083,247.083,272.708,243.845,272.708z M219.992,260.983h17.99V54.432
				h-17.99V260.983z"/>
		</g>
		<g>
			<path class="st1" d="M253.945,65.643c-50.979,0-92.261,41.515-91.882,92.582c0.376,50.663,42.371,91.188,93.036,91.188h144.912
				v59.781H255.591c-83.823,0-153.021-67.307-153.311-151.129C101.99,74.056,170.004,5.863,253.945,5.863h47.662
				c21.142,0,41.418,8.399,56.367,23.348l0,0h42.036v36.433H253.945z"/>
		</g>
		<g>
			<rect x="367.066" y="29.211" class="st2" width="32.945" height="38.718"/>
		</g>
		<g>
			<rect x="367.066" y="249.413" class="st2" width="32.945" height="59.781"/>
		</g>
		<g>
			<path class="st3" d="M400.01,315.056H255.591c-87.469,0-158.874-70.417-159.173-156.971
				c-0.146-42.188,16.171-81.875,45.944-111.752C172.137,16.454,211.765,0,253.945,0h47.663c22.035,0,42.8,8.273,58.746,23.348
				h39.656c3.238,0,5.863,2.625,5.863,5.863v36.432c0,3.238-2.625,5.863-5.863,5.863H253.945c-23.098,0-44.781,9.029-61.053,25.423
				c-16.271,16.392-25.138,38.146-24.966,61.253c0.349,47.072,39.455,85.369,87.173,85.369H400.01c3.238,0,5.863,2.625,5.863,5.863
				v59.781C405.873,312.431,403.248,315.056,400.01,315.056z M253.945,11.725c-39.041,0-75.719,15.23-103.278,42.884
				c-27.557,27.653-42.659,64.387-42.524,103.435c0.277,80.111,66.422,145.286,147.448,145.286h138.557v-48.055H255.099
				c-54.137,0-98.502-43.517-98.898-97.007c-0.195-26.256,9.881-50.974,28.37-69.6c18.491-18.629,43.129-28.888,69.375-28.888
				h140.203V35.074h-36.174c-1.554,0-3.046-0.617-4.145-1.718c-13.949-13.948-32.495-21.631-52.221-21.631H253.945z"/>
		</g>
		<g>
			<path class="st3" d="M359.802,286.012h-88.765c-3.238,0-5.863-2.625-5.863-5.863c0-3.238,2.625-5.863,5.863-5.863h88.765
				c3.238,0,5.863,2.625,5.863,5.863C365.664,283.387,363.039,286.012,359.802,286.012z"/>
		</g>
	</g>
</g>
</svg>
