<?xml version="1.0" encoding="utf-8"?>
<!-- Generator: Adobe Illustrator 18.0.0, SVG Export Plug-In . SVG Version: 6.00 Build 0)  -->
<!DOCTYPE svg PUBLIC "-//W3C//DTD SVG 1.1//EN" "http://www.w3.org/Graphics/SVG/1.1/DTD/svg11.dtd">
<svg version="1.1" id="Icon_Set" xmlns="http://www.w3.org/2000/svg" xmlns:xlink="http://www.w3.org/1999/xlink" x="0px" y="0px"
	 viewBox="0 0 512 512" style="enable-background:new 0 0 512 512;" xml:space="preserve">
<style type="text/css">
	.st0{fill:#F0C48A;}
	.st1{fill:#FD919E;}
	.st2{fill:#E8677D;}
	.st3{fill:#4C4372;}
	.st4{fill:#D3E6F8;}
	.st5{fill:#A4CFF2;}
	.st6{fill:#FFFFFF;}
	.st7{fill:#7BABF1;}
</style>
<g>
	<circle class="st0" cx="256" cy="256" r="207"/>
	<g>
		<g>
			<rect x="201.3" y="197.422" class="st1" width="109.4" height="118.765"/>
		</g>
		<g>
			<rect x="281.327" y="197.422" class="st2" width="29.373" height="117.961"/>
		</g>
		<g>
			<path class="st4" d="M306.413,434.952H205.587c-12.786,0-23.151-10.365-23.151-23.151v-95.614h147.128v95.614
				C329.564,424.587,319.199,434.952,306.413,434.952z"/>
		</g>
		<g>
			<path class="st4" d="M329.564,197.422H182.436v-95.614c0-12.786,10.365-23.151,23.151-23.151h100.826
				c12.786,0,23.151,10.365,23.151,23.151V197.422z"/>
		</g>
		<g>
			<path class="st5" d="M329.564,197.422h-26.47V77.048l0,0c14.619,0,26.47,11.851,26.47,26.47V197.422z"/>
		</g>
		<g>
			<path class="st5" d="M329.564,315.383h-26.47v120.373l0,0c14.619,0,26.47-11.851,26.47-26.47V315.383z"/>
		</g>
		<g>
			<path class="st3" d="M329.564,203.284H182.436c-3.238,0-5.863-2.625-5.863-5.863v-95.615c0-15.998,13.015-29.013,29.013-29.013
				h100.826c15.998,0,29.013,13.015,29.013,29.013v95.615C335.427,200.659,332.802,203.284,329.564,203.284z M188.299,191.559
				h135.403v-89.752c0-9.532-7.756-17.288-17.288-17.288H205.587c-9.533,0-17.288,7.756-17.288,17.288V191.559z"/>
		</g>
		<g>
			<path class="st3" d="M306.413,440.814H205.587c-15.998,0-29.013-13.015-29.013-29.013v-95.614c0-3.238,2.625-5.863,5.863-5.863
				h147.128c3.238,0,5.863,2.625,5.863,5.863v95.614C335.427,427.799,322.411,440.814,306.413,440.814z M188.299,322.05v89.751
				c0,9.532,7.755,17.288,17.288,17.288h100.826c9.532,0,17.288-7.756,17.288-17.288V322.05H188.299z"/>
		</g>
		<g>
			<path class="st3" d="M310.7,322.05H201.3c-3.238,0-5.863-2.625-5.863-5.863V197.422c0-3.238,2.625-5.863,5.863-5.863H310.7
				c3.238,0,5.863,2.625,5.863,5.863v118.765C316.563,319.425,313.938,322.05,310.7,322.05z M207.162,310.324h97.676v-107.04
				h-97.676V310.324z"/>
		</g>
		<g>
			<path class="st3" d="M256.293,512c-3.238,0-5.863-2.625-5.863-5.863v-71.186c0-3.238,2.625-5.863,5.863-5.863
				c3.238,0,5.862,2.625,5.862,5.863v71.186C262.155,509.375,259.531,512,256.293,512z"/>
		</g>
		<g>
			<path class="st3" d="M256.293,82.911c-3.238,0-5.863-2.625-5.863-5.863V5.863c0-3.238,2.625-5.863,5.863-5.863
				c3.238,0,5.862,2.625,5.862,5.863v71.186C262.155,80.286,259.531,82.911,256.293,82.911z"/>
		</g>
		<g>
			<path class="st3" d="M329.564,381.448H182.436c-3.238,0-5.863-2.625-5.863-5.863c0-3.238,2.625-5.863,5.863-5.863h147.128
				c3.238,0,5.863,2.625,5.863,5.863C335.427,378.823,332.802,381.448,329.564,381.448z"/>
		</g>
		<g>
			<path class="st3" d="M327.898,143.097H182.729c-3.238,0-5.863-2.625-5.863-5.863c0-3.238,2.624-5.863,5.863-5.863h145.169
				c3.238,0,5.863,2.625,5.863,5.863C333.76,140.472,331.135,143.097,327.898,143.097z"/>
		</g>
		<g>
			<g>
				<path class="st3" d="M310.7,289.021H201.3c-3.238,0-5.863-2.625-5.863-5.863c0-3.238,2.625-5.863,5.863-5.863H310.7
					c3.238,0,5.863,2.625,5.863,5.863C316.563,286.396,313.938,289.021,310.7,289.021z"/>
			</g>
			<g>
				<path class="st3" d="M310.7,236.312H201.3c-3.238,0-5.863-2.625-5.863-5.863s2.625-5.863,5.863-5.863H310.7
					c3.238,0,5.863,2.625,5.863,5.863S313.938,236.312,310.7,236.312z"/>
			</g>
		</g>
	</g>
</g>
</svg>
