<?xml version="1.0" encoding="utf-8"?>
<!-- Generator: Adobe Illustrator 18.0.0, SVG Export Plug-In . SVG Version: 6.00 Build 0)  -->
<!DOCTYPE svg PUBLIC "-//W3C//DTD SVG 1.1//EN" "http://www.w3.org/Graphics/SVG/1.1/DTD/svg11.dtd">
<svg version="1.1" id="Icon_Set" xmlns="http://www.w3.org/2000/svg" xmlns:xlink="http://www.w3.org/1999/xlink" x="0px" y="0px"
	 viewBox="0 0 512 512" style="enable-background:new 0 0 512 512;" xml:space="preserve">
<style type="text/css">
	.st0{fill:#F0C48A;}
	.st1{fill:#FD919E;}
	.st2{fill:#E8677D;}
	.st3{fill:#4C4372;}
	.st4{fill:#D3E6F8;}
	.st5{fill:#A4CFF2;}
	.st6{fill:#FFFFFF;}
	.st7{fill:#7BABF1;}
</style>
<g>
	<circle class="st0" cx="256" cy="256" r="207"/>
	<g>
		<g>
			<g>
				<rect x="79.758" y="146.947" class="st7" width="352.485" height="359.19"/>
			</g>
			<g>
				<path class="st3" d="M432.242,512H79.758c-3.238,0-5.863-2.625-5.863-5.863v-359.19c0-3.238,2.625-5.863,5.863-5.863h352.485
					c3.238,0,5.863,2.625,5.863,5.863v359.19C438.105,509.375,435.48,512,432.242,512z M85.62,500.275h340.76V152.81H85.62V500.275z
					"/>
			</g>
			<g>
				<rect x="114.775" y="182.631" class="st5" width="282.451" height="287.823"/>
			</g>
			<g>
				<path class="st3" d="M397.225,476.317h-282.45c-3.238,0-5.863-2.625-5.863-5.863V182.631c0-3.238,2.625-5.863,5.863-5.863
					h282.45c3.238,0,5.863,2.625,5.863,5.863v287.823C403.088,473.692,400.463,476.317,397.225,476.317z M120.637,464.592h270.725
					V188.493H120.637V464.592z"/>
			</g>
			<g>
				<path class="st3" d="M114.775,496.674c-3.238,0-5.863-2.625-5.863-5.863V164.205c0-3.238,2.625-5.863,5.863-5.863
					c3.238,0,5.863,2.625,5.863,5.863v326.607C120.637,494.049,118.012,496.674,114.775,496.674z"/>
			</g>
			<g>
				<path class="st3" d="M397.974,496.674c-3.238,0-5.863-2.625-5.863-5.863V164.205c0-3.238,2.625-5.863,5.863-5.863
					c3.238,0,5.863,2.625,5.863,5.863v326.607C403.837,494.049,401.212,496.674,397.974,496.674z"/>
			</g>
			<g>
				<path class="st3" d="M419.677,188.493H93.071c-3.238,0-5.863-2.625-5.863-5.863c0-3.238,2.625-5.863,5.863-5.863h326.607
					c3.238,0,5.863,2.625,5.863,5.863C425.54,185.869,422.915,188.493,419.677,188.493z"/>
			</g>
			<g>
				<path class="st3" d="M419.677,476.317H93.071c-3.238,0-5.863-2.625-5.863-5.863s2.625-5.863,5.863-5.863h326.607
					c3.238,0,5.863,2.625,5.863,5.863S422.915,476.317,419.677,476.317z"/>
			</g>
			<g>
				<path class="st3" d="M300.692,331.271H132.725c-2.238,0-4.281-1.274-5.264-3.283c-0.985-2.01-0.74-4.404,0.632-6.172
					l83.984-108.278c1.111-1.432,2.821-2.27,4.633-2.27c1.812,0,3.522,0.838,4.633,2.27l83.983,108.278
					c1.371,1.768,1.616,4.163,0.632,6.172C304.972,329.997,302.929,331.271,300.692,331.271z M144.692,319.546h144.033
					l-72.016-92.849L144.692,319.546z"/>
			</g>
			<g>
				<path class="st3" d="M269.223,432.925H164.195c-3.238,0-5.863-2.625-5.863-5.863V325.408c0-3.238,2.625-5.863,5.863-5.863
					h105.029c3.238,0,5.863,2.625,5.863,5.863v101.654C275.086,430.3,272.461,432.925,269.223,432.925z M170.057,421.199h93.303
					v-89.929h-93.303V421.199z"/>
			</g>
			<g>
				<path class="st3" d="M237.964,432.925h-42.511c-3.238,0-5.863-2.625-5.863-5.863v-58.997c0-3.238,2.625-5.863,5.863-5.863
					h42.511c3.238,0,5.863,2.625,5.863,5.863v58.997C243.826,430.3,241.201,432.925,237.964,432.925z M201.316,421.199h30.785
					v-47.272h-30.785V421.199z"/>
			</g>
		</g>
		<g>
			<g>
				<g>
					<polygon class="st1" points="296.754,204.615 296.754,400.404 322.329,400.404 322.329,119.837 296.754,119.837 
						296.754,160.646 					"/>
				</g>
				<g>
					<rect x="308.649" y="119.837" class="st2" width="13.679" height="280.567"/>
				</g>
				<g>
					<path class="st3" d="M322.329,406.267h-25.575c-3.238,0-5.863-2.625-5.863-5.863V119.837c0-3.238,2.625-5.863,5.863-5.863
						h25.575c3.238,0,5.863,2.625,5.863,5.863v280.567C328.192,403.642,325.567,406.267,322.329,406.267z M302.616,394.542h13.85
						V125.7h-13.85V394.542z"/>
				</g>
				<g>
					<path class="st3" d="M309.541,441.811c-3.238,0-5.863-2.625-5.863-5.863v-35.544c0-3.238,2.625-5.863,5.863-5.863
						c3.238,0,5.863,2.625,5.863,5.863v35.544C315.404,439.186,312.779,441.811,309.541,441.811z"/>
				</g>
			</g>
			<g>
				<g>
					<path class="st1" d="M355.154,377.482c4.847,0,9.292,1.701,12.787,4.53V119.837h-25.575v262.175
						C345.861,379.183,350.307,377.482,355.154,377.482z"/>
				</g>
				<g>
					<rect x="354.262" y="119.837" class="st2" width="13.679" height="280.567"/>
				</g>
				<g>
					<circle class="st1" cx="355.154" cy="397.829" r="20.347"/>
				</g>
				<g>
					<path class="st3" d="M355.154,441.811c-3.238,0-5.863-2.625-5.863-5.863v-17.772c0-3.238,2.625-5.862,5.863-5.862
						s5.863,2.625,5.863,5.862v17.772C361.016,439.186,358.391,441.811,355.154,441.811z"/>
				</g>
				<g>
					<path class="st3" d="M367.943,387.875c-1.319,0-2.625-0.444-3.689-1.306c-2.607-2.11-5.754-3.225-9.1-3.225
						c-3.346,0-6.492,1.115-9.099,3.225c-1.756,1.422-4.171,1.707-6.213,0.734c-2.039-0.973-3.338-3.032-3.338-5.291V119.837
						c0-3.238,2.625-5.863,5.863-5.863h25.575c3.238,0,5.863,2.625,5.863,5.863v262.175c0,2.26-1.299,4.318-3.338,5.291
						C369.662,387.686,368.801,387.875,367.943,387.875z M355.154,371.619c2.349,0,4.68,0.32,6.926,0.938V125.7h-13.85v246.857
						C350.474,371.939,352.804,371.619,355.154,371.619z"/>
				</g>
				<g>
					<path class="st3" d="M355.154,424.039c-14.452,0-26.21-11.758-26.21-26.21c0-14.452,11.758-26.21,26.21-26.21
						s26.21,11.758,26.21,26.21C381.363,412.281,369.606,424.039,355.154,424.039z M355.154,383.345
						c-7.987,0-14.485,6.498-14.485,14.484c0,7.987,6.498,14.484,14.485,14.484c7.987,0,14.485-6.498,14.485-14.484
						C369.638,389.842,363.14,383.345,355.154,383.345z"/>
				</g>
			</g>
			<g>
				<g>
					<rect x="319.374" y="5.863" class="st5" width="25.947" height="59.767"/>
				</g>
				<g>
					<rect x="332.348" y="7.555" class="st7" width="13.679" height="58.074"/>
				</g>
				<g>
					<path class="st7" d="M332.347,79.013c1.705,0,3.38,0.128,5.021,0.359V65.629h-10.043v13.743
						C328.967,79.14,330.642,79.013,332.347,79.013z"/>
				</g>
				<g>
					<circle class="st5" cx="332.347" cy="114.607" r="35.594"/>
				</g>
				<g>
					<circle class="st7" cx="332.347" cy="114.607" r="18.747"/>
				</g>
				<g>
					<path class="st3" d="M332.347,139.217c-13.57,0-24.61-11.04-24.61-24.61c0-13.57,11.04-24.61,24.61-24.61
						c13.571,0,24.611,11.04,24.611,24.61C356.958,128.177,345.918,139.217,332.347,139.217z M332.347,101.722
						c-7.105,0-12.884,5.78-12.884,12.885c0,7.105,5.78,12.885,12.884,12.885c7.105,0,12.885-5.78,12.885-12.885
						C345.233,107.502,339.452,101.722,332.347,101.722z"/>
				</g>
				<g>
					<path class="st3" d="M337.369,85.235c-0.273,0-0.547-0.019-0.82-0.058c-2.836-0.4-5.568-0.4-8.404,0
						c-1.676,0.238-3.382-0.265-4.664-1.379c-1.283-1.114-2.018-2.728-2.018-4.426V65.629c0-3.238,2.625-5.863,5.863-5.863h10.043
						c3.238,0,5.863,2.625,5.863,5.863v13.743c0,1.698-0.736,3.313-2.018,4.426C340.14,84.731,338.773,85.235,337.369,85.235z"/>
				</g>
				<g>
					<path class="st3" d="M332.347,156.063c-22.859,0-41.456-18.597-41.456-41.457c0-22.859,18.597-41.456,41.456-41.456
						c22.86,0,41.457,18.597,41.457,41.456C373.804,137.466,355.207,156.063,332.347,156.063z M332.347,84.876
						c-16.394,0-29.731,13.337-29.731,29.731c0,16.394,13.337,29.731,29.731,29.731s29.732-13.337,29.732-29.731
						C362.079,98.213,348.741,84.876,332.347,84.876z"/>
				</g>
				<g>
					<path class="st3" d="M345.322,71.492h-25.948c-3.237,0-5.862-2.625-5.862-5.863V5.863c0-3.238,2.625-5.863,5.862-5.863h25.948
						c3.238,0,5.863,2.625,5.863,5.863v59.767C351.184,68.867,348.559,71.492,345.322,71.492z M325.237,59.767h14.222V11.725
						h-14.222V59.767z"/>
				</g>
			</g>
		</g>
	</g>
</g>
</svg>
