<?xml version="1.0" encoding="utf-8"?>
<!-- Generator: Adobe Illustrator 18.0.0, SVG Export Plug-In . SVG Version: 6.00 Build 0)  -->
<!DOCTYPE svg PUBLIC "-//W3C//DTD SVG 1.1//EN" "http://www.w3.org/Graphics/SVG/1.1/DTD/svg11.dtd">
<svg version="1.1" id="Icon_Set" xmlns="http://www.w3.org/2000/svg" xmlns:xlink="http://www.w3.org/1999/xlink" x="0px" y="0px"
	 viewBox="0 0 512 512" style="enable-background:new 0 0 512 512;" xml:space="preserve">
<style type="text/css">
	.st0{fill:#F0C48A;}
	.st1{fill:#FD919E;}
	.st2{fill:#E8677D;}
	.st3{fill:#4C4372;}
	.st4{fill:#D3E6F8;}
	.st5{fill:#A4CFF2;}
	.st6{fill:#FFFFFF;}
	.st7{fill:#7BABF1;}
</style>
<g>
	<circle class="st0" cx="256" cy="256" r="207"/>
	<g>
		<g>
			<g>
				<rect x="5.863" y="98.72" class="st4" width="500.275" height="314.561"/>
			</g>
		</g>
		<g>
			<g>
				<rect x="443.872" y="98.72" class="st5" width="62.265" height="314.561"/>
			</g>
		</g>
		<g>
			<circle class="st7" cx="148.517" cy="256" r="94.592"/>
		</g>
		<g>
			<path class="st7" d="M400.106,286.637h-60.165c-15.873,0-28.74,12.867-28.74,28.74v35.276h117.645v-35.276
				C428.847,299.504,415.979,286.637,400.106,286.637z"/>
		</g>
		<g>
			<rect x="291.241" y="164.473" class="st5" width="78.783" height="67.445"/>
		</g>
		<g>
			<rect x="370.024" y="164.473" class="st1" width="78.783" height="67.445"/>
		</g>
		<g>
			<g>
				<path class="st3" d="M506.137,419.143H5.863c-3.238,0-5.863-2.625-5.863-5.863V98.719c0-3.238,2.625-5.863,5.863-5.863h500.275
					c3.238,0,5.863,2.625,5.863,5.863V413.28C512,416.518,509.375,419.143,506.137,419.143z M11.725,407.418h488.55V104.582H11.725
					V407.418z"/>
			</g>
		</g>
		<g>
			<path class="st3" d="M148.516,356.455c-55.39,0-100.454-45.064-100.454-100.455s45.064-100.455,100.454-100.455
				c55.391,0,100.455,45.064,100.455,100.455S203.907,356.455,148.516,356.455z M148.516,167.27
				c-48.925,0-88.729,39.804-88.729,88.73s39.803,88.73,88.729,88.73c48.926,0,88.73-39.804,88.73-88.73
				S197.442,167.27,148.516,167.27z"/>
		</g>
		<g>
			<path class="st3" d="M148.516,307.731c-28.525,0-51.731-23.206-51.731-51.731s23.206-51.731,51.731-51.731
				c28.525,0,51.731,23.206,51.731,51.731S177.041,307.731,148.516,307.731z M148.516,215.994
				c-22.059,0-40.006,17.947-40.006,40.006s17.947,40.006,40.006,40.006c22.059,0,40.006-17.947,40.006-40.006
				S170.575,215.994,148.516,215.994z"/>
		</g>
		<g>
			<path class="st3" d="M147.5,355.664c-3.238,0-5.5-2.625-5.5-5.863V163.176c0-3.238,2.262-5.863,5.5-5.863
				c3.238,0,5.5,2.625,5.5,5.863v186.626C153,353.039,150.738,355.664,147.5,355.664z"/>
		</g>
		<g>
			<path class="st3" d="M242.321,261H54.718c-3.238,0-5.863-2.762-5.863-6c0-3.238,2.625-6,5.863-6h187.603
				c3.238,0,5.863,2.762,5.863,6C248.183,258.238,245.558,261,242.321,261z"/>
		</g>
		<g>
			<path class="st3" d="M428.846,356.515H311.201c-3.238,0-5.863-2.625-5.863-5.863v-35.276c0-19.08,15.523-34.603,34.602-34.603
				h60.166c19.079,0,34.602,15.523,34.602,34.603v35.276C434.709,353.89,432.084,356.515,428.846,356.515z M317.064,344.79h105.92
				v-29.413c0-12.615-10.262-22.878-22.877-22.878h-60.166c-12.615,0-22.877,10.263-22.877,22.878V344.79z"/>
		</g>
		<g>
			<path class="st3" d="M370.024,237.781H291.24c-3.238,0-5.863-2.625-5.863-5.863v-67.445c0-3.238,2.625-5.863,5.863-5.863h78.783
				c3.238,0,5.863,2.625,5.863,5.863v67.445C375.886,235.156,373.261,237.781,370.024,237.781z M297.103,226.055h67.058v-55.719
				h-67.058V226.055z"/>
		</g>
		<g>
			<path class="st3" d="M448.807,237.781h-78.783c-3.238,0-5.863-2.625-5.863-5.863v-67.445c0-3.238,2.625-5.863,5.863-5.863h78.783
				c3.238,0,5.863,2.625,5.863,5.863v67.445C454.67,235.156,452.045,237.781,448.807,237.781z M375.886,226.055h67.058v-55.719
				h-67.058V226.055z"/>
		</g>
		<g>
			<path class="st3" d="M343,335.145c-3.238,0-6-2.625-6-5.863v-16.611c0-3.238,2.762-5.863,6-5.863c3.238,0,6,2.625,6,5.863v16.611
				C349,332.52,346.238,335.145,343,335.145z"/>
		</g>
		<g>
			<path class="st3" d="M395,335.145c-3.238,0-6-2.625-6-5.863v-16.611c0-3.238,2.762-5.863,6-5.863c3.238,0,6,2.625,6,5.863v16.611
				C401,332.52,398.238,335.145,395,335.145z"/>
		</g>
	</g>
</g>
</svg>
