<?xml version="1.0" encoding="utf-8"?>
<!-- Generator: Adobe Illustrator 18.0.0, SVG Export Plug-In . SVG Version: 6.00 Build 0)  -->
<!DOCTYPE svg PUBLIC "-//W3C//DTD SVG 1.1//EN" "http://www.w3.org/Graphics/SVG/1.1/DTD/svg11.dtd">
<svg version="1.1" id="Icon_Set" xmlns="http://www.w3.org/2000/svg" xmlns:xlink="http://www.w3.org/1999/xlink" x="0px" y="0px"
	 viewBox="0 0 512 512" style="enable-background:new 0 0 512 512;" xml:space="preserve">
<style type="text/css">
	.st0{fill:#F0C48A;}
	.st1{fill:#FD919E;}
	.st2{fill:#E8677D;}
	.st3{fill:#4C4372;}
	.st4{fill:#D3E6F8;}
	.st5{fill:#A4CFF2;}
	.st6{fill:#FFFFFF;}
	.st7{fill:#7BABF1;}
</style>
<g>
	<circle class="st0" cx="256" cy="256" r="207"/>
	<g>
		<g>
			<path class="st4" d="M128.727,93.801V41.743c0-19.734,16.146-35.881,35.881-35.881h182.284c19.734,0,35.881,16.146,35.881,35.881
				v428.513c0,19.734-16.146,35.881-35.881,35.881H164.608c-19.734,0-35.881-16.146-35.881-35.881V137.771V93.801z"/>
		</g>
		<g>
			<path class="st7" d="M357.368,427.97v76.594c14.665-4.51,25.405-18.214,25.405-34.307V427.97H357.368z"/>
		</g>
		<g>
			<path class="st7" d="M357.368,7.436v68.778h25.405v-34.47C382.773,25.65,372.034,11.946,357.368,7.436z"/>
		</g>
		<g>
			<rect x="128.727" y="76.214" class="st6" width="255.023" height="351.756"/>
		</g>
		<g>
			<rect x="357.368" y="76.214" class="st4" width="26.382" height="351.756"/>
		</g>
		<g>
			<circle class="st7" cx="255.75" cy="467.542" r="21.985"/>
		</g>
		<g>
			<g>
				<path class="st1" d="M338.804,268.037v-24.074h-21.256c-1.635-8.439-4.943-16.282-9.584-23.154l15.025-15.025l-17.023-17.023
					l-15.025,15.025c-6.873-4.641-14.716-7.949-23.155-9.583v-21.256h-24.073v21.256c-8.44,1.635-16.282,4.942-23.155,9.583
					l-15.025-15.025l-17.022,17.023l15.025,15.025c-4.641,6.872-7.948,14.715-9.583,23.154h-21.256v24.074h21.256
					c1.634,8.439,4.943,16.282,9.583,23.155l-15.025,15.025l17.022,17.023l15.025-15.026c6.872,4.642,14.715,7.949,23.155,9.584
					v21.255h24.073v-21.255c8.44-1.635,16.282-4.943,23.155-9.584l15.025,15.026l17.023-17.023l-15.025-15.025
					c4.642-6.873,7.949-14.716,9.584-23.155H338.804z M255.348,286.811c-17.016,0-30.81-13.795-30.81-30.811
					s13.794-30.81,30.81-30.81c17.017,0,30.811,13.794,30.811,30.81S272.365,286.811,255.348,286.811z"/>
			</g>
			<g>
				<g>
					<path class="st3" d="M255.348,292.673c-20.221,0-36.673-16.452-36.673-36.673c0-20.221,16.451-36.673,36.673-36.673
						c20.222,0,36.673,16.451,36.673,36.673C292.021,276.222,275.57,292.673,255.348,292.673z M255.348,231.053
						c-13.756,0-24.947,11.191-24.947,24.947c0,13.756,11.191,24.948,24.947,24.948s24.948-11.192,24.948-24.948
						C280.296,242.244,269.104,231.053,255.348,231.053z"/>
				</g>
				<g>
					<path class="st3" d="M267.786,344.916h-24.073c-3.238,0-5.863-2.625-5.863-5.863v-16.593
						c-5.773-1.545-11.275-3.822-16.443-6.805l-11.729,11.73c-1.099,1.099-2.591,1.717-4.145,1.717s-3.046-0.618-4.146-1.717
						l-17.022-17.023c-2.29-2.289-2.29-6.001,0-8.291l11.729-11.729c-2.984-5.169-5.26-10.671-6.805-16.442h-16.593
						c-3.238,0-5.863-2.625-5.863-5.863v-24.074c0-3.238,2.625-5.863,5.863-5.863h16.593c1.544-5.772,3.822-11.274,6.805-16.443
						l-11.729-11.73c-2.29-2.289-2.29-6.001,0-8.291l17.022-17.022c2.289-2.29,6.001-2.29,8.291,0l11.729,11.729
						c5.168-2.983,10.67-5.26,16.443-6.805v-16.594c0-3.238,2.625-5.863,5.863-5.863h24.073c3.238,0,5.863,2.625,5.863,5.863v16.593
						c5.771,1.544,11.274,3.821,16.443,6.805l11.729-11.729c2.289-2.289,6.001-2.289,8.291,0l17.022,17.022
						c2.29,2.289,2.29,6.001,0,8.291l-11.729,11.729c2.984,5.168,5.26,10.67,6.805,16.443h16.593c3.238,0,5.863,2.625,5.863,5.863
						v24.074c0,3.238-2.625,5.863-5.863,5.863H322.21c-1.545,5.772-3.822,11.274-6.805,16.442l11.729,11.729
						c2.29,2.289,2.29,6.001,0,8.291l-17.022,17.023c-1.099,1.1-2.591,1.717-4.146,1.717c-1.555,0-3.046-0.618-4.146-1.717
						l-11.729-11.73c-5.168,2.984-10.67,5.26-16.443,6.805v16.593C273.649,342.291,271.024,344.916,267.786,344.916z
						 M249.576,333.191h12.348v-15.393c0-2.808,1.991-5.222,4.748-5.755c7.561-1.465,14.622-4.387,20.989-8.687
						c2.327-1.572,5.441-1.272,7.426,0.713l10.879,10.88l8.731-8.732l-10.879-10.879c-1.985-1.985-2.284-5.1-0.713-7.426
						c4.3-6.367,7.222-13.429,8.687-20.989c0.534-2.756,2.948-4.747,5.756-4.747h15.393v-12.348h-15.393
						c-2.808,0-5.221-1.991-5.756-4.748c-1.465-7.561-4.387-14.622-8.687-20.989c-1.572-2.327-1.272-5.441,0.713-7.426l10.879-10.88
						l-8.731-8.731l-10.879,10.879c-1.986,1.986-5.099,2.284-7.426,0.713c-6.369-4.3-13.431-7.223-20.989-8.686
						c-2.757-0.534-4.748-2.947-4.748-5.756v-15.394h-12.348v15.394c0,2.808-1.991,5.222-4.748,5.755
						c-7.561,1.465-14.623,4.387-20.989,8.686c-2.328,1.571-5.441,1.272-7.426-0.713l-10.88-10.879l-8.731,8.731l10.879,10.88
						c1.985,1.985,2.284,5.1,0.713,7.426c-4.3,6.367-7.222,13.428-8.687,20.989c-0.534,2.757-2.948,4.748-5.756,4.748h-15.394
						v12.348h15.394c2.808,0,5.222,1.991,5.756,4.748c1.464,7.559,4.387,14.62,8.687,20.989c1.571,2.327,1.272,5.441-0.713,7.426
						l-10.879,10.879l8.731,8.732l10.88-10.88c1.985-1.986,5.1-2.285,7.427-0.713c6.365,4.299,13.426,7.222,20.988,8.687
						c2.757,0.534,4.748,2.947,4.748,5.755V333.191z"/>
				</g>
			</g>
		</g>
		<g>
			<path class="st3" d="M383.262,82.076H128.238c-3.237,0-3.862-2.625-3.862-5.863c0-3.238,0.625-5.863,3.862-5.863h255.023
				c3.237,0,2.738,2.411,2.738,5.649S386.499,82.076,383.262,82.076z"/>
		</g>
		<g>
			<path class="st3" d="M383.262,433.832H128.238c-3.237,0-3.238-1.594-3.238-4.832s0.001-6.893,3.238-6.893h255.023
				c3.237,0,3.862,2.625,3.862,5.863C387.124,431.207,386.499,433.832,383.262,433.832z"/>
		</g>
		<g>
			<path class="st3" d="M255.75,495.389c-15.355,0-27.847-12.492-27.847-27.847c0-15.355,12.492-27.847,27.847-27.847
				s27.847,12.492,27.847,27.847C283.597,482.897,271.105,495.389,255.75,495.389z M255.75,451.42
				c-8.89,0-16.122,7.232-16.122,16.122s7.232,16.122,16.122,16.122s16.122-7.232,16.122-16.122S264.64,451.42,255.75,451.42z"/>
		</g>
		<g>
			<path class="st3" d="M346.892,512H164.608c-23.017,0-41.743-18.726-41.743-41.743V41.743C122.865,18.726,141.591,0,164.608,0
				h182.284c23.017,0,41.743,18.726,41.743,41.743v428.513C388.635,493.274,369.909,512,346.892,512z M164.608,11.725
				c-16.552,0-30.018,13.466-30.018,30.018v428.513c0,16.552,13.466,30.018,30.018,30.018h182.284
				c16.552,0,30.018-13.466,30.018-30.018V41.743c0-16.552-13.466-30.018-30.018-30.018H164.608z"/>
		</g>
	</g>
</g>
</svg>
