<?xml version="1.0" encoding="utf-8"?>
<!-- Generator: Adobe Illustrator 18.0.0, SVG Export Plug-In . SVG Version: 6.00 Build 0)  -->
<!DOCTYPE svg PUBLIC "-//W3C//DTD SVG 1.1//EN" "http://www.w3.org/Graphics/SVG/1.1/DTD/svg11.dtd">
<svg version="1.1" id="Icon_Set" xmlns="http://www.w3.org/2000/svg" xmlns:xlink="http://www.w3.org/1999/xlink" x="0px" y="0px"
	 viewBox="0 0 512 512" style="enable-background:new 0 0 512 512;" xml:space="preserve">
<style type="text/css">
	.st0{fill:#F0C48A;}
	.st1{fill:#FD919E;}
	.st2{fill:#E8677D;}
	.st3{fill:#4C4372;}
	.st4{fill:#D3E6F8;}
	.st5{fill:#A4CFF2;}
	.st6{fill:#FFFFFF;}
	.st7{fill:#7BABF1;}
</style>
<g>
	<circle class="st0" cx="256" cy="256" r="207"/>
	<g>
		<g>
			<path class="st4" d="M291.492,208.448V67.398c0-9.967,8.08-18.047,18.047-18.047h0c9.967,0,18.047-8.08,18.047-18.047V23.91
				c0-9.967-8.08-18.047-18.047-18.047H202.46c-9.967,0-18.047,8.08-18.047,18.047v7.394c0,9.967,8.08,18.047,18.047,18.047h0
				c9.967,0,18.047,8.08,18.047,18.047v141.05c0,7.913-5.139,14.953-12.715,17.238C139.239,246.363,89.31,309.988,89.31,385.285
				c0,47.568,19.925,90.483,51.885,120.853h229.606c31.961-30.37,51.889-73.283,51.889-120.853
				c0-75.297-49.929-138.922-118.482-159.599C296.632,223.401,291.492,216.36,291.492,208.448z"/>
		</g>
		<g>
			<path class="st1" d="M95.213,429.369c8.132,29.726,24.277,56.142,45.982,76.768h229.606
				c21.706-20.626,37.853-47.042,45.986-76.768H95.213z"/>
		</g>
		<g>
			<g>
				<path class="st7" d="M283.68,313.442c-20.436,20.436-27.156,49.375-20.204,75.425c26.05,6.952,54.989,0.231,75.425-20.204
					c20.436-20.436,27.156-49.375,20.204-75.425C333.055,286.286,304.116,293.006,283.68,313.442z"/>
			</g>
			<g>
				<path class="st7" d="M164.853,368.663c20.436,20.436,49.375,27.156,75.425,20.204c6.952-26.05,0.231-54.989-20.204-75.425
					c-20.436-20.436-49.375-27.156-75.425-20.204C137.697,319.287,144.417,348.227,164.853,368.663z"/>
			</g>
		</g>
		<g>
			<path class="st3" d="M370.801,512H141.195c-1.503,0-2.949-0.577-4.038-1.613c-34.635-32.913-53.709-77.342-53.709-125.103
				c0-37.812,12.005-73.709,34.717-103.813c21.966-29.115,53.196-50.92,87.936-61.399c5.031-1.517,8.545-6.298,8.545-11.625V67.398
				c0-6.718-5.466-12.184-12.184-12.184c-13.184,0-23.91-10.726-23.91-23.91V23.91c0-13.184,10.726-23.91,23.91-23.91h107.078
				c13.184,0,23.91,10.726,23.91,23.91v7.394c0,13.184-10.726,23.91-23.91,23.91c-6.719,0-12.184,5.466-12.184,12.184v141.05
				c0,5.327,3.513,10.107,8.545,11.625c34.74,10.479,65.97,32.284,87.936,61.399c22.712,30.103,34.717,66.001,34.717,103.813
				c0,47.76-19.075,92.188-53.714,125.103C373.749,511.423,372.303,512,370.801,512z M143.559,500.275h224.877
				c31.226-30.509,48.391-71.25,48.391-114.99c0-35.242-11.187-68.698-32.351-96.751c-20.479-27.144-49.587-47.47-81.962-57.236
				c-9.942-2.998-16.885-12.395-16.885-22.85V67.398c0-13.184,10.726-23.909,23.909-23.909c6.719,0,12.185-5.466,12.185-12.185
				V23.91c0-6.719-5.467-12.185-12.185-12.185H202.461c-6.719,0-12.185,5.466-12.185,12.185v7.394
				c0,6.719,5.467,12.185,12.185,12.185c13.183,0,23.909,10.726,23.909,23.909v141.05c0,10.456-6.943,19.852-16.884,22.851
				c-32.375,9.765-61.483,30.092-81.962,57.235c-21.164,28.053-32.351,61.509-32.351,96.751
				C95.173,429.026,112.336,469.767,143.559,500.275z"/>
		</g>
		<g>
			<g>
				<path class="st3" d="M283.561,397.36c-7.211,0.001-14.469-0.926-21.597-2.828c-2.028-0.542-3.612-2.125-4.153-4.153
					c-7.713-28.901,0.612-59.97,21.724-81.083h-0.001c21.113-21.112,52.183-29.435,81.082-21.723
					c2.028,0.542,3.612,2.125,4.153,4.153c7.714,28.901-0.611,59.97-21.723,81.083C327.141,388.713,305.584,397.36,283.561,397.36z
					 M268.332,384.01c23.902,5.169,49.073-2.143,66.424-19.493c17.351-17.352,24.661-42.524,19.492-66.423
					c-23.9-5.167-49.072,2.142-66.422,19.493c-0.001,0-0.001,0-0.001,0C270.474,334.939,263.164,360.111,268.332,384.01z
					 M283.68,313.442h0.01H283.68z"/>
			</g>
			<g>
				<path class="st3" d="M220.193,397.361c-22.025,0-43.579-8.647-59.485-24.552c-21.113-21.112-29.436-52.18-21.723-81.082
					c0.541-2.028,2.125-3.612,4.153-4.153c28.9-7.711,59.969,0.612,81.082,21.723c21.112,21.112,29.436,52.181,21.723,81.083
					c-0.541,2.028-2.125,3.612-4.153,4.153C234.663,396.434,227.402,397.361,220.193,397.361z M149.506,298.094
					c-5.168,23.9,2.141,49.072,19.492,66.423c17.352,17.352,42.523,24.663,66.424,19.493c5.168-23.9-2.142-49.072-19.492-66.423
					C198.576,300.235,173.405,292.925,149.506,298.094z"/>
			</g>
		</g>
		<g>
			<path class="st3" d="M251.459,512c-3.238,0-5.863-2.625-5.863-5.863V402.069l-66.372-66.372c-2.29-2.29-2.29-6.001,0-8.291
				c2.288-2.289,6.002-2.289,8.29,0l68.09,68.089c1.1,1.099,1.718,2.591,1.718,4.146v106.497
				C257.322,509.375,254.697,512,251.459,512z"/>
		</g>
		<g>
			<path class="st3" d="M251.459,405.503c-1.501,0-3.001-0.572-4.145-1.717c-2.29-2.29-2.29-6.001,0-8.291l68.09-68.089
				c2.288-2.29,6.002-2.289,8.29,0c2.29,2.29,2.29,6.001,0,8.291l-68.09,68.089C254.46,404.93,252.959,405.503,251.459,405.503z"/>
		</g>
		<g>
			<path class="st3" d="M416.786,435.232H95.213c-3.238,0-5.863-2.624-5.863-5.862c0-3.238,2.625-5.863,5.863-5.863h321.573
				c3.238,0,5.863,2.625,5.863,5.863C422.649,432.608,420.024,435.232,416.786,435.232z"/>
		</g>
		<g>
			<path class="st3" d="M309.539,55.214H202.461c-3.238,0-5.863-2.625-5.863-5.863c0-3.238,2.625-5.863,5.863-5.863h107.078
				c3.238,0,5.863,2.625,5.863,5.863C315.402,52.589,312.777,55.214,309.539,55.214z"/>
		</g>
	</g>
</g>
</svg>
