<?xml version="1.0" encoding="utf-8"?>
<!-- Generator: Adobe Illustrator 18.0.0, SVG Export Plug-In . SVG Version: 6.00 Build 0)  -->
<!DOCTYPE svg PUBLIC "-//W3C//DTD SVG 1.1//EN" "http://www.w3.org/Graphics/SVG/1.1/DTD/svg11.dtd">
<svg version="1.1" id="Icon_Set" xmlns="http://www.w3.org/2000/svg" xmlns:xlink="http://www.w3.org/1999/xlink" x="0px" y="0px"
	 viewBox="0 0 512 512" style="enable-background:new 0 0 512 512;" xml:space="preserve">
<style type="text/css">
	.st0{fill:#F0C48A;}
	.st1{fill:#FD919E;}
	.st2{fill:#E8677D;}
	.st3{fill:#4C4372;}
	.st4{fill:#D3E6F8;}
	.st5{fill:#A4CFF2;}
	.st6{fill:#FFFFFF;}
	.st7{fill:#7BABF1;}
</style>
<g>
	<circle class="st0" cx="256" cy="256" r="207"/>
	<g>
		<g>
			<path class="st1" d="M293.773,72.529h-75.547V43.636c0-20.862,16.912-37.774,37.773-37.774l0,0
				c20.862,0,37.773,16.912,37.773,37.774V72.529z"/>
		</g>
		<g>
			<path class="st2" d="M258.771,5.975v66.554h35.002V43.636C293.773,23.707,278.337,7.395,258.771,5.975z"/>
		</g>
		<g>
			<path class="st3" d="M293.774,78.391h-75.548c-3.238,0-5.863-2.625-5.863-5.863V43.637C212.363,19.575,231.939,0,256,0
				s43.637,19.575,43.637,43.637v28.892C299.637,75.766,297.012,78.391,293.774,78.391z M224.089,66.666h63.823V43.637
				c0-17.596-14.315-31.911-31.911-31.911s-31.911,14.315-31.911,31.911V66.666z"/>
		</g>
		<g>
			<circle class="st5" cx="256" cy="284.729" r="221.408"/>
		</g>
		<g>
			<path class="st4" d="M235.288,64.294C122.722,74.74,34.592,169.435,34.592,284.73s88.129,209.99,200.695,220.436
				C347.854,494.72,435.983,400.024,435.983,284.73S347.854,74.74,235.288,64.294z"/>
		</g>
		<g>
			<circle class="st4" cx="256" cy="284.729" r="180.871"/>
		</g>
		<g>
			<path class="st6" d="M238.454,104.709c-91.658,8.825-163.324,86.049-163.324,180.021s71.667,171.196,163.324,180.021
				c91.658-8.825,163.324-86.049,163.324-180.021S330.111,113.534,238.454,104.709z"/>
		</g>
		<g>
			<path class="st3" d="M256,512c-60.706,0-117.779-23.64-160.704-66.566C52.37,402.509,28.73,345.436,28.73,284.73
				s23.64-117.779,66.566-160.705C138.221,81.099,195.294,57.459,256,57.459s117.779,23.64,160.704,66.566
				c42.926,42.926,66.566,99.999,66.566,160.705s-23.64,117.779-66.566,160.704C373.779,488.36,316.706,512,256,512z M256,69.184
				c-57.574,0-111.702,22.421-152.413,63.132c-40.711,40.711-63.132,94.84-63.132,152.414c0,57.574,22.421,111.702,63.132,152.413
				c40.711,40.711,94.839,63.132,152.413,63.132s111.702-22.421,152.413-63.132c40.711-40.711,63.132-94.839,63.132-152.413
				c0-57.575-22.421-111.703-63.132-152.414C367.702,91.605,313.574,69.184,256,69.184z"/>
		</g>
		<g>
			<path class="st3" d="M256,471.463c-102.966,0-186.734-83.768-186.734-186.733c0-102.966,83.768-186.734,186.734-186.734
				s186.734,83.768,186.734,186.734C442.734,387.695,358.966,471.463,256,471.463z M256,109.721
				c-96.5,0-175.009,78.509-175.009,175.009S159.5,459.738,256,459.738S431.009,381.23,431.009,284.73S352.5,109.721,256,109.721z"
				/>
		</g>
		<g>
			<path class="st3" d="M256,370.45c-47.266,0-85.72-38.454-85.72-85.72c0-47.267,38.454-85.721,85.72-85.721
				s85.72,38.454,85.72,85.721C341.72,331.996,303.266,370.45,256,370.45z M256,210.734c-40.801,0-73.995,33.195-73.995,73.996
				c0,40.801,33.194,73.995,73.995,73.995s73.995-33.194,73.995-73.995C329.995,243.928,296.802,210.734,256,210.734z"/>
		</g>
		<g>
			<g>
				<path class="st3" d="M436.871,290.593h-28.347c-3.238,0-5.863-2.625-5.863-5.863c0-3.238,2.625-5.863,5.863-5.863h28.347
					c3.238,0,5.863,2.625,5.863,5.863C442.734,287.968,440.109,290.593,436.871,290.593z"/>
			</g>
			<g>
				<path class="st3" d="M103.476,290.593H75.129c-3.238,0-5.863-2.625-5.863-5.863c0-3.238,2.625-5.863,5.863-5.863h28.347
					c3.238,0,5.863,2.625,5.863,5.863C109.339,287.968,106.714,290.593,103.476,290.593z"/>
			</g>
		</g>
		<g>
			<g>
				<polygon class="st4" points="256,284.73 274.382,303.112 215.169,343.943 155.955,384.775 196.786,325.561 237.618,266.347 				
					"/>
			</g>
			<g>
				<polygon class="st1" points="256,284.73 237.618,266.348 296.831,225.516 356.045,184.685 315.214,243.898 274.382,303.112 				
					"/>
			</g>
			<g>
				<path class="st3" d="M155.957,390.637c-1.512,0-3.013-0.583-4.147-1.718c-2.001-2-2.287-5.144-0.681-7.473l81.662-118.427
					c0.988-1.432,2.561-2.352,4.295-2.51c1.737-0.156,3.446,0.463,4.676,1.694l36.765,36.763c1.231,1.231,1.851,2.945,1.694,4.677
					c-0.158,1.734-1.078,3.307-2.51,4.295l-118.428,81.663C158.275,390.297,157.113,390.637,155.957,390.637z M238.449,275.47
					l-59.553,86.365l86.365-59.554l-13.406-13.404v-0.001L238.449,275.47z"/>
			</g>
			<g>
				<path class="st3" d="M274.383,308.974c-1.548,0-3.041-0.613-4.145-1.717l-18.383-18.382v-0.001l-18.383-18.383
					c-1.231-1.23-1.851-2.944-1.694-4.677c0.158-1.734,1.078-3.307,2.511-4.295l118.428-81.662c2.329-1.606,5.473-1.32,7.473,0.681
					c2.001,2,2.287,5.144,0.681,7.473L279.209,306.44c-0.988,1.432-2.561,2.352-4.294,2.51
					C274.737,308.967,274.559,308.974,274.383,308.974z M260.145,280.584l13.407,13.405l59.554-86.366l-86.366,59.554
					L260.145,280.584L260.145,280.584z"/>
			</g>
		</g>
		<g>
			<g>
				<path class="st3" d="M256,138.069c-3.238,0-5.863-2.625-5.863-5.863v-28.347c0-3.238,2.625-5.863,5.863-5.863
					c3.238,0,5.863,2.625,5.863,5.863v28.347C261.863,135.444,259.238,138.069,256,138.069z"/>
			</g>
			<g>
				<path class="st3" d="M256,471.463c-3.238,0-5.863-2.625-5.863-5.863v-28.347c0-3.238,2.625-5.863,5.863-5.863
					c3.238,0,5.863,2.625,5.863,5.863V465.6C261.863,468.838,259.238,471.463,256,471.463z"/>
			</g>
		</g>
	</g>
</g>
</svg>
