<?xml version="1.0" encoding="utf-8"?>
<!-- Generator: Adobe Illustrator 18.0.0, SVG Export Plug-In . SVG Version: 6.00 Build 0)  -->
<!DOCTYPE svg PUBLIC "-//W3C//DTD SVG 1.1//EN" "http://www.w3.org/Graphics/SVG/1.1/DTD/svg11.dtd">
<svg version="1.1" id="Icon_Set" xmlns="http://www.w3.org/2000/svg" xmlns:xlink="http://www.w3.org/1999/xlink" x="0px" y="0px"
	 viewBox="0 0 512 512" style="enable-background:new 0 0 512 512;" xml:space="preserve">
<style type="text/css">
	.st0{fill:#F0C48A;}
	.st1{fill:#FD919E;}
	.st2{fill:#E8677D;}
	.st3{fill:#4C4372;}
	.st4{fill:#D3E6F8;}
	.st5{fill:#A4CFF2;}
	.st6{fill:#FFFFFF;}
	.st7{fill:#7BABF1;}
</style>
<g>
	<circle class="st0" cx="256" cy="256" r="207"/>
	<g>
		<g>
			<g>
				<path class="st5" d="M276.09,173.797L116.749,333.139c-29.881-7.974-63.137,0.021-86.217,24.037
					c-33.507,34.866-32.785,89.452,1.587,123.465c34.381,34.022,89.832,33.911,124.076-0.332
					c23.021-23.021,30.591-55.62,22.76-84.965l216.442-216.443c29.345,7.831,61.944,0.261,84.965-22.76
					c22.659-22.66,30.364-54.603,23.132-83.585l-47.226,47.226c-17.661,17.661-46.296,17.661-63.957,0l0,0
					c-17.661-17.661-17.661-46.296,0-63.957l47.226-47.226c-28.982-7.232-60.926,0.473-83.585,23.132
					c-23.021,23.021-30.591,55.62-22.76,84.965l-18.438,18.438L276.09,173.797z M105.76,480.69l-58.644-15.714l-15.714-58.644
					l42.93-42.93l58.644,15.714l15.714,58.644L105.76,480.69z"/>
			</g>
			<g>
				<path class="st7" d="M379.645,194.652l15.751-15.751c29.345,7.831,61.944,0.261,84.965-22.76
					c22.659-22.66,30.364-54.603,23.132-83.585l-1.608,1.608c-27.542,86.901-84.588,89.955-112.605,85.583
					c-10.987-1.714-22.131,1.842-29.993,9.705L169.265,359.474c-7.274,7.274-11.048,17.412-10.002,27.645
					c1.108,10.84-0.252,27.184-11.696,46.451l1.122,4.19l-42.93,42.93l-5.722-1.533c-36.325,17.943-67.103,1.584-68.626,0.75
					c0.239,0.242,0.463,0.494,0.706,0.734c34.381,34.022,89.832,33.911,124.076-0.332c23.021-23.021,30.591-55.62,22.76-84.965
					l11.759-11.759L379.645,194.652z"/>
			</g>
			<g>
				<path class="st3" d="M93.982,511.854c-23.883,0.002-47.76-9.008-65.988-27.046c-17.727-17.542-27.666-40.805-27.986-65.504
					c-0.32-24.705,9.019-48.212,26.296-66.19c22.884-23.811,56.569-33.786,88.639-26.461L326.706,114.89
					c-7.146-31.342,2.31-64.515,25.099-87.304c23.162-23.162,57.321-32.617,89.15-24.675c2.049,0.511,3.665,2.086,4.23,4.122
					c0.564,2.036-0.01,4.218-1.504,5.712L396.456,59.97c-7.435,7.435-11.529,17.319-11.529,27.833
					c0,10.514,4.094,20.399,11.529,27.833c7.434,7.435,17.319,11.529,27.833,11.529c10.514,0,20.399-4.094,27.833-11.529
					l47.226-47.226c1.494-1.494,3.677-2.068,5.712-1.504c2.036,0.564,3.61,2.18,4.121,4.23c7.942,31.828-1.513,65.988-24.675,89.15
					c-22.789,22.789-55.96,32.245-87.305,25.099L185.438,397.149c7.146,31.343-2.31,64.515-25.099,87.305
					C142.079,502.713,118.029,511.852,93.982,511.854z M94.021,336.018c-22.075,0-43.57,8.892-59.263,25.22
					c-15.129,15.742-23.306,36.31-23.026,57.914c0.28,21.601,8.984,41.959,24.51,57.322c32.009,31.674,83.96,31.536,115.807-0.311
					c20.647-20.647,28.786-51.035,21.241-79.308c-0.539-2.021,0.04-4.177,1.519-5.657l216.442-216.443
					c1.48-1.479,3.635-2.058,5.657-1.519c28.274,7.544,58.661-0.595,79.308-21.241c18.005-18.006,26.435-42.59,23.531-67.402
					l-39.333,39.333c-9.649,9.649-22.478,14.963-36.124,14.963c-13.646,0-26.475-5.314-36.124-14.963
					c-9.649-9.649-14.963-22.478-14.963-36.124c0-13.646,5.314-26.475,14.963-36.124l39.333-39.333
					c-24.814-2.904-49.396,5.525-67.402,23.531c-20.647,20.647-28.786,51.036-21.241,79.308c0.539,2.022-0.04,4.178-1.519,5.657
					l-57.101,57.101l0,0L120.894,337.284c-1.48,1.479-3.636,2.058-5.657,1.519C108.221,336.931,101.09,336.018,94.021,336.018z
					 M276.09,173.797h0.01H276.09z M105.759,486.552c-0.506,0-1.015-0.065-1.517-0.2l-58.644-15.714
					c-2.023-0.542-3.603-2.122-4.145-4.145L25.74,407.849c-0.542-2.023,0.036-4.182,1.517-5.663l42.93-42.93
					c1.481-1.481,3.639-2.06,5.662-1.517l58.644,15.714c2.023,0.542,3.603,2.122,4.145,4.145l15.714,58.644
					c0.542,2.023-0.036,4.182-1.517,5.662l-42.93,42.93C108.791,485.949,107.294,486.552,105.759,486.552z M51.902,460.19
					l52.105,13.962l38.144-38.144l-13.962-52.105l-52.105-13.962l-38.143,38.143L51.902,460.19z"/>
			</g>
		</g>
		<g>
			<g>
				<polygon class="st4" points="210.006,241.472 310.84,342.306 345.937,307.209 196.293,157.565 161.196,192.662 175.793,207.259 
									"/>
			</g>
			<g>
				
					<rect x="163.019" y="224.395" transform="matrix(-0.7071 -0.7071 0.7071 -0.7071 280.2639 577.9702)" class="st5" width="193.629" height="13.09"/>
			</g>
			<g>
				<path class="st5" d="M139.694,47.549l-0.386,0.386l-91.599,91.599l83.307,83.307l91.985-91.985l-17.356-17.356
					c-21.088-21.088-21.088-55.277,0-76.365l0,0L177.876,9.367L139.694,47.549z"/>
			</g>
			<g>
				<path class="st7" d="M205.645,37.136L205.645,37.136L178.262,9.753l-19.67,19.67l8.417,8.417
					c3.682,3.682,4.821,9.175,2.992,14.051c-9.383,25.016-2.882,48.566,3.574,63.068c3.543,7.958,8.577,15.16,14.736,21.319
					l14.248,14.248l20.055-20.055l-13.306-13.306l-3.664-3.664C184.558,92.413,184.558,58.224,205.645,37.136z"/>
			</g>
			<g>
				
					<rect x="41.925" y="150.628" transform="matrix(0.7071 -0.7071 0.7071 0.7071 -130.2927 104.5153)" class="st5" width="38.18" height="117.814"/>
			</g>
			<g>
				
					<rect x="71.824" y="149.181" transform="matrix(0.7071 -0.7071 0.7071 0.7071 -109.5292 113.5673)" class="st7" width="20.999" height="79.633"/>
			</g>
			<g>
				<path class="st3" d="M310.839,348.168c-1.555,0-3.046-0.618-4.145-1.717L157.05,196.807c-1.099-1.099-1.717-2.59-1.717-4.145
					c0-1.555,0.618-3.046,1.717-4.145l35.097-35.097c1.1-1.099,2.591-1.717,4.145-1.717s3.046,0.618,4.145,1.717l149.644,149.644
					c2.29,2.289,2.29,6.001,0,8.291l-35.097,35.097C313.886,347.551,312.394,348.168,310.839,348.168z M169.486,192.662l4.101,4.101
					l0,0l137.252,137.253l26.806-26.806L196.293,165.856L169.486,192.662z"/>
			</g>
			<g>
				<path class="st3" d="M89.17,270.55c-1.5,0-3.001-0.572-4.145-1.717L1.717,185.526c-2.289-2.29-2.289-6.001,0-8.291
					l26.998-26.998c2.289-2.29,6.002-2.29,8.291,0l83.307,83.307c2.29,2.29,2.29,6.001,0,8.291l-26.998,26.998
					C92.171,269.978,90.67,270.55,89.17,270.55z M14.153,181.38l75.016,75.016l18.707-18.707L32.86,162.674L14.153,181.38z"/>
			</g>
			<g>
				<path class="st3" d="M131.016,228.704c-1.5,0-3-0.572-4.145-1.717L43.564,143.68c-2.29-2.29-2.29-6.001,0-8.291L173.731,5.221
					c1.099-1.099,2.591-1.717,4.145-1.717c1.555,0,3.046,0.618,4.145,1.717l27.769,27.769c2.29,2.29,2.29,6.001,0,8.291
					c-18.768,18.768-18.768,49.306,0,68.074l17.356,17.356c1.099,1.1,1.717,2.591,1.717,4.145c0,1.555-0.618,3.046-1.717,4.145
					l-91.985,91.985C134.017,228.131,132.516,228.703,131.016,228.704z M56,139.534l75.016,75.016l83.694-83.694l-13.21-13.21
					c-21.941-21.941-23.254-56.817-3.944-80.309l-19.68-19.68l-34.037,34.037c-0.001,0-0.001,0.001-0.001,0.001L56,139.534z
					 M139.694,47.549h0.01H139.694z"/>
			</g>
			<g>
				<path class="st3" d="M103.054,230.439c-1.5,0-3.001-0.572-4.145-1.717l-56.31-56.309c-1.099-1.099-1.717-2.59-1.717-4.145
					c0-1.555,0.618-3.046,1.717-4.145l14.849-14.849c2.289-2.29,6.002-2.29,8.291,0l56.31,56.309c1.099,1.1,1.717,2.591,1.717,4.145
					c0,1.555-0.618,3.046-1.717,4.145L107.2,228.722C106.055,229.867,104.555,230.439,103.054,230.439z M55.035,168.267
					l48.019,48.019l6.558-6.558l-48.019-48.019L55.035,168.267z"/>
			</g>
			<g>
				<path class="st1" d="M497.744,479.373l-14.933,14.933c-11.166,11.166-29.438,11.166-40.605,0L308.483,360.583
					c-11.166-11.166-11.166-29.439,0-40.605l14.933-14.933c11.166-11.166,29.439-11.166,40.605,0l133.723,133.723
					C508.911,449.935,508.911,468.207,497.744,479.373z"/>
			</g>
			<g>
				<path class="st2" d="M497.744,438.768L364.021,305.045c-11.166-11.166-29.439-11.166-40.605,0l-0.139,0.139l174.328,174.328
					l0.139-0.139C508.911,468.207,508.911,449.935,497.744,438.768z"/>
			</g>
			<g>
				<path class="st3" d="M462.508,508.543c-9.258,0-17.94-3.584-24.448-10.092L304.338,364.729c-13.48-13.481-13.48-35.415,0-48.895
					l14.934-14.933c6.508-6.508,15.19-10.092,24.448-10.092c9.258,0,17.94,3.584,24.448,10.092L501.89,434.623
					c13.48,13.481,13.48,35.415,0,48.896l-14.933,14.933C480.449,504.959,471.766,508.543,462.508,508.543z M343.719,302.533
					c-6.126,0-11.864,2.364-16.157,6.658l-14.934,14.933c-8.909,8.909-8.909,23.405,0,32.314l133.723,133.723
					c4.293,4.293,10.031,6.658,16.157,6.658c6.126,0,11.864-2.364,16.157-6.658l14.933-14.933c8.909-8.909,8.909-23.405,0-32.314
					L359.876,309.191C355.583,304.897,349.845,302.533,343.719,302.533z"/>
			</g>
		</g>
	</g>
</g>
</svg>
