<?xml version="1.0" encoding="utf-8"?>
<!-- Generator: Adobe Illustrator 18.0.0, SVG Export Plug-In . SVG Version: 6.00 Build 0)  -->
<!DOCTYPE svg PUBLIC "-//W3C//DTD SVG 1.1//EN" "http://www.w3.org/Graphics/SVG/1.1/DTD/svg11.dtd">
<svg version="1.1" id="Icon_Set" xmlns="http://www.w3.org/2000/svg" xmlns:xlink="http://www.w3.org/1999/xlink" x="0px" y="0px"
	 viewBox="0 0 512 512" style="enable-background:new 0 0 512 512;" xml:space="preserve">
<style type="text/css">
	.st0{fill:#F0C48A;}
	.st1{fill:#FD919E;}
	.st2{fill:#E8677D;}
	.st3{fill:#4C4372;}
	.st4{fill:#D3E6F8;}
	.st5{fill:#A4CFF2;}
	.st6{fill:#FFFFFF;}
	.st7{fill:#7BABF1;}
</style>
<g>
	<circle class="st0" cx="256" cy="256" r="207"/>
	<g>
		<g>
			<g>
				<path class="st5" d="M463.823,446.503L463.823,446.503l-42.311-79.245V91.365c0-14.172,11.489-25.66,25.66-25.66h33.301
					c14.172,0,25.66,11.489,25.66,25.66v275.892L463.823,446.503z"/>
			</g>
			<g>
				<polygon class="st7" points="480.746,366.456 463.823,398.643 442.073,398.643 438.922,401.209 463.968,446.398 
					506.406,367.443 				"/>
			</g>
			<g>
				<rect x="480.746" y="134.525" class="st7" width="25.66" height="231.931"/>
			</g>
			<g>
				<path class="st1" d="M504.149,135.518h-82.667l0.03-37.85c0-21.402,15.365-32.123,36.767-32.123h7.118
					c29.694,0.16,38.752,15.395,38.752,36.797V135.518z"/>
			</g>
			<g>
				<path class="st2" d="M506.406,135.512h-25.661V65.439l0,0c14.172,0,25.661,11.489,25.661,25.66V135.512z"/>
			</g>
			<g>
				<path class="st3" d="M506.134,140.985h-84.622c-3.239,0-5.866-2.626-5.866-5.866c0-3.24,2.626-5.866,5.866-5.866h84.622
					c3.239,0,5.866,2.626,5.866,5.866C512,138.359,509.374,140.985,506.134,140.985z"/>
			</g>
			<g>
				<path class="st3" d="M506.134,371.978h-84.622c-3.239,0-5.866-2.626-5.866-5.866c0-3.24,2.626-5.866,5.866-5.866h84.622
					c3.239,0,5.866,2.626,5.866,5.866C512,369.352,509.374,371.978,506.134,371.978z"/>
			</g>
			<g>
				<path class="st3" d="M488.724,404.508h-49.802c-3.239,0-5.866-2.626-5.866-5.866c0-3.239,2.626-5.866,5.866-5.866h49.802
					c3.239,0,5.866,2.626,5.866,5.866C494.59,401.882,491.964,404.508,488.724,404.508z"/>
			</g>
			<g>
				<path class="st3" d="M463.824,371.978c-3.239,0-5.866-2.626-5.866-5.866V135.119c0-3.24,2.626-5.866,5.866-5.866
					c3.239,0,5.866,2.626,5.866,5.866v230.993C469.689,369.352,467.063,371.978,463.824,371.978z"/>
			</g>
			<g>
				<path class="st3" d="M463.824,452.368c-2.165,0-4.155-1.193-5.175-3.103l-42.312-79.245c-0.453-0.85-0.691-1.799-0.691-2.763
					V91.365c0-17.383,14.143-31.526,31.526-31.526h33.301c17.383,0,31.526,14.143,31.526,31.526v275.892
					c0,0.964-0.238,1.912-0.691,2.763l-42.311,79.245C467.978,451.175,465.989,452.368,463.824,452.368z M427.378,365.789
					l36.446,68.259l36.445-68.259V91.365c0-10.915-8.88-19.795-19.795-19.795h-33.301c-10.915,0-19.795,8.88-19.795,19.795V365.789z
					"/>
			</g>
		</g>
		<g>
			<g>
				<path class="st5" d="M5.882,119.512l-0.016-13.517C5.84,83.415,24.292,64.919,46.872,64.893l300.455-0.35
					c22.58-0.026,41.076,18.427,41.102,41.007l0.35,300.455c0.026,22.58-18.427,41.076-41.007,41.102l-300.455,0.35
					c-22.58,0.026-41.076-18.427-41.102-41.007L5.933,163.739L5.882,119.512z"/>
			</g>
			<g>
				<path class="st7" d="M362.217,67.347v377.095c12.325-4.689,21.855-15.158,25.232-28.052V96.733
					C384.459,83.289,374.831,72.281,362.217,67.347z"/>
			</g>
			<g>
				<path class="st4" d="M103.029,239.749l-39.838,0.046c-16.812,0.02-30.584-13.72-30.603-30.532l-0.102-87.947
					c-0.02-16.812,13.72-30.584,30.532-30.603l87.947-0.102c16.812-0.02,30.584,13.72,30.603,30.532l0.102,87.947
					c0.02,16.812-13.72,30.584-30.532,30.603l-4.131,0.005L103.029,239.749z"/>
			</g>
			<g>
				<path class="st5" d="M156.93,90.161v148.282c13.378-2.155,23.913-13.069,25.504-26.615V117.79
					C181.273,103.798,170.591,92.41,156.93,90.161z"/>
			</g>
			<g>
				<path class="st3" d="M107.392,197.528c-3.239,0-5.866-2.626-5.866-5.866V136.73c0-3.24,2.626-5.866,5.866-5.866
					c3.239,0,5.866,2.626,5.866,5.866v54.932C113.258,194.902,110.631,197.528,107.392,197.528z"/>
			</g>
			<g>
				<path class="st3" d="M134.859,170.061H79.926c-3.239,0-5.866-2.626-5.866-5.866c0-3.24,2.626-5.866,5.866-5.866h54.933
					c3.239,0,5.866,2.626,5.866,5.866C140.725,167.435,138.098,170.061,134.859,170.061z"/>
			</g>
			<g>
				<g>
					<path class="st4" d="M103.029,421.343l-39.838,0.046c-16.812,0.02-30.584-13.72-30.603-30.532l-0.102-87.947
						c-0.02-16.812,13.72-30.584,30.532-30.603l87.947-0.102c16.812-0.02,30.584,13.72,30.603,30.532l0.102,87.947
						c0.02,16.812-13.72,30.584-30.532,30.603l-4.131,0.005L103.029,421.343z"/>
				</g>
				<g>
					<path class="st5" d="M156.93,272.615v148.282c13.378-2.155,23.913-13.069,25.504-26.615v-94.037
						C181.273,286.252,170.591,274.864,156.93,272.615z"/>
				</g>
				<g>
					<path class="st3" d="M87.97,371.937c-1.501,0-3.002-0.573-4.147-1.718c-2.291-2.291-2.291-6.005,0-8.295l38.843-38.843
						c2.289-2.291,6.005-2.291,8.294,0c2.291,2.291,2.291,6.005,0,8.296l-38.843,38.843
						C90.973,371.364,89.471,371.937,87.97,371.937z"/>
				</g>
				<g>
					<path class="st3" d="M126.814,371.937c-1.501,0-3.003-0.573-4.147-1.718l-38.843-38.843c-2.291-2.291-2.291-6.005,0-8.296
						c2.289-2.291,6.005-2.291,8.295,0l38.843,38.843c2.291,2.291,2.291,6.005,0,8.295
						C129.816,371.364,128.314,371.937,126.814,371.937z"/>
				</g>
				<g>
					<path class="st3" d="M63.154,427.255c-9.683,0-18.81-3.787-25.705-10.667c-6.906-6.89-10.716-16.026-10.727-25.724
						l-0.102-87.947c-0.011-9.698,3.777-18.842,10.667-25.749c6.89-6.906,16.026-10.716,25.723-10.727l87.948-0.102
						c0.013,0,0.03,0,0.043,0c20.071,0,36.409,16.315,36.432,36.391l0.102,87.947c0.012,9.698-3.777,18.842-10.667,25.748
						c-6.89,6.906-16.026,10.716-25.724,10.727l-87.947,0.102C63.182,427.255,63.168,427.255,63.154,427.255z M151,278.07
						c-0.011,0-0.019,0-0.03,0l-87.947,0.102c-6.564,0.008-12.755,2.593-17.432,7.281c-4.677,4.688-7.248,10.885-7.24,17.449
						l0.102,87.947c0.008,6.565,2.593,12.755,7.281,17.432c4.68,4.67,10.867,7.241,17.42,7.241c0.01,0,0.019,0,0.03,0l39.838-0.047
						l0,0l48.11-0.056c6.564-0.008,12.755-2.594,17.432-7.281c4.677-4.688,7.248-10.885,7.24-17.449l-0.102-87.948
						C175.685,289.133,164.607,278.07,151,278.07z"/>
				</g>
			</g>
			<g>
				<g>
					<path class="st4" d="M283.52,239.749l-39.838,0.046c-16.812,0.02-30.584-13.72-30.603-30.532l-0.102-87.947
						c-0.02-16.812,13.72-30.584,30.532-30.603l87.947-0.102c16.812-0.02,30.584,13.72,30.603,30.532l0.102,87.947
						c0.02,16.812-13.72,30.584-30.532,30.603l-4.131,0.005L283.52,239.749z"/>
				</g>
				<g>
					<path class="st5" d="M336.44,90.161v148.282c13.378-2.155,23.913-13.069,25.504-26.615V117.79
						C360.784,103.798,350.102,92.41,336.44,90.161z"/>
				</g>
				<g>
					<path class="st3" d="M315.351,170.061h-54.933c-3.239,0-5.866-2.626-5.866-5.866c0-3.24,2.626-5.866,5.866-5.866h54.933
						c3.239,0,5.866,2.626,5.866,5.866C321.216,167.435,318.59,170.061,315.351,170.061z"/>
				</g>
				<g>
					<path class="st3" d="M243.646,245.661c-9.683,0-18.81-3.787-25.705-10.667c-6.906-6.89-10.716-16.026-10.727-25.724
						l-0.102-87.947c-0.012-9.698,3.777-18.842,10.667-25.748c6.89-6.906,16.026-10.716,25.724-10.727l87.948-0.102
						c0.013,0,0.03,0,0.043,0c20.071,0,36.409,16.315,36.432,36.391l0.102,87.947c0.011,9.698-3.777,18.842-10.667,25.749
						c-6.89,6.906-16.026,10.716-25.724,10.727l-87.948,0.102C243.674,245.661,243.66,245.661,243.646,245.661z M283.52,239.749
						h0.009H283.52z M331.492,96.477c-0.01,0-0.019,0-0.03,0l-87.947,0.102c-6.565,0.008-12.755,2.593-17.432,7.281
						c-4.677,4.688-7.248,10.885-7.24,17.449l0.102,87.947c0.008,6.565,2.593,12.755,7.282,17.432
						c4.68,4.67,10.866,7.241,17.419,7.241c0.011,0,0.019,0,0.03,0l87.948-0.102c6.564-0.008,12.755-2.594,17.432-7.281
						c4.677-4.688,7.248-10.885,7.241-17.449l-0.102-87.947C356.177,107.539,345.098,96.477,331.492,96.477z"/>
				</g>
			</g>
			<g>
				<g>
					<path class="st1" d="M283.52,421.343l-39.838,0.046c-16.812,0.02-30.584-13.72-30.603-30.532l-0.102-87.947
						c-0.02-16.812,13.72-30.584,30.532-30.603l87.947-0.102c16.812-0.02,30.584,13.72,30.603,30.532l0.102,87.947
						c0.02,16.812-13.72,30.584-30.532,30.603l-4.131,0.005L283.52,421.343z"/>
				</g>
				<g>
					<path class="st2" d="M336.44,272.615v148.282c13.378-2.155,23.913-13.069,25.504-26.615v-94.037
						C360.784,286.252,350.102,274.864,336.44,272.615z"/>
				</g>
				<g>
					<path class="st3" d="M315.351,343.687h-54.933c-3.239,0-5.866-2.626-5.866-5.866c0-3.24,2.626-5.866,5.866-5.866h54.933
						c3.239,0,5.866,2.626,5.866,5.866C321.216,341.061,318.59,343.687,315.351,343.687z"/>
				</g>
				<g>
					<path class="st3" d="M315.351,362.325h-54.933c-3.239,0-5.866-2.626-5.866-5.866c0-3.24,2.626-5.866,5.866-5.866h54.933
						c3.239,0,5.866,2.626,5.866,5.866C321.216,359.698,318.59,362.325,315.351,362.325z"/>
				</g>
				<g>
					<path class="st3" d="M243.646,427.255c-9.683,0-18.81-3.787-25.705-10.667c-6.906-6.89-10.716-16.026-10.727-25.724
						l-0.102-87.947c-0.012-9.698,3.777-18.842,10.667-25.749c6.89-6.906,16.026-10.716,25.724-10.727l87.948-0.102
						c0.013,0,0.03,0,0.043,0c20.071,0,36.409,16.315,36.432,36.391l0.102,87.947c0.011,9.698-3.777,18.842-10.667,25.748
						c-6.89,6.906-16.026,10.716-25.724,10.727l-87.948,0.102C243.674,427.255,243.66,427.255,243.646,427.255z M331.492,278.07
						c-0.01,0-0.019,0-0.03,0l-87.947,0.102c-6.565,0.008-12.755,2.593-17.432,7.281c-4.677,4.688-7.248,10.885-7.24,17.449
						l0.102,87.947c0.008,6.565,2.593,12.755,7.282,17.432c4.68,4.67,10.866,7.241,17.419,7.241c0.011,0,0.019,0,0.03,0
						l39.838-0.047l0,0l48.109-0.056c6.564-0.008,12.755-2.594,17.432-7.281c4.677-4.688,7.248-10.885,7.241-17.449l-0.102-87.948
						C356.177,289.133,345.098,278.07,331.492,278.07z"/>
				</g>
			</g>
			<g>
				<path class="st3" d="M47.269,453.323c-12.468,0-24.221-4.878-33.103-13.739c-8.896-8.874-13.802-20.639-13.816-33.126
					L0.016,119.519v0L0,106.002c-0.014-12.488,4.864-24.264,13.739-33.159c8.874-8.895,20.639-13.802,33.126-13.816l300.455-0.35
					c0.018,0,0.037,0,0.055,0c12.467,0,24.221,4.878,33.102,13.739c8.896,8.874,13.802,20.639,13.816,33.126l0.35,300.455
					c0.03,25.872-20.995,46.945-46.866,46.975l-300.454,0.35C47.307,453.323,47.288,453.323,47.269,453.323z M347.376,70.409
					c-0.014,0-0.028,0-0.042,0l-300.455,0.35c-9.353,0.011-18.174,3.694-24.835,10.371c-6.661,6.677-10.324,15.505-10.313,24.859
					l0.016,13.517v0l0.334,286.938c0.01,9.354,3.694,18.174,10.37,24.835c6.667,6.651,15.48,10.313,24.818,10.313
					c0.014,0,0.028,0,0.042,0l300.454-0.35c19.404-0.022,35.17-15.827,35.148-35.23l-0.35-300.455
					c-0.01-9.354-3.694-18.174-10.37-24.835C365.527,74.071,356.714,70.409,347.376,70.409z"/>
			</g>
			<g>
				<path class="st3" d="M63.154,245.661c-9.683,0-18.81-3.787-25.705-10.667c-6.906-6.89-10.716-16.026-10.727-25.724
					l-0.102-87.947c-0.011-9.698,3.777-18.842,10.667-25.748c6.89-6.906,16.026-10.716,25.723-10.727l87.948-0.102
					c0.013,0,0.03,0,0.043,0c20.071,0,36.409,16.315,36.432,36.391l0.102,87.947c0.012,9.698-3.777,18.842-10.667,25.749
					c-6.89,6.906-16.026,10.716-25.724,10.727l-87.947,0.102C63.182,245.661,63.168,245.661,63.154,245.661z M103.028,239.749h0.01
					H103.028z M151,96.477c-0.011,0-0.019,0-0.03,0l-87.947,0.102c-6.564,0.008-12.755,2.593-17.432,7.281
					c-4.677,4.688-7.248,10.885-7.24,17.449l0.102,87.947c0.008,6.565,2.593,12.755,7.281,17.432
					c4.687,4.677,10.876,7.246,17.449,7.241l87.947-0.102c6.564-0.008,12.755-2.594,17.432-7.281s7.248-10.885,7.24-17.449
					l-0.102-87.947C175.685,107.539,164.607,96.477,151,96.477z"/>
			</g>
		</g>
	</g>
</g>
</svg>
