<?xml version="1.0" encoding="utf-8"?>
<!-- Generator: Adobe Illustrator 18.0.0, SVG Export Plug-In . SVG Version: 6.00 Build 0)  -->
<!DOCTYPE svg PUBLIC "-//W3C//DTD SVG 1.1//EN" "http://www.w3.org/Graphics/SVG/1.1/DTD/svg11.dtd">
<svg version="1.1" id="Icon_Set" xmlns="http://www.w3.org/2000/svg" xmlns:xlink="http://www.w3.org/1999/xlink" x="0px" y="0px"
	 viewBox="0 0 512 512" style="enable-background:new 0 0 512 512;" xml:space="preserve">
<style type="text/css">
	.st0{fill:#F0C48A;}
	.st1{fill:#FD919E;}
	.st2{fill:#E8677D;}
	.st3{fill:#4C4372;}
	.st4{fill:#D3E6F8;}
	.st5{fill:#A4CFF2;}
	.st6{fill:#FFFFFF;}
	.st7{fill:#7BABF1;}
</style>
<g>
	<circle class="st0" cx="256" cy="256" r="207"/>
	<g>
		<g>
			<g>
				<polygon class="st1" points="235.586,214.782 51.54,214.782 143.563,110.661 235.586,6.54 327.61,110.661 419.633,214.782 				
					"/>
			</g>
		</g>
		<g>
			<polygon class="st2" points="327.563,110.798 235.54,6.637 220.678,23.771 365.417,191 73.491,191 51.494,215 235.54,215 
				386.683,215 419.587,215 			"/>
		</g>
		<g>
			<polygon class="st1" points="142.762,110.717 145,108.233 145,64 93,64 93,166.973 			"/>
		</g>
		<g>
			<polygon class="st2" points="142.586,110.717 145,108.321 145,64 125,64 125,130.28 			"/>
		</g>
		<g>
			<g>
				<rect x="93.844" y="214.782" class="st4" width="283.485" height="209.912"/>
			</g>
		</g>
		<g>
			<rect x="124.994" y="285.507" class="st1" width="85.896" height="139.187"/>
		</g>
		<g>
			<rect x="349" y="215" class="st5" width="28" height="210"/>
		</g>
		<g>
			<g>
				<rect x="239.716" y="285.507" class="st6" width="106.462" height="67.884"/>
			</g>
		</g>
		<g>
			<g>
				<rect x="329.945" y="285.507" class="st4" width="16.233" height="67.884"/>
			</g>
		</g>
		<g>
			<g>
				<rect x="276.714" y="285.507" class="st4" width="16.233" height="67.884"/>
			</g>
		</g>
		<g>
			<g>
				<rect x="93.844" y="424.695" class="st7" width="283.485" height="23.615"/>
			</g>
		</g>
		<g>
			<g>
				<path class="st3" d="M377.329,430.553H93.844c-3.235,0-5.859-2.623-5.859-5.859V214.782c0-3.236,2.623-5.859,5.859-5.859
					h283.485c3.236,0,5.859,2.623,5.859,5.859v209.913C383.188,427.93,380.564,430.553,377.329,430.553z M99.703,418.835H371.47
					V220.64H99.703V418.835z"/>
			</g>
		</g>
		<g>
			<path class="st3" d="M210.89,430.553h-85.896c-3.236,0-5.859-2.623-5.859-5.859V285.507c0-3.236,2.623-5.859,5.859-5.859h85.896
				c3.236,0,5.859,2.623,5.859,5.859v139.187C216.749,427.93,214.126,430.553,210.89,430.553z M130.853,418.835h74.178v-127.47
				h-74.178V418.835z"/>
		</g>
		<g>
			<g>
				<path class="st3" d="M419.652,220.64c-0.008,0-0.013-0.001-0.02,0H51.54c-2.304,0-4.395-1.35-5.341-3.451
					c-0.947-2.101-0.575-4.561,0.951-6.288L231.197,2.661c1.112-1.258,2.711-1.979,4.39-1.979c1.679,0,3.278,0.721,4.39,1.979
					l183.781,207.941c1.082,1.063,1.754,2.543,1.754,4.18C425.511,218.017,422.888,220.64,419.652,220.64z M64.537,208.923h342.098
					L235.586,15.388L64.537,208.923z"/>
			</g>
		</g>
		<g>
			<g>
				<path class="st3" d="M346.178,359.25H239.716c-3.236,0-5.859-2.623-5.859-5.859v-67.884c0-3.236,2.623-5.859,5.859-5.859
					h106.462c3.236,0,5.859,2.623,5.859,5.859v67.884C352.037,356.627,349.414,359.25,346.178,359.25z M245.575,347.532h94.744
					v-56.167h-94.744V347.532z"/>
			</g>
		</g>
		<g>
			<g>
				<path class="st3" d="M377.329,454.168H93.844c-3.235,0-5.859-2.623-5.859-5.859v-23.614c0-3.236,2.623-5.859,5.859-5.859
					h283.485c3.236,0,5.859,2.623,5.859,5.859v23.614C383.188,451.544,380.564,454.168,377.329,454.168z M99.703,442.45H371.47
					v-11.897H99.703V442.45z"/>
			</g>
		</g>
		<g>
			<path class="st3" d="M92.906,172.832c-0.694,0-1.92-0.123-2.595-0.379c-2.279-0.862-4.311-3.044-4.311-5.48V64.667
				C86,61.431,89.671,59,92.907,59h51.753c3.236,0,4.34,2.431,4.34,5.667v43.566c0,1.391,0.264,2.738-0.638,3.797l-1.734,2.484
				c-0.023,0.027,0.144,0.053,0.121,0.079l-49.544,56.256C96.071,172.135,94.555,172.832,92.906,172.832z M98,71v80.478
				l39.335-44.598l0.665-0.803V71H98z"/>
		</g>
		<g>
			<path class="st3" d="M398.541,197H73.378c-3.236,0-5.859-2.764-5.859-6s2.623-6,5.859-6h325.163c3.236,0,5.859,2.764,5.859,6
				S401.777,197,398.541,197z"/>
		</g>
		<g>
			<path class="st3" d="M292,358.583c-3.236,0-6-2.623-6-5.859v-66.4c0-3.236,2.764-5.859,6-5.859s6,2.623,6,5.859v66.4
				C298,355.96,295.236,358.583,292,358.583z"/>
		</g>
		<g>
			<path class="st3" d="M114.096,512.108c-1.39,0-2.785-0.491-3.902-1.49l-20.171-18.028c-1.243-1.111-1.954-2.699-1.954-4.367
				c0-1.667,0.709-3.255,1.951-4.367l20.142-18.028c2.412-2.156,6.115-1.954,8.273,0.458c2.158,2.412,1.953,6.115-0.458,8.273
				l-15.261,13.66l15.287,13.663c2.413,2.156,2.62,5.86,0.464,8.272C117.309,511.448,115.706,512.108,114.096,512.108z"/>
		</g>
		<g>
			<path class="st3" d="M356.472,512.108c-1.609,0-3.21-0.658-4.367-1.951c-2.158-2.412-1.953-6.115,0.458-8.273l15.261-13.66
				l-15.287-13.663c-2.412-2.156-2.62-5.86-0.464-8.272c2.156-2.413,5.86-2.621,8.273-0.464l20.171,18.028
				c1.243,1.111,1.954,2.699,1.954,4.366c0.001,1.667-0.709,3.255-1.951,4.367l-20.142,18.028
				C359.26,511.615,357.864,512.108,356.472,512.108z"/>
		</g>
		<g>
			<path class="st3" d="M370.06,494H96.883c-3.236,0-5.859-2.264-5.859-5.5s2.623-5.5,5.859-5.5H370.06
				c3.236,0,5.859,2.264,5.859,5.5S373.296,494,370.06,494z"/>
		</g>
		<g>
			<path class="st3" d="M442.432,459c-1.666,0-3.254-0.44-4.366-1.682l-18.028-20.007c-2.158-2.412-1.953-6.048,0.458-8.206
				c2.411-2.156,6.115-1.919,8.273,0.491l13.66,15.278l13.663-15.278c2.156-2.413,5.86-2.617,8.273-0.46
				c2.413,2.156,2.62,5.862,0.464,8.274L446.8,457.314c-1.111,1.243-2.699,1.686-4.366,1.686C442.433,459,442.432,459,442.432,459z"
				/>
		</g>
		<g>
			<path class="st3" d="M424.402,32.57c-1.39,0-2.784-0.491-3.902-1.49c-2.413-2.156-2.62-5.86-0.464-8.272l18.028-20.512
				C439.174,1.052,440.763,0,442.43,0c0,0,0.001,0,0.002,0c1.666,0,3.254,1.05,4.366,2.292l18.028,20.312
				c2.158,2.412,1.953,6.201-0.458,8.358c-2.41,2.157-6.114,1.997-8.273-0.415l-13.66-15.24l-13.663,15.298
				C427.615,31.9,426.011,32.57,424.402,32.57z"/>
		</g>
		<g>
			<path class="st3" d="M441.5,455.137c-3.236,0-5.5-2.623-5.5-5.859V16.077c0-3.235,2.264-5.859,5.5-5.859s5.5,2.623,5.5,5.859
				v433.201C447,452.514,444.736,455.137,441.5,455.137z"/>
		</g>
	</g>
</g>
</svg>
