<?xml version="1.0" encoding="utf-8"?>
<!-- Generator: Adobe Illustrator 18.0.0, SVG Export Plug-In . SVG Version: 6.00 Build 0)  -->
<!DOCTYPE svg PUBLIC "-//W3C//DTD SVG 1.1//EN" "http://www.w3.org/Graphics/SVG/1.1/DTD/svg11.dtd">
<svg version="1.1" id="Icon_Set" xmlns="http://www.w3.org/2000/svg" xmlns:xlink="http://www.w3.org/1999/xlink" x="0px" y="0px"
	 viewBox="0 0 512 512" style="enable-background:new 0 0 512 512;" xml:space="preserve">
<style type="text/css">
	.st0{fill:#F0C48A;}
	.st1{fill:#FD919E;}
	.st2{fill:#E8677D;}
	.st3{fill:#4C4372;}
	.st4{fill:#D3E6F8;}
	.st5{fill:#A4CFF2;}
	.st6{fill:#FFFFFF;}
	.st7{fill:#7BABF1;}
</style>
<g>
	<circle class="st0" cx="256" cy="256" r="207"/>
	<g>
		<g>
			<rect x="5.863" y="287.024" class="st4" width="498.021" height="72.626"/>
		</g>
		<g>
			<rect x="5.863" y="358.099" class="st1" width="498.021" height="72.625"/>
		</g>
		<g>
			<rect x="6.48" y="397.894" class="st2" width="497.471" height="26.252"/>
		</g>
		<g>
			<rect x="6.48" y="331.566" class="st5" width="497.471" height="26.252"/>
		</g>
		<g>
			<rect x="374.696" y="76.989" class="st1" width="46.86" height="19.912"/>
		</g>
		<g>
			<rect x="374.696" y="227.577" class="st1" width="46.86" height="59.447"/>
		</g>
		<g>
			<rect x="400.002" y="228.243" class="st2" width="17.94" height="56.274"/>
		</g>
		<g>
			<rect x="400.002" y="76.989" class="st2" width="17.94" height="19.912"/>
		</g>
		<g>
			<rect x="5.863" y="432.105" class="st7" width="498.021" height="72.626"/>
		</g>
		<g>
			<rect x="389.6" y="96.9" class="st6" width="17.05" height="130.677"/>
		</g>
		<g>
			<polygon class="st4" points="160.796,266.284 90.445,266.284 90.445,200.147 129.529,152.484 160.796,152.484 			"/>
		</g>
		<g>
			<rect x="160.796" y="241.954" class="st4" width="152.575" height="24.33"/>
		</g>
		<g>
			<path class="st3" d="M160.797,272.147H90.445c-3.238,0-5.863-2.625-5.863-5.863v-66.137c0-1.355,0.469-2.669,1.329-3.717
				l39.084-47.664c1.114-1.358,2.778-2.145,4.533-2.145h31.268c3.238,0,5.863,2.625,5.863,5.863v113.8
				C166.659,269.522,164.034,272.147,160.797,272.147z M96.307,260.421h58.627V158.346h-22.632l-35.995,43.897V260.421z"/>
		</g>
		<g>
			<path class="st3" d="M160.797,247.574H90.445c-3.238,0-5.863-2.625-5.863-5.863c0-3.238,2.625-5.863,5.863-5.863h70.352
				c3.238,0,5.863,2.625,5.863,5.863C166.659,244.949,164.034,247.574,160.797,247.574z"/>
		</g>
		<g>
			<path class="st3" d="M313.372,272.147H160.797c-3.238,0-5.863-2.625-5.863-5.863v-24.33c0-3.238,2.625-5.863,5.863-5.863h152.575
				c3.238,0,5.863,2.625,5.863,5.863v24.33C319.235,269.522,316.61,272.147,313.372,272.147z M166.659,260.421h140.85v-12.605
				h-140.85V260.421z"/>
		</g>
		<g>
			<path class="st3" d="M288.657,247.574c-3.238,0-5.863-2.625-5.863-5.863V82.851h-22.951l-37.801,159.247
				c-0.749,3.151-3.913,5.095-7.058,4.35c-3.151-0.748-5.098-3.908-4.35-7.058l38.872-163.755c0.628-2.643,2.988-4.508,5.704-4.508
				h33.448c3.238,0,5.863,2.625,5.863,5.863v164.722C294.52,244.949,291.895,247.574,288.657,247.574z"/>
		</g>
		<g>
			<circle class="st7" cx="138.14" cy="264.367" r="22.657"/>
		</g>
		<g>
			<circle class="st7" cx="244.593" cy="264.367" r="22.657"/>
		</g>
		<g>
			<circle class="st7" cx="292.065" cy="264.367" r="22.657"/>
		</g>
		<g>
			<path class="st3" d="M506.137,512H5.863C2.625,512,0,509.375,0,506.137V287.024c0-3.238,2.625-5.863,5.863-5.863h500.275
				c3.238,0,5.863,2.625,5.863,5.863v219.113C512,509.375,509.375,512,506.137,512z M11.725,500.275h488.55V292.887H11.725V500.275z
				"/>
		</g>
		<g>
			<path class="st3" d="M506.137,365.979H5.863c-3.238,0-5.863-2.625-5.863-5.863c0-3.238,2.625-5.863,5.863-5.863h500.275
				c3.238,0,5.863,2.625,5.863,5.863C512,363.354,509.375,365.979,506.137,365.979z"/>
		</g>
		<g>
			<path class="st3" d="M506.137,433.988H5.863c-3.238,0-5.863-2.625-5.863-5.863c0-3.238,2.625-5.863,5.863-5.863h500.275
				c3.238,0,5.863,2.625,5.863,5.863C512,431.363,509.375,433.988,506.137,433.988z"/>
		</g>
		<g>
			<g>
				<path class="st3" d="M6.985,392.39c-1.501,0-3.001-0.572-4.145-1.717c-2.29-2.29-2.29-6.001,0-8.291l24.666-24.666
					c2.288-2.29,6.002-2.289,8.29,0c2.29,2.29,2.29,6.001,0,8.291L11.13,390.673C9.986,391.818,8.485,392.39,6.985,392.39z"/>
			</g>
			<g>
				<path class="st3" d="M8.116,433.988c-1.501,0-3.001-0.572-4.145-1.717c-2.29-2.29-2.29-6.001,0-8.291l66.896-66.896
					c2.289-2.29,6.003-2.29,8.29,0c2.29,2.29,2.29,6.001,0,8.291l-66.896,66.896C11.117,433.416,9.616,433.988,8.116,433.988z"/>
			</g>
			<g>
				<path class="st3" d="M50.845,433.988c-1.5,0-3.001-0.573-4.145-1.717c-2.29-2.29-2.29-6.001,0-8.291l66.263-66.263
					c2.288-2.289,6.002-2.289,8.29,0c2.29,2.29,2.29,6.001,0,8.291l-66.263,66.263C53.846,433.416,52.345,433.988,50.845,433.988z"
					/>
			</g>
			<g>
				<path class="st3" d="M93.574,433.988c-1.501,0-3.001-0.572-4.145-1.717c-2.29-2.29-2.29-6.001,0-8.291l66.896-66.896
					c2.288-2.29,6.002-2.29,8.29,0c2.29,2.29,2.29,6.001,0,8.291L97.72,432.271C96.575,433.416,95.074,433.988,93.574,433.988z"/>
			</g>
			<g>
				<path class="st3" d="M136.303,433.988c-1.501,0-3.001-0.572-4.145-1.717c-2.29-2.29-2.29-6.001,0-8.291l66.896-66.896
					c2.289-2.29,6.003-2.29,8.29,0c2.29,2.29,2.29,6.001,0,8.291l-66.896,66.896C139.304,433.416,137.803,433.988,136.303,433.988z"
					/>
			</g>
			<g>
				<path class="st3" d="M179.032,433.988c-1.501,0-3.001-0.572-4.145-1.717c-2.29-2.29-2.29-6.001,0-8.291l66.896-66.896
					c2.289-2.29,6.003-2.29,8.29,0c2.29,2.29,2.29,6.001,0,8.291l-66.896,66.896C182.033,433.416,180.532,433.988,179.032,433.988z"
					/>
			</g>
			<g>
				<path class="st3" d="M221.762,433.988c-1.5,0-3.001-0.573-4.145-1.717c-2.29-2.29-2.29-6.001,0-8.291l66.895-66.896
					c2.288-2.289,6.002-2.289,8.29,0c2.29,2.29,2.29,6.001,0,8.291l-66.895,66.896C224.763,433.416,223.262,433.988,221.762,433.988
					z"/>
			</g>
			<g>
				<path class="st3" d="M264.491,433.988c-1.5,0-3.001-0.573-4.145-1.717c-2.29-2.29-2.29-6.001,0-8.291l66.895-66.896
					c2.288-2.289,6.002-2.289,8.29,0c2.29,2.29,2.29,6.001,0,8.291l-66.895,66.896C267.492,433.416,265.991,433.988,264.491,433.988
					z"/>
			</g>
			<g>
				<path class="st3" d="M307.22,433.988c-1.5,0-3.001-0.573-4.145-1.717c-2.29-2.29-2.29-6.001,0-8.291l66.483-66.483
					c2.288-2.289,6.002-2.289,8.29,0c2.29,2.29,2.29,6.001,0,8.291l-66.483,66.483C310.221,433.416,308.72,433.988,307.22,433.988z"
					/>
			</g>
			<g>
				<path class="st3" d="M349.949,433.988c-1.5,0-3.001-0.573-4.145-1.717c-2.29-2.29-2.29-6.001,0-8.291l66.895-66.896
					c2.288-2.289,6.002-2.289,8.29,0c2.29,2.29,2.29,6.001,0,8.291l-66.895,66.896C352.95,433.416,351.449,433.988,349.949,433.988z
					"/>
			</g>
			<g>
				<path class="st3" d="M392.678,433.988c-1.501,0-3.001-0.572-4.145-1.717c-2.29-2.29-2.29-6.001,0-8.291l66.896-66.896
					c2.289-2.29,6.003-2.29,8.29,0c2.29,2.29,2.29,6.001,0,8.291l-66.896,66.896C395.679,433.416,394.178,433.988,392.678,433.988z"
					/>
			</g>
			<g>
				<path class="st3" d="M435.407,433.988c-1.5,0-3.001-0.573-4.145-1.717c-2.29-2.29-2.29-6.001,0-8.291l68.476-68.476
					c2.288-2.289,6.002-2.289,8.29,0c2.29,2.29,2.29,6.001,0,8.291l-68.476,68.476C438.408,433.416,436.907,433.988,435.407,433.988
					z"/>
			</g>
			<g>
				<path class="st3" d="M478.137,433.988c-1.501,0-3.001-0.572-4.145-1.717c-2.29-2.29-2.29-6.001,0-8.291l25.815-25.814
					c2.289-2.29,6.003-2.289,8.29,0c2.29,2.29,2.29,6.001,0,8.291l-25.815,25.814C481.137,433.416,479.637,433.988,478.137,433.988z
					"/>
			</g>
		</g>
		<g>
			<g>
				<path class="st3" d="M50.553,456.658H24.787c-3.238,0-5.863-2.625-5.863-5.863c0-3.238,2.625-5.863,5.863-5.863h25.766
					c3.238,0,5.863,2.625,5.863,5.863C56.416,454.033,53.791,456.658,50.553,456.658z"/>
			</g>
			<g>
				<path class="st3" d="M112.933,456.658H87.167c-3.238,0-5.863-2.625-5.863-5.863c0-3.238,2.625-5.863,5.863-5.863h25.766
					c3.238,0,5.863,2.625,5.863,5.863C118.796,454.033,116.171,456.658,112.933,456.658z"/>
			</g>
			<g>
				<path class="st3" d="M175.313,456.658h-25.766c-3.238,0-5.863-2.625-5.863-5.863c0-3.238,2.625-5.863,5.863-5.863h25.766
					c3.238,0,5.863,2.625,5.863,5.863C181.176,454.033,178.551,456.658,175.313,456.658z"/>
			</g>
			<g>
				<path class="st3" d="M237.693,456.658h-25.766c-3.238,0-5.863-2.625-5.863-5.863c0-3.238,2.625-5.863,5.863-5.863h25.766
					c3.238,0,5.863,2.625,5.863,5.863C243.555,454.033,240.93,456.658,237.693,456.658z"/>
			</g>
			<g>
				<path class="st3" d="M300.074,456.658h-25.766c-3.238,0-5.863-2.625-5.863-5.863c0-3.238,2.625-5.863,5.863-5.863h25.766
					c3.238,0,5.863,2.625,5.863,5.863C305.936,454.033,303.311,456.658,300.074,456.658z"/>
			</g>
			<g>
				<path class="st3" d="M362.453,456.658h-25.766c-3.238,0-5.863-2.625-5.863-5.863c0-3.238,2.625-5.863,5.863-5.863h25.766
					c3.238,0,5.863,2.625,5.863,5.863C368.316,454.033,365.691,456.658,362.453,456.658z"/>
			</g>
			<g>
				<path class="st3" d="M424.833,456.658h-25.766c-3.238,0-5.863-2.625-5.863-5.863c0-3.238,2.625-5.863,5.863-5.863h25.766
					c3.238,0,5.863,2.625,5.863,5.863C430.696,454.033,428.071,456.658,424.833,456.658z"/>
			</g>
			<g>
				<path class="st3" d="M487.213,456.658h-25.766c-3.238,0-5.863-2.625-5.863-5.863c0-3.238,2.625-5.863,5.863-5.863h25.766
					c3.238,0,5.863,2.625,5.863,5.863C493.075,454.033,490.45,456.658,487.213,456.658z"/>
			</g>
		</g>
		<g>
			<g>
				<path class="st3" d="M81.743,484.788H55.977c-3.238,0-5.863-2.625-5.863-5.863s2.625-5.863,5.863-5.863h25.766
					c3.238,0,5.863,2.625,5.863,5.863S84.981,484.788,81.743,484.788z"/>
			</g>
			<g>
				<path class="st3" d="M144.123,484.788h-25.766c-3.238,0-5.863-2.625-5.863-5.863s2.625-5.863,5.863-5.863h25.766
					c3.238,0,5.863,2.625,5.863,5.863S147.361,484.788,144.123,484.788z"/>
			</g>
			<g>
				<path class="st3" d="M206.503,484.788h-25.766c-3.238,0-5.863-2.625-5.863-5.863s2.625-5.863,5.863-5.863h25.766
					c3.238,0,5.863,2.625,5.863,5.863S209.741,484.788,206.503,484.788z"/>
			</g>
			<g>
				<path class="st3" d="M268.884,484.788h-25.767c-3.238,0-5.863-2.625-5.863-5.863s2.625-5.863,5.863-5.863h25.767
					c3.238,0,5.863,2.625,5.863,5.863S272.121,484.788,268.884,484.788z"/>
			</g>
			<g>
				<path class="st3" d="M331.263,484.788h-25.766c-3.238,0-5.863-2.625-5.863-5.863s2.625-5.863,5.863-5.863h25.766
					c3.238,0,5.863,2.625,5.863,5.863S334.501,484.788,331.263,484.788z"/>
			</g>
			<g>
				<path class="st3" d="M393.643,484.788h-25.766c-3.238,0-5.863-2.625-5.863-5.863s2.625-5.863,5.863-5.863h25.766
					c3.238,0,5.863,2.625,5.863,5.863S396.881,484.788,393.643,484.788z"/>
			</g>
			<g>
				<path class="st3" d="M456.023,484.788h-25.766c-3.238,0-5.863-2.625-5.863-5.863s2.625-5.863,5.863-5.863h25.766
					c3.238,0,5.863,2.625,5.863,5.863S459.261,484.788,456.023,484.788z"/>
			</g>
		</g>
		<g>
			<path class="st3" d="M138.139,292.887c-15.725,0-28.519-12.794-28.519-28.519c0-15.726,12.794-28.519,28.519-28.519
				c15.726,0,28.52,12.793,28.52,28.519C166.659,280.093,153.866,292.887,138.139,292.887z M138.139,247.574
				c-9.26,0-16.794,7.534-16.794,16.794c0,9.26,7.533,16.794,16.794,16.794c9.261,0,16.795-7.534,16.795-16.794
				C154.934,255.107,147.4,247.574,138.139,247.574z"/>
		</g>
		<g>
			<path class="st3" d="M244.593,292.887c-15.725,0-28.519-12.794-28.519-28.519c0-15.726,12.794-28.519,28.519-28.519
				c15.725,0,28.519,12.793,28.519,28.519C273.112,280.093,260.318,292.887,244.593,292.887z M244.593,247.574
				c-9.26,0-16.794,7.534-16.794,16.794c0,9.26,7.533,16.794,16.794,16.794s16.794-7.534,16.794-16.794
				C261.387,255.107,253.853,247.574,244.593,247.574z"/>
		</g>
		<g>
			<path class="st3" d="M292.066,292.887c-15.726,0-28.52-12.794-28.52-28.519c0-15.726,12.794-28.519,28.52-28.519
				c15.725,0,28.519,12.793,28.519,28.519C320.585,280.093,307.791,292.887,292.066,292.887z M292.066,247.574
				c-9.26,0-16.795,7.534-16.795,16.794c0,9.26,7.534,16.794,16.795,16.794s16.794-7.534,16.794-16.794
				C308.86,255.107,301.326,247.574,292.066,247.574z"/>
		</g>
		<g>
			<path class="st3" d="M421.555,292.887h-46.86c-3.238,0-5.863-2.625-5.863-5.863v-59.447c0-3.238,2.625-5.863,5.863-5.863h46.86
				c3.238,0,5.863,2.625,5.863,5.863v59.447C427.418,290.262,424.793,292.887,421.555,292.887z M380.558,281.161h35.135V233.44
				h-35.135V281.161z"/>
		</g>
		<g>
			<path class="st3" d="M421.555,102.763h-46.86c-3.238,0-5.863-2.625-5.863-5.863V76.989c0-3.238,2.625-5.863,5.863-5.863h46.86
				c3.238,0,5.863,2.625,5.863,5.863V96.9C427.418,100.138,424.793,102.763,421.555,102.763z M380.558,91.038h35.135v-8.187h-35.135
				V91.038z"/>
		</g>
		<g>
			<path class="st3" d="M406.651,233.44H389.6c-3.238,0-5.863-2.625-5.863-5.863V96.9c0-3.238,2.625-5.863,5.863-5.863h17.051
				c3.238,0,5.863,2.625,5.863,5.863v130.677C412.513,230.815,409.888,233.44,406.651,233.44z M395.463,221.715h5.325V102.763
				h-5.325V221.715z"/>
		</g>
		<g>
			<path class="st3" d="M287.18,117.479H246.99c-3.238,0-5.863-2.625-5.863-5.863c0-3.238,2.625-5.863,5.863-5.863h40.191
				c3.238,0,5.863,2.625,5.863,5.863C293.043,114.854,290.418,117.479,287.18,117.479z"/>
		</g>
		<g>
			<path class="st3" d="M287.18,162.253h-45.076c-3.238,0-5.863-2.625-5.863-5.863c0-3.238,2.625-5.863,5.863-5.863h45.076
				c3.238,0,5.863,2.625,5.863,5.863C293.043,159.628,290.418,162.253,287.18,162.253z"/>
		</g>
		<g>
			<path class="st3" d="M287.18,207.026h-61.446c-3.238,0-5.863-2.625-5.863-5.863c0-3.238,2.625-5.863,5.863-5.863h61.446
				c3.238,0,5.863,2.625,5.863,5.863C293.043,204.401,290.418,207.026,287.18,207.026z"/>
		</g>
		<g>
			<path class="st3" d="M374.696,82.851h-86.038c-3.238,0-5.863-2.625-5.863-5.863c0-3.238,2.625-5.863,5.863-5.863h86.038
				c3.238,0,5.863,2.625,5.863,5.863C380.558,80.226,377.933,82.851,374.696,82.851z"/>
		</g>
		<g>
			<rect x="389.6" y="287.024" class="st6" width="17.05" height="219.113"/>
		</g>
		<g>
			<path class="st3" d="M406.651,512H389.6c-3.238,0-5.863-2.625-5.863-5.863V287.024c0-3.238,2.625-5.863,5.863-5.863h17.051
				c3.238,0,5.863,2.625,5.863,5.863v219.113C412.513,509.375,409.888,512,406.651,512z M395.463,500.275h5.325V292.887h-5.325
				V500.275z"/>
		</g>
		<g>
			<rect x="262.193" y="243.082" class="st3" width="8.932" height="8.933"/>
		</g>
		<g>
			<rect x="262.783" y="275.584" class="st3" width="8.932" height="8.933"/>
		</g>
	</g>
</g>
</svg>
