<?xml version="1.0" encoding="utf-8"?>
<!-- Generator: Adobe Illustrator 18.0.0, SVG Export Plug-In . SVG Version: 6.00 Build 0)  -->
<!DOCTYPE svg PUBLIC "-//W3C//DTD SVG 1.1//EN" "http://www.w3.org/Graphics/SVG/1.1/DTD/svg11.dtd">
<svg version="1.1" id="Icon_Set" xmlns="http://www.w3.org/2000/svg" xmlns:xlink="http://www.w3.org/1999/xlink" x="0px" y="0px"
	 viewBox="0 0 512 512" style="enable-background:new 0 0 512 512;" xml:space="preserve">
<style type="text/css">
	.st0{fill:#F0C48A;}
	.st1{fill:#FD919E;}
	.st2{fill:#E8677D;}
	.st3{fill:#4C4372;}
	.st4{fill:#D3E6F8;}
	.st5{fill:#A4CFF2;}
	.st6{fill:#FFFFFF;}
	.st7{fill:#7BABF1;}
</style>
<g>
	<circle class="st0" cx="256" cy="256" r="207"/>
	<g>
		<g>
			<path class="st4" d="M130.65,407.094H33.56c-15.297,0-27.697-12.4-27.697-27.697v-32.718h152.485v32.718
				C158.347,394.694,145.947,407.094,130.65,407.094z"/>
		</g>
		<g>
			<rect x="116.472" y="349.143" class="st5" width="35.9" height="53.583"/>
		</g>
		<g>
			<path class="st4" d="M289.669,206.246H56.533c-27.984,0-50.67-22.686-50.67-50.67v0c0-27.984,22.686-50.67,50.67-50.67h233.136
				V206.246z"/>
		</g>
		<g>
			<rect x="249.8" y="110.113" class="st5" width="35.9" height="96.134"/>
		</g>
		<g>
			<polygon class="st1" points="37.019,346.679 72.389,206.261 152.372,206.261 117.002,346.679 			"/>
		</g>
		<g>
			<polygon class="st2" points="123.501,211.304 88.913,341.97 122.096,346.679 157.466,206.261 			"/>
		</g>
		<g>
			<path class="st6" d="M491.357,170.356H359.924v-29.56h131.434c8.163,0,14.78,6.617,14.78,14.78l0,0
				C506.137,163.739,499.52,170.356,491.357,170.356z"/>
		</g>
		<g>
			<path class="st3" d="M491.357,176.219H359.924c-3.238,0-5.863-2.625-5.863-5.863v-29.56c0-3.238,2.625-5.863,5.863-5.863h131.434
				c11.383,0,20.643,9.26,20.643,20.643C512,166.958,502.74,176.219,491.357,176.219z M365.786,164.493h125.571
				c4.917,0,8.918-4,8.918-8.917c0-4.917-4.001-8.918-8.918-8.918H365.786V164.493z"/>
		</g>
		<g>
			<g>
				<path class="st3" d="M390.72,170.592c-3.238,0-5.863-2.625-5.863-5.863v-22.628c0-3.238,2.625-5.863,5.863-5.863
					c3.238,0,5.863,2.625,5.863,5.863v22.628C396.582,167.967,393.957,170.592,390.72,170.592z"/>
			</g>
			<g>
				<path class="st3" d="M433.031,170.592c-3.238,0-5.863-2.625-5.863-5.863v-22.628c0-3.238,2.625-5.863,5.863-5.863
					c3.238,0,5.863,2.625,5.863,5.863v22.628C438.893,167.967,436.268,170.592,433.031,170.592z"/>
			</g>
			<g>
				<path class="st3" d="M475.342,170.592c-3.238,0-5.863-2.625-5.863-5.863v-22.628c0-3.238,2.625-5.863,5.863-5.863
					c3.238,0,5.863,2.625,5.863,5.863v22.628C481.204,167.967,478.579,170.592,475.342,170.592z"/>
			</g>
		</g>
		<g>
			<path class="st7" d="M325.576,191.483h-35.907v-71.814h35.907c19.831,0,35.907,16.076,35.907,35.907v0
				C361.483,175.407,345.407,191.483,325.576,191.483z"/>
		</g>
		<g>
			<path class="st3" d="M130.65,412.957H33.56c-18.505,0-33.56-15.055-33.56-33.56v-32.717c0-3.238,2.625-5.863,5.863-5.863h152.485
				c3.238,0,5.863,2.625,5.863,5.863v32.717C164.21,397.902,149.155,412.957,130.65,412.957z M11.725,352.542v26.855
				c0,12.04,9.795,21.835,21.835,21.835h97.09c12.04,0,21.834-9.795,21.834-21.835v-26.855H11.725z"/>
		</g>
		<g>
			<path class="st3" d="M122.096,352.542H42.114c-1.807,0-3.513-0.833-4.624-2.259c-1.111-1.426-1.502-3.283-1.061-5.036
				l35.37-140.418c0.656-2.605,2.999-4.43,5.685-4.43h79.982c1.807,0,3.513,0.833,4.624,2.258c1.111,1.426,1.502,3.283,1.061,5.036
				l-35.37,140.418C127.125,350.717,124.782,352.542,122.096,352.542z M49.637,340.817h67.89l32.417-128.693H82.053L49.637,340.817z
				"/>
		</g>
		<g>
			<path class="st3" d="M289.669,212.109H56.533C25.361,212.109,0,186.748,0,155.576c0-31.173,25.361-56.533,56.533-56.533h233.136
				c3.238,0,5.863,2.625,5.863,5.863v101.341C295.531,209.484,292.906,212.109,289.669,212.109z M56.533,110.768
				c-24.707,0-44.808,20.101-44.808,44.808c0,24.707,20.101,44.807,44.808,44.807h227.273v-89.616H56.533z"/>
		</g>
		<g>
			<path class="st3" d="M325.576,197.345h-35.907c-3.238,0-5.863-2.625-5.863-5.863v-71.814c0-3.238,2.625-5.863,5.863-5.863h35.907
				c23.032,0,41.77,18.738,41.77,41.77C367.345,178.608,348.608,197.345,325.576,197.345z M295.531,185.62h30.044
				c16.566,0,30.044-13.478,30.044-30.044c0-16.567-13.478-30.045-30.044-30.045h-30.044V185.62z"/>
		</g>
		<g>
			<path class="st3" d="M112.324,145.354h-60.53c-3.238,0-5.863-2.625-5.863-5.863c0-3.238,2.625-5.863,5.863-5.863h60.53
				c3.237,0,5.862,2.625,5.862,5.863C118.187,142.729,115.562,145.354,112.324,145.354z"/>
		</g>
		<g>
			<path class="st3" d="M112.324,178.087h-60.53c-3.238,0-5.863-2.625-5.863-5.863c0-3.238,2.625-5.863,5.863-5.863h60.53
				c3.237,0,5.862,2.625,5.862,5.863C118.187,175.462,115.562,178.087,112.324,178.087z"/>
		</g>
		<g>
			<path class="st3" d="M148.929,244.668H70.595c-3.238,0-5.863-2.625-5.863-5.863s2.625-5.863,5.863-5.863h78.334
				c3.238,0,5.863,2.625,5.863,5.863S152.167,244.668,148.929,244.668z"/>
		</g>
		<g>
			<path class="st3" d="M139.987,280.58H61.653c-3.237,0-5.862-2.625-5.862-5.863c0-3.238,2.625-5.863,5.862-5.863h78.333
				c3.238,0,5.863,2.625,5.863,5.863C145.849,277.955,143.224,280.58,139.987,280.58z"/>
		</g>
		<g>
			<path class="st3" d="M131.113,316.491H52.779c-3.238,0-5.863-2.625-5.863-5.863c0-3.238,2.625-5.863,5.863-5.863h78.334
				c3.238,0,5.863,2.625,5.863,5.863C136.976,313.866,134.351,316.491,131.113,316.491z"/>
		</g>
	</g>
</g>
</svg>
