<?xml version="1.0" encoding="utf-8"?>
<!-- Generator: Adobe Illustrator 18.0.0, SVG Export Plug-In . SVG Version: 6.00 Build 0)  -->
<!DOCTYPE svg PUBLIC "-//W3C//DTD SVG 1.1//EN" "http://www.w3.org/Graphics/SVG/1.1/DTD/svg11.dtd">
<svg version="1.1" id="Icon_Set" xmlns="http://www.w3.org/2000/svg" xmlns:xlink="http://www.w3.org/1999/xlink" x="0px" y="0px"
	 viewBox="0 0 512 512" style="enable-background:new 0 0 512 512;" xml:space="preserve">
<style type="text/css">
	.st0{fill:#F0C48A;}
	.st1{fill:#FD919E;}
	.st2{fill:#E8677D;}
	.st3{fill:#4C4372;}
	.st4{fill:#D3E6F8;}
	.st5{fill:#A4CFF2;}
	.st6{fill:#FFFFFF;}
	.st7{fill:#7BABF1;}
</style>
<g>
	<circle class="st0" cx="256" cy="256" r="207"/>
	<g>
		<g>
			<path class="st4" d="M267.035,163.546h-22.071c-7.546,0-13.663,6.117-13.663,13.663v17.867h49.397v-17.867
				C280.699,169.663,274.581,163.546,267.035,163.546z"/>
		</g>
		<g>
			<path class="st6" d="M395.783,194H116.217C55.27,194,5.863,243.323,5.863,304.27c0,60.947,49.407,110.136,110.355,110.136
				c32.874,0,62.386-14.406,82.603-37.406h114.36c20.217,23,49.728,37.364,82.603,37.364c60.947,0,110.355-49.235,110.355-110.182
				C506.137,243.234,456.73,194,395.783,194z"/>
		</g>
		<g>
			<path class="st7" d="M273.341,270.747h-34.683c-7.256,0-13.137-5.882-13.137-13.138l0,0c0-7.256,5.882-13.137,13.137-13.137
				h34.683c7.256,0,13.138,5.882,13.138,13.137l0,0C286.479,264.866,280.597,270.747,273.341,270.747z"/>
		</g>
		<g>
			<path class="st7" d="M273.341,328.552h-34.683c-7.256,0-13.137-5.882-13.137-13.138l0,0c0-7.256,5.882-13.137,13.137-13.137
				h34.683c7.256,0,13.138,5.882,13.138,13.137l0,0C286.479,322.67,280.597,328.552,273.341,328.552z"/>
		</g>
		<g>
			<g>
				<path class="st4" d="M395.783,194h-35.734c60.947,0,110.355,49.457,110.355,110.404c0,54.911-40.108,100.33-92.625,108.739
					c5.859,0.931,11.873,1.539,18.004,1.539c60.947,0,110.355-49.394,110.355-110.341S456.73,194,395.783,194z"/>
			</g>
		</g>
		<g>
			<path class="st4" d="M161.41,280.206h-24.173v-25.224c0-12.77-10.352-23.122-23.122-23.122h0
				c-12.77,0-23.122,10.352-23.122,23.122v25.224H65.77c-12.77,0-23.122,10.352-23.122,23.122l0,0
				c0,12.77,10.352,23.122,23.122,23.122h25.224v24.173c0,12.77,10.352,23.122,23.122,23.122h0c12.77,0,23.122-10.352,23.122-23.122
				V326.45h24.173c12.77,0,23.122-10.352,23.122-23.122l0,0C184.532,290.558,174.18,280.206,161.41,280.206z"/>
		</g>
		<g>
			<path class="st3" d="M116.218,420.471C52.135,420.471,0,368.466,0,304.509c0-31.027,12.092-60.474,34.049-82.334
				C55.976,200.344,85.158,188,116.218,188h279.565c31.061,0,60.242,12.354,82.169,34.176C499.908,244.03,512,273.319,512,304.344
				c0,31.025-12.092,60.23-34.049,82.083c-21.927,21.823-51.108,33.827-82.169,33.827c-32.871,0-63.78-13.254-85.245-37.254H201.463
				C179.908,407,149,420.471,116.218,420.471z M116.218,200C58.6,200,11.725,246.916,11.725,304.339
				c0,57.492,46.875,104.364,104.492,104.364c30.734,0,58.493-12.71,78.162-35.525c1.114-1.292,2.735-2.179,4.44-2.179h114.359
				c1.705,0,3.326,0.937,4.44,2.229c19.573,22.702,47.331,35.301,78.163,35.301c57.617,0,104.492-46.856,104.492-104.265
				C500.275,246.856,453.4,200,395.783,200H116.218z"/>
		</g>
		<g>
			<circle class="st1" cx="400.512" cy="251.245" r="19.443"/>
		</g>
		<g>
			<circle class="st1" cx="400.512" cy="354.243" r="19.443"/>
		</g>
		<g>
			<circle class="st1" cx="452.011" cy="302.744" r="19.443"/>
		</g>
		<g>
			<circle class="st1" cx="349.013" cy="302.744" r="19.443"/>
		</g>
		<g>
			<path class="st3" d="M400.512,276.551c-13.954,0-25.306-11.352-25.306-25.306c0-13.954,11.352-25.306,25.306-25.306
				c13.953,0,25.305,11.352,25.305,25.306C425.818,265.199,414.466,276.551,400.512,276.551z M400.512,237.663
				c-7.488,0-13.581,6.093-13.581,13.581c0,7.489,6.093,13.581,13.581,13.581c7.489,0,13.58-6.092,13.58-13.581
				C414.093,243.756,408.001,237.663,400.512,237.663z"/>
		</g>
		<g>
			<path class="st3" d="M400.512,379.549c-13.954,0-25.306-11.352-25.306-25.306c0-13.954,11.352-25.306,25.306-25.306
				c13.953,0,25.305,11.352,25.305,25.306C425.818,368.197,414.466,379.549,400.512,379.549z M400.512,340.661
				c-7.488,0-13.581,6.093-13.581,13.581c0,7.489,6.093,13.581,13.581,13.581c7.489,0,13.58-6.092,13.58-13.581
				C414.093,346.754,408.001,340.661,400.512,340.661z"/>
		</g>
		<g>
			<path class="st3" d="M452.012,328.05c-13.954,0-25.306-11.352-25.306-25.306c0-13.954,11.352-25.306,25.306-25.306
				c13.953,0,25.305,11.352,25.305,25.306C477.317,316.698,465.965,328.05,452.012,328.05z M452.012,289.162
				c-7.489,0-13.581,6.093-13.581,13.581c0,7.488,6.092,13.581,13.581,13.581c7.488,0,13.58-6.093,13.58-13.581
				C465.592,295.255,459.5,289.162,452.012,289.162z"/>
		</g>
		<g>
			<path class="st3" d="M349.013,328.05c-13.954,0-25.306-11.352-25.306-25.306c0-13.954,11.352-25.306,25.306-25.306
				s25.306,11.352,25.306,25.306C374.32,316.698,362.968,328.05,349.013,328.05z M349.013,289.162
				c-7.489,0-13.581,6.093-13.581,13.581c0,7.488,6.092,13.581,13.581,13.581c7.488,0,13.581-6.093,13.581-13.581
				C362.595,295.255,356.502,289.162,349.013,289.162z"/>
		</g>
		<g>
			<path class="st3" d="M114.116,379.608c-15.982,0-28.985-13.003-28.985-28.985v-18.31H65.77
				c-15.982,0-28.985-13.003-28.985-28.985c0-15.982,13.002-28.985,28.985-28.985h19.361v-19.362
				c0-15.982,13.002-28.985,28.985-28.985c15.982,0,28.984,13.003,28.984,28.985v19.362h18.311
				c15.982,0,28.984,13.003,28.984,28.985c0,15.982-13.002,28.985-28.984,28.985H143.1v18.31
				C143.1,366.605,130.097,379.608,114.116,379.608z M65.77,286.069c-9.517,0-17.26,7.742-17.26,17.259
				c0,9.517,7.743,17.26,17.26,17.26h25.224c3.238,0,5.863,2.625,5.863,5.863v24.173c0,9.517,7.743,17.259,17.26,17.259
				s17.259-7.742,17.259-17.259v-24.173c0-3.238,2.625-5.863,5.863-5.863h24.173c9.517,0,17.259-7.742,17.259-17.26
				c0-9.517-7.742-17.259-17.259-17.259h-24.173c-3.238,0-5.863-2.625-5.863-5.863v-25.224c0-9.517-7.742-17.26-17.259-17.26
				s-17.26,7.742-17.26,17.26v25.224c0,3.238-2.625,5.863-5.863,5.863H65.77z"/>
		</g>
		<g>
			<path class="st3" d="M273.342,276.61h-34.683c-10.477,0-19-8.523-19-19c0-10.477,8.523-19,19-19h34.683c10.477,0,19,8.523,19,19
				C292.342,268.087,283.819,276.61,273.342,276.61z M238.658,250.335c-4.011,0-7.275,3.263-7.275,7.275
				c0,4.012,3.263,7.275,7.275,7.275h34.683c4.011,0,7.275-3.263,7.275-7.275c0-4.011-3.263-7.275-7.275-7.275H238.658z"/>
		</g>
		<g>
			<path class="st3" d="M273.342,334.414h-34.683c-10.477,0-19-8.523-19-19s8.523-19,19-19h34.683c10.477,0,19,8.523,19,19
				S283.819,334.414,273.342,334.414z M238.658,308.14c-4.011,0-7.275,3.263-7.275,7.275c0,4.012,3.263,7.275,7.275,7.275h34.683
				c4.011,0,7.275-3.263,7.275-7.275c0-4.011-3.263-7.275-7.275-7.275H238.658z"/>
		</g>
		<g>
			<path class="st3" d="M280.699,200.938h-49.397c-3.238,0-5.863-2.625-5.863-5.863v-17.867c0-10.766,8.759-19.525,19.526-19.525
				h22.071c10.766,0,19.526,8.759,19.526,19.525v17.867C286.561,198.313,283.936,200.938,280.699,200.938z M237.164,189.213h37.672
				v-12.005c0-4.301-3.499-7.8-7.801-7.8h-22.071c-4.301,0-7.801,3.499-7.801,7.8V189.213z"/>
		</g>
		<g>
			<path class="st3" d="M256,169.409c-3.238,0-5.863-2.625-5.863-5.863v-4.73c0-14.533,11.823-26.357,26.357-26.357h93.539
				c8.068,0,14.632-6.564,14.632-14.632c0-8.069-6.564-14.633-14.632-14.633H165.614c-3.238,0-5.863-2.625-5.863-5.863
				c0-3.238,2.625-5.863,5.863-5.863h204.419c14.533,0,26.357,11.824,26.357,26.358s-11.823,26.357-26.357,26.357h-93.539
				c-8.068,0-14.632,6.564-14.632,14.632v4.73C261.863,166.784,259.238,169.409,256,169.409z"/>
		</g>
	</g>
</g>
</svg>
