<?xml version="1.0" encoding="utf-8"?>
<!-- Generator: Adobe Illustrator 18.0.0, SVG Export Plug-In . SVG Version: 6.00 Build 0)  -->
<!DOCTYPE svg PUBLIC "-//W3C//DTD SVG 1.1//EN" "http://www.w3.org/Graphics/SVG/1.1/DTD/svg11.dtd">
<svg version="1.1" id="Icon_Set" xmlns="http://www.w3.org/2000/svg" xmlns:xlink="http://www.w3.org/1999/xlink" x="0px" y="0px"
	 viewBox="0 0 512 512" style="enable-background:new 0 0 512 512;" xml:space="preserve">
<style type="text/css">
	.st0{fill:#F0C48A;}
	.st1{fill:#FD919E;}
	.st2{fill:#E8677D;}
	.st3{fill:#4C4372;}
	.st4{fill:#D3E6F8;}
	.st5{fill:#A4CFF2;}
	.st6{fill:#FFFFFF;}
	.st7{fill:#7BABF1;}
</style>
<g>
	<circle class="st0" cx="256.5" cy="256" r="207"/>
	<g>
		<g>
			<path class="st3" d="M268.04,380.358c-2.031,0-4.005-1.056-5.089-2.943c-1.613-2.807-0.645-6.391,2.162-8.004l73.22-42.064
				c2.809-1.613,6.391-0.645,8.004,2.163c1.614,2.807,0.645,6.391-2.162,8.004l-73.219,42.064
				C270.034,380.107,269.031,380.358,268.04,380.358z"/>
		</g>
		<g>
			<rect x="245.142" y="176.831" class="st6" width="22.716" height="329.307"/>
		</g>
		<g>
			<rect x="257.74" y="176.831" class="st4" width="10.455" height="327.901"/>
		</g>
		<g>
			<polygon class="st6" points="426.06,506.137 401.988,506.137 266.601,120.037 288.037,112.521 			"/>
		</g>
		<g>
			<polygon class="st6" points="86.94,506.137 111.012,506.137 246.399,120.037 224.963,112.521 			"/>
		</g>
		<g>
			<polygon class="st4" points="246.399,120.037 237.034,116.753 99.697,506.137 111.012,506.137 			"/>
		</g>
		<g>
			<polygon class="st4" points="279.535,120.037 288.9,116.753 426.238,506.137 414.923,506.137 			"/>
		</g>
		<g>
			<path class="st3" d="M426.06,512h-24.072c-2.49,0-4.708-1.573-5.532-3.923l-135.387-386.1c-1.072-3.055,0.537-6.401,3.593-7.472
				l21.436-7.517c1.466-0.513,3.078-0.425,4.48,0.248c1.402,0.674,2.478,1.877,2.992,3.344l138.023,393.617
				c0.629,1.793,0.349,3.781-0.75,5.331C429.743,511.079,427.961,512,426.06,512z M406.145,500.275h11.647L284.445,119.993
				l-10.371,3.637L406.145,500.275z"/>
		</g>
		<g>
			<path class="st3" d="M111.012,512H86.94c-1.9,0-3.683-0.921-4.783-2.472c-1.099-1.55-1.379-3.537-0.75-5.331L219.43,110.581
				c0.515-1.467,1.591-2.67,2.992-3.344c1.401-0.674,3.013-0.762,4.48-0.248l21.436,7.517c3.055,1.071,4.664,4.417,3.593,7.472
				l-135.387,386.1C115.72,510.427,113.502,512,111.012,512z M95.208,500.275h11.647L238.927,123.63l-10.371-3.637L95.208,500.275z"
				/>
		</g>
		<g>
			<rect x="235.956" y="144.597" class="st4" width="41.088" height="31.811"/>
		</g>
		<g>
			<rect x="263.757" y="144.802" class="st5" width="11.684" height="31.401"/>
		</g>
		<g>
			<rect x="202.357" y="99.613" class="st4" width="108.286" height="44.984"/>
		</g>
		<g>
			<rect x="289.629" y="100.378" class="st5" width="21.014" height="44.219"/>
		</g>
		<g>
			<path class="st3" d="M277.044,182.27h-41.088c-3.238,0-5.863-2.625-5.863-5.863v-31.811c0-3.238,2.625-5.863,5.863-5.863h41.088
				c3.238,0,5.863,2.625,5.863,5.863v31.811C282.906,179.645,280.281,182.27,277.044,182.27z M241.819,170.545h29.363v-20.086
				h-29.363V170.545z"/>
		</g>
		<g>
			<path class="st3" d="M310.643,150.459H202.357c-3.238,0-5.863-2.625-5.863-5.863V99.613c0-3.238,2.625-5.863,5.863-5.863h108.286
				c3.238,0,5.863,2.625,5.863,5.863v44.984C316.506,147.835,313.881,150.459,310.643,150.459z M208.219,138.734h96.561v-33.259
				h-96.561V138.734z"/>
		</g>
		<g>
			<path class="st3" d="M267.858,512h-22.716c-3.238,0-5.863-2.625-5.863-5.863V176.831c0-3.238,2.625-5.863,5.863-5.863h22.716
				c3.238,0,5.863,2.625,5.863,5.863v329.307C273.72,509.375,271.095,512,267.858,512z M251.005,500.275h10.99V182.693h-10.99
				V500.275z"/>
		</g>
		<g>
			<rect x="173.578" y="5.863" class="st1" width="166.022" height="93.556"/>
		</g>
		<g>
			<path class="st3" d="M339.599,105.281H173.578c-3.238,0-5.863-2.625-5.863-5.863V5.863c0-3.238,2.625-5.863,5.863-5.863h166.021
				c3.238,0,5.863,2.625,5.863,5.863v93.556C345.462,102.656,342.837,105.281,339.599,105.281z M179.44,93.556h154.296V11.725
				H179.44V93.556z"/>
		</g>
		<g>
			<circle class="st2" cx="256.589" cy="52.64" r="25.576"/>
		</g>
		<g>
			<path class="st3" d="M256.589,84.079c-17.335,0-31.438-14.103-31.438-31.438s14.103-31.438,31.438-31.438
				c17.335,0,31.438,14.103,31.438,31.438S273.924,84.079,256.589,84.079z M256.589,32.927c-10.87,0-19.713,8.843-19.713,19.713
				c0,10.87,8.844,19.713,19.713,19.713c10.869,0,19.713-8.844,19.713-19.713C276.302,41.77,267.458,32.927,256.589,32.927z"/>
		</g>
		<g>
			<path class="st3" d="M245.137,380.358c-0.991,0-1.995-0.251-2.915-0.78l-73.22-42.064c-2.808-1.613-3.776-5.197-2.163-8.004
				c1.613-2.808,5.197-3.775,8.004-2.163l73.22,42.064c2.808,1.613,3.776,5.197,2.163,8.004
				C249.142,379.302,247.168,380.358,245.137,380.358z"/>
		</g>
		<g>
			<path class="st3" d="M459.5,56h-407c-3.314,0-6-2.686-6-6s2.686-6,6-6h407c3.314,0,6,2.686,6,6S462.814,56,459.5,56z"/>
		</g>
	</g>
</g>
</svg>
