<?xml version="1.0" encoding="utf-8"?>
<!-- Generator: Adobe Illustrator 18.0.0, SVG Export Plug-In . SVG Version: 6.00 Build 0)  -->
<!DOCTYPE svg PUBLIC "-//W3C//DTD SVG 1.1//EN" "http://www.w3.org/Graphics/SVG/1.1/DTD/svg11.dtd">
<svg version="1.1" id="Icon_Set" xmlns="http://www.w3.org/2000/svg" xmlns:xlink="http://www.w3.org/1999/xlink" x="0px" y="0px"
	 viewBox="0 0 512 512" style="enable-background:new 0 0 512 512;" xml:space="preserve">
<style type="text/css">
	.st0{fill:#F0C48A;}
	.st1{fill:#FD919E;}
	.st2{fill:#E8677D;}
	.st3{fill:#4C4372;}
	.st4{fill:#D3E6F8;}
	.st5{fill:#A4CFF2;}
	.st6{fill:#FFFFFF;}
	.st7{fill:#7BABF1;}
</style>
<g>
	<circle class="st0" cx="256" cy="256" r="207"/>
	<g>
		<g>
			<g>
				<path class="st5" d="M123.09,395.063L123.09,395.063l-29.511-55.271V134.834c0-9.884,8.013-17.897,17.897-17.897h23.226
					c9.884,0,17.897,8.013,17.897,17.897v204.958L123.09,395.063z"/>
			</g>
			<g>
				<polygon class="st7" points="134.893,339.233 123.09,361.682 107.92,361.682 105.723,363.472 123.191,394.99 152.791,339.921 
									"/>
			</g>
			<g>
				<rect x="134.893" y="164.937" class="st7" width="17.897" height="174.296"/>
			</g>
			<g>
				<path class="st1" d="M151.216,165.629H93.559l0.021-26.399c0-14.927,10.716-22.405,25.644-22.405h4.965
					c20.711,0.112,27.028,10.737,27.028,25.664V165.629z"/>
			</g>
			<g>
				<path class="st2" d="M152.791,165.625h-17.897v-48.874l0,0c9.885,0,17.897,8.013,17.897,17.898V165.625z"/>
			</g>
			<g>
				<path class="st3" d="M152.601,171.214H93.579c-3.238,0-5.863-2.625-5.863-5.863s2.625-5.863,5.863-5.863h59.022
					c3.238,0,5.863,2.625,5.863,5.863S155.839,171.214,152.601,171.214z"/>
			</g>
			<g>
				<path class="st3" d="M152.601,344.856H93.579c-3.238,0-5.863-2.625-5.863-5.863c0-3.238,2.625-5.863,5.863-5.863h59.022
					c3.238,0,5.863,2.625,5.863,5.863C158.464,342.231,155.839,344.856,152.601,344.856z"/>
			</g>
			<g>
				<path class="st3" d="M140.458,367.545h-34.736c-3.238,0-5.863-2.625-5.863-5.863s2.625-5.863,5.863-5.863h34.736
					c3.238,0,5.863,2.625,5.863,5.863S143.696,367.545,140.458,367.545z"/>
			</g>
			<g>
				<path class="st3" d="M123.091,344.856c-3.238,0-5.862-2.624-5.862-5.863V165.352c0-3.238,2.625-5.863,5.862-5.863
					c3.238,0,5.863,2.625,5.863,5.863v173.642C128.953,342.231,126.328,344.856,123.091,344.856z"/>
			</g>
			<g>
				<path class="st3" d="M123.091,400.926c-2.164,0-4.153-1.192-5.172-3.101l-29.511-55.271c-0.453-0.85-0.691-1.798-0.691-2.761
					V134.834c0-13.101,10.659-23.76,23.76-23.76h23.226c13.101,0,23.76,10.659,23.76,23.76v204.957c0,0.963-0.238,1.912-0.691,2.761
					l-29.51,55.271C127.243,399.733,125.255,400.926,123.091,400.926z M99.442,338.325l23.649,44.292l23.648-44.292v-203.49
					c0-6.636-5.399-12.035-12.035-12.035h-23.226c-6.636,0-12.035,5.399-12.035,12.035V338.325z"/>
			</g>
		</g>
		<g>
			<g>
				<path class="st6" d="M61.056,310.915H20.001c-7.776,0-14.139-6.362-14.139-14.138v-81.739c0-7.776,6.362-14.138,14.139-14.138
					h41.055c7.776,0,14.139,6.362,14.139,14.138v81.739C75.195,304.553,68.832,310.915,61.056,310.915z"/>
			</g>
			<g>
				<path class="st5" d="M57.559,310.915h3.497c7.776,0,14.139-6.362,14.139-14.138v-67.735H57.559V310.915z"/>
			</g>
			<g>
				<path class="st5" d="M61.056,200.899H20.001c-7.776,0-14.139,6.362-14.139,14.138v23.311h69.332v-23.311
					C75.195,207.262,68.832,200.899,61.056,200.899z"/>
			</g>
			<g>
				<path class="st7" d="M66.363,201.948h-8.805v36.401h17.636v-23.311C75.195,209.137,71.528,204.058,66.363,201.948z"/>
			</g>
			<g>
				<path class="st3" d="M61.056,316.778H20.001C8.972,316.778,0,307.805,0,296.776v-81.738c0-11.029,8.972-20.001,20.001-20.001
					h41.055c11.029,0,20.001,8.973,20.001,20.001v81.738C81.057,307.805,72.085,316.778,61.056,316.778z M20.001,206.762
					c-4.563,0-8.276,3.713-8.276,8.276v81.738c0,4.564,3.713,8.276,8.276,8.276h41.055c4.563,0,8.276-3.713,8.276-8.276v-81.738
					c0-4.563-3.713-8.276-8.276-8.276H20.001z"/>
			</g>
			<g>
				<path class="st3" d="M75.195,244.211H5.863c-3.238,0-5.863-2.625-5.863-5.863c0-3.238,2.625-5.863,5.863-5.863h69.332
					c3.238,0,5.863,2.625,5.863,5.863C81.057,241.586,78.432,244.211,75.195,244.211z"/>
			</g>
		</g>
		<g>
			<g>
				<path class="st5" d="M172.54,121.478v268.858h333.597L172.54,121.478z M215.647,212.474l177.327,138.155H215.647V212.474z"/>
			</g>
			<g>
				<polygon class="st7" points="483.93,372.439 506.137,390.336 172.54,390.336 172.54,372.439 483.93,372.439 				"/>
			</g>
			<g>
				<path class="st3" d="M506.137,396.199H172.54c-3.238,0-5.863-2.625-5.863-5.863V121.478c0-2.258,1.296-4.314,3.333-5.289
					c2.034-0.973,4.451-0.693,6.208,0.724l333.597,268.858c1.936,1.56,2.677,4.171,1.85,6.515
					C510.838,394.631,508.623,396.199,506.137,396.199z M178.403,384.473H489.52L178.403,133.733V384.473z"/>
			</g>
			<g>
				<path class="st3" d="M392.975,356.492H215.647c-3.238,0-5.863-2.625-5.863-5.863V212.475c0-2.24,1.277-4.284,3.289-5.268
					c2.014-0.983,4.411-0.733,6.176,0.643l177.328,138.154c1.975,1.539,2.755,4.162,1.942,6.53
					C397.706,354.902,395.479,356.492,392.975,356.492z M221.509,344.766h154.402L221.509,224.474V344.766z"/>
			</g>
			<g>
				<path class="st3" d="M217.248,394.958c-3.238,0-5.863-2.625-5.863-5.863v-11.481c0-3.238,2.625-5.863,5.863-5.863
					s5.863,2.625,5.863,5.863v11.481C223.111,392.333,220.486,394.958,217.248,394.958z"/>
			</g>
			<g>
				<path class="st3" d="M260.875,394.958c-3.238,0-5.863-2.625-5.863-5.863v-11.481c0-3.238,2.625-5.863,5.863-5.863
					c3.238,0,5.863,2.625,5.863,5.863v11.481C266.737,392.333,264.112,394.958,260.875,394.958z"/>
			</g>
			<g>
				<path class="st3" d="M304.503,394.958c-3.238,0-5.863-2.625-5.863-5.863v-11.481c0-3.238,2.625-5.863,5.863-5.863
					c3.238,0,5.863,2.625,5.863,5.863v11.481C310.365,392.333,307.74,394.958,304.503,394.958z"/>
			</g>
			<g>
				<path class="st3" d="M348.13,394.958c-3.238,0-5.863-2.625-5.863-5.863v-11.481c0-3.238,2.625-5.863,5.863-5.863
					s5.863,2.625,5.863,5.863v11.481C353.992,392.333,351.367,394.958,348.13,394.958z"/>
			</g>
			<g>
				<path class="st3" d="M391.756,394.958c-3.238,0-5.863-2.625-5.863-5.863v-11.481c0-3.238,2.625-5.863,5.863-5.863
					c3.238,0,5.863,2.625,5.863,5.863v11.481C397.619,392.333,394.994,394.958,391.756,394.958z"/>
			</g>
			<g>
				<path class="st3" d="M435.384,394.958c-3.238,0-5.863-2.625-5.863-5.863v-11.481c0-3.238,2.625-5.863,5.863-5.863
					c3.238,0,5.862,2.625,5.862,5.863v11.481C441.247,392.333,438.622,394.958,435.384,394.958z"/>
			</g>
		</g>
	</g>
</g>
</svg>
