<?xml version="1.0" encoding="utf-8"?>
<!-- Generator: Adobe Illustrator 18.0.0, SVG Export Plug-In . SVG Version: 6.00 Build 0)  -->
<!DOCTYPE svg PUBLIC "-//W3C//DTD SVG 1.1//EN" "http://www.w3.org/Graphics/SVG/1.1/DTD/svg11.dtd">
<svg version="1.1" id="Icon_Set" xmlns="http://www.w3.org/2000/svg" xmlns:xlink="http://www.w3.org/1999/xlink" x="0px" y="0px"
	 viewBox="0 0 512 512" style="enable-background:new 0 0 512 512;" xml:space="preserve">
<style type="text/css">
	.st0{fill:#F0C48A;}
	.st1{fill:#FD919E;}
	.st2{fill:#E8677D;}
	.st3{fill:#4C4372;}
	.st4{fill:#D3E6F8;}
	.st5{fill:#A4CFF2;}
	.st6{fill:#FFFFFF;}
	.st7{fill:#7BABF1;}
</style>
<g>
	<circle class="st0" cx="256" cy="256" r="207"/>
	<g>
		<g>
			<path class="st4" d="M156.941,250.077l139.922-71.615c0,0,4.651,178.829-10.23,181.026c-14.881,2.197-51.271-1.068-51.271-1.068
				s-20.262-3.526-20.304-39.659c-39.103,0-70.261,0-70.261,0L156.941,250.077z"/>
		</g>
		<g>
			<path class="st5" d="M293.612,260.459l-11.706-11.957l-8.466-24.786c0,0-17.931,39.766-44.92,40.559h38.016
				c7.56,0,13.688,6.128,13.688,13.688v51.958c0,6.026-4.884,10.91-10.909,10.91h-28.029c-5.81,0-10.519-4.71-10.519-10.52v-14.756
				c0-7.442-6.032-13.475-13.474-13.475h-57.906l-2.446,16.681h58.117c-1.942,34.059,20.304,39.659,20.304,39.659
				s38.744,1.068,51.271,1.068C299.159,359.488,293.612,260.459,293.612,260.459z"/>
		</g>
		<g>
			<path class="st3" d="M293.612,365.35h-50.683c-18.6,0-33.733-15.133-33.733-33.733v-6.993h-51.394
				c-3.238,0-5.863-2.625-5.863-5.863c0-3.238,2.625-5.863,5.863-5.863h57.257c3.238,0,5.863,2.625,5.863,5.863v12.856
				c0,12.135,9.872,22.008,22.008,22.008h50.683c3.238,0,5.863,2.625,5.863,5.863C299.474,362.725,296.849,365.35,293.612,365.35z"
				/>
		</g>
		<g>
			<g>
				<path class="st5" d="M290.038,192.809v181.28c-21.534,12.462-35.903,35.927-35.371,62.717
					c0.773,38.893,32.234,69.534,71.135,69.33c38.91-0.204,70.39-31.81,70.39-70.769c0-26.19-14.238-49.04-35.385-61.278V127.846
					c21.147-12.238,35.385-35.088,35.385-61.278c0-25.779-13.788-48.333-34.388-60.705V59.59c0,20.093-16.289,36.382-36.382,36.382
					h0c-20.093,0-36.382-16.289-36.382-36.382V5.862c-20.6,12.373-34.388,34.926-34.388,60.705c0,26.19,14.238,49.04,35.385,61.278
					v20.977V192.809z M367.72,464.274l-42.298,24.421l-42.298-24.421v-48.841l42.298-24.421l42.298,24.421V464.274z"/>
			</g>
			<g>
				<path class="st7" d="M361.247,145.766v-17.919c21.147-12.238,35.385-35.088,35.385-61.278c0-25.779-13.788-48.333-34.388-60.705
					v1.829c33.766,65.1,3.053,99.287-15.371,112.738c-7.225,5.274-11.541,13.637-11.541,22.582v216.185
					c0,8.275,3.62,16.189,10.036,21.415c6.796,5.536,15.32,15.607,19.77,33.077l3.022,1.745v48.841l-4.127,2.383
					c-10.457,30.87-37.27,39.072-38.611,39.464c0.274,0.002,0.544,0.017,0.819,0.016c38.911-0.204,70.391-31.81,70.391-70.769
					c0-26.19-14.238-49.04-35.385-61.278v-13.378V145.766z"/>
			</g>
			<g>
				<path class="st3" d="M325.853,512c-20.209,0-39.218-7.685-53.568-21.668c-14.453-14.083-22.636-33.051-23.04-53.409
					c-0.531-26.752,12.942-51.78,35.37-66.127V131.138c-21.911-14.03-35.386-38.461-35.386-64.57
					c0-26.751,14.266-51.938,37.233-65.731c1.81-1.087,4.067-1.116,5.905-0.076c1.839,1.04,2.975,2.99,2.975,5.102v53.728
					c0,16.828,13.691,30.519,30.519,30.519c16.828,0,30.519-13.691,30.519-30.519V5.862c0-2.113,1.137-4.062,2.975-5.102
					c1.84-1.04,4.096-1.011,5.905,0.076c22.967,13.793,37.233,38.98,37.233,65.731c0,26.109-13.474,50.541-35.385,64.57v239.659
					c21.911,14.029,35.385,38.461,35.385,64.57c0,42.034-34.194,76.411-76.223,76.631C326.133,512,325.992,512,325.853,512z
					 M283.618,17.266c-14.353,12.225-22.663,29.993-22.663,49.302c0,23.081,12.438,44.617,32.459,56.204
					c1.811,1.048,2.927,2.982,2.927,5.074v246.243c0,2.092-1.116,4.026-2.927,5.074c-20.483,11.854-32.915,33.897-32.446,57.527
					c0.71,35.722,29.178,63.585,64.882,63.585c0.12,0,0.241,0,0.361-0.001c35.598-0.187,64.559-29.304,64.559-64.906
					c0-23.082-12.438-44.617-32.459-56.204c-1.811-1.048-2.927-2.982-2.927-5.074V127.846c0-2.092,1.115-4.026,2.927-5.074
					c20.021-11.587,32.459-33.123,32.459-56.204c0-19.309-8.31-37.077-22.663-49.302v42.325c0,23.293-18.95,42.244-42.244,42.244
					c-23.294,0-42.244-18.951-42.244-42.244V17.266z M290.478,374.089h0.009H290.478z M325.863,494.557
					c-1.012,0-2.025-0.262-2.931-0.785l-42.298-24.42c-1.814-1.047-2.931-2.983-2.931-5.077v-48.841c0-2.094,1.117-4.03,2.931-5.077
					l42.298-24.421c1.813-1.047,4.05-1.047,5.863,0l42.298,24.421c1.814,1.047,2.931,2.983,2.931,5.077v48.841
					c0,2.095-1.117,4.03-2.931,5.077l-42.298,24.42C327.887,494.295,326.875,494.557,325.863,494.557z M289.427,460.889
					l36.435,21.036l36.435-21.036v-42.072l-36.435-21.036l-36.435,21.036V460.889z M368.16,464.274h0.01H368.16z"/>
			</g>
		</g>
		<g>
			<g>
				<path class="st4" d="M411.554,210.384h-96.832c-8.246,0-14.931-6.685-14.931-14.931v-28.889c0-8.246,6.685-14.931,14.931-14.931
					h96.832c8.246,0,14.931,6.685,14.931,14.931v28.889C426.485,203.699,419.8,210.384,411.554,210.384z"/>
			</g>
			<g>
				<path class="st5" d="M299.791,193.466v1.987c0,8.246,6.685,14.931,14.931,14.931h96.832c8.246,0,14.931-6.685,14.931-14.931
					v-1.987H299.791z"/>
			</g>
			<g>
				<path class="st3" d="M411.553,216.247h-96.831c-11.466,0-20.794-9.328-20.794-20.794v-28.889
					c0-11.466,9.328-20.793,20.794-20.793h96.831c11.467,0,20.795,9.328,20.795,20.793v28.889
					C432.348,206.919,423.02,216.247,411.553,216.247z M314.722,157.496c-5.001,0-9.069,4.068-9.069,9.068v28.889
					c0,5.001,4.068,9.068,9.069,9.068h96.831c5.001,0,9.07-4.068,9.07-9.068v-28.889c0-5-4.069-9.068-9.07-9.068H314.722z"/>
			</g>
		</g>
		<g>
			<g>
				<path class="st4" d="M411.554,269.134h-96.832c-8.246,0-14.931-6.685-14.931-14.931v-28.888c0-8.247,6.685-14.932,14.931-14.932
					h96.832c8.246,0,14.931,6.685,14.931,14.932v28.888C426.485,262.449,419.8,269.134,411.554,269.134z"/>
			</g>
			<g>
				<path class="st5" d="M299.791,254.203c0,8.246,6.685,14.931,14.931,14.931h96.832c5.577,0,10.432-3.064,12.996-7.594v-9.448
					H299.791V254.203z"/>
			</g>
			<g>
				<path class="st3" d="M411.553,274.997h-96.831c-11.466,0-20.794-9.328-20.794-20.793v-28.888
					c0-11.466,9.328-20.794,20.794-20.794h96.831c11.467,0,20.795,9.328,20.795,20.794v28.888
					C432.348,265.669,423.02,274.997,411.553,274.997z M314.722,216.247c-5.001,0-9.069,4.068-9.069,9.069v28.888
					c0,5,4.068,9.068,9.069,9.068h96.831c5.001,0,9.07-4.068,9.07-9.068v-28.888c0-5.001-4.069-9.069-9.07-9.069H314.722z"/>
			</g>
		</g>
		<g>
			<path class="st4" d="M235.747,261.945c0,0,38.544-21.424,39.135-53.384c2.915,39.19,6.483,62.908,50.505,60.35
				c2.719-13.254,2.719-13.254,2.719-13.254l-2.719-108.353c0,0-1.282-9.404-14.205-11.677c-12.923-2.274-59.282,0-59.282,0
				s-10.017-1.898-19.44,18.76c-9.503,20.834-19.767,44.071-19.767,44.071l-43.713,2.486c0,0-12.038-2.815-12.038,9.44
				c0,12.256,0,58.75,0,58.75L235.747,261.945z"/>
		</g>
		<g>
			<path class="st3" d="M219.169,270.136c-3.238,0-5.863-2.625-5.863-5.863c0-3.238,2.625-5.863,5.863-5.863
				c18.535,0,32.605-8.354,41.819-24.83c7.117-12.726,8.564-25.474,8.578-25.602c0.349-3.22,3.247-5.546,6.46-5.197
				c3.219,0.349,5.546,3.241,5.197,6.46c-0.067,0.617-1.731,15.273-10.001,30.062C259.942,259.475,241.943,270.136,219.169,270.136z
				"/>
		</g>
		<g>
			<path class="st3" d="M319.614,274.774c-27.615,0-50.082-22.467-50.082-50.082v-28.411c0-3.238,2.625-5.863,5.863-5.863
				c3.238,0,5.863,2.625,5.863,5.863v28.411c0,21.15,17.207,38.357,38.357,38.357c1.45,0,2.63-1.18,2.63-2.63V152.552
				c0-6.099-4.963-11.061-11.062-11.061H251.9c-4.322,0-8.272,2.54-10.065,6.471l-19.353,42.428
				c-4.55,9.973-14.572,16.418-25.533,16.418h-40.008c-3.238,0-5.863-2.625-5.863-5.863c0-3.238,2.625-5.863,5.863-5.863h40.008
				c6.382,0,12.217-3.752,14.865-9.559l19.353-42.428c3.694-8.098,11.832-13.33,20.733-13.33h59.282
				c12.565,0,22.787,10.222,22.787,22.787v107.867C333.969,268.334,327.529,274.774,319.614,274.774z"/>
		</g>
		<g>
			<path class="st1" d="M134.402,349.525h-26.349c-12.448,0-22.539-10.091-22.539-22.539V195.781
				c0-13.376,10.843-24.219,24.219-24.219h22.988c13.376,0,24.219,10.843,24.219,24.219v131.205
				C156.941,339.434,146.85,349.525,134.402,349.525z"/>
		</g>
		<g>
			<path class="st2" d="M85.515,323.42v3.566c0,12.448,10.091,22.539,22.539,22.539h26.349c12.448,0,22.539-10.091,22.539-22.539
				v-3.566H85.515z"/>
		</g>
		<g>
			<path class="st3" d="M133.636,355.387H108.82c-16.083,0-29.168-13.084-29.168-29.167V194.866
				c0-16.083,13.085-29.167,29.168-29.167h24.817c16.083,0,29.167,13.084,29.167,29.167V326.22
				C162.803,342.303,149.719,355.387,133.636,355.387z M108.82,177.424c-9.618,0-17.443,7.824-17.443,17.442V326.22
				c0,9.617,7.825,17.442,17.443,17.442h24.817c9.617,0,17.442-7.824,17.442-17.442V194.866c0-9.618-7.824-17.442-17.442-17.442
				H108.82z"/>
		</g>
		<g>
			<g>
				<path class="st4" d="M411.554,327.885h-96.832c-8.246,0-14.931-6.685-14.931-14.931v-28.888c0-8.246,6.685-14.932,14.931-14.932
					h96.832c8.246,0,14.931,6.685,14.931,14.932v28.888C426.485,321.2,419.8,327.885,411.554,327.885z"/>
			</g>
			<g>
				<path class="st5" d="M299.791,310.717v2.236c0,8.246,6.685,14.931,14.931,14.931h96.832c8.246,0,14.931-6.685,14.931-14.931
					v-2.236H299.791z"/>
			</g>
			<g>
				<path class="st3" d="M411.553,333.747h-96.831c-11.466,0-20.794-9.328-20.794-20.793v-28.888
					c0-11.466,9.328-20.794,20.794-20.794h96.831c11.467,0,20.795,9.328,20.795,20.794v28.888
					C432.348,324.42,423.02,333.747,411.553,333.747z M314.722,274.997c-5.001,0-9.069,4.068-9.069,9.069v28.888
					c0,5,4.068,9.068,9.069,9.068h96.831c5.001,0,9.07-4.068,9.07-9.068v-28.888c0-5.001-4.069-9.069-9.07-9.069H314.722z"/>
			</g>
		</g>
		<g>
			<g>
				<path class="st4" d="M412.754,381.914h-89.05c-7.583,0-13.731-6.148-13.731-13.732v-26.566c0-7.583,6.147-13.732,13.731-13.732
					h89.05c7.583,0,13.731,6.148,13.731,13.732v26.566C426.485,375.766,420.337,381.914,412.754,381.914z"/>
			</g>
			<g>
				<path class="st5" d="M309.973,364.458v3.724c0,7.583,6.147,13.732,13.731,13.732h89.05c7.583,0,13.731-6.148,13.731-13.732
					v-3.724H309.973z"/>
			</g>
			<g>
				<path class="st3" d="M412.754,387.777h-89.05c-10.803,0-19.594-8.79-19.594-19.594v-26.566c0-10.804,8.79-19.594,19.594-19.594
					h89.05c10.804,0,19.594,8.79,19.594,19.594v26.566C432.348,378.987,423.558,387.777,412.754,387.777z M323.704,333.747
					c-4.339,0-7.868,3.53-7.868,7.869v26.566c0,4.339,3.53,7.869,7.868,7.869h89.05c4.339,0,7.869-3.53,7.869-7.869v-26.566
					c0-4.339-3.531-7.869-7.869-7.869H323.704z"/>
			</g>
		</g>
	</g>
</g>
</svg>
