<?xml version="1.0" encoding="utf-8"?>
<!-- Generator: Adobe Illustrator 18.0.0, SVG Export Plug-In . SVG Version: 6.00 Build 0)  -->
<!DOCTYPE svg PUBLIC "-//W3C//DTD SVG 1.1//EN" "http://www.w3.org/Graphics/SVG/1.1/DTD/svg11.dtd">
<svg version="1.1" id="Icon_Set" xmlns="http://www.w3.org/2000/svg" xmlns:xlink="http://www.w3.org/1999/xlink" x="0px" y="0px"
	 viewBox="0 0 512 512" style="enable-background:new 0 0 512 512;" xml:space="preserve">
<style type="text/css">
	.st0{fill:#F0C48A;}
	.st1{fill:#FD919E;}
	.st2{fill:#E8677D;}
	.st3{fill:#4C4372;}
	.st4{fill:#D3E6F8;}
	.st5{fill:#A4CFF2;}
	.st6{fill:#FFFFFF;}
	.st7{fill:#7BABF1;}
</style>
<g>
	<circle class="st0" cx="256" cy="256" r="207"/>
	<g>
		<g>
			<g>
				<rect x="211.384" y="395.3" class="st1" width="89.231" height="70.524"/>
			</g>
			<g>
				<rect x="267.311" y="396.812" class="st2" width="33.305" height="63.55"/>
			</g>
			<g>
				<path class="st2" d="M339.601,506.137H172.399v-19.659c0-11.408,9.248-20.655,20.655-20.655h125.891
					c11.408,0,20.655,9.248,20.655,20.655V506.137z"/>
			</g>
			<g>
				<path class="st3" d="M300.616,471.686h-89.231c-3.238,0-5.863-2.625-5.863-5.863V395.3c0-3.238,2.625-5.863,5.863-5.863h89.231
					c3.238,0,5.863,2.625,5.863,5.863v70.524C306.478,469.061,303.853,471.686,300.616,471.686z M217.247,459.961h77.506v-58.799
					h-77.506V459.961z"/>
			</g>
			<g>
				<path class="st3" d="M339.601,512H172.399c-3.238,0-5.863-2.625-5.863-5.863v-19.658c0-14.622,11.896-26.518,26.518-26.518
					h125.891c14.622,0,26.518,11.896,26.518,26.518v19.658C345.464,509.375,342.839,512,339.601,512z M178.262,500.275h155.477
					v-13.796c0-8.156-6.636-14.793-14.793-14.793H193.054c-8.156,0-14.793,6.636-14.793,14.793V500.275z"/>
			</g>
		</g>
		<g>
			<g>
				<path class="st4" d="M421.363,395.617H90.637c-16.3,0-29.514-13.214-29.514-29.514V35.377c0-16.3,13.214-29.514,29.514-29.514
					h330.727c16.3,0,29.514,13.214,29.514,29.514v330.727C450.877,382.404,437.664,395.617,421.363,395.617z"/>
			</g>
			<g>
				<path class="st5" d="M421.055,395.617h-10.338V6.01h10.338c14.117,0,25.561,11.444,25.561,25.561v338.485
					C446.616,384.173,435.172,395.617,421.055,395.617z"/>
			</g>
			<g>
				<g>
					<rect x="280.559" y="42.306" class="st6" width="133.875" height="133.282"/>
				</g>
				<g>
					<rect x="97.566" y="42.306" class="st6" width="130.136" height="133.282"/>
				</g>
				<g>
					<rect x="280.559" y="228.444" class="st6" width="133.875" height="130.729"/>
				</g>
				<g>
					<rect x="97.566" y="228.444" class="st6" width="130.136" height="130.729"/>
				</g>
			</g>
			<g>
				<g>
					<rect x="395.619" y="42.48" class="st4" width="18.695" height="133.108"/>
				</g>
				<g>
					<rect x="353.907" y="42.48" class="st4" width="18.695" height="133.108"/>
				</g>
				<g>
					<rect x="306.109" y="42.48" class="st4" width="18.695" height="133.108"/>
				</g>
			</g>
			<g>
				<g>
					<rect x="209.619" y="42.48" class="st4" width="18.695" height="133.108"/>
				</g>
				<g>
					<rect x="167.907" y="42.48" class="st4" width="18.695" height="133.108"/>
				</g>
				<g>
					<rect x="120.109" y="42.48" class="st4" width="18.695" height="133.108"/>
				</g>
			</g>
			<g>
				<g>
					<rect x="395.619" y="227.255" class="st4" width="18.695" height="133.108"/>
				</g>
				<g>
					<rect x="353.907" y="227.255" class="st4" width="18.695" height="133.108"/>
				</g>
				<g>
					<rect x="306.109" y="227.255" class="st4" width="18.695" height="133.108"/>
				</g>
			</g>
			<g>
				<g>
					<rect x="209.619" y="227.255" class="st4" width="18.695" height="133.108"/>
				</g>
				<g>
					<rect x="167.907" y="227.255" class="st4" width="18.695" height="133.108"/>
				</g>
				<g>
					<rect x="120.109" y="227.255" class="st4" width="18.695" height="133.108"/>
				</g>
			</g>
			<g>
				<path class="st3" d="M421.363,401.48H90.637c-19.507,0-35.376-15.87-35.376-35.377V35.377C55.261,15.87,71.13,0,90.637,0
					h330.727c19.507,0,35.376,15.87,35.376,35.377v330.726C456.74,385.61,440.87,401.48,421.363,401.48z M90.637,11.725
					c-13.041,0-23.651,10.61-23.651,23.652v330.726c0,13.042,10.61,23.652,23.651,23.652h330.727
					c13.041,0,23.651-10.61,23.651-23.652V35.377c0-13.042-10.61-23.652-23.651-23.652H90.637z"/>
			</g>
			<g>
				<g>
					<path class="st3" d="M414.433,181.45H280.558c-3.238,0-5.863-2.625-5.863-5.863V42.306c0-3.238,2.625-5.863,5.863-5.863
						h133.875c3.238,0,5.863,2.625,5.863,5.863v133.281C420.296,178.825,417.671,181.45,414.433,181.45z M286.421,169.725h122.15
						V48.169h-122.15V169.725z"/>
				</g>
				<g>
					<path class="st3" d="M227.702,181.45H97.567c-3.238,0-5.863-2.625-5.863-5.863V42.306c0-3.238,2.625-5.863,5.863-5.863h130.135
						c3.238,0,5.863,2.625,5.863,5.863v133.281C233.565,178.825,230.94,181.45,227.702,181.45z M103.429,169.725h118.41V48.169
						h-118.41V169.725z"/>
				</g>
				<g>
					<path class="st3" d="M414.433,365.036H280.558c-3.238,0-5.863-2.625-5.863-5.863V228.445c0-3.238,2.625-5.863,5.863-5.863
						h133.875c3.238,0,5.863,2.625,5.863,5.863v130.729C420.296,362.411,417.671,365.036,414.433,365.036z M286.421,353.311h122.15
						V234.307h-122.15V353.311z"/>
				</g>
				<g>
					<path class="st3" d="M227.702,365.036H97.567c-3.238,0-5.863-2.625-5.863-5.863V228.445c0-3.238,2.625-5.863,5.863-5.863
						h130.135c3.238,0,5.863,2.625,5.863,5.863v130.729C233.565,362.411,230.94,365.036,227.702,365.036z M103.429,353.311h118.41
						V234.307h-118.41V353.311z"/>
				</g>
			</g>
			<g>
				<g>
					<g>
						<path class="st3" d="M139.94,181.45c-3.238,0-5.863-2.625-5.863-5.863V42.306c0-3.238,2.625-5.863,5.863-5.863
							c3.238,0,5.863,2.625,5.863,5.863v133.281C145.803,178.825,143.178,181.45,139.94,181.45z"/>
					</g>
					<g>
						<path class="st3" d="M187.196,181.45c-3.238,0-5.863-2.625-5.863-5.863V42.306c0-3.238,2.625-5.863,5.863-5.863
							s5.863,2.625,5.863,5.863v133.281C193.058,178.825,190.433,181.45,187.196,181.45z"/>
					</g>
				</g>
				<g>
					<g>
						<path class="st3" d="M324.804,181.45c-3.238,0-5.863-2.625-5.863-5.863V42.306c0-3.238,2.625-5.863,5.863-5.863
							c3.238,0,5.863,2.625,5.863,5.863v133.281C330.667,178.825,328.042,181.45,324.804,181.45z"/>
					</g>
					<g>
						<path class="st3" d="M372.06,181.45c-3.238,0-5.863-2.625-5.863-5.863V42.306c0-3.238,2.625-5.863,5.863-5.863
							c3.238,0,5.863,2.625,5.863,5.863v133.281C377.923,178.825,375.298,181.45,372.06,181.45z"/>
					</g>
				</g>
				<g>
					<g>
						<path class="st3" d="M139.94,365.036c-3.238,0-5.863-2.625-5.863-5.863V228.431c0-3.238,2.625-5.863,5.863-5.863
							c3.238,0,5.863,2.625,5.863,5.863v130.742C145.803,362.411,143.178,365.036,139.94,365.036z"/>
					</g>
					<g>
						<path class="st3" d="M187.196,365.036c-3.238,0-5.863-2.625-5.863-5.863V228.431c0-3.238,2.625-5.863,5.863-5.863
							s5.863,2.625,5.863,5.863v130.742C193.058,362.411,190.433,365.036,187.196,365.036z"/>
					</g>
				</g>
				<g>
					<g>
						<path class="st3" d="M324.804,365.036c-3.238,0-5.863-2.625-5.863-5.863V228.431c0-3.238,2.625-5.863,5.863-5.863
							c3.238,0,5.863,2.625,5.863,5.863v130.742C330.667,362.411,328.042,365.036,324.804,365.036z"/>
					</g>
					<g>
						<path class="st3" d="M372.06,365.036c-3.238,0-5.863-2.625-5.863-5.863V228.431c0-3.238,2.625-5.863,5.863-5.863
							c3.238,0,5.863,2.625,5.863,5.863v130.742C377.923,362.411,375.298,365.036,372.06,365.036z"/>
					</g>
				</g>
			</g>
		</g>
	</g>
</g>
</svg>
