<?xml version="1.0" encoding="utf-8"?>
<!-- Generator: Adobe Illustrator 18.0.0, SVG Export Plug-In . SVG Version: 6.00 Build 0)  -->
<!DOCTYPE svg PUBLIC "-//W3C//DTD SVG 1.1//EN" "http://www.w3.org/Graphics/SVG/1.1/DTD/svg11.dtd">
<svg version="1.1" id="Icon_Set" xmlns="http://www.w3.org/2000/svg" xmlns:xlink="http://www.w3.org/1999/xlink" x="0px" y="0px"
	 viewBox="0 0 512 512" style="enable-background:new 0 0 512 512;" xml:space="preserve">
<style type="text/css">
	.st0{fill:#F0C48A;}
	.st1{fill:#FD919E;}
	.st2{fill:#E8677D;}
	.st3{fill:#4C4372;}
	.st4{fill:#D3E6F8;}
	.st5{fill:#A4CFF2;}
	.st6{fill:#FFFFFF;}
	.st7{fill:#7BABF1;}
</style>
<g>
	<circle class="st0" cx="256.208" cy="256.104" r="207"/>
	<g>
		<g>
			<path class="st4" d="M72.41,6L72.41,6H7.157L71,165.888v277.601C71,478.178,100.532,506,135.221,506h202.621
				c34.69,0,62.157-27.822,62.157-62.511V6H72.41z"/>
		</g>
		<g>
			<path class="st5" d="M344,6v437.489c0,34.69-26.834,62.511-61.524,62.511h55.366c34.69,0,62.157-27.822,62.157-62.511V6H344z"/>
		</g>
		<g>
			<path class="st1" d="M135.221,506h202.621c34.69,0,62.157-27.822,62.157-62.511V187H71v256.489
				C71,478.178,100.532,506,135.221,506z"/>
		</g>
		<g>
			<path class="st2" d="M344,443.489c0,34.69-26.834,62.511-61.524,62.511h55.366c34.69,0,62.157-27.822,62.157-62.511V187h-56
				V443.489z"/>
		</g>
		<g>
			<path class="st7" d="M400.654,5.966h26.2c43.41,0,78.6,35.191,78.6,78.6v173.514c0,12.013-9.738,21.751-21.751,21.751l0,0
				c-12.013,0-21.751-9.738-21.751-21.751V82.589c0-18.838-15.271-34.11-34.11-34.11h-27.189V5.966z"/>
		</g>
		<g>
			<path class="st3" d="M483.704,285.695c-15.226,0-27.614-12.387-27.614-27.613V82.589c0-15.575-12.672-28.247-28.247-28.247
				h-27.189c-3.238,0-5.863-2.625-5.863-5.862V5.966c0-3.238,2.625-5.863,5.863-5.863h26.2c46.573,0,84.463,37.89,84.463,84.463
				v173.514C511.317,273.307,498.93,285.695,483.704,285.695z M406.517,42.617h21.326c22.041,0,39.972,17.931,39.972,39.972v175.492
				c0,8.761,7.128,15.888,15.888,15.888s15.888-7.127,15.888-15.888V84.567c0-40.108-32.63-72.738-72.738-72.738h-20.338V42.617z"/>
		</g>
		<g>
			<path class="st3" d="M345.222,88h-41.038c-3.238,0-5.863-2.762-5.863-6c0-3.238,2.625-6,5.863-6h41.038
				c3.238,0,5.863,2.762,5.863,6C351.084,85.238,348.459,88,345.222,88z"/>
		</g>
		<g>
			<path class="st3" d="M345.222,141h-20.519c-3.238,0-5.863-2.762-5.863-6c0-3.238,2.625-6,5.863-6h20.519
				c3.238,0,5.863,2.762,5.863,6C351.084,138.238,348.459,141,345.222,141z"/>
		</g>
		<g>
			<path class="st3" d="M345.222,245h-20.519c-3.238,0-5.863-2.262-5.863-5.5c0-3.238,2.625-5.5,5.863-5.5h20.519
				c3.238,0,5.863,2.262,5.863,5.5C351.084,242.738,348.459,245,345.222,245z"/>
		</g>
		<g>
			<path class="st3" d="M345.222,297h-41.038c-3.238,0-5.863-2.762-5.863-6c0-3.238,2.625-6,5.863-6h41.038
				c3.238,0,5.863,2.762,5.863,6C351.084,294.238,348.459,297,345.222,297z"/>
		</g>
		<g>
			<path class="st3" d="M345.222,350h-20.519c-3.238,0-5.863-2.762-5.863-6c0-3.238,2.625-6,5.863-6h20.519
				c3.238,0,5.863,2.762,5.863,6C351.084,347.238,348.459,350,345.222,350z"/>
		</g>
		<g>
			<path class="st3" d="M345.222,403h-41.038c-3.238,0-5.863-2.762-5.863-6s2.625-6,5.863-6h41.038c3.238,0,5.863,2.762,5.863,6
				S348.459,403,345.222,403z"/>
		</g>
		<g>
			<path class="st3" d="M337.843,512H135.221C97.465,512,65,481.323,65,443.489V186.73c0-3.238,4.373-5.73,7.611-5.73h328.305
				c3.238,0,4.083,2.491,4.083,5.73v256.76C405,481.323,375.854,512,337.843,512z M77,192v251.489
				C77,474.858,103.931,500,135.221,500h202.622C369.389,500,394,474.858,394,443.489V192H77z"/>
		</g>
		<g>
			<path class="st3" d="M337.843,512H135.221C97.465,512,65,481.323,65,443.489V167.042L0.857,8.187
				c-0.74-1.808-0.094-3.918,0.995-5.54C2.941,1.025,5.203,0,7.157,0h393.76C404.154,0,405,2.729,405,5.966v437.523
				C405,481.323,375.854,512,337.843,512z M15.891,12L77.3,163.753c0.289,0.705-0.3,1.374-0.3,2.135v277.601
				C77,474.858,103.931,500,135.221,500h202.622C369.389,500,394,474.858,394,443.489V12H15.891z"/>
		</g>
	</g>
</g>
</svg>
