<?xml version="1.0" encoding="utf-8"?>
<!-- Generator: Adobe Illustrator 18.0.0, SVG Export Plug-In . SVG Version: 6.00 Build 0)  -->
<!DOCTYPE svg PUBLIC "-//W3C//DTD SVG 1.1//EN" "http://www.w3.org/Graphics/SVG/1.1/DTD/svg11.dtd">
<svg version="1.1" id="Icon_Set" xmlns="http://www.w3.org/2000/svg" xmlns:xlink="http://www.w3.org/1999/xlink" x="0px" y="0px"
	 viewBox="0 0 512 512" style="enable-background:new 0 0 512 512;" xml:space="preserve">
<style type="text/css">
	.st0{fill:#F0C48A;}
	.st1{fill:#FD919E;}
	.st2{fill:#E8677D;}
	.st3{fill:#4C4372;}
	.st4{fill:#D3E6F8;}
	.st5{fill:#A4CFF2;}
	.st6{fill:#FFFFFF;}
	.st7{fill:#7BABF1;}
</style>
<g>
	<circle class="st0" cx="256" cy="256" r="207"/>
	<g>
		<g>
			<rect x="6.846" y="74.481" class="st1" width="499.218" height="32.991"/>
		</g>
		<g>
			<rect x="476.221" y="75.676" class="st2" width="29.681" height="35.618"/>
		</g>
		<g>
			<path class="st6" d="M449.114,507.528H66.02c-34.095,0-61.735-27.64-61.735-61.735v-70.711h506.564v70.711
				C510.849,479.888,483.209,507.528,449.114,507.528z"/>
		</g>
		<g>
			<path class="st4" d="M473.275,505.721c14.595-6.448,26.263-18.303,32.445-33.04V376.89h-32.445V505.721z"/>
		</g>
		<g>
			<path class="st3" d="M500.022,380.397H11.835c-3.279,0-5.936-2.658-5.936-5.936s2.657-5.936,5.936-5.936h488.187
				c3.278,0,5.936,2.658,5.936,5.936S503.3,380.397,500.022,380.397z"/>
		</g>
		<g>
			<path class="st3" d="M506.064,81.692H6.846c-3.278,0-5.936-2.658-5.936-5.936c0-3.278,2.658-5.936,5.936-5.936h499.218
				c3.278,0,5.936,2.658,5.936,5.936C512,79.034,509.342,81.692,506.064,81.692z"/>
		</g>
		<g>
			<path class="st3" d="M506.064,113.409H6.846c-3.278,0-5.936-2.658-5.936-5.936c0-3.278,2.658-5.936,5.936-5.936h499.218
				c3.278,0,5.936,2.658,5.936,5.936C512,110.751,509.342,113.409,506.064,113.409z"/>
		</g>
		<g>
			<path class="st4" d="M305.985,169.973h-99.97V59.324c0-12.137,9.839-21.976,21.975-21.976h56.019
				c12.137,0,21.975,9.839,21.975,21.976V169.973z"/>
		</g>
		<g>
			<path class="st5" d="M308.341,170.925h-30.089V32.712l0,0c16.618,0,30.089,13.472,30.089,30.089V170.925z"/>
		</g>
		<g>
			<polygon class="st7" points="258.715,234.099 253.284,234.099 233.748,213.038 233.748,169.973 278.252,169.973 278.252,213.038 
							"/>
		</g>
		<g>
			<g>
				<polygon class="st1" points="158.358,426.909 256,483.283 256,370.534 160.574,316.498 				"/>
			</g>
			<g>
				<polygon class="st5" points="353.642,426.909 256,483.283 256,370.534 351.426,316.498 				"/>
			</g>
			<g>
				<polygon class="st7" points="339.378,322.397 339.378,433.666 353.642,423.947 351.426,316.498 				"/>
			</g>
			<g>
				<path class="st4" d="M161.481,310.867c0,0,0.889,5.611,4.397,7.636c3.508,2.025,85.175,49.572,85.175,49.572h11.964
					l85.044-51.577l2.91-5.632l-90.763-50.649h-8.418L161.481,310.867z"/>
			</g>
			<g>
				<path class="st5" d="M242.862,265.373l96.516,57.024l11.594-11.53l-90.763-50.649
					C260.209,260.218,247.894,262.468,242.862,265.373z"/>
			</g>
			<g>
				<path class="st3" d="M256,489.219c-1.025,0-2.05-0.265-2.968-0.795L155.39,432.05c-1.837-1.061-2.968-3.02-2.968-5.141V314.161
					c0-2.121,1.131-4.08,2.968-5.141l97.642-56.374c1.837-1.061,4.1-1.061,5.936,0l97.642,56.374
					c1.837,1.061,2.968,3.02,2.968,5.141v112.748c0,2.121-1.131,4.08-2.968,5.141l-97.642,56.374
					C258.05,488.954,257.025,489.219,256,489.219z M164.294,423.482L256,476.429l91.705-52.947V317.588L256,264.642l-91.706,52.947
					V423.482z"/>
			</g>
			<g>
				<path class="st3" d="M256.005,376.472c-2.052,0-4.047-1.065-5.146-2.969c-1.639-2.84-0.666-6.47,2.173-8.109l97.642-56.374
					c2.84-1.638,6.471-0.665,8.109,2.173c1.639,2.84,0.667,6.47-2.173,8.109l-97.642,56.374
					C258.033,376.215,257.013,376.472,256.005,376.472z"/>
			</g>
			<g>
				<path class="st3" d="M256,489.219c-3.278,0-5.936-2.658-5.936-5.936V373.962l-94.674-54.66c-2.839-1.64-3.812-5.27-2.173-8.109
					c1.639-2.84,5.271-3.813,8.109-2.173l97.642,56.374c1.837,1.061,2.968,3.02,2.968,5.141v112.748
					C261.936,486.561,259.278,489.219,256,489.219z"/>
			</g>
		</g>
		<g>
			<path class="st3" d="M305.985,175.909h-99.97c-3.278,0-5.936-2.658-5.936-5.936V59.324c0-15.39,12.521-27.912,27.911-27.912
				h56.02c15.391,0,27.911,12.522,27.911,27.912v110.649C311.921,173.251,309.263,175.909,305.985,175.909z M211.951,164.037h88.098
				V59.324c0-8.844-7.195-16.04-16.039-16.04h-56.02c-8.844,0-16.039,7.195-16.039,16.04V164.037z"/>
		</g>
		<g>
			<path class="st3" d="M258.715,240.036h-5.43c-1.652,0-3.229-0.688-4.352-1.9l-19.537-21.061
				c-1.018-1.098-1.584-2.539-1.584-4.037v-43.065c0-3.278,2.658-5.936,5.936-5.936h44.503c3.278,0,5.936,2.658,5.936,5.936v43.065
				c0,1.498-0.566,2.939-1.585,4.037l-19.536,21.061C261.944,239.348,260.367,240.036,258.715,240.036z M255.875,228.163h0.25
				l16.191-17.454v-34.799h-32.631v34.799L255.875,228.163z"/>
		</g>
		<g>
			<path class="st3" d="M305.985,125.345h-98.347c-3.278,0-5.936-2.658-5.936-5.936c0-3.278,2.658-5.936,5.936-5.936h98.347
				c3.278,0,5.936,2.658,5.936,5.936C311.921,122.687,309.263,125.345,305.985,125.345z"/>
		</g>
		<g>
			<path class="st3" d="M458.366,512H53.634C24.06,512,0,487.94,0,458.366V53.633C0,24.06,24.06,0,53.634,0h404.733
				C487.94,0,512,24.06,512,53.633v404.733C512,487.94,487.94,512,458.366,512z M53.634,11.873
				c-23.027,0-41.761,18.734-41.761,41.761v404.733c0,23.027,18.734,41.761,41.761,41.761h404.733
				c23.027,0,41.761-18.734,41.761-41.761V53.633c0-23.027-18.734-41.761-41.761-41.761H53.634z"/>
		</g>
	</g>
</g>
</svg>
