<?xml version="1.0" encoding="utf-8"?>
<!-- Generator: Adobe Illustrator 18.0.0, SVG Export Plug-In . SVG Version: 6.00 Build 0)  -->
<!DOCTYPE svg PUBLIC "-//W3C//DTD SVG 1.1//EN" "http://www.w3.org/Graphics/SVG/1.1/DTD/svg11.dtd">
<svg version="1.1" id="Icon_Set" xmlns="http://www.w3.org/2000/svg" xmlns:xlink="http://www.w3.org/1999/xlink" x="0px" y="0px"
	 viewBox="0 0 512 512" style="enable-background:new 0 0 512 512;" xml:space="preserve">
<style type="text/css">
	.st0{fill:#F0C48A;}
	.st1{fill:#FD919E;}
	.st2{fill:#E8677D;}
	.st3{fill:#4C4372;}
	.st4{fill:#D3E6F8;}
	.st5{fill:#A4CFF2;}
	.st6{fill:#FFFFFF;}
	.st7{fill:#7BABF1;}
</style>
<g>
	<circle class="st0" cx="256" cy="256" r="207"/>
	<g>
		<g>
			<path class="st4" d="M44.947,146.778v-11.164c0-19.068,15.601-34.668,34.668-34.668h352.77c19.068,0,34.668,15.601,34.668,34.668
				V357.98H44.947V190.363V146.778z"/>
		</g>
		<g>
			<path class="st7" d="M435.786,101.116v256.503h31.267V135.614C467.053,117.694,453.273,102.839,435.786,101.116z"/>
		</g>
		<g>
			<rect x="75.725" y="128.977" class="st6" width="360.55" height="229.003"/>
		</g>
		<g>
			<g>
				<path class="st1" d="M339.054,260.22v-24.074h-21.256c-1.635-8.439-4.943-16.282-9.584-23.154l15.025-15.025l-17.023-17.023
					l-15.025,15.025c-6.873-4.641-14.716-7.949-23.155-9.583V165.13h-24.073v21.256c-8.44,1.635-16.282,4.942-23.155,9.583
					l-15.025-15.025l-17.022,17.023l15.025,15.025c-4.641,6.872-7.948,14.715-9.583,23.154h-21.256v24.074h21.256
					c1.634,8.439,4.943,16.282,9.583,23.155L188.761,298.4l17.022,17.023l15.025-15.026c6.872,4.642,14.715,7.949,23.155,9.584
					v21.255h24.073v-21.255c8.44-1.635,16.282-4.943,23.155-9.584l15.025,15.026l17.023-17.023l-15.025-15.025
					c4.642-6.873,7.949-14.716,9.584-23.155H339.054z M255.598,278.994c-17.016,0-30.81-13.795-30.81-30.811
					s13.794-30.81,30.81-30.81c17.017,0,30.811,13.794,30.811,30.81S272.615,278.994,255.598,278.994z"/>
			</g>
			<g>
				<g>
					<path class="st3" d="M255.598,284.856c-20.221,0-36.673-16.452-36.673-36.673c0-20.221,16.451-36.673,36.673-36.673
						c20.222,0,36.673,16.451,36.673,36.673C292.271,268.405,275.82,284.856,255.598,284.856z M255.598,223.236
						c-13.756,0-24.948,11.191-24.948,24.947c0,13.756,11.191,24.948,24.948,24.948c13.756,0,24.948-11.192,24.948-24.948
						C280.546,234.427,269.354,223.236,255.598,223.236z"/>
				</g>
				<g>
					<path class="st3" d="M268.036,337.099h-24.073c-3.238,0-5.863-2.625-5.863-5.863v-16.593
						c-5.773-1.545-11.275-3.822-16.443-6.805l-11.729,11.73c-1.099,1.099-2.591,1.717-4.146,1.717
						c-1.555,0-3.046-0.618-4.145-1.717l-17.022-17.023c-2.29-2.289-2.29-6.001,0-8.291l11.729-11.729
						c-2.984-5.169-5.26-10.671-6.805-16.442h-16.594c-3.238,0-5.863-2.625-5.863-5.863v-24.074c0-3.238,2.625-5.863,5.863-5.863
						h16.594c1.544-5.772,3.822-11.274,6.805-16.443l-11.729-11.729c-2.29-2.289-2.29-6.001,0-8.291l17.022-17.022
						c2.289-2.29,6.001-2.29,8.291,0l11.729,11.729c5.168-2.983,10.67-5.26,16.443-6.805V165.13c0-3.238,2.625-5.863,5.863-5.863
						h24.073c3.238,0,5.863,2.625,5.863,5.863v16.593c5.771,1.544,11.274,3.821,16.443,6.805l11.729-11.729
						c2.29-2.29,6.001-2.289,8.291,0l17.022,17.022c2.29,2.289,2.29,6.001,0,8.291l-11.729,11.729
						c2.984,5.168,5.26,10.67,6.805,16.443h16.593c3.238,0,5.863,2.625,5.863,5.863v24.074c0,3.238-2.625,5.863-5.863,5.863H322.46
						c-1.545,5.772-3.822,11.274-6.805,16.443l11.729,11.729c2.29,2.289,2.29,6.001,0,8.291l-17.022,17.023
						c-1.099,1.1-2.591,1.717-4.146,1.717c-1.555,0-3.046-0.618-4.146-1.717l-11.729-11.729c-5.168,2.984-10.67,5.26-16.443,6.805
						v16.593C273.899,334.474,271.274,337.099,268.036,337.099z M249.826,325.374h12.348v-15.393c0-2.808,1.991-5.222,4.748-5.755
						c7.561-1.465,14.622-4.387,20.989-8.687c2.326-1.572,5.441-1.272,7.427,0.713l10.879,10.88l8.731-8.732l-10.879-10.879
						c-1.985-1.985-2.284-5.1-0.713-7.426c4.3-6.367,7.222-13.429,8.687-20.989c0.534-2.756,2.948-4.747,5.756-4.747h15.393v-12.349
						h-15.393c-2.808,0-5.221-1.991-5.756-4.748c-1.465-7.561-4.387-14.622-8.687-20.989c-1.572-2.327-1.272-5.441,0.713-7.426
						l10.879-10.88l-8.731-8.731l-10.879,10.879c-1.986,1.986-5.099,2.284-7.426,0.713c-6.369-4.3-13.431-7.223-20.989-8.686
						c-2.757-0.534-4.748-2.947-4.748-5.756v-15.394h-12.348v15.394c0,2.808-1.991,5.222-4.748,5.755
						c-7.561,1.465-14.623,4.387-20.988,8.686c-2.328,1.571-5.441,1.272-7.426-0.713l-10.88-10.879l-8.731,8.731l10.879,10.88
						c1.985,1.985,2.284,5.099,0.713,7.426c-4.3,6.367-7.222,13.428-8.687,20.989c-0.534,2.757-2.948,4.748-5.756,4.748h-15.394
						v12.349h15.394c2.808,0,5.222,1.991,5.756,4.748c1.464,7.559,4.387,14.62,8.687,20.989c1.571,2.327,1.272,5.441-0.713,7.426
						L197.052,298.4l8.731,8.732l10.88-10.88c1.985-1.986,5.1-2.284,7.427-0.713c6.365,4.299,13.426,7.222,20.988,8.687
						c2.757,0.534,4.748,2.947,4.748,5.755V325.374z"/>
				</g>
			</g>
		</g>
		<g>
			<path class="st3" d="M467.053,363.843H44.947c-3.238,0-5.863-2.625-5.863-5.863V135.614c0-22.349,18.182-40.531,40.531-40.531
				h352.77c22.349,0,40.531,18.182,40.531,40.531V357.98C472.916,361.218,470.291,363.843,467.053,363.843z M50.809,352.118h410.382
				V135.614c0-15.884-12.922-28.806-28.806-28.806H79.615c-15.884,0-28.806,12.922-28.806,28.806V352.118z"/>
		</g>
		<g>
			<path class="st5" d="M472.131,411.054H39.869c-18.703,0-34.006-15.303-34.006-34.006V357.98h500.275v19.068
				C506.137,395.751,490.834,411.054,472.131,411.054z"/>
		</g>
		<g>
			<path class="st7" d="M6.812,384.977c3.081,12.768,13.409,22.788,26.346,25.405h445.684c12.937-2.616,23.266-12.637,26.346-25.405
				H6.812z"/>
		</g>
		<g>
			<path class="st3" d="M472.131,416.917H39.869C17.885,416.917,0,399.031,0,377.048V357.98c0-3.238,2.625-5.863,5.863-5.863
				h500.275c3.238,0,5.863,2.625,5.863,5.863v19.068C512,399.031,494.115,416.917,472.131,416.917z M11.725,363.843v13.205
				c0,15.519,12.625,28.144,28.144,28.144h432.262c15.519,0,28.144-12.625,28.144-28.144v-13.205H11.725z"/>
		</g>
		<g>
			<path class="st3" d="M436.275,363.843H75.725c-3.238,0-5.863-2.625-5.863-5.863V128.977c0-3.238,2.625-5.863,5.863-5.863h360.55
				c3.238,0,5.863,2.625,5.863,5.863V357.98C442.137,361.218,439.512,363.843,436.275,363.843z M81.588,352.118h348.824V134.84
				H81.588V352.118z"/>
		</g>
	</g>
</g>
</svg>
