<?xml version="1.0" encoding="utf-8"?>
<!-- Generator: Adobe Illustrator 18.0.0, SVG Export Plug-In . SVG Version: 6.00 Build 0)  -->
<!DOCTYPE svg PUBLIC "-//W3C//DTD SVG 1.1//EN" "http://www.w3.org/Graphics/SVG/1.1/DTD/svg11.dtd">
<svg version="1.1" id="Icon_Set" xmlns="http://www.w3.org/2000/svg" xmlns:xlink="http://www.w3.org/1999/xlink" x="0px" y="0px"
	 viewBox="0 0 512 512" style="enable-background:new 0 0 512 512;" xml:space="preserve">
<style type="text/css">
	.st0{fill:#F0C48A;}
	.st1{fill:#FD919E;}
	.st2{fill:#E8677D;}
	.st3{fill:#4C4372;}
	.st4{fill:#D3E6F8;}
	.st5{fill:#A4CFF2;}
	.st6{fill:#FFFFFF;}
	.st7{fill:#7BABF1;}
</style>
<g>
	<circle class="st0" cx="256" cy="256" r="207"/>
	<g>
		<g>
			<path class="st4" d="M506.137,256c0-29.15-11.825-55.537-30.939-74.629c3.694-9.577,5.739-19.973,5.739-30.853
				c0-47.386-38.414-85.799-85.8-85.799c-4.855,0-9.61,0.424-14.245,1.199c-5.079-29.662-30.85-52.259-61.96-52.259
				C284.176,13.659,256,41.834,256,76.591c0-34.757-28.176-62.932-62.932-62.932c-31.111,0-56.882,22.597-61.96,52.259
				c-4.636-0.775-9.39-1.199-14.245-1.199c-47.386,0-85.8,38.414-85.8,85.799c0,10.879,2.046,21.276,5.739,30.853
				C17.688,200.463,5.863,226.85,5.863,256c0,38.493,20.627,72.158,51.422,90.577c-0.849,4.844-1.317,9.818-1.317,14.905
				c0,43.801,32.829,79.91,75.22,85.127c5.291,29.404,30.953,51.732,61.88,51.732c34.757,0,62.932-28.176,62.932-62.932
				c0,34.757,28.176,62.932,62.932,62.932c30.927,0,56.589-22.328,61.88-51.732c42.39-5.217,75.22-41.326,75.22-85.127
				c0-5.087-0.468-10.061-1.317-14.905C485.51,328.158,506.137,294.493,506.137,256z"/>
		</g>
		<g>
			<path class="st7" d="M480.937,150.518c0-47.386-38.414-85.8-85.799-85.8c-4.855,0-9.61,0.424-14.245,1.199
				c-5.079-29.662-30.85-52.259-61.96-52.259c-16.206,0-30.977,6.129-42.132,16.191c51.721-16.313,76.716,19.706,86.501,40.557
				c3.625,7.725,11.125,12.943,19.638,13.535c14.448,1.005,36.945,5.263,54.185,20.821c23.945,21.609,23.556,44.232,19.955,72.71
				c-0.903,7.145,1.365,14.419,6.425,19.544c19.546,19.799,17.64,62.507,17.64,62.507s-6.204,49.132-31.984,63.825
				c-7.794,4.442-12.63,12.754-12.179,21.714c0.747,14.85-2.747,37.125-23.622,59.009c-16.858,17.674-29.131,24.394-37.415,26.545
				c-7.903,2.051-14.275,7.896-16.762,15.673c-5.745,17.962-22.143,44.13-68.942,45.125c8.606,4.418,18.354,6.928,28.694,6.928
				c30.927,0,56.589-22.328,61.88-51.732c42.39-5.217,75.22-41.326,75.22-85.127c0-5.087-0.468-10.061-1.317-14.905
				c30.796-18.42,51.422-52.084,51.422-90.577c0-29.15-11.825-55.538-30.939-74.629
				C478.892,171.793,480.937,161.397,480.937,150.518z"/>
		</g>
		<g>
			<path class="st3" d="M256,441.272c-3.238,0-5.863-2.625-5.863-5.863V76.591c0-3.238,2.625-5.863,5.863-5.863
				c3.238,0,5.863,2.625,5.863,5.863v358.818C261.863,438.647,259.238,441.272,256,441.272z"/>
		</g>
		<g>
			<g>
				<path class="st1" d="M393.672,275.953v-39.906h-35.235c-2.71-13.989-8.193-26.989-15.887-38.381l24.906-24.906l-28.217-28.217
					l-24.905,24.906c-11.393-7.693-24.393-13.176-38.383-15.886v-35.235h-39.904v35.235c-13.99,2.71-26.99,8.192-38.382,15.886
					l-24.906-24.906l-28.216,28.217l24.905,24.906c-7.693,11.392-13.176,24.392-15.886,38.381h-35.235v39.906h35.235
					c2.709,13.989,8.193,26.989,15.886,38.382l-24.905,24.905l28.216,28.218l24.906-24.907
					c11.392,7.694,24.392,13.177,38.382,15.887v35.234h39.904v-35.234c13.99-2.71,26.99-8.193,38.383-15.887l24.905,24.907
					l28.217-28.218l-24.906-24.905c7.694-11.393,13.176-24.393,15.887-38.382H393.672z M255.334,307.072
					c-28.206,0-51.071-22.866-51.071-51.072s22.865-51.071,51.071-51.071c28.207,0,51.072,22.865,51.072,51.071
					S283.541,307.072,255.334,307.072z"/>
			</g>
			<g>
				<g>
					<path class="st3" d="M255.334,312.935c-31.393,0-56.934-25.541-56.934-56.935c0-31.394,25.54-56.934,56.934-56.934
						c31.394,0,56.935,25.541,56.935,56.934C312.269,287.394,286.728,312.935,255.334,312.935z M255.334,210.791
						c-24.928,0-45.208,20.281-45.208,45.209c0,24.929,20.281,45.21,45.208,45.21c24.929,0,45.21-20.281,45.21-45.21
						C300.544,231.072,280.263,210.791,255.334,210.791z"/>
				</g>
				<g>
					<path class="st3" d="M275.951,399.534h-39.904c-3.238,0-5.863-2.625-5.863-5.863v-30.505
						c-11.246-2.69-21.877-7.09-31.716-13.126l-21.563,21.564c-1.099,1.099-2.591,1.717-4.146,1.717l0,0
						c-1.555,0-3.046-0.618-4.146-1.717l-28.216-28.218c-2.29-2.29-2.29-6.001,0-8.291l21.563-21.563
						c-6.037-9.841-10.437-20.473-13.126-31.716h-30.506c-3.238,0-5.863-2.625-5.863-5.863v-39.905c0-3.238,2.625-5.863,5.863-5.863
						h30.506c2.69-11.244,7.091-21.878,13.126-31.717l-21.563-21.563c-2.29-2.29-2.29-6.001,0-8.291l28.216-28.216
						c2.289-2.289,6.001-2.289,8.291,0l21.563,21.563c9.839-6.035,20.472-10.436,31.716-13.126v-30.506
						c0-3.238,2.625-5.863,5.863-5.863h39.904c3.238,0,5.863,2.625,5.863,5.863v30.506c11.244,2.689,21.876,7.089,31.718,13.127
						l21.563-21.563c2.29-2.289,6.001-2.289,8.291,0l28.217,28.216c1.099,1.099,1.717,2.591,1.717,4.145
						c0,1.555-0.618,3.046-1.717,4.146l-21.563,21.563c6.036,9.839,10.437,20.471,13.126,31.717h30.505
						c3.238,0,5.863,2.625,5.863,5.863v39.905c0,3.238-2.625,5.863-5.863,5.863h-30.505c-2.69,11.244-7.091,21.877-13.126,31.716
						l21.563,21.563c2.29,2.29,2.29,6.001,0,8.291l-28.217,28.218c-1.099,1.099-2.591,1.717-4.146,1.717s-3.046-0.618-4.146-1.717
						l-21.563-21.564c-9.839,6.036-20.473,10.436-31.718,13.126v30.505C281.814,396.909,279.189,399.534,275.951,399.534z
						 M241.91,387.809h28.179v-29.371c0-2.808,1.991-5.222,4.748-5.756c13.045-2.527,25.23-7.57,36.217-14.989
						c2.327-1.572,5.441-1.273,7.426,0.713l20.76,20.762l19.926-19.927l-20.76-20.76c-1.985-1.985-2.284-5.1-0.713-7.427
						c7.419-10.986,12.462-23.171,14.989-36.215c0.534-2.757,2.948-4.748,5.756-4.748h29.371v-28.18h-29.371
						c-2.808,0-5.222-1.991-5.756-4.748c-2.527-13.046-7.57-25.23-14.989-36.216c-1.572-2.327-1.272-5.441,0.713-7.426l20.76-20.761
						l-19.926-19.925l-20.76,20.76c-1.986,1.985-5.101,2.284-7.426,0.713c-10.99-7.42-23.175-12.463-36.217-14.988
						c-2.757-0.534-4.748-2.947-4.748-5.756v-29.372H241.91v29.372c0,2.808-1.991,5.222-4.748,5.756
						c-13.045,2.527-25.23,7.57-36.215,14.988c-2.328,1.572-5.441,1.272-7.427-0.713l-20.761-20.76l-19.925,19.925l20.76,20.761
						c1.985,1.986,2.284,5.1,0.713,7.426c-7.418,10.986-12.461,23.17-14.988,36.216c-0.534,2.757-2.948,4.748-5.756,4.748h-29.372
						v28.18h29.372c2.808,0,5.222,1.991,5.756,4.748c2.526,13.041,7.568,25.226,14.989,36.215c1.571,2.327,1.272,5.441-0.713,7.426
						l-20.76,20.76l19.926,19.927l20.761-20.762c1.986-1.985,5.101-2.285,7.427-0.713c10.985,7.419,23.17,12.462,36.215,14.989
						c2.757,0.534,4.748,2.948,4.748,5.756V387.809z"/>
				</g>
			</g>
		</g>
		<g>
			<g>
				<path class="st3" d="M90.741,155.45c-3.238,0-5.863-2.625-5.863-5.863s2.625-5.863,5.863-5.863
					c30.952,0,56.133-25.181,56.133-56.132c0-3.238,2.625-5.863,5.863-5.863c3.238,0,5.863,2.625,5.863,5.863
					C158.598,125.009,128.157,155.45,90.741,155.45z"/>
			</g>
			<g>
				<path class="st3" d="M421.259,155.45c-37.417,0-67.858-30.441-67.858-67.857c0-3.238,2.625-5.863,5.863-5.863
					c3.238,0,5.863,2.625,5.863,5.863c0,30.951,25.181,56.132,56.133,56.132c3.238,0,5.863,2.625,5.863,5.863
					S424.497,155.45,421.259,155.45z"/>
			</g>
		</g>
		<g>
			<g>
				<path class="st3" d="M152.736,429.759c-3.238,0-5.863-2.625-5.863-5.863c0-30.952-25.181-56.133-56.133-56.133
					c-3.238,0-5.863-2.625-5.863-5.863s2.625-5.863,5.863-5.863c37.417,0,67.858,30.441,67.858,67.858
					C158.598,427.134,155.973,429.759,152.736,429.759z"/>
			</g>
			<g>
				<path class="st3" d="M359.264,429.759c-3.238,0-5.863-2.625-5.863-5.863c0-37.417,30.441-67.858,67.858-67.858
					c3.238,0,5.863,2.625,5.863,5.863s-2.625,5.863-5.863,5.863c-30.952,0-56.133,25.181-56.133,56.133
					C365.127,427.134,362.502,429.759,359.264,429.759z"/>
			</g>
		</g>
		<g>
			<path class="st3" d="M318.932,504.204c-28.052,0-52.236-16.876-62.932-41.009c-10.697,24.133-34.88,41.009-62.932,41.009
				c-31.874,0-59.302-21.786-66.767-52.386c-43.727-7.426-76.196-45.539-76.196-90.335c0-3.948,0.268-7.96,0.799-11.973
				c-14.75-9.555-27.128-22.538-35.95-37.752C5.171,294.887,0,275.607,0,256c0-28.509,10.639-55.376,30.043-76.077
				c-3.215-9.475-4.843-19.349-4.843-29.406c0-50.543,41.119-91.662,91.662-91.662c3.188,0,6.417,0.174,9.651,0.519
				c7.738-30.205,34.88-51.578,66.554-51.578c28.052,0,52.236,16.876,62.932,41.009c10.697-24.133,34.88-41.009,62.932-41.009
				c31.674,0,58.816,21.374,66.554,51.578c3.234-0.344,6.464-0.519,9.651-0.519c50.543,0,91.662,41.119,91.662,91.662
				c0,10.057-1.628,19.93-4.843,29.406C501.361,200.624,512,227.491,512,256c0,19.607-5.171,38.887-14.954,55.757
				c-8.823,15.214-21.2,28.197-35.95,37.752c0.531,4.013,0.799,8.025,0.799,11.973c0,44.796-32.469,82.909-76.196,90.335
				C378.235,482.418,350.806,504.204,318.932,504.204z M256,429.546c3.238,0,5.863,2.625,5.863,5.863
				c0,31.469,25.601,57.07,57.07,57.07c27.622,0,51.219-19.727,56.11-46.908c0.455-2.529,2.504-4.467,5.054-4.78
				c39.949-4.916,70.074-39.01,70.074-79.308c0-4.566-0.414-9.24-1.229-13.893c-0.419-2.393,0.681-4.796,2.765-6.043
				c29.958-17.918,48.569-50.698,48.569-85.546c0-26.63-10.377-51.66-29.22-70.481c-1.641-1.64-2.162-4.093-1.327-6.258
				c3.548-9.199,5.347-18.87,5.347-28.743c0-44.077-35.86-79.937-79.937-79.937c-4.37,0-8.837,0.376-13.279,1.119
				c-3.182,0.529-6.2-1.611-6.745-4.793c-4.701-27.457-28.329-47.385-56.182-47.385c-31.469,0-57.07,25.601-57.07,57.07
				c0,3.238-2.625,5.863-5.863,5.863c-3.238,0-5.863-2.625-5.863-5.863c0-31.469-25.601-57.07-57.07-57.07
				c-27.853,0-51.481,19.928-56.182,47.385c-0.545,3.182-3.56,5.321-6.745,4.793c-4.441-0.742-8.909-1.119-13.279-1.119
				c-44.077,0-79.937,35.859-79.937,79.937c0,9.874,1.799,19.544,5.347,28.743c0.835,2.165,0.314,4.618-1.327,6.258
				C22.103,204.34,11.725,229.37,11.725,256c0,34.848,18.611,67.627,48.569,85.546c2.084,1.247,3.184,3.651,2.765,6.043
				c-0.815,4.653-1.229,9.327-1.229,13.893c0,40.297,30.125,74.392,70.074,79.308c2.55,0.314,4.599,2.252,5.054,4.78
				c4.89,27.18,28.488,46.908,56.11,46.908c31.469,0,57.07-25.601,57.07-57.07C250.137,432.171,252.762,429.546,256,429.546z"/>
		</g>
	</g>
</g>
</svg>
