<?xml version="1.0" encoding="utf-8"?>
<!-- Generator: Adobe Illustrator 18.0.0, SVG Export Plug-In . SVG Version: 6.00 Build 0)  -->
<!DOCTYPE svg PUBLIC "-//W3C//DTD SVG 1.1//EN" "http://www.w3.org/Graphics/SVG/1.1/DTD/svg11.dtd">
<svg version="1.1" id="Icon_Set" xmlns="http://www.w3.org/2000/svg" xmlns:xlink="http://www.w3.org/1999/xlink" x="0px" y="0px"
	 viewBox="0 0 512 512" style="enable-background:new 0 0 512 512;" xml:space="preserve">
<style type="text/css">
	.st0{fill:#F0C48A;}
	.st1{fill:#FD919E;}
	.st2{fill:#E8677D;}
	.st3{fill:#4C4372;}
	.st4{fill:#D3E6F8;}
	.st5{fill:#A4CFF2;}
	.st6{fill:#FFFFFF;}
	.st7{fill:#7BABF1;}
</style>
<g>
	<circle class="st0" cx="256" cy="256" r="207"/>
	<g>
		<g>
			<g>
				<polygon class="st4" points="210.006,241.449 310.84,342.282 345.937,307.185 196.293,157.541 161.196,192.638 175.793,207.235 
									"/>
			</g>
			<g>
				
					<rect x="163.019" y="224.371" transform="matrix(-0.7071 -0.7071 0.7071 -0.7071 280.2808 577.9294)" class="st5" width="193.629" height="13.09"/>
			</g>
			<g>
				<path class="st5" d="M139.694,47.526l-0.386,0.386L47.709,139.51l83.307,83.307l91.985-91.985l-17.356-17.356
					c-21.088-21.087-21.088-55.277,0-76.365l0,0L177.876,9.343L139.694,47.526z"/>
			</g>
			<g>
				<path class="st7" d="M205.645,37.112L205.645,37.112L178.262,9.729l-19.67,19.67l8.417,8.417
					c3.682,3.682,4.821,9.175,2.992,14.051c-9.383,25.015-2.882,48.566,3.574,63.068c3.543,7.958,8.577,15.16,14.736,21.319
					l14.248,14.248l20.055-20.055l-13.306-13.306l-3.664-3.664C184.558,92.389,184.558,58.2,205.645,37.112z"/>
			</g>
			<g>
				
					<rect x="41.925" y="150.604" transform="matrix(0.7071 -0.7071 0.7071 0.7071 -130.2759 104.5081)" class="st5" width="38.18" height="117.814"/>
			</g>
			<g>
				
					<rect x="71.824" y="149.157" transform="matrix(0.7071 -0.7071 0.7071 0.7071 -109.5123 113.5604)" class="st7" width="20.999" height="79.633"/>
			</g>
			<g>
				<path class="st3" d="M310.839,348.144c-1.555,0-3.046-0.618-4.145-1.717L157.05,196.783c-1.099-1.099-1.717-2.59-1.717-4.145
					c0-1.555,0.618-3.046,1.717-4.145l35.097-35.097c1.1-1.099,2.591-1.717,4.145-1.717s3.046,0.618,4.145,1.717L350.082,303.04
					c2.29,2.289,2.29,6.001,0,8.291l-35.097,35.097C313.886,347.527,312.394,348.144,310.839,348.144z M169.486,192.638l4.101,4.101
					l0,0l137.252,137.253l26.806-26.806L196.293,165.832L169.486,192.638z"/>
			</g>
			<g>
				<path class="st3" d="M89.17,270.526c-1.5,0-3.001-0.572-4.145-1.717L1.717,185.502c-2.289-2.29-2.289-6.001,0-8.291
					l26.998-26.998c2.289-2.29,6.002-2.29,8.291,0l83.307,83.307c2.29,2.29,2.29,6.001,0,8.291l-26.998,26.998
					C92.171,269.954,90.67,270.526,89.17,270.526z M14.153,181.357l75.016,75.016l18.707-18.707L32.86,162.65L14.153,181.357z"/>
			</g>
			<g>
				<path class="st3" d="M131.016,228.68c-1.5,0-3-0.572-4.145-1.717l-83.307-83.307c-2.289-2.29-2.289-6.001,0-8.291L173.731,5.198
					c1.099-1.099,2.591-1.717,4.145-1.717c1.555,0,3.046,0.618,4.145,1.717l27.769,27.769c2.29,2.289,2.29,6.001,0,8.291
					c-18.768,18.768-18.768,49.306,0,68.074l17.356,17.356c1.099,1.099,1.717,2.591,1.717,4.145c0,1.555-0.618,3.046-1.717,4.145
					l-91.985,91.985C134.017,228.107,132.516,228.68,131.016,228.68z M56,139.51l75.016,75.016l83.694-83.694l-13.21-13.21
					c-21.941-21.941-23.254-56.817-3.944-80.309l-19.68-19.68l-34.037,34.037l-0.001,0.001L56,139.51z M139.694,47.526h0.01H139.694
					z"/>
			</g>
			<g>
				<path class="st3" d="M103.054,230.415c-1.5,0-3.001-0.572-4.145-1.717l-56.309-56.309c-1.099-1.099-1.717-2.59-1.717-4.145
					c0-1.555,0.618-3.046,1.717-4.145l14.849-14.849c2.289-2.29,6.002-2.29,8.291,0l56.31,56.309
					c1.099,1.099,1.717,2.591,1.717,4.145c0,1.555-0.618,3.046-1.717,4.145L107.2,228.698
					C106.055,229.843,104.555,230.415,103.054,230.415z M55.035,168.244l48.019,48.019l6.558-6.558l-48.019-48.019L55.035,168.244z"
					/>
			</g>
			<g>
				<path class="st1" d="M497.744,479.349l-14.933,14.933c-11.166,11.166-29.438,11.166-40.605,0L308.483,360.56
					c-11.166-11.166-11.166-29.439,0-40.605l14.933-14.933c11.166-11.166,29.439-11.166,40.605,0l133.723,133.723
					C508.911,449.911,508.911,468.183,497.744,479.349z"/>
			</g>
			<g>
				<path class="st2" d="M497.744,438.744L364.021,305.022c-11.166-11.166-29.439-11.166-40.605,0l-0.139,0.139l174.328,174.328
					l0.139-0.139C508.911,468.183,508.911,449.911,497.744,438.744z"/>
			</g>
			<g>
				<path class="st3" d="M462.508,508.519c-9.258,0-17.94-3.584-24.448-10.092L304.338,364.705c-13.48-13.481-13.48-35.415,0-48.895
					l14.934-14.933c6.508-6.508,15.19-10.092,24.448-10.092c9.258,0,17.94,3.584,24.448,10.092L501.89,434.599
					c13.48,13.481,13.48,35.415,0,48.896l-14.933,14.933C480.449,504.936,471.766,508.519,462.508,508.519z M343.719,302.509
					c-6.126,0-11.864,2.364-16.157,6.658L312.629,324.1c-8.909,8.909-8.909,23.405,0,32.314l133.723,133.723
					c4.293,4.293,10.031,6.658,16.157,6.658s11.864-2.364,16.157-6.658l14.933-14.933c8.909-8.909,8.909-23.405,0-32.314
					L359.876,309.167C355.583,304.874,349.845,302.509,343.719,302.509z"/>
			</g>
		</g>
		<g>
			<g>
				<polygon class="st4" points="437.739,119.564 506.137,29.126 482.873,5.862 392.436,74.261 406.498,88.323 274.94,219.881 
					292.119,237.06 423.677,105.502 				"/>
			</g>
			<g>
				<path class="st7" d="M437.739,119.564l68.398-90.438l-7.966-7.966l-55.627,72.011c-3.103,4.016-9.027,4.395-12.616,0.806v0
					c-3.288-3.288-8.619-3.288-11.907,0L283.676,228.47l8.589,8.589l131.411-131.558L437.739,119.564z"/>
			</g>
			<g>
				<path class="st3" d="M269.077,219.881c0-1.554,0.618-3.046,1.717-4.145L398.207,88.322l-9.917-9.916
					c-1.198-1.199-1.815-2.861-1.703-4.549c0.117-1.692,0.96-3.25,2.312-4.272l90.437-68.399c2.334-1.765,5.612-1.539,7.681,0.531
					l23.264,23.264c2.069,2.07,2.296,5.346,0.531,7.681L442.415,123.1c-1.023,1.352-2.581,2.195-4.272,2.312
					c-1.691,0.117-3.35-0.504-4.549-1.703l-9.917-9.917L296.264,241.205c-2.29,2.29-6.001,2.29-8.291,0.001l-17.179-17.179
					C269.695,222.927,269.077,221.437,269.077,219.881z M412.36,88.322c0,1.554-0.618,3.046-1.717,4.145L283.23,219.881l8.888,8.888
					l127.413-127.412c2.29-2.29,6.001-2.29,8.291,0l9.302,9.302l61.258-80.997l-16.045-16.044l-80.996,61.258l9.302,9.301
					C411.742,85.277,412.36,86.767,412.36,88.322z"/>
			</g>
			<g>
				<g>
					<polygon class="st4" points="231.675,237.725 200.085,269.315 242.684,311.915 307.441,246.035 264.841,203.435 
						256.837,212.563 					"/>
				</g>
				<g>
					<polygon class="st7" points="296.206,235.387 231.098,300.329 242.333,311.564 307.441,246.622 					"/>
				</g>
				<g>
					<path class="st3" d="M194.222,269.315c0-1.555,0.618-3.046,1.717-4.145l64.757-64.757c1.099-1.1,2.59-1.717,4.145-1.717
						s3.046,0.617,4.145,1.717l42.6,42.6c2.29,2.289,2.29,6.003,0,8.29L246.83,316.06c-1.099,1.1-2.59,1.717-4.145,1.717
						c-1.555,0-3.046-0.617-4.145-1.717l-42.6-42.6C194.84,272.361,194.222,270.869,194.222,269.315z M264.841,212.849l-3.859,3.859
						l0,0l-52.607,52.607l34.309,34.31l56.465-56.466L264.841,212.849z"/>
				</g>
			</g>
			<g>
				<g>
					<path class="st1" d="M33.671,496.131l-17.802-17.802c-13.311-13.311-13.311-35.094,0-48.405L175.28,270.513
						c13.311-13.311,35.094-13.311,48.405,0l17.802,17.802c13.311,13.311,13.311,35.094,0,48.405L82.076,496.131
						C68.764,509.442,46.982,509.442,33.671,496.131z"/>
				</g>
				<g>
					<path class="st2" d="M82.076,496.131L241.487,336.72c13.311-13.311,13.311-35.094,0-48.405l-0.165-0.165L33.505,495.965
						l0.165,0.165C46.982,509.442,68.764,509.442,82.076,496.131z"/>
				</g>
				<g>
					<path class="st3" d="M0.001,454.126c0-10.266,3.907-20.532,11.723-28.347l159.412-159.412
						c15.631-15.631,41.064-15.631,56.695,0l17.802,17.801c7.546,7.546,11.701,17.614,11.701,28.349s-4.155,20.802-11.701,28.347
						L86.221,500.276c-15.631,15.632-41.065,15.632-56.696,0l-17.802-17.801C3.908,474.659,0.001,464.393,0.001,454.126z
						 M245.637,312.516c0-7.263-2.765-14.527-8.295-20.057l-17.802-17.801c-11.06-11.06-29.054-11.06-40.114-0.001L20.014,434.069
						c-11.06,11.06-11.058,29.055,0,40.116l17.802,17.801c11.06,11.061,29.055,11.061,40.115,0.001l159.411-159.412
						C242.872,327.044,245.637,319.78,245.637,312.516z"/>
				</g>
			</g>
		</g>
	</g>
</g>
</svg>
