<?xml version="1.0" encoding="utf-8"?>
<!-- Generator: Adobe Illustrator 18.0.0, SVG Export Plug-In . SVG Version: 6.00 Build 0)  -->
<!DOCTYPE svg PUBLIC "-//W3C//DTD SVG 1.1//EN" "http://www.w3.org/Graphics/SVG/1.1/DTD/svg11.dtd">
<svg version="1.1" id="Icon_Set" xmlns="http://www.w3.org/2000/svg" xmlns:xlink="http://www.w3.org/1999/xlink" x="0px" y="0px"
	 viewBox="0 0 512 512" style="enable-background:new 0 0 512 512;" xml:space="preserve">
<style type="text/css">
	.st0{fill:#F0C48A;}
	.st1{fill:#FD919E;}
	.st2{fill:#E8677D;}
	.st3{fill:#4C4372;}
	.st4{fill:#D3E6F8;}
	.st5{fill:#A4CFF2;}
	.st6{fill:#FFFFFF;}
	.st7{fill:#7BABF1;}
</style>
<g>
	<circle class="st0" cx="256" cy="256" r="207"/>
	<g>
		<g>
			<g>
				<g>
					<path class="st1" d="M369.078,297.596v-32.757h-28.923c-2.225-11.483-6.725-22.154-13.041-31.505l20.444-20.444l-23.162-23.162
						l-20.444,20.444c-9.352-6.315-20.023-10.816-31.506-13.04v-28.923h-32.756v28.923c-11.484,2.225-22.155,6.724-31.506,13.04
						l-20.444-20.444l-23.161,23.162l20.443,20.444c-6.315,9.351-10.815,20.022-13.04,31.505H143.06v32.757h28.923
						c2.224,11.483,6.725,22.154,13.04,31.506l-20.443,20.444l23.161,23.163l20.444-20.445c9.351,6.316,20.022,10.816,31.506,13.041
						v28.922h32.756v-28.922c11.484-2.225,22.155-6.725,31.506-13.041l20.444,20.445l23.162-23.163l-20.444-20.444
						c6.316-9.352,10.816-20.023,13.041-31.506H369.078z M255.522,323.141c-23.153,0-41.922-18.77-41.922-41.923
						c0-23.153,18.769-41.922,41.922-41.922c23.154,0,41.923,18.769,41.923,41.922C297.445,304.371,278.676,323.141,255.522,323.141
						z"/>
				</g>
			</g>
			<g>
				<g>
					<path class="st3" d="M272.447,400.088h-32.756c-3.238,0-5.863-2.625-5.863-5.863V370.01
						c-8.773-2.182-17.09-5.625-24.825-10.274l-17.117,17.118c-1.099,1.099-2.591,1.717-4.146,1.717
						c-1.555,0-3.046-0.618-4.146-1.717l-23.162-23.163c-2.29-2.289-2.29-6.001,0-8.291l17.117-17.116
						c-4.651-7.737-8.093-16.054-10.274-24.825H143.06c-3.238,0-5.863-2.625-5.863-5.863v-32.757c0-3.238,2.624-5.863,5.863-5.863
						h24.217c2.182-8.772,5.624-17.089,10.274-24.824l-17.117-17.117c-2.29-2.29-2.29-6.001,0-8.291l23.162-23.162
						c1.099-1.1,2.591-1.717,4.146-1.717c1.555,0,3.046,0.618,4.146,1.717l17.117,17.117c7.735-4.649,16.052-8.091,24.825-10.274
						v-24.216c0-3.238,2.625-5.863,5.863-5.863h32.756c3.238,0,5.863,2.625,5.863,5.863v24.216
						c8.772,2.182,17.089,5.624,24.824,10.274l17.117-17.117c1.099-1.1,2.59-1.717,4.145-1.717c1.554,0,3.046,0.618,4.145,1.717
						l23.162,23.162c2.29,2.29,2.29,6.001,0.001,8.291l-17.117,17.117c4.65,7.734,8.092,16.051,10.274,24.824h24.217
						c3.238,0,5.863,2.625,5.863,5.863v32.757c0,3.238-2.625,5.863-5.863,5.863h-24.217c-2.182,8.773-5.624,17.089-10.274,24.825
						l17.116,17.116c2.29,2.289,2.29,6.001,0.001,8.291l-23.162,23.163c-1.1,1.099-2.591,1.717-4.146,1.717
						c-1.555,0-3.046-0.618-4.146-1.717l-17.116-17.118c-7.735,4.65-16.052,8.092-24.824,10.274v24.215
						C278.309,397.463,275.684,400.088,272.447,400.088z M245.553,388.363h21.031v-23.059c0-2.808,1.99-5.222,4.747-5.755
						c10.57-2.048,20.441-6.134,29.34-12.144c2.329-1.572,5.442-1.273,7.427,0.713l16.298,16.299l14.871-14.872l-16.298-16.298
						c-1.986-1.986-2.284-5.1-0.714-7.427c6.01-8.899,10.096-18.77,12.143-29.339c0.534-2.757,2.948-4.748,5.756-4.748h23.06
						v-21.032h-23.06c-2.808,0-5.221-1.991-5.756-4.748c-2.047-10.57-6.133-20.44-12.142-29.339
						c-1.572-2.327-1.273-5.441,0.712-7.427l16.299-16.299l-14.871-14.871l-16.298,16.299c-1.986,1.985-5.101,2.284-7.426,0.713
						c-8.902-6.011-18.773-10.096-29.34-12.143c-2.757-0.534-4.748-2.948-4.748-5.756v-23.06h-21.031v23.06
						c0,2.808-1.991,5.222-4.748,5.756c-10.57,2.048-20.442,6.133-29.34,12.143c-2.327,1.571-5.441,1.272-7.427-0.713
						l-16.299-16.299L172.87,212.89l16.298,16.299c1.985,1.985,2.284,5.1,0.713,7.426c-6.01,8.899-10.095,18.77-12.143,29.339
						c-0.534,2.756-2.948,4.747-5.756,4.747h-23.06v21.032h23.06c2.808,0,5.222,1.991,5.756,4.748
						c2.046,10.566,6.132,20.437,12.143,29.34c1.571,2.327,1.272,5.441-0.713,7.426l-16.298,16.298l14.871,14.872l16.299-16.299
						c1.985-1.986,5.1-2.284,7.427-0.713c8.899,6.01,18.77,10.096,29.34,12.143c2.757,0.534,4.748,2.948,4.748,5.756V388.363z
						 M255.522,329.003c-26.349,0-47.785-21.436-47.785-47.785c0-26.349,21.436-47.785,47.785-47.785
						c26.349,0,47.786,21.436,47.786,47.785C303.308,307.567,281.871,329.003,255.522,329.003z M255.522,245.158
						c-19.884,0-36.06,16.176-36.06,36.06c0,19.884,16.176,36.06,36.06,36.06c19.884,0,36.061-16.177,36.061-36.06
						C291.583,261.334,275.406,245.158,255.522,245.158z"/>
				</g>
			</g>
		</g>
		<g>
			<g>
				<path class="st4" d="M411.346,394.226h44.16c27.963,0,50.631-22.668,50.631-50.631v-33.21c0-27.963-22.668-50.631-50.631-50.631
					h-44.16V394.226z"/>
			</g>
			<path class="st5" d="M462,260.31v133.36c25-3.622,43-24.659,43-50.075v-33.21C505,284.969,487,263.932,462,260.31z"/>
			<g>
				<path class="st7" d="M241.614,454.424h28.911c13.627,0,24.674,11.047,24.674,24.674v0c0,13.627-11.047,24.674-24.674,24.674
					h-28.911c-13.627,0-24.674-11.047-24.674-24.674v0C216.94,465.47,227.987,454.424,241.614,454.424z"/>
			</g>
			<g>
				<g>
					<path class="st5" d="M455.553,259.754h-44.089v-52.041c0-85.685-69.71-155.395-155.395-155.395s-155.395,69.71-155.395,155.395
						v52.041H56.585v-52.041c0-109.996,89.488-199.484,199.484-199.484s199.484,89.488,199.484,199.484V259.754z"/>
				</g>
			</g>
			<g>
				<path class="st4" d="M100.654,394.226h-44.16c-27.963,0-50.631-22.668-50.631-50.631v-33.21
					c0-27.963,22.668-50.631,50.631-50.631h44.16V394.226z"/>
			</g>
			<g>
				<path class="st5" d="M505.724,343.523v-33.067H459.43c-9.131,0-16.533,7.402-16.533,16.533v0
					c0,9.131,7.402,16.533,16.533,16.533H505.724z"/>
			</g>
			<g>
				<path class="st5" d="M5.863,343.523v-33.067h46.294c9.131,0,16.533,7.402,16.533,16.533v0c0,9.131-7.402,16.533-16.533,16.533
					H5.863z"/>
			</g>
			<g>
				<path class="st3" d="M100.655,400.088H56.494C25.343,400.088,0,374.745,0,343.595v-33.21c0-31.151,25.343-56.494,56.494-56.494
					h44.161c3.238,0,5.863,2.625,5.863,5.863v134.472C106.517,397.463,103.893,400.088,100.655,400.088z M56.494,265.616
					c-24.686,0-44.769,20.083-44.769,44.769v33.21c0,24.686,20.083,44.769,44.769,44.769h38.298V265.616H56.494z"/>
			</g>
			<g>
				<path class="st3" d="M455.506,400.088h-44.16c-3.238,0-5.863-2.625-5.863-5.863V259.754c0-3.238,2.625-5.863,5.863-5.863h44.16
					c31.151,0,56.494,25.343,56.494,56.494v33.21C512,374.745,486.656,400.088,455.506,400.088z M417.208,388.363h38.298
					c24.686,0,44.769-20.083,44.769-44.769v-33.21c0-24.686-20.083-44.769-44.769-44.769h-38.298V388.363z"/>
			</g>
			<g>
				<g>
					<path class="st3" d="M455.553,265.616h-44.09c-3.238,0-5.863-2.625-5.863-5.863v-52.041
						c0-82.452-67.08-149.533-149.532-149.533s-149.532,67.08-149.532,149.533v52.041c0,3.238-2.625,5.863-5.863,5.863H56.584
						c-3.238,0-5.862-2.625-5.862-5.863v-52.041c0-113.229,92.118-205.347,205.347-205.347
						c113.229,0,205.347,92.118,205.347,205.347v52.041C461.416,262.991,458.791,265.616,455.553,265.616z M417.326,253.891h32.365
						v-46.178c0-106.763-86.859-193.622-193.622-193.622S62.447,100.949,62.447,207.713v46.178h32.364v-46.178
						c0-88.918,72.34-161.258,161.258-161.258s161.258,72.34,161.258,161.258V253.891z"/>
				</g>
			</g>
			<g>
				<path class="st3" d="M376.074,484.96h-80.876c-3.238,0-5.863-2.625-5.863-5.863c0-3.238,2.625-5.863,5.863-5.863h80.876
					c16.216,0,29.408-13.193,29.408-29.408v-49.601c0-3.238,2.625-5.863,5.863-5.863s5.863,2.625,5.863,5.863v49.601
					C417.208,466.508,398.756,484.96,376.074,484.96z"/>
			</g>
			<g>
				<path class="st3" d="M270.524,509.634h-28.91c-16.838,0-30.536-13.699-30.536-30.537s13.699-30.536,30.536-30.536h28.91
					c16.839,0,30.537,13.698,30.537,30.536S287.363,509.634,270.524,509.634z M241.614,460.286
					c-10.373,0-18.811,8.438-18.811,18.811c0,10.373,8.438,18.812,18.811,18.812h28.91c10.373,0,18.812-8.439,18.812-18.812
					c0-10.373-8.439-18.811-18.812-18.811H241.614z"/>
			</g>
			<g>
				<path class="st3" d="M505.724,349.386H459.43c-12.349,0-22.396-10.047-22.396-22.396c0-12.349,10.047-22.396,22.396-22.396
					h46.294c3.238,0,5.863,2.625,5.863,5.863v33.067C511.587,346.761,508.962,349.386,505.724,349.386z M459.43,316.319
					c-5.884,0-10.671,4.787-10.671,10.671c0,5.884,4.787,10.671,10.671,10.671h40.431v-21.342H459.43z"/>
			</g>
			<g>
				<path class="st3" d="M52.157,349.386H5.863c-3.238,0-5.863-2.625-5.863-5.863v-33.067c0-3.238,2.625-5.863,5.863-5.863h46.294
					c12.349,0,22.396,10.047,22.396,22.396C74.553,339.339,64.506,349.386,52.157,349.386z M11.725,337.66h40.431
					c5.884,0,10.671-4.787,10.671-10.671c0-5.884-4.787-10.671-10.671-10.671H11.725V337.66z"/>
			</g>
		</g>
	</g>
</g>
</svg>
