<?xml version="1.0" encoding="utf-8"?>
<!-- Generator: Adobe Illustrator 18.0.0, SVG Export Plug-In . SVG Version: 6.00 Build 0)  -->
<!DOCTYPE svg PUBLIC "-//W3C//DTD SVG 1.1//EN" "http://www.w3.org/Graphics/SVG/1.1/DTD/svg11.dtd">
<svg version="1.1" id="Icon_Set" xmlns="http://www.w3.org/2000/svg" xmlns:xlink="http://www.w3.org/1999/xlink" x="0px" y="0px"
	 viewBox="0 0 512 512" style="enable-background:new 0 0 512 512;" xml:space="preserve">
<style type="text/css">
	.st0{fill:#F0C48A;}
	.st1{fill:#FD919E;}
	.st2{fill:#E8677D;}
	.st3{fill:#4C4372;}
	.st4{fill:#D3E6F8;}
	.st5{fill:#A4CFF2;}
	.st6{fill:#FFFFFF;}
	.st7{fill:#7BABF1;}
</style>
<g>
	<circle class="st0" cx="256" cy="256" r="207"/>
	<g>
		<g>
			<path class="st1" d="M287.949,171.516h-64.252H36.095v59.655v44.707c0,35.68,28.925,64.605,64.605,64.605h58.393
				c35.68,0,64.605-28.925,64.605-64.605v0c0-17.84,14.462-32.302,32.303-32.302h0c17.84,0,32.302,14.462,32.302,32.302v0
				c0,35.68,28.925,64.605,64.605,64.605h58.393c35.68,0,64.605-28.925,64.605-64.605v-44.707v-59.655H287.949z"/>
		</g>
		<g>
			<path class="st2" d="M430,337.574c26-8.184,45-32.71,45-61.695v-44.707V172h-45V337.574z"/>
		</g>
		<g>
			<path class="st7" d="M29.054,234.465h7.04v-46.383h-7.04c-12.808,0-23.191,10.383-23.191,23.191v0
				C5.863,224.082,16.246,234.465,29.054,234.465z"/>
		</g>
		<g>
			<path class="st7" d="M475.906,234.465h7.04c12.808,0,23.191-10.383,23.191-23.191v0c0-12.808-10.383-23.191-23.191-23.191h-7.04
				V234.465z"/>
		</g>
		<g>
			<path class="st3" d="M411.301,346.346h-58.393c-38.856,0-70.468-31.612-70.468-70.468c0-14.579-11.861-26.44-26.44-26.44
				s-26.44,11.861-26.44,26.44c0,38.856-31.612,70.468-70.467,70.468H100.7c-38.856,0-70.468-31.612-70.468-70.468V171.517
				c0-3.238,2.625-5.863,5.863-5.863h439.811c3.238,0,5.863,2.625,5.863,5.863v104.362
				C481.768,314.734,450.156,346.346,411.301,346.346z M256,237.713c21.044,0,38.165,17.121,38.165,38.165
				c0,32.39,26.352,58.742,58.742,58.742h58.393c32.391,0,58.742-26.352,58.742-58.742v-98.499H41.957v98.499
				c0,32.39,26.352,58.742,58.742,58.742h58.393c32.391,0,58.742-26.352,58.742-58.742C217.835,254.834,234.956,237.713,256,237.713
				z"/>
		</g>
		<g>
			<path class="st3" d="M36.095,240.328h-7.041C13.033,240.328,0,227.294,0,211.273s13.033-29.054,29.054-29.054h7.041
				c3.238,0,5.863,2.625,5.863,5.863v46.384C41.957,237.703,39.332,240.328,36.095,240.328z M29.054,193.944
				c-9.555,0-17.329,7.774-17.329,17.329c0,9.555,7.774,17.329,17.329,17.329h1.178v-34.658H29.054z"/>
		</g>
		<g>
			<path class="st3" d="M482.946,240.328h-7.04c-3.238,0-5.863-2.625-5.863-5.863v-46.384c0-3.238,2.625-5.863,5.863-5.863h7.04
				c16.021,0,29.054,13.033,29.054,29.054S498.967,240.328,482.946,240.328z M481.768,228.603h1.178
				c9.555,0,17.329-7.774,17.329-17.329c0-9.555-7.774-17.329-17.329-17.329h-1.178V228.603z"/>
		</g>
		<g>
			<path class="st3" d="M130.724,290.438c-1.501,0-3.001-0.573-4.146-1.718l-32.717-32.717c-2.29-2.289-2.29-6.001,0-8.29
				c2.289-2.29,6.002-2.29,8.291,0l32.717,32.717c2.29,2.289,2.29,6.001,0,8.29C133.725,289.865,132.225,290.438,130.724,290.438z"
				/>
		</g>
		<g>
			<path class="st3" d="M165.926,282.155c-1.501,0-3.001-0.573-4.145-1.718l-57.979-57.979c-2.29-2.289-2.29-6.001,0-8.29
				c2.29-2.291,6.001-2.289,8.291,0l57.979,57.979c2.29,2.289,2.29,6.001,0,8.29C168.927,281.582,167.426,282.155,165.926,282.155z"
				/>
		</g>
		<g>
			<path class="st3" d="M379.205,290.438c-1.5,0-3.001-0.573-4.146-1.718l-32.717-32.717c-2.29-2.289-2.29-6.001,0-8.29
				c2.289-2.29,6.002-2.29,8.291,0l32.717,32.717c2.29,2.289,2.29,6.001,0,8.29C382.206,289.865,380.706,290.438,379.205,290.438z"
				/>
		</g>
		<g>
			<path class="st3" d="M414.406,282.155c-1.5,0-3.001-0.573-4.146-1.718l-57.979-57.979c-2.29-2.289-2.29-6.001,0-8.29
				c2.289-2.29,6.002-2.29,8.291,0l57.979,57.979c2.29,2.289,2.29,6.001,0,8.29C417.408,281.582,415.907,282.155,414.406,282.155z"
				/>
		</g>
	</g>
</g>
</svg>
