<?xml version="1.0" encoding="utf-8"?>
<!-- Generator: Adobe Illustrator 18.0.0, SVG Export Plug-In . SVG Version: 6.00 Build 0)  -->
<!DOCTYPE svg PUBLIC "-//W3C//DTD SVG 1.1//EN" "http://www.w3.org/Graphics/SVG/1.1/DTD/svg11.dtd">
<svg version="1.1" id="Icon_Set" xmlns="http://www.w3.org/2000/svg" xmlns:xlink="http://www.w3.org/1999/xlink" x="0px" y="0px"
	 viewBox="0 0 512 512" style="enable-background:new 0 0 512 512;" xml:space="preserve">
<style type="text/css">
	.st0{fill:#F0C48A;}
	.st1{fill:#FD919E;}
	.st2{fill:#E8677D;}
	.st3{fill:#4C4372;}
	.st4{fill:#D3E6F8;}
	.st5{fill:#A4CFF2;}
	.st6{fill:#FFFFFF;}
	.st7{fill:#7BABF1;}
</style>
<g>
	<circle class="st0" cx="256" cy="256" r="207"/>
	<g>
		<g>
			<path class="st4" d="M117.914,188.088V45.338c0,0,4.39-39.457,39.392-39.457c35.002,0,189.726,0,189.726,0
				s47.055,3.318,47.055,47.055s0,156.149,0,156.149h-33.518V66.975c0,0-2.225-26.526-26.526-26.526c-24.3,0-156.084,0-156.084,0
				s-26.526,1.751-26.526,26.526s0,128.145,0,128.145L117.914,188.088z"/>
		</g>
		<g>
			<path class="st5" d="M138.845,64.538v93.737h9.132v-92.18l29.98-31.324h-9.346C152.172,34.771,138.845,48.099,138.845,64.538z"/>
		</g>
		<g>
			<rect x="380.495" y="27.081" class="st5" width="9.132" height="131.194"/>
		</g>
		<g>
			<rect x="92.268" y="163.982" class="st5" width="93.155" height="186.858"/>
		</g>
		<g>
			<rect x="326.578" y="163.982" class="st5" width="93.155" height="186.858"/>
		</g>
		<g>
			<path class="st1" d="M326.577,350.84H185.423V133.046c0-14.787,11.988-26.775,26.775-26.775h87.605
				c14.787,0,26.775,11.988,26.775,26.775V350.84z"/>
		</g>
		<g>
			<rect x="161.183" y="350.84" class="st1" width="189.633" height="95.197"/>
		</g>
		<g>
			<rect x="322.94" y="354.612" class="st2" width="26.775" height="88.24"/>
		</g>
		<g>
			<path class="st2" d="M324.935,308.437H298.16V107.482l0,0c14.787,0,26.775,11.988,26.775,26.775V308.437z"/>
		</g>
		<g>
			<rect x="392.86" y="163.982" class="st7" width="26.775" height="186.858"/>
		</g>
		<g>
			<rect x="158.986" y="163.982" class="st7" width="26.775" height="186.858"/>
		</g>
		<g>
			<rect x="196.159" y="446.037" class="st4" width="119.683" height="60.082"/>
		</g>
		<g>
			<rect x="290.402" y="446.037" class="st5" width="26.775" height="61.651"/>
		</g>
		<g>
			<rect x="187.921" y="373.057" class="st2" width="62.773" height="50.763"/>
		</g>
		<g>
			<circle class="st2" cx="256" cy="209.083" r="45.102"/>
		</g>
		<g>
			<rect x="185.423" y="308.437" class="st7" width="141.155" height="38.364"/>
		</g>
		<g>
			<path class="st3" d="M185.422,356.72H92.268c-3.247,0-5.881-2.633-5.881-5.88V163.982c0-3.247,2.633-5.881,5.881-5.881h93.154
				c3.247,0,5.881,2.633,5.881,5.881V350.84C191.303,354.087,188.67,356.72,185.422,356.72z M98.149,344.959h81.393V169.862H98.149
				V344.959z"/>
		</g>
		<g>
			<path class="st3" d="M326.578,356.72H185.422c-3.248,0-5.881-2.633-5.881-5.88V133.047c0-18.006,14.649-32.656,32.656-32.656
				h87.605c18.006,0,32.656,14.65,32.656,32.656V350.84C332.458,354.087,329.826,356.72,326.578,356.72z M191.303,344.959h129.394
				V133.047c0-11.522-9.373-20.895-20.894-20.895h-87.605c-11.521,0-20.894,9.373-20.894,20.895V344.959z"/>
		</g>
		<g>
			<path class="st3" d="M350.817,451.918H161.183c-3.247,0-5.881-2.633-5.881-5.88V350.84c0-3.248,2.633-5.881,5.881-5.881h189.634
				c3.247,0,5.881,2.633,5.881,5.881v95.197C356.697,449.285,354.064,451.918,350.817,451.918z M167.064,440.156h177.873V356.72
				H167.064V440.156z"/>
		</g>
		<g>
			<path class="st3" d="M315.842,512H196.158c-3.247,0-5.88-2.633-5.88-5.881v-60.082c0-3.248,2.633-5.881,5.88-5.881h119.683
				c3.247,0,5.88,2.633,5.88,5.881v60.082C321.722,509.367,319.089,512,315.842,512z M202.039,500.239h107.922v-48.321H202.039
				V500.239z"/>
		</g>
		<g>
			<path class="st3" d="M419.732,356.72h-93.154c-3.247,0-5.881-2.633-5.881-5.88V163.982c0-3.247,2.633-5.881,5.881-5.881h93.154
				c3.247,0,5.881,2.633,5.881,5.881V350.84C425.613,354.087,422.979,356.72,419.732,356.72z M332.458,344.959h81.393V169.862
				h-81.393V344.959z"/>
		</g>
		<g>
			<path class="st3" d="M256,260.066c-28.112,0-50.982-22.87-50.982-50.983c0-28.112,22.87-50.982,50.982-50.982
				s50.983,22.87,50.983,50.982C306.983,237.196,284.112,260.066,256,260.066z M256,169.862c-21.627,0-39.221,17.595-39.221,39.221
				c0,21.627,17.595,39.222,39.221,39.222s39.221-17.595,39.221-39.222C295.221,187.457,277.627,169.862,256,169.862z"/>
		</g>
		<g>
			<path class="st3" d="M326.578,314.317H185.422c-3.247,0-5.881-2.633-5.881-5.881s2.633-5.88,5.881-5.88h141.155
				c3.247,0,5.881,2.633,5.881,5.88S329.825,314.317,326.578,314.317z"/>
		</g>
		<g>
			<path class="st3" d="M394.086,356.72c-3.247,0-5.881-2.633-5.881-5.88V52.936c0-22.704-18.471-41.174-41.174-41.174H164.969
				c-22.703,0-41.174,18.471-41.174,41.174V350.84c0,3.247-2.633,5.88-5.881,5.88c-3.248,0-5.881-2.633-5.881-5.88V52.936
				C112.034,23.747,135.78,0,164.969,0h182.063c29.188,0,52.935,23.747,52.935,52.936V350.84
				C399.966,354.087,397.334,356.72,394.086,356.72z"/>
		</g>
		<g>
			<path class="st3" d="M360.568,166.054c-3.248,0-5.881-2.633-5.881-5.881V66.975c0-11.384-9.262-20.645-20.645-20.645H177.958
				c-11.383,0-20.645,9.261-20.645,20.645v93.199c0,3.247-2.633,5.881-5.881,5.881c-3.247,0-5.88-2.633-5.88-5.881V66.975
				c0-17.869,14.537-32.406,32.406-32.406h156.085c17.869,0,32.406,14.538,32.406,32.406v93.199
				C366.448,163.421,363.815,166.054,360.568,166.054z"/>
		</g>
		<g>
			<path class="st3" d="M185.422,263.292h-67.508c-3.248,0-5.881-2.633-5.881-5.881c0-3.247,2.633-5.881,5.881-5.881h67.508
				c3.247,0,5.881,2.633,5.881,5.881C191.303,260.659,188.67,263.292,185.422,263.292z"/>
		</g>
		<g>
			<path class="st3" d="M392.86,263.292h-59.893c-3.247,0-5.881-2.633-5.881-5.881c0-3.247,2.633-5.881,5.881-5.881h59.893
				c3.248,0,5.881,2.633,5.881,5.881C398.74,260.659,396.107,263.292,392.86,263.292z"/>
		</g>
		<g>
			<path class="st3" d="M250.695,429.701h-62.773c-3.247,0-5.88-2.633-5.88-5.881v-50.763c0-3.248,2.633-5.881,5.88-5.881h62.773
				c3.247,0,5.88,2.633,5.88,5.881v50.763C256.575,427.068,253.942,429.701,250.695,429.701z M193.802,417.94h51.012v-39.002
				h-51.012V417.94z"/>
		</g>
		<g>
			<g>
				<g>
					<circle class="st3" cx="279.01" cy="377.679" r="7.758"/>
				</g>
				<g>
					<circle class="st3" cx="279.01" cy="398.438" r="7.758"/>
				</g>
				<g>
					<circle class="st3" cx="279.01" cy="419.198" r="7.758"/>
				</g>
			</g>
			<g>
				<g>
					<circle class="st3" cx="303.789" cy="377.679" r="7.758"/>
				</g>
				<g>
					<circle class="st3" cx="303.789" cy="398.438" r="7.758"/>
				</g>
				<g>
					<circle class="st3" cx="303.789" cy="419.198" r="7.758"/>
				</g>
			</g>
			<g>
				<g>
					<circle class="st3" cx="328.569" cy="377.679" r="7.758"/>
				</g>
				<g>
					<circle class="st3" cx="328.569" cy="398.438" r="7.758"/>
				</g>
				<g>
					<circle class="st3" cx="328.569" cy="419.198" r="7.758"/>
				</g>
			</g>
		</g>
	</g>
</g>
</svg>
