<?xml version="1.0" encoding="utf-8"?>
<!-- Generator: Adobe Illustrator 18.0.0, SVG Export Plug-In . SVG Version: 6.00 Build 0)  -->
<!DOCTYPE svg PUBLIC "-//W3C//DTD SVG 1.1//EN" "http://www.w3.org/Graphics/SVG/1.1/DTD/svg11.dtd">
<svg version="1.1" id="Icon_Set" xmlns="http://www.w3.org/2000/svg" xmlns:xlink="http://www.w3.org/1999/xlink" x="0px" y="0px"
	 viewBox="0 0 512 512" style="enable-background:new 0 0 512 512;" xml:space="preserve">
<style type="text/css">
	.st0{fill:#F0C48A;}
	.st1{fill:#FD919E;}
	.st2{fill:#E8677D;}
	.st3{fill:#4C4372;}
	.st4{fill:#D3E6F8;}
	.st5{fill:#A4CFF2;}
	.st6{fill:#FFFFFF;}
	.st7{fill:#7BABF1;}
</style>
<g>
	<circle class="st0" cx="256" cy="256" r="207"/>
	<g>
		<g>
			<path class="st4" d="M99.501,106.631L99.501,106.631c21.879,0,39.615,17.736,39.615,39.615v359.891H59.886V146.246
				C59.886,124.367,77.622,106.631,99.501,106.631z"/>
		</g>
		<g>
			<path class="st5" d="M412.499,106.631L412.499,106.631c21.879,0,39.615,17.736,39.615,39.615v359.891h-79.231V146.246
				C372.884,124.367,390.62,106.631,412.499,106.631z"/>
		</g>
		<g>
			<rect x="139.116" y="233.867" class="st7" width="233.767" height="36.369"/>
		</g>
		<g>
			<path class="st3" d="M139.116,512H59.886c-3.238,0-5.863-2.625-5.863-5.863V146.246c0-25.077,20.402-45.478,45.478-45.478
				c25.076,0,45.478,20.401,45.478,45.478v359.891C144.979,509.375,142.354,512,139.116,512z M65.748,500.275h67.506V146.246
				c0-18.612-15.141-33.753-33.753-33.753c-18.612,0-33.753,15.141-33.753,33.753V500.275z"/>
		</g>
		<g>
			<path class="st3" d="M452.115,512h-79.231c-3.238,0-5.863-2.625-5.863-5.863V146.246c0-25.077,20.402-45.478,45.478-45.478
				c25.076,0,45.478,20.401,45.478,45.478v359.891C457.977,509.375,455.352,512,452.115,512z M378.746,500.275h67.506V146.246
				c0-18.612-15.141-33.753-33.753-33.753c-18.612,0-33.753,15.141-33.753,33.753V500.275z"/>
		</g>
		<g>
			<g>
				<g>
					<rect x="101.82" y="359.154" class="st1" width="306.933" height="146.984"/>
				</g>
			</g>
			<g>
				<g>
					<rect x="373.851" y="359.154" class="st2" width="36.329" height="146.984"/>
				</g>
			</g>
			<g>
				<g>
					<rect x="140.084" y="391.885" class="st2" width="104.504" height="80.913"/>
				</g>
			</g>
			<g>
				<g>
					<circle class="st7" cx="332.816" cy="453.171" r="23.85"/>
				</g>
			</g>
			<g>
				<g>
					<path class="st3" d="M408.753,512H101.821c-3.238,0-5.863-2.625-5.863-5.863V359.154c0-3.238,2.625-5.863,5.863-5.863h306.932
						c3.238,0,5.863,2.625,5.863,5.863v146.984C414.616,509.375,411.991,512,408.753,512z M107.683,500.275H402.89V365.016H107.683
						V500.275z"/>
				</g>
			</g>
			<g>
				<g>
					<path class="st3" d="M244.588,478.661H140.084c-3.238,0-5.863-2.625-5.863-5.863v-80.913c0-3.238,2.625-5.863,5.863-5.863
						h104.504c3.238,0,5.863,2.625,5.863,5.863v80.913C250.45,476.036,247.825,478.661,244.588,478.661z M145.947,466.936h92.779
						v-69.188h-92.779V466.936z"/>
				</g>
			</g>
			<g>
				<g>
					<path class="st3" d="M332.816,482.884c-16.383,0-29.712-13.329-29.712-29.712s13.328-29.713,29.712-29.713
						c16.384,0,29.713,13.329,29.713,29.713S349.199,482.884,332.816,482.884z M332.816,435.184
						c-9.918,0-17.987,8.069-17.987,17.988c0,9.918,8.069,17.987,17.987,17.987c9.918,0,17.988-8.069,17.988-17.987
						C350.803,443.253,342.734,435.184,332.816,435.184z"/>
				</g>
			</g>
			<g>
				<g>
					<g>
						<circle class="st3" cx="294.776" cy="400.174" r="10.273"/>
					</g>
				</g>
			</g>
			<g>
				<g>
					<g>
						<circle class="st3" cx="333.3" cy="400.174" r="10.273"/>
					</g>
				</g>
			</g>
			<g>
				<g>
					<g>
						<circle class="st3" cx="371.823" cy="400.174" r="10.273"/>
					</g>
				</g>
			</g>
		</g>
		<g>
			<path class="st3" d="M412.867,112.439c-3.238,0-5.863-2.625-5.863-5.863V42.231c0-16.821-13.685-30.506-30.506-30.506H135.905
				c-16.821,0-30.506,13.685-30.506,30.506v64.345c0,3.238-2.625,5.863-5.863,5.863c-3.238,0-5.863-2.625-5.863-5.863V42.231
				C93.674,18.945,112.618,0,135.905,0h240.594c23.286,0,42.231,18.945,42.231,42.231v64.345
				C418.73,109.814,416.105,112.439,412.867,112.439z"/>
		</g>
		<g>
			<path class="st3" d="M372.884,276.099H139.116c-3.238,0-5.863-2.625-5.863-5.863v-36.369c0-3.238,2.625-5.863,5.863-5.863
				h233.767c3.238,0,5.863,2.624,5.863,5.863v36.369C378.746,273.474,376.121,276.099,372.884,276.099z M144.979,264.374h222.042
				V239.73H144.979V264.374z"/>
		</g>
		<g>
			<circle class="st2" cx="255.572" cy="251.296" r="59.039"/>
		</g>
		<g>
			<circle class="st7" cx="255.572" cy="251.296" r="30.09"/>
		</g>
		<g>
			<path class="st3" d="M255.572,316.198c-35.787,0-64.902-29.115-64.902-64.902s29.115-64.902,64.902-64.902
				s64.902,29.115,64.902,64.902S291.359,316.198,255.572,316.198z M255.572,198.119c-29.322,0-53.177,23.855-53.177,53.177
				s23.855,53.177,53.177,53.177c29.322,0,53.177-23.855,53.177-53.177S284.893,198.119,255.572,198.119z"/>
		</g>
		<g>
			<path class="st3" d="M255.572,287.249c-19.824,0-35.952-16.128-35.952-35.953s16.128-35.953,35.952-35.953
				c19.824,0,35.952,16.128,35.952,35.953S275.396,287.249,255.572,287.249z M255.572,227.068
				c-13.359,0-24.227,10.868-24.227,24.228c0,13.359,10.868,24.228,24.227,24.228c13.359,0,24.227-10.868,24.227-24.228
				C279.799,237.936,268.93,227.068,255.572,227.068z"/>
		</g>
	</g>
</g>
</svg>
