<?xml version="1.0" encoding="utf-8"?>
<!-- Generator: Adobe Illustrator 18.0.0, SVG Export Plug-In . SVG Version: 6.00 Build 0)  -->
<!DOCTYPE svg PUBLIC "-//W3C//DTD SVG 1.1//EN" "http://www.w3.org/Graphics/SVG/1.1/DTD/svg11.dtd">
<svg version="1.1" id="Icon_Set" xmlns="http://www.w3.org/2000/svg" xmlns:xlink="http://www.w3.org/1999/xlink" x="0px" y="0px"
	 viewBox="0 0 512 512" style="enable-background:new 0 0 512 512;" xml:space="preserve">
<style type="text/css">
	.st0{fill:#F0C48A;}
	.st1{fill:#FD919E;}
	.st2{fill:#E8677D;}
	.st3{fill:#4C4372;}
	.st4{fill:#D3E6F8;}
	.st5{fill:#A4CFF2;}
	.st6{fill:#FFFFFF;}
	.st7{fill:#7BABF1;}
</style>
<g>
	<circle class="st0" cx="256" cy="256" r="207"/>
	<g>
		<g>
			<path class="st5" d="M458.604,256l47.533-39.618l-57.449-22.99l32.964-52.367l-61.742-4.112l15.168-59.991L375.088,92.09
				l-4.112-61.742l-52.367,32.964l-22.99-57.449L256,53.396L216.382,5.863l-22.99,57.449l-52.367-32.964l-4.112,61.742
				L76.921,76.922l15.168,59.991l-61.742,4.112l32.964,52.367l-57.449,22.99L53.396,256L5.863,295.618l57.449,22.99l-32.964,52.367
				l61.742,4.112l-15.168,59.991l59.991-15.168l4.112,61.742l52.367-32.964l22.99,57.449L256,458.604l39.618,47.533l22.99-57.449
				l52.367,32.964l4.112-61.742l59.991,15.168l-15.168-59.991l61.742-4.112l-32.964-52.367l57.449-22.99L458.604,256z M256,317.395
				c-33.908,0-61.395-27.488-61.395-61.395s27.487-61.395,61.395-61.395s61.395,27.488,61.395,61.395S289.908,317.395,256,317.395z"
				/>
		</g>
		<g>
			<path class="st4" d="M256,86.43c-93.651,0-169.57,75.919-169.57,169.57S162.349,425.57,256,425.57S425.57,349.651,425.57,256
				S349.651,86.43,256,86.43z M256,317.395c-33.908,0-61.395-27.488-61.395-61.395s27.487-61.395,61.395-61.395
				s61.395,27.488,61.395,61.395S289.908,317.395,256,317.395z"/>
		</g>
		<g>
			<path class="st1" d="M256,133.269c-67.783,0-122.731,54.949-122.731,122.731S188.217,378.731,256,378.731
				S378.731,323.783,378.731,256S323.782,133.269,256,133.269z M256,317.395c-33.908,0-61.395-27.488-61.395-61.395
				s27.487-61.395,61.395-61.395s61.395,27.488,61.395,61.395S289.908,317.395,256,317.395z"/>
		</g>
		<g>
			<path class="st2" d="M256,169.129c-47.977,0-86.871,38.893-86.871,86.871s38.893,86.871,86.871,86.871
				s86.871-38.893,86.871-86.871S303.977,169.129,256,169.129z M256,317.395c-33.908,0-61.395-27.488-61.395-61.395
				s27.487-61.395,61.395-61.395s61.395,27.488,61.395,61.395S289.908,317.395,256,317.395z"/>
		</g>
		<g>
			<path class="st3" d="M295.617,512c-1.723,0-3.379-0.762-4.503-2.109L256,467.76l-35.115,42.131
				c-1.324,1.586-3.385,2.358-5.421,2.036c-2.04-0.322-3.759-1.695-4.526-3.612l-20.376-50.919l-46.415,29.217
				c-1.748,1.099-3.947,1.198-5.784,0.262c-1.84-0.937-3.051-2.773-3.188-4.834l-3.645-54.724l-53.172,13.445
				c-1.999,0.505-4.122-0.078-5.582-1.539c-1.461-1.46-2.045-3.58-1.539-5.582l13.445-53.172l-54.724-3.645
				c-2.061-0.137-3.897-1.348-4.834-3.188c-0.938-1.84-0.838-4.037,0.261-5.784l29.218-46.415L3.684,301.061
				c-1.917-0.767-3.289-2.486-3.612-4.526c-0.323-2.039,0.45-4.098,2.036-5.421L44.24,256L2.109,220.886
				c-1.586-1.323-2.36-3.382-2.036-5.421c0.323-2.04,1.695-3.758,3.612-4.526l50.919-20.376l-29.218-46.415
				c-1.099-1.747-1.199-3.945-0.261-5.784c0.937-1.84,2.773-3.051,4.834-3.188l54.724-3.645L71.238,78.359
				c-0.506-2.002,0.078-4.122,1.539-5.582c1.46-1.461,3.581-2.043,5.582-1.539l53.172,13.445l3.645-54.724
				c0.137-2.061,1.348-3.897,3.188-4.834c1.84-0.939,4.037-0.838,5.784,0.261l46.415,29.218l20.376-50.919
				c0.767-1.917,2.486-3.289,4.526-3.612c2.035-0.325,4.097,0.45,5.421,2.036L256,44.24l35.114-42.131
				c1.324-1.586,3.385-2.361,5.421-2.036c2.04,0.322,3.759,1.695,4.526,3.612l20.376,50.919l46.415-29.218
				c1.748-1.099,3.947-1.199,5.784-0.261c1.84,0.937,3.052,2.773,3.188,4.834l3.645,54.724l53.172-13.445
				c1.996-0.508,4.122,0.077,5.582,1.539c1.461,1.46,2.045,3.58,1.539,5.582l-13.445,53.172l54.724,3.645
				c2.061,0.136,3.897,1.348,4.834,3.188c0.938,1.84,0.838,4.037-0.261,5.784l-29.218,46.415l50.919,20.376
				c1.917,0.767,3.289,2.486,3.612,4.526c0.323,2.039-0.45,4.098-2.036,5.421L467.76,256l42.131,35.115
				c1.586,1.323,2.36,3.382,2.036,5.421c-0.323,2.04-1.695,3.759-3.612,4.526l-50.919,20.376l29.218,46.415
				c1.099,1.747,1.199,3.945,0.261,5.784c-0.937,1.84-2.773,3.051-4.834,3.188l-54.724,3.645l13.445,53.172
				c0.506,2.002-0.078,4.122-1.539,5.582c-1.459,1.462-3.579,2.048-5.582,1.539l-53.172-13.445l-3.645,54.724
				c-0.136,2.061-1.348,3.897-3.188,4.834c-1.84,0.938-4.037,0.838-5.784-0.262l-46.415-29.217l-20.376,50.919
				c-0.767,1.917-2.486,3.289-4.526,3.612C296.229,511.976,295.923,512,295.617,512z M256,452.741c1.74,0,3.389,0.773,4.504,2.109
				l33.324,39.982l19.338-48.322c0.646-1.615,1.976-2.86,3.631-3.397c1.653-0.539,3.463-0.313,4.935,0.614l44.048,27.728
				l3.46-51.933c0.115-1.737,0.996-3.331,2.404-4.354c1.407-1.022,3.197-1.363,4.883-0.941l50.46,12.759l-12.758-50.46
				c-0.426-1.687-0.081-3.475,0.941-4.883c1.023-1.407,2.617-2.288,4.354-2.404l51.933-3.46l-27.728-44.048
				c-0.927-1.472-1.152-3.28-0.614-4.935c0.537-1.655,1.782-2.985,3.397-3.631l48.323-19.338l-39.982-33.323
				c-1.336-1.115-2.109-2.764-2.109-4.504c0-1.739,0.773-3.389,2.109-4.504l39.982-33.323l-48.323-19.338
				c-1.615-0.646-2.86-1.976-3.397-3.631c-0.538-1.655-0.313-3.463,0.614-4.935l27.728-44.048l-51.933-3.46
				c-1.737-0.115-3.331-0.996-4.354-2.404c-1.022-1.407-1.366-3.196-0.941-4.883l12.758-50.46l-50.46,12.759
				c-1.685,0.424-3.475,0.081-4.883-0.941c-1.407-1.023-2.288-2.617-2.404-4.354l-3.46-51.933l-44.048,27.728
				c-1.472,0.926-3.283,1.153-4.935,0.613c-1.655-0.537-2.985-1.782-3.631-3.397l-19.338-48.323L260.504,57.15
				c-1.115,1.336-2.764,2.109-4.504,2.109c-1.74,0-3.389-0.773-4.504-2.109l-33.324-39.982l-19.338,48.323
				c-0.646,1.615-1.976,2.86-3.631,3.397c-1.653,0.539-3.462,0.313-4.935-0.613l-44.048-27.728l-3.46,51.933
				c-0.115,1.737-0.996,3.331-2.404,4.354c-1.408,1.022-3.197,1.365-4.883,0.941l-50.46-12.759l12.758,50.46
				c0.426,1.687,0.081,3.475-0.941,4.883c-1.023,1.407-2.617,2.288-4.354,2.404l-51.933,3.46l27.728,44.048
				c0.927,1.472,1.152,3.281,0.614,4.935c-0.537,1.655-1.782,2.985-3.397,3.631l-48.322,19.338l39.982,33.323
				c1.336,1.115,2.109,2.764,2.109,4.504c0,1.74-0.773,3.389-2.109,4.504l-39.982,33.323l48.322,19.338
				c1.615,0.646,2.86,1.976,3.397,3.631c0.538,1.655,0.313,3.463-0.614,4.935l-27.728,44.048l51.933,3.46
				c1.737,0.116,3.331,0.996,4.354,2.404c1.022,1.408,1.366,3.196,0.941,4.883l-12.758,50.46l50.46-12.759
				c1.686-0.423,3.475-0.081,4.883,0.941c1.407,1.023,2.288,2.617,2.404,4.354l3.46,51.933l44.048-27.728
				c1.473-0.926,3.282-1.153,4.935-0.614c1.655,0.537,2.985,1.783,3.631,3.397l19.338,48.322l33.324-39.982
				C252.611,453.514,254.26,452.741,256,452.741z"/>
		</g>
		<g>
			<path class="st3" d="M256,384.594c-70.906,0-128.593-57.687-128.593-128.594c0-70.906,57.687-128.593,128.593-128.593
				S384.593,185.094,384.593,256C384.593,326.907,326.906,384.594,256,384.594z M256,139.132
				c-64.442,0-116.868,52.426-116.868,116.868c0,64.442,52.426,116.868,116.868,116.868S372.868,320.442,372.868,256
				C372.868,191.558,320.442,139.132,256,139.132z"/>
		</g>
		<g>
			<path class="st3" d="M256,323.258c-37.086,0-67.258-30.172-67.258-67.258c0-37.086,30.172-67.258,67.258-67.258
				s67.258,30.172,67.258,67.258C323.258,293.086,293.086,323.258,256,323.258z M256,200.468c-30.62,0-55.532,24.912-55.532,55.532
				S225.38,311.533,256,311.533S311.532,286.62,311.532,256S286.62,200.468,256,200.468z"/>
		</g>
	</g>
</g>
</svg>
