<?xml version="1.0" encoding="utf-8"?>
<!-- Generator: Adobe Illustrator 22.0.0, SVG Export Plug-In . SVG Version: 6.00 Build 0)  -->
<svg version="1.1" id="Icon_Set" xmlns="http://www.w3.org/2000/svg" xmlns:xlink="http://www.w3.org/1999/xlink" x="0px" y="0px"
	 viewBox="0 0 512 512" style="enable-background:new 0 0 512 512;" xml:space="preserve">
<style type="text/css">
	.st0{fill:#F0C48A;}
	.st1{fill:#7BABF1;}
	.st2{fill:#4C4372;}
	.st3{fill:#FD919E;}
	.st4{fill:#E8677D;}
	.st5{fill:#A4CFF2;}
	.st6{fill:#D3E6F8;}
	.st7{fill:#FFFFFF;}
</style>
<g>
	<circle class="st0" cx="256" cy="256" r="207"/>
	<g>
		<g>
			<path class="st1" d="M110,387h8.3v-52.3H110c-14.5,0-26.2,11.7-26.2,26.2l0,0C83.8,375.3,95.5,387,110,387z"/>
		</g>
		<g>
			<path class="st2" d="M118.3,392.9H110c-17.7,0-32-14.4-32-32s14.4-32,32-32h8.3c3.2,0,5.9,2.6,5.9,5.9V387
				C124.2,390.2,121.6,392.9,118.3,392.9z M110,340.5c-11.2,0-20.3,9.1-20.3,20.3s9.1,20.3,20.3,20.3h2.5v-40.6L110,340.5L110,340.5
				z"/>
		</g>
		<g>
			<path class="st1" d="M309.9,447.5H202.1c-9.8,0-17.7-7.9-17.7-17.7v-16.1h143.3v16.1C327.7,439.5,319.7,447.5,309.9,447.5z"/>
		</g>
		<g>
			<path class="st3" d="M299.3,276h-86.7c-11.9,0-21.5-9.6-21.5-21.5V106.8c0-11.9,9.6-21.5,21.5-21.5h86.7
				c11.9,0,21.5,9.6,21.5,21.5v147.7C320.8,266.3,311.2,276,299.3,276z"/>
		</g>
		<g>
			<path class="st4" d="M299.3,86H296v191h3.3c11.9,0,20.7-10.6,20.7-22.5V106.8C320,94.9,311.2,86,299.3,86z"/>
		</g>
		<g>
			<rect x="164.7" y="29.3" class="st5" width="182.6" height="26.4"/>
		</g>
		<g>
			<rect x="303.9" y="29.3" class="st1" width="43.1" height="26.4"/>
		</g>
		<g>
			<rect x="164.7" y="161.1" class="st1" width="26.5" height="39"/>
		</g>
		<g>
			<rect x="320.8" y="161.1" class="st1" width="26.2" height="39"/>
		</g>
		<g>
			<path class="st5" d="M370.5,6h0.4c-13,0-23.9,10.4-23.9,23.4V309h18v105h27V29.4C392,16.4,383.4,6,370.5,6z"/>
		</g>
		<g>
			<path class="st6" d="M163,309V29.4c0-13-9-23.4-22-23.4h0.4c-13,0-24.4,10.4-24.4,23.4V414h28V309H163z"/>
		</g>
		<g>
			<path class="st2" d="M299.3,281.8h-86.7c-15.1,0-27.3-12.3-27.3-27.3V106.8c0-15.1,12.3-27.3,27.3-27.3h86.7
				c15.1,0,27.3,12.3,27.3,27.3v147.7C326.7,269.6,314.4,281.8,299.3,281.8z M212.7,91.1c-8.6,0-15.6,7-15.6,15.6v147.7
				c0,8.6,7,15.6,15.6,15.6h86.7c8.6,0,15.6-7,15.6-15.6V106.8c0-8.6-7-15.6-15.6-15.6C299.3,91.1,212.7,91.1,212.7,91.1z"/>
		</g>
		<g>
			<circle class="st4" cx="256" cy="180.7" r="37.9"/>
		</g>
		<g>
			<path class="st2" d="M256,224.5c-24.1,0-43.8-19.6-43.8-43.8s19.6-43.8,43.8-43.8s43.8,19.6,43.8,43.8
				C299.8,204.8,280.1,224.5,256,224.5z M256,148.6c-17.7,0-32.1,14.4-32.1,32.1s14.4,32.1,32.1,32.1s32.1-14.4,32.1-32.1
				S273.7,148.6,256,148.6z"/>
		</g>
		<g>
			<path class="st2" d="M191.2,206h-26.5c-3.2,0-5.9-2.6-5.9-5.9v-39c0-3.2,2.6-5.9,5.9-5.9h26.5c3.2,0,5.9,2.6,5.9,5.9v39
				C197.1,203.3,194.4,206,191.2,206z M170.6,194.2h14.8V167h-14.8V194.2z"/>
		</g>
		<g>
			<path class="st2" d="M346.2,206h-25.4c-3.2,0-5.9-2.6-5.9-5.9v-39c0-3.2,2.6-5.9,5.9-5.9h25.4c3.2,0,5.9,2.6,5.9,5.9v39
				C352,203.3,349.4,206,346.2,206z M326.7,194.2H341V167h-14.3V194.2z"/>
		</g>
		<g>
			<path class="st2" d="M346.1,61.6H164.7c-3.2,0-5.9-2.6-5.9-5.9V29.3c0-3.2,2.6-5.9,5.9-5.9h181.4c3.2,0,5.9,2.6,5.9,5.9v26.4
				C352,58.9,349.4,61.6,346.1,61.6z M170.6,49.8H341V35.2H170.6V49.8z"/>
		</g>
		<g>
			<path class="st2" d="M393.7,420h-27.3c-3.2,0-7.4-2.5-7.4-5.7V315h-11.2c-3.2,0-6.8-3-6.8-6.2V29.4c0-16.1,12.8-29,28.7-29.3
				c0.1,0,0.7-0.1,0.8-0.1h0.4c0.1,0-0.5,0.1-0.4,0.1C386.2,0.5,398,13.6,398,29.4v384.9C398,417.5,397,420,393.7,420z M371,408h16
				V29.4c0-9.8-8-17.5-17.6-17.5c-9.5,0.1-17.4,7.8-17.4,17.5V303h14.4c3.2,0,4.6,2.5,4.6,5.8V408z"/>
		</g>
		<g>
			<path class="st2" d="M146.6,420h-28.3c-3.2,0-7.3-2.5-7.3-5.7V29.4c0-16.1,13.1-29,29-29.3c0.1,0,0.9-0.1,1-0.1h0.4
				c0.1,0-0.3,0.1-0.1,0.1C157.2,0.5,169,13.3,169,29.4v279.4c0,3.2-1.6,6.2-4.8,6.2H151v99.3C151,417.5,149.8,420,146.6,420z
				 M123,408h17v-99.2c0-3.2,3.4-5.8,6.6-5.8H157V29.4c0-9.8-7.4-17.5-17.1-17.5c-9.5,0.1-16.9,7.8-16.9,17.5V408z"/>
		</g>
		<g>
			<path class="st2" d="M309.9,453.3H202.1c-13,0-23.6-10.6-23.6-23.6v-16.1c0-3.2,2.6-5.9,5.9-5.9h143.3c3.2,0,5.9,2.6,5.9,5.9
				v16.1C333.5,442.8,322.9,453.3,309.9,453.3z M190.2,419.5v10.2c0,6.5,5.3,11.9,11.9,11.9h107.9c6.5,0,11.9-5.3,11.9-11.9v-10.2
				H190.2z"/>
		</g>
		<g>
			<path class="st1" d="M402,154.5h-8.3v52.3h8.3c14.5,0,26.2-11.7,26.2-26.2l0,0C428.2,166.2,416.5,154.5,402,154.5z"/>
		</g>
		<g>
			<path class="st2" d="M402,212.7h-8.3c-3.2,0-5.9-2.6-5.9-5.9v-52.3c0-3.2,2.6-5.9,5.9-5.9h8.3c17.7,0,32,14.4,32,32
				C434,198.3,419.7,212.7,402,212.7z M399.5,201h2.5c11.2,0,20.3-9.1,20.3-20.3c0-11.2-9.1-20.3-20.3-20.3h-2.5V201z"/>
		</g>
		<g>
			<rect x="238.2" y="447.5" class="st7" width="42.7" height="58.7"/>
		</g>
		<g>
			<path class="st2" d="M280.9,512.1h-42.7c-3.2,0-5.9-2.6-5.9-5.9v-58.7c0-3.2,2.6-5.9,5.9-5.9h42.7c3.2,0,5.9,2.6,5.9,5.9v58.7
				C286.7,509.5,284.1,512.1,280.9,512.1z M244.1,500.4H275v-47h-30.9V500.4z"/>
		</g>
		<g>
			<rect x="146.3" y="308.6" class="st3" width="219.4" height="105.1"/>
		</g>
		<g>
			<rect x="340.8" y="308.6" class="st4" width="26" height="105.1"/>
		</g>
		<g>
			<rect x="173.6" y="332" class="st4" width="74.7" height="57.8"/>
		</g>
		<g>
			<circle class="st1" cx="311.8" cy="375.8" r="17"/>
		</g>
		<g>
			<path class="st2" d="M248.4,395.7h-74.7c-3.2,0-5.9-2.6-5.9-5.9V332c0-3.2,2.6-5.9,5.9-5.9h74.7c3.2,0,5.9,2.6,5.9,5.9v57.8
				C254.2,393.1,251.6,395.7,248.4,395.7z M179.5,384h63v-46.1h-63L179.5,384L179.5,384z"/>
		</g>
		<g>
			<path class="st2" d="M311.8,398.7c-12.6,0-22.9-10.3-22.9-22.9s10.3-22.9,22.9-22.9s22.9,10.3,22.9,22.9S324.4,398.7,311.8,398.7
				z M311.8,364.6c-6.2,0-11.2,5-11.2,11.2s5,11.2,11.2,11.2s11.2-5,11.2-11.2S317.9,364.6,311.8,364.6z"/>
		</g>
		<g>
			<g>
				<circle class="st2" cx="284.2" cy="337.9" r="7.3"/>
			</g>
		</g>
		<g>
			<g>
				<circle class="st2" cx="311.8" cy="337.9" r="7.3"/>
			</g>
		</g>
		<g>
			<g>
				<circle class="st2" cx="339.3" cy="337.9" r="7.3"/>
			</g>
		</g>
		<g>
			<path class="st2" d="M365.7,419.5H146.3c-3.2,0-5.9-2.6-5.9-5.9V308.6c0-3.2,2.6-5.9,5.9-5.9h219.4c3.2,0,5.9,2.6,5.9,5.9v105.1
				C371.6,416.9,369,419.5,365.7,419.5z M152.1,407.8h207.7v-93.4H152.1V407.8z"/>
		</g>
	</g>
</g>
</svg>
