<?xml version="1.0" encoding="utf-8"?>
<!-- Generator: Adobe Illustrator 22.0.0, SVG Export Plug-In . SVG Version: 6.00 Build 0)  -->
<svg version="1.1" id="Icon_Set" xmlns="http://www.w3.org/2000/svg" xmlns:xlink="http://www.w3.org/1999/xlink" x="0px" y="0px"
	 viewBox="0 0 512 512" style="enable-background:new 0 0 512 512;" xml:space="preserve">
<style type="text/css">
	.st0{fill:#D3E6F8;}
	.st1{fill:#7BABF1;}
	.st2{fill:#A4CFF2;}
	.st3{fill:#E8677D;}
	.st4{fill:#FD919E;}
	.st5{fill:#4C4372;}
</style>
<g>
	<g>
		<circle class="st0" cx="256" cy="256" r="250.1"/>
	</g>
	<g>
		<path class="st1" d="M254.8,5.9C117,6.2,5.1,118.1,5.1,256C5.1,394.1,117,506.1,255,506.1V6L254.8,5.9z"/>
	</g>
	<g>
		<polygon class="st2" points="255,47 199.4,47 102.2,102.6 46,199.2 46,311.2 102.2,408.6 199.4,465 255,465 		"/>
	</g>
	<g>
		<polygon class="st3" points="255,412 255,99 191.3,99 99,190.9 99,320.3 191.3,412 		"/>
	</g>
	<g>
		<polygon class="st4" points="254.9,361 186.9,361 144.7,231.1 255.1,150.8 		"/>
	</g>
	<g>
		<path class="st2" d="M256,5.9c-8.1,0-16.1,0.4-24.1,1.2C358.8,19.1,458,126,458,256s-99.2,236.9-226.1,249
			c7.9,0.8,15.9,1.2,24.1,1.2c138.1,0,250.1-112,250.1-250.1S394.1,5.9,256,5.9z"/>
	</g>
	<g>
		<path class="st1" d="M452.1,411.3l-38.5-51.8c-9.9-13.4-25.4-21.5-42.1-22.2l0,0c-27.9-1.1-52.2,19-56.5,46.6l-2.1,13.5l15.4,98
			C377.7,480.6,420.7,450.8,452.1,411.3z"/>
	</g>
	<g>
		<path class="st1" d="M370.9,33.8l-18.6-8.7c-0.1,0-0.1,0.1-0.2,0.1l-23.2,81.4c-3.9,13.6,1,28.1,12.2,36.7l37.6,28.8l-4.4,47.3
			c-1.2,13.3,5.4,26.2,16.9,32.9l0,0c17.4,10.1,39.7,3.2,48.4-15l42.3-89.1C458.3,99.1,419.2,58.8,370.9,33.8z"/>
	</g>
	<g>
		<path class="st5" d="M328.2,501.4c-1.1,0-2.2-0.3-3.1-0.9c-1.4-0.9-2.4-2.4-2.7-4.1l-15.4-98c-0.1-0.6-0.1-1.2,0-1.8l2.1-13.5
			c2.2-14.4,9.5-27.5,20.6-37c11-9.4,25.1-14.6,39.6-14.6c0.8,0,1.6,0,2.4,0c18.5,0.7,35.5,9.7,46.6,24.5l38.5,51.8
			c1.6,2.1,1.5,5.1-0.1,7.1c-32.7,41.3-76.6,71.1-126.7,86.2C329.4,501.3,328.8,501.4,328.2,501.4z M318.8,397.5l14.2,90.4
			c43.8-14.5,82.2-40.9,111.7-76.7L408.9,363c-8.9-12-22.6-19.2-37.6-19.8c-25.2-1-46.7,16.9-50.5,41.6L318.8,397.5z"/>
	</g>
	<g>
		<path class="st5" d="M408.4,262.9L408.4,262.9c-7.1,0-14.1-1.9-20.2-5.5c-13.5-7.8-21.3-23-19.8-38.5l4.1-44.1l-35-26.8
			c-13.2-10.1-18.8-27-14.2-43l23.2-81.4c0.5-1.7,1.6-3,3.2-3.7l0.2-0.1c1.6-0.7,3.4-0.7,4.9,0l18.6,8.7c0.1,0,0.1,0.1,0.2,0.1
			c49.3,25.5,89.6,67.1,113.5,117.1c0.8,1.6,0.8,3.4,0,5l-42.3,89.1C438.2,253.8,423.9,262.9,408.4,262.9z M355.9,33.2l-21.3,75
			c-3.2,11.3,0.7,23.3,10.1,30.4l37.6,28.8c1.6,1.2,2.5,3.2,2.3,5.2L380,220c-1,11,4.5,21.7,14.1,27.3c4.4,2.5,9.3,3.9,14.3,3.9
			c11,0,21.1-6.4,25.8-16.3l41.1-86.6c-22.9-46.6-60.8-85.3-107-109.2L355.9,33.2z"/>
	</g>
	<g>
		<path class="st5" d="M254.9,366h-68c-2.5,0-4.8-1.4-5.6-3.8l-42.2-129.6c-0.8-2.4,0.1-5,2.1-6.5l110.4-80.4
			c1.8-1.3,4.1-1.5,6.1-0.5c2,1,3.2,3,3.2,5.2l-0.2,209.9C260.8,363.6,258.2,366,254.9,366z M191.1,355h57.9l0.2-192.9l-97.7,71.2
			L191.1,355z"/>
	</g>
	<g>
		<path class="st5" d="M256,418h-64.7c-1.6,0-3.1-0.5-4.2-1.6l-92.1-92c-1.1-1.1-2.1-2.5-2.1-4.1V190.9c0-1.6,1-3,2.1-4.1L187,94.6
			c1.1-1.1,2.8-1.6,4.4-1.6H256c3.2,0,5,2.4,5,5.7v313.6C261,415.6,259.2,418,256,418z M193.8,406H249V105h-55.2L105,193.3v124.6
			L193.8,406z"/>
	</g>
	<g>
		<path class="st5" d="M256,471h-56.6c-1,0-2.1-0.3-3-0.8l-96.8-56.4c-0.9-0.5-1.6-1.3-2.1-2.2l-56.3-97.4c-0.5-0.9-1.3-1.9-1.3-2.9
			v-112c0-1,0.8-2,1.3-2.9l56-96.7c0.5-0.9,1.4-1.6,2.3-2.2l96.8-55.7c0.9-0.5,2-0.8,3-0.8H256c3.2,0,5,2.7,5,5.9v418.2
			C261,468.3,259.2,471,256,471z M201,459h48V53h-48l-94.4,54L52,200.8v108.9l54.6,94.6L201,459z"/>
	</g>
	<g>
		<path class="st5" d="M261,512h-5c-68.4,0-132.7-26.6-181-75C26.6,388.7,0,324.4,0,256c0-68.3,26.5-132.5,74.8-180.8
			C122.9,26.9,187.1,0.2,255.3,0l0.3,0l5.4,1.5V512z M249,11.8C117,14.9,10.6,123.4,10.6,256C10.6,388.7,117,497.1,249,500.2V11.8z"
			/>
	</g>
	<g>
		<path class="st5" d="M256,512c-68.4,0-132.7-26.6-181-75C26.6,388.7,0,324.4,0,256S26.6,123.3,75,75C123.3,26.6,187.6,0,256,0
			s132.7,26.6,181,75c48.4,48.4,75,112.6,75,181s-26.6,132.7-75,181C388.7,485.4,324.4,512,256,512z M256,11.7
			C121.3,11.7,11.7,121.3,11.7,256S121.3,500.3,256,500.3S500.3,390.7,500.3,256S390.7,11.7,256,11.7z"/>
	</g>
</g>
</svg>
