<?xml version="1.0" encoding="utf-8"?>
<!-- Generator: Adobe Illustrator 18.0.0, SVG Export Plug-In . SVG Version: 6.00 Build 0)  -->
<!DOCTYPE svg PUBLIC "-//W3C//DTD SVG 1.1//EN" "http://www.w3.org/Graphics/SVG/1.1/DTD/svg11.dtd">
<svg version="1.1" id="Icon_Set" xmlns="http://www.w3.org/2000/svg" xmlns:xlink="http://www.w3.org/1999/xlink" x="0px" y="0px"
	 viewBox="0 0 512 512" style="enable-background:new 0 0 512 512;" xml:space="preserve">
<style type="text/css">
	.st0{fill:#F0C48A;}
	.st1{fill:#FD919E;}
	.st2{fill:#E8677D;}
	.st3{fill:#4C4372;}
	.st4{fill:#D3E6F8;}
	.st5{fill:#A4CFF2;}
	.st6{fill:#FFFFFF;}
	.st7{fill:#7BABF1;}
</style>
<g>
	<circle class="st0" cx="256" cy="256" r="207"/>
	<g>
		<g>
			<g>
				<polygon class="st1" points="221.017,209.73 40.836,209.73 130.926,107.797 221.017,5.863 311.107,107.797 401.197,209.73 				
					"/>
			</g>
			<g>
				<polygon class="st2" points="395.368,209.73 40.836,209.73 63.198,185.365 376.252,185.365 				"/>
			</g>
			<g>
				<path class="st2" d="M208.814,27.377l142.073,157.988c0,0,31.678,3.284,18.099-12.08
					C355.407,157.921,221.017,5.863,221.017,5.863L208.814,27.377z"/>
			</g>
			<g>
				<polyline class="st1" points="82.251,161.945 82.251,57.575 133.075,57.575 133.075,104.99 				"/>
			</g>
			<g>
				<polygon class="st2" points="127.819,116.286 112.748,135.834 112.748,59.883 127.819,59.883 				"/>
			</g>
			<g>
				<rect x="82.251" y="209.73" class="st4" width="277.531" height="205.503"/>
			</g>
			<g>
				<rect x="332.54" y="211.67" class="st7" width="27.242" height="203.564"/>
			</g>
			<g>
				<polyline class="st1" points="112.748,415.233 112.748,278.97 196.839,278.97 196.839,415.233 				"/>
			</g>
			<g>
				<rect x="225.06" y="278.97" class="st6" width="104.226" height="66.459"/>
			</g>
			<g>
				<rect x="82.251" y="415.233" class="st7" width="277.531" height="23.119"/>
			</g>
			<g>
				<path class="st3" d="M359.782,421.096H82.251c-3.238,0-5.863-2.625-5.863-5.863V209.73c0-3.238,2.625-5.863,5.863-5.863h277.531
					c3.238,0,5.863,2.625,5.863,5.863v205.503C365.645,418.471,363.02,421.096,359.782,421.096z M88.114,409.371h265.805V215.593
					H88.114V409.371z"/>
			</g>
			<g>
				<path class="st3" d="M401.197,215.593H40.836c-2.306,0-4.397-1.352-5.345-3.453c-0.947-2.102-0.575-4.564,0.952-6.292
					L216.624,1.98c1.113-1.259,2.712-1.98,4.393-1.98c1.68,0,3.28,0.721,4.393,1.98l180.18,203.867
					c1.527,1.728,1.899,4.19,0.952,6.292C405.594,214.241,403.503,215.593,401.197,215.593z M53.842,203.867h334.349L221.017,14.715
					L53.842,203.867z"/>
			</g>
			<g>
				<path class="st3" d="M196.839,421.096c-3.238,0-5.863-2.625-5.863-5.863V284.832H118.61v130.401
					c0,3.238-2.625,5.863-5.863,5.863c-3.238,0-5.863-2.625-5.863-5.863V278.97c0-3.238,2.625-5.863,5.863-5.863h84.092
					c3.238,0,5.863,2.625,5.863,5.863v136.264C202.702,418.471,200.077,421.096,196.839,421.096z"/>
			</g>
			<g>
				<path class="st3" d="M359.782,444.215H82.251c-3.238,0-5.863-2.625-5.863-5.863v-23.118c0-3.238,2.625-5.863,5.863-5.863
					h277.531c3.238,0,5.863,2.625,5.863,5.863v23.118C365.645,441.59,363.02,444.215,359.782,444.215z M88.114,432.489h265.805
					v-11.393H88.114V432.489z"/>
			</g>
			<g>
				<path class="st3" d="M376.252,191.227H63.198c-3.238,0-5.863-2.625-5.863-5.863c0-3.238,2.625-5.863,5.863-5.863h313.054
					c3.238,0,5.863,2.625,5.863,5.863C382.115,188.603,379.49,191.227,376.252,191.227z"/>
			</g>
			<g>
				<path class="st3" d="M82.251,167.807c-3.238,0-5.863-2.625-5.863-5.863V57.575c0-3.238,2.625-5.863,5.863-5.863h50.824
					c3.238,0,5.863,2.625,5.863,5.863v47.415c0,3.238-2.625,5.863-5.863,5.863c-3.238,0-5.863-2.625-5.863-5.863V63.437H88.114
					v98.507C88.114,165.182,85.489,167.807,82.251,167.807z"/>
			</g>
			<g>
				<rect x="263.972" y="283.792" class="st4" width="8.744" height="56.404"/>
			</g>
			<g>
				<rect x="315.589" y="283.792" class="st4" width="8.744" height="56.404"/>
			</g>
			<g>
				<path class="st3" d="M329.286,351.291H225.06c-3.238,0-5.863-2.625-5.863-5.863V278.97c0-3.238,2.625-5.863,5.863-5.863h104.226
					c3.238,0,5.863,2.625,5.863,5.863v66.458C335.149,348.666,332.523,351.291,329.286,351.291z M230.923,339.565h92.501v-54.733
					h-92.501V339.565z"/>
			</g>
			<g>
				<path class="st3" d="M277.173,351.291c-3.238,0-5.863-2.625-5.863-5.863V278.97c0-3.238,2.625-5.863,5.863-5.863
					s5.863,2.625,5.863,5.863v66.458C283.036,348.666,280.411,351.291,277.173,351.291z"/>
			</g>
		</g>
		<g>
			<g>
				
					<rect x="352.289" y="368.357" transform="matrix(0.7049 -0.7093 0.7093 0.7049 -176.0223 376.3361)" class="st4" width="23.914" height="62.687"/>
			</g>
			<g>
				
					<rect x="365.569" y="375.746" transform="matrix(0.7049 -0.7093 0.7093 0.7049 -173.702 379.3144)" class="st7" width="6.834" height="45.312"/>
			</g>
			<g>
				<path class="st3" d="M378.05,436.138c-1.548,0-3.034-0.613-4.132-1.704l-44.466-44.186c-1.103-1.096-1.726-2.585-1.73-4.14
					c-0.005-1.555,0.608-3.048,1.704-4.151l16.856-16.963c2.282-2.296,5.994-2.308,8.291-0.026l44.466,44.186
					c2.297,2.282,2.309,5.994,0.026,8.291l-16.856,16.963c-1.096,1.103-2.585,1.726-4.14,1.73
					C378.063,436.138,378.056,436.138,378.05,436.138z M341.876,386.063l36.148,35.921l8.591-8.646l-36.148-35.921L341.876,386.063z
					"/>
			</g>
			<g>
				<path class="st7" d="M205.099,241.555c-39.42,39.67-39.218,103.786,0.452,143.206c39.67,39.42,103.786,39.218,143.206-0.452
					c39.42-39.67,39.218-103.785-0.452-143.206C308.634,201.683,244.519,201.885,205.099,241.555z M332.813,368.466
					c-30.671,30.865-80.555,31.022-111.419,0.352c-30.865-30.671-31.022-80.555-0.352-111.419
					c30.671-30.865,80.555-31.022,111.419-0.352C363.326,287.717,363.484,337.601,332.813,368.466z"/>
			</g>
			<g>
				<path class="st3" d="M276.924,420.007c-27.322,0-54.64-10.353-75.506-31.088c-41.9-41.636-42.114-109.597-0.478-151.497
					c41.635-41.899,109.597-42.115,151.497-0.478c20.297,20.169,31.525,47.035,31.616,75.649
					c0.09,28.614-10.968,55.55-31.137,75.847C332.013,409.475,304.467,420.007,276.924,420.007z M276.93,217.577
					c-24.531,0-49.057,9.376-67.673,28.11c-37.079,37.314-36.887,97.836,0.427,134.915c37.313,37.079,97.836,36.888,134.915-0.426
					c17.961-18.075,27.809-42.063,27.729-67.546c-0.081-25.482-10.079-49.408-28.155-67.369
					C325.593,226.799,301.258,217.577,276.93,217.577z"/>
			</g>
			<g>
				<path class="st3" d="M276.925,397.541c-21.589,0-43.176-8.181-59.663-24.565c-33.109-32.9-33.278-86.602-0.378-119.71
					c15.937-16.038,37.166-24.911,59.777-24.982c0.091-0.001,0.184-0.001,0.275-0.001c22.508,0,43.685,8.731,59.658,24.605
					c33.109,32.9,33.278,86.602,0.378,119.71C320.455,389.219,298.689,397.541,276.925,397.541z M276.934,240.009
					c-0.08,0-0.157,0-0.237,0c-19.478,0.062-37.767,7.704-51.497,21.521c-13.73,13.817-21.257,32.153-21.196,51.632
					c0.062,19.478,7.704,37.767,21.521,51.497c13.76,13.673,32.006,21.196,51.395,21.196c0.079,0,0.157,0,0.237,0
					c19.479-0.062,37.767-7.704,51.497-21.521c13.73-13.817,21.257-32.153,21.196-51.632c-0.061-19.478-7.704-37.767-21.521-51.497
					C314.569,247.531,296.324,240.009,276.934,240.009z"/>
			</g>
			<g>
				<path class="st1" d="M389.456,411.898l-12.854,12.935c-6.811,6.854-6.776,17.932,0.078,24.743l51.813,51.487
					c6.854,6.811,17.932,6.776,24.743-0.078l12.854-12.935c6.811-6.854,6.776-17.932-0.078-24.743l-51.813-51.487
					C407.344,405.009,396.267,405.044,389.456,411.898z"/>
			</g>
			<g>
				<path class="st2" d="M396.5,407.579l-6.673,6.715l73.864,73.399l6.673-6.715c1.899-6.039,0.448-12.901-4.352-17.671
					l-51.813-51.487C409.398,407.05,402.527,405.642,396.5,407.579z"/>
			</g>
			<g>
				<path class="st3" d="M440.824,512c-5.958,0-11.914-2.258-16.464-6.779l-51.813-51.487c-4.426-4.398-6.874-10.256-6.894-16.496
					c-0.02-6.239,2.392-12.112,6.79-16.539l12.853-12.934v0c4.398-4.426,10.256-6.874,16.495-6.894c0.025,0,0.051,0,0.076,0
					c6.211,0,12.055,2.409,16.463,6.79l51.813,51.487c9.136,9.078,9.183,23.897,0.105,33.034l-12.854,12.935
					C452.837,509.704,446.83,512,440.824,512z M393.614,416.03l-12.853,12.935c-2.19,2.204-3.391,5.129-3.381,8.237
					c0.01,3.107,1.229,6.025,3.433,8.215l51.813,51.487c4.55,4.521,11.93,4.498,16.452-0.052l12.854-12.935
					c4.521-4.55,4.498-11.93-0.053-16.452l-51.813-51.487c-2.195-2.181-5.105-3.381-8.199-3.381c-0.013,0-0.025,0-0.038,0
					C398.722,412.607,395.804,413.827,393.614,416.03L393.614,416.03z"/>
			</g>
		</g>
	</g>
</g>
</svg>
