<?xml version="1.0" encoding="utf-8"?>
<!-- Generator: Adobe Illustrator 18.0.0, SVG Export Plug-In . SVG Version: 6.00 Build 0)  -->
<!DOCTYPE svg PUBLIC "-//W3C//DTD SVG 1.1//EN" "http://www.w3.org/Graphics/SVG/1.1/DTD/svg11.dtd">
<svg version="1.1" id="Icon_Set" xmlns="http://www.w3.org/2000/svg" xmlns:xlink="http://www.w3.org/1999/xlink" x="0px" y="0px"
	 viewBox="0 0 512 512" style="enable-background:new 0 0 512 512;" xml:space="preserve">
<style type="text/css">
	.st0{fill:#F0C48A;}
	.st1{fill:#FD919E;}
	.st2{fill:#E8677D;}
	.st3{fill:#4C4372;}
	.st4{fill:#D3E6F8;}
	.st5{fill:#A4CFF2;}
	.st6{fill:#FFFFFF;}
	.st7{fill:#7BABF1;}
</style>
<g>
	<circle class="st0" cx="256" cy="256.026" r="207"/>
	<g>
		<g>
			<path class="st4" d="M334.611,42H311v-1.07C311,21.636,295.379,6,276.085,6h-68.83C187.961,6,173,21.636,173,40.93V42h-24.271
				C138.594,42,129,50.547,129,60.682v137.764C129,208.58,138.594,216,148.729,216H173v2.197C173,237.491,187.961,253,207.255,253
				h68.83C295.379,253,311,237.491,311,218.197V216h23.611c10.135,0,18.389-7.42,18.389-17.554V60.682
				C353,50.547,344.745,42,334.611,42z"/>
		</g>
		<g>
			<path class="st5" d="M353,57.316C351,48.723,343.599,42,334.611,42H311v-1.07c0-5.719-2-11.126-4-15.911v209.027
				c2-4.748,4-10.129,4-15.848V216h23.611c8.988,0,16.389-5.869,18.389-14.236V57.316z"/>
		</g>
		<g>
			<path class="st1" d="M309.21,193.076H173.973c-7.373,0-13.35-5.977-13.35-13.35V79.496c0-7.373,5.977-13.351,13.35-13.351H309.21
				c7.373,0,13.35,5.977,13.35,13.351v100.229C322.56,187.098,316.583,193.076,309.21,193.076z"/>
		</g>
		<g>
			<path class="st6" d="M208,253v219.174c0,18.801,14.199,34.043,33,34.043l0,0c18.801,0,33-15.242,33-34.043V253H208z"/>
		</g>
		<g>
			<path class="st4" d="M250,505.047c14-3.897,24-17.135,24-32.874V253h-24V505.047z"/>
		</g>
		<g>
			<path class="st7" d="M372.121,114.901h-19.018V72.729h19.018c5.513,0,9.983,4.469,9.983,9.983v22.206
				C382.104,110.432,377.635,114.901,372.121,114.901z"/>
		</g>
		<g>
			<path class="st7" d="M372.121,186.492h-19.018V144.32h19.018c5.513,0,9.983,4.469,9.983,9.983v22.206
				C382.104,182.022,377.635,186.492,372.121,186.492z"/>
		</g>
		<g>
			<path class="st3" d="M309.21,198.937H173.973c-10.593,0-19.212-8.619-19.212-19.212V79.496c0-10.593,8.619-19.212,19.212-19.212
				H309.21c10.593,0,19.212,8.618,19.212,19.212v100.229C328.422,190.319,319.803,198.937,309.21,198.937z M173.973,72.007
				c-4.129,0-7.489,3.36-7.489,7.489v100.229c0,4.13,3.36,7.489,7.489,7.489H309.21c4.13,0,7.489-3.359,7.489-7.489V79.496
				c0-4.129-3.359-7.489-7.489-7.489H173.973z"/>
		</g>
		<g>
			<path class="st3" d="M241,512.078c-21.912,0-39-17.528-39-39.904V253.096c0-3.237,3.789-6.096,7.026-6.096h66.43
				c3.237,0,4.545,2.859,4.545,6.096v219.077C280,494.55,262.912,512.078,241,512.078z M214,259v213.174
				c0,15.803,12.161,28.181,27.5,28.181s27.5-12.379,27.5-28.181V259H214z"/>
		</g>
		<g>
			<path class="st3" d="M276.085,259h-68.83c-20.832,0-37.393-16-39.112-37h-19.413C134.882,222,123,211.561,123,198.446V60.682
				C123,47.424,135.344,36,148.729,36h19.512c2.177-20,18.531-36,39.013-36h68.83c21.203,0,38.733,16,41.104,36h17.422
				C348.086,36,358,47.424,358,60.682v137.764c0,12.897-9.682,23.554-23.389,23.554h-17.312C315.424,243,297.655,259,276.085,259z
				 M148.729,48C141.82,48,135,53.897,135,60.682v137.764c0,6.542,6.456,11.554,13.729,11.554h25.128
				c3.237,0,5.143,2.736,5.143,5.974v2.224C179,234.752,191.557,247,207.255,247h68.83C292.436,247,305,234.209,305,218.198v-2.224
				c0-3.237,3.364-5.974,6.601-5.974h23.011c6.457,0,12.389-4.251,12.389-11.554V60.682C347,53.897,341.608,48,334.611,48h-23.011
				c-3.237,0-6.601-2.678-6.601-5.915V40.93C305,25.14,292.159,12,276.085,12h-68.83C191.557,12,179,24.324,179,40.93v1.155
				c0,3.237-1.906,5.915-5.143,5.915H148.729z"/>
		</g>
		<g>
			<path class="st3" d="M160.177,174.561c-2.837,0-5.332-2.065-5.783-4.957c-0.5-3.198,1.688-6.196,4.886-6.696l55.812-8.721
				c11.547-1.804,19.929-11.597,19.929-23.285c0-17.543,12.585-32.213,29.924-34.88l56.796-8.01c3.201-0.451,6.171,1.78,6.623,4.986
				c0.452,3.205-1.78,6.171-4.986,6.623l-56.723,7.999c-11.506,1.771-19.911,11.567-19.911,23.283
				c0,17.502-12.551,32.166-29.843,34.868l-55.812,8.721C160.782,174.537,160.478,174.561,160.177,174.561z"/>
		</g>
		<g>
			<path class="st3" d="M372.121,120.762h-19.018c-3.237,0-5.862-2.625-5.862-5.862V72.729c0-3.237,2.625-5.861,5.862-5.861h19.018
				c8.737,0,15.844,7.108,15.844,15.844v22.206C387.965,113.654,380.858,120.762,372.121,120.762z M358.964,109.039h13.157
				c2.272,0,4.121-1.849,4.121-4.121V82.712c0-2.272-1.849-4.121-4.121-4.121h-13.157V109.039z"/>
		</g>
		<g>
			<path class="st3" d="M372.121,192.353h-19.018c-3.237,0-5.862-2.624-5.862-5.861V144.32c0-3.237,2.625-5.861,5.862-5.861h19.018
				c8.737,0,15.844,7.108,15.844,15.844v22.206C387.965,185.245,380.858,192.353,372.121,192.353z M358.964,180.63h13.157
				c2.272,0,4.121-1.849,4.121-4.121v-22.206c0-2.272-1.849-4.121-4.121-4.121h-13.157V180.63z"/>
		</g>
		<g>
			<path class="st3" d="M275.455,297h-66.43c-3.237,0-5.861-2.763-5.861-6s2.624-6,5.861-6h66.43c3.237,0,5.861,2.763,5.861,6
				S278.692,297,275.455,297z"/>
		</g>
		<g>
			<path class="st3" d="M275.455,338h-66.43c-3.237,0-5.861-2.763-5.861-6s2.624-6,5.861-6h66.43c3.237,0,5.861,2.763,5.861,6
				S278.692,338,275.455,338z"/>
		</g>
		<g>
			<path class="st3" d="M275.455,380h-66.43c-3.237,0-5.861-2.763-5.861-6s2.624-6,5.861-6h66.43c3.237,0,5.861,2.763,5.861,6
				S278.692,380,275.455,380z"/>
		</g>
		<g>
			<path class="st3" d="M275.455,422h-66.43c-3.237,0-5.861-2.763-5.861-6s2.624-6,5.861-6h66.43c3.237,0,5.861,2.763,5.861,6
				S278.692,422,275.455,422z"/>
		</g>
		<g>
			<path class="st3" d="M275.455,463h-66.43c-3.237,0-5.861-2.763-5.861-6s2.624-6,5.861-6h66.43c3.237,0,5.861,2.763,5.861,6
				S278.692,463,275.455,463z"/>
		</g>
	</g>
</g>
</svg>
