<?xml version="1.0" encoding="utf-8"?>
<!-- Generator: Adobe Illustrator 18.0.0, SVG Export Plug-In . SVG Version: 6.00 Build 0)  -->
<!DOCTYPE svg PUBLIC "-//W3C//DTD SVG 1.1//EN" "http://www.w3.org/Graphics/SVG/1.1/DTD/svg11.dtd">
<svg version="1.1" id="Icon_Set" xmlns="http://www.w3.org/2000/svg" xmlns:xlink="http://www.w3.org/1999/xlink" x="0px" y="0px"
	 viewBox="0 0 512 512" style="enable-background:new 0 0 512 512;" xml:space="preserve">
<style type="text/css">
	.st0{fill:#F0C48A;}
	.st1{fill:#FD919E;}
	.st2{fill:#E8677D;}
	.st3{fill:#4C4372;}
	.st4{fill:#D3E6F8;}
	.st5{fill:#A4CFF2;}
	.st6{fill:#FFFFFF;}
	.st7{fill:#7BABF1;}
</style>
<g>
	<circle class="st0" cx="256" cy="256" r="207"/>
	<g>
		<g>
			<rect x="321.262" y="273.364" class="st1" width="76.385" height="23.572"/>
		</g>
		<g>
			<rect x="151.393" y="273.364" class="st1" width="166.87" height="23.572"/>
		</g>
		<g>
			<rect x="397.648" y="246.958" class="st2" width="23.572" height="76.385"/>
		</g>
		<g>
			<path class="st3" d="M318.263,302.799h-166.87c-3.238,0-5.863-2.625-5.863-5.863v-23.572c0-3.238,2.625-5.863,5.863-5.863h166.87
				c3.238,0,5.863,2.625,5.863,5.863v23.572C324.126,300.174,321.501,302.799,318.263,302.799z M157.256,291.074H312.4v-11.847
				H157.256V291.074z"/>
		</g>
		<g>
			<path class="st3" d="M397.648,302.799h-76.385c-3.238,0-5.863-2.625-5.863-5.863v-23.572c0-3.238,2.625-5.863,5.863-5.863h76.385
				c3.238,0,5.863,2.625,5.863,5.863v23.572C403.51,300.174,400.885,302.799,397.648,302.799z M327.125,291.074h64.66v-11.847
				h-64.66V291.074z"/>
		</g>
		<g>
			<path class="st3" d="M421.22,329.207h-23.572c-3.238,0-5.863-2.625-5.863-5.863v-76.386c0-3.238,2.625-5.863,5.863-5.863h23.572
				c3.238,0,5.863,2.625,5.863,5.863v76.386C427.083,326.582,424.458,329.207,421.22,329.207z M403.51,317.481h11.847v-64.661
				H403.51V317.481z"/>
		</g>
		<g>
			<path class="st7" d="M226.308,82.248V17.649c0-6.509,5.277-11.786,11.786-11.786h0c6.509,0,11.786,5.277,11.786,11.786v64.599
				H226.308z"/>
		</g>
		<g>
			<path class="st3" d="M249.88,88.11h-23.572c-3.238,0-5.863-2.625-5.863-5.863V17.649C220.445,7.917,228.363,0,238.094,0
				c9.732,0,17.649,7.917,17.649,17.649v64.599C255.743,85.485,253.118,88.11,249.88,88.11z M232.171,76.385h11.847V17.649
				c0-3.266-2.658-5.924-5.924-5.924c-3.266,0-5.923,2.658-5.923,5.924V76.385z"/>
		</g>
		<g>
			<g>
				<path class="st4" d="M264.565,99.267c8-15.272,1.655-34.132-13.95-41.461l0,0c-15.665-7.358-34.299-0.112-40.88,15.894
					L99.861,340.946c-4.314,10.493-7.157,21.541-8.305,32.828c-2.64,25.945-0.504,68.945,33.948,100.601
					c21.697,18.788,41.188,27.422,53.889,31.37c6.659,2.07,12.91-4.197,10.882-10.869l0,0c-0.926-3.049-3.44-5.34-6.558-5.994
					c-10.847-2.275-36.997-10.444-54.334-38.022c-12.407-19.737-16.218-43.65-11.434-66.466c2.458-11.724,7.06-26.161,15.538-42.004
					C155.256,301.711,264.565,99.267,264.565,99.267z"/>
			</g>
			<g>
				<path class="st5" d="M204.573,86.256l-13.577,33.023l33.339,54.519c4.855-8.997,9.483-17.573,13.759-25.494L204.573,86.256z"/>
			</g>
			<g>
				<path class="st3" d="M181.969,512c-1.442,0-2.896-0.216-4.317-0.658c-13.103-4.073-33.453-13.023-55.986-32.536
					c-0.043-0.038-0.086-0.076-0.129-0.115c-37.04-34.034-38.337-80.714-35.814-105.511c1.19-11.697,4.122-23.292,8.715-34.464
					L204.313,71.472c3.799-9.241,11.02-16.324,20.331-19.944c9.313-3.621,19.421-3.275,28.463,0.972
					c9.008,4.231,15.717,11.756,18.891,21.188c3.174,9.433,2.378,19.483-2.24,28.299c-0.011,0.022-0.023,0.043-0.034,0.065
					c-1.093,2.025-109.554,202.899-131.069,243.103c-7.08,13.23-12.117,26.836-14.969,40.441
					c-4.582,21.851-0.796,43.92,10.659,62.142c16.204,25.778,40.766,33.347,50.574,35.405c5.216,1.095,9.417,4.937,10.964,10.027
					c1.575,5.183,0.164,10.777-3.682,14.598C189.431,510.522,185.744,512,181.969,512z M129.407,469.999
					c20.975,18.146,39.702,26.41,51.725,30.147c1.398,0.436,2.358-0.25,2.806-0.696c0.369-0.367,1.18-1.382,0.728-2.87
					c-0.302-0.994-1.127-1.745-2.153-1.961c-11.272-2.366-39.498-11.059-58.093-40.64c-13.081-20.809-17.417-45.949-12.208-70.79
					c3.081-14.696,8.5-29.354,16.107-43.567c21.436-40.055,129.097-239.452,131.07-243.106c3.106-5.949,3.639-12.726,1.498-19.089
					c-2.144-6.372-6.677-11.456-12.763-14.315c-6.109-2.869-12.938-3.104-19.229-0.657c-6.291,2.446-11.17,7.231-13.736,13.474
					L105.283,343.174c-4.163,10.126-6.819,20.622-7.895,31.193C94.579,401.971,97.858,440.961,129.407,469.999z M264.565,99.267
					h0.01H264.565z"/>
			</g>
			<g>
				<path class="st5" d="M211.625,99.267c-8-15.272-1.655-34.132,13.95-41.461v0c15.665-7.358,34.299-0.112,40.88,15.894
					l109.874,267.245c4.314,10.493,7.157,21.541,8.305,32.828c2.64,25.945,0.504,68.945-33.948,100.601
					c-21.697,18.788-41.188,27.422-53.889,31.37c-6.659,2.07-12.91-4.197-10.883-10.869l0,0c0.926-3.049,3.44-5.34,6.558-5.994
					c10.846-2.275,36.997-10.444,54.334-38.022c12.407-19.737,16.218-43.65,11.434-66.466c-2.458-11.724-7.059-26.161-15.538-42.004
					C320.935,301.711,211.625,99.267,211.625,99.267z"/>
			</g>
			<g>
				<circle class="st7" cx="238.095" cy="86.501" r="15.786"/>
			</g>
			<g>
				<path class="st3" d="M294.221,512c-3.775,0-7.461-1.478-10.233-4.232c-3.846-3.821-5.257-9.414-3.682-14.597
					c1.546-5.091,5.747-8.933,10.963-10.028c9.808-2.058,34.37-9.628,50.574-35.405c11.455-18.223,15.241-40.292,10.66-62.142
					c-2.852-13.603-7.888-27.209-14.969-40.441c-21.516-40.204-129.976-241.078-131.068-243.103
					c-0.012-0.021-0.023-0.043-0.035-0.065c-4.618-8.815-5.414-18.865-2.241-28.298c3.174-9.433,9.883-16.958,18.892-21.189
					c9.043-4.248,19.151-4.595,28.463-0.972c9.312,3.62,16.532,10.703,20.331,19.944l109.874,267.244
					c4.593,11.171,7.525,22.767,8.716,34.464c2.523,24.796,1.225,71.478-35.814,105.511c-0.043,0.039-0.085,0.077-0.129,0.115
					c-22.532,19.512-42.883,28.463-55.987,32.536C297.117,511.784,295.662,512,294.221,512z M216.803,96.517
					c1.973,3.655,109.634,203.051,131.07,243.106c7.607,14.214,13.026,28.873,16.107,43.567c5.208,24.841,0.872,49.981-12.209,70.79
					c-18.595,29.58-46.821,38.274-58.093,40.64c-1.026,0.216-1.851,0.967-2.152,1.961c-0.453,1.488,0.358,2.504,0.727,2.87
					c0.449,0.446,1.409,1.129,2.804,0.696c12.024-3.737,30.753-12,51.727-30.147c31.549-29.038,34.827-68.027,32.018-95.632
					c-1.076-10.573-3.732-21.067-7.895-31.193L261.033,75.93c-2.566-6.243-7.445-11.028-13.736-13.474
					c-6.291-2.447-13.119-2.212-19.229,0.657c-6.086,2.859-10.619,7.943-12.763,14.316
					C213.164,83.791,213.697,90.568,216.803,96.517z"/>
			</g>
			<g>
				<path class="st3" d="M238.095,108.15c-11.937,0-21.649-9.712-21.649-21.649c0-11.937,9.712-21.649,21.649-21.649
					c11.937,0,21.649,9.712,21.649,21.649C259.744,98.438,250.032,108.15,238.095,108.15z M238.095,76.577
					c-5.472,0-9.923,4.451-9.923,9.924c0,5.472,4.451,9.924,9.923,9.924c5.472,0,9.924-4.451,9.924-9.924
					C248.019,81.028,243.567,76.577,238.095,76.577z"/>
			</g>
		</g>
	</g>
</g>
</svg>
