<?xml version="1.0" encoding="utf-8"?>
<!-- Generator: Adobe Illustrator 18.0.0, SVG Export Plug-In . SVG Version: 6.00 Build 0)  -->
<!DOCTYPE svg PUBLIC "-//W3C//DTD SVG 1.1//EN" "http://www.w3.org/Graphics/SVG/1.1/DTD/svg11.dtd">
<svg version="1.1" id="Icon_Set" xmlns="http://www.w3.org/2000/svg" xmlns:xlink="http://www.w3.org/1999/xlink" x="0px" y="0px"
	 viewBox="0 0 512 512" style="enable-background:new 0 0 512 512;" xml:space="preserve">
<style type="text/css">
	.st0{fill:#F0C48A;}
	.st1{fill:#FD919E;}
	.st2{fill:#E8677D;}
	.st3{fill:#4C4372;}
	.st4{fill:#D3E6F8;}
	.st5{fill:#A4CFF2;}
	.st6{fill:#FFFFFF;}
	.st7{fill:#7BABF1;}
</style>
<g>
	<circle class="st0" cx="256" cy="256" r="207"/>
	<g>
		<g>
			<g>
				<path class="st1" d="M470.931,254.143v-62.858h-55.5c-4.269-22.034-12.905-42.511-25.024-60.455L429.639,91.6l-44.446-44.446
					l-39.229,39.231c-17.946-12.117-38.422-20.755-60.458-25.022v-55.5h-62.855v55.5c-22.036,4.269-42.513,12.903-60.456,25.022
					l-39.231-39.231L78.519,91.6l39.229,39.231c-12.117,17.944-20.753,38.421-25.022,60.455H37.226v62.858h55.499
					c4.268,22.034,12.905,42.511,25.022,60.456l-39.229,39.229l44.445,44.448l39.231-39.232
					c17.944,12.119,38.421,20.755,60.456,25.024v55.498h62.855v-55.498c22.036-4.269,42.512-12.905,60.458-25.024l39.229,39.232
					l44.446-44.448L390.408,314.6c12.119-17.945,20.755-38.422,25.024-60.456H470.931z M253.03,303.161
					c-44.428,0-80.445-36.018-80.445-80.446c0-44.429,36.016-80.445,80.445-80.445c44.43,0,80.446,36.016,80.446,80.445
					C333.476,267.143,297.46,303.161,253.03,303.161z"/>
			</g>
		</g>
		<g>
			<g>
				<path class="st2" d="M363.889,222.714c0-61.225-49.633-110.858-110.858-110.858c-61.225,0-110.858,49.633-110.858,110.858
					c0,61.225,49.633,110.858,110.858,110.858C314.256,333.572,363.889,283.94,363.889,222.714z M253.03,303.16
					c-44.428,0-80.445-36.018-80.445-80.446c0-44.429,36.016-80.445,80.445-80.445c44.43,0,80.446,36.016,80.446,80.445
					C333.476,267.143,297.46,303.16,253.03,303.16z"/>
			</g>
		</g>
		<g>
			<g>
				<path class="st3" d="M285.505,445.428h-62.854c-3.238,0-5.863-2.625-5.863-5.863v-50.731
					c-19.191-4.279-37.254-11.755-53.819-22.275l-35.86,35.862c-1.099,1.099-2.591,1.717-4.146,1.717s-3.046-0.618-4.146-1.717
					l-44.445-44.448c-2.29-2.29-2.29-6.001,0-8.291l35.859-35.859c-10.521-16.57-17.997-34.632-22.274-53.818H37.226
					c-3.238,0-5.863-2.625-5.863-5.863v-62.857c0-3.238,2.625-5.863,5.863-5.863h50.733c4.279-19.19,11.754-37.252,22.273-53.817
					l-35.859-35.86c-2.29-2.29-2.29-6.001,0-8.291l44.445-44.447c1.099-1.099,2.591-1.717,4.146-1.717s3.046,0.618,4.146,1.717
					l35.86,35.861c16.562-10.518,34.627-17.994,53.819-22.273V5.863c0-3.238,2.624-5.863,5.863-5.863h62.854
					c3.238,0,5.863,2.625,5.863,5.863v50.732c19.187,4.277,37.25,11.753,53.82,22.274l35.859-35.861
					c1.099-1.099,2.591-1.717,4.145-1.717c1.555,0,3.046,0.618,4.146,1.717l44.447,44.447c2.29,2.29,2.29,6.001,0,8.291
					l-35.86,35.86c10.52,16.565,17.996,34.627,22.275,53.817h50.733c3.238,0,5.863,2.624,5.863,5.863v62.857
					c0,3.238-2.625,5.863-5.863,5.863h-50.733c-4.279,19.189-11.755,37.252-22.275,53.818l35.86,35.859
					c1.099,1.099,1.717,2.591,1.717,4.146c0,1.555-0.618,3.046-1.717,4.146l-44.447,44.448c-1.1,1.099-2.591,1.717-4.146,1.717
					c-1.555,0-3.046-0.618-4.145-1.717l-35.859-35.862c-16.566,10.52-34.63,17.996-53.82,22.275v50.731
					C291.368,442.803,288.743,445.428,285.505,445.428z M228.514,433.703h51.129v-49.635c0-2.808,1.991-5.221,4.748-5.756
					c20.997-4.068,40.609-12.185,58.292-24.126c2.327-1.573,5.441-1.273,7.427,0.713l35.083,35.086l36.156-36.156l-35.085-35.083
					c-1.985-1.985-2.284-5.1-0.713-7.427c11.941-17.683,20.059-37.295,24.126-58.291c0.534-2.757,2.948-4.748,5.756-4.748h49.637
					v-51.132h-49.637c-2.808,0-5.221-1.991-5.756-4.748c-4.068-20.997-12.185-40.608-24.126-58.289
					c-1.572-2.327-1.272-5.441,0.713-7.427L421.348,91.6l-36.156-36.155L350.109,90.53c-1.985,1.985-5.1,2.284-7.426,0.713
					c-17.688-11.943-37.3-20.06-58.292-24.126c-2.757-0.534-4.748-2.947-4.748-5.756V11.725h-51.129v49.637
					c0,2.808-1.991,5.221-4.748,5.756c-21.001,4.068-40.612,12.185-58.29,24.125c-2.328,1.572-5.442,1.272-7.427-0.713
					l-35.085-35.085L86.81,91.6l35.083,35.085c1.985,1.986,2.284,5.1,0.713,7.427c-11.94,17.681-20.057,37.292-24.125,58.289
					c-0.534,2.757-2.948,4.748-5.756,4.748H43.089v51.132h49.637c2.808,0,5.222,1.991,5.756,4.748
					c4.065,20.991,12.182,40.603,24.125,58.291c1.571,2.327,1.272,5.441-0.713,7.426L86.81,353.829l36.154,36.156l35.085-35.086
					c1.986-1.986,5.1-2.284,7.427-0.713c17.681,11.941,37.293,20.059,58.29,24.126c2.757,0.534,4.748,2.948,4.748,5.756V433.703z
					 M253.03,309.023c-47.59,0-86.307-38.718-86.307-86.309c0-47.59,38.717-86.307,86.307-86.307
					c47.591,0,86.309,38.717,86.309,86.307C339.339,270.305,300.621,309.023,253.03,309.023z M253.03,148.132
					c-41.125,0-74.582,33.458-74.582,74.582c0,41.126,33.457,74.584,74.582,74.584c41.126,0,74.584-33.458,74.584-74.584
					C327.614,181.59,294.156,148.132,253.03,148.132z"/>
			</g>
		</g>
		<g>
			<g>
				<path class="st5" d="M292.924,321.776l80.259,109.756c-7.52,17.078-5.831,37.647,6.352,53.632
					c17.687,23.206,50.301,27.828,73.763,10.482c23.468-17.351,28.534-50.424,11.286-74.011
					c-11.595-15.857-30.332-23.388-48.554-21.435L307.01,251.113c7.385-16.772,5.889-36.91-5.706-52.767
					c-11.413-15.608-29.747-23.159-47.697-21.529l23.787,32.53c8.896,12.165,6.246,29.239-5.92,38.135l0,0
					c-12.165,8.896-29.239,6.245-38.135-5.92l-23.787-32.53c-6.994,16.611-5.357,36.371,6.056,51.979
					c11.595,15.857,30.332,23.388,48.554,21.435l9.287,12.701L292.924,321.776z M453.317,449.372l-12.809,29.009l-31.528,3.412
					l-18.718-25.598l12.809-29.01l31.528-3.412L453.317,449.372z"/>
			</g>
		</g>
		<g>
			<g>
				<path class="st3" d="M421.682,512c-0.002,0-0.002,0-0.005,0c-18.469-0.001-35.529-8.487-46.805-23.281
					c-12.312-16.154-15.394-37.457-8.349-56.362L261.358,288.541c-19.797,0.954-38.866-8.187-50.481-24.07
					c-12.145-16.609-14.723-38.724-6.727-57.714c0.82-1.947,2.624-3.302,4.722-3.548c2.1-0.247,4.167,0.658,5.414,2.363
					l23.788,32.53c4.02,5.498,10.494,8.781,17.317,8.781c4.562,0,8.928-1.429,12.625-4.133c9.536-6.974,11.622-20.405,4.648-29.942
					l-23.787-32.53c-1.247-1.705-1.48-3.949-0.61-5.874c0.87-1.925,2.708-3.233,4.813-3.425c1.767-0.16,3.563-0.241,5.339-0.241
					c18.76,0,36.563,9.028,47.62,24.149c11.695,15.993,14.506,36.926,7.633,55.402l105.167,143.818
					c19.795-0.967,38.866,8.186,50.481,24.07c19.084,26.098,13.462,62.967-12.533,82.186C446.485,507.975,434.346,512,421.682,512z
					 M264.164,276.582c1.857,0,3.621,0.883,4.731,2.402l109.02,149.088c1.235,1.689,1.476,3.908,0.633,5.823
					c-6.938,15.757-4.773,34.041,5.649,47.716c9.04,11.86,22.701,18.663,37.481,18.664c0.001,0,0.002,0,0.004,0
					c10.137,0,19.864-3.23,28.131-9.342c20.823-15.396,25.327-44.929,10.039-65.836c-8.854-12.107-23.115-19.336-38.15-19.336
					c-1.68,0-3.379,0.091-5.047,0.27c-2.077,0.221-4.122-0.68-5.357-2.369L302.278,254.573c-1.235-1.689-1.476-3.908-0.633-5.823
					c6.783-15.402,4.838-33.39-5.073-46.944c-7.476-10.224-18.803-16.97-31.194-18.826l16.75,22.906
					c10.79,14.755,7.563,35.537-7.192,46.327c-5.72,4.182-12.478,6.393-19.545,6.393c-10.55,0-20.562-5.078-26.782-13.585
					l-16.778-22.944c-2.055,12.354,0.883,25.041,8.512,35.473c8.854,12.107,23.115,19.335,38.149,19.335
					c1.681,0,3.379-0.091,5.048-0.27C263.747,276.593,263.956,276.582,264.164,276.582z M408.98,487.656
					c-1.857,0-3.62-0.883-4.731-2.402l-18.719-25.598c-1.236-1.691-1.477-3.913-0.631-5.828l12.809-29.01
					c0.846-1.916,2.65-3.235,4.732-3.461l31.528-3.411c2.083-0.224,4.126,0.677,5.363,2.368l18.719,25.598
					c1.236,1.69,1.477,3.913,0.631,5.829l-12.81,29.009c-0.846,1.916-2.65,3.235-4.732,3.46l-31.527,3.412
					C409.4,487.645,409.189,487.656,408.98,487.656z M396.993,455.467l14.722,20.134l24.797-2.683l10.075-22.817l-14.722-20.134
					l-24.798,2.683L396.993,455.467z"/>
			</g>
		</g>
	</g>
</g>
</svg>
