<?xml version="1.0" encoding="utf-8"?>
<!-- Generator: Adobe Illustrator 18.0.0, SVG Export Plug-In . SVG Version: 6.00 Build 0)  -->
<!DOCTYPE svg PUBLIC "-//W3C//DTD SVG 1.1//EN" "http://www.w3.org/Graphics/SVG/1.1/DTD/svg11.dtd">
<svg version="1.1" id="Icon_Set" xmlns="http://www.w3.org/2000/svg" xmlns:xlink="http://www.w3.org/1999/xlink" x="0px" y="0px"
	 viewBox="0 0 512 512" style="enable-background:new 0 0 512 512;" xml:space="preserve">
<style type="text/css">
	.st0{fill:#F0C48A;}
	.st1{fill:#FD919E;}
	.st2{fill:#E8677D;}
	.st3{fill:#4C4372;}
	.st4{fill:#D3E6F8;}
	.st5{fill:#A4CFF2;}
	.st6{fill:#FFFFFF;}
	.st7{fill:#7BABF1;}
</style>
<g>
	<circle class="st0" cx="256" cy="256" r="207"/>
	<g>
		<g>
			<circle class="st1" cx="429.762" cy="440.813" r="65.324"/>
		</g>
		<g>
			<path class="st3" d="M255,168.061c-3.238,0-6-2.625-6-5.863v-48.855c0-3.238,2.762-5.863,6-5.863c3.238,0,6,2.625,6,5.863v48.855
				C261,165.436,258.238,168.061,255,168.061z"/>
		</g>
		<g>
			<path class="st5" d="M310.982,113.418H201.018c-29.701,0-53.778-24.077-53.778-53.778v0c0-29.7,24.077-53.778,53.778-53.778
				h109.964c29.701,0,53.777,24.077,53.777,53.778v0C364.759,89.341,340.682,113.418,310.982,113.418z"/>
		</g>
		<g>
			<rect x="120.786" y="162.301" class="st6" width="270.429" height="105.294"/>
		</g>
		<g>
			<rect x="355.953" y="162.301" class="st4" width="35.262" height="105.294"/>
		</g>
		<g>
			<circle class="st1" cx="82.238" cy="440.813" r="65.324"/>
		</g>
		<g>
			<circle class="st1" cx="256" cy="440.813" r="65.324"/>
		</g>
		<g>
			<path class="st2" d="M429.762,375.489c-4.94,0-9.745,0.566-14.371,1.606c29.16,6.55,50.953,32.581,50.953,63.719
				s-21.793,57.169-50.953,63.719c4.626,1.039,9.431,1.606,14.371,1.606c36.077,0,65.324-29.247,65.324-65.324
				S465.84,375.489,429.762,375.489z"/>
		</g>
		<g>
			<path class="st2" d="M256,375.489c-4.94,0-9.745,0.566-14.371,1.606c29.16,6.55,50.953,32.581,50.953,63.719
				s-21.793,57.169-50.953,63.719c4.626,1.039,9.431,1.606,14.371,1.606c36.078,0,65.324-29.247,65.324-65.324
				S292.078,375.489,256,375.489z"/>
		</g>
		<g>
			<path class="st2" d="M82.238,375.489c-4.94,0-9.745,0.566-14.371,1.606c29.16,6.55,50.953,32.581,50.953,63.719
				s-21.793,57.169-50.953,63.719c4.626,1.039,9.431,1.606,14.371,1.606c36.078,0,65.324-29.247,65.324-65.324
				S118.315,375.489,82.238,375.489z"/>
		</g>
		<g>
			<path class="st3" d="M310.982,119.281H201.018c-32.885,0-59.64-26.755-59.64-59.64S168.133,0,201.018,0h109.964
				c32.885,0,59.64,26.755,59.64,59.64S343.867,119.281,310.982,119.281z M201.018,11.725c-26.421,0-47.915,21.494-47.915,47.915
				s21.494,47.915,47.915,47.915h109.964c26.421,0,47.915-21.494,47.915-47.915s-21.494-47.915-47.915-47.915H201.018z"/>
		</g>
		<g>
			<path class="st3" d="M391.215,273.458H120.785c-3.238,0-5.863-2.625-5.863-5.863V162.301c0-3.238,2.625-5.863,5.863-5.863
				h270.429c3.238,0,5.863,2.625,5.863,5.863v105.294C397.077,270.833,394.452,273.458,391.215,273.458z M126.648,261.733h258.704
				v-93.569H126.648V261.733z"/>
		</g>
		<g>
			<path class="st3" d="M82.238,512c-39.253,0-71.187-31.934-71.187-71.187c0-39.253,31.934-71.187,71.187-71.187
				c39.253,0,71.187,31.934,71.187,71.187C153.425,480.066,121.49,512,82.238,512z M82.238,381.351
				c-32.787,0-59.462,26.675-59.462,59.462s26.675,59.462,59.462,59.462s59.462-26.675,59.462-59.462
				S115.025,381.351,82.238,381.351z"/>
		</g>
		<g>
			<path class="st3" d="M256,512c-39.253,0-71.187-31.934-71.187-71.187c0-39.253,31.934-71.187,71.187-71.187
				c39.253,0,71.187,31.934,71.187,71.187C327.187,480.066,295.253,512,256,512z M256,381.351
				c-32.787,0-59.462,26.675-59.462,59.462s26.675,59.462,59.462,59.462s59.462-26.675,59.462-59.462S288.787,381.351,256,381.351z"
				/>
		</g>
		<g>
			<path class="st3" d="M429.762,512c-39.253,0-71.187-31.934-71.187-71.187c0-39.253,31.934-71.187,71.187-71.187
				c39.253,0,71.187,31.934,71.187,71.187C500.949,480.066,469.015,512,429.762,512z M429.762,381.351
				c-32.787,0-59.462,26.675-59.462,59.462s26.675,59.462,59.462,59.462s59.462-26.675,59.462-59.462
				S462.55,381.351,429.762,381.351z"/>
		</g>
		<g>
			<path class="st3" d="M76.206,381.07c-2.957,0-5.499-2.232-5.821-5.239c-0.013-0.125-1.345-12.621-2.105-25.567
				c-1.538-26.182,0.433-30.499,2.772-33.101c1.362-1.515,3.195-2.163,5.162-2.163h352.733c3.238,0,5.053,2.251,5.053,5.488v54.718
				c0,3.238-2.762,5.863-6,5.863s-6-2.625-6-5.863V326H79.788c-0.98,8,0.274,29.912,2.255,48.406
				c0.345,3.22-1.986,6.198-5.204,6.542C76.626,380.97,76.415,381.07,76.206,381.07z"/>
		</g>
		<g>
			<path class="st3" d="M255,381.069c-3.238,0-6-2.625-6-5.863V268.702c0-3.238,2.762-5.863,6-5.863c3.238,0,6,2.625,6,5.863
				v106.504C261,378.444,258.238,381.069,255,381.069z"/>
		</g>
	</g>
</g>
</svg>
