<?xml version="1.0" encoding="utf-8"?>
<!-- Generator: Adobe Illustrator 18.0.0, SVG Export Plug-In . SVG Version: 6.00 Build 0)  -->
<!DOCTYPE svg PUBLIC "-//W3C//DTD SVG 1.1//EN" "http://www.w3.org/Graphics/SVG/1.1/DTD/svg11.dtd">
<svg version="1.1" id="Icon_Set" xmlns="http://www.w3.org/2000/svg" xmlns:xlink="http://www.w3.org/1999/xlink" x="0px" y="0px"
	 viewBox="0 0 512 512" style="enable-background:new 0 0 512 512;" xml:space="preserve">
<style type="text/css">
	.st0{fill:#F0C48A;}
	.st1{fill:#FD919E;}
	.st2{fill:#E8677D;}
	.st3{fill:#4C4372;}
	.st4{fill:#D3E6F8;}
	.st5{fill:#A4CFF2;}
	.st6{fill:#FFFFFF;}
	.st7{fill:#7BABF1;}
</style>
<g>
	<circle class="st0" cx="256" cy="256" r="207"/>
	<g>
		<g>
			<polygon class="st4" points="247.595,100.346 165.133,71.003 94.788,267.97 177.25,297.312 			"/>
		</g>
		<g>
			<polygon class="st4" points="173.824,230.363 94.766,267.924 174.12,434.946 277.125,447.787 			"/>
		</g>
		<g>
			<polygon class="st5" points="187.295,325.395 237.955,427.895 270.435,425.645 207.853,309.332 			"/>
		</g>
		<g>
			<polygon class="st5" points="176.442,201.954 207.853,122.494 239.835,122.112 203.268,224.462 			"/>
		</g>
		<g>
			<polyline class="st5" points="314.982,426.463 314.982,373.172 357.045,373.172 357.045,426.463 			"/>
		</g>
		<g>
			<rect x="339.581" y="377.528" class="st7" width="17.463" height="48.935"/>
		</g>
		<g>
			<path class="st7" d="M336.294,151.692l86.941-18.956c6.329-1.38,10.845-6.979,10.852-13.457l0,0
				c0.009-7.942-6.674-14.25-14.602-13.782l-80.252,4.734c-7.53,0.444-14.966-1.857-20.93-6.476v0
				c-16.137-12.5-16.109-36.878,0.057-49.341v0c5.974-4.606,13.415-6.889,20.945-6.428l80.241,4.92
				c7.927,0.486,14.625-5.807,14.634-13.748v0c0.007-6.478-4.495-12.088-10.821-13.483L336.461,6.518
				c-9.175-2.023-18.748,0.768-25.399,7.403l-24.812,24.755l-60.335-0.07l-0.094,81.057l60.335,0.07l0-0.315l24.755,24.812
				C317.548,150.881,327.114,153.694,336.294,151.692z"/>
		</g>
		<g>
			<path class="st3" d="M177.25,303.176c-0.653,0-1.316-0.11-1.966-0.342l-82.462-29.342c-1.466-0.521-2.664-1.604-3.331-3.01
				c-0.667-1.405-0.748-3.019-0.224-4.484l70.345-196.966c1.088-3.048,4.439-4.637,7.487-3.551l82.462,29.342
				c1.466,0.521,2.664,1.604,3.331,3.01c0.667,1.405,0.748,3.019,0.224,4.484l-70.345,196.966
				C181.915,301.681,179.658,303.176,177.25,303.176z M102.282,264.415l71.416,25.411L240.1,103.901L168.684,78.49L102.282,264.415z
				"/>
		</g>
		<g>
			<path class="st3" d="M277.126,453.65c-0.24,0-0.484-0.014-0.726-0.045l-103.005-12.841c-1.987-0.248-3.711-1.493-4.569-3.301
				L89.471,270.44c-0.668-1.405-0.75-3.016-0.228-4.482c0.521-1.465,1.603-2.662,3.007-3.33l79.058-37.56
				c2.927-1.389,6.423-0.145,7.811,2.779l103.302,217.425c0.919,1.934,0.711,4.215-0.543,5.949
				C280.767,452.758,278.993,453.65,277.126,453.65z M178.036,429.526l89.206,11.121l-96.199-202.473l-68.467,32.53L178.036,429.526
				z"/>
		</g>
		<g>
			<circle class="st2" cx="146.909" cy="264.368" r="69.049"/>
		</g>
		<g>
			<path class="st3" d="M146.961,339.319c-8.465,0-16.955-1.452-25.166-4.374c-18.852-6.708-33.962-20.356-42.549-38.429
				c-8.588-18.074-9.622-38.41-2.914-57.261c6.708-18.852,20.356-33.962,38.429-42.55c18.074-8.587,38.41-9.622,57.261-2.913
				c18.852,6.708,33.962,20.356,42.55,38.429c8.587,18.074,9.621,38.41,2.913,57.261c-6.708,18.852-20.356,33.962-38.429,42.549
				C168.855,336.878,157.93,339.319,146.961,339.319z M146.866,201.149c-9.254,0-18.466,2.058-27.072,6.148
				c-15.245,7.242-26.757,19.988-32.414,35.89c-5.658,15.9-4.785,33.054,2.458,48.298c7.242,15.245,19.988,26.757,35.89,32.415
				c15.901,5.661,33.054,4.787,48.298-2.458c15.245-7.242,26.757-19.988,32.415-35.89c5.658-15.9,4.785-33.054-2.458-48.298
				c-7.242-15.245-19.988-26.757-35.89-32.415C161.167,202.374,154.004,201.149,146.866,201.149z"/>
		</g>
		<g>
			<circle class="st1" cx="146.909" cy="264.368" r="35.901"/>
		</g>
		<g>
			<path class="st3" d="M146.974,306.13c-15.63,0-30.646-8.807-37.788-23.838c-9.882-20.8-1-45.762,19.799-55.645
				c10.076-4.788,21.412-5.366,31.924-1.625c10.51,3.74,18.935,11.349,23.722,21.424c9.881,20.8,0.999,45.763-19.8,55.645
				C159.063,304.832,152.973,306.13,146.974,306.13z M146.863,234.331c-4.316,0-8.694,0.933-12.844,2.905
				c-14.961,7.108-21.349,25.063-14.241,40.022c7.108,14.961,25.063,21.352,40.022,14.241c14.961-7.108,21.349-25.063,14.241-40.022
				C168.905,240.667,158.104,234.331,146.863,234.331z"/>
		</g>
		<g>
			<path class="st3" d="M330.359,158.197c-8.768,0-17.239-3.453-23.597-9.826l-22.726-22.778l-58.221-0.067
				c-3.238-0.004-5.86-2.632-5.856-5.869l0.093-81.057c0.002-1.555,0.621-3.046,1.722-4.143c1.098-1.097,2.588-1.713,4.14-1.713
				c0.002,0,0.005,0,0.007,0l57.907,0.067l23.093-23.039c8.107-8.087,19.617-11.444,30.802-8.979l86.896,19.156
				c8.946,1.973,15.432,10.054,15.422,19.214c-0.006,5.394-2.264,10.607-6.195,14.3c-3.931,3.694-9.266,5.63-14.659,5.293
				l-80.241-4.92c-6.125-0.369-12.155,1.48-17.007,5.219c-6.257,4.823-9.85,12.121-9.859,20.021
				c-0.01,7.901,3.568,15.206,9.813,20.044c4.842,3.751,10.871,5.616,16.995,5.258l80.251-4.734
				c5.402-0.33,10.724,1.624,14.648,5.327c3.923,3.702,6.169,8.92,6.162,14.313c-0.01,9.162-6.515,17.228-15.465,19.179
				l-86.941,18.956C335.151,157.942,332.744,158.197,330.359,158.197z M286.156,113.556c1.528,0,3.029,0.597,4.151,1.722
				l24.755,24.813c5.252,5.262,12.722,7.46,19.982,5.874l0,0l86.941-18.956c3.611-0.787,6.234-4.041,6.238-7.736
				c0.003-2.208-0.88-4.257-2.486-5.773c-1.606-1.516-3.711-2.276-5.908-2.15l-80.252,4.734c-8.938,0.525-17.778-2.205-24.865-7.693
				c-9.138-7.078-14.371-17.767-14.358-29.326c0.013-11.558,5.271-22.235,14.425-29.293c7.098-5.473,15.944-8.191,24.883-7.635
				l80.241,4.92c2.199,0.127,4.303-0.624,5.913-2.135c1.609-1.512,2.496-3.561,2.499-5.769c0.005-3.695-2.612-6.955-6.221-7.751
				l-86.896-19.156c-7.255-1.595-14.734,0.579-19.997,5.829l-24.812,24.753c-1.098,1.097-2.588,1.713-4.14,1.713
				c-0.002,0-0.005,0-0.007,0l-54.472-0.063l-0.08,69.332l52.576,0.061C284.885,113.658,285.522,113.556,286.156,113.556z"/>
		</g>
		<g>
			<circle class="st2" cx="207.853" cy="80.648" r="52.357"/>
		</g>
		<g>
			<circle class="st1" cx="207.853" cy="80.648" r="20.554"/>
		</g>
		<g>
			<path class="st3" d="M207.944,138.864c-21.789,0-42.721-12.277-52.676-33.231c-6.674-14.047-7.478-29.851-2.265-44.502
				c5.214-14.652,15.82-26.396,29.867-33.07c28.995-13.776,63.795-1.393,77.57,27.603c6.674,14.046,7.478,29.851,2.265,44.502
				c-5.214,14.651-15.82,26.396-29.867,33.069C224.796,137.055,216.306,138.864,207.944,138.864z M207.781,34.156
				c-6.679,0-13.456,1.444-19.879,4.495c-11.218,5.33-19.689,14.709-23.853,26.41c-4.163,11.701-3.521,24.322,1.808,35.539
				c11.003,23.155,38.792,33.047,61.949,22.043c11.217-5.329,19.689-14.708,23.852-26.408c4.163-11.701,3.521-24.322-1.808-35.539
				C241.899,43.962,225.179,34.156,207.781,34.156z"/>
		</g>
		<g>
			<path class="st3" d="M207.872,107.079c-2.985,0-5.979-0.512-8.875-1.543c-6.648-2.365-11.976-7.178-15.004-13.552
				c-3.028-6.372-3.392-13.544-1.027-20.191c2.365-6.648,7.177-11.976,13.55-15.004c6.375-3.028,13.545-3.392,20.192-1.027
				c6.648,2.365,11.976,7.178,15.005,13.552c3.028,6.372,3.393,13.544,1.028,20.19c-2.365,6.648-7.178,11.976-13.551,15.005
				C215.592,106.218,211.74,107.079,207.872,107.079z M207.83,65.958c-2.111,0-4.252,0.456-6.282,1.421
				c-3.544,1.683-6.22,4.647-7.535,8.344c-1.316,3.696-1.113,7.685,0.572,11.229c1.683,3.545,4.647,6.221,8.344,7.537
				c3.697,1.317,7.685,1.113,11.229-0.572c3.545-1.684,6.221-4.648,7.537-8.344c1.315-3.698,1.113-7.685-0.572-11.229l-0.001-0.001
				C218.611,69.056,213.327,65.958,207.83,65.958z"/>
		</g>
		<g>
			<path class="st4" d="M421.913,506.138H81.599v-37.692c0-23.107,18.732-41.838,41.838-41.838h256.637
				c23.107,0,41.838,18.732,41.838,41.838V506.138z"/>
		</g>
		<g>
			<path class="st3" d="M152.722,395.77c-2.303,0-4.487-1.366-5.42-3.626c-1.237-2.992,0.187-6.421,3.179-7.656l81.003-33.467
				c2.988-1.236,6.421,0.187,7.656,3.179c1.237,2.992-0.187,6.421-3.179,7.656l-81.003,33.467
				C154.227,395.626,153.469,395.77,152.722,395.77z"/>
		</g>
		<g>
			<path class="st3" d="M357.045,432.326c-3.238,0-5.862-2.625-5.862-5.863v-47.428h-30.338v47.428c0,3.238-2.625,5.863-5.862,5.863
				c-3.238,0-5.862-2.625-5.862-5.863v-53.291c0-3.238,2.625-5.862,5.862-5.862h42.063c3.238,0,5.862,2.625,5.862,5.862v53.291
				C362.908,429.701,360.283,432.326,357.045,432.326z"/>
		</g>
		<g>
			<path class="st5" d="M421.913,505.365h-28.441v-72.676h0c15.708,0,28.441,12.733,28.441,28.441V505.365z"/>
		</g>
		<g>
			<path class="st3" d="M421.913,512H81.599c-3.237,0-5.862-2.625-5.862-5.862v-37.692c0-26.302,21.398-47.701,47.701-47.701
				h256.637c26.303,0,47.701,21.398,47.701,47.701v37.692C427.776,509.375,425.151,512,421.913,512z M87.461,500.275h328.59v-31.83
				c0-19.837-16.139-35.975-35.977-35.975H123.438c-19.837,0-35.976,16.138-35.976,35.975V500.275z"/>
		</g>
	</g>
</g>
</svg>
