<?xml version="1.0" encoding="utf-8"?>
<!-- Generator: Adobe Illustrator 18.0.0, SVG Export Plug-In . SVG Version: 6.00 Build 0)  -->
<!DOCTYPE svg PUBLIC "-//W3C//DTD SVG 1.1//EN" "http://www.w3.org/Graphics/SVG/1.1/DTD/svg11.dtd">
<svg version="1.1" id="Icon_Set" xmlns="http://www.w3.org/2000/svg" xmlns:xlink="http://www.w3.org/1999/xlink" x="0px" y="0px"
	 viewBox="0 0 512 512" style="enable-background:new 0 0 512 512;" xml:space="preserve">
<style type="text/css">
	.st0{fill:#F0C48A;}
	.st1{fill:#FD919E;}
	.st2{fill:#E8677D;}
	.st3{fill:#4C4372;}
	.st4{fill:#D3E6F8;}
	.st5{fill:#A4CFF2;}
	.st6{fill:#FFFFFF;}
	.st7{fill:#7BABF1;}
</style>
<g>
	<circle class="st0" cx="256" cy="256" r="207"/>
	<g>
		<g>
			<circle class="st1" cx="178.867" cy="63.677" r="25.08"/>
		</g>
		<g>
			<path class="st3" d="M178.867,94.62c-17.062,0-30.943-13.881-30.943-30.943c0-17.062,13.881-30.943,30.943-30.943
				c17.061,0,30.942,13.881,30.942,30.943C209.809,80.739,195.928,94.62,178.867,94.62z M178.867,44.459
				c-10.597,0-19.218,8.621-19.218,19.218c0,10.597,8.621,19.218,19.218,19.218c10.596,0,19.217-8.621,19.217-19.218
				C198.084,53.08,189.463,44.459,178.867,44.459z"/>
		</g>
		<g>
			<path class="st3" d="M177.5,25.404c-3.238,0-5.5-2.625-5.5-5.862V5.862C172,2.625,174.262,0,177.5,0s5.5,2.625,5.5,5.862v13.679
				C183,22.779,180.738,25.404,177.5,25.404z"/>
		</g>
		<g>
			<path class="st3" d="M177.5,127.996c-3.238,0-5.5-2.625-5.5-5.862v-12.702c0-3.237,2.262-5.862,5.5-5.862s5.5,2.625,5.5,5.862
				v12.702C183,125.371,180.738,127.996,177.5,127.996z"/>
		</g>
		<g>
			<path class="st3" d="M237.133,70h-13.679c-3.238,0-5.862-2.262-5.862-5.5c0-3.237,2.625-5.5,5.862-5.5h13.679
				c3.238,0,5.862,2.263,5.862,5.5C242.996,67.738,240.371,70,237.133,70z"/>
		</g>
		<g>
			<path class="st3" d="M133.564,70h-12.702c-3.237,0-5.862-2.262-5.862-5.5c0-3.237,2.625-5.5,5.862-5.5h12.702
				c3.238,0,5.862,2.263,5.862,5.5C139.427,67.738,136.802,70,133.564,70z"/>
		</g>
		<g>
			<path class="st3" d="M146.633,38.141c-1.501,0-3.001-0.572-4.145-1.717l-9.191-9.192c-2.29-2.289-2.29-6.001,0-8.29
				c2.289-2.29,6.002-2.29,8.291,0l9.191,9.191c2.29,2.289,2.29,6.001,0,8.29C149.633,37.568,148.133,38.141,146.633,38.141z"/>
		</g>
		<g>
			<path class="st3" d="M219.457,110.965c-1.5,0-3.001-0.572-4.145-1.717l-9.191-9.191c-2.29-2.289-2.29-6.001,0-8.29
				c2.289-2.29,6.002-2.29,8.291,0l9.191,9.191c2.29,2.289,2.29,6.001,0,8.29C222.458,110.392,220.958,110.965,219.457,110.965z"/>
		</g>
		<g>
			<path class="st3" d="M210.266,38.141c-1.5,0-3.001-0.572-4.145-1.717c-2.29-2.289-2.29-6.001,0-8.29l9.191-9.191
				c2.289-2.29,6.002-2.29,8.291,0c2.29,2.289,2.29,6.001,0,8.29l-9.191,9.192C213.267,37.568,211.766,38.141,210.266,38.141z"/>
		</g>
		<g>
			<path class="st3" d="M137.441,110.965c-1.501,0-3.001-0.572-4.145-1.717c-2.29-2.289-2.29-6.001,0-8.29l9.191-9.191
				c2.289-2.29,6.002-2.29,8.291,0c2.29,2.289,2.29,6.001,0,8.29l-9.191,9.191C140.442,110.392,138.941,110.965,137.441,110.965z"/>
		</g>
		<g>
			<g>
				<path class="st4" d="M329.273,361.336V38.368c0-17.925-14.531-32.456-32.456-32.456h0c-17.925,0-32.455,14.531-32.455,32.456
					v322.968c-25.756,12.178-43.579,38.386-43.579,68.767c0,41.993,34.042,76.034,76.034,76.034
					c41.993,0,76.035-34.042,76.035-76.034C372.852,399.723,355.028,373.514,329.273,361.336z"/>
			</g>
		</g>
		<g>
			<g>
				<g>
					<path class="st5" d="M329.273,361.336V38.368c0-16.438-12.224-30.013-28.075-32.153c6.117,6.164,9.898,14.65,9.898,24.021
						v339.376c27.064,12.796,45.793,40.336,45.793,72.26c0,20.264-7.558,38.753-19.991,52.838
						c21.579-13.416,35.954-37.328,35.954-64.607C372.852,399.723,355.028,373.514,329.273,361.336z"/>
				</g>
			</g>
			<g>
				<g>
					<path class="st5" d="M227.369,461.049c0.35,0.784,0.7,1.567,1.075,2.336C228.084,462.599,227.726,461.82,227.369,461.049z"/>
				</g>
			</g>
		</g>
		<g>
			<g>
				<path class="st1" d="M309.11,395.55V41.522c0-6.789-5.504-12.293-12.293-12.293s-12.293,5.504-12.293,12.293v354.226
					c-14.001,5.131-23.993,18.576-23.993,34.355c0,20.201,16.376,36.578,36.578,36.578s36.578-16.376,36.578-36.578
					C333.687,414.107,323.415,400.518,309.11,395.55z"/>
			</g>
		</g>
		<g>
			<path class="st7" d="M296.5,29.28c-6.789,0-12.5,5.503-12.5,12.293V85h25V41.572C309,34.783,303.289,29.28,296.5,29.28z"/>
		</g>
		<g>
			<g>
				<path class="st3" d="M296.817,512c-45.158,0-81.897-36.739-81.897-81.897c0-30.259,16.985-58.267,43.579-72.383V38.368
					c0-21.128,17.189-38.317,38.317-38.317c21.129,0,38.318,17.189,38.318,38.317V357.72c26.594,14.116,43.579,42.124,43.579,72.383
					C378.714,475.261,341.975,512,296.817,512z M296.817,11.775c-14.664,0-26.593,11.929-26.593,26.593v322.968
					c0,2.267-1.307,4.331-3.357,5.299c-24.434,11.554-40.222,36.465-40.222,63.467c0,38.693,31.479,70.172,70.172,70.172
					s70.172-31.479,70.172-70.172c0-27.001-15.788-51.913-40.222-63.467c-2.049-0.968-3.356-3.032-3.356-5.299V38.368
					C323.41,23.704,311.481,11.775,296.817,11.775z"/>
			</g>
		</g>
		<g>
			<g>
				<path class="st3" d="M297.109,472.542c-23.402,0-42.44-19.038-42.44-42.439c0-16.336,9.488-31.214,23.993-38.23V41.522
					c0-10.011,8.144-18.156,18.155-18.156c10.011,0,18.155,8.145,18.155,18.156v350.082c14.858,6.892,24.576,21.871,24.576,38.499
					C339.549,453.504,320.511,472.542,297.109,472.542z M296.817,35.091c-3.546,0-6.431,2.885-6.431,6.431v354.226
					c0,2.46-1.536,4.658-3.845,5.505c-12.051,4.416-20.148,16.01-20.148,28.85c0,16.936,13.779,30.715,30.716,30.715
					c16.936,0,30.715-13.778,30.715-30.715c0-13.067-8.294-24.728-20.638-29.015c-2.358-0.82-3.939-3.042-3.939-5.538V41.522
					C303.248,37.977,300.363,35.091,296.817,35.091z"/>
			</g>
		</g>
		<g>
			<path class="st3" d="M307,91h-21c-3.313,0-6-2.687-6-6s2.687-6,6-6h21c3.314,0,6,2.687,6,6S310.314,91,307,91z"/>
		</g>
	</g>
</g>
</svg>
