<?xml version="1.0" encoding="utf-8"?>
<!-- Generator: Adobe Illustrator 18.0.0, SVG Export Plug-In . SVG Version: 6.00 Build 0)  -->
<!DOCTYPE svg PUBLIC "-//W3C//DTD SVG 1.1//EN" "http://www.w3.org/Graphics/SVG/1.1/DTD/svg11.dtd">
<svg version="1.1" id="Icon_Set" xmlns="http://www.w3.org/2000/svg" xmlns:xlink="http://www.w3.org/1999/xlink" x="0px" y="0px"
	 viewBox="0 0 512 512" style="enable-background:new 0 0 512 512;" xml:space="preserve">
<style type="text/css">
	.st0{fill:#F0C48A;}
	.st1{fill:#FD919E;}
	.st2{fill:#E8677D;}
	.st3{fill:#4C4372;}
	.st4{fill:#D3E6F8;}
	.st5{fill:#A4CFF2;}
	.st6{fill:#FFFFFF;}
	.st7{fill:#7BABF1;}
</style>
<g>
	<circle class="st0" cx="256" cy="256" r="207"/>
	<g>
		<g>
			<rect x="5.863" y="163.241" class="st4" width="500.275" height="114.299"/>
		</g>
		<g>
			<rect x="5.863" y="277.54" class="st1" width="500.275" height="114.299"/>
		</g>
		<g>
			<rect x="5.863" y="391.839" class="st5" width="500.275" height="114.299"/>
		</g>
		<g>
			<rect x="413.727" y="163.241" class="st5" width="92.41" height="114.299"/>
		</g>
		<g>
			<rect x="413.727" y="277.54" class="st2" width="92.41" height="114.299"/>
		</g>
		<g>
			<rect x="413.727" y="391.839" class="st7" width="92.41" height="114.299"/>
		</g>
		<g>
			<path class="st3" d="M506.137,283.402H5.863c-3.238,0-5.863-2.625-5.863-5.863V163.241c0-3.238,2.625-5.863,5.863-5.863h500.275
				c3.238,0,5.863,2.625,5.863,5.863V277.54C512,280.777,509.375,283.402,506.137,283.402z M11.725,271.677h488.55V169.104H11.725
				V271.677z"/>
		</g>
		<g>
			<path class="st3" d="M506.137,397.701H5.863c-3.238,0-5.863-2.625-5.863-5.863V277.54c0-3.238,2.625-5.863,5.863-5.863h500.275
				c3.238,0,5.863,2.625,5.863,5.863v114.299C512,395.076,509.375,397.701,506.137,397.701z M11.725,385.976h488.55V283.402H11.725
				V385.976z"/>
		</g>
		<g>
			<path class="st3" d="M506.137,512H5.863C2.625,512,0,509.375,0,506.137V391.839c0-3.238,2.625-5.863,5.863-5.863h500.275
				c3.238,0,5.863,2.625,5.863,5.863v114.299C512,509.375,509.375,512,506.137,512z M11.725,500.275h488.55V397.701H11.725V500.275z
				"/>
		</g>
		<g>
			<path class="st6" d="M256,457.06L256,457.06c-35.599,0-64.458-28.859-64.458-64.458V163.241h128.915v229.361
				C320.457,428.201,291.599,457.06,256,457.06z"/>
		</g>
		<g>
			<path class="st3" d="M256,462.922c-38.775,0-70.32-31.545-70.32-70.32V163.241c0-3.238,2.625-5.863,5.863-5.863h128.915
				c3.238,0,5.863,2.625,5.863,5.863v229.361C326.32,431.377,294.775,462.922,256,462.922z M197.405,169.104v223.499
				c0,32.309,26.286,58.595,58.595,58.595c32.309,0,58.594-26.286,58.594-58.595V169.104H197.405z"/>
		</g>
		<g>
			<polygon class="st6" points="291.994,363.845 256,432.241 220.006,363.845 220.006,5.863 291.994,5.863 			"/>
		</g>
		<g>
			<path class="st3" d="M256,438.104c-2.177,0-4.174-1.206-5.188-3.133l-35.994-68.397c-0.443-0.842-0.675-1.779-0.675-2.73V5.863
				c0-3.238,2.624-5.863,5.863-5.863h71.988c3.238,0,5.863,2.625,5.863,5.863v357.982c0,0.951-0.232,1.888-0.675,2.73
				l-35.994,68.397C260.175,436.898,258.177,438.104,256,438.104z M225.869,362.396L256,419.653l30.132-57.257V11.725h-60.263
				V362.396z"/>
		</g>
		<g>
			<path class="st3" d="M298.015,204h-84.031c-3.238,0-5.863-2.762-5.863-6s2.625-6,5.863-6h84.031c3.238,0,5.863,2.762,5.863,6
				S301.253,204,298.015,204z"/>
		</g>
		<g>
			<path class="st3" d="M298.015,244h-84.031c-3.238,0-5.863-2.262-5.863-5.5s2.625-5.5,5.863-5.5h84.031
				c3.238,0,5.863,2.262,5.863,5.5S301.253,244,298.015,244z"/>
		</g>
		<g>
			<path class="st3" d="M298.015,284h-84.031c-3.238,0-5.863-2.262-5.863-5.5s2.625-5.5,5.863-5.5h84.031
				c3.238,0,5.863,2.262,5.863,5.5S301.253,284,298.015,284z"/>
		</g>
		<g>
			<path class="st3" d="M298.015,324h-84.031c-3.238,0-5.863-2.262-5.863-5.5s2.625-5.5,5.863-5.5h84.031
				c3.238,0,5.863,2.262,5.863,5.5S301.253,324,298.015,324z"/>
		</g>
		<g>
			<path class="st3" d="M298.015,364h-84.031c-3.238,0-5.863-2.262-5.863-5.5s2.625-5.5,5.863-5.5h84.031
				c3.238,0,5.863,2.262,5.863,5.5S301.253,364,298.015,364z"/>
		</g>
	</g>
</g>
</svg>
