<?xml version="1.0" encoding="utf-8"?>
<!-- Generator: Adobe Illustrator 18.0.0, SVG Export Plug-In . SVG Version: 6.00 Build 0)  -->
<!DOCTYPE svg PUBLIC "-//W3C//DTD SVG 1.1//EN" "http://www.w3.org/Graphics/SVG/1.1/DTD/svg11.dtd">
<svg version="1.1" id="Icon_Set" xmlns="http://www.w3.org/2000/svg" xmlns:xlink="http://www.w3.org/1999/xlink" x="0px" y="0px"
	 viewBox="0 0 512 512" style="enable-background:new 0 0 512 512;" xml:space="preserve">
<style type="text/css">
	.st0{fill:#F0C48A;}
	.st1{fill:#FD919E;}
	.st2{fill:#E8677D;}
	.st3{fill:#4C4372;}
	.st4{fill:#D3E6F8;}
	.st5{fill:#A4CFF2;}
	.st6{fill:#FFFFFF;}
	.st7{fill:#7BABF1;}
</style>
<g>
	<circle class="st0" cx="256" cy="256" r="207"/>
	<g>
		<g>
			<rect x="21.511" y="123.589" class="st4" width="468.978" height="265.538"/>
		</g>
		<g>
			<rect x="448.21" y="123.589" class="st5" width="42.279" height="265.538"/>
		</g>
		<g>
			<rect x="101.041" y="141.76" class="st6" width="310.813" height="228.479"/>
		</g>
		<g>
			<polygon class="st7" points="100.891,195.742 175.543,256.19 314.927,281.697 411,269.216 411,371 100.576,371 			"/>
		</g>
		<g>
			<path class="st6" d="M450.14,332.291L450.14,332.291c-8.717,0-15.784-7.067-15.784-15.784v-120.3
				c0-8.717,7.067-15.784,15.784-15.784l0,0c8.717,0,15.784,7.067,15.784,15.784v120.3
				C465.924,325.225,458.857,332.291,450.14,332.291z"/>
		</g>
		<g>
			<path class="st3" d="M490.489,394.992H21.511c-3.239,0-5.866-2.626-5.866-5.866V123.589c0-3.24,2.627-5.866,5.866-5.866h468.978
				c3.239,0,5.866,2.627,5.866,5.866v265.538C496.355,392.366,493.728,394.992,490.489,394.992z M27.377,383.26h457.246V129.455
				H27.377V383.26z"/>
		</g>
		<g>
			<path class="st3" d="M411.854,376.106H101.041c-3.24,0-5.866-2.626-5.866-5.866V141.76c0-3.24,2.626-5.866,5.866-5.866h310.813
				c3.24,0,5.866,2.626,5.866,5.866v228.48C417.72,373.48,415.094,376.106,411.854,376.106z M106.907,364.374h299.081V147.626
				H106.907V364.374z"/>
		</g>
		<g>
			<path class="st3" d="M450.14,338.157c-11.938,0-21.65-9.712-21.65-21.65v-120.3c0-11.938,9.712-21.65,21.65-21.65
				c11.938,0,21.65,9.712,21.65,21.65v120.3C471.79,328.445,462.078,338.157,450.14,338.157z M450.14,186.289
				c-5.469,0-9.918,4.449-9.918,9.918v120.3c0,5.469,4.45,9.918,9.918,9.918s9.918-4.449,9.918-9.918v-120.3
				C460.058,190.738,455.609,186.289,450.14,186.289z"/>
		</g>
		<g>
			<path class="st6" d="M60.838,332.291L60.838,332.291c-8.717,0-15.784-7.067-15.784-15.784v-120.3
				c0-8.717,7.067-15.784,15.784-15.784l0,0c8.717,0,15.784,7.067,15.784,15.784v120.3
				C76.622,325.225,69.556,332.291,60.838,332.291z"/>
		</g>
		<g>
			<path class="st3" d="M60.838,338.157c-11.938,0-21.65-9.712-21.65-21.65v-120.3c0-11.938,9.712-21.65,21.65-21.65
				s21.651,9.712,21.651,21.65v120.3C82.489,328.445,72.776,338.157,60.838,338.157z M60.838,186.289
				c-5.469,0-9.918,4.449-9.918,9.918v120.3c0,5.469,4.449,9.918,9.918,9.918s9.918-4.449,9.918-9.918v-120.3
				C70.757,190.738,66.308,186.289,60.838,186.289z"/>
		</g>
		<g>
			<path class="st3" d="M76.376,262H45.091c-3.239,0-5.866-2.26-5.866-5.5s2.627-5.5,5.866-5.5h31.285c3.24,0,5.866,2.26,5.866,5.5
				S79.616,262,76.376,262z"/>
		</g>
		<g>
			<path class="st3" d="M465.487,262H435.18c-3.24,0-5.866-2.26-5.866-5.5s2.626-5.5,5.866-5.5h30.308c3.239,0,5.866,2.26,5.866,5.5
				S468.727,262,465.487,262z"/>
		</g>
		<g>
			<path class="st3" d="M411.716,377H100.576c-1.558,0-3.051-0.875-4.152-1.977c-1.1-1.102-1.717-2.724-1.714-4.282l0.314-175.134
				c0.004-2.26,1.306-4.349,3.347-5.319c2.041-0.971,4.458-0.698,6.214,0.726l73.488,59.589l137.368,25.116l95.524-12.319
				c1.675-0.218,2.566,0.298,3.832,1.411c1.267,1.114,1.202,2.718,1.202,4.404v101.409C416,373.864,414.956,377,411.716,377z
				 M106.453,365H405v-89.114l-89.39,11.581c-0.599,0.077-0.997,0.061-1.592-0.047l-139.636-25.554
				c-0.968-0.177-1.823-0.594-2.587-1.214l-65.087-52.685L106.453,365z"/>
		</g>
		<g>
			<path class="st3" d="M270.445,246.261c-2.986,0-6.031-0.175-9.05-0.521c-13.217-1.514-25.356-6.186-34.181-13.155
				c-9.634-7.607-14.334-17.091-13.232-26.705c1.9-16.586,21.309-28.624,46.149-28.624c2.986,0,6.031,0.175,9.051,0.521
				c28.77,3.296,49.596,20.804,47.413,39.859C314.695,234.222,295.286,246.261,270.445,246.261z M260.132,188.987
				c-18.474,0-33.303,7.836-34.494,18.228c-0.839,7.322,5.183,13.27,8.847,16.163c7.136,5.634,17.167,9.437,28.246,10.706
				c2.577,0.295,5.173,0.445,7.714,0.445c18.474,0,33.304-7.837,34.494-18.229c1.386-12.102-15.6-24.406-37.093-26.868
				C265.269,189.137,262.674,188.987,260.132,188.987z"/>
		</g>
		<g>
			
				<ellipse transform="matrix(0.9935 0.1138 -0.1138 0.9935 25.8265 -28.8192)" class="st3" cx="265.289" cy="211.758" rx="16.429" ry="10.171"/>
		</g>
		<g>
			<path class="st1" d="M487.248,141.76H24.752c-10.43,0-18.886-8.456-18.886-18.886v0c0-10.431,8.456-18.886,18.886-18.886h462.496
				c10.431,0,18.886,8.456,18.886,18.886v0C506.134,133.305,497.678,141.76,487.248,141.76z"/>
		</g>
		<g>
			<path class="st2" d="M487.248,105H448v37h39.248c10.431,0,17.752-8.982,17.752-19.413v0.35C505,112.507,497.678,105,487.248,105z
				"/>
		</g>
		<g>
			<path class="st3" d="M487.248,147.626H24.752C11.104,147.626,0,136.522,0,122.874c0-13.649,11.104-24.752,24.752-24.752h462.496
				c13.648,0,24.752,11.104,24.752,24.752C512,136.522,500.896,147.626,487.248,147.626z M24.752,109.854
				c-7.179,0-13.02,5.841-13.02,13.021c0,7.179,5.841,13.02,13.02,13.02h462.496c7.179,0,13.02-5.841,13.02-13.02
				c0-7.179-5.841-13.021-13.02-13.021H24.752z"/>
		</g>
		<g>
			<path class="st1" d="M487.248,408.012H24.752c-10.43,0-18.886-8.456-18.886-18.886v0c0-10.431,8.456-18.886,18.886-18.886
				h462.496c10.431,0,18.886,8.456,18.886,18.886v0C506.134,399.557,497.678,408.012,487.248,408.012z"/>
		</g>
		<g>
			<path class="st2" d="M487.248,372H448v37h39.248c10.431,0,17.752-9.157,17.752-19.587v0.35C505,379.333,497.678,372,487.248,372z
				"/>
		</g>
		<g>
			<path class="st3" d="M487.248,413.878H24.752C11.104,413.878,0,402.774,0,389.126c0-13.649,11.104-24.752,24.752-24.752h462.496
				c13.648,0,24.752,11.104,24.752,24.752C512,402.774,500.896,413.878,487.248,413.878z M24.752,376.106
				c-7.179,0-13.02,5.841-13.02,13.02c0,7.179,5.841,13.02,13.02,13.02h462.496c7.179,0,13.02-5.841,13.02-13.02
				s-5.841-13.02-13.02-13.02H24.752z"/>
		</g>
	</g>
</g>
</svg>
