<?xml version="1.0" encoding="utf-8"?>
<!-- Generator: Adobe Illustrator 18.0.0, SVG Export Plug-In . SVG Version: 6.00 Build 0)  -->
<!DOCTYPE svg PUBLIC "-//W3C//DTD SVG 1.1//EN" "http://www.w3.org/Graphics/SVG/1.1/DTD/svg11.dtd">
<svg version="1.1" id="Icon_Set" xmlns="http://www.w3.org/2000/svg" xmlns:xlink="http://www.w3.org/1999/xlink" x="0px" y="0px"
	 viewBox="0 0 512 512" style="enable-background:new 0 0 512 512;" xml:space="preserve">
<style type="text/css">
	.st0{fill:#F0C48A;}
	.st1{fill:#FD919E;}
	.st2{fill:#E8677D;}
	.st3{fill:#4C4372;}
	.st4{fill:#D3E6F8;}
	.st5{fill:#A4CFF2;}
	.st6{fill:#FFFFFF;}
	.st7{fill:#7BABF1;}
</style>
<g>
	<circle class="st0" cx="256" cy="256" r="207"/>
	<g>
		<g>
			<path class="st4" d="M468.894,506.137H43.106c-20.569,0-37.243-16.674-37.243-37.243V43.106
				c0-20.569,16.674-37.243,37.243-37.243h425.789c20.569,0,37.243,16.674,37.243,37.243v425.789
				C506.137,489.463,489.463,506.137,468.894,506.137z"/>
		</g>
		<g>
			<path class="st5" d="M467.452,506.137H434.88V5.863h32.571c21.365,0,38.686,17.32,38.686,38.686v422.904
				C506.137,488.817,488.817,506.137,467.452,506.137z"/>
		</g>
		<g>
			<circle class="st1" cx="75.004" cy="288.895" r="24.559"/>
		</g>
		<g>
			<circle class="st1" cx="75.004" cy="218.282" r="24.559"/>
		</g>
		<g>
			<circle class="st1" cx="75.004" cy="147.827" r="24.559"/>
		</g>
		<g>
			<circle class="st1" cx="217.593" cy="74.428" r="24.559"/>
		</g>
		<g>
			<circle class="st1" cx="217.593" cy="311.445" r="24.559"/>
		</g>
		<g>
			<circle class="st1" cx="217.593" cy="430.188" r="24.559"/>
		</g>
		<g>
			<circle class="st1" cx="287.522" cy="430.188" r="24.559"/>
		</g>
		<g>
			<circle class="st1" cx="359.774" cy="147.911" r="24.559"/>
		</g>
		<g>
			<circle class="st1" cx="430.946" cy="217.149" r="24.559"/>
		</g>
		<g>
			<path class="st3" d="M468.894,512H43.106C19.337,512,0,492.663,0,468.894V43.106C0,19.337,19.337,0,43.106,0h425.788
				C492.663,0,512,19.337,512,43.106v425.788C512,492.663,492.663,512,468.894,512z M43.106,11.725
				c-17.303,0-31.381,14.077-31.381,31.381v425.788c0,17.303,14.077,31.381,31.381,31.381h425.788
				c17.303,0,31.381-14.077,31.381-31.381V43.106c0-17.303-14.077-31.381-31.381-31.381H43.106z"/>
		</g>
		<g>
			<path class="st3" d="M76.767,510.595c-3.238,0-5.863-2.625-5.863-5.863V314.857c0-3.238,2.625-5.863,5.863-5.863
				c3.238,0,5.863,2.625,5.863,5.863v189.875C82.63,507.97,80.005,510.595,76.767,510.595z"/>
		</g>
		<g>
			<path class="st3" d="M75.004,319.316c-16.774,0-30.421-13.647-30.421-30.421c0-16.774,13.647-30.421,30.421-30.421
				c16.774,0,30.421,13.647,30.421,30.421C105.425,305.669,91.778,319.316,75.004,319.316z M75.004,270.199
				c-10.309,0-18.696,8.387-18.696,18.696c0,10.309,8.387,18.696,18.696,18.696c10.309,0,18.696-8.386,18.696-18.696
				C93.699,278.586,85.313,270.199,75.004,270.199z"/>
		</g>
		<g>
			<path class="st3" d="M75.004,248.703c-16.774,0-30.421-13.647-30.421-30.422c0-16.774,13.647-30.421,30.421-30.421
				c16.774,0,30.421,13.647,30.421,30.421C105.425,235.056,91.778,248.703,75.004,248.703z M75.004,199.586
				c-10.309,0-18.696,8.386-18.696,18.696c0,10.309,8.387,18.697,18.696,18.697c10.309,0,18.696-8.387,18.696-18.697
				C93.699,207.972,85.313,199.586,75.004,199.586z"/>
		</g>
		<g>
			<path class="st3" d="M75.004,178.248c-16.774,0-30.421-13.647-30.421-30.421c0-16.774,13.647-30.421,30.421-30.421
				c16.774,0,30.421,13.647,30.421,30.421C105.425,164.601,91.778,178.248,75.004,178.248z M75.004,129.132
				c-10.309,0-18.696,8.386-18.696,18.696s8.387,18.696,18.696,18.696c10.309,0,18.696-8.386,18.696-18.696
				S85.313,129.132,75.004,129.132z"/>
		</g>
		<g>
			<path class="st3" d="M217.594,104.849c-16.775,0-30.422-13.647-30.422-30.422c0-16.774,13.647-30.421,30.422-30.421
				c16.774,0,30.421,13.647,30.421,30.421C248.014,91.202,234.367,104.849,217.594,104.849z M217.594,55.732
				c-10.309,0-18.697,8.386-18.697,18.696c0,10.309,8.387,18.697,18.697,18.697c10.309,0,18.696-8.387,18.696-18.697
				C236.289,64.118,227.903,55.732,217.594,55.732z"/>
		</g>
		<g>
			<path class="st3" d="M217.594,341.866c-16.775,0-30.422-13.647-30.422-30.421c0-16.775,13.647-30.422,30.422-30.422
				c16.774,0,30.421,13.647,30.421,30.422C248.014,328.22,234.367,341.866,217.594,341.866z M217.594,292.749
				c-10.309,0-18.697,8.388-18.697,18.697c0,10.309,8.387,18.696,18.697,18.696c10.309,0,18.696-8.386,18.696-18.696
				C236.289,301.137,227.903,292.749,217.594,292.749z"/>
		</g>
		<g>
			<path class="st3" d="M217.594,460.609c-16.775,0-30.422-13.647-30.422-30.421c0-16.775,13.647-30.422,30.422-30.422
				c16.774,0,30.421,13.647,30.421,30.422C248.014,446.962,234.367,460.609,217.594,460.609z M217.594,411.491
				c-10.309,0-18.697,8.387-18.697,18.697c0,10.309,8.387,18.696,18.697,18.696c10.309,0,18.696-8.387,18.696-18.696
				C236.289,419.879,227.903,411.491,217.594,411.491z"/>
		</g>
		<g>
			<path class="st3" d="M287.523,460.609c-16.775,0-30.422-13.647-30.422-30.421c0-16.775,13.647-30.422,30.422-30.422
				c16.774,0,30.421,13.647,30.421,30.422C317.944,446.962,304.297,460.609,287.523,460.609z M287.523,411.491
				c-10.309,0-18.697,8.387-18.697,18.697c0,10.309,8.387,18.696,18.697,18.696s18.696-8.387,18.696-18.696
				C306.219,419.879,297.832,411.491,287.523,411.491z"/>
		</g>
		<g>
			<path class="st3" d="M359.775,178.332c-16.775,0-30.422-13.647-30.422-30.421c0-16.775,13.647-30.422,30.422-30.422
				c16.774,0,30.421,13.647,30.421,30.422C390.196,164.685,376.549,178.332,359.775,178.332z M359.775,129.215
				c-10.309,0-18.697,8.387-18.697,18.697c0,10.309,8.387,18.696,18.697,18.696c10.309,0,18.696-8.387,18.696-18.696
				C378.47,137.602,370.084,129.215,359.775,129.215z"/>
		</g>
		<g>
			<path class="st3" d="M144.795,512c-3.238,0-5.863-2.625-5.863-5.863V247.901c0-12.955-10.539-23.494-23.494-23.494H99.562
				c-3.238,0-5.863-2.625-5.863-5.863s2.625-5.863,5.863-5.863h15.876c19.42,0,35.219,15.8,35.219,35.219v258.237
				C150.657,509.375,148.032,512,144.795,512z"/>
		</g>
		<g>
			<path class="st3" d="M217.594,292.934c-3.238,0-5.863-2.625-5.863-5.863V177.184c0-12.955-10.539-23.494-23.494-23.494H99.562
				c-3.238,0-5.863-2.625-5.863-5.863s2.625-5.863,5.863-5.863h88.675c19.42,0,35.219,15.8,35.219,35.219v109.887
				C223.456,290.309,220.831,292.934,217.594,292.934z"/>
		</g>
		<g>
			<path class="st3" d="M287.523,411.491c-3.238,0-5.863-2.625-5.863-5.863V104.654c0-19.42,15.799-35.219,35.218-35.219h189.259
				c3.238,0,5.863,2.625,5.863,5.863s-2.625,5.863-5.863,5.863H316.879c-12.954,0-23.493,10.539-23.493,23.494v300.975
				C293.385,408.866,290.76,411.491,287.523,411.491z"/>
		</g>
		<g>
			<path class="st3" d="M359.775,508.587c-3.238,0-5.863-2.625-5.863-5.863V172.469c0-3.238,2.625-5.863,5.863-5.863
				c3.238,0,5.863,2.625,5.863,5.863v330.255C365.637,505.962,363.012,508.587,359.775,508.587z"/>
		</g>
		<g>
			<path class="st3" d="M430.946,247.57c-16.774,0-30.421-13.647-30.421-30.421c0-16.774,13.647-30.421,30.421-30.421
				c16.775,0,30.422,13.647,30.422,30.421C461.367,233.923,447.72,247.57,430.946,247.57z M430.946,198.453
				c-10.309,0-18.696,8.387-18.696,18.696c0,10.309,8.387,18.696,18.696,18.696c10.309,0,18.697-8.387,18.697-18.696
				C449.642,206.84,441.255,198.453,430.946,198.453z"/>
		</g>
		<g>
			<path class="st3" d="M430.946,509.427c-3.238,0-5.863-2.625-5.863-5.863V241.707c0-3.238,2.625-5.863,5.863-5.863
				c3.238,0,5.863,2.625,5.863,5.863v261.858C436.808,506.802,434.183,509.427,430.946,509.427z"/>
		</g>
		<g>
			<path class="st3" d="M193.034,80.29h-86.911c-19.42,0-35.218-15.8-35.218-35.22v-35.07c0-3.238,2.625-5.863,5.863-5.863
				c3.238,0,5.863,2.625,5.863,5.863v35.07c0,12.955,10.539,23.494,23.493,23.494h86.911c3.238,0,5.863,2.625,5.863,5.863
				C198.897,77.665,196.272,80.29,193.034,80.29z"/>
		</g>
		<g>
			<path class="st3" d="M217.594,510.595c-3.238,0-5.863-2.625-5.863-5.863v-49.986c0-3.238,2.625-5.863,5.863-5.863
				c3.238,0,5.863,2.625,5.863,5.863v49.986C223.456,507.97,220.831,510.595,217.594,510.595z"/>
		</g>
	</g>
</g>
</svg>
