<?xml version="1.0" encoding="utf-8"?>
<!-- Generator: Adobe Illustrator 18.0.0, SVG Export Plug-In . SVG Version: 6.00 Build 0)  -->
<!DOCTYPE svg PUBLIC "-//W3C//DTD SVG 1.1//EN" "http://www.w3.org/Graphics/SVG/1.1/DTD/svg11.dtd">
<svg version="1.1" id="Icon_Set" xmlns="http://www.w3.org/2000/svg" xmlns:xlink="http://www.w3.org/1999/xlink" x="0px" y="0px"
	 viewBox="0 0 512 512" style="enable-background:new 0 0 512 512;" xml:space="preserve">
<style type="text/css">
	.st0{fill:#F0C48A;}
	.st1{fill:#FD919E;}
	.st2{fill:#E8677D;}
	.st3{fill:#4C4372;}
	.st4{fill:#D3E6F8;}
	.st5{fill:#A4CFF2;}
	.st6{fill:#FFFFFF;}
	.st7{fill:#7BABF1;}
</style>
<g>
	<circle class="st0" cx="256" cy="256" r="207"/>
	<g>
		<g>
			<g>
				<polyline class="st6" points="290.018,183.553 290.018,506.137 221.982,506.137 221.982,183.553 				"/>
			</g>
		</g>
		<g>
			<rect x="272.099" y="186.179" class="st4" width="17.919" height="319.958"/>
		</g>
		<g>
			<rect x="238.081" y="186.179" class="st4" width="17.919" height="319.958"/>
		</g>
		<g>
			<path class="st4" d="M304.574,183.553h-97.147c-12.191,0-22.074-9.883-22.074-22.074V76.51c0-39.018,31.63-70.648,70.648-70.648
				h0c39.018,0,70.648,31.63,70.648,70.648v84.968C326.648,173.67,316.765,183.553,304.574,183.553z"/>
		</g>
		<g>
			<path class="st5" d="M304.767,183.553h-8.005v-76.792h29.885v54.911C326.648,173.756,316.852,183.553,304.767,183.553z"/>
		</g>
		<g>
			<path class="st1" d="M256,5.863L256,5.863c-39.018,0-70.648,31.63-70.648,70.648v31.205h141.296V76.51
				C326.648,37.493,295.018,5.863,256,5.863z"/>
		</g>
		<g>
			<circle class="st2" cx="256" cy="58.776" r="17.548"/>
		</g>
		<g>
			<path class="st3" d="M304.574,189.415h-97.148c-15.404,0-27.936-12.533-27.936-27.937V76.51C179.49,34.322,213.812,0,256,0
				s76.51,34.322,76.51,76.51v84.968C332.51,176.883,319.978,189.415,304.574,189.415z M256,11.725
				c-35.723,0-64.785,29.063-64.785,64.785v84.968c0,8.939,7.272,16.212,16.211,16.212h97.148c8.939,0,16.211-7.273,16.211-16.212
				V76.51C320.785,40.788,291.723,11.725,256,11.725z"/>
		</g>
		<g>
			<path class="st3" d="M324.087,112.623H188.298c-3.238,0-5.863-2.625-5.863-5.863c0-3.238,2.624-5.863,5.863-5.863h135.789
				c3.238,0,5.863,2.625,5.863,5.863C329.95,109.998,327.325,112.623,324.087,112.623z"/>
		</g>
		<g>
			<g>
				<path class="st3" d="M290.018,512h-68.035c-3.238,0-5.863-2.625-5.863-5.863V183.553c0-3.238,2.625-5.863,5.863-5.863
					c3.238,0,5.863,2.625,5.863,5.863v316.722h56.31V183.553c0-3.238,2.625-5.863,5.863-5.863c3.238,0,5.862,2.625,5.862,5.863
					v322.585C295.88,509.375,293.256,512,290.018,512z"/>
			</g>
		</g>
		<g>
			<path class="st3" d="M256,512c-3.238,0-5.863-2.625-5.863-5.863V183.553c0-3.238,2.624-5.863,5.863-5.863
				s5.863,2.625,5.863,5.863v322.585C261.863,509.375,259.238,512,256,512z"/>
		</g>
		<g>
			<path class="st3" d="M256,82.186c-12.908,0-23.41-10.502-23.41-23.41s10.502-23.41,23.41-23.41
				c12.908,0,23.41,10.502,23.41,23.41S268.908,82.186,256,82.186z M256,47.091c-6.443,0-11.685,5.242-11.685,11.685
				c0,6.443,5.242,11.685,11.685,11.685c6.443,0,11.685-5.242,11.685-11.685C267.685,52.333,262.443,47.091,256,47.091z"/>
		</g>
	</g>
</g>
</svg>
