<?xml version="1.0" encoding="utf-8"?>
<!-- Generator: Adobe Illustrator 18.0.0, SVG Export Plug-In . SVG Version: 6.00 Build 0)  -->
<!DOCTYPE svg PUBLIC "-//W3C//DTD SVG 1.1//EN" "http://www.w3.org/Graphics/SVG/1.1/DTD/svg11.dtd">
<svg version="1.1" id="Icon_Set" xmlns="http://www.w3.org/2000/svg" xmlns:xlink="http://www.w3.org/1999/xlink" x="0px" y="0px"
	 viewBox="0 0 512 512" style="enable-background:new 0 0 512 512;" xml:space="preserve">
<style type="text/css">
	.st0{fill:#F0C48A;}
	.st1{fill:#FD919E;}
	.st2{fill:#E8677D;}
	.st3{fill:#4C4372;}
	.st4{fill:#D3E6F8;}
	.st5{fill:#A4CFF2;}
	.st6{fill:#FFFFFF;}
	.st7{fill:#7BABF1;}
</style>
<g>
	<circle class="st0" cx="256" cy="256" r="207"/>
	<g>
		<g>
			<g>
				<rect x="56.433" y="140.849" class="st1" width="197.307" height="53.36"/>
			</g>
			<g>
				<rect x="257.392" y="140.849" class="st2" width="197.307" height="53.36"/>
			</g>
			<g>
				<path class="st3" d="M455.568,200.071H56.432c-3.238,0-5.863-2.625-5.863-5.863v-53.359c0-3.238,2.625-5.863,5.863-5.863
					h399.135c3.238,0,5.863,2.625,5.863,5.863v53.359C461.43,197.446,458.805,200.071,455.568,200.071z M62.295,188.345h387.41
					v-41.634H62.295V188.345z"/>
			</g>
		</g>
		<g>
			<path class="st5" d="M256,506.137L256,506.137c-86.636,0-156.868-70.232-156.868-156.867V162.73
				C99.133,76.094,169.364,5.863,256,5.863h0c86.635,0,156.867,70.232,156.867,156.867v186.54
				C412.867,435.905,342.636,506.137,256,506.137z"/>
		</g>
		<g>
			<path class="st4" d="M235.857,7.146C158.736,17.032,99.133,82.919,99.133,162.73v186.54c0,79.811,59.603,145.698,136.725,155.584
				c77.122-9.886,136.725-75.774,136.725-155.584V162.73C372.582,82.919,312.979,17.032,235.857,7.146z"/>
		</g>
		<g>
			<rect x="145.411" y="140.849" class="st6" width="221.177" height="106.719"/>
		</g>
		<g>
			<rect x="175.621" y="167.561" class="st7" width="160.757" height="53.294"/>
		</g>
		<g>
			<path class="st3" d="M256,512c-89.73,0-162.73-73-162.73-162.73V162.73C93.27,73,166.27,0,256,0s162.73,73,162.73,162.73v186.54
				C418.73,439,345.73,512,256,512z M256,11.725c-83.264,0-151.005,67.74-151.005,151.005v186.54
				c0,83.264,67.741,151.005,151.005,151.005s151.005-67.74,151.005-151.005V162.73C407.005,79.466,339.264,11.725,256,11.725z"/>
		</g>
		<g>
			<rect x="339.494" y="140.849" class="st4" width="27.094" height="106.719"/>
		</g>
		<g>
			<path class="st3" d="M366.589,253.43H145.411c-3.238,0-5.863-2.625-5.863-5.863V140.849c0-3.238,2.625-5.863,5.863-5.863h221.177
				c3.238,0,5.863,2.625,5.863,5.863v106.719C372.451,250.805,369.826,253.43,366.589,253.43z M151.274,241.705h209.452v-94.993
				H151.274V241.705z"/>
		</g>
		<g>
			<path class="st3" d="M336.379,226.718H175.621c-3.238,0-5.863-2.625-5.863-5.863v-53.294c0-3.238,2.625-5.863,5.863-5.863
				h160.758c3.238,0,5.863,2.625,5.863,5.863v53.294C342.241,224.093,339.616,226.718,336.379,226.718z M181.484,214.992h149.032
				v-41.569H181.484V214.992z"/>
		</g>
	</g>
</g>
</svg>
