<?xml version="1.0" encoding="utf-8"?>
<!-- Generator: Adobe Illustrator 18.0.0, SVG Export Plug-In . SVG Version: 6.00 Build 0)  -->
<!DOCTYPE svg PUBLIC "-//W3C//DTD SVG 1.1//EN" "http://www.w3.org/Graphics/SVG/1.1/DTD/svg11.dtd">
<svg version="1.1" id="Icon_Set" xmlns="http://www.w3.org/2000/svg" xmlns:xlink="http://www.w3.org/1999/xlink" x="0px" y="0px"
	 viewBox="0 0 512 512" style="enable-background:new 0 0 512 512;" xml:space="preserve">
<style type="text/css">
	.st0{fill:#F0C48A;}
	.st1{fill:#FD919E;}
	.st2{fill:#E8677D;}
	.st3{fill:#4C4372;}
	.st4{fill:#D3E6F8;}
	.st5{fill:#A4CFF2;}
	.st6{fill:#FFFFFF;}
	.st7{fill:#7BABF1;}
</style>
<g>
	<circle class="st0" cx="256" cy="256" r="207"/>
	<g>
		<g>
			<path class="st3" d="M256.006,139.817L256.006,139.817c-3.238,0-5.863-2.625-5.863-5.863l0.006-91.836
				c0-3.238,2.625-5.862,5.863-5.862h0c3.238,0,5.863,2.625,5.862,5.863l-0.005,91.836
				C261.868,137.193,259.243,139.817,256.006,139.817z"/>
		</g>
		<g>
			<path class="st3" d="M181.087,139.813L181.087,139.813c-3.238,0-5.863-2.625-5.863-5.863l0.005-91.836
				c0-3.238,2.625-5.862,5.863-5.862h0c3.238,0,5.862,2.625,5.862,5.863l-0.005,91.836
				C186.95,137.188,184.325,139.813,181.087,139.813z"/>
		</g>
		<g>
			<path class="st3" d="M330.926,139.821L330.926,139.821c-3.239,0-5.863-2.625-5.863-5.863l0.005-91.836
				c0-3.238,2.625-5.862,5.863-5.862l0,0c3.239,0,5.863,2.625,5.863,5.863l-0.005,91.836
				C336.788,137.196,334.163,139.821,330.926,139.821z"/>
		</g>
		<g>
			<path class="st3" d="M255.988,475.745L255.988,475.745c-3.238,0-5.863-2.625-5.863-5.863l0.005-91.836
				c0-3.238,2.625-5.862,5.863-5.862c0,0,0,0,0.001,0c3.238,0,5.862,2.625,5.862,5.863l-0.006,91.836
				C261.85,473.12,259.225,475.745,255.988,475.745z"/>
		</g>
		<g>
			<path class="st3" d="M181.069,475.741C181.069,475.741,181.069,475.741,181.069,475.741c-3.238,0-5.863-2.625-5.863-5.863
				l0.005-91.837c0-3.238,2.625-5.862,5.863-5.862h0c3.238,0,5.862,2.625,5.862,5.863l-0.005,91.837
				C186.931,473.116,184.306,475.741,181.069,475.741z"/>
		</g>
		<g>
			<path class="st3" d="M330.906,475.749L330.906,475.749c-3.239,0-5.863-2.625-5.863-5.863l0.006-91.837
				c0-3.238,2.625-5.862,5.863-5.862l0,0c3.239,0,5.863,2.625,5.863,5.863l-0.006,91.837
				C336.769,473.125,334.144,475.749,330.906,475.749z"/>
		</g>
		<g>
			<path class="st3" d="M469.882,261.875L469.882,261.875l-91.837-0.005c-3.238,0-5.862-2.625-5.862-5.863
				c0-3.238,2.625-5.862,5.862-5.862l0,0l91.837,0.005c3.239,0,5.863,2.625,5.863,5.863
				C475.744,259.25,473.119,261.875,469.882,261.875z"/>
		</g>
		<g>
			<path class="st3" d="M469.885,186.956L469.885,186.956l-91.836-0.005c-3.238,0-5.863-2.625-5.863-5.863
				c0-3.238,2.625-5.862,5.863-5.862l0,0l91.836,0.005c3.238,0,5.863,2.625,5.863,5.863
				C475.748,184.331,473.123,186.956,469.885,186.956z"/>
		</g>
		<g>
			<path class="st3" d="M469.878,336.794L469.878,336.794l-91.836-0.005c-3.239,0-5.863-2.625-5.863-5.863
				c0-3.237,2.625-5.862,5.863-5.862l0,0l91.836,0.005c3.238,0,5.863,2.625,5.863,5.863
				C475.741,334.169,473.116,336.794,469.878,336.794z"/>
		</g>
		<g>
			<path class="st3" d="M133.954,261.856L133.954,261.856l-91.837-0.006c-3.238,0-5.862-2.625-5.862-5.863
				c0-3.238,2.625-5.862,5.863-5.862h0.001l91.836,0.006c3.238,0,5.862,2.625,5.862,5.863
				C139.817,259.232,137.192,261.856,133.954,261.856z"/>
		</g>
		<g>
			<path class="st3" d="M133.958,186.937L133.958,186.937l-91.837-0.005c-3.238,0-5.862-2.625-5.862-5.863
				c0-3.238,2.625-5.862,5.863-5.862h0l91.837,0.005c3.238,0,5.862,2.625,5.862,5.863
				C139.821,184.312,137.196,186.937,133.958,186.937z"/>
		</g>
		<g>
			<path class="st3" d="M133.95,336.775L133.95,336.775l-91.837-0.005c-3.238,0-5.862-2.625-5.862-5.863
				c0-3.238,2.625-5.862,5.862-5.862h0l91.837,0.005c3.238,0,5.862,2.625,5.862,5.863
				C139.813,334.15,137.188,336.775,133.95,336.775z"/>
		</g>
		<g>
			<circle class="st7" cx="255.987" cy="486.799" r="19.334"/>
		</g>
		<g>
			<circle class="st7" cx="181.068" cy="486.795" r="19.334"/>
		</g>
		<g>
			<circle class="st7" cx="330.906" cy="486.804" r="19.334"/>
		</g>
		<g>
			<path class="st3" d="M255.988,511.996c-0.001,0-0.001,0-0.002,0c-13.893-0.001-25.196-11.305-25.195-25.198
				c0-6.73,2.621-13.057,7.381-17.816c4.759-4.758,11.086-7.379,17.816-7.379c0.001,0,0.001,0,0.001,0
				c13.894,0.001,25.196,11.305,25.196,25.198v0C281.183,500.694,269.88,511.996,255.988,511.996z M255.988,473.328
				c-3.598,0-6.981,1.401-9.526,3.945c-2.545,2.544-3.946,5.927-3.946,9.525c0,7.429,6.042,13.473,13.471,13.473
				c7.428,0,13.471-6.043,13.472-13.471C269.459,479.372,263.416,473.328,255.988,473.328z M275.322,486.801h0.01H275.322z"/>
		</g>
		<g>
			<path class="st3" d="M181.068,511.992c-0.001,0-0.001,0-0.002,0c-13.893-0.001-25.196-11.305-25.195-25.198
				c0.001-13.893,11.305-25.195,25.198-25.195c13.894,0.002,25.196,11.305,25.196,25.198c0,6.73-2.622,13.057-7.381,17.816
				C194.124,509.371,187.797,511.992,181.068,511.992z M181.068,473.323c-7.428,0-13.471,6.043-13.472,13.471
				c-0.001,7.428,6.042,13.472,13.471,13.472h0.001c3.598,0,6.98-1.401,9.525-3.945c2.544-2.544,3.946-5.927,3.946-9.525l5.863,0
				l-5.863,0C194.54,479.368,188.496,473.324,181.068,473.323z"/>
		</g>
		<g>
			<path class="st3" d="M330.906,512L330.906,512c-6.732,0-13.058-2.622-17.817-7.381c-4.759-4.759-7.38-11.087-7.379-17.817
				c0-6.73,2.621-13.057,7.381-17.816c4.759-4.759,11.086-7.379,17.816-7.379h0.001c6.731,0,13.057,2.622,17.816,7.381
				c4.759,4.759,7.38,11.087,7.379,17.818v-0.001v0.001c0,6.73-2.621,13.057-7.381,17.816C343.963,509.379,337.635,512,330.906,512z
				 M330.906,473.332c-3.598,0-6.981,1.401-9.526,3.945c-2.544,2.544-3.946,5.927-3.946,9.525c0,3.599,1.401,6.982,3.945,9.526
				c2.544,2.544,5.927,3.946,9.525,3.946h0.001c3.599,0,6.981-1.401,9.526-3.945c2.544-2.544,3.946-5.927,3.946-9.525v0
				c0-3.599-1.401-6.982-3.945-9.526C337.888,474.734,334.505,473.332,330.906,473.332L330.906,473.332z"/>
		</g>
		<g>
			<circle class="st7" cx="256.013" cy="25.201" r="19.334"/>
		</g>
		<g>
			<circle class="st7" cx="181.093" cy="25.197" r="19.334"/>
		</g>
		<g>
			<circle class="st7" cx="330.932" cy="25.205" r="19.334"/>
		</g>
		<g>
			<path class="st3" d="M256.012,50.397h-0.001c-13.893-0.001-25.195-11.305-25.195-25.198c0-6.73,2.621-13.058,7.38-17.817
				c4.759-4.758,11.086-7.379,17.816-7.379h0.001c6.73,0.001,13.057,2.622,17.816,7.381c4.759,4.76,7.38,11.087,7.379,17.817v0v0
				c0,6.73-2.621,13.058-7.381,17.816C269.069,47.777,262.742,50.397,256.012,50.397z M256.013,11.729
				c-3.598,0-6.981,1.401-9.526,3.945s-3.946,5.927-3.946,9.525c-0.001,7.428,6.042,13.472,13.47,13.472h0
				c3.598,0,6.981-1.401,9.526-3.945c2.544-2.544,3.946-5.927,3.946-9.525v0c0-3.598-1.401-6.981-3.945-9.526
				C262.994,13.131,259.612,11.73,256.013,11.729L256.013,11.729z"/>
		</g>
		<g>
			<path class="st3" d="M181.094,50.393c0,0-0.001,0-0.001,0c-6.73,0-13.058-2.621-17.816-7.38s-7.379-11.087-7.379-17.817
				c0.001-6.73,2.622-13.057,7.381-17.816C168.037,2.621,174.364,0,181.093,0c0.001,0,0.001,0,0.002,0
				c13.893,0.001,25.196,11.305,25.195,25.198v0C206.289,39.091,194.985,50.393,181.094,50.393z M181.093,11.725
				c-3.598,0-6.98,1.401-9.525,3.945c-2.544,2.544-3.946,5.927-3.946,9.525c0,3.599,1.401,6.982,3.945,9.526
				c2.544,2.545,5.927,3.946,9.525,3.946c7.428,0,13.472-6.042,13.472-13.47c0-7.428-6.043-13.472-13.471-13.472H181.093z
				 M200.428,25.198h0.009H200.428z"/>
		</g>
		<g>
			<path class="st3" d="M330.931,50.402h-0.001c-13.893-0.001-25.196-11.304-25.196-25.198
				c0.001-13.893,11.305-25.196,25.198-25.196c6.731,0.001,13.057,2.622,17.816,7.381c4.759,4.759,7.38,11.087,7.379,17.817v0v0
				c0,6.73-2.621,13.057-7.381,17.816C343.988,47.781,337.661,50.402,330.931,50.402z M330.933,11.733
				c-7.428,0-13.472,6.043-13.473,13.471c0,7.428,6.043,13.472,13.47,13.472c0.001,0,0.001,0,0.001,0
				c3.598,0,6.981-1.401,9.526-3.945c2.544-2.544,3.946-5.927,3.946-9.525v0c0-3.598-1.401-6.981-3.945-9.526
				C337.914,13.135,334.531,11.733,330.933,11.733z"/>
		</g>
		<g>
			<circle class="st7" cx="486.799" cy="256.013" r="19.334"/>
		</g>
		<g>
			<circle class="st7" cx="486.803" cy="181.094" r="19.334"/>
		</g>
		<g>
			<circle class="st7" cx="486.795" cy="330.932" r="19.334"/>
		</g>
		<g>
			<path class="st3" d="M486.799,281.209h-0.001l0,0l0,0c-6.73,0-13.057-2.621-17.816-7.38s-7.38-11.087-7.379-17.817
				c0-6.73,2.621-13.057,7.38-17.816c4.759-4.759,11.086-7.379,17.816-7.379h0.001c6.731,0.001,13.058,2.622,17.817,7.381
				c4.759,4.759,7.38,11.087,7.379,17.818c0,6.73-2.621,13.057-7.381,17.816C499.856,278.589,493.529,281.209,486.799,281.209z
				 M486.799,242.542c-3.598,0-6.98,1.401-9.525,3.945c-2.544,2.544-3.946,5.927-3.946,9.525c0,3.599,1.401,6.982,3.945,9.526
				c2.544,2.544,5.927,3.946,9.525,3.946l0,0c0.001,0,0.001,0,0.001,0c3.599,0,6.981-1.401,9.526-3.945
				c2.544-2.544,3.946-5.927,3.946-9.525c0-3.599-1.401-6.982-3.945-9.527C493.78,243.943,490.398,242.542,486.799,242.542
				L486.799,242.542z"/>
		</g>
		<g>
			<path class="st3" d="M486.801,206.291L486.801,206.291c-6.731-0.001-13.057-2.622-17.816-7.381
				c-4.759-4.759-7.38-11.087-7.379-17.817c0-6.73,2.621-13.057,7.381-17.816c4.759-4.758,11.086-7.379,17.816-7.379h0.001
				c13.893,0,25.196,11.304,25.196,25.197C511.999,194.988,500.695,206.291,486.801,206.291z M486.804,167.623
				c-3.599,0-6.982,1.401-9.527,3.945c-2.544,2.544-3.946,5.927-3.946,9.525c0,3.599,1.401,6.982,3.945,9.526
				c2.544,2.545,5.927,3.946,9.525,3.946c7.429,0,13.472-6.043,13.473-13.471C500.275,173.666,494.232,167.623,486.804,167.623z"/>
		</g>
		<g>
			<path class="st3" d="M486.795,356.129L486.795,356.129L486.795,356.129c-6.732,0-13.058-2.622-17.818-7.381
				c-4.759-4.759-7.38-11.087-7.379-17.817c0.001-13.893,11.304-25.195,25.198-25.195h0.001
				c13.892,0.001,25.195,11.304,25.195,25.198c0,6.73-2.621,13.058-7.381,17.817C499.852,353.508,493.525,356.129,486.795,356.129z
				 M486.794,344.404L486.794,344.404c3.599,0,6.982-1.401,9.527-3.945c2.544-2.544,3.946-5.927,3.946-9.525
				c0-7.428-6.043-13.472-13.469-13.472c-7.428-0.001-13.472,6.042-13.473,13.471c0,3.598,1.401,6.981,3.946,9.526
				C479.813,343.002,483.196,344.403,486.794,344.404L486.794,344.404z"/>
		</g>
		<g>
			<circle class="st7" cx="25.201" cy="255.987" r="19.334"/>
		</g>
		<g>
			<circle class="st7" cx="25.205" cy="181.068" r="19.334"/>
		</g>
		<g>
			<circle class="st7" cx="25.196" cy="330.907" r="19.334"/>
		</g>
		<g>
			<path class="st3" d="M25.201,281.184c-0.001,0-0.001,0-0.002,0h0h0c-6.729,0-13.057-2.621-17.816-7.38
				c-4.759-4.759-7.38-11.087-7.379-17.817c0.001-6.73,2.622-13.057,7.381-17.816c4.759-4.758,11.086-7.379,17.815-7.379
				c0.001,0,0.001,0,0.002,0c13.893,0.001,25.196,11.305,25.195,25.198C50.396,269.882,39.092,281.184,25.201,281.184z
				 M25.2,242.516c-3.598,0-6.98,1.401-9.525,3.945c-2.544,2.544-3.946,5.927-3.946,9.525c0,3.598,1.401,6.982,3.945,9.526
				c2.544,2.545,5.927,3.946,9.525,3.946h0c7.427,0,13.471-6.042,13.472-13.47C38.673,248.56,32.63,242.516,25.2,242.516
				C25.201,242.516,25.201,242.516,25.2,242.516z"/>
		</g>
		<g>
			<path class="st3" d="M25.205,206.265c-0.001,0-0.001,0-0.002,0l0,0C11.31,206.264,0.008,194.96,0.008,181.067
				c0.001-6.73,2.622-13.058,7.381-17.817c4.759-4.758,11.086-7.379,17.815-7.379c0.001,0,0.001,0,0.002,0
				c13.893,0.001,25.196,11.305,25.195,25.198C50.401,194.962,39.097,206.265,25.205,206.265z M25.204,194.54
				c7.428,0,13.471-6.043,13.472-13.471c0-7.428-6.042-13.472-13.471-13.472c0,0,0,0-0.001,0c-3.598,0-6.98,1.401-9.525,3.945
				c-2.544,2.544-3.946,5.927-3.946,9.525C11.733,188.496,17.776,194.539,25.204,194.54L25.204,194.54z"/>
		</g>
		<g>
			<path class="st3" d="M25.197,356.103c-0.001,0-0.001,0-0.002,0l0,0l0,0c-6.73,0-13.057-2.621-17.816-7.381
				C2.62,343.963,0,337.635,0,330.905c0-6.73,2.621-13.058,7.38-17.816c4.759-4.758,11.086-7.379,17.816-7.379
				c0.001,0,0.001,0,0.002,0c6.73,0,13.057,2.621,17.816,7.381c4.759,4.759,7.38,11.087,7.379,17.817
				C50.392,344.801,39.089,356.103,25.197,356.103z M25.196,317.435c-3.598,0-6.981,1.401-9.525,3.945
				c-2.544,2.544-3.946,5.927-3.946,9.526c0,7.428,6.043,13.472,13.47,13.472l0,0c7.428,0,13.472-6.043,13.472-13.471
				c0-3.598-1.401-6.981-3.945-9.526C32.178,318.837,28.795,317.436,25.196,317.435C25.197,317.435,25.197,317.435,25.196,317.435z"
				/>
		</g>
		<g>
			<path class="st4" d="M352.926,397.679H160.051c-24.614,0-44.754-20.139-44.754-44.754V160.051
				c0-24.614,20.139-44.753,44.754-44.753h192.875c24.614,0,44.754,20.139,44.754,44.753v192.875
				C397.679,377.54,377.54,397.679,352.926,397.679z"/>
		</g>
		<g>
			<path class="st7" d="M369.344,393.846c11.858-4.88,24.091-17.926,28.336-34.447L396.87,151.64
				c-4.283-15.907-15.668-28.607-27.527-33.486V393.846z"/>
		</g>
		<g>
			<path class="st3" d="M352.926,403.542H160.051c-27.91,0-50.616-22.706-50.616-50.616V160.051
				c0-27.91,22.706-50.616,50.616-50.616h192.875c27.91,0,50.616,22.706,50.616,50.616v192.875
				C403.542,380.836,380.836,403.542,352.926,403.542z M160.051,121.16c-21.445,0-38.891,17.446-38.891,38.891v192.875
				c0,21.445,17.446,38.891,38.891,38.891h192.875c21.445,0,38.891-17.446,38.891-38.891V160.051
				c0-21.445-17.447-38.891-38.891-38.891H160.051z"/>
		</g>
		<g>
			<path class="st1" d="M309.725,334.656H202.275c-13.713,0-24.932-11.219-24.932-24.932V202.275
				c0-13.713,11.219-24.932,24.932-24.932h107.449c13.712,0,24.932,11.219,24.932,24.932v107.449
				C334.656,323.437,323.437,334.656,309.725,334.656z"/>
		</g>
		<g>
			<path class="st3" d="M309.724,340.519H202.275c-16.98,0-30.794-13.814-30.794-30.794V202.275
				c0-16.98,13.814-30.794,30.794-30.794h107.449c16.98,0,30.795,13.814,30.795,30.794v107.449
				C340.519,326.705,326.704,340.519,309.724,340.519z M202.275,183.206c-10.515,0-19.069,8.554-19.069,19.069v107.449
				c0,10.515,8.554,19.069,19.069,19.069h107.449c10.515,0,19.07-8.554,19.07-19.069V202.275c0-10.515-8.554-19.069-19.07-19.069
				H202.275z"/>
		</g>
	</g>
</g>
</svg>
