<?xml version="1.0" encoding="utf-8"?>
<!-- Generator: Adobe Illustrator 18.0.0, SVG Export Plug-In . SVG Version: 6.00 Build 0)  -->
<!DOCTYPE svg PUBLIC "-//W3C//DTD SVG 1.1//EN" "http://www.w3.org/Graphics/SVG/1.1/DTD/svg11.dtd">
<svg version="1.1" id="Icon_Set" xmlns="http://www.w3.org/2000/svg" xmlns:xlink="http://www.w3.org/1999/xlink" x="0px" y="0px"
	 viewBox="0 0 512 512" style="enable-background:new 0 0 512 512;" xml:space="preserve">
<style type="text/css">
	.st0{fill:#F0C48A;}
	.st1{fill:#FD919E;}
	.st2{fill:#E8677D;}
	.st3{fill:#4C4372;}
	.st4{fill:#D3E6F8;}
	.st5{fill:#A4CFF2;}
	.st6{fill:#FFFFFF;}
	.st7{fill:#7BABF1;}
</style>
<g>
	<circle class="st0" cx="256" cy="256" r="207"/>
	<g>
		<g>
			<rect x="169.365" y="6.627" class="st6" width="171.049" height="35.285"/>
		</g>
		<g>
			<rect x="192.849" y="28.172" class="st4" width="127.735" height="7.806"/>
		</g>
		<g>
			<polygon class="st4" points="161.056,332.42 161.056,5.863 182.14,5.863 204.688,81.762 204.688,249.912 182.924,249.912 
				182.924,332.42 			"/>
		</g>
		<g>
			<polygon class="st4" points="350.893,332.42 350.893,5.863 329.808,5.863 307.261,81.762 307.261,249.912 329.051,249.912 
				329.051,332.42 			"/>
		</g>
		<g>
			<rect x="331.645" y="8.883" class="st7" width="17.538" height="320.111"/>
		</g>
		<g>
			<polygon class="st7" points="201.618,328.993 184.08,328.993 184.08,8.883 201.618,65.458 			"/>
		</g>
		<g>
			<rect x="193.272" y="332.42" class="st5" width="125.455" height="32.549"/>
		</g>
		<g>
			<rect x="288.397" y="336.931" class="st7" width="25.407" height="23.477"/>
		</g>
		<g>
			<rect x="133.757" y="364.969" class="st4" width="244.485" height="22.119"/>
		</g>
		<g>
			<rect x="347.198" y="367.302" class="st5" width="26.29" height="16.771"/>
		</g>
		<g>
			<rect x="239.561" y="387.089" class="st6" width="32.877" height="119.049"/>
		</g>
		<g>
			<rect x="258.635" y="390.673" class="st4" width="10.081" height="113.159"/>
		</g>
		<g>
			<rect x="204.688" y="81.762" class="st1" width="102.625" height="138.107"/>
		</g>
		<g>
			<circle class="st2" cx="256" cy="160.586" r="29.05"/>
		</g>
		<g>
			<rect x="182.924" y="249.912" class="st1" width="146.127" height="82.508"/>
		</g>
		<g>
			<rect x="199.59" y="267.861" class="st2" width="55.56" height="46.61"/>
		</g>
		<g>
			<polyline class="st7" points="350.893,274.077 376.686,274.077 376.686,307.285 351.77,307.285 			"/>
		</g>
		<g>
			<rect x="226.95" y="5.863" class="st7" width="58.1" height="38.199"/>
		</g>
		<g>
			<path class="st3" d="M307.312,225.731H204.688c-3.238,0-5.863-2.624-5.863-5.863V81.762c0-3.238,2.625-5.863,5.863-5.863h102.624
				c3.238,0,5.863,2.625,5.863,5.863v138.107C313.175,223.107,310.55,225.731,307.312,225.731z M210.551,214.006h90.899V87.624
				h-90.899V214.006z"/>
		</g>
		<g>
			<path class="st3" d="M256,195.499c-19.251,0-34.913-15.662-34.913-34.913c0-19.251,15.662-34.913,34.913-34.913
				s34.913,15.662,34.913,34.913C290.913,179.837,275.251,195.499,256,195.499z M256,137.399c-12.786,0-23.188,10.402-23.188,23.188
				c0,12.786,10.402,23.188,23.188,23.188c12.786,0,23.188-10.402,23.188-23.188C279.188,147.801,268.786,137.399,256,137.399z"/>
		</g>
		<g>
			<path class="st3" d="M329.051,338.283H182.924c-3.238,0-5.863-2.625-5.863-5.863v-82.509c0-3.238,2.625-5.863,5.863-5.863
				h146.127c3.238,0,5.863,2.625,5.863,5.863v82.509C334.913,335.658,332.288,338.283,329.051,338.283z M188.786,326.558h134.402
				v-70.783H188.786V326.558z"/>
		</g>
		<g>
			<path class="st3" d="M255.151,320.334h-55.56c-3.237,0-5.862-2.625-5.862-5.863v-46.61c0-3.238,2.625-5.863,5.862-5.863h55.56
				c3.238,0,5.863,2.625,5.863,5.863v46.61C261.013,317.709,258.388,320.334,255.151,320.334z M205.453,308.609h43.835v-34.885
				h-43.835V308.609z"/>
		</g>
		<g>
			<g>
				<circle class="st3" cx="271.651" cy="274.077" r="4.795"/>
			</g>
			<g>
				<circle class="st3" cx="289.633" cy="274.077" r="4.795"/>
			</g>
			<g>
				<circle class="st3" cx="307.615" cy="274.077" r="4.795"/>
			</g>
			<g>
				<circle class="st3" cx="271.651" cy="291.166" r="4.795"/>
			</g>
			<g>
				<circle class="st3" cx="289.633" cy="291.166" r="4.795"/>
			</g>
			<g>
				<circle class="st3" cx="307.615" cy="291.166" r="4.795"/>
			</g>
			<g>
				<circle class="st3" cx="271.651" cy="308.256" r="4.795"/>
			</g>
			<g>
				<circle class="st3" cx="289.633" cy="308.256" r="4.795"/>
			</g>
			<g>
				<circle class="st3" cx="307.615" cy="308.256" r="4.795"/>
			</g>
		</g>
		<g>
			<path class="st3" d="M182.924,338.283h-21.868c-3.238,0-5.863-2.625-5.863-5.863V5.863c0-3.238,2.625-5.863,5.863-5.863h21.085
				c2.594,0,4.881,1.706,5.62,4.193l22.548,75.899c0.16,0.542,0.242,1.104,0.242,1.669v168.15c0,3.238-2.625,5.863-5.863,5.863
				h-15.902v76.646C188.786,335.658,186.161,338.283,182.924,338.283z M166.918,326.558h10.143v-76.646
				c0-3.238,2.625-5.863,5.863-5.863h15.902V82.615l-21.059-70.889h-10.848V326.558z"/>
		</g>
		<g>
			<path class="st3" d="M350.892,338.283h-21.842c-3.238,0-5.863-2.625-5.863-5.863v-76.646h-15.928
				c-3.238,0-5.863-2.625-5.863-5.863V81.762c0-0.565,0.082-1.127,0.242-1.669l22.548-75.899C324.928,1.706,327.214,0,329.808,0
				h21.084c3.238,0,5.863,2.625,5.863,5.863V332.42C356.755,335.658,354.13,338.283,350.892,338.283z M334.913,326.558h10.116
				V11.725h-10.847l-21.059,70.889v161.435h15.927c3.238,0,5.863,2.625,5.863,5.863V326.558z"/>
		</g>
		<g>
			<path class="st3" d="M318.304,47.774H192.849c-3.238,0-5.863-2.625-5.863-5.863c0-3.238,2.625-5.863,5.863-5.863h125.455
				c3.238,0,5.863,2.625,5.863,5.863C324.167,45.149,321.542,47.774,318.304,47.774z"/>
		</g>
		<g>
			<path class="st3" d="M376.686,313.148H351.77c-3.238,0-5.863-2.625-5.863-5.863c0-3.238,2.625-5.863,5.863-5.863h19.054v-21.483
				h-19.931c-3.238,0-5.863-2.625-5.863-5.863c0-3.238,2.625-5.863,5.863-5.863h25.794c3.238,0,5.863,2.625,5.863,5.863v33.208
				C382.549,310.523,379.924,313.148,376.686,313.148z"/>
		</g>
		<g>
			<path class="st3" d="M318.728,370.832H193.272c-3.238,0-5.863-2.625-5.863-5.863V332.42c0-3.238,2.625-5.863,5.863-5.863h125.456
				c3.237,0,5.862,2.625,5.862,5.863v32.549C324.591,368.207,321.966,370.832,318.728,370.832z M199.135,359.106h113.731v-20.824
				H199.135V359.106z"/>
		</g>
		<g>
			<path class="st3" d="M378.242,392.951H133.758c-3.238,0-5.863-2.625-5.863-5.863v-22.12c0-3.238,2.625-5.863,5.863-5.863h244.485
				c3.238,0,5.863,2.625,5.863,5.863v22.12C384.105,390.326,381.48,392.951,378.242,392.951z M139.62,381.226h232.76v-10.395H139.62
				V381.226z"/>
		</g>
		<g>
			<path class="st3" d="M272.439,512h-32.878c-3.238,0-5.863-2.625-5.863-5.863V387.089c0-3.238,2.625-5.863,5.863-5.863h32.878
				c3.238,0,5.863,2.625,5.863,5.863v119.049C278.302,509.375,275.677,512,272.439,512z M245.424,500.275h21.153V392.951h-21.153
				V500.275z"/>
		</g>
		<g>
			<g>
				<path class="st3" d="M229.498,47.774c-3.238,0-5.863-2.625-5.863-5.863V6.626c0-3.238,2.625-5.863,5.863-5.863
					c3.238,0,5.863,2.625,5.863,5.863v35.285C235.361,45.149,232.736,47.774,229.498,47.774z"/>
			</g>
			<g>
				<path class="st3" d="M282.502,47.774c-3.238,0-5.863-2.625-5.863-5.863V6.626c0-3.238,2.625-5.863,5.863-5.863
					c3.238,0,5.863,2.625,5.863,5.863v35.285C288.365,45.149,285.74,47.774,282.502,47.774z"/>
			</g>
		</g>
		<g>
			<path class="st3" d="M285.108,111.725h-58.216c-3.238,0-5.863-2.625-5.863-5.863c0-3.238,2.625-5.863,5.863-5.863h58.216
				c3.238,0,5.863,2.625,5.863,5.863C290.97,109.1,288.345,111.725,285.108,111.725z"/>
		</g>
		<g>
			<path class="st3" d="M329.808,11.725H182.14c-3.238,0-5.863-2.625-5.863-5.863S178.903,0,182.14,0h147.668
				c3.238,0,5.863,2.625,5.863,5.863S333.046,11.725,329.808,11.725z"/>
		</g>
	</g>
</g>
</svg>
