<svg xmlns="http://www.w3.org/2000/svg" viewBox="0 0 340 340"><g id="Layer_18" data-name="Layer 18"><path d="M16.761,216.742c3.8-7.309,9.763-18.257,17.145-30a17.136,17.136,0,0,0,2.637-9.333c-.251-20.172,4.711-95.952,93.255-97.668,59.6-1.155,86.752,37.12,91.821,69.033,3.894,24.519.486,65.833-26.208,99.388a23.378,23.378,0,0,0-5.147,15.821l2.924,53.173a9.116,9.116,0,0,1-9.1,9.617h-83.9a7.467,7.467,0,0,1-7.463-7.207l-1.333-38.273s-19.595,4.836-37.161,7.774a11.191,11.191,0,0,1-13.028-10.4c-.649-11.445-1.591-28.228-2.08-37.764l-18.162-10.15A10.5,10.5,0,0,1,16.761,216.742Z" style="fill:#9ebfff"/><path d="M91.388,281.292l48.282-11.177a4.2,4.2,0,0,1,3.292,7.565L92.449,311.752Z" style="fill:#464965"/><path d="M187.146,167.263a4.537,4.537,0,0,1-1.531-8.943,34.657,34.657,0,0,1,9.985.018,3.9,3.9,0,0,0,4.435-4.32,77.989,77.989,0,0,0-1.944-10.183,8.761,8.761,0,0,0-7.835-6.529,31.111,31.111,0,0,0-13.863,2.235,4.537,4.537,0,0,1-3.871-8.207,38.841,38.841,0,0,1,11.948-3,4.1,4.1,0,0,0,2.88-6.621,54.607,54.607,0,0,0-3.925-4.492,34.038,34.038,0,0,0-26.315-10.139l-.328.019A12.153,12.153,0,0,0,145.5,120.913a67.961,67.961,0,0,1,.55,7.033,3.807,3.807,0,0,0,2.305,3.361,27.5,27.5,0,0,1,7.573,4.9,4.724,4.724,0,0,1,.593,6.515,4.537,4.537,0,0,1-6.558.329c-7.857-7.45-21.619-5.618-21.755-5.6a4.537,4.537,0,0,1-1.3-8.981,40.234,40.234,0,0,1,5.884-.3,3.845,3.845,0,0,0,3.907-4.193,53.139,53.139,0,0,0-2.342-11.321,12.275,12.275,0,0,0-8.924-8.13q-.429-.1-.876-.185a27.323,27.323,0,0,0-18.59,2.781,20.288,20.288,0,0,0-10.057,12.23s-20.78-5.9-27.706,13.982c0,0-4.618,14.879,9.62,21.036l14.447,5.571a4.774,4.774,0,0,0,6.27-3,26.135,26.135,0,0,0,.545-11.3,4.537,4.537,0,0,1,8.889-1.822c.113.544,1.746,8.848-1.032,16.775a4.785,4.785,0,0,0,2.763,6.075l24.3,9.369a5.043,5.043,0,0,0,6.853-4.891l-.1-2.592a4.537,4.537,0,1,1,9.067-.336l.4,10.8a5.041,5.041,0,0,0,3.225,4.518l24.675,9.516A16.032,16.032,0,0,0,199.789,180.1c.323-2.518.587-5.206.754-8.016a3.865,3.865,0,0,0-2.605-3.927A25.92,25.92,0,0,0,187.146,167.263Z" style="fill:#fff"/><path d="M296.466,144.258a3.437,3.437,0,0,0-3.436,3.437v20.06a3.437,3.437,0,0,0,6.873,0V147.7A3.437,3.437,0,0,0,296.466,144.258Z" style="fill:#464965"/><path d="M275.208,9.792a3.436,3.436,0,0,0-3.436,3.436V27.315a3.436,3.436,0,1,0,6.872,0V13.228A3.436,3.436,0,0,0,275.208,9.792Z" style="fill:#464965"/><path d="M253.95,9.792a3.436,3.436,0,0,0-3.436,3.436V27.315a3.436,3.436,0,0,0,6.872,0V13.228A3.436,3.436,0,0,0,253.95,9.792Z" style="fill:#464965"/><path d="M296.466,30.751a3.436,3.436,0,0,0,3.437-3.436V13.228a3.437,3.437,0,0,0-6.873,0V27.315A3.436,3.436,0,0,0,296.466,30.751Z" style="fill:#464965"/><path d="M275.208,96.034a3.436,3.436,0,0,0-3.436,3.436v56.541a3.436,3.436,0,1,0,6.872,0V99.47A3.436,3.436,0,0,0,275.208,96.034Z" style="fill:#464965"/><path d="M253.95,96.034a3.436,3.436,0,0,0-3.436,3.436v44.5a3.436,3.436,0,0,0,6.872,0V99.47A3.436,3.436,0,0,0,253.95,96.034Z" style="fill:#464965"/><path d="M296.466,120.554a3.437,3.437,0,0,0,3.437-3.436V99.47a3.437,3.437,0,0,0-6.873,0v17.648A3.437,3.437,0,0,0,296.466,120.554Z" style="fill:#464965"/><path d="M239.759,59.957H225.673a3.436,3.436,0,1,0,0,6.872h14.086a3.436,3.436,0,1,0,0-6.872Z" style="fill:#464965"/><path d="M239.759,38.7H225.673a3.436,3.436,0,1,0,0,6.872h14.086a3.436,3.436,0,1,0,0-6.872Z" style="fill:#464965"/><path d="M239.759,81.215H225.673a3.436,3.436,0,1,0,0,6.872h14.086a3.436,3.436,0,1,0,0-6.872Z" style="fill:#464965"/><path d="M324.443,59.957H310.356a3.436,3.436,0,1,0,0,6.872h14.087a3.436,3.436,0,1,0,0-6.872Z" style="fill:#464965"/><path d="M310.356,45.571h14.087a3.436,3.436,0,1,0,0-6.872H310.356a3.436,3.436,0,1,0,0,6.872Z" style="fill:#464965"/><path d="M324.443,81.215H310.356a3.436,3.436,0,1,0,0,6.872h14.087a3.436,3.436,0,1,0,0-6.872Z" style="fill:#464965"/><circle cx="296.466" cy="132.406" r="3.908" style="fill:#464965"/><rect x="238.058" y="25.107" width="74.301" height="76.571" rx="8.882" style="fill:#464965"/><rect x="253.95" y="41.485" width="42.517" height="43.816" rx="8.013" style="fill:#fff"/><path d="M265.641,47.927h8.245a2.881,2.881,0,0,1,2.038,4.918l-10.4,10.4a2.881,2.881,0,0,1-4.918-2.046l.026-8.278A5.008,5.008,0,0,1,265.641,47.927Z" style="fill:#464965"/><path d="M35.786,242.976c.5,9.584,1.343,24.611,1.983,35.885a14.626,14.626,0,0,0,17.025,13.594c12.669-2.12,26.51-5.248,33.255-6.832l.929,41.226a3.436,3.436,0,1,0,6.87-.155l-.29-12.9,48.834-34a7.224,7.224,0,0,0-5.757-12.966L90.613,277.945l-.025.008-.023,0c-.194.048-19.676,4.839-36.9,7.72a7.754,7.754,0,0,1-9.031-7.2c-.682-12.042-1.6-28.365-2.078-37.745A3.438,3.438,0,0,0,40.8,237.9L22.634,227.754a7.035,7.035,0,0,1-2.824-9.428c3.692-7.106,9.639-18.037,17.005-29.756a20.546,20.546,0,0,0,3.164-11.2c-.27-21.683,5.416-92.554,89.886-94.191,57.3-1.124,83.4,34.934,88.359,66.138,4.139,26.051-.386,65.138-25.5,96.709a26.816,26.816,0,0,0-5.888,18.152l3.5,62.789a3.435,3.435,0,0,0,3.427,3.245c.064,0,.13,0,.2-.005a3.435,3.435,0,0,0,3.238-3.622l-3.5-62.788A19.941,19.941,0,0,1,198.1,250.3c26.5-33.317,31.279-74.569,26.911-102.066a83.8,83.8,0,0,0-26.556-48.929c-17.277-15.584-41.04-23.531-68.725-23-39,.756-66.873,15.444-82.849,43.655-12.8,22.6-13.9,47.734-13.775,57.491A13.682,13.682,0,0,1,31,184.913c-7.489,11.916-13.533,23.025-17.284,30.245a13.875,13.875,0,0,0,5.569,18.6Zm104.4,30.546c.163-.039.282-.066.4.2s.017.334-.121.43l-45.093,31.4-.486-21.541Z" style="fill:#464965"/></g></svg>