<svg xmlns="http://www.w3.org/2000/svg" viewBox="0 0 340 340"><g id="Layer_25" data-name="Layer 25"><path d="M236.394,111.612c-35.665-16.406-66.266-16.86-71.183-16.82q-.689.006-1.378,0c-.774-.006-2.185,0-4.151.079l7.848,17.9-7.717-.414-8-16.937a186.8,186.8,0,0,0-59.165,16.19c-51.57,23.722-51.57,97.172,0,120.894,35.665,16.406,66.266,16.86,71.183,16.82q.689-.006,1.378,0a154.974,154.974,0,0,0,32.7-3.928l-6.948-17.19,6.944-1.463,7.217,16.927a189.31,189.31,0,0,0,31.272-11.166C287.964,208.784,287.964,135.334,236.394,111.612Z" style="fill:#464965"/><path d="M231.164,234.816a185.259,185.259,0,0,0,71.1-53.2,15.02,15.02,0,0,0,0-19.107,185.272,185.272,0,0,0-70.774-53.066Z" style="fill:#464965"/><path d="M93.313,232.81a185.343,185.343,0,0,1-66.5-51.155,15.066,15.066,0,0,1,0-19.185A185.352,185.352,0,0,1,92.65,111.612Z" style="fill:#464965"/><path d="M163.964,109.443c-3.985-.033-28.784.335-57.686,13.63-41.792,19.225-41.792,78.748,0,97.972,28.9,13.3,53.7,13.663,57.686,13.63q.558,0,1.116,0c3.985.033,28.784-.335,57.686-13.63,41.792-19.224,41.792-78.747,0-97.972-28.9-13.295-53.7-13.663-57.686-13.63Q164.522,109.447,163.964,109.443Z" style="fill:#fff"/><circle cx="164.312" cy="172.059" r="47.84" style="fill:#f76b99"/><circle cx="163.559" cy="172.059" r="25.835" style="fill:#464965"/><circle cx="133.078" cy="154.048" r="20.772" style="fill:#fff"/><path d="M320.638,328.374H255.677a21.894,21.894,0,0,1-19.464-11.789l-38.635-90.607a3.436,3.436,0,1,1,6.09-3.183L242.3,313.4a15.046,15.046,0,0,0,13.374,8.1h64.961a3.436,3.436,0,1,1,0,6.872Z" style="fill:#464965"/><path d="M320.638,306.728H264.259a3.436,3.436,0,0,1,0-6.872h56.379a3.436,3.436,0,1,1,0,6.872Z" style="fill:#464965"/><path d="M320.638,286.016H264.259a3.436,3.436,0,1,1,0-6.872h56.379a3.436,3.436,0,1,1,0,6.872Z" style="fill:#464965"/><rect x="242.266" y="279.144" width="10.487" height="6.872" rx="3.436" transform="translate(495.019 565.16) rotate(180)" style="fill:#464965"/><path d="M156.772,117.391a3.435,3.435,0,0,1-3.047-1.843l-42-88.947a15.046,15.046,0,0,0-13.375-8.1H33.386a3.436,3.436,0,0,1,0-6.872H98.347a21.894,21.894,0,0,1,19.464,11.789l42,88.944a3.437,3.437,0,0,1-3.041,5.032Z" style="fill:#464965"/><path d="M103.356,39.59H33.386a3.436,3.436,0,0,1,0-6.872h69.97a3.436,3.436,0,1,1,0,6.872Z" style="fill:#464965"/><path d="M89.993,61.194H33.386a3.436,3.436,0,0,1,0-6.872H89.993a3.436,3.436,0,1,1,0,6.872Z" style="fill:#464965"/><rect x="101.5" y="54.322" width="10.487" height="6.872" rx="3.436" style="fill:#464965"/><path d="M163.559,121.653A50.124,50.124,0,0,0,135.791,130a24.206,24.206,0,1,0-2.713,48.26c.625,0,1.242-.032,1.855-.079a29.261,29.261,0,1,0,20.174-34.147,24.359,24.359,0,0,0-10.416-11.216A43.538,43.538,0,1,1,121.81,184.44a3.437,3.437,0,1,0-6.59,1.952,50.412,50.412,0,1,0,48.339-64.739Zm0,28.007a22.4,22.4,0,1,1-21.911,27.023,24.17,24.17,0,0,0,15.392-26.054A22.367,22.367,0,0,1,163.559,149.66Zm-13.145,4.388a17.337,17.337,0,1,1-17.336-17.336A17.356,17.356,0,0,1,150.414,154.048Z" style="fill:#464965"/><path d="M312.458,170.034c-55.29-75.768-140.439-78.581-152.7-78.581h-1.576l3.02,6.889a190.748,190.748,0,0,1,54.454,9.868c36.934,12.2,67.116,33.678,89.75,63.85A183.314,183.314,0,0,1,207.733,239.4l1.863,6.615c28.923-8.148,70.248-27.242,102.862-71.934A3.435,3.435,0,0,0,312.458,170.034Z" style="fill:#464965"/><path d="M196.6,242.171c-18.882,4.077-31.837,3.714-31.966,3.709-.076,0-.154,0-.229,0-.209.009-21.612.584-49.745-8.483a183.733,183.733,0,0,1-91.028-65.338c41.129-54.924,95.38-69.161,124.273-72.749l-.848-6.821c-30.345,3.77-87.647,18.856-130.474,77.545a3.435,3.435,0,0,0,0,4.051,190.7,190.7,0,0,0,96.248,69.943c25.344,8.126,45.023,8.738,50.382,8.738.653,0,1.095-.008,1.306-.014a188.8,188.8,0,0,0,34.616-4.311Z" style="fill:#464965"/></g></svg>