<svg xmlns="http://www.w3.org/2000/svg" viewBox="0 0 340 340"><g id="Layer_11" data-name="Layer 11"><path d="M145.478,158.687V43.959H124.342A11.442,11.442,0,0,0,112.9,55.4V158.687Z" style="fill:#464965"/><path d="M112.9,165.56v66.3a11.441,11.441,0,0,0,11.441,11.44h21.136V165.56Z" style="fill:#464965"/><path d="M186.643,234.861s-1.12,17.682,23.242,30.88a19.174,19.174,0,0,1,10,15.24l1.556,18.5h67.377s-4.142-72.072-28.442-130.889c0,0-17.949-18.5-37.831-26.509Z" style="fill:#ffcaca"/><path d="M215.844,159.386,236.706,184.3V149.516a87.874,87.874,0,0,0-14.166-7.437Z" style="fill:#ef9199"/><path d="M209.7,116.415v-6.872h18.2V55.4a11.441,11.441,0,0,0-11.441-11.441H138.9A11.441,11.441,0,0,0,127.457,55.4V158.687h20.466v6.873H127.457v66.3A11.44,11.44,0,0,0,138.9,243.3H227.9V116.415Z" style="fill:#464965"/><path d="M219.149,232.784H146.862a9.669,9.669,0,0,1-9.67-9.67V61.2a9.67,9.67,0,0,1,9.67-9.671h62.616a9.671,9.671,0,0,1,9.671,9.671Z" style="fill:#fff"/><path d="M225.041,214.433l-7.673-23.156L190.337,173.4h-5.463a11.121,11.121,0,0,0-10.937,13.184c1.748,9.182,7.461,20.292,24.424,23.248,0,0,.26,19.4,16,29.108h10.679Z" style="fill:#464965"/><path d="M234.723,246.073c-33.233-8.432-25.319-44.642-25.319-44.642-21.086.753-26.531-9.745-27.556-18.106a8.93,8.93,0,0,1,8.489-9.93,183.078,183.078,0,0,0,26.034-3.7,13.24,13.24,0,0,1,12.553,4.1c8.869,9.856,17.185,24.658,17.185,24.658Z" style="fill:#ffcaca"/><path d="M53.993,205.752a3.436,3.436,0,0,1-3.436-3.436V173.8a22.006,22.006,0,0,1,21.981-21.981h75.056a3.436,3.436,0,1,1,0,6.872H72.538A15.126,15.126,0,0,0,57.429,173.8v28.52A3.436,3.436,0,0,1,53.993,205.752Z" style="fill:#464965"/><path d="M229.991,109.543H204.343a3.436,3.436,0,1,1,0-6.872h25.648a10.436,10.436,0,0,0,8.842-4.952l5.533-9.034a17.346,17.346,0,0,1,14.7-8.235,3.436,3.436,0,0,1,0,6.872,10.431,10.431,0,0,0-8.841,4.952l-5.533,9.034A17.349,17.349,0,0,1,229.991,109.543Z" style="fill:#464965"/><path d="M176.868,158.952a3.437,3.437,0,0,1-.981-6.73,46.953,46.953,0,0,1,12.5-1.941,3.437,3.437,0,0,1,.133,6.872,40.028,40.028,0,0,0-10.664,1.655A3.426,3.426,0,0,1,176.868,158.952Z" style="fill:#f76b99"/><path d="M168.4,145.645A3.436,3.436,0,0,1,167.175,139a61.993,61.993,0,0,1,22.134-4.053q.734,0,1.461.017a3.436,3.436,0,1,1-.158,6.87q-.649-.015-1.3-.014a55.138,55.138,0,0,0-19.689,3.6A3.427,3.427,0,0,1,168.4,145.645Z" style="fill:#f76b99"/><path d="M159.488,131.334a3.437,3.437,0,0,1-1.362-6.593,78.318,78.318,0,0,1,31.183-6.408c2.068,0,4.159.081,6.214.242a3.436,3.436,0,1,1-.534,6.851c-1.878-.146-3.79-.22-5.68-.22a71.478,71.478,0,0,0-28.463,5.846A3.423,3.423,0,0,1,159.488,131.334Z" style="fill:#f76b99"/><rect x="159.066" y="57.882" width="23.324" height="6.872" rx="3.436" style="fill:#464965"/><circle cx="195.41" cy="61.318" r="3.908" style="fill:#464965"/><rect x="12.921" y="197.518" width="82.143" height="88.173" rx="8.817" style="fill:#f76b99"/><rect x="259.067" y="50.773" width="68.012" height="73.005" rx="7.3" style="fill:#9fb2ed"/><path d="M75,235.2a21.008,21.008,0,1,0-42.016,0s-1.7,21.2,21.008,34.256C76.7,256.4,75,235.2,75,235.2Z" style="fill:#fff"/><polygon points="283.23 71.618 283.23 102.933 307.834 87.276 283.23 71.618" style="fill:#fff"/><circle cx="53.993" cy="234.478" r="7.344" style="fill:#f76b99"/><path d="M21.739,289.128H86.247A12.268,12.268,0,0,0,98.5,276.875V206.336a12.268,12.268,0,0,0-12.254-12.254H57.429V173.8a15.126,15.126,0,0,1,15.109-15.109H135.1a3.436,3.436,0,0,0,0-6.872h-4.205V55.4a8.014,8.014,0,0,1,8-8h77.564a8.014,8.014,0,0,1,8,8v47.271H204.343a3.436,3.436,0,1,0,0,6.872h25.648a17.349,17.349,0,0,0,14.7-8.235l5.533-9.034a10.4,10.4,0,0,1,5.405-4.339v28.542a10.749,10.749,0,0,0,10.737,10.737h53.411a10.749,10.749,0,0,0,10.736-10.737v-58.4a10.749,10.749,0,0,0-10.736-10.737H266.368a10.749,10.749,0,0,0-10.737,10.737V80.805a17.359,17.359,0,0,0-11.265,7.88l-5.533,9.034a10.447,10.447,0,0,1-7.5,4.862V55.4a14.894,14.894,0,0,0-14.877-14.877H124.342A14.894,14.894,0,0,0,109.465,55.4v96.415H72.538A22.006,22.006,0,0,0,50.557,173.8v20.286H21.739A12.268,12.268,0,0,0,9.485,206.336v70.539A12.268,12.268,0,0,0,21.739,289.128ZM262.5,58.074a3.869,3.869,0,0,1,3.865-3.864h53.411a3.869,3.869,0,0,1,3.864,3.864v58.4a3.869,3.869,0,0,1-3.864,3.865H266.368a3.87,3.87,0,0,1-3.865-3.865ZM116.337,55.4c0-8.725,10.041-8,10.041-8a14.771,14.771,0,0,0-2.357,8v96.415h-7.684ZM16.357,206.336a5.387,5.387,0,0,1,5.382-5.381H86.247a5.387,5.387,0,0,1,5.381,5.381v70.539a5.387,5.387,0,0,1-5.381,5.381H21.739a5.387,5.387,0,0,1-5.382-5.381Z" style="fill:#464965"/><path d="M262.837,166.2c-.331-.786-14.408-14.747-31.5-23.789V119.243a2.828,2.828,0,0,0-2.827-2.828h-4.045v50.471a16.71,16.71,0,0,0-8.8-.553,179.058,179.058,0,0,1-25.433,3.626h-4.989a15.038,15.038,0,0,0-10.144,3.756,14.513,14.513,0,0,0-4.543,13.507c1.819,9.554,7.6,21.488,24.6,25.46.714,5.681,3.525,18.7,14.481,27.18H138.9a8,8,0,0,1-8-8v-66.3h-6.872v66.3a14.771,14.771,0,0,0,2.357,8h-2.036a8.005,8.005,0,0,1-8-8v-66.3H112.5a3.03,3.03,0,0,0-3.03,3.03v63.267a14.877,14.877,0,0,0,14.877,14.877h61.647c2.9,6.377,9.077,14.887,22.26,22.028a15.7,15.7,0,0,1,8.207,12.508l1.531,18.207h6.868l.026-.029L223.3,280.693a22.546,22.546,0,0,0-11.782-17.973c-9.609-5.205-14.884-11.077-17.789-15.986h30.648s6.643.978,10.515,1.038a3.1,3.1,0,0,0,3-2.961c.31-3.233-2.1-3.806-2.1-3.806-29.536-7.494-23.314-37.557-23.036-38.827A3.436,3.436,0,0,0,209.281,198c-14.645.527-22.731-4.555-24.022-15.09a5.287,5.287,0,0,1,1.218-4.08,5.671,5.671,0,0,1,4.038-2,185.608,185.608,0,0,0,26.566-3.767,9.8,9.8,0,0,1,9.294,3.041c8.5,9.449,16.657,23.893,16.738,24.038a3.437,3.437,0,0,0,5.992-3.367c-.347-.618-8.606-15.249-17.627-25.273-.045-.051-.094-.1-.14-.146V150.269a142.3,142.3,0,0,1,26.116,20.259c22.972,56.027,27.657,124.862,27.916,128.949h6.865c0-.066.012-.13.008-.2C292.2,298.553,287.737,225.2,262.837,166.2Zm-57.366,38.68c-.538,5.97-.5,17.273,5.569,27.031-8.841-8.906-9.229-21.325-9.244-22.124a3.436,3.436,0,0,0-2.845-3.342c-12.172-2.12-19.452-9.019-21.639-20.5a7.62,7.62,0,0,1,1.214-5.755,12.25,12.25,0,0,0-.089,3.561C179.393,191.537,184.232,204.191,205.471,204.876Z" style="fill:#464965"/></g></svg>