<svg xmlns="http://www.w3.org/2000/svg" viewBox="0 0 340 340"><g id="Layer_8" data-name="Layer 8"><polygon points="115.578 94.144 13.061 158.968 17.337 200.703 51.33 218.892 67.417 167.582 147.707 94.144 115.578 94.144" style="fill:#464965"/><polygon points="59.112 218.892 296.811 212.009 291.966 161.167 67.417 167.582 59.112 218.892" style="fill:#464965"/><circle cx="105.344" cy="217.072" r="29.096" style="fill:#464965"/><circle cx="105.344" cy="217.072" r="18.066" style="fill:#fff"/><circle cx="249.341" cy="217.072" r="29.096" style="fill:#464965"/><circle cx="249.341" cy="217.072" r="18.066" style="fill:#fff"/><polygon points="45.415 161.167 326.939 135.985 296.811 212.009 271.288 170.713 220.245 175.589 206.476 200.703 145.679 202.259 125.892 171.287 78.55 176.162 59.112 218.892 51.33 218.892 45.415 161.167" style="fill:#b8b8d3"/><polygon points="45.415 161.167 147.707 94.144 326.939 135.985 45.415 161.167" style="fill:#fff"/><path d="M113.42,139.793a2,2,0,0,1-1.283-3.664l37.1-24.181a7.953,7.953,0,0,1,6.264-1.2l67.189,15.262a1.667,1.667,0,0,1-.164,3.3Z" style="fill:#464965"/><path d="M105.345,195.569a21.5,21.5,0,1,0,21.5,21.5A21.528,21.528,0,0,0,105.345,195.569Zm0,36.134a14.631,14.631,0,1,1,14.63-14.631A14.647,14.647,0,0,1,105.345,231.7Z" style="fill:#464965"/><path d="M249.341,195.569a21.5,21.5,0,1,0,21.5,21.5A21.527,21.527,0,0,0,249.341,195.569Zm0,36.134a14.631,14.631,0,1,1,14.631-14.631A14.647,14.647,0,0,1,249.341,231.7Z" style="fill:#464965"/><path d="M327.72,132.639,149.474,90.61a8.017,8.017,0,0,0-1.915-.214c-5.447.051-31.981.312-31.981.312a3.429,3.429,0,0,0-1.836.532L11.225,156.063a3.437,3.437,0,0,0-1.582,3.255l4.276,41.736a3.435,3.435,0,0,0,1.8,2.679l33.992,18.189a3.7,3.7,0,0,0,1.626.406l21.841-.406a32.53,32.53,0,0,0,64.56-1.869l79.092-2.29a32.527,32.527,0,0,0,65.047-.691c0-.4-.016-.8-.031-1.192l15.067-.436a3.627,3.627,0,0,0,3.107-2.2l30.116-75.995a3.435,3.435,0,0,0-2.413-4.612ZM16.7,160.734,116.573,97.58h19.62L43.532,158.293A3.436,3.436,0,0,0,42,161.518l5.255,51.3L20.569,198.536Zm88.649,82a25.66,25.66,0,1,1,25.66-25.66A25.689,25.689,0,0,1,105.345,242.732Zm144,0A25.66,25.66,0,1,1,275,217.072,25.689,25.689,0,0,1,249.341,242.732Zm0-58.192a32.583,32.583,0,0,0-31.932,26.331l-79.773,2.31a32.525,32.525,0,0,0-64.755,1.875l-8.359.242,16.339-35.92,43.276-4.456,18.647,29.187a3.5,3.5,0,0,0,2.983,1.585l60.8-1.555a3.437,3.437,0,0,0,2.925-1.784l12.894-23.519,47.1-4.5,21.267,34.41-9.888.286A32.589,32.589,0,0,0,249.341,184.54ZM121.122,134.2l31.065-20.355,54.432,12.707Zm53.422,15.559c-.005-.094-.029-.182-.041-.274s-.008-.167-.026-.251l-2.594-12.675,54.458-4.871,7.054,12.357-16.173,29.908h0l-12.809,23.364-27.57.706Zm121.593,54.623-21.926-35.476a3.451,3.451,0,0,0-3.251-1.614l-44.627,4.262s9.546-18.671,13.2-25.842a5.644,5.644,0,0,0-.161-5.425l-8.16-13.922a3.375,3.375,0,0,0-2.2-1.643l-76.695-17.9a3.427,3.427,0,0,0-2.665.472l-43.772,28.68a3.436,3.436,0,0,0,1.882,6.31c.1,0,.2,0,.308-.013L165,137.176l2.7,13.175,2.279,47.849-22.44.575-18.744-29.338a3.428,3.428,0,0,0-3.247-1.568L78.2,172.744a3.435,3.435,0,0,0-2.776,2L56.9,215.456H54.432L49.046,162.9l99.313-65.072,173.917,40.6Z" style="fill:#464965"/></g></svg>