<svg xmlns="http://www.w3.org/2000/svg" viewBox="0 0 340 340"><g id="Layer_4" data-name="Layer 4"><path d="M327.079,40.014c0-21.919-16.423-26.165-32.381-26.987a10.63,10.63,0,0,0-11.185,10.612V70.061S317.261,71.788,327.079,40.014Z" style="fill:#464965"/><path d="M38.734,228.1,22.755,242.75a14.424,14.424,0,0,0-4.64,9.629l-5.194,74.608H226.607l13.6-31.436s19.1-2.894,19.97-21.417-8.682-22.947-8.682-22.947a62.5,62.5,0,0,1,11.6-15.408,10.3,10.3,0,0,0,1.515-13.042l-2.118-3.3a107.218,107.218,0,0,0-18.1,9.4,61.822,61.822,0,0,0-20.471,21.725l-32.347,57.123-26.961-59.945a21.673,21.673,0,0,0-8.811-9.81l-42.94-25.154-.455-9.965C85.724,209.127,60.735,217.126,38.734,228.1Z" style="fill:#9ebfff"/><polygon points="112.41 202.812 111.345 179.494 61.117 175.386 61.117 207.567 38.734 228.096 112.41 202.812" style="fill:#464965"/><path d="M61.117,157.882v17.5l69.3,15.714s5.284-22.177,7.23-54.619C112.494,133.745,86.915,142.751,61.117,157.882Z" style="fill:#9ebfff"/><path d="M47.282,113.551,44.9,95.254a14.893,14.893,0,0,1,2.712-10.683c7.833-10.787,31.419-35.136,92.414-51.729,0,0,2.156,11.706-7.085,23.412l15.094-.308a40.222,40.222,0,0,1-10.782,22.8C127.393,88.907,47.282,113.551,47.282,113.551Z" style="fill:#9ebfff"/><path d="M312.484,187.831c-27.5,14.233-79.4,14.075-105.036,12.986a15.772,15.772,0,0,1-15.114-15.755V81.254A15.778,15.778,0,0,1,208.754,65.5c32.225,1.282,102.032.854,118.325-25.484V163.679A27.165,27.165,0,0,1,312.484,187.831Z" style="fill:#f76b99"/><ellipse cx="296.982" cy="105.72" rx="10.463" ry="11.557" style="fill:#fff"/><path d="M286.492,141.206a53.958,53.958,0,0,0-1.221,10.505,7.18,7.18,0,0,0,7.8,7.524,49.853,49.853,0,0,0,16.016-4.321,9.6,9.6,0,0,0,5.619-9.52,26.681,26.681,0,0,0-.448-3.092C311.029,126.678,290.942,125.885,286.492,141.206Z" style="fill:#fff"/><path d="M107.7,163.374A30.305,30.305,0,0,1,93,159.394a3.436,3.436,0,0,1,3.5-5.915c.537.314,13.112,7.508,21.9-1.277a3.436,3.436,0,0,1,4.859,4.859A21.369,21.369,0,0,1,107.7,163.374Z" style="fill:#464965"/><path d="M227.926,168.809c-5.818,0-11.106-.108-15.572-.252a3.436,3.436,0,1,1,.22-6.868,416.822,416.822,0,0,0,48.613-1.114,3.437,3.437,0,0,1,.612,6.846C249.966,168.476,238.134,168.809,227.926,168.809Z" style="fill:#fff"/><path d="M228,140.776c-5.127,0-10.352-.085-15.645-.256a3.436,3.436,0,1,1,.22-6.868c10.894.35,21.5.336,31.515-.046a3.436,3.436,0,0,1,.261,6.867C239.046,140.675,233.581,140.776,228,140.776Z" style="fill:#fff"/><path d="M237.771,112.632a3.436,3.436,0,0,1-.074-6.871c11.461-.254,22.114-.964,31.665-2.111a3.436,3.436,0,0,1,.819,6.823c-9.772,1.174-20.649,1.9-32.332,2.158Z" style="fill:#fff"/><rect x="259.129" y="132.662" width="9.85" height="6.872" rx="3.436" transform="translate(-8.619 18.213) rotate(-3.887)" style="fill:#fff"/><path d="M61.117,142.858v15.024a199.709,199.709,0,0,1,76.529-21.4c.489-8.153.772-16.942.7-26.2Z" style="fill:#667ec6"/><path d="M56.55,149.385s21.741-13.522,54.8-19.99l-13.9-39.332s-31.99,9.129-50.165,24.779Z" style="fill:#464965"/><ellipse cx="50.35" cy="131.242" rx="16.028" ry="22.07" transform="translate(-8.845 3.745) rotate(-3.916)" style="fill:#464965"/><path d="M117.14,78.513a192.091,192.091,0,0,1,36.655-2.506A16.328,16.328,0,0,1,169.46,90.326a89.432,89.432,0,0,1,.291,19.7,16.339,16.339,0,0,1-14.6,14.617c-8.936.9-21.962,2.355-35.507,4.408,0,0-24.364,4.2-29.028-19.467S117.14,78.513,117.14,78.513Z" style="fill:#464965"/><path d="M96.535,105.808C93.67,82.7,117.141,78.517,117.141,78.517c-6.035.965-11.529,2.084-16.2,3.169a24.887,24.887,0,0,0-19.2,26.124c.019.238.038.475.06.711,1.291,14.32,14.77,24.37,28.944,21.958,2.968-.5,5.948-.98,8.9-1.428C119.642,129.051,99.2,127.332,96.535,105.808Z" style="fill:#fff"/><ellipse cx="47.282" cy="131.242" rx="8.009" ry="14.852" transform="translate(-8.852 3.535) rotate(-3.916)" style="fill:#fff"/><path d="M12.682,330.415c.082,0,.162.008.243.008a3.435,3.435,0,0,0,3.424-3.2l5.5-78.981,18.681-17.132,68.659-23.562.246,5.383a3.435,3.435,0,0,0,1.695,2.808L154.069,240.9a18.138,18.138,0,0,1,7.413,8.255l26.96,59.944a3.437,3.437,0,0,0,6.125.284l32.348-57.124a58.583,58.583,0,0,1,19.327-20.519,113.019,113.019,0,0,1,14.914-8.024l.564.879a6.848,6.848,0,0,1-.977,8.686,65.591,65.591,0,0,0-12.316,16.365,3.4,3.4,0,0,0-.2,2.661,3.355,3.355,0,0,0,1.77,1.972c.306.157,7.489,4.036,6.755,19.7-.723,15.415-16.4,18.077-17.053,18.181a3.431,3.431,0,0,0-2.638,2.032l-13.6,31.436a3.436,3.436,0,1,0,6.307,2.73l12.887-29.783c7.865-1.884,20.236-8.736,20.965-24.275.652-13.941-4.251-20.925-7.635-24.05a58.452,58.452,0,0,1,9.475-11.963,13.721,13.721,0,0,0,2.053-17.4l-2.118-3.3a3.436,3.436,0,0,0-4.093-1.365,109.939,109.939,0,0,0-18.747,9.727,65.474,65.474,0,0,0-21.612,22.928l-29.007,51.222L167.75,246.332a24.97,24.97,0,0,0-10.207-11.365l-41.331-24.211-.893-19.556,14.341,3.252c2.532.16,3.689-.947,4.087-2.492.282-1.091,6.756-26.578,7.087-63.277,5.015-.593,9.606-1.084,13.488-1.472a19.2,19.2,0,0,0,17.094-17.1,88.621,88.621,0,0,0-.287-19.677A19.018,19.018,0,0,0,152.8,73.668c-19.9-.715-39.067,2.621-51.641,5.538A27.262,27.262,0,0,0,84.418,90.837c-8.663,3.236-20.861,8.447-31.266,15.327a15.415,15.415,0,0,0-3.42-.4L48.3,94.81a11.425,11.425,0,0,1,2.085-8.22c6.859-9.445,28.85-32.824,86.4-49.279a29.462,29.462,0,0,1-6.547,16.814,3.436,3.436,0,0,0,2.767,5.564l10.92-.223a38.44,38.44,0,0,1-1.611,5.077,3.436,3.436,0,1,0,6.391,2.526A40.478,40.478,0,0,0,151.459,56.2a3.437,3.437,0,0,0-3.5-3.687l-8.577.176c5.721-10.649,4.1-20.007,4.018-20.466a3.439,3.439,0,0,0-4.282-2.694C78.632,45.982,54.08,69.812,44.829,82.552A18.271,18.271,0,0,0,41.489,95.7L43,107.3c-7.725,3.736-12.854,13.831-12.071,25.273a30.111,30.111,0,0,0,6.541,17.218c3.764,4.5,8.543,6.935,13.556,6.935.354,0,.708-.012,1.064-.036a15.227,15.227,0,0,0,5.589-1.5v50.862L36.449,225.53l-.016.013L16.192,244.107a3.43,3.43,0,0,0-1.105,2.293L9.494,326.748A3.436,3.436,0,0,0,12.682,330.415Zm115.16-143.423-63.288-14.35V149.353c.172-.232,37.528-18.111,69.4-19.821A298.7,298.7,0,0,1,127.842,186.992ZM102.714,85.9A202.7,202.7,0,0,1,147.3,80.443q2.614,0,5.256.092A12.181,12.181,0,0,1,164.307,91.26a81.7,81.7,0,0,1,.273,18.146,12.3,12.3,0,0,1-10.943,10.967c-10.8,1.082-27.009,2.937-42.869,5.636a20.694,20.694,0,0,1-16.046-4,19.759,19.759,0,0,1-7.742-14l-.053-.642A20.583,20.583,0,0,1,102.714,85.9ZM80.67,99.688a27.519,27.519,0,0,0-.595,8.2l.06.732A26.561,26.561,0,0,0,90.53,127.458a27.354,27.354,0,0,0,3.893,2.5,196.272,196.272,0,0,0-25.332,9.2,32.411,32.411,0,0,0,.678-9.243A30.112,30.112,0,0,0,63.227,112.7a22.284,22.284,0,0,0-2.936-2.92A151.162,151.162,0,0,1,80.67,99.688ZM51.622,149.833c-3.15.214-6.3-1.366-8.878-4.451A23.221,23.221,0,0,1,37.788,132.1c-.691-10.078,4.48-18.985,11.29-19.451.189-.013,6.452,1.552,8.878,4.451a23.221,23.221,0,0,1,4.956,13.279C63.6,140.459,58.432,149.367,51.622,149.833ZM63.44,210.1a3.435,3.435,0,0,0,1.114-2.533V179.689l43.814,9.935.492,10.773L53.187,219.5Z" style="fill:#464965"/><path d="M207.3,204.251c6.046.256,13.171.45,20.91.45,28.018,0,64.059-2.539,85.851-13.819h0a30.477,30.477,0,0,0,16.451-27.2V40.013c0-25.618-20.34-29.629-35.639-30.418a14.068,14.068,0,0,0-14.8,14.044v35.1c-25.324,4.276-54.656,3.981-71.186,3.324A19.216,19.216,0,0,0,188.9,81.254V185.062A19.17,19.17,0,0,0,207.3,204.251ZM286.949,23.845a7.449,7.449,0,0,1,1.469-4.563,7.184,7.184,0,0,1,6.1-2.824c7.092.366,12.743,1.409,17.109,3.253,12.08,5.105,12.881,21.875,1.57,28.513-7.013,4.116-16.157,7.09-26.251,9.218ZM195.771,81.254a12.34,12.34,0,0,1,12.34-12.332c.168,0,.337,0,.508.01,34.361,1.369,91.738.278,115.024-19.8V163.679a23.627,23.627,0,0,1-12.738,21.1c-27.384,14.174-81.371,13.538-103.311,12.6a12.312,12.312,0,0,1-11.823-12.322Z" style="fill:#464965"/><path d="M96.5,153.479a3.436,3.436,0,0,0-3.5,5.915,30.305,30.305,0,0,0,14.695,3.98,21.369,21.369,0,0,0,15.56-6.313A3.436,3.436,0,0,0,118.4,152.2C109.614,160.987,97.039,153.793,96.5,153.479Z" style="fill:#464965"/></g></svg>