<svg xmlns="http://www.w3.org/2000/svg" viewBox="0 0 340 340"><g id="Layer_6" data-name="Layer 6"><circle cx="97.176" cy="297.065" r="30.552" style="fill:#464965"/><circle cx="241.968" cy="297.065" r="30.552" style="fill:#464965"/><path d="M191.88,195.206H165.561A62.7,62.7,0,0,0,131.1,205.527l-35.65,23.454a59.47,59.47,0,0,1-27.9,9.594l-10.8.871a34.839,34.839,0,0,0-18.977,7.533c-10.327,8.265-24.94,24.137-25.608,48.114a12.249,12.249,0,0,0,12.293,12.5h23.44Z" style="fill:#464965"/><path d="M327.844,279.811v-8.579l-5.987-26.949a19.377,19.377,0,0,0-4.529-3.638,97.155,97.155,0,0,1-19.191-15.095l-12.379-12.236a62.71,62.71,0,0,0-44.081-18.108H189a62.7,62.7,0,0,0-34.464,10.321l-35.65,23.454a59.47,59.47,0,0,1-27.9,9.594l-10.8.871a34.841,34.841,0,0,0-18.977,7.533A77.639,77.639,0,0,0,50.328,257.56L37.41,282.13C97.176,298.837,294.649,300.813,327.844,279.811Z" style="fill:#fff"/><path d="M327.844,287.643v-7.832a138.907,138.907,0,0,1-26.151,2.32H37.415l-.006,0a58.513,58.513,0,0,0-1.809,12.96,12.25,12.25,0,0,0,12.294,12.5H302.557S327.844,305.906,327.844,287.643Z" style="fill:#b8b8d3"/><circle cx="127.728" cy="294.606" r="30.552" style="fill:#464965"/><circle cx="127.728" cy="294.606" r="17.476" style="fill:#fff"/><circle cx="280.377" cy="294.606" r="30.552" style="fill:#464965"/><circle cx="280.377" cy="294.606" r="17.476" style="fill:#fff"/><path d="M37.415,282.131H54.6a18.682,18.682,0,0,0,11.936-4.247,48.889,48.889,0,0,0,9.382-10.2,6.491,6.491,0,0,0-5.377-10.125H50.331A62.348,62.348,0,0,0,37.415,282.131Z" style="fill:#fff"/><path d="M312,254.607v6.281a10.345,10.345,0,0,0,10.345,10.344h5.5V258.985s-.2-8.405-5.991-14.7A10.337,10.337,0,0,0,312,254.607Z" style="fill:#f76b99"/><polygon points="169.002 239.275 131.148 239.275 151.657 224.866 169.002 239.275" style="fill:#464965"/><path d="M240.552,239.275H272.64a7.707,7.707,0,0,0,5.645-12.959,71.141,71.141,0,0,0-7.111-6.622Z" style="fill:#464965"/><path d="M151.657,224.866s1.676,4.671,7.248,10.252a14.269,14.269,0,0,0,10.1,4.157h71.55a32.141,32.141,0,0,0,17.062-4.793,36.771,36.771,0,0,0,13.56-14.788s-12.746-12.007-26.6-12.007H191.329a47.666,47.666,0,0,0-27.176,8.506Z" style="fill:#464965"/><rect x="207.979" y="207.266" width="6.872" height="32.43" style="fill:#e4e4f9"/><rect x="214.852" y="239.275" width="6.872" height="68.317" style="fill:#b8b8d3"/><rect x="185.7" y="255.567" width="14.971" height="6.872" rx="3.436" style="fill:#b8b8d3"/><path d="M287.461,145.872a3.436,3.436,0,0,0-3.436,3.436v20.061a3.436,3.436,0,1,0,6.872,0V149.308A3.436,3.436,0,0,0,287.461,145.872Z" style="fill:#464965"/><path d="M266.2,11.406a3.436,3.436,0,0,0-3.436,3.436V28.929a3.436,3.436,0,1,0,6.872,0V14.842A3.436,3.436,0,0,0,266.2,11.406Z" style="fill:#464965"/><path d="M244.944,11.406a3.436,3.436,0,0,0-3.436,3.436V28.929a3.436,3.436,0,0,0,6.872,0V14.842A3.436,3.436,0,0,0,244.944,11.406Z" style="fill:#464965"/><path d="M287.461,32.365a3.436,3.436,0,0,0,3.436-3.436V14.842a3.436,3.436,0,1,0-6.872,0V28.929A3.436,3.436,0,0,0,287.461,32.365Z" style="fill:#464965"/><path d="M266.2,97.648a3.436,3.436,0,0,0-3.436,3.436v56.541a3.436,3.436,0,0,0,6.872,0V101.084A3.436,3.436,0,0,0,266.2,97.648Z" style="fill:#464965"/><path d="M244.944,97.648a3.436,3.436,0,0,0-3.436,3.436v44.5a3.436,3.436,0,1,0,6.872,0V101.084A3.436,3.436,0,0,0,244.944,97.648Z" style="fill:#464965"/><path d="M287.461,122.168a3.436,3.436,0,0,0,3.436-3.436V101.084a3.436,3.436,0,1,0-6.872,0v17.648A3.436,3.436,0,0,0,287.461,122.168Z" style="fill:#464965"/><path d="M230.754,61.57H216.667a3.437,3.437,0,0,0,0,6.873h14.087a3.437,3.437,0,0,0,0-6.873Z" style="fill:#464965"/><path d="M230.754,40.312H216.667a3.437,3.437,0,0,0,0,6.873h14.087a3.437,3.437,0,0,0,0-6.873Z" style="fill:#464965"/><path d="M230.754,82.829H216.667a3.436,3.436,0,0,0,0,6.872h14.087a3.436,3.436,0,1,0,0-6.872Z" style="fill:#464965"/><path d="M315.437,61.57H301.35a3.437,3.437,0,0,0,0,6.873h14.087a3.437,3.437,0,0,0,0-6.873Z" style="fill:#464965"/><path d="M301.35,47.185h14.087a3.437,3.437,0,0,0,0-6.873H301.35a3.437,3.437,0,0,0,0,6.873Z" style="fill:#464965"/><path d="M315.437,82.829H301.35a3.436,3.436,0,0,0,0,6.872h14.087a3.436,3.436,0,0,0,0-6.872Z" style="fill:#464965"/><circle cx="287.461" cy="134.02" r="3.908" style="fill:#464965"/><rect x="229.052" y="26.721" width="74.301" height="76.571" rx="8.882" style="fill:#464965"/><rect x="244.944" y="43.099" width="42.517" height="43.816" rx="8.013" style="fill:#fff"/><path d="M256.635,49.541h8.246a2.881,2.881,0,0,1,2.037,4.918l-10.4,10.4a2.881,2.881,0,0,1-4.918-2.046l.026-8.278A5.008,5.008,0,0,1,256.635,49.541Z" style="fill:#464965"/><path d="M319.057,237.675a93.168,93.168,0,0,1-18.5-14.569l-12.38-12.235a65.746,65.746,0,0,0-46.5-19.1H165.561a65.963,65.963,0,0,0-36.353,10.887L93.558,226.11a56.168,56.168,0,0,1-26.29,9.04l-10.8.871A38.145,38.145,0,0,0,35.622,244.3c-9.734,7.791-26.173,24.739-26.9,50.7a15.393,15.393,0,0,0,4.4,11.247,15.672,15.672,0,0,0,11.325,4.784H97.983a33.947,33.947,0,1,0-2.869-6.872H47.894a8.852,8.852,0,0,1-6.4-2.7,8.579,8.579,0,0,1-2.461-6.264,55.791,55.791,0,0,1,1.1-9.622H54.6a22.148,22.148,0,0,0,14.129-5.038,52.5,52.5,0,0,0,10.035-10.916,9.927,9.927,0,0,0-8.223-15.486h-12.3c1.72-1.642,3.442-3.13,5.112-4.466a31.31,31.31,0,0,1,17.106-6.79L91.26,242a63.071,63.071,0,0,0,29.515-10.149l35.65-23.453A59.111,59.111,0,0,1,189,198.642h52.676a58.916,58.916,0,0,1,41.665,17.116l12.38,12.236a101.055,101.055,0,0,0,19.037,15.11,13.7,13.7,0,0,0-6.2,11.5v6.281a13.8,13.8,0,0,0,13.781,13.78h2.065v12.976c0,7.235-5.078,11.368-10.722,13.734a33.991,33.991,0,1,0-65.922,2.778H170.132a3.436,3.436,0,1,0,0,6.872h80.5a33.971,33.971,0,0,0,60.262-1.475c13.145-3.531,20.386-11.282,20.386-21.909V258.906C331.266,258.322,330.815,244.522,319.057,237.675ZM127.728,267.49a27.116,27.116,0,1,1-27.117,27.116A27.146,27.146,0,0,1,127.728,267.49Zm-54.492-4.868a2.986,2.986,0,0,1-.166,3.141,45.648,45.648,0,0,1-8.73,9.476A15.262,15.262,0,0,1,54.6,278.7H42.017a58.99,58.99,0,0,1,9.9-17.7h18.62A2.987,2.987,0,0,1,73.236,262.622ZM32.166,295a15.345,15.345,0,0,0,2.709,9.159H24.454a8.852,8.852,0,0,1-6.4-2.7,8.579,8.579,0,0,1-2.461-6.264c.614-22.031,13.565-36.919,24.321-45.528a31.31,31.31,0,0,1,17.107-6.79l4.464-.36c-.827.563-1.638,1.155-2.426,1.785C49.327,252.087,32.889,269.035,32.166,295Zm120.482-92.34L117,226.11a56.166,56.166,0,0,1-25.035,8.9q2.759-1.444,5.373-3.158L132.985,208.4a59.093,59.093,0,0,1,25.9-9.379A66.528,66.528,0,0,0,152.648,202.657ZM280.377,321.722a27.116,27.116,0,1,1,27.117-27.116A27.146,27.146,0,0,1,280.377,321.722ZM322.343,267.8a6.916,6.916,0,0,1-6.909-6.908v-6.281a6.858,6.858,0,0,1,5.007-6.627,22.068,22.068,0,0,1,3.967,11.005V267.8Z" style="fill:#464965"/><path d="M127.728,315.518a20.912,20.912,0,1,0-20.912-20.912A20.936,20.936,0,0,0,127.728,315.518Zm0-34.952a14.04,14.04,0,1,1-14.039,14.04A14.056,14.056,0,0,1,127.728,280.566Z" style="fill:#464965"/><path d="M280.377,273.694a20.912,20.912,0,1,0,20.912,20.912A20.935,20.935,0,0,0,280.377,273.694Zm0,34.952a14.04,14.04,0,1,1,14.04-14.04A14.056,14.056,0,0,1,280.377,308.646Z" style="fill:#464965"/><path d="M272.64,242.711a11.143,11.143,0,0,0,8.155-18.742,74.687,74.687,0,0,0-7.338-6.844c-1.17-1.086-14.219-12.874-28.884-12.874H191.329a50.871,50.871,0,0,0-29.135,9.119l-12.5,8.673-.009.008-.008,0-20.508,14.408a3.436,3.436,0,0,0,1.975,6.248Zm3.926-9.449a4.208,4.208,0,0,1-3.926,2.577H261.754a39.759,39.759,0,0,0,10.314-10.829c1.292,1.181,2.535,2.4,3.706,3.652A4.183,4.183,0,0,1,276.566,233.262ZM166.113,219.016a44.023,44.023,0,0,1,25.216-7.893h53.244c9.3,0,18.336,6.273,22.237,9.376a33.357,33.357,0,0,1-11.019,11.07,28.66,28.66,0,0,1-15.239,4.27H169a10.894,10.894,0,0,1-7.665-3.148,34.222,34.222,0,0,1-5.277-6.7Zm-15.695,10.92a40.373,40.373,0,0,0,4.444,5.9H142.016Z" style="fill:#464965"/></g></svg>