<svg xmlns="http://www.w3.org/2000/svg" viewBox="0 0 340 340"><g id="Layer_28" data-name="Layer 28"><path d="M229.177,218.84c-3,0-5.1-3.844-1.65-6.873h24.345L293.446,80.185H269.341c-3.451-3.028-1.35-6.872,1.65-6.872h24.623l3.732-11.829h-72.01c-3.451-3.028-1.35-6.872,1.65-6.872h72.527L315.827,9.24H24.172L44.1,72.4h33.57c3.451,3.028,1.35,6.872-1.65,6.872H46.267l28.99,91.894h26.867c3.451,3.028,1.35,6.872-1.65,6.872H77.425l30,95.087H232.578L249.7,218.84Z" style="fill:#e6eaff"/><path d="M198.538,21.4a145.767,145.767,0,0,1-40.762,9.577,8.537,8.537,0,0,0-7.88,8.5l1.246,48.35h37.619l1.931-38.182s4.446-2.353,7.846-8.63L192,38.4S200.63,34.214,198.538,21.4Z" style="fill:#fff"/><path d="M161.859,93.961v6.245l-8.793,1.533A13.6,13.6,0,0,0,144.5,107a368.293,368.293,0,0,0-23.84,36.308,10.135,10.135,0,0,0,3.563,13.736l24.241,14.52s-7.746,45-15.815,97.941h20.172L168.8,216.1l15.492,53.4h21.786s-11.3-96.973-15.976-127.473l13.029,10.424a10.67,10.67,0,0,0,15.832-2.871l16.808-28.209,3.5-1.191a13.108,13.108,0,0,0,8.886-12.5h0a4.634,4.634,0,0,0-5.33-4.552l-10.058,1.526a16.461,16.461,0,0,0-11.184,7.083L210.11,128.8l-11.735-20.185a13.616,13.616,0,0,0-7.854-6.2l-9.942-2.989Z" style="fill:#fff"/><polygon points="180.579 87.825 161.859 87.825 161.859 93.961 180.579 99.426 180.579 87.825" style="fill:#464965"/><path d="M170.611,75.81a20.331,20.331,0,0,1-7.045-1.2,2.455,2.455,0,0,1,1.829-4.556,16.091,16.091,0,0,0,10.336-.028A2.455,2.455,0,1,1,177.4,74.64,19.916,19.916,0,0,1,170.611,75.81Z" style="fill:#464965"/><path d="M94.672,283.708l-27.35,37.108a4.085,4.085,0,0,0,3.288,6.508H245.261l-23.924-50.056Z" style="fill:#b9b9d0"/><path d="M272.343,320.816l-32.152-43.623a18.909,18.909,0,0,0-15.222-7.691H114.7a18.912,18.912,0,0,0-15.223,7.691l-4.8,6.515H208.616a15.336,15.336,0,0,1,12.863,6.985l7.492,11.54a24.528,24.528,0,0,0-4.949-.513H159.365a3.437,3.437,0,0,0,0,6.873h64.657a16.862,16.862,0,0,1,12.746,5.65l8.493,13.081h23.794A4.085,4.085,0,0,0,272.343,320.816Z" style="fill:#464965"/><circle cx="111.331" cy="305.157" r="3.908" style="fill:#fff"/><circle cx="134.203" cy="305.157" r="3.908" style="fill:#fff"/><path d="M87.756,221.745a3.436,3.436,0,1,0,6.558-2.052L52.556,86.146h44.13a3.436,3.436,0,0,0,0-6.872H26.5a3.436,3.436,0,0,0,0,6.872H45.356Z" style="fill:#464965"/><path d="M242.958,275.155a22.277,22.277,0,0,0-5.723-5.409l21.292-68.095a3.436,3.436,0,1,0-6.559-2.052l-21.042,67.292a22.219,22.219,0,0,0-5.956-.825H209.134c-.651-5.557-2.143-18.239-4-33.7a3.436,3.436,0,0,0-6.823.818c1.771,14.751,3.21,26.972,3.9,32.884H186.871L172.1,215.143a3.437,3.437,0,0,0-3.286-2.478H168.8a3.438,3.438,0,0,0-3.292,2.451l-10.065,33.646a3.436,3.436,0,1,0,6.583,1.969l6.723-22.473,10.968,37.808H136.652c3.257-21.175,10.193-64.447,10.266-64.9a3.436,3.436,0,0,0-6.786-1.087c-.073.457-7.245,45.2-10.433,65.985h-15a22.206,22.206,0,0,0-5.649.741l-8.64-27.634h7.016a3.437,3.437,0,1,0,0-6.873H57.857a3.437,3.437,0,0,0,0,6.873H93.205l9.506,30.4a22.257,22.257,0,0,0-6,5.583L59.759,325.286a3.435,3.435,0,0,0,2.766,5.474H277.139a3.435,3.435,0,0,0,2.766-5.474ZM69.326,323.888l32.914-44.657a15.531,15.531,0,0,1,12.455-6.293H224.97a15.533,15.533,0,0,1,12.456,6.293l32.912,44.657Z" style="fill:#464965"/><path d="M212.31,158a14.1,14.1,0,0,0,9.6-6.66l16.16-27.121,2.306-.785A16.522,16.522,0,0,0,251.6,107.665l-.035-5.356a3.435,3.435,0,0,0-3.952-3.375l-15.354,2.331a19.941,19.941,0,0,0-13.518,8.56l-8.413,12.5-8.977-15.441a17,17,0,0,0-9.837-7.761l-7.494-2.252V91.261h4.746A3.435,3.435,0,0,0,192.193,88l1.843-36.446a27.013,27.013,0,0,0,7.523-8.9,3.437,3.437,0,0,0-1.745-4.828l-1.38-.551c2.518-3.2,4.8-8.442,3.5-16.425a3.439,3.439,0,0,0-4.735-2.61A143.583,143.583,0,0,1,157.5,27.552a12.06,12.06,0,0,0-11.043,12.01l1.247,48.351a3.436,3.436,0,0,0,3.435,3.348h7.281v6.056l-5.946,1.037a16.975,16.975,0,0,0-10.729,6.586c-.663.888-4.707,7-11.29,16.962-4.763,7.209-9.689,14.664-10.524,15.839-.029.04-.046.085-.073.127s-.062.077-.088.121q-1.048,1.78-2.095,3.611a13.651,13.651,0,0,0,4.781,18.389L144.681,173.3c-.226,1.331-.546,3.212-.946,5.583a3.436,3.436,0,1,0,6.776,1.144c.854-5.059,1.34-7.879,1.34-7.883a3.435,3.435,0,0,0-1.621-3.531l-24.24-14.52a6.66,6.66,0,0,1-2.345-9.084q.993-1.738,1.99-3.43c1.094-1.567,5.689-8.521,10.557-15.889,4.658-7.049,10.456-15.824,11.062-16.638a10.127,10.127,0,0,1,6.4-3.928l8.793-1.533a3.436,3.436,0,0,0,2.846-3.385V98.544l14.308,4.177,9.928,2.983a10.153,10.153,0,0,1,5.874,4.635l11.735,20.184a3.435,3.435,0,0,0,5.821.192l11.477-17.053a13.054,13.054,0,0,1,8.848-5.6l11.428-1.734s.914,7.81-6.548,10.6l-3.5,1.192a3.434,3.434,0,0,0-1.846,1.495L216.01,147.823a7.233,7.233,0,0,1-10.734,1.946l-13.03-10.424a3.437,3.437,0,0,0-5.543,3.205c1.822,11.873,5.781,42.439,8.751,66.5a3.437,3.437,0,0,0,3.407,3.016,3.574,3.574,0,0,0,.424-.026,3.436,3.436,0,0,0,2.99-3.831c-2.412-19.537-5.477-43.368-7.527-58.057l6.234,4.987A14.1,14.1,0,0,0,212.31,158ZM153.331,39.474a5.071,5.071,0,0,1,4.718-5.071,150.663,150.663,0,0,0,37.34-8.121c-.426,6.611-4.707,8.93-4.888,9.025a3.436,3.436,0,0,0,.223,6.282l2.641,1.056a16.67,16.67,0,0,1-4.28,3.962,3.433,3.433,0,0,0-1.824,2.863L185.5,84.389h-31ZM165.3,91.261h11.848v3.583L165.3,91.385Z" style="fill:#464965"/><path d="M127.884,100.206a3.436,3.436,0,0,0-3.436-3.436H82.891a3.436,3.436,0,0,0,0,6.872h41.557A3.436,3.436,0,0,0,127.884,100.206Z" style="fill:#464965"/><path d="M296.871,139.711H256.132a3.436,3.436,0,1,0,0,6.872h12.413l-9.083,29.049a3.437,3.437,0,1,0,6.56,2.051l9.724-31.1h21.125a3.436,3.436,0,1,0,0-6.872Z" style="fill:#464965"/><path d="M144.95,140.006l-1.017,4.066a3.436,3.436,0,1,0,6.667,1.666l1.017-4.066a3.436,3.436,0,0,0-6.667-1.666Z" style="fill:#464965"/><path d="M277.624,129.063a3.436,3.436,0,0,0,4.306-2.254L318.372,10.265a3.42,3.42,0,0,0,.14-1.025h-7.021L275.37,124.757A3.438,3.438,0,0,0,277.624,129.063Z" style="fill:#464965"/><path d="M21.629,10.265,36.89,59.075a3.436,3.436,0,1,0,6.559-2.052L28.508,9.24h-7.02A3.39,3.39,0,0,0,21.629,10.265Z" style="fill:#464965"/></g></svg>