<svg xmlns="http://www.w3.org/2000/svg" viewBox="0 0 340 340"><g id="Layer_27" data-name="Layer 27"><path d="M160.064,29.153s41.13,31.509,37.8,81.979c-3.191,48.354-30.331,65.675-30.331,65.675s-7.948-17.451-19.851-29.857a53.979,53.979,0,0,1-10.961-16.3,68.423,68.423,0,0,1-2.305-46.836,61.274,61.274,0,0,1,7.578-15.961C146.677,60.709,155.243,46.2,160.064,29.153Z" style="fill:#c3e2a9"/><path d="M154.639,195.544a26.45,26.45,0,0,1-7.072-10.624,68.933,68.933,0,0,0-22.111-30.589c-18.713-14.97-45.183-8.129-54.909-4.844a3.42,3.42,0,0,0-2.015,4.692,37.61,37.61,0,0,1,2.749,8.236c1.858,8.815,7.894,26.345,27.175,36.342a51.626,51.626,0,0,0,32.242,5A28.353,28.353,0,0,1,158.07,215.04a67.492,67.492,0,0,1,8.478,15.38V209.066A73.842,73.842,0,0,0,154.639,195.544Z" style="fill:#464965"/><path d="M177.989,225.547s12.563-7.635,37.618-5.334a59.647,59.647,0,0,0,34.824-7.037c14.872-8.388,30.815-25.776,35.1-61.778,0,0-8.265,2.193-20.824.007a54.632,54.632,0,0,0-10.738-.879c-14.5.368-45.428,5.687-58.512,42.668Z" style="fill:#c3e2a9"/><path d="M167.532,237.6s1.675-15.488,14.47-31.484c12.5-15.634,31-25.16,50.9-27.394a83.873,83.873,0,0,1,9.858-.534,22.186,22.186,0,0,0,6.951-.63,2.2,2.2,0,0,1,2.018,3.755,21.7,21.7,0,0,1-11.665,5.248s-55.915,5.162-64.048,54.61Z" style="fill:#7da365"/><path d="M166.227,93.251a2.2,2.2,0,0,0-4.332-.526,150.847,150.847,0,0,0-3.01,61.321c6.728,44.1,5.305,120.206,5.305,120.206h10.981a705.177,705.177,0,0,0-4.224-118.784S166.552,122.59,166.227,93.251Z" style="fill:#7da365"/><path d="M175.171,274.252s.842-12.77.843-33.084l-11.744,4.614c.138,16.822-.08,28.47-.08,28.47Z" style="fill:#464965"/><path d="M173.5,271.742s27.216-.121,46.528,31.282a57.456,57.456,0,0,0,12.995,14.935,47.66,47.66,0,0,0,10.927,6.616,1.3,1.3,0,0,1-.506,2.5H210.385Z" style="fill:#464965"/><path d="M102.973,327.079H221.761a99.5,99.5,0,0,1-9.72-14.334,96.65,96.65,0,0,1-6.167-13.195,52.786,52.786,0,0,0-12.3-18.763,33.657,33.657,0,0,0-42.736-2.827c-6.584,4.691-14.53,11.942-23.262,23.149-6.557,8.416-16.2,17.6-25.422,22.964A1.613,1.613,0,0,0,102.973,327.079Z" style="fill:#ea8c8d"/><path d="M290.932,12.921H226.689a13.2,13.2,0,1,0,0,26.405h64.243Z" style="fill:#fff"/><path d="M255.585,63.1h-28.9a13.2,13.2,0,0,0-13.2,13.2h0a13.2,13.2,0,0,0,13.2,13.2h28.9Z" style="fill:#f76b99"/><path d="M311.655,63.1h-56.07V89.507h56.07a13.2,13.2,0,0,0,13.2-13.2h0A13.2,13.2,0,0,0,311.655,63.1Z" style="fill:#464965"/><path d="M311.655,12.921H290.932V39.326h20.723a13.2,13.2,0,1,0,0-26.4Z" style="fill:#464965"/><path d="M117.807,162.673a3.437,3.437,0,0,1-3.27-2.384L91.028,87.226a12.456,12.456,0,0,0-11.893-8.667H15.142a3.436,3.436,0,0,1,0-6.872H79.135A19.307,19.307,0,0,1,97.57,85.12l23.508,73.064a3.435,3.435,0,0,1-3.271,4.489Z" style="fill:#464965"/><path d="M80.354,97.665H40.95a3.437,3.437,0,0,1,0-6.873h39.4a3.437,3.437,0,0,1,0,6.873Z" style="fill:#464965"/><path d="M80.354,116.77H15.142a3.436,3.436,0,1,1,0-6.872H80.354a3.436,3.436,0,0,1,0,6.872Z" style="fill:#464965"/><path d="M320.949,253.934H266.041a17.412,17.412,0,0,1-16.2-11.189l-14.384-37.988a3.437,3.437,0,0,1,6.428-2.433l14.384,37.988a10.5,10.5,0,0,0,9.773,6.75h54.908a3.436,3.436,0,1,1,0,6.872Z" style="fill:#464965"/><path d="M320.949,273.04h-43a3.436,3.436,0,1,1,0-6.872h43a3.436,3.436,0,1,1,0,6.872Z" style="fill:#464965"/><path d="M300.115,292.145H256.45a3.436,3.436,0,0,1,0-6.872h43.665a3.436,3.436,0,0,1,0,6.872Z" style="fill:#464965"/><circle cx="164.19" cy="288.71" r="3.908" style="fill:#b2505a"/><circle cx="170.102" cy="304.218" r="3.908" style="fill:#b2505a"/><circle cx="149.086" cy="303.255" r="3.908" style="fill:#b2505a"/><rect x="12.921" y="90.792" width="13.167" height="6.872" rx="3.436" style="fill:#464965"/><rect x="253.511" y="266.168" width="11.13" height="6.872" rx="3.436" style="fill:#464965"/><circle cx="320.949" cy="288.71" r="3.908" style="fill:#464965"/><path d="M284.665,148.074c-.076.021-7.8,1.959-19.364-.054a57.485,57.485,0,0,0-11.414-.929c-13.7.348-47.09,5.33-61.295,43.939a75.553,75.553,0,0,0-13.273,12.936c-.253.317-.5.643-.745.964-.475-9.829-1.179-20.317-2.2-31.214,8.527-8.665,22.646-27.982,24.914-62.357,3.413-51.711-37.4-83.6-39.138-84.934a3.435,3.435,0,0,0-5.395,1.793c-4.7,16.6-13.067,30.778-17.639,37.751a64.77,64.77,0,0,0-8,16.858,71.909,71.909,0,0,0,2.431,49.156A57.332,57.332,0,0,0,145.2,149.328a96.021,96.021,0,0,1,11.437,14.9c.049.076.111.137.164.209,4.347,37.369,4.174,89.733,4.015,105.056a37.585,37.585,0,0,0-11.988,5.676c-8.06,5.746-16.123,13.761-23.963,23.824a89.258,89.258,0,0,1-28.6,24.089q-.883.465-1.793.917a3.437,3.437,0,0,0,1.533,6.512H252.2a3.436,3.436,0,0,0,.618-6.816,39.935,39.935,0,0,1-17.656-8.427,53.944,53.944,0,0,1-12.209-14.047c-15.073-24.511-34.695-30.772-44.064-32.37.248-5.659.557-15.234.559-27.584,0-.013,0-.027,0-.041q0-1.932-.01-3.952c.046-.08.1-.156.136-.241a110.584,110.584,0,0,1,5.867-10.877c5.942-1.9,15.823-3.812,29.852-2.525a67.323,67.323,0,0,0,15.691-.369,3.436,3.436,0,1,0-.972-6.8,60.685,60.685,0,0,1-14.09.329,90.6,90.6,0,0,0-24.6.854c21.383-27.531,47.394-27.7,48.688-27.652a4.67,4.67,0,0,0,.563-.038c15.447-2.328,19.031-14.142,19.176-14.644a3.436,3.436,0,0,0-5.412-3.665c-4.738,3.69-11.175,3.125-11.226,3.121-.111-.012-.222-.017-.333-.018a87.8,87.8,0,0,0-10.264.554,82.082,82.082,0,0,0-29.411,9c13.535-25.365,37.186-29.993,50.956-30.343a50.923,50.923,0,0,1,10.062.83,63.956,63.956,0,0,0,17.385.73c-4.028,26.287-15.038,44.664-32.766,54.662a51.044,51.044,0,0,1-5.881,2.836,3.436,3.436,0,1,0,2.585,6.368,58.328,58.328,0,0,0,6.673-3.218c14.261-8.043,32.226-25.738,36.829-64.365a3.442,3.442,0,0,0-4.283-3.73Zm-122.384,5.453a149.882,149.882,0,0,1,.771-50.222c1.011,26.312,4.443,52.27,4.485,52.586a704.1,704.1,0,0,1,5.038,82.937l-4.924,1.934C167.338,214.753,166.146,178.86,162.281,153.527Zm-22.4-24.213A65.106,65.106,0,0,1,137.707,84.8a57.906,57.906,0,0,1,7.159-15.061,154,154,0,0,0,16.927-34.528c9.862,9.183,35.21,36.772,32.642,75.7-1.794,27.176-11.343,44.13-18.99,53.543q-.507-4.683-1.092-9.437c-.059-.441-5.885-44.51-4.493-75.5a3.436,3.436,0,0,0-6.546-1.607c-.58,1.241-13.657,29.919-8.462,72.007q-2.333-2.885-4.692-5.345A50.523,50.523,0,0,1,139.886,129.314ZM167.72,248.119l4.84-1.9c-.068,9.616-.314,17.168-.522,22a37.384,37.384,0,0,0-4.337.088C167.742,263.751,167.776,256.708,167.72,248.119Zm-59.1,75.524a97.483,97.483,0,0,0,21.665-20.422c7.431-9.539,15.011-17.093,22.53-22.452a30.172,30.172,0,0,1,38.251,2.377,49.409,49.409,0,0,1,11.6,17.639,99.411,99.411,0,0,0,6.389,13.663c2.117,3.71,4.134,6.805,5.8,9.195ZM217.1,304.825a60.831,60.831,0,0,0,13.78,15.822q2.034,1.62,4.126,3H223.4a105.443,105.443,0,0,1-8.374-12.6,92.538,92.538,0,0,1-5.945-12.727,58.58,58.58,0,0,0-4.2-8.632A72.54,72.54,0,0,1,217.1,304.825Zm16.184-122.691a80.542,80.542,0,0,1,9.318-.513,21.327,21.327,0,0,0,2.29.04,20.989,20.989,0,0,1-5.093,1.461c-3.88.031-37.192,1.459-60.566,40.01-.053-2.2-.115-4.45-.191-6.753.041-.059.09-.108.128-.171a71.115,71.115,0,0,1,5.517-7.949C196.4,193.616,213.657,184.338,233.283,182.134Z" style="fill:#464965"/><path d="M311.655,59.666H226.689a16.639,16.639,0,1,0,0,33.277h84.966a16.639,16.639,0,1,0,0-33.277ZM216.923,76.305a9.777,9.777,0,0,1,9.766-9.767h25.46V86.071h-25.46A9.776,9.776,0,0,1,216.923,76.305Zm94.732,9.766H259.021V66.538h52.634a9.767,9.767,0,1,1,0,19.533Z" style="fill:#464965"/><path d="M311.655,9.485H226.689a16.639,16.639,0,1,0,0,33.277h84.966a16.639,16.639,0,1,0,0-33.277ZM216.923,26.124a9.777,9.777,0,0,1,9.766-9.767H287.5V35.89H226.689A9.776,9.776,0,0,1,216.923,26.124Zm94.732,9.766H294.368V16.357h17.287a9.767,9.767,0,1,1,0,19.533Z" style="fill:#464965"/></g></svg>