<svg xmlns="http://www.w3.org/2000/svg" viewBox="0 0 340 340"><g id="Layer_23" data-name="Layer 23"><path d="M104.421,251.343c-5.633,1.423-10.577,5.732-16.222,8.691L41.828,330.057l62.129.176,66.118-17.155V246.826l-35.42-12.572C125.742,248.311,104.421,251.343,104.421,251.343Z" style="fill:#464965"/><path d="M82.585,285.68a6.872,6.872,0,0,1-5.151-11.419A46.6,46.6,0,0,0,88.641,250.04l.531-3.664A60.227,60.227,0,0,1,117.9,203.19L139,190.533a6.872,6.872,0,1,1,7.071,11.785l-21.1,12.658a46.536,46.536,0,0,0-22.2,33.369l-.53,3.664a60.323,60.323,0,0,1-14.5,31.347A6.859,6.859,0,0,1,82.585,285.68Z" style="fill:#464965"/><path d="M117.364,124.375l-2.4-29.8-13.084,9.254a8.178,8.178,0,0,0-3.45,6.968l.553,15.468h0l.155,4.339a8.174,8.174,0,0,0,3.75,6.587L119.241,147.7Z" style="fill:#464965"/><path d="M154.3,242.715s-18.231,25.863-23.633,55.8h17.564S158.725,263.5,168.7,244.5Z" style="fill:#b8b8d3"/><path d="M110.109,319.294a140.657,140.657,0,0,1-30.054-21.811l9.761-12.868c8.61,9.219,17.151,16.266,28.489,21.71Z" style="fill:#b8b8d3"/><path d="M108.426,258.645a7.171,7.171,0,0,0,10.53,2.333l18.356-13.467a6.711,6.711,0,0,0,.518-10.4l-3.175-2.857s-12.913,7.622-30.234,17.089Z" style="fill:#b8b8d3"/><path d="M134.655,166.054,146.9,242.719c5.454,2.27,12.969,4.107,23.007,4.107V166.054Z" style="fill:#b8b8d3"/><path d="M169.907,225.574c-18.565-.435-25.033-6.791-25.224-6.984a3.406,3.406,0,0,0-1.8-1.024l1.464,9.164c4.482,2.507,12.472,5.442,25.561,5.719Z" style="fill:#464965"/><path d="M146.9,166.054H134.655s.675,39.839,0,68.2c0,0,3.438,4.793,12.247,8.461Z" style="fill:#464965"/><path d="M169.907,166.054h35.42s-.675,39.839,0,68.2c0,0,39.169,23.12,72.584,38.843a27.4,27.4,0,0,1,14.915,18.148,186.573,186.573,0,0,1,5.686,39.351h-128.6Z" style="fill:#ffcaca"/><path d="M205.327,234.254c-.675-28.361,0-68.2,0-68.2h-35.42v48.3Z" style="fill:#464965"/><path d="M134.935,194.711l35.14,19.739v-48.4h-35.42S134.868,178.646,134.935,194.711Z" style="fill:#464965"/><path d="M219.5,101.258l10.11-2.71a7.9,7.9,0,0,1,9.959,7.8,96.269,96.269,0,0,1-3.116,22.693c-4.493,16.341-21.243,16.137-21.243,16.137Z" style="fill:#464965"/><path d="M170.075,20.185s14.719-1.18,37.324,3.117a49.365,49.365,0,0,0,25.406-1.765c5.464-1.9,11.258-4.682,15.525-8.7,0,0,5.11,27.789-15.971,37.052l16.515,2.555s-4.377,15.652-22.264,23c0,0,0,42.086-3.829,73.418a22.786,22.786,0,0,1-5.81,12.594,200.723,200.723,0,0,1-26.264,24.264,25.347,25.347,0,0,1-15.232,5.032h-5.568Z" style="fill:#ffcaca"/><path d="M170.075,20.185s-47.169-.355-55.352,54.467a47.138,47.138,0,0,0-.488,7.376c.082,9.556.518,37.084,2.843,59.251a36.13,36.13,0,0,0,5.279,15.405,110.842,110.842,0,0,0,27.354,30,21.27,21.27,0,0,0,12.634,4.07h7.562Z" style="fill:#fff"/><path d="M131.9,36.987a223.973,223.973,0,0,0,2.967,39.342A14,14,0,0,0,148.646,87.9h21.362l.067-67.718S148.413,20.029,131.9,36.987Z" style="fill:#a3a3bc"/><path d="M88.2,260.033c-8.582,4.5-17.544,9.025-26.128,13.064a27.4,27.4,0,0,0-14.915,18.148A186.514,186.514,0,0,0,41.471,330.6C100.32,314.6,91.154,270.214,88.2,260.033Z" style="fill:#fff"/><path d="M102.836,328.828q-.153.873-.279,1.768h67.518V313.078a21.852,21.852,0,0,0-22.414-21.82l-.6.016C125.332,291.9,106.587,307.421,102.836,328.828Z" style="fill:#fff"/><rect x="131.582" y="109.555" width="24.108" height="10.334" rx="5.167" style="fill:#464965"/><path d="M196.654,298.006a17.952,17.952,0,0,1-9.31-2.613,3.436,3.436,0,0,1,3.557-5.879,11.073,11.073,0,0,0,10.744.428l25.315-12.683a3.436,3.436,0,0,1,3.078,6.144l-25.316,12.683A17.98,17.98,0,0,1,196.654,298.006Z" style="fill:#e5838d"/><path d="M169.931,166.6H182.5a25.091,25.091,0,0,0,15.331-5.26l3.034-2.36a3.436,3.436,0,1,0-4.218-5.424l-3.034,2.359a18.188,18.188,0,0,1-11.113,3.813H169.938Z" style="fill:#e5838d"/><circle cx="129.082" cy="314.833" r="3.908" style="fill:#a3a3bc"/><circle cx="151.449" cy="314.833" r="3.908" style="fill:#a3a3bc"/><circle cx="154.894" cy="72.614" r="3.908" style="fill:#464965"/><rect x="191.197" y="110.565" width="11.776" height="6.872" rx="3.436" transform="translate(311.086 -83.083) rotate(90)" style="fill:#e5838d"/><path d="M279.374,269.988c-29.042-13.666-62.88-33.2-70.655-37.731-.42-19.679-.234-44.073-.076-57.366,4.257-4.067,7.958-7.935,10.864-11.118a26.07,26.07,0,0,0,6.684-14.494c3.306-27.049,3.777-62.417,3.844-71.589,17.458-8.2,21.959-23.639,22.149-24.318a3.437,3.437,0,0,0-2.785-4.321l-7.677-1.188C252.647,37.825,253.313,21.2,251.74,12.387a3.609,3.609,0,0,0-1.33-2.288,3.446,3.446,0,0,0-4.435.238c-3.337,3.14-8.147,5.816-14.3,7.955a45.962,45.962,0,0,1-23.635,1.635,175.468,175.468,0,0,0-24.45-2.959,3.448,3.448,0,0,0-3.575,3.96,3.518,3.518,0,0,0,3.341,2.909,168.63,168.63,0,0,1,23.4,2.841,52.844,52.844,0,0,0,27.175-1.895,55.242,55.242,0,0,0,11.535-5.427c.166,7.937-1.554,21.671-14.441,27.367a3.431,3.431,0,0,0,.807,6.564l12.223,1.891A35.9,35.9,0,0,1,225.3,72.266a3.436,3.436,0,0,0-2.131,3.178c0,.419-.043,42.233-3.8,73a19.236,19.236,0,0,1-4.936,10.693c-5.922,6.483-14.894,16.31-25.789,23.834-6.29,4.343-15.3,4.343-15.3,4.343l.165-167.127a3.437,3.437,0,0,0-3.41-3.44,60.442,60.442,0,0,0-26.237,7.073c-12.4,6.541-28.1,20.581-32.54,50.322a50.885,50.885,0,0,0-.525,7.913c.023,2.735.072,6.573.17,11.133L99.9,101.022a11.577,11.577,0,0,0-4.9,9.9l.552,15.467.155,4.342a11.614,11.614,0,0,0,5.326,9.353l14.191,9.123a39.418,39.418,0,0,0,4.221,9.3,120.513,120.513,0,0,0,11.9,15.913c0,.024-.006.045-.006.069.158,13.218.352,37.933-.072,57.77-3.992,2.329-14.885,8.632-28.383,16.011a105.144,105.144,0,0,0-10.787,5.647c-1.717,1-3.493,2.028-5.489,3.075h0c-9.489,4.972-18.235,9.346-25.994,13a30.712,30.712,0,0,0-16.786,20.425A197.4,197.4,0,0,0,38.051,330.6h131.39a4.064,4.064,0,0,0,4.064-4.07l-.162-106.3s70.447,40.611,103.1,55.979a23.859,23.859,0,0,1,13.045,15.87,183.946,183.946,0,0,1,5.58,38.519h6.867l.009-.008a190.7,190.7,0,0,0-5.789-40.175A30.707,30.707,0,0,0,279.374,269.988ZM101.866,110.673a4.725,4.725,0,0,1,2-4.04l7.319-5.178c.191,6.154.471,13.02.88,20.01l-9.779,1Zm2.882,23.626c-2.215-1.516-2.215-4.946-2.215-4.946l9.976-1.026c.278,3.92.6,7.817.977,11.589ZM148.939,28.866c.041,6.175.229,19.828,1.093,30.54a3.436,3.436,0,0,0,3.421,3.16c.093,0,.186,0,.28-.011a3.436,3.436,0,0,0,3.149-3.7c-1.017-12.61-1.079-29.476-1.081-32.714a54.637,54.637,0,0,1,10.834-2.309l-.059,60.636h-17.93a10.56,10.56,0,0,1-10.394-8.74,219.584,219.584,0,0,1-2.918-37.4A50.647,50.647,0,0,1,148.939,28.866Zm-23.668,126a32.909,32.909,0,0,1-4.776-13.942c-2.279-21.734-2.734-48.447-2.824-58.923a44.017,44.017,0,0,1,.45-6.84c1.827-12.242,5.659-21.573,10.451-28.691a212.448,212.448,0,0,0,2.914,30.464,17.424,17.424,0,0,0,17.16,14.408h17.923l-.067,68.387H154.424a3.436,3.436,0,0,0,0,6.872H166.5l-.02,20.718h-4.13a17.933,17.933,0,0,1-10.594-3.4A106.794,106.794,0,0,1,125.271,154.863Zm38.645,109.79c.863-2.341,1.717-4.663,2.555-6.945v37.9c-.185-.192-.368-.387-.56-.575a25.235,25.235,0,0,0-10.723-6.246C157.512,282.036,160.761,273.217,163.916,264.653Zm-15.663,23.169c-.224,0-.448,0-.674,0l-.621.016a50.292,50.292,0,0,0-10.655,1.454c4.965-17.98,13.616-33.28,18.2-40.618a65.338,65.338,0,0,0,7.513,1.194c-1.433,3.943-2.985,8.157-4.551,12.408C154.1,271.421,150.625,280.851,148.253,287.822Zm2.085-47.433V207.305l16.133,9.063v26.945A55.982,55.982,0,0,1,150.338,240.389Zm0-40.967v-8.3a25.117,25.117,0,0,0,12.007,3.062h4.126v14.3ZM138.283,181.6c1.637,1.542,3.371,3.065,5.183,4.559v51a26.428,26.428,0,0,1-5.079-3.876,3.215,3.215,0,0,0-.263-.434C138.493,216.011,138.412,195.605,138.283,181.6Zm-4.275,57.016c.61.58,1.361,1.236,2.257,1.934.027.074.041.151.074.225a3.3,3.3,0,0,1-1.06,3.97l-18.355,13.467a3.735,3.735,0,0,1-5.485-1.214l-2.353-4.29C120.579,246.378,129.843,241.036,134.008,238.611ZM95.543,259.86c2.34-1.358,4.586-2.661,7.412-4.043l2.459,4.481a10.61,10.61,0,0,0,15.575,3.451l18.355-13.468a10.136,10.136,0,0,0,3.767-5.508c.17.084.352.165.527.247.122.058.243.116.367.173q.672.31,1.387.611l.189.084.016,0c.659.274,1.347.54,2.059.8-5.375,8.844-14.513,25.785-19.117,45.218a50.156,50.156,0,0,0-13.395,8.5,136.657,136.657,0,0,1-21.638-16.062,63.421,63.421,0,0,0-1.3-22.581C93.371,261.117,94.473,260.482,95.543,259.86ZM50.49,292.077a23.858,23.858,0,0,1,13.044-15.87c6.773-3.187,14.28-6.914,22.365-11.1,1.523,7.542,2.794,21.633-4.574,34.763-6.616,11.79-18.789,20.55-36.22,26.079A189.786,189.786,0,0,1,50.49,292.077ZM99.665,327.16H60.636c10.714-5.246,18.921-12.108,24.553-20.5a147.674,147.674,0,0,0,17.007,12.01A47.465,47.465,0,0,0,99.665,327.16ZM88.677,300.618a51.121,51.121,0,0,0,3.251-8.538,139.936,139.936,0,0,0,18.249,13.389,48.708,48.708,0,0,0-4.955,7A138.969,138.969,0,0,1,88.677,300.618Zm77.962,24.212-59.317-.05c4.307-18.387,20.328-29.513,39.841-30.072l.579-.015a18.39,18.39,0,0,1,18.729,16.022Zm6.7-112.484V194.188s12.572-.21,19.427-5.72c3.029-2.435,6.1-4.783,8.933-7.247-.12,12.781-.2,31.06.068,47.093Z" style="fill:#464965"/></g></svg>