<svg xmlns="http://www.w3.org/2000/svg" viewBox="0 0 340 340"><g id="Layer_2" data-name="Layer 2"><path d="M167.074,318.909a4.886,4.886,0,0,1-2.4-.631l-9.421-5.3a23.823,23.823,0,0,1-12.133-20.74V265.081a4.909,4.909,0,0,1,9.818,0v27.162a13.993,13.993,0,0,0,7.126,12.182l9.421,5.3a4.909,4.909,0,0,1-2.409,9.188Z" style="fill:#464965"/><rect x="181.803" y="264.269" width="26.743" height="62.81" style="fill:#464965"/><polygon points="183.901 327.079 162.589 327.079 162.589 283.304 183.901 292.819 183.901 327.079" style="fill:#ccccef"/><polygon points="224.452 327.079 206.448 327.079 206.448 286.252 224.452 295.683 224.452 327.079" style="fill:#ccccef"/><polygon points="162.589 283.304 183.901 292.819 183.901 263.181 162.589 263.181 162.589 283.304" style="fill:#464965"/><polygon points="224.452 295.683 224.452 263.181 206.448 263.181 206.448 286.252 224.452 295.683" style="fill:#464965"/><path d="M175.416,74.969s.156-27.524-1.2-51.047a10.4,10.4,0,0,1,10.387-11h0a10.4,10.4,0,0,1,10.376,9.606c.92,12.073,2.249,33.664,1.878,53.84Z" style="fill:#ccccef"/><path d="M224.744,44.644h0a9.692,9.692,0,0,1,9.688,9.435c.379,14.1.858,41.2-.3,61.462h-20.5a497.333,497.333,0,0,0,1.431-60.808A9.7,9.7,0,0,1,224.744,44.644Z" style="fill:#ccccef"/><path d="M247.651,142.133l4.628-34.047a9.2,9.2,0,0,1,10.038-7.914h0a9.194,9.194,0,0,1,8.249,9.865c-.748,9.5-2.229,25.035-4.74,38.962Z" style="fill:#9a9acb"/><path d="M209.255,131.827c-1.75,9.47-4.048,20.631-6.464,28.87l20.414,10.719s3.629-11.524,7.057-25.687C224.559,140.28,217.407,135.74,209.255,131.827Z" style="fill:#ccccef"/><path d="M209.338,131.842l20.923,13.886a238.918,238.918,0,0,0,5.439-29.042l-23.23-3.836S210.688,124.145,209.338,131.842Z" style="fill:#9a9acb"/><polygon points="221.319 173.351 246.61 142.133 263.68 155.074 239.692 191.829 221.319 173.351" style="fill:#9a9acb"/><path d="M225.266,170s11.7,1.621,15.4,12.124c3.312,9.41-3.413,19.523-3.413,19.523l-15.93-12.475Z" style="fill:#464965"/><path d="M194.167,167.035s7.155-17,21.173-10.468c14.944,6.961,10.433,20.819,6.848,25.535Z" style="fill:#464965"/><circle cx="224.305" cy="115.394" r="12.424" style="fill:#fff"/><circle cx="255.236" cy="148.999" r="11.698" style="fill:#b8c0db"/><path d="M173.425,155.074l.992-58.29a78.1,78.1,0,0,1,25.131,11.169c.138,14.516.107,32.753-.49,50.14Z" style="fill:#ccccef"/><path d="M174.417,96.784l25.13,11.169c-.158-16.621-.536-28.365-.536-28.365L174.69,80.76Z" style="fill:#9a9acb"/><path d="M139.707,156.1s-.743-21-2.33-39.206a65.938,65.938,0,0,1,23.228,5.716c1.96,11.327,3.772,24.141,3.925,33.49Z" style="fill:#ccccef"/><path d="M73.235,165.1s25.936,30.244,36.242,51.132l20.1-44.211s-22.5-6.87-34.7-21.642Z" style="fill:#9a9acb"/><path d="M69.393,156.1s3.055-25.966,2.991-48.9a7.906,7.906,0,0,1,9.939-7.653h0a19.679,19.679,0,0,1,14.653,18.839,248.4,248.4,0,0,1-2.416,36.685Z" style="fill:#ccccef"/><path d="M107.7,189.382a35.216,35.216,0,0,1,9.3-12.856c5.159-4.5,13.034-9.125,23.132-8.312,0,0,4.982,24.739-14.629,51.044C116.923,216.78,109.276,211.666,107.7,189.382Z" style="fill:#464965"/><circle cx="83.288" cy="156.105" r="13.895" style="fill:#fff"/><path d="M107.714,189.388a34.144,34.144,0,0,0-1.848,5.7c-4.625,20.424,10.923,34.209,10.923,34.209a89.854,89.854,0,0,0,10.858-13.078C115.206,212.409,109.914,198.733,107.714,189.388Z" style="fill:#464965"/><path d="M137.6,165.1s-2.644-18.252,12.732-19.894c16.393-1.751,19.1,12.414,18.462,18.3Z" style="fill:#464965"/><path d="M168.137,165.185s-.846-18.423,14.617-18.553c16.486-.139,17.793,14.223,16.583,20.021Z" style="fill:#464965"/><path d="M134.788,170.327c-.9,11.732-4.376,34.372-17.534,53.693a10.973,10.973,0,0,0,1.379,13.89,166.086,166.086,0,0,1,17.807,20.966s44.361,18.1,76.561-2.565.278-83.752.278-83.752a67.791,67.791,0,0,0-30.821-10.142,296.957,296.957,0,0,0-38.763-.809A9.483,9.483,0,0,0,134.788,170.327Z" style="fill:#fff"/><path d="M155.51,96.784l-20.06,3.379c.672,4.172,1.469,11.174,1.977,16.731l23.177,5.721C158.171,108.554,155.51,96.784,155.51,96.784Z" style="fill:#9a9acb"/><path d="M134.726,91.613s-2.7-31.037-.47-55.242a8.818,8.818,0,0,1,7.516-7.933h0a8.8,8.8,0,0,1,10.045,8.192c.71,12.1,1.824,33.713,2.022,53.208Z" style="fill:#ccccef"/><circle cx="145.036" cy="95.417" r="12.817" style="fill:#fff"/><circle cx="186.241" cy="78.528" r="12.817" style="fill:#fff"/><circle cx="159.91" cy="248.207" r="5.126" style="fill:#464965"/><circle cx="184.539" cy="246.684" r="5.126" style="fill:#464965"/><path d="M230.9,263.611c4.093-11.112,9.046-28.141,8.781-60.24a17.639,17.639,0,0,0-4.353-11.452,111.268,111.268,0,0,0-19.045-17.345c-.985-.7-1.992-1.364-3.011-2.007a186.534,186.534,0,0,1-3,71.65,16.883,16.883,0,0,1-16.914,12.969c-12.883-.4-52.255,3.137-56.927,1.692,1.319,1.871,2.606,3.8,3.831,5.773A13.585,13.585,0,0,0,153.86,271c12.71-1.955,37.249-4.391,64.207.02A11.625,11.625,0,0,0,230.9,263.611Z" style="fill:#b8c0db"/><circle cx="209.027" cy="248.207" r="5.126" style="fill:#464965"/><path d="M65.97,156.356a20.552,20.552,0,0,0,5.7,12.783,63.694,63.694,0,0,1,4.745,5.26c5.859,7.385,18.771,24,25.648,35.477a3.51,3.51,0,0,0,.322.443,43.25,43.25,0,0,0,9.606,18.933,14.5,14.5,0,0,0,4.212,11.084,152.666,152.666,0,0,1,21.146,26.122,17.031,17.031,0,0,0,17.042,7.939c1.424-.219,3.022-.446,4.766-.67v53.352a3.436,3.436,0,0,0,3.436,3.436h61.863a3.436,3.436,0,0,0,3.436-3.436V272.366a14.931,14.931,0,0,0,6.24-7.575c4.325-11.742,9.254-29.337,8.99-61.442-.012-1.535,1.435-9.953,1.772-13.2L263.4,161.8c.022-.035.034-.072.055-.106a15.005,15.005,0,0,0,6.475-16.273c2.08-12.741,3.359-26.126,4.066-35.114a12.635,12.635,0,0,0-25.116-2.684l-4.148,30.51c-5.42,6.819-13.415,17.425-13.415,17.425a317.425,317.425,0,0,0,6.946-31.975,3.406,3.406,0,0,0,.031-.6,15.619,15.619,0,0,0-.351-15.463c.666-18.973.255-41.246-.061-53.149a13.38,13.38,0,0,0-13.191-13.159,13.015,13.015,0,0,0-9.857,4.532,13.66,13.66,0,0,0-3.187,9.5,514.768,514.768,0,0,1-.835,52.483c0,.019,0,.037,0,.056a15.592,15.592,0,0,0-2.038,7.114,3.449,3.449,0,0,0-.214.746c-.931,5.825-3.1,18.844-5.745,30.825.589-28.3-.318-67.162-.318-67.932a16.131,16.131,0,0,0-2.143-8.035c.055-17.985-1.028-36.146-1.949-48.227a13.9,13.9,0,0,0-18.373-12.024,12.614,12.614,0,0,0-3.383,1.735,13.828,13.828,0,0,0-5.863,12.143c1.038,17.976,1.187,38.45,1.2,46.616a16.209,16.209,0,0,0-.751,14.018c-.025.16-1.133,63.775-1.133,63.775a16.9,16.9,0,0,0-1.1,1.35,18.059,18.059,0,0,0-1.484-2.035c-1.327-15.645-5.183-35.449-7.454-46.254A16.159,16.159,0,0,0,157.2,84.678c-.325-18.509-1.362-38.137-1.955-48.25a12.242,12.242,0,0,0-24.413-.373c-1.737,18.838-.531,41.679.124,51.274a16.143,16.143,0,0,0,1.852,18.763c1.814,14.693,2.888,36.512,3.273,45.426a26.135,26.135,0,0,0-2.072,11.705,13.913,13.913,0,0,1-8.149,3.8c-6.609-2.619-20.062-9.048-27.007-18.484a253.3,253.3,0,0,0,1.556-30.178,23.163,23.163,0,0,0-16.3-21.871,11.868,11.868,0,0,0-10.128,1.272,11.259,11.259,0,0,0-5.037,9.451c.05,17.858-1.836,37.8-2.626,45.356A33.143,33.143,0,0,0,65.97,156.356Zm27.777-.251a10.455,10.455,0,0,1-20.91.137c.045-.4.14-1.251.272-2.5A10.454,10.454,0,0,1,93.747,156.1Zm37.4,16.372a117.94,117.94,0,0,1-9.446,36.54c-5.7-4.988-8.747-12.968-10.338-19.163-.01-.039-.03-.072-.041-.111a31.914,31.914,0,0,1,7.934-10.628A30.466,30.466,0,0,1,131.151,172.477Zm23.266-77.06a9.381,9.381,0,1,1-9.381-9.38A9.392,9.392,0,0,1,154.417,95.417Zm-9.381,16.253a16.144,16.144,0,0,0,9.452-3.057c1.767,8.841,4.246,22.253,5.611,34.141a22.99,22.99,0,0,0-10.131-.97,18.186,18.186,0,0,0-7.352,2.315c-.457-9.092-1.233-22.165-2.348-33.145A16.193,16.193,0,0,0,145.036,111.67Zm5.661,36.947c4.429-.47,7.922.357,10.39,2.467a12.845,12.845,0,0,1,3.887,6.9c-6.97-.217-14.388-.224-21.479.192a12.863,12.863,0,0,0-2.4.374C141.757,154.037,144.065,149.326,150.7,148.617Zm44.925-70.089a9.381,9.381,0,1,1-9.381-9.381A9.391,9.391,0,0,1,195.622,78.528Zm-9.381,16.253a16.142,16.142,0,0,0,9.629-3.19c.259,12.851.518,34.091.055,55.512-3.419-2.621-7.837-3.941-13.2-3.907a19.207,19.207,0,0,0-5.677.876l.879-51.6A16.124,16.124,0,0,0,186.241,94.781Zm47.053,20.76a8.842,8.842,0,1,1-8.842-8.842A8.853,8.853,0,0,1,233.294,115.541Zm-19.662,11.366a15.588,15.588,0,0,0,16.509,3.265c-1.905,9.97-4.482,20.1-6.6,27.8a24.521,24.521,0,0,0-6.748-4.523,17.946,17.946,0,0,0-8.114-1.783C210.613,143.372,212.352,134.186,213.632,126.907ZM263.5,149a8.263,8.263,0,1,1-8.263-8.262A8.272,8.272,0,0,1,263.5,149Zm-9.784,15.057-10.286,15.761c-2.987-7.091-9.026-10.478-13.195-12.012l10.875-13.423A15.156,15.156,0,0,0,253.715,164.056Zm-50.728-3.2c3.318-2.656,6.9-3.043,10.9-1.176s6.58,4.373,7.613,7.436a12.352,12.352,0,0,1,.039,7.06C216.183,170.044,202.987,160.858,202.987,160.858Zm-20.2-10.79c4.524-.011,7.941,1.163,10.191,3.568a12.527,12.527,0,0,1,3.032,6.64c-2.344-.281-11.728-1.349-23.529-1.975C174.05,152.885,177.5,150.112,182.783,150.068Zm-74.325,52.048a35.478,35.478,0,0,0,10.1,13.19q-1.753,3.19-3.83,6.3A33.306,33.306,0,0,1,108.458,202.116Zm57.567,70.846c4.3-.408,9.153-.741,14.44-.891v51.572h-14.44Zm36.987,50.681H187.337V271.988c4.972.019,10.227.214,15.675.66Zm18,0H209.884v-50.3c2.513.3,11.132,1.234,11.132,1.234Zm6.663-61.227a8.224,8.224,0,0,1-9.065,5.214,199.514,199.514,0,0,0-32.076-2.515,221.865,221.865,0,0,0-33.2,2.49,10.159,10.159,0,0,1-10.158-4.77,159.627,159.627,0,0,0-22.119-27.352,7.523,7.523,0,0,1-.971-9.528c13.594-19.962,17.187-43.255,18.119-55.363a6.065,6.065,0,0,1,5.685-5.554c21.876-1.287,47.894,1.66,51.39,2.074,17.018,6.417,29.747,18.241,37.448,27.062a14.227,14.227,0,0,1,3.509,9.231C236.5,234.4,231.8,251.222,227.679,262.416Zm10.235-72.761a118.989,118.989,0,0,0-10.7-10.778,24.121,24.121,0,0,0,1.312-4.376,15.023,15.023,0,0,1,8.9,8.763,14.332,14.332,0,0,1,.582,6.5C237.972,189.73,237.945,189.69,237.914,189.655Zm17.77-81.107a5.731,5.731,0,0,1,6.288-4.957,5.791,5.791,0,0,1,5.168,6.177c-.559,7.111-1.482,17.01-2.88,27.11a15.03,15.03,0,0,0-9.024-3.013,15.181,15.181,0,0,0-3.035.306ZM220.25,49.992A6.25,6.25,0,0,1,231,54.172c.283,10.531.654,29.668.244,47.219a15.547,15.547,0,0,0-13.153-.2C218.679,90.1,219.2,73.3,218.5,54.6A6.247,6.247,0,0,1,220.25,49.992Zm-40.719-31.45a6.907,6.907,0,0,1,5.07-2.185,7,7,0,0,1,6.948,6.431c.66,8.658,1.706,24.672,1.9,41.194a16.093,16.093,0,0,0-14.626.1c-.082-10.094-.349-26-1.178-40.361A6.9,6.9,0,0,1,179.531,18.542ZM137.678,36.685c.23-2.5,2.09-4.846,4.584-4.846a5.761,5.761,0,0,1,6.125,4.992c.54,9.194,1.448,26.291,1.847,43.2a16.1,16.1,0,0,0-12.775,1.018C136.853,69.975,136.273,51.927,137.678,36.685ZM114.741,173.938a38.628,38.628,0,0,0-12.226,20.394c-.208.92-.371,1.825-.508,2.72-5.9-8.732-12.489-17.336-17.535-23.676A17.341,17.341,0,0,0,100.1,160.238a87.187,87.187,0,0,0,18.117,10.986A43.131,43.131,0,0,0,114.741,173.938ZM77.555,103.655a4.448,4.448,0,0,1,3.887-.784,16.276,16.276,0,0,1,12.1,15.545c.062,7.734-.252,15.48-.908,23.116a17.193,17.193,0,0,0-18.366-.2c.785-9.56,1.587-22.29,1.554-34.143A4.419,4.419,0,0,1,77.555,103.655Z" style="fill:#464965"/></g></svg>