<svg xmlns="http://www.w3.org/2000/svg" viewBox="0 0 340 340"><g id="Layer_10" data-name="Layer 10"><path d="M55.921,229.57v75.88s0,9.384-6.91,14.477a1.441,1.441,0,0,0,.848,2.606h41.9v-96.6Z" style="fill:#cc9395"/><polygon points="91.76 225.931 55.921 229.57 55.921 274.232 91.76 256.553 91.76 225.931" style="fill:#464965"/><path d="M136.4,148.3A29.906,29.906,0,0,0,106.492,118.4a30.275,30.275,0,0,0-3.072.156,29.9,29.9,0,0,0-58.562,12.08,29.934,29.934,0,0,0-17.549,38.314,29.866,29.866,0,0,0-12.866,24.571c0,25.351,14.956,40.5,43.079,40.5h68.405v-63A29.832,29.832,0,0,0,136.4,148.3Z" style="fill:#87a57e"/><path d="M108.857,154s-5.682,77.7-92.591,53.571c4.76,16.789,18.808,26.451,41.256,26.451h68.405v-63A30.1,30.1,0,0,0,132,163.9Z" style="fill:#464965"/><path d="M192.958,322.632H149.88V229.57h120.1C276.649,268.7,234.856,309.187,192.958,322.632Z" style="fill:#9a9acb"/><path d="M309.6,229.57H225.47V136.507h75c5.666,0,9.129,4.594,9.129,10.26Z" style="fill:#9a9acb"/><path d="M159,322.632H91.764a11.775,11.775,0,0,1-11.776-11.775v-3.482c3.916-20.167,3.736-41.048,0-62.548v-3.482A11.775,11.775,0,0,1,91.764,229.57H159a11.775,11.775,0,0,1,11.775,11.775v69.512A11.775,11.775,0,0,1,159,322.632Z" style="fill:#fff"/><rect x="108.857" y="136.507" width="142.823" height="93.063" rx="11.775" style="fill:#fff"/><path d="M279.388,162.451h0a11.384,11.384,0,0,1,11.384,11.384V229.57a0,0,0,0,1,0,0H268a0,0,0,0,1,0,0V173.835A11.384,11.384,0,0,1,279.388,162.451Z" style="fill:#464965"/><circle cx="272.74" cy="62.837" r="20.503" style="fill:#ffb65f"/><circle cx="272.74" cy="17.84" r="3.908" style="fill:#ffb65f"/><circle cx="272.74" cy="107.833" r="3.908" style="fill:#ffb65f"/><circle cx="317.737" cy="62.837" r="3.908" style="fill:#ffb65f"/><circle cx="227.744" cy="62.837" r="3.908" style="fill:#ffb65f"/><circle cx="304.558" cy="31.019" r="3.908" style="fill:#ffb65f"/><circle cx="240.923" cy="94.654" r="3.908" style="fill:#ffb65f"/><circle cx="304.558" cy="94.654" r="3.908" style="fill:#ffb65f"/><circle cx="240.923" cy="31.019" r="3.908" style="fill:#ffb65f"/><path d="M325.557,310.857V241.345a11.775,11.775,0,0,0-11.775-11.775H309.6L225.47,305.04l13.44,17.592h74.872A11.775,11.775,0,0,0,325.557,310.857Z" style="fill:#464965"/><polygon points="263.606 229.487 263.606 248.1 245.972 248.1 245.972 266.712 228.301 266.712 228.301 285.325 210.63 285.325 210.63 303.938 192.958 303.938 192.958 322.55 238.91 322.55 238.91 303.938 256.582 303.938 256.582 285.325 274.253 285.325 274.253 266.712 291.924 266.712 291.924 248.1 309.596 248.1 309.596 229.487 263.606 229.487" style="fill:#fff"/><path d="M148.462,156.5h63.612a13.048,13.048,0,0,1,13.048,13.048v26.986a13.048,13.048,0,0,1-13.048,13.048H148.461a13.047,13.047,0,0,1-13.047-13.047V169.545A13.048,13.048,0,0,1,148.462,156.5Z" style="fill:#464965"/><path d="M128.414,246.326H83.323v59.549h45.091A13.887,13.887,0,0,0,142.286,292V260.2A13.888,13.888,0,0,0,128.414,246.326Z" style="fill:#464965"/><path d="M42.506,319.2a3.436,3.436,0,0,0,.815,6.774l270.461.1a15.228,15.228,0,0,0,15.211-15.211V241.345a15.227,15.227,0,0,0-15.211-15.211h-.751V142.2a9.14,9.14,0,0,0-9.13-9.131H136.136a33.442,33.442,0,0,0-29.644-18.113c-.162,0-.325,0-.488,0a33.339,33.339,0,0,0-64.919,13.543,33.375,33.375,0,0,0-17.8,39.171,33.37,33.37,0,0,0-12.281,25.84c0,26.3,15.038,42.025,41.477,43.771v68.148C52.48,305.9,52.271,316.81,42.506,319.2Zm34.569-81.74a15.131,15.131,0,0,0-.523,3.89v8.729l-17.2,16.708V237.455ZM59.356,305.45V276.365l17.2-16.709v51.2A15.107,15.107,0,0,0,79,319.1H54.679A23.521,23.521,0,0,0,59.356,305.45ZM90.546,319.1a8.346,8.346,0,0,1-7.122-8.24V241.345a8.349,8.349,0,0,1,8.34-8.339H159a8.349,8.349,0,0,1,8.339,8.339v69.512A8.349,8.349,0,0,1,159,319.2Zm169.662-86.091v11.74H245.973a3.436,3.436,0,0,0-3.436,3.436v15.176H228.3a3.437,3.437,0,0,0-3.437,3.436v15.177H210.63a3.437,3.437,0,0,0-3.436,3.436v15.177H192.959a3.436,3.436,0,0,0-3.436,3.436V319.2H171.7a15.118,15.118,0,0,0,2.5-8.339V241.345a15.115,15.115,0,0,0-2.5-8.339Zm-24.689,74.6-.092,11.74-39.077-.3.091-11.74Zm-21.453-7.024V288.843h39.079v11.741Zm17.672-18.613v-11.74h39.079v11.74Zm17.671-18.613v-11.74h39.079v11.74Zm17.671-18.612v-11.74h39.079v11.74Zm20.256-18.612h-15.9v-52.3a7.948,7.948,0,0,1,15.9,0Zm34.785,15.211v69.512a8.349,8.349,0,0,1-8.339,8.339H242.346v-11.74h14.235a3.436,3.436,0,0,0,3.436-3.436V288.843h14.236a3.436,3.436,0,0,0,3.436-3.436V270.231h14.235a3.437,3.437,0,0,0,3.436-3.437V251.618H309.6a3.436,3.436,0,0,0,3.436-3.436V233.006h.751A8.349,8.349,0,0,1,322.121,241.345ZM306.159,142.2v83.932H294.208v-52.3a14.82,14.82,0,0,0-29.64,0v52.3H252.611a15.113,15.113,0,0,0,2.5-8.34V148.282a15.11,15.11,0,0,0-2.5-8.339H303.9A2.261,2.261,0,0,1,306.159,142.2ZM239.9,139.943a8.349,8.349,0,0,1,8.339,8.339v69.512a8.349,8.349,0,0,1-8.339,8.34H120.632a8.349,8.349,0,0,1-8.339-8.34V148.282a8.349,8.349,0,0,1,8.339-8.339ZM29.269,171.767a3.436,3.436,0,0,0,1.265-4.008,26.5,26.5,0,0,1,15.533-33.912,3.435,3.435,0,0,0,2.169-3.84,26.8,26.8,0,0,1-.451-4.848,26.469,26.469,0,0,1,52.283-5.852,3.431,3.431,0,0,0,3.7,2.662,26.9,26.9,0,0,1,2.723-.138,26.559,26.559,0,0,1,21.631,11.24h-7.491a15.228,15.228,0,0,0-15.211,15.211v6.382a3.363,3.363,0,0,0-.171.7c-.929,7.057-5.5,31.113-25.4,44.4-14.983,10-35.426,11.68-60.752,5a49.331,49.331,0,0,1-1.22-11.248A26.5,26.5,0,0,1,29.269,171.767ZM21.837,212.52a112.769,112.769,0,0,0,25.281,3.133c14.167,0,26.4-3.4,36.55-10.175,10.788-7.2,17.536-17.134,21.753-26.349v38.665a15.113,15.113,0,0,0,2.5,8.34H91.764a15.16,15.16,0,0,0-10.739,4.449h-23.5C39.856,230.583,27.678,224.293,21.837,212.52Z" style="fill:#464965"/></g></svg>