<svg xmlns="http://www.w3.org/2000/svg" viewBox="0 0 340 340"><g id="Layer_14" data-name="Layer 14"><path d="M118.962,165.092s29.6,26.7,43.842,33.434a22.065,22.065,0,0,0,20.649-.879c12.01-7.025,43.295-27.122,57.168-45.7l1.021,1.105a9.15,9.15,0,0,1,1.375,10.364l-4.958,9.605.772,8.107a12.245,12.245,0,0,1-3.284,9.608c-6.543,6.867-27.46,27.518-43.508,35.958-5.3,2.788-15.163,3.454-21.1,3.048-9.639-.657-25.66-2.359-36.714-6.684Z" style="fill:#667ec6"/><path d="M121.2,167.181l-13.256-12.389V130.743l-33.124-2.711.636,28.515-18.7,10.063L12.289,234.605a8.977,8.977,0,0,0,.985,11.047l33.431,35.079,2.33,20.845a7.267,7.267,0,0,0,7.132,6.565H142.3l-6.936-110.67A45.335,45.335,0,0,0,121.2,167.181ZM70.369,268.8s-18.981-17.575-28.8-28.39c0,0,14.4-19.6,28.8-32.107Z" style="fill:#9ebfff"/><polygon points="107.941 130.743 74.817 128.032 75.453 156.547 107.941 145.229 107.941 130.743" style="fill:#464965"/><path d="M76.554,71.64c13.638-6.325,44.173-21.281,57.016-34.015,0,0,4.365,17.337-3.021,28.085l11.75-1.387s-.259,6.7-6.477,14.675a14.829,14.829,0,0,0-3.095,8.581c-.387,10.842-1.46,36.3-3.521,54.669,0,0-34.917-5.548-54.389-14.216l-4.41-45.6A10.883,10.883,0,0,1,76.554,71.64Z" style="fill:#9ebfff"/><path d="M331.33,189.145c-20.567-58.413-114.39-61.329-149.4-60.32a12.858,12.858,0,0,1-13.221-12.862V44.888a12.859,12.859,0,0,1,12.449-12.861c31.891-1,116.012,1.1,144.557,48.39a39.3,39.3,0,0,1,5.612,20.311Z" style="fill:#f76b99"/><path d="M271.749,257.787c67.221-22.9,59.581-68.642,59.581-68.642V100.728s.238,34.624-62.867,56.084a14.481,14.481,0,0,0-9.851,13.695v77.877A9.936,9.936,0,0,0,271.749,257.787Z" style="fill:#464965"/><path d="M291.467,217.916a9.3,9.3,0,0,1-4.738-1.307,9.2,9.2,0,0,1-4.563-7.994V185.066a16.425,16.425,0,0,1,8.715-14.548c3.024-1.606,5.921-3.3,8.61-5.043a9.347,9.347,0,0,1,9.552-.374,9.146,9.146,0,0,1,4.836,8.145v23.2a16.463,16.463,0,0,1-6.9,13.425h0a115.361,115.361,0,0,1-10.989,6.865A9.335,9.335,0,0,1,291.467,217.916Zm13.1-47.086a2.429,2.429,0,0,0-1.342.415c-2.854,1.847-5.923,3.645-9.12,5.343a9.562,9.562,0,0,0-5.067,8.478v23.549a2.37,2.37,0,0,0,1.184,2.076,2.424,2.424,0,0,0,2.449.03,108.819,108.819,0,0,0,10.336-6.455,9.581,9.581,0,0,0,4-7.819v-23.2a2.346,2.346,0,0,0-1.247-2.108A2.538,2.538,0,0,0,304.567,170.83Zm.427,36.239h0Z" style="fill:#fff"/><path d="M199.791,58.569c6.26.143,12.49.457,18.516.933.092.007.183.01.274.01a3.436,3.436,0,0,0,.267-6.861c-6.154-.485-12.512-.806-18.9-.952a3.436,3.436,0,0,0-.158,6.87Z" style="fill:#fff"/><path d="M188.44,74.48h.033c10.082-.1,20.125.241,29.835,1.008.092.007.183.01.274.01a3.436,3.436,0,0,0,.267-6.861c-9.911-.782-20.157-1.13-30.441-1.03a3.437,3.437,0,0,0,.032,6.873Z" style="fill:#fff"/><path d="M218.851,84.623c-9.912-.782-20.157-1.132-30.446-1.03a3.437,3.437,0,0,0,.032,6.873h.034c10.1-.1,20.128.242,29.839,1.008.092.007.183.01.274.01a3.436,3.436,0,0,0,.267-6.861Z" style="fill:#fff"/><path d="M218.848,100.7q-1.365-.106-2.709-.2a3.436,3.436,0,0,0-.485,6.855q1.318.093,2.655.2c.091.007.182.011.273.011a3.436,3.436,0,0,0,.266-6.862Z" style="fill:#fff"/><path d="M202.713,99.819c-4.75-.145-9.564-.2-14.306-.151a3.436,3.436,0,0,0,.033,6.872h.034c4.65-.045,9.37,0,14.029.148l.107,0a3.436,3.436,0,0,0,.1-6.871Z" style="fill:#fff"/><path d="M279.649,82.381a47.027,47.027,0,0,0-11.222-3.24V69.9a12.9,12.9,0,0,0-7.7-11.8,55.05,55.05,0,0,0-15.532-4.065,11.293,11.293,0,0,0-12.624,11.225V88.518a11.255,11.255,0,0,0,9.454,11.16l2.894.351a3.437,3.437,0,0,0,.651-6.81l-2.433-.322a4.409,4.409,0,0,1-3.693-4.379V65.251a4.4,4.4,0,0,1,1.5-3.329,4.322,4.322,0,0,1,3.426-1.074,48.173,48.173,0,0,1,13.589,3.533,6.03,6.03,0,0,1,3.6,5.515v9.247a10.376,10.376,0,0,0-7.334,9.929v20.547a10.34,10.34,0,0,0,8.685,10.252,90.529,90.529,0,0,1,10.451,2.3,10.59,10.59,0,0,0,2.959.425,10.394,10.394,0,0,0,10.376-10.375V93.174A11.8,11.8,0,0,0,279.649,82.381Zm.171,29.839A3.448,3.448,0,0,1,278.432,115a3.562,3.562,0,0,1-3.16.568,97.37,97.37,0,0,0-11.253-2.48,3.494,3.494,0,0,1-2.925-3.471V89.072a3.483,3.483,0,0,1,1.188-2.64,3.42,3.42,0,0,1,2.285-.877,3.607,3.607,0,0,1,.426.026,42.181,42.181,0,0,1,11.887,3.09,4.922,4.922,0,0,1,2.94,4.5Z" style="fill:#fff"/><circle cx="302.167" cy="84.14" r="3.908" style="fill:#fff"/><circle cx="302.167" cy="98.539" r="3.908" style="fill:#fff"/><circle cx="302.167" cy="112.938" r="3.908" style="fill:#fff"/><path d="M46.354,308.523a3.436,3.436,0,0,0,3.415,3.054h20.6a3.436,3.436,0,0,0,3.436-3.436V208.3a3.436,3.436,0,0,0-5.689-2.594C53.6,218.316,39.4,237.559,38.8,238.372a3.434,3.434,0,0,0,.224,4.344c8.558,9.428,23.681,23.636,27.907,27.577v34.412H52.842L50.12,280.349a3.439,3.439,0,0,0-.928-1.988l-36.42-38.215,46.377-70.924L76.84,159.7l27.666-9.639v4.728a3.438,3.438,0,0,0,1.09,2.51l26.256,24.54a117.845,117.845,0,0,0,28.589,19.35c9.587,4.457,19.884,3.07,30.577-4.1,1.241-.816,29.314-19.362,49.014-39.869a6.387,6.387,0,0,1-.166,5.611l-5.487,10.45a3.423,3.423,0,0,0-.378,1.928l.854,8.822a9.726,9.726,0,0,1-2.682,7.729c-7.546,7.783-22.76,22.16-39.877,31.009a32.671,32.671,0,0,1-17.2,3.543c-6.054-.406-24.48-1.642-37.049-5.526a3.437,3.437,0,0,0-4.444,3.5l5.27,84.073a3.435,3.435,0,0,0,3.426,3.221c.072,0,.145,0,.218-.006a3.436,3.436,0,0,0,3.214-3.645l-4.968-79.273c8.518,2.078,19.669,3.562,33.873,4.515a39.558,39.558,0,0,0,20.819-4.3c17.985-9.3,33.818-24.247,41.655-32.331a16.587,16.587,0,0,0,4.588-13.176l-.756-7.8,5.011-9.541a13.244,13.244,0,0,0-2.06-15.227l-1.13-1.2a3.44,3.44,0,0,0-2.5-1.082h-.028a3.439,3.439,0,0,0-2.513,1.123c-19.127,21-50.162,41.5-50.5,41.725-8.706,5.843-16.517,7.02-23.878,3.6a112.876,112.876,0,0,1-26.765-18.111l-25.2-23.549V142.365c9.478,2.021,16.644,3.174,17.289,3.276a3.364,3.364,0,0,0,.538.043,3.437,3.437,0,0,0,3.416-3.053c2.382-21.218,3.46-52.166,3.672-58.872,8.97-9.82,9.424-18.908,9.439-19.3a3.436,3.436,0,0,0-3.836-3.545l-5.493.648c3.832-11.176.662-24.127.5-24.773a3.436,3.436,0,0,0-5.751-1.6C118.585,47.644,87.773,62.649,75.108,68.523a14.356,14.356,0,0,0-8.12,14.243l4.4,45.466.587,26.287-16.848,9.065a3.442,3.442,0,0,0-1.248,1.146L5.53,238.664a3.436,3.436,0,0,0,.389,4.251l37.5,39.349Zm-.309-68.337a250.189,250.189,0,0,1,20.888-24v44.668C61.181,255.4,52.324,246.872,46.045,240.186Zm58.461-97.4-25.723,8.962-.414-18.556a214.03,214.03,0,0,0,26.137,7.638ZM78,74.757c14.354-6.657,38.878-18.831,53.173-30.412.544,5.5.481,13.689-3.456,19.42a3.435,3.435,0,0,0,3.234,5.358l6.958-.821a32.036,32.036,0,0,1-7.479,11.662,3.437,3.437,0,0,0-.967,2.293c-.006.219-.389,13.578-1.284,29.3-6.688.443-13.517-2.355-13.636-2.4a3.436,3.436,0,0,0-2.669,6.332,42.52,42.52,0,0,0,14.857,2.994c.341,0,.686-.011,1.03-.023-.434,6.713-.958,13.565-1.585,19.79-8.96-1.593-32.77-6.191-48.135-12.567L73.832,82.154A7.447,7.447,0,0,1,78,74.757Z" style="fill:#464965"/><path d="M334.767,100.762v-.06a42.719,42.719,0,0,0-6.107-22.06C299.433,30.224,215.7,27.509,181.054,28.593a16.222,16.222,0,0,0-15.778,16.295v71.075a16.294,16.294,0,0,0,16.756,16.3c20-.578,58.487.151,91.611,11.5a3.436,3.436,0,1,0,2.228-6.5c-34.15-11.7-73.573-12.456-94.037-11.867a9.258,9.258,0,0,1-6.825-2.657,9.364,9.364,0,0,1-2.861-6.771V44.888a9.381,9.381,0,0,1,9.121-9.426c14.876-.466,44.1-.3,72.685,6.009,33.87,7.479,57.025,21.179,68.823,40.722a35.851,35.851,0,0,1,5.117,18.534v0c0,.175-.19,8.19-7.51,18.542-6.905,9.763-21.71,23.638-53.027,34.288a17.917,17.917,0,0,0-12.182,16.947v77.878a13.406,13.406,0,0,0,13.33,13.384,13.46,13.46,0,0,0,4.352-.729c35.887-12.225,50.815-31.078,57.019-44.74,6.324-13.925,5.17-25.339,4.891-27.4ZM270.641,254.534a6.5,6.5,0,0,1-8.593-6.15V170.506a11.046,11.046,0,0,1,7.522-10.441c34.391-11.695,50.645-27.3,58.324-39.581v68.661a3.468,3.468,0,0,0,.047.566C328.013,190.139,334.364,232.825,270.641,254.534Z" style="fill:#464965"/></g></svg>