<svg id="Layer_1" data-name="Layer 1" xmlns="http://www.w3.org/2000/svg" viewBox="0 0 340 340"><polygon points="260.679 224.735 228.29 188.027 215.93 211.217 239.387 236.533 260.679 224.735" style="fill:#fff"/><polygon points="196.781 190.552 215.93 211.217 228.29 188.027 213.339 171.083 196.781 190.552" style="fill:#a5b4e0"/><polygon points="84.783 158.344 33.244 215.825 54.536 227.623 96.609 182.593 84.783 158.344" style="fill:#a5b4e0"/><path d="M190.386,278.515s23.49,5.589,23.927,33.2a3.641,3.641,0,0,1-3.63,3.708H164.209S166.249,289.2,190.386,278.515Z" style="fill:#464965"/><path d="M116.417,278.515s-23.49,5.589-23.927,33.2a3.641,3.641,0,0,0,3.63,3.708h46.474S140.554,289.2,116.417,278.515Z" style="fill:#464965"/><polygon points="175.798 280.135 131.005 280.135 140.445 230.033 175.798 227.943 175.798 280.135" style="fill:#fff"/><path d="M131.005,280.135h13.108V242.292a9.418,9.418,0,0,1,7.464-9.213l24.221-5.136V189.189H131.005Z" style="fill:#a5b4e0"/><path d="M153.4,121.941c-22.177,0-37.89,13.433-37.89,13.433,12.282,17.655,37.89,16.12,37.89,16.12s25.607,1.535,37.889-16.12C191.291,135.374,175.578,121.941,153.4,121.941Z" style="fill:#464965"/><path d="M140.523,136.906V113.949H166.28V136.66Q153.4,145.114,140.523,136.906Z" style="fill:#fff"/><path d="M166.28,136.66a38.858,38.858,0,0,1-12.878,2.352,41.426,41.426,0,0,1-12.879-2.106v18.74H166.28Z" style="fill:#464965"/><circle cx="101.757" cy="168.153" r="21.229" style="fill:#464965"/><circle cx="205.046" cy="168.153" r="21.229" style="fill:#464965"/><path d="M215.692,139.407a31.414,31.414,0,0,0-16.4-9.9,15.749,15.749,0,0,0-14.806,4.233c-5.054,5.1-14.962,12.168-31.083,12.168l-39.651.244,10.813,59.232c5.047,5.886,14.606,9.171,28.838,9.762H172.65a31.423,31.423,0,0,0,30.956-25.928c.962-5.44,1.818-11.452,2.369-17.748a19.277,19.277,0,0,1,3.87-10.07l6.317-8.239A10.83,10.83,0,0,0,215.692,139.407Z" style="fill:#b6bff9"/><polygon points="140.523 118.032 166.28 113.949 166.28 91.591 140.523 91.591 140.523 118.032" style="fill:#464965"/><path d="M145.679,104H124.093A19.39,19.39,0,0,1,104.7,84.608V43.968a19.391,19.391,0,0,1,19.391-19.391h21.586Z" style="fill:#464965"/><rect x="130.382" y="24.577" width="63.161" height="79.422" rx="12.752" style="fill:#464965"/><rect x="136.845" y="32.704" width="50.235" height="63.168" rx="10.142" style="fill:#fff"/><path d="M188.331,262.4,175.8,253.774s-8.6,15.383-22.4,15.383a19.908,19.908,0,0,1-9.29-2.388l-15.265,2.984,16.987,45.67h23.175a118.086,118.086,0,0,1,21.377-36.908A10.9,10.9,0,0,0,188.331,262.4Z" style="fill:#b6bff9"/><path d="M20.493,215.921c7.725-3.432,20.367-5.319,35.976,6a61.406,61.406,0,0,1,6,5.032l39.289,36.989L91.2,278.515S38.866,260.921,16.79,229.136A8.914,8.914,0,0,1,20.493,215.921Z" style="fill:#728ad8"/><path d="M235.382,245.323c-2.955-7.92-4.067-20.654,8.187-35.543a61.4,61.4,0,0,1,5.388-5.682l39.316-36.96,13.9,11.427s-20.752,51.162-53.824,71.259A8.913,8.913,0,0,1,235.382,245.323Z" style="fill:#b6bff9"/><path d="M288.273,167.138l.576-.89a24.322,24.322,0,0,0,3.9-13.211V132.3h3.638a9.339,9.339,0,0,1,9.339,9.339v5.286h11.148a7.924,7.924,0,0,1,7.924,7.924V168.2a7.924,7.924,0,0,1-6.679,7.825l-15.949,2.538Z" style="fill:#fff"/><rect x="134.126" y="170.317" width="6.872" height="10.609" rx="3.436" transform="translate(-10.464 8.725) rotate(-3.5)" style="fill:#fff"/><path d="M189.185,60.852h-8.557a3.435,3.435,0,0,0-3.045,1.845l-5.368,10.274L160.158,46.453a3.542,3.542,0,0,0-1.933-1.885,3.436,3.436,0,0,0-4.258,1.565l-8.009,14.719H134.741v6.872H148a3.437,3.437,0,0,0,3.018-1.793l5.691-10.46,12.14,26.7a3.492,3.492,0,0,0,3.093,2.064c.045,0,.09,0,.138,0a3.461,3.461,0,0,0,2.976-1.866l7.654-14.647h6.475Z" style="fill:#464965"/><path d="M145.834,315.423c-1.866-12.64-7.31-27.776-7.31-27.776-3.967-14.4,5.589-20.878,5.589-20.878h0c-8.258-4.321-13.108-13-13.108-13L118.472,262.4a10.9,10.9,0,0,0-2.055,16.117,118.086,118.086,0,0,1,21.377,36.908Z" style="fill:#728ad8"/><path d="M131.005,195.694V167.138c0-22.05,22.4-21.229,22.4-21.229-16.122,0-26.03-7.065-31.084-12.168a15.749,15.749,0,0,0-14.806-4.233,31.414,31.414,0,0,0-16.4,9.9,10.828,10.828,0,0,0-.469,13.755l6.316,8.239a19.277,19.277,0,0,1,3.87,10.07c.551,6.3,1.407,12.308,2.37,17.748a31.421,31.421,0,0,0,30.955,25.928H153.4C131.537,214.025,131.005,195.694,131.005,195.694Z" style="fill:#728ad8"/><rect x="118.587" y="170.317" width="6.872" height="10.609" rx="3.436" transform="translate(-10.493 7.776) rotate(-3.5)" style="fill:#e6e6f0"/><path d="M101.771,263.947l6.729,4.537a11.772,11.772,0,0,1,4.787,12.817l-5.507,20.48A8.754,8.754,0,0,1,93.1,305.656c-4.391-4.437-7.4-12.07-3.359-25.11Z" style="fill:#a5b4e0"/><path d="M86.222,280.372c-3.9,13.348-.758,21.522,3.17,26.286,0,.024-.012.045-.015.069a51.642,51.642,0,0,0-.241,8.887,3.435,3.435,0,0,0,3.43,3.245H214.237a3.437,3.437,0,0,0,3.431-3.245c1.405-25.267-14.392-35.426-22.229-38.892a14.293,14.293,0,0,0-5.16-17.155l-11.045-7.6v-34.01A34.823,34.823,0,0,0,202.5,201.777l27.627,29.815a33.921,33.921,0,0,0,2.037,14.932,12.34,12.34,0,0,0,17.969,6.237c30.506-18.538,50.369-61.612,54.464-71.1l14.064-2.237a11.31,11.31,0,0,0,9.575-11.219V154.848a11.373,11.373,0,0,0-11.36-11.36h-7.712v-1.85a12.79,12.79,0,0,0-12.775-12.775h-3.638a3.436,3.436,0,0,0-3.436,3.436v20.738a20.84,20.84,0,0,1-3.35,11.345l-.348.539s-39.647,37.286-39.962,37.591l-19.329-21.907a24.636,24.636,0,0,0-4.856-30.857,14.279,14.279,0,0,0-3.2-12.614h0a35.022,35.022,0,0,0-18.177-10.968,19.221,19.221,0,0,0-13.532,1.8,69.981,69.981,0,0,0-16.843-7.2v-13.33h11.076A16.206,16.206,0,0,0,196.98,91.247V37.329a16.206,16.206,0,0,0-16.188-16.188h-56.7a22.854,22.854,0,0,0-22.828,22.827V84.609a22.853,22.853,0,0,0,22.828,22.826h12.994v13.33a70.178,70.178,0,0,0-16.842,7.2,19.221,19.221,0,0,0-13.533-1.8,35.022,35.022,0,0,0-18.177,10.968,14.28,14.28,0,0,0-3.2,12.626,24.763,24.763,0,0,0-6.956,10.577l-44.387,49.5a33.9,33.9,0,0,0-14.9,2.941,12.349,12.349,0,0,0-5.13,18.315C33.149,258.712,73.477,275.574,86.222,280.372Zm8.009-116.881a15.842,15.842,0,0,1,3.174,8.28c.4,4.524.98,9.205,1.73,13.959a17.763,17.763,0,0,1-10.517-29.559Zm6.243,29.293a34.793,34.793,0,0,0,27.1,25.174v34.009l-11.045,7.6a14.334,14.334,0,0,0-5.249,6.695c-.278-.217-47.865-43.1-47.865-43.1l29.783-31.877A24.485,24.485,0,0,0,100.474,192.784ZM153.4,265.721c-10.027,0-17.177-10.118-18.96-12.912V218.583h37.921v34.225C170.574,255.609,163.425,265.721,153.4,265.721ZM95.542,303.239c-4.581-4.628-5.482-11.74-2.681-21.142l9.743-13.444,3.975,2.68a8.336,8.336,0,0,1,3.389,9.076l-5.507,20.48a5.317,5.317,0,0,1-8.919,2.35Zm20.674-19.6a115.4,115.4,0,0,1,16.556,28.347H109.311Zm94.665,28.347H174.032a114.7,114.7,0,0,1,17.512-29.516C196.785,284.386,210.66,291.393,210.881,311.987Zm-21.326-41.563a7.386,7.386,0,0,1-1.767,5.842,121.311,121.311,0,0,0-21.162,35.721H140.177a121.305,121.305,0,0,0-21.162-35.722,7.459,7.459,0,0,1,1.4-11.037l9.644-6.635c3.6,4.96,11.747,14,23.338,14s19.741-9.04,23.339-14l9.644,6.635A7.37,7.37,0,0,1,189.555,270.424Zm16.079-75.374c.254-.745.49-1.5.7-2.266a24.574,24.574,0,0,0,15.647-6.719l18.969,21.5-.029.033a49.626,49.626,0,0,0-9.055,15.758Zm90.551-59.315h.2a5.91,5.91,0,0,1,5.9,5.9v5.286a3.436,3.436,0,0,0,3.436,3.436h11.148a4.494,4.494,0,0,1,4.488,4.488V168.2a4.468,4.468,0,0,1-3.783,4.432l-14.421,2.294-10.392-8.544a27.681,27.681,0,0,0,3.419-13.347ZM251.311,206.6l37.114-34.891,9.568,7.868c-4.465,10.074-23.659,50.432-51.431,67.309a5.478,5.478,0,0,1-7.961-2.766c-2.681-7.189-3.536-18.6,7.621-32.158A57.819,57.819,0,0,1,251.311,206.6Zm-28.472-38.449a17.8,17.8,0,0,1-15.171,17.577c.751-4.757,1.334-9.438,1.73-13.959a15.84,15.84,0,0,1,3.174-8.28l5.618-7.328A17.688,17.688,0,0,1,222.839,168.153Zm-42.1-35.584a36.538,36.538,0,0,1-11.02,6.905V127.929A63,63,0,0,1,180.736,132.569ZM143.959,121.1l18.885-3.047v23.485a47.946,47.946,0,0,1-18.885,0Zm18.885-10.008-18.885,3.048v-6.7h18.885Zm17.948-83.075a9.326,9.326,0,0,1,9.316,9.316V91.247a9.326,9.326,0,0,1-9.316,9.316H143.135a9.326,9.326,0,0,1-9.316-9.316V37.329a9.326,9.326,0,0,1,9.316-9.316Zm-72.654,56.6V43.968a15.973,15.973,0,0,1,15.955-15.955h5.825a16.082,16.082,0,0,0-2.971,9.316V91.247a16.079,16.079,0,0,0,2.971,9.316h-5.825A15.972,15.972,0,0,1,108.138,84.609Zm28.949,54.865a36.563,36.563,0,0,1-11.021-6.905,63.565,63.565,0,0,1,11.021-4.632Zm-43.4,2.207a27.8,27.8,0,0,1,14.625-8.831,12.021,12.021,0,0,1,2.81-.331,12.359,12.359,0,0,1,8.754,3.64c5.957,6.016,16.609,13.187,33.524,13.187s27.568-7.171,33.525-13.187a12.326,12.326,0,0,1,11.565-3.309,27.808,27.808,0,0,1,14.625,8.831,7.408,7.408,0,0,1,.318,9.391l-6.315,8.238a22.69,22.69,0,0,0-4.567,11.862c-.491,5.612-1.275,11.482-2.33,17.449a27.946,27.946,0,0,1-27.572,23.09h-38.5a27.946,27.946,0,0,1-27.572-23.09c-1.054-5.962-1.838-11.832-2.33-17.449a22.694,22.694,0,0,0-4.566-11.862l-6.317-8.238A7.408,7.408,0,0,1,93.688,141.681ZM77.36,171.771a24.682,24.682,0,0,0,9.607,16.108L58.045,218.834a49.254,49.254,0,0,0-15.9-7.784ZM18.844,222.589a5.453,5.453,0,0,1,3.044-3.528,26.9,26.9,0,0,1,10.975-2.334c6.034,0,13.326,1.986,21.587,7.98a57.729,57.729,0,0,1,5.663,4.753L97.2,264.377l-7.27,10.03C79.6,270.57,38.17,253.894,19.613,227.175A5.44,5.44,0,0,1,18.844,222.589Z" style="fill:#464965"/></svg>