<svg xmlns="http://www.w3.org/2000/svg" viewBox="0 0 340 340"><g id="Layer_19" data-name="Layer 19"><path d="M297.733,220.271a101.586,101.586,0,0,1-19.752-19.279v23.241a120.305,120.305,0,0,0,10.393,8.653C302.28,243.2,308.457,257.44,304.9,270.969a30.461,30.461,0,0,1-3.32,7.9l.011.022-.023-.028c-4.692,7.849-12.918,13.7-23.583,16.721v16.178c13.105-2.9,24.116-9.143,31.8-17.762l0-.014.01.019a46.124,46.124,0,0,0,10.3-19.035C325.262,255.3,316.7,234.341,297.733,220.271Z" style="fill:#8c87a5"/><path d="M294.725,217.951a101.256,101.256,0,0,1-16.744-16.959v23.241a120.305,120.305,0,0,0,10.393,8.653,53.147,53.147,0,0,1,6.351,5.524Z" style="fill:#464965"/><path d="M280.416,47.415H99.356s-20.48,0-20.48-17.247,20.48-17.247,20.48-17.247h181.06A10.674,10.674,0,0,1,291.09,23.6V36.741A10.674,10.674,0,0,1,280.416,47.415Z" style="fill:#fff"/><path d="M88.682,36.741V23.6A10.674,10.674,0,0,1,99.356,12.921H74.365A10.674,10.674,0,0,0,63.691,23.6V36.741A10.674,10.674,0,0,0,74.365,47.415H99.356A10.674,10.674,0,0,1,88.682,36.741Z" style="fill:#464965"/><path d="M58.442,191.035l.1-.12C65.3,182.79,71.4,174.549,76.8,166.677v-36.86a353.674,353.674,0,0,1-33.315,48.5,153.517,153.517,0,0,0-18.9,28.988,60.5,60.5,0,0,0-2.568,47.156c5.492,15.082,16.905,26.118,31.062,33.335,9.361,4.772,23.717,4.792,23.717,4.792V271.742a37.18,37.18,0,0,1-16.164-2.78c-9.6-4.236-16.521-11.213-20.165-21.223a40.772,40.772,0,0,1,1.739-31.777A135.319,135.319,0,0,1,58.442,191.035Z" style="fill:#464965"/><circle cx="234.575" cy="30.168" r="5.255" style="fill:#464965"/><path d="M280.416,327.079H99.356s-20.48,0-20.48-17.247,20.48-17.247,20.48-17.247h181.06a10.674,10.674,0,0,1,10.674,10.674V316.4A10.674,10.674,0,0,1,280.416,327.079Z" style="fill:#fff"/><path d="M88.682,316.4V303.259a10.674,10.674,0,0,1,10.674-10.674H74.365a10.674,10.674,0,0,0-10.674,10.674V316.4a10.674,10.674,0,0,0,10.674,10.674H99.356A10.674,10.674,0,0,1,88.682,316.4Z" style="fill:#464965"/><polygon points="277.981 292.585 89.193 280.929 94.439 62.894 277.981 62.978 277.981 292.585" style="fill:#e6eaff"/><path d="M220.944,122.621c-9.115-36.7-.792-62.959-.792-62.959H202.378s-8.323,26.259.792,62.959a54.346,54.346,0,0,1-.991,30.96h0c-6.984,20.777-24.786,32-24.786,32l17.774,7.128s16.024-13.292,23.631-34.182h0A60.649,60.649,0,0,0,220.944,122.621Z" style="fill:#464965"/><path d="M277.981,277H122.033a18.81,18.81,0,0,1-18.81-18.81V95.676a22.506,22.506,0,0,1,21.009-22.455L277.981,62.978V47.415H76.8v245.17H277.981Z" style="fill:#464965"/><circle cx="136.566" cy="249.194" r="12.243" style="fill:#fff"/><circle cx="243.614" cy="244.746" r="13.103" style="fill:#fff"/><circle cx="142.633" cy="95.986" r="10.046" style="fill:#fff"/><path d="M216.961,172.275a15.172,15.172,0,0,0-9.315,5.765,3.987,3.987,0,0,1-5.527.681l-6.493-4.893a5.125,5.125,0,0,1-1.788-5.73,35.72,35.72,0,0,0-29.113-46.841A37.938,37.938,0,0,0,133.424,132a41.032,41.032,0,0,0-11.782,34.166c1.8,15.962,10.237,49.346,48.813,62.181,30.873,10.272,48.565-.482,57.727-10.58a34.576,34.576,0,0,0,8.941-28.709,27.029,27.029,0,0,0-2.218-7.274A16.686,16.686,0,0,0,216.961,172.275Z" style="fill:#fc8db4"/><circle cx="167.804" cy="152.949" r="4.675" style="fill:#464965"/><circle cx="194.185" cy="258.072" r="5.869" style="fill:#fff"/><circle cx="260.626" cy="30.168" r="5.255" style="fill:#464965"/><rect x="243.411" y="78.377" width="20.265" height="64.758" rx="10.132" style="fill:#fff"/><path d="M294.526,36.74V23.6a14.126,14.126,0,0,0-14.11-14.11H74.365A14.126,14.126,0,0,0,60.255,23.6V36.74A14.118,14.118,0,0,0,73.365,50.8v78.237a3.477,3.477,0,0,0-.406.559,350.024,350.024,0,0,1-32.09,46.491,156.573,156.573,0,0,0-19.364,29.7,63.949,63.949,0,0,0-2.712,49.847c5.421,14.889,16.739,27.068,32.73,35.221a47.628,47.628,0,0,0,11.715,3.759,14.026,14.026,0,0,0-2.983,8.646V316.4a14.126,14.126,0,0,0,14.11,14.11H280.416a14.126,14.126,0,0,0,14.11-14.11v-6.791c14.807-7.267,25.048-19.2,28.883-33.773,5.541-21.055-3.513-43.406-23.628-58.33a98.437,98.437,0,0,1-18.253-17.57c-.034-.042-.076-.072-.111-.112V50.8A14.118,14.118,0,0,0,294.526,36.74ZM284.1,289.653a14.013,14.013,0,0,0-2.68-.453V231.806q2.409,1.982,4.91,3.839c12.737,9.45,18.437,22.328,15.246,34.449C299.366,278.478,293.166,285.4,284.1,289.653ZM204.264,157.786l9.943,2.958a77.522,77.522,0,0,1-6.509,12.141,3.137,3.137,0,0,0-.172.33,20.892,20.892,0,0,0-2.886,3.1l-7.43-5.6A63.278,63.278,0,0,0,204.264,157.786Zm-14.831,12.121a26.193,26.193,0,0,1-6.55,7.145,3.436,3.436,0,1,0,3.963,5.614,31.085,31.085,0,0,0,6.443-6.3l8.158,6.149a21.244,21.244,0,0,0-.362,9.589,3.438,3.438,0,0,0,3.375,2.809,3.5,3.5,0,0,0,.632-.059,3.437,3.437,0,0,0,2.75-4.006,13.427,13.427,0,0,1,.748-7.95c2.153-4.089,5.183-6.528,9.007-7.249A13.245,13.245,0,0,1,231.8,183.26a23.631,23.631,0,0,1,1.929,6.352c1.5,9.1-1.451,18.517-8.1,25.841-8.785,9.681-25.3,19.211-54.1,9.629-35.967-11.967-44.562-42.294-46.484-59.307-1.331-11.783,2.691-23.489,10.761-31.313a34.814,34.814,0,0,1,24.222-10.07,33.108,33.108,0,0,1,4.245.273,32.272,32.272,0,0,1,25.149,45.242ZM217.61,123.45a56.851,56.851,0,0,1-1.041,30.827l-10.128-3.013a58.139,58.139,0,0,0,.063-29.471,134.692,134.692,0,0,1-3.021-50.408l10.939-.729A141.5,141.5,0,0,0,217.61,123.45Zm-17.775,0a50.907,50.907,0,0,1-.907,29.073,38.671,38.671,0,0,0-33.764-34.674,41.349,41.349,0,0,0-34.132,11.68c-9.587,9.3-14.374,23.134-12.8,37.018,1.7,15.008,10.073,51.391,51.143,65.055A78.041,78.041,0,0,0,194,235.976c17.813,0,29.49-7.925,36.73-15.9,8.063-8.887,11.631-20.4,9.787-31.577a30.525,30.525,0,0,0-2.508-8.2,20.211,20.211,0,0,0-19.911-11.642c6.186-12.094,10.776-28.374,6.185-46.862a133.694,133.694,0,0,1-2.845-51.6l53.111-3.539V273.564H122.034A15.391,15.391,0,0,1,106.66,258.19V95.676a19.116,19.116,0,0,1,17.8-19.026l72.031-4.8A140.16,140.16,0,0,0,199.835,123.45Zm74.71-63.687L124,69.793A26.006,26.006,0,0,0,99.787,95.676V258.19a22.271,22.271,0,0,0,22.247,22.246H274.545v8.713H80.237V50.851H274.545ZM73.365,268.286a31.494,31.494,0,0,1-11.341-2.468A32.733,32.733,0,0,1,43.7,246.563,37.3,37.3,0,0,1,45.3,217.478a132.754,132.754,0,0,1,15.742-24.191l.149-.176c4.094-4.926,8.17-10.17,12.179-15.649ZM287.654,23.6V36.74a7.245,7.245,0,0,1-7.238,7.238H98.015c-3.168,0-5.9-4.036-5.9-7.238V23.6c0-3.086,2.673-7.238,5.644-7.238H280.416A7.246,7.246,0,0,1,287.654,23.6ZM67.127,36.74V23.6a7.246,7.246,0,0,1,7.238-7.238H87.247a14.092,14.092,0,0,0-2,7.238V36.74a14.053,14.053,0,0,0,2.026,7.238H74.365A7.245,7.245,0,0,1,67.127,36.74ZM25.251,253.282a57.041,57.041,0,0,1,2.422-44.464,149,149,0,0,1,18.455-28.307,343.619,343.619,0,0,0,27.237-38.24v23.408c-.089.1-27.267,34.582-34.239,48.768a44.225,44.225,0,0,0-1.884,34.468c3.88,10.657,11.285,18.459,22.007,23.191a38.5,38.5,0,0,0,14.116,3.054v13.874c-6.964-.435-14.419-2.109-18.721-4.3C40.231,277.384,30.066,266.508,25.251,253.282ZM67.127,316.4V303.26a7.245,7.245,0,0,1,7.238-7.238H87.234a14.114,14.114,0,0,0-1.988,7.238V316.4a14.058,14.058,0,0,0,2.022,7.238h-12.9A7.246,7.246,0,0,1,67.127,316.4Zm220.527,0a7.246,7.246,0,0,1-7.238,7.238H98.055a7.321,7.321,0,0,1-5.937-7.238V303.26c0-3.4,2.929-7.238,6.151-7.238H280.416a7.245,7.245,0,0,1,7.238,7.238Zm8.032-93.375c17.812,13.215,25.888,32.781,21.077,51.063-3.059,11.622-10.916,21.349-22.306,27.795a14.041,14.041,0,0,0-3.57-8.053c8.846-5.211,14.932-12.874,17.332-21.992,3.932-14.937-2.722-30.532-17.8-41.717-3.062-2.272-6.041-4.715-8.852-7.261-.048-.044-.1-.072-.152-.112V210.291A106.2,106.2,0,0,0,295.686,223.03Z" style="fill:#464965"/></g></svg>