<svg xmlns="http://www.w3.org/2000/svg" viewBox="0 0 340 340"><g id="Layer_24" data-name="Layer 24"><path d="M141.18,12.211a162.148,162.148,0,0,0,45.339,10.653,9.5,9.5,0,0,1,8.765,9.451V86.094H149.907V43.626s-4.945-2.618-8.727-9.6l7.272-2.909S138.853,26.464,141.18,12.211Z" style="fill:#ffcaca"/><path d="M270.3,101.981h-8.368V99.735a8.142,8.142,0,0,0-8.142-8.142,5.247,5.247,0,0,0-5.247,5.247v5.141H183.948V86.094H159.07v15.887H94.475V96.84a5.247,5.247,0,0,0-5.247-5.247,8.142,8.142,0,0,0-8.142,8.142v2.246H72.719a5.962,5.962,0,0,0-5.963,5.962v10.99a5.963,5.963,0,0,0,5.963,5.963h72.134v60.56h53.312V124.9H270.3a5.962,5.962,0,0,0,5.962-5.963v-10.99A5.962,5.962,0,0,0,270.3,101.981Z" style="fill:#ffcaca"/><path d="M207.851,314.3l-9.686-4.9V203.379H144.853V309.4l-9.686,4.9a8.666,8.666,0,0,0-4.754,7.731v5.76h82.192v-5.76A8.664,8.664,0,0,0,207.851,314.3Z" style="fill:#ffcaca"/><polygon points="159.07 86.094 159.07 93.184 183.948 101.981 183.948 86.094 159.07 86.094" style="fill:#464965"/><rect x="12.921" y="243.232" width="83.942" height="83.942" rx="11.09" style="fill:#464965"/><path d="M65.835,287.28,53.883,275.329a8.535,8.535,0,1,0-14.427-4.494,8.534,8.534,0,1,0,4.494,14.428L55.9,297.214a8.535,8.535,0,1,0,14.428,4.494,8.534,8.534,0,1,0-4.494-14.428Z" style="fill:#fff"/><path d="M174.945,327.789V207.778a3.436,3.436,0,0,0-6.872,0V327.789Z" style="fill:#ef9199"/><path d="M170.091,73.857a23.775,23.775,0,0,1-6.8-1.015A2.946,2.946,0,1,1,165,67.206c2.943.9,8.618,1.815,13.527-2.1a2.945,2.945,0,1,1,3.672,4.605A19.06,19.06,0,0,1,170.091,73.857Z" style="fill:#ef9199"/><path d="M79.646,50.032a3.43,3.43,0,0,0-4.363,2.139,26.528,26.528,0,1,1-6.348-27.337,3.436,3.436,0,0,0,4.859-4.859A33.386,33.386,0,1,0,81.785,54.4,3.435,3.435,0,0,0,79.646,50.032Z" style="fill:#b3b3d0"/><path d="M82.568,35.423A3.436,3.436,0,0,0,75.905,37.1q.178.71.318,1.434a3.436,3.436,0,0,0,3.37,2.787,3.473,3.473,0,0,0,.654-.063,3.435,3.435,0,0,0,2.724-4.024C82.853,36.628,82.72,36.023,82.568,35.423Z" style="fill:#b3b3d0"/><path d="M264.3,21.605h34.654a3.436,3.436,0,0,0,0-6.872H264.3a3.436,3.436,0,1,0,0,6.872Z" style="fill:#b3b3d0"/><path d="M241.61,40.512h57.348a3.436,3.436,0,0,0,0-6.872H241.61a3.436,3.436,0,0,0,0,6.872Z" style="fill:#b3b3d0"/><path d="M277.058,55.626a3.436,3.436,0,0,0-3.436-3.436H241.61a3.436,3.436,0,0,0,0,6.872h32.012A3.437,3.437,0,0,0,277.058,55.626Z" style="fill:#b3b3d0"/><path d="M73.692,157.387H39.039a3.436,3.436,0,0,0,0,6.872H73.692a3.436,3.436,0,0,0,0-6.872Z" style="fill:#b3b3d0"/><path d="M73.692,176.294H16.345a3.436,3.436,0,0,0,0,6.872H73.692a3.436,3.436,0,1,0,0-6.872Z" style="fill:#b3b3d0"/><path d="M48.357,194.843H16.345a3.437,3.437,0,0,0,0,6.873H48.357a3.437,3.437,0,0,0,0-6.873Z" style="fill:#b3b3d0"/><path d="M268.558,279.5a3.437,3.437,0,0,0,3.436,3.436h34.654a3.437,3.437,0,0,0,0-6.873H271.994A3.437,3.437,0,0,0,268.558,279.5Z" style="fill:#b3b3d0"/><path d="M306.648,294.972H249.3a3.436,3.436,0,0,0,0,6.872h57.348a3.436,3.436,0,0,0,0-6.872Z" style="fill:#b3b3d0"/><path d="M281.312,313.521H249.3a3.436,3.436,0,0,0,0,6.872h32.012a3.436,3.436,0,0,0,0-6.872Z" style="fill:#b3b3d0"/><path d="M241.623,21.605h4.71a3.436,3.436,0,1,0,0-6.872h-4.71a3.436,3.436,0,1,0,0,6.872Z" style="fill:#b3b3d0"/><path d="M16.357,164.259h4.71a3.436,3.436,0,1,0,0-6.872h-4.71a3.436,3.436,0,0,0,0,6.872Z" style="fill:#b3b3d0"/><path d="M249.312,276.065a3.436,3.436,0,1,0,0,6.872h4.71a3.436,3.436,0,1,0,0-6.872Z" style="fill:#b3b3d0"/><path d="M144.853,185.456v17.923l19.09,11.234a14.918,14.918,0,0,0,15.132,0l19.09-11.234V185.456Z" style="fill:#464965"/><rect x="243.137" y="162.883" width="83.942" height="83.942" rx="11.09" style="fill:#f76b99"/><path d="M304.484,193.48c-8.335-9.54-19.376,2.546-19.376,2.546s-11.041-12.086-19.376-2.546c-10.026,11.473,1.236,18.63,4.067,20.175.79.431,1.574.869,2.346,1.33,11.445,6.837,12.963,10.758,12.963,10.758s1.517-3.921,12.962-10.758c.772-.461,1.557-.9,2.346-1.33C303.247,212.11,314.509,204.953,304.484,193.48Z" style="fill:#fff"/><path d="M315.989,159.447H254.227A14.525,14.525,0,0,0,239.7,173.973v27.445h-7.847a11.063,11.063,0,0,1-11.063-11.063V165.311a17.935,17.935,0,0,0-17.935-17.935H201.6V128.331h68.7a9.4,9.4,0,0,0,9.4-9.4v-10.99a9.4,9.4,0,0,0-9.4-9.4h-4.992a11.6,11.6,0,0,0-11.883-10.382,8.673,8.673,0,0,0-8.318,8.71v1.672H187.385V89.53h7.9a3.436,3.436,0,0,0,3.436-3.436V32.315a13.005,13.005,0,0,0-11.928-12.877,160.17,160.17,0,0,1-44.268-10.39,3.448,3.448,0,0,0-4,.977,3.556,3.556,0,0,0-.749,1.719c-1.452,9.042,1.288,14.845,4.147,18.286l-2.018.806a3.437,3.437,0,0,0-1.744,4.827,29.906,29.906,0,0,0,8.311,9.8V86.094a3.436,3.436,0,0,0,3.436,3.436h5.727v9.014H97.911V96.871a8.671,8.671,0,0,0-8.317-8.709A11.6,11.6,0,0,0,77.71,98.544H72.719a9.4,9.4,0,0,0-9.4,9.4v10.989a9.4,9.4,0,0,0,9.4,9.4h68.7v97.321a3.492,3.492,0,0,0,2.719,3.454,3.44,3.44,0,0,0,4.153-3.364V209.388l13.912,8.187a18.313,18.313,0,0,0,5.872,2.205V324.353H133.85v-2.326a5.224,5.224,0,0,1,2.868-4.663l9.686-4.9a3.433,3.433,0,0,0,1.885-3.065V241.982H154.8a3.493,3.493,0,0,0,3.455-2.72,3.441,3.441,0,0,0-3.364-4.153H137.233A17.935,17.935,0,0,0,119.3,253.044v18.728a11.063,11.063,0,0,1-11.062,11.063H100.3V254.321A14.525,14.525,0,0,0,85.773,239.8H24.011A14.525,14.525,0,0,0,9.485,254.321v61.763A14.526,14.526,0,0,0,24.011,330.61H85.773A14.526,14.526,0,0,0,100.3,316.084V289.707h7.937a17.935,17.935,0,0,0,17.935-17.935V253.044a11.062,11.062,0,0,1,11.062-11.062h4.184v65.3l-7.8,3.944a12.1,12.1,0,0,0-6.639,10.8v5.76a3.436,3.436,0,0,0,3.436,3.436h82.191a3.436,3.436,0,0,0,3.436-3.436V322.03a12.1,12.1,0,0,0-6.639-10.8l-7.8-3.945V162.974a3.492,3.492,0,0,0-2.719-3.454,3.44,3.44,0,0,0-4.153,3.363v19.136H148.289V124.9a3.436,3.436,0,0,0-3.436-3.436H72.719a2.527,2.527,0,0,1-2.527-2.527V107.943a2.526,2.526,0,0,1,2.526-2.526h8.368a3.436,3.436,0,0,0,3.436-3.436V99.734a4.711,4.711,0,0,1,4.673-4.7,1.821,1.821,0,0,1,1.844,1.811v5.141a3.436,3.436,0,0,0,3.436,3.436h64.6a3.437,3.437,0,0,0,3.437-3.436V98.043l18.277,6.74a10.262,10.262,0,0,0,3.554.634h64.205a3.436,3.436,0,0,0,3.436-3.436V96.84a1.82,1.82,0,0,1,1.843-1.811,4.711,4.711,0,0,1,4.674,4.7v2.247a3.436,3.436,0,0,0,3.436,3.436H270.3a2.526,2.526,0,0,1,2.526,2.526v10.99a2.526,2.526,0,0,1-2.526,2.526H198.166a3.436,3.436,0,0,0-3.436,3.436v22.481h-9.441a3.492,3.492,0,0,0-3.455,2.719,3.44,3.44,0,0,0,3.364,4.153h17.658a11.063,11.063,0,0,1,11.063,11.063v25.044a17.935,17.935,0,0,0,17.935,17.935H239.7v27.445a14.525,14.525,0,0,0,14.526,14.526h61.762a14.525,14.525,0,0,0,14.526-14.526V173.973A14.525,14.525,0,0,0,315.989,159.447ZM93.427,316.084a7.662,7.662,0,0,1-7.654,7.653H24.011a7.662,7.662,0,0,1-7.654-7.653V254.321a7.662,7.662,0,0,1,7.654-7.653H85.773a7.662,7.662,0,0,1,7.654,7.653Zm112.874,1.28a5.2,5.2,0,0,1,2.868,4.665v2.324H174.945V219.78a18.318,18.318,0,0,0,5.873-2.205l13.912-8.187V309.4a3.434,3.434,0,0,0,1.885,3.066ZM194.73,188.892v12.523l-17.4,10.237a11.49,11.49,0,0,1-11.647,0l-17.4-10.237V188.892ZM151.54,40.6a19.206,19.206,0,0,1-5.225-4.929l3.414-1.366a3.436,3.436,0,0,0,.223-6.282c-.063-.031-5.438-2.745-5.688-10.945a167.177,167.177,0,0,0,41.981,9.209,6.1,6.1,0,0,1,5.6,6.025V82.658H153.343V43.626A3.482,3.482,0,0,0,151.54,40.6ZM162.507,89.53h18.006v7.591l-18.006-6.367ZM323.643,235.735a7.662,7.662,0,0,1-7.654,7.654H254.227a7.662,7.662,0,0,1-7.654-7.654V173.973a7.662,7.662,0,0,1,7.654-7.654h61.762a7.662,7.662,0,0,1,7.654,7.654Z" style="fill:#464965"/></g></svg>