<svg xmlns="http://www.w3.org/2000/svg" viewBox="0 0 340 340"><g id="Layer_22" data-name="Layer 22"><path d="M70.94,321.864a8.335,8.335,0,0,1-7.03-3.838c-11.524-17.951-15.35-35.231-11.37-51.36,5.773-23.4,26.065-35.146,26.926-35.635.056-.032.113-.063.17-.093q1.623-.873,3.113-1.768l4.915,16.4c-.308.185-4.922,3.635-4.922,3.635-4.751,4.033-11.553,11.338-14.038,21.622-2.77,11.461.343,24.308,9.251,38.184a8.346,8.346,0,0,1-7.015,12.853Z" style="fill:#8c87a5"/><path d="M111.746,184.936a8.343,8.343,0,0,0-6.843,9.614c.033.2,2.94,19.53-22.159,34.612v20.045a40.5,40.5,0,0,1,4.92-3.637c38.749-20.893,33.921-52.456,33.7-53.79A8.342,8.342,0,0,0,111.746,184.936Z" style="fill:#464965"/><path d="M257.609,321.865a8.346,8.346,0,0,1-3.867-15.745c12.516-6.53,19.77-15.658,21.561-27.129,2.577-16.51-6.257-36.848-23.632-54.4-29.67-29.978-38.524-68.866-38.886-70.508a8.344,8.344,0,0,1,16.294-3.608c.108.475,8.321,35.97,34.454,62.376,21.087,21.307,31.651,46.995,28.26,68.717-2.616,16.758-13.1,30.365-30.331,39.353A8.313,8.313,0,0,1,257.609,321.865Z" style="fill:#464965"/><rect x="96.418" y="63.042" width="144.169" height="209.134" style="fill:#e6eaff"/><rect x="96.418" y="63.042" width="36.312" height="209.134" style="fill:#a3abe0"/><path d="M96.418,63.042V167.609H76.066A10.049,10.049,0,0,1,66.017,157.56V73.09A10.048,10.048,0,0,1,76.066,63.042Z" style="fill:#464965"/><path d="M154.3,124.114,152.924,97.64a10.277,10.277,0,0,1,2.631-7.493c4.217-4.662,13.537-11.773,30.641-10.742l-6.165,8.965a48.236,48.236,0,0,1,6.165,4.68l-6.211,5.166-1.673,25.9Z" style="fill:#464965"/><path d="M182.738,135.6H174.6V124.114H159.327V135.6h-8.143a10.659,10.659,0,0,0-7.936,3.542,155.127,155.127,0,0,0-19.5,27.288,11.375,11.375,0,0,0,1.59,13.3,102.187,102.187,0,0,0,20.035,16.332,12.338,12.338,0,0,0,6.589,1.891h30a12.338,12.338,0,0,0,6.589-1.891,102.229,102.229,0,0,0,20.036-16.332,11.374,11.374,0,0,0,1.589-13.3,155.127,155.127,0,0,0-19.5-27.288A10.657,10.657,0,0,0,182.738,135.6Z" style="fill:#464965"/><path d="M188.288,214.305H149.833a3.436,3.436,0,0,1,0-6.872h38.455a3.436,3.436,0,1,1,0,6.872Z" style="fill:#464965"/><path d="M189.27,228.2H148.851a3.436,3.436,0,0,1,0-6.872H189.27a3.436,3.436,0,0,1,0,6.872Z" style="fill:#7f879e"/><path d="M191.234,242.1H177.143a3.436,3.436,0,0,1,0-6.872h14.091a3.436,3.436,0,0,1,0,6.872Z" style="fill:#a0aabe"/><path d="M160.545,242.1H146.887a3.436,3.436,0,1,1,0-6.872h13.658a3.436,3.436,0,1,1,0,6.872Z" style="fill:#a0aabe"/><path d="M195.161,258.365H180.538a3.436,3.436,0,1,1,0-6.872h14.623a3.436,3.436,0,1,1,0,6.872Z" style="fill:#c1cde0"/><path d="M159.072,258.365h-15.13a3.436,3.436,0,1,1,0-6.872h15.13a3.436,3.436,0,1,1,0,6.872Z" style="fill:#c1cde0"/><circle cx="81.218" cy="115.325" r="3.908" style="fill:#fff"/><circle cx="81.218" cy="90.174" r="3.908" style="fill:#f76b99"/><circle cx="81.218" cy="140.476" r="3.908" style="fill:#fff"/><path d="M147.189,160.43v16.506a1.149,1.149,0,0,1-1.984.79l-6.757-7.133a1.149,1.149,0,0,1-.1-1.463l6.757-9.372A1.15,1.15,0,0,1,147.189,160.43Z" style="fill:#e6eaff"/><path d="M186.733,160.43v16.506a1.15,1.15,0,0,0,1.985.79l6.756-7.133a1.149,1.149,0,0,0,.1-1.463l-6.756-9.372A1.15,1.15,0,0,0,186.733,160.43Z" style="fill:#e6eaff"/><rect x="215.26" y="86.266" width="11.51" height="54.88" rx="5.755" style="fill:#fff"/><rect x="215.26" y="151.346" width="11.51" height="13.448" rx="5.755" style="fill:#fff"/><path d="M241.855,42.148H138.133C128.389,43.362,122.3,49.86,126.1,63.042H260.432l-2.592-8.9A16.649,16.649,0,0,0,241.855,42.148Z" style="fill:#66667f"/><path d="M234.2,42.148H138.133q-6.052-23.933,15.838-29.227h51A29.226,29.226,0,0,1,234.2,42.148Z" style="fill:#b9b9d0"/><path d="M138.133,42.148H95.15A16.65,16.65,0,0,0,79.164,54.142l-2.592,8.9H126.1C125.128,45.743,138.133,42.148,138.133,42.148Z" style="fill:#464965"/><path d="M153.971,12.921H132.033a29.227,29.227,0,0,0-29.227,29.227h35.327C138.133,18.169,153.971,12.921,153.971,12.921Z" style="fill:#66667f"/><path d="M259.536,294.45H109.2c-14.082,1.489-21.316,14.865-16,32.629H283.816l-5.856-19.023A19.277,19.277,0,0,0,259.536,294.45Z" style="fill:#b9b9d0"/><path d="M240.586,272.176H117.218c-7.5,4.318-10.673,11.422-8.014,22.274H257.6l-4.717-13.536A13.023,13.023,0,0,0,240.586,272.176Z" style="fill:#66667f"/><path d="M109.2,294.45H77.469a19.278,19.278,0,0,0-18.425,13.606l-5.856,19.023H93.2C93.2,298.718,109.2,294.45,109.2,294.45Z" style="fill:#66667f"/><path d="M96.418,272.176a13.024,13.024,0,0,0-12.3,8.738L79.4,294.45h29.8c0-16.032,8.014-22.274,8.014-22.274Z" style="fill:#464965"/><path d="M286.58,329.12a3.435,3.435,0,0,0,.52-3.052l-5.856-19.024a22.585,22.585,0,0,0-21.194-16.009l-3.92-11.251a16.469,16.469,0,0,0-12.107-10.67V66.478h16.409a3.436,3.436,0,0,0,3.3-4.4l-2.592-8.9a20.188,20.188,0,0,0-19.284-14.469h-4.407A32.48,32.48,0,0,0,204.972,9.485h-72.94A32.54,32.54,0,0,0,99.517,38.712H95.149A20.188,20.188,0,0,0,75.865,53.181l-1.947,6.685C67.552,61.1,62.581,66.653,62.581,73.09v84.47a13.5,13.5,0,0,0,13.484,13.485H92.982v45.523a52.667,52.667,0,0,1-12.008,9.648c-.037.022-.069.049-.1.072-.921.552-1.881,1.1-2.822,1.6-.091.047-.181.1-.279.153-.914.518-22.444,12.991-28.565,37.8-3.409,13.817-1.434,28.44,5.858,43.469L49.9,326.067a3.437,3.437,0,0,0,3.284,4.448H283.816A3.435,3.435,0,0,0,286.58,329.12Zm-36.939-47.076,3.125,8.97H84.238l3.126-8.97a9.6,9.6,0,0,1,9.054-6.432H240.586A9.6,9.6,0,0,1,249.641,282.044Zm-176.43,9.381c-2.238-7.034-2.643-13.683-1.167-19.791,2.22-9.188,8.246-15.839,12.914-19.8l.008-.006a38.5,38.5,0,0,1,4.409-3.276c1.228-.664,2.428-1.354,3.607-2.059v22.622a16.469,16.469,0,0,0-12.108,10.67l-3.92,11.251A22.886,22.886,0,0,0,73.211,291.425ZM237.15,268.74H99.854V66.478h137.3ZM132.032,16.357h72.94a25.646,25.646,0,0,1,25.565,22.355H106.42C107.89,25.959,118.608,16.357,132.032,16.357ZM82.463,55.1a13.281,13.281,0,0,1,12.686-9.519H241.855A13.281,13.281,0,0,1,254.541,55.1l1.312,4.5H81.152Zm-6.4,109.07a6.621,6.621,0,0,1-6.612-6.613V73.09c0-3.522,3.327-6.612,7.12-6.612H92.982v97.7Zm16.917,61.918v12.274c-2.143,1.433-4.42,2.812-6.8,4.1V231.075A63.758,63.758,0,0,0,92.982,226.091Zm-37.106,41.4c4.5-18.226,18.368-28.923,23.431-32.305v12.464c-5.238,4.718-11.48,12.177-13.943,22.371-1.791,7.409-1.329,15.365,1.352,23.682a22.518,22.518,0,0,0-7.9,7.059C54.273,289.2,53.276,278.028,55.876,267.49Zm1.965,56.153,4.488-14.577a15.76,15.76,0,0,1,15.139-11.18H259.536a15.762,15.762,0,0,1,15.14,11.18l4.487,14.577Z" style="fill:#464965"/></g></svg>