<svg xmlns="http://www.w3.org/2000/svg" viewBox="0 0 340 340"><g id="Layer_26" data-name="Layer 26"><path d="M276.857,109.123h0a16.557,16.557,0,0,1,20.494-10.467l16.715,5.1-7.333,18.562Z" style="fill:#464965"/><path d="M147.912,187.828a3.439,3.439,0,0,1-2.652-4.982l18.565-36.175a3.436,3.436,0,1,1,6.114,3.136l-18.565,36.176A3.435,3.435,0,0,1,147.912,187.828Z" style="fill:#464965"/><circle cx="141.042" cy="198.075" r="3.908" style="fill:#464965"/><polygon points="226.377 265.187 262.729 276.746 308.3 133.434 271.679 122.717 226.377 265.187" style="fill:#464965"/><polygon points="229.258 93.987 229.258 93.987 234.021 133.347 234.021 133.347 296.774 153.301 307.703 118.931 229.258 93.987" style="fill:#b8b8d3"/><path d="M253.473,231.367,290.11,116.151a19.073,19.073,0,0,1,23.956-12.4h0a19.073,19.073,0,0,1,12.4,23.956L289.738,243.2A82.678,82.678,0,0,1,253.473,231.367Z" style="fill:#fff"/><polygon points="229.258 93.987 205.692 86.494 194.763 120.863 234.021 133.347 229.258 93.987" style="fill:#464965"/><path d="M215.006,93.3,186.779,148.27a17.713,17.713,0,0,1-23.847,7.667h0a17.712,17.712,0,0,1-7.666-23.847l42.208-83.282a6.394,6.394,0,0,1,11.251-.289l5.468,9.539A36.937,36.937,0,0,1,215.006,93.3Z" style="fill:#fff"/><circle cx="200.194" cy="76.239" r="3.908" style="fill:#464965"/><circle cx="192.352" cy="90.134" r="3.908" style="fill:#464965"/><circle cx="306.922" cy="126.22" r="3.908" style="fill:#464965"/><path d="M289.738,243.2a318.612,318.612,0,0,0-36.265-11.836l-12.26,38.557,36.353,11.559Z" style="fill:#464965"/><rect x="12.63" y="297.567" width="314.158" height="27.794" style="fill:#464965"/><path d="M12.63,297.567V227.356a1.7,1.7,0,0,1,2.944-1.149c3.739,4.071,10.066,11.6,13.081,18.887l6.284-8.144a1.7,1.7,0,0,1,2.936.452,45.436,45.436,0,0,1,2.482,9.8l39.994,3.719v46.644Z" style="fill:#ffcaca"/><path d="M80.351,272.068H93.62s8.13-10.239,19.875-12.949v38.448H80.351Z" style="fill:#ffcaca"/><path d="M113.5,297.567V254.309a9.113,9.113,0,0,1,7.571-8.99c6.1-1.04,15.631-2.41,27.668-3.32l63.608,1.158c31.514,3.623,66.987,12.515,100.78,31.488a26.263,26.263,0,0,1,13.638,21.6c.018.434.027.874.027,1.323Z" style="fill:#9fb2ed"/><polygon points="80.351 272.068 80.351 297.567 93.62 272.068 80.351 272.068" style="fill:#464965"/><path d="M195.2,272.068a14.068,14.068,0,0,0,13.82-11.441l3.32-17.465A338.294,338.294,0,0,0,148.734,242l3.541,18.628a14.067,14.067,0,0,0,13.82,11.441Z" style="fill:#464965"/><polygon points="112.345 43.389 80.159 43.389 80.159 11.203 44.816 11.203 44.816 43.389 12.63 43.389 12.63 78.732 44.816 78.732 44.816 110.918 80.159 110.918 80.159 78.732 112.345 78.732 112.345 43.389" style="fill:#f76b99"/><path d="M44.538,271.632A3.436,3.436,0,0,1,41.1,268.2v-3.863a3.436,3.436,0,1,1,6.872,0V268.2A3.436,3.436,0,0,1,44.538,271.632Z" style="fill:#ef9199"/><path d="M328.277,111.585a22.5,22.5,0,0,0-38.773-2.047l-68.593-21.81a40.2,40.2,0,0,0-3.737-31.378l-5.468-9.54a9.83,9.83,0,0,0-17.3.445l-42.2,83.265a21.149,21.149,0,1,0,37.627,19.32l11.89-23.158,59.11,18.8-30.77,96.767c-5.7-.982-11.467-1.829-17.331-2.5-.019,0-.036,0-.055,0a340.191,340.191,0,0,0-64.205-1.17c-12.289.929-22,2.34-27.986,3.36a12.516,12.516,0,0,0-10.43,12.377v2.215c-8.929,2.915-15.492,9.336-18.01,12.108H83.787V250.923A3.437,3.437,0,0,0,80.67,247.5L43.329,244.03a55.364,55.364,0,0,0-3.444-10.85,3.435,3.435,0,0,0-5.851-.682l-4.758,6.166c-5.4-9.346-13.836-17.582-14.255-17.988a3.436,3.436,0,0,0-5.827,2.468V325.361A3.436,3.436,0,0,0,12.63,328.8H326.787a3.436,3.436,0,0,0,3.436-3.436s-.01-28.78-.03-29.26A29.859,29.859,0,0,0,314.8,271.649a244.749,244.749,0,0,0-26.441-12.78l41.374-130.118A22.363,22.363,0,0,0,328.277,111.585Zm-41.67,4.243L277.76,143.65l-11.566-3.678h0l-29.024-9.229-3.855-31.86ZM183.722,146.7a14.276,14.276,0,1,1-25.391-13.058l42.208-83.281a2.9,2.9,0,0,1,2.563-1.621h.074a2.887,2.887,0,0,1,2.568,1.487l5.468,9.54a33.38,33.38,0,0,1,.737,31.958h0Zm34.683-52.56,7.707,2.451,3.856,31.861-25.06-7.969S218.288,94.381,218.405,94.141Zm48.98,53.42,8.293,2.637-30.243,95.11q-4.242-.966-8.557-1.807Zm-59.113,98.613-2.626,13.812a10.642,10.642,0,0,1-10.444,8.647H166.1a10.642,10.642,0,0,1-10.444-8.647l-2.819-14.829A333.206,333.206,0,0,1,208.272,246.174Zm-98.213,17.684V294.13H86.013L96.5,273.983A39.719,39.719,0,0,1,110.059,263.858ZM87.959,275.5l-4.172,8.016V275.5Zm-62.478-29.1a3.435,3.435,0,0,0,5.9.785l4.284-5.552a36.4,36.4,0,0,1,1.285,5.966,3.437,3.437,0,0,0,3.094,3.02l36.876,3.428V294.13H16.066V231.976C19.416,235.965,23.367,241.3,25.481,246.407Zm297.87,75.518H16.066V301H323.351Zm-.254-27.8H116.931V254.309a5.662,5.662,0,0,1,4.712-5.6c5.335-.909,13.718-2.135,24.292-3.033l2.964,15.6a17.522,17.522,0,0,0,17.2,14.236H195.2a17.522,17.522,0,0,0,17.2-14.236l2.718-14.3c35.587,4.459,67.985,14.759,96.323,30.67A23.167,23.167,0,0,1,323.1,294.13Zm.091-167.461L281.96,256.326a268.465,268.465,0,0,0-29.826-9.409l41.25-129.725a15.637,15.637,0,1,1,29.8,9.477Z" style="fill:#464965"/></g></svg>