<svg xmlns="http://www.w3.org/2000/svg" viewBox="0 0 340 340"><g id="Layer_21" data-name="Layer 21"><path d="M184.6,107.471l-4.741-4.3a17.983,17.983,0,0,0-25.27,1.063,216.659,216.659,0,0,0-15.65,18.9c-6.117,16.339,8.025,34.615,18.979,23.812Z" style="fill:#66667f"/><path d="M157.922,146.946c-16.445-3.822-18.841-17.148-18.978-23.811-3.2,4.356-6.388,9.066-9.4,14.072a17.941,17.941,0,0,0,4.5,23.669,52.489,52.489,0,0,0,10.381,6.037l13.5-19.967Z" style="fill:#464965"/><path d="M150.256,151.766s-5.2,9.111-9.486,18.277a17.271,17.271,0,0,0,6.7,22.185q.192.114.388.225a17.3,17.3,0,0,0,23.582-6.685l5.346-9.534Z" style="fill:#b9b9d0"/><path d="M201.1,104.165l13.886,12.6-36.221,53.286a12.075,12.075,0,0,1-17.485,2.676l-7.852-6.221a11.876,11.876,0,0,1-3.172-14.735c5.089-9.942,15.5-27.2,34.3-47.011A11.847,11.847,0,0,1,201.1,104.165Z" style="fill:#e4e4f9"/><path d="M163.2,196.892s-14.355,48.5-71.434,77.5l4.011,30.545h14.5l3.567-20.325s53.544-18.5,76.683-59.225Z" style="fill:#464965"/><path d="M242.92,139.473s15.473,12.035,41.836,11.271l1.988-2.068a10.088,10.088,0,0,1,9.058-2.937l5.594,1a4.111,4.111,0,0,1,3.292,4.907l-2.1,9.81a10.545,10.545,0,0,1-9.5,8.317c-9.269.712-25.01.889-37.944-4.134C255.146,165.644,243.684,152.845,242.92,139.473Z" style="fill:#464965"/><path d="M289.858,205.223l5.373-12.719a4.11,4.11,0,0,0-2.09-5.343l-8.269-3.749a9.8,9.8,0,0,0-7.354-.3l-7.239,2.6s-24.19-27.372-28.332-66.1l11.141-21.3-27.96-7.663-5.59,15.287s-44.853,32.757-56.337,90.962l34.381,44.943A291.584,291.584,0,0,1,170.657,296.1L189.5,327.4,201.31,316.81l-5.385-17.4s29.2-28.167,47.015-62.341L218.761,200.8l20.888-12.752a96.186,96.186,0,0,0,38.7,22.584A9.491,9.491,0,0,0,289.858,205.223Z" style="fill:#9ebfff"/><path d="M239.649,188.05c-10.754-9.906-18.557-24.567-22.638-33.44a1.483,1.483,0,0,0-2.825.752,152.6,152.6,0,0,0,10.549,44.243Z" style="fill:#464965"/><path d="M118.018,175.087a11.752,11.752,0,0,1,.448,5.327c-.882,6.306-5.045,21.471-24.714,24.029-17.787,2.314-29.7-3-35.071-6.244a1.28,1.28,0,0,1,.593-2.375c5.2-.289,14.426-1.371,19.808-5.351a1.688,1.688,0,0,0-.606-2.956c-5.23-1.548-6.793-6.262-7.255-9.206A1.281,1.281,0,0,1,73,176.934c3.339,1.42,10.842,2.9,21.83-4.7,2.156-1.49,4.473-3.632,7.566-4.719a12.146,12.146,0,0,1,15.554,7.363Z" style="fill:#f76b99"/><polygon points="221.696 100.03 241.947 119.606 253.088 98.306 225.128 90.643 221.696 100.03" style="fill:#464965"/><path d="M216.969,35.771S210.48,25.087,212.761,12.6l47.711,22.9A13.106,13.106,0,0,1,267.9,48.037c-.673,12.044-2.756,34.385-9.187,54L214.286,91.9l.847-42.211s-6.928-4.647-9.558-11.626Z" style="fill:#9ebfff"/><path d="M236.923,85.335a26.4,26.4,0,0,1-6.875-.887,2.946,2.946,0,0,1,1.658-5.653c.49.141,11.387,3.15,16.533-4.982a2.945,2.945,0,0,1,4.978,3.149C248.868,83.837,242.044,85.335,236.923,85.335Z" style="fill:#464965"/><circle cx="190.363" cy="116.411" r="3.908" style="fill:#fff"/><circle cx="180.699" cy="128.755" r="3.908" style="fill:#fff"/><circle cx="34.895" cy="186.707" r="3.908" style="fill:#f76b99"/><path d="M237.493,185.954c-6,.086-45.652-.181-63.658-21.667a47.638,47.638,0,0,0-6.573,16.863s29.845,27.787,86.422,18.053A113.694,113.694,0,0,1,237.493,185.954Z" style="fill:#464965"/><path d="M189.654,193.976l-.274-17.81a48.5,48.5,0,0,1-15.545-11.879,47.638,47.638,0,0,0-6.573,16.863S174.866,188.218,189.654,193.976Z" style="fill:#464965"/><path d="M293.353,173.2a14.065,14.065,0,0,0,12.593-11.023l2.992-13.965a3.434,3.434,0,0,0-2.752-4.1l-9.776-1.759a13.5,13.5,0,0,0-12.143,3.939l-1,1.042c-16.189.138-27.851-4.65-33.726-7.8a110.832,110.832,0,0,1-4.06-19.268l8.284-15.835s2.7.591,4.951,1.042c1.427.286,2.792-.93,3.263-2.366,6.591-20.1,8.689-43.012,9.353-54.879a16.49,16.49,0,0,0-9.37-15.828L214.248,9.5a3.439,3.439,0,0,0-4.08.839,3.561,3.561,0,0,0-.805,1.736,38.755,38.755,0,0,0,2.589,21.2L204.9,34.7a3.437,3.437,0,0,0-2.537,4.58c2.194,5.821,6.86,10.139,9.3,12.1l-.812,40.454a3.436,3.436,0,0,0,2.671,3.419l5.781,1.318L216.66,103.8c-1.076.828-3.063,2.416-5.657,4.712l-7.595-6.89a15.378,15.378,0,0,0-20.341-.183s-16.108-14.314-30.994.459a160.285,160.285,0,0,0-15.9,19.2l-.01.017c-3.489,4.751-6.706,9.569-9.561,14.32a21.269,21.269,0,0,0,5.4,28.2,58.957,58.957,0,0,0,6.12,3.973c-.154.326-.31.651-.462.977a20.623,20.623,0,0,0,6.5,25.572,13.068,13.068,0,0,0,3,1.6c2.239.854,6.587,2.378,9.1,2.378a20.351,20.351,0,0,0,2.96-.244c-3.42,9.237-20.462,48.77-69.01,73.438a3.434,3.434,0,0,0-1.85,3.511l4.011,30.544a3.435,3.435,0,0,0,3.406,2.989h14.5a3.435,3.435,0,0,0,3.384-2.843l3.224-18.372c9.254-3.5,48.613-19.831,71.372-51.854l5.448,7.122a294.04,294.04,0,0,1-25.936,51.808,3.452,3.452,0,0,0-.058,3.639l18.848,31.306A3.436,3.436,0,0,0,189,330.8a3.345,3.345,0,0,0,.509.038,3.431,3.431,0,0,0,2.3-.879l11.8-10.595a3.433,3.433,0,0,0,.987-3.572l-4.768-15.405c6.309-6.331,30.419-31.516,46.172-61.747a3.426,3.426,0,0,0-.2-3.477L220.356,197a3.437,3.437,0,0,0-4.916-.846,3.566,3.566,0,0,0-.695,4.819l24.2,36.306c-17.412,32.462-45.124,59.392-45.407,59.666a3.434,3.434,0,0,0-.9,3.488l4.734,15.294-7.073,6.348L174.7,296.144a291.976,291.976,0,0,0,26.131-53.177,3.438,3.438,0,0,0-.515-3.22l-33.432-43.7c11.549-55.2,54.254-87.024,54.686-87.34a3.44,3.44,0,0,0,1.2-1.595l15.92,14.123c4.582,38.688,28.012,65.611,29.018,66.749a3.437,3.437,0,0,0,3.734.96l7.239-2.595a6.365,6.365,0,0,1,4.776.195l8.868,4.019-5.629,13.325a6.029,6.029,0,0,1-7.331,3.466c-14.317-4.422-27.151-12.036-39.759-24.146-14.61-14.034-22.518-37.214-22.6-37.441a3.436,3.436,0,0,0-6.663,1.144,148.8,148.8,0,0,0,5.79,38.238,3.564,3.564,0,0,0,4.118,2.592,3.435,3.435,0,0,0,2.544-4.287,151.929,151.929,0,0,1-3.808-17.305c3.952,7.125,8.946,15.466,15.689,21.843,10.34,9.781,27.314,21.188,42.664,25.928a12.861,12.861,0,0,0,15.689-7.357l6.931-16.409a3.436,3.436,0,0,0-1.746-4.467l-11.917-5.4a13.16,13.16,0,0,0-9.932-.406l-4.96,1.779a118.581,118.581,0,0,1-6.892-9.794,98.353,98.353,0,0,0,18.953,1.728C287.062,173.59,290.419,173.429,293.353,173.2Zm-136.24-66.637c9.216-10.345,21.215-.151,21.215-.151a218.193,218.193,0,0,0-26.1,34.736c-7.652-4.3-9.485-11.928-9.794-16.931C146.906,118.2,151.945,112.368,157.113,106.567Zm-21.026,51.546a14.424,14.424,0,0,1-3.593-19.136c1.383-2.3,2.855-4.621,4.405-6.941a25.222,25.222,0,0,0,11.922,15.1c-.56,1.033-1.093,2.035-1.576,2.978-.274.481-2.991,5.267-6.082,11.326A52.1,52.1,0,0,1,136.087,158.113Zm18.067,32.306c-8.415-1.405-13.756-10.164-10.625-18.1q.163-.414.354-.822c1.124-2.405,2.316-4.81,3.462-7.051a15.141,15.141,0,0,0,3.949,4.748l12.919,10.236c-1.141,3.525-2.179,7.156-3.082,10.909C159.315,191.021,156.558,190.821,154.154,190.419Zm29.723,39.156c-23.763,35.06-70.676,51.623-71.154,51.788a3.44,3.44,0,0,0-2.262,2.654L107.393,301.5h-8.6l-3.305-25.164c44.793-23.562,63-58.409,68.778-72.395ZM166.61,172.562l-11.048-8.754a8.47,8.47,0,0,1-2.248-10.476c5.406-10.561,15.647-27.151,33.735-46.212a8.454,8.454,0,0,1,11.742-.411l7.158,6.493C194.514,124.3,177.272,144.387,166.61,172.562ZM217.054,46.844a27.567,27.567,0,0,1-6.3-6.316l6.89-1.389A3.441,3.441,0,0,0,219.911,34a34.573,34.573,0,0,1-4.2-16.17L258.985,38.6a9.637,9.637,0,0,1,5.483,9.248c-.613,10.942-2.472,31.523-8.084,50.136l-38.607-8.8.792-39.413A3.456,3.456,0,0,0,217.054,46.844Zm9,51.269,20.777,4.739-5.8,11.09L225.69,99.112Zm26.623,50.461a79.143,79.143,0,0,0,32.176,5.6,3.432,3.432,0,0,0,2.377-1.053l1.989-2.067a6.648,6.648,0,0,1,5.973-1.938l6.28,1.13-2.248,10.491a7.155,7.155,0,0,1-6.4,5.612c-7.269.556-21.209.928-33.186-2.787A133.966,133.966,0,0,1,252.679,148.574Z" style="fill:#464965"/></g></svg>