<svg xmlns="http://www.w3.org/2000/svg" viewBox="0 0 340 340"><g id="Layer_12" data-name="Layer 12"><rect x="12.162" y="95.325" width="101.502" height="104.631" rx="15.875" style="fill:#f76b99"/><rect x="226.301" y="79.892" width="101.896" height="127.865" rx="16.196" style="fill:#9fb2ed"/><rect x="89.458" y="14.639" width="147.17" height="130.505" rx="16.196" style="fill:#464965"/><path d="M166.581,129.372h0a13.108,13.108,0,0,1,13.047,11.8c1.408,14.08,3.524,38.29,3.78,58.778,0,0,22.507,10.764,42.392,26.309a15.706,15.706,0,0,1,5.973,10.853c.688,7.07,1.769,19.07,2.542,31.874a24.726,24.726,0,0,1-1.6,10.374,136.437,136.437,0,0,1-7.54,16.265,24.671,24.671,0,0,0-2.983,11.845v16.256a5.066,5.066,0,0,1-5.066,5.066H157.059a5.066,5.066,0,0,1-5.05-4.661l-1.529-19.047a24.023,24.023,0,0,0-7.8-15.914,84.287,84.287,0,0,1-12.065-13.226,26.836,26.836,0,0,1-4.743-13.076l-4.326-47.3a8.75,8.75,0,0,1,10.947-9.239c7.082,1.828,15.486,6.049,19.721,15.7a1,1,0,0,0,1.929-.412c-.363-16.255-1.126-55.349-.674-79.41A13.1,13.1,0,0,1,166.581,129.372Z" style="fill:#ffcaca"/><rect x="286.218" y="126.166" width="14.817" height="59.754" style="fill:#fff"/><rect x="253.463" y="153.857" width="14.817" height="32.063" style="fill:#fff"/><rect x="255.345" y="103.949" width="32.591" height="6.872" rx="3.436" style="fill:#fff"/><rect x="255.345" y="121.676" width="18.014" height="6.872" rx="3.436" style="fill:#fff"/><circle cx="301.035" cy="107.385" r="3.908" style="fill:#fff"/><path d="M197.944,97.947a10.311,10.311,0,0,0-7.589,3.329L160.367,89.518a17.507,17.507,0,0,0-2.192-12.542l20.145-16.4a11.818,11.818,0,1,0-5.1-5.983L152.7,71.3a17.6,17.6,0,1,0,4.411,25.381l30.5,11.956a10.347,10.347,0,1,0,10.335-10.69Z" style="fill:#fff"/><path d="M45.442,131.657v31.966a2.708,2.708,0,0,0,4.151,2.292l25.383-15.983a2.708,2.708,0,0,0,0-4.583L49.593,129.365A2.708,2.708,0,0,0,45.442,131.657Z" style="fill:#fff"/><path d="M228.187,297.279a140.286,140.286,0,0,0,7.729-16.67,28.032,28.032,0,0,0,1.829-11.836c-.758-12.551-1.806-24.318-2.551-31.979a19.253,19.253,0,0,0-7.286-13.243,263.035,263.035,0,0,0-41.1-25.749c-.309-16.87-1.8-35.95-3.021-49.222h36.643a19.525,19.525,0,0,0,2.432-.167V191.56A19.654,19.654,0,0,0,242.5,211.192H312a19.652,19.652,0,0,0,19.489-17.355V93.811A19.652,19.652,0,0,0,312,76.456s-71.132.064-71.936.164V30.835A19.654,19.654,0,0,0,220.433,11.2H105.654A19.654,19.654,0,0,0,86.022,30.835V91.889H28.142A19.654,19.654,0,0,0,8.51,111.521V183.76a19.654,19.654,0,0,0,19.632,19.632H97.468A19.654,19.654,0,0,0,117.1,183.76V148.58h32.847c-.2,20.135.239,47.32.581,64.406-4.976-5.638-11.512-8.517-17.174-9.978a12.275,12.275,0,0,0-11,2.52,12,12,0,0,0-4.224,10.359l4.326,47.3a30.292,30.292,0,0,0,5.361,14.748,85.964,85.964,0,0,0,12.565,13.79,20.5,20.5,0,0,1,6.676,13.64l1.881,23.433H155.8c0-.092.013-.181.006-.275l-1.9-23.708a27.343,27.343,0,0,0-8.918-18.188,80.347,80.347,0,0,1-11.565-12.663,23.417,23.417,0,0,1-4.125-11.4l-4.326-47.3a5.208,5.208,0,0,1,1.832-4.5,5.313,5.313,0,0,1,4.834-1.1c10.93,2.821,17.425,9.56,19.3,20.03a3.436,3.436,0,0,0,6.817-.695c-.014-.558-1.424-56.171-.85-86.715a9.676,9.676,0,0,1,19.3-.764c1.293,12.937,3.5,37.727,3.763,58.449v11.414a3.436,3.436,0,0,0,6.872,0v-5.824a256.482,256.482,0,0,1,36.832,23.409,12.352,12.352,0,0,1,4.679,8.493c.739,7.6,1.778,19.281,2.53,31.729a21.215,21.215,0,0,1-1.383,8.953,133.225,133.225,0,0,1-7.343,15.84,28.163,28.163,0,0,0-3.405,13.494V328.8h6.872V307.475A21.291,21.291,0,0,1,228.187,297.279Zm11.878-168.331V83.569c.8-.154,71.936-.241,71.936-.241a12.774,12.774,0,0,1,12.76,12.759V191.56A12.774,12.774,0,0,1,312,204.32H242.5a12.774,12.774,0,0,1-12.76-12.76V146.23A19.647,19.647,0,0,0,240.065,128.948ZM110.228,183.76a12.775,12.775,0,0,1-12.76,12.76H28.142a12.775,12.775,0,0,1-12.76-12.76V111.521a12.774,12.774,0,0,1,12.76-12.76h57.88v30.187a19.654,19.654,0,0,0,19.632,19.632h4.574Zm72.905-42.052c-2.333-10.554-8.014-15.772-16.552-15.772a16.615,16.615,0,0,0-16.514,15.772H105.654a12.774,12.774,0,0,1-12.76-12.76V30.835a12.774,12.774,0,0,1,12.76-12.76H220.433a12.773,12.773,0,0,1,12.759,12.76v98.113a12.773,12.773,0,0,1-12.759,12.76Z" style="fill:#464965"/></g></svg>