<svg xmlns="http://www.w3.org/2000/svg" viewBox="0 0 340 340"><g id="Layer_5" data-name="Layer 5"><path d="M12.841,213.433h254.6a28.525,28.525,0,0,1,17.512,6.014c7.082,5.507,18.419,14.641,32.039,26.762a19.912,19.912,0,0,1,6.615,17.029,74.6,74.6,0,0,1-3.2,15.014,10.5,10.5,0,0,1-9.963,7.236h-5.8v9.279a16.007,16.007,0,0,1-3.395,9.842c-.6.767-1.268,1.606-2.008,2.5-10.609,9.026-26.883,9.171-43.339,9.031,0,0-72.112-33.475-76.708-33.475L12.841,271.807Z" style="fill:#ffcaca"/><path d="M284.927,321.38a100.506,100.506,0,0,0,14.31-14.275,54.261,54.261,0,0,1-19.108,4.8H263.758a23.4,23.4,0,0,1-13.581-4.345l-37.447-26.7a37.982,37.982,0,0,1-14.062-19.22l-9.637-27.734-20.749,37.9H12.841v23.551H178.968a60.817,60.817,0,0,1,23.042,4.534c16.177,6.623,31.053,15.883,38.8,21.045a23,23,0,0,0,12.755,3.866h21.479A15.806,15.806,0,0,0,284.927,321.38Z" style="fill:#ef9199"/><path d="M182.391,293.61c-.141-9.849-.341-23.723-.623-26.637l-40.128,1.362-.311,25.294a9.388,9.388,0,0,0,9.387,9.5H173A9.388,9.388,0,0,0,182.391,293.61Z" style="fill:#464965"/><path d="M130.681,242.167a154.018,154.018,0,0,0,1.659,20.266,10.994,10.994,0,0,0,10.859,9.374h36.716a10.962,10.962,0,0,0,10.638-8.278,82.406,82.406,0,0,0,2.472-19.28Z" style="fill:#464965"/><path d="M138.242,205.208H175.15a8.293,8.293,0,0,1,7.692,5.165,203.272,203.272,0,0,1,10.183,33.876,9.352,9.352,0,0,1-9.133,11.3H145.209a14.568,14.568,0,0,1-14.528-13.38,270.033,270.033,0,0,1-.744-28.906A8.3,8.3,0,0,1,138.242,205.208Z" style="fill:#464965"/><rect x="30.542" y="26.461" width="118.753" height="103.036" rx="14.32" style="fill:#464965"/><rect x="130.681" y="81.789" width="110.643" height="95.999" rx="13.342" style="fill:#f76b99"/><path d="M119.925,54.619l-3.542-2.346a18.47,18.47,0,0,0-23.259,2.339l-24.4,24.4a18.47,18.47,0,0,0-2.339,23.259l2.346,3.542a6.574,6.574,0,0,0,10.129,1.018l3.208-3.208a10.1,10.1,0,0,0,2.416-10.4l-.159-.465a9.733,9.733,0,0,1,2.328-10.028L96.841,72.541a9.733,9.733,0,0,1,10.028-2.328l.465.158a10.093,10.093,0,0,0,10.4-2.415l3.208-3.208A6.574,6.574,0,0,0,119.925,54.619Z" style="fill:#fff"/><circle cx="186.003" cy="114.97" r="12.986" style="fill:#fff"/><path d="M170.723,148.346a38.174,38.174,0,0,0-.733,11.637h32.025a38.174,38.174,0,0,0-.733-11.637C197.056,129.683,174.949,129.683,170.723,148.346Z" style="fill:#fff"/><rect x="259.002" y="172.098" width="9.85" height="6.872" rx="3.436" transform="translate(-46.819 238.038) rotate(-45)" style="fill:#464965"/><rect x="80.667" y="162.132" width="13.399" height="6.872" rx="3.436" transform="translate(-12.337 324.014) rotate(-120)" style="fill:#464965"/><path d="M145.141,210.971H170.3a5.652,5.652,0,0,1,5.244,3.528,138.909,138.909,0,0,1,6.943,23.139,6.385,6.385,0,0,1-6.227,7.717H149.891a9.939,9.939,0,0,1-9.905-9.139,184.893,184.893,0,0,1-.507-19.745A5.661,5.661,0,0,1,145.141,210.971Z" style="fill:#fff"/><rect x="219.951" y="15.196" width="81.832" height="114.3" rx="10.27" style="fill:#fff"/><path d="M283.455,48.873H259.708a3.436,3.436,0,0,1,0-6.872h23.747a3.436,3.436,0,1,1,0,6.872Z" style="fill:#464965"/><path d="M283.455,75.782H259.708a3.436,3.436,0,0,1,0-6.872h23.747a3.436,3.436,0,1,1,0,6.872Z" style="fill:#464965"/><path d="M283.455,102.692H259.708a3.436,3.436,0,0,1,0-6.872h23.747a3.436,3.436,0,1,1,0,6.872Z" style="fill:#464965"/><rect x="238.278" y="42.001" width="8.589" height="6.872" rx="3.436" style="fill:#464965"/><rect x="238.278" y="68.91" width="8.589" height="6.872" rx="3.436" style="fill:#464965"/><rect x="238.278" y="95.82" width="8.589" height="6.872" rx="3.436" style="fill:#464965"/><path d="M44.862,132.933h82.383v31.513a16.8,16.8,0,0,0,16.778,16.778h83.959a16.8,16.8,0,0,0,16.779-16.778V132.933h46.751a13.723,13.723,0,0,0,13.707-13.707V25.467A13.723,13.723,0,0,0,291.512,11.76H230.221a13.722,13.722,0,0,0-13.706,13.707V78.353H152.731V40.781a17.776,17.776,0,0,0-17.757-17.756H44.862A17.777,17.777,0,0,0,27.105,40.781v74.4A17.777,17.777,0,0,0,44.862,132.933ZM223.387,25.467a6.842,6.842,0,0,1,6.834-6.834h61.291a6.842,6.842,0,0,1,6.834,6.834v93.759a6.842,6.842,0,0,1-6.834,6.835H230.221a6.842,6.842,0,0,1-6.834-6.835Zm6.834,107.466h7.668v31.513a9.918,9.918,0,0,1-9.907,9.906H144.023a9.917,9.917,0,0,1-9.906-9.906V95.131a9.917,9.917,0,0,1,9.906-9.906h72.492v34A13.722,13.722,0,0,0,230.221,132.933ZM33.978,40.781A10.9,10.9,0,0,1,44.862,29.9h90.112a10.9,10.9,0,0,1,10.885,10.884V78.353h-1.836a16.8,16.8,0,0,0-16.778,16.778v30.93H44.862a10.9,10.9,0,0,1-10.884-10.885Z" style="fill:#464965"/><path d="M111.79,216.869l15.544,28.9a161.364,161.364,0,0,0,1.609,17.17,14.346,14.346,0,0,0,9.131,11.374l-.378,17.605H12.841v6.872H138.122a10.342,10.342,0,0,0,9.606,7.175l27.78.6c.076,0,.152,0,.229,0a10.326,10.326,0,0,0,9.893-7.381,57.274,57.274,0,0,1,15.078,3.885c16,6.552,30.8,15.8,38.2,20.724a26.357,26.357,0,0,0,14.66,4.444h21.478a19.593,19.593,0,0,0,12.247-4.351,106.845,106.845,0,0,0,16.67-17.168,19.551,19.551,0,0,0,4.12-11.954v-5.844h2.363a13.915,13.915,0,0,0,13.224-9.594,77.485,77.485,0,0,0,3.352-15.712,23.367,23.367,0,0,0-7.745-19.975c-13.673-12.167-25.066-21.348-32.215-26.908A32.122,32.122,0,0,0,267.438,210H237.383l13-16.394A3.436,3.436,0,1,0,245,189.334l-48.866,61.628c.047-.54.658-5.4.27-7.322,0-.026-.007-.051-.012-.076l0-.022a214.916,214.916,0,0,0-7.432-26.673H212.3a3.436,3.436,0,1,0,0-6.872h-25.9c-2.2-4.723-6.436-8.225-11.242-8.225H138.243a11.665,11.665,0,0,0-11.741,11.4c-.15,5.625-.117,11.188.06,16.661L103.4,186.753a3.436,3.436,0,1,0-6.052,3.255L108.094,210H12.841v6.872Zm67.4,79.378a3.461,3.461,0,0,1-3.534,3.449l-27.779-.6a3.464,3.464,0,0,1-3.385-3.533l.437-20.322h33.9C179.161,282.819,179.212,290.7,179.189,296.247Zm.726-27.876H143.2a7.511,7.511,0,0,1-7.461-6.448c-.323-2.154-.579-4.238-.786-6.205a17.873,17.873,0,0,0,10.257,3.265h38.683a12.784,12.784,0,0,0,4.314-.753q-.427,2.244-.985,4.459A7.52,7.52,0,0,1,179.915,268.371Zm13.737-3.221,38.282-48.281h35.5a25.214,25.214,0,0,1,15.4,5.291c7.068,5.5,18.333,14.574,31.863,26.616a16.484,16.484,0,0,1,5.485,14.082,70.655,70.655,0,0,1-3.048,14.318,7.055,7.055,0,0,1-6.7,4.875H290.581a13.737,13.737,0,0,0-12.826,8.919l-.583,1.567a3.436,3.436,0,1,0,6.441,2.4l.583-1.569a6.84,6.84,0,0,1,6.385-4.44h10.627v5.844a12.646,12.646,0,0,1-2.669,7.73,99.862,99.862,0,0,1-15.562,16.042,12.694,12.694,0,0,1-7.934,2.828H253.565a19.507,19.507,0,0,1-10.849-3.289c-7.609-5.07-22.846-14.587-39.4-21.366a64.131,64.131,0,0,0-17.248-4.4c-.016-5.364-.113-11.943-.411-18.263A14.359,14.359,0,0,0,193.652,265.15Zm-60.28-51.8a4.888,4.888,0,0,1,4.871-4.708H175.15a4.835,4.835,0,0,1,4.507,3.019,200.733,200.733,0,0,1,9.923,32.916q-.024,1.8-.133,3.6a5.949,5.949,0,0,1-.984,1.752,5.865,5.865,0,0,1-4.571,2.178H145.209a11.2,11.2,0,0,1-11.1-10.223A266.141,266.141,0,0,1,133.372,213.352Z" style="fill:#464965"/></g></svg>