<svg xmlns="http://www.w3.org/2000/svg" viewBox="0 0 340 340"><g id="Layer_20" data-name="Layer 20"><path d="M297.733,220.271a101.586,101.586,0,0,1-19.752-19.279v23.241a120.457,120.457,0,0,0,10.393,8.653c13.907,10.317,20.083,24.554,16.522,38.083a30.461,30.461,0,0,1-3.32,7.9l.011.022-.023-.028c-4.692,7.849-12.918,13.7-23.583,16.721v16.178c13.105-2.9,24.116-9.143,31.8-17.762l0-.014.01.019a46.124,46.124,0,0,0,10.3-19.035C325.262,255.3,316.7,234.341,297.733,220.271Z" style="fill:#8c87a5"/><path d="M295.123,218.258a101.4,101.4,0,0,1-17.142-17.266v23.241a120.457,120.457,0,0,0,10.393,8.653,52.8,52.8,0,0,1,6.749,5.934Z" style="fill:#464965"/><polygon points="277.981 292.585 89.193 280.929 94.439 62.894 277.981 62.978 277.981 292.585" style="fill:#e6eaff"/><path d="M203.074,183.854a16.657,16.657,0,0,1-6.321,8.75,43.533,43.533,0,0,0-9.479,9.325L191.69,213a45.479,45.479,0,0,1,4.249-5.859,27.073,27.073,0,0,1,18.191-9.2c11.9-1.086,34.046-7.275,33.638-38.359C247.768,159.588,211.6,154.541,203.074,183.854Z" style="fill:#464965"/><path d="M130.183,162.606s2.441,35.9,43.592,43.674a11.942,11.942,0,0,1,9.809,11.695v27.644H194.5V208.287a36.8,36.8,0,0,0-7.127-21.846C178.691,174.666,161.2,159.294,130.183,162.606Z" style="fill:#b9c293"/><path d="M89.193,292.585s17.278-24.822,48.7-44.956a40.316,40.316,0,0,1,17.607-6.185l20.965-2.16a42.529,42.529,0,0,1,22.847,4l5.76,2.781a41.9,41.9,0,0,0,9.8,3.341c11.262,2.305,41.286,11.3,55.123,43.174Z" style="fill:#dd84b4"/><path d="M277.981,277H122.034a18.809,18.809,0,0,1-18.81-18.81V95.676a22.5,22.5,0,0,1,21.008-22.455L277.981,62.978V47.415H76.8v245.17H277.981Z" style="fill:#464965"/><path d="M58.442,191.035l.1-.12C65.3,182.79,71.4,174.549,76.8,166.677v-36.86a353.674,353.674,0,0,1-33.315,48.5,153.571,153.571,0,0,0-18.9,28.988,60.492,60.492,0,0,0-2.567,47.156c5.491,15.082,16.9,26.118,31.062,33.335,9.36,4.772,23.716,4.792,23.716,4.792V271.742a37.173,37.173,0,0,1-16.163-2.78c-9.6-4.236-16.521-11.213-20.166-21.223a40.768,40.768,0,0,1,1.74-31.777A135.344,135.344,0,0,1,58.442,191.035Z" style="fill:#464965"/><circle cx="151.581" cy="255.359" r="3.908" style="fill:#b55082"/><circle cx="172.368" cy="251.451" r="3.908" style="fill:#b55082"/><circle cx="164.184" cy="263.497" r="3.908" style="fill:#b55082"/><path d="M280.416,47.415H99.356s-20.48,0-20.48-17.247,20.48-17.247,20.48-17.247h181.06A10.674,10.674,0,0,1,291.09,23.6V36.741A10.674,10.674,0,0,1,280.416,47.415Z" style="fill:#fff"/><path d="M88.682,36.741V23.6A10.674,10.674,0,0,1,99.356,12.921H74.365A10.674,10.674,0,0,0,63.691,23.6V36.741A10.674,10.674,0,0,0,74.365,47.415H99.356A10.674,10.674,0,0,1,88.682,36.741Z" style="fill:#464965"/><path d="M280.416,327.079H99.356s-20.48,0-20.48-17.247,20.48-17.247,20.48-17.247h181.06a10.674,10.674,0,0,1,10.674,10.674V316.4A10.674,10.674,0,0,1,280.416,327.079Z" style="fill:#fff"/><path d="M88.682,316.4V303.259a10.674,10.674,0,0,1,10.674-10.674H74.365a10.674,10.674,0,0,0-10.674,10.674V316.4a10.674,10.674,0,0,0,10.674,10.674H99.356A10.674,10.674,0,0,1,88.682,316.4Z" style="fill:#464965"/><rect x="238.864" y="78.377" width="20.265" height="64.758" rx="10.132" style="fill:#fff"/><circle cx="236.9" cy="30.168" r="5.255" style="fill:#464965"/><circle cx="262.951" cy="30.168" r="5.255" style="fill:#464965"/><path d="M299.781,217.511a98.626,98.626,0,0,1-17.338-16.443,3.412,3.412,0,0,0-1.026-.839V50.8a14.118,14.118,0,0,0,13.11-14.06V23.6a14.127,14.127,0,0,0-14.111-14.11H74.365A14.126,14.126,0,0,0,60.255,23.6V36.74A14.118,14.118,0,0,0,73.364,50.8v78.14c-.039.06-.088.11-.125.173a350.3,350.3,0,0,1-32.37,46.974,156.519,156.519,0,0,0-19.364,29.7,63.95,63.95,0,0,0-2.713,49.847c5.422,14.889,16.74,27.068,32.731,35.221a45.133,45.133,0,0,0,11.706,3.772,14.026,14.026,0,0,0-2.974,8.633V316.4a14.126,14.126,0,0,0,14.11,14.11H280.416a14.127,14.127,0,0,0,14.111-14.11v-6.792c14.808-7.266,25.047-19.2,28.882-33.772C328.951,254.786,319.9,232.435,299.781,217.511ZM284.1,289.654a13.947,13.947,0,0,0-2.681-.454V231.805q2.409,1.981,4.911,3.84c12.736,9.45,18.436,22.328,15.245,34.449C299.333,278.6,293.291,285.349,284.1,289.654Zm-203.862-.5V50.851H274.545v8.912L124,69.793A26.006,26.006,0,0,0,99.788,95.676V258.19a22.27,22.27,0,0,0,22.245,22.246H274.545v8.713Zm-6.872-20.868a31.4,31.4,0,0,1-11.34-2.463A32.733,32.733,0,0,1,43.7,246.563a37.308,37.308,0,0,1,1.594-29.085,132.729,132.729,0,0,1,15.743-24.191l.148-.176c4.093-4.923,8.168-10.165,12.179-15.648ZM174.414,202.9c-31.147-5.886-38.586-28.525-40.306-37.182,26.538-1.628,42.067,11.321,50.5,22.758a33.592,33.592,0,0,1,6.457,19.807V236.8c-1.335-.306-2.684-.545-4.041-.729V217.975A15.408,15.408,0,0,0,174.414,202.9Zm22.863-1.812c-.234-1.293-.523-2.574-.88-3.836.771-.647,1.558-1.279,2.373-1.87a20.192,20.192,0,0,0,7.6-10.573c6.312-21.7,29.534-22.523,37.919-22.081-.953,23.965-16.928,30.557-30.474,31.793A30.788,30.788,0,0,0,197.277,201.092Zm.542,45.292,5.76,2.781a45.348,45.348,0,0,0,10.6,3.612c7.393,1.513,24.945,6.444,39.007,20.787H122.033a15.288,15.288,0,0,1-8.58-2.623,188.816,188.816,0,0,1,26.295-20.419,37.058,37.058,0,0,1,16.106-5.66l20.963-2.16A39.073,39.073,0,0,1,197.819,246.384Zm64.585,27.18c-15.931-19.427-38.026-25.715-46.842-27.519a38.447,38.447,0,0,1-9-3.069l-5.76-2.781q-1.417-.684-2.874-1.267V210.1c.025-.028.055-.047.079-.076.175-.213.355-.428.539-.643a23.51,23.51,0,0,1,15.892-8.007c11.2-1.023,37.216-7.146,36.76-41.826a3.437,3.437,0,0,0-2.961-3.358c-.388-.055-39.22-5.089-48.467,26.709a13.3,13.3,0,0,1-5.039,6.929c-.31.224-.607.467-.912.7a39.263,39.263,0,0,0-3.688-6.119c-8.077-10.96-26.663-28.808-60.317-25.215a3.437,3.437,0,0,0-3.064,3.65,51.663,51.663,0,0,0,6.819,20.409c5.609,9.7,17.027,22.15,39.563,26.409a8.532,8.532,0,0,1,7.011,8.319V235.65c-1.344.02-2.69.078-4.035.216l-20.963,2.16a43.958,43.958,0,0,0-19.11,6.71,195.727,195.727,0,0,0-27.276,21.181,15.263,15.263,0,0,1-2.1-7.727V95.676a19.116,19.116,0,0,1,17.8-19.026l150.085-10V273.564ZM287.654,23.6V36.74a7.246,7.246,0,0,1-7.238,7.238H98.385c-4.542,0-6.267-3.8-6.267-7.238V23.6c0-3.354,1.957-7.238,6.165-7.238H280.416A7.246,7.246,0,0,1,287.654,23.6ZM67.128,36.74V23.6a7.245,7.245,0,0,1,7.237-7.238H87.231A14.119,14.119,0,0,0,85.246,23.6V36.74a14.05,14.05,0,0,0,2.017,7.238h-12.9A7.245,7.245,0,0,1,67.128,36.74ZM25.25,253.282a57.037,57.037,0,0,1,2.423-44.464,149.02,149.02,0,0,1,18.454-28.307,342.979,342.979,0,0,0,27.237-38.238v23.334c-5.688,8.236-27.266,34.654-34.238,48.84a44.221,44.221,0,0,0-1.884,34.468c3.88,10.657,11.284,18.459,22.008,23.191a38.474,38.474,0,0,0,14.114,3.054V289.2c-.037,0-.075,0-.112.006a3.39,3.39,0,0,0-1.1-.294c-4.155-.346-11.957-1.35-17.509-4.18C40.23,277.384,30.066,266.508,25.25,253.282Zm41.8,63.006.151-13.144a7.245,7.245,0,0,1,7.32-7.154l12.888.148a14.076,14.076,0,0,0-2.091,7.215L85.169,316.5a14.081,14.081,0,0,0,1.941,7.261l-12.9-.149A7.245,7.245,0,0,1,67.053,316.288Zm220.6.117a7.246,7.246,0,0,1-7.238,7.238H97.588c-3.347,0-5.47-4.264-5.47-7.238V303.26c0-3.307,2.743-7.238,6.046-7.238H280.416a7.246,7.246,0,0,1,7.238,7.238Zm29.109-42.313c-3.059,11.626-10.915,21.352-22.306,27.8a14.04,14.04,0,0,0-3.569-8.053c8.845-5.212,14.931-12.875,17.331-21.993,3.932-14.937-2.722-30.532-17.8-41.717-3.119-2.315-6.145-4.807-9-7.406V210.306a106.01,106.01,0,0,0,14.27,12.724C313.5,236.245,321.574,255.811,316.763,274.092Z" style="fill:#464965"/></g></svg>