<svg xmlns="http://www.w3.org/2000/svg" viewBox="0 0 340 340"><g id="Layer_17" data-name="Layer 17"><path d="M118.067,142.126c-6.183-34.33-37.746-46.9-51.219-50.754-.965,8.419-1.664,17.739-2,28.067a23.468,23.468,0,0,0,22.255,24.2l19.181.977A23.314,23.314,0,0,0,118.067,142.126Z" style="fill:#464965"/><path d="M304.868,195.362a65.987,65.987,0,0,1,14.746,41.87c0,58.149-52.2,61.394-52.2,61.394l4.057-29.209s30.292.811,30.292-33.537c0-12.665-4.817-23.858-10.9-32.944Z" style="fill:#464965"/><circle cx="290.675" cy="188.549" r="19.459" style="fill:#464965"/><path d="M271.472,269.417l-4.057,29.209A62.343,62.343,0,0,0,296.3,287.89a89.86,89.86,0,0,0-4.754-25.76C282.751,269.7,271.472,269.417,271.472,269.417Z" style="fill:#464965"/><path d="M98.562,187.51s-67.277-4.392-74.418,42.818A14.3,14.3,0,0,0,37.083,246.67c7.18.558,16.179-1.577,24.267-11.835a26,26,0,0,1,20.929-9.711,60.211,60.211,0,0,1,32.737,10.266Z" style="fill:#464965"/><path d="M99.217,125.619s-21.266,59.811-.782,98.593a33.964,33.964,0,0,1,4.061,15.846v39.618a19.864,19.864,0,0,1-2.442,9.467,58.038,58.038,0,0,0-5.789,17.73A13.662,13.662,0,0,0,107.7,322.91h26.557a182.027,182.027,0,0,1,52.28,0h45.6a46.214,46.214,0,0,0,44.628-58.035c-3.078-11.742-7.839-23.62-15.138-33.878-1.861-2.616-3.718-5.224-5.5-7.9-12.178-18.285-56.947-83.982-81.509-99.3Z" style="fill:#e4e4ff"/><path d="M85.526,113.127v.815a20.526,20.526,0,0,0,20.526,20.526h30.242V113.127Z" style="fill:#f76b99"/><path d="M18.236,75.911v3.822a33.394,33.394,0,0,0,33.393,33.394h82.143L144.009,17.09H124.225L71.411,55.317,41.574,58.072l-7.556.647A17.255,17.255,0,0,0,18.236,75.911Z" style="fill:#e4e4ff"/><path d="M109.308,17.09A50.76,50.76,0,0,0,69.293,36.62L60.6,47.759a27.058,27.058,0,0,1-10.139,7.988,1.011,1.011,0,0,0,.462,1.932L77.3,56.571a30.333,30.333,0,0,0,21.6-10.39L124.225,17.09Z" style="fill:#464965"/><path d="M186.535,322.91s-10.7-1.518-9.892-14.649c0,0,.815-12.441,13.138-12.441h9.6a2.594,2.594,0,0,0,1.181-4.9,36.247,36.247,0,0,0-9.759-3.265,31.062,31.062,0,0,1-12.8-5.236,34.125,34.125,0,0,1-14.35-24.931s-3.4-25.732,18.4-33.491a2.917,2.917,0,0,0-.856-5.667,32.144,32.144,0,0,0-21.261,7.177s-14.994,11.934-14.994,41.114V305.24a24.29,24.29,0,0,1-1.456,8.481c-1.4,3.768-4.105,8.082-9.236,9.189Z" style="fill:#464965"/><path d="M278.089,140.693a5.189,5.189,0,0,1-.284-10.332,80.922,80.922,0,0,1,21.817.4,5.189,5.189,0,0,1-1.584,10.256,70.432,70.432,0,0,0-19.018-.355A5.2,5.2,0,0,1,278.089,140.693Z" style="fill:#f76b99"/><path d="M267.531,115.313a5.189,5.189,0,0,1-.665-10.274,107.254,107.254,0,0,1,38.923-.33q1.247.218,2.489.464a5.189,5.189,0,0,1-2.023,10.178q-1.118-.222-2.245-.418a96.906,96.906,0,0,0-35.172.294A5.226,5.226,0,0,1,267.531,115.313Z" style="fill:#f76b99"/><path d="M256.516,88.076a5.189,5.189,0,0,1-.885-10.227,135.651,135.651,0,0,1,55.13-1.657c3.525.614,7.069,1.375,10.535,2.261a5.188,5.188,0,1,1-2.571,10.053c-3.205-.819-6.484-1.523-9.745-2.091a125.319,125.319,0,0,0-50.939,1.527A5.155,5.155,0,0,1,256.516,88.076Z" style="fill:#f76b99"/><path d="M144.009,17.09s-26.247,18.655-24.7,103.732a23.469,23.469,0,0,0,23.459,23.04h19.206a23.454,23.454,0,0,0,23.285-26.319c-2.957-23.975-8.32-59.337-16.479-84.237A23.5,23.5,0,0,0,146.463,17.09Z" style="fill:#464965"/><path d="M93.064,134.062C88,152.649,79.285,195.312,95.4,225.817a30.7,30.7,0,0,1,3.664,14.241v39.618a16.491,16.491,0,0,1-2.027,7.829,61.574,61.574,0,0,0-6.154,18.779A17.1,17.1,0,0,0,107.7,326.346H232.134A49.65,49.65,0,0,0,280.086,264c-3.577-13.645-8.846-25.42-15.662-35l-.058-.081c-1.793-2.521-3.648-5.128-5.38-7.727-8.483-12.738-38.052-56.325-62.39-82.416a3.436,3.436,0,1,0-5.026,4.687c23.983,25.711,53.286,68.91,61.7,81.538,1.791,2.688,3.677,5.339,5.5,7.9l.058.081c6.332,8.9,11.248,19.92,14.613,32.757a42.776,42.776,0,0,1-41.3,53.727H186.368c-.21-.144-6.714-4.207-6.3-10.966.074-.948.973-9.251,9.711-9.251H207.9a3.437,3.437,0,0,0,2.388-5.907,38.952,38.952,0,0,0-18.873-9.081,27.508,27.508,0,0,1-11.391-4.636,30.837,30.837,0,0,1-12.948-22.482c0-.039-.009-.079-.014-.118-.018-.139-1.744-14.011,6.358-23.3,4.875-5.587,12.456-8.444,22.535-8.491a3.436,3.436,0,0,0,1.582-6.478c-.851-.448-21.073-10.8-39.738,4.05-.665.53-16.29,13.316-16.29,43.8V305.24a20.777,20.777,0,0,1-1.241,7.282,12.585,12.585,0,0,1-5.853,6.951H107.7a10.159,10.159,0,0,1-7.792-3.628,10.263,10.263,0,0,1-2.256-8.384,54.674,54.674,0,0,1,5.424-16.68,23.379,23.379,0,0,0,2.858-11.105V240.058a37.6,37.6,0,0,0-4.459-17.451C86.785,194.8,94.531,155.228,99.4,136.958a23.9,23.9,0,0,0,6.65.946h16.372a26.881,26.881,0,0,0,20.348,9.394h19.206a26.889,26.889,0,0,0,26.695-30.175c-3.081-24.985-8.467-59.994-16.624-84.886a26.89,26.89,0,0,0-25.586-18.583H109.309A53.857,53.857,0,0,0,66.584,34.506L57.889,45.645a23.7,23.7,0,0,1-16.608,9l-7.556.647A20.572,20.572,0,0,0,14.8,75.911v3.822a36.871,36.871,0,0,0,36.829,36.83H82.236A23.982,23.982,0,0,0,93.064,134.062ZM146.711,314.92a27.651,27.651,0,0,0,1.672-9.68V266.616c0-26.965,13.153-37.982,13.7-38.425a28.842,28.842,0,0,1,16.238-6.4,29.1,29.1,0,0,0-10.074,7.426c-9.9,11.353-8.167,27.32-8,28.653A37.546,37.546,0,0,0,175.992,285.2a34.311,34.311,0,0,0,14.205,5.835,32.138,32.138,0,0,1,5.057,1.352h-5.473c-12.293,0-16.212,10.239-16.568,15.667a18.486,18.486,0,0,0,2.572,11.423h-31.36A22.823,22.823,0,0,0,146.711,314.92ZM106.052,131.032a17.117,17.117,0,0,1-16.889-14.469h26.661c.01,1.423.027,2.861.054,4.322a26.555,26.555,0,0,0,2.214,10.147Zm59.466-96.656c7.986,24.368,13.291,58.905,16.335,83.588a20.018,20.018,0,0,1-19.875,22.462H142.772a20.128,20.128,0,0,1-20.023-19.667C121.41,47.325,141.177,24.47,145.29,20.527h1.173A20.03,20.03,0,0,1,165.518,34.376ZM63.307,49.873,72,38.734a47.03,47.03,0,0,1,37.308-18.207h7.369L96.31,43.925a27.013,27.013,0,0,1-19.158,9.213l-17.6.74A30.289,30.289,0,0,0,63.307,49.873ZM21.672,79.733V75.911a13.738,13.738,0,0,1,12.64-13.768l7.479-.641L77.44,60a33.914,33.914,0,0,0,24.053-11.567l24.3-27.91h10.44c-7.549,10.266-19.817,35.2-20.4,89.164H51.629A29.992,29.992,0,0,1,21.672,79.733Z" style="fill:#464965"/></g></svg>