<svg xmlns="http://www.w3.org/2000/svg" viewBox="0 0 340 340"><g id="Layer_13" data-name="Layer 13"><path d="M246,223.238s21.9-14.393,33.175-44.133a23.193,23.193,0,0,0-4.778-24.161l-1.768-1.871a12.315,12.315,0,0,1-3.363-8.558,41.4,41.4,0,0,1,.372-5.226,3.193,3.193,0,0,1,5.845-1.329c.414.635.863,1.285,1.349,1.94a20.371,20.371,0,0,0,30.592,2.536c5.328-5.1,9.539-13.337,7.254-26.464a3.271,3.271,0,0,1,5.915-2.418,28.577,28.577,0,0,1,3.568,7.827s6.514,14.384-11.67,30.667l-1.059,1.01A101.678,101.678,0,0,0,290.187,182.1c-8.046,16.5-19.423,41.86-24.105,62.036Z" style="fill:#464965"/><polygon points="214.603 209.438 249.931 232.23 239.207 249.573 210.084 227.057 214.603 209.438" style="fill:#e4e4f9"/><path d="M243.91,243.977l-20.092-11.072a17.812,17.812,0,0,1-9.215-15.6v-7.866L175.37,182.8l14.071,47.5,49.168,24.018Z" style="fill:#464965"/><path d="M175.37,182.8s26.477,15.906,25.978,34.677q-.021.811-.075,1.584s-2.081,11.549-22.867,11.242Z" style="fill:#464965"/><path d="M201.272,219.057c-2.5,8.31-19.592,9.449-23.413,2.68l1.122,17.551S199.824,239.288,201.272,219.057Z" style="fill:#464965"/><path d="M175.37,182.8l-29.379-16.475-3.062-27.477-41.683-4.783,1.351,29.086L75.11,164.374a3.072,3.072,0,0,0-2.34,1.253L18.655,239.442a7.953,7.953,0,0,0,.724,10.265c8.878,9.075,28.568,28.533,43.144,38.056l2.068,20.526H198.773ZM88.132,269.387S71.011,254.2,62.727,243.43c0,0,15.464-23.748,28.442-38.107Z" style="fill:#9ebfff"/><path d="M264.687,229.413c-.01.065-.025.137-.036.2-.01-.1-.019-.207-.03-.311a18.964,18.964,0,0,0-34.376,7.189l.01.041a18.953,18.953,0,1,0,34.432-7.122Z" style="fill:#464965"/><path d="M256.893,234.593c0,.033-.012.069-.018.1,0-.052-.009-.1-.015-.157a9.6,9.6,0,0,0-17.407,3.64l.006.021a9.6,9.6,0,1,0,17.434-3.606Z" style="fill:#fff"/><path d="M239.237,44.161,242,55.262a25.957,25.957,0,0,0,18.085,18.7h0a1.728,1.728,0,0,1,.134,3.28L258.205,78a25.956,25.956,0,0,0-15.989,17.716l-3.262,12.432a1.728,1.728,0,0,1-3.352-.036l-2.661-11.1a25.957,25.957,0,0,0-16.69-18.458l-1.7-.6a1.728,1.728,0,0,1,.121-3.3l.785-.211a25.958,25.958,0,0,0,18.9-20.9l1.5-9.245A1.728,1.728,0,0,1,239.237,44.161Z" style="fill:#f9c47a"/><polygon points="101.87 147.494 145.991 166.321 142.929 138.844 101.246 134.061 101.87 147.494" style="fill:#464965"/><path d="M104.958,57.4A518.614,518.614,0,0,1,167.27,31.711s4.909,13.5-6.872,26.017l14.972,3.436a26.2,26.2,0,0,1-8.345,13.5s.736,37.307-1.718,67.987c0,0-35.835,0-64.061-8.59L97.975,69.288A12.543,12.543,0,0,1,104.958,57.4Z" style="fill:#9ebfff"/><path d="M140.642,123.534a26,26,0,0,1-13.607-4.105,3.436,3.436,0,0,1,3.757-5.755c1.289.832,12.794,7.8,20.412-2.806a3.436,3.436,0,1,1,5.583,4.007C152.109,121.391,146.175,123.534,140.642,123.534Z" style="fill:#464965"/><circle cx="277.569" cy="75.401" r="3.908" style="fill:#f9c47a"/><path d="M304.09,131.646a8.912,8.912,0,0,0,1.452-7.412,35.785,35.785,0,0,0-6.593-13.592,3.166,3.166,0,0,0-5.586,2.531c1.083,6.4,1.744,14.984-.022,23.358a1.292,1.292,0,0,0,1.634,1.5A17.547,17.547,0,0,0,304.09,131.646Z" style="fill:#464965"/><path d="M90.465,308.386l1.1-38.865L94.6,205.486a3.437,3.437,0,0,0-5.982-2.467c-13.011,14.395-28.135,37.557-28.772,38.536a3.435,3.435,0,0,0,.156,3.97c7.2,9.364,20.568,21.669,24.648,25.356l-.962,33.972H67.7l-1.757-17.435a3.435,3.435,0,0,0-1.54-2.532c-15.924-10.4-38.5-33.339-45.234-40.332L75.438,167.8l27.312-1.219a3.437,3.437,0,0,0,3.279-3.592l-.473-10.185a503.353,503.353,0,0,1,66.73,32.2L195.4,308.919a3.436,3.436,0,0,0,3.374,2.806,3.508,3.508,0,0,0,.633-.058,3.436,3.436,0,0,0,2.748-4.008l-12.482-66.93a24.826,24.826,0,0,0,6.121-3.434l36.084,17.5a3.36,3.36,0,0,0,.445.156A22.387,22.387,0,0,0,271.3,239.906c0-.672,14.966-41.915,21.979-56.3A97.988,97.988,0,0,1,313.8,155.546l1.022-.973c18.663-16.741,13.485-32.09,12.579-34.347-4.336-14.346-13.991-16.751-14.4-16.847a3.436,3.436,0,0,0-4.023,4.48c4.924,14.1,3.6,24.893-3.928,32.093a17.121,17.121,0,0,1-13.281,4.739,16.752,16.752,0,0,1-12.175-6.837,37.612,37.612,0,0,1-4.587-8.164,3.435,3.435,0,0,0-3.193-2.246h-.03a3.436,3.436,0,0,0-3.2,2.19,42.516,42.516,0,0,0-2.353,20.84,3.427,3.427,0,0,0,.886,1.763L271.9,157.3a19.877,19.877,0,0,1,4.063,20.583,97.439,97.439,0,0,1-28.169,39.672,22.338,22.338,0,0,0-10.057,2.925c-29.523-22.065-59.033-41.14-88.525-56.3l-2.1-18.886c10.312.766,17.545.787,18.2.787a3.435,3.435,0,0,0,3.425-3.162c2.157-26.953,1.858-59.339,1.754-66.765a29.587,29.587,0,0,0,8.259-14.344,3.437,3.437,0,0,0-2.6-4L166.5,55.6a29.156,29.156,0,0,0,4-25.066,3.436,3.436,0,0,0-4.321-2.083,522.144,522.144,0,0,0-62.74,25.867h0a15.974,15.974,0,0,0-8.895,15.139l3.271,64.773v0l1.19,25.632-25.518,1.139a3.435,3.435,0,0,0-2.618,1.4L11.922,242.814a3.436,3.436,0,0,0,.268,4.385c1.145,1.218,27.665,29.338,47.077,42.523l1.906,18.912a3.435,3.435,0,0,0,3.418,3.091H87.03A3.2,3.2,0,0,0,90.465,308.386ZM66.972,243.242c3.226-4.833,11.689-17.28,20.286-27.985L85.047,261.9A224.7,224.7,0,0,1,66.972,243.242ZM106.478,60.485a516.682,516.682,0,0,1,58.249-24.279c.484,4.228.074,11.83-6.832,19.167a3.436,3.436,0,0,0,1.734,5.7l11.286,2.591a23.273,23.273,0,0,1-6.126,8.387,3.435,3.435,0,0,0-1.2,2.676c.008.359.657,34.922-1.464,64.432-9-.228-35.4-1.424-57.57-7.712l-3.148-62.337A9.1,9.1,0,0,1,106.478,60.485ZM104.9,138.669a224.27,224.27,0,0,0,35.224,6.033l1.8,16.148L105.2,145.18Zm75.652,53.171c6.615,2.563,18.139,11.175,17.277,27.148a22.791,22.791,0,0,1-11.979,1.264Zm6.615,35.475c.838.065,1.67.108,2.49.108a29.174,29.174,0,0,0,6.131-.649,15.241,15.241,0,0,1-7.408,7.045Zm13.518,4.716c2.312-3.513,3.945-8.2,4.1-14.474a31.757,31.757,0,0,0-2.311-12.715l10.183,7,.016.009.009.007,19.492,13.16a22.271,22.271,0,0,0-5.308,10.86c-.017.094-.013.185-.022.278a21.6,21.6,0,0,0,.209,8.657Zm48.214,23.4a15.525,15.525,0,1,1,12.875-24.2c0,.008.012.013.017.021s.022.046.036.068A15.519,15.519,0,0,1,248.9,255.431Zm61.3-105.942c-.026.023-.051.047-.077.072l-1.062,1.01A104.81,104.81,0,0,0,287.1,180.6c-6.122,12.552-14.094,30.081-19.7,46.687a22.388,22.388,0,0,0-10.746-8.385,103.6,103.6,0,0,0,25.733-38.577,26.787,26.787,0,0,0-5.492-27.738l-4.019-4.255a37.123,37.123,0,0,1,.092-7.945q.521.773,1.1,1.563a23.809,23.809,0,0,0,35.727,2.971c5.431-5.194,10.684-14.158,8.388-28.76a26.146,26.146,0,0,1,2.68,6.2,4.09,4.09,0,0,0,.15.405C321.23,123.269,326.1,135.251,310.2,149.489Z" style="fill:#464965"/></g></svg>