<svg xmlns="http://www.w3.org/2000/svg" viewBox="0 0 340 340"><g id="Layer_3" data-name="Layer 3"><path d="M136.266,200.463l8.1-6.166a121.589,121.589,0,0,0-29.693-42.051c-9.9-9.119-26.288-27.439-24.772-47.666,1.668-22.24,23.931-35.464,34.976-40.692a63.379,63.379,0,0,1,1.639-11.412c-7.517,2.864-43.932,18.4-46.4,51.37-1.826,24.35,16.7,45.3,27.91,55.622A111.378,111.378,0,0,1,136.266,200.463Z" style="fill:#464965"/><path d="M121.787,288.464a6.838,6.838,0,0,1-3.709-1.092,189.4,189.4,0,0,1-36.6-32.281c-23.167-26.765-31.152-54.285-23.09-79.585,4.211-13.217,11.9-25.086,20.909-35.379a37.816,37.816,0,0,1,5.481,15.011,81.444,81.444,0,0,0-13.3,24.541c-16.06,50.4,53.326,95.678,54.029,96.13a6.873,6.873,0,0,1-3.721,12.655Z" style="fill:#b8c0db"/><path d="M135.306,89.945l-20.79,19.722C103.493,117.143,90.4,127.44,79.3,140.13a89.029,89.029,0,0,0,5.482,15.01c25.752-29.038,60.144-53.563,60.144-53.563Z" style="fill:#464965"/><path d="M147.609,105.759a5.891,5.891,0,0,0-7.874,2.72c-.338.7-8.282,17.344-8.282,44.7v52.287l12.9-8.314-1.123-43.973c0-24.378,7-39.334,7.1-39.557A5.89,5.89,0,0,0,147.609,105.759Z" style="fill:#464965"/><path d="M133.551,93.229l-5.722-10.585A135.864,135.864,0,0,0,111.977,98.02a59.3,59.3,0,0,0-14.456,39.967c.333,20.415,2.041,57,9.46,83.991l10.427-6.657c-6.293-25.3-7.8-58.568-8.108-77.527a47.533,47.533,0,0,1,11.569-32.044A123.889,123.889,0,0,1,133.551,93.229Z" style="fill:#b8c0db"/><polygon points="97.215 268.093 97.215 290.201 97.215 329.313 132.22 329.313 132.22 290.201 132.22 268.093 97.215 268.093" style="fill:#b8c0db"/><polygon points="238.664 266.651 238.664 290.201 238.664 329.313 272.697 329.313 272.697 290.201 272.697 266.651 238.664 266.651" style="fill:#b8c0db"/><path d="M116.766,211.483S81.9,221.84,85.226,249.922A34.962,34.962,0,0,0,88.788,262.1l33.005,14.934Z" style="fill:#fff"/><path d="M255.505,207.861s27.729,11.848,29.115,35.623c-2.007,10.369-17.464,22.146-31.535,33.777C253.085,277.261,246.677,239.635,255.505,207.861Z" style="fill:#fff"/><path d="M121.793,277.034l-2.35-30.64c-4.146,5.892-13.953,16.417-30.649,15.7C98.291,280.291,121.793,277.034,121.793,277.034Z" style="fill:#464965"/><path d="M250.909,252.072a196.718,196.718,0,0,0,2.176,25.189s28.842-1.669,31.438-28.781a32.565,32.565,0,0,0,.095-5C273.491,256.817,260.636,255.939,250.909,252.072Z" style="fill:#464965"/><path d="M149.9,188.492l-33.137,22.991-1.684,29.888a57.062,57.062,0,0,1-2.9,15.244c-3.549,10.395-7.239,33.013,20.034,47.639v25.059H243.526V303.14s26.092-10.934,14.44-48.761a57.56,57.56,0,0,1-2.461-16.953V207.861l-34.649-20.874Z" style="fill:#fff"/><path d="M159.53,153.585V179.3l-9.627,9.2s.421,35.084,35.976,35.084,34.977-36.589,34.977-36.589l-15.388-10.616C189.813,167.817,174.472,160.141,159.53,153.585Z" style="fill:#ffcaca"/><path d="M149.9,188.492S159.53,217.1,186.69,217.1c30.315,0,34.166-30.117,34.166-30.117s4.4,44.242-27.2,89.665a4.794,4.794,0,0,1-7.619.29C175.632,264.387,148.8,228.067,149.9,188.492Z" style="fill:#464965"/><polygon points="204.742 145.915 159.53 131.609 159.53 153.585 205.468 176.371 204.742 145.915" style="fill:#464965"/><path d="M175.727,14.123A53.684,53.684,0,0,0,148.485,21.5,30.371,30.371,0,0,1,142,25.97a54.288,54.288,0,0,0-7.513,7.331L129.7,39.93a53.683,53.683,0,0,0-7.906,28.127q0,.622.014,1.242s19.371,12.507,56.121-6.765,19.4-43.727,19.4-43.727a50.97,50.97,0,0,0-4.762-1.9,23.318,23.318,0,0,1-6.638-1.786A52.472,52.472,0,0,0,175.727,14.123Z" style="fill:#ccccef"/><path d="M226.417,96.329a15.447,15.447,0,0,1,7.448-.028,8.39,8.39,0,0,1,6.171,9.3A46.761,46.761,0,0,1,238,114.277a10.107,10.107,0,0,1-6.923,6.509l-3.742,1.011Z" style="fill:#464965"/><path d="M132.22,304.254a34.569,34.569,0,0,0,11.416,3.826c.668.091.954,1.452.518,2.28l-.8,1.518a17.416,17.416,0,0,0-1.815,7.979v9.456H132.22Z" style="fill:#464965"/><path d="M243.526,303.14a45.492,45.492,0,0,1-14.872,4.637c-.928.09-1.162,1.961-.343,2.608l1.883,1.485c1.724,1.36,2.8,4,2.8,6.874v10.569h10.532Z" style="fill:#464965"/><path d="M197.323,18.82C193.175,37.992,177.9,74.087,121.828,69.3q.041,1.8.2,3.56c1.055,1.291,1.125,4.762,1.311,7.976a53.886,53.886,0,0,0,17.617,28.436l87.433-40.687a55.914,55.914,0,0,0-8.944-30.519,13.191,13.191,0,0,1-4.119-5.537A52.263,52.263,0,0,0,197.323,18.82Z" style="fill:#9a9acb"/><path d="M152.808,77.243a28.726,28.726,0,0,0,16.978,6.912c.091.007.182.01.272.01a3.436,3.436,0,0,0,.265-6.861,22.241,22.241,0,0,1-19.094-13.62,3.436,3.436,0,0,0-6.467,2.325,27.074,27.074,0,0,0,3.418,6.163,15.567,15.567,0,0,1-8.6,3.81,32.339,32.339,0,0,1-17.554-3.123,53.716,53.716,0,0,0,1.309,7.977,39.488,39.488,0,0,0,13.088,2.146q1.785,0,3.7-.15A22.233,22.233,0,0,0,152.808,77.243Z" style="fill:#fff"/><path d="M129.7,39.932a21.787,21.787,0,0,0,11.346,10.7,3.436,3.436,0,0,0,2.627-6.351,16.04,16.04,0,0,1-9.183-10.978A54.132,54.132,0,0,0,129.7,39.932Z" style="fill:#fff"/><path d="M146.587,36.291A19.52,19.52,0,0,0,158.3,42.757V55.251a3.437,3.437,0,0,0,6.873,0V43.161A20.209,20.209,0,0,0,181.324,32.7a3.436,3.436,0,0,0-5.928-3.476,13.446,13.446,0,0,1-13.411,7.1c-4.472-.322-7.877-1.817-10.122-4.443-3.064-3.585-3.376-8.473-3.371-10.377A54.1,54.1,0,0,0,142,25.98,21.474,21.474,0,0,0,146.587,36.291Z" style="fill:#fff"/><path d="M199.911,40.31a3.436,3.436,0,0,0,2.031-6.565c-4.585-1.419-7.621-3.763-9.022-6.967-1.452-3.322-1.037-7.1-.358-9.861a50.9,50.9,0,0,0-6.636-1.788c-.954,3.831-1.532,9.261.676,14.354C188.832,34.625,193.311,38.268,199.911,40.31Z" style="fill:#fff"/><path d="M209.665,61.752A3.441,3.441,0,0,0,213,57.493c-2.795-11.349,3.595-17.377,6.44-19.429a54.1,54.1,0,0,0-4.122-5.535c-5.486,3.953-12.35,12.965-8.991,26.607A3.438,3.438,0,0,0,209.665,61.752Z" style="fill:#fff"/><circle cx="134.473" cy="59.16" r="3.908" style="fill:#fff"/><path d="M157.688,106.362l-4.962-7.038a12.162,12.162,0,0,0-9.938-5.152h0a7.5,7.5,0,0,0-7.445,8.264c.946,9.662,5.467,24.475,24.187,25.5Z" style="fill:#ffcaca"/><path d="M160.518,85.529l4.317-4.571a26.805,26.805,0,0,0,5.1-7.715l3.837-8.819a15.264,15.264,0,0,1,14-9.173h27.289a13.334,13.334,0,0,1,13.333,13.334v47.638A40.54,40.54,0,0,1,225.992,130a56.827,56.827,0,0,1-9.6,17.2,17.248,17.248,0,0,1-13.191,5.975h-8.525a17.389,17.389,0,0,1-5.413-.856c-5.856-1.912-19.622-7.175-30.283-17.215A18.552,18.552,0,0,1,153.2,121.59V103.95A26.832,26.832,0,0,1,160.518,85.529Z" style="fill:#ffcaca"/><path d="M179.171,98.283a2.943,2.943,0,0,1-1.407-5.533,15.937,15.937,0,0,1,12.7-.45,2.945,2.945,0,0,1-2.209,5.461,9.885,9.885,0,0,0-7.739.2A2.949,2.949,0,0,1,179.171,98.283Z" style="fill:#ef9199"/><path d="M208.983,98.136a2.946,2.946,0,0,1-1.105-5.677,15.9,15.9,0,0,1,10.635-.377,2.945,2.945,0,0,1-1.758,5.622,9.829,9.829,0,0,0-6.668.215A2.929,2.929,0,0,1,208.983,98.136Z" style="fill:#ef9199"/><path d="M201.452,120.976a2.945,2.945,0,0,1-1.492-5.486,13.74,13.74,0,0,0,2.137-1.56,3.131,3.131,0,0,0,.509-4.172,17.187,17.187,0,0,0-3.478-3.867,2.965,2.965,0,0,1-.776-4.076,2.925,2.925,0,0,1,4.031-.833,21.252,21.252,0,0,1,5.02,5.358,9.008,9.008,0,0,1-1.409,12.008,19.729,19.729,0,0,1-3.056,2.224A2.934,2.934,0,0,1,201.452,120.976Z" style="fill:#ef9199"/><path d="M198.025,133.575a35.281,35.281,0,0,1-10.2-1.543,2.945,2.945,0,0,1,1.857-5.59h0c.106.034,10.807,3.474,17.625-1.231a2.945,2.945,0,0,1,3.346,4.848A22.072,22.072,0,0,1,198.025,133.575Z" style="fill:#ef9199"/><path d="M287.943,248.808c2.7-28.176-27.3-42.418-30.79-43.975l-48.3-30.475-.437-18.394a20.31,20.31,0,0,0,10.6-6.542,60.7,60.7,0,0,0,10.209-18.258,43.6,43.6,0,0,0,1.8-6.612s8.088-2.649,10.224-8.975a50.458,50.458,0,0,0,2.188-9.315,11.819,11.819,0,0,0-8.725-13.1,17.874,17.874,0,0,0-2.893-.476v-24.1a58.694,58.694,0,0,0-16.111-40.773,54.794,54.794,0,0,0-39.985-17.124,57.472,57.472,0,0,0-54.8,40.392c-13.231,5.894-41.961,22.115-44.241,52.51-.686,9.152,1.253,18.6,5.765,28.1-2,2.047-3.927,4.107-5.739,6.178l0,0c-10.369,11.853-17.634,24.166-21.595,36.6-8.445,26.5-.227,55.159,23.766,82.876,2.5,2.885,8.194,10.489,14.739,15.854v56.12h6.872v-51.99a37.64,37.64,0,0,0,6.809,2.222c2.085,9.156,7.96,18.936,21.488,26.731v23.037H144.9v-9.456a8.841,8.841,0,0,1,2.123-5.745l3.006-3.513a3.435,3.435,0,0,0-2.356-5.66A43.714,43.714,0,0,1,133.8,301.2c-24.407-13.118-21.981-32.866-18.358-43.475a60.58,60.58,0,0,0,3.075-16.161L120.1,213.35l26.428-18.336c2.1,47.092,39.389,87.175,41.047,88.934a3.441,3.441,0,0,0,2.5,1.079q.093,0,.189-.006a3.437,3.437,0,0,0,2.555-1.362c28.482-37.779,32.223-75.553,32.489-90.749l26.758,16.809v27.707a61.009,61.009,0,0,0,2.613,17.965c10.536,34.205-11.556,44.179-12.485,44.58-.039.017-.075.04-.113.058-.019.009-.04.01-.059.02-.1.047-9.808,4.67-19.239,4.568h-.048a3.436,3.436,0,0,0-1.625,6.463l7.1,3.817a4.361,4.361,0,0,1,2.3,3.847v10.569h16.444V305.188a36.08,36.08,0,0,0,17.032-26.818,43.4,43.4,0,0,0,5.268-2.218v53.161h6.873V271.727C281.9,267.023,286.889,259.82,287.943,248.808ZM231.822,116.223V99.6c3.048,0,5.154,3.21,4.809,5.737a43.113,43.113,0,0,1-1.885,8.031,6.671,6.671,0,0,1-2.94,3.608C231.81,116.722,231.822,116.474,231.822,116.223Zm-96.166,193.1a52.352,52.352,0,0,0,5.232,1.5,15.72,15.72,0,0,0-2.86,9.036v6.02h-2.372Zm89.294-193.1a36.992,36.992,0,0,1-2.19,12.606,53.8,53.8,0,0,1-8.988,16.15,13.763,13.763,0,0,1-10.569,4.76h-8.525a13.972,13.972,0,0,1-4.346-.686c-5.306-1.733-18.751-6.8-29-16.45a15.167,15.167,0,0,1-4.706-11.014V103.95a23.3,23.3,0,0,1,6.386-16.061h0l4.316-4.571a30.2,30.2,0,0,0,5.749-8.7l3.837-8.819a11.824,11.824,0,0,1,10.845-7.108h27.289a9.908,9.908,0,0,1,9.9,9.9ZM201.9,170.765l-38.931-19.311v-8.611A94.164,94.164,0,0,0,188.2,155.585a20.807,20.807,0,0,0,6.48,1.026h6.882ZM123.27,91.25q1.039,2.353,2.292,4.609c-2.61,2.515-5.06,5.075-7.287,7.636a50.965,50.965,0,0,0-12.411,34.355c.265,16.177,1.488,46.5,6.651,71.448-1.464.549-3,1.2-4.59,1.952-5.413-25.6-6.7-56.607-6.969-73.319a55.868,55.868,0,0,1,13.615-37.656C117.6,96.785,120.652,93.72,123.27,91.25Zm-13.886,4.516A62.208,62.208,0,0,0,96.8,118.589c-.436.357-.865.717-1.3,1.076a36.5,36.5,0,0,1-2.18-14.828c1.211-16.15,14.7-27.321,25.13-33.613a57.308,57.308,0,0,0,2.253,13.035A137.7,137.7,0,0,0,109.384,95.766ZM83.534,104.1c1.771-23.607,22.356-37.789,35.448-44.48-.176,1.192-.306,2.4-.407,3.612-11.892,6.469-30.515,19.893-32.1,41.088a44.439,44.439,0,0,0,3.506,20.14q-1.166,1.052-2.3,2.11A47.671,47.671,0,0,1,83.534,104.1Zm10.972,25.528c-.321,2.773-.4,9.384-.395,9.883q-4.56,4.483-8.425,9.028c-.975-2.478-1.836-5-2.57-7.533A155.955,155.955,0,0,1,94.506,129.631ZM81.8,250.147c-20.586-24.949-27.554-50.337-20.141-73.6,3.146-9.874,8.6-19.722,16.218-29.345.871,2.537,1.849,5.046,2.939,7.5a83.232,83.232,0,0,0-12.61,23.93c-6.133,19.248-1.391,39.747,14.08,60.937A32.432,32.432,0,0,0,81.8,250.147Zm-7.046-69.425c3.362-10.551,9.959-21.161,19.622-31.616.654,18.2,2.45,43.928,7.262,65.588-6.427,4.029-12.709,9.677-16.486,16.985C73.188,213.754,69.684,196.631,74.753,180.722Zm31.6,91.477a24.32,24.32,0,0,1-11.237-6.915,35.993,35.993,0,0,0,12.171-3.7A45.507,45.507,0,0,0,106.353,272.2Zm5.3-31.022a55.424,55.424,0,0,1-1.548,10.337,29.923,29.923,0,0,1-19.131,7.173,33.441,33.441,0,0,1-2.333-9.169c-2.274-19.206,15.575-29.24,24.4-32.989ZM128.017,199.5l-9.183,6.371a317.892,317.892,0,0,1-4.546-35.015,107.968,107.968,0,0,1,13.677,19.809c.015.029.035.053.052.082Zm0-22a116.58,116.58,0,0,0-14.466-17.484q-.126-2.2-.229-4.308a120.339,120.339,0,0,1,14.695,16.653Zm0-24.318v8.055A127.2,127.2,0,0,0,117,149.719c-1.395-1.285-2.756-2.616-4.07-3.957-.091-2.94-.152-5.642-.191-8.024a45.324,45.324,0,0,1,.266-5.625,211.985,211.985,0,0,1,19.53-13.552A129.842,129.842,0,0,0,128.017,153.175ZM115.4,121.716c3.578-11.961,11.446-16.629,15.311-18.106q.753.953,1.551,1.873a42.472,42.472,0,0,0,.983,4.635C128.393,112.953,122.149,116.857,115.4,121.716ZM133.57,95.844a50.488,50.488,0,0,1,42.156-78.285c22.615,0,41.206,15.05,47.189,36.223a16.655,16.655,0,0,0-7.862-1.967H187.764a18.7,18.7,0,0,0-17.147,11.238l-3.836,8.819a23.323,23.323,0,0,1-4.444,6.727l-4.317,4.572h0a30.214,30.214,0,0,0-6.4,10.316,15.606,15.606,0,0,0-8.837-2.75,10.756,10.756,0,0,0-9.218,5.108Zm6.227,57.331v38.147l-4.908,3.405V153.175a123.582,123.582,0,0,1,3.956-31.647,25.115,25.115,0,0,0,4.064,4.07A119.866,119.866,0,0,0,139.8,153.175ZM138.763,102.1a4.074,4.074,0,0,1,1.042-3.173,3.981,3.981,0,0,1,2.983-1.321,8.731,8.731,0,0,1,7.093,3.651c-.078.891-.122,20.33-.122,20.33,0,.105.006.209.008.314C141.99,117.673,139.447,109.083,138.763,102.1Zm7.907,84.452V153.175a115.534,115.534,0,0,1,2.462-23.987q1.114.452,2.291.811a21.8,21.8,0,0,0,4.671,7.078v40.749l-8.37,8Zm43.166,89.553c-7.962-9.424-30.809-38.973-35.63-72.859,6.212,8.294,16.61,17.292,32.484,17.292,15.692,0,25.158-7.72,30.773-15.832A156.134,156.134,0,0,1,189.836,276.107Zm-3.146-62.439c-20.613,0-30.113-18.117-32.749-24.282l7.962-7.606a3.434,3.434,0,0,0,1.063-2.484V159.125l54.5,29.234C215.779,195.126,209.407,213.668,186.69,213.668Zm53.4,112.209h-2.7v-7.133a11.225,11.225,0,0,0-3.928-8.538,62.043,62.043,0,0,0,6.628-1.96Zm18.853-88.451v-23.9c7.287,4.268,20.477,13.961,22.109,28.809-5.857,6.513-12.724,9.427-20.457,8.667A55.042,55.042,0,0,1,258.942,237.426Zm5.407,33.44a62.31,62.31,0,0,0-1.84-12.884c.153,0,.308.018.46.018a29.094,29.094,0,0,0,17.472-5.847C278.125,262.426,271.2,267.931,264.349,270.866Z" style="fill:#464965"/></g></svg>