<svg xmlns="http://www.w3.org/2000/svg" viewBox="0 0 340 340"><g id="Layer_9" data-name="Layer 9"><rect x="94.835" y="143.986" width="78.922" height="182.089" style="fill:#e4e4f9"/><rect x="112.334" y="164.639" width="21.962" height="103.816" style="fill:#fff"/><rect x="50.244" y="216.852" width="44.591" height="109.224" style="fill:#9a9acb"/><rect x="35.249" y="199.626" width="59.586" height="17.226" style="fill:#9a9acb"/><rect x="173.757" y="235.031" width="132.194" height="91.045" style="fill:#e4e4f9"/><rect x="173.757" y="160.45" width="29.596" height="74.581" style="fill:#464965"/><polygon points="94.835 239.782 94.835 216.852 50.244 216.852 50.244 227.621 94.835 239.782" style="fill:#464965"/><rect x="72.54" y="271.464" width="22.295" height="54.612" style="fill:#464965"/><rect x="229.928" y="275.814" width="17.729" height="50.262" style="fill:#9a9acb"/><rect x="247.657" y="275.814" width="31.965" height="50.262" transform="translate(527.279 601.89) rotate(180)" style="fill:#464965"/><rect x="173.757" y="235.031" width="16.915" height="91.045" style="fill:#9a9acb"/><rect x="173.757" y="235.031" width="132.194" height="28.849" style="fill:#9a9acb"/><path d="M326.128,249.741H203.352V133.726H326.128V166a167.333,167.333,0,0,0,0,50.542Z" style="fill:#e4e4f9"/><rect x="254.598" y="166.004" width="71.531" height="50.542" style="fill:#fff"/><polygon points="326.128 187.839 293.799 187.839 293.799 166.004 286.927 166.004 286.927 187.839 254.598 187.839 254.598 194.711 286.927 194.711 286.927 216.546 293.799 216.546 293.799 194.711 326.128 194.711 326.128 187.839" style="fill:#e4e4f9"/><path d="M144.9,41.9a3.436,3.436,0,0,0,3.436,3.436H168.4a3.436,3.436,0,1,0,0-6.872H148.338A3.436,3.436,0,0,0,144.9,41.9Z" style="fill:#464965"/><path d="M10.435,63.159A3.436,3.436,0,0,0,13.872,66.6H27.959a3.436,3.436,0,0,0,0-6.872H13.872A3.436,3.436,0,0,0,10.435,63.159Z" style="fill:#464965"/><path d="M10.435,84.417a3.436,3.436,0,0,0,3.437,3.436H27.959a3.436,3.436,0,1,0,0-6.872H13.872A3.436,3.436,0,0,0,10.435,84.417Z" style="fill:#464965"/><path d="M31.4,41.9a3.436,3.436,0,0,0-3.436-3.436H13.872a3.436,3.436,0,1,0,0,6.872H27.959A3.436,3.436,0,0,0,31.4,41.9Z" style="fill:#464965"/><path d="M96.678,63.159a3.436,3.436,0,0,0,3.436,3.436h56.541a3.436,3.436,0,1,0,0-6.872H100.114A3.436,3.436,0,0,0,96.678,63.159Z" style="fill:#464965"/><path d="M96.678,84.417a3.436,3.436,0,0,0,3.436,3.436h44.5a3.436,3.436,0,0,0,0-6.872H100.114A3.436,3.436,0,0,0,96.678,84.417Z" style="fill:#464965"/><path d="M121.2,41.9a3.436,3.436,0,0,0-3.436-3.436H100.114a3.436,3.436,0,0,0,0,6.872h17.647A3.436,3.436,0,0,0,121.2,41.9Z" style="fill:#464965"/><path d="M60.6,98.608v14.086a3.436,3.436,0,1,0,6.872,0V98.608a3.436,3.436,0,1,0-6.872,0Z" style="fill:#464965"/><path d="M39.342,98.608v14.086a3.436,3.436,0,1,0,6.872,0V98.608a3.436,3.436,0,0,0-6.872,0Z" style="fill:#464965"/><path d="M81.859,98.608v14.086a3.436,3.436,0,1,0,6.872,0V98.608a3.436,3.436,0,1,0-6.872,0Z" style="fill:#464965"/><path d="M60.6,13.924V28.011a3.436,3.436,0,1,0,6.872,0V13.924a3.436,3.436,0,1,0-6.872,0Z" style="fill:#464965"/><path d="M46.214,28.011V13.924a3.436,3.436,0,1,0-6.872,0V28.011a3.436,3.436,0,1,0,6.872,0Z" style="fill:#464965"/><path d="M81.859,13.924V28.011a3.436,3.436,0,1,0,6.872,0V13.924a3.436,3.436,0,1,0-6.872,0Z" style="fill:#464965"/><circle cx="133.05" cy="41.901" r="3.908" style="fill:#464965"/><rect x="26.886" y="24.873" width="74.301" height="76.571" rx="8.882" transform="translate(0.877 127.195) rotate(-90)" style="fill:#464965"/><rect x="42.129" y="41.901" width="43.816" height="42.517" rx="8.013" style="fill:#fff"/><path d="M53.605,48.512h8.246a2.882,2.882,0,0,1,2.037,4.919l-10.4,10.4a2.881,2.881,0,0,1-4.918-2.046l.026-8.278A5.008,5.008,0,0,1,53.605,48.512Z" style="fill:#464965"/><path d="M112.334,271.89H134.3a3.436,3.436,0,0,0,3.436-3.436V164.638A3.437,3.437,0,0,0,134.3,161.2H112.334a3.436,3.436,0,0,0-3.436,3.436V268.454A3.436,3.436,0,0,0,112.334,271.89Zm3.436-103.815h15.089v96.943H115.77Z" style="fill:#464965"/><path d="M326.128,130.29H203.352a3.437,3.437,0,0,0-3.436,3.436v23.288H177.193V143.986a3.437,3.437,0,0,0-3.436-3.436H94.835a3.437,3.437,0,0,0-3.436,3.436v52.2H35.249a3.436,3.436,0,0,0-3.436,3.436v17.226a3.436,3.436,0,0,0,3.436,3.436H46.808V326.076a3.437,3.437,0,0,0,3.436,3.436H305.95a3.437,3.437,0,0,0,3.436-3.436v-72.9h16.742a3.436,3.436,0,0,0,3.437-3.436V133.726A3.437,3.437,0,0,0,326.128,130.29ZM91.4,322.64H75.976V274.9H91.4Zm0-54.612H72.54a3.436,3.436,0,0,0-3.436,3.436V322.64H53.68V232.119L91.4,242.407Zm0-32.744L53.68,225v-4.709H91.4Zm0-21.868H38.685V203.062H91.4ZM170.321,322.64H98.271V147.422h72.05Zm6.872-158.754h22.723V231.6H177.193ZM243.248,322.64h-9.884V279.25h9.884Zm32.938,0H250.12V279.25h26.066Zm26.328,0H283.058V275.814a3.436,3.436,0,0,0-3.436-3.436H248.349a3.323,3.323,0,0,0-.346.035,3.269,3.269,0,0,0-.346-.035H229.928a3.436,3.436,0,0,0-3.436,3.436V322.64h-49.3V238.467h22.723v11.274a3.436,3.436,0,0,0,3.436,3.436h99.162Zm20.178-109.529H293.8v-18.4h28.893Zm-64.659-25.272v-18.4h28.894v18.4Zm28.894,6.872v18.4H258.033v-18.4Zm35.765-6.872H293.8v-18.4h28.893Zm0-25.271H254.6A3.436,3.436,0,0,0,251.161,166v50.543a3.437,3.437,0,0,0,3.436,3.436h68.1v26.322h-115.9V137.163h115.9Z" style="fill:#464965"/></g></svg>