<?xml version="1.0" encoding="iso-8859-1"?>
<!-- Generator: Adobe Illustrator 19.0.0, SVG Export Plug-In . SVG Version: 6.00 Build 0)  -->
<svg xmlns="http://www.w3.org/2000/svg" xmlns:xlink="http://www.w3.org/1999/xlink" version="1.1" id="Capa_1" x="0px" y="0px" viewBox="0 0 512 512" style="enable-background:new 0 0 512 512;" xml:space="preserve">
<path style="fill:#F4AA4A;" d="M504.501,164c0,6.088-4.936,11.024-11.023,11.024H18.525c-6.089,0-11.024-4.936-11.024-11.024V94.18  c0-6.088,4.936-11.024,11.024-11.024h474.952c6.088,0,11.023,4.936,11.023,11.024V164H504.501z"/>
<g>
	<path style="fill:#DB943E;" d="M43.113,83.157H18.525c-6.089,0-11.024,4.936-11.024,11.024V164c0,6.088,4.936,11.024,11.024,11.024   h24.588V83.157z"/>
	<rect x="381.274" y="83.161" style="fill:#DB943E;" width="30.792" height="90.861"/>
</g>
<path style="fill:#E28C24;" d="M504.501,253.866c0,6.088-4.936,11.024-11.023,11.024H18.525c-6.089,0-11.024-4.937-11.024-11.024  v-69.819c0-6.088,4.936-11.024,11.024-11.024h474.952c6.088,0,11.023,4.936,11.023,11.024v69.819H504.501z"/>
<path style="fill:#CC7A1F;" d="M43.113,173.023H18.525c-6.089,0-11.024,4.936-11.024,11.024v69.819  c0,6.088,4.936,11.024,11.024,11.024h24.588V173.023z"/>
<path style="fill:#F4AA4A;" d="M504.501,343.733c0,6.088-4.936,11.023-11.023,11.023H18.525c-6.089,0-11.024-4.936-11.024-11.023  v-69.819c0-6.088,4.936-11.023,11.024-11.023h474.952c6.088,0,11.023,4.936,11.023,11.023v69.819H504.501z"/>
<path style="fill:#DB943E;" d="M43.113,262.891H18.525c-6.089,0-11.024,4.936-11.024,11.023v69.819  c0,6.088,4.936,11.023,11.024,11.023h24.588V262.891z"/>
<path style="fill:#E28C24;" d="M504.501,433.599c0,6.088-4.936,11.024-11.023,11.024H18.525c-6.089,0-11.024-4.937-11.024-11.024  v-69.818c0-6.088,4.936-11.024,11.024-11.024h474.952c6.088,0,11.023,4.936,11.023,11.024v69.818H504.501z"/>
<path style="fill:#CC7A1F;" d="M18.525,352.756c-6.089,0-11.024,4.936-11.024,11.024v69.818c0,6.088,4.936,11.024,11.024,11.024  h24.568c0.004-0.131,0.02-0.259,0.02-0.392v-91.476H18.525V352.756z"/>
<path style="fill:#DDDCDB;" d="M93.397,35.978h-42.26c-6.088,0-11.023,4.936-11.023,11.023c0,12.065,0,410.822,0,429.021h64.308  c0-3.105,0-425.645,0-429.021C104.42,40.914,99.485,35.978,93.397,35.978z"/>
<path style="fill:#C2C2C2;" d="M70.602,47.001c0-6.088,4.936-11.023,11.023-11.023H51.137c-6.088,0-11.023,4.936-11.023,11.023  c0,12.065,0,410.822,0,429.021h30.488V79.157C70.602,67.453,70.602,58.59,70.602,47.001z"/>
<rect x="381.274" y="173.022" style="fill:#CC7A1F;" width="30.792" height="90.871"/>
<rect x="381.274" y="262.893" style="fill:#DB943E;" width="30.792" height="90.861"/>
<rect x="381.274" y="352.753" style="fill:#CC7A1F;" width="30.792" height="91.871"/>
<path style="fill:#DDDCDB;" d="M460.865,35.978h-42.259c-6.088,0-11.023,4.936-11.023,11.023c0,12.065,0,410.822,0,429.021h64.308  V79.157c0-11.704,0-20.566,0-32.154C471.889,40.914,466.954,35.978,460.865,35.978z"/>
<path style="fill:#C2C2C2;" d="M438.07,47.001c0-6.088,4.936-11.023,11.023-11.023h-30.488c-6.088,0-11.023,4.936-11.023,11.023  c0,12.065,0,410.822,0,429.021h30.488C438.07,472.081,438.07,50.927,438.07,47.001z"/>
<path d="M512,90.18c0-10.214-8.31-18.524-18.523-18.524h-14.088V47.001c0-10.214-8.309-18.523-18.524-18.523h-42.259  c-10.214,0-18.523,8.31-18.523,18.523v24.654H111.92V47.001c0-10.214-8.31-18.523-18.523-18.523h-42.26  c-10.214,0-18.523,8.31-18.523,18.523v24.654H18.524C8.31,71.657,0,79.966,0,90.18v69.819c0,4.132,1.377,7.939,3.672,11.024  C1.377,174.108,0,177.915,0,182.047v69.819c0,4.132,1.377,7.939,3.672,11.024C1.377,265.976,0,269.783,0,273.915v69.819  c0,4.132,1.377,7.939,3.672,11.023C1.377,357.842,0,361.65,0,365.782v69.818c0,10.215,8.31,18.524,18.524,18.524h14.088v14.397H7.5  c-4.142,0-7.5,3.357-7.5,7.5c0,4.142,3.358,7.5,7.5,7.5c13.92,0,113.226,0,126.202,0c4.143,0,7.5-3.358,7.5-7.5  c0-4.143-3.357-7.5-7.5-7.5H111.92v-14.396h288.161v14.397h-21.783c-4.143,0-7.5,3.357-7.5,7.5c0,4.142,3.357,7.5,7.5,7.5  c12.983,0,112.287,0,126.202,0c4.142,0,7.5-3.358,7.5-7.5c0-4.143-3.358-7.5-7.5-7.5h-25.111v-14.397h14.088  c10.214,0,18.523-8.31,18.523-18.524v-69.818c0-4.132-1.376-7.939-3.672-11.024c2.296-3.085,3.672-6.892,3.672-11.023v-69.819  c0-4.132-1.376-7.939-3.672-11.023c2.296-3.085,3.672-6.892,3.672-11.024v-69.819c0-4.132-1.376-7.94-3.672-11.024  c2.296-3.085,3.672-6.892,3.672-11.024V90.18z M493.477,86.657c1.942,0,3.523,1.581,3.523,3.524V160  c0,1.942-1.581,3.524-3.523,3.524h-14.088V86.657H493.477z M497,182.047v69.819c0,1.943-1.581,3.524-3.523,3.524h-14.088v-76.868  h14.088C495.419,178.523,497,180.104,497,182.047z M497,273.915v69.819c0,1.942-1.581,3.523-3.523,3.523h-14.088v-76.866h14.088  C495.419,270.391,497,271.972,497,273.915z M400.081,255.391H111.92v-76.868h288.161V255.391z M111.92,270.391h288.161v76.866  H111.92V270.391z M400.081,86.657v76.866H111.92V86.657H400.081z M15,343.733v-69.819c0-1.942,1.581-3.523,3.524-3.523h14.088  v76.866H18.524C16.581,347.256,15,345.675,15,343.733z M15,251.866v-69.819c0-1.943,1.581-3.524,3.524-3.524h14.088v76.868H18.524  C16.581,255.391,15,253.809,15,251.866z M15,90.18c0-1.942,1.581-3.524,3.524-3.524h14.088v76.866H18.524  c-1.943,0-3.524-1.581-3.524-3.524V90.18z M18.524,439.124c-1.943,0-3.524-1.581-3.524-3.524v-69.818  c0-1.943,1.581-3.524,3.524-3.524h14.088v76.867H18.524V439.124z M47.612,468.522c0-24.346,0-401.096,0-421.52  c0-1.942,1.581-3.523,3.523-3.523h42.26c1.942,0,3.523,1.581,3.523,3.523c0,2.006,0,120.778,0,124.021v91.868v91.866  c0,11.647,0,102.787,0,113.765H47.612z M111.92,439.124v-76.867h288.161v76.867H111.92z M415.081,468.522  c0-19.474,0-404.624,0-421.52c0-1.942,1.581-3.523,3.523-3.523h42.259c1.943,0,3.524,1.581,3.524,3.523c0,11.65,0,409.826,0,421.52  H415.081z M497,435.599c0,1.943-1.581,3.524-3.523,3.524h-14.088v-76.867h14.088c1.942,0,3.523,1.581,3.523,3.524V435.599z"/>
<circle cx="439.734" cy="218.792" r="9.656"/>
<circle cx="439.734" cy="126.931" r="9.657"/>
<circle cx="439.734" cy="310.203" r="9.657"/>
<circle cx="439.734" cy="401.614" r="9.657"/>
<circle cx="72.271" cy="218.792" r="9.656"/>
<circle cx="72.271" cy="126.931" r="9.657"/>
<circle cx="72.271" cy="310.203" r="9.657"/>
<circle cx="72.271" cy="401.614" r="9.657"/>
<g>
</g>
<g>
</g>
<g>
</g>
<g>
</g>
<g>
</g>
<g>
</g>
<g>
</g>
<g>
</g>
<g>
</g>
<g>
</g>
<g>
</g>
<g>
</g>
<g>
</g>
<g>
</g>
<g>
</g>
</svg>
