<?xml version="1.0" encoding="iso-8859-1"?>
<!-- Generator: Adobe Illustrator 19.0.0, SVG Export Plug-In . SVG Version: 6.00 Build 0)  -->
<svg xmlns="http://www.w3.org/2000/svg" xmlns:xlink="http://www.w3.org/1999/xlink" version="1.1" id="Capa_1" x="0px" y="0px" viewBox="0 0 512 512" style="enable-background:new 0 0 512 512;" xml:space="preserve">
<rect x="64.86" y="434.233" style="fill:#605D5D;" width="81.551" height="36.809"/>
<rect x="64.86" y="434.233" style="fill:#454545;" width="25" height="36.809"/>
<path style="fill:#DDDCDB;" d="M105.832,33.031c-18.06,0-32.699,32.752-32.699,73.155v118.198h65.399V106.187  C138.532,65.784,123.892,33.031,105.832,33.031z"/>
<path style="fill:#C2C2C2;" d="M122.182,42.842c-21.706-28.105-49.048,7.01-49.048,63.345v118.198h32.699V106.187  C105.833,79.113,112.411,55.492,122.182,42.842z"/>
<path style="fill:#DDDCDB;" d="M160.595,490.317c0,7.832-6.351,14.184-14.183,14.184H64.86c-7.834,0-14.184-6.352-14.184-14.184  v-7.092c0-7.832,6.35-14.184,14.184-14.184h81.553c7.833,0,14.183,6.352,14.183,14.184V490.317z"/>
<path style="fill:#C2C2C2;" d="M146.412,486.771H64.86c-5.951,0-11.038-3.669-13.143-8.864c-0.666,1.643-1.041,3.436-1.041,5.318  v7.092c0,7.832,6.35,14.184,14.184,14.184h81.553c7.833,0,14.183-6.352,14.183-14.184v-7.092c0-1.883-0.375-3.676-1.041-5.318  C157.449,483.102,152.362,486.771,146.412,486.771z"/>
<path style="fill:#DDDCDB;" d="M50.675,264.174v156.804c0,7.832,6.35,14.184,14.184,14.184h81.553  c7.833,0,14.183-6.352,14.183-14.184V264.174H50.675z"/>
<polygon style="fill:#605D5D;" points="72.739,224.385 50.675,264.174 160.595,264.174 138.532,224.385 "/>
<path style="fill:#C2C2C2;" d="M83.572,420.978V264.174H50.675v156.804c0,7.832,6.35,14.184,14.184,14.184h32.896  C89.922,435.161,83.572,428.81,83.572,420.978z"/>
<polygon style="fill:#454545;" points="72.739,224.385 50.675,264.174 83.572,264.174 105.635,224.385 "/>
<rect x="72.739" y="188.921" style="fill:#6F6F6F;" width="65.794" height="35.459"/>
<rect x="73.129" y="188.921" style="fill:#5B5A59;" width="32.699" height="35.459"/>
<rect x="365.391" y="434.233" style="fill:#605D5D;" width="81.551" height="36.809"/>
<rect x="365.391" y="434.233" style="fill:#454545;" width="25" height="36.809"/>
<path style="fill:#DDDCDB;" d="M406.359,33.031c-18.06,0-32.699,32.752-32.699,73.155v118.198h65.399V106.187  C439.059,65.784,424.419,33.031,406.359,33.031z"/>
<path style="fill:#C2C2C2;" d="M422.709,42.842c-4.811-6.229-10.392-9.811-16.35-9.811c-18.06,0-32.699,32.752-32.699,73.155  v118.198h32.699V106.187C406.36,79.113,412.939,55.492,422.709,42.842z"/>
<path style="fill:#DDDCDB;" d="M461.124,490.317c0,7.832-6.351,14.184-14.183,14.184h-81.553c-7.834,0-14.184-6.352-14.184-14.184  v-7.092c0-7.832,6.35-14.184,14.184-14.184h81.553c7.832,0,14.183,6.352,14.183,14.184V490.317z"/>
<path style="fill:#C2C2C2;" d="M446.941,486.771h-81.553c-5.951,0-11.038-3.669-13.143-8.864c-1.277,3.149-1.04,4.783-1.04,12.41  c0,7.832,6.35,14.184,14.184,14.184h81.553c7.832,0,14.183-6.352,14.183-14.184v-7.092c0-1.883-0.375-3.676-1.041-5.318  C457.978,483.102,452.891,486.771,446.941,486.771z"/>
<path style="fill:#DDDCDB;" d="M351.204,264.174v156.804c0,7.832,6.35,14.184,14.184,14.184h81.553  c7.832,0,14.183-6.352,14.183-14.184V264.174H351.204z"/>
<polygon style="fill:#605D5D;" points="373.267,224.385 351.204,264.174 461.124,264.174 439.059,224.385 "/>
<path style="fill:#C2C2C2;" d="M384.1,420.978V264.174h-32.896v156.804c0,7.832,6.35,14.184,14.184,14.184h32.896  C390.449,435.161,384.1,428.81,384.1,420.978z"/>
<polygon style="fill:#454545;" points="373.267,224.385 351.204,264.174 384.1,264.174 406.163,224.385 "/>
<rect x="373.271" y="188.921" style="fill:#6F6F6F;" width="65.793" height="35.459"/>
<rect x="373.661" y="188.921" style="fill:#5B5A59;" width="32.699" height="35.459"/>
<rect x="215.12" y="434.233" style="fill:#605D5D;" width="81.551" height="36.809"/>
<rect x="215.12" y="434.233" style="fill:#454545;" width="25" height="36.809"/>
<path style="fill:#DDDCDB;" d="M256.096,33.031c-18.06,0-32.699,32.752-32.699,73.155v118.198h65.399V106.187  C288.795,65.784,274.156,33.031,256.096,33.031z"/>
<path style="fill:#C2C2C2;" d="M272.445,42.842c-4.811-6.229-10.392-9.811-16.35-9.811c-18.06,0-32.699,32.752-32.699,73.155  v118.198h32.699V106.187C256.096,79.113,262.675,55.492,272.445,42.842z"/>
<path style="fill:#DDDCDB;" d="M310.859,490.317c0,7.832-6.351,14.184-14.183,14.184h-81.553c-7.835,0-14.184-6.352-14.184-14.184  v-7.092c0-7.832,6.349-14.184,14.184-14.184h81.553c7.832,0,14.183,6.352,14.183,14.184V490.317z"/>
<path style="fill:#C2C2C2;" d="M296.676,486.771h-81.553c-5.951,0-11.038-3.669-13.143-8.864c-0.666,1.643-1.041,3.436-1.041,5.318  v7.092c0,7.832,6.349,14.184,14.184,14.184h81.553c7.832,0,14.183-6.352,14.183-14.184v-7.092c0-1.883-0.375-3.676-1.041-5.318  C307.713,483.102,302.626,486.771,296.676,486.771z"/>
<path style="fill:#DDDCDB;" d="M200.94,264.174v156.804c0,7.832,6.349,14.184,14.184,14.184h81.553  c7.832,0,14.183-6.352,14.183-14.184V264.174H200.94z"/>
<polygon style="fill:#605D5D;" points="223.003,224.385 200.94,264.174 310.859,264.174 288.795,224.385 "/>
<path style="fill:#C2C2C2;" d="M233.836,420.978V264.174H200.94v156.804c0,7.832,6.349,14.184,14.184,14.184h32.896  C240.186,435.161,233.836,428.81,233.836,420.978z"/>
<polygon style="fill:#454545;" points="223.003,224.385 200.94,264.174 233.836,264.174 255.899,224.385 "/>
<rect x="223" y="188.921" style="fill:#6F6F6F;" width="65.794" height="35.459"/>
<rect x="223.4" y="188.921" style="fill:#5B5A59;" width="32.699" height="35.459"/>
<path d="M461.124,305.734c4.142,0,7.5-3.357,7.5-7.5v-34.06c0-0.28-0.018-0.556-0.048-0.828c-0.006-0.055-0.018-0.109-0.025-0.163  c-0.033-0.245-0.076-0.487-0.132-0.724c-0.017-0.074-0.037-0.146-0.056-0.22c-0.064-0.238-0.138-0.471-0.224-0.699  c-0.02-0.052-0.036-0.105-0.057-0.157c-0.116-0.288-0.246-0.568-0.395-0.836c-0.002-0.003-0.003-0.006-0.004-0.009l-21.123-38.091  c0-11.711,0-104.969,0-116.259c0-40.807-13.617-72.687-32.699-79.349V7.5c0-4.143-3.357-7.5-7.5-7.5s-7.5,3.357-7.5,7.5v19.337  c-19.082,6.662-32.699,38.541-32.699,79.349v80.352c-0.553,1.648-0.395-0.532-0.395,35.906  c-0.164,0.296-21.129,38.108-21.129,38.108c-0.193,0.35-0.321,0.646-0.452,0.997c-0.116,0.31-0.214,0.64-0.278,0.913  c-0.069,0.296-0.136,0.705-0.156,0.885c-0.03,0.271-0.048,0.547-0.048,0.826v156.804c0,9.321,5.913,17.286,14.184,20.345v21.556  c-8.271,3.059-14.184,11.024-14.184,20.345v7.092c0,11.956,9.728,21.684,21.684,21.684h81.554c11.956,0,21.684-9.728,21.684-21.684  v-7.092c0-9.321-5.913-17.286-14.184-20.345v-21.555c8.271-3.059,14.184-11.024,14.184-20.345V324.56c0-4.143-3.358-7.5-7.5-7.5  c-4.143,0-7.5,3.357-7.5,7.5v96.419c0,3.685-2.998,6.684-6.684,6.684h-81.554c-3.686,0-6.684-2.998-6.684-6.684V271.674h94.921  v26.56C453.624,302.377,456.981,305.734,461.124,305.734z M381.16,196.426h50.398v20.459H381.16V196.426z M406.359,40.531  c10.522,0,25.199,24.978,25.199,65.655v75.239H381.16v-75.239C381.16,65.51,395.837,40.531,406.359,40.531z M453.624,490.317  c0,3.685-2.998,6.684-6.684,6.684h-81.554c-3.686,0-6.684-2.998-6.684-6.684v-7.092c0-3.686,2.998-6.684,6.684-6.684h81.554  c3.685,0,6.684,2.998,6.684,6.684V490.317z M439.44,442.661v18.879h-66.554v-18.879H439.44z M363.937,256.674l13.745-24.789h56.959  l13.746,24.789H363.937z"/>
<path d="M318.484,263.178c-0.033-0.243-0.076-0.483-0.131-0.719c-0.018-0.075-0.038-0.149-0.057-0.223  c-0.063-0.237-0.138-0.469-0.223-0.697c-0.02-0.053-0.037-0.105-0.058-0.157c-0.116-0.288-0.246-0.568-0.395-0.836  c-0.002-0.003-0.003-0.006-0.004-0.009l-21.123-38.091c0-11.711,0-104.969,0-116.259c0-40.807-13.617-72.687-32.699-79.349V7.5  c0-4.143-3.358-7.5-7.5-7.5c-4.142,0-7.5,3.357-7.5,7.5v19.337c-19.083,6.662-32.699,38.541-32.699,79.349v80.352  c-0.553,1.648-0.395-0.532-0.395,35.906c-0.165,0.298-21.128,38.105-21.128,38.105c-1.572,2.842-0.935-7.501-0.935,160.428  c0,9.321,5.912,17.286,14.184,20.345v21.556c-8.271,3.059-14.184,11.024-14.184,20.345v7.092c0,11.956,9.727,21.684,21.684,21.684  h81.554c11.956,0,21.684-9.728,21.684-21.684v-7.092c0-9.321-5.913-17.286-14.184-20.345v-21.555  c8.271-3.059,14.184-11.024,14.184-20.345V324.56c0-4.143-3.357-7.5-7.5-7.5s-7.5,3.357-7.5,7.5v96.419  c0,3.685-2.998,6.684-6.684,6.684H215.32c-3.686,0-6.684-2.998-6.684-6.684V271.674h94.921v26.56c0,4.143,3.357,7.5,7.5,7.5  s7.5-3.357,7.5-7.5v-34.06c0-0.28-0.018-0.555-0.048-0.827C318.503,263.291,318.492,263.235,318.484,263.178z M231.094,196.426  h50.398v20.459h-50.398L231.094,196.426L231.094,196.426z M256.293,40.531c10.522,0,25.199,24.978,25.199,65.655v75.239h-50.398  v-75.239C231.094,65.51,245.77,40.531,256.293,40.531z M303.557,490.317c0,3.685-2.998,6.684-6.684,6.684H215.32  c-3.686,0-6.684-2.998-6.684-6.684v-7.092c0-3.686,2.998-6.684,6.684-6.684h81.554c3.686,0,6.684,2.998,6.684,6.684V490.317z   M289.373,442.661v18.879H222.82v-18.879H289.373z M213.871,256.674l13.745-24.789h56.959l13.746,24.789H213.871z"/>
<path d="M168.22,263.182c-0.032-0.245-0.076-0.486-0.131-0.722c-0.018-0.075-0.038-0.149-0.057-0.223  c-0.063-0.236-0.137-0.466-0.221-0.692c-0.021-0.055-0.038-0.11-0.06-0.164c-0.115-0.285-0.244-0.563-0.391-0.83  c-0.002-0.004-0.004-0.009-0.006-0.013l-21.123-38.092c0-11.711,0-104.968,0-116.258c0-40.807-13.617-72.687-32.699-79.349V7.5  c0-4.143-3.358-7.5-7.5-7.5s-7.5,3.357-7.5,7.5v19.337c-19.083,6.662-32.699,38.541-32.699,79.349v80.352  c-0.553,1.648-0.395-0.532-0.395,35.906c-22.616,40.788-21.781,38.8-22.014,40.9c-0.03,0.272-0.048,0.548-0.048,0.829v156.804  c0,9.321,5.912,17.286,14.184,20.345v21.556c-8.271,3.059-14.184,11.024-14.184,20.345v7.092c0,11.956,9.727,21.684,21.684,21.684  h81.554c11.957,0,21.684-9.728,21.684-21.684v-7.092c0-9.321-5.912-17.286-14.184-20.345v-21.555  c8.271-3.059,14.184-11.024,14.184-20.345V324.56c0-4.143-3.358-7.5-7.5-7.5s-7.5,3.357-7.5,7.5v96.419  c0,3.685-2.998,6.684-6.684,6.684H65.057c-3.686,0-6.684-2.998-6.684-6.684V271.674h94.921v26.56c0,4.143,3.358,7.5,7.5,7.5  s7.5-3.357,7.5-7.5v-34.06c0-0.28-0.018-0.556-0.048-0.828C168.239,263.291,168.227,263.237,168.22,263.182z M80.83,196.426h50.398  v20.459H80.83V196.426z M106.029,40.531c10.522,0,25.199,24.978,25.199,65.655v75.239H80.83v-75.239  C80.83,65.51,95.507,40.531,106.029,40.531z M153.293,490.317c0,3.685-2.998,6.684-6.684,6.684H65.057  c-3.686,0-6.684-2.998-6.684-6.684v-7.092c0-3.686,2.998-6.684,6.684-6.684h81.554c3.686,0,6.684,2.998,6.684,6.684L153.293,490.317  L153.293,490.317z M139.109,442.661v18.879H72.557v-18.879H139.109z M63.607,256.674l13.745-24.789h56.959l13.747,24.789H63.607z"/>
<g>
</g>
<g>
</g>
<g>
</g>
<g>
</g>
<g>
</g>
<g>
</g>
<g>
</g>
<g>
</g>
<g>
</g>
<g>
</g>
<g>
</g>
<g>
</g>
<g>
</g>
<g>
</g>
<g>
</g>
</svg>
