<?xml version="1.0" encoding="iso-8859-1"?>
<!-- Generator: Adobe Illustrator 19.0.0, SVG Export Plug-In . SVG Version: 6.00 Build 0)  -->
<svg xmlns="http://www.w3.org/2000/svg" xmlns:xlink="http://www.w3.org/1999/xlink" version="1.1" id="Capa_1" x="0px" y="0px" viewBox="0 0 512.001 512.001" style="enable-background:new 0 0 512.001 512.001;" xml:space="preserve">
<circle style="fill:#FFD05C;" cx="255.794" cy="393.037" r="111.457"/>
<path style="fill:#FFA645;" d="M261.584,281.73c-64.11-3.262-117.252,47.771-117.252,111.308  c0,61.555,49.902,111.457,111.457,111.457c31.523,0,59.984-13.09,80.258-34.125C240.881,465.497,195.427,350.374,261.584,281.73z"/>
<circle style="fill:#F79646;" cx="255.794" cy="393.037" r="80.739"/>
<path style="fill:#FF6D24;" d="M175.056,393.039c0,63.533,69.874,101.744,123.229,68.64  c-57.766-24.552-83.368-91.495-58.351-147.807C202.939,321.24,175.056,353.879,175.056,393.039z"/>
<path style="fill:#779300;" d="M359.182,36.678H152.818c-8.239,0-14.919,6.679-14.919,14.918v75.54  c0.021,2.655,0.713,21.472,15.454,35.364l86.374,81.375c8.865-9.401,23.688-9.395,32.545,0l86.376-81.375  c14.739-13.892,15.431-32.709,15.452-35.364v-75.54C374.101,43.357,367.423,36.678,359.182,36.678z"/>
<path style="fill:#99BA3E;" d="M359.182,36.678H215.133c-18.247,73.587,6.156,151.065,63.856,200.87l79.66-75.048  c14.739-13.892,15.431-32.709,15.452-35.364v-75.54C374.101,43.357,367.423,36.678,359.182,36.678z"/>
<path style="fill:#1B8E5A;" d="M328.851,36.678H182.157v152.96l57.57,54.237c8.865-9.401,23.688-9.395,32.545,0l56.579-53.303  V36.678z"/>
<path style="fill:#31A372;" d="M278.988,237.548l49.863-46.976V36.678H215.133C196.887,110.263,221.285,187.741,278.988,237.548z"/>
<path d="M256,304.801c-48.654,0-88.238,39.584-88.238,88.238s39.584,88.238,88.238,88.238s88.238-39.584,88.238-88.238  S304.654,304.801,256,304.801z M256,466.267c-40.378,0-73.229-32.85-73.229-73.229c0-40.378,32.85-73.229,73.229-73.229  s73.229,32.85,73.229,73.229C329.228,433.418,296.378,466.267,256,466.267z"/>
<path d="M284.915,358.632h-59.663c-4.146,0-7.505,3.359-7.505,7.505s3.359,7.505,7.505,7.505h59.663  c4.146,0,7.505-3.359,7.505-7.505S289.061,358.632,284.915,358.632z"/>
<path d="M284.915,388.279h-59.663c-4.146,0-7.505,3.359-7.505,7.505s3.359,7.505,7.505,7.505h59.663  c4.146,0,7.505-3.359,7.505-7.505S289.061,388.279,284.915,388.279z"/>
<path d="M284.915,417.928h-59.663c-4.146,0-7.505,3.359-7.505,7.505s3.359,7.505,7.505,7.505h59.663  c4.146,0,7.505-3.359,7.505-7.505S289.061,417.928,284.915,417.928z"/>
<path d="M383.077,0H128.923c-10.758,0-19.512,8.753-19.512,19.512v28.017c0,10.758,8.753,19.512,19.512,19.512h1.681v60.156  c0.033,4.035,1.045,24.963,17.814,40.766c4.696,4.424,77.348,72.871,81.6,76.878c-5.461,9.919-4.883,22.239,1.873,31.694  c-54.077,11.175-94.852,59.167-94.852,116.504c0,65.596,53.366,118.962,118.962,118.962c91.881,0,149.345-100.537,102.338-179.648  c-2.116-3.563-6.722-4.736-10.284-2.618c-3.563,2.116-4.735,6.722-2.618,10.284c41.012,69.022-9.03,156.973-89.436,156.973  c-57.32,0-103.953-46.632-103.953-103.953c0-92.65,112.917-138.964,177.978-72.983c2.911,2.951,7.662,2.984,10.613,0.074  c2.952-2.91,2.985-7.661,0.074-10.611c-16.685-16.921-37.51-28.206-60.221-32.929c6.874-9.574,7.313-21.94,1.911-31.75  l81.603-76.877c16.765-15.802,17.777-36.729,17.81-40.826V67.04h1.261c10.759,0,19.512-8.753,19.512-19.512V19.512  C402.588,8.753,393.835,0,383.077,0z M174.863,172.257l-16.154-15.218c-12.59-11.865-13.082-28.146-13.097-29.903  c0-15.369,0-60.15,0-75.54c0-4.087,3.326-7.413,7.414-7.413h21.835L174.863,172.257L174.863,172.257z M256.211,274.077  c-16.028,0-20.727-22.199-5.818-28.557c9.756-4.178,20.69,3.06,20.69,13.685C271.083,267.405,264.411,274.077,256.211,274.077z   M366.807,127.076c-0.015,1.817-0.507,18.098-13.094,29.962l-17.147,16.154V97.905c0-4.145-3.359-7.505-7.505-7.505  s-7.505,3.36-7.505,7.505v89.427l-49.452,46.588c-10.168-6.414-22.649-5.812-31.803-0.011l-50.43-47.512V44.183h131.684v27.706  c0,4.145,3.359,7.505,7.505,7.505s7.505-3.36,7.505-7.505V44.183h22.827c4.088,0,7.414,3.326,7.414,7.413  C366.807,66.954,366.807,111.577,366.807,127.076z M387.579,47.529c0,2.482-2.02,4.503-4.503,4.503h-1.261v-0.435  c0-12.363-10.059-22.423-22.424-22.423c-7.362,0-190.779,0-206.365,0c-11.828,0-22.424,9.359-22.424,22.858h-1.681  c-2.482,0-4.503-2.02-4.503-4.503V19.512c0-2.482,2.02-4.503,4.503-4.503h254.153c2.482,0,4.503,2.02,4.503,4.503V47.529z"/>
<g>
</g>
<g>
</g>
<g>
</g>
<g>
</g>
<g>
</g>
<g>
</g>
<g>
</g>
<g>
</g>
<g>
</g>
<g>
</g>
<g>
</g>
<g>
</g>
<g>
</g>
<g>
</g>
<g>
</g>
</svg>
