<?xml version="1.0" encoding="iso-8859-1"?>
<!-- Generator: Adobe Illustrator 19.0.0, SVG Export Plug-In . SVG Version: 6.00 Build 0)  -->
<svg xmlns="http://www.w3.org/2000/svg" xmlns:xlink="http://www.w3.org/1999/xlink" version="1.1" id="Capa_1" x="0px" y="0px" viewBox="0 0 512.001 512.001" style="enable-background:new 0 0 512.001 512.001;" xml:space="preserve">
<path style="fill:#FF4D56;" d="M44.389,447.991L12.082,480.3c-5.422,5.421-5.422,14.213,0,19.635c5.423,5.423,14.214,5.423,19.635,0  l32.308-32.308C56.38,462.674,49.664,456.133,44.389,447.991z"/>
<path style="fill:#D12451;" d="M23.717,487.28l28.952-28.953c-3.117-3.183-5.881-6.634-8.28-10.336L12.082,480.3  c-8.612,8.61-2.698,23.33,9.41,23.682C18.457,498.678,19.189,491.807,23.717,487.28z"/>
<path style="fill:#DDDCDB;" d="M194.429,190.784C73.163,241.068-9.299,396.389,53.165,458.851  c63.049,63.049,218.194-20.984,268.067-141.264L194.429,190.784z"/>
<path style="fill:#EDEDED;" d="M321.232,317.587l-78.286-78.286c-99.78,60.473-155.891,179.5-117.607,239.889  C201.002,470.418,287.591,398.721,321.232,317.587z"/>
<g>
	<path style="fill:#DDDCDB;" d="M284.276,42.519L284.276,42.519l-13.973-14.27l-43.986,44.942l7.195,106.819   c26.347-4.358,50.215-1.11,68.274,10.585c67.792-67.787,63.037-63.432,65.713-64.852L284.276,42.519z"/>
	<path style="fill:#DDDCDB;" d="M386.273,144.518c-1.427,2.688,3.173-2.311-64.852,65.714c11.693,18.06,14.943,41.929,10.584,68.273   l106.818,7.196l44.621-43.818C464.935,223.093,496.64,254.883,386.273,144.518z"/>
</g>
<path style="fill:#C2C2C2;" d="M253.324,79.294l33.5-34.226c-3.296-3.297-0.43-0.385-16.52-16.818l-43.986,44.942l7.195,106.819  c9.178-1.519,18.044-2.091,26.479-1.727L253.324,79.294z"/>
<path style="fill:#D12451;" d="M302.789,189.593c-27.405-17.751-68.198-16.032-110.702,2.172l128.164,128.164  c18.205-42.502,19.923-83.297,2.174-110.701c-9.774,9.777-5.652,5.654-19.034,19.035c-5.421,5.421-14.214,5.421-19.635,0  c-5.423-5.423-5.423-14.214,0-19.635C297.265,195.116,293.314,199.066,302.789,189.593z"/>
<path style="fill:#FF4D56;" d="M320.251,319.928c18.078-42.206,19.888-82.721,2.532-110.12c-0.353,0.041-0.705,0.078-1.06,0.121  c-8.9,8.903-4.978,4.981-18.331,18.333c-7.94,7.94-21.536,3.619-23.481-7.393c-1.391,0.543-2.783,1.101-4.179,1.679l-0.003-0.004  c-0.093,0.039-2.128,0.89-2.342,0.98l0.02,0.02c-10.798,4.624-21.704,10.311-32.531,17.007L320.251,319.928z"/>
<g>
	<path style="fill:#A0A0A0;" d="M383.828,128.189c-5.421-5.422-14.213-5.42-19.635,0c-15.556,15.554-66.129,66.127-81.435,81.436   c-5.423,5.421-5.423,14.212,0,19.635c5.421,5.421,14.214,5.421,19.635,0c8.38-8.379,74.717-74.718,81.434-81.435   C389.25,142.402,389.25,133.61,383.828,128.189z"/>
	<path style="fill:#A0A0A0;" d="M499.9,244.26c-5.421-5.421-14.214-5.421-19.635-0.001c-23.898,23.901-33.09,33.091-81.435,81.436   c-5.421,5.422-5.42,14.214,0.001,19.635c5.421,5.423,14.212,5.423,19.633,0c42.281-42.277,49.052-49.051,81.436-81.435   C505.32,258.473,505.321,249.684,499.9,244.26z"/>
	<path style="fill:#A0A0A0;" d="M267.755,12.118c-5.424-5.423-14.215-5.423-19.636-0.002c-8.85,8.85-72.709,72.71-81.434,81.436   c-5.421,5.421-5.421,14.212,0.001,19.635c5.421,5.421,14.213,5.421,19.633,0c8.806-8.806,73.282-73.282,81.436-81.436   C273.177,26.329,273.177,17.538,267.755,12.118z"/>
</g>
<g>
	<path style="fill:#878686;" d="M292.618,219.565c18.904-18.908,73.862-73.863,81.435-81.436c3.628-3.627,8.761-4.815,13.388-3.588   c-2.677-10.415-15.673-13.926-23.248-6.352c-15.556,15.554-66.129,66.127-81.435,81.436c-7.539,7.537-4.103,20.473,6.246,23.222   C287.822,228.248,289.018,223.164,292.618,219.565z"/>
	<path style="fill:#878686;" d="M408.691,335.635c62.51-62.51,46.435-46.433,81.435-81.436c3.627-3.627,8.761-4.814,13.387-3.587   c-2.671-10.401-15.665-13.935-23.248-6.353c-23.898,23.901-33.09,33.091-81.435,81.436c-7.548,7.548-4.086,20.482,6.248,23.223   C403.896,344.32,405.09,339.236,408.691,335.635z"/>
	<path style="fill:#878686;" d="M176.546,103.492c12.908-12.911,72.974-72.976,81.434-81.436c3.628-3.627,8.762-4.814,13.389-3.586   c-2.668-10.396-15.662-13.94-23.249-6.354c-8.85,8.85-72.709,72.71-81.434,81.436c-7.541,7.539-4.097,20.478,6.247,23.221   C171.751,112.174,172.945,107.091,176.546,103.492z"/>
</g>
<path d="M484.465,233.111c-2.057-4.776,3.744,1.77-89.093-91.067c3.272-15.188-10.141-28.698-25.409-25.406  c-92.703-92.706-86.263-87.034-91.06-89.108c6.304-21.301-20.066-36.71-35.58-21.204l-81.434,81.437  c-4.036,4.035-6.257,9.4-6.257,15.105c0,19.029,23.087,28.487,36.469,15.107l28.35-28.35l5.642,83.765  c-61.609,12.83-122.621,60.666-160.172,113.979c-5.533-0.177-9.311,5.479-7.065,10.515c-2.088,3.263-4.101,6.542-6.019,9.838  c-2.94-2.954-7.684-2.934-10.599-0.021c-2.921,2.922-2.921,7.657,0,10.578l3.164,3.164c-19.405,38.562-31.196,88.443-10.919,125.868  L6.287,475.508c-13.506,13.507-3.765,36.47,15.106,36.47c5.707,0,11.072-2.222,15.105-6.257l28.204-28.204  c37.635,20.389,87.62,8.332,125.861-10.911c3.003,3.003,4.674,5.355,8.454,5.355c6.586,0,10.038-8.02,5.268-12.79  c3.296-1.918,6.576-3.93,9.839-6.019c5.046,2.252,10.692-1.54,10.515-7.066c25.47-17.941,48.998-40.631,67.992-65.397  c2.514-3.277,1.895-7.972-1.383-10.488c-3.279-2.516-7.974-1.895-10.488,1.383c-18.062,23.546-40.654,45.384-65.166,62.589  L77.834,296.412c27.645-39.388,68.126-75.173,112.088-95.231l120.913,120.913c-4.468,9.795-9.82,19.637-15.997,29.373  c-2.213,3.488-1.18,8.11,2.309,10.322c3.488,2.215,8.109,1.181,10.323-2.309c15.825-24.943,26.292-50.074,31.183-73.563l83.73,5.64  l-28.349,28.349c-13.335,13.338-3.998,36.47,15.106,36.47c5.708,0,11.072-2.223,15.105-6.257l52.582-52.579  c2.921-2.922,2.921-7.657,0-10.578c-2.922-2.92-7.657-2.92-10.578,0l-52.582,52.58c-4.049,4.052-10.929,1.123-10.929-4.529  c0-3.871-4.757,2.104,83.311-85.964c2.497-2.497,6.56-2.496,9.056,0c2.496,2.497,2.496,6.56,0,9.057l-11.246,11.246  c-2.921,2.922-2.921,7.657,0,10.579c2.922,2.92,7.657,2.92,10.578,0l11.246-11.247C521.277,253.086,505.642,226.828,484.465,233.111  z M52.096,468.968L25.92,495.143c-2.501,2.502-6.551,2.504-9.055-0.001c-2.498-2.496-2.508-6.548,0-9.057L43.04,459.91  C45.677,463.045,48.69,466.109,52.096,468.968z M56.568,332.61l122.83,122.83C74.722,505.276,3.423,444.234,56.568,332.61z   M202.854,442.589c-3.16,1.96-6.336,3.84-9.523,5.627L63.793,318.678c1.787-3.187,3.667-6.362,5.627-9.522L202.854,442.589z   M379.694,141.247c-0.535,0.74-82.249,82.483-83.12,83.055c-6.364,4.168-13.46-4.462-8.035-9.887  c86.087-86.087,81.915-82.01,82.958-82.562C377.489,128.68,383.622,135.788,379.694,141.247z M176.995,109.272  c-3.546,0-6.405-2.869-6.405-6.404c0-3.789-4.182,1.53,83.309-85.963c2.501-2.501,6.555-2.503,9.059,0.002  c2.497,2.496,2.497,6.557,0,9.055C175.434,113.486,180.784,109.272,176.995,109.272z M271.123,40.88  c2.681,0,0.456-1.469,37.854,35.929l-26.651,26.652c-2.921,2.921-2.921,7.656,0.001,10.577c2.92,2.92,7.655,2.921,10.577-0.001  l26.65-26.651l37.427,37.428l-55.887,55.887c-18.211-9.841-39.596-11.955-60.168-9.694l-6.427-95.429  C270.542,39.535,268.453,40.88,271.123,40.88z M204.918,195.021c26.582-9.69,59.244-14.834,85.005-3.149  c-11.999,12-18.22,16.204-18.22,27.07c0,19.158,23.152,28.423,36.47,15.107l11.948-11.947c11.632,25.763,6.655,58.21-3.13,84.994  L204.918,195.021z M436.43,277.509l-95.41-6.427c2.265-20.673,0.054-42.018-9.718-60.161c27.644-27.644,21.781-21.781,55.894-55.895  l37.426,37.426l-26.651,26.651c-2.922,2.922-2.922,7.657-0.001,10.577c2.923,2.923,7.658,2.92,10.577,0.001l26.652-26.651  c37.447,37.448,35.93,35.195,35.93,37.856C471.129,243.537,472.53,241.411,436.43,277.509z"/>
<g>
</g>
<g>
</g>
<g>
</g>
<g>
</g>
<g>
</g>
<g>
</g>
<g>
</g>
<g>
</g>
<g>
</g>
<g>
</g>
<g>
</g>
<g>
</g>
<g>
</g>
<g>
</g>
<g>
</g>
</svg>
