<?xml version="1.0" encoding="iso-8859-1"?>
<!-- Generator: Adobe Illustrator 19.0.0, SVG Export Plug-In . SVG Version: 6.00 Build 0)  -->
<svg xmlns="http://www.w3.org/2000/svg" xmlns:xlink="http://www.w3.org/1999/xlink" version="1.1" id="Capa_1" x="0px" y="0px" viewBox="0 0 512 512" style="enable-background:new 0 0 512 512;" xml:space="preserve">
<path style="fill:#1B8E5A;" d="M156.511,472.475h198.356c39.283-36.857,64.646-95.071,64.646-160.587  c0-73.518-31.928-137.842-79.636-173.11H171.501C72.112,212.252,64.293,385.953,156.511,472.475z"/>
<path style="fill:#31A372;" d="M419.511,311.887c0-73.518-31.928-137.842-79.636-173.11h-93.209  c-83.774,118.792-20.178,286.312,122.672,318.398C400.263,420.476,419.511,368.955,419.511,311.887z"/>
<path style="fill:#2A7752;" d="M196.501,138.776h-25c-99.389,73.476-107.208,247.177-14.99,333.699h25  C89.439,386.09,96.966,212.361,196.501,138.776z"/>
<path style="fill:#454545;" d="M171.25,472.475c43.272,42.702,125.617,42.691,168.877,0H171.25z"/>
<path style="fill:#282828;" d="M205.365,472.475H171.25c23.338,23.03,61.322,35.979,101.497,30.96  C245.577,500.039,221.782,488.675,205.365,472.475z"/>
<path style="fill:#6F6F6F;" d="M199.784,100.337V28.56c0-8.821,7.154-15.973,15.973-15.973h79.862  c8.82,0,15.975,7.151,15.975,15.973v71.776L199.784,100.337L199.784,100.337z"/>
<path style="fill:#595959;" d="M240.758,12.588h-25c-8.818,0-15.973,7.151-15.973,15.973v71.776h25V28.56  C224.784,19.739,231.939,12.588,240.758,12.588z"/>
<path style="fill:#454545;" d="M190.065,97.337h131.248c10.092,0,18.27,8.182,18.27,18.272v23.167H171.792v-23.167  C171.792,105.519,179.974,97.337,190.065,97.337z"/>
<path style="fill:#2B2928;" d="M215.065,97.337h-25c-10.091,0-18.272,8.182-18.272,18.272v23.167h25v-23.167  C196.792,105.519,204.974,97.337,215.065,97.337z"/>
<path d="M424.305,95.931c-10.809,0-20.97-4.209-28.612-11.853c-2.93-2.928-7.678-2.928-10.607,0c-2.929,2.93-2.929,7.678,0,10.607  c34.81,34.806,94.686,10.06,94.686-39.22C479.77,24.882,454.888,0,424.305,0c-28.037,0-51.268,20.918-54.942,47.965h-50.269V29.563  c0-12.942-10.53-23.473-23.475-23.473h-79.862c-12.942,0-23.473,10.53-23.473,23.473v18.402c-36.298,0-34.172-0.158-35.821,0.416  c-0.855,0.297-21.226,7.529-46.707,29.649c-23.207,20.146-55.423,57.176-77.104,119.178c-1.367,3.91,0.694,8.188,4.604,9.556  c0.819,0.286,1.654,0.422,2.476,0.422c3.099,0,5.999-1.936,7.08-5.026c20.444-58.47,50.512-93.312,72.136-112.243  c20.232-17.715,37.061-25.204,41.37-26.951h31.966V89.84h-2.22c-14.211,0-25.772,11.562-25.772,25.772v19.243  c-21.008,16.208-38.965,37.904-52.465,63.342c-4.032,0.126-7.264,3.425-7.264,7.488c0,1.636,0.53,3.146,1.419,4.378  c-10.848,23.773-17.765,49.998-20.396,77.053h-1.989c-4.143,0-7.5,3.358-7.5,7.5c0,4.143,3.357,7.5,7.5,7.5h0.976  c-0.935,24.528,1.535,49.48,7.93,73.931c-10.98,0-10.4,15-0.639,15h5.099c9.377,28.15,23.779,53.622,42.532,74.685  c-7.12,3.451-4.691,14.245,3.263,14.245c14.331,0,11.262,0,25.487,0C190.204,500.364,221.872,512,255.688,512  c33.816,0,65.484-11.637,87.444-32.023c14.006,0,11.013,0,24.977,0c4.143,0,7.5-3.357,7.5-7.5c0-2.83-1.568-5.292-3.883-6.569  c18.828-21.096,33.281-46.633,42.684-74.862h5.098c9.691,0,10.423-15-0.639-15c6.2-23.702,8.898-48.674,7.948-73.931  c11.262,0,10.384-15,0.732-15h-1.732c-1.268-13.139-3.543-26.076-6.815-38.671c-1.041-4.008-5.129-6.411-9.146-5.372  c-4.009,1.042-6.414,5.136-5.372,9.146c2.954,11.368,5.039,23.04,6.256,34.897h-59.827c-1.38-26.249-4.938-51.247-10.406-73.932  h49.798c2.256,4.746,4.376,9.608,6.315,14.61c1.496,3.862,5.843,5.782,9.703,4.283c3.862-1.497,5.78-5.842,4.283-9.703  c-1.486-3.835-3.084-7.585-4.747-11.284c4.846-4.652,1.57-12.906-5.19-12.906h-1.118c-13.465-25.436-31.289-46.994-52.467-63.319  v-19.253c0-14.211-11.561-25.772-25.771-25.772h-2.219V62.965h57.248c4.143,0,7.5-3.357,7.5-7.5  c0-22.313,18.151-40.465,40.463-40.465c22.313,0,40.465,18.152,40.465,40.465S446.617,95.931,424.305,95.931z M174.004,146.278  h21.734c-8.649,14.612-15.962,32.187-21.733,51.905h-44.874C141.059,177.642,156.217,159.873,174.004,146.278z M247.763,198.185  h-57.968c6.306-20.439,14.313-38.186,23.71-51.905h34.259L247.763,198.185L247.763,198.185z M262.763,146.278h34.26  c9.397,13.719,17.404,31.466,23.71,51.905h-57.97V146.278z M331.832,376.046h-69.07v-73.931h73.69  C337.018,327.936,335.349,352.788,331.832,376.046z M205.899,464.977c-10.748-19.856-19.149-45.386-24.633-73.931h66.497v73.931  H205.899z M262.763,391.046h66.499c-5.484,28.543-13.885,54.073-24.633,73.931h-41.864L262.763,391.046L262.763,391.046z   M247.763,376.046h-69.068c-3.687-24.385-5.159-49.29-4.619-73.931h73.688L247.763,376.046L247.763,376.046z M174.648,287.115  c1.467-26.253,5.241-51.385,10.945-73.932h62.17v73.932H174.648z M121.229,213.185h48.792c-5.468,22.683-9.027,47.682-10.406,73.932  h-58.951C103.421,260.852,110.516,235.707,121.229,213.185z M99.585,302.115h59.483c-0.534,26.043,1.039,50.829,4.368,73.931  h-55.402C101.213,351.698,98.578,326.544,99.585,302.115z M112.818,391.046h53.079c5.118,27.88,12.953,53.099,23.137,73.931  c-10.403,0-19.292,0-29.52,0C138.91,444.973,123.064,419.611,112.818,391.046z M192.897,479.977c4.679,0,120.897,0,125.583,0  C281.962,502.669,229.476,502.707,192.897,479.977z M351.861,464.977c-24.767,0,8.849,0-30.368,0  c10.184-20.83,18.019-46.049,23.138-73.931h53.926C388.311,419.611,372.466,444.973,351.861,464.977z M411.808,302.115  c1.011,25.284-1.86,50.339-8.468,73.931H347.09c3.328-23.091,4.902-47.877,4.368-73.931H411.808z M335.879,287.115h-73.117v-73.932  h62.171C330.638,235.73,334.412,260.862,335.879,287.115z M382.427,198.185h-45.905c-5.771-19.719-13.084-37.293-21.733-51.905  h22.584C355.13,159.839,370.379,177.459,382.427,198.185z M294.001,89.839c-4.143,0-7.5,3.357-7.5,7.5c0,4.143,3.357,7.5,7.5,7.5  h27.31c5.939,0,10.771,4.832,10.771,10.772v15.667c-68.012,0-85.292,0-152.791,0v-15.667c0-5.94,4.832-10.772,10.772-10.772h72.938  c4.143,0,7.5-3.357,7.5-7.5c0-4.143-3.357-7.5-7.5-7.5h-55.717V29.563c0-4.672,3.801-8.473,8.473-8.473h79.862  c4.673,0,8.475,3.801,8.475,8.473v60.275H294.001z"/>
<g>
</g>
<g>
</g>
<g>
</g>
<g>
</g>
<g>
</g>
<g>
</g>
<g>
</g>
<g>
</g>
<g>
</g>
<g>
</g>
<g>
</g>
<g>
</g>
<g>
</g>
<g>
</g>
<g>
</g>
</svg>
