<?xml version="1.0" encoding="iso-8859-1"?>
<!-- Generator: Adobe Illustrator 19.0.0, SVG Export Plug-In . SVG Version: 6.00 Build 0)  -->
<svg xmlns="http://www.w3.org/2000/svg" xmlns:xlink="http://www.w3.org/1999/xlink" version="1.1" id="Capa_1" x="0px" y="0px" viewBox="0 0 512 512" style="enable-background:new 0 0 512 512;" xml:space="preserve">
<path style="fill:#C2C2C2;" d="M216.709,86.437h-70.728c-6.602,0-11.954,5.353-11.954,11.953v11.631h94.637V98.39  C228.663,91.789,223.312,86.437,216.709,86.437z"/>
<path style="fill:#93918C;" d="M170.99,86.437h-25.008c-6.602,0-11.954,5.353-11.954,11.953v11.631h25.008V98.39  C159.036,91.789,164.388,86.437,170.99,86.437z"/>
<path style="fill:#454545;" d="M321.136,197.331v53.778h-75.815v21.136h76.238c11.422,0,20.714-9.292,20.714-20.714v-54.2  L321.136,197.331L321.136,197.331z"/>
<rect x="161.924" y="294.908" style="fill:#C2C2C2;" width="66.792" height="136.316"/>
<rect x="161.924" y="294.908" style="fill:#989899;" width="25.008" height="136.316"/>
<path style="fill:#898888;" d="M229.644,429.225c-9.981,0-58.08,0-68.072,0c-6.053,0-10.959,4.907-10.959,10.958  c0,6.052,4.906,10.958,10.959,10.958c9.991,0,58.09,0,68.072,0c6.052,0,10.957-4.906,10.957-10.958  C240.6,434.133,235.696,429.225,229.644,429.225z"/>
<path style="fill:#6F6F6F;" d="M229.644,440.184c-9.981,0-58.08,0-68.072,0c-4.054,0-7.586-2.207-9.481-5.479  c-4.227,7.3,1.062,16.436,9.481,16.436c9.991,0,58.09,0,68.072,0c6.052,0,10.957-4.906,10.957-10.958  c0-1.998-0.543-3.865-1.477-5.479C237.227,437.976,233.697,440.184,229.644,440.184z"/>
<path style="fill:#91918A;" d="M143.328,218.914v67.85c0,5.604,4.543,10.145,10.146,10.145h83.702  c5.604,0,10.146-4.542,10.146-10.145v-67.85C246.391,218.992,144.051,218.975,143.328,218.914z"/>
<g>
	<path style="fill:#6F6F6F;" d="M247.322,218.914c-0.279,0.023-0.561,0.043-0.846,0.043h0.846V218.914z"/>
	<path style="fill:#6F6F6F;" d="M168.336,286.764v-67.807c-26.134,0-24.212,0.024-25.008-0.043v67.85   c0,5.604,4.543,10.145,10.146,10.145h25.008C172.879,296.909,168.336,292.368,168.336,286.764z"/>
</g>
<rect x="391.591" y="118.169" style="fill:#DDDCDB;" width="92.491" height="32.974"/>
<rect x="391.591" y="134.655" style="fill:#C2C2C2;" width="92.491" height="16.487"/>
<path style="fill:#D1D1D1;" d="M383.443,108.02h-23.138v70.739h23.138c5.603,0,10.146-4.543,10.146-10.146v-50.447  C393.588,112.563,389.045,108.02,383.443,108.02z"/>
<path style="fill:#A8A5A1;" d="M383.443,153.535h-23.138v25.223h23.138c5.603,0,10.146-4.543,10.146-10.146v-25.223  C393.588,148.993,389.045,153.535,383.443,153.535z"/>
<path style="fill:#FF4D56;" d="M493.04,106.344c-6.052,0-10.958,4.906-10.958,10.958v33.703c0,6.052,4.906,10.958,10.958,10.958  c6.052,0,10.958-4.906,10.958-10.958v-33.703C503.998,111.249,499.092,106.344,493.04,106.344z"/>
<path style="fill:#D12451;" d="M493.04,151.004v-33.703c0-4.054,2.207-7.585,5.479-9.48c-7.292-4.222-16.436,1.051-16.436,9.48  v33.703c0,8.434,9.152,13.703,16.436,9.48C495.246,158.59,493.04,155.058,493.04,151.004z"/>
<path style="fill:#DDDCDB;" d="M351.348,60.868c-6.053,0-10.959,4.906-10.959,10.958v38.195h21.916V71.826  C362.306,65.774,357.399,60.868,351.348,60.868z"/>
<path style="fill:#C2C2C2;" d="M356.827,62.347c-7.288-4.223-16.438,1.05-16.438,9.48v38.195h10.959V71.826  C351.347,67.773,353.554,64.241,356.827,62.347z"/>
<path style="fill:#DDDCDB;" d="M38.287,118.165c0,11.346,0,85.464,0,95.597c15.306-10.888,42.899-29.651,42.899-29.651h54.842  c0-6.986,0-58.96,0-65.947L38.287,118.165L38.287,118.165z"/>
<g>
	<path style="fill:#C2C2C2;" d="M253.568,220.915H145.982c-6.602,0-11.954-5.353-11.954-11.954v-11.63h131.494v11.63   C265.522,215.563,260.169,220.915,253.568,220.915z"/>
	<path style="fill:#C2C2C2;" d="M112.112,184.112h21.915c0-6.986,0-58.96,0-65.947h-21.915V184.112z"/>
</g>
<path style="fill:#93918C;" d="M159.036,208.961v-11.63h-25.008v11.63c0,6.602,5.353,11.954,11.954,11.954h25.008  C164.388,220.915,159.036,215.563,159.036,208.961z"/>
<path style="fill:#898888;" d="M134.028,108.02c0,8.782,0,80.136,0,91.311c12.086,0,206.163,0,218.133,0  c5.603,0,10.146-4.543,10.146-10.146c0-16.308,0-65.672,0-81.166C333.927,108.02,159.432,108.02,134.028,108.02z"/>
<path style="fill:#6F6F6F;" d="M159.036,108.02c-10.989,0-13.966,0-25.008,0c0,8.782,0,80.136,0,91.311c34.021,0-9.01,0,25.008,0  C159.036,165.692,159.036,142.02,159.036,108.02z"/>
<path style="fill:#898888;" d="M29.141,108.02H18.149c-5.604,0-10.146,4.543-10.146,10.145c0,11.426,0,95.067,0,106.389  c0,5.603,4.543,10.146,10.146,10.146h10.992c5.604,0,10.146-4.544,10.146-10.146c0-11.32,0-94.964,0-106.389  C39.287,112.563,34.745,108.02,29.141,108.02z"/>
<path style="fill:#6F6F6F;" d="M23.645,224.554c0-11.32,0-94.964,0-106.389c0-4.803,3.34-8.816,7.821-9.867  c-1.56-0.366-1.261-0.278-13.317-0.278c-5.603,0-10.145,4.543-10.145,10.145c0,11.426,0,95.067,0,106.389  c0,5.603,4.543,10.146,10.146,10.146c11.913,0,11.741,0.092,13.317-0.278C26.985,233.369,23.645,229.356,23.645,224.554z"/>
<path d="M493.54,98.836c-7.838,0-14.532,4.918-17.206,11.822h-76.441c-2.827-5.985-8.904-10.146-15.951-10.146h-13.635V71.821  c0-10.179-8.281-18.46-18.46-18.46s-18.461,8.281-18.461,18.46v28.692h-17.841c-4.144,0-7.503,3.358-7.503,7.503  s3.358,7.503,7.503,7.503c14.264,0,25.68,0,39.757,0c0,16.275,0,57.425,0,73.664c0,1.457-1.185,2.644-2.643,2.644  c-18.79,0-186.314,0-210.63,0c0-6.076,0-63.037,0-76.306c6.592,0,140.212,0,146.507,0c4.144,0,7.503-3.358,7.503-7.503  s-3.358-7.503-7.503-7.503h-51.871v-2.128c0-10.729-8.729-19.455-19.456-19.455h-70.728c-10.729,0-19.456,8.728-19.456,19.455  c0,1.3,0-0.745,0,12.274c-8.842,0-67.846,0-82.434,0c-2.827-5.985-8.904-10.146-15.951-10.146H17.648  C7.917,100.513,0,108.429,0,118.161V224.55c0,9.732,7.917,17.649,17.648,17.649H28.64c9.732,0,17.649-7.917,17.649-17.649v-6.909  c12.895-9.09,31.714-21.943,37.709-26.03c10.856,0,35.839,0,43.027,0c0,6.676,0,10.873,0,17.346c0,7.003,3.732,13.136,9.3,16.564  v61.239c0,9.046,6.915,17.648,18.602,17.648v118.752c-6.641,2.798-11.317,9.373-11.317,17.02c0,10.179,8.282,18.46,18.461,18.46  h68.072c10.178,0,18.459-8.281,18.459-18.46c0-7.859-4.945-14.568-11.879-17.227v-68.538c0-4.144-3.358-7.503-7.503-7.503  s-7.503,3.358-7.503,7.503v67.303h-51.787V304.407h51.787v24.001c0,4.143,3.358,7.503,7.503,7.503s7.503-3.359,7.503-7.503v-24.001  c11.74,0,18.6-8.666,18.6-17.648v-7.017h66.735c15.559,0,28.216-12.657,28.216-28.216v-44.696h2.385  c9.731,0,17.648-7.917,17.648-17.649v-2.925h13.635c9.731,0,17.649-7.917,17.649-17.649v-9.97h75.163  c8.208,17.966,35.246,12.116,35.246-7.638v-33.703C512,107.118,503.719,98.836,493.54,98.836z M230.143,436.724  c1.905,0,3.454,1.551,3.454,3.455c0,1.905-1.55,3.455-3.454,3.455h-68.072c-4.44,0-4.862-6.91,0.357-6.91  C168.343,436.724,223.783,436.724,230.143,436.724z M255.323,228.349c6.07-0.39,11.388-3.562,14.683-8.268  c16.258,17.152,16.436,18.341,20.613,18.341c6.555,0,9.976-7.882,5.444-12.664L278.12,206.83h36.012v36.772h-58.81v-15.253H255.323z   M258.519,206.829v2.127c0,2.455-1.997,4.451-4.451,4.451c-10.73,0-96.369,0-107.586,0c-2.455,0-4.451-1.997-4.451-4.451v-2.127  H258.519z M142.029,98.385c0-2.454,1.997-4.45,4.451-4.45h70.728c2.455,0,4.451,1.997,4.451,4.45v2.128h-79.631V98.385z   M31.283,224.549c0,1.457-1.186,2.644-2.644,2.644H17.648c-1.457,0-2.643-1.186-2.643-2.644V118.161  c0-1.457,1.185-2.644,2.643-2.644H28.64c1.457,0,2.644,1.186,2.644,2.644C31.283,132.133,31.283,209.42,31.283,224.549z   M77.467,177.903c-0.214,0.146-16.688,11.351-31.178,21.425v-73.666h58.821v50.942C79.72,176.605,80.009,176.175,77.467,177.903z   M120.114,176.605v-50.942h6.91v50.942H120.114z M240.318,286.76c0,1.457-1.186,2.643-2.644,2.643c-17.103,0-66.921,0-83.702,0  c-1.457,0-2.644-1.185-2.644-2.643v-58.303h88.989C240.318,234.617,240.318,281.399,240.318,286.76z M335.27,251.526  c0,7.284-5.927,13.211-13.211,13.211h-66.735v-6.131h66.312c4.144,0,7.503-3.358,7.503-7.502v-44.275h6.132V251.526z   M348.391,100.513V71.821c0-4.566,6.911-4.567,6.911,0v28.692H348.391z M386.586,168.607c0,1.457-1.186,2.644-2.644,2.644h-13.635  v-55.734h13.635c1.457,0,2.644,1.186,2.644,2.644C386.586,132.6,386.586,152.003,386.586,168.607z M475.079,143.632h-73.488v-17.969  h73.488L475.079,143.632L475.079,143.632z M496.995,151c0,4.566-6.91,4.567-6.91,0v-33.703c0-4.566,6.91-4.567,6.91,0V151z"/>
<g>
</g>
<g>
</g>
<g>
</g>
<g>
</g>
<g>
</g>
<g>
</g>
<g>
</g>
<g>
</g>
<g>
</g>
<g>
</g>
<g>
</g>
<g>
</g>
<g>
</g>
<g>
</g>
<g>
</g>
</svg>
