<?xml version="1.0" encoding="iso-8859-1"?>
<!-- Generator: Adobe Illustrator 19.0.0, SVG Export Plug-In . SVG Version: 6.00 Build 0)  -->
<svg xmlns="http://www.w3.org/2000/svg" xmlns:xlink="http://www.w3.org/1999/xlink" version="1.1" id="Capa_1" x="0px" y="0px" viewBox="0 0 512 512" style="enable-background:new 0 0 512 512;" xml:space="preserve">
<path style="fill:#6F6F6F;" d="M178.251,284.886L15.078,398.541c-13.696,9.542-3.566,30.913,12.393,26.619  c3.625-0.977-7.658,6.4,159.019-109.697L178.251,284.886z"/>
<path style="fill:#8C8B8B;" d="M25.419,409.55l156.963-109.33l-4.131-15.334L15.078,398.541c-10.259,7.148-7.637,23.02,4.329,26.519  C18.114,419.325,20.296,413.12,25.419,409.55z"/>
<rect x="381.686" y="113.193" transform="matrix(-0.9656 0.2601 -0.2601 -0.9656 869.3545 139.2918)" style="fill:#FF4D56;" width="87.55" height="27.942"/>
<rect x="383.593" y="127.664" transform="matrix(-0.9656 0.2601 -0.2601 -0.9656 874.9512 152.769)" style="fill:#D12451;" width="87.55" height="13.22"/>
<rect x="466.085" y="97.778" transform="matrix(-0.9656 0.2602 -0.2602 -0.9656 977.6322 94.0889)" style="fill:#C2C2C2;" width="33.006" height="27.946"/>
<rect x="477.859" y="102.344" transform="matrix(0.2602 0.9656 -0.9656 0.2602 473.1693 -379.8582)" style="fill:#D8D7D6;" width="13.22" height="33.006"/>
<path style="fill:#C2C2C2;" d="M400.046,302.132l-31.848-118.208c-1.551-5.758-7.479-9.171-13.239-7.619l-182.526,49.176  c-5.761,1.552-9.172,7.481-7.621,13.24l31.847,118.208c1.552,5.759,7.481,9.171,13.24,7.619l9.174-2.471  c-13.03-52.701,26.901-103.244,80.715-103.317c37.949-0.053,69.999,25.292,80.081,59.994l12.558-3.382  C398.187,313.821,401.597,307.892,400.046,302.132z"/>
<path style="fill:#A5A2A0;" d="M217.042,333.816L188.83,229.104c-0.793-2.944-0.282-5.931,1.17-8.356l-17.568,4.733  c-5.761,1.552-9.172,7.481-7.621,13.24l31.847,118.208c1.552,5.759,7.481,9.171,13.24,7.619l9.174-2.471  C216.865,353.146,216.081,343.617,217.042,333.816z"/>
<path style="fill:#454545;" d="M264.093,265.746c-42.06,19.745-60.214,70.028-40.47,112.089  c31.763,67.664,130.147,63.128,155.537-7.194c7.645-21.169,6.586-44.051-2.979-64.424  C357.024,265.405,307.791,245.569,264.093,265.746z"/>
<path style="fill:#333533;" d="M249.208,365.868c-17.716-37.739-4.907-82.078,28.287-105.059  c-50.517,13.965-75.939,70.017-53.871,117.027c21.853,46.552,80.842,63.424,124.299,33.429  C309.092,422.008,266.886,403.524,249.208,365.868z"/>
<circle style="fill:#6F6F6F;" cx="299.904" cy="342.027" r="56.021"/>
<path style="fill:#5B5B5B;" d="M272.588,356.689c-12.585-23.506-6.681-51.959,12.646-68.724  c-34.949,9.514-51.629,48.917-34.719,80.503c14.603,27.275,48.553,37.548,75.828,22.946c3.77-2.019,7.203-4.417,10.302-7.106  C312.018,391.012,285.148,380.148,272.588,356.689z"/>
<circle style="fill:#C2C2C2;" cx="299.904" cy="342.027" r="13.05"/>
<path style="fill:#6F6F6F;" d="M393.868,154.636c1.55,5.761-1.861,11.689-7.621,13.24l-122.545,33.016  c-5.761,1.552-11.689-1.86-13.241-7.621l-8.402-31.186c-1.552-5.76,1.86-11.689,7.62-13.24l122.548-33.014  c5.761-1.552,11.687,1.858,13.239,7.619L393.868,154.636z"/>
<path style="fill:#5B5B5B;" d="M393.868,154.636l-5.636-20.92c-1.128,3.517-3.952,6.408-7.782,7.441l-127.63,34.385  c-2.509,0.677-5.045,0.438-7.27-0.496l4.911,18.227c1.552,5.761,7.481,9.173,13.241,7.621l122.545-33.016  C392.007,166.324,395.418,160.396,393.868,154.636z"/>
<path d="M344.688,387.437c2.927-2.935,2.921-7.688-0.015-10.614c-2.935-2.929-7.688-2.92-10.614,0.015  c-30.296,30.377-82.807,9.053-82.867-34.191c-0.036-26.771,21.732-48.583,48.514-48.583c33.068,0,56.704,32.668,45.92,64.216  c-1.341,3.922,0.752,8.189,4.675,9.529c3.921,1.337,8.189-0.751,9.529-4.675c14.067-41.139-16.6-84.084-60.21-84.084  c-35.028,0.049-63.488,28.586-63.44,63.615C236.258,399.018,304.886,427.346,344.688,387.437z"/>
<path d="M279.149,342.604c0.016,11.322,9.236,20.532,20.557,20.532c11.344,0,20.575-9.236,20.559-20.586  c-0.016-11.322-9.238-20.532-20.586-20.532C288.343,322.033,279.134,331.269,279.149,342.604z M305.254,342.569  c0.004,3.059-2.482,5.551-5.539,5.555l-0.008,7.506v-7.506c-3.054,0-5.541-2.485-5.545-5.539c-0.004-3.059,2.48-5.551,5.545-5.555  C302.762,337.029,305.25,339.515,305.254,342.569z"/>
<path d="M511.739,129.027c-2.356-8.743-9.378-34.809-12.177-45.197c-1.079-4.002-5.196-6.375-9.2-5.295  c-4.002,1.079-6.373,5.197-5.295,9.2l0.403,1.497c-9.363,2.522-87.107,23.468-96.472,25.991c-4.464-5.443-11.777-8.009-18.921-6.089  L247.53,142.149c-9.748,2.626-15.541,12.694-12.915,22.441c9.13,33.891,8.556,32.189,9.556,34.288l-73.888,19.907  c-9.747,2.626-15.541,12.693-12.916,22.442l11.065,41.07L9.591,392.936c-17.954,12.511-9.012,40.79,12.844,40.79  c4.52,0,8.958-1.368,12.769-4.02l91.128-63.476c3.402-2.369,4.238-7.048,1.869-10.449c-2.37-3.403-7.049-4.236-10.449-1.868  c-98.325,68.489-91.646,64.071-93.428,64.553c-7.904,2.135-12.954-8.473-6.152-13.211L172.585,297.7l4.088,15.173l-39.486,27.504  c-3.402,2.369-4.238,7.048-1.869,10.449c2.37,3.402,7.049,4.236,10.449,1.868l35.056-24.417l8.395,31.158  c2.629,9.754,12.703,15.538,22.44,12.913l2.104-0.566c12.138,35.599,45.917,61.565,86.071,61.565  c56.942-0.078,100.201-52.375,88.864-108.696l5.489-1.478c9.746-2.626,15.538-12.693,12.914-22.442l-19.275-71.54  c-1.08-4.003-5.197-6.374-9.2-5.295c-4.002,1.079-6.373,5.197-5.295,9.2l19.275,71.539c0.473,1.756-0.569,3.569-2.323,4.041  l-5.743,1.547c-18.644-48.779-75.872-72.83-124.258-49.4c-36.159,17.511-56.625,56.639-50.16,96.391l-2.366,0.637  c-1.755,0.472-3.568-0.569-4.041-2.324c-3.339-12.392-27.745-102.98-31.847-118.207c-0.473-1.755,0.57-3.569,2.326-4.041  c7.928-2.136,174.534-47.021,182.538-49.178c1.754-0.466,3.557,0.576,4.028,2.326l6.112,22.687c1.079,4.001,5.197,6.369,9.2,5.295  c4.002-1.079,6.373-5.197,5.295-9.2c-6.715-24.922-6.276-23.693-7.272-25.785l13.913-3.749c8.707-2.346,14.24-10.632,13.455-19.324  c10.581-2.851,84.616-22.797,95.187-25.644c0.42,1.559,1.46,7.779,7.842,7.779c0.647,0,1.304-0.084,1.958-0.26  C510.446,137.149,512.818,133.03,511.739,129.027z M362.505,300.256c33.852,50.057-2.201,118.078-62.8,118.078  c-55.923,0-92.245-58.733-68.321-108.48C256.377,257.865,328.499,250.93,362.505,300.256z M394.47,129.296l63.035-16.983  l3.365,12.486l-63.036,16.983L394.47,129.296z M472.001,108.408l17.374-4.681l3.364,12.486l-17.374,4.681L472.001,108.408z   M384.098,161.18c-5.627,1.516-116.897,31.493-122.56,33.019c-1.759,0.464-3.566-0.616-4.026-2.329l-8.403-31.186  c-0.473-1.755,0.57-3.568,2.326-4.04c129.684-34.936,122.741-33.13,123.412-33.13c1.482,0,2.787,1.004,3.174,2.44  c7.042,26.139,7.762,28.806,8.404,31.184C386.897,158.895,385.854,160.709,384.098,161.18z"/>
<g>
</g>
<g>
</g>
<g>
</g>
<g>
</g>
<g>
</g>
<g>
</g>
<g>
</g>
<g>
</g>
<g>
</g>
<g>
</g>
<g>
</g>
<g>
</g>
<g>
</g>
<g>
</g>
<g>
</g>
</svg>
