<?xml version="1.0" encoding="iso-8859-1"?>
<!-- Generator: Adobe Illustrator 19.0.0, SVG Export Plug-In . SVG Version: 6.00 Build 0)  -->
<svg xmlns="http://www.w3.org/2000/svg" xmlns:xlink="http://www.w3.org/1999/xlink" version="1.1" id="Capa_1" x="0px" y="0px" viewBox="0 0 512 512" style="enable-background:new 0 0 512 512;" xml:space="preserve">
<path style="fill:#31A372;" d="M163.872,467.757v35.656H348.13v-35.656h70.377v-63.371c0-47.549-28.373-55.939-69.097-74.264  l-64.507,70.777l-29.806-29.807l-29.807,29.807l-64.506-70.777c-40.725,18.324-69.097,26.715-69.097,74.264v63.371H163.872z"/>
<path style="fill:#1B8E5A;" d="M116.396,401.665c0-37.391,14.386-54.928,37.916-68.661c-37.226,16.458-62.623,26.395-62.623,71.381  v63.371h24.707V401.665z"/>
<path style="fill:#454545;" d="M161.155,141.577h-28.468v47.87c0,8.978,7.277,16.258,16.258,16.258h12.347  C161.103,202.158,161.155,205.759,161.155,141.577z"/>
<path style="fill:#282B29;" d="M146.99,189.448v-47.87h-14.303v47.87c0,8.978,7.277,16.258,16.258,16.258h12.347  c-0.002-0.043-0.003-0.086-0.005-0.129C153.233,204.606,146.99,197.761,146.99,189.448z"/>
<path style="fill:#454545;" d="M349.04,200.636c0,1.701-0.049,3.39-0.138,5.069h12.348c8.979,0,16.258-7.279,16.258-16.258v-47.87  H349.04V200.636z"/>
<path style="fill:#282B29;" d="M364.334,200.636v-59.059H349.04v59.059c0,1.701-0.049,3.39-0.138,5.069h12.348  c1.012,0,1.999-0.105,2.958-0.281C364.288,203.837,364.334,202.243,364.334,200.636z"/>
<path style="fill:#F9BE62;" d="M293.574,286.43c-24.467,10.864-52.459,10.878-76.954-0.002v21.544  c-8.432,2.131-16.167,4.944-22.982,8.305l61.459,54.814l61.459-54.814c-6.816-3.36-14.55-6.175-22.982-8.305L293.574,286.43  L293.574,286.43z"/>
<path style="fill:#FFAA4D;" d="M234.683,321.092c4.597-1.916,6.646-5.258,6.646-10.001v-17.519  c-8.67-1.267-16.96-3.703-24.707-7.144v21.544c-8.432,2.131-16.167,4.944-22.982,8.305l16.524,14.737  c7.291-3.2,17.238-7.318,24.523-9.921L234.683,321.092z"/>
<path style="fill:#FFD589;" d="M160.155,142.577v59.059c0,52.427,42.508,94.942,94.945,94.942c52.433,0,94.94-42.514,94.94-94.942  v-59.059H160.155z"/>
<path style="fill:#FCB36B;" d="M184.862,201.636v-59.059h-24.707v59.059c0,57.204,50.276,101.562,107.298,94.142  C220.853,289.722,184.862,249.877,184.862,201.636z"/>
<g>
	<path style="fill:#ACB746;" d="M230.103,465.923c0,6.626-5.372,11.997-11.997,11.997H200.11c-6.627,0-11.997-5.372-11.997-11.997   v-28.092c0-6.628,5.371-11.997,11.997-11.997h17.996c6.626,0,11.997,5.37,11.997,11.997V465.923z"/>
	<path style="fill:#ACB746;" d="M322.513,465.923c0,6.626-5.372,11.997-11.997,11.997h-17.996c-6.627,0-11.997-5.372-11.997-11.997   v-28.092c0-6.628,5.371-11.997,11.997-11.997h17.996c6.626,0,11.997,5.37,11.997,11.997V465.923z"/>
</g>
<g>
	<path style="fill:#8C9B34;" d="M207.678,465.923v-28.092c0-6.362,4.954-11.552,11.213-11.958c-1-0.06,1.318-0.039-18.781-0.039   c-6.627,0-11.997,5.37-11.997,11.997v28.092c0,6.626,5.371,11.997,11.997,11.997c20.076,0,17.781,0.021,18.781-0.039   C212.632,477.476,207.678,472.283,207.678,465.923z"/>
	<path style="fill:#8C9B34;" d="M300.088,465.923v-28.092c0-6.362,4.954-11.552,11.213-11.958c-1-0.06,1.316-0.039-18.781-0.039   c-6.627,0-11.997,5.37-11.997,11.997v28.092c0,6.626,5.371,11.997,11.997,11.997c20.076,0,17.781,0.021,18.781-0.039   C305.042,477.476,300.088,472.283,300.088,465.923z"/>
</g>
<polygon style="fill:#2F3F08;" points="212.204,332.836 297.989,332.836 255.098,371.091 "/>
<path style="fill:#31A372;" d="M255.098,103.481c58.547,0,107.939,11.751,123.403,27.822  C378.157,63.447,323.044,8.529,255.102,8.529c-67.948,0-123.063,54.918-123.407,122.774  C147.16,115.232,196.551,103.481,255.098,103.481z"/>
<path style="fill:#1B8E5A;" d="M267.955,9.194c-72.904-7.547-135.891,49.384-136.26,122.109  c5.269-5.476,14.483-10.448,26.649-14.627C165.347,59.928,210.868,15.103,267.955,9.194z"/>
<path style="fill:#ACB746;" d="M383.452,139.68c-2.35-20.511-59.931-37.199-128.354-37.199c-68.425,0-126.005,16.687-128.355,37.199  c-0.114,0.991,0.201,1.983,0.865,2.728c0.664,0.744,1.614,1.17,2.611,1.17h249.757c0.998,0,1.948-0.426,2.611-1.17  C383.251,141.662,383.566,140.671,383.452,139.68z"/>
<g>
	<path style="fill:#8C9B34;" d="M206.993,105.349c-45.422,5.622-78.483,18.892-80.252,34.33c-0.114,0.991,0.201,1.983,0.865,2.728   c0.664,0.744,1.614,1.17,2.611,1.17h23.905C148.035,143.577,149.644,115.654,206.993,105.349z"/>
	<path style="fill:#8C9B34;" d="M351.02,327.863c-29.849-19.258-28.849-19.272-30.414-17.876   c-71.343,63.629-67.47,59.773-67.506,61.046c-0.016,0.55,0.196,1.082,0.585,1.471l29.806,29.808   c0.375,0.376,0.884,0.586,1.414,0.586c0.015,0,0.031,0,0.046-0.001c0.546-0.012,1.063-0.248,1.432-0.651l65.033-71.355   C352.246,329.976,352.058,328.534,351.02,327.863z"/>
</g>
<path style="fill:#ACB746;" d="M256.428,369.599c-71.768-64.009-67.426-60.978-69.254-59.801  c-30.438,19.638-28.732,18.205-28.899,19.487c-0.177,1.36-3.85-3.174,65.535,72.961c0.368,0.403,0.885,0.639,1.432,0.651  c0.461,0.03,1.043-0.167,1.46-0.585l29.807-29.808c0.389-0.389,0.601-0.921,0.585-1.471  C257.08,370.483,256.839,369.965,256.428,369.599z"/>
<path style="fill:#8C9B34;" d="M172.546,319.237c-14.403,9.292-14.108,8.811-14.27,10.049c-0.177,1.36-3.85-3.174,65.535,72.961  c0.368,0.403,0.885,0.639,1.432,0.651c0.461,0.03,1.043-0.167,1.46-0.585l14.077-14.077  C240.164,387.617,172.765,320.083,172.546,319.237z"/>
<g>
	<path style="fill:#ACB746;" d="M337.141,320.149c0.253-0.254,0.419-0.572,0.507-0.912l13.371,8.626   c1.038,0.671,1.226,2.113,0.394,3.027l-65.031,71.355c-0.368,0.403-0.885,0.639-1.432,0.651c-0.016,0.001-0.031,0.001-0.046,0.001   c-0.53,0-1.038-0.21-1.414-0.586l-14.077-14.077L337.141,320.149z"/>
	<path style="fill:#ACB746;" d="M420.061,467.757c-9.872,0-62.6,0-71.931,0c0,12.856,0,22.701,0,35.656c9.495,0,61.501,0,71.931,0   c6.626,0,11.997-5.372,11.997-11.997v-11.661C432.058,473.129,426.686,467.757,420.061,467.757z"/>
	<path style="fill:#ACB746;" d="M91.941,467.757c-6.626,0-11.997,5.372-11.997,11.997v11.661c0,6.626,5.372,11.997,11.997,11.997   c7.478,0,64.479,0,71.931,0c0-4.053,0-31.597,0-35.656C149.068,467.757,107.171,467.757,91.941,467.757z"/>
</g>
<g>
	<path style="fill:#8C9B34;" d="M420.061,487.533c-10.548,0-62.562,0-71.931,0c0,8.572,0-9.852,0,15.879c9.495,0,61.501,0,71.931,0   c6.626,0,11.997-5.372,11.997-11.997c0-12.832,0.064-12.308-0.197-13.77C430.864,483.263,425.966,487.533,420.061,487.533z"/>
	<path style="fill:#8C9B34;" d="M91.941,487.533c-5.905,0-10.803-4.271-11.8-9.889c-0.262,1.473-0.197,1.059-0.197,13.77   c0,6.626,5.372,11.997,11.997,11.997c7.478,0,64.479,0,71.931,0c0-18.063,0-5.748,0-15.879   C149.068,487.533,107.171,487.533,91.941,487.533z"/>
</g>
<path d="M255.098,231.471c4.142,0,7.498-3.356,7.498-7.498v-20.495c0-4.142-3.356-7.498-7.498-7.498s-7.498,3.356-7.498,7.498  v20.495C247.599,228.115,250.956,231.471,255.098,231.471z"/>
<circle cx="212.853" cy="195.984" r="10.998"/>
<circle cx="297.334" cy="195.984" r="10.998"/>
<path d="M285.554,178.35c0.506-0.308,12.607-7.481,27.543,0.286c3.672,1.913,8.202,0.484,10.112-3.191  c1.912-3.673,0.482-8.201-3.191-10.112c-22.785-11.854-41.653-0.181-42.445,0.321c-3.495,2.221-4.56,6.871-2.339,10.368  C277.451,179.516,282.055,180.573,285.554,178.35z"/>
<path d="M226.37,178.347c3.488,2.179,8.09,1.138,10.3-2.342c2.22-3.496,1.185-8.13-2.31-10.351  c-0.792-0.502-19.658-12.175-42.445-0.321c-3.674,1.911-5.104,6.439-3.191,10.112c1.909,3.671,6.434,5.106,10.112,3.191  C213.704,170.903,225.763,177.977,226.37,178.347z"/>
<path d="M230.668,243.887c-1.912,3.673-0.482,8.201,3.191,10.112c15.576,8.104,32.519,5.966,42.445-0.321  c3.495-2.221,4.56-6.871,2.339-10.368c-2.22-3.495-6.823-4.55-10.321-2.328c-0.507,0.31-12.606,7.481-27.543-0.286  C237.109,238.787,232.579,240.211,230.668,243.887z"/>
<path d="M218.106,419.333H200.11c-10.75,0-19.496,8.746-19.496,19.496v28.092c0,10.75,8.746,19.496,19.496,19.496h17.996  c10.75,0,19.496-8.746,19.496-19.496v-28.092C237.602,428.079,228.855,419.333,218.106,419.333z M222.605,466.919  c0,2.48-2.019,4.499-4.499,4.499H200.11c-2.481,0-4.499-2.019-4.499-4.499v-28.092c0-2.48,2.018-4.499,4.499-4.499h17.996  c2.48,0,4.499,2.019,4.499,4.499V466.919z"/>
<path d="M292.518,419.333c-10.75,0-19.496,8.746-19.496,19.496v28.092c0,10.75,8.746,19.496,19.496,19.496h17.996  c10.75,0,19.496-8.746,19.496-19.496v-28.092c0-10.75-8.746-19.496-19.496-19.496H292.518z M315.013,438.828v28.092  c0,2.48-2.019,4.499-4.499,4.499h-17.996c-2.481,0-4.499-2.019-4.499-4.499v-28.092c0-2.48,2.018-4.499,4.499-4.499h17.996  C312.996,434.329,315.013,436.347,315.013,438.828z"/>
<path d="M426.005,462.189v-32.211c0-4.142-3.356-7.498-7.498-7.498c-4.142,0-7.498,3.356-7.498,7.498v31.276  c-11.789,0-43.448,0-55.381,0V414.15c0-4.142-3.356-7.498-7.498-7.498s-7.498,3.356-7.498,7.498c0,8.007,0,74.237,0,82.761h-78.036  V390.19c16.675,16.676,17.187,17.302,18.155,17.947c2.987,1.999,7.143,1.608,9.695-1.192l60.856-66.772  c38.384,17.02,59.707,24.661,59.707,65.209c0,4.142,3.356,7.498,7.498,7.498c4.142,0,7.498-3.356,7.498-7.498  c0-51.374-31.498-62.39-70.364-79.695c-0.47-0.553-1.016-1.046-1.639-1.448l-28-18.064c-5.309-3.425-9.512,1.111-10.766,2.229  c-4.465-1.946-9.198-3.669-14.164-5.148v-9.096c29.897-15.08,51.445-44.379,55.694-78.958h5.484c13.1,0,23.757-10.657,23.757-23.757  v-40.918c6.142-2.467,7.395-13.669-0.059-23.039c-0.87-33.782-14.476-65.413-38.506-89.335c-51.105-50.869-133.569-50.874-184.684,0  c-24.033,23.922-37.643,55.555-38.512,89.338c-6.282,7.898-7.364,20.1-0.056,23.036v40.918c0,13.099,10.657,23.757,23.757,23.757  h5.483c4.249,34.578,25.796,63.878,55.695,78.957v9.097c-4.967,1.479-9.7,3.202-14.164,5.148c-1.234-1.1-5.427-5.673-10.766-2.228  c-30.513,19.686-28.615,18.308-29.638,19.512C115.707,342.983,84.189,354,84.189,405.384v57.489  c-6.902,3.004-11.744,9.884-11.744,17.879v11.661c0,10.75,8.746,19.496,19.496,19.496c65.744,0,62.64,0.503,67.437-1.506  c2.864,2.152-10.743,1.506,188.752,1.506c1.689,0,3.241-0.565,4.494-1.506c4.904,2.053,2.059,1.506,67.437,1.506  c10.75,0,19.496-8.746,19.496-19.496v-11.661C439.557,472.074,433.855,464.708,426.005,462.189z M255.098,362.038l-17.978-16.034  h35.956C259.424,358.181,263.141,354.866,255.098,362.038z M338.425,332.037l-53.773,59.002l-18.639-18.64  c0.001-0.001,55.535-49.529,55.535-49.531l1.119-0.998L338.425,332.037z M371.009,191.443c0,4.83-3.93,8.76-8.76,8.76h-4.712  v-49.132h13.472V191.443z M255.102,15.024c58.452,0,107.105,43.713,114.831,100.164c-51.401-26.962-178.413-26.887-229.672,0  C147.99,58.737,196.647,15.024,255.102,15.024z M139.185,191.443v-40.372h13.471v49.132h-4.711  C143.116,200.203,139.185,196.273,139.185,191.443z M167.78,207.33c-0.171-3.217-0.127,0.057-0.127-56.258H295.38  c4.142,0,7.498-3.356,7.498-7.498c0-4.142-3.356-7.498-7.498-7.498c-8.078,0-151.71,0-158.84,0  c27.281-30.893,190.363-36.984,233.894-2.954c0,0,0,0,0.001,0c1.335,1.044,2.608,2.26,3.219,2.953c-10.249,0-40.058,0-51.78,0  c-4.142,0-7.498,3.356-7.498,7.498c0,4.142,3.356,7.498,7.498,7.498h20.667v51.561c0,36.094-22.095,67.752-54.533,81.009  C233.178,305.997,170.994,267.749,167.78,207.33z M218.457,316.237c3.329-0.841,5.662-3.836,5.662-7.269v-8.683  c19.31,6.205,41.359,6.545,61.957,0.001v8.682c0,3.434,2.332,6.43,5.662,7.269c3.811,0.963,7.48,2.075,10.983,3.327l-12.83,11.442  h-69.586l-12.83-11.442C210.975,318.314,214.645,317.201,218.457,316.237z M187.528,321.87c0.051,0.045,38.741,34.552,56.653,50.528  l-18.639,18.641l-53.772-59.002L187.528,321.87z M151.875,496.91H91.94c-2.48,0-4.499-2.019-4.499-4.499V480.75  c0-2.481,2.019-4.499,4.499-4.499h59.934c2.48,0,4.499,2.018,4.499,4.499v11.661C156.374,494.893,154.355,496.91,151.875,496.91z   M171.37,414.15c0-4.142-3.356-7.498-7.498-7.498c-4.142,0-7.498,3.356-7.498,7.498v47.105c-8.611,0-52.71,0-57.187,0v-55.873  c0-40.543,21.316-48.19,59.707-65.209c66.332,72.781,61.855,69.22,66.397,69.22c1.707,0,3.354-0.586,4.678-1.643  c0.241-0.189,0.432-0.36,0.624-0.553l17.007-17.007v106.72H171.37C171.37,488.389,171.37,422.163,171.37,414.15z M424.56,492.411  c0,2.48-2.019,4.499-4.499,4.499h-59.934c-2.48,0-4.499-2.019-4.499-4.499V480.75c0-2.481,2.019-4.499,4.499-4.499  c7.378,0,54.545,0,59.934,0c2.48,0,4.499,2.018,4.499,4.499V492.411z"/>
<g>
</g>
<g>
</g>
<g>
</g>
<g>
</g>
<g>
</g>
<g>
</g>
<g>
</g>
<g>
</g>
<g>
</g>
<g>
</g>
<g>
</g>
<g>
</g>
<g>
</g>
<g>
</g>
<g>
</g>
</svg>
