<?xml version="1.0" encoding="iso-8859-1"?>
<!-- Generator: Adobe Illustrator 19.0.0, SVG Export Plug-In . SVG Version: 6.00 Build 0)  -->
<svg xmlns="http://www.w3.org/2000/svg" xmlns:xlink="http://www.w3.org/1999/xlink" version="1.1" id="Capa_1" x="0px" y="0px" viewBox="0 0 511.999 511.999" style="enable-background:new 0 0 511.999 511.999;" xml:space="preserve">
<path style="fill:#454545;" d="M256.25,253.675v34.211c0,13.168-10.713,23.882-23.881,23.882h-86.731  c-1.087,5.009-1.991,10.037-2.736,15.021h89.466c21.45,0,38.901-17.452,38.901-38.902v-34.211L256.25,253.675L256.25,253.675z"/>
<path style="fill:#DDDBDB;" d="M108.949,139.519c0-6.636,5.38-12.016,12.016-12.016h2.592l-41.755-20.236  c-5.721-2.773-12.603-0.382-15.377,5.339c-2.771,5.72-0.383,12.603,5.338,15.376l37.186,18.022V139.519z"/>
<path style="fill:#C2C2C2;" d="M77.02,117.968c-3.985-1.932-6.347-5.86-6.48-9.999c-7.549,4.873-6.824,16.113,1.223,20.012  l37.186,18.022c0-6.825-0.299-8.76,1.313-11.925L77.02,117.968z"/>
<path style="fill:#DDDDDD;" d="M443.407,106.112c-11.614,0-21.029,9.415-21.029,21.029h42.058  C464.436,115.526,455.02,106.112,443.407,106.112z"/>
<path style="fill:#C2C2C2;" d="M453.922,108.948c-13.989-8.105-31.543,2.018-31.543,18.193h21.029  C443.407,119.362,447.642,112.585,453.922,108.948z"/>
<path style="fill:#DDDBDB;" d="M491.473,126.501H313.229c0,8.373,0,60.723,0,69.185h178.244c6.635,0,12.016-5.378,12.016-12.017  c0-6.199,0-38.947,0-45.151C503.489,131.881,498.109,126.501,491.473,126.501z"/>
<path style="fill:#C2C2C2;" d="M491.473,161.733H313.229c0,43.862,0,6.295,0,33.952h178.244c6.635,0,12.016-5.378,12.016-12.017  v-33.952C503.489,156.353,498.109,161.733,491.473,161.733z"/>
<rect x="443.406" y="126.502" style="fill:#878383;" width="31.042" height="69.185"/>
<rect x="443.406" y="161.731" style="fill:#686565;" width="31.042" height="33.952"/>
<path style="fill:#898888;" d="M390.335,182.578h-77.105v26.216h77.105C406.451,208.793,406.381,182.578,390.335,182.578z"/>
<path style="fill:#727171;" d="M390.335,195.686h-77.105v13.108h77.105c6.636,0,12.016-5.38,12.016-12.016  c0-2.523,0.174-4.721-1.323-7.645C399.038,193.019,395.001,195.686,390.335,195.686z"/>
<path style="fill:#898888;" d="M175.083,254.677h-20.07c-6.636,0-12.016-5.379-12.016-12.016v-5.007h-22.031  c-6.636,0-12.016-5.379-12.016-12.016v-12.016c0,0-70.096,54.074-89.122,191.261h123.169  C142.997,404.882,131.713,301.588,175.083,254.677z"/>
<path style="fill:#6F6F6F;" d="M108.949,213.621c0,0-70.096,54.074-89.122,191.261h24.997  c12.349-89.041,46.206-143.057,68.453-170.013C107.971,230.445,108.949,225.776,108.949,213.621z"/>
<path style="fill:#454545;" d="M143.998,126.501h-24.034c-6.636,0-12.016,5.38-12.016,12.016v88.12  c0,6.637,5.38,12.016,12.016,12.016h24.034V126.501z"/>
<path style="fill:#383838;" d="M132.982,226.638v-88.12c0-6.299,4.849-11.456,11.016-11.966v-0.05h-24.034  c-6.636,0-12.016,5.38-12.016,12.016v88.12c0,6.637,5.38,12.016,12.016,12.016h24.034v-0.05  C137.83,238.094,132.982,232.937,132.982,226.638z"/>
<path style="fill:#FFD05C;" d="M291.41,111.481V96.115c0-6.637-5.38-12.016-12.016-12.016h-102.14  c-6.636,0-12.016,5.379-12.016,12.016v15.366H291.41z"/>
<path style="fill:#FFA645;" d="M202.578,84.098h-25.324c-6.636,0-12.016,5.379-12.016,12.016v15.366h25.324V96.115  C190.562,89.478,195.942,84.098,202.578,84.098z"/>
<path style="fill:#636362;" d="M152.307,416.392c0-6.357-5.15-11.51-11.51-11.51H20.02c-6.357,0-11.509,5.154-11.509,11.51  s5.152,11.509,11.509,11.509h120.777C147.158,427.901,152.307,422.746,152.307,416.392z"/>
<g>
	<path style="fill:#454545;" d="M38.363,416.392c0-6.357,5.152-11.51,11.509-11.51H20.02c-6.357,0-11.509,5.154-11.509,11.51   s5.152,11.509,11.509,11.509h29.852C43.515,427.901,38.363,422.746,38.363,416.392z"/>
	<path style="fill:#454545;" d="M217.086,287.323c-5.404-12.619-5.733-24.179-5.447-29.946c0.113-2.281-1.707-4.203-4-4.203   c-17.828,0-18.27-0.473-19.869,1.419c-0.762,0.899-1.087,2.088-0.892,3.251c3.396,20.21,15.336,29.997,24.754,34.649   c1.511,0.744,3.316,0.466,4.528-0.684C217.376,290.655,217.747,288.865,217.086,287.323z"/>
</g>
<path style="fill:#383838;" d="M214.471,289.939c-7.257-6.72-15.359-18.442-14.206-36.765c-9.958,0-10.962-0.396-12.496,1.419  c-0.762,0.899-1.087,2.088-0.892,3.251c3.396,20.21,15.336,29.997,24.754,34.649c1.511,0.744,3.316,0.466,4.528-0.684  c0.26-0.246,0.474-0.527,0.655-0.823C215.919,290.901,215.11,290.529,214.471,289.939z"/>
<path style="fill:#6F6F6F;" d="M314.231,243.662c0,6.637-5.38,12.016-12.016,12.016H154.012c-6.636,0-12.016-5.379-12.016-12.016  V121.495c0-6.636,5.38-12.016,12.016-12.016h148.203c6.636,0,12.016,5.38,12.016,12.016V243.662z"/>
<path style="fill:#565454;" d="M167.029,243.662V121.495c0-6.636,5.38-12.016,12.016-12.016h-25.034  c-6.636,0-12.016,5.38-12.016,12.016v122.167c0,6.637,5.38,12.016,12.016,12.016h25.034  C172.41,255.678,167.029,250.298,167.029,243.662z"/>
<path style="fill:#454545;" d="M314.231,156.362h-124.17c-6.636,0-12.016,5.379-12.016,12.016v28.398  c0,6.636,5.38,12.016,12.016,12.016h124.17V156.362z"/>
<path style="fill:#383838;" d="M202.115,196.777v-28.398c0-6.637,5.38-12.016,12.016-12.016H190.06  c-6.636,0-12.016,5.379-12.016,12.016v28.398c0,6.636,5.38,12.016,12.016,12.016h24.072  C207.496,208.793,202.115,203.414,202.115,196.777z"/>
<path d="M492.473,118.491c-11.975,0-8.444,0-20.434,0c-3.181-12.288-14.364-21.39-27.632-21.39c-13.268,0-24.45,9.102-27.632,21.39  h-95.215c-1.236-9.586-9.431-17.023-19.347-17.023h-3.294v-5.853c0-10.767-8.76-19.527-19.527-19.527h-102.14  c-10.768,0-19.527,8.76-19.527,19.527v5.853h-3.716c-9.918,0-18.113,7.437-19.347,17.023h-10.384  C80.754,97.398,81.591,97.1,75.79,97.1c-7.243,0-13.964,4.211-17.124,10.729c-4.572,9.437-0.616,20.835,8.821,25.409l32.951,15.97  v61.42c-5.994,5.279-20.394,19.21-36.216,43.59c-18.126,27.93-41.644,75.546-52.078,144.961C5.048,401.943,0,408.831,0,416.892  c0,10.487,8.532,19.019,19.018,19.019h120.777c19.477,0,26.313-26.021,9.292-35.599c-0.374-4.869-0.893-13.592-0.903-24.491  c-0.004-4.146-3.366-7.503-7.51-7.503c-4.148,0-7.514,3.365-7.51,7.517c0.008,9.111,0.351,16.715,0.691,22.037H27.533  C37.751,333.46,59.53,289.218,76.365,263.098c9.294-14.42,18.101-24.99,24.697-32.046c1.354,5.205,4.92,9.688,9.56,12.227  c5.698,3.117,10.37,2.385,24.021,2.385c0.861,6.708,5.231,12.496,11.31,15.263c4.593,2.091,8.04,1.76,12.837,1.76  c-13.793,21.15-22.108,50.665-24.766,88.022c-0.294,4.138,2.821,7.731,6.959,8.025c4.134,0.294,7.73-2.821,8.024-6.959  c0.52-7.303,1.356-15.275,2.662-23.486h82.703c21.45,0,38.901-17.452,38.901-38.902v-26.701h28.94  c10.767,0,19.527-8.759,19.527-19.527v-27.357h69.595c8.516,0,15.758-5.49,18.42-13.108c9.264,0,72.085,0,82.718,0  c10.767,0,19.527-8.76,19.527-19.527v-45.151C512,127.249,503.24,118.491,492.473,118.491z M139.795,412.893  c2.206,0,3.999,1.794,3.999,3.999s-1.794,3.998-3.999,3.998H19.018c-2.204,0-3.997-1.793-3.997-3.998  c0-2.205,1.793-3.999,3.997-3.999H139.795z M395.547,175.037c-3.162-0.699,0.828-0.47-73.807-0.47v-18.706v-22.351h115.157v54.163  h-27.119C407.656,181.598,402.404,176.552,395.547,175.037z M455.642,118.128h-22.47  C438.543,110.121,450.274,110.122,455.642,118.128z M172.747,95.614c0-2.484,2.021-4.506,4.506-4.506h102.14  c2.484,0,4.506,2.022,4.506,4.506v5.853H172.747L172.747,95.614L172.747,95.614z M75.79,112.12c1.247,0-0.793-0.822,29.002,13.618  c-1.698,2.095-3.019,4.774-3.661,7.115l-27.093-13.13C70.227,117.875,71.556,112.12,75.79,112.12z M115.457,226.138  c0-9.054,0-71.671,0-81.636v-6.485c0-2.484,2.022-4.506,4.506-4.506h2.592h0.02h11.909v97.133h-14.521  C117.478,230.644,115.457,228.622,115.457,226.138z M208.618,284.121c-6.583-5.286-10.976-12.468-13.122-21.433h10.074  C205.557,268.145,206.161,275.692,208.618,284.121z M258.252,289.388c0,13.168-10.713,23.882-23.881,23.882h-79.794  c4.144-17.906,11.084-36.606,22.891-50.582h2.701c5.637,30.421,29.621,42.081,42.343,43.978c0.372,0.056,0.742,0.082,1.11,0.082  c0.033,0,0.065,0,0.098,0c6.119-0.064,9.571-7.041,5.985-11.941c-7.767-12.424-9.107-24.924-9.1-32.119h37.646L258.252,289.388  L258.252,289.388z M302.213,247.667c-58.123,0-91.373,0-148.203,0c-2.484,0-4.506-2.022-4.506-4.506c0-3.627,0-113.01,0-122.167  c0-2.484,2.022-4.506,4.506-4.506c21.904,0,146.542,0,148.203,0c2.485,0,4.506,2.022,4.506,4.506c0,11.465,0-7.99,0,27.357h-29.691  c-4.149,0-7.51,3.363-7.51,7.51s3.362,7.51,7.51,7.51h29.691c0,13.538,0,23.873,0,37.41H190.06c-2.484,0-4.506-2.022-4.506-4.506  v-28.398c0-2.484,2.022-4.506,4.506-4.506h60.933c4.148,0,7.511-3.363,7.511-7.51s-3.363-7.51-7.511-7.51H190.06  c-10.767,0-19.527,8.76-19.527,19.527v28.398c0,10.767,8.76,19.527,19.527,19.527h116.66v27.357  C306.719,245.645,304.698,247.667,302.213,247.667z M395.841,196.276c0,2.484-2.021,4.506-4.506,4.506H321.74v-11.195h69.595  c2.485,0,4.506,2.022,4.506,4.506C395.841,194.882,395.841,195.485,395.841,196.276z M451.918,187.674v-54.163h16.022v54.163  H451.918z M496.979,183.168c0,2.484-2.021,4.506-4.506,4.506h-9.513v-54.163h9.513c2.485,0,4.506,2.022,4.506,4.506V183.168z"/>
<g>
</g>
<g>
</g>
<g>
</g>
<g>
</g>
<g>
</g>
<g>
</g>
<g>
</g>
<g>
</g>
<g>
</g>
<g>
</g>
<g>
</g>
<g>
</g>
<g>
</g>
<g>
</g>
<g>
</g>
</svg>
