<?xml version="1.0" encoding="iso-8859-1"?>
<!-- Generator: Adobe Illustrator 19.0.0, SVG Export Plug-In . SVG Version: 6.00 Build 0)  -->
<svg xmlns="http://www.w3.org/2000/svg" xmlns:xlink="http://www.w3.org/1999/xlink" version="1.1" id="Capa_1" x="0px" y="0px" viewBox="0 0 512.001 512.001" style="enable-background:new 0 0 512.001 512.001;" xml:space="preserve">
<path style="fill:#FF4D56;" d="M224.226,114.271c4.494,0.555,8.859,1.532,13.057,2.881V91.074c0-7.215-5.846-13.058-13.059-13.058  c-7.211,0-13.057,5.843-13.057,13.058v26.078C215.364,115.804,219.73,114.826,224.226,114.271z"/>
<path style="fill:#EAEAEA;" d="M161.566,196.582v115.447c7.77-1.828,16.053,3.599,16.053,13.274h33.568  c0-7.529,6.104-13.633,13.633-13.633h62.06V196.582H161.566z"/>
<path style="fill:#6F6F6F;" d="M224.226,111.271c-35.314,4.363-62.659,34.449-62.659,70.944v16.367h125.314v-16.367  C286.88,145.72,259.54,115.634,224.226,111.271z"/>
<path style="fill:#D6D6D6;" d="M177.619,325.304h8.947V196.582h-25v2v113.447C169.336,310.202,177.619,315.628,177.619,325.304z"/>
<path style="fill:#51504F;" d="M186.566,190.87v-14.837c0-27.871,15.454-52.111,38.249-64.676c-0.198-0.026-0.393-0.063-0.591-0.087  c-35.314,4.363-62.659,34.449-62.659,70.944v14.367v2h25v-5.646L186.566,190.87L186.566,190.87z"/>
<path style="fill:#FF4D56;" d="M70.159,114.271c4.494,0.555,8.859,1.532,13.057,2.881V91.074c0-7.215-5.846-13.058-13.059-13.058  c-7.211,0-13.057,5.843-13.057,13.058v26.078C61.298,115.804,65.663,114.826,70.159,114.271z"/>
<rect x="21.13" y="370.325" style="fill:#A09F9F;" width="98.621" height="35.841"/>
<rect x="21.13" y="370.325" style="fill:#7C7C7C;" width="25.446" height="35.841"/>
<path style="fill:#EAEAEA;" d="M21.133,371.327h98.048c7.527,0,13.631-6.103,13.631-13.632V196.582H7.5v161.113  C7.5,365.224,13.604,371.327,21.133,371.327z"/>
<path style="fill:#D6D6D6;" d="M32.5,357.25V196.582h-25c0,9.07,0,152.024,0,161.113c0,7.528,6.104,13.632,13.633,13.632H46.58  C38.803,371.327,32.5,365.025,32.5,357.25z"/>
<path style="fill:#FF4D56;" d="M468.246,371.329c-0.555,4.495-1.533,8.859-2.881,13.057h26.076c7.215,0,13.059-5.846,13.059-13.058  c0-7.211-5.844-13.058-13.059-13.058h-26.078C466.712,362.469,467.69,366.833,468.246,371.329z"/>
<rect x="175.732" y="322.304" style="fill:#A09F9F;" width="37" height="98.621"/>
<rect x="175.732" y="396.215" style="fill:#7C7C7C;" width="37" height="24.709"/>
<path style="fill:#6F6F6F;" d="M132.813,417.954c0-7.211-5.844-13.059-13.055-13.059h-99.2c-7.213,0-13.057,5.848-13.057,13.059  s5.844,13.057,13.057,13.057h99.2C126.968,431.012,132.813,425.165,132.813,417.954z"/>
<path style="fill:#51504F;" d="M119.757,417.953h-99.2c-4.831,0-9.038-2.629-11.296-6.528c-1.113,1.923-1.761,4.148-1.761,6.529  c0,7.211,5.844,13.057,13.057,13.057h99.2c10.033,0,16.33-10.888,11.294-19.586C128.794,415.324,124.587,417.953,119.757,417.953z"/>
<path style="fill:#6F6F6F;" d="M164.561,433.985c7.211,0,13.059-5.844,13.059-13.058v-99.2c0-7.212-5.848-13.056-13.059-13.056  c-7.211,0-13.057,5.844-13.057,13.056v99.2C151.504,428.142,157.35,433.985,164.561,433.985z"/>
<path style="fill:#51504F;" d="M164.562,420.927v-99.2c0-4.831,2.629-9.037,6.528-11.295c-8.696-5.038-19.585,1.263-19.585,11.295  v99.2c0,7.214,5.846,13.058,13.057,13.058c2.381,0,4.607-0.647,6.529-1.761C167.191,429.966,164.562,425.759,164.562,420.927z"/>
<path style="fill:#EDEDED;" d="M386.569,308.671H224.821c-7.529,0-13.633,6.104-13.633,13.633v98.048  c0,7.528,6.104,13.633,13.633,13.633h161.748V308.671z"/>
<path style="fill:#8C8A89;" d="M471.246,371.329c-4.363-35.314-34.449-62.658-70.944-62.658h-16.367v125.314h16.367  C436.796,433.985,466.883,406.645,471.246,371.329z"/>
<path style="fill:#6F6F6F;" d="M70.159,111.271C34.844,115.634,7.5,145.72,7.5,182.215v16.367h125.312v-16.367  C132.813,145.72,105.474,115.634,70.159,111.271z"/>
<path style="fill:#51504F;" d="M32.5,176.033c0-27.871,15.454-52.111,38.25-64.676c-0.198-0.026-0.393-0.063-0.592-0.087  C34.844,115.634,7.5,145.72,7.5,182.215c0,5.769,0,8.569,0,16.367h25C32.5,186.96,32.5,187.602,32.5,176.033z"/>
<path style="fill:#D6D6D6;" d="M225.901,408.984h160.668v25c-9.07,0-152.024,0-161.113,0c-7.528,0-13.632-6.103-13.632-13.633  v-25.446C211.824,402.681,218.127,408.984,225.901,408.984z"/>
<path style="fill:#51504F;" d="M406.484,408.984c27.871,0,52.111-15.454,64.676-38.25c0.026,0.198,0.063,0.393,0.087,0.592  c-4.363,35.315-34.449,62.659-70.944,62.659h-14.368h-2v-25C389.99,408.984,405.392,408.984,406.484,408.984z"/>
<path d="M90.716,108.901V91.074c0-11.336-9.223-20.558-20.559-20.558c-11.335,0-20.557,9.222-20.557,20.558v17.827  C20.304,120.654,0,149.342,0,182.215c0,6.879,0,167.46,0,175.481c0,9.009,5.677,16.697,13.633,19.732v21.194  C5.699,401.473,0,409.051,0,417.954c0,11.335,9.222,20.557,20.557,20.557h99.2c11.334,0,20.555-9.222,20.555-20.557  c0-8.687-5.423-16.116-13.055-19.121v-21.617c7.655-3.179,13.055-10.728,13.055-19.52V249.5c0-4.143-3.357-7.5-7.5-7.5  s-7.5,3.357-7.5,7.5v108.194c0,3.381-2.75,6.132-6.131,6.132H21.133c-3.382,0-6.133-2.751-6.133-6.132V206.082h110.312V223  c0,4.143,3.357,7.5,7.5,7.5s7.5-3.357,7.5-7.5c0-14.628,0-25.426,0-40.785C140.313,149.341,120.009,120.654,90.716,108.901z   M64.601,104.543V91.074c0-3.065,2.493-5.558,5.557-5.558c3.065,0,5.559,2.493,5.559,5.558v13.468  C70.402,103.557,70.067,103.53,64.601,104.543z M112.257,397.396H28.633v-18.567h83.624V397.396z M119.757,423.511h-99.2  c-3.063,0-5.557-2.493-5.557-5.557c0-2.663,1.901-5.559,6.133-5.559h98.624c3.063,0,5.555,2.493,5.555,5.559  C125.312,421.018,122.819,423.511,119.757,423.511z M125.312,191.082H15v-8.867c0-31.849,23.52-58.943,55.16-63.381  c26.846,3.714,48.995,24.357,54.076,51.665C125.55,177.576,125.312,182.031,125.312,191.082z"/>
<path d="M491.442,350.771h-17.826c-11.753-29.295-40.441-49.6-73.314-49.6c-15.026,0-92.49,0-105.921,0V249.5  c0-4.143-3.357-7.5-7.5-7.5s-7.5,3.357-7.5,7.5v51.671h-47.657v-73.683c0-4.143-3.357-7.5-7.5-7.5c-4.143,0-7.5,3.357-7.5,7.5  v75.301c-5.179,2.072-9.605,6.621-11.66,12.014H183.92c-2.423-6.755-8.199-11.642-14.854-13.136v-95.586H279.38v15.918  c0,4.143,3.357,7.5,7.5,7.5s7.5-3.357,7.5-7.5c0-20.407,0-19.261,0-39.785c0-32.873-20.303-61.561-49.599-73.314V91.074  c0-11.336-9.223-20.558-20.559-20.558c-11.335,0-20.557,9.222-20.557,20.558v17.827c-29.295,11.753-49.601,40.441-49.601,73.314  c0,5.028,0,117.549,0,121.869c-6.014,3.591-10.063,10.145-10.063,17.643v99.2c0,11.336,9.222,20.558,20.557,20.558  c8.688,0,16.117-5.424,19.122-13.058h21.616c3.179,7.656,10.729,13.058,19.522,13.058h105.542c4.143,0,7.5-3.357,7.5-7.5  s-3.357-7.5-7.5-7.5H224.821c-3.382,0-6.133-2.751-6.133-6.133v-98.048c0-3.382,2.751-6.133,6.133-6.133  c6.489,0,144.866,0,151.613,0v110.314h-18.57c-4.143,0-7.5,3.357-7.5,7.5s3.357,7.5,7.5,7.5c10.242,0,20.618,0,42.439,0  c32.873,0,61.561-20.303,73.314-49.6h17.826c11.336,0,20.559-9.222,20.559-20.558C512,359.992,502.778,350.771,491.442,350.771z   M218.667,104.543V91.074c0-3.065,2.493-5.558,5.557-5.558c3.065,0,5.559,2.493,5.559,5.558v13.468  C224.39,103.544,224.218,103.516,218.667,104.543z M169.066,182.215c0-31.861,23.536-58.949,55.16-63.381  c30.994,4.288,55.155,30.968,55.155,63.381v8.867H169.066V182.215z M164.561,426.484c-3.063,0-5.557-2.493-5.557-5.558v-99.2  c0-7.094,11.115-7.849,11.115,0.577v98.623C170.119,423.991,167.626,426.484,164.561,426.484z M185.119,329.804h18.568v83.623  h-18.568V329.804z M400.302,426.484h-8.867V316.171h8.867c32.017,0,59.018,23.732,63.38,55.159  C459.386,402.328,432.716,426.484,400.302,426.484z M491.442,376.886h-13.467c0.994-5.39,1-5.699-0.001-11.115h13.468  c3.065,0,5.559,2.493,5.559,5.558C497,374.393,494.507,376.886,491.442,376.886z"/>
<path d="M62.655,227.488v115.334c0,4.143,3.357,7.5,7.5,7.5c4.143,0,7.5-3.357,7.5-7.5V227.488c0-4.143-3.357-7.5-7.5-7.5  C66.013,219.988,62.655,223.346,62.655,227.488z"/>
<path d="M360.93,371.616c0-4.143-3.357-7.5-7.5-7.5H238.095c-4.143,0-7.5,3.357-7.5,7.5c0,4.143,3.357,7.5,7.5,7.5H353.43  C357.572,379.116,360.93,375.759,360.93,371.616z"/>
<g>
</g>
<g>
</g>
<g>
</g>
<g>
</g>
<g>
</g>
<g>
</g>
<g>
</g>
<g>
</g>
<g>
</g>
<g>
</g>
<g>
</g>
<g>
</g>
<g>
</g>
<g>
</g>
<g>
</g>
</svg>
