<?xml version="1.0" encoding="iso-8859-1"?>
<!-- Generator: Adobe Illustrator 19.0.0, SVG Export Plug-In . SVG Version: 6.00 Build 0)  -->
<svg xmlns="http://www.w3.org/2000/svg" xmlns:xlink="http://www.w3.org/1999/xlink" version="1.1" id="Capa_1" x="0px" y="0px" viewBox="0 0 512 512" style="enable-background:new 0 0 512 512;" xml:space="preserve">
<path style="fill:#FF4D56;" d="M64.168,59.427h32.627c-0.724-28.814-7.75-51.43-16.315-51.43  C71.916,7.997,64.891,30.613,64.168,59.427z"/>
<path style="fill:#D12451;" d="M80.481,7.997c-8.565,0-15.591,22.615-16.313,51.43h15.314c0.489-19.504,3.868-36.157,8.656-44.89  C85.853,10.37,83.248,7.997,80.481,7.997z"/>
<g>
	<path style="fill:#A0A0A0;" d="M17.15,457.45v31.462c0,8.292,7.006,15.014,15.648,15.014h11.208   c8.642,0,15.649-6.722,15.649-15.014V457.45H17.15z"/>
	<path style="fill:#A0A0A0;" d="M59.227,457.45v31.462c0,8.292,7.005,15.014,15.648,15.014h11.208   c8.642,0,15.648-6.722,15.648-15.014V457.45H59.227z"/>
	<path style="fill:#A0A0A0;" d="M101.303,457.45v31.462c0,8.292,7.006,15.014,15.648,15.014h11.208   c8.643,0,15.648-6.722,15.648-15.014V457.45H101.303z"/>
</g>
<path style="fill:#878686;" d="M50.903,502.372c-5.181-2.445-8.756-7.546-8.756-13.461v-31.178v-0.284H17.15  c0,3.798,0,27.625,0,31.462c0,8.292,7.006,15.014,15.648,15.014C43.176,503.925,46.741,504.424,50.903,502.372z"/>
<polygon style="fill:#A0A0A0;" points="44.256,388.424 17.15,428.827 17.15,431.72 143.808,431.72 143.808,428.827 116.704,388.424   "/>
<polygon style="fill:#878686;" points="42.147,428.827 69.252,388.424 44.256,388.424 17.15,428.827 17.15,431.72 42.147,431.72 "/>
<rect x="17.146" y="428.831" style="fill:#6F6F6F;" width="126.652" height="28.907"/>
<rect x="17.146" y="428.831" style="fill:#5B5A59;" width="24.993" height="28.907"/>
<g>
	<path style="fill:#A0A0A0;" d="M368.192,457.45v31.462c0,8.292,7.006,15.014,15.648,15.014h11.208   c8.642,0,15.649-6.722,15.649-15.014V457.45H368.192z"/>
	<path style="fill:#A0A0A0;" d="M410.268,457.45v31.462c0,8.292,7.005,15.014,15.648,15.014h11.208   c8.642,0,15.648-6.722,15.648-15.014V457.45H410.268z"/>
	<path style="fill:#A0A0A0;" d="M452.344,457.45v31.462c0,8.292,7.006,15.014,15.648,15.014H479.2   c8.643,0,15.648-6.722,15.648-15.014V457.45H452.344z"/>
</g>
<path style="fill:#878686;" d="M398.481,503.551c0.364-0.08,1.148-0.285,1.663-0.457c0.423-0.139,1.069-0.385,1.627-0.642  c0.058-0.026,0.116-0.053,0.173-0.081c-5.181-2.445-8.756-7.546-8.756-13.461v-31.178v-0.284h-24.997v0.284v31.178  c0,8.292,7.006,15.014,15.648,15.014c12.28,0,11.736,0.033,12.942-0.098C397.032,503.8,397.99,503.658,398.481,503.551z"/>
<polygon style="fill:#A0A0A0;" points="395.297,388.424 368.192,428.827 368.192,431.72 494.849,431.72 494.849,428.827   467.744,388.424 "/>
<polygon style="fill:#878686;" points="393.188,428.827 420.293,388.424 395.297,388.424 368.192,428.827 368.192,431.72   393.188,431.72 "/>
<rect x="368.188" y="428.831" style="fill:#6F6F6F;" width="126.652" height="28.907"/>
<rect x="368.188" y="428.831" style="fill:#5B5A59;" width="24.993" height="28.907"/>
<path style="fill:#C2C2C2;" d="M358.575,188.701v136.942c0,27.096,14.787,50.723,36.723,63.304h72.447  c21.932-12.58,36.719-36.208,36.719-63.304V188.701H358.575z"/>
<path style="fill:#D12451;" d="M239.687,59.427h32.628c-0.724-28.814-7.75-51.43-16.314-51.43  C247.436,7.997,240.411,30.613,239.687,59.427z"/>
<path style="fill:#FF4D56;" d="M255.069,59.427h17.247c-0.653-26.002-6.438-46.947-13.855-50.792  c-2.268,14.437-3.467,29.266-3.467,44.398C254.994,55.17,255.022,57.301,255.069,59.427z"/>
<path style="fill:#DDDCDB;" d="M504.463,325.643V188.701H383.572v5.087v131.855c0,27.096,14.787,50.723,36.723,63.304h47.45  C489.676,376.366,504.463,352.738,504.463,325.643z"/>
<g>
	<path style="fill:#C2C2C2;" d="M183.055,188.701v136.942c0,27.096,14.786,50.723,36.723,63.304h72.447   c21.932-12.58,36.718-36.208,36.718-63.304V188.701H183.055z"/>
	<path style="fill:#C2C2C2;" d="M183.055,127.646v36.216h145.888v-36.216c0-40.285-32.654-72.943-72.937-72.943   C215.711,54.703,183.055,87.361,183.055,127.646z"/>
</g>
<rect x="183.053" y="163.857" style="fill:#5B5A59;" width="145.89" height="29.926"/>
<path style="fill:#C2C2C2;" d="M7.535,188.701v136.942c0,27.096,14.787,50.723,36.723,63.304h72.447  c21.932-12.58,36.719-36.208,36.719-63.304V188.701H7.535z"/>
<path style="fill:#DDDCDB;" d="M153.423,325.643V188.701H32.531v5.087v131.855c0,27.096,14.787,50.723,36.723,63.304h47.45  C138.636,376.366,153.423,352.738,153.423,325.643z"/>
<path style="fill:#C2C2C2;" d="M7.535,127.646v36.216h145.888v-36.216c0-40.285-32.655-72.943-72.938-72.943  C40.191,54.703,7.535,87.361,7.535,127.646z"/>
<path style="fill:#DDDCDB;" d="M92.982,55.792c-34.333,5.93-60.451,35.832-60.451,71.854v36.216h120.891v-36.216  C153.423,91.624,127.306,61.722,92.982,55.792z"/>
<rect x="7.535" y="163.857" style="fill:#5B5A59;" width="145.89" height="29.926"/>
<polygon style="fill:#6F6F6F;" points="32.531,193.788 153.423,193.788 153.423,163.862 32.531,163.862 32.531,188.701 "/>
<g>
	<path style="fill:#DDDCDB;" d="M328.943,325.643V188.701H208.051v5.087v131.855c0,27.096,14.787,50.723,36.722,63.304h47.45   C314.155,376.366,328.943,352.738,328.943,325.643z"/>
	<path style="fill:#DDDCDB;" d="M268.501,55.792c-34.333,5.93-60.45,35.832-60.45,71.854v36.216h120.891v-36.216   C328.943,91.624,302.826,61.722,268.501,55.792z"/>
</g>
<polygon style="fill:#6F6F6F;" points="208.051,193.788 328.943,193.788 328.943,163.862 208.051,163.862 208.051,188.701 "/>
<path style="fill:#FF4D56;" d="M415.207,59.427h32.627c-0.724-28.814-7.75-51.43-16.314-51.43  C422.955,7.997,415.93,30.613,415.207,59.427z"/>
<path style="fill:#D12451;" d="M415.207,59.427h15.314c0.489-19.504,3.868-36.157,8.656-44.89  C428.823-4.346,416.211,19.426,415.207,59.427z"/>
<path style="fill:#C2C2C2;" d="M358.575,127.646v36.216h145.888v-36.216c0-40.285-32.655-72.943-72.938-72.943  C391.23,54.703,358.575,87.361,358.575,127.646z"/>
<path style="fill:#DDDCDB;" d="M444.021,55.792c-34.333,5.93-60.45,35.832-60.45,71.854v36.216h120.891v-36.216  C504.463,91.624,478.346,61.722,444.021,55.792z"/>
<rect x="358.579" y="163.857" style="fill:#5B5A59;" width="145.89" height="29.926"/>
<polygon style="fill:#6F6F6F;" points="383.572,193.788 504.463,193.788 504.463,163.862 383.572,163.862 383.572,188.701 "/>
<g>
	<path style="fill:#A0A0A0;" d="M192.672,457.45v31.462c0,8.292,7.006,15.014,15.648,15.014h11.208   c8.642,0,15.649-6.722,15.649-15.014V457.45H192.672z"/>
	<path style="fill:#A0A0A0;" d="M234.749,457.45v31.462c0,8.292,7.005,15.014,15.648,15.014h11.208   c8.642,0,15.648-6.722,15.648-15.014V457.45H234.749z"/>
	<path style="fill:#A0A0A0;" d="M276.825,457.45v31.462c0,8.292,7.006,15.014,15.648,15.014h11.208   c8.643,0,15.648-6.722,15.648-15.014V457.45H276.825z"/>
</g>
<path style="fill:#878686;" d="M221.75,503.757c0.409-0.057,0.815-0.119,1.213-0.205c1.283-0.283,2.596-0.752,3.463-1.18  c-5.181-2.445-8.756-7.546-8.756-13.461c0-3.836,0-27.663,0-31.462h-24.997c0,3.798,0,27.625,0,31.462  c0,8.292,7.006,15.014,15.648,15.014h11.208c0.587,0,1.165-0.036,1.734-0.098C221.427,503.809,221.587,503.778,221.75,503.757z"/>
<polygon style="fill:#A0A0A0;" points="219.778,388.424 192.672,428.827 192.672,431.72 319.329,431.72 319.329,428.827   292.225,388.424 "/>
<polygon style="fill:#878686;" points="217.669,428.827 244.775,388.424 219.778,388.424 192.672,428.827 192.672,431.72   217.669,431.72 "/>
<rect x="192.672" y="428.831" style="fill:#6F6F6F;" width="126.652" height="28.907"/>
<rect x="192.672" y="428.831" style="fill:#5B5A59;" width="24.993" height="28.907"/>
<path d="M104.143,51.262C102.928,26.808,96.152,0,80.482,0C64.808,0,58.034,26.809,56.82,51.263  C23.974,61.391,0.037,92.025,0.037,128.148c0,6.878,0,191.145,0,197.996c0,25.947,12.653,50.271,33.495,65.294  c-24.277,33.34-23.879,31.887-23.879,35.235v29.635v32.573c0,12.706,10.337,23.044,23.042,23.044  c10.876,0,18.751,1.207,26.677-6.049c7.905,7.237,15.732,6.049,26.676,6.049c5.984,0,11.442-2.295,15.543-6.049  c7.905,7.237,15.732,6.049,26.676,6.049c12.705,0,23.042-10.338,23.042-23.044c0-67.392,0.516-63.969-1.436-66.623l-22.442-30.821  c20.84-15.024,33.491-39.348,33.491-65.294c0-7.041,0-191.094,0-197.996C160.922,92.023,136.986,61.389,104.143,51.262z   M72.062,47.706c1.398-18.11,5.681-29.112,8.42-32.172c2.738,3.06,7.021,14.061,8.421,32.172H72.062z M145.924,186.79H15.035  v-14.928h130.89V186.79z M136.311,448.809c-15.19,0-96.437,0-111.66,0v-14.637h111.66V448.809z M43.828,496.927H32.695  c-4.434,0-8.044-3.608-8.044-8.046v-25.075h27.222v25.075C51.873,493.319,48.264,496.927,43.828,496.927z M86.048,496.927H74.914  c-4.434,0-8.044-3.608-8.044-8.046v-25.075h27.221v25.075C94.092,493.319,90.483,496.927,86.048,496.927z M136.311,488.881  c0,4.437-3.608,8.046-8.044,8.046h-11.133c-4.435,0-8.044-3.608-8.044-8.046v-25.075h27.221V488.881z M31.888,419.174l16.186-22.227  h64.815l16.184,22.227H31.888z M114.649,381.949H46.314c-19.343-11.873-31.28-33.077-31.28-55.805V201.788h130.89v124.356  C145.924,348.872,133.989,370.075,114.649,381.949z M145.924,156.865H15.035v-28.717c0-36.086,29.361-65.444,65.451-65.444  c36.083,0,65.439,29.358,65.439,65.444V156.865z"/>
<path d="M279.664,51.262C278.449,26.809,271.674,0,256.002,0c-15.672,0-22.448,26.809-23.662,51.263  c-32.845,10.13-56.782,40.762-56.782,76.885c0,6.878,0,191.145,0,197.996c0,25.947,12.653,50.272,33.495,65.294  c-23.872,32.784-23.879,31.93-23.879,35.235c0,28.247,0,55.482,0,62.208c0,12.706,10.337,23.044,23.042,23.044  c10.875,0,18.75,1.208,26.676-6.049c7.905,7.237,15.733,6.049,26.676,6.049c5.985,0,11.442-2.295,15.544-6.049  c7.905,7.237,15.732,6.049,26.676,6.049c12.705,0,23.042-10.338,23.042-23.044v-32.573c0-31.999,0.047-30.202-0.17-31.213  c-0.482-2.292,0.613-0.255-23.709-33.657c20.839-15.023,33.49-39.348,33.49-65.294c0-6.83,0-194.932,0-197.996  C336.442,92.024,312.506,61.389,279.664,51.262z M247.581,47.706c1.399-18.111,5.682-29.112,8.421-32.172  c2.738,3.06,7.022,14.061,8.421,32.172H247.581z M321.444,186.79H190.555v-14.928h130.889V186.79z M311.83,448.809  c-15.222,0-96.47,0-111.66,0v-14.637h111.66V448.809z M219.348,496.927h-11.133c-4.435,0-8.044-3.608-8.044-8.046v-25.075h27.221  v25.075C227.392,493.319,223.784,496.927,219.348,496.927z M261.567,496.927h-11.132c-4.436,0-8.045-3.608-8.045-8.046v-25.075  h27.222v25.075C269.612,493.319,266.004,496.927,261.567,496.927z M311.83,488.881c0,4.437-3.608,8.046-8.044,8.046h-11.133  c-4.435,0-8.044-3.608-8.044-8.046v-25.075h27.221L311.83,488.881L311.83,488.881z M207.409,419.174l16.186-22.227h64.815  l16.185,22.227H207.409z M290.168,381.949h-68.335c-19.343-11.872-31.28-33.076-31.28-55.805V201.788h130.89v124.356  C321.444,348.872,309.509,370.075,290.168,381.949z M321.444,156.865H190.555v-28.717c0-36.086,29.361-65.444,65.451-65.444  c36.083,0,65.438,29.358,65.438,65.444V156.865z"/>
<path d="M455.183,51.262C453.969,26.808,447.194,0,431.521,0c-15.672,0-22.447,26.809-23.662,51.263  c-32.845,10.129-56.782,40.761-56.782,76.885c0,3.203,0,191.22,0,197.996c0,25.948,12.653,50.273,33.495,65.295  c-0.374,0.513-22.128,30.382-22.493,30.901c-2.073,2.919-1.386-0.583-1.386,66.542c0,12.706,10.337,23.044,23.042,23.044  c10.875,0,18.75,1.207,26.676-6.049c7.905,7.237,15.733,6.049,26.676,6.049c5.985,0,11.442-2.295,15.544-6.049  c7.905,7.237,15.732,6.049,26.676,6.049c12.705,0,23.042-10.338,23.042-23.044c0-67.499,0.575-63.864-1.436-66.623l-22.442-30.821  c20.84-15.023,33.491-39.348,33.491-65.294c0-7.041,0-191.094,0-197.996C511.962,92.023,488.025,61.389,455.183,51.262z   M496.964,186.79h-130.89v-14.928h130.889L496.964,186.79L496.964,186.79z M423.101,47.706c1.399-18.111,5.682-29.112,8.42-32.172  c2.739,3.06,7.022,14.061,8.421,32.172H423.101z M366.074,128.148c0-36.086,29.361-65.444,65.45-65.444  c36.083,0,65.439,29.358,65.439,65.444v28.717H366.074V128.148z M487.35,448.809c-15.191,0-96.441,0-111.66,0v-14.637h111.66  V448.809z M394.868,496.927h-11.132c-4.434,0-8.044-3.608-8.044-8.046v-25.075h27.221v25.075  C402.912,493.319,399.303,496.927,394.868,496.927z M437.087,496.927h-11.132c-4.436,0-8.045-3.608-8.045-8.046v-25.075h27.222  v25.075C445.132,493.319,441.522,496.927,437.087,496.927z M487.35,488.881c0,4.437-3.609,8.046-8.044,8.046h-11.132  c-4.434,0-8.044-3.608-8.044-8.046v-25.075h27.221L487.35,488.881L487.35,488.881z M382.929,419.174l16.186-22.227h64.814  l16.186,22.227H382.929z M465.687,381.949h-68.334c-19.343-11.873-31.28-33.076-31.28-55.805V201.788h130.889v124.356  C496.964,348.872,485.028,370.076,465.687,381.949z"/>
<g>
</g>
<g>
</g>
<g>
</g>
<g>
</g>
<g>
</g>
<g>
</g>
<g>
</g>
<g>
</g>
<g>
</g>
<g>
</g>
<g>
</g>
<g>
</g>
<g>
</g>
<g>
</g>
<g>
</g>
</svg>
