<?xml version="1.0" encoding="iso-8859-1"?>
<!-- Generator: Adobe Illustrator 19.0.0, SVG Export Plug-In . SVG Version: 6.00 Build 0)  -->
<svg xmlns="http://www.w3.org/2000/svg" xmlns:xlink="http://www.w3.org/1999/xlink" version="1.1" id="Capa_1" x="0px" y="0px" viewBox="0 0 512 512" style="enable-background:new 0 0 512 512;" xml:space="preserve">
<path style="fill:#BED9ED;" d="M155.344,388.426v34.131c0,8.107,6.57,14.679,14.681,14.679c8.107,0,14.68-6.571,14.68-14.679v-33.59  C175.649,393.364,164.692,393.396,155.344,388.426z"/>
<path style="fill:#71AED3;" d="M170.024,422.557v-30.364c-5.3-0.085-10.29-1.434-14.68-3.768v34.131  c0,11.294,12.257,18.356,22.019,12.698C172.98,432.717,170.024,427.986,170.024,422.557z"/>
<path style="fill:#5C92E0;" d="M170.551,395.21c17.921,0,32.447-14.527,32.447-32.448h-64.896  C138.103,380.682,152.63,395.21,170.551,395.21z"/>
<path style="fill:#2F7DA8;" d="M163.05,362.761h-24.947c0,23.102,23.565,38.863,44.922,29.961  C171.296,387.834,163.05,376.262,163.05,362.761z"/>
<path style="fill:#BED9ED;" d="M125.533,323.474c-2.534,0-5.026-0.185-7.472-0.51v31.569c0,5.098,4.132,9.23,9.231,9.23h86.521  c5.097,0,9.231-4.132,9.231-9.23v-31.703C217.32,323.702,222.728,323.474,125.533,323.474z"/>
<g>
	<path style="fill:#71AED3;" d="M143.065,354.532v-31.059c-18.822,0-20.076,0.146-25.005-0.51v31.569c0,5.098,4.132,9.23,9.231,9.23   h25.005C147.197,363.761,143.065,359.63,143.065,354.532z"/>
	<path style="fill:#71AED3;" d="M223.042,322.83c-2.781,0.424-5.629,0.645-8.527,0.645h8.527V322.83z"/>
</g>
<path style="fill:#FF4D56;" d="M69.333,92.004v178.269c0,31.039,25.159,56.2,56.199,56.2h88.983c31.036,0,56.201-25.161,56.201-56.2  V92.004H69.333z"/>
<path style="fill:#F5F5F5;" d="M210.663,189.592h-27.729v-27.732c0-6.837-5.546-12.38-12.382-12.38  c-6.838,0-12.38,5.543-12.38,12.38v27.732h-27.733c-6.836,0-12.378,5.543-12.378,12.381c0,6.835,5.541,12.379,12.378,12.379h27.733  v27.732c0,6.837,5.542,12.381,12.38,12.381c6.836,0,12.382-5.544,12.382-12.381v-27.732h27.729c6.838,0,12.381-5.544,12.381-12.379  C223.044,195.135,217.501,189.592,210.663,189.592z"/>
<path style="fill:#D12451;" d="M94.338,270.275V95.831v-3.826H69.333v3.826v174.444c0,31.039,25.159,56.2,56.199,56.2h25.005  C119.498,326.474,94.338,301.313,94.338,270.275z"/>
<path style="fill:#BED9ED;" d="M214.515,7.549h-88.982c-31.04,0-56.199,25.161-56.199,56.2V95.83h201.383V63.749  C270.716,32.71,245.552,7.549,214.515,7.549z"/>
<path style="fill:#71AED3;" d="M94.338,92.004V63.749c0-31.039,25.159-56.2,56.2-56.2h-25.005c-31.04,0-56.199,25.161-56.199,56.2  v28.255v3.826h25.005L94.338,92.004L94.338,92.004z"/>
<path d="M210.413,182.042h-20.228v-20.231c0-10.963-8.92-19.882-19.884-19.882c-10.963,0-19.882,8.919-19.882,19.882v20.231h-20.231  c-10.962,0-19.88,8.92-19.88,19.883c0,10.962,8.919,19.881,19.88,19.881h20.231v20.231c0,10.963,8.919,19.883,19.882,19.883  c10.964,0,19.884-8.92,19.884-19.883v-20.231h20.228c10.963,0,19.883-8.919,19.883-19.881  C230.296,190.962,221.376,182.042,210.413,182.042z M210.413,206.803h-27.729c-4.143,0-7.501,3.358-7.501,7.501v27.732  c0,2.691-2.189,4.88-4.881,4.88c-2.691,0-4.879-2.188-4.879-4.88v-27.732c0-4.144-3.359-7.501-7.501-7.501h-27.732  c-2.69,0-4.877-2.188-4.877-4.878c0-2.691,2.188-4.88,4.877-4.88h27.732c4.143,0,7.501-3.358,7.501-7.501v-27.732  c0-2.689,2.188-4.879,4.879-4.879c2.691,0,4.881,2.188,4.881,4.879v27.732c0,4.144,3.359,7.501,7.501,7.501h27.729  c2.691,0,4.88,2.188,4.88,4.88C215.293,204.614,213.103,206.803,210.413,206.803z"/>
<path d="M374.762,91.956c-41.716,0-75.655,33.939-75.655,75.655c0,17.097,0,260.413,0,268.734c0,33.444-27.209,60.652-60.653,60.652  c-32.503,0-59.109-25.702-60.579-57.848c8.235-3.243,14.081-11.27,14.081-20.642v-21.249c8.991-5.824,15.501-15.154,17.579-26.044  h4.028c9.226,0,16.732-7.505,16.732-16.731v-22.602c27.392-7.125,47.674-32.066,47.674-61.657V154.814  c0-4.144-3.358-7.501-7.501-7.501c-4.144,0-7.501,3.358-7.501,7.501v115.412c0,25.307-19.429,46.197-44.143,48.478  c-3.123,0.291-94.365,0.528-100.018-0.224c-23.798-3.18-42.219-23.599-42.219-48.255v-166.94h186.38v24.526  c0,4.144,3.358,7.501,7.501,7.501c4.144,0,7.501-3.358,7.501-7.501c0-6.792,0-57.312,0-64.109C277.968,28.576,249.391,0,214.265,0  h-88.982C90.158,0,61.582,28.576,61.582,63.701c0,8.411,0,195.268,0,206.525c0,29.968,20.806,55.152,48.727,61.908v22.351  c0,9.226,7.505,16.731,16.732,16.731h4.028c1.996,10.46,8.08,19.483,16.524,25.34v21.953c0,9.825,6.423,18.172,15.29,21.078  C164.588,479.803,197.826,512,238.454,512c41.717,0,75.656-33.939,75.656-75.655c0-8.228,0-251.67,0-268.734  c0-33.444,27.208-60.652,60.652-60.652s60.652,27.208,60.652,60.652v126.172c0,4.144,3.358,7.501,7.501,7.501  c4.143,0,7.501-3.358,7.501-7.501V167.611C450.417,125.896,416.478,91.956,374.762,91.956z M76.585,63.701  c0-26.852,21.846-48.698,48.698-48.698h88.983c26.853,0,48.699,21.846,48.699,48.698v24.58H76.585V63.701z M125.312,354.484v-20.557  c94.061,0,89.123,0.004,89.979-0.008v20.565c0,0.952-0.775,1.728-1.729,1.728h-10.813c-11.119,0-66.863,0-75.708,0  C126.087,356.213,125.312,355.437,125.312,354.484z M194.096,371.216c-7.345,23.25-40.306,23.052-47.589,0H194.096z   M162.595,402.911c4.645,0.892,9.534,1.015,14.358,0.206v15.392c0,3.958-3.221,7.177-7.178,7.177c-3.959,0-7.179-3.22-7.179-7.177  V402.911z"/>
<path d="M117.811,286.282c-4.143,0-7.501,3.358-7.501,7.501c0,4.144,3.359,7.501,7.501,7.501h104.982  c4.143,0,7.501-3.358,7.501-7.501c0-4.144-3.359-7.501-7.501-7.501H117.811z"/>
<g>
</g>
<g>
</g>
<g>
</g>
<g>
</g>
<g>
</g>
<g>
</g>
<g>
</g>
<g>
</g>
<g>
</g>
<g>
</g>
<g>
</g>
<g>
</g>
<g>
</g>
<g>
</g>
<g>
</g>
</svg>
