<?xml version="1.0" encoding="iso-8859-1"?>
<!-- Generator: Adobe Illustrator 19.0.0, SVG Export Plug-In . SVG Version: 6.00 Build 0)  -->
<svg xmlns="http://www.w3.org/2000/svg" xmlns:xlink="http://www.w3.org/1999/xlink" version="1.1" id="Capa_1" x="0px" y="0px" viewBox="0 0 512 512" style="enable-background:new 0 0 512 512;" xml:space="preserve">
<g>
	<path style="fill:#965123;" d="M34.514,162.247c-6.014,3.404-8.129,11.039-4.724,17.054l21.238,37.512h28.761l-28.219-49.841   C48.165,160.958,40.529,158.842,34.514,162.247z"/>
	<path style="fill:#965123;" d="M168.611,162.247c-6.014,3.404-8.129,11.039-4.724,17.054l21.238,37.512h28.761l-28.219-49.841   C182.262,160.958,174.626,158.842,168.611,162.247z"/>
</g>
<g>
	<path style="fill:#703514;" d="M47.528,162.672c-10.922-7.133-24.18,5.252-17.738,16.63l21.238,37.512H64.71l-21.238-37.512   C40.199,173.52,42.039,166.25,47.528,162.672z"/>
	<path style="fill:#703514;" d="M181.624,162.672c-3.793-2.478-8.799-2.811-13.013-0.424c-6.014,3.404-8.129,11.039-4.724,17.054   l21.238,37.512h13.682l-21.238-37.512C174.295,173.52,176.135,166.25,181.624,162.672z"/>
</g>
<path style="fill:#31A372;" d="M39.724,311.178c7.633-29.242,34.226-50.824,65.858-50.824c31.633,0,58.225,21.582,65.858,50.824  h123.827c7.636-29.242,34.226-50.824,65.858-50.824c31.635,0,58.225,21.582,65.86,50.824h12.744v0.001h20.765  c0-6.641,0-52.582,0-58.571c-0.008-16.925-13.73-30.643-30.659-30.643h-55.898c-9.702,0-14.25-5.465-15.708-7.71l-0.55-0.946  c-0.002,0-0.002-0.002-0.002-0.002l-41.403-71.21v0.002c-1.58-2.821-4.593-4.732-8.056-4.732h-13.413  c-8.912,0.385-8.55,8.127-3.874,15.764l35.488,62.682c-11.546,0-295.085,0-306.9,0c-6.635,0-12.013,5.378-12.013,12.013v3.368  c0,32.324,0,45.63,0,79.984C25.871,311.178,21.372,311.178,39.724,311.178z"/>
<g>
	<path style="fill:#1B8E5A;" d="M32.536,227.826c0-6.635,5.378-12.013,12.013-12.013H19.522c-6.635,0-12.013,5.378-12.013,12.013   c0,43.676,0,63.757,0,83.353c8.935,0,10.758,0,25.028,0C32.536,301.641,32.536,238.065,32.536,227.826z"/>
	<path style="fill:#1B8E5A;" d="M337.407,206.868c-0.001-0.002-0.001-0.004-0.002-0.005c-0.001-0.002-30.431-53.748-30.431-53.749   c-7.073-12.494-0.911-15.107,2.663-15.631c-1.048-0.159-0.038-0.116-14.829-0.116c-8.912,0.385-8.55,8.127-3.874,15.764   l35.488,62.682h7.166C336.53,215.61,341.589,214.255,337.407,206.868z"/>
</g>
<path style="fill:#99BA3E;" d="M295.268,311.178c4.532-17.359,15.746-32.019,30.727-41.067v-54.299H199.104v95.366H295.268z"/>
<circle style="fill:#454545;" cx="361.132" cy="329.057" r="45.571"/>
<path style="fill:#333533;" d="M338.883,341.905c-10.876-18.837-6.765-42.203,8.62-56.327  c-27.835,8.749-40.434,40.993-25.841,66.269c14.548,25.198,48.747,30.547,70.31,10.755  C372.05,368.866,349.759,360.743,338.883,341.905z"/>
<circle style="fill:#888988;" cx="361.132" cy="329.057" r="25.686"/>
<path style="fill:#6F6F6F;" d="M357.523,303.63c-17.989,2.544-27.739,22.517-18.641,38.275c9.079,15.727,31.255,17.323,42.466,2.993  C358.508,348.127,343.291,321.817,357.523,303.63z"/>
<circle style="fill:#C2C2C2;" cx="361.132" cy="329.057" r="6.496"/>
<path style="fill:#FFA506;" d="M21.28,245.037H7.508v38.454H21.28c5.098,0,9.229-4.133,9.229-9.228v-19.997  C30.509,249.168,26.377,245.037,21.28,245.037z"/>
<path style="fill:#FF8103;" d="M21.28,264.264H7.508v19.226H21.28c5.098,0,9.229-4.133,9.229-9.228v-19.226  C30.509,260.132,26.377,264.264,21.28,264.264z"/>
<path style="fill:#FFA506;" d="M436.728,254.266v19.997c0,5.096,4.132,9.228,9.229,9.228h14.539c0-33.922,0.278-33.645-0.948-38.454  h-13.591C440.86,245.037,436.728,249.168,436.728,254.266z"/>
<path style="fill:#FF8103;" d="M436.728,255.037v19.226c0,5.096,4.132,9.228,9.229,9.228h14.539v-19.226h-14.539  C440.86,264.264,436.728,260.132,436.728,255.037z"/>
<path style="fill:#454545;" d="M504.492,311.179v-90.308c0-6.025-4.882-10.908-10.907-10.908s-10.909,4.883-10.909,10.908v90.308  H504.492z"/>
<path style="fill:#252825;" d="M499.039,211.435c-1.606-0.931-3.465-1.472-5.454-1.472c-6.025,0-10.909,4.883-10.909,10.908v90.308  h10.908v-90.308C493.583,216.836,495.781,213.321,499.039,211.435z"/>
<g>
	<path style="fill:#605E15;" d="M171.441,323.251c0,5.098,4.132,9.229,9.229,9.229h105.246c5.098,0,9.229-4.132,9.229-9.229v-13.075   H171.441V323.251z"/>
	<path style="fill:#605E15;" d="M504.492,323.251v-13.075H426.55v13.075c0,5.098,4.132,9.229,9.229,9.229h59.484   C500.36,332.48,504.492,328.348,504.492,323.251z"/>
</g>
<g>
	<path style="fill:#4F4D2C;" d="M198.806,323.251v-13.075h-27.365v13.075c0,5.098,4.132,9.229,9.229,9.229h27.365   C202.938,332.48,198.806,328.348,198.806,323.251z"/>
	<path style="fill:#4F4D2C;" d="M453.914,323.251v-13.075h-27.365v13.075c0,5.098,4.132,9.229,9.229,9.229h27.365   C458.046,332.48,453.914,328.348,453.914,323.251z"/>
</g>
<path style="fill:#3B540A;" d="M39.679,323.251v-13.075H7.508v13.075c0,5.098,4.132,9.229,9.229,9.229H30.45  C35.548,332.48,39.679,328.348,39.679,323.251z"/>
<path style="fill:#2F3F08;" d="M32.536,310.177H7.508v13.075c0,5.098,4.132,9.229,9.229,9.229c14.485,0,16.18,0.536,19.371-1.948  C31.637,327.053,32.536,323.426,32.536,310.177z"/>
<circle style="fill:#454545;" cx="105.588" cy="329.057" r="45.571"/>
<path style="fill:#333533;" d="M83.338,341.905c-10.876-18.837-6.765-42.203,8.62-56.327c-27.832,8.748-40.436,40.99-25.841,66.269  c14.547,25.197,48.747,30.548,70.31,10.755C116.505,368.866,94.214,360.743,83.338,341.905z"/>
<circle style="fill:#888988;" cx="105.588" cy="329.057" r="25.686"/>
<path style="fill:#6F6F6F;" d="M101.979,303.63c-17.989,2.544-27.739,22.517-18.641,38.275c9.079,15.726,31.255,17.323,42.466,2.993  C102.963,348.127,87.746,321.817,101.979,303.63z"/>
<circle style="fill:#C2C2C2;" cx="105.588" cy="329.057" r="6.496"/>
<path d="M361.127,275.984c-29.268,0-53.079,23.812-53.079,53.079c0,29.268,23.811,53.079,53.079,53.079  c29.269,0,53.081-23.811,53.081-53.079C414.207,299.796,390.396,275.984,361.127,275.984z M361.127,367.126  c-20.987,0-38.062-17.075-38.062-38.062c0-20.988,17.075-38.062,38.062-38.062c20.988,0,38.064,17.075,38.064,38.062  C399.19,350.051,382.114,367.126,361.127,367.126z"/>
<path d="M361.127,295.868c-18.302,0-33.193,14.892-33.193,33.195c0,18.302,14.891,33.193,33.193,33.193  c18.303,0,33.195-14.891,33.195-33.193C394.322,310.76,379.43,295.868,361.127,295.868z M361.127,347.24  c-10.023,0-18.176-8.154-18.176-18.176c0-10.024,8.154-18.178,18.176-18.178c10.024,0,18.178,8.155,18.178,18.178  C379.305,339.086,371.15,347.24,361.127,347.24z"/>
<circle cx="361.132" cy="329.067" r="6.496"/>
<path d="M105.583,275.984c-29.269,0-53.08,23.812-53.08,53.079c0,29.268,23.812,53.079,53.08,53.079s53.08-23.811,53.08-53.079  C158.663,299.796,134.851,275.984,105.583,275.984z M105.583,367.126c-20.988,0-38.063-17.075-38.063-38.062  c0-20.988,17.076-38.062,38.063-38.062s38.063,17.075,38.063,38.062C143.646,350.051,126.571,367.126,105.583,367.126z"/>
<path d="M105.583,295.868c-18.302,0-33.193,14.892-33.193,33.195c0,18.302,14.891,33.193,33.193,33.193s33.193-14.891,33.193-33.193  C138.775,310.76,123.885,295.868,105.583,295.868z M105.583,347.24c-10.023,0-18.176-8.154-18.176-18.176  c0-10.024,8.153-18.178,18.176-18.178s18.176,8.155,18.176,18.178C123.759,339.086,115.606,347.24,105.583,347.24z"/>
<circle cx="105.588" cy="329.067" r="6.496"/>
<path d="M226.504,245.24h19.612c4.148,0,7.508-3.361,7.508-7.508s-3.361-7.508-7.508-7.508h-19.612  c-4.148,0-7.508,3.361-7.508,7.508C218.996,241.879,222.357,245.24,226.504,245.24z"/>
<path d="M493.584,202.457c-10.155,0-18.417,8.261-18.417,18.415v82.798h-7.162c0-53.9,0.41-54.251-1.191-60.52  c-4.225-16.476-19.202-28.694-36.976-28.694h-55.898c-4.054,0-7.701-1.362-9.765-4.917c-0.019-0.032-0.037-0.063-0.057-0.096  l-17.318-29.786c-2.084-3.587-6.683-4.8-10.264-2.717c-3.585,2.083-4.801,6.679-2.717,10.264  c0.156,0.268,17.947,30.882,18.116,31.142c2.174,3.346,8.671,11.126,22.005,11.126h55.898c7.001,0,13.282,3.128,17.53,8.056  c-11.654,0-18.148,8.062-18.148,16.738v19.997c0,9.228,7.508,16.737,16.738,16.737h7.031v12.67h-20.436  c-13.962-40.393-58.965-61.335-99.049-45.587v-39.827c0.694-2.012,0.523-4.25-0.55-6.143c-35.633-62.937-36.63-64.04-37.539-67.238  c14.125,0,13.573-0.332,14.37,0.995l11.505,19.787c1.247,2.433,3.775,4.101,6.696,4.101c6.058,0,9.622-6.812,6.207-11.783  l-11.401-19.605c-2.969-5.252-8.547-8.511-14.573-8.511c-0.238,0-13.501-0.004-13.738,0.007  c-10.688,0.463-19.762,9.403-10.079,26.971l29.138,51.467h-95.28l-26.062-46.031c-5.395-9.533-17.595-13.051-27.287-7.559  c-9.631,5.449-13.011,17.655-7.559,27.287l14.893,26.303H84.165l-26.062-46.031c-8.813-15.572-32.001-12.514-36.719,4.518  c-1.428,5.154-0.763,10.556,1.872,15.21l14.892,26.303H19.522C8.758,208.304,0,217.061,0,227.825c0,7.63,0,84.178,0,96.426  c0,9.229,7.508,16.738,16.738,16.738H30.45c9.229,0,16.738-7.508,16.738-16.738v-11.876c7.187-26.242,31.089-44.513,58.395-44.513  c27.251,0,51.11,18.196,58.35,44.353v12.035c0,9.229,7.508,16.738,16.738,16.738h105.246c9.229,0,16.738-7.508,16.738-16.738  v-11.593c3.659-13.598,12.087-25.275,22.411-32.881c33.392-24.893,81.824-9.066,93.998,30.972  c-0.034,0.594-0.022,12.905-0.022,13.502c0,9.229,7.508,16.738,16.738,16.738h59.484c9.229,0,16.738-7.508,16.738-16.738  c0-1.637,0-11.438,0-13.075v-90.307C512,210.718,503.739,202.457,493.584,202.457z M169.953,170.801  c1.193-4.308,6.997-4.985,9.179-1.129l21.873,38.634c-4.399,0-7.33,0-11.504,0C168.774,171.695,169.209,173.477,169.953,170.801z   M35.856,170.801c1.18-4.263,6.976-5.022,9.179-1.129l21.873,38.634H55.405C34.678,171.695,35.113,173.477,35.856,170.801z   M15.017,252.547h6.263c0.948,0,1.721,0.772,1.721,1.721v19.997c0,0.948-0.772,1.72-1.721,1.72h-6.263V252.547z M32.171,324.254  c0,0.948-0.773,1.721-1.721,1.721H16.738c-0.948,0-1.721-0.773-1.721-1.721v-5.566h17.154  C32.171,318.688,32.171,324.254,32.171,324.254z M287.636,324.254c0,0.948-0.773,1.721-1.721,1.721H180.67  c-0.948,0-1.721-0.773-1.721-1.721v-5.566h20.155h88.533L287.636,324.254L287.636,324.254z M318.488,266.016  c-12.611,8.611-23.204,21.467-28.787,37.655h-83.087v-35.014c0-4.148-3.361-7.508-7.508-7.508c-4.148,0-7.508,3.361-7.508,7.508  v35.014h-14.589c-10.436-30.2-39.015-50.824-71.425-50.824s-60.989,20.624-71.425,50.824H15.017v-12.67h6.263  c9.229,0,16.738-7.508,16.738-16.737v-19.997c0-9.229-7.508-16.738-16.738-16.738h-6.263v-9.703c0-2.484,2.021-4.505,4.505-4.505  c2.421,0,166.725,0,172.075,0v19.644c0,4.148,3.361,7.508,7.508,7.508c4.148,0,7.508-3.361,7.508-7.508v-19.644h7.272h104.602  V266.016z M445.957,275.984c-0.948,0-1.721-0.772-1.721-1.72v-19.997c0-0.948,0.772-1.721,1.721-1.721h7.03  c0,0.021,0.002,0.042,0.002,0.063v23.375L445.957,275.984L445.957,275.984z M496.983,324.254c0,0.948-0.772,1.721-1.721,1.721  h-59.484c-0.948,0-1.721-0.773-1.721-1.721v-5.565l26.439,0.001c0.007,0,0.014-0.001,0.021-0.001  c23.165,0,19.691,0.001,36.466,0.001V324.254z M496.983,303.671h-6.799v-82.798c0-4.491,6.799-4.493,6.799,0V303.671z"/>
<g>
</g>
<g>
</g>
<g>
</g>
<g>
</g>
<g>
</g>
<g>
</g>
<g>
</g>
<g>
</g>
<g>
</g>
<g>
</g>
<g>
</g>
<g>
</g>
<g>
</g>
<g>
</g>
<g>
</g>
</svg>
