<?xml version="1.0" encoding="iso-8859-1"?>
<!-- Generator: Adobe Illustrator 19.0.0, SVG Export Plug-In . SVG Version: 6.00 Build 0)  -->
<svg xmlns="http://www.w3.org/2000/svg" xmlns:xlink="http://www.w3.org/1999/xlink" version="1.1" id="Capa_1" x="0px" y="0px" viewBox="0 0 512 512" style="enable-background:new 0 0 512 512;" xml:space="preserve">
<path style="fill:#FFD05C;" d="M354.64,119.068h-37.232c-6.261,0-11.338,5.076-11.338,11.338v23.731h59.906v-23.731  C365.978,124.145,360.902,119.068,354.64,119.068z"/>
<path style="fill:#FFA645;" d="M347.362,119.068h-29.954c-6.261,0-11.338,5.076-11.338,11.338v23.731h29.954v-23.731  C336.024,124.145,341.101,119.068,347.362,119.068z"/>
<path style="fill:#EAEAEA;" d="M458.109,258.767h-23.376l-24.379-86.978c-5.096-16.519-18.585-19.279-24.775-19.653  c-9.955,0-74.673,0-84.62,0c0,8.965,0,191.045,0,200.187c10.893,0,182.07,0,188.729,0v-59.904  C489.69,262.064,465.878,259.009,458.109,258.767z"/>
<path style="fill:#7F7F7F;" d="M492.612,352.324H381.457c28.821,0,52.184,23.362,52.184,52.183h58.972  c6.285,0,11.383-5.098,11.383-11.385v-29.412C503.994,357.421,498.898,352.324,492.612,352.324z"/>
<path style="fill:#6F6F6F;" d="M300.96,352.324c0,10.753,0,41.433,0,52.183c9.661,0,18.471,0,28.315,0  c0-28.821,23.364-52.183,52.182-52.183C364.81,352.324,318.185,352.324,300.96,352.324z"/>
<path style="fill:#FFD05C;" d="M457.033,301.953v11.219c0,7.433,6.026,13.46,13.46,13.46h19.196v-38.139h-19.196  C463.059,288.492,457.033,294.52,457.033,301.953z"/>
<path style="fill:#FFA645;" d="M457.505,298.464c-0.611,2.284-0.473,2.479-0.473,14.707c0,7.433,6.026,13.46,13.46,13.46h19.196  v-18.197h-19.196C464.268,308.436,459.044,304.203,457.505,298.464z"/>
<path style="fill:#97C8F7;" d="M434.733,258.767l-18.339-65.432h-66.907c-7.435,0-13.46,6.025-13.46,13.46v38.5  c0,7.435,6.026,13.472,13.46,13.472L434.733,258.767L434.733,258.767z"/>
<path style="fill:#70AAEF;" d="M361.516,245.295v-38.5c0-7.435,6.025-13.46,13.46-13.46h-25.491c-7.435,0-13.46,6.025-13.46,13.46  v38.5c0,7.435,6.026,13.472,13.46,13.472h25.491C367.541,258.767,361.516,252.73,361.516,245.295z"/>
<path style="fill:#FF4D56;" d="M19.39,404.507h21.579c0-28.821,23.362-52.183,52.181-52.183s52.182,23.362,52.182,52.183  c6.782,0,148.28,0,156.628,0c0-16.002,0-244.44,0-252.369H21.466c-7.434-0.001-13.46,6.027-13.46,13.459  c0,10.47,0,217.821,0,227.524C8.006,399.409,13.103,404.507,19.39,404.507z"/>
<circle style="fill:#F5F5F5;" cx="165.524" cy="277.372" r="58.767"/>
<path style="fill:#CAD9E5;" d="M131.775,277.374c0-28.16,19.813-51.682,46.257-57.418c-36.87-7.998-71.274,20.149-71.274,57.418  c0,37.268,34.401,65.418,71.274,57.42C151.588,329.057,131.775,305.535,131.775,277.374z"/>
<path style="fill:#D12451;" d="M33.023,393.122c0-8.896,0-214.288,0-227.524c0-7.433,6.026-13.46,13.46-13.46H21.466  c-7.434-0.001-13.46,6.027-13.46,13.459c0,10.47,0,217.821,0,227.524c0,6.287,5.098,11.385,11.385,11.385h21.579  c0-0.176,0.012-0.35,0.013-0.525C36.369,402.526,33.023,398.214,33.023,393.122z"/>
<path style="fill:#FFA645;" d="M40.662,261.572v51.6c0,7.433-6.026,13.46-13.46,13.46H8.006v-78.521h19.196  C34.635,248.111,40.662,254.137,40.662,261.572z"/>
<path style="fill:#FFD05C;" d="M8.006,296.158v30.474h19.196c7.434,0,13.46-6.027,13.46-13.46v-17.014H8.006z"/>
<path style="fill:#454545;" d="M67.759,357.776c-25.767,14.001-35.337,46.354-21.336,72.121  c14.001,25.766,46.353,35.338,72.119,21.337c25.768-14.001,35.339-46.354,21.339-72.12  C125.88,353.347,93.526,343.775,67.759,357.776z"/>
<path style="fill:#333533;" d="M67.309,418.549c-12.05-22.176-6.628-49.222,11.54-65.256c-33.086,9.239-48.611,46.82-32.426,76.605  c16.197,29.809,56.173,37.187,81.915,14.472C105,450.889,79.359,440.725,67.309,418.549z"/>
<circle style="fill:#848381;" cx="93.154" cy="404.51" r="29.412"/>
<path style="fill:#6F6F6F;" d="M89.777,375.288c-20.669,2.378-32.413,24.957-22.469,43.26c9.931,18.276,35.262,20.75,48.521,4.684  C89.592,426.25,72.945,395.687,89.777,375.288z"/>
<circle style="fill:#C2C2C2;" cx="93.154" cy="404.51" r="7.439"/>
<path style="fill:#454545;" d="M356.064,357.776c-25.766,14.001-35.337,46.354-21.336,72.121  c14.001,25.766,46.353,35.338,72.119,21.337c25.768-14.001,35.339-46.354,21.339-72.12  C414.185,353.347,381.832,343.775,356.064,357.776z"/>
<path style="fill:#333533;" d="M355.615,418.549c-12.05-22.176-6.628-49.222,11.54-65.256c-33.086,9.239-48.611,46.82-32.426,76.605  c16.197,29.809,56.173,37.188,81.915,14.472C393.305,450.889,367.664,440.725,355.615,418.549z"/>
<circle style="fill:#848381;" cx="381.454" cy="404.51" r="29.412"/>
<path style="fill:#6F6F6F;" d="M374.921,408.058c-5.901-10.859-4.248-23.788,3.162-32.77c-20.67,2.378-32.412,24.958-22.469,43.26  c9.908,18.235,35.235,20.783,48.521,4.684C392.567,424.564,380.82,418.917,374.921,408.058z"/>
<circle style="fill:#C2C2C2;" cx="381.454" cy="404.51" r="7.439"/>
<path d="M92.65,367.588c-20.356,0-36.917,16.561-36.917,36.919c0,20.356,16.56,36.917,36.917,36.917  c20.357,0,36.919-16.56,36.919-36.917C129.569,384.15,113.007,367.588,92.65,367.588z M92.65,426.412  c-12.078,0-21.906-9.827-21.906-21.906s9.827-21.908,21.906-21.908s21.908,9.828,21.908,21.908  C114.558,416.585,104.729,426.412,92.65,426.412z"/>
<circle cx="92.654" cy="404.51" r="7.44"/>
<path d="M381.957,367.588c-20.356,0-36.917,16.561-36.917,36.919c0,20.356,16.56,36.917,36.917,36.917s36.918-16.56,36.918-36.917  C418.875,384.15,402.313,367.588,381.957,367.588z M381.957,426.412c-12.078,0-21.906-9.827-21.906-21.906  s9.827-21.908,21.906-21.908s21.907,9.828,21.907,21.908C403.864,416.585,394.037,426.412,381.957,426.412z"/>
<circle cx="381.954" cy="404.51" r="7.44"/>
<path d="M497.694,345.404c0-61.577,0.123-57.592-0.317-59.063c-2.15-20.732-15.861-33.814-38.242-35.066  c-0.409-0.022-17.802-0.013-18.213-0.013c-0.07-0.249-22.824-81.437-22.897-81.685c-6.534-21.182-24.203-24.492-31.496-24.931  c-0.15-0.009-0.301-0.014-0.451-0.014h-12.096v-14.225c0-10.39-8.452-18.843-18.842-18.843h-37.232  c-10.39,0-18.843,8.453-18.843,18.843v14.225h-37.644c-4.146,0-7.505,3.359-7.505,7.505c0,4.146,3.359,7.505,7.505,7.505h32.533  v192.682v44.678H151.869c-1.646-13.039-7.662-25.428-17.34-34.974c-34.235-33.746-94.8-15.019-101.095,34.974H18.89  c-2.139,0-3.88-1.74-3.88-3.88v-58.984h11.691c11.561,0,20.965-9.405,20.965-20.965c0-10.121,0-41.525,0-51.6  c0-11.561-9.405-20.965-20.965-20.965H15.01v-75.009c0-3.283,2.672-5.955,5.955-5.955h214.436c4.146,0,7.505-3.359,7.505-7.505  c0-4.146-3.359-7.505-7.505-7.505H20.965C9.405,144.631,0,154.036,0,165.596c0,4.82,0,200.246,0,227.524  c0,10.416,8.474,18.89,18.89,18.89h14.563c3.706,29.378,28.83,52.181,59.197,52.181c30.369,0,55.494-22.803,59.199-52.181  c6.94,0,163.95,0,170.909,0c3.705,29.378,28.831,52.181,59.199,52.181c30.369,0,55.495-22.803,59.2-52.181h51.955  c10.414,0,18.888-8.474,18.888-18.89v-29.412C512,354.875,505.898,347.46,497.694,345.404z M32.657,313.172  c0,3.283-2.672,5.955-5.955,5.955H15.01v-15.464h17.646C32.657,303.663,32.657,313.172,32.657,313.172z M26.701,255.616  c3.283,0,5.955,2.672,5.955,5.955v27.082H15.01v-33.037L26.701,255.616L26.701,255.616z M482.684,319.127h-11.691  c-3.283,0-5.955-2.672-5.955-5.955v-11.219c0-3.283,2.672-5.955,5.955-5.955h11.691V319.127z M425.334,251.262h-75.348  c-3.283,0-5.955-2.677-5.955-5.967v-38.5c0-3.283,2.672-5.955,5.955-5.955h61.216L425.334,251.262z M403.655,173.912l3.34,11.917  h-57.009c-11.561,0-20.965,9.404-20.965,20.965v38.5c0,11.567,9.405,20.978,20.965,20.978c109.975,0,108.846,0.016,108.846,0.016  c8.59,0.363,18.318,3.476,22.16,14.699h-10c-11.561,0-20.965,9.405-20.965,20.965v11.219c0,11.561,9.405,20.965,20.965,20.965  h11.691v10.681c-5.108,0-163.216,0-173.719,0V159.641c8.468,0,68.503,0,76.873,0C392.125,160.072,400.227,162.923,403.655,173.912z   M314.076,130.406c0-2.113,1.719-3.833,3.833-3.833h37.232c2.112,0,3.832,1.719,3.832,3.833v14.225h-44.896V130.406z M92.65,449.182  c-24.634,0-44.676-20.041-44.676-44.676s20.041-44.678,44.676-44.678s44.678,20.042,44.678,44.678  C137.327,429.141,117.285,449.182,92.65,449.182z M308.966,359.829h33.453c-10.444,9.249-17.809,22.354-19.68,37.173h-13.774  L308.966,359.829L308.966,359.829z M381.957,449.182c-24.635,0-44.677-20.041-44.677-44.676s20.042-44.678,44.677-44.678  c24.636,0,44.678,20.042,44.678,44.678C426.636,429.141,406.594,449.182,381.957,449.182z M496.99,393.122  c0,2.139-1.739,3.88-3.878,3.88h-51.935c-1.862-14.798-9.221-27.881-19.68-37.173c8.338,0,64.353,0,71.615,0  c2.138,0,3.878,1.74,3.878,3.88V393.122z"/>
<path d="M348.864,295.998h25.655c4.146,0,7.505-3.359,7.505-7.505s-3.359-7.505-7.505-7.505h-25.655  c-4.146,0-7.505,3.359-7.505,7.505S344.718,295.998,348.864,295.998z"/>
<path d="M98.752,277.374c0,36.543,29.729,66.273,66.271,66.273c36.543,0,66.273-29.73,66.273-66.273  c0-36.542-29.73-66.271-66.273-66.271C128.481,211.103,98.752,240.831,98.752,277.374z M216.285,277.374  c0,28.266-22.996,51.262-51.262,51.262c-28.265,0-51.26-22.996-51.26-51.262c0-28.265,22.995-51.26,51.26-51.26  S216.285,249.108,216.285,277.374z"/>
<path d="M157.517,253.818v16.05h-16.05c-4.146,0-7.505,3.359-7.505,7.505s3.359,7.505,7.505,7.505h16.05v16.052  c0,4.146,3.359,7.505,7.505,7.505c4.146,0,7.505-3.359,7.505-7.505v-16.052h16.051c4.146,0,7.505-3.359,7.505-7.505  s-3.359-7.505-7.505-7.505h-16.051v-16.05c0-4.146-3.359-7.505-7.505-7.505C160.877,246.313,157.517,249.673,157.517,253.818z"/>
<path d="M336.869,98.152c4.146,0,7.505-3.359,7.505-7.505V55.313c0-4.146-3.359-7.505-7.505-7.505s-7.505,3.359-7.505,7.505v35.333  C329.364,94.793,332.723,98.152,336.869,98.152z"/>
<path d="M364.449,98.153c2.55,0,5.035-1.3,6.443-3.647l15.639-26.075c2.133-3.554,0.979-8.165-2.576-10.296  c-3.553-2.131-8.163-0.98-10.296,2.576l-15.639,26.075C355.007,91.807,358.664,98.153,364.449,98.153z"/>
<path d="M302.844,94.506c1.407,2.347,3.894,3.647,6.443,3.647c5.791,0,9.437-6.353,6.429-11.366l-15.641-26.075  c-2.133-3.556-6.746-4.707-10.296-2.576c-3.555,2.132-4.708,6.742-2.576,10.296L302.844,94.506z"/>
<g>
</g>
<g>
</g>
<g>
</g>
<g>
</g>
<g>
</g>
<g>
</g>
<g>
</g>
<g>
</g>
<g>
</g>
<g>
</g>
<g>
</g>
<g>
</g>
<g>
</g>
<g>
</g>
<g>
</g>
</svg>
