<?xml version="1.0" encoding="iso-8859-1"?>
<!-- Generator: Adobe Illustrator 19.0.0, SVG Export Plug-In . SVG Version: 6.00 Build 0)  -->
<svg xmlns="http://www.w3.org/2000/svg" xmlns:xlink="http://www.w3.org/1999/xlink" version="1.1" id="Capa_1" x="0px" y="0px" viewBox="0 0 512.001 512.001" style="enable-background:new 0 0 512.001 512.001;" xml:space="preserve">
<path style="fill:#EDEDED;" d="M179.362,83.247h110.661c8.508,0,15.404,6.898,15.404,15.406v19.533H163.956V98.653  C163.956,90.146,170.855,83.247,179.362,83.247z"/>
<path style="fill:#D6D6D6;" d="M204.363,83.247h-25c-8.508,0-15.406,6.898-15.406,15.406v19.533h25V98.653  C188.956,90.146,195.856,83.247,204.363,83.247z"/>
<path style="fill:#FFD05C;" d="M187.558,83.247V26.101c0-7.438,6.031-13.467,13.467-13.467h67.335  c7.438,0,13.469,6.029,13.469,13.467v57.145H187.558z"/>
<path style="fill:#FFA645;" d="M225.212,12.635h-24.187c-7.436,0-13.467,6.029-13.467,13.467v57.145h24.187V26.101  C211.745,18.664,217.776,12.635,225.212,12.635z"/>
<path style="fill:#7C7C7C;" d="M366.792,491.919c0,6.948-5.633,12.581-12.582,12.581H115.174c-6.948,0-12.581-5.633-12.581-12.581  V130.767c0-6.947,5.633-12.58,12.581-12.58h239.037c6.949,0,12.582,5.633,12.582,12.58v361.152H366.792z"/>
<path style="fill:#636363;" d="M127.593,491.919V130.767c0-6.947,5.633-12.58,12.581-12.58h-25c-6.948,0-12.581,5.633-12.581,12.58  v361.152c0,6.948,5.633,12.581,12.581,12.581h25C133.226,504.5,127.593,498.867,127.593,491.919z"/>
<path style="fill:#FFD05C;" d="M294.756,181.163H179.21c-4.142,0-7.5-3.357-7.5-7.5c0-4.143,3.358-7.5,7.5-7.5h115.546  c4.142,0,7.5,3.357,7.5,7.5C302.256,177.806,298.898,181.163,294.756,181.163z"/>
<path d="M179.21,166.163c-4.143,0-7.5,3.357-7.5,7.5c0,4.143,3.357,7.5,7.5,7.5h115.546c4.143,0,7.5-3.357,7.5-7.5  c0-4.143-3.357-7.5-7.5-7.5H179.21z"/>
<path d="M353.568,71.234c-2.93-2.928-7.678-2.928-10.607,0c-2.929,2.93-2.929,7.678,0,10.607  c30.088,30.085,81.842,8.697,81.842-33.899C424.801,21.507,403.294,0,376.86,0c-23.882,0-43.738,17.557-47.349,40.441h-40.183  v-14.34c0-11.561-9.406-20.967-20.969-20.967h-67.335c-11.562,0-20.967,9.405-20.967,20.967v14.34h-25.088  c-4.143,0-7.5,3.357-7.5,7.5s3.357,7.5,7.5,7.5h25.088v20.305c-14.221,0-23.602,10.932-23.602,22.906v12.033  c-6.228,0-55.536,0-61.755,0c-9.442,0-10.86,15,1.068,15c-0.781,2.98-0.676,4.753-0.676,7.678c-10.431,0-10.502,15,0,15v144.139  c-10.509,0-10.487,15,0,15v7.679c-10.455,0-10.498,15,0,15v144.139h-0.392c-4.143,0-7.5,3.358-7.5,7.5c0,3.852,2.934,7.5,7.892,7.5  c0,2.931-0.108,4.688,0.677,7.679H94.7c-4.143,0-7.5,3.357-7.5,7.5s3.357,7.5,7.5,7.5c13.187,0,274.512,0,284.088,0  c4.143,0,7.5-3.357,7.5-7.5s-3.357-7.5-7.5-7.5h-5.174c0.781-2.98,0.677-4.754,0.677-7.679h4.497c4.143,0,7.5-3.357,7.5-7.5  c0-4.142-3.357-7.5-7.5-7.5h-4.497V330.183h4.497c4.143,0,7.5-3.357,7.5-7.5c0-4.142-3.357-7.5-7.5-7.5h-4.497v-7.679h4.497  c4.143,0,7.5-3.357,7.5-7.5c0-4.142-3.357-7.5-7.5-7.5h-4.497V197.75c0-4.143-3.357-7.5-7.5-7.5s-7.5,3.357-7.5,7.5v94.754H110.092  V148.364h249.199v22.385c0,4.143,3.357,7.5,7.5,7.5s7.5-3.357,7.5-7.5v-22.385h4.497c4.143,0,7.5-3.357,7.5-7.5  c0-4.143-3.357-7.5-7.5-7.5h-4.497c0-2.931,0.108-4.687-0.676-7.678h5.173c4.143,0,7.5-3.357,7.5-7.5s-3.357-7.5-7.5-7.5  c-7.27,0-59.306,0-65.861,0V98.653c0-11.917-9.312-22.906-23.6-22.906V55.441h47.092c4.143,0,7.5-3.357,7.5-7.5  C343.92,29.777,358.696,15,376.859,15c18.164,0,32.941,14.777,32.941,32.941C409.801,77.197,374.251,91.921,353.568,71.234z   M359.292,491.919c0,2.802-2.279,5.081-5.081,5.081H115.173c-2.802,0-5.081-2.279-5.081-5.081v-2.598h249.199v2.598H359.292z   M359.292,474.321h-249.2V330.183h249.199v144.138H359.292z M359.292,307.503v7.679h-249.2v-7.679H359.292z M359.292,130.767v2.598  h-249.2v-2.598c0-2.801,2.279-5.08,5.081-5.08c10.461,0,228.429,0,239.037,0C357.012,125.687,359.292,127.966,359.292,130.767z   M266.527,75.747c-4.143,0-7.5,3.357-7.5,7.5s3.357,7.5,7.5,7.5h23.496c4.358,0,7.904,3.547,7.904,7.906v12.033H171.456V98.653  c0-4.359,3.547-7.906,7.906-7.906h58.164c4.143,0,7.5-3.357,7.5-7.5s-3.357-7.5-7.5-7.5h-42.469V26.101  c0-3.29,2.677-5.967,5.967-5.967h67.335c3.291,0,5.969,2.677,5.969,5.967v49.645H266.527z"/>
<g>
</g>
<g>
</g>
<g>
</g>
<g>
</g>
<g>
</g>
<g>
</g>
<g>
</g>
<g>
</g>
<g>
</g>
<g>
</g>
<g>
</g>
<g>
</g>
<g>
</g>
<g>
</g>
<g>
</g>
</svg>
