<?xml version="1.0" encoding="iso-8859-1"?>
<!-- Generator: Adobe Illustrator 19.0.0, SVG Export Plug-In . SVG Version: 6.00 Build 0)  -->
<svg xmlns="http://www.w3.org/2000/svg" xmlns:xlink="http://www.w3.org/1999/xlink" version="1.1" id="Capa_1" x="0px" y="0px" viewBox="0 0 512 512" style="enable-background:new 0 0 512 512;" xml:space="preserve">
<path style="fill:#6F6F6F;" d="M476.225,208.812l6.93-6.93c2.519-2.521,2.521-6.608,0-9.129l-44.878-44.877  c-2.522-2.521-6.609-2.521-9.128-0.001l-39.26,39.259L476.225,208.812z"/>
<path style="fill:#454545;" d="M451.283,160.881l-13.007-13.007c-2.522-2.521-6.609-2.521-9.128-0.001l-39.26,39.259l27.847,6.992  C452.61,159.251,450.231,161.5,451.283,160.881z"/>
<path style="fill:#6F6F6F;" d="M363.995,74.178l-44.878-44.879c-2.52-2.521-6.607-2.52-9.128,0l-7.316,7.316l21.679,86.337  l39.644-39.645C366.516,80.786,366.516,76.699,363.995,74.178z"/>
<path style="fill:#E2E1E0;" d="M438.456,225.401l16.944,4.254c4.818-4.828,9.82-9.839,22.076-22.096L391.14,185.88l-22.086,22.086  l69.407,17.429L438.456,225.401z"/>
<polygon style="fill:#D3D2D1;" points="411.974,199.887 418.988,192.872 391.141,185.88 369.054,207.966 396.903,214.958 "/>
<polygon style="fill:#E2E1E0;" points="304.311,34.977 282.333,56.954 294.976,107.305 294.868,107.413 303.904,143.399   325.99,121.313 "/>
<path style="fill:#454545;" d="M363.995,74.178l-13.091-13.091c-0.675,1.404,1.325-0.802-33.535,34.058l6.981,27.805l39.644-39.645  C366.516,80.786,366.516,76.699,363.995,74.178z"/>
<polygon style="fill:#D3D2D1;" points="311.65,100.865 296.922,115.594 303.904,143.399 325.99,121.313 319.008,93.508 "/>
<path style="fill:#C2C2C2;" d="M42.369,469.624C24.35,451.605,69.135,377.604,142.396,304.32L343.28,103.434  c4.816-4.815,11.871-5.567,15.759-1.68l51.2,51.2c3.889,3.888,3.136,10.943-1.681,15.758L207.766,369.507  C134.452,442.821,60.397,487.651,42.369,469.624z"/>
<path style="fill:#A89E9E;" d="M163.385,318.827c217.122-217.124,202.263-203.608,207.928-204.798l-12.275-12.275  c-3.888-3.889-10.943-3.136-15.759,1.68L142.395,304.32C69.135,377.604,24.35,451.605,42.369,469.624  c3.594,3.594,9.42,4.682,17.017,3.553C58.687,445.031,100.564,381.667,163.385,318.827z"/>
<polygon style="fill:#EDEDED;" points="480.89,352.083 327.271,249.587 206.956,369.903 440.766,392.208 "/>
<polygon style="fill:#D3D2D1;" points="348.803,263.953 327.271,249.587 206.956,369.903 239.727,373.029 "/>
<polygon style="fill:#DDDCDB;" points="206.956,369.903 232.22,344.641 466.03,366.944 440.766,392.208 "/>
<polygon style="fill:#C2C2C2;" points="264.989,347.766 232.22,344.641 206.956,369.903 239.727,373.029 "/>
<path style="fill:#6F6F6F;" d="M500.37,369.223c5.056-5.055,5.056-13.253-0.001-18.309l0,0c-5.057-5.057-13.254-5.057-18.309-0.001  l-70.534,70.535c-5.057,5.055-5.058,13.253-0.001,18.31l0,0c5.056,5.056,13.255,5.056,18.31-0.001L500.37,369.223z"/>
<path style="fill:#454545;" d="M421.609,429.118l70.534-70.535c2.985-2.985,7.065-4.193,10.948-3.653  c-0.629-1.457-1.53-2.825-2.721-4.017c-5.057-5.057-13.254-5.057-18.309-0.001l-70.534,70.535  c-7.546,7.543-3.205,20.491,7.36,21.963C416.842,438.68,417.743,432.982,421.609,429.118z"/>
<polygon style="fill:#EDEDED;" points="159.705,30.897 262.2,184.515 141.884,304.832 119.581,71.022 "/>
<polygon style="fill:#C2C2C2;" points="248.098,163.378 138.815,272.662 141.884,304.832 262.2,184.515 "/>
<polygon style="fill:#DDDCDB;" points="141.884,304.832 167.147,279.568 144.844,45.757 119.581,71.022 "/>
<polygon style="fill:#C2C2C2;" points="141.884,304.832 167.147,279.568 164.078,247.399 138.815,272.662 "/>
<path style="fill:#6F6F6F;" d="M281.954,247.848l-18.507-18.508c-2.92-2.92-2.978-7.597-0.128-10.448l106.429-106.429l29.084,29.084  L292.403,247.975C289.551,250.827,284.874,250.769,281.954,247.848z"/>
<path style="fill:#454545;" d="M384.772,127.487l-15.025-15.024L263.319,218.892c-2.851,2.851-2.793,7.527,0.128,10.448  l10.723,10.724C274.819,236.596,267.605,244.655,384.772,127.487z"/>
<ellipse transform="matrix(0.7071 -0.7071 0.7071 0.7071 -205.7551 214.7015)" style="fill:#5C92E0;" cx="156.29" cy="355.719" rx="62.127" ry="20.921"/>
<path style="fill:#3D7BC4;" d="M160.508,355.446c14.29-14.291,29.283-24.685,40.864-29.151  c8.429-28.058-25.384-19.878-59.888,14.627c-36.351,36.349-42.794,70.885-11.278,58.738  C133.795,387.718,144.794,371.159,160.508,355.446z"/>
<path style="fill:#6F6F6F;" d="M160.874,29.727c5.055-5.056,5.055-13.252,0-18.309l0,0c-5.057-5.057-13.254-5.057-18.311,0  L72.03,81.951c-5.056,5.057-5.057,13.254,0,18.312l0,0c5.056,5.055,13.254,5.055,18.311-0.001L160.874,29.727z"/>
<path style="fill:#454545;" d="M81.701,89.62l70.534-70.533c3.099-3.099,7.376-4.289,11.388-3.591  c-3.598-8.445-14.587-10.552-21.059-4.079L72.03,81.951c-5.056,5.057-5.057,13.254,0,18.312c1.957,1.957,4.387,3.147,6.921,3.589  C76.942,99.133,77.853,93.469,81.701,89.62z"/>
<path d="M491.434,339.5c-3.89,0-7.603,1.096-10.82,3.112l-74.085-49.431c-3.449-2.301-8.107-1.371-10.407,2.078  c-2.3,3.447-1.37,8.106,2.077,10.406l71.137,47.462l-5.893,5.893l-214.058-20.418l79.31-79.311l49.189,32.819  c3.446,2.299,8.106,1.37,10.406-2.078c2.3-3.447,1.37-8.107-2.078-10.406l-46.697-31.156l32.392-32.393l69.372,17.42l-16.973,16.974  c-2.93,2.93-2.93,7.681,0.001,10.611c1.465,1.465,3.386,2.197,5.305,2.197c1.92,0,3.841-0.732,5.306-2.198  c22.08-22.081,51.978-51.978,54.098-54.098c5.438-5.441,5.437-14.296-0.003-19.739l-44.878-44.878  c-2.637-2.635-6.143-4.087-9.87-4.087c-7.076,0-9.905,4.123-16.922,11.14c-1.336-1.846-53.021-53.535-54.901-54.846l7.08-7.08  c5.441-5.442,5.441-14.297,0-19.74l-44.877-44.878c-5.456-5.456-14.282-5.455-19.741-0.001  c-49.753,49.753-4.264,4.269-54.095,54.096c-2.931,2.93-2.931,7.681-0.001,10.611c1.466,1.466,3.386,2.198,5.306,2.198  c4.022,0,3.92-0.812,22.279-19.17l17.503,69.701l-32.309,32.31L169.275,31.273c4.922-7.89,3.976-18.425-2.873-25.278  c-7.996-7.994-20.929-7.992-28.923,0L66.944,76.528c-6.099,6.1-7.515,15.119-4.283,22.594l-29.6,29.599  c-2.93,2.931-2.93,7.681,0,10.612c2.932,2.93,7.681,2.929,10.612,0l29.589-29.588c7.71,3.35,16.663,1.644,22.605-4.295  l17.977-17.977l20.456,214.454c-34.534,34.92-63.692,70.94-82.347,101.767c-18.124,29.951-24.461,51.672-18.93,64.766l-30.73,30.731  c-2.93,2.931-2.93,7.681,0,10.612c2.932,2.93,7.68,2.929,10.612,0l30.764-30.764c3.062,1.285,6.584,1.956,10.573,1.956  c31.063,0,93.501-41.41,156.103-103.369l214.07,20.422l-17.976,17.976c-6.114,6.113-7.558,15.099-4.297,22.606l-29.588,29.588  c-4.741,4.743-1.32,12.81,5.306,12.81c4.145,0,2.758,0.35,34.895-31.785c7.485,3.251,16.477,1.833,22.605-4.296l70.534-70.534  C518.79,361.521,509.524,339.5,491.434,339.5z M449.681,372.783l-11.502,11.502l-214.057-20.42l11.5-11.5L449.681,372.783z   M393.993,193.993l69.373,17.419l-9.719,9.72l-69.373-17.42L393.993,193.993z M434.265,153.721l43.397,43.395l-1.929,1.929  l-69.373-17.42L434.265,153.721z M358.168,77.626l-27.904,27.905l-17.42-69.374l1.928-1.928L358.168,77.626z M300.478,48.525  l17.419,69.373l-9.719,9.719l-17.42-69.373L300.478,48.525z M173.324,262.883L152.869,48.447l5.893-5.893l94.002,140.888  C200.667,235.541,219.506,216.702,173.324,262.883z M81.406,96.432c-1.453,0-2.819-0.564-3.846-1.59  c-0.001-0.001-0.003-0.003-0.004-0.004c-2.12-2.12-2.125-5.576,0-7.699c75.812-75.811,71.163-72.128,74.383-72.128  c4.83,0,7.269,5.875,3.85,9.292l-1.17,1.17l0,0C79.533,100.562,84.659,96.432,81.406,96.432z M139.108,62.209l20.454,214.436  l-11.501,11.501L127.607,73.71C133.416,67.901,130.366,70.951,139.108,62.209z M47.897,464.2c-0.002-0.002-0.003-0.003-0.005-0.005  c-3.472-3.482-3.814-18.5,16.902-52.732c35.425-58.54,80.725-99.551,202.934-221.76c81.952-81.952,83.769-85.226,86.227-82.76  l6.102,6.102L258.934,214.168c-2.795,2.796-4.335,6.514-4.335,10.468c0,3.953,1.54,7.669,4.335,10.466l18.063,18.062  c2.795,2.796,6.512,4.337,10.466,4.337c0.001,0,0.001,0,0.001,0c3.954,0,7.671-1.541,10.467-4.336l65.175-65.174  c2.93-2.931,2.93-7.681,0-10.612c-2.931-2.928-7.681-2.93-10.612,0l-65.03,65.03l-17.773-17.773l100.976-100.978l17.773,17.773  l-17.939,17.939c-2.93,2.931-2.93,7.681,0,10.612c2.931,2.929,7.681,2.929,10.612,0l17.939-17.939  c6.749,6.749,6.515,6.168,6.371,7.531c-0.287,2.678,1.241,0.526-41.12,42.886l-0.001,0.001l-40.516,40.517  c-1.362,0.775-122.213,121.498-123.126,123.104C120.524,445.653,58.161,474.464,47.897,464.2z M495.285,363.8  c-75.859,75.858-71.17,72.129-74.383,72.129c-4.801,0-7.297-5.847-3.849-9.292c76.322-76.324,71.106-72.129,74.381-72.129  C496.302,354.507,498.684,360.403,495.285,363.8z"/>
<path d="M205.738,306.359c-2.114-2.114-5.968-4.635-12.318-4.635c-24.89,0-69.276,39.117-85.17,71.143  c-12.481,25.155-1.874,36.602,11.325,36.604c0.001,0,0.002,0,0.003,0C155.049,409.473,229.589,330.206,205.738,306.359z   M119.578,394.466c-1.165,0-1.639-0.214-1.681-0.214c-0.002,0-0.003,0.001-0.003,0.001c-2.039-3.224,4.138-23.163,29.118-48.143  c19.286-19.287,37.945-29.378,46.409-29.378c1.221,0,1.684,0.233,1.682,0.213c2.074,3.267-4.25,23.282-29.115,48.143  C146.699,384.375,128.041,394.467,119.578,394.466z"/>
<g>
</g>
<g>
</g>
<g>
</g>
<g>
</g>
<g>
</g>
<g>
</g>
<g>
</g>
<g>
</g>
<g>
</g>
<g>
</g>
<g>
</g>
<g>
</g>
<g>
</g>
<g>
</g>
<g>
</g>
</svg>
