<?xml version="1.0" encoding="iso-8859-1"?>
<!-- Generator: Adobe Illustrator 19.0.0, SVG Export Plug-In . SVG Version: 6.00 Build 0)  -->
<svg xmlns="http://www.w3.org/2000/svg" xmlns:xlink="http://www.w3.org/1999/xlink" version="1.1" id="Capa_1" x="0px" y="0px" viewBox="0 0 512 512" style="enable-background:new 0 0 512 512;" xml:space="preserve">
<path style="fill:#FF4D56;" d="M256,471.543c-118.851,0-215.543-96.692-215.543-215.543S137.149,40.458,256,40.458  S471.543,137.15,471.543,256S374.851,471.543,256,471.543z M256,73.415c-100.677,0-182.583,81.908-182.583,182.584  S155.323,438.584,256,438.584s182.585-81.909,182.585-182.585S356.677,73.415,256,73.415z"/>
<path style="fill:#D12451;" d="M256,56.937C146.235,56.937,56.935,146.236,56.935,256c0,109.765,89.3,199.063,199.065,199.063  c109.763,0,199.063-89.299,199.063-199.063C455.063,146.235,365.763,56.937,256,56.937z M256,438.585  c-100.677,0-182.583-81.909-182.583-182.585c0-100.678,81.907-182.584,182.583-182.584S438.585,155.323,438.585,256  C438.585,356.676,356.677,438.585,256,438.585z"/>
<path d="M504.5,248.499h-25.584c-2.65-79.124-47.086-151.018-117.312-188.92c-3.647-1.968-8.195-0.608-10.162,3.038  c-1.968,3.645-0.607,8.195,3.037,10.163c65.368,35.28,106.782,102.119,109.426,175.72h-17.981  c-3.857-98.859-83.565-178.565-182.424-182.422V48.103c22.564,0.8,44.622,5.201,65.673,13.136c3.872,1.46,8.201-0.496,9.663-4.372  c1.462-3.875-0.496-8.202-4.372-9.664c-22.746-8.575-46.584-13.301-70.964-14.108V7.5c0-4.142-3.357-7.5-7.5-7.5s-7.5,3.358-7.5,7.5  v25.597C131.464,36.985,36.984,131.464,33.096,248.499H7.5c-4.143,0-7.5,3.358-7.5,7.5c0,4.143,3.357,7.5,7.5,7.5h25.597  c3.888,117.036,98.368,211.516,215.403,215.404V504.5c0,4.143,3.357,7.5,7.5,7.5c4.143,0,7.5-3.357,7.5-7.5v-25.597  c117.036-3.888,211.516-98.368,215.403-215.404H504.5c4.142,0,7.5-3.357,7.5-7.5C512,251.857,508.643,248.499,504.5,248.499z   M248.5,48.107v17.969C149.642,69.934,69.935,149.64,66.078,248.499h-17.97C51.982,139.737,139.738,51.982,248.5,48.107z   M48.107,263.499h17.971c3.856,98.86,83.564,178.568,182.422,182.425v17.969C139.737,460.018,51.981,372.262,48.107,263.499z   M263.5,463.893v-17.957c34.904-1.364,68.523-12.234,97.658-31.653c3.447-2.298,4.379-6.954,2.082-10.4  c-2.298-3.448-6.954-4.376-10.4-2.082c-26.663,17.771-57.406,27.764-89.34,29.12v-25.294c0-4.143-3.357-7.5-7.5-7.5  s-7.5,3.357-7.5,7.5v25.288c-90.588-3.838-163.574-76.827-167.412-167.415h25.286c4.143,0,7.5-3.357,7.5-7.5  c0-4.142-3.357-7.5-7.5-7.5H81.088C84.927,157.912,157.913,84.925,248.5,81.087v25.287c0,4.142,3.357,7.5,7.5,7.5s7.5-3.358,7.5-7.5  V81.087c90.588,3.838,163.575,76.826,167.414,167.412h-25.288c-4.142,0-7.5,3.358-7.5,7.5c0,4.143,3.358,7.5,7.5,7.5h25.283  c-2.038,47.241-23.239,91.918-58.902,123.529c-3.1,2.747-3.386,7.487-0.638,10.587c2.747,3.102,7.487,3.386,10.587,0.638  c38.873-34.457,61.917-83.223,63.964-134.754h17.973C460.019,372.262,372.263,460.018,263.5,463.893z"/>
<path d="M301.973,248.499h-13.63c-2.851-12.296-12.546-21.991-24.842-24.842v-13.631c0-4.142-3.357-7.5-7.5-7.5s-7.5,3.358-7.5,7.5  v13.631c-12.297,2.851-21.992,12.546-24.843,24.842h-13.632c-4.143,0-7.5,3.358-7.5,7.5c0,4.142,3.357,7.501,7.5,7.501h13.632  c2.851,12.296,12.546,21.991,24.842,24.842v13.63c0,4.143,3.357,7.5,7.5,7.5s7.5-3.357,7.5-7.5v-13.63  c12.296-2.851,21.991-12.546,24.842-24.842h13.631c4.142,0,7.5-3.358,7.5-7.501C309.473,251.857,306.115,248.499,301.973,248.499z   M256,274.207c-10.039,0-18.207-8.168-18.207-18.208c0-10.039,8.168-18.206,18.207-18.206c10.039,0,18.207,8.167,18.207,18.206  C274.207,266.039,266.039,274.207,256,274.207z"/>
<g>
</g>
<g>
</g>
<g>
</g>
<g>
</g>
<g>
</g>
<g>
</g>
<g>
</g>
<g>
</g>
<g>
</g>
<g>
</g>
<g>
</g>
<g>
</g>
<g>
</g>
<g>
</g>
<g>
</g>
</svg>
