<?xml version="1.0" encoding="iso-8859-1"?>
<!-- Generator: Adobe Illustrator 19.0.0, SVG Export Plug-In . SVG Version: 6.00 Build 0)  -->
<svg xmlns="http://www.w3.org/2000/svg" xmlns:xlink="http://www.w3.org/1999/xlink" version="1.1" id="Capa_1" x="0px" y="0px" viewBox="0 0 511.999 511.999" style="enable-background:new 0 0 511.999 511.999;" xml:space="preserve">
<path style="fill:#F79646;" d="M38.214,320.365l55.979-78.433l11.393-118.973c0-9.567,7.754-17.323,17.322-17.323h76.997  c9.566,0,17.322,7.756,17.322,17.323v36.679h-5.773c-9.568,0-17.324,7.756-17.324,17.324v89.024c0,9.567,7.756,17.323,17.324,17.323  h5.773v97.206c-4.847,0-174.354,0-179.013,0C38.214,380.516,38.214,320.365,38.214,320.365z"/>
<path style="fill:#FF6D24;" d="M105.586,122.96L94.193,241.933l-52.974,74.223h32.852l52.974-74.223l11.393-118.973  c0-9.567,7.754-17.323,17.322-17.323h-32.853C113.34,105.637,105.586,113.393,105.586,122.96z"/>
<g>
	<rect x="38.21" y="320.362" style="fill:#6F6F6F;" width="179.011" height="60.15"/>
	<path style="fill:#6F6F6F;" d="M311.983,63.165v44.472c9.422,0,65.897,0,75.333,0l0,0l0,0l0,0V63.165   C379.004,63.165,320.697,63.165,311.983,63.165z"/>
	<path style="fill:#6F6F6F;" d="M198.241,63.165v44.472l0,0h-75.333l0,0V63.165C131.536,63.165,189.606,63.165,198.241,63.165z"/>
</g>
<g>
	<path style="fill:#454545;" d="M147.908,63.165v44.472l0,0h-25l0,0V63.165C131.87,63.165,138.501,63.165,147.908,63.165z"/>
	<path style="fill:#454545;" d="M336.984,63.165v44.472l0,0l0,0l0,0h-25l0,0V63.165C314.93,63.165,334.108,63.165,336.984,63.165z"/>
</g>
<path style="fill:#F79646;" d="M472.011,320.365l-55.979-78.433l-11.39-118.972c0-9.567-7.756-17.323-17.324-17.323H310.32  c-9.568,0-17.322,7.756-17.322,17.323v36.679h5.773c9.568,0,17.324,7.756,17.324,17.324v89.024c0,9.567-7.756,17.323-17.324,17.323  h-5.773v97.206c7.464,0,171.61,0,179.013,0v-60.152H472.011z"/>
<path style="fill:#FF6D24;" d="M318.047,316.155V239.82h-1.951v26.167c0,9.567-7.756,17.323-17.324,17.323h-5.725v32.844H318.047z"/>
<rect x="293.002" y="320.362" style="fill:#6F6F6F;" width="179.011" height="60.15"/>
<g>
	<rect x="293.002" y="320.362" style="fill:#555656;" width="25.1" height="60.15"/>
	<rect x="38.21" y="320.362" style="fill:#555656;" width="25.1" height="60.15"/>
</g>
<g>
	<path style="fill:#D6D6D4;" d="M403.908,50.748c0,8.238-6.68,14.917-14.92,14.917h-78.677c-8.24,0-14.918-6.679-14.918-14.917l0,0   c0-8.239,6.678-14.918,14.918-14.918h78.677C397.228,35.83,403.908,42.509,403.908,50.748L403.908,50.748z"/>
	<path style="fill:#D6D6D4;" d="M106.316,50.748c0,8.238,6.68,14.917,14.918,14.917h78.679c8.24,0,14.918-6.679,14.918-14.917l0,0   c0-8.239-6.678-14.918-14.918-14.918h-78.679C112.996,35.83,106.316,42.509,106.316,50.748L106.316,50.748z"/>
</g>
<g>
	<path style="fill:#B2B2B1;" d="M388.988,50.748h-78.677c-5.519,0-10.326-3.004-12.906-7.458c-1.272,2.196-2.012,4.738-2.012,7.459   c0,8.238,6.678,14.917,14.918,14.917h78.677c8.24,0,14.92-6.679,14.92-14.917c0-2.721-0.74-5.263-2.012-7.459   C399.315,47.743,394.508,50.748,388.988,50.748z"/>
	<path style="fill:#B2B2B1;" d="M199.913,50.748h-78.679c-5.518,0-10.325-3.004-12.906-7.458   c-5.749,9.921,1.43,22.376,12.906,22.376h78.679c8.24,0,14.918-6.679,14.918-14.917c0-2.721-0.74-5.263-2.012-7.459   C210.239,47.743,205.432,50.748,199.913,50.748z"/>
</g>
<path style="fill:#FFD05C;" d="M199.905,105.637h-76.997c-9.568,0-17.322,7.756-17.322,17.323L94.193,241.933h99.937v-64.969  c0-9.568,7.756-17.324,17.324-17.324h5.773V122.96C217.227,113.393,209.472,105.637,199.905,105.637z"/>
<path style="fill:#FFA645;" d="M155.761,105.637h-32.853c-9.568,0-17.322,7.756-17.322,17.323L94.193,241.933h32.853l11.393-118.973  C138.438,113.393,146.192,105.637,155.761,105.637z"/>
<path style="fill:#FFD05C;" d="M310.319,105.637h76.997c9.568,0,17.324,7.756,17.324,17.323l11.391,118.973h-99.937v-64.969  c0-9.568-7.756-17.324-17.324-17.324h-5.773V122.96C292.997,113.393,300.751,105.637,310.319,105.637z"/>
<path style="fill:#6F6F6F;" d="M298.77,157.64h-87.317c-10.655,0-19.324,8.669-19.324,19.324v89.024  c0,10.655,8.669,19.323,19.324,19.323h87.317c10.655,0,19.324-8.668,19.324-19.323v-89.024  C318.095,166.309,309.426,157.64,298.77,157.64z"/>
<path style="fill:#545352;" d="M216.127,265.988v-89.024c0-10.655,8.669-19.324,19.324-19.324h-23.998  c-10.655,0-19.324,8.669-19.324,19.324v89.024c0,10.655,8.669,19.323,19.324,19.323h23.998  C224.796,285.312,216.127,276.644,216.127,265.988z"/>
<path style="fill:#454545;" d="M265.554,221.476h-20.881c-8.483,0-15.355,6.873-15.355,15.354c0,22.56,0,27.771,0,48.481h51.59  c0-5.461,0-43.094,0-48.481C280.907,228.349,274.032,221.476,265.554,221.476z"/>
<path style="fill:#333231;" d="M253.315,236.829c0-7.954,6.047-14.494,13.797-15.275c-1.082-0.109,0.281-0.079-22.439-0.079  c-8.483,0-15.355,6.873-15.355,15.354c0,22.56,0,27.771,0,48.481h23.997C253.315,279.851,253.315,242.216,253.315,236.829z"/>
<path style="fill:#D6D6D4;" d="M490.298,408.02v-10.179c0-9.566-7.756-17.323-17.324-17.323c-6.532,0-167.072,0-177.089,0  c-9.568,0-17.324,7.757-17.324,17.323c0,90.439,0,15.881,0,55.34c7.636,0,60.024,0,67.374,0c7.15,0,137.719,0,144.372,0V408.02  H490.298z"/>
<path style="fill:#FFA645;" d="M318.047,241.933c0-10.478,0-90.195,0-99.821c0-20.143,16.331-36.475,36.478-36.475h-44.205  c-9.568,0-17.322,7.756-17.322,17.323v36.679h5.773c9.568,0,17.324,7.756,17.324,17.324v64.969H318.047z"/>
<path style="fill:#B2B2B1;" d="M303.559,397.841c0-9.566,7.756-17.323,17.324-17.323h-25c-9.568,0-17.324,7.757-17.324,17.323  c0,90.439,0,15.881,0,55.34c8.481,0,16.192,0,25,0C303.559,432.213,303.559,416.51,303.559,397.841z"/>
<path style="fill:#D6D6D4;" d="M214.341,380.518c-10.068,0-170.622,0-177.089,0c-9.568,0-17.324,7.757-17.324,17.323  c0,5.985,0,49.127,0,55.34c9.389,0,202.488,0,211.738,0c0-12.718,0-42.648,0-55.34C231.665,388.274,223.909,380.518,214.341,380.518  z"/>
<path style="fill:#6F6F6F;" d="M504.495,464.675c0-6.348-5.145-11.494-11.494-11.494H279.387c-6.35,0-11.492,5.147-11.492,11.494  c0,6.348,5.143,11.494,11.492,11.494H493C499.35,476.169,504.495,471.023,504.495,464.675z"/>
<path style="fill:#4F4E4D;" d="M493.001,464.675H279.387c-4.253,0-7.956-2.314-9.943-5.747c-4.432,7.657,1.111,17.241,9.943,17.241  H493c8.84,0,14.374-9.59,9.944-17.241C500.957,462.36,497.254,464.675,493.001,464.675z"/>
<path style="fill:#B2B2B1;" d="M44.927,397.841c0-9.566,7.756-17.323,17.324-17.323h-25c-9.568,0-17.324,7.757-17.324,17.323  c0,90.439,0,15.881,0,55.34c8.481,0,16.192,0,25,0C44.927,419.695,44.927,433.94,44.927,397.841z"/>
<path style="fill:#6F6F6F;" d="M244.097,464.675c0-6.348-5.146-11.494-11.494-11.494H18.989c-6.348,0-11.494,5.147-11.494,11.494  c0,6.348,5.147,11.494,11.494,11.494h213.613C238.95,476.169,244.097,471.023,244.097,464.675z"/>
<path style="fill:#4F4E4D;" d="M232.602,464.675H18.989c-4.251,0-7.956-2.314-9.944-5.747c-0.98,1.692-1.55,3.651-1.55,5.747  c0,6.348,5.147,11.494,11.494,11.494h213.613c8.823,0,14.381-9.578,9.944-17.241C240.558,462.36,236.854,464.675,232.602,464.675z"/>
<path d="M497.811,446.32c0-35.966-0.008-47.087-0.008-48.479c0-11.425-7.761-21.067-18.287-23.944V326.97  c6.778-3.655,4.295-14.105-3.638-14.105l-52.566-73.652l-6.415-67.003c-0.395-4.124-4.06-7.152-8.181-6.751  c-4.123,0.395-7.146,4.057-6.751,8.181l5.82,60.791H323.6c0-62.908,0.583-60.532-1.649-66.351  c-3.44-8.946-11.806-15.22-21.449-15.884V122.96c0-5.416,4.406-9.823,9.822-9.823h1.664h75.333c5.417,0,9.824,4.407,9.824,9.823  c0,0.269,0.016,0.552,0.04,0.776l2.455,25.647c0.393,4.123,4.048,7.15,8.181,6.751c4.123-0.395,7.146-4.057,6.751-8.181  c-2.805-29.304-2.349-29.272-3.987-33.65c-2.629-7.042-8.437-12.677-15.764-15.006V72.392c9.545-2.572,16.592-11.299,16.592-21.644  c0-12.361-10.058-22.418-22.42-22.418h-78.677c-12.361,0-22.418,10.057-22.418,22.418c0,10.345,7.046,19.071,16.59,21.644v26.444  c-10.88,2.633-18.986,12.446-18.986,24.124v29.179h-60.77V122.96c0-11.677-8.107-21.491-18.986-24.124V72.392  c9.544-2.573,16.59-11.299,16.59-21.644c0-12.361-10.057-22.418-22.418-22.418h-78.679c-12.361,0-22.418,10.057-22.418,22.418  c0,10.346,7.047,19.073,16.592,21.644v26.906c-9.944,3.16-17.153,12.4-17.319,23.271l-11.17,116.644l-52.566,73.651  c-7.901,0-10.464,10.42-3.638,14.104v46.927c-10.526,2.877-18.287,12.518-18.287,23.944v49.033C5.188,449.554,0,456.51,0,464.675  c0,10.474,8.521,18.994,18.994,18.994h213.613c10.474,0,18.994-8.52,18.994-18.994c0-8.164-5.188-15.121-12.432-17.801v-49.033  c0-9.98-5.924-18.598-14.438-22.538v-11.481c0-4.143-3.357-7.5-7.5-7.5c-4.142,0-7.5,3.357-7.5,7.5v9.195H45.719v-45.151h164.012  v9.956c0,4.143,3.358,7.5,7.5,7.5c4.143,0,7.5-3.357,7.5-7.5V327.62c7.479-1.924,7.477-12.587,0-14.51v-22.298  c6.301,0,49.824,0,56.18,0h4.59v22.298c-7.482,1.923-7.479,12.59,0,14.512v47.68c-8.514,3.939-14.438,12.557-14.438,22.538v49.789  c-18.078,8.872-11.618,36.039,8.328,36.039h213.613c10.474,0,18.994-8.52,18.994-18.994C512,455.864,505.961,448.457,497.811,446.32  z M379.821,98.137h-60.332V73.165h60.332V98.137z M302.898,50.748c0-4.09,3.328-7.418,7.418-7.418h78.677  c4.092,0,7.42,3.328,7.42,7.418s-3.328,7.417-7.42,7.417c-9.546,0-71.386,0-78.677,0C306.227,58.165,302.898,54.838,302.898,50.748z   M232.607,460.681c2.202,0,3.994,1.792,3.994,3.994c0,2.202-1.792,3.994-3.994,3.994H18.994c-2.202,0-3.994-1.792-3.994-3.994  c0-2.202,1.792-3.994,3.994-3.994C25.073,460.681,213.253,460.681,232.607,460.681z M214.346,388.018  c5.417,0,9.824,4.406,9.824,9.823v47.84H27.432v-47.84c0-4.687,3.363-9.823,10.787-9.823H214.346z M323.569,267.238  c0.05-1,0.032-0.432,0.032-17.804h88.575l45.272,63.432H300.502v-22.114C312.975,289.889,322.95,279.75,323.569,267.238z   M464.516,327.865v45.151H300.502v-45.151H464.516z M113.821,50.748c0-4.09,3.328-7.418,7.418-7.418h78.679  c4.09,0,7.418,3.328,7.418,7.418s-3.328,7.417-7.418,7.417h-1.672c-6.919,0-70.313,0-77.007,0  C117.149,58.165,113.821,54.838,113.821,50.748z M190.745,73.165v24.972h-60.332V73.165H190.745z M113.091,122.96  c0-5.416,4.406-9.823,9.822-9.823c6.827,0,70.317,0,76.997,0c5.416,0,9.822,4.407,9.822,9.823v29.238  c-10.427,0.718-19.393,8.01-22.199,18.163c-1.546,5.586-0.898,7.705-0.898,64.072h-84.184  C102.504,233.879,113.091,123.516,113.091,122.96z M209.732,312.865H52.786l45.272-63.432h88.575  c0,17.371-0.018,16.804,0.032,17.804c0.615,12.439,10.538,22.648,23.066,23.514L209.732,312.865L209.732,312.865z M273.412,275.812  h-36.59V236.83c0-4.331,3.524-7.854,7.855-7.854h20.881c4.33,0,7.853,3.523,7.853,7.854v38.981H273.412z M265.559,213.976h-20.881  c-12.603,0-22.855,10.252-22.855,22.854v38.981c-3.939,0-6.485,0-10.363,0c-5.417,0-9.824-4.406-9.824-9.823v-24.055v-64.969  c0-5.417,4.407-9.824,9.824-9.824c17.621,0,68.744,0,87.317,0c5.417,0,9.824,4.407,9.824,9.824v64.969v24.055  c0,5.417-4.407,9.823-9.824,9.823h-5.774h-4.59V236.83C288.412,224.228,278.16,213.976,265.559,213.976z M493.006,468.669H279.393  c-2.201,0-3.992-1.792-3.992-3.994c0-2.202,1.791-3.994,3.992-3.994h164.468c4.143,0,7.5-3.357,7.5-7.5s-3.357-7.5-7.5-7.5H286.065  v-47.84c0-5.417,4.407-9.823,9.824-9.823c21.706,0,155.587,0,177.089,0c5.417,0,9.824,4.406,9.824,9.823  c0,2.626,0.008,9.209,0.008,47.84h-12.282c-4.143,0-7.5,3.357-7.5,7.5s3.357,7.5,7.5,7.5h22.477c2.202,0,3.994,1.792,3.994,3.994  C497,466.877,495.208,468.669,493.006,468.669z"/>
<g>
</g>
<g>
</g>
<g>
</g>
<g>
</g>
<g>
</g>
<g>
</g>
<g>
</g>
<g>
</g>
<g>
</g>
<g>
</g>
<g>
</g>
<g>
</g>
<g>
</g>
<g>
</g>
<g>
</g>
</svg>
