<?xml version="1.0" encoding="iso-8859-1"?>
<!-- Generator: Adobe Illustrator 19.0.0, SVG Export Plug-In . SVG Version: 6.00 Build 0)  -->
<svg xmlns="http://www.w3.org/2000/svg" xmlns:xlink="http://www.w3.org/1999/xlink" version="1.1" id="Capa_1" x="0px" y="0px" viewBox="0 0 511.999 511.999" style="enable-background:new 0 0 511.999 511.999;" xml:space="preserve">
<path style="fill:#D6D6D6;" d="M162.925,117.876V52.032c0-0.621,186.149-0.371,186.149,0v65.845h29.03V52.032  c0-16.186-13.169-29.353-29.354-29.353h-185.5c-16.187,0-29.355,13.168-29.355,29.353v65.845h29.03V117.876z"/>
<path style="fill:#6F6F6F;" d="M478.421,115.876h-2.189c-2.5,0-423.931,0-434.475,0h-7.528H33.58  c-14.403,0-26.08,11.676-26.08,26.078v299.913c0,13.633,10.674,26.079,26.728,26.079c2.145,0,425.223,0,436.015,0h5.988h2.189  c14.403,0,26.079-11.678,26.079-26.079V141.955C504.5,127.552,492.824,115.876,478.421,115.876z"/>
<path style="fill:#5B5B5A;" d="M118.29,441.868V141.955c0-14.402,11.677-26.078,26.08-26.078H41.756h-7.528H33.58  c-14.403,0-26.08,11.676-26.08,26.078v299.913c0,13.633,10.674,26.079,26.728,26.079c22.592,0,87.452,0,110.142,0  C129.967,467.948,118.29,456.27,118.29,441.868z"/>
<path style="fill:#FFD05C;" d="M256,418.308c-70.334,0-127.251-56.912-127.251-127.251c0-70.335,56.912-127.251,127.251-127.251  c70.332,0,127.251,56.912,127.251,127.251C383.251,361.389,326.339,418.308,256,418.308z"/>
<path style="fill:#FFA645;" d="M157.167,291.057c0-66.363,50.292-119.534,113.041-126.462c-4.685-0.518-9.426-0.789-14.208-0.789  c-70.335,0-127.251,56.912-127.251,127.251c0,70.335,56.912,127.251,127.251,127.251c4.783,0,9.523-0.272,14.209-0.789  C207.623,410.609,157.167,357.553,157.167,291.057z"/>
<path style="fill:#EDEDED;" d="M186.114,360.945C124.408,299.239,167.608,192.222,256,192.222c54.622,0,98.835,44.202,98.835,98.835  C354.835,379.419,247.847,422.676,186.114,360.945z"/>
<path style="fill:#D6D6D6;" d="M182.992,291.057c0-51.021,38.235-91.814,85.92-97.998c-4.248-0.552-8.558-0.837-12.913-0.837  c-54.624,0-98.833,44.202-98.833,98.835c0,59.495,52.168,105.735,111.746,97.996C221.183,382.865,182.992,342.038,182.992,291.057z"/>
<path style="fill:#EFC081;" d="M256.856,195.396c3.941-1.021,7.959-1.803,12.036-2.333c-3.041-0.392-6.208-0.652-9.082-0.76  c-0.564-0.021-1.129-0.034-1.694-0.046c-0.198-0.004-0.396-0.006-0.594-0.01C257.286,193.292,257.079,194.347,256.856,195.396z"/>
<path style="fill:#5B5B5A;" d="M90.978,475.383V108.439c0-7.695-6.239-13.935-13.935-13.935H55.69  c-7.696,0-13.935,6.239-13.935,13.935v366.944c0,7.694,6.238,13.934,13.935,13.934h21.352  C84.739,489.317,90.978,483.078,90.978,475.383z"/>
<path style="fill:#454545;" d="M66.368,475.383V108.439c0-7.144,5.378-13.023,12.305-13.831c-1.222-0.143,0.348-0.104-22.981-0.104  c-7.696,0-13.935,6.239-13.935,13.935v366.944c0,7.694,6.238,13.934,13.935,13.934c23.329,0,21.761,0.039,22.981-0.103  C71.746,488.406,66.368,482.526,66.368,475.383z"/>
<path style="fill:#5B5B5A;" d="M470.244,475.383V108.439c0-7.695-6.238-13.935-13.934-13.935h-21.353  c-7.695,0-13.934,6.239-13.934,13.935v366.944c0,7.694,6.238,13.934,13.934,13.934h21.353  C464.006,489.317,470.244,483.078,470.244,475.383z"/>
<g>
	<path style="fill:#454545;" d="M445.634,475.383V108.439c0-7.144,5.378-13.023,12.305-13.831   c-1.222-0.143,0.348-0.104-22.982-0.104c-7.695,0-13.934,6.239-13.934,13.935v366.944c0,7.694,6.238,13.934,13.934,13.934h21.353   c0.552,0,1.093-0.041,1.628-0.103C451.012,488.406,445.634,482.526,445.634,475.383z"/>
	<path style="fill:#454545;" d="M255.937,277.791c-7.574,0-13.736,6.162-13.736,13.736c0,7.575,6.162,13.738,13.736,13.738   c7.575,0,13.738-6.163,13.738-13.738C269.676,283.954,263.513,277.791,255.937,277.791z"/>
	<path style="fill:#454545;" d="M226.648,298.532c-0.085-0.389-0.322-0.727-0.658-0.942c-0.335-0.213-0.742-0.285-1.131-0.2   c-36.742,8.12-37.582,7.616-37.009,9.777c5.587,21.165,21.259,35.6,23.055,35.6c0.407,0,0.811-0.165,1.107-0.487l23.77-25.975   c0.559-0.611,0.518-1.56-0.094-2.119C231.105,309.989,227.979,304.577,226.648,298.532z"/>
	<path style="fill:#454545;" d="M323.018,305.344l-36.002-7.955c-0.389-0.085-0.796-0.014-1.131,0.201   c-0.335,0.214-0.572,0.553-0.657,0.941c-1.329,6.043-4.455,11.455-9.04,15.653c-0.611,0.56-0.653,1.508-0.094,2.119   c25.548,27.916,23.933,26.522,24.933,26.522c0.348,0,0.697-0.12,0.98-0.364c1.472-1.272,2.73-2.432,3.845-3.548   c8.81-8.811,15.135-19.78,18.293-31.722C324.363,306.366,323.846,305.527,323.018,305.344z"/>
	<path style="fill:#454545;" d="M244.667,262.587c0.121,0.382,0.389,0.7,0.746,0.883c0.214,0.109,0.448,0.165,0.684,0.165   c0.158,0,0.315-0.024,0.468-0.075c6.066-1.992,12.685-1.991,18.743,0c0.38,0.127,0.796,0.093,1.152-0.09   c0.357-0.183,0.626-0.501,0.746-0.883l12.17-38.506c0.247-0.781-0.178-1.615-0.955-1.875c-14.304-4.78-30.122-4.952-44.962,0.038   c-0.775,0.261-1.199,1.094-0.952,1.874L244.667,262.587z"/>
</g>
<rect x="41.756" y="160.581" style="fill:#FFD05C;" width="49.22" height="260.952"/>
<rect x="41.756" y="160.581" style="fill:#FFA645;" width="24.611" height="260.952"/>
<rect x="421.023" y="160.581" style="fill:#FFD05C;" width="49.22" height="260.952"/>
<rect x="421.023" y="160.581" style="fill:#FFA645;" width="24.61" height="260.952"/>
<path d="M477.741,108.379c-0.034-11.79-9.633-21.372-21.43-21.372h-21.353c-11.797,0-21.396,9.582-21.43,21.372h-27.92V52.034  c0-20.321-16.533-36.854-36.855-36.854H163.25c-20.321,0-36.854,16.532-36.854,36.854v56.344h-27.92  c-0.034-11.79-9.633-21.372-21.431-21.372H55.69c-11.798,0-21.397,9.582-21.432,21.372H33.58C15.063,108.379,0,123.442,0,141.957  V441.87c0,17.71,14.01,33.579,34.259,33.579c0.035,11.788,9.634,21.369,21.431,21.369h21.352c11.798,0,21.396-9.581,21.431-21.369  h253.385c4.143,0,7.5-3.357,7.5-7.5s-3.357-7.5-7.5-7.5H98.479c0-2.747,0-329.579,0-337.071c3.198,0,313.967,0,315.044,0  c0,12.232,0,285.919,0,298.154v38.916h-34.995c-4.143,0-7.5,3.357-7.5,7.5s3.357,7.5,7.5,7.5h34.998  c0.035,11.788,9.634,21.369,21.43,21.369h21.353c11.797,0,21.395-9.581,21.43-21.369c20.196,0,34.259-15.821,34.259-33.579V141.957  C512,124.285,498.029,108.379,477.741,108.379z M49.256,168.083h34.222v245.95H49.256V168.083z M49.256,108.441  c0-3.548,2.887-6.435,6.435-6.435h21.352c3.548,0,6.435,2.887,6.435,6.435c0,17.225,0,28.528,0,44.642H49.256  C49.256,136.969,49.256,125.666,49.256,108.441z M15,441.87V141.957c0-9.535,7.386-18.578,19.256-18.578  c0,12.232,0,285.919,0,298.154v38.916C22.556,460.45,15,451.557,15,441.87z M83.479,475.386c0,3.548-2.887,6.434-6.435,6.434H55.69  c-3.548,0-6.435-2.886-6.435-6.434c0-9.723,0-36.706,0-46.352h34.222v38.916L83.479,475.386L83.479,475.386z M341.575,108.379  H170.425V59.21h171.149V108.379z M356.575,108.379V52.034c0-4.314-3.51-7.824-7.824-7.824h-185.5c-4.314,0-7.825,3.51-7.825,7.824  v56.344h-14.029V52.034c0-12.05,9.804-21.854,21.854-21.854h185.5c12.051,0,21.855,9.804,21.855,21.854v56.344  C370.606,108.379,356.575,108.379,356.575,108.379z M428.523,108.441c0-3.548,2.886-6.435,6.434-6.435h21.353  c3.548,0,6.434,2.887,6.434,6.435v44.642h-34.221C428.523,136.969,428.523,125.666,428.523,108.441z M462.744,475.386  c0,3.548-2.886,6.434-6.434,6.434h-21.353c-3.548,0-6.434-2.886-6.434-6.434c0-9.723,0-36.706,0-46.352h34.221L462.744,475.386  L462.744,475.386z M497,441.87c0,9.535-7.386,18.579-19.256,18.579V220.947c0-4.143-3.357-7.5-7.5-7.5s-7.5,3.357-7.5,7.5v193.087  h-34.22v-245.95h34.221v25.863c0,4.143,3.357,7.5,7.5,7.5s7.5-3.357,7.5-7.5v-70.568c11.702,0,19.256,8.893,19.256,18.578V441.87  H497z"/>
<path d="M275.676,291.53c0-10.883-8.854-19.736-19.738-19.736c-10.883,0-19.736,8.854-19.736,19.736  c0,10.884,8.854,19.738,19.736,19.738C266.821,311.269,275.676,302.414,275.676,291.53z M255.938,296.269  c-2.611,0-4.736-2.126-4.736-4.738c0-2.611,2.125-4.736,4.736-4.736c2.612,0,4.738,2.125,4.738,4.736  C260.676,294.143,258.55,296.269,255.938,296.269z"/>
<path d="M256,184.725c-95.068,0-141.605,115.107-75.19,181.525c20.083,20.082,46.785,31.142,75.19,31.142  s55.105-11.06,75.189-31.142C397.581,299.855,351.095,184.725,256,184.725z M320.582,355.644  c-17.249,17.25-40.185,26.749-64.582,26.749s-47.332-9.499-64.581-26.749c-35.694-35.692-35.699-93.47,0-129.167  c35.692-35.695,93.467-35.699,129.163,0C356.279,262.172,356.282,319.944,320.582,355.644z"/>
<path d="M229.22,292.535c-3.495-2.23-2.815-1.629-41.537,6.928c-1.994,0.44-3.722,1.675-4.785,3.419  c-1.063,1.743-1.369,3.845-0.849,5.818c3.427,12.978,10.292,24.893,19.856,34.46c3.673,3.67,5.634,5.608,8.998,5.608  c4.409,0,3.803-0.543,29.306-28.411c2.796-3.056,2.586-7.799-0.469-10.596C230.908,301.675,234.557,295.943,229.22,292.535z   M210.573,330.525c-4.902-5.37-8.806-11.543-11.529-18.21l21.137-4.671c1.169,2.689,2.639,5.232,4.385,7.59L210.573,330.525z"/>
<path d="M324.312,299.488c-38.848-8.584-38.163-9.184-41.657-6.952c-5.322,3.398-1.696,9.149-10.52,17.226  c-3.055,2.797-3.265,7.54-0.469,10.596l23.826,26.035c1.477,1.614,3.502,2.437,5.536,2.437c1.738,0,3.483-0.602,4.898-1.823  c1.583-1.367,2.946-2.625,4.168-3.847c9.558-9.56,16.422-21.466,19.85-34.431C331.033,304.61,328.473,300.407,324.312,299.488z   M301.365,330.592l-14.056-15.358c1.747-2.358,3.217-4.901,4.386-7.59l21.251,4.696  C310.212,319.025,306.291,325.213,301.365,330.592z"/>
<path d="M238.946,264.398c1.257,3.981,5.53,6.169,9.492,4.865c4.855-1.595,10.149-1.593,14.997,0  c3.963,1.305,8.237-0.886,9.493-4.865l12.17-38.506c1.233-3.903-0.892-8.075-4.774-9.373c-15.444-5.161-32.602-5.396-48.774,0.041  c-3.876,1.304-5.994,5.471-4.762,9.369L238.946,264.398z M268.44,228.827l-7.751,24.524c-3.145-0.387-6.355-0.387-9.502,0  l-7.743-24.501C251.637,227.149,260.233,227.141,268.44,228.827z"/>
<path d="M351.283,195.775c-25.45-25.45-59.289-39.466-95.283-39.466c-35.992,0-69.832,14.016-95.285,39.467  c-25.45,25.452-39.466,59.291-39.466,95.284c0,74.482,60.269,134.751,134.751,134.751c35.993,0,69.833-14.016,95.283-39.466  c25.451-25.452,39.468-59.291,39.468-95.285S376.734,221.228,351.283,195.775z M340.676,375.737  C318.06,398.354,287.986,410.81,256,410.81s-62.059-12.456-84.678-35.072c-22.617-22.619-35.073-52.691-35.073-84.679  s12.456-62.059,35.072-84.678c22.619-22.617,52.691-35.073,84.679-35.073s62.059,12.456,84.676,35.073  C387.477,253.182,387.483,328.932,340.676,375.737z"/>
<g>
</g>
<g>
</g>
<g>
</g>
<g>
</g>
<g>
</g>
<g>
</g>
<g>
</g>
<g>
</g>
<g>
</g>
<g>
</g>
<g>
</g>
<g>
</g>
<g>
</g>
<g>
</g>
<g>
</g>
</svg>
