<?xml version="1.0" encoding="iso-8859-1"?>
<!-- Generator: Adobe Illustrator 19.0.0, SVG Export Plug-In . SVG Version: 6.00 Build 0)  -->
<svg xmlns="http://www.w3.org/2000/svg" xmlns:xlink="http://www.w3.org/1999/xlink" version="1.1" id="Capa_1" x="0px" y="0px" viewBox="0 0 511.999 511.999" style="enable-background:new 0 0 511.999 511.999;" xml:space="preserve">
<path style="fill:#898888;" d="M489.438,43.625c-30.622-30.622-82.817-7.873-81.717,35.097l-91.134,91.136l46.619,46.619  l91.136-91.136C497.277,126.447,520.075,74.259,489.438,43.625z M467.719,87.866c-6.217,6.217-16.3,6.217-22.52,0  c-6.217-6.219-6.219-16.302,0-22.521c6.219-6.219,16.302-6.219,22.52,0C473.937,71.563,473.937,81.646,467.719,87.866z"/>
<path style="fill:#6F6F6F;" d="M407.721,78.722l-91.134,91.136l22.382,22.382l92.444-92.447c3.162-3.166,3.153-7.779,3.153-7.779  l0.005,0.006c1.958-28.877,27.916-50.218,56.827-46.304C461.611,12.225,406.588,34.457,407.721,78.722z"/>
<path style="fill:#C1C0BF;" d="M339.152,266.616c0,0,0,0,0.002-0.002L339.152,266.616L339.152,266.616  c-71.814,95.768-209.66,243.84-325.525,211.279c-4.918-1.381-6.781-7.385-3.521-11.306  c100.784-122.688,49.22-66.614,250.293-267.687c9.907-9.907,25.971-9.907,35.878,0l41.831,41.831  C348.357,250.982,343.63,260.445,339.152,266.616z"/>
<path style="fill:#D6D6D6;" d="M13.626,477.894c-4.918-1.381-6.781-7.385-3.521-11.306l11.859-14.437  c109.758,16.711,232.763-115.967,298.748-204.918c4.279-5.965,8.745-15.151-1.477-25.373l18.872,18.872  c10.251,10.249,5.523,19.713,1.045,25.883C267.338,362.384,129.491,510.456,13.626,477.894z"/>
<path style="fill:#6F6F6F;" d="M386.702,249.34c3.141-3.141,3.141-8.228,0-11.368L300.032,151.3c-3.139-3.137-8.229-3.137-11.368,0  l-15.31,15.312c-3.139,3.139-3.139,8.23,0,11.368l86.673,86.671c3.139,3.139,8.227,3.139,11.366,0L386.702,249.34z"/>
<path style="fill:#555656;" d="M376.804,254.43c-100.998-100.996-94.201-93.775-95.14-96.13l-8.31,8.312  c-3.139,3.139-3.139,8.23,0,11.368l86.673,86.671c3.139,3.139,8.227,3.139,11.366,0l8.309-8.309  C378.647,255.921,377.658,255.284,376.804,254.43z"/>
<path d="M495.772,37.291c-2.928-2.928-7.678-2.929-10.607,0.001c-2.929,2.929-2.929,7.679,0.001,10.607  c15.782,15.78,15.785,41.328-0.001,57.111c-7.898,7.898-18.401,12.06-29.599,11.802c-3.992-0.118-5.235,1.931-12.167,8.864  l-29.783-14.931c-3.702-1.853-8.21-0.359-10.067,3.344c-1.855,3.703-0.359,8.211,3.344,10.067l25.329,12.698l-7.474,7.474  l-29.782-14.93c-3.703-1.853-8.21-0.359-10.067,3.344c-1.855,3.703-0.359,8.211,3.344,10.067l25.327,12.697l-7.474,7.474  l-29.782-14.931c-3.703-1.852-8.209-0.358-10.067,3.344c-1.855,3.703-0.359,8.211,3.344,10.067l25.328,12.697l-7.473,7.473  l-29.783-14.929c-3.703-1.852-8.211-0.359-10.067,3.344c-1.855,3.703-0.358,8.211,3.344,10.067l25.329,12.696l-12.03,12.03  l-36.012-36.012c93.074-93.075,88.14-86.766,88.025-91.327c-0.287-11.192,3.904-21.704,11.803-29.6  c10.215-10.217,25.233-14.205,39.192-10.413c3.998,1.086,8.118-1.272,9.205-5.271c1.086-3.997-1.273-8.119-5.27-9.205  c-34.495-9.379-68.768,15.932-69.915,51.561l-83.646,83.648l-12.254-12.255c-6.071-6.067-15.897-6.071-21.975,0.002l-15.31,15.311  c-6.059,6.059-6.059,15.917,0,21.977l2.41,2.41c-6.155,1.304-11.813,4.349-16.366,8.903L84.106,364.585  c-0.778,0.778,3.448-4.316-80.739,98.178c-6.736,8.108-2.879,20.474,7.262,23.321c11.573,3.252,23.588,4.875,36.02,4.874  c27.615-0.001,57.268-8.014,88.569-23.98c106.392-54.269,209.455-192.891,213.591-203.001l5.947,5.946  c6.072,6.072,15.901,6.073,21.975,0l15.31-15.309c6.059-6.059,6.059-15.917,0-21.977l-17.191-17.192l83.647-83.648  C507.016,130.238,529.763,71.277,495.772,37.291z M15.337,471.824l8.797-10.709c96.317,11.463,197.264-83.056,260.736-157.196  c2.693-3.147,2.327-7.883-0.819-10.576c-3.148-2.695-7.883-2.326-10.576,0.819C216.348,360.891,123.207,450.144,35.75,446.975  c74.248-90.387,28.09-40.908,228.983-241.801c6.982-6.984,18.286-6.985,25.27,0c0.447,0.447,23.692,23.692,22.959,22.959  c5.123,5.122,5.314,9.224,0.721,15.649c-7.931,10.689-16.386,21.562-25.132,32.314c-2.613,3.213-2.128,7.939,1.086,10.552  c3.214,2.615,7.939,2.126,10.552-1.086c11.183-13.749,21.872-27.794,25.649-32.987c1.837-2.561,3.209-5.02,4.19-7.378  c4.493,4.493,8.631,8.139,2.991,16.677C296.012,317.844,136.465,505.056,15.337,471.824z M381.428,244.006  c-0.243,0.243-15.345,15.468-15.689,15.468c-0.343,0-86.809-86.587-87.052-86.829c-0.21-0.209-0.21-0.551,0-0.761  c0.247-0.247,15.34-15.467,15.689-15.467c0.401,0,86.767,86.545,87.051,86.829C381.642,243.459,381.642,243.793,381.428,244.006z"/>
<path d="M440.926,59.009c-14.707,14.709-4.235,39.989,16.564,39.989c20.789,0,31.28-25.271,16.563-39.988  C464.9,49.853,450.082,49.854,440.926,59.009z M457.49,83.997c-7.48,0-11.249-9.09-5.956-14.38c3.29-3.292,8.619-3.294,11.911,0  C468.733,74.904,464.967,83.997,457.49,83.997z"/>
<g>
</g>
<g>
</g>
<g>
</g>
<g>
</g>
<g>
</g>
<g>
</g>
<g>
</g>
<g>
</g>
<g>
</g>
<g>
</g>
<g>
</g>
<g>
</g>
<g>
</g>
<g>
</g>
<g>
</g>
</svg>
