<?xml version="1.0" encoding="iso-8859-1"?>
<!-- Generator: Adobe Illustrator 19.0.0, SVG Export Plug-In . SVG Version: 6.00 Build 0)  -->
<svg xmlns="http://www.w3.org/2000/svg" xmlns:xlink="http://www.w3.org/1999/xlink" version="1.1" id="Capa_1" x="0px" y="0px" viewBox="0 0 511.999 511.999" style="enable-background:new 0 0 511.999 511.999;" xml:space="preserve">
<path style="fill:#779300;" d="M359.386,36.676H153.033c-8.239,0-14.918,6.679-14.918,14.917v75.535  c0.021,2.654,0.713,21.471,15.453,35.362l86.369,81.371c4.082-4.328,9.851-7.047,16.273-7.047c6.419,0,12.191,2.718,16.271,7.047  l86.371-81.371c14.738-13.892,15.43-32.707,15.451-35.362V51.593C374.304,43.355,367.626,36.676,359.386,36.676z"/>
<path style="fill:#99BA3E;" d="M359.386,36.676H215.345c-18.246,73.583,6.155,151.057,63.852,200.858l79.656-75.043  c14.738-13.892,15.43-32.707,15.451-35.362V51.593C374.304,43.355,367.626,36.676,359.386,36.676z"/>
<path style="fill:#1B8E5A;" d="M329.056,36.676H182.371v152.952l57.567,54.234c4.082-4.328,9.851-7.047,16.273-7.047  c6.419,0,12.191,2.718,16.271,7.047l56.576-53.3L329.056,36.676L329.056,36.676z"/>
<path style="fill:#31A372;" d="M279.196,237.534l49.86-46.973V36.676H215.345C197.099,110.259,221.499,187.733,279.196,237.534z"/>
<path style="fill:#FFD05C;" d="M323.409,504.468c-1.281,0-2.567-0.305-3.742-0.924l-63.458-33.361l-63.456,33.361  c-2.711,1.425-5.991,1.189-8.47-0.61c-2.478-1.801-3.719-4.85-3.201-7.865l12.12-70.661l-51.336-50.041  c-2.193-2.138-2.981-5.333-2.035-8.245c0.945-2.912,3.462-5.034,6.491-5.474l70.948-10.31l31.727-64.287  c1.355-2.745,4.149-4.483,7.212-4.483c3.061,0,5.856,1.739,7.212,4.483l31.727,64.287l70.948,10.31  c3.029,0.439,5.544,2.562,6.491,5.474c0.946,2.912,0.156,6.107-2.037,8.245l-51.337,50.041l12.122,70.661  c0.518,3.017-0.723,6.064-3.201,7.865C326.735,503.951,325.077,504.468,323.409,504.468z"/>
<path style="fill:#FFA645;" d="M206.098,486.729l9.858-57.477c1.814-10.578-2.621-17.494-5.425-20.676l-2.084-2.031l-0.001-0.001  l0,0l-41.565-40.516c-2.149-2.094-2.938-5.201-2.08-8.065l-18.478,2.685c-3.029,0.439-5.546,2.562-6.491,5.474  c-0.946,2.912-0.158,6.107,2.035,8.245l51.337,50.041l-12.12,70.661c-0.518,3.017,0.723,6.064,3.201,7.865  c2.478,1.799,5.758,2.035,8.47,0.61l16.762-8.813C206.74,492.832,205.591,489.675,206.098,486.729z"/>
<path d="M383.069,0h-254.14c-10.758,0-19.511,8.753-19.511,19.511v28.015c0,10.758,8.753,19.511,19.511,19.511h1.681v60.152  c0.033,4.034,1.045,24.962,17.813,40.764c51.446,48.469,22.598,21.291,81.596,76.873c-7.714,14.011-3.012,31.868,11.137,40.158  l-28.868,58.493l-67.043,9.742c-12.741,1.848-17.84,17.527-8.616,26.519l48.512,47.287l-11.452,66.771  c-2.183,12.718,11.184,22.364,22.558,16.389l59.964-31.525c65.063,34.204,62.012,33.311,67.2,33.311  c9.502,0,16.978-8.526,15.321-18.173l-5.03-29.325c-0.7-4.085-4.584-6.839-8.664-6.127c-4.085,0.7-6.829,4.579-6.127,8.664  l5.03,29.327c0.26,1.529,1.601,1.816-64.238-32.797c-2.187-1.149-4.798-1.149-6.984,0c-65.723,34.553-64.444,34.018-64.238,32.795  l12.12-70.661c0.418-2.434-0.389-4.918-2.157-6.643c-53.182-51.838-52.261-50.781-51.041-50.96l70.948-10.31  c2.444-0.354,4.557-1.89,5.651-4.104c32.75-66.361,32.002-65.685,32.693-64.287l31.727,64.287c1.094,2.215,3.206,3.75,5.65,4.104  c71.596,10.404,72.243,10.261,71.242,11.228l-51.337,50.041c-1.749,1.706-2.559,4.156-2.17,6.569l2.679,16.616  c0.659,4.09,4.513,6.873,8.603,6.213c4.092-0.659,6.874-4.512,6.214-8.603l-2.059-12.77l48.545-47.32  c9.222-8.988,4.133-24.669-8.612-26.519l-67.044-9.742l-28.869-58.493c14.156-8.294,18.848-26.154,11.137-40.159L364,167.95  c16.764-15.802,17.776-36.729,17.809-40.824V67.037h1.261c10.758,0,19.511-8.753,19.511-19.511V19.511  C402.579,8.753,393.827,0,383.069,0z M145.617,127.129c0-15.372,0-60.148,0-75.535c0-4.087,3.326-7.412,7.414-7.412h21.834v128.067  l-16.152-15.217C146.125,145.166,145.632,128.885,145.617,127.129z M267.015,249.005c8.961,9.5,2.152,25.058-10.806,25.058  c-8.2,0-14.871-6.672-14.871-14.871C241.338,246.076,257.58,239.001,267.015,249.005z M366.8,127.068  c-0.015,1.817-0.507,18.098-13.093,29.961l-17.146,16.154v-85.91c0-4.145-3.359-7.504-7.504-7.504c-4.145,0-7.504,3.359-7.504,7.504  v100.049l-49.449,46.587c-9.786-6.174-22.259-6.064-31.801-0.012l-50.428-47.508V44.18h131.677v18.079  c0,4.145,3.359,7.504,7.504,7.504c4.145,0,7.504-3.359,7.504-7.504V44.18h22.826c4.088,0,7.414,3.325,7.414,7.412v7.94  L366.8,127.068L366.8,127.068z M387.571,47.526c0,2.482-2.019,4.502-4.502,4.502h-1.261v-0.436c0-12.362-10.059-22.42-22.422-22.42  c-7.361,0-190.769,0-206.353,0c-11.799,0-22.422,9.331-22.422,22.857h-1.681c-2.482,0-4.502-2.02-4.502-4.502V19.511  c0-2.483,2.02-4.502,4.502-4.502h254.14c2.483,0,4.502,2.019,4.502,4.502V47.526z"/>
<g>
</g>
<g>
</g>
<g>
</g>
<g>
</g>
<g>
</g>
<g>
</g>
<g>
</g>
<g>
</g>
<g>
</g>
<g>
</g>
<g>
</g>
<g>
</g>
<g>
</g>
<g>
</g>
<g>
</g>
</svg>
