<?xml version="1.0" encoding="iso-8859-1"?>
<!-- Generator: Adobe Illustrator 19.0.0, SVG Export Plug-In . SVG Version: 6.00 Build 0)  -->
<svg xmlns="http://www.w3.org/2000/svg" xmlns:xlink="http://www.w3.org/1999/xlink" version="1.1" id="Capa_1" x="0px" y="0px" viewBox="0 0 512.001 512.001" style="enable-background:new 0 0 512.001 512.001;" xml:space="preserve">
<path style="fill:#FFD05C;" d="M360.313,4.5h-42c-6.627,0-12,5.373-12,12v13.531h66.001V16.5C372.313,9.873,366.939,4.5,360.313,4.5  z"/>
<path style="fill:#FFA645;" d="M351.313,4.5h-33c-6.627,0-12,5.373-12,12v13.531h33V16.5C339.313,9.873,344.686,4.5,351.313,4.5z"/>
<path style="fill:#7C7C7C;" d="M414.218,489.145c0,8.48-6.873,15.355-15.354,15.355H107.137c-8.48,0-15.354-6.875-15.354-15.355  V48.385c0-8.479,6.873-15.354,15.354-15.354h291.726c8.48,0,15.354,6.875,15.354,15.354V489.145z"/>
<path style="fill:#636363;" d="M117.292,489.145V48.385c0-8.479,6.873-15.354,15.353-15.354h-25.509  c-8.48,0-15.354,6.875-15.354,15.354v440.759c0,8.48,6.873,15.355,15.354,15.355h25.509  C124.165,504.5,117.292,497.625,117.292,489.145z"/>
<path style="fill:#FFD05C;" d="M163.081,357.747c-24.033-24.035-37.27-55.99-37.27-89.981s13.236-65.946,37.27-89.981  c49.734-49.73,130.225-49.735,179.96,0c49.733,49.733,49.737,130.224,0,179.962C293.31,407.478,212.818,407.48,163.081,357.747z"/>
<path style="fill:#FFA645;" d="M154.229,267.766c0-66.399,50.334-119.539,113.042-126.462  c-76.064-8.403-141.459,50.952-141.459,126.462c0,75.612,65.489,134.852,141.46,126.462  C204.506,387.298,154.229,334.11,154.229,267.766z"/>
<path style="fill:#EDEDED;" d="M154.229,267.766c0-54.625,44.2-98.835,98.833-98.835c88.366,0,131.616,106.991,69.886,168.722  C260.467,400.134,154.229,355.064,154.229,267.766z"/>
<g>
	<path style="fill:#454545;" d="M252.999,253.5c-8.126,0-14.736,6.61-14.736,14.736c0,8.127,6.611,14.738,14.736,14.738   c8.127,0,14.738-6.611,14.738-14.738C267.738,260.11,261.127,253.5,252.999,253.5z"/>
	<path style="fill:#454545;" d="M224.687,275.024c-0.143-0.647-0.537-1.212-1.096-1.569c-1.247-0.795,1.019-0.976-37.768,7.596   c-0.665,0.147-1.241,0.559-1.595,1.14c-0.354,0.581-0.457,1.282-0.283,1.94c3.538,13.403,11.057,25.913,22.385,35.733   c1.023,0.887,2.567,0.799,3.482-0.201l23.77-25.975c0.932-1.019,0.862-2.6-0.156-3.531   C228.995,286.1,225.973,280.867,224.687,275.024z"/>
	<path style="fill:#454545;" d="M320.295,281.076l-36.002-7.955c-0.649-0.144-1.327-0.023-1.885,0.335   c-0.559,0.356-0.954,0.922-1.096,1.569c-1.284,5.841-4.306,11.072-8.738,15.131c-1.019,0.932-1.088,2.513-0.156,3.531   l23.826,26.035c0.492,0.538,1.167,0.813,1.845,0.813c2.096,0,18.203-14.136,24.084-36.379   C322.536,282.78,321.679,281.383,320.295,281.076z"/>
	<path style="fill:#454545;" d="M242.019,241.068c0.609,0.312,1.303,0.354,1.92,0.15c5.865-1.926,12.262-1.926,18.119,0   c0.634,0.208,1.326,0.154,1.921-0.15c0.594-0.305,1.042-0.834,1.244-1.472l12.17-38.506c0.411-1.301-0.297-2.691-1.591-3.124   c-14.501-4.846-30.539-5.024-45.597,0.038c-1.292,0.435-1.998,1.824-1.587,3.123C241.765,242.729,240.695,240.39,242.019,241.068z"/>
</g>
<path d="M273.233,268.236c0-10.883-8.855-19.736-19.738-19.736s-19.736,8.854-19.736,19.736c0,10.884,8.854,19.738,19.736,19.738  C264.379,287.975,273.233,279.12,273.233,268.236z M253.495,272.975c-2.611,0-4.736-2.126-4.736-4.738  c0-2.611,2.125-4.736,4.736-4.736c2.612,0,4.738,2.125,4.738,4.736C258.233,270.849,256.107,272.975,253.495,272.975z"/>
<path d="M253.557,161.431c-58.771,0-106.333,47.557-106.333,106.335c0,93.894,114.282,142.427,181.522,75.191  C395.139,276.561,348.651,161.431,253.557,161.431z M318.139,332.35c-57.025,57.028-155.914,17.096-155.914-64.584  c0-50.48,40.847-91.335,91.333-91.335C335.215,176.431,375.187,275.304,318.139,332.35z"/>
<path d="M230.065,273.949c-0.428-1.943-1.61-3.637-3.288-4.708c-3.495-2.23-2.809-1.631-41.537,6.928  c-4.149,0.916-6.723,5.109-5.634,9.237c3.826,14.49,11.948,27.837,23.944,38.235c1.418,1.229,3.167,1.833,4.91,1.833  c2.034,0,4.059-0.823,5.536-2.436l23.77-25.975c2.796-3.056,2.586-7.799-0.469-10.596  C233.63,283.11,231.129,278.782,230.065,273.949z M208.13,307.23c-4.902-5.37-8.806-11.543-11.529-18.21l21.137-4.671  c1.169,2.689,2.639,5.232,4.385,7.59L208.13,307.23z"/>
<path d="M280.212,269.242c-5.322,3.398-1.696,9.149-10.52,17.226c-3.055,2.797-3.265,7.54-0.469,10.596l23.826,26.035  c1.478,1.614,3.502,2.437,5.536,2.437c1.738,0,3.483-0.602,4.898-1.823c12.245-10.576,20.26-24.066,24.018-38.277  c0.522-1.975,0.216-4.076-0.847-5.82c-1.064-1.744-2.792-2.979-4.786-3.42l-36.002-7.955  C283.926,267.812,281.89,268.171,280.212,269.242z M310.504,289.045c-2.734,6.685-6.655,12.873-11.581,18.252l-14.056-15.358  c1.747-2.358,3.217-4.901,4.386-7.59L310.504,289.045z"/>
<path d="M236.503,241.104c0.604,1.911,1.947,3.501,3.73,4.415c1.068,0.548,2.242,0.825,3.421,0.825c0.788,0,1.578-0.124,2.341-0.375  c4.855-1.595,10.149-1.593,14.997,0c1.903,0.626,3.979,0.464,5.762-0.45c1.784-0.914,3.128-2.504,3.732-4.415l12.17-38.506  c1.233-3.903-0.892-8.075-4.774-9.373c-7.85-2.623-16.033-3.953-24.324-3.953c-8.341,0-16.567,1.344-24.45,3.994  c-3.876,1.304-5.994,5.471-4.762,9.369L236.503,241.104z M265.997,205.533l-7.751,24.524c-3.145-0.387-6.355-0.387-9.502,0  L241,205.556C249.192,203.856,257.792,203.847,265.997,205.533z"/>
<path d="M414.713,105.249c4.143,0,7.5-3.357,7.5-7.5V68.208h7.143c4.143,0,7.5-3.357,7.5-7.5s-3.357-7.5-7.5-7.5h-7.143  c0-4.919,0.276-8.135-1.391-12.676h8.533c4.143,0,7.5-3.357,7.5-7.5s-3.357-7.5-7.5-7.5c-10.736,0-39.508,0-49.047,0V19.5  c0-10.752-8.748-19.5-19.5-19.5h-42c-10.752,0-19.5,8.748-19.5,19.5v6.031c-8.016,0-206.491,0-216.662,0c-4.143,0-7.5,3.357-7.5,7.5  s3.357,7.5,7.5,7.5h3.523c-1.663,4.532-1.39,7.663-1.39,12.676h-2.133c-4.143,0-7.5,3.357-7.5,7.5s3.357,7.5,7.5,7.5h2.133v179.218  h-2.133c-4.143,0-7.5,3.357-7.5,7.5s3.357,7.5,7.5,7.5h2.133v12.678h-2.133c-4.143,0-7.5,3.357-7.5,7.5s3.357,7.5,7.5,7.5h2.133  v179.218h-2.133c-4.143,0-7.5,3.357-7.5,7.5s3.357,7.5,7.5,7.5h2.133c0,5.011-0.266,8.164,1.391,12.678h-3.524  c-4.143,0-7.5,3.357-7.5,7.5s3.357,7.5,7.5,7.5c3.25,0,342.005,0,346.71,0c4.143,0,7.5-3.357,7.5-7.5s-3.357-7.5-7.5-7.5h-8.534  c1.663-4.53,1.391-7.665,1.391-12.678h7.143c4.143,0,7.5-3.357,7.5-7.5s-3.357-7.5-7.5-7.5h-7.143V290.104h7.143  c4.143,0,7.5-3.357,7.5-7.5s-3.357-7.5-7.5-7.5h-7.143v-12.678h7.143c4.143,0,7.5-3.357,7.5-7.5c0-4.143-3.357-7.5-7.5-7.5h-7.143  V125.749c0-4.143-3.357-7.5-7.5-7.5c-4.142,0-7.5,3.357-7.5,7.5v121.677h-20.423c-4.255-28.27-17.358-54.353-37.948-74.945  c-2.93-2.928-7.678-2.928-10.607,0c-2.929,2.93-2.929,7.678,0,10.607c22.619,22.618,35.075,52.69,35.075,84.678  c0,31.986-12.456,62.059-35.075,84.678c-22.616,22.617-52.689,35.073-84.676,35.073c-66.191,0-119.751-53.559-119.751-119.751  c0-66.191,53.559-119.751,119.751-119.751c23.316,0,45.851,6.651,65.17,19.235c3.471,2.261,8.117,1.28,10.378-2.19  c2.261-3.471,1.28-8.117-2.19-10.378c-21.759-14.175-47.125-21.667-73.357-21.667c-68.488,0-123.626,50.588-133.232,114.411H99.778  V68.208h307.434v29.541C407.213,101.892,410.57,105.249,414.713,105.249z M407.213,489.145c0,4.331-3.523,7.855-7.853,7.855H107.632  c-4.33,0-7.854-3.524-7.854-7.855v-4.822h307.434L407.213,489.145L407.213,489.145z M407.213,262.426v12.678h-19.105  c0.13-2.435,0.201-4.881,0.201-7.338c0-1.786-0.044-3.565-0.113-5.34H407.213z M158.273,363.051  c77.289,77.283,210.334,34.727,228.196-72.947h20.744v179.218H99.778V290.104h20.867  C125.207,317.604,138.169,342.945,158.273,363.051z M118.919,262.426c-0.157,4.048-0.169,7.851,0.088,12.678H99.778v-12.678H118.919  z M314.308,19.5c0-2.482,2.019-4.5,4.5-4.5h42c2.481,0,4.5,2.018,4.5,4.5v6.031h-51V19.5z M99.778,53.207v-4.822  c0-4.33,3.523-7.854,7.854-7.854h199.176h66.001h26.551c4.33,0,7.853,3.523,7.853,7.854v4.822H99.778z"/>
<g>
</g>
<g>
</g>
<g>
</g>
<g>
</g>
<g>
</g>
<g>
</g>
<g>
</g>
<g>
</g>
<g>
</g>
<g>
</g>
<g>
</g>
<g>
</g>
<g>
</g>
<g>
</g>
<g>
</g>
</svg>
