<?xml version="1.0" encoding="iso-8859-1"?>
<!-- Generator: Adobe Illustrator 19.0.0, SVG Export Plug-In . SVG Version: 6.00 Build 0)  -->
<svg xmlns="http://www.w3.org/2000/svg" xmlns:xlink="http://www.w3.org/1999/xlink" version="1.1" id="Capa_1" x="0px" y="0px" viewBox="0 0 511.999 511.999" style="enable-background:new 0 0 511.999 511.999;" xml:space="preserve">
<path style="fill:#6F6F6F;" d="M262.573,113.38c-13.276,0-24.037,10.763-24.037,24.036h48.073  C286.608,124.141,275.847,113.38,262.573,113.38z"/>
<path style="fill:#565351;" d="M273.075,115.792c-15.856-7.717-34.539,3.819-34.539,21.623h21.005  C259.541,127.907,265.063,119.689,273.075,115.792z"/>
<path style="fill:#F79646;" d="M181.349,152.645h-38.773c-5.483,0-9.928,4.444-9.928,9.928v16.544h58.629v-16.544  C191.277,157.089,186.832,152.645,181.349,152.645z"/>
<path style="fill:#454545;" d="M294.817,136.415h-64.49c-9.119,0-16.514,7.393-16.514,16.513v26.189h97.517v-26.189  C311.331,143.808,303.938,136.415,294.817,136.415z"/>
<path style="fill:#FF6D24;" d="M168.081,152.645h-25.506c-5.483,0-9.928,4.444-9.928,9.928v16.544h25.506v-16.544  C158.153,157.089,162.598,152.645,168.081,152.645z"/>
<path style="fill:#2B2927;" d="M255.833,136.415h-25.506c-9.119,0-16.514,7.393-16.514,16.513v26.189h25.506v-26.189  C239.319,143.808,246.713,136.415,255.833,136.415z"/>
<polygon style="fill:#A5A5AA;" points="116.014,177.116 65.602,212.18 375.039,212.18 324.627,177.116 "/>
<polygon style="fill:#929293;" points="116.014,177.116 65.602,212.18 97.037,212.18 147.449,177.116 "/>
<path style="fill:#F79646;" d="M504.039,156.766c0-6.152-4.987-11.141-11.14-11.141h-23.334c-6.151,0-11.14,4.987-11.14,11.141  c0,6.152,4.987,11.141,11.14,11.141h23.334C499.052,167.906,504.039,162.919,504.039,156.766z"/>
<path style="fill:#FF6D24;" d="M492.899,156.766h-23.334c-4.121,0-7.71-2.244-9.637-5.57c-4.293,7.413,1.069,16.711,9.637,16.711  h23.334c6.151,0,11.14-4.987,11.14-11.141c0-2.031-0.552-3.931-1.502-5.57C500.609,154.522,497.02,156.766,492.899,156.766z"/>
<path style="fill:#7C7C7C;" d="M393.241,221.109c0-5.483-4.446-9.928-9.928-9.928H60.623c-5.481,0-9.928,4.444-9.928,9.928v16.543  h342.547V221.109z"/>
<path style="fill:#646668;" d="M87.056,211.18H60.623c-5.481,0-9.928,4.444-9.928,9.928v16.543h26.434v-16.543  C77.129,215.624,81.575,211.18,87.056,211.18z"/>
<path style="fill:#454545;" d="M393.241,235.651H50.694c-35.349,0-55.365,40.804-33.731,68.721  c0.091,0.122,55.548,74.327,55.648,74.442c8.525,10.76,25.433,19.83,43.402,19.83H327.92c18.985,0,36.726-9.376,47.476-25.087  c56.78-76.163,53.008-71.021,53.736-72.24c4.423-6.881,6.76-14.837,6.76-23.015C435.892,254.785,416.758,235.651,393.241,235.651z"/>
<path style="fill:#2D2C2B;" d="M97.617,378.813c-0.598-0.689-57.094-76.299-57.807-77.495c-18.228-28.356,2.31-65.668,35.89-65.668  H50.694c-35.753,0-54.362,41.051-34.844,67.232c0.5,0.664,0.514,0.715,1.113,1.488c0.091,0.122,55.548,74.327,55.648,74.442  c8.525,10.76,25.433,19.83,43.402,19.83h25.006C123.192,398.643,106.223,389.674,97.617,378.813z"/>
<circle style="fill:#7C7C7C;" cx="116.018" cy="341.141" r="38.886"/>
<path style="fill:#646668;" d="M113.898,302.312c-26.622,1.451-43.87,28.661-33.97,53.318c8.002,19.93,30.645,29.599,50.575,21.598  c4.061-1.631,7.687-3.877,10.834-6.576C104.336,372.67,85.789,326.43,113.898,302.312z"/>
<circle style="fill:#A5A5AA;" cx="116.018" cy="341.141" r="13.34"/>
<path style="fill:#929293;" d="M117.903,327.945c-10.179-1.465-18.084,8.666-14.269,18.165c3.823,9.522,16.543,11.334,22.869,3.254  C116.333,347.9,111.58,336.027,117.903,327.945z"/>
<circle style="fill:#7C7C7C;" cx="393.234" cy="278.306" r="24.036"/>
<path style="fill:#646668;" d="M393.052,254.268c-16.431,0.133-27.87,16.348-22.543,31.846  c5.319,15.479,24.296,21.272,37.357,11.264C384.906,297.56,374.775,268.279,393.052,254.268z"/>
<circle style="fill:#A5A5AA;" cx="393.244" cy="278.306" r="8.771"/>
<path style="fill:#929293;" d="M396.087,270.015c-6.892-2.374-13.51,4.246-11.142,11.139c2.369,6.892,11.658,8.044,15.635,1.935  C395.162,281.224,392.966,274.81,396.087,270.015z"/>
<path style="fill:#F79646;" d="M327.921,271.474c0,6.151-4.987,11.141-11.142,11.141H127.154c-6.151,0-11.14-4.988-11.14-11.141l0,0  c0-6.154,4.987-11.142,11.14-11.142h189.626C322.934,260.333,327.921,265.32,327.921,271.474L327.921,271.474z"/>
<path style="fill:#FF6D24;" d="M316.779,271.473H127.154c-4.121,0-7.71-2.244-9.636-5.57c-4.299,7.423,1.078,16.712,9.636,16.712  h189.626c8.561,0,13.937-9.29,9.638-16.712C324.491,269.229,320.901,271.473,316.779,271.473z"/>
<circle style="fill:#7C7C7C;" cx="327.909" cy="341.141" r="38.886"/>
<path style="fill:#646668;" d="M315.03,346.313c-6.372-15.869-1.53-33.451,10.765-44c-26.622,1.451-43.87,28.661-33.97,53.318  c9.875,24.596,41.119,32.427,61.409,15.022C337.056,371.534,321.401,362.181,315.03,346.313z"/>
<circle style="fill:#A5A5AA;" cx="327.909" cy="341.141" r="13.34"/>
<path style="fill:#929293;" d="M329.799,327.945c-10.179-1.465-18.084,8.666-14.269,18.165c3.823,9.522,16.543,11.334,22.87,3.254  C328.229,347.9,323.477,336.027,329.799,327.945z"/>
<circle style="fill:#7C7C7C;" cx="50.701" cy="278.306" r="24.036"/>
<path style="fill:#646668;" d="M50.514,254.268c-16.431,0.133-27.87,16.348-22.543,31.846c4.315,12.555,17.987,19.235,30.544,14.921  c2.524-0.867,4.805-2.118,6.814-3.657C42.367,297.56,32.237,268.279,50.514,254.268z"/>
<circle style="fill:#A5A5AA;" cx="50.702" cy="278.306" r="8.771"/>
<path style="fill:#929293;" d="M53.549,270.015c-6.892-2.374-13.51,4.245-11.142,11.139c1.574,4.58,6.566,7.018,11.147,5.443  c1.921-0.66,3.459-1.927,4.488-3.508C52.624,281.224,50.428,274.81,53.549,270.015z"/>
<path d="M115.473,295.741c-25.578,0-46.388,20.81-46.388,46.389c0,25.578,20.81,46.388,46.388,46.388s46.388-20.81,46.388-46.388  C161.861,316.551,141.052,295.741,115.473,295.741z M115.473,373.514c-17.306,0-31.385-14.078-31.385-31.385  s14.078-31.386,31.385-31.386s31.385,14.079,31.385,31.386C146.857,359.436,132.779,373.514,115.473,373.514z"/>
<path d="M81.692,279.291c0-17.39-14.148-31.537-31.539-31.537s-31.537,14.147-31.537,31.537c0,17.391,14.147,31.539,31.537,31.539  C67.543,310.829,81.692,296.681,81.692,279.291z M50.153,295.826c-9.116,0-16.533-7.418-16.533-16.535  c0-9.116,7.417-16.533,16.533-16.533c9.117,0,16.535,7.417,16.535,16.533C66.688,288.408,59.27,295.826,50.153,295.826z"/>
<path d="M327.38,321.287c-11.492,0-20.841,9.35-20.841,20.842c0,11.492,9.349,20.842,20.841,20.842  c11.492,0,20.841-9.35,20.841-20.842S338.871,321.287,327.38,321.287z M327.38,347.967c-3.219,0-5.837-2.619-5.837-5.838  c0-3.22,2.619-5.838,5.837-5.838c3.219,0,5.837,2.619,5.837,5.838C333.217,345.348,330.598,347.967,327.38,347.967z"/>
<path d="M115.473,321.287c-11.493,0-20.843,9.35-20.843,20.842c0,11.492,9.35,20.842,20.843,20.842  c11.492,0,20.841-9.35,20.841-20.842S126.965,321.287,115.473,321.287z M115.473,347.967c-3.22,0-5.839-2.619-5.839-5.838  c0-3.22,2.62-5.838,5.839-5.838c3.219,0,5.837,2.619,5.837,5.838C121.31,345.348,118.692,347.967,115.473,347.967z"/>
<circle cx="392.704" cy="279.297" r="8.771"/>
<circle cx="50.152" cy="279.297" r="8.771"/>
<path d="M327.38,295.741c-25.578,0-46.388,20.81-46.388,46.389c0,25.578,20.81,46.388,46.388,46.388  c25.578,0,46.388-20.81,46.388-46.388C373.768,316.551,352.958,295.741,327.38,295.741z M327.38,373.514  c-17.306,0-31.385-14.078-31.385-31.385s14.078-31.386,31.385-31.386s31.385,14.079,31.385,31.386  C358.764,359.436,344.686,373.514,327.38,373.514z"/>
<path d="M361.161,279.291c0,17.391,14.148,31.539,31.539,31.539c17.39,0,31.537-14.148,31.537-31.539  c0-17.39-14.147-31.537-31.537-31.537C375.309,247.753,361.161,261.9,361.161,279.291z M409.233,279.291  c0,9.117-7.417,16.535-16.533,16.535c-9.117,0-16.535-7.418-16.535-16.535c0-9.116,7.418-16.533,16.535-16.533  C401.816,262.757,409.233,270.173,409.233,279.291z"/>
<path d="M334.881,272.462c0-10.279-8.363-18.643-18.643-18.643H126.612c-10.278,0-18.641,8.363-18.641,18.643  c0,10.279,8.362,18.642,18.641,18.642h30.975c4.144,0,7.502-3.358,7.502-7.502c0-4.144-3.358-7.502-7.502-7.502h-30.975  c-2.005,0-3.638-1.632-3.638-3.639c0-2.007,1.632-3.64,3.638-3.64h189.626c2.007,0,3.64,1.632,3.64,3.64  c0,2.006-1.632,3.639-3.64,3.639H183.097c-4.144,0-7.502,3.358-7.502,7.502c0,4.144,3.358,7.502,7.502,7.502h133.141  C326.518,291.104,334.881,282.742,334.881,272.462z"/>
<path d="M493.358,138.112h-23.334c-7.61,0-14.159,4.589-17.052,11.141h-134.96c-1.686-10.97-10.652-20.351-25.352-20.351  c-3.376-13.779-15.824-24.036-30.628-24.036c-14.806,0-27.255,10.256-30.63,24.036c-16.479,0-25.632,11.882-25.632,24.015v16.687  h-7.533v-7.042c0-9.61-7.819-17.43-17.43-17.43h-38.772c-9.61,0-17.43,7.819-17.43,17.43v7.042c-9.698,0-10.982-0.348-13.414,1.343  l-48.482,33.721H60.08c-9.61,0-17.43,7.819-17.43,17.43v7.604C18.542,233.333,0,254.186,0,279.291  c0,10.486,3.305,21.367,10.45,30.609c59.879,80.114,55.931,75.019,57.867,76.926c12.242,12.907,29.421,20.307,47.156,20.307H327.38  c21.403,0,41.421-10.548,53.578-28.223c57.085-76.572,53.07-71.096,54.008-72.65c19.572-30.603,0.91-71.186-34.764-76.56v-7.604  c0-9.61-7.819-17.43-17.43-17.43h-5.921l-48.482-33.721c-2.371-1.648-3.971-1.343-10.077-1.343v-5.347h134.681  c2.894,6.552,9.442,11.141,17.052,11.141h23.334c10.278,0,18.641-8.362,18.641-18.642C512,146.474,503.638,138.112,493.358,138.112z   M276.762,128.901h-29.464C253.453,116.866,270.622,116.888,276.762,128.901z M139.608,162.561c0-1.338,1.088-2.427,2.427-2.427  h38.773c1.338,0,2.427,1.088,2.427,2.427v7.042h-43.625L139.608,162.561L139.608,162.561z M421.194,299.84  c-0.153,0.211-52.38,70.247-52.53,70.469c-9.35,13.664-24.784,21.821-41.285,21.821H115.473c-16.456,0-32.631-8.304-42.12-23.1  c-0.046-0.072-51.858-69.369-52.78-70.78c-15.014-23.358,1.901-54.11,29.579-54.11h342.547  C421.635,244.141,437.856,277.304,421.194,299.84z M350.575,204.667h-31.777c-4.144,0-7.502,3.358-7.502,7.502  s3.358,7.502,7.502,7.502c3.265,0,57.399,0.001,55.693,0.001c12.329,0,10.707-1.42,10.707,9.466H57.655v-7.041  c0-1.338,1.088-2.427,2.427-2.427h231.713c4.144,0,7.502-3.358,7.502-7.502s-3.358-7.502-7.502-7.502H88.983l28.841-20.061  c14.404,0,196.691,0,203.908,0L350.575,204.667z M220.774,169.603v-16.687c0-4.969,4.043-9.011,9.012-9.011  c6.817,0,57.737,0,64.491,0c4.969,0,9.012,4.042,9.012,9.011v16.687H220.774z M493.358,160.393h-23.334  c-2.005,0-3.638-1.632-3.638-3.639s1.632-3.639,3.638-3.639h23.334C498.166,153.115,498.167,160.393,493.358,160.393z"/>
<g>
</g>
<g>
</g>
<g>
</g>
<g>
</g>
<g>
</g>
<g>
</g>
<g>
</g>
<g>
</g>
<g>
</g>
<g>
</g>
<g>
</g>
<g>
</g>
<g>
</g>
<g>
</g>
<g>
</g>
</svg>
