<?xml version="1.0" encoding="iso-8859-1"?>
<!-- Generator: Adobe Illustrator 19.0.0, SVG Export Plug-In . SVG Version: 6.00 Build 0)  -->
<svg xmlns="http://www.w3.org/2000/svg" xmlns:xlink="http://www.w3.org/1999/xlink" version="1.1" id="Capa_1" x="0px" y="0px" viewBox="0 0 512.001 512.001" style="enable-background:new 0 0 512.001 512.001;" xml:space="preserve">
<path style="fill:#939292;" d="M254.8,8.02c-12.009,0-21.059,11.034-18.602,22.877h37.203C275.86,19.07,266.821,8.02,254.8,8.02z"/>
<path style="fill:#6F6F6F;" d="M264.301,10.583c-14.208-8.23-31.428,4.289-28.102,20.314h19  C253.503,22.729,257.295,14.641,264.301,10.583z"/>
<path style="fill:#F9BE62;" d="M293.542,312.036c-11.75,5.206-24.751,8.104-38.43,8.104c-0.003,0-0.005,0-0.008,0  c-0.002,0-0.005,0-0.008,0c-13.679,0-26.68-2.898-38.43-8.104l-0.048,13.978l0.05,14.254c0.016-0.003,0.031-0.006,0.049-0.009  c0.001,0.015,0.003,0.028,0.004,0.043c0.006-0.001,0.012-0.002,0.017-0.003c1.671,19.732,18.204,35.227,38.365,35.233  c20.162-0.006,36.694-15.501,38.365-35.233c0.005,0.001,0.011,0.002,0.017,0.003c0.001-0.015,0.003-0.028,0.004-0.043  c0.018,0.003,0.033,0.006,0.049,0.009C293.601,323.161,293.602,329.2,293.542,312.036z"/>
<path style="fill:#FFAA4D;" d="M242.312,319.284c-9.01-1.215-17.62-3.692-25.645-7.248l-0.048,13.978l0.05,14.254  c0.016-0.003,0.031-0.006,0.049-0.009c0.001,0.015,0.003,0.028,0.004,0.043c0.006-0.001,0.012-0.002,0.017-0.003  c1.299,15.342,11.585,28.118,25.573,33.049L242.312,319.284L242.312,319.284z"/>
<path style="fill:#6F6F6F;" d="M161.133,167.107h-28.475v47.881c0,8.98,7.279,16.261,16.262,16.261h12.35  c-0.09-1.679-0.137-3.368-0.137-5.069V167.107z"/>
<path style="fill:#565553;" d="M146.964,214.988v-47.881h-14.306v47.881c0,8.98,7.279,16.261,16.262,16.261h12.35  c-0.002-0.043-0.003-0.087-0.005-0.13C153.209,230.149,146.964,223.302,146.964,214.988z"/>
<path style="fill:#898888;" d="M348.92,231.249h12.35c8.982,0,16.262-7.281,16.262-16.261v-47.881h-28.475  C349.057,231.331,349.108,227.652,348.92,231.249z"/>
<path style="fill:#6F6F6F;" d="M363.362,167.107h-14.306c0,64.224,0.052,60.545-0.137,64.142h12.35c0.665,0,1.317-0.052,1.961-0.13  C363.412,227.574,363.362,231.404,363.362,167.107z"/>
<path style="fill:#1B8E5A;" d="M255.095,129.002c58.569,0,107.98,11.76,123.437,27.837V86.301c0-31.154-25.252-56.403-56.401-56.403  H188.063c-31.152,0-56.403,25.25-56.403,56.403v70.537C147.117,140.76,196.527,129.002,255.095,129.002z"/>
<path style="fill:#31A372;" d="M322.129,29.897H254.8v99.107c0.1,0,0.195-0.002,0.295-0.002c58.569,0,107.98,11.76,123.437,27.837  V86.301C378.531,55.146,353.279,29.897,322.129,29.897z"/>
<path style="fill:#2A7752;" d="M156.658,86.301c0-31.154,25.252-56.403,56.403-56.403h-25c-31.152,0-56.403,25.25-56.403,56.403  v70.537c5.024-5.226,13.654-9.989,25-14.048L156.658,86.301L156.658,86.301z"/>
<g>
	<path style="fill:#31A372;" d="M214.455,400.398c16.655,0,66.435,0,83.087,0l15.625-57.758c-6.686-1.79-13.262-3.225-19.697-4.341   c-1.672,19.734-18.209,35.233-38.375,35.233c-20.18,0-36.725-15.52-38.377-35.272c-6.49,1.101-12.523,2.408-18.043,3.804   L214.455,400.398z"/>
	<path style="fill:#31A372;" d="M349.428,355.692c-0.428-0.195-0.853-0.38-1.281-0.571v113.236h70.392v-38.385   C418.538,382.412,390.159,374.022,349.428,355.692z"/>
	<path style="fill:#31A372;" d="M163.85,354.17c-41.217,19.338-72.198,26.239-72.198,75.802v38.385h72.198V354.17z"/>
</g>
<path style="fill:#1B8E5A;" d="M116.652,427.98c0-27.794,6.579-46.509,18.254-60.665c-48.832,23.331-43.253,45.051-43.253,101.042  h25V427.98z"/>
<path style="fill:#ACB746;" d="M118.122,468.357H91.903c-6.626,0-12,5.373-12,12v11.664c0,6.627,5.374,12,12,12  c16.733,0,57.778,0,71.947,0c0-4.054,0-31.604,0-35.664C153.046,468.357,129.125,468.357,118.122,468.357z"/>
<path style="fill:#FFD589;" d="M160.133,168.107v59.072c0,52.439,42.515,94.961,94.964,94.961c52.444,0,94.96-42.522,94.96-94.961  v-59.072L160.133,168.107L160.133,168.107z"/>
<path style="fill:#FCB36B;" d="M184.846,227.179v-59.072h-24.713v59.072c0,57.139,50.197,101.581,107.32,94.161  C220.843,315.284,184.846,275.431,184.846,227.179z"/>
<g>
	<path style="fill:#ACB746;" d="M383.478,164.209c-2.351-20.516-59.943-37.207-128.382-37.207s-126.032,16.691-128.383,37.207   c-0.114,0.991,0.201,1.983,0.865,2.729c0.664,0.744,1.614,1.17,2.612,1.17h249.811c0.998,0,1.948-0.426,2.612-1.17   C383.277,166.192,383.592,165.2,383.478,164.209z"/>
	<path style="fill:#ACB746;" d="M420.093,468.357h-7.307c-6.502,0-56.581,0-64.64,0c0,4.054,0,31.604,0,35.664   c10.079,0,64.741,0,71.946,0c6.627,0,12-5.373,12-12v-11.664C432.093,473.729,426.72,468.357,420.093,468.357z"/>
</g>
<g>
	<path style="fill:#8C9B34;" d="M91.903,486.188c-5.558,0-10.222-3.786-11.585-8.916c-0.262,0.986-0.415,2.016-0.415,3.084v11.664   c0,6.627,5.374,12,12,12c5.987,0,53.932,0,59.947,0h12c0-15.203,0-11.319,0-17.832C149.687,486.188,108.642,486.188,91.903,486.188   z"/>
	<path style="fill:#8C9B34;" d="M420.093,486.188c-7.124,0-65.038,0-71.946,0c0,6.513,0,2.626,0,17.832c10.079,0,64.741,0,71.946,0   c6.627,0,12-5.373,12-12v-11.664c0-1.068-0.153-2.098-0.415-3.084C430.315,482.402,425.652,486.188,420.093,486.188z"/>
</g>
<path style="fill:#5B5A59;" d="M170.764,228.025h53.948c6.725,0,12.173-5.373,12.173-12v-8.625c0,0,15.02-14.5,35.478,0v8.625  c0,6.627,5.45,12,12.172,12h53.95c5.405,0,9.981-3.477,11.57-8.281v-51.637c-6.944,0-181.036,0-189.924,0v53.756  C162.214,225.537,166.191,228.025,170.764,228.025z"/>
<path style="fill:#454545;" d="M170.764,228.025h14.101c-0.024-2.854-0.02,12.054-0.02-59.918c-13.826,0-10.837,0-24.713,0v53.756  C162.214,225.537,166.191,228.025,170.764,228.025z"/>
<path style="fill:#5B5A59;" d="M345.528,343.874c-8.117-3.509-16.48-6.579-24.856-9.124c-3.237-0.983-6.651,0.905-7.536,4.175  l-16.36,60.474h-81.555l-16.36-60.474c-0.424-1.567-1.465-2.896-2.885-3.683s-3.099-0.963-4.651-0.492  c-8.376,2.545-16.739,5.615-24.856,9.124c-2.197,0.95-3.619,3.114-3.619,5.508v154.639h186.297v-154.64  C349.147,346.988,347.724,344.824,345.528,343.874z"/>
<path style="fill:#454545;" d="M187.85,339.276c0-1.373,0.409-2.679,1.133-3.777c-7.59,2.396-15.154,5.193-22.514,8.375  c-2.197,0.95-3.619,3.114-3.619,5.508v154.639h25L187.85,339.276L187.85,339.276z"/>
<path style="fill:#8B8B8C;" d="M308.459,504.02v-54.796c0-6.628-5.373-12-12-12h-82.665c-6.627,0-12,5.372-12,12v54.796H308.459z"/>
<path style="fill:#6F6F6F;" d="M238.292,437.224h-24.498c-6.627,0-12,5.372-12,12v54.796h24.498v-54.796  C226.292,442.596,231.665,437.224,238.292,437.224z"/>
<path d="M255.095,256.505c4.143,0,7.5-3.357,7.5-7.5v-20.5c0-4.143-3.357-7.5-7.5-7.5s-7.5,3.357-7.5,7.5v20.5  C247.595,253.147,250.952,256.505,255.095,256.505z"/>
<path d="M276.307,278.716c3.496-2.221,4.561-6.873,2.34-10.37c-2.22-3.496-6.826-4.551-10.323-2.329  c-0.507,0.308-12.609,7.483-27.549-0.286c-3.672-1.909-8.202-0.482-10.114,3.192c-1.912,3.674-0.482,8.203,3.192,10.114  C249.431,287.143,266.378,285.004,276.307,278.716z"/>
<path d="M426.038,462.271v-31.819c0-51.374-31.486-62.399-70.392-79.717c0-4.074,0.586-8.724-4.428-10.976  c-10.99-4.935-22.353-9.052-33.772-12.238c-1.926-0.538-3.986-0.285-5.725,0.705c-2.96,1.684-3.469,4.331-3.879,5.845  c-2.24-0.523-4.484-1.017-6.73-1.472l-0.054-13.385c29.914-15.08,51.473-44.391,55.724-78.985h5.485  c13.103,0,23.762-10.659,23.762-23.761v-40.928c6.229-2.504,7.298-13.74,0-22.973V86.78c0-35.237-28.666-63.903-63.901-63.903  h-41.083C279.273,9.974,268.183,0,254.8,0c-13.383,0-24.473,9.974-26.246,22.877h-40.492c-35.237,0-63.903,28.667-63.903,63.903  v65.788c-6.377,8.066-7.064,20.133,0,22.973v40.928c0,13.102,10.659,23.761,23.762,23.761h5.485  c4.249,34.578,25.791,63.878,55.684,78.964l0.055,13.323c-1.712,0.338-3.419,0.695-5.123,1.07c-1.457-5.388-5.774-7.099-9.472-6.065  c-11.419,3.187-22.781,7.304-33.771,12.238c-5.009,2.25-4.428,7.087-4.428,10.169c-39.749,17.796-72.198,28.367-72.198,80.525  v32.501c-6.904,3.005-11.748,9.887-11.748,17.884v11.664c0,10.752,8.748,19.5,19.5,19.5c8.983,0,319.687,0,328.189,0  c10.752,0,19.5-8.748,19.5-19.5v-11.664C439.593,472.157,433.89,464.792,426.038,462.271z M341.969,180.587v35.919  c0,2.482-2.019,4.5-4.5,4.5h-53.183c-2.482,0-4.5-2.018-4.5-4.5v-8.625c0-2.414-1.162-4.68-3.122-6.089  c-23.322-16.771-46.85-2.558-46.85,6.089v8.625c0,2.482-2.019,4.5-4.5,4.5h-53.181c-2.481,0-4.5-2.018-4.5-4.5v-35.919  c0-2.481,2.019-4.5,4.5-4.5h165.336C339.95,176.087,341.969,178.105,341.969,180.587z M294.549,136.868  c40.185,3.974,70.146,14.036,79.129,24.219c-7.205,0-226.035,0-237.165,0C159.582,134.947,257.451,133.213,294.549,136.868z   M371.031,216.468c0,4.831-3.931,8.761-8.762,8.761h-4.713v-49.142h13.475V216.468z M371.031,86.78v53.989  c-28.295-15.386-76.382-20.184-108.731-20.729V37.877c7.467,0,53.806,0,59.829,0C349.094,37.877,371.031,59.814,371.031,86.78z   M265.715,22.877c-7.899,0-13.914,0-21.83,0C247.367,12.408,262.231,12.405,265.715,22.877z M188.062,37.877  c5.948,0,51.809,0,59.237,0v82.178c-32.18,0.55-79.995,5.41-108.142,20.715V86.78C139.158,59.814,161.097,37.877,188.062,37.877z   M139.158,216.468v-40.382h13.475c0,16.646,0,30.46,0,49.142h-4.713C143.089,225.229,139.158,221.299,139.158,216.468z   M167.993,235.553c2.869,0.623-0.578,0.452,57.321,0.452c10.752,0,19.5-8.748,19.5-19.5v-4.865c5.815-3.49,12.588-3.83,19.973,0.328  v4.537c0,10.752,8.748,19.5,19.5,19.5c57.753,0,54.595,0.23,57.924-0.607c-3.986,45.245-42.603,80.85-89.376,79.694  C208.293,313.955,171.93,279.355,167.993,235.553z M286.086,325.349l0.047,11.873c-0.005,0.022-0.005,0.045-0.01,0.067  c-0.057,0.282-0.102,0.567-0.127,0.857c-1.347,15.905-14.921,28.365-30.901,28.365c-15.997,0-29.571-12.474-30.903-28.397  c-0.041-0.519-0.075-12.24-0.077-12.763C244.554,331.845,266.579,331.549,286.086,325.349z M210.68,347.495  c8.179,30.019,43.563,43.691,69.689,26.347c9.57-6.337,16.274-15.891,19.124-26.275c1.48,0.311,2.96,0.636,4.437,0.978  l-12.128,44.833h-71.606l-12.256-45.307C208.852,347.874,209.766,347.682,210.68,347.495z M99.151,430.452  c0-39.733,20.492-47.87,57.198-64.109v94.994H99.151V430.452z M87.403,492.5v-11.664c0-2.481,2.019-4.5,4.5-4.5h64.446V497H91.903  C89.422,497,87.403,494.981,87.403,492.5z M209.295,497v-47.296c0-2.481,2.019-4.5,4.5-4.5h9.425c4.143,0,7.5-3.357,7.5-7.5  c0-4.143-3.357-7.5-7.5-7.5h-9.425c-10.752,0-19.5,8.748-19.5,19.5V497H171.35v-28.164c0-5.894,0-111.704,0-117.326  c6.565-2.782,13.252-5.253,19.983-7.384l15.882,58.709c0.885,3.27,3.853,5.542,7.24,5.542h83.087c3.388,0,6.355-2.271,7.24-5.542  c1.825-6.745,13.741-50.795,15.882-58.709c6.731,2.131,13.418,4.602,19.983,7.384c0,6.942,0,62.547,0,69.868  c0,4.143,3.357,7.5,7.5,7.5c4.143,0,7.5-3.357,7.5-7.5v-54.237c0.09,0.04,0.184,0.081,0.274,0.121  c35.541,15.681,55.117,24.318,55.117,63.189v30.885h-55.392v-14.955c0-4.143-3.357-7.5-7.5-7.5c-4.143,0-7.5,3.357-7.5,7.5  c0,9.605,0,40.032,0,50.618h-24.688v-47.296c0-10.752-8.748-19.5-19.5-19.5h-47.906c-4.143,0-7.5,3.357-7.5,7.5  c0,4.143,3.357,7.5,7.5,7.5h47.906c2.482,0,4.5,2.019,4.5,4.5V497L209.295,497L209.295,497z M424.593,492.5  c0,2.481-2.019,4.5-4.5,4.5h-64.446v-20.664c3.091,0,61.471,0,64.446,0c2.481,0,4.5,2.019,4.5,4.5V492.5z"/>
<path d="M281.468,463.952h-53.333c-4.143,0-7.5,3.357-7.5,7.5c0,4.143,3.357,7.5,7.5,7.5h53.333c4.143,0,7.5-3.357,7.5-7.5  C288.968,467.31,285.61,463.952,281.468,463.952z"/>
<g>
</g>
<g>
</g>
<g>
</g>
<g>
</g>
<g>
</g>
<g>
</g>
<g>
</g>
<g>
</g>
<g>
</g>
<g>
</g>
<g>
</g>
<g>
</g>
<g>
</g>
<g>
</g>
<g>
</g>
</svg>
