<?xml version="1.0" encoding="iso-8859-1"?>
<!-- Generator: Adobe Illustrator 19.0.0, SVG Export Plug-In . SVG Version: 6.00 Build 0)  -->
<svg xmlns="http://www.w3.org/2000/svg" xmlns:xlink="http://www.w3.org/1999/xlink" version="1.1" id="Capa_1" x="0px" y="0px" viewBox="0 0 512 512" style="enable-background:new 0 0 512 512;" xml:space="preserve">
<circle style="fill:#FF4D56;" cx="255.994" cy="256.674" r="89.422"/>
<path style="fill:#D12451;" d="M198.114,274.7c-13.224-42.473,6.826-87.355,45.397-106.575  c-54.852,7.802-89.21,62.726-72.893,115.136c14.681,47.154,64.809,73.481,111.964,58.8c4.681-1.457,9.153-3.269,13.403-5.388  C253.32,342.741,211.337,317.174,198.114,274.7z"/>
<path style="fill:#FFD05C;" d="M255.997,288.019l-26.33,13.842c-2.444,1.288-5.308-0.798-4.843-3.516l5.029-29.322l-21.303-20.766  c-1.972-1.919-0.89-5.292,1.849-5.691l29.44-4.278l13.166-26.676c1.219-2.474,4.765-2.477,5.985,0l13.165,26.676l29.44,4.278  c2.73,0.398,3.828,3.765,1.849,5.691l-21.303,20.766l5.031,29.322c0.215,1.252-0.303,2.517-1.33,3.263  C283.575,303.261,283.701,302.581,255.997,288.019z"/>
<path style="fill:#DDDCDB;" d="M289.429,360.731c-57.749,18.435-119.729-13.552-138.162-71.302  c-18.434-57.751,13.552-119.731,71.3-138.164c57.751-18.434,119.733,13.551,138.166,71.302  C379.166,280.317,347.179,342.297,289.429,360.731z M230.07,174.139c-45.104,14.398-70.088,62.807-55.69,107.911  c14.398,45.105,62.808,70.088,107.912,55.69c45.105-14.398,70.088-62.807,55.69-107.912  C323.585,184.724,275.175,159.741,230.07,174.139z"/>
<path style="fill:#C2C2C2;" d="M172.955,277.007c-14.03-52.349,12.492-107.012,61.397-128.795  c-64.479,12.995-102.891,79.172-83.085,141.218c19.81,62.062,89.477,93.725,149.537,66.961  C242.691,368.107,186.652,330.975,172.955,277.007z"/>
<path style="fill:#FFD05C;" d="M497.969,171.803c-141.909,0-133.546-0.823-134.933,1.917c-0.595,1.175-0.477,2.586,0.303,3.647  c7.183,9.772,12.99,20.478,17.261,31.822c0.512,1.361,1.815,2.263,3.27,2.263c104.314,0,99.093,0.815,100.484-1.901l16.727-32.66  C502.267,174.571,500.581,171.803,497.969,171.803z"/>
<path style="fill:#FFA645;" d="M372.462,191.629c8.912,16.076,7.284,19.824,11.408,19.824c104.314,0,99.093,0.815,100.484-1.901  l9.179-17.923L372.462,191.629L372.462,191.629z"/>
<path style="fill:#FFD05C;" d="M391.458,234.858c-1.005,0-1.962,0.433-2.625,1.187c-0.663,0.756-0.97,1.76-0.84,2.757  c0.74,5.703,1.115,11.489,1.115,17.196c0,14.213-1.839,15.223,0.063,17.346c0.663,0.74,1.61,1.163,2.603,1.163h57.172  c1.312,0,2.512-0.734,3.11-1.901c17.935-35.013,17.988-33.808,16.601-36.076C467.197,234.142,471.433,234.858,391.458,234.858z"/>
<path style="fill:#FFA645;" d="M389.086,254.682c0.152,15.445-1.882,16.467,0.084,18.661c0.663,0.74,1.61,1.163,2.603,1.163h57.172  c1.312,0,2.512-0.734,3.11-1.901l9.181-17.923H389.086z"/>
<path style="fill:#FFD05C;" d="M384.835,297.911c-5.603,0-2.43,9.508-19.667,34.152c-0.747,1.067-0.838,2.462-0.236,3.617  c0.602,1.155,1.796,1.88,3.099,1.88h48.619c1.311,0,2.513-0.734,3.11-1.901c17.934-35.018,17.984-33.809,16.597-36.076  C434.951,297.28,437.153,297.911,384.835,297.911z"/>
<path style="fill:#FFA645;" d="M373.881,317.736c-7.592,14.442-10.602,14.772-8.948,17.945c0.602,1.155,1.796,1.88,3.099,1.88  h48.619c1.311,0,2.513-0.734,3.11-1.901l9.179-17.923h-55.059V317.736z"/>
<path style="fill:#FFD05C;" d="M145.844,171.803c-142.202,0-133.336-0.717-134.797,1.672c-0.635,1.038-0.684,2.332-0.129,3.416  l16.728,32.66c1.391,2.716-3.814,1.901,100.482,1.901c1.455,0,2.758-0.902,3.27-2.263c4.272-11.344,10.08-22.051,17.262-31.822  C150.357,175.059,148.696,171.803,145.844,171.803z"/>
<path style="fill:#FFA645;" d="M18.466,191.629l9.18,17.923c1.391,2.716-3.814,1.901,100.482,1.901  c4.126,0,2.498-3.752,11.409-19.824L18.466,191.629L18.466,191.629z"/>
<path style="fill:#FFD05C;" d="M122.827,273.343c1.895-2.115,0.061-3.209,0.061-17.346c0-16.323,2.316-17.628,0.275-19.952  c-1.49-1.694,2.864-1.187-76.84-1.187c-1.217,0-2.346,0.634-2.981,1.672c-1.381,2.258-1.362,1.007,16.599,36.076  c0.598,1.167,1.799,1.901,3.11,1.901C125.229,274.508,121.375,274.967,122.827,273.343z"/>
<path style="fill:#FFA645;" d="M50.761,254.682l9.18,17.923c0.598,1.167,1.799,1.901,3.11,1.901c62.177,0,58.323,0.46,59.777-1.163  c1.96-2.188-0.072-3.307,0.083-18.661L50.761,254.682L50.761,254.682z"/>
<path style="fill:#FFD05C;" d="M127.162,297.911c-52.304,0-50.115-0.632-51.524,1.672c-1.381,2.259-1.362,1.007,16.599,36.076  c0.598,1.167,1.799,1.901,3.11,1.901h48.617c2.824,0,4.479-3.186,2.864-5.497C129.542,307.348,132.793,297.911,127.162,297.911z"/>
<path style="fill:#FFA645;" d="M92.237,335.66c0.598,1.167,1.799,1.901,3.11,1.901h48.617c2.824,0,4.479-3.186,2.864-5.497  c-3.213-4.594-6.114-9.383-8.713-14.328H83.057L92.237,335.66z"/>
<path d="M228.115,309.736c3.56,0,3.315-0.337,27.884-13.254l22.837,12.004c7.908,4.176,17.24-2.531,15.72-11.405l-4.365-25.441  l18.479-18.013c6.373-6.203,2.937-17.165-5.994-18.468l-25.545-3.713l-11.421-23.14c-3.961-8.042-15.452-8.052-19.417-0.005  l-11.422,23.145l-25.549,3.714c-8.885,1.295-12.407,12.222-5.995,18.463l18.484,18.017l-4.364,25.443  C216.296,303.8,221.499,309.736,228.115,309.736z M219.803,248.769l21.116-3.068c2.438-0.353,4.547-1.886,5.637-4.097l9.442-19.132  l9.442,19.132c1.091,2.211,3.199,3.742,5.638,4.097l21.115,3.068l-15.28,14.895c-1.765,1.72-2.57,4.198-2.153,6.629l3.607,21.03  c-19.398-10.197-21.338-12.303-25.857-9.929l-18.885,9.928l3.606-21.03c0.417-2.429-0.388-4.907-2.153-6.628L219.803,248.769z"/>
<path d="M305.445,335.282c27.615-17.213,44.103-46.852,44.103-79.28c0-51.476-41.879-93.356-93.356-93.356  s-93.356,41.879-93.356,93.356c0,61.26,58.531,106.423,118.105,90.025c3.988-1.098,6.33-5.22,5.233-9.208s-5.217-6.332-9.208-5.233  c-49.985,13.763-99.155-24.13-99.155-75.584c0-43.218,35.161-78.379,78.379-78.379s78.379,35.161,78.379,78.379  c0,27.225-13.85,52.11-37.047,66.57c-3.511,2.188-4.582,6.806-2.394,10.316C297.317,336.397,301.938,337.468,305.445,335.282z"/>
<path d="M326.372,162.047c-3.306-2.48-8.002-1.814-10.485,1.493c-2.482,3.308-1.814,8.002,1.493,10.485  c26.102,19.596,41.072,49.475,41.072,81.976c0,56.492-45.96,102.451-102.453,102.451c-56.491,0-102.449-45.959-102.449-102.451  c0-73.762,76.08-123.506,143.535-93.849c3.788,1.664,8.205-0.057,9.87-3.842c1.664-3.786-0.056-8.205-3.842-9.87  c-14.895-6.548-30.746-9.868-47.113-9.868c-64.749,0-117.425,52.679-117.425,117.427S191.253,373.427,256,373.427  c64.752,0,117.429-52.678,117.429-117.427C373.429,218.744,356.277,184.5,326.372,162.047z"/>
<path d="M504.504,163.82H357.963c-6.336,0-9.805,7.412-5.757,12.278c9.533,11.457,16.87,24.36,21.81,38.352  c1.057,2.993,3.887,4.995,7.061,4.995h102.609c2.81,0,5.385-1.574,6.666-4.075l20.818-40.648  C513.72,169.74,510.088,163.82,504.504,163.82z M479.108,204.468h-92.84c-3.573-9.017-8.058-17.602-13.409-25.671h119.396  L479.108,204.468z"/>
<path d="M472.21,226.873h-85.374c-4.62,0-8.138,4.149-7.389,8.706c2.072,12.579,2.245,25.47,0.383,38.361  c-0.654,4.524,2.866,8.559,7.412,8.559h64.147c2.81,0,5.384-1.574,6.665-4.075l20.821-40.648  C481.427,232.793,477.795,226.873,472.21,226.873z M446.81,267.521h-51.189c0.706-8.559,0.629-17.08-0.241-25.671h64.579  L446.81,267.521z"/>
<path d="M439.912,289.927H381.98c-3.232,0-6.1,2.074-7.112,5.144c-4.577,13.889-11.527,26.793-20.657,38.351  c-3.873,4.904-0.364,12.129,5.877,12.129h59.007c2.81,0,5.385-1.574,6.666-4.075l20.818-40.648  C449.129,295.847,445.496,289.927,439.912,289.927z M414.517,330.575h-39.962c5.12-8.106,9.379-16.689,12.731-25.671h40.378  L414.517,330.575z"/>
<path d="M137.985,214.449c4.941-13.993,12.28-26.896,21.812-38.352c1.857-2.233,2.257-5.339,1.023-7.968  c-1.233-2.63-3.876-4.309-6.781-4.309H7.497c-5.587,0-9.216,5.921-6.666,10.902l20.82,40.648c1.281,2.501,3.855,4.075,6.666,4.075  h102.607C134.098,219.445,136.928,217.443,137.985,214.449z M32.894,204.468l-13.149-25.671h119.398  c-5.35,8.07-9.837,16.653-13.411,25.671H32.894z"/>
<path d="M124.78,282.498c4.137,0,7.488-3.353,7.488-7.488c0-0.553-0.059-1.092-0.174-1.612c-1.761-12.588-1.609-25.271,0.458-37.82  c0.75-4.559-2.771-8.706-7.389-8.706H39.793c-5.588,0-9.216,5.921-6.666,10.902l20.82,40.648c1.281,2.501,3.855,4.075,6.666,4.075  h64.149H124.78z M116.379,267.521h-51.19L52.041,241.85h64.578C115.751,250.427,115.67,258.951,116.379,267.521z"/>
<path d="M137.132,295.072c-1.012-3.07-3.88-5.144-7.112-5.144H72.089c-5.587,0-9.216,5.921-6.666,10.902l20.82,40.648  c1.281,2.501,3.855,4.075,6.666,4.075c0.712,0,59.602,0,59.024,0c6.487,0,9.877-7.701,5.572-12.492  C148.515,321.595,141.661,308.815,137.132,295.072z M97.486,330.575l-13.149-25.671h40.378c3.353,8.982,7.611,17.565,12.731,25.671  H97.486z"/>
<g>
</g>
<g>
</g>
<g>
</g>
<g>
</g>
<g>
</g>
<g>
</g>
<g>
</g>
<g>
</g>
<g>
</g>
<g>
</g>
<g>
</g>
<g>
</g>
<g>
</g>
<g>
</g>
<g>
</g>
</svg>
