<?xml version="1.0" encoding="iso-8859-1"?>
<!-- Generator: Adobe Illustrator 19.0.0, SVG Export Plug-In . SVG Version: 6.00 Build 0)  -->
<svg xmlns="http://www.w3.org/2000/svg" xmlns:xlink="http://www.w3.org/1999/xlink" version="1.1" id="Capa_1" x="0px" y="0px" viewBox="0 0 512 512" style="enable-background:new 0 0 512 512;" xml:space="preserve">
<path style="fill:#C2C2C2;" d="M228.569,337.569c-2.568-2.5-5.025-4.981-7.385-7.439c-14.874,16.996-16.274,19.941-25.608,24.075  l-0.372,0.415h-0.601c-10.309,4.264-17.338,3.499-38.209,3.499c6.534,7.698,13.933,15.793,22.263,24.029  c49.928,49.379,112.084,83.324,180.698,98.903c-4.327-4.263-6.298-10.578-4.597-16.791l10.261-37.481  c1.229-4.489,4.151-8.087,7.912-10.345C317.811,403.708,269.311,377.227,228.569,337.569z"/>
<path style="fill:#9B9FA3;" d="M354.759,464.262l4.848-17.709c-60.875-17.186-116.025-49.153-161.196-93.736  c-0.876,0.472-1.817,0.939-2.834,1.39l-0.372,0.415h-0.601c-10.309,4.264-17.338,3.499-38.209,3.499  c6.534,7.698,13.933,15.793,22.263,24.029c49.928,49.379,112.084,83.324,180.698,98.903  C355.029,476.79,353.058,470.475,354.759,464.262z"/>
<path style="fill:#6F6F6F;" d="M446.633,489.041c-2.486,9.315-12.055,14.851-21.37,12.361l-59.034-15.77  c-9.315-2.488-14.85-12.058-12.361-21.372l10.012-37.481c2.488-9.315,12.057-14.85,21.374-12.361l59.03,15.77  c9.319,2.488,14.851,12.057,12.363,21.372L446.633,489.041z"/>
<path style="fill:#514F4C;" d="M436.766,466.974l-63.272-16.901c-6.115-1.634-10.696-6.119-12.727-11.64l-6.899,25.829  c-2.488,9.314,3.047,18.884,12.361,21.372l59.034,15.77c9.315,2.489,18.884-3.047,21.37-12.361l6.876-25.736  C449.004,467.024,442.84,468.597,436.766,466.974z"/>
<path style="fill:#31A372;" d="M492.523,190.15c-6.63-6.273-13.756-12.965-20.556-19.248  C436.177,76.486,350.528,9.997,250.544,9.997c-129.406,0-234.808,111.371-239.154,250.529v4.677c0,7.286,5.907,13.193,13.193,13.193  h243.431l42.454-41.154l0,0c11.29-11.29,32.032-20.55,56.434-20.55c9.224,0,96.694,0,106.097,0  C519.492,216.694,493.4,191.002,492.523,190.15z"/>
<path style="fill:#1B8E5A;" d="M95.249,265.203v-4.677c3.866-123.774,87.68-225.56,197.222-246.553  c-13.614-2.609-27.623-3.976-41.928-3.976c-129.406,0-234.808,111.371-239.154,250.529v4.677c0,7.286,5.907,13.193,13.193,13.193  h83.859C101.156,278.396,95.249,272.489,95.249,265.203z"/>
<path style="fill:#605E15;" d="M25.696,277.396v68.03c0,7.287,5.905,13.193,13.193,13.193h137.743  c20.067,0,29.945-10.735,30.642-11.522l61.771-69.701C266.921,277.396,27.709,277.396,25.696,277.396z"/>
<path style="fill:#4F4D2C;" d="M103.356,345.428v-68.03h-77.66v68.031c0,7.287,5.905,13.193,13.193,13.193h77.66  C109.262,358.621,103.356,352.715,103.356,345.428z"/>
<circle style="fill:#C2C2C2;" cx="170.104" cy="318.391" r="17.037"/>
<path style="fill:#9E9E9E;" d="M171.205,301.399c-13.077-0.861-22.189,12.799-16.378,24.547  c5.804,11.736,22.189,12.808,29.449,1.884C171.176,326.967,163.95,312.317,171.205,301.399z"/>
<path d="M497.677,182.203c-7.079-6.698-13.575-12.786-19.332-18.117c-11.541-29.875-27.868-56.992-48.546-80.624  c-2.728-3.117-7.466-3.43-10.582-0.705c-3.117,2.729-3.432,7.466-0.705,10.582c19.88,22.717,35.507,48.865,46.444,77.719  c0.923,2.439,0.101,0.924,22.347,21.974c3.596,3.487,6.303,8.447,5.776,9.745c-0.336,0.827-4.726,3.916-20.078,3.916H366.903  c-21.676,0-46.561,7.476-61.678,22.687c-9.238,8.955-30.873,29.927-40.25,39.016c-1.957,0-238.234,0-240.394,0  c-3.141,0-5.694-2.555-5.694-5.694c0-130.771,99.647-247.708,231.655-247.708c54.841,0,108.047,21.205,149.818,59.709  c3.045,2.808,7.788,2.615,10.596-0.432c2.808-3.046,2.614-7.789-0.432-10.596C315.289-24.112,171.366-21.989,78.638,75.407  C29.022,127.522,3.89,197.601,3.89,262.704c0,9.181,6.014,16.973,14.307,19.672v61.552c0,11.409,9.283,20.692,20.692,20.692h23.892  c4.142,0,7.499-3.356,7.499-7.499s-3.356-7.499-7.499-7.499H38.889c-3.141,0-5.694-2.555-5.694-5.694v-60.532h218.548  l-57.955,66.226c-11.125,0-92.184,0-103.011,0c-4.142,0-7.499,3.357-7.499,7.499s3.356,7.499,7.499,7.499h62.158  c53.269,64.651,123.981,107.461,200.788,125.77c5.586,4.683,4.264,3.571,68.604,20.758c13.452,3.59,27.035-4.501,30.55-17.671  l10.014-37.481c3.56-13.328-4.343-26.994-17.673-30.552c-64.311-17.179-61.059-16.618-65.482-16.618  c-3.565,0-6.993,0.765-10.106,2.151c-24.123-5.946-46.917-14.768-68.253-26.395c-12.938-28.232-16.87-58.749-11.635-90.753  c3.453-21.11,9.993-36.085,11.837-40.024c0.021-0.02,14.118-13.685,14.139-13.705l1.228-1.189  c4.532-4.131,21.19-17.216,49.957-17.216H473c19.241,0,30.354-4.344,33.977-13.28C511.736,196.669,500.12,184.573,497.677,182.203z   M441.349,439.932c5.318,1.42,8.474,6.872,7.053,12.191l-10.014,37.483c-1.402,5.248-6.81,8.491-12.189,7.05  c-64.107-17.124-60.889-15.731-63.516-18.381c-2.562-2.587-3.462-6.232-2.569-9.579c10.705-40.076,10.071-37.981,10.635-39.169  c1.58-3.351,5.082-5.706,8.989-5.706C381.598,423.821,377.722,422.935,441.349,439.932z M345.175,466.852  c-0.348,1.921-0.469,3.853-0.366,5.769c-65.959-18.258-125.721-55.35-172.2-108.002c26.423,0,24.761,0.024,25.387-0.043  c3.881-0.419,3.649-1.158,22.736-22.969c37.164,38.336,82.722,66.68,136.405,81.606C355.547,426.607,345.388,465.65,345.175,466.852  z M280.442,371.961c-18.462-12.248-35.146-26.432-49.796-41.683l43.01-49.149c0.252-0.288,0.475-0.596,0.678-0.916l3.616-3.505  C270.098,308.547,270.77,341.489,280.442,371.961z"/>
<path d="M194.643,315.891c0-13.531-11.008-24.54-24.539-24.54c-13.532,0-24.541,11.009-24.541,24.54  c0,13.531,11.009,24.54,24.541,24.54C183.634,340.432,194.643,329.422,194.643,315.891z M160.56,315.891  c0-5.262,4.281-9.543,9.544-9.543c5.261,0,9.542,4.28,9.542,9.543s-4.28,9.543-9.542,9.543  C164.841,325.434,160.56,321.154,160.56,315.891z"/>
<g>
</g>
<g>
</g>
<g>
</g>
<g>
</g>
<g>
</g>
<g>
</g>
<g>
</g>
<g>
</g>
<g>
</g>
<g>
</g>
<g>
</g>
<g>
</g>
<g>
</g>
<g>
</g>
<g>
</g>
</svg>
