<?xml version="1.0" encoding="iso-8859-1"?>
<!-- Generator: Adobe Illustrator 19.0.0, SVG Export Plug-In . SVG Version: 6.00 Build 0)  -->
<svg xmlns="http://www.w3.org/2000/svg" xmlns:xlink="http://www.w3.org/1999/xlink" version="1.1" id="Capa_1" x="0px" y="0px" viewBox="0 0 511.999 511.999" style="enable-background:new 0 0 511.999 511.999;" xml:space="preserve">
<rect x="299.961" y="306.011" style="fill:#DDDCDB;" width="24.252" height="41.373"/>
<rect x="299.961" y="326.702" style="fill:#AEAEAF;" width="24.252" height="20.685"/>
<path style="fill:#FFA645;" d="M396.808,119.42h-24.786c-5.603,0-10.149,4.544-10.149,10.15v19.651h45.085V129.57  C406.96,123.965,402.415,119.42,396.808,119.42z"/>
<path style="fill:#F47A21;" d="M395.22,119.42h-23.197c-5.603,0-10.149,4.544-10.149,10.15v19.651h23.197V129.57  C385.071,123.965,389.617,119.42,395.22,119.42z"/>
<path style="fill:#31A372;" d="M290.428,104.249H17.651c-5.605,0-10.151,4.544-10.151,10.15c0,10.181,0,236.493,0,248.672  c0,5.605,4.545,10.15,10.151,10.15h18.238c0-25.694,20.828-46.523,46.522-46.523s46.523,20.828,46.523,46.523h19.55  c0-25.694,20.828-46.523,46.522-46.523c25.695,0,46.523,20.828,46.523,46.523h48.897c5.605,0,10.151-4.544,10.151-10.15  c0-11.804,0-237.797,0-248.672C300.58,108.793,296.034,104.249,290.428,104.249z"/>
<path style="fill:#1B8E5A;" d="M32.502,363.072v-64.706c0-7.885,0-176.618,0-183.966c0-5.605,4.545-10.15,10.151-10.15H17.651  c-5.605,0-10.151,4.544-10.151,10.15c0,10.181,0,236.493,0,248.672c0,5.605,4.545,10.15,10.151,10.15h18.238  c0-0.85,0.026-1.693,0.071-2.531C33.844,368.83,32.502,366.11,32.502,363.072z"/>
<path style="fill:#5D5E5E;" d="M435.028,148.222H333.635c-5.605,0-10.151,4.544-10.151,10.149c0,7.395,0,164.175,0,170.328  c4.786,0,164.397,0,168.262,0V204.954C491.745,173.626,466.353,148.23,435.028,148.222z"/>
<path style="fill:#6F6F6F;" d="M388.619,304.467h-21.993c-4.142,0-7.501-3.357-7.501-7.5c0-4.143,3.358-7.501,7.501-7.501h21.993  c4.142,0,7.501,3.357,7.501,7.501C396.119,301.11,392.761,304.467,388.619,304.467z"/>
<g>
	<path style="fill:#C0E3F9;" d="M489.764,190.092h-11.327c-6.628,0-12.001,5.373-12.001,12.001v69.043   c0,6.628,5.372,12.001,12.001,12.001h13.308C491.745,198.072,492.403,199.835,489.764,190.092z"/>
	<path style="fill:#C0E3F9;" d="M442.134,190.592H371.18c-4.855,0-8.806,3.949-8.806,8.805v45.288c0,1.933,1.567,3.5,3.5,3.5h18.411   c35.857,36.32,33.448,34.451,35.475,34.451h22.373c1.933,0,3.5-1.567,3.5-3.5v-85.044   C445.634,192.159,444.067,190.592,442.134,190.592z"/>
</g>
<path style="fill:#81BFFC;" d="M401.367,232.741c-3.092-3.178-6.701-3.742-8.343-3.823h-1.787c-1.933,0-3.5-1.567-3.5-3.5v-34.825  H371.18c-4.855,0-8.806,3.949-8.806,8.805v45.288c0,1.933,1.567,3.5,3.5,3.5h18.411c35.857,36.321,33.448,34.451,35.475,34.451  h22.373c1.933,0,3.5-1.567,3.5-3.5v-0.89L401.367,232.741z"/>
<path style="fill:#898C8A;" d="M7.501,326.699v36.372c0,5.605,4.545,10.15,10.151,10.15h9.705h8.534h93.045h19.55  c3.766,0,130.887,0,141.943,0c5.605,0,10.151-4.544,10.151-10.15v-36.372C296.66,326.699,11.393,326.699,7.501,326.699z"/>
<path style="fill:#6F6F6F;" d="M32.502,363.072v-36.372c-10.903,0-14.116,0-25.002,0v36.372c0,5.605,4.545,10.15,10.151,10.15h9.705  h8.534c0-0.85,0.026-1.693,0.071-2.531C33.844,368.83,32.502,366.11,32.502,363.072z"/>
<rect x="7.501" y="290.48" style="fill:#5D5E5E;" width="293.08" height="36.222"/>
<path style="fill:#454545;" d="M32.502,298.365v-7.885H7.501c0,11.841,0,20.237,0,36.218h25.002V298.365z"/>
<path style="fill:#898C8A;" d="M494.351,326.699c-7.159,0-163.696,0-170.867,0c0,4.139,0,32.073,0,36.372  c0,5.605,4.545,10.15,10.151,10.15c5.78,0,154.53,0,160.716,0c5.603,0,10.149-4.544,10.149-10.15v-26.223  C504.5,331.244,499.954,326.699,494.351,326.699z"/>
<path style="fill:#454545;" d="M348.485,158.371c0-5.604,4.545-10.149,10.151-10.149h-25.002c-5.605,0-10.151,4.544-10.151,10.149  c0,7.395,0,164.175,0,170.328c34.037,0-9.009,0,25.002,0C348.485,311.296,348.485,174.805,348.485,158.371z"/>
<path style="fill:#6F6F6F;" d="M348.485,363.072c0-18.949,0-17.369,0-36.372c-9.542,0-16.794,0-25.002,0c0,4.139,0,32.073,0,36.372  c0,5.605,4.545,10.15,10.151,10.15c28.202,0-3.198,0,25.002,0C353.03,373.222,348.485,368.677,348.485,363.072z"/>
<circle style="fill:#454545;" cx="395.257" cy="375.226" r="46.522"/>
<path style="fill:#333533;" d="M372.548,388.333c-11.103-19.23-6.905-43.084,8.8-57.502c-28.481,8.951-41.242,41.911-26.38,67.653  c14.82,25.668,49.703,31.229,71.778,10.981C406.408,415.856,383.652,407.565,372.548,388.333z"/>
<circle style="fill:#888988;" cx="395.257" cy="375.226" r="26.222"/>
<path style="fill:#6F6F6F;" d="M391.579,349.258c-18.365,2.596-28.317,22.989-19.029,39.074c9.27,16.057,31.908,17.685,43.354,3.056  C392.586,394.685,377.048,367.828,391.579,349.258z"/>
<circle style="fill:#C2C2C2;" cx="395.257" cy="375.226" r="6.631"/>
<circle style="fill:#454545;" cx="195.013" cy="375.226" r="46.522"/>
<path style="fill:#333533;" d="M172.307,388.333c-11.103-19.23-6.905-43.084,8.8-57.502c-28.481,8.951-41.242,41.911-26.38,67.653  c12.847,22.251,41.298,29.876,63.55,17.029c3.02-1.745,5.761-3.785,8.229-6.048C206.165,415.856,183.41,407.565,172.307,388.333z"/>
<circle style="fill:#888988;" cx="195.013" cy="375.226" r="26.222"/>
<path style="fill:#6F6F6F;" d="M191.336,349.258c-18.364,2.596-28.317,22.988-19.029,39.074  c9.271,16.057,31.908,17.685,43.354,3.056C192.342,394.685,176.807,367.828,191.336,349.258z"/>
<circle style="fill:#C2C2C2;" cx="195.013" cy="375.226" r="6.631"/>
<circle style="fill:#454545;" cx="82.426" cy="375.226" r="46.522"/>
<path style="fill:#333533;" d="M59.711,388.333c-11.103-19.23-6.905-43.084,8.8-57.502c-28.481,8.951-41.242,41.911-26.38,67.653  c14.82,25.668,49.703,31.229,71.778,10.981C93.569,415.856,70.814,407.565,59.711,388.333z"/>
<circle style="fill:#888988;" cx="82.416" cy="375.226" r="26.222"/>
<path style="fill:#6F6F6F;" d="M76.677,378.538c-5.509-9.542-4.333-21.103,2.063-29.279c-18.365,2.596-28.317,22.988-19.029,39.074  c7.24,12.542,23.279,16.839,35.818,9.6c3-1.732,5.522-3.972,7.535-6.543C92.786,392.841,82.185,388.079,76.677,378.538z"/>
<circle style="fill:#C2C2C2;" cx="82.416" cy="375.226" r="6.631"/>
<path d="M82.412,339.071c-18.594,0-33.722,15.128-33.722,33.723c0,18.594,15.127,33.722,33.722,33.722s33.723-15.128,33.723-33.722  C116.134,354.199,101.007,339.071,82.412,339.071z M82.412,391.515c-10.323,0-18.721-8.398-18.721-18.721  c0-10.324,8.398-18.722,18.721-18.722s18.722,8.399,18.722,18.722C101.134,383.117,92.735,391.515,82.412,391.515z"/>
<circle cx="82.416" cy="372.796" r="6.632"/>
<path d="M195.007,339.071c-18.594,0-33.722,15.128-33.722,33.723c0,18.594,15.127,33.722,33.722,33.722  c18.594,0,33.722-15.128,33.722-33.722C228.73,354.199,213.602,339.071,195.007,339.071z M195.007,391.515  c-10.323,0-18.721-8.398-18.721-18.721c0-10.324,8.398-18.722,18.721-18.722c10.323,0,18.721,8.399,18.721,18.722  C213.729,383.117,205.33,391.515,195.007,391.515z"/>
<circle cx="195.003" cy="372.796" r="6.632"/>
<path d="M395.25,339.071c-18.594,0-33.721,15.128-33.721,33.723c0,18.594,15.127,33.722,33.721,33.722  c18.595,0,33.723-15.128,33.723-33.722C428.972,354.199,413.844,339.071,395.25,339.071z M395.25,391.515  c-10.322,0-18.72-8.398-18.72-18.721c0-10.324,8.398-18.722,18.72-18.722s18.722,8.399,18.722,18.722  C413.972,383.117,405.573,391.515,395.25,391.515z"/>
<circle cx="395.247" cy="372.796" r="6.632"/>
<path d="M499.245,319.476c0-122.109,0.139-116.753-0.319-121.335c-3.213-32.388-30.634-57.839-63.898-57.847H414.46v-11.151  c0-9.732-7.919-17.65-17.651-17.65h-24.785c-9.732,0-17.649,7.919-17.649,17.65v11.151h-20.739c-9.733,0-17.651,7.918-17.651,17.649  v140.143h-7.903c0-3.751,0-116.95,0-122.408c0-4.143-3.357-7.501-7.501-7.501s-7.501,3.357-7.501,7.501v106.875h-40.609V111.322  h37.959c1.462,0,2.65,1.188,2.65,2.649v35.4c0,4.143,3.357,7.501,7.501,7.501s7.501-3.357,7.501-7.501v-35.4  c0-9.732-7.919-17.65-17.651-17.65h-37.959v-3.638c0-4.143-3.358-7.501-7.501-7.501c-4.142,0-7.501,3.357-7.501,7.501v3.638h-45.618  v-3.638c0-4.143-3.358-7.501-7.501-7.501c-4.142,0-7.501,3.357-7.501,7.501v3.638h-45.619v-3.638c0-4.143-3.358-7.501-7.501-7.501  s-7.501,3.357-7.501,7.501v3.638H70.61v-3.638c0-4.143-3.358-7.501-7.501-7.501s-7.501,3.357-7.501,7.501v3.638H17.651  C7.918,96.321,0,104.239,0,113.972c0,8.014,0,238.724,0,248.672c0,9.732,7.918,17.65,17.651,17.65h11.27  c3.664,26.25,26.248,46.523,53.491,46.523s49.827-20.273,53.492-46.523h5.614c3.663,26.25,26.248,46.523,53.491,46.523  s49.827-20.273,53.492-46.523h41.929c9.733,0,17.651-7.919,17.651-17.65v-8.187h7.903v8.187c0,9.732,7.919,17.65,17.651,17.65h8.125  c3.664,26.25,26.249,46.523,53.491,46.523c27.243,0,49.828-20.273,53.493-46.523h45.608c9.732,0,17.649-7.919,17.649-17.65v-26.223  C512,328.388,506.601,321.605,499.245,319.476z M484.244,275.208h-10.308v-78.043h9.753  C484.543,202.817,484.244,200.012,484.244,275.208z M369.375,129.143c0-1.461,1.189-2.649,2.648-2.649h24.785  c1.461,0,2.65,1.188,2.65,2.649v11.151h-30.083V129.143z M330.984,157.944c0-1.46,1.189-2.648,2.65-2.648  c11.759,0,90.054,0,101.392,0c19.09,0.005,35.663,10.942,43.823,26.869h-12.413c-4.143,0-7.501,3.357-7.501,7.501v93.044  c0,4.143,3.357,7.5,7.501,7.5h17.808v28.562c-4.408,0-143.869,0-153.26,0C330.984,312.829,330.984,165.463,330.984,157.944z   M293.079,318.771c-4.562,0-273.546,0-278.078,0v-21.217h278.078C293.079,305.426,293.079,311.352,293.079,318.771z   M119.735,333.772h37.949c-8.671,8.3-14.478,19.374-16.18,31.522h-5.587C134.264,353.459,128.609,342.26,119.735,333.772z   M237.469,111.322v171.231h-45.618V111.322H237.469z M176.849,111.322v171.231H131.23V111.322H176.849z M17.651,111.322h37.958  v114.724c0,4.143,3.358,7.501,7.501,7.501s7.501-3.357,7.501-7.501V111.322h45.62v171.231H70.61v-30.839  c0-4.143-3.358-7.501-7.501-7.501s-7.501,3.357-7.501,7.501v30.839H15.001V113.972C15.001,112.511,16.19,111.322,17.651,111.322z   M15.001,362.644v-28.872h30.087c-8.656,8.281-14.493,19.406-16.18,31.522H17.651C16.19,365.294,15.001,364.105,15.001,362.644z   M82.412,411.816c-21.516,0-39.022-17.505-39.022-39.023c0-21.517,17.505-39.023,39.022-39.023  c21.517,0,39.023,17.505,39.023,39.023C121.434,394.311,103.928,411.816,82.412,411.816z M195.007,411.816  c-21.516,0-39.022-17.505-39.022-39.023c0-21.517,17.505-39.023,39.022-39.023c21.517,0,39.023,17.505,39.023,39.023  C234.03,394.311,216.525,411.816,195.007,411.816z M293.079,362.644c0,1.461-1.19,2.649-2.65,2.649h-41.916  c-1.637-11.71-7.198-22.926-16.181-31.522h60.747C293.079,362.443,293.079,323.018,293.079,362.644z M308.08,339.456  c0-9.542,0-16.827,0-26.369h7.903c0,9.542,0,16.827,0,26.369H308.08z M330.984,362.644c0-39.653,0-0.154,0-28.872h26.942  c-8.795,8.423-14.508,19.545-16.181,31.522h-8.111C332.173,365.294,330.984,364.105,330.984,362.644z M395.25,411.816  c-21.517,0-39.023-17.505-39.023-39.023c0-21.517,17.505-39.023,39.023-39.023c21.518,0,39.024,17.505,39.024,39.023  C434.274,394.311,416.768,411.816,395.25,411.816z M496.999,362.644c0,1.461-1.189,2.649-2.648,2.649h-45.594  c-1.665-11.89-7.354-23.079-16.182-31.522c6.73,0,55.392,0,61.776,0c1.46,0,2.648,1.188,2.648,2.649V362.644z"/>
<path d="M388.619,289.039h-21.993c-4.143,0-7.501,3.357-7.501,7.501c0,4.143,3.357,7.5,7.501,7.5h21.993  c4.143,0,7.501-3.357,7.501-7.5C396.119,292.396,392.761,289.039,388.619,289.039z"/>
<path d="M361.875,255.758h19.067c34.474,34.919,32.955,34.451,37.148,34.451h28.045c4.143,0,7.501-3.357,7.501-7.5v-93.044  c0-4.143-3.357-7.501-7.501-7.501H371.18c-9.268,0-16.806,7.539-16.806,16.805v49.288  C354.374,252.4,357.731,255.758,361.875,255.758z M369.375,198.969c0-0.994,0.81-1.804,1.805-1.804h67.454v78.043h-17.409  c-34.474-34.919-32.955-34.451-37.148-34.451h-14.702V198.969z"/>
<g>
</g>
<g>
</g>
<g>
</g>
<g>
</g>
<g>
</g>
<g>
</g>
<g>
</g>
<g>
</g>
<g>
</g>
<g>
</g>
<g>
</g>
<g>
</g>
<g>
</g>
<g>
</g>
<g>
</g>
</svg>
