<?xml version="1.0" encoding="iso-8859-1"?>
<!-- Generator: Adobe Illustrator 19.0.0, SVG Export Plug-In . SVG Version: 6.00 Build 0)  -->
<svg xmlns="http://www.w3.org/2000/svg" xmlns:xlink="http://www.w3.org/1999/xlink" version="1.1" id="Capa_1" x="0px" y="0px" viewBox="0 0 511.999 511.999" style="enable-background:new 0 0 511.999 511.999;" xml:space="preserve">
<path style="fill:#454545;" d="M504.492,312.179v-90.307c0-6.025-4.883-10.907-10.908-10.907c-6.025,0-10.908,4.883-10.908,10.907  v90.307H504.492z"/>
<path style="fill:#272B28;" d="M499.038,212.437c-7.263-4.21-16.361,1.056-16.361,9.436v90.307h10.908v-90.307  C493.585,217.837,495.781,214.323,499.038,212.437z"/>
<path style="fill:#31A372;" d="M429.839,221.964h-55.898c-6.861,0-12.849-2.783-16.259-8.656c-0.001,0-41.404-71.211-41.404-71.212  l-0.001,0.002c-1.579-2.821-4.593-4.732-8.056-4.732H16.738c-5.097,0-9.229,4.132-9.229,9.229c0,17.088,0,147.223,0,164.583  c18.363,0,13.863,0,32.216,0c7.633-29.242,34.226-50.823,65.858-50.823c31.634,0,58.225,21.582,65.858,50.823h123.828  c7.634-29.242,34.224-50.823,65.858-50.823s58.224,21.582,65.859,50.823h12.746v0.001h20.764c0-6.641,0-52.581,0-58.571  C460.489,235.682,446.767,221.964,429.839,221.964z"/>
<path style="fill:#1B8E5A;" d="M30.509,146.595c0-5.098,4.133-9.229,9.229-9.229H16.738c-5.097,0-9.229,4.132-9.229,9.229  c0,17.088,0,147.223,0,164.583c7.978,0,15.002,0,23.001,0C30.509,306.926,30.509,150.841,30.509,146.595z"/>
<g>
	<path style="fill:#FF9F06;" d="M21.28,245.037H7.508v38.454H21.28c5.098,0,9.229-4.133,9.229-9.228v-19.997   C30.509,249.168,26.377,245.037,21.28,245.037z"/>
	<path style="fill:#FF9F06;" d="M436.729,254.266v19.997c0,5.096,4.132,9.228,9.229,9.228h14.539v-30.883   c-0.001-2.612-0.33-5.15-0.947-7.571H445.96C440.861,245.037,436.729,249.168,436.729,254.266z"/>
</g>
<g>
	<path style="fill:#FF8103;" d="M21.28,264.465H7.508v19.025H21.28c5.098,0,9.229-4.133,9.229-9.228v-19.025   C30.509,260.333,26.377,264.465,21.28,264.465z"/>
	<path style="fill:#FF8103;" d="M436.729,255.238v19.025c0,5.096,4.132,9.228,9.229,9.228h14.539v-19.025h-14.539   C440.861,264.465,436.729,260.333,436.729,255.238z"/>
</g>
<g>
	<path style="fill:#C0E3F9;" d="M107.489,206.583c0,5.097-4.132,9.229-9.229,9.229H50.209c-5.098,0-9.229-4.133-9.229-9.229v-34.608   c0-5.097,4.132-9.229,9.229-9.229H98.26c5.098,0,9.229,4.133,9.229,9.229V206.583z"/>
	<path style="fill:#C0E3F9;" d="M201.189,206.583c0,5.097-4.132,9.229-9.229,9.229h-48.051c-5.098,0-9.229-4.133-9.229-9.229   v-34.608c0-5.097,4.132-9.229,9.229-9.229h48.051c5.098,0,9.229,4.133,9.229,9.229V206.583z"/>
	<path style="fill:#C0E3F9;" d="M298.708,166.862c-0.055-0.096-0.114-0.188-0.179-0.278c-1.736-2.403-4.534-3.838-7.485-3.838   h-53.435c-5.089,0-9.229,4.141-9.229,9.229v40.834c0,1.659,1.344,3.003,3.003,3.003c96.582,0,91.24,0.639,92.482-1.491   C325.062,212.267,325.972,215.017,298.708,166.862z"/>
</g>
<g>
	<path style="fill:#81BFFC;" d="M66.007,206.583v-34.608c0-5.097,4.132-9.229,9.229-9.229H50.209c-5.098,0-9.229,4.133-9.229,9.229   v34.608c0,5.097,4.132,9.229,9.229,9.229h25.028C70.139,215.812,66.007,211.68,66.007,206.583z"/>
	<path style="fill:#81BFFC;" d="M159.707,206.583v-34.608c0-5.097,4.132-9.229,9.229-9.229h-25.028   c-5.098,0-9.229,4.133-9.229,9.229v34.608c0,5.097,4.132,9.229,9.229,9.229h25.028C163.839,215.812,159.707,211.68,159.707,206.583   z"/>
	<path style="fill:#81BFFC;" d="M253.407,212.809v-40.834c0-5.089,4.141-9.229,9.229-9.229h-25.028   c-5.089,0-9.229,4.141-9.229,9.229v40.834c0,1.659,1.344,3.003,3.003,3.003h25.028   C254.752,215.812,253.407,214.468,253.407,212.809z"/>
</g>
<path style="fill:#605E15;" d="M171.441,323.251c0,5.098,4.132,9.229,9.229,9.229h105.246c5.098,0,9.229-4.132,9.229-9.229v-13.075  H171.441V323.251z"/>
<path style="fill:#4F4D2C;" d="M196.468,323.251v-13.075h-25.028v13.075c0,5.098,4.132,9.229,9.229,9.229h25.028  C200.6,332.48,196.468,328.348,196.468,323.251z"/>
<path style="fill:#605E15;" d="M504.492,323.251v-13.075h-77.944v13.075c0,5.098,4.132,9.229,9.229,9.229h59.485  C500.359,332.48,504.492,328.348,504.492,323.251z"/>
<path style="fill:#4F4D2C;" d="M451.577,323.251v-13.075h-25.028v13.075c0,5.098,4.132,9.229,9.229,9.229h25.028  C455.708,332.48,451.577,328.348,451.577,323.251z"/>
<path style="fill:#605E15;" d="M39.679,323.251v-13.075H7.508v13.075c0,5.098,4.133,9.229,9.229,9.229H30.45  C35.548,332.48,39.679,328.348,39.679,323.251z"/>
<path style="fill:#4F4D2C;" d="M30.509,323.251v-13.075H7.508v13.075c0,5.098,4.133,9.229,9.229,9.229  c14.724,0,15.568,0.364,18.356-1.262C32.355,329.617,30.509,326.654,30.509,323.251z"/>
<circle style="fill:#454545;" cx="361.131" cy="329.065" r="45.571"/>
<path style="fill:#333533;" d="M338.883,341.905c-10.876-18.837-6.764-42.203,8.62-56.327  c-27.898,8.769-40.399,41.054-25.841,66.269c14.523,25.155,48.701,30.581,70.31,10.756  C372.049,368.867,349.759,360.744,338.883,341.905z"/>
<circle style="fill:#888988;" cx="361.131" cy="329.065" r="25.686"/>
<path style="fill:#6F6F6F;" d="M357.523,303.63c-17.99,2.545-27.739,22.518-18.641,38.275c9.082,15.73,31.256,17.323,42.466,2.993  C358.507,348.128,343.292,321.82,357.523,303.63z"/>
<circle style="fill:#C2C2C2;" cx="361.131" cy="329.065" r="6.496"/>
<circle style="fill:#454545;" cx="105.587" cy="329.065" r="45.571"/>
<path style="fill:#333533;" d="M83.346,341.905c-10.876-18.837-6.765-42.203,8.62-56.327c-3.129,0.984-6.203,2.312-9.161,4.018  c-21.796,12.584-29.264,40.455-16.68,62.251c12.584,21.795,40.453,29.265,62.25,16.681c2.959-1.709,5.644-3.707,8.061-5.925  C116.512,368.867,94.222,360.744,83.346,341.905z"/>
<circle style="fill:#888988;" cx="105.587" cy="329.065" r="25.686"/>
<path style="fill:#6F6F6F;" d="M101.986,303.63c-3.167,0.447-6.301,1.492-9.239,3.188c-12.284,7.092-16.494,22.802-9.4,35.088  c7.093,12.286,22.802,16.495,35.086,9.403c2.939-1.697,5.41-3.891,7.38-6.409C102.97,348.128,87.754,321.82,101.986,303.63z"/>
<circle style="fill:#C2C2C2;" cx="105.587" cy="329.065" r="6.496"/>
<path d="M361.126,275.982c-29.268,0-53.079,23.811-53.079,53.08c0,29.268,23.81,53.079,53.079,53.079s53.081-23.81,53.081-53.079  S390.395,275.982,361.126,275.982z M361.126,367.124c-20.987,0-38.062-17.075-38.062-38.062c0-20.988,17.075-38.063,38.062-38.063  c20.989,0,38.064,17.075,38.064,38.063S382.115,367.124,361.126,367.124z"/>
<path d="M361.126,295.867c-18.302,0-33.192,14.892-33.192,33.195c0,18.302,14.89,33.193,33.192,33.193  c18.303,0,33.195-14.891,33.195-33.193C394.321,310.759,379.43,295.867,361.126,295.867z M361.126,347.238  c-10.022,0-18.175-8.154-18.175-18.176c0-10.024,8.154-18.178,18.175-18.178c10.024,0,18.178,8.155,18.178,18.178  C379.305,339.084,371.149,347.238,361.126,347.238z"/>
<circle cx="361.131" cy="329.065" r="6.496"/>
<path d="M105.582,275.982c-29.268,0-53.079,23.811-53.079,53.08c0,29.268,23.811,53.079,53.079,53.079  c29.269,0,53.08-23.81,53.08-53.079S134.851,275.982,105.582,275.982z M105.582,367.124c-20.988,0-38.063-17.075-38.063-38.062  c0-20.988,17.075-38.063,38.063-38.063s38.063,17.075,38.063,38.063S126.571,367.124,105.582,367.124z"/>
<path d="M105.582,295.867c-18.302,0-33.193,14.892-33.193,33.195c0,18.302,14.891,33.193,33.193,33.193  c18.303,0,33.194-14.891,33.194-33.193C138.776,310.759,123.886,295.867,105.582,295.867z M105.582,347.238  c-10.023,0-18.176-8.154-18.176-18.176c0-10.024,8.154-18.178,18.176-18.178s18.177,8.155,18.177,18.178  C123.76,339.084,115.605,347.238,105.582,347.238z"/>
<circle cx="105.587" cy="329.065" r="6.496"/>
<path d="M50.208,155.237c-9.229,0-16.738,7.508-16.738,16.738v34.608c0,9.229,7.508,16.738,16.738,16.738h48.051  c9.229,0,16.738-7.508,16.738-16.738v-34.608c0-9.229-7.508-16.738-16.738-16.738H50.208z M99.98,171.975v34.608  c0,0.948-0.772,1.721-1.721,1.721H50.208c-0.948,0-1.721-0.772-1.721-1.721v-34.608c0-0.948,0.772-1.721,1.721-1.721h48.051  C99.208,170.254,99.98,171.026,99.98,171.975z"/>
<path d="M143.908,155.237c-9.229,0-16.738,7.508-16.738,16.738v34.608c0,9.229,7.508,16.738,16.738,16.738h48.051  c9.229,0,16.738-7.508,16.738-16.738v-34.608c0-9.229-7.508-16.738-16.738-16.738H143.908z M193.68,171.975v34.608  c0,0.948-0.772,1.721-1.721,1.721h-48.051c-0.948,0-1.721-0.772-1.721-1.721v-34.608c0-0.948,0.772-1.721,1.721-1.721h48.051  C192.907,170.254,193.68,171.026,193.68,171.975z"/>
<path d="M332.955,212.112c-29.666-52.397-27.9-49.367-28.421-50.036c-3.152-4.29-8.167-6.84-13.492-6.84h-53.435  c-9.229,0-16.738,7.508-16.738,16.738v43.838c0,4.148,3.361,7.508,7.508,7.508h98.043  C332.154,223.321,335.79,217.121,332.955,212.112z M235.887,208.304v-36.329c0-0.948,0.772-1.721,1.721-1.721  c56.641,0,53.916-0.33,54.726,0.593l21.209,37.458H235.887z"/>
<path d="M246.116,230.221c-4.148,0-7.508,3.361-7.508,7.508s3.361,7.508,7.508,7.508h19.612c4.148,0,7.508-3.361,7.508-7.508  s-3.361-7.508-7.508-7.508H246.116z"/>
<path d="M493.584,202.456c-10.154,0-18.416,8.261-18.416,18.415v82.798h-7.163c0-53.34,0.519-53.738-1.191-60.519  c-4.225-16.477-19.202-28.694-36.975-28.694H373.94c-4.237,0-7.582-1.364-9.821-5.011c-0.007-0.011-41.397-71.199-41.403-71.21  c-2.986-5.174-8.52-8.377-14.496-8.377h-21.518c-4.148,0-7.508,3.361-7.508,7.508s3.361,7.508,7.508,7.508  c24.316,0,22.273-0.35,23.169,1.142c0.171,0.294,41.882,72.045,42.066,72.331c2.175,3.345,8.674,11.124,22.004,11.124h55.898  c7.001,0,13.281,3.128,17.53,8.056c-11.654,0-18.148,8.062-18.148,16.738v19.997c0,9.228,7.508,16.737,16.738,16.737h7.03v12.67  h-20.436c-10.439-30.2-39.017-50.823-71.425-50.823s-60.987,20.623-71.424,50.823H177.007c-10.436-30.2-39.015-50.823-71.424-50.823  s-60.989,20.623-71.424,50.823H15.017V291h6.263c9.229,0,16.738-7.508,16.738-16.737v-19.997c0-9.229-7.508-16.738-16.738-16.738  h-6.263v-90.933c0-2.513-14.377-1.721,246.324-1.721c4.148,0,7.508-3.361,7.508-7.508s-3.361-7.508-7.508-7.508H16.738  C7.508,129.858,0,137.366,0,146.595c0,7.052,0,130.705,0,136.895c0,6.859,0,6.751,0,40.761c0,9.229,7.508,16.738,16.738,16.738  H30.45c9.229,0,16.738-7.508,16.738-16.738v-11.876c7.187-26.242,31.089-44.512,58.395-44.512c27.251,0,51.11,18.196,58.35,44.353  v12.035c0,9.229,7.508,16.738,16.738,16.738h66.654c4.148,0,7.508-3.361,7.508-7.508s-3.361-7.508-7.508-7.508H180.67  c-0.948,0-1.721-0.772-1.721-1.721v-5.566h108.687v5.566c0,0.948-0.773,1.721-1.721,1.721h-12.563c-4.148,0-7.508,3.361-7.508,7.508  s3.361,7.508,7.508,7.508h12.563c9.229,0,16.738-7.508,16.738-16.738v-11.598c7.094-26.393,31.072-44.791,58.474-44.791  c26.739,0,50.221,17.516,57.934,42.887c-0.034,0.591-0.022,12.91-0.022,13.503c0,9.229,7.508,16.738,16.738,16.738h59.485  c9.229,0,16.738-7.508,16.738-16.738c0-16.84,0-65.251,0-103.381C512,210.717,503.739,202.456,493.584,202.456z M445.958,275.982  c-0.948,0-1.721-0.771-1.721-1.72v-19.997c0-0.948,0.772-1.721,1.721-1.721h7.029c0,0.021,0.001,0.042,0.001,0.063v23.375  L445.958,275.982L445.958,275.982z M21.28,252.545c0.948,0,1.721,0.772,1.721,1.721v19.997c0,0.948-0.772,1.72-1.721,1.72h-6.263  v-23.437L21.28,252.545L21.28,252.545z M32.171,324.252c0,0.948-0.772,1.721-1.721,1.721H16.738c-0.948,0-1.721-0.772-1.721-1.721  v-5.566h17.154C32.171,318.686,32.171,324.252,32.171,324.252z M490.185,220.871c0-4.491,6.799-4.493,6.799,0v82.798h-6.799V220.871  z M495.262,325.973h-59.485c-0.948,0-1.721-0.772-1.721-1.721v-5.565c8.094,0,54.763,0.001,62.926,0.001v5.565  C496.983,325.2,496.21,325.973,495.262,325.973z"/>
<g>
</g>
<g>
</g>
<g>
</g>
<g>
</g>
<g>
</g>
<g>
</g>
<g>
</g>
<g>
</g>
<g>
</g>
<g>
</g>
<g>
</g>
<g>
</g>
<g>
</g>
<g>
</g>
<g>
</g>
</svg>
