<?xml version="1.0" encoding="iso-8859-1"?>
<!-- Generator: Adobe Illustrator 19.0.0, SVG Export Plug-In . SVG Version: 6.00 Build 0)  -->
<svg xmlns="http://www.w3.org/2000/svg" xmlns:xlink="http://www.w3.org/1999/xlink" version="1.1" id="Capa_1" x="0px" y="0px" viewBox="0 0 512 512" style="enable-background:new 0 0 512 512;" xml:space="preserve">
<path style="fill:#1B8E5A;" d="M418.457,181.47c0,0,0.02,0.012,0.053,0.031c0.158,0.096,0.318,0.191,0.477,0.285  c2.508,1.441,13.199,6.686,13.199-8.563V40.88c0-10.857-6.84-16.603-7.223-16.916c-16.018-11.795-58.015-33.09-119.126,6.164  c-79.235,50.896-130.631,0-130.631,0v161.82c0,0,51.396,50.896,130.631,0C359.958,157.186,399.086,169.911,418.457,181.47  L418.457,181.47z"/>
<path style="fill:#547A13;" d="M201.206,45.967c-16.729-6.663-26-15.838-26-15.838v161.82c0,0,9.271,9.175,26,15.838V45.967z"/>
<path style="fill:#31A372;" d="M424.963,23.964c-16.018-11.795-58.015-33.09-119.126,6.164c-16,10.277-30.862,16.4-44.398,19.633  c4.477,53.55,35.36,99.592,79.599,125.052c36.018-11.779,62.545-2.219,77.42,6.658v-0.002c0,0,0.02,0.012,0.053,0.031  c0.158,0.096,0.318,0.191,0.477,0.285c2.508,1.441,13.199,6.686,13.199-8.563V40.88C432.186,30.022,425.346,24.276,424.963,23.964z"/>
<path style="fill:#965123;" d="M176.206,447.895V21.399c0-7.674-6.221-13.893-13.893-13.893c-7.672,0-13.893,6.219-13.893,13.893  v426.495h27.786V447.895z"/>
<path style="fill:#723514;" d="M169.26,9.38c-9.267-5.364-20.839,1.355-20.839,12.02v426.495h13.893V21.399  C162.313,16.26,165.111,11.783,169.26,9.38z"/>
<path style="fill:#757575;" d="M229.314,482.173v-24.277c0-6.627-5.373-12-12-12H107.312c-6.627,0-12,5.373-12,12v24.277  L229.314,482.173L229.314,482.173z"/>
<path style="fill:#515151;" d="M132.313,445.895h-25c-6.627,0-12,5.373-12,12v24.277h25v-24.277  C120.312,451.268,125.686,445.895,132.313,445.895z"/>
<path style="fill:#5A5B5A;" d="M244.814,492.839c0,6.443-5.223,11.668-11.666,11.668H91.479c-6.443,0-11.666-5.225-11.666-11.668  l0,0c0-6.441,5.223-11.666,11.666-11.666h141.67C239.592,481.173,244.814,486.398,244.814,492.839L244.814,492.839z"/>
<path style="fill:#454545;" d="M113.812,492.839c0-6.441,5.223-11.666,11.666-11.666h-34c-6.443,0-11.666,5.225-11.666,11.666  c0,6.443,5.223,11.668,11.666,11.668h34C119.035,504.507,113.812,499.282,113.812,492.839z"/>
<path d="M429.91,17.918c-6.625-4.879-17.636-11.464-32.467-15.131c-4.019-0.994-8.087,1.46-9.081,5.481  c-0.993,4.021,1.46,8.087,5.482,9.081c12.265,3.031,21.383,8.42,26.936,12.475c0.683,0.63,4.405,4.371,4.405,11.049  c0,141.176,0.102,133.491-0.22,135.203c-5.642-1.929-51.032-36.465-122.683,9.555c-30.704,19.722-60.394,25.901-88.24,18.369  c-15.698-4.246-26.443-11.902-30.836-15.466V45.04c39.995,24.639,86.544,17.495,127.185-8.608  c20.61-13.24,40.717-20.416,59.76-21.331c4.138-0.198,7.331-3.714,7.132-7.851c-0.198-4.138-3.7-7.306-7.85-7.132  c-21.703,1.043-44.296,9.015-67.149,23.693c-30.704,19.723-60.394,25.902-88.24,18.369c-15.702-4.247-26.445-11.903-30.836-15.466  v-5.321C183.206,9.597,173.609,0,161.813,0s-21.392,9.597-21.392,21.393v416.995h-33.607c-10.752,0-19.5,8.748-19.5,19.5v16.138  c-8.819,1.716-15.5,9.491-15.5,18.805c0,10.569,8.598,19.168,19.166,19.168h141.67c10.568,0,19.166-8.599,19.166-19.168  c0-9.314-6.681-17.089-15.5-18.805v-16.138c0-10.752-8.748-19.5-19.5-19.5h-33.607V267.377c0-4.143-3.357-7.5-7.5-7.5  c-4.143,0-7.5,3.357-7.5,7.5v171.011h-12.786V21.393c0-3.524,2.868-6.393,6.393-6.393c3.525,0,6.393,2.868,6.393,6.393  c0,10.335,0,208.615,0,218.992c0,4.143,3.357,7.5,7.5,7.5c4.143,0,7.5-3.357,7.5-7.5v-33.528  c40.265,24.819,86.858,17.298,127.184-8.604c33.441-21.479,71.508-30.142,105.359-9.971c6.147,3.535,12.368,4.003,17.062,1.286  c4.894-2.831,7.375-8.333,7.375-16.351V40.873C440.186,29.694,434.187,21.073,429.91,17.918z M216.814,453.388  c2.481,0,4.5,2.019,4.5,4.5v15.777h-9.537c-4.143,0-7.5,3.357-7.5,7.5s3.357,7.5,7.5,7.5h20.871c2.297,0,4.166,1.869,4.166,4.166  c0,2.298-1.869,4.168-4.166,4.168H90.978c-2.297,0-4.166-1.87-4.166-4.168c0-2.297,1.869-4.166,4.166-4.166h94.129  c4.143,0,7.5-3.357,7.5-7.5s-3.357-7.5-7.5-7.5h-82.795v-15.777c0-2.481,2.019-4.5,4.5-4.5  C117.025,453.388,206.117,453.388,216.814,453.388z"/>
<g>
</g>
<g>
</g>
<g>
</g>
<g>
</g>
<g>
</g>
<g>
</g>
<g>
</g>
<g>
</g>
<g>
</g>
<g>
</g>
<g>
</g>
<g>
</g>
<g>
</g>
<g>
</g>
<g>
</g>
</svg>
