<?xml version="1.0" encoding="iso-8859-1"?>
<!-- Generator: Adobe Illustrator 19.0.0, SVG Export Plug-In . SVG Version: 6.00 Build 0)  -->
<svg xmlns="http://www.w3.org/2000/svg" xmlns:xlink="http://www.w3.org/1999/xlink" version="1.1" id="Capa_1" x="0px" y="0px" viewBox="0 0 512 512" style="enable-background:new 0 0 512 512;" xml:space="preserve">
<g>
	<circle style="fill:#FFD05C;" cx="254.384" cy="257.424" r="227.893"/>
	<path style="fill:#FFD05C;" d="M55.653,257.424c0-120.962,94.248-219.897,213.315-227.417   C136.977,21.671,26.494,126.356,26.494,257.424c0,130.968,110.379,235.759,242.475,227.418   C149.901,477.322,55.653,378.389,55.653,257.424z"/>
</g>
<circle style="fill:none;stroke:#000000;stroke-width:15;stroke-linecap:round;stroke-linejoin:round;stroke-miterlimit:10;" cx="256.003" cy="255.894" r="45.909"/>
<path style="fill:#FFA645;" d="M80.353,431.544C33.437,384.628,7.6,322.249,7.6,255.898S33.438,127.169,80.353,80.252  c97.079-97.08,254.204-97.088,351.292,0c46.916,46.917,72.755,109.295,72.755,175.646s-25.839,128.729-72.755,175.646  C334.565,528.623,177.441,528.632,80.353,431.544z M255.998,31.292c-123.847,0-224.605,100.758-224.605,224.607  c0,123.849,100.757,224.607,224.605,224.607c123.848,0,224.607-100.757,224.607-224.607  C480.605,132.051,379.847,31.292,255.998,31.292z"/>
<path style="fill:#F47A21;" d="M104.027,431.544C57.11,384.627,31.273,322.249,31.273,255.898  c0-133.36,104.813-241.98,236.563-248.12C124.721,1.096,7.6,115.159,7.6,255.898c0,66.351,25.838,128.729,72.754,175.646  c49.858,49.858,117.044,75.764,187.482,72.474C205.931,501.134,148.143,475.66,104.027,431.544z"/>
<path style="fill:#EDEDED;" d="M306.451,311.031c11.137-10.198,19.162-23.726,22.523-39.007l69.541,15.369  c16.447-74.727-27.278-147.705-97.703-170.409l-21.465,67.917c-15.165-4.987-31.518-4.991-46.697-0.001l-21.464-67.915  c-70.425,22.702-114.141,95.669-97.704,170.409l69.542-15.369c3.362,15.281,11.387,28.81,22.523,39.009l-48.066,52.523  c55.707,51.007,141.223,51.103,197.035,0L306.451,311.031z"/>
<g>
	<path style="fill:#454545;" d="M185.465,271.487c-0.143-0.648-0.537-1.213-1.096-1.569c-1.295-0.824,6.081-2.094-118.408,25.417   c-1.347,0.298-2.198,1.63-1.901,2.977c8.707,39.585,29.198,75.055,59.255,102.577c0.462,0.423,1.065,0.656,1.687,0.656   c0.037,0,0.074-0.001,0.11-0.002c0.663-0.029,1.286-0.321,1.733-0.81l80.544-88.013c0.932-1.019,0.862-2.598-0.156-3.53   C196.196,299.081,188.668,286.043,185.465,271.487z"/>
	<path style="fill:#454545;" d="M446.037,295.335c-124.712-27.561-117.116-26.241-118.408-25.417   c-0.559,0.357-0.953,0.922-1.096,1.569c-3.203,14.555-10.73,27.592-21.771,37.7c-1.018,0.933-1.088,2.512-0.156,3.53   c84.158,91.965,81.415,90.61,84.075,88.171c30.057-27.52,50.548-62.991,59.256-102.577   C448.235,296.964,447.383,295.632,446.037,295.335z"/>
</g>
<path style="fill:#2B2A27;" d="M320.62,288.197c-3.917,7.841-9.253,14.942-15.858,20.99c-1.018,0.933-1.088,2.512-0.156,3.53  c84.157,91.965,81.415,90.61,84.075,88.171c6.379-5.841,12.323-12.043,17.819-18.564C392.32,366.988,366.934,338.851,320.62,288.197  z"/>
<path style="fill:#454545;" d="M233.43,187.274c24.879-8.18,44.583,0.126,45.917,0.126c1.086,0,2.054-0.704,2.383-1.746  l35.965-113.801c0.415-1.313-0.31-2.712-1.619-3.133c-38.045-12.201-80.303-12.78-120.154,0c-1.311,0.421-2.034,1.82-1.619,3.133  C231.867,190.713,229.963,188.415,233.43,187.274z"/>
<g>
	<path style="fill:#2B2A27;" d="M223.732,62.007c-9.416,1.558-18.707,3.793-27.812,6.713c-1.311,0.421-2.034,1.82-1.619,3.133   c37.564,118.86,35.662,116.562,39.129,115.421c7.124-2.342,14.571-3.532,22.026-3.588L223.732,62.007z"/>
	<path style="fill:#2B2A27;" d="M103.579,380.167c6.057,7.376,12.638,14.305,19.718,20.729c1.02,0.925,2.594,0.852,3.523-0.164   c86.101-94.089,81.3-88.316,81.223-89.859c-0.034-0.668-0.331-1.293-0.83-1.738c-5.59-4.998-10.345-10.852-14.12-17.28   L103.579,380.167z"/>
</g>
<path style="fill:#454545;" d="M234.694,212.43c-23.968,11.748-33.91,40.804-22.162,64.773  c11.748,23.969,40.804,33.912,64.773,22.164c23.969-11.747,33.91-40.804,22.163-64.773  C287.719,210.624,258.662,200.682,234.694,212.43z"/>
<path style="fill:#2B2A27;" d="M234.972,266.204c-9.847-20.089-4.45-43.747,11.665-57.797  c-31.357,6.167-48.001,40.446-34.106,68.796c11.748,23.969,40.804,33.912,64.773,22.164c3.879-1.9,7.385-4.263,10.496-6.976  C266.824,296.52,244.818,286.293,234.972,266.204z"/>
<path d="M330.43,36.035C180.107-14.993,23.896,97.567,23.896,255.898c0,127.982,104.12,232.104,232.102,232.104  s232.104-104.121,232.104-232.104c0-91.027-53.002-171.865-132.835-209.788c-3.738-1.775-8.212-0.187-9.989,3.556  c-1.776,3.74-0.186,8.212,3.556,9.989c75.494,35.861,124.273,112.891,124.273,196.243c0,119.714-97.395,217.109-217.109,217.109  c-119.713,0-217.107-97.395-217.107-217.109c0-147.863,145.899-253.461,286.718-205.665c3.924,1.333,8.179-0.769,9.51-4.688  C336.451,41.623,334.351,37.365,330.43,36.035z"/>
<path d="M255.998,0C114.562,0,0.102,114.451,0.102,255.898c0,174.886,170.798,296.947,335.393,243.369  c3.937-1.282,6.091-5.513,4.808-9.45c-1.282-3.938-5.518-6.089-9.45-4.809c-155.227,50.531-315.757-64.82-315.757-229.11  c0-133.147,107.742-240.903,240.901-240.903c133.148,0,240.904,107.745,240.904,240.903c0,64.346-25.058,124.843-70.559,170.344  c-21.529,21.53-46.394,38.541-73.905,50.561c-3.795,1.658-5.526,6.078-3.868,9.873c1.656,3.794,6.077,5.523,9.872,3.869  c29.233-12.774,55.645-30.841,78.505-53.699c48.333-48.334,74.951-112.596,74.951-180.948C511.898,114.463,397.446,0,255.998,0z"/>
<path d="M255.998,202.491c-29.448,0-53.406,23.958-53.406,53.407s23.958,53.408,53.406,53.408c29.449,0,53.407-23.959,53.407-53.408  S285.448,202.491,255.998,202.491z M255.998,294.31c-21.18,0-38.411-17.231-38.411-38.413c0-21.181,17.231-38.412,38.411-38.412  c21.181,0,38.412,17.231,38.412,38.412C294.411,277.079,277.179,294.31,255.998,294.31z"/>
<path d="M310.146,112.325l12.315-38.966c1.244-3.937-0.929-8.138-4.858-9.398c-39.099-12.541-82.426-13.08-123.207,0  c-3.931,1.261-6.103,5.462-4.859,9.398l12.315,38.967c-67.079,25.239-109.681,95.011-97.112,169.32l-39.857,8.808  c-4.04,0.894-6.594,4.89-5.704,8.932c8.93,40.594,29.941,76.969,60.762,105.19c3.051,2.795,7.799,2.587,10.594-0.468l27.541-30.094  c56.695,47.063,139.077,47.127,195.848,0c29.849,32.618,28.601,32.341,32.74,32.522c1.874,0.1,3.874-0.569,5.393-1.96  c30.821-28.219,51.833-64.592,60.764-105.19c0.889-4.042-1.664-8.038-5.705-8.932l-39.857-8.808  C419.755,207.809,377.657,137.726,310.146,112.325z M305.868,76.102l-31.488,99.64c-12.082-2.772-24.67-2.773-36.761-0.001  c-4.538-14.359-26.925-85.193-31.489-99.639C238.642,67.099,273.341,67.095,305.868,76.102z M124.635,388.344  c-23.793-23.568-40.608-52.666-49.057-84.896c12.239-2.705,92.194-20.373,102.069-22.556c3.48,10.964,9.312,21.346,17.536,30.362  C139.164,372.467,155.979,354.092,124.635,388.344z M168.209,362.938l42.87-46.844c2.795-3.055,2.585-7.795-0.468-10.591  c-10.277-9.41-17.284-21.545-20.264-35.09c-0.889-4.04-4.885-6.602-8.94-5.71l-62.014,13.704  c-10.593-64.766,25.263-128.165,86.979-151.782c20.796,65.802,19.13,63.034,22.86,64.946c1.753,0.899,3.828,1.086,5.761,0.45  c24.473-8.044,41.455,0.856,45.402,0.294c2.903-0.408,5.242-2.435,6.103-5.157l19.132-60.534  c61.766,23.635,97.575,87.08,86.979,151.782l-62.014-13.704c-0.486-0.107-0.977-0.165-1.467-0.175  c-1.47-0.029-2.929,0.374-4.187,1.177c-1.676,1.071-2.859,2.765-3.287,4.708c-0.745,3.386-1.741,6.684-2.978,9.873  c-3.71,9.568-9.578,18.157-17.287,25.215c-2.48,2.271-3.084,5.827-1.723,8.719c0.314,0.668,0.732,1.3,1.257,1.872l42.87,46.847  C292.869,404.757,219.246,404.854,168.209,362.938z M387.362,388.344c-8.395-9.174-63.724-69.636-70.547-77.092  c8.002-8.77,13.955-19.077,17.537-30.36c42.199,9.326,96.2,21.259,102.069,22.556C427.97,335.678,411.155,364.775,387.362,388.344z"/>
<g>
</g>
<g>
</g>
<g>
</g>
<g>
</g>
<g>
</g>
<g>
</g>
<g>
</g>
<g>
</g>
<g>
</g>
<g>
</g>
<g>
</g>
<g>
</g>
<g>
</g>
<g>
</g>
<g>
</g>
</svg>
