<?xml version="1.0" encoding="iso-8859-1"?>
<!-- Generator: Adobe Illustrator 19.0.0, SVG Export Plug-In . SVG Version: 6.00 Build 0)  -->
<svg xmlns="http://www.w3.org/2000/svg" xmlns:xlink="http://www.w3.org/1999/xlink" version="1.1" id="Capa_1" x="0px" y="0px" viewBox="0 0 512 512" style="enable-background:new 0 0 512 512;" xml:space="preserve">
<path style="fill:#454545;" d="M217.631,318.14c31.271,0,56.711-25.44,56.711-56.711v-14.845h-25.001v14.845  c0,17.485-14.226,31.71-31.71,31.71h-58.315l-8.535,24.755C154.522,318.233,150.479,318.14,217.631,318.14z"/>
<path style="fill:#6F6F6F;" d="M493.02,139.107h-18.503c0.277,1.012,0.439,2.072,0.439,3.172c0,53.765,0.159,50.169-0.413,52.32  h18.477c6.341,0,11.48-5.139,11.48-11.48v-32.53C504.5,144.248,499.361,139.107,493.02,139.107z"/>
<path style="fill:#4B4D4F;" d="M493.02,166.853h-18.064c0,27.169,0.138,25.675-0.413,27.746h18.477c6.341,0,11.48-5.139,11.48-11.48  v-27.746C504.5,161.715,499.361,166.853,493.02,166.853z"/>
<path style="fill:#6F6F6F;" d="M439.629,94.579h-1c-6.627,0-12,5.373-12,12v25.759h25.001v-25.759  C451.63,99.952,446.256,94.579,439.629,94.579z"/>
<path style="fill:#514F4C;" d="M445.379,96.046c-1.708-0.935-3.667-1.467-5.75-1.467h-1c-6.627,0-12,5.373-12,12v25.759h12.5  v-25.759C439.129,102.036,441.655,98.083,445.379,96.046z"/>
<path style="fill:#6F6F6F;" d="M66.075,201.474c0.694,0.724,1.403,1.434,2.139,2.115c-0.003,0.009-57.334,166.269-57.337,166.277  c-0.531,1.543-16.047,47.555,24.068,47.555c8.372,0,80.843,0,93.54,0c6.596,0,11.941-5.346,11.941-11.941v-20.565  c0-4.834-2.879-8.988-7.01-10.867l43.263-125.463h227.265c2.919-0.104,10.7-1.055,15.297-7.997l24.56-37.111  c24.028,0,24.962,0.574,28.826-2H66.075V201.474z"/>
<path style="fill:#514F4C;" d="M37.885,369.846c0.002-0.004,57.329-166.252,57.33-166.256c-0.736-0.682-1.445-1.392-2.139-2.115  H66.075c0.694,0.724,1.403,1.434,2.139,2.115C68.211,203.6,10.88,369.859,10.877,369.867c-0.531,1.543-16.047,47.555,24.068,47.555  h27.001C34.492,417.422,29.906,394.706,37.885,369.846z"/>
<path style="fill:#C2C2C2;" d="M133.324,248.584c-4.222,0-7.989,2.651-9.414,6.626L86.411,359.819  c-2.335,6.511,2.505,13.374,9.414,13.374h37.887l42.968-124.609L133.324,248.584L133.324,248.584z"/>
<path style="fill:#9B9FA3;" d="M111.778,359.819l37.499-104.609c1.425-3.975,5.192-6.626,9.414-6.626h-25.367  c-4.222,0-7.989,2.651-9.414,6.626L86.411,359.819c-2.335,6.511,2.505,13.374,9.414,13.374h25.367  C114.272,373.193,109.447,366.321,111.778,359.819z"/>
<path style="fill:#C2C2C2;" d="M477.956,191.533v-49.254c0-6.596-5.347-11.941-11.941-11.941H136.992  c-31.783-30.293-84.908-7.871-84.908,36.372c0,14.52,6.166,27.591,16.011,36.765c21.763,0,387.578,0,397.92,0  C472.61,203.475,477.956,198.129,477.956,191.533z"/>
<path style="fill:#9B9FA3;" d="M115.326,118.17c-32.034-8.562-63.241,15.649-63.241,48.541c0,14.52,6.166,27.591,16.011,36.765  h26.001C65.258,176.601,77.24,128.354,115.326,118.17z"/>
<circle style="fill:#EDEDED;" cx="100.534" cy="163.376" r="19.914"/>
<path style="fill:#D6D6D6;" d="M110.488,146.145c-2.931-1.698-6.325-2.686-9.957-2.686c-10.997,0-19.914,8.915-19.914,19.914  c0,10.998,8.916,19.914,19.914,19.914c3.631,0,7.025-0.987,9.957-2.686C97.213,172.913,97.234,153.823,110.488,146.145z"/>
<path d="M74.116,165.426c0,15.116,12.297,27.414,27.413,27.414c15.117,0,27.415-12.298,27.415-27.414s-12.298-27.414-27.415-27.414  S74.116,150.31,74.116,165.426z M113.944,165.426c0,6.845-5.569,12.413-12.414,12.413c-6.844,0-12.412-5.568-12.412-12.413  c0-6.845,5.568-12.413,12.412-12.413C108.373,153.013,113.944,158.581,113.944,165.426z"/>
<path d="M148.119,156.186v23.335c0,4.143,3.357,7.5,7.5,7.5s7.5-3.357,7.5-7.5v-23.335c0-4.143-3.357-7.5-7.5-7.5  S148.119,152.044,148.119,156.186z"/>
<path d="M172.454,156.186v23.335c0,4.143,3.357,7.5,7.5,7.5c4.143,0,7.5-3.357,7.5-7.5v-23.335c0-4.143-3.357-7.5-7.5-7.5  C175.811,148.686,172.454,152.044,172.454,156.186z"/>
<path d="M196.787,156.186v23.335c0,4.143,3.357,7.5,7.5,7.5c4.143,0,7.5-3.357,7.5-7.5v-23.335c0-4.143-3.357-7.5-7.5-7.5  C200.144,148.686,196.787,152.044,196.787,156.186z"/>
<path d="M221.121,156.186v23.335c0,4.143,3.357,7.5,7.5,7.5c4.143,0,7.5-3.357,7.5-7.5v-23.335c0-4.143-3.357-7.5-7.5-7.5  C224.479,148.686,221.121,152.044,221.121,156.186z"/>
<path d="M493.019,132.607h-10.771c-6.518-9.881-16.176-8.77-23.118-8.77v-18.259c0-10.752-8.748-19.501-19.501-19.501  c-12.885,0-20.501,9.556-20.501,19.501v18.259h-22.376c-4.143,0-7.5,3.358-7.5,7.5c0,4.143,3.357,7.5,7.5,7.5  c13.397,0,55.494,0,69.262,0c2.07,0,3.798,1.429,4.289,3.348c0.081,0.318,0.152,0.766,0.152,1.094  c0,50.253,0.106,49.341-0.15,50.341c-0.488,1.922-2.219,3.354-4.291,3.354c-11.72,0-374.806,0-394.813,0  c-7.41-7.895-11.617-18.396-11.617-29.265c0-23.573,19.18-42.752,42.753-42.752c11.021,0,21.49,4.193,29.48,11.808  c3.177,3.028-11.845,2.071,237.929,2.071c4.143,0,7.5-3.357,7.5-7.5s-3.357-7.5-7.5-7.5H139.876  c-37.336-32.012-95.292-5.287-95.292,43.873c0,14.361,5.422,28.257,15.022,38.835L3.801,368.379  c-0.005,0.014-0.01,0.026-0.014,0.039c-0.004,0.013-0.009,0.024-0.013,0.036c-1.029,3.001-9.249,28.481,2.402,44.817  c5.987,8.395,15.667,12.651,28.768,12.651h93.54c10.72,0,19.442-8.722,19.442-19.442v-20.565c0-5.188-2.087-10.071-5.616-13.65  l15.733-45.625h59.588c35.406,0,64.211-28.805,64.211-64.211v-5.344h132.106c2.517,0,4.865-1.262,6.255-3.361l27.628-41.747h18.184  c6.823,0,12.826-3.542,16.297-8.875h10.708c10.466,0,18.981-8.515,18.981-18.981v-32.53  C512.001,141.122,503.485,132.607,493.019,132.607z M434.129,123.838v-18.259c0-2.481,2.019-4.5,4.5-4.5h1  c2.482,0,4.5,2.019,4.5,4.5v18.259C444.129,123.838,434.129,123.838,434.129,123.838z M185.731,257.084l21.897,20.654  c1.449,1.366,3.299,2.044,5.145,2.044c1.992,0,3.981-0.79,5.457-2.354c2.842-3.014,2.703-7.76-0.31-10.603l-10.327-9.741h34.247  v5.344c0,13.349-10.86,24.21-24.21,24.21h-45.795l10.191-29.554h3.704V257.084z M266.841,262.429  c0,27.135-22.076,49.211-49.211,49.211h-54.415l3.448-10h50.967c21.621,0,39.21-17.59,39.21-39.21v-5.344h10V262.429z   M126.285,242.084c-3.166,0-5.991,1.988-7.06,4.969l-9.545,26.625c-1.398,3.899,0.63,8.193,4.528,9.591  c0.837,0.3,1.69,0.442,2.531,0.442c3.077,0,5.962-1.908,7.06-4.971l7.764-21.656h34.596l-37.796,109.609H92.272l23.183-64.671  c1.397-3.898-0.631-8.192-4.53-9.591c-3.895-1.397-8.191,0.63-9.591,4.53l-26.778,74.703c-1.751,4.884,1.88,10.03,7.06,10.03h48.343  c3.956,2.057,2.967,2.191,2.967,24.786c0,2.449-1.992,4.441-4.441,4.441H34.945c-8.086,0-13.502-2.081-16.557-6.362  c-6.186-8.672-2.4-25.498-0.42-31.25c0.004-0.012,0.009-0.025,0.013-0.039L73.6,211.975h356.244l-19.926,30.108  C399.022,242.084,128.529,242.084,126.285,242.084z M497,184.119c0,2.195-1.785,3.98-3.98,3.98h-7.563v-40.491h7.563  c2.195,0,3.98,1.785,3.98,3.98V184.119z"/>
<g>
</g>
<g>
</g>
<g>
</g>
<g>
</g>
<g>
</g>
<g>
</g>
<g>
</g>
<g>
</g>
<g>
</g>
<g>
</g>
<g>
</g>
<g>
</g>
<g>
</g>
<g>
</g>
<g>
</g>
</svg>
