<?xml version="1.0" encoding="iso-8859-1"?>
<!-- Generator: Adobe Illustrator 19.0.0, SVG Export Plug-In . SVG Version: 6.00 Build 0)  -->
<svg xmlns="http://www.w3.org/2000/svg" xmlns:xlink="http://www.w3.org/1999/xlink" version="1.1" id="Capa_1" x="0px" y="0px" viewBox="0 0 512 512" style="enable-background:new 0 0 512 512;" xml:space="preserve">
<g>
	<path style="fill:#FF4D56;" d="M197.227,305.583h-3.836c-3.218,0-139.536,0-142.424,0c-24.005,0-43.465,19.46-43.465,43.464v16.296   c0,24.005,19.46,43.464,43.465,43.464c3.163,0,131.482,0,146.26,0V305.583z"/>
	<path style="fill:#FF4D56;" d="M461.034,305.583c-5.137,0-136.644,0-146.467,0v103.225c7.114,0,138.577,0,146.467,0   c24.005,0,43.465-19.459,43.465-43.464v-16.296C504.5,325.043,485.039,305.583,461.034,305.583z"/>
</g>
<g>
	<path style="fill:#D12451;" d="M197.227,383.807c-5.695,0-135.206,0-146.26,0c-22.536,0-41.064-17.15-43.248-39.111   C7.432,347.56,7.5,347.619,7.5,365.344c0,24.005,19.46,43.464,43.465,43.464c3.163,0,131.482,0,146.26,0v-25.001H197.227z"/>
	<path style="fill:#D12451;" d="M504.283,344.696c-2.184,21.961-20.712,39.111-43.248,39.111c-5.101,0-136.664,0-146.467,0v25.001   c7.114,0,138.577,0,146.467,0c24.005,0,43.465-19.459,43.465-43.464v-16.296C504.5,347.58,504.425,346.127,504.283,344.696z"/>
</g>
<g>
	<path style="fill:#FF4D56;" d="M197.227,203.361c-4.511,0-136.024,0-146.26,0c-24.005,0-43.465,19.459-43.465,43.463v16.296   c0,24.005,19.46,43.464,43.465,43.464c4.088,0,133.687,0,142.424,0h3.836V203.361z"/>
	<path style="fill:#FF4D56;" d="M461.034,203.361c-7.782,0-139.552,0-146.467,0v103.224c6.923,0,138.743,0,146.467,0   c24.005,0,43.465-19.459,43.465-43.464v-16.296C504.5,222.82,485.039,203.361,461.034,203.361z"/>
</g>
<g>
	<path style="fill:#D12451;" d="M197.227,281.582c-4.511,0-136.024,0-146.26,0c-22.536,0-41.064-17.15-43.248-39.111   c-0.282,2.827-0.217,2.795-0.217,20.649c0,24.005,19.46,43.464,43.465,43.464c4.088,0,133.687,0,142.424,0h3.836V281.582z"/>
	<path style="fill:#D12451;" d="M504.283,242.471c-2.184,21.961-20.712,39.111-43.248,39.111H346.577c-34.679,0-26.211,0-32.01,0   v25.001c6.923,0,138.743,0,146.467,0c24.005,0,43.465-19.459,43.465-43.464v-16.295C504.5,245.355,504.425,243.903,504.283,242.471   z"/>
</g>
<g>
	<path style="fill:#FF4D56;" d="M197.227,101.136c-6.514,0-138.782,0-146.26,0c-24.005,0-43.465,19.459-43.465,43.464v16.295   c0,24.005,19.46,43.465,43.465,43.465h104.402c12.883,0,19.258,0,41.857,0V101.136H197.227z"/>
	<path style="fill:#FF4D56;" d="M461.034,101.136c-7.481,0-139.543,0-146.467,0v103.225c6.965,0,139.038,0,146.467,0   c24.005,0,43.465-19.46,43.465-43.465V144.6C504.5,120.595,485.039,101.136,461.034,101.136z"/>
</g>
<g>
	<path style="fill:#D12451;" d="M504.283,140.247c-2.184,21.96-20.712,39.111-43.248,39.111c-7.496,0-139.607,0-146.467,0v25.001   c6.965,0,139.038,0,146.467,0c24.005,0,43.465-19.46,43.465-43.465C504.5,142.999,504.564,143.08,504.283,140.247z"/>
	<path style="fill:#D12451;" d="M197.227,179.359c-6.332,0-139.122,0-146.26,0c-22.536,0-41.064-17.151-43.248-39.111   c-0.281,2.833-0.217,2.753-0.217,20.647c0,24.005,19.46,43.465,43.465,43.465h104.402c12.883,0,19.258,0,41.857,0v-25.001H197.227z   "/>
</g>
<path style="fill:#FFD589;" d="M304.222,88.75h-96.444c-7.945,0-14.388,6.441-14.388,14.388c0,1.975,0,200.932,0,202.887  c0,12.316,0,91.25,0,102.838c0,7.945,6.441,14.388,14.388,14.388h96.444c7.945,0,14.388-6.441,14.388-14.388  c0-30.752,0-272.8,0-305.724C318.61,95.191,312.169,88.75,304.222,88.75z"/>
<path style="fill:#F4AA4A;" d="M221.331,88.75v34.525c0,11.862,0,290.1,0,299.974h69.338c0-4.367,0-328.221,0-334.499  C290.668,88.75,221.331,88.75,221.331,88.75z"/>
<path style="fill:#E28C24;" d="M221.331,88.75v34.525c0,11.862,0,290.1,0,299.974h34.669c0-13.273,0-229.677,0-239.538  c0-9.694,0-79.33,0-94.961H221.331z"/>
<path style="fill:#6F6F6F;" d="M256.001,336.192c-44.219,0-80.194-35.974-80.194-80.193s35.975-80.193,80.194-80.193  c44.217,0,80.193,35.974,80.193,80.193C336.193,300.218,300.218,336.192,256.001,336.192z"/>
<path style="fill:#5B5A59;" d="M226.172,234.748c0-25.022,13.524-46.935,33.639-58.844c-1.263-0.06-2.532-0.097-3.81-0.097  c-44.219,0-80.194,35.974-80.194,80.193s35.975,80.193,80.194,80.193c29.855,0,55.932-16.411,69.736-40.674  C280.274,318.965,226.172,285.641,226.172,234.748z"/>
<path style="fill:#F5F6F7;" d="M255.998,205.905c-27.623,0-50.094,22.473-50.094,50.096c0,27.623,22.472,50.096,50.094,50.096  c27.626,0,50.097-22.473,50.097-50.096C306.095,228.378,283.624,205.905,255.998,205.905z"/>
<path style="fill:#EAEAEA;" d="M226.172,234.748c0-7.432,1.209-14.583,3.412-21.287c-14.203,8.852-23.679,24.605-23.679,42.538  c0,27.623,22.472,50.096,50.094,50.096c7.85,0,15.284-1.819,21.904-5.052C248.222,293.602,226.172,266.705,226.172,234.748z"/>
<path d="M512,159.895V143.6c0-28.103-22.863-50.965-50.966-50.965H323.419c-3.723-6.779-10.932-11.386-19.197-11.386  c-16.518,0-85.246,0-96.444,0c-8.265,0-15.474,4.606-19.197,11.386H50.966C22.863,92.635,0,115.498,0,143.6v16.295  c0,18.368,9.771,34.495,24.384,43.465C9.771,212.33,0,228.456,0,246.824v16.296c0,18.368,9.771,34.494,24.384,43.464  C9.771,315.554,0,331.68,0,350.048v16.296c0,28.103,22.863,50.965,50.966,50.965h136.621c3.312,7.887,11.115,13.442,20.191,13.442  c16.518,0,85.246,0,96.444,0c9.077,0,16.879-5.554,20.191-13.442h136.621c28.103,0,50.966-22.862,50.966-50.965v-16.296  c0-18.368-9.771-34.494-24.384-43.464C502.229,297.613,512,281.487,512,263.119v-16.295c0-18.368-9.771-34.494-24.384-43.463  C502.229,194.389,512,178.263,512,159.895z M269.499,327.415c-95.901,18.117-119.161-123.059-28.786-142.475  C336.357,164.336,364.997,309.42,269.499,327.415z M311.11,103.138v84.688c-3.788-3.078-8.419-6.213-12.941-8.703V96.25h6.053  C308.032,96.25,311.11,99.361,311.11,103.138z M283.168,96.25v76.364c-18.008-5.922-37.428-5.553-54.337,0V96.25  C228.831,96.25,283.168,96.25,283.168,96.25z M207.778,96.25h6.053v82.872c-4.61,2.538-9.253,5.707-12.94,8.703  c0-90.628-0.074-85.037,0.154-86.126C201.707,98.591,204.474,96.25,207.778,96.25z M15.001,159.895V143.6  c0-19.83,16.134-35.964,35.965-35.964H185.89v88.224H50.966C31.135,195.86,15.001,179.726,15.001,159.895z M15.001,263.119v-16.295  c0-19.83,16.134-35.963,35.965-35.963h129.878c-16.297,27.031-16.705,60.852-1.199,88.223H50.966  C31.135,299.083,15.001,282.95,15.001,263.119z M15.001,366.344v-16.296c0-19.83,16.134-35.964,35.965-35.964H185.89v88.224H50.966  C31.135,402.308,15.001,386.174,15.001,366.344z M200.89,408.862v-84.688c3.599,2.924,8.236,6.113,12.94,8.703v82.872h-6.053  C204.342,415.75,201.112,413.226,200.89,408.862z M228.831,415.75v-76.364c18.005,5.91,37.437,5.554,54.337,0v76.364H228.831z   M304.222,415.75h-6.053v-82.872c4.525-2.492,9.158-5.629,12.941-8.703v84.651l-0.034,0.518c-0.005,0.076,0,0.152-0.003,0.228  C310.717,413.036,307.779,415.75,304.222,415.75z M496.999,350.048v16.296c0,19.83-16.134,35.964-35.965,35.964H326.11v-88.224  h134.924C480.865,314.084,496.999,330.218,496.999,350.048z M496.999,246.824v16.296c0,19.83-16.134,35.964-35.965,35.964H332.356  c15.37-27.133,15.24-60.954-1.2-88.223h129.878C480.865,210.861,496.999,226.993,496.999,246.824z M496.999,159.895  c0,19.831-16.134,35.965-35.965,35.965H326.11v-88.224h134.924c19.831,0,35.965,16.134,35.965,35.964V159.895z"/>
<path d="M255.998,198.404c-31.758,0-57.595,25.837-57.595,57.596s25.837,57.596,57.595,57.596c31.759,0,57.597-25.837,57.597-57.596  S287.757,198.404,255.998,198.404z M255.998,298.595c-23.486,0-42.594-19.108-42.594-42.595c0-23.486,19.107-42.595,42.594-42.595  c23.487,0,42.596,19.108,42.596,42.595S279.487,298.595,255.998,298.595z"/>
<path d="M274.768,248.499h-11.269v-19.68c0-4.143-3.357-7.5-7.5-7.5c-4.143,0-7.5,3.357-7.5,7.5v27.181c0,4.143,3.357,7.5,7.5,7.5  h18.769c4.143,0,7.5-3.357,7.5-7.5C282.268,251.857,278.911,248.499,274.768,248.499z"/>
<g>
</g>
<g>
</g>
<g>
</g>
<g>
</g>
<g>
</g>
<g>
</g>
<g>
</g>
<g>
</g>
<g>
</g>
<g>
</g>
<g>
</g>
<g>
</g>
<g>
</g>
<g>
</g>
<g>
</g>
</svg>
