<?xml version="1.0" encoding="iso-8859-1"?>
<!-- Generator: Adobe Illustrator 19.0.0, SVG Export Plug-In . SVG Version: 6.00 Build 0)  -->
<svg xmlns="http://www.w3.org/2000/svg" xmlns:xlink="http://www.w3.org/1999/xlink" version="1.1" id="Capa_1" x="0px" y="0px" viewBox="0 0 512 512" style="enable-background:new 0 0 512 512;" xml:space="preserve">
<path style="fill:#D6D6D6;" d="M296.667,321.42H437.34c7.121,0,13.981,1.119,20.423,3.171L195.317,62.145  c-6.542-6.54-17.146-6.54-23.688,0l-3.619,3.62c-35.069,35.068-35.067,91.929,0,126.994L296.667,321.42z"/>
<path style="fill:#C1C0BF;" d="M296.667,321.42h55.052L192.315,162.015c-25.629-25.629-34.274-61.809-25.949-94.562  c-33.416,35.181-32.867,90.8,1.643,125.308L296.667,321.42z"/>
<path style="fill:#6F6F6F;" d="M504.502,387.584c0,37.096-30.07,67.163-67.162,67.163H74.66c-37.094,0-67.162-30.067-67.162-67.163  l0,0c0-37.098,30.07-67.163,67.162-67.163H437.34C474.432,320.42,504.502,350.486,504.502,387.584L504.502,387.584z"/>
<path style="fill:#5B5B5A;" d="M38.334,387.584c0-37.098,30.07-67.163,67.162-67.163H74.66c-37.093,0-67.162,30.066-67.162,67.163  c0,37.096,30.07,67.163,67.162,67.163h30.836C68.403,454.746,38.334,424.68,38.334,387.584z"/>
<path style="fill:#454545;" d="M378.469,387.934c0,12.061-9.777,21.837-21.837,21.837H80.385c-12.06,0-21.837-9.775-21.837-21.837  l0,0c0-12.062,9.777-21.837,21.837-21.837h276.247C368.693,366.098,378.469,375.873,378.469,387.934L378.469,387.934z"/>
<path style="fill:#302E2D;" d="M95.039,387.934c0-12.062,9.777-21.837,21.837-21.837H80.385c-12.06,0-21.837,9.775-21.837,21.837  c0,12.061,9.777,21.837,21.837,21.837h36.491C104.816,409.77,95.039,399.996,95.039,387.934z"/>
<circle style="fill:#D6D6D6;" cx="443.85" cy="387.584" r="20.389"/>
<path style="fill:#C1C0BF;" d="M441.321,367.367c-15.559,1.928-23.196,20.03-13.727,32.528c9.459,12.488,28.956,10.064,35.029-4.407  C447.038,397.42,435.249,381.827,441.321,367.367z"/>
<path d="M443.846,360.197c-15.377,0-27.888,12.511-27.888,27.888c0,15.377,12.511,27.888,27.888,27.888  c15.377,0,27.888-12.511,27.888-27.888C471.734,372.706,459.223,360.197,443.846,360.197z M443.846,400.975  c-7.108,0-12.892-5.783-12.892-12.892c0-7.108,5.783-12.892,12.892-12.892c7.108,0,12.892,5.783,12.892,12.892  C456.738,395.192,450.954,400.975,443.846,400.975z"/>
<path d="M461.852,317.577L264.248,119.973c-2.929-2.927-7.677-2.927-10.604,0c-2.928,2.929-2.928,7.676,0,10.604l182.845,182.845  h-81.663l-157.209-157.21c-22.262-22.261-31.523-54.861-24.434-85.509c2.137-2.145-3.056,3.051,3.747-3.755  c3.608-3.605,9.479-3.606,13.085,0l46.011,46.01c2.928,2.927,7.676,2.927,10.603,0c2.928-2.929,2.928-7.676,0-10.604l-46.011-46.01  c-9.455-9.453-24.837-9.452-34.292,0.001c-3.994,3.995-4.255,4.244-5.412,5.462c-36.078,37.988-35.738,98.228,1.793,135.757  l115.858,115.858H74.66C33.493,313.422,0,346.915,0,388.084s33.493,74.661,74.66,74.661H437.34c41.168,0,74.66-33.493,74.66-74.661  C512,355.501,491.012,327.745,461.852,317.577z M173.311,186.959c-24.648-24.648-30.342-60.898-17.358-90.888  c1.196,26.288,12.064,51.75,31.059,70.746l146.606,146.606h-33.846L173.311,186.959z M437.34,447.749H74.66  c-32.899,0-59.664-26.766-59.664-59.665s26.765-59.665,59.664-59.665c10.516,0,352.6,0,362.679,0  c32.83,0,59.664,26.704,59.664,59.665C497.004,420.982,470.238,447.749,437.34,447.749z"/>
<path d="M356.634,359.1h-36.315c-4.142,0-7.498,3.356-7.498,7.498c0,4.141,3.356,7.498,7.498,7.498h36.315  c7.906,0,14.338,6.432,14.338,14.338c0,7.906-6.432,14.338-14.338,14.338H80.385c-7.906,0-14.338-6.432-14.338-14.338  c0-7.906,6.432-14.338,14.338-14.338h211.605c4.142,0,7.498-3.357,7.498-7.498c0-4.142-3.356-7.498-7.498-7.498H80.385  c-16.175,0-29.335,13.16-29.335,29.335c0,16.175,13.16,29.335,29.335,29.335h276.247c16.175,0,29.335-13.16,29.335-29.335  C385.967,372.26,372.807,359.1,356.634,359.1z"/>
<g>
</g>
<g>
</g>
<g>
</g>
<g>
</g>
<g>
</g>
<g>
</g>
<g>
</g>
<g>
</g>
<g>
</g>
<g>
</g>
<g>
</g>
<g>
</g>
<g>
</g>
<g>
</g>
<g>
</g>
</svg>
