<?xml version="1.0" encoding="iso-8859-1"?>
<!-- Generator: Adobe Illustrator 19.0.0, SVG Export Plug-In . SVG Version: 6.00 Build 0)  -->
<svg xmlns="http://www.w3.org/2000/svg" xmlns:xlink="http://www.w3.org/1999/xlink" version="1.1" id="Capa_1" x="0px" y="0px" viewBox="0 0 512 512" style="enable-background:new 0 0 512 512;" xml:space="preserve">
<g>
	<path style="fill:#99BA3E;" d="M394.67,356.733l-138.669,89.368l-138.669-89.368c-3.986-2.57-9.251,0.301-9.251,5.043v53.333   c0,2.046,1.043,3.951,2.766,5.054l120.419,77.065c14.648,9.735,35.043,9.62,49.495-0.017l120.393-77.048   c1.723-1.103,2.766-3.008,2.766-5.054v-53.334C403.921,357.044,398.663,354.158,394.67,356.733z"/>
	<path style="fill:#99BA3E;" d="M394.67,230.502l-138.669,89.366l-138.669-89.366c-3.985-2.57-9.251,0.301-9.251,5.043v53.334   c0,2.046,1.043,3.951,2.766,5.054l120.417,77.063c14.62,9.715,35.011,9.643,49.498-0.016l120.393-77.049   c1.723-1.103,2.766-3.008,2.766-5.054v-53.333C403.921,230.794,398.646,227.935,394.67,230.502z"/>
</g>
<g>
	<path style="fill:#779300;" d="M401.155,388.639l-120.393,77.048c-14.456,9.638-34.85,9.75-49.495,0.017l-120.419-77.065   c-1.723-1.103-2.766-3.008-2.766-5.054v31.525c0,2.046,1.043,3.951,2.766,5.054l120.419,77.065   c14.648,9.735,35.043,9.62,49.495-0.017l120.393-77.048c1.723-1.103,2.766-3.008,2.766-5.054v-31.525   C403.921,385.63,402.878,387.536,401.155,388.639z"/>
	<path style="fill:#779300;" d="M401.155,262.406l-120.393,77.049c-14.486,9.658-34.877,9.732-49.498,0.016l-120.417-77.064   c-1.723-1.103-2.766-3.008-2.766-5.054v31.525c0,2.046,1.043,3.951,2.766,5.054l120.417,77.063   c14.62,9.715,35.011,9.643,49.498-0.016l120.393-77.049c1.723-1.103,2.766-3.008,2.766-5.054v-31.525   C403.921,259.399,402.878,261.304,401.155,262.406z"/>
</g>
<path style="fill:#FFD05C;" d="M315.331,215.033l-59.329-31.191l-59.327,31.191c-5.501,2.893-11.964-1.791-10.91-7.924  l11.331-66.064L149.099,94.26c-2.051-1.998-2.788-4.985-1.903-7.707c0.884-2.723,3.237-4.706,6.069-5.117l66.331-9.639  l29.663-60.105c1.266-2.566,3.879-4.191,6.741-4.191c2.862,0,5.476,1.625,6.743,4.191l29.662,60.105l66.331,9.639  c2.832,0.411,5.185,2.395,6.068,5.117c0.886,2.722,0.147,5.709-1.903,7.707l-47.996,46.785l11.333,66.064  c0.483,2.82-0.677,5.67-2.992,7.354C320.919,216.154,317.843,216.36,315.331,215.033z"/>
<path style="fill:#FFA645;" d="M210.451,200.108c0-0.002,10.311-60.117,10.311-60.119c0.89-5.191-1.627-8.442-2.629-9.501  l-0.391-0.381l-0.001-0.001l0,0l-43.956-42.847c-2.051-1.998-2.788-4.985-1.903-7.707c0.098-0.302,0.221-0.591,0.354-0.874  l-18.97,2.757c-2.832,0.411-5.186,2.395-6.069,5.117c-0.885,2.722-0.147,5.709,1.903,7.707l47.996,46.785l-11.331,66.064  c-1.052,6.127,5.401,10.822,10.91,7.924l15.873-8.345C210.841,204.98,210.034,202.536,210.451,200.108z"/>
<path d="M399.858,218.231l-54.348,35.025c-3.482,2.244-4.485,6.886-2.242,10.368c2.245,3.482,6.888,4.485,10.367,2.242  l42.784-27.573v49.76l-119.676,76.589c-0.04,0.025-0.079,0.052-0.118,0.078c-11.404,7.604-28.166,8.502-41.368-0.078  l-119.676-76.588v-49.761l136.357,87.877c2.473,1.594,5.652,1.594,8.125,0l69.947-45.078c3.483-2.244,4.485-6.886,2.242-10.368  c-2.244-3.482-6.888-4.485-10.367-2.242l-65.885,42.46l-143.857-92.711c-4.983-3.21-11.564,0.377-11.564,6.305v67.622  c0,2.558,1.303,4.938,3.457,6.317l123.074,78.763c17.083,11.358,40.643,11.391,57.775,0.001l123.076-78.765  c2.154-1.379,3.457-3.76,3.457-6.317v-67.621C411.422,218.611,404.839,215.016,399.858,218.231z"/>
<path d="M399.858,344.462l-54.348,35.024c-3.482,2.244-4.485,6.886-2.242,10.368c2.245,3.483,6.888,4.485,10.367,2.242  l42.784-27.573v49.76l-119.676,76.589c-0.04,0.025-0.079,0.052-0.118,0.078c-11.404,7.604-28.166,8.502-41.368-0.078  l-119.676-76.588v-49.761L251.939,452.4c2.473,1.594,5.652,1.594,8.125,0l69.947-45.078c3.483-2.244,4.485-6.886,2.242-10.368  c-2.244-3.482-6.888-4.485-10.367-2.242l-65.885,42.46l-143.857-92.711c-4.983-3.21-11.564,0.377-11.564,6.305v67.622  c0,2.558,1.303,4.938,3.457,6.317l123.074,78.763c17.083,11.358,40.643,11.391,57.775,0.001l123.076-78.765  c2.154-1.379,3.457-3.76,3.457-6.317v-67.621C411.422,344.84,404.839,341.247,399.858,344.462z"/>
<path d="M189.037,143.66l-10.664,62.176c-2.112,12.299,10.829,21.599,21.792,15.833l55.837-29.355l55.827,29.348  c10.969,5.791,23.914-3.517,21.804-15.824l-10.666-62.178l45.171-44.031c8.906-8.677,3.999-23.831-8.32-25.619l-62.429-9.072  L269.47,8.366c-5.509-11.157-21.433-11.154-26.936,0.002l-27.918,56.568l-62.428,9.072c-12.311,1.786-17.238,16.934-8.324,25.618  L189.037,143.66z M220.674,79.213c2.443-0.354,4.555-1.889,5.647-4.103l29.696-60.105L285.68,75.11  c1.093,2.214,3.204,3.748,5.647,4.103l66.339,9.67l-47.996,46.785c-1.768,1.724-2.574,4.206-2.156,6.639l11.325,66.081  c-0.004,0.003-0.006,0.004-0.012,0.004c-64.398-33.855-60.204-32.056-62.827-32.056c-1.198,0-2.398,0.287-3.49,0.861l-59.355,31.173  l11.331-66.064c0.418-2.433-0.389-4.915-2.156-6.639l-47.987-46.816L220.674,79.213z"/>
<g>
</g>
<g>
</g>
<g>
</g>
<g>
</g>
<g>
</g>
<g>
</g>
<g>
</g>
<g>
</g>
<g>
</g>
<g>
</g>
<g>
</g>
<g>
</g>
<g>
</g>
<g>
</g>
<g>
</g>
</svg>
