<?xml version="1.0" encoding="iso-8859-1"?>
<!-- Generator: Adobe Illustrator 19.0.0, SVG Export Plug-In . SVG Version: 6.00 Build 0)  -->
<svg xmlns="http://www.w3.org/2000/svg" xmlns:xlink="http://www.w3.org/1999/xlink" version="1.1" id="Capa_1" x="0px" y="0px" viewBox="0 0 512.001 512.001" style="enable-background:new 0 0 512.001 512.001;" xml:space="preserve">
<circle style="fill:#5C92E0;" cx="255.995" cy="256.006" r="163.63"/>
<path style="fill:#3A76BF;" d="M117.374,256.004c0-86.162,66.598-156.77,151.126-163.156  c-95.3-7.217-176.128,68.083-176.128,163.156c0,90.368,73.258,163.627,163.627,163.627c4.206,0,8.375-0.159,12.501-0.472  C183.973,412.774,117.374,342.166,117.374,256.004z"/>
<circle style="fill:#FFD05C;" cx="255.995" cy="256.006" r="95.686"/>
<path style="fill:#FFA645;" d="M185.313,256.004c0-48.61,36.248-88.75,83.188-94.875c-4.091-0.534-8.264-0.813-12.501-0.813  c-52.847,0-95.689,42.841-95.689,95.688s42.842,95.69,95.689,95.69c4.237,0,8.41-0.278,12.501-0.813  C221.56,344.755,185.313,304.613,185.313,256.004z"/>
<circle style="fill:#FF4D56;" cx="256.005" cy="256.006" r="33.012"/>
<path d="M366.715,386.702c38.551-32.614,60.662-80.254,60.662-130.701c0-94.361-76.768-171.127-171.127-171.127  S85.122,161.64,85.122,256c0,133.048,145.915,215.106,259.416,146.622c3.546-2.141,4.686-6.75,2.547-10.298  c-2.141-3.545-6.751-4.688-10.298-2.547C233.147,452.317,100.123,377.231,100.123,256c0-86.088,70.038-156.126,156.126-156.126  S412.376,169.912,412.376,256c0,46.025-20.174,89.49-55.349,119.249c-3.163,2.675-3.558,7.407-0.882,10.57  C358.822,388.983,363.554,389.38,366.715,386.702z"/>
<path d="M256.25,152.813c-56.899,0-103.189,46.29-103.189,103.188s46.29,103.19,103.189,103.19s103.189-46.291,103.189-103.19  C359.439,199.103,313.149,152.813,256.25,152.813z M256.25,344.189c-48.627,0-88.188-39.561-88.188-88.189  c0-48.626,39.561-88.187,88.188-88.187s88.188,39.561,88.188,88.187C344.438,304.628,304.876,344.189,256.25,344.189z"/>
<path d="M256.25,215.489c-22.338,0-40.512,18.174-40.512,40.512c0,22.339,18.174,40.513,40.512,40.513  c22.339,0,40.513-18.174,40.513-40.513C296.763,233.663,278.589,215.489,256.25,215.489z M256.25,281.513  c-14.067,0-25.512-11.445-25.512-25.513c0-14.067,11.444-25.512,25.512-25.512c14.068,0,25.513,11.444,25.513,25.512  S270.317,281.513,256.25,281.513z"/>
<path d="M504.5,248.5h-10.27c-2.094-66.733-32.045-129.512-82.924-173.206c-3.145-2.7-7.877-2.338-10.577,0.803  c-2.699,3.143-2.339,7.878,0.803,10.577c47.557,40.841,75.598,99.475,77.686,161.827h-10c-4.143,0-7.5,3.357-7.5,7.5  c0,4.143,3.357,7.5,7.5,7.5h10c-3.891,117.155-98.532,211.717-215.718,215.478v-9.759c0-4.143-3.357-7.5-7.5-7.5  c-4.143,0-7.5,3.357-7.5,7.5v9.74C131.544,474.945,37.166,380.489,33.281,263.5h9.499c4.142,0,7.5-3.357,7.5-7.5  c0-4.143-3.358-7.5-7.5-7.5h-9.498C37.167,131.512,131.545,37.056,248.5,33.041v9.739c0,4.143,3.357,7.5,7.5,7.5s7.5-3.357,7.5-7.5  v-9.766c42.09,1.346,82.547,14.388,117.428,37.937c3.431,2.318,8.094,1.414,10.413-2.02c2.318-3.433,1.414-8.095-2.02-10.413  C351.952,33.289,308.593,19.36,263.5,18.009V7.501c0-4.143-3.357-7.5-7.5-7.5c-4.143,0-7.5,3.357-7.5,7.5V18.03  C122.968,22.018,22.129,122.961,18.27,248.5H7.5c-4.143,0-7.5,3.357-7.5,7.5c0,4.143,3.357,7.5,7.5,7.5h10.77  c3.859,125.537,104.694,226.484,230.23,230.472V504.5c0,4.143,3.357,7.5,7.5,7.5s7.5-3.357,7.5-7.5v-10.51  c125.739-3.735,226.864-104.76,230.73-230.49h10.27c4.142,0,7.5-3.357,7.5-7.5C512,251.858,508.642,248.5,504.5,248.5z"/>
<g>
</g>
<g>
</g>
<g>
</g>
<g>
</g>
<g>
</g>
<g>
</g>
<g>
</g>
<g>
</g>
<g>
</g>
<g>
</g>
<g>
</g>
<g>
</g>
<g>
</g>
<g>
</g>
<g>
</g>
</svg>
