<?xml version="1.0" encoding="iso-8859-1"?>
<!-- Generator: Adobe Illustrator 19.0.0, SVG Export Plug-In . SVG Version: 6.00 Build 0)  -->
<svg xmlns="http://www.w3.org/2000/svg" xmlns:xlink="http://www.w3.org/1999/xlink" version="1.1" id="Capa_1" x="0px" y="0px" viewBox="0 0 511.999 511.999" style="enable-background:new 0 0 511.999 511.999;" xml:space="preserve">
<path style="fill:#664324;" d="M182.2,263.791L182.2,263.791c3.495,9.268,10.91,14.957,20.991,14.957h11.788l10.444-27.701h-48.029  L182.2,263.791z"/>
<path style="fill:#B25E30;" d="M168.309,227.965c0,0,0,0,0.001,0l9.083,24.084h48.029c7.599,0,13.76-6.161,13.76-13.759  c0-7.6-6.161-13.76-13.76-13.76H166.55C167.212,225.526,167.815,226.652,168.309,227.965z"/>
<path style="fill:#965123;" d="M223.04,238.289h-50.837l5.19,13.759h48.029c11.074,0,17.556-12.428,11.38-21.495  C233.965,235.187,228.872,238.289,223.04,238.289z"/>
<path style="fill:#454545;" d="M504.492,311.179v-90.308c0-6.025-4.882-10.908-10.907-10.908s-10.909,4.883-10.909,10.908v90.308  H504.492z"/>
<path style="fill:#2C2E30;" d="M499.039,211.435c-7.263-4.21-16.362,1.056-16.362,9.436v90.308h10.908v-90.308  C493.583,216.837,495.781,213.321,499.039,211.435z"/>
<path style="fill:#B25E30;" d="M151.154,217.814v-48.526c0-7.598-6.16-13.759-13.759-13.759s-13.759,6.161-13.759,13.759v48.526  C133.425,217.814,141.333,217.814,151.154,217.814z"/>
<path style="fill:#965123;" d="M144.275,157.385c-9.154-5.303-20.639,1.321-20.639,11.904v48.526h13.759v-48.526  C137.395,164.199,140.166,159.765,144.275,157.385z"/>
<path style="fill:#31A372;" d="M429.838,221.965h-55.898c-6.861,0-12.848-2.783-16.258-8.656c-0.002,0-0.002-0.002-0.002-0.002  l-41.403-71.21v0.002c-1.58-2.821-4.593-4.732-8.056-4.732h-13.413c-8.912,0.385-8.55,8.127-3.874,15.764l26.641,47.053h-0.001  c4.836,7.9,5.825,19.515-1.061,28.377l-29.471,37.909c-5.455,7.016-13.273,11.279-22.532,11.279h-60.317  c-13.461,0-18.922-9.932-20.483-13.608l-0.509-1.349v-0.001l0,0l-13.889-36.827c-0.001,0-0.001,0-0.001,0  c-3.333-8.838-11.125-10.025-14.042-10.151c-4.503,0-131.261,0-135.747,0c-6.635,0-12.013,5.378-12.013,12.013  c0,2.881,0,5.513,0,12.597c0,8.296,0,62.382,0,70.756c6.615,0,25.607,0,32.216,0c7.633-29.242,34.226-50.824,65.858-50.824  c31.633,0,58.225,21.582,65.858,50.824h123.827c7.636-29.242,34.226-50.824,65.858-50.824c31.635,0,58.225,21.582,65.86,50.824  h12.744v0.001h20.765c0-6.108,0-49.591,0-58.571C460.489,235.683,446.766,221.965,429.838,221.965z"/>
<path style="fill:#547A13;" d="M33.537,227.825c0-6.635,5.378-12.013,12.013-12.013H19.522c-6.635,0-12.013,5.378-12.013,12.013  v3.368v9.229c0,8.296,0,62.382,0,70.756c12.002,0,14.489,0,26.029,0C33.537,304.469,33.537,238.638,33.537,227.825z"/>
<path style="fill:#FFA506;" d="M21.28,245.037H7.508v38.454H21.28c5.098,0,9.229-4.133,9.229-9.228v-19.997  C30.509,249.169,26.377,245.037,21.28,245.037z"/>
<path style="fill:#FF8103;" d="M21.28,264.265H7.508v19.226H21.28c5.098,0,9.229-4.133,9.229-9.228v-19.226  C30.509,260.132,26.377,264.265,21.28,264.265z"/>
<path style="fill:#FFA506;" d="M436.728,254.266v19.997c0,5.096,4.132,9.228,9.229,9.228h14.539c0-33.922,0.278-33.645-0.948-38.454  h-13.591C440.86,245.037,436.728,249.169,436.728,254.266z"/>
<path style="fill:#FF8103;" d="M436.728,255.036v19.226c0,5.096,4.132,9.228,9.229,9.228h14.539v-19.226h-14.539  C440.86,264.265,436.728,260.132,436.728,255.036z"/>
<g>
	<path style="fill:#605E15;" d="M171.441,323.251c0,5.098,4.132,9.229,9.229,9.229h105.246c5.098,0,9.229-4.132,9.229-9.229v-13.075   H171.441V323.251z"/>
	<path style="fill:#605E15;" d="M504.492,323.251v-13.075H426.55v13.075c0,5.098,4.132,9.229,9.229,9.229h59.484   C500.36,332.481,504.492,328.348,504.492,323.251z"/>
</g>
<path style="fill:#3B540A;" d="M39.679,323.251v-13.075H7.508v13.075c0,5.098,4.132,9.229,9.229,9.229H30.45  C35.548,332.481,39.679,328.348,39.679,323.251z"/>
<g>
	<path style="fill:#4F4D2C;" d="M196.908,323.251v-13.075h-25.467v13.075c0,5.098,4.132,9.229,9.229,9.229h25.468   C201.04,332.481,196.908,328.348,196.908,323.251z"/>
	<path style="fill:#4F4D2C;" d="M452.017,323.251v-13.075H426.55v13.075c0,5.098,4.132,9.229,9.229,9.229h25.468   C456.149,332.481,452.017,328.348,452.017,323.251z"/>
	<path style="fill:#4F4D2C;" d="M32.976,310.177H7.508v13.075c0,5.098,4.132,9.229,9.229,9.229H30.45   c2.233,0,4.282-0.794,5.878-2.113C32.156,326.917,32.976,323.794,32.976,310.177z"/>
</g>
<circle style="fill:#454545;" cx="361.132" cy="329.056" r="45.571"/>
<path style="fill:#333533;" d="M338.882,341.896c-10.876-18.837-6.765-42.203,8.62-56.327c-27.831,8.747-40.436,40.99-25.841,66.269  c14.523,25.155,48.702,30.582,70.31,10.756C372.049,368.857,349.758,360.735,338.882,341.896z"/>
<circle style="fill:#888988;" cx="361.132" cy="329.056" r="25.686"/>
<path style="fill:#6F6F6F;" d="M357.523,303.621c-17.99,2.545-27.739,22.518-18.641,38.275c9.081,15.73,31.255,17.323,42.466,2.993  C358.507,348.119,343.291,321.811,357.523,303.621z"/>
<circle style="fill:#C2C2C2;" cx="361.132" cy="329.056" r="6.496"/>
<circle style="fill:#454545;" cx="105.588" cy="329.056" r="45.571"/>
<path style="fill:#333533;" d="M83.344,341.896c-10.876-18.837-6.765-42.203,8.62-56.327c-27.831,8.747-40.436,40.99-25.841,66.269  c14.523,25.155,48.702,30.582,70.31,10.756C116.511,368.857,94.22,360.735,83.344,341.896z"/>
<circle style="fill:#888988;" cx="105.588" cy="329.056" r="25.686"/>
<path style="fill:#6F6F6F;" d="M101.985,303.621c-17.99,2.545-27.739,22.518-18.641,38.275c9.081,15.73,31.255,17.323,42.467,2.993  C102.969,348.119,87.753,321.811,101.985,303.621z"/>
<circle style="fill:#C2C2C2;" cx="105.588" cy="329.056" r="6.496"/>
<path d="M361.127,275.983c-29.268,0-53.079,23.811-53.079,53.08c0,29.268,23.811,53.079,53.079,53.079  c29.269,0,53.08-23.81,53.08-53.079S390.396,275.983,361.127,275.983z M361.127,367.124c-20.987,0-38.062-17.075-38.062-38.062  c0-20.988,17.075-38.063,38.062-38.063c20.988,0,38.063,17.075,38.063,38.063C399.19,350.049,382.114,367.124,361.127,367.124z"/>
<path d="M361.127,295.867c-18.302,0-33.193,14.892-33.193,33.195c0,18.302,14.891,33.193,33.193,33.193  c18.303,0,33.195-14.891,33.195-33.193C394.322,310.758,379.43,295.867,361.127,295.867z M361.127,347.238  c-10.023,0-18.176-8.154-18.176-18.176c0-10.024,8.154-18.178,18.176-18.178c10.024,0,18.178,8.155,18.178,18.178  S371.15,347.238,361.127,347.238z"/>
<circle cx="361.132" cy="329.066" r="6.496"/>
<path d="M105.583,275.983c-29.269,0-53.08,23.811-53.08,53.08c0,29.268,23.812,53.079,53.08,53.079s53.08-23.81,53.08-53.079  S134.851,275.983,105.583,275.983z M105.583,367.124c-20.988,0-38.063-17.075-38.063-38.062c0-20.988,17.076-38.063,38.063-38.063  s38.063,17.075,38.063,38.063C143.646,350.049,126.571,367.124,105.583,367.124z"/>
<path d="M105.583,295.867c-18.302,0-33.193,14.892-33.193,33.195c0,18.302,14.891,33.193,33.193,33.193s33.193-14.891,33.193-33.193  C138.775,310.758,123.885,295.867,105.583,295.867z M105.583,347.238c-10.023,0-18.176-8.154-18.176-18.176  c0-10.024,8.154-18.178,18.176-18.178s18.176,8.155,18.176,18.178C123.759,339.085,115.606,347.238,105.583,347.238z"/>
<circle cx="105.588" cy="329.066" r="6.496"/>
<path d="M493.584,202.455c-10.154,0-18.416,8.261-18.416,18.415v82.798h-7.162V283.49c0-33.632,0.336-34.229-1.191-40.341  c-4.225-16.476-19.202-28.694-36.976-28.694H373.94c-5.788,0-8.407-2.814-9.327-4.165c-0.089-0.153-0.409-0.708-0.493-0.847  l-18.525-31.862c-2.083-3.586-6.683-4.8-10.264-2.717c-3.585,2.083-4.801,6.679-2.717,10.264  c0.151,0.259,19.158,32.965,19.322,33.217c2.174,3.346,8.671,11.126,22.005,11.126h55.898c7.001,0,13.282,3.128,17.531,8.056  c-11.654,0-18.148,8.062-18.148,16.738v19.997c0,9.228,7.508,16.737,16.738,16.737h7.031v12.67h-20.436  c-10.439-30.2-39.018-50.824-71.427-50.824c-32.407,0-60.986,20.624-71.425,50.824H177.007  c-10.436-30.2-39.015-50.824-71.425-50.824S44.594,273.47,34.158,303.67H15.017v-12.67h6.263c9.229,0,16.738-7.508,16.738-16.737  v-19.997c0-9.229-7.508-16.738-16.738-16.738h-6.263v-9.703c0-2.485,2.02-4.505,4.505-4.505c4.845,0,126.779,0,131.633,0  c3.402,0,7.453-0.575,10.105,3.295c1.231,1.902,14.363,37.638,15.538,40.458c1.301,3.065,5.452,11.117,14.463,15.404  c7.127,3.391,12.486,2.778,24.72,2.778c0.286,0,50.24,0.004,50.526-0.008c4.816-0.223,17.037-2.048,26.462-14.17l29.472-37.91  c7.739-9.959,8.886-24.369,1.667-36.684c-28.242-49.882-27.869-48.717-28.691-51.609h12.804c1.523,0,0.845-0.243,12.171,19.235l0,0  c3.67,6.872,14.147,4.257,14.147-3.534c0-1.478-0.432-2.85-1.168-4.012l0.003-0.002l-10.58-18.195  c-2.97-5.25-8.547-8.508-14.572-8.508h-13.413c-4.998,0-10.357,2.327-12.978,7.057c-3.536,6.378-0.955,13.57,2.57,19.915  c0.594,1.048,26.408,46.646,27.004,47.694c1.411,2.658,5.298,11.558-0.818,19.428l-3.729,4.797l-35.3-39.349l10.368-9.194  c3.102-2.751,3.387-7.496,0.636-10.6c-2.751-3.101-7.495-3.39-10.6-0.636l-32.036,28.41c-3.102,2.751-3.387,7.496-0.636,10.6  c2.755,3.105,7.501,3.384,10.6,0.636l10.432-9.251l37.17,41.433l-16.375,21.063c-5.488,7.059-12.307,8.219-15.145,8.378h-39.134  l5.061-13.424c9.08-2.424,15.797-10.696,15.797-20.528c0-11.728-9.541-21.269-21.269-21.269h-55.295  c-4.108-4.163-9.054-5.758-12.466-6.361v-39.369c0-11.727-9.541-21.268-21.268-21.268c-11.727,0-21.268,9.541-21.268,21.268v39.015  h-9.532v-70.937c0-4.148-3.361-7.508-7.508-7.508c-4.148,0-7.508,3.361-7.508,7.508v15.569L27.71,208.303h-8.188  C8.758,208.303,0,217.061,0,227.825c0,17.614,0,65.081,0,83.353v13.075c0,9.229,7.508,16.738,16.738,16.738H30.45  c9.229,0,16.738-7.508,16.738-16.738v-11.877c7.187-26.242,31.089-44.512,58.395-44.512c27.251,0,51.11,18.196,58.35,44.353v12.035  c0,9.229,7.508,16.738,16.738,16.738h60.201c4.148,0,7.508-3.362,7.508-7.508c0-4.148-3.361-7.508-7.508-7.508H180.67  c-0.948,0-1.721-0.773-1.721-1.721v-5.566h108.687v5.566c0,0.948-0.773,1.721-1.721,1.721h-19.016c-4.148,0-7.508,3.361-7.508,7.508  c0,4.147,3.361,7.508,7.508,7.508h19.016c9.229,0,16.738-7.508,16.738-16.738v-11.601c7.096-26.391,31.073-44.788,58.473-44.788  c26.74,0,50.223,17.517,57.936,42.887c-0.034,0.594-0.022,12.905-0.022,13.502c0,9.229,7.508,16.738,16.738,16.738h59.484  c9.229,0,16.738-7.508,16.738-16.738c0-16.84,0-65.251,0-103.381C512,210.716,503.739,202.455,493.584,202.455z M210.788,270.238  c-11.101,0-16.415,0.892-21.536-12.684h26.318L210.788,270.238z M226.424,230.035c3.447,0,6.252,2.805,6.252,6.252  c0,3.447-2.805,6.251-6.252,6.251h-42.837c-1.77-4.692-3.206-8.497-4.716-12.503H226.424z M131.144,169.289  c0-3.447,2.804-6.251,6.251-6.251s6.251,2.804,6.251,6.251v39.015h-12.502V169.289z M91.579,172.81v35.493H50.633L91.579,172.81z   M15.017,252.546h6.263c0.948,0,1.721,0.772,1.721,1.721v19.997c0,0.948-0.772,1.72-1.721,1.72h-6.263V252.546z M32.171,324.252  c0,0.948-0.773,1.721-1.721,1.721H16.738c-0.948,0-1.721-0.773-1.721-1.721v-5.566h17.154  C32.171,318.686,32.171,324.252,32.171,324.252z M445.957,275.983c-0.948,0-1.721-0.772-1.721-1.72v-19.997  c0-0.948,0.773-1.721,1.721-1.721h7.03c0.003,0.45,0.002,22.984,0.002,23.437L445.957,275.983L445.957,275.983z M496.983,324.252  c0,0.948-0.772,1.721-1.721,1.721h-59.484c-0.948,0-1.721-0.773-1.721-1.721v-5.565c1.902,0,60.846,0.001,62.925,0.001  L496.983,324.252L496.983,324.252z M496.983,303.67h-6.799v-82.798c0-4.491,6.799-4.493,6.799,0V303.67z"/>
<g>
</g>
<g>
</g>
<g>
</g>
<g>
</g>
<g>
</g>
<g>
</g>
<g>
</g>
<g>
</g>
<g>
</g>
<g>
</g>
<g>
</g>
<g>
</g>
<g>
</g>
<g>
</g>
<g>
</g>
</svg>
