<?xml version="1.0" encoding="iso-8859-1"?>
<!-- Generator: Adobe Illustrator 19.0.0, SVG Export Plug-In . SVG Version: 6.00 Build 0)  -->
<svg xmlns="http://www.w3.org/2000/svg" xmlns:xlink="http://www.w3.org/1999/xlink" version="1.1" id="Capa_1" x="0px" y="0px" viewBox="0 0 511.999 511.999" style="enable-background:new 0 0 511.999 511.999;" xml:space="preserve">
<rect x="398.716" y="133.151" style="fill:#DDDCDB;" width="85.396" height="32.938"/>
<g>
	<rect x="398.716" y="149.626" style="fill:#C2C2C2;" width="85.396" height="16.469"/>
	<path style="fill:#C2C2C2;" d="M390.578,123.02h-23.113v70.66h23.112c5.596,0,10.135-4.538,10.135-10.136v-50.39   C400.712,127.559,396.174,123.02,390.578,123.02z"/>
</g>
<path style="fill:#D1D1D1;" d="M390.578,123.02h-23.113v70.66h23.112c5.596,0,10.135-4.538,10.135-10.136v-50.39  C400.712,127.559,396.174,123.02,390.578,123.02z"/>
<path style="fill:#A8A5A1;" d="M390.578,168.484h-23.113v25.196h23.112c5.596,0,10.135-4.538,10.135-10.136v-25.196  C400.712,163.946,396.174,168.484,390.578,168.484z"/>
<path style="fill:#FF4D56;" d="M493.058,121.347c-6.045,0-10.946,4.899-10.946,10.944v33.666c0,6.045,4.901,10.946,10.946,10.946  s10.945-4.901,10.945-10.946v-33.666C504.004,126.246,499.103,121.347,493.058,121.347z"/>
<path style="fill:#D12451;" d="M493.058,165.958v-33.666c0-4.05,2.204-7.575,5.473-9.468c-1.611-0.934-3.477-1.477-5.472-1.477  c-6.045,0-10.946,4.899-10.946,10.944v33.666c0,8.42,9.136,13.689,16.418,9.47C495.262,173.533,493.058,170.006,493.058,165.958z"/>
<path style="fill:#454545;" d="M199.688,213.231v61.711H122.51l-7.668,21.111h85.269c11.409,0,20.69-9.28,20.69-20.689v-62.132  h-21.113V213.231z"/>
<path style="fill:#C2C2C2;" d="M54.67,233.789c-1.922,5.293-44.059,121.315-46.099,126.933c-1.791,4.933,0.756,10.386,5.689,12.179  l55.834,20.277c4.935,1.792,10.388-0.758,12.178-5.687c3.461-9.53,54.257-149.398,55.82-153.7L54.67,233.789L54.67,233.789z"/>
<path style="fill:#989899;" d="M33.215,370.859c2.201-6.061,47.615-131.106,49.781-137.069H54.67  c-1.922,5.293-44.059,121.315-46.099,126.933c-1.791,4.933,0.756,10.386,5.689,12.179l19.702,7.155  C32.449,377.338,32.07,374.009,33.215,370.859z"/>
<path style="fill:#DDDCDB;" d="M38.523,213.231v9.618c0,6.594,5.347,11.94,11.941,11.94c10.504,0,78.099,0,88.635,0  c6.594,0,11.941-5.346,11.941-11.94v-9.618C128.822,213.231,60.346,213.231,38.523,213.231z"/>
<path style="fill:#C2C2C2;" d="M63.516,222.849v-9.618H38.523v9.618c0,6.594,5.347,11.94,11.941,11.94h24.993  C68.864,234.789,63.516,229.443,63.516,222.849z"/>
<path style="fill:#DDDCDB;" d="M358.52,75.922c-6.046,0-10.946,4.899-10.946,10.944v38.153h21.891V86.866  C369.464,80.822,364.564,75.922,358.52,75.922z"/>
<g>
	<path style="fill:#C2C2C2;" d="M363.992,77.399c-7.289-4.223-16.418,1.059-16.418,9.468v38.153h10.946V86.866   C358.52,82.817,360.723,79.291,363.992,77.399z"/>
	<path style="fill:#C2C2C2;" d="M171.074,101.462h-70.649c-6.595,0-11.941,5.346-11.941,11.94v11.618h94.53v-11.618   C183.015,106.809,177.668,101.462,171.074,101.462z"/>
</g>
<path style="fill:#93918C;" d="M125.418,101.462h-24.993c-6.595,0-11.941,5.346-11.941,11.94v11.618h24.993v-11.618  C113.478,106.809,118.824,101.462,125.418,101.462z"/>
<rect x="279.94" y="210.499" style="fill:#C2C2C2;" width="66.716" height="205.701"/>
<path style="fill:#6F6F6F;" d="M50.515,123.02c-6.622,0-11.991,5.367-11.991,11.991c0,20.087,0-6.452,0,79.219  c7.663,0,301.533,0,320.807,0c5.596,0,10.134-4.538,10.134-10.136c0-9.326,0-71.834,0-81.075  C365.838,123.02,53.358,123.02,50.515,123.02z"/>
<path style="fill:#454545;" d="M63.516,135.011c0-6.623,5.368-11.991,11.991-11.991H50.514c-6.622,0-11.991,5.367-11.991,11.991  c0,20.087,0-6.452,0,79.219c9.307,0,15.261,0,24.993,0C63.516,211.089,63.516,138.289,63.516,135.011z"/>
<path style="fill:#DDDCDB;" d="M347.575,414.196c-9.903,0-58.094,0-67.994,0c-6.047,0-10.948,4.901-10.948,10.946  s4.901,10.944,10.948,10.944c9.978,0,58.019,0,67.994,0c6.045,0,10.944-4.899,10.944-10.944S353.62,414.196,347.575,414.196z"/>
<path style="fill:#C2C2C2;" d="M347.575,425.141c-9.975,0-58.016,0-67.994,0c-4.05,0-7.578-2.203-9.471-5.472  c-4.225,7.292,1.06,16.417,9.471,16.417c9.978,0,58.019,0,67.994,0c6.045,0,10.944-4.899,10.944-10.944  c0-1.995-0.543-3.861-1.476-5.473C355.151,422.938,351.624,425.141,347.575,425.141z"/>
<path d="M493.558,113.844c-7.829,0-14.517,4.912-17.189,11.808h-69.356c-2.825-5.977-8.896-10.134-15.935-10.134h-13.615V86.861  c0-10.169-8.273-18.442-18.443-18.442c-10.17,0-18.444,8.273-18.444,18.442v28.656h-63.027c-4.142,0-7.498,3.356-7.498,7.498  s3.356,7.498,7.498,7.498c8.684,0,74.752,0,84.918,0c0,16.208,0,57.349,0,73.577c0,1.455-1.183,2.638-2.636,2.638  c-4.722,0-308.552,0-313.31,0v-71.721c0-2.478,2.015-4.493,4.493-4.493c13.772,0,193.112,0,201.209,0  c4.142,0,7.498-3.356,7.498-7.498s-3.356-7.498-7.498-7.498h-61.211v-2.12c0-10.718-8.72-19.437-19.437-19.437h-70.649  c-10.719,0-19.438,8.72-19.438,19.437v2.12H51.014c-10.746,0-19.488,8.742-19.488,19.488c0,10.674,0,78.734,0,88.838  c0,8.244,5.168,15.287,12.426,18.109L1.022,360.156c-3.2,8.81,1.366,18.584,10.178,21.786  c61.028,22.163,57.651,21.308,61.647,21.308c6.805,0,13.417-4.174,15.972-11.206l19.635-54.066c1.414-3.892-0.597-8.194-4.488-9.607  c-3.895-1.411-8.193,0.598-9.607,4.488c-20.423,56.237-19.58,56.229-22.206,55.266l-55.834-20.276  c-1.041-0.379-1.58-1.532-1.202-2.571l44.304-121.995h67.468c-3.715,10.229-14.011,38.58-24.395,67.172  c-1.414,3.893,0.597,8.194,4.488,9.607c3.896,1.414,8.194-0.596,9.607-4.488l4.005-11.028h80.014  c15.544,0,28.188-12.644,28.188-28.187v-54.634h44.139v186.41c-6.635,2.796-11.305,9.364-11.305,17.004  c0,10.169,8.275,18.442,18.446,18.442h67.995c10.169,0,18.442-8.273,18.442-18.442c0-7.851-4.939-14.554-11.866-17.211V263.706  c0-4.142-3.356-7.498-7.498-7.498s-7.498,3.356-7.498,7.498v142.988h-51.72v-184.97h51.72v17.335c0,4.142,3.356,7.498,7.498,7.498  s7.498-3.356,7.498-7.498v-17.335h5.181c9.722,0,17.632-7.911,17.632-17.634v-2.917h13.615c9.723,0,17.633-7.911,17.633-17.634  v-9.954h68.077c8.203,17.947,35.213,12.104,35.213-7.633v-33.666C512,122.117,503.728,113.844,493.558,113.844z M96.483,113.397  c0-2.449,1.993-4.442,4.443-4.442h70.649c2.449,0,4.442,1.992,4.442,4.442v2.12H96.483V113.397z M348.075,421.689  c4.554,0,4.555,6.895,0,6.895H280.08c-4.435,0-4.846-6.895,0.357-6.895C286.344,421.689,341.718,421.689,348.075,421.689z   M155.17,235.431l11.684,20.147c1.392,2.398,3.907,3.737,6.493,3.737c5.746,0,9.381-6.258,6.479-11.261l-15.27-26.331h28.134v46.716  h-58.98l9.249-25.468C147.939,242.098,152.261,239.328,155.17,235.431z M50.965,228.286c-2.449,0-4.443-1.992-4.443-4.442v-2.12  h97.521v2.12c0,2.449-1.993,4.442-4.443,4.442h-2.007C127.124,228.286,61.194,228.286,50.965,228.286z M213.803,276.358  c0,7.274-5.918,13.191-13.192,13.191h-74.568l2.221-6.115h71.924c4.142,0,7.498-3.356,7.498-7.498v-54.213h6.117v54.635H213.803z   M355.571,115.517V86.861c0-4.554,6.895-4.555,6.895,0v28.656H355.571z M393.714,183.539c0,1.455-1.184,2.638-2.637,2.638h-13.615  v-55.664h13.615c1.454,0,2.637,1.183,2.637,2.636C393.714,147.543,393.714,166.908,393.714,183.539z M408.71,140.647h66.404v17.942  H408.71V140.647z M497.005,165.952c0,4.558-6.895,4.557-6.895,0c0-12.775,0-21.037,0-33.666c0-4.554,6.895-4.555,6.895,0V165.952z"/>
<path d="M306.298,238.781v150.926c0,4.142,3.357,7.498,7.498,7.498c4.142,0,7.498-3.356,7.498-7.498V238.781  c0-4.142-3.356-7.498-7.498-7.498S306.298,234.64,306.298,238.781z"/>
<g>
</g>
<g>
</g>
<g>
</g>
<g>
</g>
<g>
</g>
<g>
</g>
<g>
</g>
<g>
</g>
<g>
</g>
<g>
</g>
<g>
</g>
<g>
</g>
<g>
</g>
<g>
</g>
<g>
</g>
</svg>
