<?xml version="1.0" encoding="iso-8859-1"?>
<!-- Generator: Adobe Illustrator 19.0.0, SVG Export Plug-In . SVG Version: 6.00 Build 0)  -->
<svg xmlns="http://www.w3.org/2000/svg" xmlns:xlink="http://www.w3.org/1999/xlink" version="1.1" id="Capa_1" x="0px" y="0px" viewBox="0 0 512.001 512.001" style="enable-background:new 0 0 512.001 512.001;" xml:space="preserve">
<rect x="244.332" y="318.283" style="fill:#664324;" width="23.332" height="130.001"/>
<rect x="244.332" y="318.283" style="fill:#54331B;" width="11.666" height="130.001"/>
<path style="fill:#D6D6D6;" d="M354.476,103.573h-32.342c-11.166,0-12.184-9.651-12.254-12.264V17.887  c0-5.736-4.65-10.387-10.387-10.387h-86.985c-5.736,0-10.387,4.65-10.387,10.387V91.31c-0.07,2.612-1.09,12.264-12.254,12.264  h-32.342c-5.736,0-10.387,4.65-10.387,10.387v197.338c0,5.736,4.65,10.387,10.387,10.387h196.951c5.736,0,10.387-4.65,10.387-10.387  V113.96C364.862,108.224,360.212,103.573,354.476,103.573z"/>
<g>
	<path style="fill:#BCB2AA;" d="M227.121,91.31V17.887c0-5.736,4.65-10.387,10.387-10.387h-25c-5.736,0-10.387,4.65-10.387,10.387   V91.31c-0.07,2.612-1.09,12.264-12.254,12.264h25C226.031,103.573,227.051,93.922,227.121,91.31z"/>
	<path style="fill:#BCB2AA;" d="M172.139,311.297V113.96c0-5.736,4.65-10.387,10.387-10.387h-25c-5.736,0-10.387,4.65-10.387,10.387   v197.338c0,5.736,4.65,10.387,10.387,10.387h25C176.789,321.685,172.139,317.034,172.139,311.297z"/>
</g>
<circle style="fill:#5C92E0;" cx="256.003" cy="211.762" r="74.411"/>
<circle style="fill:#FFD05C;" cx="256.003" cy="211.762" r="43.516"/>
<circle style="fill:#FF4D56;" cx="256.003" cy="211.762" r="15.01"/>
<path style="fill:#5B5B5A;" d="M338.501,492.832c0,6.443-5.223,11.668-11.666,11.668H185.166c-6.443,0-11.666-5.225-11.666-11.668  l0,0c0-6.441,5.223-11.666,11.666-11.666h141.669C333.278,481.166,338.501,486.391,338.501,492.832L338.501,492.832z"/>
<path style="fill:#454545;" d="M199.783,492.832c0-6.441,5.223-11.666,11.666-11.666h-26.283c-6.443,0-11.666,5.225-11.666,11.666  c0,6.443,5.223,11.668,11.666,11.668h26.283C205.006,504.5,199.783,499.275,199.783,492.832z"/>
<path style="fill:#D6D6D6;" d="M323.001,481.166v-23.277c0-6.627-5.373-12-12-12H201c-6.627,0-12,5.373-12,12v23.277H323.001z"/>
<path style="fill:#BCB2AA;" d="M226,445.889h-25c-6.627,0-12,5.373-12,12v23.277h25v-23.277  C214,451.262,219.373,445.889,226,445.889z"/>
<path d="M256.001,129.846c-45.165,0-81.911,36.745-81.911,81.912s36.745,81.913,81.911,81.913s81.911-36.746,81.911-81.913  C337.911,166.591,301.166,129.846,256.001,129.846z M256.001,278.67c-36.895,0-66.911-30.017-66.911-66.913  s30.016-66.912,66.911-66.912s66.911,30.017,66.911,66.912C322.911,248.653,292.896,278.67,256.001,278.67z"/>
<path d="M256.001,160.742c-28.13,0-51.016,22.885-51.016,51.015S227.87,262.774,256,262.774c28.13,0,51.016-22.886,51.016-51.016  C307.017,183.627,284.131,160.742,256.001,160.742z M256.001,247.773c-19.859,0-36.016-16.156-36.016-36.016  c0-19.858,16.156-36.015,36.016-36.015s36.016,16.156,36.016,36.015C292.017,231.617,275.86,247.773,256.001,247.773z"/>
<path d="M256.001,189.245c-12.413,0-22.512,10.099-22.512,22.512c0,12.414,10.099,22.514,22.512,22.514  c12.414,0,22.514-10.1,22.514-22.514C278.515,199.345,268.415,189.245,256.001,189.245z M256.001,219.272  c-4.142,0-7.512-3.371-7.512-7.514c0-4.142,3.37-7.512,7.512-7.512c4.143,0,7.514,3.37,7.514,7.512  C263.515,215.9,260.144,219.272,256.001,219.272z"/>
<path d="M364.862,140.446c4.143,0,7.5-3.357,7.5-7.5V113.96c0-9.862-8.024-17.887-17.887-17.887h-32.342  c-1.719,0-4.589,0-4.754-4.877V17.887C317.38,8.024,309.356,0,299.493,0h-86.985c-9.862,0-17.887,8.024-17.887,17.887v73.31  c-0.165,4.877-3.035,4.877-4.754,4.877h-32.342c-9.862,0-17.887,8.024-17.887,17.887v197.338c0,9.862,8.024,17.887,17.887,17.887  h79.31v109.204H201c-10.752,0-19.5,8.748-19.5,19.5v16.138c-8.819,1.716-15.5,9.491-15.5,18.805  c0,10.569,8.598,19.168,19.166,19.168h141.669c10.568,0,19.166-8.599,19.166-19.168c0-9.314-6.681-17.089-15.5-18.805V457.89  c0-10.752-8.748-19.5-19.5-19.5h-35.834V329.185h79.31c9.862,0,17.887-8.024,17.887-17.887V158.946c0-4.143-3.357-7.5-7.5-7.5  c-4.142,0-7.5,3.357-7.5,7.5v152.351c0,1.592-1.295,2.887-2.887,2.887c-6.066,0-187.219,0-196.951,0  c-1.592,0-2.887-1.295-2.887-2.887V113.96c0-1.592,1.295-2.887,2.887-2.887h32.342c12.688,0,19.754-9.399,19.754-19.764V17.887  c0-1.592,1.295-2.887,2.887-2.887h86.985c1.592,0,2.887,1.295,2.887,2.887c0,0.156-0.002,73.469,0.003,73.625  c0.262,9.736,6.471,19.562,19.751,19.562h32.342c1.592,0,2.887,1.295,2.887,2.887v18.986  C357.362,137.089,360.72,140.446,364.862,140.446z M315.501,457.889v15.777h-13.167c-4.143,0-7.5,3.357-7.5,7.5s3.357,7.5,7.5,7.5  h24.501c2.297,0,4.166,1.869,4.166,4.166c0,2.298-1.869,4.168-4.166,4.168H185.166c-2.297,0-4.166-1.87-4.166-4.168  c0-2.297,1.869-4.166,4.166-4.166h91.502c4.143,0,7.5-3.357,7.5-7.5s-3.357-7.5-7.5-7.5H196.5v-15.777c0-2.482,2.019-4.5,4.5-4.5  c16.13,0,93.907,0,110.001,0C313.482,453.389,315.501,455.407,315.501,457.889z M260.167,329.185v109.204h-8.332V329.185H260.167z"/>
<g>
</g>
<g>
</g>
<g>
</g>
<g>
</g>
<g>
</g>
<g>
</g>
<g>
</g>
<g>
</g>
<g>
</g>
<g>
</g>
<g>
</g>
<g>
</g>
<g>
</g>
<g>
</g>
<g>
</g>
</svg>
