<?xml version="1.0" encoding="iso-8859-1"?>
<!-- Generator: Adobe Illustrator 19.0.0, SVG Export Plug-In . SVG Version: 6.00 Build 0)  -->
<svg xmlns="http://www.w3.org/2000/svg" xmlns:xlink="http://www.w3.org/1999/xlink" version="1.1" id="Capa_1" x="0px" y="0px" viewBox="0 0 511.999 511.999" style="enable-background:new 0 0 511.999 511.999;" xml:space="preserve">
<path style="fill:#31A372;" d="M459.123,424.76c-35.419-69.686-27.864-180.1-24.56-198.652c0.423-2.396-0.997-4.732-3.317-5.463  c-66.131-20.83-108.824-54.894-132.994-79.802c-26.601-27.413-37.391-50.053-37.838-51.004c-1.745-3.715-7.037-3.7-8.773,0  c-0.447,0.95-11.235,23.588-37.837,51.004c-24.17,24.908-66.862,58.971-132.993,79.802c-2.318,0.73-3.737,3.067-3.317,5.46  c0.024,0.141,2.461,14.283,2.602,36.11c0,0.048,0.001,0.096,0.003,0.144c1.374,37.988-0.328,109.6-27.166,162.402  c-1.635,3.217,0.706,7.042,4.319,7.042c424.947,0,399.57,1.127,401.68-2.312C459.815,428.054,459.887,426.262,459.123,424.76z"/>
<path style="fill:#1B8E5A;" d="M104.956,256.369c-0.002-0.055-0.003-0.108-0.004-0.163c-0.152-24.62-2.761-40.574-2.787-40.732  c-0.135-0.81-0.074-1.607,0.118-2.358c-6.869,2.653-14.013,5.179-21.471,7.527c-2.318,0.73-3.737,3.067-3.317,5.46  c0.024,0.141,2.461,14.283,2.602,36.11c0,0.048,0.001,0.096,0.003,0.144c1.374,37.988-0.328,109.6-27.166,162.402  c-1.635,3.217,0.706,7.042,4.319,7.042h22.14C104.75,373.154,106.365,297.386,104.956,256.369z"/>
<rect x="193.149" y="300.45" style="fill:#779300;" width="124.457" height="124.186"/>
<rect x="193.149" y="300.45" style="fill:#576B1A;" width="25.038" height="124.186"/>
<rect x="255.373" y="300.45" style="fill:#99BA3E;" width="62.223" height="124.186"/>
<g>
	<path style="fill:#605E15;" d="M324.844,297.932c0,3.388-2.683,6.132-5.992,6.132H193.147c-3.31,0-5.991-2.744-5.991-6.132v-11.247   c0-3.388,2.682-6.134,5.991-6.134h125.705c3.31,0,5.992,2.746,5.992,6.134V297.932z"/>
	<path style="fill:#605E15;" d="M406.345,297.932v-11.247c0-3.388-2.682-6.134-5.992-6.134h-45.31c-3.31,0-5.992,2.746-5.992,6.134   v11.247c0,3.388,2.683,6.132,5.992,6.132h45.31C403.664,304.064,406.345,301.32,406.345,297.932z"/>
	<path style="fill:#605E15;" d="M164.122,297.932v-11.247c0-3.388-2.683-6.134-5.992-6.134h-45.311   c-3.309,0-5.991,2.746-5.991,6.134v11.247c0,3.388,2.683,6.132,5.991,6.132h45.311C161.439,304.064,164.122,301.32,164.122,297.932   z"/>
</g>
<g>
	<path style="fill:#4F4D2C;" d="M212.194,297.932v-11.247c0-3.388,2.682-6.134,5.991-6.134h-25.038c-3.31,0-5.991,2.746-5.991,6.134   v11.247c0,3.388,2.682,6.132,5.991,6.132h25.038C214.876,304.064,212.194,301.32,212.194,297.932z"/>
	<path style="fill:#4F4D2C;" d="M374.088,297.932v-11.247c0-3.388,2.683-6.134,5.992-6.134h-25.038c-3.31,0-5.992,2.746-5.992,6.134   v11.247c0,3.388,2.683,6.132,5.992,6.132h25.038C376.771,304.064,374.088,301.32,374.088,297.932z"/>
	<path style="fill:#4F4D2C;" d="M131.864,297.932v-11.247c0-3.388,2.683-6.134,5.991-6.134h-25.038   c-3.309,0-5.991,2.746-5.991,6.134v11.247c0,3.388,2.683,6.132,5.991,6.132h25.038C134.547,304.064,131.864,301.32,131.864,297.932   z"/>
</g>
<path d="M400.353,273.038h-45.31c-7.446,0-13.503,6.121-13.503,13.645v11.247c0,7.523,6.058,13.643,13.503,13.643h45.31  c7.445,0,13.503-6.12,13.503-13.643v-11.247C413.856,279.16,407.799,273.038,400.353,273.038z M398.834,296.553h-42.272v-8.492  h42.272L398.834,296.553L398.834,296.553z"/>
<path d="M112.818,273.038c-7.445,0-13.502,6.121-13.502,13.645v11.247c0,7.523,6.057,13.643,13.502,13.643h45.311  c7.446,0,13.503-6.12,13.503-13.643v-11.247c0-7.524-6.058-13.645-13.503-13.645H112.818z M156.611,296.553h-42.272v-8.492h42.272  V296.553z"/>
<path d="M511.62,426.751c-73.668-222.803-67.876-211.362-73.784-213.215c-51.172-16.118-94.928-41.521-130.055-75.503  c-2.981-2.883-7.736-2.806-10.621,0.176c-2.884,2.982-2.805,7.738,0.176,10.621c35.418,34.263,79.104,60.173,129.927,77.072  c-0.804,6.642-1.857,18.044-1.958,32.785c-1.661,46.163,1.428,110.479,24.284,162.909H325.111V353.03  c0-4.149-3.363-7.511-7.511-7.511c-4.149,0-7.511,3.362-7.511,7.511v68.566h-47.203V311.575h47.203v15.412  c0,4.149,3.362,7.511,7.511,7.511c4.148,0,7.511-3.362,7.511-7.511V310.01c4.3-2.284,7.244-6.837,7.244-12.078v-11.247  c0-7.524-6.058-13.645-13.503-13.645H193.147c-7.446,0-13.502,6.121-13.502,13.645v11.247c0,4.716,2.382,8.879,5.991,11.331v112.335  H62.469c22.857-52.432,25.946-116.748,24.285-162.911c-0.101-14.742-1.154-26.143-1.958-32.783  c104.868-34.89,154.454-100.408,171.228-127.617c4.917,7.979,12.665,19.255,23.858,32.145c2.718,3.131,7.462,3.466,10.596,0.747  c3.133-2.719,3.467-7.463,0.747-10.596c-30.793-35.467-25.929-45.203-35.197-45.203c-2.911,0-5.561,1.684-6.799,4.318  c-0.454,0.967-11.428,23.993-38.627,52.023c-24.774,25.53-68.545,60.449-136.38,81.816c-2.258,0.718-4.112,2.499-4.874,4.804  L0.385,426.749c-1.608,4.86,2.022,9.871,7.131,9.871h43.118c2.349,0,439.811,0,453.855,0c2.411,0,4.676-1.158,6.088-3.112  C511.989,431.554,512.376,429.04,511.62,426.751z M71.734,258.95c0.76,53.764-2.157,113.037-25.792,162.648H17.914L71.734,258.95z   M194.668,288.061h122.666v8.492c-5.71,0-117.822,0-122.666,0V288.061z M200.659,421.597V311.575h47.205v110.022H200.659z   M466.116,421.597c-23.32-48.955-26.704-108.514-25.792-162.62l53.769,162.62H466.116z"/>
<path d="M406.345,239.625H106.827c-4.149,0-7.511,3.362-7.511,7.511s3.362,7.511,7.511,7.511h299.518  c4.148,0,7.511-3.362,7.511-7.511C413.856,242.988,410.494,239.625,406.345,239.625z"/>
<g>
</g>
<g>
</g>
<g>
</g>
<g>
</g>
<g>
</g>
<g>
</g>
<g>
</g>
<g>
</g>
<g>
</g>
<g>
</g>
<g>
</g>
<g>
</g>
<g>
</g>
<g>
</g>
<g>
</g>
</svg>
