<?xml version="1.0" encoding="iso-8859-1"?>
<!-- Generator: Adobe Illustrator 19.0.0, SVG Export Plug-In . SVG Version: 6.00 Build 0)  -->
<svg xmlns="http://www.w3.org/2000/svg" xmlns:xlink="http://www.w3.org/1999/xlink" version="1.1" id="Capa_1" x="0px" y="0px" viewBox="0 0 511.999 511.999" style="enable-background:new 0 0 511.999 511.999;" xml:space="preserve">
<circle style="fill:#FF4D56;" cx="256.002" cy="177.482" r="19.743"/>
<g>
	<path style="fill:#8C8B8B;" d="M199.492,432.821h-22.66c-6.626,0-11.997,5.371-11.997,11.997v20.328h46.654v-20.328   C211.489,438.192,206.117,432.821,199.492,432.821z"/>
	<path style="fill:#8C8B8B;" d="M335.168,432.821h-22.661c-6.625,0-11.997,5.371-11.997,11.997v20.328h46.655v-20.328   C347.164,438.192,341.794,432.821,335.168,432.821z"/>
</g>
<g>
	<path style="fill:#6F6F6F;" d="M199.825,432.837c-0.988-0.026,3.88-0.017-22.993-0.017c-6.626,0-11.997,5.371-11.997,11.997v20.328   h23.327v-20.328C188.161,438.304,193.354,433.015,199.825,432.837z"/>
	<path style="fill:#6F6F6F;" d="M335.501,432.837c-0.112-0.003-0.221-0.017-0.333-0.017h-22.661   c-6.625,0-11.997,5.371-11.997,11.997v20.328h23.327v-20.328C323.837,438.304,329.031,433.015,335.501,432.837z"/>
</g>
<path style="fill:#C2C2C2;" d="M375.887,492.084c0,6.849-5.552,12.402-12.401,12.402H148.515c-6.85,0-12.403-5.554-12.403-12.402  v-16.537c0-6.849,5.554-12.401,12.403-12.401h214.97c6.85,0,12.401,5.552,12.401,12.401v16.537H375.887z"/>
<path style="fill:#989899;" d="M363.486,483.815H148.515c-6.144,0-11.231-4.473-12.217-10.335c-0.113,0.674-0.186,1.361-0.186,2.066  v16.537c0,6.849,5.554,12.402,12.403,12.402h214.97c6.85,0,12.401-5.554,12.401-12.402c0-18.26,0.062-17.128-0.186-18.603  C374.715,479.343,369.63,483.815,363.486,483.815z"/>
<path d="M187.701,336.64c3.806,1.616,8.212-0.16,9.829-3.978c1.617-3.812-0.165-8.214-3.978-9.829  c-59.352-25.157-97.703-83.062-97.703-147.52c0-133.035,153.695-207.912,258.378-126.497c3.27,2.543,7.979,1.955,10.521-1.315  c2.542-3.269,1.953-7.979-1.315-10.521C248.852-52.139,80.853,29.931,80.853,175.312C80.853,245.803,122.794,309.128,187.701,336.64  z"/>
<path d="M416.149,175.312c0,64.458-38.351,122.363-97.703,147.523c-7.497,3.176-5.178,14.403,2.929,14.403  c0.977,0,1.968-0.191,2.923-0.597c64.908-27.514,106.848-90.839,106.848-161.329c0-44.713-16.848-87.28-47.436-119.861  c-2.836-3.02-7.58-3.169-10.599-0.334c-3.019,2.834-3.168,7.58-0.334,10.599C400.746,95.506,416.149,134.429,416.149,175.312z"/>
<path d="M310.848,289.28c42.879-20.671,71.603-64.332,71.603-113.968c0-69.725-56.725-126.45-126.45-126.45  c-69.726,0-126.452,56.725-126.452,126.45c0,49.538,28.635,93.251,71.603,113.968c3.743,1.803,8.217,0.223,10.01-3.498  c1.799-3.729,0.232-8.212-3.497-10.01c-38.344-18.486-63.119-57.92-63.119-100.459c0-61.457,50-111.454,111.456-111.454  s111.454,49.999,111.454,111.454c0,42.542-24.775,81.974-63.119,100.459c-3.73,1.799-5.297,6.279-3.498,10.01  C302.637,289.515,307.121,291.077,310.848,289.28z"/>
<path d="M289.375,227.629c-6.311,4.036-3.396,13.815,4.047,13.815c6.331,0,39.64-23.917,39.64-66.131  c0-42.492-34.57-77.061-77.062-77.061s-77.062,34.569-77.062,77.061c0,26.412,13.31,50.692,35.607,64.95  c1.251,0.801,2.649,1.183,4.033,1.183c2.472,0,4.893-1.223,6.323-3.459c2.231-3.489,1.212-8.126-2.277-10.356  c-17.964-11.488-28.689-31.046-28.689-52.316c0-34.223,27.843-62.065,62.066-62.065s62.066,27.843,62.066,62.065  C318.066,196.582,307.34,216.139,289.375,227.629z"/>
<path d="M363.485,455.663h-8.823v-7.831c0-10.749-8.746-19.495-19.495-19.495h-3.912c-3.037-10.407-62.532-214.263-65.757-225.308  c10.35-3.864,17.741-13.848,17.741-25.529c0-15.02-12.221-27.24-27.241-27.24s-27.241,12.22-27.241,27.24  c0,11.681,7.391,21.664,17.741,25.528l-65.759,225.308h-3.912c-10.749,0-19.495,8.746-19.495,19.495v7.831h-8.821  c-10.974,0-19.901,8.927-19.901,19.899v16.537c0,10.973,8.928,19.9,19.901,19.9h164.498c4.142,0,7.498-3.356,7.498-7.498  c0-4.141-3.356-7.498-7.498-7.498H148.515c-2.704,0-4.905-2.199-4.905-4.904v-16.535c0-2.703,2.2-4.903,4.905-4.903  c6.126,0,213.795,0,214.97,0c2.703,0,4.903,2.199,4.903,4.903V492.1c0,2.704-2.199,4.904-4.903,4.904h-22.146  c-4.142,0-7.498,3.357-7.498,7.498c0,4.142,3.356,7.498,7.498,7.498h22.146c10.973,0,19.899-8.928,19.899-19.9v-16.537  C383.385,464.59,374.458,455.663,363.485,455.663z M236.815,289.744l7.802,6.829l-13.157,11.518L236.815,289.744z M280.541,308.092  l-13.158-11.518l7.803-6.83L280.541,308.092z M256,286.608l-14.552-12.739l14.553-49.864l14.552,49.862L256,286.608z   M221.272,342.997l21.982,15.991l-33.832,24.609L221.272,342.997z M229.063,330.12L256,306.539l26.938,23.582l-26.937,19.595  L229.063,330.12z M290.728,342.997l11.849,40.6l-33.83-24.609L290.728,342.997z M256.001,165.258  c6.752,0,12.245,5.493,12.245,12.244c0,6.752-5.493,12.245-12.245,12.245c-6.751,0-12.245-5.493-12.245-12.245  C243.756,170.75,249.248,165.258,256.001,165.258z M202.551,407.141L256,368.26l53.448,38.881l6.186,21.197h-3.128  c-10.749,0-19.495,8.746-19.495,19.495v7.831h-74.026v-7.831c0-10.749-8.745-19.495-19.495-19.495h-3.127L202.551,407.141z   M172.332,455.663v-7.831c0-2.48,2.018-4.499,4.499-4.499h22.661c2.48,0,4.499,2.018,4.499,4.499v7.831H172.332z M308.008,455.663  v-7.831c0-2.48,2.017-4.499,4.499-4.499h22.661c2.481,0,4.499,2.018,4.499,4.499v7.831H308.008z"/>
<g>
</g>
<g>
</g>
<g>
</g>
<g>
</g>
<g>
</g>
<g>
</g>
<g>
</g>
<g>
</g>
<g>
</g>
<g>
</g>
<g>
</g>
<g>
</g>
<g>
</g>
<g>
</g>
<g>
</g>
</svg>
