<?xml version="1.0" encoding="iso-8859-1"?>
<!-- Generator: Adobe Illustrator 19.0.0, SVG Export Plug-In . SVG Version: 6.00 Build 0)  -->
<svg xmlns="http://www.w3.org/2000/svg" xmlns:xlink="http://www.w3.org/1999/xlink" version="1.1" id="Capa_1" x="0px" y="0px" viewBox="0 0 512.003 512.003" style="enable-background:new 0 0 512.003 512.003;" xml:space="preserve">
<path style="fill:#31A372;" d="M482.048,216.615l0.016-0.016c-29.312-0.518-53.932-21.844-58.881-50.266  c-1.382-7.697-0.943,0.363-0.943-143.343c0-8.555-6.936-15.49-15.491-15.49h-38.512c-7.352,0-10.991,4.1-10.991,9.801l-0.002-0.002  c-4.966,44.062-44.247,84.438-102.457,84.438c-48.716,0-92.68-37.003-98.026-84.438l-0.002,0.002c0-5.671-3.604-9.801-10.989-9.801  h-38.512c-8.558,0-15.491,6.936-15.491,15.49c0,146.388,1.427,140.822-4.297,155.181c-8.589,21.89-30.054,37.976-55.528,38.427  l0.017,0.016c0,0-11.192-0.202-11.192,11.201v261.193c0,8.556,6.936,15.491,15.491,15.491h441.49  c8.558,0,15.491-6.936,15.491-15.491V227.816C493.238,216.412,482.048,216.615,482.048,216.615z"/>
<g>
	<path style="fill:#1B8E5A;" d="M45.768,488.494c0-288.848-0.258-271.168,0.538-273.872c-4.6,1.202-9.409,1.89-14.365,1.978   l0.017,0.016c0,0-11.192-0.202-11.192,11.201V489.01c0,8.556,6.936,15.491,15.491,15.491h25.516   C52.934,504.5,45.768,497.333,45.768,488.494z"/>
	<path style="fill:#1B8E5A;" d="M91.767,50.425c0,112.899,1.13,112.118-3.246,124.896c-4.576,13.289-13.104,23.903-24.09,31.195   c23.532-3.079,43.093-19.234,50.921-40.885c5.177-14.194,3.773-16.861,3.773-115.205C119.124,50.425,91.767,50.425,91.767,50.425z"/>
</g>
<g>
	<path style="fill:#636363;" d="M20.766,339.684h82.237c6.723,0,12.175-5.451,12.175-12.175v-42.103   c0-6.724-5.451-12.176-12.175-12.176H20.766V339.684z"/>
	<path style="fill:#636363;" d="M20.766,446.536h82.237c6.723,0,12.175-5.451,12.175-12.175v-42.103   c0-6.724-5.451-12.176-12.175-12.176H20.766V446.536z"/>
	<path style="fill:#636363;" d="M493.238,339.684h-82.235c-6.725,0-12.175-5.451-12.175-12.175v-42.103   c0-6.724,5.449-12.176,12.175-12.176h82.235V339.684z"/>
	<path style="fill:#636363;" d="M493.238,446.536h-82.235c-6.725,0-12.175-5.451-12.175-12.175v-42.104   c0-6.723,5.449-12.175,12.175-12.175h82.235V446.536z"/>
</g>
<g>
	<path style="fill:#454545;" d="M103.003,308.987H20.766v30.697h82.237c6.723,0,12.175-5.451,12.175-12.175v-30.697   C115.178,303.535,109.727,308.987,103.003,308.987z"/>
	<path style="fill:#454545;" d="M103.003,415.839H20.766v30.697h82.237c6.723,0,12.175-5.451,12.175-12.175v-30.697   C115.178,410.387,109.727,415.839,103.003,415.839z"/>
	<path style="fill:#454545;" d="M398.828,296.812v30.697c0,6.723,5.449,12.175,12.175,12.175h82.235v-30.697h-82.235   C404.277,308.987,398.828,303.535,398.828,296.812z"/>
	<path style="fill:#454545;" d="M398.828,403.664v30.697c0,6.723,5.449,12.175,12.175,12.175h82.235v-30.697h-82.235   C404.277,415.839,398.828,410.387,398.828,403.664z"/>
</g>
<g>
	<path style="fill:#605E15;" d="M406.749,7.5h-38.512c-7.352,0-10.991,4.1-10.991,9.801l-0.002-0.002   c-1.422,12.618-5.598,24.484-11.847,35.126h76.843V22.99C422.24,14.437,415.303,7.5,406.749,7.5z"/>
	<path style="fill:#605E15;" d="M168.609,52.425c-6.25-10.642-10.427-22.508-11.849-35.126l-0.002,0.002   c0-5.671-3.604-9.801-10.989-9.801h-38.512c-8.558,0-15.491,6.936-15.491,15.49v29.435   C91.767,52.425,168.609,52.425,168.609,52.425z"/>
</g>
<path style="fill:#4F4D2C;" d="M119.125,7.5h-11.868c-8.558,0-15.491,6.936-15.491,15.49v29.435h27.359  C119.125,52.425,119.125,7.5,119.125,7.5z"/>
<path d="M494.53,214.431c-4.537-4.457-10.475-5.186-12.75-5.298c-0.193-0.019-0.388-0.029-0.584-0.033  c-12.131-0.214-23.345-4.59-31.467-10.955c-26.242-20.104-20.989-46.888-20.989-82.403c0-4.143-3.357-7.5-7.5-7.5  c-4.142,0-7.5,3.357-7.5,7.5c0,41.376-0.238,43.617,0.782,50.332c4.999,32.504,32.557,57.166,65.872,58.014  c0.216,0.018,0.435,0.028,0.653,0.028c0.048,0.001,0.123,0.023,0.141-0.001c0.205,0,2.001,0.203,2.831,1.019  c0.594,0.584,0.719,1.781,0.719,2.683v37.915h-74.735c-10.85,0-19.675,8.827-19.675,19.676v42.103  c0,10.85,8.826,19.675,19.675,19.675h74.735v25.4h-74.735c-10.85,0-19.675,8.826-19.675,19.675v42.104  c0,10.85,8.826,19.675,19.675,19.675h74.735v34.972c0,4.406-3.584,7.99-7.99,7.99H146.996c-4.142,0-7.5,3.357-7.5,7.5  s3.358,7.5,7.5,7.5h329.751c12.678,0,22.991-10.315,22.991-22.991c0-10.963,0-250.023,0-261.193  C499.738,220.98,496.906,216.764,494.53,214.431z M410.003,332.183c-2.577,0-4.674-2.097-4.674-4.674v-42.103  c0-2.578,2.097-4.675,4.674-4.675h74.735v51.451h-74.735V332.183z M410.003,439.036c-2.577,0-4.674-2.097-4.674-4.674v-42.104  c0-2.577,2.097-4.674,4.674-4.674h74.735v51.451h-74.735V439.036z"/>
<path d="M115.993,496.999H35.257c-4.406,0-7.99-3.584-7.99-7.99v-34.972h74.737c10.849,0,19.675-8.826,19.675-19.675v-42.103  c0-10.85-8.827-19.676-19.675-19.676H27.267v-25.4h74.737c10.849,0,19.675-8.826,19.675-19.675v-42.103  c0-10.85-8.827-19.676-19.675-19.676H27.267v-37.915c0-4.202,3.064-3.528,4.853-3.743c29.455-0.965,57.134-21.397,64.481-53.368  c2.321-9.852,1.666-13.938,1.666-110.778h65.114c19.481,30.166,54.73,50.098,92.622,49.285c37.399,0.798,72.88-18.72,92.62-49.285  h65.116v27.611c0,4.143,3.358,7.5,7.5,7.5c4.143,0,7.5-3.357,7.5-7.5c0-6.345,0-57.965,0-64.546C428.74,10.314,418.425,0,405.749,0  h-38.512c-9.654,0-17.604,5.657-18.352,15.412c-3.223,40.998-43.549,78.824-90.663,78.824c-0.684,0-1.366-0.011-2.048-0.026  c-0.112-0.002-0.224-0.002-0.337,0c-47.745,1.123-89.512-37.063-92.716-78.834C162.437,6.929,155.826,0,144.77,0h-38.512  C93.58,0,83.266,10.314,83.266,22.99c0,145.759,2.13,139.5-5.023,155.337c-3.332,7.447-9.286,15.005-18.109,21.373  c-13.853,9.559-26.796,9.133-29.91,9.432c-9.8,0.479-17.959,7.165-17.959,18.683c0,12.93,0,252.676,0,261.193  c0,12.678,10.314,22.991,22.991,22.991h80.736c4.142,0,7.5-3.357,7.5-7.5C123.493,500.356,120.136,496.999,115.993,496.999z   M405.749,15.001c4.406,0,7.99,3.584,7.99,7.989v21.934h-57.134c6.422-15.056,7.247-28.25,7.1-26.854  C364.148,13.869,360.48,15.001,405.749,15.001z M98.267,22.99c0-4.405,3.585-7.989,7.99-7.989c45.698,0,41.601-1.043,42.045,3.093  c0.921,8.737,3.406,18.175,7.097,26.831H98.267V22.99z M102.003,387.584c2.577,0,4.674,2.097,4.674,4.675v42.103  c0,2.577-2.097,4.674-4.674,4.674H27.267v-51.451h74.737V387.584z M102.003,280.732c2.577,0,4.674,2.097,4.674,4.675v42.103  c0,2.577-2.097,4.674-4.674,4.674H27.267v-51.451h74.737V280.732z"/>
<path d="M202.751,184.785c-4.142,0-7.5,3.357-7.5,7.5c0,4.143,3.358,7.5,7.5,7.5h106.5c4.142,0,7.5-3.357,7.5-7.5  c0-4.143-3.358-7.5-7.5-7.5H202.751z"/>
<g>
</g>
<g>
</g>
<g>
</g>
<g>
</g>
<g>
</g>
<g>
</g>
<g>
</g>
<g>
</g>
<g>
</g>
<g>
</g>
<g>
</g>
<g>
</g>
<g>
</g>
<g>
</g>
<g>
</g>
</svg>
