<?xml version="1.0" encoding="iso-8859-1"?>
<!-- Generator: Adobe Illustrator 19.0.0, SVG Export Plug-In . SVG Version: 6.00 Build 0)  -->
<svg xmlns="http://www.w3.org/2000/svg" xmlns:xlink="http://www.w3.org/1999/xlink" version="1.1" id="Capa_1" x="0px" y="0px" viewBox="0 0 512 512" style="enable-background:new 0 0 512 512;" xml:space="preserve">
<g>
	<path style="fill:#FFD05C;" d="M429.107,319.305L256,430.867L82.894,319.305c-3.368-2.167-7.806,0.256-7.806,4.257v70.646   c0,1.727,0.88,3.334,2.334,4.266l148.186,94.832c18.245,12.165,43.226,11.713,60.628,0.103   c159.928-102.35,150.677-95.241,150.677-99.2v-70.646C436.913,319.564,432.478,317.137,429.107,319.305z"/>
	<path style="fill:#FFD05C;" d="M429.107,164.917L256,276.48L82.894,164.917c-1.558-1.004-3.54-1.076-5.167-0.19   c-1.626,0.887-2.639,2.593-2.639,4.446v70.647c0,1.727,0.88,3.334,2.334,4.266l148.186,94.831   c18.212,12.143,43.193,11.734,60.629,0.103c159.747-102.232,150.677-95.238,150.677-99.199v-70.647   C436.913,165.178,432.477,162.746,429.107,164.917z"/>
	<path style="fill:#FFD05C;" d="M434.274,10.34c-1.628-0.887-3.609-0.814-5.167,0.19L256,122.091L82.894,10.53   c-1.558-1.005-3.54-1.077-5.167-0.19c-1.626,0.887-2.639,2.593-2.639,4.446v70.646c0,1.727,0.88,3.334,2.334,4.265l148.184,94.831   c18.278,12.187,43.261,11.692,60.631,0.104c159.747-102.234,150.677-95.239,150.677-99.2V14.786   C436.913,12.933,435.9,11.228,434.274,10.34z"/>
</g>
<g>
	<path style="fill:#FFA645;" d="M286.236,453.913c-17.408,11.613-42.389,12.059-60.628-0.103   c-159.781-102.251-150.52-95.137-150.52-99.097v39.496c0,1.727,0.88,3.334,2.334,4.266l148.186,94.832   c18.245,12.165,43.226,11.713,60.628,0.103l148.344-94.936c1.454-0.931,2.334-2.538,2.334-4.265v-39.496   C436.913,358.672,446.183,351.55,286.236,453.913z"/>
	<path style="fill:#FFA645;" d="M286.236,299.525c-17.449,11.641-42.431,12.032-60.629-0.103   C65.827,197.17,75.088,204.284,75.088,200.325v39.496c0,1.727,0.88,3.334,2.334,4.266l148.186,94.831   c18.212,12.143,43.193,11.734,60.629,0.103c159.747-102.233,150.677-95.238,150.677-99.199v-39.496   C436.913,204.284,446.197,197.154,286.236,299.525z"/>
	<path style="fill:#FFA645;" d="M286.236,145.137c-17.369,11.588-42.352,12.083-60.631-0.104L77.421,50.202   c-1.454-0.931-2.334-2.538-2.334-4.265v39.496c0,1.727,0.88,3.334,2.334,4.265l148.184,94.831   c18.278,12.187,43.261,11.692,60.631,0.104C445.983,82.4,436.913,89.394,436.913,85.433V45.937   C436.913,49.897,446.197,42.767,286.236,145.137z"/>
</g>
<path d="M440.549,0.935c-2.439-1.33-5.413-1.222-7.75,0.285l-63.742,41.081c-3.527,2.273-4.542,6.973-2.271,10.499  c2.273,3.526,6.976,4.543,10.499,2.27l52.033-33.533v64.616c-0.19,0.122-147.027,94.091-147.216,94.214  c-15.252,10.173-36.889,10.212-52.202,0c-0.04-0.026-0.08-0.053-0.12-0.079L82.683,86.153V21.536l169.203,109.045  c2.505,1.615,5.724,1.615,8.229,0l92.079-59.342c3.526-2.273,4.542-6.973,2.271-10.499c-2.274-3.526-6.976-4.541-10.499-2.27  L256,115.161L79.202,1.22c-5.046-3.253-11.711,0.382-11.711,6.384V90.31c0,2.591,1.32,5.001,3.501,6.398l150.54,96.339  c20.257,13.471,48.386,13.668,68.934,0l150.541-96.34c2.181-1.397,3.501-3.808,3.501-6.398V7.604  C444.509,4.824,442.99,2.266,440.549,0.935z"/>
<path d="M432.799,309.996l-63.742,41.081c-3.527,2.272-4.542,6.973-2.271,10.498c2.273,3.526,6.976,4.543,10.499,2.27l52.033-33.533  v64.617c-0.19,0.122-147.027,94.091-147.216,94.214c-14.354,9.574-35.536,10.832-52.321-0.079L82.683,394.928v-64.617  l169.203,109.046c2.505,1.614,5.724,1.614,8.229,0l92.079-59.342c3.526-2.273,4.542-6.974,2.271-10.499  c-2.274-3.526-6.976-4.542-10.499-2.271L256,423.936L79.202,309.996c-5.043-3.254-11.711,0.38-11.711,6.384v82.705  c0,2.591,1.32,5.002,3.501,6.398l150.538,96.338c20.222,13.449,48.358,13.693,68.939,0l150.538-96.338  c2.181-1.397,3.501-3.808,3.501-6.398V316.38C444.509,310.38,437.844,306.74,432.799,309.996z"/>
<path d="M432.799,155.606l-63.742,41.081c-3.527,2.273-4.542,6.973-2.271,10.499c2.273,3.526,6.976,4.542,10.499,2.27l52.033-33.533  v64.616l-147.096,94.135c-0.041,0.025-0.08,0.053-0.121,0.079c-15.252,10.172-36.889,10.212-52.202-0.001  c-0.04-0.025-0.08-0.053-0.12-0.078L82.683,240.539v-64.616l169.203,109.044c2.505,1.616,5.724,1.616,8.229,0l92.079-59.341  c3.526-2.273,4.542-6.973,2.271-10.499c-2.274-3.525-6.976-4.541-10.499-2.27L256,269.547L79.202,155.606  c-5.035-3.245-11.711,0.371-11.711,6.384v82.705c0,2.591,1.32,5.002,3.501,6.398l150.54,96.34c20.334,13.522,48.464,13.617,68.934,0  l150.541-96.34c2.181-1.397,3.501-3.808,3.501-6.398V161.99C444.509,156,437.855,152.348,432.799,155.606z"/>
<g>
</g>
<g>
</g>
<g>
</g>
<g>
</g>
<g>
</g>
<g>
</g>
<g>
</g>
<g>
</g>
<g>
</g>
<g>
</g>
<g>
</g>
<g>
</g>
<g>
</g>
<g>
</g>
<g>
</g>
</svg>
