<?xml version="1.0" encoding="iso-8859-1"?>
<!-- Generator: Adobe Illustrator 19.0.0, SVG Export Plug-In . SVG Version: 6.00 Build 0)  -->
<svg xmlns="http://www.w3.org/2000/svg" xmlns:xlink="http://www.w3.org/1999/xlink" version="1.1" id="Capa_1" x="0px" y="0px" viewBox="0 0 511.999 511.999" style="enable-background:new 0 0 511.999 511.999;" xml:space="preserve">
<path style="fill:#878686;" d="M273.202,100.01V75.796c0-5.124-4.152-9.278-9.276-9.278h-15.851c-5.123,0-9.276,4.153-9.276,9.278  v24.214H273.202z"/>
<path style="fill:#6F6F6F;" d="M264.601,66.552c-0.718-0.053,0.753-0.034-16.526-0.034c-5.123,0-9.276,4.153-9.276,9.278v24.214  h17.201V75.796C256,70.899,259.794,66.899,264.601,66.552z"/>
<path style="fill:#454545;" d="M291.191,127.136v-18.322c0-6.519-5.284-11.804-11.804-11.804h-46.775  c-6.519,0-11.804,5.284-11.804,11.804v18.322C244.05,122.808,267.919,122.802,291.191,127.136z"/>
<path style="fill:#2B2828;" d="M245.811,108.814c0-6.519,5.284-11.804,11.804-11.804h-25.001c-6.519,0-11.804,5.284-11.804,11.804  v18.322c8.166-1.521,16.512-2.518,25.002-2.968V108.814z"/>
<path style="fill:#7C7C7C;" d="M256,147.833c-90.902,0-164.853,73.953-164.853,164.854c0,90.899,73.951,164.852,164.853,164.852  c90.901,0,164.854-73.953,164.854-164.852C420.854,221.786,346.9,147.833,256,147.833z"/>
<path style="fill:#636363;" d="M119.565,312.687c0-86.112,66.371-157.005,150.643-164.235  c-96.678-8.303-179.062,68.188-179.062,164.235c0,96.055,82.392,172.534,179.062,164.233  C185.935,469.69,119.565,398.797,119.565,312.687z"/>
<path style="fill:#F7F6F5;" d="M256,176.251c-75.232,0-136.435,61.205-136.435,136.436c0,75.23,61.204,136.434,136.435,136.434  c75.231,0,136.436-61.205,136.436-136.434C392.436,237.455,331.23,176.251,256,176.251z"/>
<path style="fill:#EDEDED;" d="M306.003,421.12c-75.232,0-136.435-61.205-136.435-136.434c0-40.775,17.986-77.425,46.434-102.447  c-55.774,17.136-96.437,69.131-96.437,130.449c0,117.16,138.661,179.65,226.437,102.446  C333.346,419.02,319.915,421.12,306.003,421.12z"/>
<path style="fill:#514F4C;" d="M256,504.484c-105.758,0-191.798-86.039-191.798-191.797c0-105.758,86.039-191.799,191.798-191.799  c105.757,0,191.798,86.04,191.798,191.799C447.798,418.444,361.757,504.484,256,504.484z M256,150.398  c-89.486,0-162.289,72.801-162.289,162.289c0,89.485,72.802,162.288,162.289,162.288c89.487,0,162.289-72.802,162.289-162.288  C418.289,223.2,345.487,150.398,256,150.398z"/>
<path style="fill:#529FDD;" d="M339.781,386.149l-58.992-95.799c-0.01-0.017-0.023-0.031-0.033-0.048  c-0.082-0.13-0.174-0.252-0.263-0.377c-0.075-0.104-0.147-0.214-0.227-0.314c-0.091-0.115-0.193-0.221-0.291-0.33  c-0.09-0.101-0.176-0.204-0.271-0.299c-0.1-0.101-0.209-0.191-0.315-0.285c-0.103-0.094-0.204-0.189-0.313-0.276  c-0.106-0.085-0.222-0.16-0.333-0.24c-0.118-0.084-0.234-0.172-0.357-0.249c-0.018-0.011-0.033-0.024-0.05-0.035l-0.386-0.238  l-47.191,46.628l0.453,0.735c0.01,0.017,0.024,0.031,0.034,0.048c0.08,0.128,0.17,0.248,0.258,0.371  c0.077,0.107,0.149,0.219,0.232,0.321c0.088,0.11,0.186,0.212,0.279,0.317c0.094,0.104,0.184,0.213,0.283,0.313  c0.093,0.093,0.194,0.176,0.291,0.264c0.112,0.102,0.222,0.205,0.339,0.299c0.094,0.075,0.196,0.141,0.294,0.212  c0.132,0.095,0.262,0.192,0.399,0.278c0.015,0.01,0.028,0.022,0.043,0.03l95.797,58.994c2.958,1.822,6.779,1.374,9.237-1.082  C341.155,392.929,341.603,389.108,339.781,386.149z"/>
<path style="fill:#2F7DA8;" d="M230.758,334.286l0.453,0.735c0.01,0.017,0.024,0.031,0.034,0.048c0.08,0.128,0.17,0.248,0.258,0.371  c0.077,0.107,0.149,0.219,0.232,0.321c0.088,0.11,0.186,0.212,0.279,0.317c0.094,0.104,0.184,0.213,0.283,0.313  c0.093,0.093,0.194,0.176,0.291,0.264c0.112,0.102,0.222,0.205,0.339,0.299c0.094,0.075,0.196,0.141,0.294,0.212  c0.132,0.095,0.262,0.192,0.399,0.278c0.015,0.01,0.028,0.022,0.043,0.03c102.448,63.09,96.208,59.423,97.778,59.846l7.255-1.934  l-84.379-84.38L230.758,334.286z"/>
<g>
	<path style="fill:#FF4D56;" d="M279.705,288.982c-0.1-0.101-0.209-0.191-0.315-0.285c-0.103-0.094-0.204-0.189-0.313-0.276   c-0.106-0.085-0.222-0.16-0.333-0.24c-0.118-0.084-0.234-0.172-0.357-0.249c-0.018-0.011-0.033-0.024-0.05-0.035l-95.797-58.992   c-6.709-4.127-14.441,3.626-10.32,10.32l58.992,95.797c0.01,0.017,0.024,0.031,0.034,0.048c0.08,0.128,0.17,0.248,0.258,0.371   c0.077,0.107,0.149,0.219,0.232,0.321c0.088,0.11,0.186,0.212,0.279,0.317c0.094,0.104,0.184,0.213,0.283,0.313l47.679-47.11   C279.886,289.181,279.8,289.078,279.705,288.982z"/>
	<path style="fill:#FF4D56;" d="M172.218,239.224l58.992,95.797c0.01,0.017,0.024,0.031,0.034,0.048   c0.08,0.128,0.17,0.248,0.258,0.371c0.077,0.107,0.149,0.219,0.232,0.321c0.088,0.11,0.186,0.212,0.279,0.317   c0.094,0.104,0.184,0.213,0.283,0.313l23.846-23.561l-82.841-82.842C170.845,232.445,170.397,236.266,172.218,239.224z"/>
</g>
<path d="M112.065,312.703c0,115.369,129.712,183.806,224.787,119.028c3.424-2.333,4.308-6.998,1.976-10.422  c-2.333-3.423-6.998-4.308-10.422-1.976c-85.228,58.071-201.339-3.365-201.339-106.63c0-71.095,57.839-128.936,128.935-128.936  s128.936,57.841,128.936,128.936c0,34.381-13.428,66.743-37.809,91.124c-2.93,2.929-2.93,7.678-0.001,10.607  c2.929,2.929,7.678,2.93,10.608,0.001c27.216-27.215,42.204-63.344,42.204-101.732c0-79.367-64.569-143.937-143.937-143.937  C176.634,168.766,112.065,233.335,112.065,312.703z"/>
<path d="M86.21,312.703c0,93.622,76.168,169.788,169.789,169.788s169.79-76.167,169.79-169.788s-76.168-169.789-169.789-169.789  S86.21,219.08,86.21,312.703z M410.789,312.703c0,85.35-69.438,154.787-154.788,154.787s-154.788-69.438-154.788-154.787  c0-85.351,69.438-154.788,154.788-154.788S410.789,227.352,410.789,312.703z"/>
<path d="M369.419,148.901c-3.404-2.364-8.076-1.519-10.44,1.882c-2.362,3.402-1.521,8.076,1.882,10.439  c49.74,34.542,79.436,91.171,79.436,151.481c0,101.621-82.675,184.296-184.297,184.296S71.702,414.324,71.702,312.703  c0-116.348,106.123-202.03,218.115-181.178c0.145,0.027,0.289,0.042,0.434,0.06c16.548,3.112,32.559,8.494,47.863,16.144  c3.705,1.854,8.21,0.35,10.062-3.355c1.853-3.705,0.351-8.211-3.354-10.063c-14.81-7.403-30.232-12.84-46.131-16.319v-9.165  c0-10.201-7.958-18.556-17.989-19.237v-7.965c12.31-8.222,19.849-22.176,19.849-37.074C300.55,19.985,280.565,0,256,0  s-44.551,19.985-44.551,44.551c0,14.914,7.535,28.857,19.849,37.078v7.962c-10.031,0.681-17.989,9.037-17.989,19.237v9.193  C123.863,137.62,56.701,217.458,56.701,312.702c0,109.893,89.404,199.297,199.298,199.297s199.298-89.404,199.298-199.297  C455.299,247.48,423.194,186.245,369.419,148.901z M265.701,89.525H246.3V75.812c0-0.98,0.797-1.777,1.775-1.777h15.851  c0.978,0,1.775,0.797,1.775,1.777V89.525z M256,15.001c26.072,0,39.462,31.592,21,50.324c-3.077-3.83-7.791-6.291-13.075-6.291  h-15.851c-5.283,0-9.997,2.461-13.075,6.29C216.555,46.619,229.906,15.001,256,15.001z M228.31,115.332v-6.503  c0-2.372,1.931-4.303,4.303-4.303c9.102,0,36.161,0,46.774,0c2.372,0,4.303,1.931,4.303,4.303v6.481  C265.75,112.824,246.936,112.726,228.31,115.332z"/>
<path d="M280.755,290.317c-0.079-0.126-0.169-0.245-0.255-0.366c-0.078-0.109-0.151-0.221-0.234-0.325  c-0.089-0.112-0.188-0.215-0.284-0.322c-0.092-0.103-0.181-0.21-0.278-0.307c-1.1-1.1,5.366,3.063-97.166-60.077  c-6.719-4.132-14.433,3.64-10.32,10.32c62.84,102.045,59.203,96.532,60.709,97.73c0.08,0.064,0.626,0.452,0.737,0.52  c103.361,63.652,96.698,60.108,99.727,60.108c5.845,0,9.472-6.428,6.39-11.434l-58.992-95.799  C280.779,290.349,280.766,290.334,280.755,290.317z M262.386,295.708l-23.379,23.379l-37.473-60.853L262.386,295.708z   M249.614,329.695l23.379-23.379l37.473,60.855L249.614,329.695z"/>
<g>
</g>
<g>
</g>
<g>
</g>
<g>
</g>
<g>
</g>
<g>
</g>
<g>
</g>
<g>
</g>
<g>
</g>
<g>
</g>
<g>
</g>
<g>
</g>
<g>
</g>
<g>
</g>
<g>
</g>
</svg>
