<?xml version="1.0" encoding="iso-8859-1"?>
<!-- Generator: Adobe Illustrator 19.0.0, SVG Export Plug-In . SVG Version: 6.00 Build 0)  -->
<svg xmlns="http://www.w3.org/2000/svg" xmlns:xlink="http://www.w3.org/1999/xlink" version="1.1" id="Capa_1" x="0px" y="0px" viewBox="0 0 512 512" style="enable-background:new 0 0 512 512;" xml:space="preserve">
<path style="fill:#068E20;" d="M405.591,120.836C386.812,54.106,325.292,7.5,255.988,7.5S125.163,54.105,106.384,120.834  c-1.491,5.299,4.38,9.642,9.01,6.68c18.595-11.898,43.91-7.276,56.994,11.468c2.385,3.415,7.452,3.419,9.841,0  c16.742-23.984,52.093-23.986,68.839,0c2.385,3.415,7.452,3.419,9.841,0c16.743-23.983,52.094-23.987,68.838,0  c2.385,3.415,7.452,3.419,9.841,0c13.043-18.684,38.34-23.4,56.995-11.467c2.098,1.343,4.807,1.249,6.807-0.233  C405.389,125.799,406.266,123.233,405.591,120.836z"/>
<path style="fill:#99BA3E;" d="M405.591,120.836C386.812,54.106,325.292,7.5,255.988,7.5S125.163,54.105,106.384,120.834  c-1.491,5.299,4.38,9.642,9.01,6.68c18.595-11.898,43.91-7.276,56.994,11.468c2.385,3.415,7.452,3.419,9.841,0  c16.742-23.984,52.093-23.986,68.839,0c2.385,3.415,7.452,3.419,9.841,0c16.743-23.983,52.094-23.987,68.838,0  c2.385,3.415,7.452,3.419,9.841,0c13.043-18.684,38.34-23.4,56.995-11.467c2.098,1.343,4.807,1.249,6.807-0.233  C405.389,125.799,406.266,123.233,405.591,120.836z"/>
<path style="fill:#779300;" d="M244.79,7.915c-64.651,4.706-120.644,49.808-138.405,112.919c-1.491,5.299,4.38,9.642,9.01,6.68  c4.793-3.067,10.165-5.077,15.794-5.982C131.874,109.143,160.251,28.963,244.79,7.915z"/>
<g>
	<path style="fill:#1B8E5A;" d="M329.765,139.006c1.122,1.59,2.947,2.539,4.895,2.541C326.849,64.928,294.597,7.5,255.988,7.5   c-38.607,0-70.86,57.428-78.672,134.047c1.948-0.003,3.771-0.952,4.894-2.543c16.654-23.977,52.143-24.091,68.876,0.002   c2.394,3.39,7.42,3.381,9.806-0.006C277.59,114.966,313.082,114.985,329.765,139.006z"/>
	<path style="fill:#1B8E5A;" d="M396.582,127.516c2.098,1.343,4.807,1.249,6.807-0.233c2.001-1.483,2.877-4.049,2.203-6.445   C386.704,53.724,324.891,7.5,255.988,7.5v134.047c1.952,0,3.781-0.951,4.904-2.547c16.718-24.065,52.205-23.992,68.872,0.006   c2.394,3.39,7.42,3.381,9.807-0.006C353.177,119.415,378.794,116.136,396.582,127.516z"/>
</g>
<path style="fill:#99BA3E;" d="M329.765,139.006c1.122,1.59,2.947,2.539,4.895,2.541C326.849,64.928,294.597,7.5,255.988,7.5  v134.047c1.952,0,3.781-0.951,4.904-2.547C277.596,114.958,313.105,115.019,329.765,139.006z"/>
<path style="fill:#6F6F6F;" d="M383.095,306.283h-20.099v-8c0-6.628-5.372-12.001-12.001-12.001h-26.669  c-6.627,0-12.001,5.372-12.001,12.001v8H199.651v-8c0-6.628-5.372-12.001-12.001-12.001h-26.669  c-6.627,0-12.001,5.372-12.001,12.001v8h-20.1c-3.899,0-7.06,3.162-7.06,7.06v184.095c0,3.899,3.16,7.061,7.06,7.061h254.214  c3.9,0,7.06-3.161,7.06-7.061V313.343C390.155,309.445,386.996,306.283,383.095,306.283z"/>
<circle style="fill:#F5F5F5;" cx="255.985" cy="408.615" r="52.393"/>
<g>
	<path style="fill:#51504F;" d="M173.982,298.282c0-6.628,5.373-12.001,12.001-12.001h-25.002c-6.627,0-12.001,5.372-12.001,12.001   v8h-20.1c-3.899,0-7.06,3.162-7.06,7.06v184.095c0,3.899,3.16,7.061,7.06,7.061h25.002c-3.899,0-7.06-3.161-7.06-7.061V313.343   c0-3.898,3.16-7.06,7.06-7.06h16.415C174.488,305.834,173.982,301.957,173.982,298.282z"/>
	<path style="fill:#51504F;" d="M324.327,286.281c-6.627,0-12.001,5.372-12.001,12.001v8h20.05c4.958,0,4.951-4.946,4.951-4.946   v-3.054c0-6.628,5.373-12.001,12.001-12.001H324.327z"/>
</g>
<path d="M417.043,143.339c0.034-0.112,0.057-0.229,0.086-0.343c0.03-0.12,0.066-0.238,0.09-0.36  c0.095-0.478,0.146-0.972,0.146-1.478c0-0.553-0.06-1.092-0.173-1.61C405.731,59.73,337.056,0,255.982,0  c-74.5,0-146.656,51.312-161.262,139.923c-0.423,2.994,0.757,5.551,2.773,7.135l142.626,111.777  c-8.348,5.28-13.908,14.588-13.908,25.176c0,5.373,1.438,10.414,3.939,14.771h-23.004c0-11.928-9.246-20.001-19.501-20.001h-26.669  c-10.208,0-19.501,8.024-19.501,20.001h-12.6c-8.028,0-14.561,6.532-14.561,14.561v184.095c0,8.029,6.531,14.562,14.561,14.562  H383.09c8.028,0,14.561-6.532,14.561-14.562V368.506c0-4.143-3.357-7.5-7.5-7.5c-4.143,0-7.5,3.357-7.5,7.5v128.492H129.316V313.783  h12.159v3.5c0,4.143,3.357,7.5,7.5,7.5s7.5-3.357,7.5-7.5c0-7.037,0-9.214,0-19.001c0-2.481,2.019-4.5,4.5-4.5h26.669  c2.482,0,4.5,2.019,4.5,4.5c0,9.77,0,11.954,0,19.001c0,4.143,3.357,7.5,7.5,7.5c4.143,0,7.5-3.357,7.5-7.5v-3.5h97.675v3.5  c0,4.143,3.357,7.5,7.5,7.5s7.5-3.357,7.5-7.5c0-7.037,0-9.214,0-19.001c0-2.481,2.019-4.5,4.5-4.5h26.669  c2.481,0,4.5,2.019,4.5,4.5c0,9.77,0,11.954,0,19.001c0,4.143,3.357,7.5,7.5,7.5c4.142,0,7.5-3.357,7.5-7.5v-3.5h12.158v28.723  c0,4.143,3.357,7.5,7.5,7.5c4.143,0,7.5-3.357,7.5-7.5v-29.162c0-8.029-6.531-14.561-14.561-14.561H370.49  c0-11.928-9.246-20.001-19.501-20.001H324.32c-10.2,0-19.501,8.014-19.501,20.001h-23.005c7.875-13.72,3.637-31.342-9.969-39.946  l142.314-111.531C415.519,146.353,416.55,144.963,417.043,143.339z M187.303,123.169c9.493-57.915,33.639-100.608,61.179-107.258  v109.243C230.364,109.9,204.99,109.996,187.303,123.169z M324.662,123.171c-18.366-13.65-43.742-12.751-61.18,1.969V15.911  C299.519,24.627,318.661,86.564,324.662,123.171z M248.482,149.88v87.902l-62.632-90.216  C199.069,121.075,237.328,122.612,248.482,149.88z M263.483,149.879c11.165-27.3,49.422-28.781,62.63-2.313l-62.63,90.216V149.879z   M340.378,126.716c-5.147-35.475-17.698-79.024-42.082-105.471c47.716,14.39,84.699,51.816,99.001,98.008  C378.907,109.438,356.022,112.22,340.378,126.716z M213.669,21.244c-24.388,26.453-36.936,70.008-42.083,105.473  c-15.944-14.774-38.918-17.071-56.919-7.466C129.277,72.058,166.963,35.325,213.669,21.244z M137.962,128.473  c14.361,0,27.343,9.052,32.302,22.523c0.011,0.029,0.027,0.055,0.038,0.083c0.126,0.33,0.27,0.656,0.446,0.971  c0.001,0.001,0.001,0.002,0.002,0.003c0.004,0.007,0.009,0.013,0.012,0.019c0.116,0.207,0.241,0.411,0.379,0.609l50.303,72.458  L112.48,139.743C118.936,132.596,128.075,128.473,137.962,128.473z M241.211,284.011c0-8.144,6.622-14.768,14.762-14.772  c0.003,0,0.006,0,0.009,0c0.002,0,0.005,0,0.007,0c8.141,0.004,14.762,6.628,14.762,14.772c0,8.143-6.626,14.771-14.771,14.771  C247.838,298.782,241.211,292.156,241.211,284.011z M341.216,152.048c0.168-0.301,0.386-0.785,0.496-1.085  c8.923-24.16,40.536-30.305,57.772-11.217l-108.967,85.397C290.865,224.643,340.918,152.58,341.216,152.048z"/>
<path d="M274.99,351.805c-38.859-13.001-78.902,16.121-78.902,56.811c0,33.025,26.868,59.895,59.894,59.895  c33.025,0,59.895-26.869,59.895-59.895c0-14.704-5.381-28.846-15.151-39.816c-2.754-3.095-7.496-3.368-10.59-0.614  c-3.094,2.755-3.368,7.496-0.614,10.59c25.647,28.801,5.162,74.735-33.539,74.735c-24.754,0-44.893-20.139-44.893-44.894  c0-30.462,29.982-52.337,59.144-42.586c3.925,1.315,8.178-0.804,9.492-4.733C281.038,357.37,278.919,353.119,274.99,351.805z"/>
<path d="M255.981,437.118c4.143,0,7.5-3.357,7.5-7.5v-13.501h13.501c4.143,0,7.5-3.357,7.5-7.5s-3.357-7.5-7.5-7.5h-13.501v-13.501  c0-4.143-3.357-7.5-7.5-7.5s-7.5,3.357-7.5,7.5v13.501H234.98c-4.143,0-7.5,3.357-7.5,7.5s3.357,7.5,7.5,7.5h13.501v13.501  C248.481,433.76,251.838,437.118,255.981,437.118z"/>
<g>
</g>
<g>
</g>
<g>
</g>
<g>
</g>
<g>
</g>
<g>
</g>
<g>
</g>
<g>
</g>
<g>
</g>
<g>
</g>
<g>
</g>
<g>
</g>
<g>
</g>
<g>
</g>
<g>
</g>
</svg>
