<?xml version="1.0" encoding="iso-8859-1"?>
<!-- Generator: Adobe Illustrator 19.0.0, SVG Export Plug-In . SVG Version: 6.00 Build 0)  -->
<svg xmlns="http://www.w3.org/2000/svg" xmlns:xlink="http://www.w3.org/1999/xlink" version="1.1" id="Capa_1" x="0px" y="0px" viewBox="0 0 512 512" style="enable-background:new 0 0 512 512;" xml:space="preserve">
<path style="fill:#FF4D56;" d="M181.848,115.365V25.163c0-9.48-7.682-17.162-17.161-17.162c-9.481,0-17.163,7.683-17.163,17.162  v90.202H181.848z"/>
<rect x="147.518" y="73.034" style="fill:#D12451;" width="34.322" height="42.333"/>
<path style="fill:#6F6F6F;" d="M329.053,114.365H197.887h-14.942c-0.369,0-0.732,0.017-1.098,0.028v-0.028h-34.324  c0,6.346,0,126.903,0,132.401v221.809c0,19.564,15.858,35.423,35.422,35.423h146.109c19.564,0,35.422-15.859,35.422-35.423V149.788  C364.476,130.225,348.618,114.365,329.053,114.365z"/>
<g>
	<path style="fill:#5B5A59;" d="M181.848,468.576V246.767v-96.979v-35.395v-0.028h-34.324c0,6.346,0,126.903,0,132.401v221.809   c0,19.564,15.858,35.423,35.422,35.423h34.324C197.705,504,181.848,488.14,181.848,468.576z"/>
	<path style="fill:#5B5A59;" d="M217.27,114.365h-1.098v0.028C216.537,114.383,216.9,114.365,217.27,114.365z"/>
</g>
<path style="fill:#97C8F7;" d="M318.213,147.725H193.785c-7.064,0-12.792,5.728-12.792,12.794v53.793h150.011v-53.793  C331.005,153.452,325.278,147.725,318.213,147.725z"/>
<path style="fill:#70AAEF;" d="M180.993,212.479v16.98c0,7.065,5.727,12.794,12.792,12.794h124.428  c7.064,0,12.792-5.728,12.792-12.794v-16.98H180.993z"/>
<g>
	<circle style="fill:#C2C2C2;" cx="198.862" cy="289.348" r="13.6"/>
	<circle style="fill:#C2C2C2;" cx="313.138" cy="289.348" r="13.6"/>
	<circle style="fill:#C2C2C2;" cx="255.995" cy="289.348" r="13.601"/>
	<circle style="fill:#C2C2C2;" cx="198.862" cy="394.254" r="13.6"/>
	<circle style="fill:#C2C2C2;" cx="313.138" cy="394.254" r="13.6"/>
	<circle style="fill:#C2C2C2;" cx="255.995" cy="394.254" r="13.601"/>
	<circle style="fill:#C2C2C2;" cx="198.862" cy="341.801" r="13.6"/>
	<circle style="fill:#C2C2C2;" cx="313.138" cy="341.801" r="13.6"/>
	<circle style="fill:#C2C2C2;" cx="255.995" cy="341.801" r="13.601"/>
</g>
<path d="M364.476,249.488c4.142,0,7.5-3.357,7.5-7.5v-91.699c0-23.668-19.255-42.924-42.923-42.924H189.348  c0-16.256,0-66.295,0-82.702c0-13.6-11.064-24.663-24.661-24.663c-13.6,0-24.663,11.064-24.663,24.662c0,5.088,0,434.343,0,444.414  c0,23.668,19.255,42.924,42.923,42.924h146.109c23.667,0,42.923-19.255,42.923-42.924V267.64c0-4.143-3.358-7.5-7.5-7.5  c-4.143,0-7.5,3.357-7.5,7.5v201.436c0,15.397-12.525,27.923-27.922,27.923H182.946c-15.396,0-27.922-12.526-27.922-27.923V122.365  h26.173c0.288,0.025,0.576,0.033,0.872,0.025l0.346-0.012c0.176-0.006,0.353-0.014,0.531-0.014h146.109  c15.397,0,27.922,12.526,27.922,27.923v91.699C356.975,246.13,360.333,249.488,364.476,249.488z M164.686,15.001  c5.326,0,9.661,4.334,9.661,9.662v40.369h-19.323V24.662C155.024,19.335,159.358,15.001,164.686,15.001z M155.024,107.365V80.033  h19.323v27.332H155.024z"/>
<path d="M338.505,161.019c0-11.19-9.104-20.294-20.292-20.294H193.785c-11.189,0-20.292,9.105-20.292,20.294  c0,7.99,0,61.746,0,68.94c0,11.19,9.104,20.294,20.292,20.294h124.428c11.189,0,20.292-9.105,20.292-20.294  C338.505,222.765,338.505,169.009,338.505,161.019z M323.504,229.958c0,2.919-2.374,5.293-5.291,5.293H193.785  c-2.917,0-5.291-2.374-5.291-5.293v-9.48h87.061c4.143,0,7.5-3.357,7.5-7.5c0-4.143-3.357-7.5-7.5-7.5h-87.061v-44.46  c0-2.919,2.374-5.293,5.291-5.293h124.428c2.917,0,5.291,2.374,5.291,5.293v44.46h-21.28c-4.143,0-7.5,3.357-7.5,7.5  c0,4.143,3.357,7.5,7.5,7.5h21.28V229.958z"/>
<path d="M198.859,310.954c11.634,0,21.099-9.466,21.099-21.101c0-11.635-9.466-21.1-21.099-21.1c-11.636,0-21.101,9.466-21.101,21.1  C177.757,301.488,187.223,310.954,198.859,310.954z M198.859,283.753c3.362,0,6.098,2.735,6.098,6.099c0,3.363-2.735,6.1-6.098,6.1  c-3.363,0-6.1-2.736-6.1-6.1C192.758,286.489,195.494,283.753,198.859,283.753z"/>
<path d="M313.14,268.752c-11.634,0-21.099,9.466-21.099,21.1c0,11.636,9.466,21.101,21.099,21.101c11.636,0,21.1-9.466,21.1-21.101  C334.242,278.218,324.776,268.752,313.14,268.752z M313.14,295.953c-3.362,0-6.098-2.736-6.098-6.1c0-3.363,2.735-6.099,6.098-6.099  c3.363,0,6.099,2.735,6.099,6.099C319.241,293.216,316.504,295.953,313.14,295.953z"/>
<path d="M256,310.954c11.634,0,21.099-9.466,21.099-21.101c0-11.635-9.466-21.1-21.099-21.1c-11.637,0-21.103,9.466-21.103,21.1  C234.898,301.488,244.364,310.954,256,310.954z M256,283.753c3.362,0,6.098,2.735,6.098,6.099c0,3.363-2.735,6.1-6.098,6.1  c-3.364,0-6.102-2.736-6.102-6.1C249.899,286.489,252.636,283.753,256,283.753z"/>
<path d="M198.859,415.851c11.634,0,21.099-9.466,21.099-21.101c0-11.635-9.466-21.1-21.099-21.1c-11.636,0-21.101,9.466-21.101,21.1  C177.757,406.386,187.223,415.851,198.859,415.851z M198.859,388.652c3.362,0,6.098,2.735,6.098,6.099c0,3.363-2.735,6.1-6.098,6.1  c-3.363,0-6.1-2.736-6.1-6.1C192.758,391.387,195.494,388.652,198.859,388.652z"/>
<path d="M313.14,373.651c-11.634,0-21.099,9.466-21.099,21.1c0,11.636,9.466,21.101,21.099,21.101c11.636,0,21.1-9.466,21.1-21.101  C334.242,383.116,324.776,373.651,313.14,373.651z M313.14,400.85c-3.362,0-6.098-2.736-6.098-6.1c0-3.363,2.735-6.099,6.098-6.099  c3.363,0,6.099,2.735,6.099,6.099C319.241,398.114,316.504,400.85,313.14,400.85z"/>
<path d="M256,415.851c11.634,0,21.099-9.466,21.099-21.101c0-11.635-9.466-21.1-21.099-21.1c-11.637,0-21.103,9.466-21.103,21.1  C234.898,406.386,244.364,415.851,256,415.851z M256,388.652c3.362,0,6.098,2.735,6.098,6.099c0,3.363-2.735,6.1-6.098,6.1  c-3.364,0-6.102-2.736-6.102-6.1C249.899,391.387,252.636,388.652,256,388.652z"/>
<path d="M198.859,363.402c11.634,0,21.099-9.466,21.099-21.1c0-11.636-9.466-21.101-21.099-21.101  c-11.636,0-21.101,9.466-21.101,21.101C177.757,353.936,187.223,363.402,198.859,363.402z M198.859,336.202  c3.362,0,6.098,2.736,6.098,6.1c0,3.363-2.735,6.099-6.098,6.099c-3.363,0-6.1-2.735-6.1-6.099  C192.758,338.939,195.494,336.202,198.859,336.202z"/>
<path d="M313.14,321.201c-11.634,0-21.099,9.466-21.099,21.101c0,11.635,9.466,21.1,21.099,21.1c11.636,0,21.1-9.466,21.1-21.1  C334.242,330.667,324.776,321.201,313.14,321.201z M313.14,348.401c-3.362,0-6.098-2.735-6.098-6.099c0-3.363,2.735-6.1,6.098-6.1  c3.363,0,6.099,2.736,6.099,6.1C319.241,345.666,316.504,348.401,313.14,348.401z"/>
<path d="M256,363.402c11.634,0,21.099-9.466,21.099-21.1c0-11.636-9.466-21.101-21.099-21.101c-11.637,0-21.103,9.466-21.103,21.101  C234.898,353.936,244.364,363.402,256,363.402z M256,336.202c3.362,0,6.098,2.736,6.098,6.1c0,3.363-2.735,6.099-6.098,6.099  c-3.364,0-6.102-2.735-6.102-6.099C249.899,338.939,252.636,336.202,256,336.202z"/>
<path d="M326.741,433.19H185.258c-4.143,0-7.5,3.358-7.5,7.5c0,4.143,3.357,7.5,7.5,7.5H326.74c4.143,0,7.5-3.357,7.5-7.5  C334.242,436.548,330.884,433.19,326.741,433.19z"/>
<path d="M326.741,461.619H185.258c-4.143,0-7.5,3.357-7.5,7.5s3.357,7.5,7.5,7.5H326.74c4.143,0,7.5-3.357,7.5-7.5  C334.242,464.976,330.884,461.619,326.741,461.619z"/>
<g>
</g>
<g>
</g>
<g>
</g>
<g>
</g>
<g>
</g>
<g>
</g>
<g>
</g>
<g>
</g>
<g>
</g>
<g>
</g>
<g>
</g>
<g>
</g>
<g>
</g>
<g>
</g>
<g>
</g>
</svg>
