<?xml version="1.0" encoding="iso-8859-1"?>
<!-- Generator: Adobe Illustrator 19.0.0, SVG Export Plug-In . SVG Version: 6.00 Build 0)  -->
<svg xmlns="http://www.w3.org/2000/svg" xmlns:xlink="http://www.w3.org/1999/xlink" version="1.1" id="Capa_1" x="0px" y="0px" viewBox="0 0 511.999 511.999" style="enable-background:new 0 0 511.999 511.999;" xml:space="preserve">
<path style="fill:#454545;" d="M207.58,85.235V26.088c0-7.438,6.031-13.468,13.468-13.468h67.338c7.438,0,13.47,6.029,13.47,13.468  v59.148H207.58z"/>
<path style="fill:#2D2C2B;" d="M246.049,12.62h-25.002c-7.436,0-13.468,6.029-13.468,13.468v59.148h25.002V26.088  C232.582,18.649,238.614,12.62,246.049,12.62z"/>
<path style="fill:#FF4D56;" d="M199.385,83.235h110.667c8.508,0,15.405,6.897,15.405,15.407v19.533H183.978V98.643  C183.978,90.133,190.876,83.235,199.385,83.235z"/>
<path style="fill:#D12451;" d="M224.386,83.235h-25.002c-8.509,0-15.407,6.897-15.407,15.407v19.533h25.002V98.643  C208.979,90.133,215.878,83.235,224.386,83.235z"/>
<g>
	<path style="fill:#454545;" d="M53.589,261.984c16.112-66.964,64.94-121.182,128.629-144.808h143.239   c63.69,23.625,112.521,77.844,128.631,144.808H53.589z"/>
	<path style="fill:#454545;" d="M453.545,360.845c-16.636,65.964-65.086,119.27-128.088,142.639H182.219   c-63-23.368-111.452-76.675-128.088-142.639H453.545z"/>
</g>
<g>
	<path style="fill:#2D2C2B;" d="M228.18,117.176h-45.963c-63.69,23.625-112.517,77.844-128.629,144.808h82.9   C147.973,195.02,182.78,140.802,228.18,117.176z"/>
	<path style="fill:#2D2C2B;" d="M136.874,360.845H54.13c16.636,65.964,65.088,119.27,128.088,142.639h45.963   C183.272,480.115,148.732,426.809,136.874,360.845z"/>
</g>
<path style="fill:#7F7F7F;" d="M36.453,346.58c0,8.548,6.896,15.476,15.407,15.476h408.285c8.509,0,15.407-6.928,15.407-15.476  v-70.348c0-8.547-6.898-15.475-15.407-15.475H51.86c-8.511,0-15.407,6.928-15.407,15.475  C36.453,276.232,36.453,346.58,36.453,346.58z"/>
<path style="fill:#5B5959;" d="M116.458,346.58v-70.348c0-8.547,6.896-15.475,15.407-15.475H51.86  c-8.511,0-15.407,6.928-15.407,15.475v70.348c0,8.548,6.896,15.476,15.407,15.476h80.005  C123.355,362.055,116.458,355.127,116.458,346.58z"/>
<path d="M459.902,255.498c-8.604-31.768-24.665-61.446-46.69-86.147c-2.755-3.091-7.496-3.364-10.59-0.606  c-3.092,2.757-3.363,7.497-0.606,10.59c19.57,21.948,34.082,48.115,42.311,76.164H63.344  c17.412-59.626,61.724-107.66,120.233-129.807c3.335,0,125.21,0,140.52,0c22.08,8.359,42.335,20.508,60.216,36.123  c3.12,2.724,7.858,2.402,10.584-0.716c2.725-3.12,2.403-7.858-0.716-10.584c-18.27-15.953-38.846-28.541-61.224-37.469V98.658  c0-11.918-9.313-22.907-23.601-22.907V55.444h47.095c4.143,0,7.5-3.357,7.5-7.5c0-18.165,14.777-32.943,32.941-32.943  c18.165,0,32.943,14.778,32.943,32.943c0,29.256-35.551,43.979-56.236,23.293c-2.93-2.928-7.678-2.928-10.608,0  c-2.929,2.93-2.929,7.678,0,10.608c9.056,9.056,21.095,14.042,33.901,14.042c26.437,0,47.944-21.507,47.944-47.943  C444.837,21.508,423.329,0,396.893,0c-23.883,0-43.74,17.558-47.352,40.443h-40.185V26.103c0-11.562-9.407-20.968-20.97-20.968  h-67.338c-11.562,0-20.968,9.406-20.968,20.968v14.341h-25.09c-4.143,0-7.5,3.357-7.5,7.5s3.357,7.5,7.5,7.5h25.09v20.306  c-14.222,0-23.603,10.933-23.603,22.907v13.718c-31.266,12.173-59.572,31.807-82.014,56.975  c-22.113,24.8-38.211,54.622-46.79,86.537c-10.639,1.973-18.721,11.316-18.721,22.517v68.047c0,11.423,8.404,20.917,19.352,22.63  c18.386,65.626,67.106,118.634,131.305,142.448c0.835,0.31,1.718,0.468,2.608,0.468h143.239c0.891,0,1.773-0.158,2.608-0.468  c64.109-23.778,112.785-76.673,131.23-142.171c14.611,0,23.756-11.113,23.756-22.907v-68.046  C483.052,266.182,473.278,255.498,459.902,255.498z M215.081,26.103c0-3.29,2.677-5.967,5.967-5.967h67.338  c3.291,0,5.969,2.677,5.969,5.967v49.648h-79.275V26.103z M191.478,98.658c0-4.359,3.547-7.906,7.906-7.906  c11.912,0,91.508,0,110.667,0c4.358,0,7.904,3.547,7.904,7.906v12.033H191.478V98.658z M468.051,346.454  c0,4.359-3.547,7.906-7.906,7.906h-55.023c-4.142,0-7.5,3.357-7.5,7.5s3.358,7.5,7.5,7.5h38.529  c-17.86,58.587-61.893,105.812-119.553,127.638H183.577c-57.661-21.825-101.694-69.052-119.553-127.638h315.095  c4.143,0,7.5-3.357,7.5-7.5s-3.357-7.5-7.5-7.5H51.86c-4.359,0-7.906-3.547-7.906-7.906v-68.047c0-4.359,3.547-7.906,7.906-7.906  c3.213,0,397.97,0,408.285,0c4.359,0,7.906,3.547,7.906,7.906L468.051,346.454L468.051,346.454z"/>
<path d="M199.233,144.931c-4.143,0-7.5,3.357-7.5,7.5c0,4.143,3.357,7.5,7.5,7.5h115.552c4.143,0,7.5-3.357,7.5-7.5  c0-4.143-3.357-7.5-7.5-7.5H199.233z"/>
<g>
</g>
<g>
</g>
<g>
</g>
<g>
</g>
<g>
</g>
<g>
</g>
<g>
</g>
<g>
</g>
<g>
</g>
<g>
</g>
<g>
</g>
<g>
</g>
<g>
</g>
<g>
</g>
<g>
</g>
</svg>
