<?xml version="1.0" encoding="iso-8859-1"?>
<!-- Generator: Adobe Illustrator 19.0.0, SVG Export Plug-In . SVG Version: 6.00 Build 0)  -->
<svg xmlns="http://www.w3.org/2000/svg" xmlns:xlink="http://www.w3.org/1999/xlink" version="1.1" id="Capa_1" x="0px" y="0px" viewBox="0 0 512 512" style="enable-background:new 0 0 512 512;" xml:space="preserve">
<path style="fill:#EDEDED;" d="M161.103,47.862c-52.319,64.644-48.428,159.683,11.688,219.796  c60.114,60.113,155.153,64.006,219.797,11.689L161.103,47.862z"/>
<path style="fill:#DDDCDB;" d="M217.372,104.13l-56.269-56.269c-52.319,64.644-48.428,159.683,11.688,219.796  c24.331,24.331,54.386,39.448,85.83,45.36C194.658,261.939,178.779,173.307,217.372,104.13z"/>
<path style="fill:#7F7F7F;" d="M388.553,277.645L162.137,51.229c-6.629-6.628-6.629-17.374,0-24.001  c6.627-6.629,17.374-6.629,24.001,0l226.417,226.416c6.627,6.627,6.627,17.373,0,24.001  C405.925,284.276,395.175,284.271,388.553,277.645z"/>
<path style="fill:#454545;" d="M244.563,85.651l-58.424-58.424c-6.627-6.629-17.374-6.629-24.001,0  c-6.629,6.627-6.629,17.373,0,24.001l56.767,56.767C213.35,92.299,229.934,78.047,244.563,85.651z"/>
<circle style="fill:#FFD05C;" cx="407.195" cy="35.342" r="29.822"/>
<path style="fill:#FFA645;" d="M422.103,9.516c-19.775-11.444-44.733,2.831-44.733,25.823c0,23.012,24.97,37.257,44.733,25.821  C402.236,49.663,402.241,21.008,422.103,9.516z"/>
<g>
	<path style="fill:#7F7F7F;" d="M117.209,473.589H91.564c-7.498,0-13.577,6.078-13.577,13.577v5.348   c0,6.628,5.373,12.001,12.001,12.001h28.801c6.627,0,12.001-5.372,12.001-12.001v-5.348   C130.788,479.667,124.71,473.589,117.209,473.589z"/>
	<path style="fill:#7F7F7F;" d="M270.761,473.589h-25.647c-7.498,0-13.577,6.078-13.577,13.577v5.348   c0,6.628,5.373,12.001,12.001,12.001h28.801c6.627,0,12.001-5.372,12.001-12.001v-5.348   C284.34,479.667,278.26,473.589,270.761,473.589z"/>
</g>
<g>
	<path style="fill:#454545;" d="M104.387,492.514v-5.348c0-7.371,5.877-13.356,13.2-13.558c-0.98-0.03,3.978-0.02-26.024-0.02   c-7.498,0-13.577,6.078-13.577,13.577v5.348c0,6.628,5.373,12.001,12.001,12.001h26.401   C109.761,504.515,104.387,499.142,104.387,492.514z"/>
	<path style="fill:#454545;" d="M257.94,492.514v-5.348c0-7.371,5.877-13.356,13.2-13.558c-0.98-0.03,3.981-0.02-26.024-0.02   c-7.498,0-13.577,6.078-13.577,13.577v5.348c0,6.628,5.373,12.001,12.001,12.001h26.401   C263.313,504.515,257.94,499.142,257.94,492.514z"/>
</g>
<path d="M405.132,114.3c4.058,0,7.396-3.24,7.494-7.32l0.919-38.322c15.919-3.126,27.968-17.18,27.968-34.001  C441.514,15.547,425.967,0,406.858,0c-16.82,0-30.875,12.049-34,27.968l-172.552,4.137c-9.018-9.018-14.34-16.365-26.5-16.365  c-19.046,0-30.829,20.938-20.921,37.18c-23.418,31.184-35.205,69.589-33.263,108.84c1.955,39.512,17.735,76.801,44.579,105.694  c-0.839,2.473-52.779,155.57-57.968,170.864c-0.004,0.012-0.008,0.024-0.012,0.037l-9.404,27.718h-5.252  c-11.622,0-21.077,9.456-21.077,21.077v5.348c0,10.753,8.749,19.501,19.501,19.501h28.801c10.753,0,19.501-8.749,19.501-19.501  v-5.348c0-11.622-9.457-21.077-21.079-21.077h-4.553l6.927-20.419l61.581-38.537l61.578,38.535l6.928,20.421h-4.555  c-11.622,0-21.077,9.456-21.077,21.077v5.348c0,10.753,8.749,19.501,19.501,19.501h28.801c10.753,0,19.501-8.749,19.501-19.501  v-5.348c0-11.622-9.457-21.077-21.079-21.077h-5.25l-9.392-27.682c-0.013-0.039-0.026-0.077-0.039-0.115l-23.722-69.925  c-0.007-0.02-0.013-0.039-0.02-0.059c-2.171-6.398-20.213-59.579-22.4-66.026c56.899,29.485,126.11,23.937,177.577-14.713  c9.255,5.643,21.738,4.652,30.011-3.619c9.541-9.542,9.541-25.066,0-34.608l-8.117-8.117l2.639-110.059  c0.1-4.202-3.276-7.68-7.502-7.68c-4.058,0-7.397,3.24-7.494,7.32l-2.296,95.764l-84.593-84.593l78.092-78.091  c3.128,2,6.594,3.513,10.297,4.427l-0.919,38.322C397.528,110.823,400.905,114.3,405.132,114.3z M123.287,487.151v5.348  c0,2.482-2.019,4.5-4.5,4.5H89.986c-2.482,0-4.5-2.018-4.5-4.5v-5.348c0-3.351,2.726-6.076,6.076-6.076h25.647  C120.561,481.074,123.287,483.8,123.287,487.151z M276.84,487.151v5.348c0,2.482-2.019,4.5-4.5,4.5h-28.801  c-2.481,0-4.5-2.018-4.5-4.5v-5.348c0-3.351,2.726-6.076,6.076-6.076h25.647C274.114,481.074,276.84,483.8,276.84,487.151z   M210.314,350.065l-16.681-12.562l9.893-7.449L210.314,350.065z M212.007,370.119l-30.843,19.301l-30.843-19.301l30.842-23.226  L212.007,370.119z M152.012,350.067l6.789-20.014l9.894,7.45L152.012,350.067z M127.205,423.189l13.948-41.112l25.874,16.191  L127.205,423.189z M195.303,398.268l25.872-16.19l13.947,41.108L195.303,398.268z M189.965,290.089l8.485,25.008l-17.286,13.018  l-17.287-13.019l12.221-36.022C180.551,283.009,185.442,286.867,189.965,290.089z M392.891,272.694L219.446,99.248  c-2.93-2.928-7.678-2.928-10.608,0c-2.929,2.93-2.929,7.678,0,10.608l167.394,167.393c-61.027,44.179-145.009,37.157-198.135-16.959  c-52.451-53.429-58.35-136.087-14.912-196.088l28.401,28.401c2.93,2.928,7.678,2.928,10.608,0c2.929-2.93,2.929-7.678,0-10.608  c-0.433-0.433-34.326-34.344-34.781-34.748c-9.45-10.658,4.905-21.919,13.09-13.73L294.25,147.264v0.001h0.001L406.92,259.934  C415.409,268.422,403.035,282.838,392.891,272.694z M214.959,46.759l158.259-3.794c0.915,3.702,2.427,7.168,4.427,10.298  l-78.092,78.09L214.959,46.759z M387.204,34.656c0-10.839,8.817-19.655,19.653-19.655c10.839,0,19.655,8.817,19.655,19.655  c0,10.837-8.817,19.653-19.655,19.653C396.021,54.31,387.204,45.493,387.204,34.656z"/>
<g>
</g>
<g>
</g>
<g>
</g>
<g>
</g>
<g>
</g>
<g>
</g>
<g>
</g>
<g>
</g>
<g>
</g>
<g>
</g>
<g>
</g>
<g>
</g>
<g>
</g>
<g>
</g>
<g>
</g>
</svg>
