<svg xmlns="http://www.w3.org/2000/svg" viewBox="0 0 512 512"><title>Artboard 143</title><g id="Asteroid"><path d="M485.03385,175.67448a18.15312,18.15312,0,0,0-22.987-1.6862l-114.03256,78.901a16.95168,16.95168,0,0,1-22.30338-25.22L486.625,47.95964A15.99826,15.99826,0,0,0,464.03906,25.3737L284.32943,186.28776a16.95077,16.95077,0,0,1-23.27344-.66016l-.18229-.18229a16.95037,16.95037,0,0,1-2.11719-21.38932l79.6862-116.64583A16.68991,16.68991,0,0,0,313.082,25.98568L58.82422,272.15625A127.99968,127.99968,0,1,0,239.84245,453.17578L485.60677,201.39193A18.15207,18.15207,0,0,0,485.03385,175.67448Z" style="fill:#ffbe00"/><ellipse cx="170.66667" cy="277.33333" rx="73.64503" ry="52.60359" transform="translate(-146.11717 201.90861) rotate(-45)" style="fill:#ffa300"/><path d="M149.33333,490.66667A128,128,0,0,1,58.82292,272.15625a21.33105,21.33105,0,0,1,30.16666,30.16667A85.33333,85.33333,0,0,0,149.33333,448a84.40751,84.40751,0,0,0,60.14584-24.8125L431.92708,195.29167a21.34,21.34,0,1,1,30.54167,29.8125l-222.625,228.07291A126.97766,126.97766,0,0,1,149.33333,490.66667Z" style="fill:#f98b00"/><path d="M311.28125,287.35417a21.23767,21.23767,0,0,1-15.09375-6.26042,59.70815,59.70815,0,0,1-2.30208-81.85417l96.375-107.625a21.33417,21.33417,0,1,1,31.79166,28.45834L325.70833,227.66667a17.00046,17.00046,0,0,0,.66667,23.28125,21.33334,21.33334,0,0,1-15.09375,36.40625Z" style="fill:#f98b00"/><path d="M245.79167,221.86458a21.2642,21.2642,0,0,1-15.08334-6.25,59.88657,59.88657,0,0,1-7.30208-75.4375L277.35417,61.1875A21.3313,21.3313,0,0,1,312.58333,85.25l-53.82291,78.80208a17.075,17.075,0,0,0,2.11458,21.39584,21.33333,21.33333,0,0,1-15.08333,36.41666Z" style="fill:#f98b00"/><circle cx="149.33333" cy="362.66667" r="106.66667" style="fill:#adb9ca"/><circle cx="128" cy="362.66667" r="85.33333" style="fill:#cdd4df"/><ellipse cx="96" cy="330.66667" rx="40.46829" ry="20.23414" transform="translate(-205.69889 164.73228) rotate(-45)" style="fill:#e5e8ef"/><ellipse cx="149.33333" cy="277.33333" rx="42.66667" ry="21.33333" style="fill:#7d8fac"/><ellipse cx="85.33333" cy="362.66667" rx="26.97886" ry="13.48943" transform="translate(-231.4505 166.56239) rotate(-45)" style="fill:#5e7599"/><ellipse cx="117.33333" cy="437.33333" rx="20.23414" ry="40.46829" transform="translate(-274.87523 211.05916) rotate(-45)" style="fill:#5e7599"/><ellipse cx="234.66667" cy="373.33333" rx="21.33333" ry="32" style="fill:#7d8fac"/></g></svg>