<svg xmlns="http://www.w3.org/2000/svg" viewBox="0 0 512 512"><title>Artboard 124</title><g id="Test_Tube_Beaker_Glass" data-name="Test Tube &amp; Beaker Glass"><path d="M149.33335,128H42.66665a21.33331,21.33331,0,0,0-21.33332,21.33331v0a21.33332,21.33332,0,0,0,21.33332,21.33332l0,266.66672A53.33328,53.33328,0,0,0,96,490.66667h.0001a53.33328,53.33328,0,0,0,53.33328-53.33328l0-266.66672a21.33332,21.33332,0,0,0,21.33332-21.33332v0A21.33331,21.33331,0,0,0,149.33335,128Z" style="fill:#bcc5ff"/><path d="M21.33333,149.33333a21.33356,21.33356,0,0,0,21.33334,21.33334V437.33333a53.60465,53.60465,0,0,0,.603,8.036c5.12967,33.84769,57.66428,33.84769,62.794,0a53.606,53.606,0,0,0,.603-8.036V170.66667a21.33334,21.33334,0,0,0,0-42.66667h-64A21.33272,21.33272,0,0,0,21.33333,149.33333Z" style="fill:#d6deff"/><path d="M42.66667,437.33333a53.33333,53.33333,0,1,0,106.66666,0v-96H42.66667Z" style="fill:#14a142"/><path d="M43.26969,445.36934c5.12967,33.84769,57.66428,33.84769,62.794,0a53.606,53.606,0,0,0,.603-8.036v-96h-64v96A53.60465,53.60465,0,0,0,43.26969,445.36934Z" style="fill:#66ce83"/><circle cx="64" cy="149.33333" r="21.33333" style="fill:#eff2ff"/><path d="M469.33333,21.33333H198.45964A27.792,27.792,0,0,0,183.043,72.25l30.29036,20.194V448A42.66712,42.66712,0,0,0,256,490.66667H426.66667A42.66711,42.66711,0,0,0,469.33333,448V64a21.33333,21.33333,0,1,0,0-42.66667Z" style="fill:#bcc5ff"/><path d="M213.33333,277.33333V448A42.66712,42.66712,0,0,0,256,490.66667H426.66667A42.66711,42.66711,0,0,0,469.33333,448V277.33333Z" style="fill:#ffa300"/><path d="M384,448V64a21.33333,21.33333,0,0,0,0-42.66667H198.45964A27.792,27.792,0,0,0,183.043,72.25l30.29036,20.194V448A42.66712,42.66712,0,0,0,256,490.66667h85.33333A42.66711,42.66711,0,0,0,384,448Z" style="fill:#d6deff"/><rect x="234.66667" y="21.33333" width="106.66667" height="42.66667" rx="21.33331" ry="21.33331" style="fill:#eff2ff"/><path d="M384,448V277.33333H213.33333V448A42.66712,42.66712,0,0,0,256,490.66667h85.33333A42.66711,42.66711,0,0,0,384,448Z" style="fill:#ffbe00"/><path d="M416,362.66667H373.33333a10.66667,10.66667,0,0,1,0-21.33334H416a10.66667,10.66667,0,0,1,0,21.33334Z" style="fill:#eff2ff"/><path d="M416,426.66667H373.33333a10.66667,10.66667,0,0,1,0-21.33334H416a10.66667,10.66667,0,0,1,0,21.33334Z" style="fill:#eff2ff"/><path d="M416,234.66667H373.33333a10.66667,10.66667,0,0,1,0-21.33334H416a10.66667,10.66667,0,0,1,0,21.33334Z" style="fill:#eff2ff"/><path d="M416,298.66667H373.33333a10.66667,10.66667,0,0,1,0-21.33334H416a10.66667,10.66667,0,0,1,0,21.33334Z" style="fill:#eff2ff"/><rect x="256" y="106.66667" width="64" height="149.33333" rx="31.99997" ry="31.99997" style="fill:#eff2ff"/><rect x="256" y="298.66667" width="64" height="170.66667" rx="31.99997" ry="31.99997" style="fill:#ffd80c"/></g></svg>