<svg xmlns="http://www.w3.org/2000/svg" viewBox="0 0 512 512"><title>Artboard 112</title><g id="Pipette"><path d="M384,213.33333,298.66667,128,94.16986,332.49681A103.00631,103.00631,0,0,0,64,405.33329v0L30.16927,439.16276a30.16989,30.16989,0,1,0,42.66667,42.66667L106.66667,448h0a103.00631,103.00631,0,0,0,72.83648-30.16986Z" style="fill:#bcc5ff"/><path d="M93.59108,333.079c-26.667,27.09674,15.56879,69.33,42.66331,42.6608q.29179-.28722.58155-.577L341.33333,170.66667,298.66667,128,94.16927,332.49609Q93.8789,332.78649,93.59108,333.079Z" style="fill:#d6deff"/><path d="M405.33333,21.33333A85.33256,85.33256,0,0,0,320,106.66667l-42.66667,42.66666,85.33334,85.33334L405.33333,192a85.33334,85.33334,0,1,0,0-170.66667Z" style="fill:#f98b00"/><path d="M448,64q0-.18758-.00085-.37494c-.10367-22.83255-19.45832-42.18721-42.29088-42.29088q-.18735-.00084-.37494-.00085A85.33256,85.33256,0,0,0,320,106.66667l-42.66667,42.66666L320,192l42.66667-42.66667A85.33339,85.33339,0,0,0,448,64Z" style="fill:#ffa300"/><path d="M106.66667,448a103.00273,103.00273,0,0,0,72.83593-30.17057L298.66667,298.66667H127.9987L94.16927,332.49609A103.01227,103.01227,0,0,0,64,405.33333L30.16927,439.16276a30.16989,30.16989,0,1,0,42.66667,42.66667Z" style="fill:#14a142"/><path d="M136.25391,375.73958q.293-.2871.582-.57682L213.332,298.66667H127.9987L94.16927,332.49609c-1.80989,1.8099-3.16146,3.95443-4.82161,5.88151C72.20964,365.23958,110.8724,400.724,136.25391,375.73958Z" style="fill:#66ce83"/><path d="M243.24451,136.94487l0,0a29.91035,29.91035,0,0,1,42.48232-.18429l89.51259,89.51259a29.91035,29.91035,0,0,1-.18429,42.48232l0,0a29.91034,29.91034,0,0,1-42.11533-.1827L243.42721,179.0602A29.91034,29.91034,0,0,1,243.24451,136.94487Z" style="fill:#ffa300"/><path d="M255.81648,149.51685l0,0a29.91034,29.91034,0,0,1,42.48232-.18429l34.27394,34.27394a29.91034,29.91034,0,0,1-.18429,42.48232l0,0a29.91035,29.91035,0,0,1-42.11533-.18269l-34.27395-34.27395A29.91035,29.91035,0,0,1,255.81648,149.51685Z" style="fill:#ffbe00"/><circle cx="394.66667" cy="53.33333" r="32" style="fill:#ffbe00"/></g></svg>