<svg xmlns="http://www.w3.org/2000/svg" viewBox="0 0 512 512"><title>Artboard 131</title><g id="Marijuana"><path d="M309.33333,490.66667a10.63211,10.63211,0,0,1-7.54166-3.125c-43.9375-43.9375-65.67709-108.125-66.57292-110.83334a10.66281,10.66281,0,0,1,20.22917-6.75c.20833.61459,21.11458,62.1875,61.42708,102.5a10.66667,10.66667,0,0,1-7.54167,18.20834Z" style="fill:#008732"/><path d="M490.66667,362.66667c0-20.45052-85.4336-40.84636-133.51693-42.50391,9.35156-7.70312,18.39062-15.8776,26.58984-24.07682,40.77214-40.77344,101.931-122.31771,81.54427-142.70313-20.38541-20.38672-101.931,40.77214-142.70312,81.54427-2.44271,2.44271-4.88412,4.96745-7.3138,7.543A289.71711,289.71711,0,0,0,320,192c0-85.33333-42.66667-170.66667-64-170.66667S192,106.66667,192,192a368.03056,368.03056,0,0,0,3.26823,48.95833c-1.94662-2.04036-3.89583-4.07812-5.849-6.03125C148.64714,194.155,67.10156,132.99609,46.71615,153.38281,26.32943,173.76823,87.48828,255.3125,128.26042,296.08594c8.19922,8.19922,17.23828,16.3737,26.58984,24.07682-48.08333,1.65755-133.51693,22.05339-133.51693,42.50391,0,21.33333,93.09115,42.66666,139.63672,42.66666,7.38281,0,14.35156-.35937,21.1862-.81119-13.0599,14.20442-42.42969,48.95442-29.69792,61.68619,16.15756,16.15756,67.92839-35.61328,67.92839-35.61328s22.32292-22.35156,31.60807-41.76041c1.33985-.63542,2.76432-1.2448,4.00521-1.90365,1.24089.65885,2.66536,1.26823,4.00521,1.90365,9.28515,19.40885,31.60807,41.76041,31.60807,41.76041s51.77083,51.77084,67.92839,35.61328c12.73177-12.73177-16.638-47.48177-29.69792-61.68619,6.83464.45182,13.80339.81119,21.1862.81119C397.57552,405.33333,490.66667,384,490.66667,362.66667Z" style="fill:#14a142"/><path d="M351.03125,405.33333c-7.38542,0-14.35417-.35416-21.1875-.8125a21.329,21.329,0,1,1,2.85417-42.5625c5.91666.39584,11.94791.70834,18.33333.70834,27.04167,0,63.63542-7.64584,86.19792-14.73959a21.32858,21.32858,0,1,1,12.8125,40.6875C423.61458,396.9375,382.75,405.33333,351.03125,405.33333Zm-190.0625,0c-31.63542,0-72.41667-8.36458-98.8125-16.64583a21.33539,21.33539,0,0,1,12.79167-40.70833c22.52083,7.07291,59.05208,14.6875,86.02083,14.6875,6.38542,0,12.41667-.3125,18.33333-.70834a21.329,21.329,0,1,1,2.85417,42.5625C175.32292,404.97917,168.35417,405.33333,160.96875,405.33333Zm139.125-44.44791a21.3381,21.3381,0,0,1-19.27083-30.52084,21.08384,21.08384,0,0,1-2.77084-.3125,21.32008,21.32008,0,0,1-17.27083-24.72916l12.48958-70.3125A248.21892,248.21892,0,0,0,277.33333,192c0-45.1875-14.0625-89.22917-27.21875-115.375a21.33124,21.33124,0,0,1,38.10417-19.1875C295.67708,72.25,320,125.72917,320,192a291.78152,291.78152,0,0,1-4.71875,50.46875l-11.85417,66.67708,26.59375-21.90625c8.4375-6.95833,16.36459-14.13541,23.55209-21.32291,21.9375-21.9375,44.23958-49.79167,59.65625-74.51042a21.33688,21.33688,0,1,1,36.20833,22.58333c-17.04167,27.30209-41.59375,58-65.69792,82.09375-8.13541,8.14584-17.08333,16.23959-26.58333,24.08334l-43.51042,35.85416A21.23319,21.23319,0,0,1,300.09375,360.88542Zm-88.1875,0a21.23319,21.23319,0,0,1-13.55208-4.86459l-43.5-35.84375c-9.51042-7.85416-18.45834-15.94791-26.59375-24.09375-33.82292-33.82291-62.01042-73.625-74.9375-98.0625A21.33221,21.33221,0,0,1,91.03125,178.0625c11.4375,21.625,36.70833,57.16667,67.39583,87.85417,7.1875,7.1875,15.11459,14.36458,23.5625,21.33333l43.48959,35.83333a21.33348,21.33348,0,0,1-13.57292,37.80209Z" style="fill:#008732"/><path d="M416,384a10.66667,10.66667,0,0,1-7.54167-18.20833l21.33334-21.33334A10.66553,10.66553,0,1,1,444.875,359.54167L423.54167,380.875A10.63213,10.63213,0,0,1,416,384Z" style="fill:#4cc66e"/><path d="M92.90625,213.33333H74.66667a10.66667,10.66667,0,1,1,0-21.33333H92.90625a10.66667,10.66667,0,1,1,0,21.33333Z" style="fill:#4cc66e"/><path d="M437.33333,362.66667c-19.20182,0-38.43229-1.14193-56.72526-2.85808l.26693-.26692a10.66553,10.66553,0,1,0-15.08333-15.08334l-12.32292,12.32292c-25.53125-3.29687-47.63281-7.32292-62.77344-10.40885,12.6263-10.48178,31.23308-26.60678,53.32552-47.70573h29.3125a10.66667,10.66667,0,0,0,0-21.33334h-7.54948A1121.41677,1121.41677,0,0,0,445.66667,188,10.67187,10.67187,0,1,0,429,174.66667c-15.138,18.92317-30.29688,36.47135-45,52.59765V224a10.66666,10.66666,0,1,0-21.33333,0v21.33333a10.57515,10.57515,0,0,0,.77734,3.85808c-15.59245,16.21224-30.26042,30.52213-43.444,42.82682V266.66667a10.66667,10.66667,0,1,0-21.33333,0v42.66666a10.14846,10.14846,0,0,0,.35807,1.776c-10.00651,8.85286-18.47917,16.02213-24.90885,21.30468-1.13282-7.10416-2.49219-16.1914-3.97917-27.34635a10.41218,10.41218,0,0,0-.95833-7.45182c-1.95834-15.35157-4.02344-33.80339-5.94532-55.099l32.3086-32.3086A10.66553,10.66553,0,1,0,280.45833,195.125l-19.52474,19.52474c-1.1888-16.15365-2.237-33.5625-3.06119-52.10547L295.54167,124.875a10.66553,10.66553,0,0,0-15.08334-15.08333l-23.64062,23.64062C256.3099,115.862,256,97.50391,256,78.28125a10.66666,10.66666,0,1,0-21.33333,0c0,28.10156.64453,54.39583,1.65885,78.96094l-4.78385-4.78386a10.66553,10.66553,0,0,0-15.08334,15.08334L237.79167,188.875c.02474.02474.05859.03.08333.05469,1.86589,31.97916,4.33984,59.91015,6.8724,83.401L231.54167,259.125a10.66553,10.66553,0,1,0-15.08334,15.08333l32.375,32.375q1.81446,13.72657,3.35287,23.61068c-3.30078-2.19661-6.51563-4.49609-9.76432-6.75781a10.56529,10.56529,0,0,0-3.81771-2.64193c-33.73568-23.88151-64.35157-50.74479-89.3711-74.96354.00782-.17448.10026-.32031.10026-.4974V224A10.66667,10.66667,0,1,0,128,224v.651c-27.71224-28.5625-44.63542-49.51693-45.01042-49.98437A10.66781,10.66781,0,0,0,66.33333,188c2.18229,2.72135,35.0625,43.45312,84.97787,89.33333H138.66667a10.66667,10.66667,0,0,0,0,21.33334h35.47916a9.954,9.954,0,0,0,1.07552-.21745c8.543,7.27995,17.388,14.55469,26.61068,21.71875a10.5966,10.5966,0,0,0,.83464,21.16536h28.08854c2.431,1.6849,4.84375,3.38542,7.306,5.03776-13.96224,2.35547-27.7474,4.3724-41.17969,6.09375L167.54167,323.125a10.66553,10.66553,0,1,0-15.08334,15.08333l17.44011,17.44011c-18.39323,1.9375-35.5638,3.33463-50.81641,4.35026l-15.54036-15.54037a10.66553,10.66553,0,0,0-15.08334,15.08334l2.05469,2.05468c-22.651,1.02214-36.80078,1.07032-37.17969,1.07032a10.66667,10.66667,0,0,0,0,21.33333c.60808,0,35.48959-.08854,84.94011-4.02344L131.125,387.125a10.66553,10.66553,0,1,0,15.08333,15.08333L167.54167,380.875a10.5332,10.5332,0,0,0,2.39713-3.79948c28.7474-2.97786,60.40886-7.27344,92.17969-13.36849l60.01693,80.02214a10.6625,10.6625,0,0,0,17.0625-12.79167L292.3737,368.50521C324.78,374.91536,380.63151,384,437.33333,384a10.66666,10.66666,0,1,0,0-21.33333Z" style="fill:#4cc66e"/><path d="M216.45833,387.125l-42.66666,42.66667A10.66553,10.66553,0,1,0,188.875,444.875l42.66667-42.66667A10.66553,10.66553,0,1,0,216.45833,387.125Z" style="fill:#4cc66e"/></g></svg>