<svg xmlns="http://www.w3.org/2000/svg" viewBox="0 0 512 512"><title>Artboard 104</title><g id="Rocket"><path d="M445.41146,173.25391A154.50384,154.50384,0,0,0,490.66624,64.01019c.00136-23.25491-19.42214-42.67788-42.677-42.67643A154.51114,154.51114,0,0,0,338.74479,66.58724l-8.51562,8.51562a51.00312,51.00312,0,0,0-67.98047,3.98178l-27.582,27.582H124.33984A94.17035,94.17035,0,0,0,57.7513,134.2474a51.50481,51.50481,0,0,0,0,72.83724L128,277.33333,85.33333,320v42.66667H42.66667a21.33331,21.33331,0,0,0-15.08493,6.24838l0,0a21.33331,21.33331,0,0,0,0,30.16986l85.33335,85.33335a21.33331,21.33331,0,0,0,30.16986,0l0,0a21.33331,21.33331,0,0,0,6.24838-15.08493V426.66667H192l42.66927-42.66927-.0026.0026,70.24869,70.2474a51.5001,51.5001,0,0,0,72.83594,0h.0013a94.1728,94.1728,0,0,0,27.58073-66.58724V277.33333l27.582-27.582a51.00654,51.00654,0,0,0,3.98178-67.98307Z" style="fill:#bcc5ff"/><path d="M447.98958,21.33333a154.48773,154.48773,0,0,0-86.33593,26.42058A213.81607,213.81607,0,0,0,464.24479,150.34635a154.48191,154.48191,0,0,0,26.42188-86.33593C490.668,40.75521,471.24349,21.332,447.98958,21.33333Z" style="fill:#33527d"/><path d="M27.58172,368.91507l0,0a21.33331,21.33331,0,0,1,15.08493-6.24838H85.33333l64,64v42.66666a21.33331,21.33331,0,0,1-6.24838,15.08493l0,0a21.33331,21.33331,0,0,1-30.16986,0L27.58172,399.08493A21.33331,21.33331,0,0,1,27.58172,368.91507Z" style="fill:#33527d"/><path d="M99.65625,440.98958A21.33231,21.33231,0,0,0,105.905,425.905V383.23828L85.33333,362.66667H42.66667a21.33333,21.33333,0,0,0-15.08464,36.418l41.905,41.90494A21.33341,21.33341,0,0,0,99.65625,440.98958Z" style="fill:#5e7599"/><circle cx="64" cy="405.33333" r="21.33333" style="fill:#7d8fac"/><path d="M160,416a21.26418,21.26418,0,0,1-15.08333-6.25L90.4375,355.27083a21.33105,21.33105,0,0,1,30.16667-30.16666l54.47916,54.47916A21.33334,21.33334,0,0,1,160,416Z" style="fill:#96a6ff"/><path d="M330.22917,75.10286a51.00312,51.00312,0,0,0-67.98047,3.98178l-27.582,27.582H124.33984A94.17035,94.17035,0,0,0,57.7513,134.2474a51.50481,51.50481,0,0,0,0,72.83724L128,277.33333Z" style="fill:#96a6ff"/><path d="M128,268.5a21.26418,21.26418,0,0,1-15.08333-6.25L57.75,207.08333a51.50323,51.50323,0,0,1,0-72.83333,93.53265,93.53265,0,0,1,66.59375-27.58333H234.66667L262.25,79.08333A21.33106,21.33106,0,1,1,292.41667,109.25l-33.83334,33.83333a21.336,21.336,0,0,1-15.08333,6.25H124.34375a51.17534,51.17534,0,0,0-36.42708,15.08334,8.85213,8.85213,0,0,0,0,12.5l55.16666,55.16666A21.33334,21.33334,0,0,1,128,268.5Z" style="fill:#33527d"/><path d="M213.33333,149.33333H124.34375a21.33333,21.33333,0,0,1,0-42.66666h88.98958a21.33333,21.33333,0,1,1,0,42.66666Z" style="fill:#5e7599"/><path d="M436.89714,181.76823a51.00312,51.00312,0,0,1-3.98178,67.98047l-27.582,27.582V387.65755a94.17034,94.17034,0,0,1-27.58073,66.58854,51.50478,51.50478,0,0,1-72.83724,0L234.66667,383.9974Z" style="fill:#889aff"/><path d="M341.33333,469.33333A51.85532,51.85532,0,0,1,304.91667,454.25L249.75,399.08333a21.33105,21.33105,0,0,1,30.16667-30.16666l55.16666,55.16666a9.27545,9.27545,0,0,0,12.5,0,51.17534,51.17534,0,0,0,15.08334-36.42708V268.5a21.336,21.336,0,0,1,6.25-15.08333L402.75,219.58333A21.33106,21.33106,0,1,1,432.91667,249.75l-27.58334,27.58333V387.65625A93.53265,93.53265,0,0,1,377.75,454.25,51.85534,51.85534,0,0,1,341.33333,469.33333Z" style="fill:#33527d"/><path d="M392.07845,119.92149l.00006.00006a45.25478,45.25478,0,0,1,0,63.99994l-93.41184,93.41184a21.33332,21.33332,0,0,1-30.16989,0l-33.83011-33.83011a21.33332,21.33332,0,0,1,0-30.16989l93.41184-93.41184A45.25478,45.25478,0,0,1,392.07845,119.92149Z" style="fill:#d6deff"/><path d="M266.66667,245.33333l93.41145-93.41276a44.88731,44.88731,0,0,0,5.23492-6.2824c13.04678-18.94395-12.0078-43.99887-30.952-30.95251a44.8989,44.8989,0,0,0-6.28287,5.23491l-93.41145,93.41276a21.33341,21.33341,0,0,0,0,30.16927l1.83073,1.83073A21.33341,21.33341,0,0,0,266.66667,245.33333Z" style="fill:#eff2ff"/><path d="M70.24839,322.58817l33.83011,33.83011a21.33334,21.33334,0,0,0,30.16989,0l65.83012-65.83013a45.25477,45.25477,0,0,0,0-63.99993l-.00006-.00007a45.2548,45.2548,0,0,0-63.99994,0L70.24839,292.41828A21.33332,21.33332,0,0,0,70.24839,322.58817Z" style="fill:#d6deff"/><path d="M136.07812,226.58724,70.24855,292.41812a21.33289,21.33289,0,0,0,.00015,30.16912l12.49754,12.49754a21.33269,21.33269,0,0,0,30.16912-.00014l65.82943-65.83073a45.12146,45.12146,0,0,0,5.28257-6.344c17.50066-25.45176-16.14811-59.103-41.60252-41.60621A45.12268,45.12268,0,0,0,136.07812,226.58724Z" style="fill:#eff2ff"/><rect x="112.91506" y="253.41183" width="30.16989" height="90.50967" rx="15.08493" ry="15.08493" transform="translate(-173.69889 177.98711) rotate(-45)" style="fill:#5e7599"/><rect x="134.24839" y="304.91506" width="30.16989" height="30.16989" rx="15.08493" ry="15.08493" transform="translate(-182.53545 199.32044) rotate(-45)" style="fill:#33527d"/><path d="M155.58172,407.9215l33.83011,33.83011a21.33332,21.33332,0,0,0,30.16989,0l65.83013-65.83012a45.2548,45.2548,0,0,0,0-63.99994l-.00007-.00006a45.25477,45.25477,0,0,0-63.99993,0l-65.83013,65.83012A21.33334,21.33334,0,0,0,155.58172,407.9215Z" style="fill:#d6deff"/><path d="M221.41146,311.92057l-65.82958,65.83088a21.3329,21.3329,0,0,0,.00015,30.16912l12.49755,12.49755a21.33269,21.33269,0,0,0,30.16912-.00015l65.82942-65.83073a45.12127,45.12127,0,0,0,5.28257-6.344c17.50066-25.45177-16.14811-59.103-41.60252-41.60622A45.1226,45.1226,0,0,0,221.41146,311.92057Z" style="fill:#eff2ff"/><rect x="198.24839" y="338.74517" width="30.16989" height="90.50967" rx="15.08493" ry="15.08493" transform="translate(-209.04512 263.32044) rotate(-45)" style="fill:#5e7599"/><rect x="106.66667" y="149.33333" width="106.66667" height="42.66667" rx="21.33331" ry="21.33331" style="fill:#bcc5ff"/><ellipse cx="426.66667" cy="64" rx="43.79608" ry="18.88879" transform="translate(-2.41273 109.07012) rotate(-14.52708)" style="fill:#5e7599"/><rect x="219.58172" y="390.24839" width="30.16989" height="30.16989" rx="15.08493" ry="15.08493" transform="translate(-217.88167 284.65378) rotate(-45)" style="fill:#33527d"/></g></svg>