<svg xmlns="http://www.w3.org/2000/svg" viewBox="0 0 512 512"><title>Artboard 106</title><g id="Eyeglass_with_Book" data-name="Eyeglass with Book"><rect x="64" y="21.33333" width="384" height="469.33333" rx="42.66667" ry="42.66667" style="fill:#079cff"/><rect x="149.33333" y="21.33333" width="21.33333" height="469.33333" style="fill:#5cbeff"/><rect x="106.66667" y="21.33333" width="42.66667" height="469.33333" rx="21.33331" ry="21.33331" style="fill:#0784ff"/><rect x="106.66667" y="170.66667" width="42.66667" height="277.33333" rx="21.33331" ry="21.33331" style="fill:#005eee"/><rect x="213.33333" y="106.66667" width="192" height="128" rx="21.33333" ry="21.33333" style="fill:#bce4ff"/><rect x="362.66667" y="106.66667" width="42.66667" height="128" rx="21.33331" ry="21.33331" style="fill:#94d4ff"/><path d="M404.79167,369.95833,346.4375,194.91667A35.46158,35.46158,0,0,0,277.33333,206.125V224a10.66667,10.66667,0,0,0,21.33334,0V206.125a14.12087,14.12087,0,0,1,27.52083-4.45833l52.06641,156.138a63.69752,63.69752,0,0,0-118.32292,4.862H230.73568a63.69677,63.69677,0,0,0-118.32422-4.85677l52.06771-156.14323A14.12087,14.12087,0,0,1,192,206.125V224a10.66667,10.66667,0,1,0,21.33333,0V206.125a35.46157,35.46157,0,0,0-69.10416-11.20833L85.875,369.95833A10.68021,10.68021,0,0,0,96,384h10.66667a64,64,0,0,0,128,0H256a64,64,0,0,0,128,0h10.66667a10.68021,10.68021,0,0,0,10.125-14.04167Zm-234.125,56.70834A42.66667,42.66667,0,1,1,213.33333,384,42.71555,42.71555,0,0,1,170.66667,426.66667Zm149.33333,0A42.66667,42.66667,0,1,1,362.66667,384,42.71556,42.71556,0,0,1,320,426.66667Z" style="fill:#163969"/></g></svg>