<svg xmlns="http://www.w3.org/2000/svg" viewBox="0 0 512 512"><title>Artboard 119</title><g id="Hanger_Test_Tube" data-name="Hanger &amp; Test Tube"><path d="M362.66669,64H256a21.33331,21.33331,0,0,0-21.33331,21.33331v0A21.33331,21.33331,0,0,0,256,106.66667l0,245.33339a53.33327,53.33327,0,0,0,53.33328,53.33327h.00011a53.33329,53.33329,0,0,0,53.33328-53.33327l0-245.33339A21.33331,21.33331,0,0,0,384,85.33335v0A21.33331,21.33331,0,0,0,362.66669,64Z" style="fill:#bcc5ff"/><path d="M234.66667,85.33333A21.33356,21.33356,0,0,0,256,106.66667V352a53.60465,53.60465,0,0,0,.603,8.036c5.12967,33.84769,57.66429,33.84769,62.794,0A53.60465,53.60465,0,0,0,320,352V106.66667A21.33333,21.33333,0,0,0,320,64H256A21.33272,21.33272,0,0,0,234.66667,85.33333Z" style="fill:#d6deff"/><path d="M256,352a53.33334,53.33334,0,0,0,106.66667,0V256H256Z" style="fill:#ffa300"/><path d="M256.603,360.036c5.12967,33.84769,57.66429,33.84769,62.794,0A53.60465,53.60465,0,0,0,320,352V256H256v96A53.60465,53.60465,0,0,0,256.603,360.036Z" style="fill:#ffbe00"/><circle cx="277.33333" cy="85.33333" r="21.33333" style="fill:#eff2ff"/><rect x="42.66667" y="106.66667" width="341.33333" height="42.66667" rx="21.33331" ry="21.33331" style="fill:#33527d"/><rect x="234.66667" y="106.66667" width="149.33333" height="42.66667" rx="21.33331" ry="21.33331" style="fill:#7d8fac"/><rect x="256" y="106.66667" width="64" height="42.66667" rx="21.33331" ry="21.33331" style="fill:#adb9ca"/><rect x="106.66667" y="21.33333" width="42.66667" height="469.33333" rx="21.33331" ry="21.33331" style="fill:#33527d"/><path d="M64,448H448a42.66662,42.66662,0,0,1,42.66662,42.66662v0a0,0,0,0,1,0,0H21.33333a0,0,0,0,1,0,0v0A42.66662,42.66662,0,0,1,64,448Z" style="fill:#ffbe00"/><path d="M64,448H341.33338A42.66662,42.66662,0,0,1,384,490.66662v0a0,0,0,0,1,0,0H21.33333a0,0,0,0,1,0,0v0A42.66662,42.66662,0,0,1,64,448Z" style="fill:#ffd80c"/><path d="M106.66662,448h64.00009a42.66662,42.66662,0,0,1,42.66662,42.66662v0a0,0,0,0,1,0,0H64a0,0,0,0,1,0,0v0A42.66662,42.66662,0,0,1,106.66662,448Z" style="fill:#ffec6c"/><rect x="85.33333" y="64" width="85.33333" height="128" rx="21.33333" ry="21.33333" style="fill:#cdd4df"/><rect x="85.33333" y="64" width="42.66667" height="128" rx="21.33331" ry="21.33331" style="fill:#e5e8ef"/></g></svg>