<svg xmlns="http://www.w3.org/2000/svg" viewBox="0 0 512 512"><title>Artboard 142</title><g id="Radar"><circle cx="363.2697" cy="129.00505" r="22.33838" style="fill:#cdd4df"/><path d="M363.03125,192.88542A63.64063,63.64063,0,1,1,426.66667,129.25,63.701,63.701,0,0,1,363.03125,192.88542Zm0-105.94792A42.30729,42.30729,0,1,0,405.33333,129.25,42.35546,42.35546,0,0,0,363.03125,86.9375Z" style="fill:#a8b4ff"/><path d="M363.03125,235.55208A106.30729,106.30729,0,1,1,469.33333,129.25,106.42323,106.42323,0,0,1,363.03125,235.55208Zm0-191.28125A84.974,84.974,0,1,0,448,129.25,85.071,85.071,0,0,0,363.03125,44.27083Z" style="fill:#a8b4ff"/><path d="M192.402,234.26465l141.92155-103.26a19.74995,19.74995,0,0,1,23.764,3.18244l0,0a19.74995,19.74995,0,0,1,3.18244,23.764L256.402,298.26465Z" style="fill:#adb9ca"/><path d="M469.33333,339.72525c-87.47744,87.47744-229.30639,87.47744-316.78383,0s-87.47745-229.30639,0-316.78384Z" style="fill:#adb9ca"/><path d="M149.33331,298.66667h0a36.76111,36.76111,0,0,1,31.9176,18.5225L251.558,440.22652A33.71351,33.71351,0,0,1,256,456.95311v0a33.71352,33.71352,0,0,1-33.71351,33.71352H76.38018a33.71352,33.71352,0,0,1-33.71351-33.71352v0a33.7136,33.7136,0,0,1,4.442-16.72659l70.30706-123.03735A36.76114,36.76114,0,0,1,149.33331,298.66667Z" style="fill:#e5e8ef"/><path d="M222.29167,490.66667H76.375a33.751,33.751,0,0,1-33.70833-33.70834A21.33534,21.33534,0,0,1,83.36458,448h123.5L144.20833,338.35417A21.33139,21.33139,0,1,1,181.25,317.1875l70.3125,123.04167a33.71767,33.71767,0,0,1-29.27083,50.4375ZM214.51042,461.375h0Z" style="fill:#cdd4df"/><circle cx="149.33333" cy="341.33333" r="21.33333" style="fill:#7d8fac"/><ellipse cx="160" cy="149.33333" rx="32" ry="64" style="fill:#e5e8ef"/><path d="M360.02083,230.41276,152.54948,22.94141C87.5625,87.92708,70.957,182.88021,102.52734,263.29167a191.53941,191.53941,0,0,0,257.49349-32.87891Z" style="fill:#cdd4df"/><ellipse cx="160" cy="181.33333" rx="32" ry="74.66667" style="fill:#e5e8ef"/></g></svg>