<svg xmlns="http://www.w3.org/2000/svg" viewBox="0 0 512 512"><title>Artboard 108</title><g id="Beaker_Glass" data-name="Beaker Glass"><path d="M469.33333,21.33333H51.5026A30.16989,30.16989,0,0,0,30.16927,72.83594L64,106.66667V448a42.66711,42.66711,0,0,0,42.66667,42.66667h320A42.66711,42.66711,0,0,0,469.33333,448V64a21.33333,21.33333,0,1,0,0-42.66667Z" style="fill:#bcc5ff"/><path d="M362.66667,448V64a21.33333,21.33333,0,0,0,0-42.66667H51.5026A30.16989,30.16989,0,0,0,30.16927,72.83594L64,106.66667V448a42.66711,42.66711,0,0,0,42.66667,42.66667H320A42.66712,42.66712,0,0,0,362.66667,448Z" style="fill:#d6deff"/><path d="M64,448a42.66711,42.66711,0,0,0,42.66667,42.66667h320A42.66711,42.66711,0,0,0,469.33333,448V256H64Z" style="fill:#b244f1"/><path d="M362.66667,448V256H64V448a42.66711,42.66711,0,0,0,42.66667,42.66667H320A42.66712,42.66712,0,0,0,362.66667,448Z" style="fill:#c175ff"/><path d="M352,128H288a10.66667,10.66667,0,1,1,0-21.33333h64A10.66666,10.66666,0,1,1,352,128Z" style="fill:#eff2ff"/><path d="M352,192H288a10.66667,10.66667,0,1,1,0-21.33333h64A10.66667,10.66667,0,1,1,352,192Z" style="fill:#eff2ff"/><path d="M352,256H288a10.66667,10.66667,0,1,1,0-21.33333h64A10.66667,10.66667,0,1,1,352,256Z" style="fill:#eff2ff"/><path d="M352,320H288a10.66667,10.66667,0,1,1,0-21.33333h64A10.66667,10.66667,0,1,1,352,320Z" style="fill:#eff2ff"/><path d="M352,384H288a10.66667,10.66667,0,1,1,0-21.33333h64A10.66667,10.66667,0,1,1,352,384Z" style="fill:#eff2ff"/><path d="M352,448H288a10.66666,10.66666,0,1,1,0-21.33333h64A10.66667,10.66667,0,1,1,352,448Z" style="fill:#eff2ff"/><rect x="85.33333" y="21.33333" width="128" height="42.66667" rx="21.33331" ry="21.33331" style="fill:#eff2ff"/><rect x="128" y="128" width="85.33333" height="128" rx="42.66662" ry="42.66662" style="fill:#eff2ff"/><rect x="128" y="277.33333" width="85.33333" height="170.66667" rx="42.66662" ry="42.66662" style="fill:#cf94ff"/></g></svg>