<svg xmlns="http://www.w3.org/2000/svg" viewBox="0 0 512 512"><title>Artboard 145</title><g id="Robot"><circle cx="256" cy="405.33333" r="85.33333" style="fill:#163969"/><circle cx="234.66667" cy="405.33333" r="64" style="fill:#33527d"/><ellipse cx="213.33333" cy="426.66667" rx="13.48943" ry="26.97886" transform="translate(-239.21501 275.81722) rotate(-45)" style="fill:#5e7599"/><rect x="320" y="192" width="149.33333" height="85.33333" rx="42.66662" ry="42.66662" style="fill:#14a142"/><rect x="320" y="192" width="85.33333" height="85.33333" rx="42.66662" ry="42.66662" style="fill:#008732"/><rect x="405.33333" y="106.66667" width="64" height="149.33333" rx="31.99997" ry="31.99997" style="fill:#4cc66e"/><rect x="405.33333" y="128" width="42.66667" height="106.66667" rx="21.33331" ry="21.33331" style="fill:#84d89c"/><path d="M437.33333,149.33333a10.66053,10.66053,0,0,1-10.66666-10.66666V96A10.66666,10.66666,0,1,1,448,96v42.66667A10.66053,10.66053,0,0,1,437.33333,149.33333Z" style="fill:#7d8fac"/><path d="M437.33333,106.66667A53.39612,53.39612,0,0,1,384,53.33333a10.66666,10.66666,0,0,1,21.33333,0,32,32,0,0,0,64,0,10.66667,10.66667,0,0,1,21.33334,0A53.39613,53.39613,0,0,1,437.33333,106.66667Z" style="fill:#adb9ca"/><rect x="42.66667" y="192" width="149.33333" height="85.33333" rx="42.66662" ry="42.66662" transform="translate(234.66667 469.33333) rotate(-180)" style="fill:#14a142"/><rect x="106.66667" y="234.66667" width="85.33333" height="42.66667" rx="21.33331" ry="21.33331" style="fill:#008732"/><rect x="42.66667" y="213.33333" width="64" height="149.33333" rx="31.99997" ry="31.99997" transform="translate(149.33333 576) rotate(180)" style="fill:#4cc66e"/><path d="M74.66667,384A10.66053,10.66053,0,0,1,64,373.33333V330.66667a10.66667,10.66667,0,1,1,21.33333,0v42.66666A10.66053,10.66053,0,0,1,74.66667,384Z" style="fill:#7d8fac"/><path d="M117.33333,426.66667A10.66053,10.66053,0,0,1,106.66667,416a32,32,0,0,0-64,0,10.66667,10.66667,0,0,1-21.33334,0A53.33334,53.33334,0,0,1,128,416,10.66054,10.66054,0,0,1,117.33333,426.66667Z" style="fill:#adb9ca"/><path d="M255.99987,21.33333h.00026A127.99987,127.99987,0,0,1,384,149.33321V362.66667a42.66667,42.66667,0,0,1-42.66667,42.66667H170.66667A42.66667,42.66667,0,0,1,128,362.66667V149.33321A127.99987,127.99987,0,0,1,255.99987,21.33333Z" style="fill:#14a142"/><path d="M341.33333,362.66667V149.33333a127.66576,127.66576,0,0,0-6.04491-38.95c-30.21633-94.492-171.02718-94.492-201.24351,0A127.66576,127.66576,0,0,0,128,149.33333V362.66667a42.66666,42.66666,0,0,0,42.66667,42.66666h128A42.66665,42.66665,0,0,0,341.33333,362.66667Z" style="fill:#4cc66e"/><rect x="170.66667" y="106.66667" width="64" height="213.33333" rx="31.99997" ry="31.99997" style="fill:#84d89c"/><rect x="192" y="256" width="64" height="64" rx="21.33333" ry="21.33333" style="fill:#b7e8c4"/><path d="M309.33333,277.33333H288A10.66666,10.66666,0,1,1,288,256h21.33333a10.66667,10.66667,0,1,1,0,21.33333Z" style="fill:#b7e8c4"/><circle cx="213.33333" cy="149.33333" r="21.33333" style="fill:#d5f1dd"/><circle cx="298.66667" cy="149.33333" r="21.33333" style="fill:#d5f1dd"/><path d="M266.66667,213.33333H245.33333a10.66667,10.66667,0,0,1,0-21.33333h21.33334a10.66666,10.66666,0,0,1,0,21.33333Z" style="fill:#008732"/><path d="M373.33333,362.66667H138.66667a10.66667,10.66667,0,0,1,0-21.33334H373.33333a10.66667,10.66667,0,0,1,0,21.33334Z" style="fill:#14a142"/><path d="M373.33333,362.66667H330.66667a10.66667,10.66667,0,0,1,0-21.33334h42.66666a10.66667,10.66667,0,0,1,0,21.33334Z" style="fill:#008732"/><path d="M330.66667,85.33333H181.33333a10.66667,10.66667,0,0,1,0-21.33333H330.66667a10.66666,10.66666,0,0,1,0,21.33333Z" style="fill:#14a142"/><path d="M330.66667,85.33333h-32a10.66667,10.66667,0,1,1,0-21.33333h32a10.66666,10.66666,0,0,1,0,21.33333Z" style="fill:#008732"/><rect x="170.66667" y="362.66667" width="64" height="42.66667" rx="21.33331" ry="21.33331" style="fill:#84d89c"/><rect x="42.66667" y="234.66667" width="42.66667" height="85.33333" rx="21.33331" ry="21.33331" style="fill:#84d89c"/></g></svg>