<svg xmlns="http://www.w3.org/2000/svg" viewBox="0 0 512 512"><title>Artboard 154</title><g id="Male_Female_Symbol" data-name="Male &amp; Female Symbol"><path d="M456.83334,426.6668l27.58325-27.58349a21.33094,21.33094,0,1,0-30.16651-30.16651l-27.58337,27.58325L387.65426,357.4876a106.65628,106.65628,0,1,0-30.16663,30.16651l39.01245,39.01269-27.58349,27.58325a21.33111,21.33111,0,1,0,30.16675,30.16675l27.58325-27.58349,27.58349,27.58349a21.331,21.331,0,1,0,30.16651-30.16675Zm-222.16675-128a64,64,0,1,1,64,64A63.99989,63.99989,0,0,1,234.66659,298.6668Z" style="fill:#079cff"/><path d="M224.77083,362.66667a21.304,21.304,0,0,1-18.47916-10.64584,106.73766,106.73766,0,0,1,0-106.70833,21.32915,21.32915,0,0,1,36.91666,21.375,64.13431,64.13431,0,0,0,0,63.95833,21.33576,21.33576,0,0,1-18.4375,32.02084Z" style="fill:#0784ff"/><path d="M213.33334,106.6668a106.16113,106.16113,0,0,0-58.821,17.679L94.16671,64.00005h33.83337a21.33337,21.33337,0,0,0,0-42.66674H42.66659A21.33884,21.33884,0,0,0,21.33334,42.6668V128a21.33337,21.33337,0,0,0,42.66674,0V94.1668l60.34571,60.3457a106.67,106.67,0,1,0,88.98755-47.8457Zm0,170.66651a64,64,0,1,1,64-64A63.99973,63.99973,0,0,1,213.33334,277.33331Z" style="fill:#ffc200"/><path d="M287.22917,277.33333a21.33576,21.33576,0,0,1-18.4375-32.02083,64.13431,64.13431,0,0,0,0-63.95833,21.32915,21.32915,0,1,1,36.91666-21.375,106.73766,106.73766,0,0,1,0,106.70833A21.304,21.304,0,0,1,287.22917,277.33333Z" style="fill:#ffa300"/><path d="M343.92188,253.41146l30.16927-30.16927a106.66549,106.66549,0,0,0-150.849,0l30.16927,30.16927A64.001,64.001,0,0,1,343.92188,253.41146Z" style="fill:#079cff"/></g></svg>