<svg xmlns="http://www.w3.org/2000/svg" viewBox="0 0 512 512"><title>Artboard 107</title><g id="Doctor_Bag" data-name="Doctor Bag"><path d="M372.85417,170.70833a10.66053,10.66053,0,0,1-10.66667-10.66666c0-35.65625-9.9375-60.28125-28-69.3125-43.125-21.5625-113.25-21.5625-156.375,0-18.0625,9.03125-28,33.65625-28,69.3125a10.66667,10.66667,0,0,1-21.33333,0c0-44.15625,14.125-75.55209,39.79166-88.39584,49.20834-24.60416,126.25-24.60416,175.45834,0,25.66666,12.84375,39.79166,44.23959,39.79166,88.39584A10.66053,10.66053,0,0,1,372.85417,170.70833Z" style="fill:#33527d"/><path d="M363.0625,118.14583a10.7046,10.7046,0,0,1-9.66667-6.13541c-4.72916-10.11459-11.20833-17.28125-19.20833-21.28125-43.125-21.5625-113.25-21.5625-156.375,0-7.39583,3.69791-13.5,10.11458-18.125,19.0625A10.66882,10.66882,0,0,1,140.72917,100c6.75-13.05208,16.02083-22.59375,27.54166-28.35417,49.20834-24.60416,126.25-24.60416,175.45834,0,12.39583,6.19792,22.16666,16.73959,29,31.30209a10.68222,10.68222,0,0,1-9.66667,15.19791Z" style="fill:#163969"/><path d="M338.9375,102.52083a21.21762,21.21762,0,0,1-9.52083-2.25c-39.79167-19.91666-107.04167-19.91666-146.83334,0A21.33581,21.33581,0,1,1,163.5,62.10417c51.875-25.9375,133.125-25.9375,185,0a21.3341,21.3341,0,0,1-9.5625,40.41666Z" style="fill:#33527d"/><path d="M173.0625,102.52083A21.3341,21.3341,0,0,1,163.5,62.10417c37.41667-18.70834,90.77083-24.5,139.25-15.04167a21.332,21.332,0,1,1-8.16667,41.875c-38.45833-7.48958-83.45833-2.94792-112,11.33333A21.21762,21.21762,0,0,1,173.0625,102.52083Z" style="fill:#5e7599"/><rect x="106.66667" y="128" width="64" height="42.66667" rx="21.33331" ry="21.33331" style="fill:#435e88"/><rect x="341.33333" y="128" width="64" height="42.66667" rx="21.33331" ry="21.33331" style="fill:#435e88"/><circle cx="362.66667" cy="149.33333" r="21.33333" style="fill:#5e7599"/><circle cx="128" cy="149.33333" r="21.33333" style="fill:#5e7599"/><path d="M106.66667,149.33333H405.33333a85.33333,85.33333,0,0,1,85.33333,85.33333v192A42.66667,42.66667,0,0,1,448,469.33333H64a42.66667,42.66667,0,0,1-42.66667-42.66667v-192a85.33333,85.33333,0,0,1,85.33333-85.33333Z" style="fill:#163969"/><path d="M405.33333,426.66667v-192A85.33255,85.33255,0,0,0,320,149.33333H106.66667a85.33256,85.33256,0,0,0-85.33334,85.33334v192A42.66711,42.66711,0,0,0,64,469.33333H362.66667A42.6671,42.6671,0,0,0,405.33333,426.66667Z" style="fill:#33527d"/><circle cx="106.66667" cy="234.66667" r="64" style="fill:#435e88"/><rect x="85.33333" y="405.33333" width="362.66667" height="42.66667" rx="21.33331" ry="21.33331" style="fill:#163969"/><rect x="64" y="213.33333" width="384" height="213.33333" rx="21.33333" ry="21.33333" style="fill:#5e7599"/><rect x="85.33333" y="213.33333" width="320" height="213.33333" rx="21.33333" ry="21.33333" style="fill:#7d8fac"/><path d="M234.66667,213.33333H320a0,0,0,0,1,0,0V362.66671a42.66662,42.66662,0,0,1-42.66662,42.66662h-.00009a42.66662,42.66662,0,0,1-42.66662-42.66662V213.33333a0,0,0,0,1,0,0Z" style="fill:#5e7599"/><path d="M448,264.79082a21.16237,21.16237,0,0,1-11.65758,19.03756C412.574,295.76952,352.45986,320,256,320S99.426,295.76952,75.65758,283.82838A21.16237,21.16237,0,0,1,64,264.79082V234.66667a21.33334,21.33334,0,0,1,21.33333-21.33334H426.66667A21.33334,21.33334,0,0,1,448,234.66667Z" style="fill:#33527d"/><path d="M64,234.66667v30.12369a21.16261,21.16261,0,0,0,11.65755,19.03776C96.668,294.38411,146.1901,314.47526,224,319.01172c77.8099-4.53646,127.332-24.62761,148.34245-35.1836A21.16261,21.16261,0,0,0,384,264.79036V234.66667a21.33272,21.33272,0,0,0-21.33333-21.33334H85.33333A21.33272,21.33272,0,0,0,64,234.66667Z" style="fill:#5e7599"/><path d="M234.66667,128h42.66667a21.33333,21.33333,0,0,1,21.33333,21.33333v192A42.66662,42.66662,0,0,1,256,384H256a42.66662,42.66662,0,0,1-42.66662-42.66662v-192A21.33333,21.33333,0,0,1,234.66667,128Z" style="fill:#7d8fac"/><circle cx="256" cy="234.66667" r="21.33333" style="fill:#adb9ca"/><ellipse cx="245.33333" cy="224" rx="11.61625" ry="9.62321" transform="translate(-86.53545 239.08494) rotate(-45)" style="fill:#cdd4df"/><circle cx="256" cy="320" r="21.33333" style="fill:#adb9ca"/><circle cx="256" cy="320" r="21.33333" style="fill:#adb9ca"/><rect x="192" y="277.33333" width="128" height="42.66667" rx="21.33331" ry="21.33331" style="fill:#adb9ca"/><rect x="192" y="277.33333" width="106.66667" height="42.66667" rx="21.33331" ry="21.33331" style="fill:#cdd4df"/><rect x="85.33333" y="298.66667" width="42.66667" height="128" rx="21.33331" ry="21.33331" style="fill:#adb9ca"/><rect x="85.33333" y="213.33333" width="42.66667" height="64" rx="21.33331" ry="21.33331" style="fill:#7d8fac"/><rect x="213.33333" y="128" width="85.33333" height="42.66667" rx="21.33331" ry="21.33331" style="fill:#adb9ca"/></g></svg>