<svg xmlns="http://www.w3.org/2000/svg" viewBox="0 0 512 512"><title>Artboard 148</title><g id="Satellite"><circle cx="341.33333" cy="170.66667" r="149.33333" style="fill:#0784ff"/><path d="M456.6263,149.35677A127.89451,127.89451,0,0,0,334.74479,21.66536,149.03433,149.03433,0,0,0,213.33073,94.04167a127.94782,127.94782,0,1,0,243.29557,55.3151Z" style="fill:#079cff"/><ellipse cx="309.33333" cy="96" rx="67.44715" ry="33.72357" transform="translate(22.71938 246.84945) rotate(-45)" style="fill:#5cbeff"/><circle cx="426.66667" cy="149.33333" r="42.66667" style="fill:#14a142"/><ellipse cx="416" cy="138.66667" rx="37.6503" ry="25.1002" transform="translate(23.79144 334.77095) rotate(-45)" style="fill:#4cc66e"/><circle cx="394.66667" cy="266.66667" r="32" style="fill:#14a142"/><ellipse cx="384" cy="256" rx="23.45302" ry="18.97676" transform="translate(-68.54834 346.50967) rotate(-45)" style="fill:#4cc66e"/><path d="M297.17187,27.98307a149.65661,149.65661,0,0,0-98.52213,98.52214,74.58541,74.58541,0,1,0,98.52213-98.52214Z" style="fill:#14a142"/><path d="M282.92318,33.3724a149.58834,149.58834,0,0,0-84.27344,93.13281A75.09127,75.09127,0,0,0,209.388,143.6224c20.59115,13.03125,53.03646,6.28125,76.819-17.50261,26.48568-26.48568,32.0638-63.849,12.45964-83.45312A38.7311,38.7311,0,0,0,282.92318,33.3724Z" style="fill:#4cc66e"/><path d="M296.07848,151.92152l32-32a45.25478,45.25478,0,0,1,63.99994,0l.00006.00006a45.25478,45.25478,0,0,1,0,63.99994l-32,32Z" style="fill:#a4b1ff"/><path d="M376.02736,156.24327c17.50066-25.45177-16.14811-59.103-41.60252-41.60622a45.12268,45.12268,0,0,0-6.34672,5.28352l-32,32,42.66667,42.66667,32-32A45.122,45.122,0,0,0,376.02736,156.24327Z" style="fill:#cbd3ff"/><rect x="322.74517" y="268.11775" width="120.67956" height="233.59461" rx="42.66667" ry="42.66667" transform="translate(-159.97306 383.62097) rotate(-45)" style="fill:#a8b4ff"/><path d="M74.85417,447.82292a10.66667,10.66667,0,0,1-7.54167-18.20834l42.66667-42.66666a10.66552,10.66552,0,0,1,15.08333,15.08333L82.39583,444.69792A10.63211,10.63211,0,0,1,74.85417,447.82292Z" style="fill:#ccd4ff"/><path d="M105.14583,417.52083a10.66667,10.66667,0,0,1-7.54166-18.20833l12.375-12.36458a10.66552,10.66552,0,0,1,15.08333,15.08333l-12.375,12.36458A10.63207,10.63207,0,0,1,105.14583,417.52083Z" style="fill:#a4b1ff"/><rect x="67.66022" y="12.49678" width="120.67956" height="231.00645" rx="42.66667" ry="42.66667" transform="translate(-53.01934 128) rotate(-45)" style="fill:#cbd3ff"/><path d="M21.33333,318.13261A122,122,0,0,1,193.86739,490.66667Z" style="fill:#bcc5ff"/><rect x="151.43146" y="170.55566" width="229.17632" height="150.84945" rx="42.66667" ry="42.66667" transform="translate(-96.01905 260.15026) rotate(-45)" style="fill:#d6deff"/><path d="M226.47656,308.14974,328.1901,206.4375a42.66839,42.66839,0,0,0,0-60.33984l-4.30859-4.3073a42.66446,42.66446,0,0,0-60.33854,0L161.83073,243.5026a42.666,42.666,0,0,0,0,60.33985l4.30729,4.30729A42.66446,42.66446,0,0,0,226.47656,308.14974Z" style="fill:#eff2ff"/><path d="M21.33333,318.13281,153.73438,450.53255a121.98162,121.98162,0,0,0,15.29764-18.6518c54.1919-81.38213-47.66295-183.23744-129.04567-129.04642A121.98267,121.98267,0,0,0,21.33333,318.13281Z" style="fill:#d6deff"/><circle cx="64.18181" cy="447.81819" r="21.33333" style="fill:#d6deff"/><path d="M373.332,289.82812a42.66683,42.66683,0,0,0-60.33854.00131L288,314.82292a42.666,42.666,0,0,0,0,60.33984L371.50391,458.668a42.66683,42.66683,0,0,0,60.33854-.0013l24.99349-24.99349a42.666,42.666,0,0,0,0-60.33985Z" style="fill:#cbd3ff"/><circle cx="352" cy="309.33333" r="10.66667" style="fill:#a8b4ff"/><circle cx="394.66667" cy="352" r="10.66667" style="fill:#a8b4ff"/><circle cx="437.33333" cy="394.66667" r="10.66667" style="fill:#a8b4ff"/><circle cx="309.33333" cy="330.66667" r="10.66667" style="fill:#a8b4ff"/><circle cx="352" cy="373.33333" r="10.66667" style="fill:#a8b4ff"/><circle cx="394.66667" cy="416" r="10.66667" style="fill:#a8b4ff"/><circle cx="96" cy="53.33333" r="10.66667" style="fill:#a4b1ff"/><circle cx="138.66667" cy="96" r="10.66667" style="fill:#a4b1ff"/><circle cx="181.33333" cy="138.66667" r="10.66667" style="fill:#a4b1ff"/><circle cx="53.33333" cy="74.66667" r="10.66667" style="fill:#a4b1ff"/><circle cx="96" cy="117.33333" r="10.66667" style="fill:#a4b1ff"/><circle cx="138.66667" cy="160" r="10.66667" style="fill:#a4b1ff"/><circle cx="181.33333" cy="202.66667" r="10.66667" style="fill:#a4b1ff"/><ellipse cx="96" cy="320" rx="32" ry="21.33333" style="fill:#eff2ff"/></g></svg>