<svg xmlns="http://www.w3.org/2000/svg" viewBox="0 0 512 512"><title>Artboard 135</title><g id="Syringe"><path d="M292.418,274.74479,237.25521,219.582a21.33262,21.33262,0,0,0-30.17057,0L192,234.66667,85.33333,341.33333V384L42.66667,426.66667l42.66666,42.66666L128,426.66667h42.66667L277.33333,320,292.418,304.91536A21.33262,21.33262,0,0,0,292.418,274.74479Z" style="fill:#94d4ff"/><path d="M292.418,274.74479,237.25521,219.582a21.33262,21.33262,0,0,0-30.17057,0L192,234.66667,85.33333,341.33333V384L42.66667,426.66667l42.66666,42.66666L128,426.66667h42.66667L277.33333,320,292.418,304.91536A21.33262,21.33262,0,0,0,292.418,274.74479Z" style="fill:#94d4ff"/><path d="M309.33333,213.33333a10.66667,10.66667,0,0,1-7.54166-18.20833L472.45833,24.45833a10.66553,10.66553,0,1,1,15.08334,15.08334L316.875,210.20833A10.63207,10.63207,0,0,1,309.33333,213.33333Z" style="fill:#cdd4df"/><path d="M343.9215,155.58172l12.49678,12.49678a21.33334,21.33334,0,0,1,0,30.16989L320,234.66667,277.33333,192l36.41828-36.41828A21.33334,21.33334,0,0,1,343.9215,155.58172Z" style="fill:#94d4ff"/><path d="M338.61068,152.056a21.08118,21.08118,0,0,0-24.85938,3.526L277.33333,192l21.33334,21.33333,36.418-36.418A21.08117,21.08117,0,0,0,338.61068,152.056Z" style="fill:#bce4ff"/><path d="M301.25483,155.58172l55.16345,55.16345a21.33334,21.33334,0,0,1,0,30.16989L192,405.33333,106.66667,320,271.08494,155.58172A21.33334,21.33334,0,0,1,301.25483,155.58172Z" style="fill:#94d4ff"/><path d="M138.66667,394.66667,245.33333,288,260.418,272.91536a21.33262,21.33262,0,0,0,0-30.17057L237.25521,219.582a21.33262,21.33262,0,0,0-30.17057,0L192,234.66667,85.33333,341.33333V384L42.66667,426.66667l10.66666,10.66666L96,394.66667Z" style="fill:#bce4ff"/><path d="M138.66667,394.66667,245.33333,288,260.418,272.91536a21.33262,21.33262,0,0,0,0-30.17057L237.25521,219.582a21.33262,21.33262,0,0,0-30.17057,0L192,234.66667,85.33333,341.33333V384L42.66667,426.66667l10.66666,10.66666L96,394.66667Z" style="fill:#bce4ff"/><path d="M202.66667,224,288,309.33333l68.418-68.418a21.33262,21.33262,0,0,0,0-30.17057L301.25521,155.582a21.33262,21.33262,0,0,0-30.17057,0Z" style="fill:#c175ff"/><path d="M324.418,178.74479,301.25521,155.582a21.33262,21.33262,0,0,0-30.17057,0L106.66667,320,160,373.33333l164.418-164.418A21.33262,21.33262,0,0,0,324.418,178.74479Z" style="fill:#bce4ff"/><path d="M324.418,178.74479,301.25521,155.582a21.33262,21.33262,0,0,0-30.17057,0L202.66667,224,256,277.33333l68.418-68.418A21.33262,21.33262,0,0,0,324.418,178.74479Z" style="fill:#cf94ff"/><path d="M160,252.65378h0a15.08494,15.08494,0,0,1,15.08494,15.08494V436.26129A15.08492,15.08492,0,0,1,160,451.34622h0a15.08493,15.08493,0,0,1-15.08493-15.08493V267.73871A15.08493,15.08493,0,0,1,160,252.65378Z" transform="translate(-202.03867 216.2355) rotate(-45)" style="fill:#bce4ff"/><rect x="48.91506" y="393.90862" width="30.16989" height="108.18276" rx="15.08493" ry="15.08493" transform="translate(-298.03867 176.471) rotate(-45)" style="fill:#bce4ff"/><rect x="38.24839" y="398.3269" width="30.16989" height="78.01287" rx="15.08493" ry="15.08493" transform="translate(-293.62039 165.80433) rotate(-45)" style="fill:#eff2ff"/><path d="M207.08494,219.58172,192,234.66667,277.33333,320l15.08495-15.08494a21.33334,21.33334,0,0,0,0-30.16989l-55.16345-55.16345A21.33334,21.33334,0,0,0,207.08494,219.58172Z" style="fill:#163969"/><path d="M198.2487,390.2487v-.0013a15.08414,15.08414,0,0,0,0-21.332L111.08464,281.7513A15.08495,15.08495,0,1,0,89.7513,303.08464l87.16406,87.16406A15.08571,15.08571,0,0,0,198.2487,390.2487Z" style="fill:#eff2ff"/><path d="M260.418,242.74479,237.25521,219.582a21.33262,21.33262,0,0,0-30.17057,0L192,234.66667,245.33333,288,260.418,272.91536A21.33262,21.33262,0,0,0,260.418,242.74479Z" style="fill:#33527d"/><path d="M170.66667,320a21.33334,21.33334,0,0,1-15.08334-36.41667L176.91667,262.25a21.33105,21.33105,0,0,1,30.16666,30.16667L185.75,313.75A21.2642,21.2642,0,0,1,170.66667,320Z" style="fill:#eff2ff"/><path d="M256,234.66667A21.33334,21.33334,0,0,1,240.91667,198.25L262.25,176.91667a21.33105,21.33105,0,1,1,30.16667,30.16666l-21.33334,21.33334A21.26422,21.26422,0,0,1,256,234.66667Z" style="fill:#dfb7ff"/></g></svg>