<?xml version="1.0" encoding="utf-8"?>
<!-- Generator: Adobe Illustrator 22.1.0, SVG Export Plug-In . SVG Version: 6.00 Build 0)  -->
<svg version="1.1" id="Layer_1" xmlns="http://www.w3.org/2000/svg" xmlns:xlink="http://www.w3.org/1999/xlink" x="0px" y="0px"
	 viewBox="0 0 512 512" style="enable-background:new 0 0 512 512;" xml:space="preserve">
<style type="text/css">
	.st0{fill:#BCC5FF;}
	.st1{fill:#D6DEFF;}
	.st2{fill:#EFF2FF;}
	.st3{fill:#14A142;}
	.st4{fill:#4CC66E;}
	.st5{fill:#FFC200;}
	.st6{fill:#FFFF9D;}
	.st7{fill:#FFA300;}
	.st8{fill:#163969;}
	.st9{fill:#5E7599;}
	.st10{fill:#FFBE00;}
</style>
<title>Artboard 117</title>
<g id="Dropper_Beaker_Glass_Convex_">
	<path class="st0" d="M320,234.7v-85.3c11.8,0,21.3-9.6,21.3-21.3c0-11.8-9.5-21.3-21.3-21.3H192c-11.8,0-21.3,9.5-21.3,21.3
		s9.5,21.3,21.3,21.3c0,0,0,0,0,0v85.3c0,0-128,42.7-128,128s85.3,106.7,85.3,106.7c0,11.8,9.6,21.3,21.3,21.3h170.7
		c11.8,0,21.3-9.6,21.3-21.3c0,0,85.3-21.3,85.3-106.7S320,234.7,320,234.7z"/>
	<path class="st1" d="M298.7,469.3c0,0,85.3-21.3,85.3-106.7s-128-128-128-128v-85.3c11.8,0,21.3-9.6,21.3-21.3
		c0-11.8-9.5-21.3-21.3-21.3h-64c-11.8,0-21.3,9.5-21.3,21.3s9.5,21.3,21.3,21.3c0,0,0,0,0,0v85.3c0,0-128,42.7-128,128
		s85.3,106.7,85.3,106.7c0,11.8,9.6,21.3,21.3,21.3h106.7C289.1,490.7,298.7,481.1,298.7,469.3z"/>
	<path class="st1" d="M298.7,469.3c0,0,85.3-21.3,85.3-106.7s-128-128-128-128v-85.3c11.8,0,21.3-9.6,21.3-21.3
		c0-11.8-9.5-21.3-21.3-21.3h-64c-11.8,0-21.3,9.5-21.3,21.3s9.5,21.3,21.3,21.3c0,0,0,0,0,0v85.3c0,0-128,42.7-128,128
		s85.3,106.7,85.3,106.7c0,11.8,9.6,21.3,21.3,21.3h106.7C289.1,490.7,298.7,481.1,298.7,469.3z"/>
	<path class="st2" d="M213.3,106.7h21.3c11.8,0,21.3,9.6,21.3,21.3v0c0,11.8-9.6,21.3-21.3,21.3h-21.3c-11.8,0-21.3-9.6-21.3-21.3v0
		C192,116.2,201.6,106.7,213.3,106.7z"/>
	<path class="st3" d="M448,362.7H64c0,85.3,85.3,106.7,85.3,106.7h213.3C362.7,469.3,448,448,448,362.7z"/>
	<path class="st4" d="M384,362.7H64c0,85.3,85.3,106.7,85.3,106.7h149.3C298.7,469.3,384,448,384,362.7z"/>
	<path class="st5" d="M277.3,362.7c0,0-21.3,32-21.3,53.3l0,0c0,17.7,14.3,32,32,32l0,0c17.7,0,32-14.3,32-32l0,0
		c0-21.3-21.3-53.3-21.3-53.3L277.3,362.7z"/>
	<ellipse transform="matrix(0.7071 -0.7071 0.7071 0.7071 -179.4113 206.8629)" class="st2" cx="160" cy="320" rx="64" ry="32"/>
	<circle class="st6" cx="277.3" cy="405.3" r="21.3"/>
	<path class="st1" d="M256,106.7V256c0,42.7,21.3,64,21.3,64v10.7c0,5.9,4.8,10.7,10.7,10.7c5.9,0,10.7-4.8,10.7-10.7V320
		c0,0,21.3-21.3,21.3-64V106.7H256z"/>
	<path class="st2" d="M256,257.3c0.3,27.3,42.4,27.3,42.7,0c0-0.4,0-0.8,0-1.3V106.7H256V256C256,256.4,256,256.9,256,257.3z"/>
	<path class="st7" d="M277.3,330.7c0,5.9,4.8,10.7,10.7,10.7c5.9,0,10.7-4.8,10.7-10.7V320c0,0,21.3-21.3,21.3-64v-21.3h-64V256
		c0,42.7,21.3,64,21.3,64V330.7z"/>
	<path class="st8" d="M341.3,74.7c0.1-29.5-23.6-53.4-53.1-53.6c-29.5-0.1-53.4,23.6-53.6,53.1c-0.1,16.9,7.8,32.8,21.3,42.9v32.2
		h64v-32.2C333.4,107.1,341.3,91.4,341.3,74.7z"/>
	
		<ellipse transform="matrix(0.7071 -0.7071 0.7071 0.7071 51.0592 208.6011)" class="st9" cx="277.3" cy="42.7" rx="24.6" ry="17.4"/>
	<path class="st10" d="M256,257.3c0.3,27.3,42.4,27.3,42.7,0c0-0.4,0-0.8,0-1.3v-21.3H256V256C256,256.4,256,256.9,256,257.3z"/>
</g>
</svg>
