<?xml version="1.0" encoding="utf-8"?>
<!-- Generator: Adobe Illustrator 22.1.0, SVG Export Plug-In . SVG Version: 6.00 Build 0)  -->
<svg version="1.1" id="Layer_1" xmlns="http://www.w3.org/2000/svg" xmlns:xlink="http://www.w3.org/1999/xlink" x="0px" y="0px"
	 viewBox="0 0 512 512" style="enable-background:new 0 0 512 512;" xml:space="preserve">
<style type="text/css">
	.st0{fill:#F98B00;}
	.st1{fill:#0784FF;}
	.st2{fill:#005EEE;}
	.st3{fill:#D6DEFF;}
	.st4{fill:#A8B4FF;}
	.st5{fill:#EFF2FF;}
	.st6{fill:#FFC200;}
	.st7{fill:#FFD80C;}
	.st8{fill:#FFEC6C;}
	.st9{fill:#5CBEFF;}
	.st10{fill:#BCE4FF;}
	.st11{fill:#FFFF9D;}
	.st12{fill:#FFEA21;}
</style>
<title>Artboard 157</title>
<g>
	<g>
		<g>
			<g>
				<circle class="st0" cx="320" cy="149.3" r="85.3"/>
			</g>
		</g>
		<g>
			<g>
				<circle class="st0" cx="192" cy="149.3" r="85.3"/>
			</g>
		</g>
		<g>
			<g>
				<g>
					<path class="st1" d="M256,298.7L84.2,345.5c-37.1,10.1-62.9,43.8-62.9,82.3V448c0,23.6,19.1,42.7,42.7,42.7h384
						c23.6,0,42.7-19.1,42.7-42.7v-20.2c0-38.5-25.8-72.2-62.9-82.3L256,298.7z"/>
				</g>
			</g>
		</g>
		<g>
			<g>
				<g>
					<path class="st2" d="M170.7,426.7L170.7,426.7c11.8,11.8,30.9,11.8,42.7,0l12.5-12.5c5.7-5.7,13.3-8.8,21.3-8.8h0
						c16.7,0,30.2,13.5,30.2,30.2v25c0,16.7,13.5,30.2,30.2,30.2h25c16.7,0,30.2-13.5,30.2-30.2v-42.7c0-8-3.2-15.7-8.8-21.3l-25-25
						c-5.7-5.7-13.3-8.8-21.3-8.8h-103c-8,0-15.7,3.2-21.3,8.8L170.7,384C158.9,395.8,158.9,414.9,170.7,426.7z"/>
				</g>
			</g>
		</g>
		<g>
			<g>
				<g>
					<path class="st2" d="M287.3,422.8c-4.9,0-9.3,3.4-10.4,8.4c-0.1,0.4-0.2,0.8-0.3,1.1l0,0c0,0,0,0.1,0,0.1c0,0,0,0,0,0
						c0,0,0,0,0,0c0,0,0,0,0,0c0,0,0,0.1,0,0.1l0,0c0,0,0,0,0,0c0,0,0,0,0,0c0,0,0,0,0,0c0,0,0,0,0,0c0,0,0,0.1,0,0.1c0,0,0,0,0,0
						c0,0,0,0,0,0c0,0,0,0,0,0c0,0,0,0.1,0,0.1c0,0,0,0,0,0c0,0,0,0,0,0c0,0,0,0,0,0c0,0,0,0,0,0c0,0,0,0,0,0c0,0,0,0,0,0
						c0,0,0,0,0,0c0,0,0,0,0,0c0,0,0,0,0,0c0,0,0,0,0,0c0,0,0,0,0,0c0,0,0,0,0,0c0,0,0,0,0,0c0,0,0,0,0,0c0,0,0,0,0,0c0,0,0,0,0,0
						c0,0,0,0,0,0c0,0,0,0,0,0c0,0,0,0,0,0c0,0,0,0,0,0c0,0,0,0,0,0c0,0,0,0,0,0c0,0,0,0,0,0c0,0,0,0,0,0c0,0,0,0,0,0c0,0,0,0,0,0
						c0,0,0,0,0,0c0,0,0,0,0,0c0,0,0,0,0,0c0,0,0,0,0,0c0,0,0,0,0,0c0,0,0,0,0,0c0,0,0,0,0,0c0,0,0,0,0,0c0,0,0,0,0,0c0,0,0,0,0,0
						c0,0,0,0,0,0c0,0,0,0,0,0c0,0,0,0,0,0c0,0,0,0,0,0c0,0,0,0,0,0c0,0,0,0,0,0c0,0,0,0,0,0c0,0,0,0,0,0c0,0,0,0,0,0c0,0,0,0,0,0
						c0,0,0,0,0,0c0,0,0,0,0,0c0,0,0,0,0,0c0,0,0,0,0,0c0,0,0,0,0,0c0,0,0,0,0,0c0,0,0,0,0,0c0,0,0,0,0,0c0,0,0,0,0,0c0,0,0,0,0,0
						c0,0,0,0,0,0c0,0,0,0,0,0c0,0,0,0,0,0c0,0,0,0,0,0c0,0,0,0,0,0.1c0,0,0,0,0,0c0,0,0,0,0,0c0,0,0,0,0,0c0,0,0,0,0,0.1
						c0,0,0,0,0,0c0,0,0,0,0,0c0,0,0,0,0,0c0,0,0,0,0,0.1c0,0,0,0,0,0c0,0,0,0,0,0c0,0,0,0,0,0c0,0,0,0,0,0c0,0,0,0,0,0
						c0,0,0,0,0,0.1c0,0,0,0,0,0c0,0,0,0,0,0c0,0,0,0,0,0c0,0,0,0.1,0,0.1c0,0,0,0,0,0c0,0,0,0,0,0l0,0c0,0.1-0.1,0.2-0.1,0.3l0,0
						c-2.3,5.4-6.7,9.6-12.2,11.6c-5.5,2.1-8.3,8.2-6.2,13.7c1.6,4.3,5.7,6.9,10,6.9c1.2,0,2.5-0.2,3.7-0.7
						c13.7-5.1,23.7-16.7,26.8-31c1.2-5.8-2.4-11.4-8.2-12.7C288.8,422.8,288,422.8,287.3,422.8L287.3,422.8z"/>
				</g>
			</g>
		</g>
		<g>
			<g>
				<g>
					<path class="st3" d="M64,490.7h142c7.6,0,14.9-3,20.2-8.4l0,0c7.9-7.9,10.5-19.7,6.6-30.1l-53-131.4
						c-5.2-16.1-22.1-25.2-38.4-20.8l-57.3,15.6c-37.1,10.1-62.9,43.8-62.9,82.3v50C21.3,471.6,40.4,490.7,64,490.7z"/>
				</g>
			</g>
		</g>
		<g>
			<g>
				<g>
					<path class="st4" d="M192,384L192,384c-11.8,0-21.3,9.6-21.3,21.3v0c0,11.8,9.6,21.3,21.3,21.3h0c11.8,0,21.3-9.6,21.3-21.3v0
						C213.3,393.6,203.8,384,192,384z"/>
				</g>
			</g>
		</g>
		<g>
			<g>
				<g>
					<path class="st3" d="M448,490.7H306c-7.6,0-14.9-3-20.2-8.4l0,0c-7.9-7.9-10.5-19.7-6.6-30.1l53-131.4
						c5.2-16.1,22.1-25.2,38.4-20.8l57.3,15.6c37.1,10.1,62.9,43.8,62.9,82.3v50C490.7,471.6,471.6,490.7,448,490.7z"/>
				</g>
			</g>
		</g>
		<g>
			<g>
				<g>
					
						<ellipse transform="matrix(0.7071 -0.7071 0.7071 0.7071 -135.9319 418.6206)" class="st5" cx="437.4" cy="373.4" rx="27" ry="36.5"/>
				</g>
			</g>
		</g>
		<g>
			<g>
				<g>
					<path class="st4" d="M296.4,409.1l5.4,7.1c10.8,10.8,27.4,13.5,41.1,6.7c12.1-6,19.7-18.4,19.7-31.9v-28.4
						c0-19.5-13.1-35.7-31-40.8L296.4,409.1z"/>
				</g>
			</g>
		</g>
		<g>
			<g>
				<g>
					<path class="st1" d="M269.9,383.9l-28,0.1c-4.7,0-9.4,1.4-13.3,4.1l-20.2,13.4c-16.2,10.7-37.7-0.9-37.7-20.2v-39.9
						c0-23.6,19.1-42.7,42.7-42.7h85.3c23.6,0,42.7,19.1,42.7,42.7v39.7c0,19.4-21.6,31-37.8,20.2l-20.1-13.4
						C279.5,385.3,274.8,383.8,269.9,383.9z"/>
				</g>
			</g>
		</g>
		<g>
			<g>
				<g>
					<path class="st2" d="M288,362.7h-64c-17.7,0-32-14.3-32-32v0c0-17.7,14.3-32,32-32h64c17.7,0,32,14.3,32,32v0
						C320,348.3,305.7,362.7,288,362.7z"/>
				</g>
			</g>
		</g>
		<g>
			<g>
				<g>
					<path class="st6" d="M352,234.7h-10.7v-64H352c17.7,0,32,14.3,32,32v0C384,220.3,369.7,234.7,352,234.7z"/>
				</g>
			</g>
		</g>
		<g>
			<g>
				<g>
					<path class="st7" d="M160,234.7h10.7v-64H160c-17.7,0-32,14.3-32,32v0C128,220.3,142.3,234.7,160,234.7z"/>
				</g>
			</g>
		</g>
		<g>
			<g>
				<g>
					<path class="st6" d="M256,362.7L256,362.7c-23.6,0-42.7-19.1-42.7-42.7v-42.7c0-23.6,19.1-42.7,42.7-42.7h0
						c23.6,0,42.7,19.1,42.7,42.7V320C298.7,343.6,279.6,362.7,256,362.7z"/>
				</g>
			</g>
		</g>
		<g>
			<g>
				<g>
					<g>
						<path class="st8" d="M256,320L256,320c-58.9,0-106.7-47.8-106.7-106.7V128c0-58.9,47.8-106.7,106.7-106.7h0
							c58.9,0,106.7,47.8,106.7,106.7v85.3C362.7,272.2,314.9,320,256,320z"/>
					</g>
				</g>
			</g>
			<g>
				<g>
					<path class="st7" d="M320,43.1V128h-21.3c-23.6,0-42.7,19.1-42.7,42.7V192l21.3,0c0,21.3-21.3,21.3-21.3,21.3v64
						c0,0,21.3,0,21.3,21.3c0,16-12,20-18,21c57.3-1.8,103.3-48.6,103.3-106.3V128C362.7,93.2,345.8,62.6,320,43.1z"/>
				</g>
			</g>
		</g>
		<g>
			<g>
				<g>
					<circle class="st1" cx="309.3" cy="160" r="10.7"/>
				</g>
			</g>
		</g>
		<g>
			<g>
				<g>
					<circle class="st1" cx="202.7" cy="160" r="10.7"/>
				</g>
			</g>
		</g>
		<g>
			<g>
				<g>
					<circle class="st5" cx="128" cy="341.3" r="21.3"/>
				</g>
			</g>
		</g>
		<g>
			<g>
				<g>
					<circle class="st9" cx="256" cy="426.7" r="21.3"/>
				</g>
			</g>
		</g>
		<g>
			<g>
				<g>
					<path class="st9" d="M234.7,490.7c0-11.8,9.6-21.3,21.3-21.3s21.3,9.6,21.3,21.3H234.7z"/>
				</g>
			</g>
		</g>
		<g>
			<g>
				<g>
					<circle class="st10" cx="245.3" cy="416" r="10.7"/>
				</g>
			</g>
		</g>
		<g>
			<g>
				<g>
					<circle class="st10" cx="245.3" cy="480" r="10.7"/>
				</g>
			</g>
		</g>
		<g>
			<g>
				<path class="st8" d="M320,234.7L320,234.7c-11.8,0-21.3-9.6-21.3-21.3v0c0-11.8,9.6-21.3,21.3-21.3h0c11.8,0,21.3,9.6,21.3,21.3
					v0C341.3,225.1,331.8,234.7,320,234.7z"/>
			</g>
		</g>
		<g>
			<g>
				<path class="st11" d="M192,234.7L192,234.7c-11.8,0-21.3-9.6-21.3-21.3v0c0-11.8,9.6-21.3,21.3-21.3h0
					c11.8,0,21.3,9.6,21.3,21.3v0C213.3,225.1,203.8,234.7,192,234.7z"/>
			</g>
		</g>
		<g>
			<g>
				<path class="st11" d="M288,106.7h-64c-5.9,0-10.7-4.8-10.7-10.7s4.8-10.7,10.7-10.7h64c5.9,0,10.7,4.8,10.7,10.7
					S293.9,106.7,288,106.7z"/>
			</g>
		</g>
		<g>
			<g>
				<path class="st12" d="M288,128h-64c-5.9,0-10.7-4.8-10.7-10.7c0-5.9,4.8-10.7,10.7-10.7h64c5.9,0,10.7,4.8,10.7,10.7
					C298.7,123.2,293.9,128,288,128z"/>
			</g>
		</g>
		<g>
			<g>
				<path class="st6" d="M266.7,256h-21.3c-5.9,0-10.7-4.8-10.7-10.7c0-5.9,4.8-10.7,10.7-10.7h21.3c5.9,0,10.7,4.8,10.7,10.7
					C277.3,251.2,272.6,256,266.7,256z"/>
			</g>
		</g>
		<g>
			<g>
				<path class="st0" d="M149.3,85.3c0,0,21.3,0,21.3,21.3s0,21.3,0,42.7s-21.3,21.3-21.3,21.3V192c0,0-21.3,0-21.3-21.3
					s0-42.7,0-64S149.3,85.3,149.3,85.3z"/>
			</g>
		</g>
		<g>
			<g>
				<path class="st0" d="M362.7,85.3c0,0-21.3,0-21.3,21.3s0,21.3,0,42.7s21.3,21.3,21.3,21.3V192c0,0,21.3,0,21.3-21.3s0-42.7,0-64
					S362.7,85.3,362.7,85.3z"/>
			</g>
		</g>
		<g>
			<g>
				
					<ellipse transform="matrix(0.7071 -0.7071 0.7071 0.7071 17.2291 169.5946)" class="st11" cx="213.3" cy="64" rx="27" ry="13.5"/>
			</g>
		</g>
	</g>
</g>
</svg>
