<svg xmlns="http://www.w3.org/2000/svg" viewBox="0 0 512 512"><title>Artboard 103</title><g id="Conical_Flask" data-name="Conical Flask"><path d="M479.66536,388.832,320,149.33333V64s21.33333,0,21.33333-21.33333S320,21.33333,320,21.33333H192s-21.33333,0-21.33333,21.33334S192,64,192,64v85.33333L32.33464,388.832a65.50067,65.50067,0,0,0,54.5,101.83464H425.16536a65.50067,65.50067,0,0,0,54.5-101.83464Z" style="fill:#bcc5ff"/><path d="M427.0612,425.16536A65.49756,65.49756,0,0,0,416.0599,388.832L256.39453,149.33333V64s21.33333,0,21.33333-21.33333-21.33333-21.33334-21.33333-21.33334H192s-21.33333,0-21.33333,21.33334S192,64,192,64v85.33333L32.33464,388.832a65.50067,65.50067,0,0,0,54.5,101.83464H361.5599A65.50078,65.50078,0,0,0,427.0612,425.16536Z" style="fill:#d6deff"/><path d="M309.33333,277.33333H256A10.66666,10.66666,0,1,1,256,256h53.33333a10.66667,10.66667,0,1,1,0,21.33333Z" style="fill:#eff2ff"/><path d="M309.33333,213.33333H256A10.66667,10.66667,0,1,1,256,192h53.33333a10.66667,10.66667,0,1,1,0,21.33333Z" style="fill:#eff2ff"/><path d="M433.77734,320H78.22266l-45.888,68.832a65.50067,65.50067,0,0,0,54.5,101.83464H425.16536a65.50067,65.50067,0,0,0,54.5-101.83464Z" style="fill:#ffa300"/><path d="M427.0612,425.16536A65.49756,65.49756,0,0,0,416.0599,388.832L370.17188,320H78.22266l-45.888,68.832a65.50067,65.50067,0,0,0,54.5,101.83464H361.5599A65.50078,65.50078,0,0,0,427.0612,425.16536Z" style="fill:#ffd80c"/><path d="M309.33333,341.33333H256A10.66666,10.66666,0,1,1,256,320h53.33333a10.66667,10.66667,0,1,1,0,21.33333Z" style="fill:#eff2ff"/><path d="M309.33333,405.33333H256A10.66666,10.66666,0,1,1,256,384h53.33333a10.66667,10.66667,0,1,1,0,21.33333Z" style="fill:#eff2ff"/><circle cx="213.33333" cy="42.66667" r="21.33333" style="fill:#eff2ff"/><path d="M153.58333,320A21.33364,21.33364,0,0,1,136.125,286.4375l59.72917-85.33333A21.33246,21.33246,0,1,1,230.8125,225.5625l-59.72917,85.33333A21.30034,21.30034,0,0,1,153.58333,320Z" style="fill:#eff2ff"/><path d="M63.97917,448a21.33364,21.33364,0,0,1-17.45834-33.5625L106.25,329.10417a21.33246,21.33246,0,0,1,34.95833,24.45833L81.47917,438.89583A21.30036,21.30036,0,0,1,63.97917,448Z" style="fill:#ffff9d"/></g></svg>