<svg xmlns="http://www.w3.org/2000/svg" viewBox="0 0 512 512"><title>Artboard 118</title><g id="Boiled_Glass" data-name="Boiled Glass"><path d="M320,234.66667V64a21.33333,21.33333,0,0,0,0-42.66667H192A21.33334,21.33334,0,0,0,192,64V234.66667s-106.66667,42.66666-106.66667,128,85.33334,106.66666,85.33334,106.66666A21.33356,21.33356,0,0,0,192,490.66667H320a21.33356,21.33356,0,0,0,21.33333-21.33334S426.66667,448,426.66667,362.66667,320,234.66667,320,234.66667Z" style="fill:#bcc5ff"/><path d="M277.33333,469.33333S362.66667,448,362.66667,362.66667,256,234.66667,256,234.66667V64a21.33333,21.33333,0,0,0,0-42.66667H192A21.33334,21.33334,0,0,0,192,64V234.66667s-106.66667,42.66666-106.66667,128,85.33334,106.66666,85.33334,106.66666A21.33356,21.33356,0,0,0,192,490.66667h64A21.33356,21.33356,0,0,0,277.33333,469.33333Z" style="fill:#d6deff"/><rect x="192" y="21.33333" width="64" height="42.66667" rx="21.33331" ry="21.33331" style="fill:#eff2ff"/><path d="M426.66667,362.66667H85.33333c0,85.33333,85.33334,106.66666,85.33334,106.66666H341.33333S426.66667,448,426.66667,362.66667Z" style="fill:#ffa300"/><path d="M362.66667,362.66667H85.33333c0,85.33333,85.33334,106.66666,85.33334,106.66666H277.33333S362.66667,448,362.66667,362.66667Z" style="fill:#ffbe00"/><ellipse cx="149.33333" cy="362.66667" rx="42.66667" ry="64" style="fill:#eff2ff"/></g></svg>