<svg xmlns="http://www.w3.org/2000/svg" viewBox="0 0 512 512"><title>Artboard 130</title><g id="Medicine_Bottle" data-name="Medicine Bottle"><path d="M234.66667,128V21.33333h-128V128s-64,21.33333-64,85.33333V426.66667a42.6671,42.6671,0,0,0,42.66666,42.66666H256a42.66711,42.66711,0,0,0,42.66667-42.66666V213.33333C298.66667,149.33333,234.66667,128,234.66667,128Z" style="fill:#33527d"/><rect x="85.33333" y="21.33333" width="170.66667" height="85.33333" rx="21.33333" ry="21.33333" style="fill:#005eee"/><path d="M234.66667,426.66667V213.33333c0-64-64-85.33333-64-85.33333V21.33333h-64V128s-64,21.33333-64,85.33333V426.66667a42.6671,42.6671,0,0,0,42.66666,42.66666H192A42.66711,42.66711,0,0,0,234.66667,426.66667Z" style="fill:#435e88"/><rect x="85.33333" y="21.33333" width="106.66667" height="85.33333" rx="21.33333" ry="21.33333" style="fill:#0784ff"/><rect x="42.66667" y="213.33333" width="256" height="192" style="fill:#bcc5ff"/><rect x="42.66667" y="213.33333" width="192" height="192" style="fill:#d6deff"/><rect x="85.33333" y="234.66667" width="64" height="170.66667" rx="31.99997" ry="31.99997" style="fill:#eff2ff"/><circle cx="117.33333" cy="288" r="32" style="fill:#0784ff"/><path d="M245.33333,362.66667H96a10.66667,10.66667,0,1,1,0-21.33334H245.33333a10.66667,10.66667,0,0,1,0,21.33334Z" style="fill:#163969"/><path d="M245.33333,277.33333h-64a10.66667,10.66667,0,0,1,0-21.33333h64a10.66667,10.66667,0,1,1,0,21.33333Z" style="fill:#163969"/><path d="M245.33333,320h-64a10.66667,10.66667,0,0,1,0-21.33333h64a10.66667,10.66667,0,1,1,0,21.33333Z" style="fill:#163969"/><rect x="106.66667" y="21.33333" width="42.66667" height="85.33333" rx="21.33331" ry="21.33331" style="fill:#5cbeff"/><circle cx="117.33333" cy="181.33333" r="32" style="fill:#adb9ca"/><circle cx="341.33333" cy="362.66667" r="128" style="fill:#ffec6c"/><circle cx="341.33333" cy="362.66667" r="85.33333" style="fill:#ffff9d"/><path d="M250.82367,453.17633A128,128,0,0,1,431.843,272.157Z" style="fill:#079cff"/><path d="M277.33333,426.66667A21.33334,21.33334,0,0,1,262.25,390.25L368.91667,283.58333A21.33105,21.33105,0,1,1,399.08333,313.75L292.41667,420.41667A21.26425,21.26425,0,0,1,277.33333,426.66667Z" style="fill:#0784ff"/><path d="M256,384a21.32772,21.32772,0,0,1-21.33333-21.33333A106.79223,106.79223,0,0,1,341.33333,256a21.33334,21.33334,0,1,1,0,42.66667,64.07,64.07,0,0,0-64,64A21.32772,21.32772,0,0,1,256,384Z" style="fill:#5cbeff"/></g></svg>