<svg xmlns="http://www.w3.org/2000/svg" viewBox="0 0 512 512"><title>Artboard 102</title><g id="DNA"><path d="M42.66667,341.33333a21.33333,21.33333,0,0,1-15.08334-36.41666l39.01042-39.01042a105.95324,105.95324,0,0,1,75.41667-31.23958H369.98958a64.46879,64.46879,0,0,0,45.25-18.73959L454.25,176.91667a21.33105,21.33105,0,1,1,30.16667,30.16666l-39.01042,39.01042a105.95324,105.95324,0,0,1-75.41667,31.23958H142.01042a64.46879,64.46879,0,0,0-45.25,18.73959L57.75,335.08333A21.2642,21.2642,0,0,1,42.66667,341.33333Z" style="fill:#ffa300"/><path d="M277.33333,277.33333h-64a21.33333,21.33333,0,1,1,0-42.66666h64a21.33333,21.33333,0,1,1,0,42.66666Z" style="fill:#f98b00"/><path d="M149.33333,448A21.2642,21.2642,0,0,1,134.25,441.75l-64-64a21.33106,21.33106,0,1,1,30.16667-30.16667l64,64A21.33334,21.33334,0,0,1,149.33333,448Z" style="fill:#14a142"/><path d="M213.33333,426.66667a21.26424,21.26424,0,0,1-15.08333-6.25L91.58333,313.75A21.33106,21.33106,0,1,1,121.75,283.58333L228.41667,390.25a21.33334,21.33334,0,0,1-15.08334,36.41667Z" style="fill:#14a142"/><path d="M234.66667,362.66667a21.26425,21.26425,0,0,1-15.08334-6.25l-64-64A21.33106,21.33106,0,0,1,185.75,262.25l64,64a21.33334,21.33334,0,0,1-15.08333,36.41667Z" style="fill:#14a142"/><path d="M149.33333,448A21.2642,21.2642,0,0,1,134.25,441.75l-21.33333-21.33333A21.33105,21.33105,0,0,1,143.08333,390.25l21.33334,21.33333A21.33334,21.33334,0,0,1,149.33333,448Z" style="fill:#008732"/><path d="M213.33333,426.66667a21.26424,21.26424,0,0,1-15.08333-6.25l-21.33333-21.33334a21.331,21.331,0,0,1,30.16666-30.16666L228.41667,390.25a21.33334,21.33334,0,0,1-15.08334,36.41667Z" style="fill:#008732"/><path d="M234.66667,362.66667a21.26425,21.26425,0,0,1-15.08334-6.25L198.25,335.08333a21.33105,21.33105,0,1,1,30.16667-30.16666L249.75,326.25a21.33334,21.33334,0,0,1-15.08333,36.41667Z" style="fill:#008732"/><path d="M341.33333,256A21.2642,21.2642,0,0,1,326.25,249.75l-64-64a21.33106,21.33106,0,0,1,30.16667-30.16667l64,64A21.33334,21.33334,0,0,1,341.33333,256Z" style="fill:#14a142"/><path d="M405.33333,234.66667a21.26424,21.26424,0,0,1-15.08333-6.25L283.58333,121.75A21.33106,21.33106,0,1,1,313.75,91.58333L420.41667,198.25a21.33334,21.33334,0,0,1-15.08334,36.41667Z" style="fill:#14a142"/><path d="M426.66667,170.66667a21.26425,21.26425,0,0,1-15.08334-6.25l-64-64A21.33106,21.33106,0,1,1,377.75,70.25l64,64a21.33334,21.33334,0,0,1-15.08333,36.41667Z" style="fill:#14a142"/><path d="M298.66667,213.33333a21.2642,21.2642,0,0,1-15.08334-6.25L262.25,185.75a21.33106,21.33106,0,0,1,30.16667-30.16667L313.75,176.91667a21.33333,21.33333,0,0,1-15.08333,36.41666Z" style="fill:#008732"/><path d="M320,149.33333a21.26418,21.26418,0,0,1-15.08333-6.25L283.58333,121.75A21.33106,21.33106,0,1,1,313.75,91.58333l21.33333,21.33334A21.33333,21.33333,0,0,1,320,149.33333Z" style="fill:#008732"/><path d="M384,128a21.26418,21.26418,0,0,1-15.08333-6.25l-21.33334-21.33333A21.33106,21.33106,0,1,1,377.75,70.25l21.33333,21.33333A21.33334,21.33334,0,0,1,384,128Z" style="fill:#008732"/><path d="M192,490.66667A21.33334,21.33334,0,0,1,176.91667,454.25l39.01041-39.01042a64.46879,64.46879,0,0,0,18.73959-45.25V142.01042a105.95324,105.95324,0,0,1,31.23958-75.41667l39.01042-39.01042A21.33105,21.33105,0,0,1,335.08333,57.75L296.07292,96.76042a64.46879,64.46879,0,0,0-18.73959,45.25V369.98958a105.95324,105.95324,0,0,1-31.23958,75.41667l-39.01042,39.01042A21.26422,21.26422,0,0,1,192,490.66667Z" style="fill:gold"/></g></svg>