<svg xmlns="http://www.w3.org/2000/svg" viewBox="0 0 512 512"><title>Artboard 150</title><g id="Weight"><rect x="213.33333" y="128" width="85.33333" height="85.33333" style="fill:#a4b1ff"/><rect x="106.66667" y="192" width="298.66667" height="298.66667" rx="42.66667" ry="42.66667" transform="translate(-85.33333 597.33333) rotate(-90)" style="fill:#4c67ff"/><rect x="64" y="234.66667" width="298.66667" height="213.33333" rx="42.66667" ry="42.66667" transform="translate(-128 554.66667) rotate(-90)" style="fill:#627aff"/><rect x="149.33333" y="234.66667" width="64" height="213.33333" rx="31.99997" ry="31.99997" style="fill:#96a6ff"/><circle cx="256" cy="341.33333" r="106.66667" style="fill:#d6deff"/><circle cx="234.66667" cy="341.33333" r="85.33333" style="fill:#eff2ff"/><path d="M292.17088,280.81213l-70.49477,54.11671a21.33333,21.33333,0,0,0-8.34278,16.92207v10.81576A21.33334,21.33334,0,0,0,234.66667,384h10.81575a21.33333,21.33333,0,0,0,16.92207-8.34277l54.11671-70.49478a17.39307,17.39307,0,0,0-1.61569-22.7346l0,0A17.39307,17.39307,0,0,0,292.17088,280.81213Z" style="fill:#ffa300"/><circle cx="256" cy="341.33333" r="21.33333" style="fill:#4c67ff"/><path d="M21.33333,21.33333H490.66667a0,0,0,0,1,0,0V64a85.33333,85.33333,0,0,1-85.33333,85.33333H106.66667A85.33333,85.33333,0,0,1,21.33333,64V21.33333A0,0,0,0,1,21.33333,21.33333Z" style="fill:#4c67ff"/><path d="M384,64V21.33333H21.33333V64a85.33339,85.33339,0,0,0,85.33334,85.33333h192A85.33339,85.33339,0,0,0,384,64Z" style="fill:#627aff"/><path d="M106.66667,128H405.33333a0,0,0,0,1,0,0v21.33333A21.33333,21.33333,0,0,1,384,170.66667H128a21.33333,21.33333,0,0,1-21.33333-21.33333V128A0,0,0,0,1,106.66667,128Z" style="fill:#a4b1ff"/><path d="M106.66667,128H320a0,0,0,0,1,0,0v21.33333a21.33333,21.33333,0,0,1-21.33333,21.33333H128a21.33333,21.33333,0,0,1-21.33333-21.33333V128A0,0,0,0,1,106.66667,128Z" style="fill:#cbd3ff"/><rect x="149.33333" y="128" width="64" height="42.66667" rx="21.33331" ry="21.33331" style="fill:#eff2ff"/><rect x="64" y="42.66665" width="170.66662" height="85.33333" rx="42.66662" ry="42.66662" style="fill:#96a6ff"/></g></svg>