<svg xmlns="http://www.w3.org/2000/svg" viewBox="0 0 512 512"><title>Artboard 126</title><g id="Globe"><rect x="234.66667" y="384" width="42.66667" height="64" style="fill:#5e7599"/><path d="M256,405.33333a211.92133,211.92133,0,0,1-150.85417-62.48958c-83.16666-83.17708-83.16666-218.51042,0-301.6875a10.66553,10.66553,0,1,1,15.08334,15.08333c-74.85417,74.85417-74.85417,196.66667,0,271.52084a192.00542,192.00542,0,0,0,271.54166,0,10.66553,10.66553,0,0,1,15.08334,15.08333A211.92133,211.92133,0,0,1,256,405.33333Z" style="fill:#5e7599"/><path d="M138.66667,85.33333a10.63207,10.63207,0,0,1-7.54167-3.125L109.79167,60.875A10.66552,10.66552,0,0,1,124.875,45.79167L146.20833,67.125a10.66667,10.66667,0,0,1-7.54166,18.20833Z" style="fill:#5e7599"/><circle cx="256" cy="192" r="170.66667" style="fill:#0784ff"/><ellipse cx="362.66667" cy="298.66667" rx="26.97886" ry="13.48943" transform="translate(-104.96662 343.9215) rotate(-45)" style="fill:#005eee"/><ellipse cx="234.66667" cy="170.66667" rx="156.96703" ry="141.28509" transform="translate(-51.94728 215.9215) rotate(-45)" style="fill:#079cff"/><ellipse cx="213.33333" cy="128" rx="123.56464" ry="86.50683" transform="translate(-28.02578 188.33978) rotate(-45)" style="fill:#5cbeff"/><ellipse cx="199.15419" cy="156.90374" rx="101.08236" ry="90.29141" transform="translate(-29.29351 266.8711) rotate(-63.93749)" style="fill:#14a142"/><ellipse cx="181.33333" cy="149.33333" rx="87.91103" ry="71.59563" transform="translate(-29.71964 252.47821) rotate(-65.51794)" style="fill:#4cc66e"/><circle cx="352" cy="160" r="32" style="fill:#14a142"/><ellipse cx="341.33333" cy="149.33333" rx="24.6316" ry="17.41717" transform="translate(-5.62039 285.09784) rotate(-45)" style="fill:#4cc66e"/><path d="M256,362.66663a170.226,170.226,0,0,0,62.47852-11.79969c-6.20411-29.82043-31.772-52.20031-62.47852-52.20031s-56.27441,22.37988-62.47852,52.20031A170.226,170.226,0,0,0,256,362.66663Z" style="fill:#14a142"/><ellipse cx="244.50014" cy="325.5129" rx="34.94922" ry="20.40257" transform="translate(-123.16658 150.69828) rotate(-27.65925)" style="fill:#4cc66e"/><path d="M341.33333,426.66667H170.66667A42.66666,42.66666,0,0,0,128,469.33333v21.33334H384V469.33333A42.66666,42.66666,0,0,0,341.33333,426.66667Z" style="fill:#33527d"/><path d="M277.33333,426.66667H170.66667A42.66666,42.66666,0,0,0,128,469.33333v21.33334H320V469.33333A42.66666,42.66666,0,0,0,277.33333,426.66667Z" style="fill:#5e7599"/><path d="M394.66667,341.33333a10.63207,10.63207,0,0,1-7.54167-3.125L365.79167,316.875A10.66552,10.66552,0,0,1,380.875,301.79167L402.20833,323.125a10.66667,10.66667,0,0,1-7.54166,18.20833Z" style="fill:#5e7599"/><path d="M394.66667,490.66667H117.33333a10.66667,10.66667,0,0,1,0-21.33334H394.66667a10.66667,10.66667,0,0,1,0,21.33334Z" style="fill:#7d8fac"/><path d="M266.66667,490.66667h-128a10.66667,10.66667,0,0,1,0-21.33334h128a10.66667,10.66667,0,0,1,0,21.33334Z" style="fill:#adb9ca"/><ellipse cx="170.66667" cy="106.66667" rx="48.26898" ry="36.20174" transform="translate(-25.43761 151.9215) rotate(-45)" style="fill:#84d89c"/><rect x="170.66667" y="426.66667" width="85.33333" height="42.66667" rx="21.33331" ry="21.33331" style="fill:#7d8fac"/></g></svg>