<svg xmlns="http://www.w3.org/2000/svg" viewBox="0 0 512 512"><title>Artboard 115</title><g id="Dropper_Test_Tube" data-name="Dropper &amp; Test Tube"><path d="M405.33335,106.66667H298.66664A21.33331,21.33331,0,0,0,277.33333,128v0a21.33331,21.33331,0,0,0,21.33331,21.33331l0,288.00006a53.33328,53.33328,0,0,0,53.33328,53.33328h.00011a53.33328,53.33328,0,0,0,53.33328-53.33328l0-288.00006A21.33331,21.33331,0,0,0,426.66667,128v0A21.33331,21.33331,0,0,0,405.33335,106.66667Z" style="fill:#bcc5ff"/><path d="M277.33333,128a21.33355,21.33355,0,0,0,21.33334,21.33333v288a53.60465,53.60465,0,0,0,.603,8.036c5.12967,33.84769,57.66428,33.84769,62.794,0a53.606,53.606,0,0,0,.603-8.036v-288a21.33333,21.33333,0,0,0,0-42.66666h-64A21.33272,21.33272,0,0,0,277.33333,128Z" style="fill:#d6deff"/><circle cx="320" cy="128" r="21.33333" style="fill:#eff2ff"/><path d="M298.66667,256V437.33333a53.33333,53.33333,0,1,0,106.66666,0V256Z" style="fill:#ffa300"/><path d="M362.0638,445.36849a53.5894,53.5894,0,0,0,.60287-8.03516V256h-64V437.33333a53.07243,53.07243,0,0,0,.89192,8.84375C305.48828,479.10547,356.98047,478.90755,362.0638,445.36849Z" style="fill:#ffd80c"/><path d="M213.33335,106.66667H106.66664A21.33331,21.33331,0,0,0,85.33333,128v0a21.33331,21.33331,0,0,0,21.33331,21.33331l0,288.00006a53.33328,53.33328,0,0,0,53.33328,53.33328H160a53.33328,53.33328,0,0,0,53.33328-53.33328l0-288.00006A21.33331,21.33331,0,0,0,234.66667,128v0A21.33331,21.33331,0,0,0,213.33335,106.66667Z" style="fill:#bcc5ff"/><path d="M85.33333,128a21.33355,21.33355,0,0,0,21.33334,21.33333v288a53.60465,53.60465,0,0,0,.603,8.036c5.12967,33.84769,57.66428,33.84769,62.794,0a53.606,53.606,0,0,0,.603-8.036v-288a21.33333,21.33333,0,0,0,0-42.66666h-64A21.33272,21.33272,0,0,0,85.33333,128Z" style="fill:#d6deff"/><path d="M106.66667,405.33333v32a53.33333,53.33333,0,1,0,106.66666,0v-32Z" style="fill:#c175ff"/><path d="M107.26969,445.36934c5.12967,33.84769,57.66428,33.84769,62.794,0a53.606,53.606,0,0,0,.603-8.036v-32h-64v32A53.60465,53.60465,0,0,0,107.26969,445.36934Z" style="fill:#cf94ff"/><path d="M149.33333,362.66667S128,394.66667,128,416v0a32,32,0,0,0,32,32H160a32,32,0,0,0,32-32v0c0-21.33333-21.33333-53.33333-21.33333-53.33333Z" style="fill:#ffc200"/><circle cx="149.33333" cy="405.33333" r="21.33333" style="fill:#ffd80c"/><path d="M128,106.66667V256c0,42.66667,21.33333,64,21.33333,64v10.66667a10.66667,10.66667,0,0,0,21.33334,0V320S192,298.66667,192,256V106.66667Z" style="fill:#d6deff"/><path d="M128.00636,257.2736c.27257,27.25754,42.38137,27.25754,42.654,0q.00633-.6336.00636-1.2736V106.66667H128V256Q128,256.64,128.00636,257.2736Z" style="fill:#eff2ff"/><path d="M149.33333,330.66667a10.66667,10.66667,0,0,0,21.33334,0V320S192,298.66667,192,256V234.66667H128V256c0,42.66667,21.33333,64,21.33333,64Z" style="fill:#ffc200"/><path d="M213.33333,74.66667A53.33388,53.33388,0,1,0,128,117.09245v32.24088h64V117.09245A53.07711,53.07711,0,0,0,213.33333,74.66667Z" style="fill:#163969"/><ellipse cx="149.33333" cy="42.66667" rx="24.64347" ry="17.40033" transform="translate(13.56883 118.09139) rotate(-45)" style="fill:#5e7599"/><path d="M128.00636,257.2736c.27257,27.25754,42.38137,27.25754,42.654,0q.00633-.6336.00636-1.2736V234.66667H128V256Q128,256.64,128.00636,257.2736Z" style="fill:#ffd80c"/></g></svg>