<svg xmlns="http://www.w3.org/2000/svg" viewBox="0 0 512 512"><title>Artboard 114</title><g id="Pill"><circle cx="202.66667" cy="202.66667" r="181.33333" style="fill:#ffd80c"/><circle cx="202.66667" cy="202.66667" r="138.66667" style="fill:#ffec6c"/><path d="M330.8887,330.8887A181.33333,181.33333,0,0,1,74.44464,74.44464Z" style="fill:#4cc66e"/><path d="M300.71875,125.94792a21.26422,21.26422,0,0,1-15.08333-6.25C247.16667,81.22917,185.98958,74.375,140.10417,103.36458a21.33376,21.33376,0,1,1-22.77084-36.08333c63.58334-40.13542,145.21875-31.01042,198.46875,22.25a21.33334,21.33334,0,0,1-15.08333,36.41667Z" style="fill:#ffff9d"/><path d="M104.61458,322.05208a21.2642,21.2642,0,0,1-15.08333-6.25A159.55116,159.55116,0,0,1,54.92708,141.13542a21.33574,21.33574,0,0,1,39.39584,16.39583,117.01085,117.01085,0,0,0,25.375,128.10417,21.33333,21.33333,0,0,1-15.08334,36.41666Z" style="fill:#84d89c"/><path d="M298.66667,341.33333a21.2642,21.2642,0,0,1-15.08334-6.25l-192-192A21.33105,21.33105,0,0,1,121.75,112.91667l192,192a21.33333,21.33333,0,0,1-15.08333,36.41666Z" style="fill:#14a142"/><circle cx="309.33333" cy="309.33333" r="181.33333" style="fill:#ffd80c"/><circle cx="309.33333" cy="309.33333" r="138.66667" style="fill:#ffec6c"/><path d="M181.1113,437.55536A181.33333,181.33333,0,0,1,437.55536,181.1113Z" style="fill:#ffa300"/><path d="M170.66667,330.66667a21.3344,21.3344,0,0,1-21.33334-21.33334c0-88.22916,71.77084-160,160-160a21.33334,21.33334,0,1,1,0,42.66667A117.4661,117.4661,0,0,0,192,309.33333,21.33439,21.33439,0,0,1,170.66667,330.66667Z" style="fill:#ffd80c"/><path d="M192,426.66667A21.33334,21.33334,0,0,1,176.91667,390.25l192-192a21.33105,21.33105,0,0,1,30.16666,30.16667l-192,192A21.26422,21.26422,0,0,1,192,426.66667Z" style="fill:#f98b00"/></g></svg>