<svg xmlns="http://www.w3.org/2000/svg" viewBox="0 0 512 512"><title>Artboard 129</title><g id="Herbal_Medicine" data-name="Herbal Medicine"><path d="M341.33333,298.66669a42.66665,42.66665,0,0,1-42.66664,42.66664h-.00032c-153.16681,0-277.333-124.16622-277.333-277.333V64A42.66665,42.66665,0,0,1,64,21.33333h.00032c153.16681,0,277.333,124.16623,277.333,277.333v.00032Z" style="fill:#008732"/><ellipse cx="106.66667" cy="170.66667" rx="22.96825" ry="55.78395" transform="translate(-89.44012 125.42268) rotate(-45.00317)" style="fill:#14a142"/><path d="M298.66667,341.33333a21.33333,21.33333,0,1,1,0-42.66666C298.66667,169.27083,193.39583,64,64,64a21.33334,21.33334,0,0,1,0-42.66667c152.91667,0,277.33333,124.40625,277.33333,277.33334A42.71554,42.71554,0,0,1,298.66667,341.33333Z" style="fill:#006236"/><path d="M338.20833,323.125,234.66667,219.58333V160a10.66667,10.66667,0,0,0-21.33334,0v38.25L188.888,173.80469l-.026-.026L149.33333,134.25V74.66667a10.66667,10.66667,0,1,0-21.33333,0v38.25l-67.125-67.125A10.66552,10.66552,0,0,0,45.79167,60.875L131.112,146.19531l.026.026,24.44531,24.44532h-38.25a10.66667,10.66667,0,0,0,0,21.33333h59.58334l39.52864,39.52865.026.026L323.125,338.20833A10.66552,10.66552,0,0,0,338.20833,323.125Z" style="fill:#4cc66e"/><path d="M159.55592,218.82367H416.44412a90.50956,90.50956,0,0,1,90.50956,90.50956v.00019A90.50959,90.50959,0,0,1,416.44408,399.843H159.55589a90.50956,90.50956,0,0,1-90.50956-90.50956v-.00017a90.5096,90.5096,0,0,1,90.5096-90.5096Z" transform="translate(-134.37845 294.2483) rotate(-44.99999)" style="fill:#d6deff"/><path d="M218.50911,421.48958,400.15755,239.84245a90.64839,90.64839,0,0,0,7.68143-8.73175c40.76087-52.83944-31.44614-125.045-84.28421-84.2824a90.64594,90.64594,0,0,0-8.73055,7.68081L133.17578,336.15625a90.64828,90.64828,0,0,0-7.68142,8.73175c-40.76088,52.83943,31.44614,125.045,84.28421,84.28239A90.64567,90.64567,0,0,0,218.50911,421.48958Z" style="fill:#eff2ff"/><path d="M309.33333,373.33333a21.2642,21.2642,0,0,1-15.08333-6.25L240.91667,313.75a21.33105,21.33105,0,1,1,30.16666-30.16667l53.33334,53.33334a21.33333,21.33333,0,0,1-15.08334,36.41666Z" style="fill:#bcc5ff"/><path d="M442.82422,154.50911h-.0013a90.50787,90.50787,0,0,0-127.9987,0L224,245.33333l128,128,90.82422-90.82422A90.51179,90.51179,0,0,0,442.82422,154.50911Z" style="fill:#ffc200"/><path d="M309.33333,330.66667l90.82422-90.82422a90.677,90.677,0,0,0,7.681-8.73177c40.02474-51.88542-28.83333-122.17969-81.362-86.11979a90.11639,90.11639,0,0,0-11.65234,9.51822L224,245.33333Z" style="fill:#ffd80c"/><path d="M298.66667,256a21.33334,21.33334,0,0,1-15.08334-36.41667l64-64A21.33106,21.33106,0,0,1,377.75,185.75l-64,64A21.2642,21.2642,0,0,1,298.66667,256Z" style="fill:#ffec6c"/><circle cx="362.66667" cy="362.66667" r="128" style="fill:#ffec6c"/><circle cx="362.66667" cy="362.66667" r="85.33333" style="fill:#ffff9d"/><path d="M272.157,453.17633A128,128,0,0,1,453.17633,272.157Z" style="fill:#c175ff"/><path d="M298.66667,426.66667A21.33334,21.33334,0,0,1,283.58333,390.25L390.25,283.58333A21.33106,21.33106,0,1,1,420.41667,313.75L313.75,420.41667A21.26424,21.26424,0,0,1,298.66667,426.66667Z" style="fill:#bc5cf3"/><path d="M277.33333,384A21.32772,21.32772,0,0,1,256,362.66667,106.79223,106.79223,0,0,1,362.66667,256a21.33333,21.33333,0,0,1,0,42.66667,64.07,64.07,0,0,0-64,64A21.32772,21.32772,0,0,1,277.33333,384Z" style="fill:#d7a5ff"/><path d="M213.33333,298.66662A42.66662,42.66662,0,0,0,170.66671,256h-.00019A149.33319,149.33319,0,0,0,21.33333,405.33319v.00019A42.66662,42.66662,0,0,0,64,448h.00019A149.33319,149.33319,0,0,0,213.33333,298.66681v-.00019Z" style="fill:#14a142"/><ellipse cx="64" cy="341.33333" rx="27.23522" ry="12.96305" transform="translate(-222.61395 145.22905) rotate(-45)" style="fill:#4cc66e"/><path d="M64,448a21.33334,21.33334,0,0,1,0-42.66667A106.79223,106.79223,0,0,0,170.66667,298.66667a21.33333,21.33333,0,1,1,42.66666,0C213.33333,381.01042,146.33333,448,64,448Z" style="fill:#008732"/><path d="M220.875,248.45833a10.66279,10.66279,0,0,0-15.08333,0l-31.987,31.987-.026.026L134.25,320H96a10.66667,10.66667,0,1,0,0,21.33333h16.91667L88.47135,365.77865l-.026.026L45.79167,408.45833A10.66553,10.66553,0,1,0,60.875,423.54167l24.45833-24.45834V416a10.66667,10.66667,0,0,0,21.33334,0V377.75l39.52864-39.52865.026-.026L170.66667,313.75v16.91667a10.66667,10.66667,0,0,0,21.33333,0v-38.25l28.875-28.875A10.66278,10.66278,0,0,0,220.875,248.45833Z" style="fill:#66ce83"/></g></svg>