<svg xmlns="http://www.w3.org/2000/svg" viewBox="0 0 512 512"><title>Artboard 147</title><g id="Wheat"><path d="M32,490.66667a10.66667,10.66667,0,0,1-7.54167-18.20834l448-448a10.66553,10.66553,0,1,1,15.08334,15.08334l-448,448A10.63213,10.63213,0,0,1,32,490.66667Z" style="fill:#ffbe00"/><path d="M341.33333,181.33333a10.66667,10.66667,0,0,1-7.54166-18.20833L355.125,141.79167A10.66552,10.66552,0,0,1,370.20833,156.875L348.875,178.20833A10.63207,10.63207,0,0,1,341.33333,181.33333Z" style="fill:#ffa300"/><path d="M256,266.66667a10.66667,10.66667,0,0,1-7.54167-18.20834L291.125,205.79167A10.66552,10.66552,0,0,1,306.20833,220.875l-42.66666,42.66667A10.63213,10.63213,0,0,1,256,266.66667Z" style="fill:#ffa300"/><path d="M170.66667,352a10.66667,10.66667,0,0,1-7.54167-18.20833L205.79167,291.125A10.66552,10.66552,0,1,1,220.875,306.20833L178.20833,348.875A10.63211,10.63211,0,0,1,170.66667,352Z" style="fill:#ffa300"/><path d="M85.33333,437.33333A10.66667,10.66667,0,0,1,77.79167,419.125l42.66666-42.66667a10.66553,10.66553,0,0,1,15.08334,15.08334L92.875,434.20833A10.63207,10.63207,0,0,1,85.33333,437.33333Z" style="fill:#ffa300"/><ellipse cx="394.66667" cy="117.33333" rx="62.75049" ry="41.83366" transform="translate(32.62799 313.43761) rotate(-45)" style="fill:#ffbe00"/><ellipse cx="394.66667" cy="96" rx="36.12119" ry="27.25854" transform="translate(47.71294 307.18923) rotate(-45)" style="fill:#ffd80c"/><ellipse cx="384" cy="85.33333" rx="26.62631" ry="14.17397" transform="translate(52.13122 296.52256) rotate(-45)" style="fill:#ffec6c"/><ellipse cx="192" cy="416" rx="85.33333" ry="53.33333" style="fill:#ffbe00"/><ellipse cx="96" cy="320" rx="53.33333" ry="85.33333" style="fill:#ffbe00"/><ellipse cx="170.66667" cy="405.33333" rx="64" ry="42.66667" style="fill:#ffd80c"/><ellipse cx="192" cy="245.33333" rx="42.66667" ry="74.66667" style="fill:#ffbe00"/><ellipse cx="266.66667" cy="320" rx="74.66667" ry="42.66667" style="fill:#ffbe00"/><ellipse cx="245.33333" cy="309.33333" rx="53.33333" ry="32" style="fill:#ffd80c"/><ellipse cx="341.33333" cy="234.66667" rx="64" ry="42.66667" style="fill:#ffbe00"/><ellipse cx="330.66667" cy="224" rx="53.33333" ry="32" style="fill:#ffd80c"/><ellipse cx="85.33333" cy="309.33333" rx="42.66667" ry="74.66667" style="fill:#ffd80c"/><ellipse cx="64" cy="298.66667" rx="21.33333" ry="42.66667" style="fill:#ffec6c"/><ellipse cx="277.33333" cy="170.66667" rx="42.66667" ry="64" style="fill:#ffbe00"/><ellipse cx="181.33333" cy="234.66667" rx="32" ry="64" style="fill:#ffd80c"/><ellipse cx="266.66667" cy="160" rx="32" ry="53.33333" style="fill:#ffd80c"/><path d="M266.66667,128a10.66667,10.66667,0,0,1-7.54167-18.20833L301.79167,67.125A10.66552,10.66552,0,1,1,316.875,82.20833L274.20833,124.875A10.63211,10.63211,0,0,1,266.66667,128Z" style="fill:#ffea21"/><path d="M394.66667,256a10.66667,10.66667,0,0,1-7.54167-18.20833L429.79167,195.125A10.66552,10.66552,0,1,1,444.875,210.20833L402.20833,252.875A10.63211,10.63211,0,0,1,394.66667,256Z" style="fill:#ffbe00"/><path d="M181.33333,192a10.66667,10.66667,0,0,1-7.54166-18.20833L216.45833,131.125a10.66553,10.66553,0,1,1,15.08334,15.08333L188.875,188.875A10.63211,10.63211,0,0,1,181.33333,192Z" style="fill:#ffea21"/><path d="M330.66667,341.33333A10.66667,10.66667,0,0,1,323.125,323.125l42.66667-42.66667A10.66553,10.66553,0,1,1,380.875,295.54167l-42.66667,42.66666A10.63207,10.63207,0,0,1,330.66667,341.33333Z" style="fill:#ffbe00"/><path d="M74.66667,256A10.66667,10.66667,0,0,1,67.125,237.79167L109.79167,195.125A10.66552,10.66552,0,1,1,124.875,210.20833L82.20833,252.875A10.63211,10.63211,0,0,1,74.66667,256Z" style="fill:#ffea21"/><path d="M266.66667,448a10.66667,10.66667,0,0,1-7.54167-18.20833L301.79167,387.125A10.66552,10.66552,0,1,1,316.875,402.20833L274.20833,444.875A10.63211,10.63211,0,0,1,266.66667,448Z" style="fill:#ffbe00"/><ellipse cx="245.33333" cy="298.66667" rx="32" ry="21.33333" style="fill:#ffec6c"/><ellipse cx="181.33333" cy="384" rx="32" ry="21.33333" style="fill:#ffec6c"/><ellipse cx="330.66667" cy="213.33333" rx="32" ry="21.33333" style="fill:#ffec6c"/><ellipse cx="170.66667" cy="224" rx="21.33333" ry="32" style="fill:#ffec6c"/><ellipse cx="245.33333" cy="149.33333" rx="10.66667" ry="21.33333" style="fill:#ffec6c"/></g></svg>