<svg xmlns="http://www.w3.org/2000/svg" viewBox="0 0 512 512"><title>Artboard 111</title><g id="Pie_Chart" data-name="Pie Chart"><circle cx="256.00003" cy="256" r="213.33331" style="fill:#bc5cf3"/><path d="M106.67708,360.04167A21.3077,21.3077,0,0,1,88,349.05208a192.87712,192.87712,0,0,1,1.6875-189.07291,21.333,21.333,0,0,1,36.9375,21.35416,150.00809,150.00809,0,0,0-1.3125,147.03125,21.3343,21.3343,0,0,1-18.63542,31.67709Z" style="fill:#c175ff"/><path d="M256,256,105.14583,406.85417c83.3125,83.30208,218.39584,83.30208,301.70834,0A212.67575,212.67575,0,0,0,469.33333,256Z" style="fill:#d6deff"/><path d="M256,256H469.334a212.66767,212.66767,0,0,0-62.48453-150.84943Z" style="fill:#4cc66e"/><path d="M421.3125,234.66667A21.3368,21.3368,0,0,1,400.65625,218.625a147.47558,147.47558,0,0,0-15.9375-38.48958,21.32873,21.32873,0,0,1,36.70833-21.72917,189.63924,189.63924,0,0,1,20.5625,49.63542,21.33325,21.33325,0,0,1-20.67708,26.625Z" style="fill:#84d89c"/><path d="M105.1506,105.15057,256,256,406.84946,105.15057C323.5376,21.8387,188.46247,21.8387,105.1506,105.15057Z" style="fill:#ffc200"/><path d="M256,256,90.06087,421.9391c91.64348,91.632,240.23471,91.632,331.87819,0A233.94264,233.94264,0,0,0,490.66594,256Z" style="fill:#d6deff"/><path d="M256,490.66667c-54.9375,0-106.3125-18.32292-148.5625-52.97917A21.33076,21.33076,0,0,1,134.5,404.70833a192.08275,192.08275,0,0,0,257.27083-12.9375A189.45825,189.45825,0,0,0,447.0625,275.23958a21.33216,21.33216,0,0,1,42.45833,4.1875c-5.375,54.39584-28.73958,103.67709-67.58333,142.51042A233.12422,233.12422,0,0,1,256,490.66667Z" style="fill:#bcc5ff"/><path d="M90.06611,90.06611,256,256,421.93389,90.06611C330.2911-1.57667,181.7089-1.57667,90.06611,90.06611Z" style="fill:#ffc200"/><path d="M358.22917,114.73958a21.22229,21.22229,0,0,1-11.36459-3.29166c-54.125-34.16667-127.60416-34.16667-181.72916,0a21.33377,21.33377,0,1,1-22.77084-36.08334c67.79167-42.79166,159.47917-42.79166,227.27084,0a21.33344,21.33344,0,0,1-11.40625,39.375Z" style="fill:#ffd80c"/><circle cx="352" cy="352" r="10.66667" style="fill:#163969"/><circle cx="394.66667" cy="394.66667" r="10.66667" style="fill:#163969"/><path d="M352,405.33333a10.66667,10.66667,0,0,1-7.54167-18.20833L387.125,344.45833a10.66553,10.66553,0,0,1,15.08333,15.08334l-42.66666,42.66666A10.63209,10.63209,0,0,1,352,405.33333Z" style="fill:#163969"/><path d="M309.33333,362.66667h-64a10.66667,10.66667,0,0,1,0-21.33334h64a10.66667,10.66667,0,0,1,0,21.33334Z" style="fill:#163969"/><path d="M309.33333,405.33333H288A10.66666,10.66666,0,1,1,288,384h21.33333a10.66667,10.66667,0,1,1,0,21.33333Z" style="fill:#163969"/><path d="M266.66667,106.66667H245.33333a10.66667,10.66667,0,0,1,0-21.33334h21.33334a10.66667,10.66667,0,0,1,0,21.33334Z" style="fill:#163969"/><path d="M266.66667,149.33333H245.33333a10.66667,10.66667,0,0,1,0-21.33333h21.33334a10.66666,10.66666,0,0,1,0,21.33333Z" style="fill:#163969"/><path d="M138.66667,192H117.33333a10.66667,10.66667,0,0,1,0-21.33333h21.33334a10.66667,10.66667,0,0,1,0,21.33333Z" style="fill:#163969"/><path d="M138.66667,234.66667H117.33333a10.66667,10.66667,0,0,1,0-21.33334h21.33334a10.66667,10.66667,0,0,1,0,21.33334Z" style="fill:#163969"/><path d="M394.66667,192H373.33333a10.66666,10.66666,0,0,1,0-21.33333h21.33334a10.66666,10.66666,0,0,1,0,21.33333Z" style="fill:#163969"/><path d="M394.66667,234.66667H373.33333a10.66667,10.66667,0,0,1,0-21.33334h21.33334a10.66667,10.66667,0,0,1,0,21.33334Z" style="fill:#163969"/></g></svg>