<svg xmlns="http://www.w3.org/2000/svg" viewBox="0 0 512 512"><title>Artboard 137</title><g id="Apple"><path d="M245.33333,149.33333a10.66053,10.66053,0,0,1-10.66666-10.66666c0-2.84375.79166-70.22917,68.75-115.54167A10.66642,10.66642,0,0,1,315.25,40.875C256.6875,79.92708,256,138.08333,256,138.66667A10.66053,10.66053,0,0,1,245.33333,149.33333Z" style="fill:#ffa300"/><path d="M245.33333,149.3125c-5.4375-.08333-10.66666-4.75-10.66666-10.64583,0-.61459.08333-15.32292,6.66651-35.33334A10.65966,10.65966,0,1,1,261.58333,110C256.14583,126.54167,256,138.58333,256,138.70833A10.68767,10.68767,0,0,1,245.33333,149.3125Z" style="fill:#f98b00"/><path d="M362.66667,106.66667c-64,0-64,21.33333-106.66667,21.33333s-42.66667-21.33333-106.66667-21.33333-128,42.66666-128,128,64,101.41276,64,149.33333c0,42.66667,21.33334,85.33333,85.33334,85.33333,42.66666,0,42.66666,21.33334,85.33333,21.33334s42.66667-21.33334,85.33333-21.33334S426.66667,426.66667,426.66667,384c0-47.92057,64-64,64-149.33333S426.66667,106.66667,362.66667,106.66667Z" style="fill:#14a142"/><path d="M197.41623,473.10763c55.12423,17.79333,117.2222-9.31576,138.32313-63.26049,3.66235-9.36286,5.5487-18.277,5.59528-26.16615.28255-47.67318,63.99869-63.87109,63.99869-149.01432,0-29.38282-7.59375-53.6875-20.16406-72.931-22.47656-34.40886-65.99219-46.556-105.82552-36.43229-.27344.069-.61589.099-.89323.16666a82.75757,82.75757,0,0,1-9.14323,1.70443c-.46224.0599-.97656.09375-1.45052.14713A104.16527,104.16527,0,0,1,256,128c-42.66667,0-42.66667-21.33333-106.66667-21.33333s-128,42.66666-128,128,64,101.41276,64,149.33333c0,42.66667,21.33334,85.33333,85.33334,85.33333C182.09939,469.33333,190.46866,470.86506,197.41623,473.10763Z" style="fill:#4cc66e"/><ellipse cx="117.33333" cy="202.66667" rx="86.45793" ry="60.60814" transform="translate(-108.94084 142.32689) rotate(-45)" style="fill:#84d89c"/><ellipse cx="96" cy="181.33333" rx="38.73501" ry="23.38784" transform="translate(-100.10428 120.99355) rotate(-45)" style="fill:#b7e8c4"/><ellipse cx="138.66667" cy="416" rx="22.87035" ry="39.04213" transform="translate(-253.54189 219.89572) rotate(-45)" style="fill:#84d89c"/></g></svg>