<svg xmlns="http://www.w3.org/2000/svg" viewBox="0 0 512 512"><title>Artboard 152</title><g id="Brain"><path d="M467.11149,183.74986c-12.37182-82.5571-79.65283-149.06-162.34255-160.512A192.03119,192.03119,0,0,0,86.67969,191.3724c-27.00518,19.723-44.59213,51.58963-43.99822,87.735C43.0569,301.95641,62.4812,320,85.33333,320h21.33594l-.0026,85.332A42.66667,42.66667,0,0,0,149.33333,448h64v0A42.66663,42.66663,0,0,0,256,490.66667H384A42.66663,42.66663,0,0,0,426.66667,448V333.888C458.97234,293.92075,475.66222,240.80888,467.11149,183.74986Z" style="fill:#ffd80c"/><circle cx="128" cy="213.33333" r="21.33333" style="fill:#079cff"/><rect x="106.66667" y="341.33333" width="64" height="42.66667" rx="21.33331" ry="21.33331" style="fill:#ffc200"/><circle cx="170.66667" cy="277.33333" r="42.66667" style="fill:#ffec6c"/><ellipse cx="181.33333" cy="117.33333" rx="67.44715" ry="33.72357" transform="translate(-29.85589 162.58817) rotate(-45)" style="fill:#ffec6c"/><rect x="362.66667" y="362.66667" width="64" height="128" rx="31.99997" ry="31.99997" style="fill:#ffec6c"/><path d="M462.4974,170.388H426.77214L467.1849,64a31.52133,31.52133,0,0,0-47.69922-37.07422L289.13021,119.57422a28.16955,28.16955,0,0,0,16.37239,51.09245h35.72526l-40.41276,106.388a31.52133,31.52133,0,0,0,47.69922,37.07422l130.35547-92.64844A28.16955,28.16955,0,0,0,462.4974,170.388Z" style="fill:#c175ff"/><path d="M372.15625,170.66667H305.5A21.33333,21.33333,0,0,1,305.5,128h66.65625a21.33334,21.33334,0,0,1,0,42.66667Z" style="fill:#b244f1"/><path d="M336.17708,318.0625a21.3379,21.3379,0,0,1-12.375-38.72917l117.72917-83.66666A21.3428,21.3428,0,0,1,462.5,170.39583a28.15715,28.15715,0,0,1,16.38542,51.0625L348.51042,314.125A21.20225,21.20225,0,0,1,336.17708,318.0625Zm126.32292-105h0Z" style="fill:#b244f1"/></g></svg>