<svg xmlns="http://www.w3.org/2000/svg" viewBox="0 0 512 512"><title>Artboard 159</title><g id="Cloning"><path d="M192,277.33333c-42.66667,0-99.362,9.44923-99.362,9.44923a85.33335,85.33335,0,0,0-71.30462,84.17228V384A42.66667,42.66667,0,0,0,64,426.66667H320A42.66667,42.66667,0,0,0,362.66667,384V370.95484a85.33335,85.33335,0,0,0-71.30462-84.17228S234.66667,277.33333,192,277.33333Z" style="fill:#ffbe00"/><rect x="149.33333" y="192" width="85.33334" height="128" rx="42.66662" ry="42.66662" style="fill:#ffa300"/><path d="M117.3333,149.33333H128a0,0,0,0,1,0,0v64a0,0,0,0,1,0,0H117.3333a32,32,0,0,1-32-32v-.00006A32,32,0,0,1,117.3333,149.33333Z" style="fill:#ffbe00"/><path d="M288,149.33333h10.6667a0,0,0,0,1,0,0v64a0,0,0,0,1,0,0H288a32,32,0,0,1-32-32v-.00006A32,32,0,0,1,288,149.33333Z" transform="translate(554.66667 362.66667) rotate(180)" style="fill:#ffa300"/><rect x="106.66667" y="42.66667" width="170.66667" height="234.66658" rx="85.33325" ry="85.33325" style="fill:#ffc200"/><path d="M234.66667,54.5013V128H213.33333A21.33272,21.33272,0,0,0,192,149.33333v85.33334c21.33333,0,21.33333,21.33333,21.33333,21.33333s0,21.33333-21.33333,21.33333A85.33338,85.33338,0,0,0,277.33333,192V128C277.33333,96.49479,260.06641,69.28385,234.66667,54.5013Z" style="fill:#ffbe00"/><circle cx="224" cy="160" r="10.66667" style="fill:#0784ff"/><circle cx="160" cy="160" r="10.66667" style="fill:#0784ff"/><rect x="170.66667" y="213.33333" width="42.66667" height="21.33333" rx="10.66666" ry="10.66666" style="fill:#ffa300"/><circle cx="117.33333" cy="394.66667" r="10.66667" style="fill:#f98b00"/><circle cx="266.66667" cy="394.66667" r="10.66667" style="fill:#ffa300"/><path d="M192,128s0-21.33333,21.33333-21.33333S234.66667,128,234.66667,128c0,21.33333,21.33333,21.33333,21.33333,21.33333s21.33333,0,21.33333,21.33334S298.66667,192,298.66667,192,320,192,320,170.66667h0s21.33333,0,21.33333-21.33334c0,0-21.33333,0-21.33333-21.33333,0-42.66667-42.66667-106.66667-128-106.66667-64,0-128,42.66667-128,128,0,21.33334,21.33331,21.33334,21.33331,21.33334h21.33336S128,170.66667,128,149.33333,149.33333,128,149.33333,128s0,21.33333,21.33334,21.33333C170.66667,149.33333,170.66667,128,192,128Z" style="fill:#f98b00"/><ellipse cx="138.66667" cy="74.66667" rx="37.6503" ry="25.1002" transform="translate(-12.18278 119.9215) rotate(-45)" style="fill:#ffa300"/><path d="M320,320c-42.66667,0-99.36205,9.44923-99.36205,9.44923a85.33334,85.33334,0,0,0-71.30462,84.17228v13.04516A42.66666,42.66666,0,0,0,192,469.33333H448a42.66666,42.66666,0,0,0,42.66667-42.66666V413.62151a85.33334,85.33334,0,0,0-71.30462-84.17228S362.66667,320,320,320Z" style="fill:#ffd80c"/><ellipse cx="202.66667" cy="373.33333" rx="38.73907" ry="23.3811" transform="translate(-204.62684 252.65378) rotate(-45)" style="fill:#ffec6c"/><rect x="277.33333" y="234.66667" width="85.33334" height="128" rx="42.66662" ry="42.66662" style="fill:#ffc200"/><path d="M245.3333,192H256a0,0,0,0,1,0,0v64a0,0,0,0,1,0,0H245.3333a32,32,0,0,1-32-32V224a32,32,0,0,1,32-32Z" style="fill:#ffd80c"/><path d="M416,192h10.6667a0,0,0,0,1,0,0v64a0,0,0,0,1,0,0H416a32,32,0,0,1-32-32V224A32,32,0,0,1,416,192Z" transform="translate(810.66667 448) rotate(-180)" style="fill:#ffc200"/><rect x="234.66667" y="85.33333" width="170.66667" height="234.66658" rx="85.33325" ry="85.33325" style="fill:#ffec6c"/><path d="M362.66667,97.168v73.4987H341.33333A21.33272,21.33272,0,0,0,320,192v85.33333c21.33333,0,21.33333,21.33334,21.33333,21.33334S341.33333,320,320,320a85.33338,85.33338,0,0,0,85.33333-85.33333v-64C405.33333,139.16146,388.06641,111.95052,362.66667,97.168Z" style="fill:#ffd80c"/><circle cx="352" cy="202.66667" r="10.66667" style="fill:#0784ff"/><circle cx="288" cy="202.66667" r="10.66667" style="fill:#0784ff"/><rect x="298.66667" y="256" width="42.66667" height="21.33333" rx="10.66666" ry="10.66666" style="fill:#ffc200"/><circle cx="245.33333" cy="437.33333" r="10.66667" style="fill:#ffa300"/><circle cx="394.66667" cy="437.33333" r="10.66667" style="fill:#ffa300"/><path d="M320,170.66667s0-21.33334,21.33333-21.33334,21.33334,21.33334,21.33334,21.33334C362.66667,192,384,192,384,192s21.33333,0,21.33333,21.33333,21.33334,21.33334,21.33334,21.33334S448,234.66667,448,213.33333h0s21.33333,0,21.33333-21.33333c0,0-21.33333,0-21.33333-21.33333C448,128,405.33333,64,320,64c-64,0-128,42.66667-128,128,0,21.33333,21.33331,21.33333,21.33331,21.33333h21.33336S256,213.33333,256,192s21.33333-21.33333,21.33333-21.33333S277.33333,192,298.66667,192C298.66667,192,298.66667,170.66667,320,170.66667Z" style="fill:#ffa300"/><ellipse cx="266.66667" cy="117.33333" rx="37.6503" ry="25.1002" transform="translate(-4.86234 222.92795) rotate(-45)" style="fill:#ffbe00"/><path d="M234.66667,448a21.33334,21.33334,0,0,1-15.08334-36.41667l51.5-51.5a63.606,63.606,0,0,1,45.25-18.75H409a21.47914,21.47914,0,0,0,15.08333-6.25L454.25,304.91667a21.33105,21.33105,0,1,1,30.16667,30.16666L454.25,365.25A63.60593,63.60593,0,0,1,409,384H316.33333A21.47917,21.47917,0,0,0,301.25,390.25l-51.5,51.5A21.2642,21.2642,0,0,1,234.66667,448Z" style="fill:#14a142"/><path d="M277.875,468.79167a21.26422,21.26422,0,0,1-15.08333-6.25l-21.33334-21.33334A21.33105,21.33105,0,1,1,271.625,411.04167L292.95833,432.375A21.33334,21.33334,0,0,1,277.875,468.79167Z" style="fill:#006236"/><path d="M341.875,447.45833a21.26418,21.26418,0,0,1-15.08333-6.25L284.125,398.54167A21.33106,21.33106,0,0,1,314.29167,368.375l42.66666,42.66667A21.33333,21.33333,0,0,1,341.875,447.45833Z" style="fill:#006236"/><path d="M427.20833,362.125a21.2642,21.2642,0,0,1-15.08333-6.25l-42.66667-42.66667A21.33105,21.33105,0,1,1,399.625,283.04167l42.66667,42.66666A21.33334,21.33334,0,0,1,427.20833,362.125Z" style="fill:#006236"/><path d="M448.54167,298.125a21.2642,21.2642,0,0,1-15.08334-6.25L412.125,270.54167A21.33106,21.33106,0,0,1,442.29167,240.375L463.625,261.70833A21.33334,21.33334,0,0,1,448.54167,298.125Z" style="fill:#006236"/><path d="M320,490.66667A21.33334,21.33334,0,0,1,304.91667,454.25l30.16666-30.16667A21.47914,21.47914,0,0,0,341.33333,409V316.33333a63.60512,63.60512,0,0,1,18.75-45.25l51.5-51.5A21.33106,21.33106,0,0,1,441.75,249.75l-51.5,51.5A21.47917,21.47917,0,0,0,384,316.33333V409a63.60676,63.60676,0,0,1-18.75,45.25l-30.16667,30.16667A21.26422,21.26422,0,0,1,320,490.66667Z" style="fill:#4cc66e"/><ellipse cx="74.66667" cy="330.66667" rx="38.73907" ry="23.3811" transform="translate(-211.94728 149.64733) rotate(-45)" style="fill:#ffd80c"/></g></svg>