<svg xmlns="http://www.w3.org/2000/svg" viewBox="0 0 512 512"><title>Artboard 141</title><g id="Magnet"><path d="M69.93434,442.06542l.00024.00024a165.93423,165.93423,0,0,0,234.66643,0L478.16989,268.49678a42.66667,42.66667,0,0,0,0-60.33978L431.843,161.83011a42.66667,42.66667,0,0,0-60.33978,0l-175.08495,175.085a15.08493,15.08493,0,0,1-21.33331,0l0,0a15.08493,15.08493,0,0,1,0-21.33331l175.085-175.08495a42.66667,42.66667,0,0,0,0-60.33978L303.843,33.83011a42.66667,42.66667,0,0,0-60.33978,0L69.93434,207.399A165.93423,165.93423,0,0,0,69.93434,442.06542Z" style="fill:#163969"/><path d="M309.33333,224,196.418,336.91536a15.08568,15.08568,0,0,1-21.33333,0v-.0013a15.08411,15.08411,0,0,1,0-21.332L288,202.66667,181.33333,96,69.9349,207.39844A165.93439,165.93439,0,0,0,304.60156,442.0651L416,330.66667Z" style="fill:#ffbe00"/><path d="M160,321.83333a21.33333,21.33333,0,0,1-15.08333-36.41666l96-96a21.331,21.331,0,0,1,30.16666,30.16666l-96,96A21.26418,21.26418,0,0,1,160,321.83333Z" style="fill:#f98b00"/><path d="M289.83333,192A21.33334,21.33334,0,0,1,274.75,155.58333l45.25-45.25A21.33106,21.33106,0,1,1,350.16667,140.5l-45.25,45.25A21.2642,21.2642,0,0,1,289.83333,192Z" style="fill:#002755"/><path d="M256.01042,128a21.33333,21.33333,0,0,1-15.09375-36.41667L262.23958,70.25a21.33842,21.33842,0,1,1,30.1875,30.16667L271.10417,121.75A21.28792,21.28792,0,0,1,256.01042,128Z" style="fill:#33527d"/><path d="M384,256a21.33334,21.33334,0,0,1-15.08333-36.41667L390.25,198.25a21.33106,21.33106,0,1,1,30.16667,30.16667L399.08333,249.75A21.26418,21.26418,0,0,1,384,256Z" style="fill:#33527d"/><path d="M187.27083,490.66667A164.84373,164.84373,0,0,1,69.9375,442.0625a21.33106,21.33106,0,1,1,30.16667-30.16667,123.27577,123.27577,0,0,0,174.33333,0L360.08333,326.25A21.33106,21.33106,0,0,1,390.25,356.41667L304.60417,442.0625A164.84373,164.84373,0,0,1,187.27083,490.66667Z" style="fill:#f98b00"/><path d="M417.83333,320A21.33334,21.33334,0,0,1,402.75,283.58333l45.25-45.25a21.33473,21.33473,0,1,1,30.17708-30.16666,42.73306,42.73306,0,0,1,0,60.32291L432.91667,313.75A21.2642,21.2642,0,0,1,417.83333,320Z" style="fill:#002755"/><path d="M73.1875,362.66667a21.33085,21.33085,0,0,1-20.97917-17.58334,142.1865,142.1865,0,0,1,39.375-125.5L176.91667,134.25a21.33105,21.33105,0,0,1,30.16666,30.16667L121.75,249.75a99.52248,99.52248,0,0,0-27.54167,87.83333A21.3382,21.3382,0,0,1,73.1875,362.66667Z" style="fill:#ffec6c"/><path d="M256,362.66667A21.33334,21.33334,0,0,1,240.91667,326.25l64-64a21.33105,21.33105,0,0,1,30.16666,30.16667l-64,64A21.26422,21.26422,0,0,1,256,362.66667Z" style="fill:#ffec6c"/></g></svg>