<svg xmlns="http://www.w3.org/2000/svg" viewBox="0 0 512 512"><title>Artboard 109</title><g id="Test_Tube" data-name="Test Tube"><path d="M426.66669,21.33333h-128a21.33332,21.33332,0,0,0-21.33332,21.33332v0A21.33331,21.33331,0,0,0,298.66665,64l0,362.66673a63.99993,63.99993,0,0,0,63.99993,63.99994h.00013a63.99994,63.99994,0,0,0,63.99994-63.99994l0-362.66673A21.33331,21.33331,0,0,0,448,42.66669v0A21.33331,21.33331,0,0,0,426.66669,21.33333Z" style="fill:#bcc5ff"/><path d="M277.33333,42.66667A21.33355,21.33355,0,0,0,298.66667,64V426.66667a64.10171,64.10171,0,0,0,.525,8.20582c6.03852,46.8,78.24472,46.8,84.28324,0A64.09989,64.09989,0,0,0,384,426.66667V64a21.33333,21.33333,0,0,0,0-42.66667H298.66667A21.33272,21.33272,0,0,0,277.33333,42.66667Z" style="fill:#d6deff"/><path d="M298.66667,426.66667a64,64,0,0,0,128,0v-192h-128Z" style="fill:#ffa300"/><path d="M299.19171,434.87249c6.03852,46.8,78.24472,46.8,84.28324,0A64.09989,64.09989,0,0,0,384,426.66667v-192H298.66667v192A64.10171,64.10171,0,0,0,299.19171,434.87249Z" style="fill:#ffc200"/><rect x="298.66667" y="21.33333" width="64" height="42.66667" rx="21.33331" ry="21.33331" style="fill:#eff2ff"/><rect x="320" y="85.33333" width="42.66667" height="128" rx="21.33331" ry="21.33331" style="fill:#eff2ff"/><rect x="320" y="256" width="42.66667" height="128" rx="21.33331" ry="21.33331" style="fill:#ffff9d"/><path d="M213.33335,21.33333h-128A21.33331,21.33331,0,0,0,64,42.66665v0A21.33331,21.33331,0,0,0,85.33331,64l0,362.66673a63.99994,63.99994,0,0,0,63.99994,63.99994h.00013a63.99993,63.99993,0,0,0,63.99993-63.99994l0-362.66673a21.33331,21.33331,0,0,0,21.33332-21.33331v0A21.33332,21.33332,0,0,0,213.33335,21.33333Z" style="fill:#bcc5ff"/><path d="M64,42.66667A21.33355,21.33355,0,0,0,85.33333,64V426.66667a64.09989,64.09989,0,0,0,.525,8.20582c6.03852,46.8,78.24472,46.8,84.28324,0a64.09989,64.09989,0,0,0,.52505-8.20582V64a21.33334,21.33334,0,0,0,0-42.66667H85.33333A21.33272,21.33272,0,0,0,64,42.66667Z" style="fill:#d6deff"/><rect x="85.33333" y="21.33333" width="64" height="42.66667" rx="21.33331" ry="21.33331" style="fill:#eff2ff"/><path d="M85.33333,426.66667a64,64,0,0,0,128,0v-192h-128Z" style="fill:#14a142"/><path d="M85.85838,434.87249c6.03852,46.8,78.24472,46.8,84.28324,0a64.09989,64.09989,0,0,0,.52505-8.20582v-192H85.33333v192A64.09989,64.09989,0,0,0,85.85838,434.87249Z" style="fill:#4cc66e"/><rect x="106.66667" y="85.33333" width="42.66667" height="128" rx="21.33331" ry="21.33331" style="fill:#eff2ff"/><rect x="106.66667" y="256" width="42.66667" height="128" rx="21.33331" ry="21.33331" style="fill:#b7e8c4"/></g></svg>