<svg xmlns="http://www.w3.org/2000/svg" viewBox="0 0 512 512"><title>Artboard 128</title><g id="Mortarboard"><path d="M42.66667,405.33333V308.10689a30.77286,30.77286,0,0,1,9.01317-21.75971l0,0a30.77288,30.77288,0,0,1,29.22324-8.09437L234.66667,320h42.66666L431.0969,278.25279a30.77288,30.77288,0,0,1,29.22324,8.09437l0,0a30.77286,30.77286,0,0,1,9.01317,21.75971v97.22644Z" style="fill:#a8b4ff"/><path d="M357.17934,245.39493l-60.03852,24.01541A110.775,110.775,0,0,1,256,277.33333h0a110.775,110.775,0,0,1-41.1408-7.923l-60.03852-24.01541A42.66667,42.66667,0,0,1,128,205.77993V85.33333H384v120.4466A42.66667,42.66667,0,0,1,357.17934,245.39493Z" style="fill:#005eee"/><path d="M298.66667,85.33333H128V205.78a42.66625,42.66625,0,0,0,26.8204,39.61462l60.039,24.01559A110.76554,110.76554,0,0,0,256,277.33333q.21138,0,.42707-.00254c23.762-.27926,42.2396-21.17312,42.2396-44.93681Z" style="fill:#0784ff"/><path d="M21.33323,106.33813A35.11613,35.11613,0,0,1,40.93049,74.86942C77.43208,56.72257,160.81783,21.33333,256,21.33333s178.56774,35.38916,215.06939,53.536a35.11615,35.11615,0,0,1,19.59726,31.46892v0a35.04936,35.04936,0,0,1-19.37481,31.34908l-174.8774,87.43871A90.36933,90.36933,0,0,1,256,234.66667h0a90.36937,90.36937,0,0,1-40.41439-9.54054L40.70805,137.68746a35.04936,35.04936,0,0,1-19.37482-31.34929Z" style="fill:#5cbeff"/><path d="M128,110.36458a21.33885,21.33885,0,0,1-7.1875-41.42708C154.29167,56.94792,204.91667,42.66667,256,42.66667a21.33333,21.33333,0,0,1,0,42.66666c-44.95833,0-90.52083,12.92709-120.8125,23.77084A21.16233,21.16233,0,0,1,128,110.36458Z" style="fill:#94d4ff"/><path d="M256,234.66667a90.84751,90.84751,0,0,1-40.41667-9.54167l-174.875-87.4375A35.04982,35.04982,0,0,1,40.9375,74.875a21.32071,21.32071,0,0,1,28.20833,29.33333l165.52084,82.75a48.41834,48.41834,0,0,0,42.66666,0l165.52084-82.75A21.32071,21.32071,0,0,1,471.0625,74.875a35.04146,35.04146,0,0,1,.1875,62.82292L296.41667,225.125A90.84751,90.84751,0,0,1,256,234.66667ZM452.0625,113.0625h0Z" style="fill:#079cff"/><circle cx="256" cy="85.33333" r="21.33333" style="fill:#079cff"/><path d="M480,277.33333H373.33333A53.38942,53.38942,0,0,1,320,224v-9.51042a32.0754,32.0754,0,0,0-4.5625-16.46875l-57.91667-96.53125A10.66686,10.66686,0,0,1,275.8125,90.51042l57.91667,96.53125a53.37166,53.37166,0,0,1,7.60416,27.44791V224a32.035,32.035,0,0,0,32,32H480a10.66667,10.66667,0,1,1,0,21.33333Z" style="fill:#ffa300"/><path d="M330.66667,234.66667A10.66054,10.66054,0,0,1,320,224v-9.51042a32.0754,32.0754,0,0,0-4.5625-16.46875,10.66686,10.66686,0,0,1,18.29167-10.97916,53.37166,53.37166,0,0,1,7.60416,27.44791V224A10.66053,10.66053,0,0,1,330.66667,234.66667Z" style="fill:#ffbe00"/><path d="M416,234.66667h53.33337A21.33333,21.33333,0,0,1,490.66667,256v21.33333a21.33333,21.33333,0,0,1-21.33333,21.33333H416a32,32,0,0,1-32-32v-.00006a32,32,0,0,1,32-32Z" style="fill:#ffbe00"/><path d="M469.33333,234.66667H416A31.90832,31.90832,0,0,0,385.95833,256,31.90832,31.90832,0,0,0,416,277.33333h53.33333a21.33333,21.33333,0,1,0,0-42.66666Z" style="fill:#ffd80c"/><rect x="21.33333" y="320" width="469.33333" height="106.66667" rx="21.33333" ry="21.33333" style="fill:#d6deff"/><path d="M469.33333,384H42.66667a21.33334,21.33334,0,0,1-21.33334-21.33333h0a21.33334,21.33334,0,0,1,21.33334-21.33334H469.33333a21.33334,21.33334,0,0,1,21.33334,21.33334h0A21.33334,21.33334,0,0,1,469.33333,384Z" style="fill:#eff2ff"/><rect x="234.66667" y="320" width="42.66667" height="106.66667" style="fill:#ffbe00"/><rect x="234.66667" y="341.33333" width="42.66667" height="85.33333" rx="21.33331" ry="21.33331" style="fill:#ffa300"/><polygon points="277.333 384 213.333 320 213.333 362.667 170.667 362.667 234.667 426.667 277.333 426.667 277.333 384" style="fill:#ffc200"/><polygon points="277.333 384 341.333 448 298.667 448 298.667 490.667 234.667 426.667 277.333 384" style="fill:#ffd80c"/></g></svg>