<svg xmlns="http://www.w3.org/2000/svg" viewBox="0 0 512 512"><title>Artboard 139</title><g id="Stethoscope"><circle cx="213.33333" cy="64" r="42.66667" style="fill:#435e88"/><path d="M277.33333,490.66667C195,490.66667,128,423.67708,128,341.33333v-64a21.33333,21.33333,0,0,1,42.66667,0v64a106.66667,106.66667,0,1,0,213.33333,0v-256a21.33333,21.33333,0,0,1,42.66667,0v256C426.66667,423.67708,359.66667,490.66667,277.33333,490.66667Z" style="fill:#ccd4ff"/><path d="M149.33333,341.33333A21.32772,21.32772,0,0,1,128,320V277.33333a21.33333,21.33333,0,0,1,42.66667,0V320A21.32772,21.32772,0,0,1,149.33333,341.33333Z" style="fill:#a4b1ff"/><path d="M405.33333,170.66667A21.32773,21.32773,0,0,1,384,149.33333V106.66667a21.33334,21.33334,0,1,1,42.66667,0v42.66666A21.32773,21.32773,0,0,1,405.33333,170.66667Z" style="fill:#a4b1ff"/><circle cx="85.33333" cy="64" r="42.66667" style="fill:#435e88"/><circle cx="74.66667" cy="74.66667" r="32" style="fill:#163969"/><circle cx="224" cy="74.66667" r="32" style="fill:#163969"/><circle cx="405.33333" cy="85.33333" r="64" style="fill:#d6deff"/><circle cx="405.33333" cy="85.33333" r="42.66667" style="fill:#163969"/><ellipse cx="394.66667" cy="74.66667" rx="37.6503" ry="25.1002" transform="translate(62.79788 300.94084) rotate(-45)" style="fill:#435e88"/><path d="M149.33333,298.66667A89.858,89.858,0,0,1,68.5,248.69792l-38-75.96875A86.9976,86.9976,0,0,1,46.79167,72.36458l2.16666-2.15625a21.33114,21.33114,0,1,1,30.08334,30.25l-2.125,2.11459a44.30792,44.30792,0,0,0-8.22917,51.10416L106.66667,229.625A47.70251,47.70251,0,0,0,192,229.63542l38-75.98959a44.32378,44.32378,0,0,0-8.29167-51.11458l-2.08333-2.07292a21.33114,21.33114,0,1,1,30.08333-30.25l2.125,2.11459a87.01376,87.01376,0,0,1,16.35417,100.375l-38.02083,76.01041A89.86709,89.86709,0,0,1,149.33333,298.66667Z" style="fill:#bcc5ff"/><path d="M170.66667,298.66667H128A21.33333,21.33333,0,0,1,128,256h42.66667a21.33334,21.33334,0,0,1,0,42.66667Z" style="fill:#a4b1ff"/><path d="M149.33335,320h0a27.3232,27.3232,0,0,1-26.5074-20.69635l-7.67173-30.68693a27.3232,27.3232,0,0,1,26.5074-33.95h15.34351a27.32321,27.32321,0,0,1,26.5074,33.95l-7.67174,30.68693A27.32319,27.32319,0,0,1,149.33335,320Z" style="fill:#0784ff"/><ellipse cx="32" cy="138.66667" rx="10.66667" ry="32" style="fill:#d6deff"/><ellipse cx="266.66667" cy="138.66667" rx="10.66667" ry="32" style="fill:#d6deff"/><circle cx="149.33333" cy="256" r="21.33333" style="fill:#5cbeff"/></g></svg>