<svg xmlns="http://www.w3.org/2000/svg" viewBox="0 0 512 512"><title>Artboard 1</title><g id="Molekul"><circle cx="106.66667" cy="106.66667" r="42.66667" style="fill:#cf94ff"/><path d="M224,234.66667a10.63213,10.63213,0,0,1-7.54167-3.125L109.79167,124.875A10.66552,10.66552,0,0,1,124.875,109.79167L231.54167,216.45833A10.66667,10.66667,0,0,1,224,234.66667Z" style="fill:#eff2ff"/><path d="M224,234.66667a10.63213,10.63213,0,0,1-7.54167-3.125L163.125,178.20833A10.66552,10.66552,0,0,1,178.20833,163.125l53.33334,53.33333A10.66667,10.66667,0,0,1,224,234.66667Z" style="fill:#d6deff"/><circle cx="384" cy="384" r="42.66667" style="fill:#66ce83"/><path d="M373.33333,384a10.63211,10.63211,0,0,1-7.54166-3.125l-85.33334-85.33333a10.66553,10.66553,0,0,1,15.08334-15.08334L380.875,365.79167A10.66667,10.66667,0,0,1,373.33333,384Z" style="fill:#eff2ff"/><path d="M341.33333,352a10.63211,10.63211,0,0,1-7.54166-3.125l-53.33334-53.33333a10.66553,10.66553,0,0,1,15.08334-15.08334L348.875,333.79167A10.66667,10.66667,0,0,1,341.33333,352Z" style="fill:#d6deff"/><circle cx="74.66667" cy="437.33333" r="53.33333" style="fill:#ffa300"/><ellipse cx="64" cy="426.66667" rx="46.06413" ry="38.97217" transform="translate(-282.95373 170.22261) rotate(-45)" style="fill:#ffbe00"/><ellipse cx="106.66667" cy="426.66667" rx="13.48943" ry="26.97886" transform="translate(-270.45695 200.3925) rotate(-45)" style="fill:#ffa300"/><path d="M96,426.66667a10.66667,10.66667,0,0,1-7.54167-18.20834l128-128a10.66553,10.66553,0,0,1,15.08334,15.08334l-128,128A10.63213,10.63213,0,0,1,96,426.66667Z" style="fill:#eff2ff"/><path d="M170.66667,352a10.66667,10.66667,0,0,1-7.54167-18.20833l53.33333-53.33334a10.66553,10.66553,0,0,1,15.08334,15.08334L178.20833,348.875A10.63211,10.63211,0,0,1,170.66667,352Z" style="fill:#d6deff"/><circle cx="256" cy="256" r="106.66667" style="fill:#5cbeff"/><ellipse cx="234.66667" cy="234.66667" rx="91.69527" ry="78.45376" transform="translate(-97.20212 234.66667) rotate(-45)" style="fill:#94d4ff"/><ellipse cx="234.66667" cy="192" rx="45.84764" ry="39.22688" transform="translate(-67.03223 222.16989) rotate(-45)" style="fill:#bce4ff"/><circle cx="437.78659" cy="74.21341" r="53.78659" style="fill:#005eee"/><ellipse cx="426.66667" cy="64" rx="46.06413" ry="38.97217" transform="translate(79.71294 320.44406) rotate(-45)" style="fill:#0784ff"/><ellipse cx="426.66667" cy="42.66667" rx="23.03206" ry="19.48609" transform="translate(94.79788 314.19567) rotate(-45)" style="fill:#5cbeff"/><ellipse cx="64" cy="405.33333" rx="23.03206" ry="19.48609" transform="translate(-267.86878 163.97422) rotate(-45)" style="fill:#ffd80c"/><ellipse cx="426.66667" cy="106.66667" rx="13.48943" ry="26.97886" transform="translate(49.54305 332.94084) rotate(-45)" style="fill:#005eee"/><path d="M288,234.66667a10.66667,10.66667,0,0,1-7.54167-18.20834l128-128a10.66553,10.66553,0,0,1,15.08334,15.08334l-128,128A10.63213,10.63213,0,0,1,288,234.66667Z" style="fill:#eff2ff"/></g></svg>