<svg xmlns="http://www.w3.org/2000/svg" viewBox="0 0 512 512"><title>Artboard 140</title><g id="Observatory"><circle cx="256" cy="298.66667" r="192" style="fill:#5e7599"/><circle cx="256" cy="298.66667" r="170.66667" style="fill:#33527d"/><ellipse cx="224" cy="266.66667" rx="153.86089" ry="121.57541" transform="translate(-122.95373 236.49678) rotate(-45)" style="fill:#163969"/><path d="M283.58172,185.75161l79.08495-79.08494,42.66666,42.66666-79.08494,79.085a21.33334,21.33334,0,0,1-30.16989,0L283.58172,215.9215A21.33334,21.33334,0,0,1,283.58172,185.75161Z" style="fill:#5e7599"/><path d="M280.05729,210.612a21.08373,21.08373,0,0,0,24.85807-3.52734L384,128l-21.33333-21.33333L283.582,185.7513A21.07692,21.07692,0,0,0,280.05729,210.612Z" style="fill:#7d8fac"/><path d="M414.16989,33.83011l-87.9215,87.9215a21.33332,21.33332,0,0,0,0,30.16989l33.83011,33.83011a21.33332,21.33332,0,0,0,30.16989,0l87.9215-87.9215Z" style="fill:#adb9ca"/><path d="M326.2487,151.92057l12.4987,12.4987a21.33655,21.33655,0,0,0,30.168-.0013l87.92058-87.92188L414.16927,33.82943,326.2487,121.7513A21.33106,21.33106,0,0,0,326.2487,151.92057Z" style="fill:#cdd4df"/><circle cx="213.33333" cy="298.66667" r="149.33333" style="fill:#cdd4df"/><ellipse cx="160" cy="224" rx="64.2664" ry="39.46023" transform="translate(-111.529 178.74517) rotate(-45)" style="fill:#e5e8ef"/><rect x="21.33333" y="298.66667" width="469.33333" height="192" rx="42.66667" ry="42.66667" style="fill:#7d8fac"/><rect x="21.33333" y="298.66667" width="384" height="192" rx="42.66667" ry="42.66667" style="fill:#adb9ca"/><rect x="64" y="320" width="85.33333" height="170.66667" rx="42.66662" ry="42.66662" style="fill:#cdd4df"/><rect x="64" y="341.33333" width="64" height="64" rx="21.33333" ry="21.33333" style="fill:#33527d"/><rect x="170.66667" y="341.33333" width="64" height="64" rx="21.33333" ry="21.33333" style="fill:#33527d"/><rect x="277.33333" y="341.33333" width="64" height="64" rx="21.33333" ry="21.33333" style="fill:#33527d"/><rect x="384" y="341.33333" width="64" height="64" rx="21.33333" ry="21.33333" style="fill:#33527d"/><rect x="396.49678" y="12.49678" width="60.33978" height="145.67311" rx="21.33333" ry="21.33333" transform="translate(64.62799 326.69245) rotate(-45)" style="fill:#cdd4df"/><path d="M450.58854,121.7513l12.4961-12.49739a21.33106,21.33106,0,0,0,0-30.16927L411.582,27.582a21.33262,21.33262,0,0,0-30.17057,0l-12.4961,12.4961a21.33262,21.33262,0,0,0,0,30.17057L420.418,121.7513A21.335,21.335,0,0,0,450.58854,121.7513Z" style="fill:#e5e8ef"/><rect x="234.66667" y="341.33333" width="42.66667" height="64" rx="21.33331" ry="21.33331" style="fill:#cdd4df"/><rect x="341.33333" y="341.33333" width="42.66667" height="64" rx="21.33331" ry="21.33331" style="fill:#cdd4df"/><rect x="128" y="341.33333" width="42.66667" height="64" rx="21.33331" ry="21.33331" style="fill:#e5e8ef"/></g></svg>