<svg xmlns="http://www.w3.org/2000/svg" viewBox="0 0 512 512"><title>Artboard 105</title><g id="Orbit"><path d="M362.66667,256c0,9.18839-9.27409,17.03461-11.54039,25.50837-2.3435,8.76242,1.69566,20.17749-2.74444,27.849-4.50342,7.781-16.45117,9.959-22.76725,16.27363-6.3149,6.31342-8.49416,18.25972-16.27459,22.76087-7.67169,4.43824-19.08532.39674-27.84742,2.73858C273.02374,353.394,265.18244,362.66667,256,362.66667c-9.18839,0-17.03461-9.27409-25.50837-11.54039-8.76242-2.3435-20.17749,1.69566-27.849-2.74444-7.781-4.50342-9.959-16.45117-16.27363-22.76725-6.31342-6.3149-18.25972-8.49416-22.76087-16.27459-4.43824-7.67169-.39674-19.08532-2.73858-27.84742C158.606,273.02374,149.33333,265.18244,149.33333,256c0-9.18839,9.27409-17.03461,11.54039-25.50837,2.3435-8.76242-1.69566-20.17749,2.74444-27.849,4.50342-7.781,16.45117-9.959,22.76725-16.27363,6.3149-6.31342,8.49416-18.25972,16.27459-22.76087,7.67169-4.43824,19.08532-.39674,27.84742-2.73858C238.97626,158.606,246.81756,149.33333,256,149.33333c9.18839,0,17.03461,9.27409,25.50837,11.54039,8.76242,2.3435,20.17749-1.69566,27.849,2.74444,7.781,4.50342,9.959,16.45117,16.27363,22.76725,6.31342,6.3149,18.25972,8.49416,22.76087,16.27459,4.43824,7.67169.39674,19.08532,2.73858,27.84742C353.394,238.97626,362.66667,246.81756,362.66667,256Z" style="fill:#ffd80c"/><circle cx="256" cy="256" r="64" style="fill:#f98b00"/><ellipse cx="245.33333" cy="245.33333" rx="55.38929" ry="51.19433" transform="translate(-101.62039 245.33333) rotate(-45)" style="fill:#ffa300"/><ellipse cx="245.33333" cy="224" rx="36.45009" ry="26.81642" transform="translate(-86.53545 239.08494) rotate(-45)" style="fill:#ffec6c"/><path d="M256,490.66667C126.60417,490.66667,21.33333,385.39583,21.33333,256S126.60417,21.33333,256,21.33333,490.66667,126.60417,490.66667,256,385.39583,490.66667,256,490.66667Zm0-448C138.36458,42.66667,42.66667,138.36458,42.66667,256S138.36458,469.33333,256,469.33333,469.33333,373.63542,469.33333,256,373.63542,42.66667,256,42.66667Z" style="fill:#bce4ff"/><path d="M256,405.33333c-82.34375,0-149.33333-66.98958-149.33333-149.33333S173.65625,106.66667,256,106.66667,405.33333,173.65625,405.33333,256,338.34375,405.33333,256,405.33333ZM256,128A128,128,0,1,0,384,256,128.14,128.14,0,0,0,256,128Z" style="fill:#b7e8c4"/><path d="M256,448C150.13542,448,64,361.86458,64,256S150.13542,64,256,64s192,86.13542,192,192S361.86458,448,256,448Zm0-362.66667c-94.10417,0-170.66667,76.5625-170.66667,170.66667S161.89583,426.66667,256,426.66667,426.66667,350.10417,426.66667,256,350.10417,85.33333,256,85.33333Z" style="fill:#dfe5ff"/><circle cx="416" cy="96" r="53.33333" style="fill:#005eee"/><ellipse cx="405.33333" cy="85.33333" rx="45.8938" ry="39.17281" transform="translate(58.37961 311.6075) rotate(-45)" style="fill:#0784ff"/><ellipse cx="405.33333" cy="64" rx="23.16816" ry="19.3239" transform="translate(73.46455 305.35911) rotate(-45)" style="fill:#5cbeff"/><circle cx="373.33333" cy="330.66667" r="32" style="fill:#008732"/><ellipse cx="362.66667" cy="320" rx="24.6316" ry="17.41717" transform="translate(-120.05156 350.16989) rotate(-45)" style="fill:#4cc66e"/><circle cx="74.66667" cy="266.66667" r="32" style="fill:#bc5cf3"/><ellipse cx="64" cy="256" rx="24.6316" ry="17.41717" transform="translate(-162.27417 120.2355) rotate(-45)" style="fill:#cf94ff"/></g></svg>