<svg xmlns="http://www.w3.org/2000/svg" viewBox="0 0 512 512"><title>Artboard 134</title><g id="Atom"><path d="M256,490.66667c-45.16667,0-83.21875-56.51042-99.29167-147.47917a490.88682,490.88682,0,0,1-6.9375-65.41667q-.43749-10.75-.4375-21.77083c0-38.0625,4.09375-75.78125,11.84375-109.08333a334.86925,334.86925,0,0,1,13.3125-44.07292C194.64583,50.28125,223.59375,21.33333,256,21.33333c27.01042,0,52.47917,21.02084,71.70833,59.19792,9.47917,18.8125,17.25,41.14583,23.11459,66.38542,7.75,33.3125,11.84375,71.03125,11.84375,109.08333,0,14.6875-.59375,29.34375-1.77084,43.55208-1.22916,14.80209-3.10416,29.47917-5.60416,43.63542q-1.98438,11.26563-4.46875,21.89583-2.65626,11.39063-5.8125,21.96875c-2.3125,7.72917-4.8125,15.11459-7.5,22.10417C317.35417,461.71875,288.40625,490.66667,256,490.66667Zm0-448c-22.61458,0-45.0625,24.71875-61.59375,67.82291A316.17781,316.17781,0,0,0,181.94792,151.75c-7.375,31.73958-11.28125,67.79167-11.28125,104.25q0,10.57812.41666,20.90625a472.99741,472.99741,0,0,0,6.625,62.57292C191.4375,417.14583,222.90625,469.33333,256,469.33333c22.61458,0,45.0625-24.71875,61.59375-67.82291q3.75-9.76563,6.97917-20.5625,2.96874-9.95313,5.47916-20.69792c1.5625-6.71875,2.97917-13.65625,4.23959-20.77083,2.375-13.5,4.16666-27.53125,5.33333-41.6875,1.13542-13.625,1.70833-27.6875,1.70833-41.79167,0-36.44792-3.90625-72.5-11.28125-104.25-5.48958-23.59375-12.6875-44.32292-21.39583-61.61458C293.23958,59.52083,274.54167,42.66667,256,42.66667Z" style="fill:#ffbe00"/><path d="M285.35417,480.01042a10.66632,10.66632,0,0,1-6.39584-19.20834c18.05209-13.51041,34.26042-41.875,45.61459-79.85416a10.6648,10.6648,0,1,1,20.4375,6.10416c-12.84375,42.95834-31.26042,74.36459-53.28125,90.83334A10.58506,10.58506,0,0,1,285.35417,480.01042Z" style="fill:#ffa300"/><path d="M344.80208,352a10.33918,10.33918,0,0,1-1.86458-.16667,10.65155,10.65155,0,0,1-8.64583-12.35416c2.375-13.5,4.16666-27.53125,5.33333-41.6875a10.67135,10.67135,0,1,1,21.27083,1.75c-1.22916,14.8125-3.10416,29.48958-5.60416,43.64583A10.66348,10.66348,0,0,1,344.80208,352Z" style="fill:#ffa300"/><path d="M351.5625,245.33333a10.66726,10.66726,0,0,1-10.64583-10.23958c-2.30209-56.73958-13.76042-108.22917-32.26042-144.95833a10.66332,10.66332,0,1,1,19.04167-9.60417c19.85416,39.39583,32.11458,93.97917,34.53125,153.70833A10.65754,10.65754,0,0,1,352,245.32292C351.85417,245.33333,351.70833,245.33333,351.5625,245.33333Z" style="fill:#ffa300"/><path d="M171.57292,160a10.21929,10.21929,0,0,1-2.42709-.28125,10.65046,10.65046,0,0,1-7.96875-12.80208,334.86925,334.86925,0,0,1,13.3125-44.07292,10.66692,10.66692,0,1,1,19.91667,7.64583A316.17781,316.17781,0,0,0,181.94792,151.75,10.66475,10.66475,0,0,1,171.57292,160Z" style="fill:#ffa300"/><path d="M160.4375,245.33333c-.14583,0-.29167,0-.4375-.01041a10.66446,10.66446,0,0,1-10.22917-11.08334c.59375-14.70833,1.8125-29.375,3.625-43.59375a10.66962,10.66962,0,0,1,21.16667,2.70834c-1.73958,13.60416-2.90625,27.64583-3.47917,41.73958A10.66726,10.66726,0,0,1,160.4375,245.33333Z" style="fill:#ffa300"/><path d="M163.96875,330.66667a10.676,10.676,0,0,1-10.57292-9.3125q-1.375-10.70313-2.29166-21.8125a10.67135,10.67135,0,1,1,21.27083-1.75q.85938,10.60936,2.1875,20.85416a10.67088,10.67088,0,0,1-9.22917,11.9375A12.13953,12.13953,0,0,1,163.96875,330.66667Z" style="fill:#ffa300"/><path d="M184.44792,416a10.68278,10.68278,0,0,1-9.95834-6.84375c-2.6875-6.98958-5.1875-14.375-7.5-22.10417a10.6648,10.6648,0,1,1,20.4375-6.10416q3.21876,10.78125,6.97917,20.5625A10.66632,10.66632,0,0,1,184.44792,416Z" style="fill:#ffa300"/><path d="M127.53125,405.13542c-36.6875,0-64.57292-10.59375-77.40625-32.38542-8.09375-13.75-9.63542-30.3125-4.5625-49.23958,13.59375-50.72917,75.03125-113.3125,156.52083-159.4375C317.48958,98.72917,431.60417,87.83333,461.875,139.25c8.09375,13.75,9.63542,30.3125,4.5625,49.23958-13.59375,50.72917-75.03125,113.3125-156.52083,159.4375C243.4375,385.5625,177.375,405.13542,127.53125,405.13542ZM384.5,127.88542c-43.39583,0-105.09375,16.92708-171.91667,54.75C137.01042,225.41667,78.16667,284.25,66.16667,329.03125c-3.53125,13.1875-2.75,24.26042,2.33333,32.88542,20.9375,35.5625,118.69792,30.98958,230.91667-32.55209C374.98958,286.58333,433.83333,227.75,445.83333,182.96875c3.53125-13.1875,2.75-24.26042-2.33333-32.88542C435.03125,135.69792,413.98958,127.88542,384.5,127.88542Z" style="fill:#5cbeff"/><path d="M85.3125,283.33333a10.66628,10.66628,0,0,1-8.34375-17.30208,307.31675,307.31675,0,0,1,22.11458-24.8125,10.66569,10.66569,0,0,1,15.16667,15,285.30264,285.30264,0,0,0-20.57292,23.08333A10.66372,10.66372,0,0,1,85.3125,283.33333Z" style="fill:#079cff"/><path d="M234.66667,382.35417a10.66846,10.66846,0,0,1-3.78125-20.64584c13.82291-5.22916,27.86458-11.35416,41.73958-18.1875a10.66814,10.66814,0,0,1,9.41667,19.14584c-14.47917,7.125-29.14584,13.52083-43.59375,19A10.7174,10.7174,0,0,1,234.66667,382.35417Z" style="fill:#079cff"/><path d="M405.33333,273.94792A10.66668,10.66668,0,0,1,397.75,255.78125a285.30264,285.30264,0,0,0,20.57292-23.08333,10.66868,10.66868,0,1,1,16.70833,13.27083,307.31675,307.31675,0,0,1-22.11458,24.8125A10.60559,10.60559,0,0,1,405.33333,273.94792Z" style="fill:#079cff"/><path d="M234.67708,169.57292a10.66714,10.66714,0,0,1-4.71875-20.23959c45.45834-22.375,92.17709-37.05208,131.55209-41.33333a10.667,10.667,0,0,1,2.3125,21.20833c-36.96875,4.02084-81.16667,17.96875-124.44792,39.27084A10.66115,10.66115,0,0,1,234.67708,169.57292Z" style="fill:#079cff"/><path d="M384.46875,405.13542c-49.84375,0-115.89583-19.57292-182.38542-57.20834-81.48958-46.125-142.92708-108.70833-156.52083-159.4375C40.48958,169.5625,42.03125,153,50.125,139.25,80.38542,87.85417,194.5,98.76042,309.91667,164.07292c81.48958,46.125,142.92708,108.70833,156.52083,159.4375C471.51042,342.4375,469.96875,359,461.875,372.75,449.05208,394.54167,421.14583,405.13542,384.46875,405.13542ZM127.5,127.88542c-29.48958,0-50.53125,7.8125-59,22.19791-5.08333,8.625-5.86458,19.69792-2.33333,32.88542,12,44.78125,70.84375,103.61458,146.41666,146.39583,112.20834,63.5,209.96875,68.09375,230.91667,32.55209,5.08333-8.625,5.86458-19.69792,2.33333-32.88542-12-44.78125-70.84375-103.61458-146.41666-146.39583C232.60417,144.82292,170.89583,127.88542,127.5,127.88542Z" style="fill:#66ce83"/><path d="M384.46875,405.13542c-49.84375,0-115.89583-19.57292-182.38542-57.20834-81.48958-46.125-142.92708-108.70833-156.52083-159.4375C40.48958,169.5625,42.03125,153,50.125,139.25,80.38542,87.85417,194.5,98.76042,309.91667,164.07292c81.48958,46.125,142.92708,108.70833,156.52083,159.4375C471.51042,342.4375,469.96875,359,461.875,372.75,449.05208,394.54167,421.14583,405.13542,384.46875,405.13542ZM127.5,127.88542c-29.48958,0-50.53125,7.8125-59,22.19791-5.08333,8.625-5.86458,19.69792-2.33333,32.88542,12,44.78125,70.84375,103.61458,146.41666,146.39583,112.20834,63.5,209.96875,68.09375,230.91667,32.55209,5.08333-8.625,5.86458-19.69792,2.33333-32.88542-12-44.78125-70.84375-103.61458-146.41666-146.39583C232.60417,144.82292,170.89583,127.88542,127.5,127.88542Z" style="fill:#66ce83"/><path d="M85.34375,250.01042a10.64249,10.64249,0,0,1-8.36458-4.04167c-13.92709-17.55208-23.78125-34.54167-29.27084-50.47917A10.66669,10.66669,0,1,1,67.875,188.53125c4.70833,13.65625,13.39583,28.52083,25.8125,44.1875a10.66755,10.66755,0,0,1-8.34375,17.29167Z" style="fill:#4cc66e"/><circle cx="256" cy="256" r="42.66667" style="fill:#ffc200"/><ellipse cx="245.33333" cy="245.33333" rx="36.20351" ry="27.15263" transform="translate(-101.62039 245.33333) rotate(-45)" style="fill:#ffd80c"/><ellipse cx="245.33333" cy="224" rx="13.66057" ry="6.39032" transform="translate(-86.53545 239.08494) rotate(-45)" style="fill:#ffff9d"/><circle cx="330.66667" cy="117.33333" r="32" style="fill:#c175ff"/><ellipse cx="320" cy="106.66667" rx="24.91516" ry="17.00829" transform="translate(18.30111 257.51611) rotate(-45)" style="fill:#dfb7ff"/><circle cx="309.33333" cy="437.33333" r="32" style="fill:#0784ff"/><ellipse cx="298.66667" cy="426.66667" rx="24.91516" ry="17.00829" transform="translate(-214.22145 336.157) rotate(-45)" style="fill:#5cbeff"/><circle cx="74.66667" cy="202.66667" r="32" style="fill:#008732"/><ellipse cx="64" cy="192" rx="24.91516" ry="17.00829" transform="translate(-117.01934 101.49033) rotate(-45)" style="fill:#14a142"/></g></svg>