<svg id="Renewable_Energy" data-name="Renewable Energy" xmlns="http://www.w3.org/2000/svg" viewBox="0 0 512 512"><title>Artboard 160</title><path d="M406.0625,390.60417h0A241.03087,241.03087,0,0,1,355.10417,89.9375L356.75,87.08333a31.77127,31.77127,0,0,1,48.4375-8.3125l2.54167,2.20834a240.55391,240.55391,0,0,1,51.47916,300.625,34.80213,34.80213,0,0,1-53.14583,9Z" style="fill:#14a142"/><path d="M373.33333,256a10.66667,10.66667,0,0,1-7.54166-18.20833L408.45833,195.125a10.66553,10.66553,0,1,1,15.08334,15.08333L380.875,252.875A10.63211,10.63211,0,0,1,373.33333,256Z" style="fill:#008732"/><path d="M405.33333,330.66667a10.66667,10.66667,0,0,1-7.54166-18.20834L419.125,291.125a10.66552,10.66552,0,0,1,15.08333,15.08333L412.875,327.54167A10.63211,10.63211,0,0,1,405.33333,330.66667Z" style="fill:#008732"/><path d="M437.35417,384a12.04307,12.04307,0,0,1-1.20834-.0625,10.66309,10.66309,0,0,1-9.41666-11.79167c20.60416-185.4375-83.08334-332.45833-84.14584-333.91666a10.673,10.673,0,0,1,17.33334-12.45834c4.47916,6.22917,109.5625,154.89584,88.02083,348.75A10.67373,10.67373,0,0,1,437.35417,384Z" style="fill:#4cc66e"/><path d="M461.39583,341.35417h-.1875A10.66217,10.66217,0,0,1,450.72917,330.5c1.16666-65.70833-11.64584-132.5-38.0625-198.54167a10.65813,10.65813,0,1,1,19.79166-7.91666c27.5,68.6875,40.8125,138.29166,39.60417,206.83333A10.66207,10.66207,0,0,1,461.39583,341.35417Z" style="fill:#008732"/><path d="M373.33333,234.66667a10.66667,10.66667,0,0,1-7.54166-18.20834l42.66666-42.66666A10.66553,10.66553,0,1,1,423.54167,188.875L380.875,231.54167A10.63211,10.63211,0,0,1,373.33333,234.66667Z" style="fill:#4cc66e"/><path d="M394.66667,320a10.66667,10.66667,0,0,1-7.54167-18.20833L429.79167,259.125A10.66552,10.66552,0,1,1,444.875,274.20833L402.20833,316.875A10.63211,10.63211,0,0,1,394.66667,320Z" style="fill:#4cc66e"/><path d="M458.66667,277.33333a10.63207,10.63207,0,0,1-7.54167-3.125L429.79167,252.875A10.66552,10.66552,0,0,1,444.875,237.79167L466.20833,259.125a10.66667,10.66667,0,0,1-7.54166,18.20833Z" style="fill:#4cc66e"/><ellipse cx="362.66667" cy="160" rx="33.5607" ry="18.77034" transform="translate(81.56415 439.47896) rotate(-68.64)" style="fill:#b7e8c4"/><path d="M86.37133,307.62682h0A241.03089,241.03089,0,0,1,365.49711,430.45189l1.47831,2.94443a31.77127,31.77127,0,0,1-19.70106,45.024l-3.2423.90793A240.55391,240.55391,0,0,1,64.6546,356.961a34.80213,34.80213,0,0,1,21.71673-49.3342Z" style="fill:#14a142"/><path d="M216.78617,354.33282A10.66667,10.66667,0,0,1,236.14082,358.05l12.16342,59.1011a10.66553,10.66553,0,1,1-20.89316,4.3L215.24765,362.35A10.63212,10.63212,0,0,1,216.78617,354.33282Z" style="fill:#008732"/><path d="M136.82808,339.98655a10.66667,10.66667,0,0,1,19.35465,3.71723l6.08171,29.55055a10.66553,10.66553,0,1,1-20.89316,4.3l-6.08171-29.55055A10.63209,10.63209,0,0,1,136.82808,339.98655Z" style="fill:#008732"/><path d="M74.67467,337.3921a12.04144,12.04144,0,0,1,.71684-.97474,10.66309,10.66309,0,0,1,15.02723-1.37814C233.95,454.24646,413.76511,448.52274,415.56744,448.43757a10.673,10.673,0,1,1,.87013,21.32832c-7.66594.31434-189.62329,6.29847-339.66793-118.3213A10.67371,10.67371,0,0,1,74.67467,337.3921Z" style="fill:#4cc66e"/><path d="M97.06539,380.92742l.10314-.15659a10.66216,10.66216,0,0,1,14.82872-2.78113c54.23335,37.11724,117.06068,63.15594,186.74465,77.42083a10.65814,10.65814,0,0,1-4.275,20.88321c-72.48947-14.81551-137.94063-41.98366-194.51727-80.69418A10.66206,10.66206,0,0,1,97.06539,380.92742Z" style="fill:#008732"/><path d="M234.6023,366.06723a10.66667,10.66667,0,0,1,19.35465,3.71723l12.16342,59.1011a10.66553,10.66553,0,0,1-20.89316,4.3l-12.16342-59.1011A10.6321,10.6321,0,0,1,234.6023,366.06723Z" style="fill:#4cc66e"/><path d="M151.60336,336.94569a10.66666,10.66666,0,0,1,19.35464,3.71723l12.16343,59.1011a10.66553,10.66553,0,1,1-20.89316,4.3l-12.16343-59.1011A10.63214,10.63214,0,0,1,151.60336,336.94569Z" style="fill:#4cc66e"/><path d="M152.03236,413.86292a10.63214,10.63214,0,0,1,6.75809-4.57937l29.55055-6.08171a10.66553,10.66553,0,1,1,4.3,20.89316l-29.55055,6.08171a10.66667,10.66667,0,0,1-11.058-16.31379Z" style="fill:#4cc66e"/><ellipse cx="302.82597" cy="398.22963" rx="18.77034" ry="33.5607" transform="translate(-174.36179 247.95572) rotate(-35.2695)" style="fill:#b7e8c4"/><path d="M315.49885,61.41816h0A241.03086,241.03086,0,0,1,79.90011,255.04262l-3.29468-.01A31.77127,31.77127,0,0,1,45.323,217.1288l.65344-3.303A240.55391,240.55391,0,0,1,281.28021,19.77006a34.80214,34.80214,0,0,1,34.21864,41.6481Z" style="fill:#14a142"/><path d="M214.95189,156.70609a10.66666,10.66666,0,0,1-12.0538,15.5925l-58.22761-15.82511a10.66553,10.66553,0,0,1,5.59442-20.58437l58.22761,15.82511A10.63209,10.63209,0,0,1,214.95189,156.70609Z" style="fill:#008732"/><path d="M263.84709,91.83414a10.66666,10.66666,0,0,1-12.0538,15.59249l-29.11381-7.91255a10.66553,10.66553,0,1,1,5.59443-20.58437l29.1138,7.91255A10.63207,10.63207,0,0,1,263.84709,91.83414Z" style="fill:#008732"/><path d="M294.21876,37.54473a12.042,12.042,0,0,1,.54618,1.07965,10.66308,10.66308,0,0,1-5.55369,14.03116C118.0493,126.91982,41.98659,289.95567,41.249,291.60236A10.673,10.673,0,1,1,21.82458,282.751c3.18-6.98234,79.97737-172.04732,258.9092-249.68031A10.67373,10.67373,0,0,1,294.21876,37.54473Z" style="fill:#4cc66e"/><path d="M245.26407,37.87213l.09317.16272a10.66218,10.66218,0,0,1-4.21217,14.48736c-57.60176,31.63831-109.19734,75.94613-153.3821,131.687a10.65814,10.65814,0,0,1-16.70469-13.24149c45.94251-57.99576,99.73034-104.135,159.8116-137.14507A10.66205,10.66205,0,0,1,245.26407,37.87213Z" style="fill:#008732"/><path d="M196.43871,167.30672a10.66666,10.66666,0,0,1-12.0538,15.59249L126.1573,167.0741a10.66553,10.66553,0,1,1,5.59442-20.58437l58.22761,15.82511A10.63207,10.63207,0,0,1,196.43871,167.30672Z" style="fill:#4cc66e"/><path d="M259.89081,106.391a10.66667,10.66667,0,0,1-12.0538,15.5925L189.6094,106.15842a10.66553,10.66553,0,0,1,5.59442-20.58437l58.22761,15.82512A10.63206,10.63206,0,0,1,259.89081,106.391Z" style="fill:#4cc66e"/><path d="M191.06258,72.05274a10.63214,10.63214,0,0,1,1.03559,8.09753l-7.91256,29.1138a10.66553,10.66553,0,1,1-20.58437-5.59442l7.91256-29.11381a10.66667,10.66667,0,0,1,19.54878-2.5031Z" style="fill:#4cc66e"/><ellipse cx="136.94289" cy="213.66549" rx="33.5607" ry="18.77034" transform="matrix(0.98918, -0.14669, 0.14669, 0.98918, -29.86203, 22.40019)" style="fill:#b7e8c4"/></svg>