<svg xmlns="http://www.w3.org/2000/svg" viewBox="0 0 512 512"><title>Artboard 138</title><g id="Microscope"><path d="M192,170.66667h64a0,0,0,0,1,0,0v64A21.33333,21.33333,0,0,1,234.66667,256H213.33333A21.33333,21.33333,0,0,1,192,234.66667v-64a0,0,0,0,1,0,0Z" style="fill:#002755"/><path d="M234.66667,234.66667v-64H192v64a21.33334,21.33334,0,0,0,42.66667,0Z" style="fill:#163969"/><rect x="128" y="448" width="298.66667" height="42.66667" style="fill:#163969"/><rect x="128" y="448" width="213.33333" height="42.66667" style="fill:#435e88"/><path d="M170.66667,170.66667H277.33333a0,0,0,0,1,0,0V192A21.33333,21.33333,0,0,1,256,213.33333H192A21.33333,21.33333,0,0,1,170.66667,192V170.66667A0,0,0,0,1,170.66667,170.66667Z" style="fill:#163969"/><path d="M170.66667,170.66667H256a0,0,0,0,1,0,0V192a21.33333,21.33333,0,0,1-21.33333,21.33333H192A21.33333,21.33333,0,0,1,170.66667,192V170.66667A0,0,0,0,1,170.66667,170.66667Z" style="fill:#33527d"/><rect x="87.16344" y="16.91506" width="60.33978" height="115.50322" rx="21.33333" ry="21.33333" transform="translate(-18.43117 104.83656) rotate(-45)" style="fill:#163969"/><path d="M112.91536,27.582A21.08117,21.08117,0,0,0,88.056,24.056a21.08117,21.08117,0,0,0,3.526,24.85937L143.08464,100.418a21.08373,21.08373,0,0,0,24.85807,3.52734A21.0769,21.0769,0,0,0,164.418,79.08464Z" style="fill:#435e88"/><rect x="104.0785" y="48.91506" width="90.50967" height="115.50322" rx="21.33333" ry="21.33333" transform="translate(-31.686 136.83656) rotate(-45)" style="fill:#a8b4ff"/><path d="M112.91536,91.582,164.418,143.08464a21.33657,21.33657,0,0,0,30.168.0013l12.4987-12.4987a21.33106,21.33106,0,0,0,0-30.16927L155.582,48.91536a21.33262,21.33262,0,0,0-30.17057,0l-12.4961,12.4961A21.33262,21.33262,0,0,0,112.91536,91.582Z" style="fill:#cbd3ff"/><path d="M213.33333,341.33333h21.33333A21.33333,21.33333,0,0,1,256,362.66667v42.66667a0,0,0,0,1,0,0H192a0,0,0,0,1,0,0V362.66667A21.33333,21.33333,0,0,1,213.33333,341.33333Z" style="fill:#33527d"/><path d="M192,362.66667h64A21.33333,21.33333,0,0,1,277.33333,384v42.66667a0,0,0,0,1,0,0H170.66667a0,0,0,0,1,0,0V384A21.33333,21.33333,0,0,1,192,362.66667Z" style="fill:#002755"/><path d="M234.66667,362.66667H192A21.33272,21.33272,0,0,0,170.66667,384v42.66667H256V384A21.33272,21.33272,0,0,0,234.66667,362.66667Z" style="fill:#163969"/><path d="M298.66667,85.33333H256v85.33334h42.66667a63.99983,63.99983,0,0,1,64,64V405.33333H149.33333A42.66628,42.66628,0,0,0,106.66667,448v21.33333h320A21.33355,21.33355,0,0,0,448,448V234.66667A149.33323,149.33323,0,0,0,298.66667,85.33333Z" style="fill:#889aff"/><path d="M384,448a21.32772,21.32772,0,0,1-21.33333-21.33333v-192A64.278,64.278,0,0,0,330.625,179.23958a21.3396,21.3396,0,0,1,21.41667-36.91666,107.10149,107.10149,0,0,1,53.29166,92.34375v192A21.32772,21.32772,0,0,1,384,448Z" style="fill:#7388ff"/><path d="M341.33333,277.33333h-192a21.33334,21.33334,0,0,0,0,42.66667H298.66667v64A21.33333,21.33333,0,0,0,320,405.33333h42.66667V298.66667A21.33334,21.33334,0,0,0,341.33333,277.33333Z" style="fill:#435e88"/><rect x="341.33333" y="320" width="106.66667" height="149.33333" rx="21.33333" ry="21.33333" style="fill:#96a6ff"/><rect x="341.33333" y="341.33333" width="64" height="106.66667" rx="21.33333" ry="21.33333" style="fill:#a4b1ff"/><rect x="149.33333" y="85.33333" width="149.33333" height="106.66667" rx="21.33333" ry="21.33333" style="fill:#bcc5ff"/><rect x="170.66667" y="85.33333" width="85.33333" height="106.66667" rx="21.33333" ry="21.33333" style="fill:#d6deff"/><rect x="170.66667" y="85.33333" width="42.66667" height="85.33333" rx="21.33331" ry="21.33331" style="fill:#eff2ff"/><circle cx="224" cy="352" r="10.66667" style="fill:#435e88"/><rect x="149.33333" y="277.33333" width="85.33333" height="42.66667" rx="21.33331" ry="21.33331" style="fill:#5e7599"/><rect x="298.66667" y="320" width="42.66667" height="85.33333" rx="21.33331" ry="21.33331" style="fill:#163969"/><rect x="149.33333" y="405.33333" width="106.66667" height="64" rx="31.99997" ry="31.99997" style="fill:#a8b4ff"/><circle cx="362.66667" cy="362.66667" r="21.33333" style="fill:#bcc5ff"/></g></svg>