<svg xmlns="http://www.w3.org/2000/svg" viewBox="0 0 512 512"><title>Artboard 110</title><g id="Beaker_Glass_Convex_" data-name="Beaker Glass (Convex)"><path d="M320,170.66667V64a21.33333,21.33333,0,0,0,0-42.66667H192A21.33334,21.33334,0,0,0,192,64V170.66667S85.33333,213.33333,85.33333,320s85.33334,149.33333,85.33334,149.33333A21.33356,21.33356,0,0,0,192,490.66667H320a21.33356,21.33356,0,0,0,21.33333-21.33334S426.66667,426.66667,426.66667,320,320,170.66667,320,170.66667Z" style="fill:#bcc5ff"/><path d="M277.33333,469.33333S362.66667,426.66667,362.66667,320,256,170.66667,256,170.66667V64a21.33333,21.33333,0,0,0,0-42.66667H192A21.33334,21.33334,0,0,0,192,64V170.66667S85.33333,213.33333,85.33333,320s85.33334,149.33333,85.33334,149.33333A21.33356,21.33356,0,0,0,192,490.66667h64A21.33356,21.33356,0,0,0,277.33333,469.33333Z" style="fill:#d6deff"/><path d="M426.66667,320H85.33333c0,106.66667,85.33334,149.33333,85.33334,149.33333H341.33333S426.66667,426.66667,426.66667,320Z" style="fill:#079cff"/><path d="M362.66667,320H85.33333c0,106.66667,85.33334,149.33333,85.33334,149.33333H277.33333S362.66667,426.66667,362.66667,320Z" style="fill:#5cbeff"/><circle cx="213.33333" cy="42.66667" r="21.33333" style="fill:#eff2ff"/><rect x="192" y="85.33333" width="42.66667" height="85.33333" rx="21.33331" ry="21.33331" style="fill:#eff2ff"/><ellipse cx="160" cy="320" rx="53.33333" ry="85.33333" style="fill:#eff2ff"/></g></svg>