<svg xmlns="http://www.w3.org/2000/svg" viewBox="0 0 512 512"><title>Artboard 127</title><g id="Saturn"><ellipse cx="277.33333" cy="234.66667" rx="47.83853" ry="236.52266" transform="translate(-84.70534 264.83656) rotate(-45)" style="fill:#f98b00"/><path d="M317.02214,194.97786C191.91146,69.86719,63.168-4.23568,29.46615,29.46615c-33.70053,33.70182,40.401,162.44531,165.51171,287.556S448.832,516.23438,482.53385,482.53255C516.23438,448.83073,442.13281,320.08854,317.02214,194.97786Zm127.55859,206.9349c-18.68229,18.68229-108.707-41.05208-201.07422-133.41927C151.138,176.125,91.405,86.10156,110.08594,67.41927,128.76823,48.737,218.793,108.47135,311.16016,200.83984,403.52865,293.207,463.26172,383.23047,444.58073,401.91276Z" style="fill:#ffec6c"/><circle cx="256" cy="256" r="170.66667" style="fill:#ffa300"/><ellipse cx="234.66667" cy="234.66667" rx="152.76287" ry="145.82264" transform="translate(-97.20212 234.66667) rotate(-45)" style="fill:#ffbe00"/><path d="M406.1875,319.03125c-.66667,0-1.35417-.03125-2.04167-.09375-111.1875-10.60417-199.91666-98.95833-210.97916-210.08333A21.33422,21.33422,0,0,1,235.625,104.625c9.0625,90.89583,81.625,163.16667,172.5625,171.83333a21.33489,21.33489,0,0,1-2,42.57292Z" style="fill:#ffa300"/><path d="M406.1875,319.03125c-.6875,0-1.35417-.03125-2.0625-.09375a235.26926,235.26926,0,0,1-24.375-3.63542,21.33387,21.33387,0,0,1,8.5-41.8125,191.09711,191.09711,0,0,0,19.95833,2.96875,21.33589,21.33589,0,0,1-2.02083,42.57292Z" style="fill:#f98b00"/><path d="M389.33333,230.44792a21.307,21.307,0,0,1-10.125-2.5625A236.71909,236.71909,0,0,1,277.60417,119.78125a21.32687,21.32687,0,1,1,38.70833-17.91667A193.6948,193.6948,0,0,0,399.5,190.34375a21.3345,21.3345,0,0,1-10.16667,40.10417Z" style="fill:#ffa300"/><path d="M341.33333,416C206.0625,416,96,305.94792,96,170.66667a21.33334,21.33334,0,1,1,42.66667,0c0,111.75,90.91666,202.66666,202.66666,202.66666a21.33334,21.33334,0,1,1,0,42.66667Z" style="fill:#ffa300"/><path d="M341.33333,416a243.89873,243.89873,0,0,1-93.47916-18.44792,21.32709,21.32709,0,1,1,16.25-39.4375,201.71043,201.71043,0,0,0,77.22916,15.21875,21.33334,21.33334,0,1,1,0,42.66667Z" style="fill:#f98b00"/><path d="M194.97786,317.02214c52.30079,52.30078,105.14454,95.5013,151.50782,125.82552L397.082,392.2513c-39.05338-21.0625-95.85677-66.03906-153.57552-123.75781C185.78646,210.77344,140.8112,153.97135,119.7487,114.918L69.15234,165.51432C99.47656,211.8776,142.67708,264.72135,194.97786,317.02214Z" style="fill:#ffec6c"/><path d="M117.47917,218.41667A21.25243,21.25243,0,0,1,100.5,210.02083C82.3125,186.19792-6.58333,65.5,29.45833,29.46875a21.32979,21.32979,0,0,1,33.83334,25.25c.5625,13.20833,17.9375,59.72917,71.125,129.42708a21.33416,21.33416,0,0,1-16.9375,34.27084ZM59.66667,59.60417c-.02084.01041-.02084.02083-.04167.03125C59.64583,59.625,59.64583,59.61458,59.66667,59.60417Z" style="fill:#ffff9d"/><path d="M373.02083,455.67708a21.31214,21.31214,0,0,1-11.10416-3.125c-52-31.75-111.29167-79.88541-166.9375-135.53125-19.875-19.875-38.66667-39.95833-55.8125-59.66666a21.3388,21.3388,0,0,1,32.20833-28c16.5,18.96875,34.58333,38.3125,53.77083,57.5,53.33334,53.32291,109.79167,99.23958,159.02084,129.28125a21.33662,21.33662,0,0,1-11.14584,39.54166Z" style="fill:#ffff9d"/><path d="M458.85417,490.66667c-13.27084,0-29.45834-4.23959-49.5-12.95834a21.33767,21.33767,0,0,1,17.04166-39.125C445.58333,446.9375,455.25,447.96875,458.6875,448a21.33317,21.33317,0,0,1,23.77083,34.61458C477.0625,487.95833,469.10417,490.66667,458.85417,490.66667ZM452.5,452.23958c-.02083.01042-.02083.02084-.04167.04167C452.47917,452.26042,452.47917,452.25,452.5,452.23958Z" style="fill:#ffff9d"/><circle cx="85.33333" cy="277.33333" r="21.33333" style="fill:#d6deff"/><circle cx="384" cy="42.66667" r="21.33333" style="fill:#d6deff"/><circle cx="480" cy="160" r="10.66667" style="fill:#d6deff"/><circle cx="32" cy="416" r="10.66667" style="fill:#d6deff"/><circle cx="224" cy="480" r="10.66667" style="fill:#d6deff"/><circle cx="426.66667" cy="320" r="21.33333" style="fill:#d6deff"/><circle cx="96" cy="32" r="10.66667" style="fill:#d6deff"/></g></svg>