<svg xmlns="http://www.w3.org/2000/svg" viewBox="0 0 512 512"><title>Artboard 120</title><g id="Bacteria"><circle cx="256" cy="256" r="234.66667" style="fill:#84d89c"/><ellipse cx="192" cy="192" rx="147.71623" ry="104.60688" transform="translate(-79.529 192) rotate(-45)" style="fill:#b7e8c4"/><circle cx="234.66667" cy="192" r="42.66667" style="fill:#eff2ff"/><path d="M74.66667,234.66667A10.66054,10.66054,0,0,1,64,224a32.035,32.035,0,0,1,32-32,10.68056,10.68056,0,0,0,10.66667-10.66667,32.035,32.035,0,0,1,32-32,10.68055,10.68055,0,0,0,10.66666-10.66666,32.035,32.035,0,0,1,32-32,10.66666,10.66666,0,1,1,0,21.33333,10.68056,10.68056,0,0,0-10.66666,10.66667,32.035,32.035,0,0,1-32,32A10.68056,10.68056,0,0,0,128,181.33333a32.035,32.035,0,0,1-32,32A10.68056,10.68056,0,0,0,85.33333,224,10.66053,10.66053,0,0,1,74.66667,234.66667Z" style="fill:#14a142"/><path d="M298.66667,448a10.66666,10.66666,0,1,1,0-21.33333A10.68056,10.68056,0,0,0,309.33333,416a32.035,32.035,0,0,1,32-32,10.66667,10.66667,0,1,1,0,21.33333A10.68056,10.68056,0,0,0,330.66667,416,32.035,32.035,0,0,1,298.66667,448Z" style="fill:#ffea21"/><rect x="309.76215" y="50.56757" width="84.47569" height="176.1982" rx="42.2378" ry="42.2378" transform="translate(5.04627 289.51611) rotate(-45)" style="fill:#ffd80c"/><circle cx="405.33333" cy="320" r="42.66667" style="fill:#14a142"/><circle cx="181.33333" cy="352" r="74.66667" style="fill:#ffd80c"/><ellipse cx="170.66667" cy="341.33333" rx="52.50984" ry="29.70405" transform="translate(-191.37201 220.65378) rotate(-45)" style="fill:#ffec6c"/><path d="M181.33333,320a10.66053,10.66053,0,0,1-10.66666-10.66667V266.66667a10.66667,10.66667,0,1,1,21.33333,0v42.66666A10.66053,10.66053,0,0,1,181.33333,320Z" style="fill:#14a142"/><path d="M181.33333,448a10.66053,10.66053,0,0,1-10.66666-10.66667V394.66667a10.66667,10.66667,0,1,1,21.33333,0v42.66666A10.66053,10.66053,0,0,1,181.33333,448Z" style="fill:#14a142"/><path d="M138.66667,362.66667H96a10.66667,10.66667,0,1,1,0-21.33334h42.66667a10.66667,10.66667,0,0,1,0,21.33334Z" style="fill:#14a142"/><path d="M266.66667,362.66667H224a10.66667,10.66667,0,0,1,0-21.33334h42.66667a10.66667,10.66667,0,0,1,0,21.33334Z" style="fill:#14a142"/><path d="M211.5,332.5a10.66667,10.66667,0,0,1-7.54167-18.20833L234.125,284.11458a10.66553,10.66553,0,0,1,15.08333,15.08334L219.04167,329.375A10.63213,10.63213,0,0,1,211.5,332.5Z" style="fill:#14a142"/><path d="M121,423.01042a10.66667,10.66667,0,0,1-7.54167-18.20834L143.625,374.625a10.66552,10.66552,0,1,1,15.08333,15.08333l-30.16666,30.17709A10.63213,10.63213,0,0,1,121,423.01042Z" style="fill:#14a142"/><path d="M151.16667,332.5a10.63211,10.63211,0,0,1-7.54167-3.125l-30.16667-30.17708a10.66553,10.66553,0,1,1,15.08334-15.08334l30.16666,30.17709A10.66667,10.66667,0,0,1,151.16667,332.5Z" style="fill:#14a142"/><path d="M241.66667,423.01042a10.63211,10.63211,0,0,1-7.54167-3.125l-30.16667-30.17709A10.66553,10.66553,0,1,1,219.04167,374.625l30.16666,30.17708a10.66667,10.66667,0,0,1-7.54166,18.20834Z" style="fill:#14a142"/><circle cx="330.66667" cy="117.33333" r="32" style="fill:#ffec6c"/><circle cx="384" cy="320" r="21.33333" style="fill:#4cc66e"/></g></svg>