<svg xmlns="http://www.w3.org/2000/svg" viewBox="0 0 512 512"><title>Artboard 151</title><g id="Color_Prism" data-name="Color Prism"><path d="M128,234.66667,437.23671,89.14351a37.47375,37.47375,0,0,1,53.43,33.90695V296.43958a22.44687,22.44687,0,0,1-35.915,17.9575l-49.41834-37.06375Z" style="fill:#079cff"/><path d="M437.23671,89.14351,128,234.66667l362.66667-85.33334V123.05046A37.47375,37.47375,0,0,0,437.23671,89.14351Z" style="fill:#ffc200"/><path d="M21.33333,456.14864v0a34.518,34.518,0,0,1,3.64417-15.43693L225.12612,40.41443A34.518,34.518,0,0,1,256,21.33333h0a34.518,34.518,0,0,1,30.87386,19.0811L487.0225,440.71167a34.518,34.518,0,0,1,3.64417,15.43693v0a34.518,34.518,0,0,1-34.518,34.518H55.85136A34.518,34.518,0,0,1,21.33333,456.14864Z" style="fill:#163969"/><path d="M196.89583,320a42.65181,42.65181,0,0,1-38.70833-60.54167l59.07292-128a42.66463,42.66463,0,1,1,77.47916,35.75l-59.07291,128A42.66453,42.66453,0,0,1,196.89583,320Z" style="fill:#435e88"/><path d="M127.96875,469.33333a42.65179,42.65179,0,0,1-38.70833-60.54166l19.6875-42.66667a42.66463,42.66463,0,1,1,77.47916,35.75l-19.6875,42.66667A42.66451,42.66451,0,0,1,127.96875,469.33333Z" style="fill:#435e88"/><path d="M39.07158,254.92232,128,234.66667,57.18334,293.79c-14.4478,11.55824-35.85,1.27181-35.85-17.2304v-.00006A22.06568,22.06568,0,0,1,39.07158,254.92232Z" style="fill:#d6deff"/><polygon points="357.052 180.772 128 234.667 405.333 277.333 357.052 180.772" style="fill:#005eee"/><polygon points="490.667 149.333 128 234.667 490.667 234.667 490.667 149.333" style="fill:#66ce83"/><polygon points="357.052 180.772 128 234.667 384 234.667 357.052 180.772" style="fill:#14a142"/><polygon points="335.238 137.143 128 234.667 357.052 180.772 335.238 137.143" style="fill:#f98b00"/></g></svg>