<svg xmlns="http://www.w3.org/2000/svg" viewBox="0 0 512 512"><title>Artboard 156</title><g id="Internet_Universe" data-name="Internet Universe"><path d="M52.625,480.70833a21.26418,21.26418,0,0,1-15.08333-6.25C20.35417,457.29167,8.1875,420.8125,47.85417,344.5625c27.25-52.41667,73-112.04167,128.83333-167.875S292.14583,75.10417,344.5625,47.85417c76.22917-39.64584,112.70833-27.5,129.89583-10.3125a21.331,21.331,0,0,1-30.16666,30.16666c-5.35417-5.35416-29.04167-8.54166-80.04167,18C315.58333,111,259.6875,154.04167,206.85417,206.85417,154.04167,259.6875,111,315.58333,85.70833,364.25c-26.54166,51.02083-23.375,74.66667-18,80.04167A21.33333,21.33333,0,0,1,52.625,480.70833Z" style="fill:#c175ff"/><path d="M256,469.33333a21.33333,21.33333,0,0,1,0-42.66666c26.10417,0,64-66.47917,64-170.66667S282.10417,85.33333,256,85.33333a21.33333,21.33333,0,1,1,0-42.66666c60.8125,0,106.66667,91.70833,106.66667,213.33333S316.8125,469.33333,256,469.33333Z" style="fill:#ffbe00"/><path d="M339.22917,234.875a21.33725,21.33725,0,0,1-21.20834-19.1875c-2.83333-28.08333-8.64583-54.41667-16.83333-76.16667a21.32834,21.32834,0,0,1,39.91667-15.04166c9.47916,25.16666,16.1875,55.22916,19.375,86.91666a21.34576,21.34576,0,0,1-19.08334,23.375C340.66667,234.83333,339.9375,234.875,339.22917,234.875Z" style="fill:#ffa300"/><path d="M256,362.66667C134.375,362.66667,42.66667,316.8125,42.66667,256H85.33333c0,26.10417,66.47917,64,170.66667,64s170.66667-37.89583,170.66667-64h42.66666C469.33333,316.8125,377.625,362.66667,256,362.66667Z" style="fill:gold"/><path d="M213.5625,360.58333c-.70833,0-1.4375-.04166-2.16667-.10416A370.826,370.826,0,0,1,142.72917,347.25a21.33558,21.33558,0,1,1,12.25-40.875,327.56118,327.56118,0,0,0,60.70833,11.64583,21.33523,21.33523,0,0,1-2.125,42.5625Z" style="fill:#ffbe00"/><path d="M448,277.33333A21.32105,21.32105,0,0,1,426.66667,256c0-26.10417-66.47917-64-170.66667-64S85.33333,229.89583,85.33333,256a21.33333,21.33333,0,0,1-42.66666,0c0-60.8125,91.70833-106.66667,213.33333-106.66667S469.33333,195.1875,469.33333,256A21.32105,21.32105,0,0,1,448,277.33333Z" style="fill:#ffbe00"/><path d="M256,469.33333c-60.8125,0-106.66667-91.70833-106.66667-213.33333S195.1875,42.66667,256,42.66667V85.33333c-26.10417,0-64,66.47917-64,170.66667s37.89583,170.66667,64,170.66667Z" style="fill:gold"/><path d="M256,469.33333C138.375,469.33333,42.66667,373.625,42.66667,256S138.375,42.66667,256,42.66667,469.33333,138.375,469.33333,256,373.625,469.33333,256,469.33333Zm0-384c-94.10417,0-170.66667,76.5625-170.66667,170.66667S161.89583,426.66667,256,426.66667,426.66667,350.10417,426.66667,256,350.10417,85.33333,256,85.33333Z" style="fill:gold"/><path d="M81.35417,490.625c-21.375,0-35.08334-7.4375-43.8125-16.16667a21.331,21.331,0,0,1,30.16666-30.16666c5.375,5.375,29.02084,8.54166,80.04167-18C196.41667,401,252.3125,357.95833,305.14583,305.14583,357.95833,252.3125,401,196.41667,426.29167,147.75c26.54166-51.02083,23.375-74.66667,18-80.04167a21.331,21.331,0,1,1,30.16666-30.16666c17.1875,17.16666,29.35417,53.64583-10.3125,129.89583-27.25,52.41667-73,112.04167-128.83333,167.875S219.85417,436.89583,167.4375,464.14583C129.9375,483.64583,102.04167,490.625,81.35417,490.625Z" style="fill:#d39cff"/><path d="M178.25,455.0625a21.33352,21.33352,0,0,1-10.89583-39.6875c43.625-25.875,92.5625-65.02083,137.79166-110.22917A813.1981,813.1981,0,0,0,384.47917,213.625a21.334,21.334,0,0,1,34.33333,25.33333,854.61367,854.61367,0,0,1-83.5,96.35417c-48.35417,48.33333-98.91667,88.70833-146.20833,116.77083A21.16361,21.16361,0,0,1,178.25,455.0625Z" style="fill:#dfb7ff"/></g></svg>