<svg xmlns="http://www.w3.org/2000/svg" viewBox="0 0 512 512"><title>Artboard 132</title><g id="Water_Drop" data-name="Water Drop"><path d="M277.33333,42.66667s0-21.33334-21.33333-21.33334-21.33333,21.33334-21.33333,21.33334c0,106.66666-149.33334,128-149.33334,277.33333,0,106.66667,85.33334,170.66667,170.66667,170.66667s170.66667-64,170.66667-170.66667C426.66667,170.66667,277.33333,149.33333,277.33333,42.66667Z" style="fill:#5cbeff"/><ellipse cx="224" cy="320" rx="117.33333" ry="149.33333" style="fill:#bce4ff"/><ellipse cx="192" cy="213.33333" rx="79.19954" ry="43.77691" transform="translate(-94.61395 198.24839) rotate(-45)" style="fill:#eff2ff"/><path d="M326.5625,240.01042A106.66472,106.66472,0,0,0,149.33333,320a21.36047,21.36047,0,0,0,36.42318,15.07682L217.75,303.08333a21.32555,21.32555,0,0,0,0-30.16666,20.14381,20.14381,0,0,0-2.62891-1.7461,63.32717,63.32717,0,0,1,83.19141.819,21.335,21.335,0,0,0,28.25-31.97916Z" style="fill:#005eee"/><path d="M356.41667,294.25a21.32557,21.32557,0,0,0-30.16667,0l-32,32a21.32557,21.32557,0,0,0,0,30.16667,20.73639,20.73639,0,0,0,9.93229,5.24739,63.51539,63.51539,0,0,1-90.49479,6.34636,21.335,21.335,0,0,0-28.25,31.97916A106.66472,106.66472,0,0,0,362.66667,320a20.52268,20.52268,0,0,0-1.05729-5.23568A21.03633,21.03633,0,0,0,356.41667,294.25Z" style="fill:#005eee"/></g></svg>