<svg xmlns="http://www.w3.org/2000/svg" viewBox="0 0 512 512"><title>Artboard 125</title><g id="Bohlam"><path d="M213.33333,384l21.33326-21.33333h85.33358a170.66651,170.66651,0,0,0,170.6665-170.6665v-.00034a170.66651,170.66651,0,0,0-170.6665-170.6665h-.00034a170.66651,170.66651,0,0,0-170.6665,170.6665v85.33342L128,298.66667Z" style="fill:#ffa300"/><circle cx="74.66667" cy="437.33333" r="53.33333" style="fill:#163969"/><path d="M21.33333,437.33333a52.74065,52.74065,0,0,0,6.67188,25.32943,52.73842,52.73842,0,0,0,25.32812,6.67057A53.33347,53.33347,0,0,0,106.66667,416a52.73966,52.73966,0,0,0-6.67058-25.32943A52.73959,52.73959,0,0,0,74.66667,384,53.33264,53.33264,0,0,0,21.33333,437.33333Z" style="fill:#33527d"/><rect x="40.0785" y="308.57528" width="175.843" height="150.84945" rx="21.33333" ry="21.33333" transform="translate(-234.03867 202.98066) rotate(-45)" style="fill:#7d8fac"/><rect x="24.0785" y="330.28764" width="175.843" height="75.42472" rx="21.33333" ry="21.33333" transform="translate(-227.41125 186.98066) rotate(-45)" style="fill:#adb9ca"/><path d="M27.83312,347.83245l0,0a22.188,22.188,0,0,1,27.997-2.77225l126.28851,83.62325a22.188,22.188,0,0,1,3.38159,34.1508l0,0a22.188,22.188,0,0,1-27.99695,2.77224L31.21472,381.98325A22.188,22.188,0,0,1,27.83312,347.83245Z" style="fill:#adb9ca"/><path d="M70.49979,305.16578l0,0a22.188,22.188,0,0,1,27.997-2.77224l126.28851,83.62324a22.188,22.188,0,0,1,3.3816,34.1508l0,0a22.188,22.188,0,0,1-27.997,2.77225L73.88138,339.31658A22.188,22.188,0,0,1,70.49979,305.16578Z" style="fill:#adb9ca"/><path d="M70.49979,305.16578l0,0a22.188,22.188,0,0,1,27.997-2.77224l62.28851,40.95658a22.188,22.188,0,0,1,3.3816,34.15079l0,0a22.188,22.188,0,0,1-27.997,2.77224L73.88138,339.31658A22.188,22.188,0,0,1,70.49979,305.16578Z" style="fill:#cdd4df"/><path d="M27.83312,347.83245l0,0a22.188,22.188,0,0,1,27.997-2.77225l62.28851,40.95658a22.188,22.188,0,0,1,3.38159,34.1508l0,0a22.188,22.188,0,0,1-27.99695,2.77225L31.21472,381.98325A22.188,22.188,0,0,1,27.83312,347.83245Z" style="fill:#cdd4df"/><ellipse cx="288" cy="160" rx="150.22784" ry="126.04242" transform="translate(-28.78384 250.50967) rotate(-45)" style="fill:#ffc200"/><ellipse cx="298.66667" cy="128" rx="103.32075" ry="62.32218" transform="translate(-3.02068 248.70842) rotate(-45.00548)" style="fill:#ffec6c"/><ellipse cx="266.66667" cy="85.33333" rx="59.63964" ry="33.26469" transform="translate(-3.87732 157.43633) rotate(-32.66777)" style="fill:#ffff9d"/></g></svg>