<svg xmlns="http://www.w3.org/2000/svg" viewBox="0 0 512 512"><title>Artboard 123</title><g id="Ufo"><polygon points="426.667 448 85.333 448 213.333 149.333 298.667 149.333 426.667 448" style="fill:#b7e8c4"/><ellipse cx="256" cy="170.66667" rx="234.66667" ry="85.33333" style="fill:#d6deff"/><ellipse cx="256" cy="170.66667" rx="234.66667" ry="85.33333" style="fill:#33527d"/><ellipse cx="256" cy="149.33333" rx="213.33333" ry="64" style="fill:#5e7599"/><ellipse cx="288" cy="160" rx="160" ry="53.33333" style="fill:#435e88"/><ellipse cx="256" cy="448" rx="170.66667" ry="42.66667" style="fill:#4cc66e"/><path d="M128,149.33333a128,128,0,0,1,256,0s-42.66667,21.33334-128,21.33334S128,149.33333,128,149.33333Z" style="fill:#5e7599"/><ellipse cx="213.33333" cy="74.66667" rx="46.54911" ry="26.01219" transform="translate(-9.53804 112.27748) rotate(-28.86879)" style="fill:#7d8fac"/><ellipse cx="192" cy="64" rx="23.88592" ry="18.42304" transform="translate(11.01819 154.58467) rotate(-45.02374)" style="fill:#adb9ca"/><circle cx="170.66667" cy="106.66667" r="21.33333" style="fill:#eff2ff"/><circle cx="256" cy="128" r="21.33333" style="fill:#eff2ff"/><circle cx="341.33333" cy="106.66667" r="21.33333" style="fill:#eff2ff"/><path d="M149.32292,469.34375a21.35852,21.35852,0,0,1-19.59375-29.75l64-149.33333a21.33046,21.33046,0,1,1,39.20833,16.8125l-64,149.33333A21.3318,21.3318,0,0,1,149.32292,469.34375Z" style="fill:#d5f1dd"/></g></svg>