<svg xmlns="http://www.w3.org/2000/svg" viewBox="0 0 512 512"><title>Artboard 153</title><g id="Baby_Born" data-name="Baby Born"><circle cx="256" cy="256" r="234.66667" style="fill:#163969"/><ellipse cx="170.66667" cy="170.66667" rx="134.58604" ry="68.06136" transform="translate(-70.69245 170.66667) rotate(-45)" style="fill:#33527d"/><path d="M442.78646,346.54557a17.79731,17.79731,0,0,0-24.03776-1.03776L401.293,362.66667l-21.33333-64-2.25261-4.50521A69.0358,69.0358,0,0,0,315.95964,256l-26.83334,4.47266-18.737-18.737L286.9375,237.599A43.64871,43.64871,0,0,0,320,195.2526V149.33333a21.33471,21.33471,0,1,0-30.77734,18.888L277.33333,192H248.53906a74.61212,74.61212,0,1,0-127.63281,11.54818,60.13813,60.13813,0,0,0,10.75391,70.125l39.67708,39.67708A62.9375,62.9375,0,0,0,170.66667,320a63.99983,63.99983,0,0,0,64,64,63.08458,63.08458,0,0,0,7.89192-.79557,76.11016,76.11016,0,0,0,9.401.79557l31.19661,46.79427a38.63734,38.63734,0,0,0,65.36719-1.69922l11.63932-18.19531a17.79785,17.79785,0,0,0-26.7474-22.72526l-17.45572,17.15885L300.905,360.168c.45312-.42578.97916-.71875,1.42187-1.16146a59.69441,59.69441,0,0,0,9.84766-13.487l25.11849-4.1862,31.19661,46.79427a38.63735,38.63735,0,0,0,65.36719-1.69921l11.63932-18.19532A17.79779,17.79779,0,0,0,442.78646,346.54557Z" style="fill:#adb9ca"/><ellipse cx="160" cy="138.66667" rx="38.24399" ry="24.18408" transform="translate(-51.18923 153.75161) rotate(-45)" style="fill:#e5e8ef"/><ellipse cx="213.33333" cy="341.33333" rx="13.48943" ry="26.97886" transform="translate(-178.87523 250.82367) rotate(-45)" style="fill:#e5e8ef"/><ellipse cx="256" cy="320" rx="13.48943" ry="26.97886" transform="translate(-151.29351 274.74517) rotate(-45)" style="fill:#e5e8ef"/></g></svg>