<svg xmlns="http://www.w3.org/2000/svg" viewBox="0 0 512 512"><title>Artboard 122</title><g id="Sperm"><circle cx="256" cy="256" r="234.66667" style="fill:#b244f1"/><ellipse cx="234.66667" cy="234.66667" rx="222.33188" ry="203.93553" transform="translate(-97.20212 234.66667) rotate(-45)" style="fill:#bc5cf3"/><ellipse cx="138.66667" cy="202.66667" rx="110.28963" ry="79.1543" transform="translate(-102.69245 157.41183) rotate(-45)" style="fill:#c175ff"/><ellipse cx="245.33333" cy="74.66667" rx="35.94727" ry="27.48471" transform="translate(19.10188 195.42629) rotate(-45.02028)" style="fill:#dfb7ff"/><ellipse cx="117.33333" cy="181.33333" rx="67.45088" ry="33.7161" transform="translate(-93.85589 136.0785) rotate(-45)" style="fill:#dfb7ff"/><path d="M298.66667,192l-85.33334,85.33333c-32,32-10.66666,74.66667-42.66666,106.66667S85.33333,405.33333,64,426.66667L25.75161,464.91506a15.08493,15.08493,0,0,0,0,21.33331l0,0a15.08493,15.08493,0,0,0,21.33331,0L85.33333,448c21.33334-21.33333,64,0,106.66667-42.66667S213.33333,320,234.66667,298.66667L320,213.33333Z" style="fill:#cbd3ff"/><ellipse cx="330.66667" cy="181.33333" rx="54.57818" ry="52.05854" transform="translate(-31.37201 286.92795) rotate(-45)" style="fill:#bcc5ff"/><path d="M304.89733,75.31051c-44.18278,44.18278-31.9574,90.96276,4.436,127.35616s83.17338,48.61877,127.35616,4.436S510.74925,74.03755,474.35585,37.64415,349.08011,31.12773,304.89733,75.31051Z" style="fill:#cbd3ff"/><path d="M394.02344,164.4362c35.10547-35.10677,61.04687-98.35547,52.02213-141.14974-42.793-9.02344-106.04166,16.918-141.14843,52.02344-35.10547,35.10677-34.52344,71.83333-14.57943,103.70572C322.1901,198.95964,358.91667,199.54167,394.02344,164.4362Z" style="fill:#d6deff"/><ellipse cx="341.33333" cy="106.66667" rx="51.73312" ry="31.03987" transform="translate(24.5495 272.60106) rotate(-45)" style="fill:#eff2ff"/></g></svg>