<svg xmlns="http://www.w3.org/2000/svg" viewBox="0 0 512 512"><title>Artboard 116</title><g id="Dropper_Beaker_Glass" data-name="Dropper &amp; Beaker Glass"><path d="M426.66667,149.33333H91.793A27.792,27.792,0,0,0,76.3763,200.25l30.29037,20.194V448a42.66711,42.66711,0,0,0,42.66666,42.66667H384A42.66712,42.66712,0,0,0,426.66667,448V192a21.33334,21.33334,0,0,0,0-42.66667Z" style="fill:#bcc5ff"/><path d="M341.33333,448V192a21.33334,21.33334,0,1,0,0-42.66667H91.793A27.792,27.792,0,0,0,76.3763,200.25l30.29037,20.194V448a42.66711,42.66711,0,0,0,42.66666,42.66667H298.66667A42.66711,42.66711,0,0,0,341.33333,448Z" style="fill:#d6deff"/><rect x="128" y="149.33333" width="106.66667" height="42.66667" rx="21.33331" ry="21.33331" style="fill:#eff2ff"/><path d="M106.66667,384v64a42.66711,42.66711,0,0,0,42.66666,42.66667H384A42.66712,42.66712,0,0,0,426.66667,448V384Z" style="fill:#b244f1"/><path d="M341.33333,448V384H106.66667v64a42.66711,42.66711,0,0,0,42.66666,42.66667H298.66667A42.66711,42.66711,0,0,0,341.33333,448Z" style="fill:#c175ff"/><rect x="149.33333" y="213.33333" width="64" height="149.33333" rx="31.99997" ry="31.99997" style="fill:#eff2ff"/><circle cx="181.33333" cy="416" r="32" style="fill:#cf94ff"/><path d="M352,384H309.33333a10.66666,10.66666,0,0,1,0-21.33333H352A10.66667,10.66667,0,1,1,352,384Z" style="fill:#eff2ff"/><path d="M352,341.33333H309.33333a10.66667,10.66667,0,0,1,0-21.33333H352a10.66667,10.66667,0,1,1,0,21.33333Z" style="fill:#eff2ff"/><path d="M352,298.66667H309.33333a10.66667,10.66667,0,0,1,0-21.33334H352a10.66667,10.66667,0,0,1,0,21.33334Z" style="fill:#eff2ff"/><path d="M352,256H309.33333a10.66666,10.66666,0,0,1,0-21.33333H352A10.66667,10.66667,0,1,1,352,256Z" style="fill:#eff2ff"/><path d="M352,213.33333H309.33333a10.66667,10.66667,0,0,1,0-21.33333H352a10.66667,10.66667,0,1,1,0,21.33333Z" style="fill:#eff2ff"/><path d="M352,426.66667H309.33333a10.66667,10.66667,0,0,1,0-21.33334H352a10.66667,10.66667,0,0,1,0,21.33334Z" style="fill:#eff2ff"/><path d="M170.66667,106.66667V256c0,42.66667,21.33333,64,21.33333,64v10.66667a10.66667,10.66667,0,0,0,21.33333,0V320s21.33334-21.33333,21.33334-64V106.66667Z" style="fill:#bcc5ff"/><path d="M170.673,257.2736c.27258,27.25754,42.38138,27.25754,42.654,0q.00633-.6336.00635-1.2736V106.66667H170.66667V256Q170.66667,256.64,170.673,257.2736Z" style="fill:#eff2ff"/><path d="M192,330.66667a10.66667,10.66667,0,0,0,21.33333,0V320s21.33334-21.33333,21.33334-64V234.66667h-64V256c0,42.66667,21.33333,64,21.33333,64Z" style="fill:#b244f1"/><path d="M256,74.66667a53.33388,53.33388,0,1,0-85.33333,42.42578v32.24088h64V117.09245A53.07711,53.07711,0,0,0,256,74.66667Z" style="fill:#163969"/><ellipse cx="192" cy="42.66667" rx="24.64347" ry="17.40033" transform="translate(26.06561 148.26128) rotate(-45)" style="fill:#5e7599"/><path d="M170.673,257.2736c.27258,27.25754,42.38138,27.25754,42.654,0q.00633-.6336.00635-1.2736V234.66667H170.66667V256Q170.66667,256.64,170.673,257.2736Z" style="fill:#c175ff"/></g></svg>