<svg xmlns="http://www.w3.org/2000/svg" viewBox="0 0 512 512"><title>Artboard 146</title><g id="Artificial_Intelligent" data-name="Artificial Intelligent"><path d="M255.99983,21.33333h.00034a170.6665,170.6665,0,0,1,170.6665,170.6665v42.66684a0,0,0,0,1,0,0H85.33333a0,0,0,0,1,0,0V191.99983A170.6665,170.6665,0,0,1,255.99983,21.33333Z" style="fill:#5cbeff"/><circle cx="256" cy="192" r="149.33333" style="fill:#ffbe00"/><ellipse cx="202.66667" cy="117.33333" rx="59.17025" ry="46.76867" transform="translate(-23.6075 177.67311) rotate(-45)" style="fill:#ffd80c"/><circle cx="202.66667" cy="53.33333" r="32" style="fill:#b7e8c4"/><circle cx="309.33333" cy="53.33333" r="32" style="fill:#b7e8c4"/><path d="M224,213.33333a10.66053,10.66053,0,0,1-10.66667-10.66666V143.08333L195.125,124.875A10.65893,10.65893,0,0,1,192,117.33333v-64a10.66666,10.66666,0,0,1,21.33333,0v59.58334L231.54167,131.125a10.65893,10.65893,0,0,1,3.125,7.54167v64A10.66053,10.66053,0,0,1,224,213.33333Z" style="fill:#4cc66e"/><path d="M288,213.33333a10.66053,10.66053,0,0,1-10.66667-10.66666v-64a10.65893,10.65893,0,0,1,3.125-7.54167l18.20834-18.20833V53.33333a10.66666,10.66666,0,0,1,21.33333,0v64a10.65893,10.65893,0,0,1-3.125,7.54167l-18.20833,18.20833v59.58334A10.66053,10.66053,0,0,1,288,213.33333Z" style="fill:#4cc66e"/><circle cx="117.33333" cy="96" r="32" style="fill:#b7e8c4"/><path d="M160,213.33333a10.66053,10.66053,0,0,1-10.66667-10.66666V149.33333h-32a10.66053,10.66053,0,0,1-10.66666-10.66666V96A10.66667,10.66667,0,1,1,128,96v32h32a10.66054,10.66054,0,0,1,10.66667,10.66667v64A10.66053,10.66053,0,0,1,160,213.33333Z" style="fill:#4cc66e"/><path d="M160,213.33333a10.66053,10.66053,0,0,1-10.66667-10.66666v-21.75a10.66667,10.66667,0,0,1,21.33334,0v21.75A10.66053,10.66053,0,0,1,160,213.33333Z" style="fill:#14a142"/><path d="M224,213.33333a10.66053,10.66053,0,0,1-10.66667-10.66666v-21.75a10.66667,10.66667,0,0,1,21.33334,0v21.75A10.66053,10.66053,0,0,1,224,213.33333Z" style="fill:#14a142"/><path d="M288,213.33333a10.66053,10.66053,0,0,1-10.66667-10.66666v-21.75a10.66667,10.66667,0,0,1,21.33334,0v21.75A10.66053,10.66053,0,0,1,288,213.33333Z" style="fill:#14a142"/><circle cx="394.66667" cy="96" r="32" style="fill:#b7e8c4"/><path d="M352,213.33333a10.66053,10.66053,0,0,1-10.66667-10.66666v-64A10.66054,10.66054,0,0,1,352,128h32V96a10.66666,10.66666,0,1,1,21.33333,0v42.66667a10.66053,10.66053,0,0,1-10.66666,10.66666h-32v53.33334A10.66053,10.66053,0,0,1,352,213.33333Z" style="fill:#4cc66e"/><path d="M352,213.33333a10.66053,10.66053,0,0,1-10.66667-10.66666v-21.75a10.66667,10.66667,0,0,1,21.33334,0v21.75A10.66053,10.66053,0,0,1,352,213.33333Z" style="fill:#14a142"/><rect x="42.66667" y="234.66667" width="85.33333" height="128" rx="42.66662" ry="42.66662" style="fill:#5cbeff"/><rect x="384" y="234.66667" width="85.33333" height="128" rx="42.66662" ry="42.66662" style="fill:#079cff"/><path d="M426.66667,191.99983V320.00017a170.66651,170.66651,0,0,1-170.6665,170.6665h-.00034a170.66651,170.66651,0,0,1-170.6665-170.6665V191.99983Z" style="fill:#bce4ff"/><rect x="106.66667" y="256" width="64" height="128" rx="31.99997" ry="31.99997" style="fill:#eff2ff"/><path d="M320,192H277.33333V298.66667s21.33334,0,21.33334,21.33333a21.33321,21.33321,0,0,1-21.59888,21.33145C265.38133,341.189,256,350.97934,256,362.66667v42.66666c0,11.68607,9.37962,21.47834,21.0648,21.33479A21.3326,21.3326,0,0,1,298.66667,448v37.07292c73.57031-18.97266,128-85.57813,128-165.07292V192Z" style="fill:#5cbeff"/><rect x="213.33333" y="362.66667" width="85.33333" height="42.66667" rx="21.33331" ry="21.33331" style="fill:#0784ff"/><circle cx="170.66667" cy="213.33333" r="21.33333" style="fill:#0784ff"/><circle cx="341.33333" cy="213.33333" r="21.33333" style="fill:#0784ff"/><rect x="320" y="256" width="85.33333" height="64" rx="31.99997" ry="31.99997" style="fill:#bce4ff"/><circle cx="341.33333" cy="384" r="21.33333" style="fill:#bce4ff"/></g></svg>