<svg xmlns="http://www.w3.org/2000/svg" viewBox="0 0 512 512"><title>Artboard 144</title><g id="Wheater"><path d="M298.66667,192c0,11.02607-11.12891,20.44153-13.84847,30.61005-2.81219,10.51489,2.0348,24.213-3.29332,33.41885-5.40411,9.33716-19.7414,11.95084-27.3207,19.52836-7.57788,7.5761-10.193,21.91166-19.52952,27.31305-9.206,5.32589-22.90237.47608-33.41689,3.28629C191.09516,308.87276,181.6856,320,170.66667,320c-11.02607,0-20.44153-11.12891-30.61-13.84846-10.5149-2.8122-24.213,2.03479-33.41885-3.29333-9.33716-5.4041-11.95084-19.7414-19.52836-27.3207-7.5761-7.57788-21.91167-10.193-27.313-19.52951-5.32589-9.206-.47609-22.90238-3.2863-33.4169C53.79391,212.42849,42.66667,203.01893,42.66667,192c0-11.02607,11.1289-20.44153,13.84846-30.61,2.8122-10.51489-2.03479-24.213,3.29333-33.41885,5.4041-9.33716,19.7414-11.95084,27.32069-19.52836,7.57789-7.5761,10.193-21.91166,19.52952-27.31305,9.206-5.32589,22.90238-.47608,33.4169-3.28629C150.23818,75.12724,159.64773,64,170.66667,64c11.02607,0,20.44152,11.12891,30.61005,13.84846,10.51489,2.8122,24.213-2.03479,33.41885,3.29333,9.33715,5.4041,11.95084,19.7414,19.52836,27.3207,7.5761,7.57788,21.91166,10.193,27.31305,19.52951,5.32588,9.206.47608,22.90238,3.28629,33.4169C287.53942,171.57151,298.66667,180.98107,298.66667,192Z" style="fill:#ffc200"/><circle cx="170.66667" cy="192" r="85.33333" style="fill:#f98b00"/><ellipse cx="138.66667" cy="160" rx="40.46829" ry="20.23414" transform="translate(-72.52256 144.91506) rotate(-45)" style="fill:#ffa300"/><path d="M447.25651,302.35547A140.18828,140.18828,0,0,0,448,288,138.66686,138.66686,0,0,0,309.33333,149.33333c-64.94531,0-119.306,44.71224-134.375,104.98828a95.85489,95.85489,0,1,0-57.625,172.34506H426.66667a63.83334,63.83334,0,0,0,20.58984-124.3112Z" style="fill:#bcc5ff"/><path d="M384,277.33333a106.54637,106.54637,0,0,0-210.35938-24.099,95.89183,95.89183,0,1,0-56.30729,173.43229c43.29948,0,79.47526-28.85547,91.44011-68.2461C227.35677,374.14974,251.08073,384,277.33333,384a105.47089,105.47089,0,0,0,50.22006-13.10547A63.8804,63.8804,0,1,0,384,277.33333Z" style="fill:#d6deff"/><ellipse cx="373.33333" cy="330.66667" rx="37.6503" ry="25.1002" transform="translate(-124.46984 360.83656) rotate(-45)" style="fill:#eff2ff"/><ellipse cx="245.33333" cy="245.33333" rx="62.75049" ry="41.83366" transform="translate(-101.62039 245.33333) rotate(-45)" style="fill:#eff2ff"/><ellipse cx="85.33333" cy="320" rx="50.2004" ry="33.46693" transform="translate(-201.28062 154.06561) rotate(-45)" style="fill:#eff2ff"/></g></svg>