<svg xmlns="http://www.w3.org/2000/svg" viewBox="0 0 512 512"><title>Artboard 121</title><g id="Hanger_Double_Test_Tube" data-name="Hanger &amp; Double Test Tube"><path d="M448,64H341.33331A21.33331,21.33331,0,0,0,320,85.33331v0a21.33331,21.33331,0,0,0,21.33331,21.33332l0,245.33339a53.33328,53.33328,0,0,0,53.33328,53.33327h.00011A53.33327,53.33327,0,0,0,448,352.00006l0-245.33339a21.33331,21.33331,0,0,0,21.33331-21.33332v0A21.33331,21.33331,0,0,0,448,64Z" style="fill:#bcc5ff"/><path d="M320,85.33333a21.33356,21.33356,0,0,0,21.33333,21.33334V352a53.606,53.606,0,0,0,.603,8.036c5.12968,33.84769,57.66429,33.84769,62.794,0a53.60465,53.60465,0,0,0,.603-8.036V106.66667a21.33334,21.33334,0,1,0,0-42.66667h-64A21.33272,21.33272,0,0,0,320,85.33333Z" style="fill:#d6deff"/><path d="M341.33333,352A53.33333,53.33333,0,0,0,448,352V256H341.33333Z" style="fill:#ffa300"/><path d="M341.93635,360.036c5.12968,33.84769,57.66429,33.84769,62.794,0a53.60465,53.60465,0,0,0,.603-8.036V256h-64v96A53.606,53.606,0,0,0,341.93635,360.036Z" style="fill:#ffbe00"/><rect x="42.66667" y="106.66667" width="426.66667" height="42.66667" rx="21.33331" ry="21.33331" style="fill:#33527d"/><rect x="320" y="106.66667" width="149.33333" height="42.66667" rx="21.33331" ry="21.33331" style="fill:#7d8fac"/><rect x="341.33333" y="106.66667" width="64" height="42.66667" rx="21.33331" ry="21.33331" style="fill:#adb9ca"/><path d="M170.66669,64H64A21.33331,21.33331,0,0,0,42.66667,85.33331v0A21.33331,21.33331,0,0,0,64,106.66667l0,245.33339a53.33327,53.33327,0,0,0,53.33328,53.33327h.00011a53.33329,53.33329,0,0,0,53.33328-53.33327l0-245.33339A21.33331,21.33331,0,0,0,192,85.33335v0A21.33331,21.33331,0,0,0,170.66669,64Z" style="fill:#bcc5ff"/><path d="M42.66667,85.33333A21.33356,21.33356,0,0,0,64,106.66667V352a53.60465,53.60465,0,0,0,.603,8.036c5.12967,33.84769,57.66429,33.84769,62.794,0A53.60465,53.60465,0,0,0,128,352V106.66667A21.33334,21.33334,0,0,0,128,64H64A21.33272,21.33272,0,0,0,42.66667,85.33333Z" style="fill:#d6deff"/><path d="M64,352a53.33334,53.33334,0,0,0,106.66667,0V256H64Z" style="fill:#bc5cf3"/><circle cx="85.33333" cy="85.33333" r="21.33333" style="fill:#eff2ff"/><rect x="42.66667" y="106.66667" width="149.33333" height="42.66667" rx="21.33331" ry="21.33331" style="fill:#7d8fac"/><rect x="64" y="106.66667" width="64" height="42.66667" rx="21.33331" ry="21.33331" style="fill:#adb9ca"/><rect x="234.66667" y="21.33333" width="42.66667" height="469.33333" rx="21.33331" ry="21.33331" style="fill:#33527d"/><path d="M64,448H448a42.66662,42.66662,0,0,1,42.66662,42.66662v0a0,0,0,0,1,0,0H21.33333a0,0,0,0,1,0,0v0A42.66662,42.66662,0,0,1,64,448Z" style="fill:#ffbe00"/><path d="M64,448H362.66671a42.66662,42.66662,0,0,1,42.66662,42.66662v0a0,0,0,0,1,0,0h-384a0,0,0,0,1,0,0v0A42.66662,42.66662,0,0,1,64,448Z" style="fill:#ffd80c"/><rect x="213.33333" y="64" width="85.33333" height="128" rx="21.33333" ry="21.33333" style="fill:#cdd4df"/><circle cx="362.66667" cy="85.33333" r="21.33333" style="fill:#eff2ff"/><path d="M64.603,360.036c5.12967,33.84769,57.66429,33.84769,62.794,0A53.60465,53.60465,0,0,0,128,352V256H64v96A53.60465,53.60465,0,0,0,64.603,360.036Z" style="fill:#c175ff"/><rect x="213.33333" y="64" width="42.66667" height="128" rx="21.33331" ry="21.33331" style="fill:#e5e8ef"/><path d="M149.33329,448h64.00009A42.66662,42.66662,0,0,1,256,490.66662v0a0,0,0,0,1,0,0H106.66667a0,0,0,0,1,0,0v0A42.66662,42.66662,0,0,1,149.33329,448Z" style="fill:#ffec6c"/></g></svg>