<svg xmlns="http://www.w3.org/2000/svg" viewBox="0 0 512 512"><title>Artboard 149</title><g id="Plants"><path d="M277.33333,277.33333c-42.66666,42.66667-128,64-149.33333,0-13.49238-40.47715-8.9357-72.9357-42.66667-106.66666-42.66666-42.66667-42.66666-128-42.66666-128C42.66667,21.33333,64,21.33333,64,21.33333s14.58714,1.09476,21.33333,21.33334C97.19368,78.24772,143.1544,76.52856,192.00177,88.72322c39.01488,9.74,79.87126,28.35617,106.6649,81.94345C320,213.33333,307.50322,247.16344,277.33333,277.33333Z" style="fill:#14a142"/><path d="M186.20833,317.72917c-28.85416,0-49.52083-14.34375-58.20833-40.39584-4.08333-12.26041-6.60417-24.13541-8.8125-34.61458-5.54167-26.0625-10.29167-48.5-33.85417-72.05208-38.75-38.75-42.3125-114.63542-42.58333-123.15625A21.3143,21.3143,0,0,1,63.375,25.48958c10.66667-.53125,21.625,8.83334,22,20.625.75,22.97917,8.02083,72.27084,30.125,94.38542,32.49981,32.47917,39.35417,64.77083,45.41667,93.27083,2.10416,9.95834,4.25,20.125,7.5625,30.08334,2.47916,7.42708,5.89583,11.20833,17.72916,11.20833a21.33333,21.33333,0,1,1,0,42.66667Z" style="fill:#008732"/><path d="M266.66667,341.33333A10.66053,10.66053,0,0,1,256,330.66667c0-92.10417-52.5-124.40625-103.27083-155.64584C114.125,151.26042,74.1875,126.6875,64.20833,76.76042A10.66586,10.66586,0,0,1,85.125,72.57292c8.16667,40.82291,40.89583,60.95833,78.79167,84.28125,53.16666,32.70833,113.41666,69.78125,113.41666,173.8125A10.66053,10.66053,0,0,1,266.66667,341.33333Z" style="fill:#66ce83"/><path d="M117.33333,149.33333a10.66053,10.66053,0,0,1-10.66666-10.66666V96A10.66667,10.66667,0,1,1,128,96v42.66667A10.66053,10.66053,0,0,1,117.33333,149.33333Z" style="fill:#66ce83"/><path d="M181.33333,192H138.66667a10.66667,10.66667,0,1,1,0-21.33333h42.66666a10.66667,10.66667,0,1,1,0,21.33333Z" style="fill:#66ce83"/><path d="M245.33333,256a10.66053,10.66053,0,0,1-10.66666-10.66667v-64a10.66666,10.66666,0,0,1,21.33333,0v64A10.66053,10.66053,0,0,1,245.33333,256Z" style="fill:#66ce83"/><path d="M149.33333,234.66667C149.33333,298.66667,192,320,256,320c21.33333,0,85.33333,0,106.66667-42.66667,30.16989-60.33978,0-85.33333,42.66666-106.66666,19.08112-9.54056,64-21.33334,64-64s21.33334-42.66667,21.33334-64-21.33334-21.33334-21.33334-21.33334c-42.66666,0-64,21.33334-106.66666,21.33334s-68.59809,17.5638-85.33334,42.66666C234.66667,149.33333,149.33333,149.33333,149.33333,234.66667Z" style="fill:#4cc66e"/><path d="M256,320a21.33334,21.33334,0,0,1,0-42.66667c51.29167,0,64.9375-11.95833,68.5-19.08333,9.60417-19.17708,10.64583-32.28125,11.75-46.15625,1.85417-22.69792,4.625-56.90625,50-79.59375,3.54167-1.76042,7.70833-3.59375,12.3125-5.57292,23.75-10.21875,28.10417-14.84375,28.10417-20.26041,0-38.51042,13.25-57.29167,21.1875-68.52084q.5625-.81249,1-1.4375a21.38316,21.38316,0,0,1,20.47916-15.34375h.02084a21.31662,21.31662,0,0,1,21.3125,21.30209c0,8.82291-3.6875,14.04166-7.95834,20.07291-5.95833,8.45834-13.375,18.95834-13.375,43.92709,0,36.27083-32.4375,50.21875-53.89583,59.44791-3.8125,1.64584-7.27083,3.14584-10.14583,4.57292-23.83334,11.91667-24.89584,25-26.5,44.79167-1.27084,15.71875-2.83334,35.27083-16.125,61.86458C341.33333,320,277.10417,320,256,320Z" style="fill:#14a142"/><path d="M202.6875,362.66667c-.33333,0-.66667-.02084-1-.05209a10.67069,10.67069,0,0,1-9.64583-11.58333c.22916-2.41667,24.5-242.59375,242.22916-307.91667a10.6678,10.6678,0,0,1,6.125,20.4375C236.66667,124.66667,213.5,350.69792,213.29167,352.96875A10.681,10.681,0,0,1,202.6875,362.66667Z" style="fill:#84d89c"/><path d="M352,170.66667H288a10.66667,10.66667,0,0,1,0-21.33334h64a10.66667,10.66667,0,0,1,0,21.33334Z" style="fill:#84d89c"/><path d="M224,256a10.63213,10.63213,0,0,1-7.54167-3.125l-42.66666-42.66667A10.66552,10.66552,0,0,1,188.875,195.125l42.66667,42.66667A10.66667,10.66667,0,0,1,224,256Z" style="fill:#84d89c"/><path d="M416,106.66667H352a10.66667,10.66667,0,0,1,0-21.33334h64a10.66667,10.66667,0,1,1,0,21.33334Z" style="fill:#84d89c"/><path d="M309.33333,128a10.63211,10.63211,0,0,1-7.54166-3.125l-21.33334-21.33333a10.66553,10.66553,0,0,1,15.08334-15.08334L316.875,109.79167A10.66667,10.66667,0,0,1,309.33333,128Z" style="fill:#84d89c"/><path d="M362.66667,320H149.33333a21.33334,21.33334,0,0,0,0,42.66667h5.33334l13.66406,109.3125A21.3342,21.3342,0,0,0,189.5,490.66667h133a21.3342,21.3342,0,0,0,21.16927-18.6875l13.66406-109.3125h5.33334a21.33334,21.33334,0,0,0,0-42.66667Z" style="fill:#ffc200"/><path d="M301.0026,471.97917l13.66407-109.3125H320A21.33334,21.33334,0,0,0,320,320H149.33333a21.33334,21.33334,0,0,0,0,42.66667h5.33334l13.66406,109.3125A21.3342,21.3342,0,0,0,189.5,490.66667h90.33333A21.33419,21.33419,0,0,0,301.0026,471.97917Z" style="fill:#ffd80c"/><rect x="149.33333" y="320" width="85.33333" height="42.66667" rx="21.33331" ry="21.33331" style="fill:#ffec6c"/><path d="M201.125,469.33333a21.3394,21.3394,0,0,1-21.10417-18.3125l-6.10416-42.66666a21.3399,21.3399,0,0,1,42.25-6.04167l6.10416,42.66667a21.33057,21.33057,0,0,1-18.10416,24.13541A21.55717,21.55717,0,0,1,201.125,469.33333Z" style="fill:#ffec6c"/></g></svg>