<svg xmlns="http://www.w3.org/2000/svg" viewBox="0 0 512 512"><title>Artboard 133</title><g id="Capsule_Pill" data-name="Capsule &amp; Pill"><path d="M57.05208,454.94792h0a123.81648,123.81648,0,0,0,175.10417,0L454.39583,232.70833A123.81734,123.81734,0,0,0,279.29167,57.60417L57.05208,279.84375A123.81648,123.81648,0,0,0,57.05208,454.94792Z" style="fill:#bc5cf3"/><path d="M279.29167,57.60417,57.05208,279.84375a124.70919,124.70919,0,0,0-8.66177,9.60715C-8.28451,359.29932,88.70068,456.28451,158.5491,399.60969a124.70919,124.70919,0,0,0,9.60715-8.66177L390.39583,168.70833a124.7114,124.7114,0,0,0,8.66178-9.60715C455.73243,89.25277,358.74723-7.73243,288.89882,48.94239A124.7114,124.7114,0,0,0,279.29167,57.60417Z" style="fill:#c175ff"/><path d="M256,298.66667a21.26422,21.26422,0,0,1-15.08333-6.25l-64-64A21.33105,21.33105,0,0,1,207.08333,198.25l64,64A21.33334,21.33334,0,0,1,256,298.66667Z" style="fill:#b244f1"/><path d="M454.39583,57.60417a123.81645,123.81645,0,0,0-175.10416,0L168.44792,168.44792,343.55208,343.55208,454.39583,232.70833A123.81645,123.81645,0,0,0,454.39583,57.60417Z" style="fill:#bcc5ff"/><path d="M399.05761,159.10118C455.73243,89.25277,358.74723-7.73243,288.89882,48.94239a124.7114,124.7114,0,0,0-9.60715,8.66178L168.44792,168.44792,279.55208,279.55208,390.39583,168.70833A124.7114,124.7114,0,0,0,399.05761,159.10118Z" style="fill:#d6deff"/><path d="M85.33333,341.33333A21.33333,21.33333,0,0,1,70.25,304.91667l64-64a21.33105,21.33105,0,0,1,30.16667,30.16666l-64,64A21.2642,21.2642,0,0,1,85.33333,341.33333Z" style="fill:#dfb7ff"/><path d="M256,170.66667A21.33334,21.33334,0,0,1,240.91667,134.25l64-64a21.33105,21.33105,0,0,1,30.16666,30.16667l-64,64A21.26422,21.26422,0,0,1,256,170.66667Z" style="fill:#eff2ff"/><circle cx="330.66667" cy="330.66667" r="160" style="fill:#ffa300"/><path d="M234.66667,426.66667A21.33334,21.33334,0,0,1,219.58333,390.25L390.25,219.58333A21.33106,21.33106,0,1,1,420.41667,249.75L249.75,420.41667A21.26424,21.26424,0,0,1,234.66667,426.66667Z" style="fill:#f98b00"/><path d="M443.80375,217.52958A160,160,0,0,1,217.52958,443.80375Z" style="fill:#ffd80c"/><path d="M213.33333,352A21.33438,21.33438,0,0,1,192,330.66667C192,254.20833,254.20833,192,330.66667,192a21.33333,21.33333,0,0,1,0,42.66667,96.105,96.105,0,0,0-96,96A21.33439,21.33439,0,0,1,213.33333,352Z" style="fill:#ffd80c"/><path d="M413.63411,247.69922,247.69922,413.63411A117.33369,117.33369,0,0,0,413.63411,247.69922Z" style="fill:#ffec6c"/></g></svg>