<?xml version="1.0" encoding="utf-8"?>
<!-- Generator: Adobe Illustrator 21.1.0, SVG Export Plug-In . SVG Version: 6.00 Build 0)  -->
<svg version="1.1" id="Icon_Set" xmlns="http://www.w3.org/2000/svg" xmlns:xlink="http://www.w3.org/1999/xlink" x="0px" y="0px"
	 viewBox="0 0 64 64" style="enable-background:new 0 0 64 64;" xml:space="preserve">
<style type="text/css">
	.st0{fill:none;stroke:#37474F;stroke-linecap:round;stroke-linejoin:round;stroke-miterlimit:10;}
	.st1{fill:#FFB300;stroke:#37474F;stroke-linecap:round;stroke-linejoin:round;stroke-miterlimit:10;}
	.st2{fill:#90CAF9;stroke:#37474F;stroke-linecap:round;stroke-linejoin:round;stroke-miterlimit:10;}
	.st3{fill:#FFFFFF;stroke:#37474F;stroke-linecap:round;stroke-linejoin:round;stroke-miterlimit:10;}
	.st4{fill:#FF7043;stroke:#37474F;stroke-linecap:round;stroke-linejoin:round;stroke-miterlimit:10;}
	.st5{fill:#9CCC65;stroke:#37474F;stroke-linecap:round;stroke-linejoin:round;stroke-miterlimit:10;}
	.st6{fill:#37474F;}
	.st7{fill:#37474F;stroke:#37474F;stroke-linecap:round;stroke-linejoin:round;stroke-miterlimit:10;}
	.st8{fill:none;stroke:#37474F;stroke-linecap:square;stroke-linejoin:round;stroke-miterlimit:10;}
</style>
<g id="Stocks_Up_And_Down">
	<g>
		<g>
			<g>
				<circle class="st0" cx="14.5" cy="29" r="8"/>
				<path class="st1" d="M20,24.4l0.6-0.5C19.2,22.1,17,21,14.5,21c-4.4,0-8,3.6-8,8h0.8C11.9,29,16.5,27.4,20,24.4z"/>
			</g>
			<g>
				<g>
					<path class="st0" d="M14.5,37c-1.1,0-2.1-0.2-3-0.6l0,1.6l3,4.5l3-4.5l0-1.6C16.6,36.8,15.6,37,14.5,37z"/>
					<path class="st0" d="M2.5,60V45.3c0-2,1.2-3.8,3-4.6l6-2.7l3,4.5l3-4.5l3.8,1.7c1.1,0.5,2.1,1.2,2.9,2l3.7,3.7l5.3-5.3l3.5,3.5
						l-7.1,7.1c-1,1-2.6,1-3.5,0l-4.6-4.6l0,13.9"/>
					<line class="st0" x1="7.5" y1="48" x2="7.5" y2="60"/>
					<polygon class="st2" points="17,54.5 14.5,57 12,54.5 13.5,42.5 15.5,42.5 					"/>
					<polygon class="st0" points="11.5,38 11,42.5 18,42.5 17.5,38 14.5,42.5 					"/>
				</g>
				<path class="st0" d="M34.6,38.7L34.6,38.7c1-1,2.6-1,3.5,0l0,0c1,1,1,2.6,0,3.5l0,0"/>
			</g>
		</g>
		<g>
			<line class="st0" x1="43.5" y1="47" x2="48.5" y2="47"/>
			<line class="st0" x1="50.5" y1="47" x2="51.5" y2="47"/>
		</g>
		<g>
			<line class="st0" x1="8.5" y1="13" x2="3.5" y2="13"/>
			<line class="st0" x1="1.5" y1="13" x2="0.5" y2="13"/>
		</g>
		<g>
			<path class="st0" d="M63.5,29.5c0,1.4-1.1,2.5-2.5,2.5H30c-1.4,0-2.5-1.1-2.5-2.5v-23C27.5,5.1,28.6,4,30,4h31
				c1.4,0,2.5,1.1,2.5,2.5V29.5z"/>
			<path class="st5" d="M59.7,7.8c-0.1-0.2-0.3-0.4-0.5-0.5c-0.1-0.1-0.3-0.1-0.4-0.1h-5c-0.6,0-1,0.4-1,1s0.4,1,1,1h2.6l-7.1,7.1
				l-2.8-2.8c-0.4-0.4-1-0.4-1.4,0L41.5,17c-0.4,0.4-0.4,1,0,1.4s1,0.4,1.4,0l2.8-2.8l2.8,2.8c0.2,0.2,0.4,0.3,0.7,0.3
				s0.5-0.1,0.7-0.3l7.8-7.8v2.6c0,0.6,0.4,1,1,1s1-0.4,1-1v-5C59.8,8.1,59.8,7.9,59.7,7.8z"/>
			<path class="st4" d="M59.8,22.8c0-0.6-0.4-1-1-1s-1,0.4-1,1v2.6l-4.3-4.3c-0.4-0.4-1-0.4-1.4,0l-2.8,2.8l-2.8-2.8
				c-0.4-0.4-1-0.4-1.4,0s-0.4,1,0,1.4l3.5,3.5c0.4,0.4,1,0.4,1.4,0l2.8-2.8l3.6,3.6h-2.6c-0.6,0-1,0.4-1,1s0.4,1,1,1h5
				c0.1,0,0.3,0,0.4-0.1c0.2-0.1,0.4-0.3,0.5-0.5c0.1-0.1,0.1-0.3,0.1-0.4V22.8z"/>
			<line class="st0" x1="32.5" y1="10.5" x2="38.5" y2="10.5"/>
			<line class="st0" x1="32.5" y1="15.5" x2="38.5" y2="15.5"/>
			<line class="st0" x1="32.5" y1="20.5" x2="38.5" y2="20.5"/>
			<line class="st0" x1="32.5" y1="25.5" x2="38.5" y2="25.5"/>
		</g>
	</g>
</g>
</svg>
