<?xml version="1.0" encoding="utf-8"?>
<!-- Generator: Adobe Illustrator 21.1.0, SVG Export Plug-In . SVG Version: 6.00 Build 0)  -->
<svg version="1.1" id="Icon_Set" xmlns="http://www.w3.org/2000/svg" xmlns:xlink="http://www.w3.org/1999/xlink" x="0px" y="0px"
	 viewBox="0 0 64 64" style="enable-background:new 0 0 64 64;" xml:space="preserve">
<style type="text/css">
	.st0{fill:none;stroke:#37474F;stroke-linecap:round;stroke-linejoin:round;stroke-miterlimit:10;}
	.st1{fill:#FFB300;stroke:#37474F;stroke-linecap:round;stroke-linejoin:round;stroke-miterlimit:10;}
	.st2{fill:#90CAF9;stroke:#37474F;stroke-linecap:round;stroke-linejoin:round;stroke-miterlimit:10;}
	.st3{fill:#FFFFFF;stroke:#37474F;stroke-linecap:round;stroke-linejoin:round;stroke-miterlimit:10;}
	.st4{fill:#FF7043;stroke:#37474F;stroke-linecap:round;stroke-linejoin:round;stroke-miterlimit:10;}
	.st5{fill:#9CCC65;stroke:#37474F;stroke-linecap:round;stroke-linejoin:round;stroke-miterlimit:10;}
	.st6{fill:#37474F;}
	.st7{fill:#37474F;stroke:#37474F;stroke-linecap:round;stroke-linejoin:round;stroke-miterlimit:10;}
	.st8{fill:none;stroke:#37474F;stroke-linecap:square;stroke-linejoin:round;stroke-miterlimit:10;}
</style>
<g id="User_Location">
	<g>
		<g>
			<g>
				<path class="st0" d="M35.5,20.5c-0.1,0-0.2,0-0.3,0c-1.1-4.9-5.5-8.5-10.7-8.5s-9.6,3.6-10.7,8.5c-0.1,0-0.2,0-0.3,0
					c-1.4,0-2.5,1.1-2.5,2.5s1.1,2.5,2.5,2.5c0.1,0,0.2,0,0.3,0c1.1,4.9,5.5,8.5,10.7,8.5s9.6-3.6,10.7-8.5c0.1,0,0.2,0,0.3,0
					c1.4,0,2.5-1.1,2.5-2.5S36.9,20.5,35.5,20.5z"/>
				<path class="st1" d="M14.5,22H14v-6.5h3v4C17,20.9,15.9,22,14.5,22z"/>
				<path class="st1" d="M31.5,15.5H14v0c0-4.1,3.4-7.5,7.5-7.5h5.2C28.9,8,31,7.5,33,6.6L36.5,5v5.5C36.5,13.3,34.3,15.5,31.5,15.5
					z"/>
				<path class="st1" d="M32,15.4v4.1c0,1.4,1.1,2.5,2.5,2.5H35v-7.9C34.2,14.8,33.2,15.3,32,15.4z"/>
				<g>
					<circle class="st6" cx="28" cy="21.5" r="1"/>
					<circle class="st6" cx="21" cy="21.5" r="1"/>
				</g>
				<path class="st0" d="M21,26.5c2,2,5.1,2,7.1,0"/>
			</g>
			<g>
				<line class="st0" x1="14.5" y1="59" x2="14.5" y2="49"/>
				<line class="st0" x1="14.5" y1="51" x2="6.5" y2="51"/>
				<line class="st0" x1="42.5" y1="51" x2="34.5" y2="51"/>
				<line class="st0" x1="14.5" y1="59" x2="14.5" y2="49"/>
				<path class="st0" d="M42.5,59V45.9c0-3-1.8-5.7-4.5-6.9L28.5,35l0,0c-1.9,2.9-6.1,2.9-8,0l0,0L11,39.1c-2.8,1.2-4.5,3.9-4.5,6.9
					V59"/>
				<line class="st0" x1="34.5" y1="59" x2="34.5" y2="49"/>
				<path class="st0" d="M24.5,34c-1.4,0-2.8-0.3-4-0.8V35l0,0c1.9,2.9,6.1,2.9,8,0l0,0v-1.8C27.3,33.7,25.9,34,24.5,34z"/>
			</g>
		</g>
		<g>
			<line class="st0" x1="8.5" y1="34" x2="3.5" y2="34"/>
			<line class="st0" x1="1.5" y1="34" x2="0.5" y2="34"/>
		</g>
		<g>
			<line class="st0" x1="40.5" y1="15" x2="45.5" y2="15"/>
			<line class="st0" x1="47.5" y1="15" x2="48.5" y2="15"/>
		</g>
		<path class="st4" d="M48.6,47.3L55.5,59l6.9-11.7c1.9-3.2,1.3-7.2-1.3-9.8c-3.1-3-8-3-11.1,0C47.3,40.1,46.7,44.1,48.6,47.3z
			 M51.5,43.2c0-2.2,1.8-4,4-4s4,1.8,4,4s-1.8,4-4,4S51.5,45.5,51.5,43.2z"/>
		<g>
			<path class="st0" d="M47.7,25.5c4.3-4.3,11.3-4.3,15.6,0"/>
			<path class="st0" d="M50.6,28.3c2.7-2.7,7.2-2.7,9.9,0"/>
			<path class="st0" d="M53.4,31.1c1.2-1.2,3.1-1.2,4.2,0"/>
		</g>
	</g>
</g>
</svg>
