<?xml version="1.0" encoding="utf-8"?>
<!-- Generator: Adobe Illustrator 21.1.0, SVG Export Plug-In . SVG Version: 6.00 Build 0)  -->
<svg version="1.1" id="Icon_Set" xmlns="http://www.w3.org/2000/svg" xmlns:xlink="http://www.w3.org/1999/xlink" x="0px" y="0px"
	 viewBox="0 0 64 64" style="enable-background:new 0 0 64 64;" xml:space="preserve">
<style type="text/css">
	.st0{fill:none;stroke:#37474F;stroke-linecap:round;stroke-linejoin:round;stroke-miterlimit:10;}
	.st1{fill:#FFB300;stroke:#37474F;stroke-linecap:round;stroke-linejoin:round;stroke-miterlimit:10;}
	.st2{fill:#90CAF9;stroke:#37474F;stroke-linecap:round;stroke-linejoin:round;stroke-miterlimit:10;}
	.st3{fill:#FFFFFF;stroke:#37474F;stroke-linecap:round;stroke-linejoin:round;stroke-miterlimit:10;}
	.st4{fill:#FF7043;stroke:#37474F;stroke-linecap:round;stroke-linejoin:round;stroke-miterlimit:10;}
	.st5{fill:#9CCC65;stroke:#37474F;stroke-linecap:round;stroke-linejoin:round;stroke-miterlimit:10;}
	.st6{fill:#37474F;}
	.st7{fill:#37474F;stroke:#37474F;stroke-linecap:round;stroke-linejoin:round;stroke-miterlimit:10;}
	.st8{fill:none;stroke:#37474F;stroke-linecap:square;stroke-linejoin:round;stroke-miterlimit:10;}
</style>
<g id="Income_Settings">
	<g>
		<g>
			<line class="st0" x1="8.5" y1="33" x2="3.5" y2="33"/>
			<line class="st0" x1="1.5" y1="33" x2="0.5" y2="33"/>
		</g>
		<g>
			<line class="st0" x1="43" y1="6" x2="48" y2="6"/>
			<line class="st0" x1="50" y1="6" x2="51" y2="6"/>
		</g>
		<g>
			<g>
				<path class="st0" d="M34,20.5c-0.1,0-0.2,0-0.3,0C32.6,15.6,28.2,12,23,12s-9.6,3.6-10.7,8.5c-0.1,0-0.2,0-0.3,0
					c-1.4,0-2.5,1.1-2.5,2.5s1.1,2.5,2.5,2.5c0.1,0,0.2,0,0.3,0C13.4,30.4,17.8,34,23,34s9.6-3.6,10.7-8.5c0.1,0,0.2,0,0.3,0
					c1.4,0,2.5-1.1,2.5-2.5S35.4,20.5,34,20.5z"/>
				<path class="st1" d="M13,22h-0.5v-6.5h3v4C15.5,20.9,14.4,22,13,22z"/>
				<path class="st1" d="M30.5,15.4v4.1c0,1.4,1.1,2.5,2.5,2.5h0.5v-7.9C32.7,14.8,31.7,15.3,30.5,15.4z"/>
				<g>
					<circle class="st6" cx="26.5" cy="21.5" r="1"/>
					<circle class="st6" cx="19.5" cy="21.5" r="1"/>
				</g>
				<path class="st0" d="M19.5,26.5c2,2,5.1,2,7.1,0"/>
				<path class="st1" d="M30,15.5H12.5v0c0-4.1,3.4-7.5,7.5-7.5h5.2c2.2,0,4.3-0.5,6.3-1.4L35,5v5.5C35,13.3,32.8,15.5,30,15.5z"/>
			</g>
			<polygon class="st2" points="25.5,56.1 23,59 20.5,56.1 22,41 24,41 			"/>
			<line class="st0" x1="13" y1="59" x2="13" y2="49"/>
			<line class="st0" x1="33" y1="59" x2="33" y2="49"/>
			<g>
				<path class="st0" d="M19,35l-9.5,4.1C6.8,40.2,5,42.9,5,45.9V59"/>
				<path class="st0" d="M27,35l9.5,4.1c2.8,1.2,4.5,3.9,4.5,6.9V51h10v8H38c-2.8,0-5-2.2-5-5v-3"/>
			</g>
			<g>
				<polygon class="st0" points="16.9,41 21,38 19,35 16.5,36.1 				"/>
				<polygon class="st0" points="29.1,41 25,38 27,35 29.5,36.1 				"/>
			</g>
			<path class="st2" d="M24,41h-2c-0.6,0-1-0.4-1-1v-1c0-0.6,0.4-1,1-1h2c0.6,0,1,0.4,1,1v1C25,40.6,24.6,41,24,41z"/>
			<path class="st0" d="M23,34c-1.4,0-2.8-0.3-4-0.8V35l2.2,3.4c0.2-0.2,0.4-0.4,0.8-0.4h2c0.3,0,0.6,0.1,0.8,0.4L27,35v-1.8
				C25.8,33.7,24.4,34,23,34z"/>
			<path class="st0" d="M53,58h6.4c1.1,0,2.1-0.7,2.4-1.8l1.1-3.9c0.2-0.6-0.3-1.3-1-1.3h-9"/>
		</g>
		<path class="st0" d="M61.2,22.8L61,22.7c0.1-0.4,0.1-0.8,0.1-1.2c0-0.4,0-0.8-0.1-1.2l0.2-0.1l0.8-0.7c0.2-0.2,0.2-0.4,0.1-0.6
			l-1-1.7c-0.1-0.2-0.4-0.3-0.6-0.2l-1,0.3l-0.2,0.1c-0.6-0.5-1.3-1-2.1-1.2v-0.3l-0.2-1c0-0.2-0.3-0.4-0.5-0.4h-2
			c-0.2,0-0.4,0.2-0.5,0.4l-0.2,1v0.3c-0.8,0.2-1.5,0.7-2.1,1.2l-0.2-0.1l-1-0.3c-0.2-0.1-0.5,0-0.6,0.2l-1,1.7
			c-0.1,0.2-0.1,0.5,0.1,0.6l0.8,0.7l0.2,0.1c-0.1,0.4-0.1,0.8-0.1,1.2c0,0.4,0,0.8,0.1,1.2l-0.2,0.1L49,23.5
			c-0.2,0.2-0.2,0.4-0.1,0.6l1,1.7c0.1,0.2,0.4,0.3,0.6,0.2l1-0.3l0.2-0.1c0.6,0.5,1.3,1,2.1,1.2v0.3l0.2,1c0,0.2,0.3,0.4,0.5,0.4h2
			c0.2,0,0.4-0.2,0.5-0.4l0.2-1v-0.3c0.8-0.2,1.5-0.7,2.1-1.2l0.2,0.1l1,0.3c0.2,0.1,0.5,0,0.6-0.2l1-1.7c0.1-0.2,0.1-0.5-0.1-0.6
			L61.2,22.8z M55.5,24.9c-1.9,0-3.4-1.5-3.4-3.4s1.5-3.4,3.4-3.4c1.9,0,3.4,1.5,3.4,3.4S57.4,24.9,55.5,24.9z"/>
		<g>
			<circle class="st5" cx="55.5" cy="40" r="8"/>
			<path class="st0" d="M57.1,37.6h-2.4c-0.7,0-1.2,0.5-1.2,1.2v0c0,0.7,0.5,1.2,1.2,1.2h1.6c0.7,0,1.2,0.5,1.2,1.2v0
				c0,0.7-0.5,1.2-1.2,1.2h-2.4"/>
			<line class="st0" x1="55.5" y1="36.1" x2="55.5" y2="37.6"/>
			<line class="st0" x1="55.5" y1="42.4" x2="55.5" y2="43.9"/>
		</g>
	</g>
</g>
</svg>
