<?xml version="1.0" encoding="utf-8"?>
<!-- Generator: Adobe Illustrator 21.1.0, SVG Export Plug-In . SVG Version: 6.00 Build 0)  -->
<svg version="1.1" id="Icon_Set" xmlns="http://www.w3.org/2000/svg" xmlns:xlink="http://www.w3.org/1999/xlink" x="0px" y="0px"
	 viewBox="0 0 64 64" style="enable-background:new 0 0 64 64;" xml:space="preserve">
<style type="text/css">
	.st0{fill:none;stroke:#37474F;stroke-linecap:round;stroke-linejoin:round;stroke-miterlimit:10;}
	.st1{fill:#FFB300;stroke:#37474F;stroke-linecap:round;stroke-linejoin:round;stroke-miterlimit:10;}
	.st2{fill:#90CAF9;stroke:#37474F;stroke-linecap:round;stroke-linejoin:round;stroke-miterlimit:10;}
	.st3{fill:#FFFFFF;stroke:#37474F;stroke-linecap:round;stroke-linejoin:round;stroke-miterlimit:10;}
	.st4{fill:#FF7043;stroke:#37474F;stroke-linecap:round;stroke-linejoin:round;stroke-miterlimit:10;}
	.st5{fill:#9CCC65;stroke:#37474F;stroke-linecap:round;stroke-linejoin:round;stroke-miterlimit:10;}
	.st6{fill:#37474F;}
	.st7{fill:#37474F;stroke:#37474F;stroke-linecap:round;stroke-linejoin:round;stroke-miterlimit:10;}
	.st8{fill:none;stroke:#37474F;stroke-linecap:square;stroke-linejoin:round;stroke-miterlimit:10;}
</style>
<g id="Success">
	<g>
		<g>
			<line class="st0" x1="1" y1="33.5" x2="6" y2="33.5"/>
			<line class="st0" x1="8" y1="33.5" x2="9" y2="33.5"/>
		</g>
		<g>
			<line class="st0" x1="63" y1="3.5" x2="58" y2="3.5"/>
			<line class="st0" x1="56" y1="3.5" x2="55" y2="3.5"/>
		</g>
		<g>
			<g>
				<circle class="st0" cx="29" cy="6.5" r="6"/>
				<path class="st1" d="M33.2,3l0.4-0.4c-1.1-1.3-2.8-2.2-4.6-2.2c-3.3,0-6,2.7-6,6h0.6C27.1,6.5,30.5,5.3,33.2,3z"/>
			</g>
			<g>
				<path class="st0" d="M29,12.5c-1.1,0-2.1-0.3-3-0.8l0,1.8l3,3.5l3-3.5l0-1.8C31.1,12.2,30.1,12.5,29,12.5z"/>
				<path class="st0" d="M41,23.9c-0.9,0-1.8-0.5-2.2-1.4l-3-6c-0.5-1-1.3-1.8-2.2-2.2L32,13.5L29,17l-3-3.5L23,15h-2.2
					c-0.9,0-1.8-0.5-2.2-1.4l-3.8-7.5l-3.6,1.8l4.2,8.3c0.8,1.7,2.6,2.8,4.5,2.8H23v11.5h12v-6.6l0.6,1.2c0.8,1.7,2.6,2.8,4.5,2.8
					h6.1v-4H41z"/>
				<path class="st0" d="M34,54.5h-2.1c-0.5,0-0.9-0.4-1-0.9L29,35.5l-1.9,18.1c-0.1,0.5-0.5,0.9-1,0.9H24c-0.6,0-1-0.4-1-1v-23h12
					v23C35,54.1,34.6,54.5,34,54.5z"/>
				<polygon class="st2" points="30.5,24.5 29,26.5 27.5,24.5 28,15.5 30,15.5 				"/>
				<path class="st0" d="M48.2,23.9L48.2,23.9c1.1,0,2,0.9,2,2v0c0,1.1-0.9,2-2,2l0,0"/>
				<path class="st0" d="M10.3,6.1L10.3,6.1c-0.5-1-0.1-2.2,0.9-2.7l0,0c1-0.5,2.2-0.1,2.7,0.9l0,0"/>
			</g>
		</g>
		<g>
			<line class="st0" x1="48.2" y1="21.9" x2="48.2" y2="10.9"/>
			<polygon class="st4" points="48.2,16.9 48.2,11.9 54.2,14.4 			"/>
		</g>
		<g>
			<path class="st0" d="M35,47.3v6.2c0,0.6-0.4,1-1,1h-2.1c-0.5,0-0.9-0.4-1-0.9l-1.6-15.1c-0.2-0.1-0.4-0.1-0.6,0l-1.6,15.1
				c-0.1,0.5-0.5,0.9-1,0.9H24c-0.6,0-1-0.4-1-1v-6.3L13,63.5h32L35,47.3z"/>
			<path class="st0" d="M15.6,55.4l-3.8-5.7c-0.4-0.6-1.3-0.6-1.7,0L1,63.5h10"/>
			<path class="st0" d="M47,63.5h10l-9.2-13.8c-0.4-0.6-1.3-0.6-1.7,0l-3.8,5.7"/>
			<polygon class="st5" points="45,63.5 40.9,56.9 37.2,60.5 33.1,56.5 29,60.5 24.9,56.5 20.8,60.5 17.1,56.9 13,63.5 			"/>
		</g>
	</g>
</g>
</svg>
