<?xml version="1.0" encoding="utf-8"?>
<!-- Generator: Adobe Illustrator 21.1.0, SVG Export Plug-In . SVG Version: 6.00 Build 0)  -->
<svg version="1.1" id="Icon_Set" xmlns="http://www.w3.org/2000/svg" xmlns:xlink="http://www.w3.org/1999/xlink" x="0px" y="0px"
	 viewBox="0 0 64 64" style="enable-background:new 0 0 64 64;" xml:space="preserve">
<style type="text/css">
	.st0{fill:none;stroke:#37474F;stroke-linecap:round;stroke-linejoin:round;stroke-miterlimit:10;}
	.st1{fill:#FFB300;stroke:#37474F;stroke-linecap:round;stroke-linejoin:round;stroke-miterlimit:10;}
	.st2{fill:#90CAF9;stroke:#37474F;stroke-linecap:round;stroke-linejoin:round;stroke-miterlimit:10;}
	.st3{fill:#FFFFFF;stroke:#37474F;stroke-linecap:round;stroke-linejoin:round;stroke-miterlimit:10;}
	.st4{fill:#FF7043;stroke:#37474F;stroke-linecap:round;stroke-linejoin:round;stroke-miterlimit:10;}
	.st5{fill:#9CCC65;stroke:#37474F;stroke-linecap:round;stroke-linejoin:round;stroke-miterlimit:10;}
	.st6{fill:#37474F;}
	.st7{fill:#37474F;stroke:#37474F;stroke-linecap:round;stroke-linejoin:round;stroke-miterlimit:10;}
	.st8{fill:none;stroke:#37474F;stroke-linecap:square;stroke-linejoin:round;stroke-miterlimit:10;}
</style>
<g id="Business_Fail">
	<g>
		<polyline class="st0" points="61.5,44 46.5,44 46.5,49.5 31.5,49.5 31.5,55 16.5,55 16.5,60.5 1.5,60.5 1.5,63.5 		"/>
		<g>
			<line class="st0" x1="55.5" y1="41" x2="55.5" y2="4"/>
			<polygon class="st4" points="55.5,12 55.5,5 63.5,8.5 			"/>
		</g>
		<g>
			<line class="st0" x1="15" y1="0.5" x2="20" y2="0.5"/>
			<line class="st0" x1="22" y1="0.5" x2="23" y2="0.5"/>
		</g>
		<g>
			<line class="st0" x1="51.5" y1="57.5" x2="46.5" y2="57.5"/>
			<line class="st0" x1="44.5" y1="57.5" x2="43.5" y2="57.5"/>
		</g>
		<g>
			<g>
				<path class="st4" d="M11,44.5c0.4,0,0.8,0.1,1.1,0.4c0.6,0.6,0.6,1.5,0,2.1l-8,8c-0.6,0.6-1.5,0.6-2.1,0c-0.6-0.6-0.6-1.5,0-2.1
					l8-8C10.2,44.6,10.6,44.5,11,44.5z"/>
			</g>
			<g>
				<path class="st4" d="M3,45c0.8,0,1.5,0.7,1.5,1.5v6h6c0.8,0,1.5,0.7,1.5,1.5s-0.7,1.5-1.5,1.5H3c-0.8,0-1.5-0.7-1.5-1.5v-7.5
					C1.5,45.7,2.2,45,3,45z"/>
			</g>
		</g>
		<g>
			<g>
				<ellipse transform="matrix(0.7071 -0.7071 0.7071 0.7071 -6.0784 7.9026)" class="st0" cx="6.5" cy="11.3" rx="6" ry="6"/>
				<g>
					<path class="st1" d="M7,5.9L7,5.3C5.3,5.2,3.6,5.7,2.3,7c-2.3,2.3-2.3,6.1,0,8.5l0.4-0.4C5.1,12.7,6.7,9.4,7,5.9z"/>
				</g>
			</g>
			<g>
				<g>
					<path class="st0" d="M28.1,32.9l12.7,11.4c0.4,0.4,1,0.3,1.4,0l1.5-1.5c0.4-0.4,0.4-1,0-1.4L32.3,28.6"/>
					<path class="st0" d="M22.6,18c1.8,0.6,3.8,0.1,5.1-1.2l5.8-5.8l-2.8-2.8l-6.2,6.2l-6.5-2.2c-1.8-0.6-3.8-0.1-5.1,1.2l-5.5,5.5
						c-0.5,0.5-1,1.2-1.2,2l-2.6,7.7c-0.6,1.8-0.1,3.8,1.2,5.1l5.8,5.8l2.8-2.8l-6.2-6.2l2.5-7.5l9.2,9.2c2,2,5.1,2,7.1,0l7.8-7.8
						l7.1,5.8c0.4,0.3,1,0.3,1.3-0.1l1.5-1.5c0.4-0.4,0.4-1,0-1.4l-6.5-7.3c-1.9-2.2-5.2-2.3-7.3-0.2L26.7,23l-5.3-5.3L22.6,18z"/>
					<path class="st0" d="M14.8,38.1L14.8,38.1c0.8,0.8,0.8,2,0,2.8l0,0c-0.8,0.8-2,0.8-2.8,0l0,0"/>
					<path class="st0" d="M32,6.8L32,6.8c0.8-0.8,2-0.8,2.8,0l0,0c0.8,0.8,0.8,2,0,2.8v0"/>
				</g>
				<line class="st0" x1="26.7" y1="23" x2="18.2" y2="31.4"/>
			</g>
		</g>
	</g>
</g>
</svg>
