<?xml version="1.0" encoding="utf-8"?>
<!-- Generator: Adobe Illustrator 21.1.0, SVG Export Plug-In . SVG Version: 6.00 Build 0)  -->
<svg version="1.1" id="Icon_Set" xmlns="http://www.w3.org/2000/svg" xmlns:xlink="http://www.w3.org/1999/xlink" x="0px" y="0px"
	 viewBox="0 0 64 64" style="enable-background:new 0 0 64 64;" xml:space="preserve">
<style type="text/css">
	.st0{fill:none;stroke:#37474F;stroke-linecap:round;stroke-linejoin:round;stroke-miterlimit:10;}
	.st1{fill:#FFB300;stroke:#37474F;stroke-linecap:round;stroke-linejoin:round;stroke-miterlimit:10;}
	.st2{fill:#90CAF9;stroke:#37474F;stroke-linecap:round;stroke-linejoin:round;stroke-miterlimit:10;}
	.st3{fill:#FFFFFF;stroke:#37474F;stroke-linecap:round;stroke-linejoin:round;stroke-miterlimit:10;}
	.st4{fill:#FF7043;stroke:#37474F;stroke-linecap:round;stroke-linejoin:round;stroke-miterlimit:10;}
	.st5{fill:#9CCC65;stroke:#37474F;stroke-linecap:round;stroke-linejoin:round;stroke-miterlimit:10;}
	.st6{fill:#37474F;}
	.st7{fill:#37474F;stroke:#37474F;stroke-linecap:round;stroke-linejoin:round;stroke-miterlimit:10;}
	.st8{fill:none;stroke:#37474F;stroke-linecap:square;stroke-linejoin:round;stroke-miterlimit:10;}
</style>
<g id="Consultant">
	<g>
		<g>
			<line class="st0" x1="51.5" y1="39.3" x2="56.5" y2="39.3"/>
			<line class="st0" x1="58.5" y1="39.3" x2="59.5" y2="39.3"/>
		</g>
		<g>
			<line class="st0" x1="9.5" y1="15.8" x2="4.5" y2="15.8"/>
			<line class="st0" x1="2.5" y1="15.8" x2="1.5" y2="15.8"/>
		</g>
		<path class="st0" d="M0.5,62v-3.5C0.5,57.1,1.6,56,3,56h55c1.4,0,2.5,1.1,2.5,2.5V62"/>
		<path class="st2" d="M61,13.3H46c-1.4,0-2.5,1.1-2.5,2.5v11c0,1.4,1.1,2.5,2.5,2.5h2.5v2.9c0,0.8,1,1.3,1.6,0.8l4.4-3.6H61
			c1.4,0,2.5-1.1,2.5-2.5v-11C63.5,14.4,62.4,13.3,61,13.3z"/>
		<g>
			<g>
				<path class="st0" d="M36.5,17.5c-0.1,0-0.2,0-0.3,0C35.1,12.6,30.7,9,25.5,9s-9.6,3.6-10.7,8.5c-0.1,0-0.2,0-0.3,0
					c-1.4,0-2.5,1.1-2.5,2.5s1.1,2.5,2.5,2.5c0.1,0,0.2,0,0.3,0c1.1,4.9,5.5,8.5,10.7,8.5s9.6-3.6,10.7-8.5c0.1,0,0.2,0,0.3,0
					c1.4,0,2.5-1.1,2.5-2.5S37.9,17.5,36.5,17.5z"/>
				<path class="st1" d="M15.5,19H15v-6.5h3v4C18,17.9,16.9,19,15.5,19z"/>
				<path class="st1" d="M33,12.5v4.1c0,1.4,1.1,2.5,2.5,2.5H36v-7.9C35.2,11.8,34.2,12.3,33,12.5z"/>
				<g>
					<circle class="st6" cx="29" cy="18.5" r="1"/>
					<circle class="st6" cx="22" cy="18.5" r="1"/>
				</g>
				<path class="st0" d="M22,23.5c2,2,5.1,2,7.1,0"/>
				<path class="st1" d="M32.5,12.5H15v0C15,8.4,18.4,5,22.5,5h5.2C29.9,5,32,4.5,34,3.6L37.5,2v5.5C37.5,10.3,35.3,12.5,32.5,12.5z
					"/>
			</g>
			<g>
				<polygon class="st2" points="28,53.1 25.5,56 23,53.1 24.5,38 26.5,38 				"/>
				<line class="st0" x1="15.5" y1="56" x2="15.5" y2="46"/>
				<line class="st0" x1="35.5" y1="56" x2="35.5" y2="46"/>
				<g>
					<line class="st0" x1="21.5" y1="32" x2="12.5" y2="35.9"/>
					<path class="st0" d="M43.5,56V42.9c0-3-1.8-5.7-4.5-6.9L29.5,32"/>
				</g>
				<g>
					<polygon class="st0" points="19.4,38 23.5,35 21.5,32 19,33.1 					"/>
					<polygon class="st0" points="31.6,38 27.5,35 29.5,32 32,33.1 					"/>
				</g>
				<path class="st2" d="M26.5,38h-2c-0.6,0-1-0.4-1-1v-1c0-0.6,0.4-1,1-1h2c0.6,0,1,0.4,1,1v1C27.5,37.6,27.1,38,26.5,38z"/>
				<path class="st0" d="M25.5,31c-1.4,0-2.8-0.3-4-0.8V32l2.2,3.4c0.2-0.2,0.4-0.4,0.8-0.4h2c0.3,0,0.6,0.1,0.8,0.4l2.2-3.4v-1.8
					C28.3,30.7,26.9,31,25.5,31z"/>
				<g>
					<path class="st0" d="M15.5,48v3c0,2.8-2.2,5-5,5l-3,0c-2.8,0-5-2.2-5-5v-7h8v6"/>
					<g>
						<path class="st0" d="M10,38.3h2c0.6,0,1-0.4,1-1v-0.5c0-0.6-0.4-1-1-1h-2c-0.6,0-1,0.4-1,1v0.5C9,37.8,9.4,38.3,10,38.3z"/>
						<path class="st0" d="M4,36v-3c0-0.6-0.4-1-1-1H2.5c-0.6,0-1,0.4-1,1v3c0,0.6,0.4,1,1,1H3C3.6,37,4,36.6,4,36z"/>
						<path class="st0" d="M6.5,36v-3c0-0.6-0.4-1-1-1H5c-0.6,0-1,0.4-1,1v3c0,0.6,0.4,1,1,1h0.5C6.1,37,6.5,36.6,6.5,36z"/>
						<path class="st0" d="M9,36v-3c0-0.6-0.4-1-1-1H7.5c-0.6,0-1,0.4-1,1v3c0,0.6,0.4,1,1,1H8C8.6,37,9,36.6,9,36z"/>
						<path class="st0" d="M4,42c-1.4,0-2.5-1.1-2.5-2.5V37"/>
						<path class="st0" d="M11.5,38.3v1.2c0,1.4-1.1,2.5-2.5,2.5"/>
						<path class="st0" d="M9,37v-9c0-0.6,0.4-1,1-1h0.5c0.6,0,1,0.4,1,1v7.8"/>
					</g>
				</g>
			</g>
		</g>
		<line class="st0" x1="46.5" y1="17.3" x2="60.5" y2="17.3"/>
		<line class="st0" x1="46.5" y1="21.3" x2="60.5" y2="21.3"/>
		<line class="st0" x1="46.5" y1="25.3" x2="53.5" y2="25.3"/>
	</g>
</g>
</svg>
