<?xml version="1.0" encoding="utf-8"?>
<!-- Generator: Adobe Illustrator 21.1.0, SVG Export Plug-In . SVG Version: 6.00 Build 0)  -->
<svg version="1.1" id="Icon_Set" xmlns="http://www.w3.org/2000/svg" xmlns:xlink="http://www.w3.org/1999/xlink" x="0px" y="0px"
	 viewBox="0 0 64 64" style="enable-background:new 0 0 64 64;" xml:space="preserve">
<style type="text/css">
	.st0{fill:none;stroke:#37474F;stroke-linecap:round;stroke-linejoin:round;stroke-miterlimit:10;}
	.st1{fill:#FFB300;stroke:#37474F;stroke-linecap:round;stroke-linejoin:round;stroke-miterlimit:10;}
	.st2{fill:#90CAF9;stroke:#37474F;stroke-linecap:round;stroke-linejoin:round;stroke-miterlimit:10;}
	.st3{fill:#FFFFFF;stroke:#37474F;stroke-linecap:round;stroke-linejoin:round;stroke-miterlimit:10;}
	.st4{fill:#FF7043;stroke:#37474F;stroke-linecap:round;stroke-linejoin:round;stroke-miterlimit:10;}
	.st5{fill:#9CCC65;stroke:#37474F;stroke-linecap:round;stroke-linejoin:round;stroke-miterlimit:10;}
	.st6{fill:#37474F;}
	.st7{fill:#37474F;stroke:#37474F;stroke-linecap:round;stroke-linejoin:round;stroke-miterlimit:10;}
	.st8{fill:none;stroke:#37474F;stroke-linecap:square;stroke-linejoin:round;stroke-miterlimit:10;}
</style>
<g id="FAQ">
	<g>
		<g>
			<line class="st0" x1="53.5" y1="51" x2="58.5" y2="51"/>
			<line class="st0" x1="60.5" y1="51" x2="61.5" y2="51"/>
		</g>
		<g>
			<line class="st0" x1="46.5" y1="3.5" x2="41.5" y2="3.5"/>
			<line class="st0" x1="39.5" y1="3.5" x2="38.5" y2="3.5"/>
		</g>
		<g>
			<g>
				<path class="st0" d="M29.5,22c-0.1,0-0.2,0-0.3,0c-1.1-4.9-5.5-8.5-10.7-8.5S8.9,17.1,7.8,22c-0.1,0-0.2,0-0.3,0
					C6.1,22,5,23.1,5,24.5S6.1,27,7.5,27c0.1,0,0.2,0,0.3,0c1.1,4.9,5.5,8.5,10.7,8.5s9.6-3.6,10.7-8.5c0.1,0,0.2,0,0.3,0
					c1.4,0,2.5-1.1,2.5-2.5S30.9,22,29.5,22z"/>
				<path class="st1" d="M8.5,23.5H8V17h3v4C11,22.4,9.9,23.5,8.5,23.5z"/>
				<path class="st1" d="M25.5,17H8v0c0-4.1,3.4-7.5,7.5-7.5h5.2C22.9,9.5,25,9,27,8.1l3.5-1.6V12C30.5,14.8,28.3,17,25.5,17z"/>
				<path class="st1" d="M26,16.9V21c0,1.4,1.1,2.5,2.5,2.5H29v-7.9C28.2,16.3,27.2,16.8,26,16.9z"/>
				<g>
					<circle class="st6" cx="22" cy="23" r="1"/>
					<circle class="st6" cx="15" cy="23" r="1"/>
				</g>
				<path class="st0" d="M15,28c2,2,5.1,2,7.1,0"/>
			</g>
			<g>
				<line class="st0" x1="8.5" y1="60.5" x2="8.5" y2="50.5"/>
				<path class="st0" d="M36.5,60.5V47.4c0-3-1.8-5.7-4.5-6.9l-9.5-4.1l-4,6l-4-6L5,40.6c-2.8,1.2-4.5,3.9-4.5,6.9v13.1"/>
				<line class="st0" x1="28.5" y1="60.5" x2="28.5" y2="50.5"/>
				<g>
					<polygon class="st0" points="12.5,44.5 18.5,42.5 14.5,36.5 					"/>
					<polygon class="st0" points="22.5,36.5 18.5,42.5 24.5,44.5 					"/>
				</g>
				<path class="st0" d="M18.5,35.5c-1.4,0-2.8-0.3-4-0.8v1.8l4,6l4-6v-1.8C21.3,35.2,19.9,35.5,18.5,35.5z"/>
				<line class="st0" x1="18.5" y1="60.5" x2="18.5" y2="42.5"/>
			</g>
		</g>
		<g>
			<circle class="st5" cx="47.5" cy="38" r="10"/>
			<g>
				<path class="st0" d="M44.5,35.5c0-1.7,1.3-3,3-3s3,1.3,3,3s-1.3,3-3,3V40"/>
				<circle class="st6" cx="47.5" cy="42.8" r="0.8"/>
			</g>
		</g>
		<g>
			<circle class="st4" cx="53.5" cy="16.5" r="10"/>
			<g>
				<line class="st0" x1="53.5" y1="11" x2="53.5" y2="18.5"/>
				<circle class="st6" cx="53.5" cy="21.3" r="0.8"/>
			</g>
		</g>
	</g>
</g>
</svg>
