<?xml version="1.0" encoding="utf-8"?>
<!-- Generator: Adobe Illustrator 21.1.0, SVG Export Plug-In . SVG Version: 6.00 Build 0)  -->
<svg version="1.1" id="Icon_Set" xmlns="http://www.w3.org/2000/svg" xmlns:xlink="http://www.w3.org/1999/xlink" x="0px" y="0px"
	 viewBox="0 0 64 64" style="enable-background:new 0 0 64 64;" xml:space="preserve">
<style type="text/css">
	.st0{fill:none;stroke:#37474F;stroke-linecap:round;stroke-linejoin:round;stroke-miterlimit:10;}
	.st1{fill:#FFB300;stroke:#37474F;stroke-linecap:round;stroke-linejoin:round;stroke-miterlimit:10;}
	.st2{fill:#90CAF9;stroke:#37474F;stroke-linecap:round;stroke-linejoin:round;stroke-miterlimit:10;}
	.st3{fill:#FFFFFF;stroke:#37474F;stroke-linecap:round;stroke-linejoin:round;stroke-miterlimit:10;}
	.st4{fill:#FF7043;stroke:#37474F;stroke-linecap:round;stroke-linejoin:round;stroke-miterlimit:10;}
	.st5{fill:#9CCC65;stroke:#37474F;stroke-linecap:round;stroke-linejoin:round;stroke-miterlimit:10;}
	.st6{fill:#37474F;}
	.st7{fill:#37474F;stroke:#37474F;stroke-linecap:round;stroke-linejoin:round;stroke-miterlimit:10;}
	.st8{fill:none;stroke:#37474F;stroke-linecap:square;stroke-linejoin:round;stroke-miterlimit:10;}
</style>
<g id="Billboard_Man">
	<g>
		<g>
			<line class="st0" x1="16" y1="55.6" x2="11" y2="55.6"/>
			<line class="st0" x1="9" y1="55.6" x2="8" y2="55.6"/>
		</g>
		<g>
			<g>
				<circle class="st0" cx="32" cy="28.6" r="6"/>
				<path class="st1" d="M36.2,25.1l0.4-0.4c-1.1-1.3-2.8-2.2-4.6-2.2c-3.3,0-6,2.7-6,6h0.6C30.1,28.6,33.5,27.3,36.2,25.1z"/>
			</g>
			<g>
				<path class="st0" d="M44,32.5l-1.6,3.2c-0.4,0.8-1.3,1.4-2.2,1.4H38l-3-1.5L32,39l-3-3.5l-3,1.5h-2.2c-0.9,0-1.8-0.5-2.2-1.4
					L20,32.5"/>
				<path class="st0" d="M15.5,32.5l2.9,5.8c0.8,1.7,2.6,2.8,4.5,2.8H26v11.5h12v-1.4V41.1h3.1c1.9,0,3.6-1.1,4.5-2.8l2.9-5.8"/>
				<path class="st0" d="M32,34.6c-1.1,0-2.1-0.3-3-0.8l0,1.8l3,3.5l3-3.5l0-1.8C34.1,34.3,33.1,34.6,32,34.6z"/>
				<polygon class="st2" points="33.5,46.5 32,48.5 30.5,46.5 31,37.5 33,37.5 				"/>
				<polyline class="st0" points="38,63.5 38,52.6 26,52.6 26,63.5 				"/>
				<line class="st0" x1="32" y1="57.6" x2="32" y2="63.5"/>
			</g>
		</g>
		<g>
			<line class="st0" x1="48" y1="47.6" x2="53" y2="47.6"/>
			<line class="st0" x1="55" y1="47.6" x2="56" y2="47.6"/>
		</g>
		<g>
			<path class="st0" d="M39.8,30.5h13.7c1.4,0,2.5-1.1,2.5-2.5V3c0-1.4-1.1-2.5-2.5-2.5h-43C9.1,0.5,8,1.6,8,3v25
				c0,1.4,1.1,2.5,2.5,2.5h13.7"/>
			<rect x="13" y="9.5" class="st2" width="12" height="12"/>
			<rect x="30.5" y="12" class="st0" width="10" height="2"/>
			<rect x="30.5" y="17" class="st0" width="20" height="2"/>
			<circle class="st3" cx="19" cy="15.5" r="3"/>
		</g>
	</g>
</g>
</svg>
