<?xml version="1.0" encoding="utf-8"?>
<!-- Generator: Adobe Illustrator 21.1.0, SVG Export Plug-In . SVG Version: 6.00 Build 0)  -->
<svg version="1.1" id="Icon_Set" xmlns="http://www.w3.org/2000/svg" xmlns:xlink="http://www.w3.org/1999/xlink" x="0px" y="0px"
	 viewBox="0 0 64 64" style="enable-background:new 0 0 64 64;" xml:space="preserve">
<style type="text/css">
	.st0{fill:none;stroke:#37474F;stroke-linecap:round;stroke-linejoin:round;stroke-miterlimit:10;}
	.st1{fill:#FFB300;stroke:#37474F;stroke-linecap:round;stroke-linejoin:round;stroke-miterlimit:10;}
	.st2{fill:#90CAF9;stroke:#37474F;stroke-linecap:round;stroke-linejoin:round;stroke-miterlimit:10;}
	.st3{fill:#FFFFFF;stroke:#37474F;stroke-linecap:round;stroke-linejoin:round;stroke-miterlimit:10;}
	.st4{fill:#FF7043;stroke:#37474F;stroke-linecap:round;stroke-linejoin:round;stroke-miterlimit:10;}
	.st5{fill:#9CCC65;stroke:#37474F;stroke-linecap:round;stroke-linejoin:round;stroke-miterlimit:10;}
	.st6{fill:#37474F;}
	.st7{fill:#37474F;stroke:#37474F;stroke-linecap:round;stroke-linejoin:round;stroke-miterlimit:10;}
	.st8{fill:none;stroke:#37474F;stroke-linecap:square;stroke-linejoin:round;stroke-miterlimit:10;}
</style>
<g id="Rating_Star">
	<g>
		<g>
			<g>
				<circle class="st0" cx="32" cy="31" r="8"/>
				<path class="st1" d="M37.5,26.4l0.6-0.5C36.7,24.1,34.5,23,32,23c-4.4,0-8,3.6-8,8h0.8C29.4,31,34,29.4,37.5,26.4z"/>
			</g>
			<g>
				<path class="st0" d="M32,39c-1.1,0-2.1-0.2-3-0.6l0,1.6l3,4.5l3-4.5l0-1.6C34.1,38.8,33.1,39,32,39z"/>
				<line class="st0" x1="39" y1="50" x2="39" y2="62"/>
				<line class="st0" x1="25" y1="50" x2="25" y2="62"/>
				<polygon class="st2" points="34.5,56.5 32,59 29.5,56.5 31,44.5 33,44.5 				"/>
				<polygon class="st0" points="29,40 28.5,44.5 35.5,44.5 35,40 32,44.5 				"/>
				<path class="st0" d="M44,62V47.3c0-2-1.2-3.8-3-4.6L35,40l-3,4.5L29,40l-6,2.7c-1.8,0.8-3,2.6-3,4.6V62"/>
			</g>
		</g>
		<g>
			<line class="st0" x1="15" y1="37" x2="10" y2="37"/>
			<line class="st0" x1="8" y1="37" x2="7" y2="37"/>
		</g>
		<g>
			<line class="st0" x1="49" y1="52" x2="54" y2="52"/>
			<line class="st0" x1="56" y1="52" x2="57" y2="52"/>
		</g>
		<g>
			<path class="st0" d="M53.5,4.5v9c0,1.4-1.1,2.5-2.5,2.5H36l-3.2,4c-0.4,0.5-1.2,0.5-1.6,0L28,16H13c-1.4,0-2.5-1.1-2.5-2.5v-9
				C10.5,3.1,11.6,2,13,2h38C52.4,2,53.5,3.1,53.5,4.5z"/>
			<polygon class="st1" points="19.5,4.5 20.7,7.1 23.5,7.6 21.5,9.6 22,12.5 19.5,11.1 17,12.5 17.5,9.6 15.5,7.6 18.3,7.1 			"/>
			<polygon class="st1" points="32,4.5 33.2,7.1 36,7.6 34,9.6 34.5,12.5 32,11.1 29.5,12.5 30,9.6 28,7.6 30.8,7.1 			"/>
			<polygon class="st1" points="44.5,4.5 45.7,7.1 48.5,7.6 46.5,9.6 47,12.5 44.5,11.1 42,12.5 42.5,9.6 40.5,7.6 43.3,7.1 			"/>
		</g>
	</g>
</g>
</svg>
