<?xml version="1.0" encoding="utf-8"?>
<!-- Generator: Adobe Illustrator 21.1.0, SVG Export Plug-In . SVG Version: 6.00 Build 0)  -->
<svg version="1.1" id="Icon_Set" xmlns="http://www.w3.org/2000/svg" xmlns:xlink="http://www.w3.org/1999/xlink" x="0px" y="0px"
	 viewBox="0 0 64 64" style="enable-background:new 0 0 64 64;" xml:space="preserve">
<style type="text/css">
	.st0{fill:none;stroke:#37474F;stroke-linecap:round;stroke-linejoin:round;stroke-miterlimit:10;}
	.st1{fill:#FFB300;stroke:#37474F;stroke-linecap:round;stroke-linejoin:round;stroke-miterlimit:10;}
	.st2{fill:#90CAF9;stroke:#37474F;stroke-linecap:round;stroke-linejoin:round;stroke-miterlimit:10;}
	.st3{fill:#FFFFFF;stroke:#37474F;stroke-linecap:round;stroke-linejoin:round;stroke-miterlimit:10;}
	.st4{fill:#FF7043;stroke:#37474F;stroke-linecap:round;stroke-linejoin:round;stroke-miterlimit:10;}
	.st5{fill:#9CCC65;stroke:#37474F;stroke-linecap:round;stroke-linejoin:round;stroke-miterlimit:10;}
	.st6{fill:#37474F;}
	.st7{fill:#37474F;stroke:#37474F;stroke-linecap:round;stroke-linejoin:round;stroke-miterlimit:10;}
	.st8{fill:none;stroke:#37474F;stroke-linecap:square;stroke-linejoin:round;stroke-miterlimit:10;}
</style>
<g id="Background_Check">
	<g>
		<g>
			<g>
				<g>
					<circle class="st0" cx="45.5" cy="10" r="6"/>
					<path class="st1" d="M49.7,6.5l0.4-0.4C49,4.8,47.4,4,45.5,4c-3.3,0-6,2.7-6,6h0.6C43.6,10,47,8.8,49.7,6.5z"/>
				</g>
				<path class="st0" d="M45.5,16c-1.1,0-2.1-0.3-3-0.8l0,1.8l3,4.5l3-4.5l0-1.8C47.6,15.7,46.6,16,45.5,16z"/>
				<path class="st0" d="M55.5,25v-1.4c0-1.9-1.1-3.6-2.8-4.5L48.5,17"/>
				<path class="st0" d="M35.5,25v-1.4c0-1.9,1.1-3.6,2.8-4.5l4.2-2.1"/>
				<polygon class="st0" points="42.5,17 42,21.5 49,21.5 48.5,17 45.5,21.5 				"/>
				<line class="st0" x1="45.5" y1="21.5" x2="45.5" y2="25"/>
			</g>
			<path class="st0" d="M56,28.5H35c-1.4,0-2.5-1.1-2.5-2.5V3c0-1.4,1.1-2.5,2.5-2.5h21c1.4,0,2.5,1.1,2.5,2.5v23
				C58.5,27.4,57.4,28.5,56,28.5z"/>
		</g>
		<g>
			<path class="st0" d="M34,50.1c-0.5,0.5-1,0.9-1.5,1.3l3.7,3.7l2.8-2.8l-3.7-3.7C34.9,49.1,34.5,49.6,34,50.1z"/>
			<path class="st2" d="M34,33.2c-4.7-4.7-12.3-4.7-17,0s-4.7,12.3,0,17c4.7,4.7,12.3,4.7,17,0C38.7,45.4,38.7,37.8,34,33.2z
				 M31.9,48c-3.5,3.5-9.2,3.5-12.7,0s-3.5-9.2,0-12.7c3.5-3.5,9.2-3.5,12.7,0C35.4,38.8,35.4,44.5,31.9,48z"/>
			<path class="st0" d="M38.6,52.6l-2.1,2.1c-0.4,0.4-0.4,1,0,1.4l7.1,7.1c0.4,0.4,1,0.4,1.4,0l2.1-2.1c0.4-0.4,0.4-1,0-1.4L40,52.6
				C39.6,52.2,39,52.2,38.6,52.6z"/>
		</g>
		<g>
			<path class="st0" d="M13,19.5H5.5l10-10V17C15.5,18.4,14.4,19.5,13,19.5z"/>
			<line class="st0" x1="39.5" y1="41.6" x2="42.4" y2="41.6"/>
			<line class="st0" x1="18.5" y1="41.6" x2="32.5" y2="41.6"/>
			<line class="st0" x1="8.6" y1="41.6" x2="11.5" y2="41.6"/>
			<line class="st0" x1="45.5" y1="55.3" x2="45.5" y2="30.5"/>
			<path class="st0" d="M30.5,9.5h-15l-10,10V55c0,1.4,1.1,2.5,2.5,2.5h27"/>
		</g>
	</g>
</g>
</svg>
