<?xml version="1.0" encoding="utf-8"?>
<!-- Generator: Adobe Illustrator 21.1.0, SVG Export Plug-In . SVG Version: 6.00 Build 0)  -->
<svg version="1.1" id="Icon_Set" xmlns="http://www.w3.org/2000/svg" xmlns:xlink="http://www.w3.org/1999/xlink" x="0px" y="0px"
	 viewBox="0 0 64 64" style="enable-background:new 0 0 64 64;" xml:space="preserve">
<style type="text/css">
	.st0{fill:none;stroke:#37474F;stroke-linecap:round;stroke-linejoin:round;stroke-miterlimit:10;}
	.st1{fill:#FFB300;stroke:#37474F;stroke-linecap:round;stroke-linejoin:round;stroke-miterlimit:10;}
	.st2{fill:#90CAF9;stroke:#37474F;stroke-linecap:round;stroke-linejoin:round;stroke-miterlimit:10;}
	.st3{fill:#FFFFFF;stroke:#37474F;stroke-linecap:round;stroke-linejoin:round;stroke-miterlimit:10;}
	.st4{fill:#FF7043;stroke:#37474F;stroke-linecap:round;stroke-linejoin:round;stroke-miterlimit:10;}
	.st5{fill:#9CCC65;stroke:#37474F;stroke-linecap:round;stroke-linejoin:round;stroke-miterlimit:10;}
	.st6{fill:#37474F;}
	.st7{fill:#37474F;stroke:#37474F;stroke-linecap:round;stroke-linejoin:round;stroke-miterlimit:10;}
	.st8{fill:none;stroke:#37474F;stroke-linecap:square;stroke-linejoin:round;stroke-miterlimit:10;}
</style>
<g id="Discussion">
	<g>
		<g>
			<line class="st0" x1="52.5" y1="43" x2="57.5" y2="43"/>
			<line class="st0" x1="59.5" y1="43" x2="60.5" y2="43"/>
		</g>
		<g>
			<line class="st0" x1="44.5" y1="12" x2="39.5" y2="12"/>
			<line class="st0" x1="37.5" y1="12" x2="36.5" y2="12"/>
		</g>
		<g>
			<path class="st2" d="M48.5,15c-8.3,0-15,5.4-15,12c0,3.5,1.9,6.7,5,8.9v4.4c0,0.8,0.8,1.2,1.5,0.9l5-2.6c1.1,0.2,2.3,0.4,3.6,0.4
				c8.3,0,15-5.4,15-12C63.5,20.4,56.8,15,48.5,15z"/>
			<line class="st0" x1="40.5" y1="22.5" x2="56.5" y2="22.5"/>
			<line class="st0" x1="40.5" y1="27" x2="56.5" y2="27"/>
			<line class="st0" x1="40.5" y1="31.5" x2="48.5" y2="31.5"/>
		</g>
		<g>
			<g>
				<path class="st0" d="M29.5,20.5c-0.1,0-0.2,0-0.3,0c-1.1-4.9-5.5-8.5-10.7-8.5s-9.6,3.6-10.7,8.5c-0.1,0-0.2,0-0.3,0
					C6.1,20.5,5,21.6,5,23s1.1,2.5,2.5,2.5c0.1,0,0.2,0,0.3,0c1.1,4.9,5.5,8.5,10.7,8.5s9.6-3.6,10.7-8.5c0.1,0,0.2,0,0.3,0
					c1.4,0,2.5-1.1,2.5-2.5S30.9,20.5,29.5,20.5z"/>
				<path class="st1" d="M8.5,22H8v-6.5h3v4C11,20.9,9.9,22,8.5,22z"/>
				<path class="st1" d="M25.5,15.5H8v0C8,11.4,11.4,8,15.5,8h5.2C22.9,8,25,7.5,27,6.6L30.5,5v5.5C30.5,13.3,28.3,15.5,25.5,15.5z"
					/>
				<path class="st1" d="M26,15.4v4.1c0,1.4,1.1,2.5,2.5,2.5H29v-7.9C28.2,14.8,27.2,15.3,26,15.4z"/>
				<g>
					<circle class="st6" cx="22" cy="21.5" r="1"/>
					<circle class="st6" cx="15" cy="21.5" r="1"/>
				</g>
				<path class="st0" d="M15,26.5c2,2,5.1,2,7.1,0"/>
			</g>
			<g>
				<line class="st0" x1="8.5" y1="59" x2="8.5" y2="49"/>
				<path class="st0" d="M36.5,59V45.9c0-3-1.8-5.7-4.5-6.9L22.5,35l-4,6l-4-6L5,39.1c-2.8,1.2-4.5,3.9-4.5,6.9V59"/>
				<line class="st0" x1="28.5" y1="59" x2="28.5" y2="49"/>
				<g>
					<polygon class="st0" points="12.5,43 18.5,41 14.5,35 					"/>
					<polygon class="st0" points="22.5,35 18.5,41 24.5,43 					"/>
				</g>
				<path class="st0" d="M18.5,34c-1.4,0-2.8-0.3-4-0.8V35l4,6l4-6v-1.8C21.3,33.7,19.9,34,18.5,34z"/>
				<line class="st0" x1="18.5" y1="59" x2="18.5" y2="41"/>
			</g>
		</g>
		<path class="st0" d="M49,46c4.1,0,7.5,2.7,7.5,6c0,1.8-1,3.4-2.5,4.5v1.8c0,0.6-0.6,0.9-1.1,0.7l-2.1-1.1C50.2,57.9,49.6,58,49,58
			c-4.1,0-7.5-2.7-7.5-6C41.5,48.7,44.9,46,49,46z"/>
		<circle class="st6" cx="52.5" cy="52" r="1"/>
		<circle class="st6" cx="49" cy="52" r="1"/>
		<circle class="st6" cx="45.5" cy="52" r="1"/>
	</g>
</g>
</svg>
