<?xml version="1.0" encoding="utf-8"?>
<!-- Generator: Adobe Illustrator 21.1.0, SVG Export Plug-In . SVG Version: 6.00 Build 0)  -->
<svg version="1.1" id="Icon_Set" xmlns="http://www.w3.org/2000/svg" xmlns:xlink="http://www.w3.org/1999/xlink" x="0px" y="0px"
	 viewBox="0 0 64 64" style="enable-background:new 0 0 64 64;" xml:space="preserve">
<style type="text/css">
	.st0{fill:none;stroke:#37474F;stroke-linecap:round;stroke-linejoin:round;stroke-miterlimit:10;}
	.st1{fill:#FFB300;stroke:#37474F;stroke-linecap:round;stroke-linejoin:round;stroke-miterlimit:10;}
	.st2{fill:#90CAF9;stroke:#37474F;stroke-linecap:round;stroke-linejoin:round;stroke-miterlimit:10;}
	.st3{fill:#FFFFFF;stroke:#37474F;stroke-linecap:round;stroke-linejoin:round;stroke-miterlimit:10;}
	.st4{fill:#FF7043;stroke:#37474F;stroke-linecap:round;stroke-linejoin:round;stroke-miterlimit:10;}
	.st5{fill:#9CCC65;stroke:#37474F;stroke-linecap:round;stroke-linejoin:round;stroke-miterlimit:10;}
	.st6{fill:#37474F;}
	.st7{fill:#37474F;stroke:#37474F;stroke-linecap:round;stroke-linejoin:round;stroke-miterlimit:10;}
	.st8{fill:none;stroke:#37474F;stroke-linecap:square;stroke-linejoin:round;stroke-miterlimit:10;}
</style>
<g id="Go_To_Success">
	<g>
		<polyline class="st0" points="61,44 46,44 46,49.5 31,49.5 31,55 16,55 16,60.5 1,60.5 1,63.5 		"/>
		<g>
			<line class="st0" x1="55" y1="41" x2="55" y2="4"/>
			<polygon class="st4" points="55,12 55,5 63,8.5 			"/>
		</g>
		<g>
			<line class="st0" x1="4.5" y1="5.5" x2="9.5" y2="5.5"/>
			<line class="st0" x1="11.5" y1="5.5" x2="12.5" y2="5.5"/>
		</g>
		<g>
			<line class="st0" x1="51" y1="57.5" x2="46" y2="57.5"/>
			<line class="st0" x1="44" y1="57.5" x2="43" y2="57.5"/>
		</g>
		<g>
			<g>
				<path class="st2" d="M2.5,55.5c-0.4,0-0.8-0.1-1.1-0.4c-0.6-0.6-0.6-1.5,0-2.1l8-8c0.6-0.6,1.5-0.6,2.1,0c0.6,0.6,0.6,1.5,0,2.1
					l-8,8C3.3,55.4,2.9,55.5,2.5,55.5z"/>
			</g>
			<g>
				<path class="st2" d="M10.5,55C9.7,55,9,54.3,9,53.5v-6H3c-0.8,0-1.5-0.7-1.5-1.5s0.7-1.5,1.5-1.5h7.5c0.8,0,1.5,0.7,1.5,1.5v7.5
					C12,54.3,11.3,55,10.5,55z"/>
			</g>
		</g>
		<g>
			<g>
				<ellipse transform="matrix(0.3827 -0.9239 0.9239 0.3827 16.4977 37.6935)" class="st0" cx="36.5" cy="6.5" rx="6" ry="6"/>
				<g>
					<path class="st1" d="M41.6,4.9l0.6-0.2c-0.5-1.6-1.7-3-3.4-3.8c-3.1-1.3-6.6,0.2-7.8,3.2l0.5,0.2C34.7,5.8,38.3,5.9,41.6,4.9z"
						/>
				</g>
			</g>
			<g>
				<g>
					<path class="st0" d="M24.8,34.7l-5.7,16.1c-0.2,0.5,0.1,1.1,0.6,1.3l1.9,0.8c0.5,0.2,1.1,0,1.3-0.5L30.3,37"/>
					<path class="st0" d="M36.4,23.9c0.1,1.9,1.3,3.5,3.1,4.3l7.5,3.1l1.5-3.7l-8.1-3.4l-0.5-6.8c-0.1-1.9-1.3-3.5-3.1-4.3l-7.1-3
						c-0.7-0.3-1.5-0.4-2.3-0.4l-8.1,0.6c-1.9,0.1-3.5,1.3-4.3,3.1L11.9,21l3.7,1.5l3.4-8.1l7.9-0.6l-5,12c-1.1,2.6,0.2,5.5,2.7,6.5
						l10.2,4.2l-2.6,8.8c-0.1,0.5,0.1,1,0.6,1.2l2,0.8c0.5,0.2,1,0,1.3-0.5l4.3-8.8c1.3-2.6,0.1-5.7-2.6-6.8l-4.3-1.8l2.9-7
						L36.4,23.9z"/>
					<path class="st0" d="M14.9,24.4L14.9,24.4c-0.4,1-1.6,1.5-2.6,1.1l0,0c-1-0.4-1.5-1.6-1.1-2.6l0,0"/>
					<path class="st0" d="M50.4,28.4L50.4,28.4c1,0.4,1.5,1.6,1.1,2.6l0,0c-0.4,1-1.6,1.5-2.6,1.1h0"/>
				</g>
				<line class="st0" x1="33.4" y1="29.6" x2="22.3" y2="25"/>
			</g>
		</g>
	</g>
</g>
</svg>
