<?xml version="1.0" encoding="utf-8"?>
<!-- Generator: Adobe Illustrator 21.1.0, SVG Export Plug-In . SVG Version: 6.00 Build 0)  -->
<svg version="1.1" id="Icon_Set" xmlns="http://www.w3.org/2000/svg" xmlns:xlink="http://www.w3.org/1999/xlink" x="0px" y="0px"
	 viewBox="0 0 64 64" style="enable-background:new 0 0 64 64;" xml:space="preserve">
<style type="text/css">
	.st0{fill:none;stroke:#37474F;stroke-linecap:round;stroke-linejoin:round;stroke-miterlimit:10;}
	.st1{fill:#FFB300;stroke:#37474F;stroke-linecap:round;stroke-linejoin:round;stroke-miterlimit:10;}
	.st2{fill:#90CAF9;stroke:#37474F;stroke-linecap:round;stroke-linejoin:round;stroke-miterlimit:10;}
	.st3{fill:#FFFFFF;stroke:#37474F;stroke-linecap:round;stroke-linejoin:round;stroke-miterlimit:10;}
	.st4{fill:#FF7043;stroke:#37474F;stroke-linecap:round;stroke-linejoin:round;stroke-miterlimit:10;}
	.st5{fill:#9CCC65;stroke:#37474F;stroke-linecap:round;stroke-linejoin:round;stroke-miterlimit:10;}
	.st6{fill:#37474F;}
	.st7{fill:#37474F;stroke:#37474F;stroke-linecap:round;stroke-linejoin:round;stroke-miterlimit:10;}
	.st8{fill:none;stroke:#37474F;stroke-linecap:square;stroke-linejoin:round;stroke-miterlimit:10;}
</style>
<g id="Advisor">
	<g>
		<g>
			<line class="st0" x1="9" y1="36" x2="4" y2="36"/>
			<line class="st0" x1="2" y1="36" x2="1" y2="36"/>
		</g>
		<g>
			<line class="st0" x1="16" y1="4" x2="21" y2="4"/>
			<line class="st0" x1="23" y1="4" x2="24" y2="4"/>
		</g>
		<g>
			<g>
				<path class="st0" d="M32,23.5c-0.1,0-0.2,0-0.3,0C30.6,18.6,26.2,15,21,15s-9.6,3.6-10.7,8.5c-0.1,0-0.2,0-0.3,0
					c-1.4,0-2.5,1.1-2.5,2.5s1.1,2.5,2.5,2.5c0.1,0,0.2,0,0.3,0C11.4,33.4,15.8,37,21,37s9.6-3.6,10.7-8.5c0.1,0,0.2,0,0.3,0
					c1.4,0,2.5-1.1,2.5-2.5S33.4,23.5,32,23.5z"/>
				<path class="st1" d="M11,25h-0.5v-6.5h3v4C13.5,23.9,12.4,25,11,25z"/>
				<path class="st1" d="M28.5,18.4v4.1c0,1.4,1.1,2.5,2.5,2.5h0.5v-7.9C30.7,17.8,29.7,18.3,28.5,18.4z"/>
				<g>
					<circle class="st6" cx="24.5" cy="24.5" r="1"/>
					<circle class="st6" cx="17.5" cy="24.5" r="1"/>
				</g>
				<path class="st0" d="M17.5,29.5c2,2,5.1,2,7.1,0"/>
				<path class="st1" d="M28,18.5H10.5v0c0-4.1,3.4-7.5,7.5-7.5h5.2c2.2,0,4.3-0.5,6.3-1.4L33,8v5.5C33,16.3,30.8,18.5,28,18.5z"/>
			</g>
			<polygon class="st2" points="23.5,59.1 21,62 18.5,59.1 20,44 22,44 			"/>
			<line class="st0" x1="11" y1="62" x2="11" y2="52"/>
			<line class="st0" x1="31" y1="62" x2="31" y2="52"/>
			<g>
				<path class="st0" d="M17,38l-9.5,4.1C4.8,43.2,3,45.9,3,48.9V62"/>
				<path class="st0" d="M25,38l9.5,4.1c2.8,1.2,4.5,3.9,4.5,6.9V54h10v8H36c-2.8,0-5-2.2-5-5v-3"/>
			</g>
			<g>
				<polygon class="st0" points="14.9,44 19,41 17,38 14.5,39.1 				"/>
				<polygon class="st0" points="27.1,44 23,41 25,38 27.5,39.1 				"/>
			</g>
			<path class="st2" d="M22,44h-2c-0.6,0-1-0.4-1-1v-1c0-0.6,0.4-1,1-1h2c0.6,0,1,0.4,1,1v1C23,43.6,22.6,44,22,44z"/>
			<path class="st0" d="M21,37c-1.4,0-2.8-0.3-4-0.8V38l2.2,3.4c0.2-0.2,0.4-0.4,0.8-0.4h2c0.3,0,0.6,0.1,0.8,0.4L25,38v-1.8
				C23.8,36.7,22.4,37,21,37z"/>
			<path class="st0" d="M51,61h6.4c1.1,0,2.1-0.7,2.4-1.8l1.1-3.9c0.2-0.6-0.3-1.3-1-1.3h-9"/>
		</g>
		<rect x="45" y="27" class="st0" width="15" height="20"/>
		<polyline class="st0" points="48,49 48,50 63,50 63,30 62,30 		"/>
		<line class="st0" x1="50" y1="32" x2="55" y2="32"/>
		<line class="st0" x1="48.5" y1="36" x2="56.5" y2="36"/>
		<line class="st0" x1="48.5" y1="39" x2="56.5" y2="39"/>
		<line class="st0" x1="48.5" y1="42" x2="56.5" y2="42"/>
		<g>
			<circle class="st5" cx="52.5" cy="15" r="5"/>
			<g>
				<path class="st0" d="M53.6,13.1h-1.7c-0.5,0-0.9,0.4-0.9,0.9v0c0,0.5,0.4,0.9,0.9,0.9h1.1c0.5,0,0.9,0.4,0.9,0.9v0
					c0,0.5-0.4,0.9-0.9,0.9h-1.7"/>
				<line class="st0" x1="52.5" y1="12" x2="52.5" y2="12.7"/>
				<line class="st0" x1="52.5" y1="17.2" x2="52.5" y2="18"/>
			</g>
		</g>
		<g>
			<line class="st0" x1="42" y1="13" x2="42" y2="9"/>
			<line class="st0" x1="40" y1="11" x2="44" y2="11"/>
		</g>
		<g>
			<line class="st0" x1="48.5" y1="6" x2="48.5" y2="2"/>
			<line class="st0" x1="46.5" y1="4" x2="50.5" y2="4"/>
		</g>
	</g>
</g>
</svg>
