<?xml version="1.0" encoding="utf-8"?>
<!-- Generator: Adobe Illustrator 21.1.0, SVG Export Plug-In . SVG Version: 6.00 Build 0)  -->
<svg version="1.1" id="Icon_Set" xmlns="http://www.w3.org/2000/svg" xmlns:xlink="http://www.w3.org/1999/xlink" x="0px" y="0px"
	 viewBox="0 0 64 64" style="enable-background:new 0 0 64 64;" xml:space="preserve">
<style type="text/css">
	.st0{fill:none;stroke:#37474F;stroke-linecap:round;stroke-linejoin:round;stroke-miterlimit:10;}
	.st1{fill:#FFB300;stroke:#37474F;stroke-linecap:round;stroke-linejoin:round;stroke-miterlimit:10;}
	.st2{fill:#90CAF9;stroke:#37474F;stroke-linecap:round;stroke-linejoin:round;stroke-miterlimit:10;}
	.st3{fill:#FFFFFF;stroke:#37474F;stroke-linecap:round;stroke-linejoin:round;stroke-miterlimit:10;}
	.st4{fill:#FF7043;stroke:#37474F;stroke-linecap:round;stroke-linejoin:round;stroke-miterlimit:10;}
	.st5{fill:#9CCC65;stroke:#37474F;stroke-linecap:round;stroke-linejoin:round;stroke-miterlimit:10;}
	.st6{fill:#37474F;}
	.st7{fill:#37474F;stroke:#37474F;stroke-linecap:round;stroke-linejoin:round;stroke-miterlimit:10;}
	.st8{fill:none;stroke:#37474F;stroke-linecap:square;stroke-linejoin:round;stroke-miterlimit:10;}
</style>
<g id="Manager">
	<g>
		<circle class="st4" cx="32" cy="7" r="5"/>
		<line class="st2" x1="32" y1="14" x2="32" y2="20"/>
		<ellipse transform="matrix(0.7071 -0.7071 0.7071 0.7071 4.4227 38.7366)" class="st4" cx="49" cy="14" rx="5" ry="5"/>
		<circle class="st4" cx="56" cy="31" r="5"/>
		<line class="st2" x1="49" y1="31" x2="43" y2="31"/>
		<circle class="st4" cx="8" cy="31" r="5"/>
		<line class="st2" x1="15" y1="31" x2="21" y2="31"/>
		<ellipse transform="matrix(0.7071 -0.7071 0.7071 0.7071 -5.5184 14.7366)" class="st4" cx="15" cy="14" rx="5" ry="5"/>
		<line class="st2" x1="20" y1="19" x2="24.2" y2="23.2"/>
		<line class="st2" x1="44" y1="19" x2="39.8" y2="23.2"/>
		<g>
			<line class="st0" x1="13" y1="58" x2="8" y2="58"/>
			<line class="st0" x1="6" y1="58" x2="5" y2="58"/>
		</g>
		<g>
			<line class="st0" x1="51" y1="58" x2="56" y2="58"/>
			<line class="st0" x1="58" y1="58" x2="59" y2="58"/>
		</g>
		<g>
			<g>
				<circle class="st0" cx="32" cy="31" r="8"/>
				<path class="st1" d="M37.5,26.4l0.6-0.5C36.7,24.1,34.5,23,32,23c-4.4,0-8,3.6-8,8h0.8C29.4,31,34,29.4,37.5,26.4z"/>
			</g>
			<g>
				<g>
					<path class="st0" d="M32,39c-1.1,0-2.1-0.2-3-0.6l0,1.6l3,4.5l3-4.5l0-1.6C34.1,38.8,33.1,39,32,39z"/>
					<path class="st0" d="M20,62V47.3c0-2,1.2-3.8,3-4.6l6-2.7l3,4.5l3-4.5l3.8,1.7c1.1,0.5,2.1,1.2,2.9,2l3.7,3.7l5.3-5.3l3.5,3.5
						l-7.1,7.1c-1,1-2.6,1-3.5,0L39,48.1L39,62"/>
					<line class="st0" x1="25" y1="50" x2="25" y2="62"/>
					<polygon class="st2" points="34.5,56.5 32,59 29.5,56.5 31,44.5 33,44.5 					"/>
					<polygon class="st0" points="29,40 28.5,44.5 35.5,44.5 35,40 32,44.5 					"/>
				</g>
				<path class="st0" d="M52.1,40.7L52.1,40.7c1-1,2.6-1,3.5,0l0,0c1,1,1,2.6,0,3.5l0,0"/>
			</g>
		</g>
	</g>
</g>
</svg>
