<?xml version="1.0" encoding="utf-8"?>
<!-- Generator: Adobe Illustrator 21.1.0, SVG Export Plug-In . SVG Version: 6.00 Build 0)  -->
<svg version="1.1" id="Icon_Set" xmlns="http://www.w3.org/2000/svg" xmlns:xlink="http://www.w3.org/1999/xlink" x="0px" y="0px"
	 viewBox="0 0 64 64" style="enable-background:new 0 0 64 64;" xml:space="preserve">
<style type="text/css">
	.st0{fill:none;stroke:#37474F;stroke-linecap:round;stroke-linejoin:round;stroke-miterlimit:10;}
	.st1{fill:#FFB300;stroke:#37474F;stroke-linecap:round;stroke-linejoin:round;stroke-miterlimit:10;}
	.st2{fill:#90CAF9;stroke:#37474F;stroke-linecap:round;stroke-linejoin:round;stroke-miterlimit:10;}
	.st3{fill:#FFFFFF;stroke:#37474F;stroke-linecap:round;stroke-linejoin:round;stroke-miterlimit:10;}
	.st4{fill:#FF7043;stroke:#37474F;stroke-linecap:round;stroke-linejoin:round;stroke-miterlimit:10;}
	.st5{fill:#9CCC65;stroke:#37474F;stroke-linecap:round;stroke-linejoin:round;stroke-miterlimit:10;}
	.st6{fill:#37474F;}
	.st7{fill:#37474F;stroke:#37474F;stroke-linecap:round;stroke-linejoin:round;stroke-miterlimit:10;}
	.st8{fill:none;stroke:#37474F;stroke-linecap:square;stroke-linejoin:round;stroke-miterlimit:10;}
</style>
<g id="Job_Rotation">
	<g>
		<g>
			<g>
				<circle class="st0" cx="12.5" cy="32" r="8"/>
				<path class="st1" d="M18,27.4l0.6-0.5C17.2,25.1,15,24,12.5,24c-4.4,0-8,3.6-8,8h0.8C9.9,32,14.5,30.4,18,27.4z"/>
			</g>
			<g>
				<path class="st0" d="M12.5,40c-1.1,0-2.1-0.2-3-0.6l0,1.6l3,4.5l3-4.5l0-1.6C14.6,39.8,13.6,40,12.5,40z"/>
				<line class="st0" x1="19.5" y1="51" x2="19.5" y2="58"/>
				<line class="st0" x1="5.5" y1="51" x2="5.5" y2="58"/>
				<polygon class="st2" points="15,57.5 12.5,60 10,57.5 11.5,45.5 13.5,45.5 				"/>
				<polygon class="st0" points="9.5,41 9,45.5 16,45.5 15.5,41 12.5,45.5 				"/>
				<path class="st0" d="M24.5,58v-9.8c0-2-1.2-3.8-3-4.6l-6-2.7l-3,4.5l-3-4.5l-6,2.7c-1.8,0.8-3,2.6-3,4.6V58"/>
			</g>
		</g>
		<g>
			<g>
				<circle class="st0" cx="51.5" cy="32" r="8"/>
				<path class="st1" d="M57,27.4l0.6-0.5C56.2,25.1,54,24,51.5,24c-4.4,0-8,3.6-8,8h0.8C48.9,32,53.5,30.4,57,27.4z"/>
			</g>
			<g>
				<path class="st0" d="M51.5,40c-1.1,0-2.1-0.2-3-0.6l0,1.6l3,4.5l3-4.5l0-1.6C53.6,39.8,52.6,40,51.5,40z"/>
				<line class="st0" x1="58.5" y1="51" x2="58.5" y2="58"/>
				<line class="st0" x1="44.5" y1="51" x2="44.5" y2="58"/>
				<polygon class="st0" points="54,57.5 51.5,60 49,57.5 50.5,45.5 52.5,45.5 				"/>
				<polygon class="st0" points="48.5,41 48,45.5 55,45.5 54.5,41 51.5,45.5 				"/>
				<path class="st0" d="M63.5,58v-9.8c0-2-1.2-3.8-3-4.6l-6-2.7l-3,4.5l-3-4.5l-6,2.7c-1.8,0.8-3,2.6-3,4.6V58"/>
			</g>
		</g>
		<g>
			<circle class="st2" cx="32" cy="14" r="10"/>
			<path class="st0" d="M38,14c0,1.5-0.6,3.1-1.8,4.2c-2.3,2.3-6.1,2.3-8.5,0"/>
			<path class="st0" d="M26,14c0-1.5,0.6-3.1,1.8-4.2c2.3-2.3,6.1-2.3,8.5,0"/>
			<polyline class="st0" points="27.5,13.2 26,14.7 24.5,13.2 			"/>
			<polyline class="st0" points="39.5,14.7 38,13.2 36.5,14.7 			"/>
		</g>
		<g>
			<line class="st0" x1="17" y1="14" x2="12" y2="14"/>
			<line class="st0" x1="10" y1="14" x2="9" y2="14"/>
		</g>
		<g>
			<line class="st0" x1="47" y1="14" x2="52" y2="14"/>
			<line class="st0" x1="54" y1="14" x2="55" y2="14"/>
		</g>
	</g>
</g>
</svg>
