<?xml version="1.0" encoding="utf-8"?>
<!-- Generator: Adobe Illustrator 21.1.0, SVG Export Plug-In . SVG Version: 6.00 Build 0)  -->
<svg version="1.1" id="Icon_Set" xmlns="http://www.w3.org/2000/svg" xmlns:xlink="http://www.w3.org/1999/xlink" x="0px" y="0px"
	 viewBox="0 0 64 64" style="enable-background:new 0 0 64 64;" xml:space="preserve">
<style type="text/css">
	.st0{fill:none;stroke:#37474F;stroke-linecap:round;stroke-linejoin:round;stroke-miterlimit:10;}
	.st1{fill:#FFB300;stroke:#37474F;stroke-linecap:round;stroke-linejoin:round;stroke-miterlimit:10;}
	.st2{fill:#90CAF9;stroke:#37474F;stroke-linecap:round;stroke-linejoin:round;stroke-miterlimit:10;}
	.st3{fill:#FFFFFF;stroke:#37474F;stroke-linecap:round;stroke-linejoin:round;stroke-miterlimit:10;}
	.st4{fill:#FF7043;stroke:#37474F;stroke-linecap:round;stroke-linejoin:round;stroke-miterlimit:10;}
	.st5{fill:#9CCC65;stroke:#37474F;stroke-linecap:round;stroke-linejoin:round;stroke-miterlimit:10;}
	.st6{fill:#37474F;}
	.st7{fill:#37474F;stroke:#37474F;stroke-linecap:round;stroke-linejoin:round;stroke-miterlimit:10;}
	.st8{fill:none;stroke:#37474F;stroke-linecap:square;stroke-linejoin:round;stroke-miterlimit:10;}
</style>
<g id="Teleconference">
	<g>
		<g>
			<g>
				<circle class="st0" cx="32" cy="35.5" r="8"/>
				<path class="st1" d="M37.5,30.9l0.6-0.5c-1.5-1.8-3.7-2.9-6.1-2.9c-4.4,0-8,3.6-8,8h0.8C29.4,35.5,34,33.9,37.5,30.9z"/>
			</g>
			<g>
				<path class="st0" d="M32,43.5c-1.1,0-2.1-0.2-3-0.6l0,1.6l3,4.5l3-4.5l0-1.6C34.1,43.3,33.1,43.5,32,43.5z"/>
				<line class="st0" x1="39" y1="54.5" x2="39" y2="61.5"/>
				<line class="st0" x1="25" y1="54.5" x2="25" y2="61.5"/>
				<polygon class="st2" points="34.5,61 32,63.5 29.5,61 31,49 33,49 				"/>
				<polygon class="st0" points="29,44.5 28.5,49 35.5,49 35,44.5 32,49 				"/>
				<path class="st0" d="M44,61.5v-9.8c0-2-1.2-3.8-3-4.6l-6-2.7L32,49l-3-4.5l-6,2.7c-1.8,0.8-3,2.6-3,4.6v9.8"/>
			</g>
		</g>
		<g>
			<g>
				<circle class="st0" cx="13" cy="29.3" r="8"/>
				<path class="st1" d="M18.5,24.7l0.6-0.5c-1.5-1.8-3.7-2.9-6.1-2.9c-4.4,0-8,3.6-8,8h0.8C10.4,29.3,15,27.7,18.5,24.7z"/>
			</g>
			<g>
				<path class="st0" d="M13,37.3c-1.1,0-2.1-0.2-3-0.6l0,1.6l3,4.5l3-4.5l0-1.6C15.1,37.1,14.1,37.3,13,37.3z"/>
				<line class="st0" x1="6" y1="48.3" x2="6" y2="55.3"/>
				<polygon class="st2" points="15.5,54.8 13,57.3 10.5,54.8 12,42.8 14,42.8 				"/>
				<polygon class="st0" points="10,38.3 9.5,42.8 16.5,42.8 16,38.3 13,42.8 				"/>
				<g>
					<path class="st0" d="M24.8,44.2c-0.4-1.4-1.4-2.6-2.8-3.2l-6-2.7l-3,4.5l-3-4.5L4,41c-1.8,0.8-3,2.6-3,4.6v9.8"/>
				</g>
			</g>
		</g>
		<g>
			<path class="st5" d="M23.5,5.1L23.5,5.1c0.6,6.6,5.8,11.8,12.3,12.3l0,0c0.6,0.1,1.1-0.1,1.5-0.5l1.8-1.8c0.5-0.5,0.5-1.3,0-1.8
				l-1.8-1.8c-0.5-0.5-1.3-0.5-1.8,0l-0.7,0.7c-0.6,0.6-1.5,0.7-2.2,0.4c-1.9-1-3.4-2.5-4.4-4.4c-0.4-0.7-0.2-1.6,0.4-2.2l0.7-0.7
				c0.5-0.5,0.5-1.3,0-1.8l-1.8-1.8c-0.5-0.5-1.3-0.5-1.8,0l-1.8,1.8C23.7,4,23.5,4.6,23.5,5.1z"/>
			<circle class="st5" cx="39" cy="2" r="1.5"/>
			<circle class="st5" cx="35" cy="6" r="1.5"/>
		</g>
		<g>
			<line class="st5" x1="32" y1="25" x2="32" y2="23"/>
			<line class="st5" x1="32" y1="21" x2="32" y2="19"/>
		</g>
		<g>
			<line class="st5" x1="13" y1="18.5" x2="13" y2="16.5"/>
			<line class="st5" x1="13" y1="14.5" x2="13" y2="12.5"/>
			<line class="st5" x1="15" y1="12.5" x2="17" y2="12.5"/>
			<line class="st5" x1="19" y1="12.5" x2="21" y2="12.5"/>
		</g>
		<g>
			<g>
				<circle class="st0" cx="51" cy="29.3" r="8"/>
				<path class="st1" d="M56.5,24.7l0.6-0.5c-1.5-1.8-3.7-2.9-6.1-2.9c-4.4,0-8,3.6-8,8h0.8C48.4,29.3,53,27.7,56.5,24.7z"/>
			</g>
			<g>
				<path class="st0" d="M51,37.3c1.1,0,2.1-0.2,3-0.6l0,1.6l-3,4.5l-3-4.5l0-1.6C48.9,37.1,49.9,37.3,51,37.3z"/>
				<line class="st0" x1="58" y1="48.3" x2="58" y2="55.3"/>
				<polygon class="st2" points="48.5,54.8 51,57.3 53.5,54.8 52,42.8 50,42.8 				"/>
				<polygon class="st0" points="54,38.3 54.5,42.8 47.5,42.8 48,38.3 51,42.8 				"/>
				<g>
					<path class="st0" d="M39.2,44.2c0.4-1.4,1.4-2.6,2.8-3.2l6-2.7l3,4.5l3-4.5l6,2.7c1.8,0.8,3,2.6,3,4.6v9.8"/>
				</g>
			</g>
		</g>
		<g>
			<line class="st5" x1="51" y1="18.5" x2="51" y2="16.5"/>
			<line class="st5" x1="51" y1="14.5" x2="51" y2="12.5"/>
			<line class="st5" x1="49" y1="12.5" x2="47" y2="12.5"/>
			<line class="st5" x1="45" y1="12.5" x2="43" y2="12.5"/>
		</g>
	</g>
</g>
</svg>
