<?xml version="1.0" encoding="utf-8"?>
<!-- Generator: Adobe Illustrator 21.1.0, SVG Export Plug-In . SVG Version: 6.00 Build 0)  -->
<svg version="1.1" id="Icon_Set" xmlns="http://www.w3.org/2000/svg" xmlns:xlink="http://www.w3.org/1999/xlink" x="0px" y="0px"
	 viewBox="0 0 64 64" style="enable-background:new 0 0 64 64;" xml:space="preserve">
<style type="text/css">
	.st0{fill:none;stroke:#37474F;stroke-linecap:round;stroke-linejoin:round;stroke-miterlimit:10;}
	.st1{fill:#FFB300;stroke:#37474F;stroke-linecap:round;stroke-linejoin:round;stroke-miterlimit:10;}
	.st2{fill:#90CAF9;stroke:#37474F;stroke-linecap:round;stroke-linejoin:round;stroke-miterlimit:10;}
	.st3{fill:#FFFFFF;stroke:#37474F;stroke-linecap:round;stroke-linejoin:round;stroke-miterlimit:10;}
	.st4{fill:#FF7043;stroke:#37474F;stroke-linecap:round;stroke-linejoin:round;stroke-miterlimit:10;}
	.st5{fill:#9CCC65;stroke:#37474F;stroke-linecap:round;stroke-linejoin:round;stroke-miterlimit:10;}
	.st6{fill:#37474F;}
	.st7{fill:#37474F;stroke:#37474F;stroke-linecap:round;stroke-linejoin:round;stroke-miterlimit:10;}
	.st8{fill:none;stroke:#37474F;stroke-linecap:square;stroke-linejoin:round;stroke-miterlimit:10;}
</style>
<g id="Consumer_Protection">
	<g>
		<g>
			<line class="st0" x1="12" y1="57" x2="7" y2="57"/>
			<line class="st0" x1="5" y1="57" x2="4" y2="57"/>
		</g>
		<g>
			<line class="st0" x1="53" y1="7" x2="58" y2="7"/>
			<line class="st0" x1="60" y1="7" x2="61" y2="7"/>
		</g>
		<g>
			<g>
				<path class="st0" d="M40.5,27c-0.1,0-0.2,0-0.3,0c-1.1-4.9-5.5-8.5-10.7-8.5s-9.6,3.6-10.7,8.5c-0.1,0-0.2,0-0.3,0
					c-1.4,0-2.5,1.1-2.5,2.5s1.1,2.5,2.5,2.5c0.1,0,0.2,0,0.3,0c1.1,4.9,5.5,8.5,10.7,8.5s9.6-3.6,10.7-8.5c0.1,0,0.2,0,0.3,0
					c1.4,0,2.5-1.1,2.5-2.5S41.9,27,40.5,27z"/>
				<path class="st1" d="M19.5,28.5H19V22h3v4C22,27.4,20.9,28.5,19.5,28.5z"/>
				<path class="st1" d="M36.5,22H19v0c0-4.1,3.4-7.5,7.5-7.5h5.2c2.2,0,4.3-0.5,6.3-1.4l3.5-1.6V17C41.5,19.8,39.3,22,36.5,22z"/>
				<path class="st1" d="M37,21.9V26c0,1.4,1.1,2.5,2.5,2.5H40v-7.9C39.2,21.3,38.2,21.8,37,21.9z"/>
				<g>
					<circle class="st6" cx="33" cy="28" r="1"/>
					<circle class="st6" cx="26" cy="28" r="1"/>
				</g>
				<path class="st0" d="M26,33c2,2,5.1,2,7.1,0"/>
			</g>
			<path class="st0" d="M29.5,40.5c-1.4,0-2.8-0.3-4-0.8v1.8l0,0c1.9,2.9,6.1,2.9,8,0l0,0v-1.8C32.3,40.2,30.9,40.5,29.5,40.5z"/>
			<path class="st0" d="M40,44.3l-6.5-2.8c-1.9,2.9-6.1,2.9-8,0L16,45.6c-1.5,0.6-2.7,1.7-3.4,3"/>
		</g>
		<path class="st0" d="M55.6,38.1c0.9-2.7,1.4-5.6,1.4-8.6C57,14.3,44.7,2,29.5,2S2,14.3,2,29.5C2,44.7,14.3,57,29.5,57
			c4.1,0,8.1-0.9,11.6-2.6"/>
		<g>
			<path class="st5" d="M55.9,59.6L52,62l-3.9-2.4c-3.8-2.3-6.1-6.3-6.1-10.7V40l0.5,0.2c2.4,1.1,5.3,0.8,7.5-0.8l2-1.5l2,1.5
				c2.2,1.6,5,1.9,7.5,0.8L62,40v8.9C62,53.3,59.7,57.4,55.9,59.6z"/>
			<polyline class="st0" points="46.7,50 50.2,53.5 57.3,46.5 			"/>
		</g>
	</g>
</g>
</svg>
