<?xml version="1.0" encoding="utf-8"?>
<!-- Generator: Adobe Illustrator 21.1.0, SVG Export Plug-In . SVG Version: 6.00 Build 0)  -->
<svg version="1.1" id="Icon_Set" xmlns="http://www.w3.org/2000/svg" xmlns:xlink="http://www.w3.org/1999/xlink" x="0px" y="0px"
	 viewBox="0 0 64 64" style="enable-background:new 0 0 64 64;" xml:space="preserve">
<style type="text/css">
	.st0{fill:none;stroke:#37474F;stroke-linecap:round;stroke-linejoin:round;stroke-miterlimit:10;}
	.st1{fill:#FFB300;stroke:#37474F;stroke-linecap:round;stroke-linejoin:round;stroke-miterlimit:10;}
	.st2{fill:#90CAF9;stroke:#37474F;stroke-linecap:round;stroke-linejoin:round;stroke-miterlimit:10;}
	.st3{fill:#FFFFFF;stroke:#37474F;stroke-linecap:round;stroke-linejoin:round;stroke-miterlimit:10;}
	.st4{fill:#FF7043;stroke:#37474F;stroke-linecap:round;stroke-linejoin:round;stroke-miterlimit:10;}
	.st5{fill:#9CCC65;stroke:#37474F;stroke-linecap:round;stroke-linejoin:round;stroke-miterlimit:10;}
	.st6{fill:#37474F;}
	.st7{fill:#37474F;stroke:#37474F;stroke-linecap:round;stroke-linejoin:round;stroke-miterlimit:10;}
	.st8{fill:none;stroke:#37474F;stroke-linecap:square;stroke-linejoin:round;stroke-miterlimit:10;}
</style>
<g id="Introduction">
	<g>
		<g>
			<line class="st0" x1="50.5" y1="4" x2="55.5" y2="4"/>
			<line class="st0" x1="57.5" y1="4" x2="58.5" y2="4"/>
		</g>
		<g>
			<line class="st0" x1="13.5" y1="4" x2="8.5" y2="4"/>
			<line class="st0" x1="6.5" y1="4" x2="5.5" y2="4"/>
		</g>
		<g>
			<path class="st2" d="M36.5,6.5c4.1,0,7.5,2.7,7.5,6c0,1.8-1,3.4-2.5,4.5v1.8c0,0.6-0.6,0.9-1.1,0.7l-2.1-1.1
				c-0.6,0.1-1.2,0.2-1.8,0.2c-4.1,0-7.5-2.7-7.5-6C29,9.2,32.4,6.5,36.5,6.5z"/>
			<line class="st0" x1="33" y1="11.5" x2="40" y2="11.5"/>
			<line class="st0" x1="33" y1="14" x2="36.5" y2="14"/>
		</g>
		<g>
			<path class="st4" d="M27.5,21.5c-4.1,0-7.5,2.7-7.5,6c0,1.8,1,3.4,2.5,4.5v1.8c0,0.6,0.6,0.9,1.1,0.7l2.1-1.1
				c0.6,0.1,1.2,0.2,1.8,0.2c4.1,0,7.5-2.7,7.5-6C35,24.2,31.6,21.5,27.5,21.5z"/>
			<line class="st0" x1="24" y1="26.5" x2="31" y2="26.5"/>
			<line class="st0" x1="24" y1="29" x2="27.5" y2="29"/>
		</g>
		<g>
			<g>
				<circle class="st0" cx="10" cy="21" r="8"/>
				<path class="st1" d="M15.5,16.4l0.6-0.5C14.7,14.1,12.5,13,10,13c-4.4,0-8,3.6-8,8h0.8C7.4,21,12,19.4,15.5,16.4z"/>
			</g>
			<g>
				<g>
					<path class="st0" d="M12.3,36.8l4.2,10.1c0.3,0.6,0.7,1.1,1.3,1.3L28,52.4L26,57l-11-4.6c-1.2-0.5-2.2-1.5-2.7-2.7l-4.6-11"/>
				</g>
				<line class="st0" x1="17" y1="60" x2="17" y2="53.3"/>
				<path class="st0" d="M17,47.6V41c0-3.7-2.1-7.1-5.3-8.8L7.5,30l-3.2,3.6C3.5,34.5,3,35.7,3,36.9V60"/>
				<path class="st0" d="M29.8,53.2L29.8,53.2c1.3,0.5,1.9,2,1.4,3.3l0,0c-0.5,1.3-2,1.9-3.3,1.4l0,0"/>
				<path class="st0" d="M10,29c-0.9,0-1.7-0.1-2.5-0.4V30l4.2,2.2c0.2,0.1,0.3,0.2,0.5,0.3h0.3v-3.9C11.7,28.9,10.9,29,10,29z"/>
				<line class="st0" x1="3" y1="56" x2="17" y2="56"/>
			</g>
		</g>
		<g>
			<g>
				<circle class="st0" cx="54" cy="21" r="8"/>
				<path class="st1" d="M48.5,16.4l-0.6-0.5c1.5-1.8,3.7-2.9,6.1-2.9c4.4,0,8,3.6,8,8h-0.8C56.6,21,52,19.4,48.5,16.4z"/>
			</g>
			<g>
				<path class="st0" d="M34.2,53.2L34.2,53.2c-1.3,0.5-1.9,2-1.4,3.3v0c0.5,1.3,2,1.9,3.3,1.4l0,0"/>
				<polyline class="st0" points="44,49.1 36,52.4 38,57 44,54.5 				"/>
				<line class="st0" x1="51.5" y1="60" x2="51.5" y2="38.5"/>
				<line class="st0" x1="56.5" y1="38.5" x2="56.5" y2="60"/>
				<path class="st0" d="M61,60V36.9c0-1.2-0.5-2.4-1.3-3.3L56.5,30l-4.2,2.2C49.1,33.9,47,37.3,47,41v19"/>
				<path class="st0" d="M54,29c0.9,0,1.7-0.1,2.5-0.4V30l-4.2,2.2c-0.2,0.1-0.3,0.2-0.5,0.3h-0.3v-3.9C52.3,28.9,53.1,29,54,29z"/>
				<line class="st0" x1="47" y1="56" x2="49.5" y2="56"/>
				<line class="st0" x1="58.5" y1="56" x2="61" y2="56"/>
			</g>
		</g>
	</g>
</g>
</svg>
