<?xml version="1.0" encoding="utf-8"?>
<!-- Generator: Adobe Illustrator 21.1.0, SVG Export Plug-In . SVG Version: 6.00 Build 0)  -->
<svg version="1.1" id="Icon_Set" xmlns="http://www.w3.org/2000/svg" xmlns:xlink="http://www.w3.org/1999/xlink" x="0px" y="0px"
	 viewBox="0 0 64 64" style="enable-background:new 0 0 64 64;" xml:space="preserve">
<style type="text/css">
	.st0{fill:none;stroke:#37474F;stroke-linecap:round;stroke-linejoin:round;stroke-miterlimit:10;}
	.st1{fill:#FFB300;stroke:#37474F;stroke-linecap:round;stroke-linejoin:round;stroke-miterlimit:10;}
	.st2{fill:#90CAF9;stroke:#37474F;stroke-linecap:round;stroke-linejoin:round;stroke-miterlimit:10;}
	.st3{fill:#FFFFFF;stroke:#37474F;stroke-linecap:round;stroke-linejoin:round;stroke-miterlimit:10;}
	.st4{fill:#FF7043;stroke:#37474F;stroke-linecap:round;stroke-linejoin:round;stroke-miterlimit:10;}
	.st5{fill:#9CCC65;stroke:#37474F;stroke-linecap:round;stroke-linejoin:round;stroke-miterlimit:10;}
	.st6{fill:#37474F;}
	.st7{fill:#37474F;stroke:#37474F;stroke-linecap:round;stroke-linejoin:round;stroke-miterlimit:10;}
	.st8{fill:none;stroke:#37474F;stroke-linecap:square;stroke-linejoin:round;stroke-miterlimit:10;}
</style>
<g id="Humans_Resources">
	<g>
		<g>
			<line class="st0" x1="25.5" y1="14" x2="30.5" y2="14"/>
			<line class="st0" x1="32.5" y1="14" x2="33.5" y2="14"/>
		</g>
		<g>
			<line class="st0" x1="18.5" y1="6" x2="13.5" y2="6"/>
			<line class="st0" x1="11.5" y1="6" x2="10.5" y2="6"/>
		</g>
		<g>
			<g>
				<circle class="st0" cx="14.5" cy="29" r="10"/>
				<path class="st1" d="M21.4,23.2l0.7-0.6c-1.8-2.2-4.6-3.6-7.7-3.6c-5.5,0-10,4.5-10,10h0.9C11.3,29,16.9,27,21.4,23.2z"/>
			</g>
			<g>
				<path class="st0" d="M14.5,39c-1,0-2.1-0.2-3-0.5l0,1.5l3,4.5l3-4.5l0-1.5C16.5,38.8,15.5,39,14.5,39z"/>
				<path class="st0" d="M28.5,62V49.3c0-3.2-2-6-4.9-7L17.5,40l-3,4.5l-3-4.5v0l-6.1,2.2c-3,1.1-4.9,3.9-4.9,7V62"/>
				<line class="st0" x1="22.5" y1="48" x2="22.5" y2="62"/>
				<line class="st0" x1="6.5" y1="48" x2="6.5" y2="62"/>
				<polygon class="st2" points="17,60 14.5,62 12,60 13,45.5 14.5,44.5 16,45.5 				"/>
				<polygon class="st0" points="13,45.5 10.5,46 11.5,40 14.5,44.5 				"/>
				<polygon class="st0" points="16,45.5 18.5,46 17.5,40 14.5,44.5 				"/>
			</g>
		</g>
		<g>
			<g>
				<circle class="st0" cx="35.5" cy="31" r="8"/>
				<path class="st1" d="M41,26.4l0.6-0.5C40.2,24.1,38,23,35.5,23c-4.4,0-8,3.6-8,8h0.8C32.9,31,37.5,29.4,41,26.4z"/>
			</g>
			<g>
				<path class="st0" d="M35.5,39c-1.1,0-2.1-0.2-3-0.6l0,1.6l3,4.5l3-4.5l0-1.6C37.6,38.8,36.6,39,35.5,39z"/>
				<path class="st0" d="M47.5,62V47.2c0-2-1.2-3.8-3-4.6l-6-2.7l-3,4.5l-3-4.5v0l-5.1,2.3"/>
				<line class="st0" x1="42.5" y1="48" x2="42.5" y2="62"/>
				<polygon class="st2" points="38,59.5 35.5,62 33,59.5 34.5,44.5 36.5,44.5 				"/>
				<polygon class="st0" points="32.5,40 32,44.5 39,44.5 38.5,40 35.5,44.5 				"/>
			</g>
		</g>
		<g>
			<g>
				<circle class="st0" cx="52.5" cy="33" r="6"/>
				<path class="st1" d="M56.7,29.5l0.4-0.4C56,27.8,54.4,27,52.5,27c-3.3,0-6,2.7-6,6h0.6C50.6,33,54,31.8,56.7,29.5z"/>
			</g>
			<g>
				<path class="st0" d="M52.5,39c-1.1,0-2.1-0.3-3-0.8l0,1.8l3,4.5l3-4.5l0-1.8C54.6,38.7,53.6,39,52.5,39z"/>
				<path class="st0" d="M62.5,62V46.6c0-1.9-1.1-3.6-2.8-4.5L55.5,40l-3,4.5l-3-4.5v0l-3,1.5"/>
				<line class="st0" x1="58.5" y1="48" x2="58.5" y2="62"/>
				<polygon class="st0" points="49.5,40 49,44.5 56,44.5 55.5,40 52.5,44.5 				"/>
				<line class="st0" x1="52.5" y1="44.5" x2="52.5" y2="48"/>
			</g>
		</g>
		<g>
			<path class="st5" d="M58.5,22h-10c-2.8,0-5-2.2-5-5V7c0-2.8,2.2-5,5-5h10c2.8,0,5,2.2,5,5v10C63.5,19.8,61.3,22,58.5,22z"/>
			<polyline class="st0" points="48.2,12 51.7,15.5 58.8,8.5 			"/>
		</g>
	</g>
</g>
</svg>
