<?xml version="1.0" encoding="utf-8"?>
<!-- Generator: Adobe Illustrator 21.1.0, SVG Export Plug-In . SVG Version: 6.00 Build 0)  -->
<svg version="1.1" id="Icon_Set" xmlns="http://www.w3.org/2000/svg" xmlns:xlink="http://www.w3.org/1999/xlink" x="0px" y="0px"
	 viewBox="0 0 64 64" style="enable-background:new 0 0 64 64;" xml:space="preserve">
<style type="text/css">
	.st0{fill:none;stroke:#37474F;stroke-linecap:round;stroke-linejoin:round;stroke-miterlimit:10;}
	.st1{fill:#FFB300;stroke:#37474F;stroke-linecap:round;stroke-linejoin:round;stroke-miterlimit:10;}
	.st2{fill:#90CAF9;stroke:#37474F;stroke-linecap:round;stroke-linejoin:round;stroke-miterlimit:10;}
	.st3{fill:#FFFFFF;stroke:#37474F;stroke-linecap:round;stroke-linejoin:round;stroke-miterlimit:10;}
	.st4{fill:#FF7043;stroke:#37474F;stroke-linecap:round;stroke-linejoin:round;stroke-miterlimit:10;}
	.st5{fill:#9CCC65;stroke:#37474F;stroke-linecap:round;stroke-linejoin:round;stroke-miterlimit:10;}
	.st6{fill:#37474F;}
	.st7{fill:#37474F;stroke:#37474F;stroke-linecap:round;stroke-linejoin:round;stroke-miterlimit:10;}
	.st8{fill:none;stroke:#37474F;stroke-linecap:square;stroke-linejoin:round;stroke-miterlimit:10;}
</style>
<g id="Business_Idea">
	<g>
		<g>
			<line class="st0" x1="55" y1="58" x2="60" y2="58"/>
			<line class="st0" x1="62" y1="58" x2="63" y2="58"/>
		</g>
		<g>
			<line class="st0" x1="14" y1="37" x2="9" y2="37"/>
			<line class="st0" x1="7" y1="37" x2="6" y2="37"/>
		</g>
		<g>
			<polyline class="st0" points="1,17 4.5,13.5 8.1,17 17.6,7.5 			"/>
			<polyline class="st0" points="13.6,7.5 17.6,7.5 17.6,11.5 			"/>
		</g>
		<g>
			<g>
				<path class="st5" d="M60.6,12c0-3.1-2.8-5.6-6.1-4.9c-1.9,0.4-3.4,2-3.8,3.9c-0.3,1.7,0.2,3.3,1.2,4.4c0.7,0.8,1.2,1.8,1.2,2.8
					v0.3h5v-0.3c0-1.1,0.5-2.1,1.2-2.9C60.1,14.5,60.6,13.3,60.6,12z"/>
				<path class="st0" d="M55.6,23.5L55.6,23.5c-1.4,0-2.5-1.1-2.5-2.5v-2.5h5V21C58.1,22.4,57,23.5,55.6,23.5z"/>
				<line class="st0" x1="53.1" y1="21" x2="58.1" y2="21"/>
			</g>
			<line class="st0" x1="55.6" y1="2" x2="55.6" y2="4"/>
			<line class="st0" x1="49.2" y1="4.3" x2="50.6" y2="5.7"/>
			<line class="st0" x1="62" y1="4.3" x2="60.6" y2="5.7"/>
			<g>
				<path class="st0" d="M56.7,10.6H55c-0.5,0-0.9,0.4-0.9,0.9v0c0,0.5,0.4,0.9,0.9,0.9h1.1c0.5,0,0.9,0.4,0.9,0.9v0
					c0,0.5-0.4,0.9-0.9,0.9h-1.7"/>
				<line class="st0" x1="55.6" y1="9.5" x2="55.6" y2="10.2"/>
				<line class="st0" x1="55.6" y1="14.7" x2="55.6" y2="15.5"/>
			</g>
		</g>
		<g>
			<g>
				<path class="st0" d="M32,15c-5.2,0-9.6,3.6-10.7,8.5c-0.1,0-0.2,0-0.3,0c-1.4,0-2.5,1.1-2.5,2.5c0,1.4,1.1,2.5,2.5,2.5
					c0.1,0,0.2,0,0.3,0C22.4,33.4,26.8,37,32,37c6.1,0,11-4.9,11-11S38.1,15,32,15z"/>
				<path class="st1" d="M22,25h-0.5v-6.5h3v4C24.5,23.9,23.4,25,22,25z"/>
				<g>
					<circle class="st6" cx="37.5" cy="23.5" r="1"/>
					<circle class="st6" cx="30.5" cy="23.5" r="1"/>
				</g>
				<path class="st0" d="M30.5,28.5c2,2,5.1,2,7.1,0"/>
				<path class="st1" d="M39,18.5H21.5v0c0-4.1,3.4-7.5,7.5-7.5h6c3,0,5.9-0.9,8.3-2.5L44,8v5.5C44,16.3,41.8,18.5,39,18.5z"/>
			</g>
			<g>
				<path class="st0" d="M48.5,34.2h-2c-0.6,0-1-0.4-1-1v-0.5c0-0.6,0.4-1,1-1h2c0.6,0,1,0.4,1,1v0.5C49.5,33.8,49.1,34.2,48.5,34.2
					z"/>
				<path class="st0" d="M54.5,32v-3c0-0.6,0.4-1,1-1H56c0.6,0,1,0.4,1,1v3c0,0.6-0.4,1-1,1h-0.5C54.9,33,54.5,32.6,54.5,32z"/>
				<path class="st0" d="M52,32v-3c0-0.6,0.4-1,1-1h0.5c0.6,0,1,0.4,1,1v3c0,0.6-0.4,1-1,1H53C52.4,33,52,32.6,52,32z"/>
				<path class="st0" d="M49.5,32v-3c0-0.6,0.4-1,1-1H51c0.6,0,1,0.4,1,1v3c0,0.6-0.4,1-1,1h-0.5C49.9,33,49.5,32.6,49.5,32z"/>
				<path class="st0" d="M54.5,38c1.4,0,2.5-1.1,2.5-2.5V33"/>
				<path class="st0" d="M47,34.3v1.2c0,1.4,1.1,2.5,2.5,2.5"/>
				<path class="st0" d="M49.5,33v-9c0-0.6-0.4-1-1-1H48c-0.6,0-1,0.4-1,1v7.8"/>
			</g>
			<g>
				<line class="st0" x1="22" y1="62" x2="22" y2="52"/>
				<line class="st0" x1="42" y1="62" x2="42" y2="51.5"/>
				<line class="st0" x1="32" y1="62" x2="32" y2="44"/>
				<path class="st0" d="M48,46.5V40h8v9.9c0,3.6-3.7,6-7,4.6l-7-3"/>
				<path class="st0" d="M48,43.1L36,38l-4,6l-4-6l-9.5,4.1c-2.8,1.2-4.5,3.9-4.5,6.9V62"/>
				<polygon class="st2" points="34.5,59.1 32,62 29.5,59.1 31,44 33,44 				"/>
				<g>
					<polygon class="st0" points="25.9,44 30,41 28,38 25.5,39.1 					"/>
					<polygon class="st0" points="38.1,44 34,41 36,38 38.5,39.1 					"/>
				</g>
				<path class="st2" d="M33,44h-2c-0.6,0-1-0.4-1-1v-1c0-0.6,0.4-1,1-1h2c0.6,0,1,0.4,1,1v1C34,43.6,33.6,44,33,44z"/>
				<path class="st0" d="M32,37c-1.4,0-2.8-0.3-4-0.8V38l2.2,3.4c0.2-0.2,0.4-0.4,0.8-0.4h2c0.3,0,0.6,0.1,0.8,0.4L36,38v-1.8
					C34.8,36.7,33.4,37,32,37z"/>
			</g>
		</g>
	</g>
</g>
</svg>
