<?xml version="1.0" encoding="utf-8"?>
<!-- Generator: Adobe Illustrator 21.1.0, SVG Export Plug-In . SVG Version: 6.00 Build 0)  -->
<svg version="1.1" id="Icon_Set" xmlns="http://www.w3.org/2000/svg" xmlns:xlink="http://www.w3.org/1999/xlink" x="0px" y="0px"
	 viewBox="0 0 64 64" style="enable-background:new 0 0 64 64;" xml:space="preserve">
<style type="text/css">
	.st0{fill:none;stroke:#37474F;stroke-linecap:round;stroke-linejoin:round;stroke-miterlimit:10;}
	.st1{fill:#FFB300;stroke:#37474F;stroke-linecap:round;stroke-linejoin:round;stroke-miterlimit:10;}
	.st2{fill:#90CAF9;stroke:#37474F;stroke-linecap:round;stroke-linejoin:round;stroke-miterlimit:10;}
	.st3{fill:#FFFFFF;stroke:#37474F;stroke-linecap:round;stroke-linejoin:round;stroke-miterlimit:10;}
	.st4{fill:#FF7043;stroke:#37474F;stroke-linecap:round;stroke-linejoin:round;stroke-miterlimit:10;}
	.st5{fill:#9CCC65;stroke:#37474F;stroke-linecap:round;stroke-linejoin:round;stroke-miterlimit:10;}
	.st6{fill:#37474F;}
	.st7{fill:#37474F;stroke:#37474F;stroke-linecap:round;stroke-linejoin:round;stroke-miterlimit:10;}
	.st8{fill:none;stroke:#37474F;stroke-linecap:square;stroke-linejoin:round;stroke-miterlimit:10;}
</style>
<g id="Bluetooth_Transfer">
	<g>
		<g>
			<g>
				<path class="st0" d="M26.5,12c-5.2,0-9.6,3.6-10.7,8.5c-0.1,0-0.2,0-0.3,0c-1.4,0-2.5,1.1-2.5,2.5c0,1.4,1.1,2.5,2.5,2.5
					c0.1,0,0.2,0,0.3,0c1.1,4.9,5.5,8.5,10.7,8.5c6.1,0,11-4.9,11-11S32.6,12,26.5,12z"/>
				<path class="st1" d="M16.5,22H16v-6.5h3v4C19,20.9,17.9,22,16.5,22z"/>
				<g>
					<circle class="st6" cx="32" cy="22.5" r="1"/>
					<circle class="st6" cx="25" cy="22.5" r="1"/>
				</g>
				<path class="st0" d="M32,27c-2,2-5.1,2-7.1,0"/>
				<path class="st1" d="M33.5,15.5H16v0c0-4.1,3.4-7.5,7.5-7.5h6c3,0,5.9-0.9,8.3-2.5L38.5,5v5.5C38.5,13.3,36.3,15.5,33.5,15.5z"
					/>
			</g>
			<g>
				<line class="st0" x1="36.5" y1="59" x2="36.5" y2="49"/>
				<line class="st0" x1="16.5" y1="59" x2="16.5" y2="49"/>
				<path class="st0" d="M36.5,51v3c0,2.8,2.2,5,5,5h3c2.8,0,5-2.2,5-5v-7h-8v6"/>
				<path class="st0" d="M8.5,59V45.9c0-3,1.8-5.7,4.5-6.9l9.5-4.1l4,6l4-6l9,3.9"/>
				<g>
					<polygon class="st0" points="20.5,43 26.5,41 22.5,35 					"/>
					<polygon class="st0" points="30.5,35 26.5,41 32.5,43 					"/>
				</g>
				<path class="st0" d="M26.5,34c-1.4,0-2.8-0.3-4-0.8V35l4,6l4-6v-1.8C29.3,33.7,27.9,34,26.5,34z"/>
				<line class="st0" x1="26.5" y1="59" x2="26.5" y2="41"/>
				<path class="st0" d="M48.5,47h-5c-0.6,0-1-0.4-1-1v-5.5c0-0.6,0.4-1,1-1h5c0.6,0,1,0.4,1,1V46C49.5,46.6,49.1,47,48.5,47z"/>
				<path class="st0" d="M42.5,40.5c0-0.6,0.4-1,1-1h4V32c0-0.6-0.4-1-1-1h-6c-0.6,0-1,0.4-1,1v10c0,0.6,0.4,1,1,1h2V40.5z"/>
			</g>
		</g>
		<g>
			<circle class="st2" cx="53.5" cy="15" r="10"/>
			<polygon class="st0" points="57.5,11.5 53.5,8 53.5,15 			"/>
			<polygon class="st0" points="57.5,18.5 53.5,15 53.5,22 			"/>
			<line class="st0" x1="53.5" y1="15" x2="49.5" y2="11.5"/>
			<line class="st0" x1="49.5" y1="18.5" x2="53.5" y2="15"/>
		</g>
		<g>
			<line class="st0" x1="54.5" y1="55" x2="59.5" y2="55"/>
			<line class="st0" x1="61.5" y1="55" x2="62.5" y2="55"/>
		</g>
		<g>
			<line class="st0" x1="8.5" y1="34" x2="3.5" y2="34"/>
			<line class="st0" x1="1.5" y1="34" x2="0.5" y2="34"/>
		</g>
	</g>
</g>
</svg>
