<?xml version="1.0" encoding="utf-8"?>
<!-- Generator: Adobe Illustrator 21.1.0, SVG Export Plug-In . SVG Version: 6.00 Build 0)  -->
<svg version="1.1" id="Icon_Set" xmlns="http://www.w3.org/2000/svg" xmlns:xlink="http://www.w3.org/1999/xlink" x="0px" y="0px"
	 viewBox="0 0 64 64" style="enable-background:new 0 0 64 64;" xml:space="preserve">
<style type="text/css">
	.st0{fill:none;stroke:#37474F;stroke-linecap:round;stroke-linejoin:round;stroke-miterlimit:10;}
	.st1{fill:#FFB300;stroke:#37474F;stroke-linecap:round;stroke-linejoin:round;stroke-miterlimit:10;}
	.st2{fill:#90CAF9;stroke:#37474F;stroke-linecap:round;stroke-linejoin:round;stroke-miterlimit:10;}
	.st3{fill:#FFFFFF;stroke:#37474F;stroke-linecap:round;stroke-linejoin:round;stroke-miterlimit:10;}
	.st4{fill:#FF7043;stroke:#37474F;stroke-linecap:round;stroke-linejoin:round;stroke-miterlimit:10;}
	.st5{fill:#9CCC65;stroke:#37474F;stroke-linecap:round;stroke-linejoin:round;stroke-miterlimit:10;}
	.st6{fill:#37474F;}
	.st7{fill:#37474F;stroke:#37474F;stroke-linecap:round;stroke-linejoin:round;stroke-miterlimit:10;}
	.st8{fill:none;stroke:#37474F;stroke-linecap:square;stroke-linejoin:round;stroke-miterlimit:10;}
</style>
<g id="Internal_Meeting">
	<g>
		<rect x="15.5" y="42.7" class="st5" width="33" height="4.8"/>
		<g>
			<g>
				<circle class="st0" cx="8.5" cy="12.5" r="8"/>
				<path class="st1" d="M14,7.9l0.6-0.5C13.2,5.6,11,4.5,8.5,4.5c-4.4,0-8,3.6-8,8h0.8C5.9,12.5,10.5,10.9,14,7.9z"/>
			</g>
			<path class="st0" d="M1.5,63.5V56c0-1.4,1.1-2.5,2.5-2.5h11.5"/>
			<g>
				<g>
					<path class="st0" d="M11,30.2v7.5h12.5v5h-15c-1.4,0-2.5-1.1-2.5-2.5v-10"/>
				</g>
				<path class="st0" d="M15.5,35.7v-3.2c0-3.7-2.1-7.1-5.3-8.8L6,21.5l-3.2,3.6C2,26,1.5,27.2,1.5,28.4v20.1c0,2.8,2.2,5,5,5H18
					c1.4,0,2.5,1.1,2.5,2.5v7.5"/>
				<path class="st0" d="M8.5,20.5c-0.9,0-1.7-0.1-2.5-0.4v1.4l4.2,2.2c0.2,0.1,0.3,0.2,0.5,0.3H11v-3.9
					C10.2,20.4,9.4,20.5,8.5,20.5z"/>
				<path class="st0" d="M1.5,47.5h17.6c4.1,0,7.4,3.3,7.4,7.4v8.6"/>
				<path class="st0" d="M25.5,37.7L25.5,37.7c1.4,0,2.5,1.1,2.5,2.5v0c0,1.4-1.1,2.5-2.5,2.5l0,0"/>
			</g>
		</g>
		<g>
			<g>
				<circle class="st0" cx="55.5" cy="12.5" r="8"/>
				<path class="st1" d="M50,7.9l-0.6-0.5c1.5-1.8,3.7-2.9,6.1-2.9c4.4,0,8,3.6,8,8h-0.8C58.1,12.5,53.5,10.9,50,7.9z"/>
			</g>
			<path class="st0" d="M62.5,63.5V56c0-1.4-1.1-2.5-2.5-2.5H48.5"/>
			<g>
				<g>
					<path class="st0" d="M53,30.2v7.5H40.5v5h15c1.4,0,2.5-1.1,2.5-2.5v-10"/>
				</g>
				<path class="st0" d="M48.5,35.7v-3.2c0-3.7,2.1-7.1,5.3-8.8l4.2-2.2l3.2,3.6c0.8,0.9,1.3,2.1,1.3,3.3v20.1c0,2.8-2.2,5-5,5H46
					c-1.4,0-2.5,1.1-2.5,2.5v7.5"/>
				<path class="st0" d="M55.5,20.5c0.9,0,1.7-0.1,2.5-0.4v1.4l-4.2,2.2c-0.2,0.1-0.3,0.2-0.5,0.3H53v-3.9
					C53.8,20.4,54.6,20.5,55.5,20.5z"/>
				<path class="st0" d="M62.5,47.5H44.9c-4.1,0-7.4,3.3-7.4,7.4v8.6"/>
				<path class="st0" d="M38.5,37.7L38.5,37.7c-1.4,0-2.5,1.1-2.5,2.5v0c0,1.4,1.1,2.5,2.5,2.5l0,0"/>
			</g>
		</g>
		<g>
			<line class="st0" x1="41.5" y1="0.5" x2="46.5" y2="0.5"/>
			<line class="st0" x1="48.5" y1="0.5" x2="49.5" y2="0.5"/>
		</g>
		<g>
			<line class="st0" x1="22.5" y1="0.5" x2="17.5" y2="0.5"/>
			<line class="st0" x1="15.5" y1="0.5" x2="14.5" y2="0.5"/>
		</g>
		<g>
			<g>
				<circle class="st0" cx="32" cy="8.5" r="8"/>
				<path class="st1" d="M37.5,3.9l0.6-0.5c-1.5-1.8-3.7-2.9-6.1-2.9c-4.4,0-8,3.6-8,8h0.8C29.4,8.5,34,6.9,37.5,3.9z"/>
			</g>
			<g>
				<path class="st0" d="M32,16.5c-1.1,0-2.1-0.2-3-0.6l0,1.6l3,4.5l3-4.5l0-1.6C34.1,16.3,33.1,16.5,32,16.5z"/>
				<line class="st0" x1="39" y1="27.5" x2="39" y2="35.5"/>
				<line class="st0" x1="25" y1="27.5" x2="25" y2="35.5"/>
				<polygon class="st2" points="34.5,34 32,36.5 29.5,34 31,22 33,22 				"/>
				<polygon class="st0" points="29,17.5 28.5,22 35.5,22 35,17.5 32,22 				"/>
				<path class="st0" d="M44,35.5V24.8c0-2-1.2-3.8-3-4.6l-6-2.7L32,22l-3-4.5l-6,2.7c-1.8,0.8-3,2.6-3,4.6v10.8"/>
			</g>
		</g>
	</g>
</g>
</svg>
