<?xml version="1.0" encoding="utf-8"?>
<!-- Generator: Adobe Illustrator 21.1.0, SVG Export Plug-In . SVG Version: 6.00 Build 0)  -->
<svg version="1.1" id="Icon_Set" xmlns="http://www.w3.org/2000/svg" xmlns:xlink="http://www.w3.org/1999/xlink" x="0px" y="0px"
	 viewBox="0 0 64 64" style="enable-background:new 0 0 64 64;" xml:space="preserve">
<style type="text/css">
	.st0{fill:none;stroke:#37474F;stroke-linecap:round;stroke-linejoin:round;stroke-miterlimit:10;}
	.st1{fill:#FFB300;stroke:#37474F;stroke-linecap:round;stroke-linejoin:round;stroke-miterlimit:10;}
	.st2{fill:#90CAF9;stroke:#37474F;stroke-linecap:round;stroke-linejoin:round;stroke-miterlimit:10;}
	.st3{fill:#FFFFFF;stroke:#37474F;stroke-linecap:round;stroke-linejoin:round;stroke-miterlimit:10;}
	.st4{fill:#FF7043;stroke:#37474F;stroke-linecap:round;stroke-linejoin:round;stroke-miterlimit:10;}
	.st5{fill:#9CCC65;stroke:#37474F;stroke-linecap:round;stroke-linejoin:round;stroke-miterlimit:10;}
	.st6{fill:#37474F;}
	.st7{fill:#37474F;stroke:#37474F;stroke-linecap:round;stroke-linejoin:round;stroke-miterlimit:10;}
	.st8{fill:none;stroke:#37474F;stroke-linecap:square;stroke-linejoin:round;stroke-miterlimit:10;}
</style>
<g id="Hiring">
	<g>
		<g>
			<g>
				<path class="st0" d="M31.5,20c-0.1,0-0.2,0-0.3,0c-1.1-4.9-5.5-8.5-10.7-8.5S10.9,15.1,9.8,20c-0.1,0-0.2,0-0.3,0
					C8.1,20,7,21.1,7,22.5S8.1,25,9.5,25c0.1,0,0.2,0,0.3,0c1.1,4.9,5.5,8.5,10.7,8.5s9.6-3.6,10.7-8.5c0.1,0,0.2,0,0.3,0
					c1.4,0,2.5-1.1,2.5-2.5S32.9,20,31.5,20z"/>
				<path class="st1" d="M10.5,21.5H10V15h3v4C13,20.4,11.9,21.5,10.5,21.5z"/>
				<path class="st1" d="M27.5,15H10v0c0-4.1,3.4-7.5,7.5-7.5h5.2C24.9,7.5,27,7,29,6.1l3.5-1.6V10C32.5,12.8,30.2,15,27.5,15z"/>
				<path class="st1" d="M28,14.9V19c0,1.4,1.1,2.5,2.5,2.5H31v-7.9C30.2,14.3,29.1,14.8,28,14.9z"/>
				<g>
					<circle class="st6" cx="24" cy="21" r="1"/>
					<circle class="st6" cx="17" cy="21" r="1"/>
				</g>
				<path class="st0" d="M16.9,26c2,2,5.1,2,7.1,0"/>
			</g>
			<g>
				<line class="st0" x1="10.5" y1="58.5" x2="10.5" y2="48.5"/>
				<path class="st0" d="M28.7,36.3l-4.2-1.8l-4,6l-4-6L7,38.6c-2.8,1.2-4.5,3.9-4.5,6.9v13.1"/>
				<path class="st0" d="M38.5,47.9v-2.4c0-2.6-1.3-4.9-3.4-6.3"/>
				<line class="st0" x1="38.5" y1="58.5" x2="38.5" y2="55.3"/>
				<line class="st0" x1="30.5" y1="58.5" x2="30.5" y2="50.5"/>
				<g>
					<polygon class="st0" points="14.5,42.5 20.5,40.5 16.5,34.5 					"/>
					<polygon class="st0" points="24.5,34.5 20.5,40.5 26.5,42.5 					"/>
				</g>
				<path class="st0" d="M20.5,33.5c-1.4,0-2.8-0.3-4-0.8v1.8l4,6l4-6v-1.8C23.2,33.2,21.9,33.5,20.5,33.5z"/>
				<line class="st0" x1="20.5" y1="58.5" x2="20.5" y2="40.5"/>
			</g>
		</g>
		<g>
			<line class="st0" x1="8.5" y1="32.5" x2="3.5" y2="32.5"/>
			<line class="st0" x1="1.5" y1="32.5" x2="0.5" y2="32.5"/>
		</g>
		<g>
			<line class="st0" x1="23.3" y1="0.5" x2="28.3" y2="0.5"/>
			<line class="st0" x1="30.3" y1="0.5" x2="31.3" y2="0.5"/>
		</g>
		<g>
			<path class="st0" d="M50.1,50.1c-0.5,0.5-1,0.9-1.5,1.3l3.7,3.7l2.8-2.8l-3.7-3.7C51,49.1,50.6,49.6,50.1,50.1z"/>
			<path class="st2" d="M50.1,33.2c-4.7-4.7-12.3-4.7-17,0s-4.7,12.3,0,17c4.7,4.7,12.3,4.7,17,0C54.8,45.4,54.8,37.8,50.1,33.2z
				 M48,48c-3.5,3.5-9.2,3.5-12.7,0s-3.5-9.2,0-12.7c3.5-3.5,9.2-3.5,12.7,0C51.5,38.8,51.5,44.5,48,48z"/>
			<path class="st0" d="M54.7,52.6l-2.1,2.1c-0.4,0.4-0.4,1,0,1.4l7.1,7.1c0.4,0.4,1,0.4,1.4,0l2.1-2.1c0.4-0.4,0.4-1,0-1.4
				l-7.1-7.1C55.7,52.2,55.1,52.2,54.7,52.6z"/>
		</g>
		<g>
			<path class="st0" d="M54,24.5H42c-0.6,0-1-0.4-1-1v-22c0-0.6,0.4-1,1-1h16c0.6,0,1,0.4,1,1v18L54,24.5z"/>
			<path class="st0" d="M55,19.5h4l-5,5v-4C54,19.9,54.4,19.5,55,19.5z"/>
			<line class="st0" x1="47.5" y1="3.5" x2="52.5" y2="3.5"/>
			<line class="st0" x1="44" y1="8.5" x2="56" y2="8.5"/>
			<line class="st0" x1="44" y1="11.5" x2="56" y2="11.5"/>
			<line class="st0" x1="44" y1="14.5" x2="56" y2="14.5"/>
		</g>
	</g>
</g>
</svg>
