<?xml version="1.0" encoding="utf-8"?>
<!-- Generator: Adobe Illustrator 21.1.0, SVG Export Plug-In . SVG Version: 6.00 Build 0)  -->
<svg version="1.1" id="Icon_Set" xmlns="http://www.w3.org/2000/svg" xmlns:xlink="http://www.w3.org/1999/xlink" x="0px" y="0px"
	 viewBox="0 0 64 64" style="enable-background:new 0 0 64 64;" xml:space="preserve">
<style type="text/css">
	.st0{fill:none;stroke:#37474F;stroke-linecap:round;stroke-linejoin:round;stroke-miterlimit:10;}
	.st1{fill:#FFB300;stroke:#37474F;stroke-linecap:round;stroke-linejoin:round;stroke-miterlimit:10;}
	.st2{fill:#90CAF9;stroke:#37474F;stroke-linecap:round;stroke-linejoin:round;stroke-miterlimit:10;}
	.st3{fill:#FFFFFF;stroke:#37474F;stroke-linecap:round;stroke-linejoin:round;stroke-miterlimit:10;}
	.st4{fill:#FF7043;stroke:#37474F;stroke-linecap:round;stroke-linejoin:round;stroke-miterlimit:10;}
	.st5{fill:#9CCC65;stroke:#37474F;stroke-linecap:round;stroke-linejoin:round;stroke-miterlimit:10;}
	.st6{fill:#37474F;}
	.st7{fill:#37474F;stroke:#37474F;stroke-linecap:round;stroke-linejoin:round;stroke-miterlimit:10;}
	.st8{fill:none;stroke:#37474F;stroke-linecap:square;stroke-linejoin:round;stroke-miterlimit:10;}
</style>
<g id="Team_Network">
	<g>
		<g>
			<line class="st0" x1="15" y1="54.5" x2="10" y2="54.5"/>
			<line class="st0" x1="8" y1="54.5" x2="7" y2="54.5"/>
		</g>
		<g>
			<line class="st0" x1="49" y1="54.5" x2="54" y2="54.5"/>
			<line class="st0" x1="56" y1="54.5" x2="57" y2="54.5"/>
		</g>
		<g>
			<g>
				<circle class="st0" cx="32" cy="41" r="6"/>
				<path class="st1" d="M36.2,37.5l0.4-0.4C35.5,35.8,33.9,35,32,35c-3.3,0-6,2.7-6,6h0.6C30.1,41,33.5,39.8,36.2,37.5z"/>
			</g>
			<g>
				<g>
					<path class="st0" d="M32,47c-1.1,0-2.1-0.3-3-0.8l0,1.8l3,4.5l3-4.5l0-1.8C34.1,46.7,33.1,47,32,47z"/>
					<path class="st0" d="M42,62v-7.4c0-1.9-1.1-3.6-2.8-4.5L35,48"/>
					<path class="st0" d="M29,48l-4.2,2.1C23.1,51,22,52.7,22,54.6V62"/>
					<line class="st0" x1="32" y1="52.5" x2="32" y2="56.5"/>
				</g>
				<line class="st0" x1="26" y1="62" x2="26" y2="57"/>
				<line class="st0" x1="38" y1="57" x2="38" y2="62"/>
			</g>
		</g>
		<g>
			<g>
				<circle class="st0" cx="10.5" cy="23" r="6"/>
				<path class="st1" d="M14.7,19.5l0.4-0.4C14,17.8,12.4,17,10.5,17c-3.3,0-6,2.7-6,6h0.6C8.6,23,12,21.8,14.7,19.5z"/>
			</g>
			<g>
				<g>
					<path class="st0" d="M10.5,29c-1.1,0-2.1-0.3-3-0.8l0,1.8l3,4.5l3-4.5l0-1.8C12.6,28.7,11.6,29,10.5,29z"/>
					<path class="st0" d="M20.5,44v-7.4c0-1.9-1.1-3.6-2.8-4.5L13.5,30"/>
					<path class="st0" d="M7.5,30l-4.2,2.1c-1.7,0.8-2.8,2.6-2.8,4.5V44"/>
					<line class="st0" x1="10.5" y1="34.5" x2="10.5" y2="38.5"/>
				</g>
				<line class="st0" x1="4.5" y1="44" x2="4.5" y2="39"/>
				<line class="st0" x1="16.5" y1="39" x2="16.5" y2="44"/>
			</g>
		</g>
		<g>
			<g>
				<circle class="st0" cx="53.5" cy="23" r="6"/>
				<path class="st1" d="M57.7,19.5l0.4-0.4C57,17.8,55.4,17,53.5,17c-3.3,0-6,2.7-6,6h0.6C51.6,23,55,21.8,57.7,19.5z"/>
			</g>
			<g>
				<g>
					<path class="st0" d="M53.5,29c-1.1,0-2.1-0.3-3-0.8l0,1.8l3,4.5l3-4.5l0-1.8C55.6,28.7,54.6,29,53.5,29z"/>
					<path class="st0" d="M63.5,44v-7.4c0-1.9-1.1-3.6-2.8-4.5L56.5,30"/>
					<path class="st0" d="M50.5,30l-4.2,2.1c-1.7,0.8-2.8,2.6-2.8,4.5V44"/>
					<line class="st0" x1="53.5" y1="34.5" x2="53.5" y2="38.5"/>
				</g>
				<line class="st0" x1="47.5" y1="44" x2="47.5" y2="39"/>
				<line class="st0" x1="59.5" y1="39" x2="59.5" y2="44"/>
			</g>
		</g>
		<g>
			<polygon class="st0" points="24,20 32,6 40,20 			"/>
			<circle class="st2" cx="24" cy="20" r="4"/>
			<circle class="st2" cx="40" cy="20" r="4"/>
			<circle class="st2" cx="32" cy="6" r="4"/>
		</g>
	</g>
</g>
</svg>
