<?xml version="1.0" encoding="utf-8"?>
<!-- Generator: Adobe Illustrator 21.1.0, SVG Export Plug-In . SVG Version: 6.00 Build 0)  -->
<svg version="1.1" id="Icon_Set" xmlns="http://www.w3.org/2000/svg" xmlns:xlink="http://www.w3.org/1999/xlink" x="0px" y="0px"
	 viewBox="0 0 64 64" style="enable-background:new 0 0 64 64;" xml:space="preserve">
<style type="text/css">
	.st0{fill:none;stroke:#37474F;stroke-linecap:round;stroke-linejoin:round;stroke-miterlimit:10;}
	.st1{fill:#FFB300;stroke:#37474F;stroke-linecap:round;stroke-linejoin:round;stroke-miterlimit:10;}
	.st2{fill:#90CAF9;stroke:#37474F;stroke-linecap:round;stroke-linejoin:round;stroke-miterlimit:10;}
	.st3{fill:#FFFFFF;stroke:#37474F;stroke-linecap:round;stroke-linejoin:round;stroke-miterlimit:10;}
	.st4{fill:#FF7043;stroke:#37474F;stroke-linecap:round;stroke-linejoin:round;stroke-miterlimit:10;}
	.st5{fill:#9CCC65;stroke:#37474F;stroke-linecap:round;stroke-linejoin:round;stroke-miterlimit:10;}
	.st6{fill:#37474F;}
	.st7{fill:#37474F;stroke:#37474F;stroke-linecap:round;stroke-linejoin:round;stroke-miterlimit:10;}
	.st8{fill:none;stroke:#37474F;stroke-linecap:square;stroke-linejoin:round;stroke-miterlimit:10;}
</style>
<g id="Team">
	<g>
		<g>
			<line class="st0" x1="54" y1="62" x2="59" y2="62"/>
			<line class="st0" x1="61" y1="62" x2="62" y2="62"/>
		</g>
		<g>
			<line class="st0" x1="10" y1="2" x2="5" y2="2"/>
			<line class="st0" x1="3" y1="2" x2="2" y2="2"/>
		</g>
		<g>
			<g>
				<circle class="st0" cx="32" cy="32" r="8"/>
				<path class="st1" d="M37.5,27.4l0.6-0.5C36.7,25.1,34.5,24,32,24c-4.4,0-8,3.6-8,8h0.8C29.4,32,34,30.4,37.5,27.4z"/>
			</g>
			<g>
				<path class="st0" d="M32,40c-1.1,0-2.1-0.2-3-0.6l0,1.6l3,4.5l3-4.5l0-1.6C34.1,39.8,33.1,40,32,40z"/>
				<line class="st0" x1="39" y1="51" x2="39" y2="58"/>
				<line class="st0" x1="25" y1="51" x2="25" y2="58"/>
				<polygon class="st2" points="34.5,57.5 32,60 29.5,57.5 31,45.5 33,45.5 				"/>
				<polygon class="st0" points="29,41 28.5,45.5 35.5,45.5 35,41 32,45.5 				"/>
				<path class="st0" d="M44,57.3v-9c0-2-1.2-3.8-3-4.6L35,41l-3,4.5L29,41l-6,2.7c-1.8,0.8-3,2.6-3,4.6v9"/>
			</g>
		</g>
		<circle class="st0" cx="32" cy="32" r="30"/>
		<g>
			<g>
				<circle class="st0" cx="50" cy="27" r="6"/>
				<path class="st1" d="M54.2,23.5l0.4-0.4C53.5,21.8,51.9,21,50,21c-3.3,0-6,2.7-6,6h0.6C48.1,27,51.5,25.8,54.2,23.5z"/>
			</g>
			<g>
				<path class="st0" d="M50,33c-1.1,0-2.1-0.3-3-0.8l0,1.8l3,4.5l3-4.5l0-1.8C52.1,32.7,51.1,33,50,33z"/>
				<line class="st0" x1="50" y1="38.5" x2="50" y2="42"/>
				<g>
					<path class="st0" d="M47,34l-4.2,2.1C41.1,37,40,38.7,40,40.6v1"/>
					<path class="st0" d="M59.3,38.1c-0.5-0.8-1.2-1.5-2.1-2L53,34"/>
				</g>
			</g>
		</g>
		<g>
			<g>
				<circle class="st0" cx="14" cy="27" r="6"/>
				<path class="st1" d="M18.2,23.5l0.4-0.4C17.5,21.8,15.8,21,14,21c-3.3,0-6,2.7-6,6h0.6C12.1,27,15.5,25.8,18.2,23.5z"/>
			</g>
			<g>
				<path class="st0" d="M14,33c1.1,0,2.1-0.3,3-0.8l0,1.8l-3,4.5L11,34l0-1.8C11.9,32.7,12.9,33,14,33z"/>
				<line class="st0" x1="14" y1="38.5" x2="14" y2="42"/>
				<g>
					<path class="st0" d="M11,34l-4.2,2.1c-0.9,0.4-1.6,1.1-2.1,2"/>
					<path class="st0" d="M24,41.6v-1c0-1.9-1.1-3.6-2.8-4.5L17,34"/>
				</g>
			</g>
		</g>
	</g>
</g>
</svg>
