<?xml version="1.0" encoding="utf-8"?>
<!-- Generator: Adobe Illustrator 21.1.0, SVG Export Plug-In . SVG Version: 6.00 Build 0)  -->
<svg version="1.1" id="Icon_Set" xmlns="http://www.w3.org/2000/svg" xmlns:xlink="http://www.w3.org/1999/xlink" x="0px" y="0px"
	 viewBox="0 0 64 64" style="enable-background:new 0 0 64 64;" xml:space="preserve">
<style type="text/css">
	.st0{fill:none;stroke:#37474F;stroke-linecap:round;stroke-linejoin:round;stroke-miterlimit:10;}
	.st1{fill:#FFB300;stroke:#37474F;stroke-linecap:round;stroke-linejoin:round;stroke-miterlimit:10;}
	.st2{fill:#90CAF9;stroke:#37474F;stroke-linecap:round;stroke-linejoin:round;stroke-miterlimit:10;}
	.st3{fill:#FFFFFF;stroke:#37474F;stroke-linecap:round;stroke-linejoin:round;stroke-miterlimit:10;}
	.st4{fill:#FF7043;stroke:#37474F;stroke-linecap:round;stroke-linejoin:round;stroke-miterlimit:10;}
	.st5{fill:#9CCC65;stroke:#37474F;stroke-linecap:round;stroke-linejoin:round;stroke-miterlimit:10;}
	.st6{fill:#37474F;}
	.st7{fill:#37474F;stroke:#37474F;stroke-linecap:round;stroke-linejoin:round;stroke-miterlimit:10;}
	.st8{fill:none;stroke:#37474F;stroke-linecap:square;stroke-linejoin:round;stroke-miterlimit:10;}
</style>
<g id="Organization">
	<g>
		<g>
			<g>
				<line class="st0" x1="15" y1="10.5" x2="10" y2="10.5"/>
				<line class="st0" x1="8" y1="10.5" x2="7" y2="10.5"/>
			</g>
			<g>
				<line class="st0" x1="49" y1="10.5" x2="54" y2="10.5"/>
				<line class="st0" x1="56" y1="10.5" x2="57" y2="10.5"/>
			</g>
		</g>
		<g>
			<g>
				<circle class="st0" cx="32" cy="47.5" r="6"/>
				<path class="st1" d="M36.2,44l0.4-0.4c-1.1-1.3-2.8-2.2-4.6-2.2c-3.3,0-6,2.7-6,6h0.6C30.1,47.5,33.5,46.3,36.2,44z"/>
			</g>
			<g>
				<g>
					<path class="st0" d="M32,53.5c-1.1,0-2.1-0.3-3-0.8l0,1.8l3,4.5l3-4.5l0-1.8C34.1,53.2,33.1,53.5,32,53.5z"/>
					<path class="st0" d="M42,63.5v-2.4c0-1.9-1.1-3.6-2.8-4.5L35,54.5"/>
					<path class="st0" d="M29,54.5l-4.2,2.1c-1.7,0.8-2.8,2.6-2.8,4.5v2.4"/>
					<line class="st0" x1="32" y1="59" x2="32" y2="63"/>
				</g>
			</g>
		</g>
		<g>
			<g>
				<circle class="st0" cx="12" cy="47.5" r="6"/>
				<path class="st1" d="M16.2,44l0.4-0.4c-1.1-1.3-2.8-2.2-4.6-2.2c-3.3,0-6,2.7-6,6h0.6C10.1,47.5,13.5,46.3,16.2,44z"/>
			</g>
			<g>
				<g>
					<path class="st0" d="M12,53.5c-1.1,0-2.1-0.3-3-0.8l0,1.8l3,4.5l3-4.5l0-1.8C14.1,53.2,13.1,53.5,12,53.5z"/>
					<path class="st0" d="M22,63.5v-2.4c0-1.9-1.1-3.6-2.8-4.5L15,54.5"/>
					<path class="st0" d="M9,54.5l-4.2,2.1C3.1,57.5,2,59.2,2,61.1v2.4"/>
					<line class="st0" x1="12" y1="59" x2="12" y2="63"/>
				</g>
			</g>
		</g>
		<g>
			<g>
				<circle class="st0" cx="52" cy="47.5" r="6"/>
				<path class="st1" d="M56.2,44l0.4-0.4c-1.1-1.3-2.8-2.2-4.6-2.2c-3.3,0-6,2.7-6,6h0.6C50.1,47.5,53.5,46.3,56.2,44z"/>
			</g>
			<g>
				<g>
					<path class="st0" d="M52,53.5c-1.1,0-2.1-0.3-3-0.8l0,1.8l3,4.5l3-4.5l0-1.8C54.1,53.2,53.1,53.5,52,53.5z"/>
					<path class="st0" d="M62,63.5v-2.4c0-1.9-1.1-3.6-2.8-4.5L55,54.5"/>
					<path class="st0" d="M49,54.5l-4.2,2.1c-1.7,0.8-2.8,2.6-2.8,4.5v2.4"/>
					<line class="st0" x1="52" y1="59" x2="52" y2="63"/>
				</g>
			</g>
		</g>
		<g>
			<line class="st2" x1="32" y1="29.3" x2="32" y2="38.5"/>
			<path class="st0" d="M12,38.5v-3c0-1.4,1.1-2.5,2.5-2.5h35c1.4,0,2.5,1.1,2.5,2.5v3"/>
		</g>
		<g>
			<g>
				<circle class="st0" cx="32" cy="6.5" r="6"/>
				<path class="st1" d="M36.2,3l0.4-0.4c-1.1-1.3-2.8-2.2-4.6-2.2c-3.3,0-6,2.7-6,6h0.6C30.1,6.5,33.5,5.3,36.2,3z"/>
			</g>
			<g>
				<path class="st0" d="M32,12.5c-1.1,0-2.1-0.3-3-0.8l0,1.8l3,3.5l3-3.5l0-1.8C34.1,12.2,33.1,12.5,32,12.5z"/>
				<g>
					<path class="st0" d="M42,26.5v-6.4c0-1.9-1.1-3.6-2.8-4.5L35,13.5L32,17"/>
					<path class="st0" d="M32,17l-3-3.5l-4.2,2.1c-1.7,0.8-2.8,2.6-2.8,4.5v6.4"/>
				</g>
				<polygon class="st2" points="33.5,24.5 32,26.5 30.5,24.5 31,15.5 33,15.5 				"/>
			</g>
		</g>
	</g>
</g>
</svg>
