<?xml version="1.0" encoding="utf-8"?>
<!-- Generator: Adobe Illustrator 21.1.0, SVG Export Plug-In . SVG Version: 6.00 Build 0)  -->
<svg version="1.1" id="Icon_Set" xmlns="http://www.w3.org/2000/svg" xmlns:xlink="http://www.w3.org/1999/xlink" x="0px" y="0px"
	 viewBox="0 0 64 64" style="enable-background:new 0 0 64 64;" xml:space="preserve">
<style type="text/css">
	.st0{fill:none;stroke:#37474F;stroke-linecap:round;stroke-linejoin:round;stroke-miterlimit:10;}
	.st1{fill:#FFB300;stroke:#37474F;stroke-linecap:round;stroke-linejoin:round;stroke-miterlimit:10;}
	.st2{fill:#90CAF9;stroke:#37474F;stroke-linecap:round;stroke-linejoin:round;stroke-miterlimit:10;}
	.st3{fill:#FFFFFF;stroke:#37474F;stroke-linecap:round;stroke-linejoin:round;stroke-miterlimit:10;}
	.st4{fill:#FF7043;stroke:#37474F;stroke-linecap:round;stroke-linejoin:round;stroke-miterlimit:10;}
	.st5{fill:#9CCC65;stroke:#37474F;stroke-linecap:round;stroke-linejoin:round;stroke-miterlimit:10;}
	.st6{fill:#37474F;}
	.st7{fill:#37474F;stroke:#37474F;stroke-linecap:round;stroke-linejoin:round;stroke-miterlimit:10;}
	.st8{fill:none;stroke:#37474F;stroke-linecap:square;stroke-linejoin:round;stroke-miterlimit:10;}
</style>
<g id="Naturalist">
	<g>
		<g>
			<g>
				<line class="st0" x1="28.5" y1="61.2" x2="28.5" y2="51.2"/>
				<line class="st0" x1="8.5" y1="61.2" x2="8.5" y2="51.2"/>
				<path class="st0" d="M36.5,61.3V48.2c0-3-1.8-5.7-4.5-6.9l-9.5-4.1l0,0c-1.9,2.9-6.1,2.9-8,0l0,0L5,41.3
					c-2.8,1.2-4.5,3.9-4.5,6.9v13.1"/>
				<path class="st0" d="M18.5,36.2c-1.4,0-2.8-0.3-4-0.8v1.8l0,0c1.9,2.9,6.1,2.9,8,0l0,0v-1.8C21.3,36,19.9,36.2,18.5,36.2z"/>
				<line class="st0" x1="8.5" y1="53.2" x2="0.5" y2="53.2"/>
				<line class="st0" x1="36.5" y1="53.2" x2="28.5" y2="53.2"/>
			</g>
			<g>
				<path class="st0" d="M29.5,22.7c-0.1,0-0.2,0-0.3,0c-1.1-4.9-5.5-8.5-10.7-8.5s-9.6,3.6-10.7,8.5c-0.1,0-0.2,0-0.3,0
					c-1.4,0-2.5,1.1-2.5,2.5s1.1,2.5,2.5,2.5c0.1,0,0.2,0,0.3,0c1.1,4.9,5.5,8.5,10.7,8.5s9.6-3.6,10.7-8.5c0.1,0,0.2,0,0.3,0
					c1.4,0,2.5-1.1,2.5-2.5S30.9,22.7,29.5,22.7z"/>
				<path class="st1" d="M8.5,24.2H8v-6.5h3v4C11,23.1,9.9,24.2,8.5,24.2z"/>
				<path class="st1" d="M28.5,24.2H29v-6.5h-3v4C26,23.1,27.1,24.2,28.5,24.2z"/>
				<g>
					<circle class="st6" cx="22" cy="23.7" r="1"/>
					<circle class="st6" cx="15" cy="23.7" r="1"/>
				</g>
				<path class="st0" d="M15,28.8c2,2,5.1,2,7.1,0"/>
				<path class="st2" d="M29,16.7v-1.5c0-4.1-3.4-7.5-7.5-7.5h-6c-4.1,0-7.5,3.4-7.5,7.5v1.5H4.6c-0.8,0-1.5,0.7-1.5,1.5v0
					c0,0.8,0.7,1.5,1.5,1.5H8h21h3.4c0.8,0,1.5-0.7,1.5-1.5v0c0-0.8-0.7-1.5-1.5-1.5H29z"/>
				<line class="st0" x1="8" y1="16.7" x2="29" y2="16.7"/>
				<line class="st0" x1="29" y1="14.7" x2="8" y2="14.7"/>
			</g>
		</g>
		<g>
			<path class="st5" d="M47.2,47.5c2,2,1.4,5.7,1.4,5.7s-3.7,0.5-5.7-1.4s-1.4-5.7-1.4-5.7S45.3,45.6,47.2,47.5z"/>
			<path class="st5" d="M50.2,47.5c-2,2-1.4,5.7-1.4,5.7s3.7,0.5,5.7-1.4s1.4-5.7,1.4-5.7S52.1,45.6,50.2,47.5z"/>
			<line class="st0" x1="48.7" y1="61.3" x2="48.7" y2="53.3"/>
			<polyline class="st0" points="45.1,49.6 48.7,53.2 52.3,49.6 			"/>
		</g>
		<g>
			<ellipse transform="matrix(4.458298e-03 -1 1 4.458298e-03 44.503 66.2016)" class="st0" cx="55.5" cy="10.7" rx="3" ry="3"/>
			<line class="st0" x1="55.5" y1="2.7" x2="55.5" y2="5.7"/>
			<line class="st0" x1="55.5" y1="15.7" x2="55.5" y2="18.7"/>
			<line class="st0" x1="63.5" y1="10.8" x2="60.5" y2="10.8"/>
			<line class="st0" x1="50.5" y1="10.7" x2="47.5" y2="10.7"/>
			<line class="st0" x1="60.5" y1="5.8" x2="59.1" y2="7.2"/>
			<line class="st0" x1="51.9" y1="14.3" x2="50.5" y2="15.7"/>
			<line class="st0" x1="60.4" y1="15.7" x2="59" y2="14.3"/>
			<line class="st0" x1="52" y1="7.2" x2="50.6" y2="5.8"/>
		</g>
		<g>
			<line class="st0" x1="43.5" y1="38" x2="38.5" y2="38"/>
			<line class="st0" x1="36.5" y1="38" x2="35.5" y2="38"/>
		</g>
		<g>
			<line class="st0" x1="54.9" y1="61.3" x2="59.9" y2="61.3"/>
			<line class="st0" x1="61.9" y1="61.2" x2="62.9" y2="61.2"/>
		</g>
	</g>
</g>
</svg>
