<?xml version="1.0" encoding="utf-8"?>
<!-- Generator: Adobe Illustrator 21.1.0, SVG Export Plug-In . SVG Version: 6.00 Build 0)  -->
<svg version="1.1" id="Icon_Set" xmlns="http://www.w3.org/2000/svg" xmlns:xlink="http://www.w3.org/1999/xlink" x="0px" y="0px"
	 viewBox="0 0 64 64" style="enable-background:new 0 0 64 64;" xml:space="preserve">
<style type="text/css">
	.st0{fill:none;stroke:#37474F;stroke-linecap:round;stroke-linejoin:round;stroke-miterlimit:10;}
	.st1{fill:#FFB300;stroke:#37474F;stroke-linecap:round;stroke-linejoin:round;stroke-miterlimit:10;}
	.st2{fill:#90CAF9;stroke:#37474F;stroke-linecap:round;stroke-linejoin:round;stroke-miterlimit:10;}
	.st3{fill:#FFFFFF;stroke:#37474F;stroke-linecap:round;stroke-linejoin:round;stroke-miterlimit:10;}
	.st4{fill:#FF7043;stroke:#37474F;stroke-linecap:round;stroke-linejoin:round;stroke-miterlimit:10;}
	.st5{fill:#9CCC65;stroke:#37474F;stroke-linecap:round;stroke-linejoin:round;stroke-miterlimit:10;}
	.st6{fill:#37474F;}
	.st7{fill:#37474F;stroke:#37474F;stroke-linecap:round;stroke-linejoin:round;stroke-miterlimit:10;}
	.st8{fill:none;stroke:#37474F;stroke-linecap:square;stroke-linejoin:round;stroke-miterlimit:10;}
</style>
<g id="Broker">
	<g>
		<g>
			<line class="st0" x1="8.5" y1="38" x2="3.5" y2="38"/>
			<line class="st0" x1="1.5" y1="38" x2="0.5" y2="38"/>
		</g>
		<g>
			<line class="st0" x1="22.7" y1="4" x2="27.7" y2="4"/>
			<line class="st0" x1="29.7" y1="4" x2="30.7" y2="4"/>
		</g>
		<rect x="47.5" y="22.7" class="st4" width="3" height="11"/>
		<rect x="55.5" y="17.2" class="st2" width="3" height="16.5"/>
		<g>
			<polyline class="st0" points="41.9,19.7 45.5,16.1 49,19.7 58.5,10.2 			"/>
			<polyline class="st0" points="54.5,10.2 58.5,10.2 58.5,14.2 			"/>
		</g>
		<g>
			<circle class="st5" cx="44.9" cy="6" r="5"/>
			<g>
				<path class="st0" d="M46.1,4.1h-1.7c-0.5,0-0.9,0.4-0.9,0.9v0c0,0.5,0.4,0.9,0.9,0.9h1.1c0.5,0,0.9,0.4,0.9,0.9v0
					c0,0.5-0.4,0.9-0.9,0.9h-1.7"/>
				<line class="st0" x1="44.9" y1="3" x2="44.9" y2="3.7"/>
				<line class="st0" x1="44.9" y1="8.2" x2="44.9" y2="9"/>
			</g>
		</g>
		<g>
			<g>
				<path class="st0" d="M32.7,24.5c-0.1,0-0.2,0-0.3,0C31.3,19.6,27,16,21.7,16s-9.6,3.6-10.7,8.5c-0.1,0-0.2,0-0.3,0
					c-1.4,0-2.5,1.1-2.5,2.5s1.1,2.5,2.5,2.5c0.1,0,0.2,0,0.3,0c1.1,4.9,5.5,8.5,10.7,8.5s9.6-3.6,10.7-8.5c0.1,0,0.2,0,0.3,0
					c1.4,0,2.5-1.1,2.5-2.5S34.1,24.5,32.7,24.5z"/>
				<path class="st1" d="M11.7,26h-0.5v-6.5h3v4C14.2,24.9,13.1,26,11.7,26z"/>
				<path class="st1" d="M28.7,19.5H11.2v0c0-4.1,3.4-7.5,7.5-7.5h5.2c2.2,0,4.3-0.5,6.3-1.4L33.7,9v5.5
					C33.7,17.3,31.5,19.5,28.7,19.5z"/>
				<path class="st1" d="M29.2,19.4v4.1c0,1.4,1.1,2.5,2.5,2.5h0.5v-7.9C31.5,18.8,30.4,19.3,29.2,19.4z"/>
				<g>
					<circle class="st6" cx="25.2" cy="25.5" r="1"/>
					<circle class="st6" cx="18.2" cy="25.5" r="1"/>
				</g>
				<path class="st0" d="M18.2,30.5c2,2,5.1,2,7.1,0"/>
			</g>
			<g>
				<line class="st0" x1="31.7" y1="63" x2="31.7" y2="51.5"/>
				<line class="st0" x1="11.7" y1="63" x2="11.7" y2="53"/>
				<line class="st0" x1="21.7" y1="63" x2="21.7" y2="45"/>
				<path class="st0" d="M58.6,47.3l4.6-4.6c0.4-0.4,0.4-1,0-1.4l-3.5-3.5c-0.4-0.4-1-0.4-1.4,0l-2.8,2.8l-0.7-0.7
					c-0.4-0.4-1-0.4-1.4,0L53,40.2c-0.4,0.4-0.4,1,0,1.4l0.7,0.7"/>
				<g>
					<path class="st0" d="M3.7,63V49.9c0-3,1.8-5.7,4.5-6.9l9.5-4.1l4,6l4-6l6.7,2.9c1.2,0.5,2.2,1.2,3.1,2.1l7.5,7.5l8.5-8.5
						l5.7,5.7l-8.8,8.8c-2.9,2.9-7.7,2.9-10.6,0l-6-6"/>
				</g>
				<polygon class="st2" points="24.2,60.1 21.7,63 19.2,60.1 20.7,45 22.7,45 				"/>
				<g>
					<polygon class="st0" points="15.7,45 19.7,42 17.7,39 15.3,40.1 					"/>
					<polygon class="st0" points="27.8,45 23.7,42 25.7,39 28.2,40.1 					"/>
				</g>
				<path class="st2" d="M22.7,45h-2c-0.6,0-1-0.4-1-1v-1c0-0.6,0.4-1,1-1h2c0.6,0,1,0.4,1,1v1C23.7,44.6,23.3,45,22.7,45z"/>
				<path class="st0" d="M21.7,38c-1.4,0-2.8-0.3-4-0.8V39l2.2,3.4c0.2-0.2,0.4-0.4,0.8-0.4h2c0.3,0,0.6,0.1,0.8,0.4l2.2-3.4v-1.8
					C24.5,37.7,23.2,38,21.7,38z"/>
			</g>
		</g>
	</g>
</g>
</svg>
