<?xml version="1.0" encoding="utf-8"?>
<!-- Generator: Adobe Illustrator 21.1.0, SVG Export Plug-In . SVG Version: 6.00 Build 0)  -->
<svg version="1.1" id="Icon_Set" xmlns="http://www.w3.org/2000/svg" xmlns:xlink="http://www.w3.org/1999/xlink" x="0px" y="0px"
	 viewBox="0 0 64 64" style="enable-background:new 0 0 64 64;" xml:space="preserve">
<style type="text/css">
	.st0{fill:none;stroke:#37474F;stroke-linecap:round;stroke-linejoin:round;stroke-miterlimit:10;}
	.st1{fill:#FFB300;stroke:#37474F;stroke-linecap:round;stroke-linejoin:round;stroke-miterlimit:10;}
	.st2{fill:#90CAF9;stroke:#37474F;stroke-linecap:round;stroke-linejoin:round;stroke-miterlimit:10;}
	.st3{fill:#FFFFFF;stroke:#37474F;stroke-linecap:round;stroke-linejoin:round;stroke-miterlimit:10;}
	.st4{fill:#FF7043;stroke:#37474F;stroke-linecap:round;stroke-linejoin:round;stroke-miterlimit:10;}
	.st5{fill:#9CCC65;stroke:#37474F;stroke-linecap:round;stroke-linejoin:round;stroke-miterlimit:10;}
	.st6{fill:#37474F;}
	.st7{fill:#37474F;stroke:#37474F;stroke-linecap:round;stroke-linejoin:round;stroke-miterlimit:10;}
	.st8{fill:none;stroke:#37474F;stroke-linecap:square;stroke-linejoin:round;stroke-miterlimit:10;}
</style>
<g id="Investor">
	<g>
		<g>
			<line class="st0" x1="8.5" y1="33" x2="3.5" y2="33"/>
			<line class="st0" x1="1.5" y1="33" x2="0.5" y2="33"/>
		</g>
		<g>
			<line class="st0" x1="38.3" y1="19" x2="43.3" y2="19"/>
			<line class="st0" x1="45.3" y1="19" x2="46.3" y2="19"/>
		</g>
		<g>
			<g>
				<path class="st0" d="M31.5,20.5c-0.1,0-0.2,0-0.3,0c-1.1-4.9-5.5-8.5-10.7-8.5s-9.6,3.6-10.7,8.5c-0.1,0-0.2,0-0.3,0
					C8.1,20.5,7,21.6,7,23s1.1,2.5,2.5,2.5c0.1,0,0.2,0,0.3,0c1.1,4.9,5.5,8.5,10.7,8.5s9.6-3.6,10.7-8.5c0.1,0,0.2,0,0.3,0
					c1.4,0,2.5-1.1,2.5-2.5S32.9,20.5,31.5,20.5z"/>
				<path class="st1" d="M10.5,22H10v-6.5h3v4C13,20.9,11.9,22,10.5,22z"/>
				<path class="st1" d="M28,15.4v4.1c0,1.4,1.1,2.5,2.5,2.5H31v-7.9C30.2,14.8,29.2,15.3,28,15.4z"/>
				<g>
					<circle class="st6" cx="24" cy="21.5" r="1"/>
					<circle class="st6" cx="17" cy="21.5" r="1"/>
				</g>
				<path class="st0" d="M17,26.5c2,2,5.1,2,7.1,0"/>
				<path class="st1" d="M27.5,15.5H10v0c0-4.1,3.4-7.5,7.5-7.5h5.2C24.9,8,27,7.5,29,6.6L32.5,5v5.5C32.5,13.3,30.3,15.5,27.5,15.5
					z"/>
			</g>
			<polygon class="st2" points="23,56.1 20.5,59 18,56.1 19.5,41 21.5,41 			"/>
			<line class="st0" x1="10.5" y1="59" x2="10.5" y2="49"/>
			<line class="st0" x1="30.5" y1="59" x2="30.5" y2="49"/>
			<g>
				<path class="st0" d="M16,59l-2-22.9l-7,3c-2.8,1.2-4.5,3.9-4.5,6.9V59"/>
				<path class="st0" d="M25,59l2-22.9l7,3c2.8,1.2,4.5,3.9,4.5,6.9V51h10v8h-13c-2.8,0-5-2.2-5-5v-3"/>
			</g>
			<g>
				<polygon class="st0" points="14.4,41 18.5,38 16.5,35 14,36.1 				"/>
				<polygon class="st0" points="26.6,41 22.5,38 24.5,35 27,36.1 				"/>
			</g>
			<path class="st2" d="M21.5,41h-2c-0.6,0-1-0.4-1-1v-1c0-0.6,0.4-1,1-1h2c0.6,0,1,0.4,1,1v1C22.5,40.6,22.1,41,21.5,41z"/>
			<path class="st0" d="M20.5,34c-1.4,0-2.8-0.3-4-0.8V35l2.2,3.4c0.2-0.2,0.4-0.4,0.8-0.4h2c0.3,0,0.6,0.1,0.8,0.4l2.2-3.4v-1.8
				C23.3,33.7,21.9,34,20.5,34z"/>
			<path class="st0" d="M50.5,58h6.4c1.1,0,2.1-0.7,2.4-1.8l1.1-3.9c0.2-0.6-0.3-1.3-1-1.3h-9"/>
		</g>
		<g>
			<path class="st5" d="M61,47H48.9c-1.9,0-3.1-2.1-2.1-3.8L52.9,33h4l6.2,10.2C64.1,44.9,62.9,47,61,47z"/>
			<rect x="52.9" y="31" class="st1" width="4" height="2"/>
			<g>
				<path class="st0" d="M56.4,37.5h-2.3c-0.7,0-1.2,0.6-1.2,1.2v0c0,0.7,0.6,1.2,1.2,1.2h1.5c0.7,0,1.2,0.6,1.2,1.2v0
					c0,0.7-0.6,1.2-1.2,1.2h-2.2"/>
				<line class="st0" x1="54.9" y1="36" x2="54.9" y2="37"/>
				<line class="st0" x1="54.9" y1="43" x2="54.9" y2="44"/>
			</g>
			<polygon class="st5" points="56.9,31 52.9,31 50.9,25 58.9,25 			"/>
			<line class="st5" x1="54.9" y1="25" x2="54.9" y2="28"/>
		</g>
	</g>
</g>
</svg>
