<?xml version="1.0" encoding="utf-8"?>
<!-- Generator: Adobe Illustrator 21.1.0, SVG Export Plug-In . SVG Version: 6.00 Build 0)  -->
<svg version="1.1" id="Icon_Set" xmlns="http://www.w3.org/2000/svg" xmlns:xlink="http://www.w3.org/1999/xlink" x="0px" y="0px"
	 viewBox="0 0 64 64" style="enable-background:new 0 0 64 64;" xml:space="preserve">
<style type="text/css">
	.st0{fill:none;stroke:#37474F;stroke-linecap:round;stroke-linejoin:round;stroke-miterlimit:10;}
	.st1{fill:#FFB300;stroke:#37474F;stroke-linecap:round;stroke-linejoin:round;stroke-miterlimit:10;}
	.st2{fill:#90CAF9;stroke:#37474F;stroke-linecap:round;stroke-linejoin:round;stroke-miterlimit:10;}
	.st3{fill:#FFFFFF;stroke:#37474F;stroke-linecap:round;stroke-linejoin:round;stroke-miterlimit:10;}
	.st4{fill:#FF7043;stroke:#37474F;stroke-linecap:round;stroke-linejoin:round;stroke-miterlimit:10;}
	.st5{fill:#9CCC65;stroke:#37474F;stroke-linecap:round;stroke-linejoin:round;stroke-miterlimit:10;}
	.st6{fill:#37474F;}
	.st7{fill:#37474F;stroke:#37474F;stroke-linecap:round;stroke-linejoin:round;stroke-miterlimit:10;}
	.st8{fill:none;stroke:#37474F;stroke-linecap:square;stroke-linejoin:round;stroke-miterlimit:10;}
</style>
<g id="Colleagues">
	<g>
		<g>
			<line class="st0" x1="45.5" y1="48.5" x2="50.5" y2="48.5"/>
			<line class="st0" x1="52.5" y1="48.5" x2="53.5" y2="48.5"/>
		</g>
		<g>
			<line class="st0" x1="18.5" y1="10.5" x2="13.5" y2="10.5"/>
			<line class="st0" x1="11.5" y1="10.5" x2="10.5" y2="10.5"/>
		</g>
		<g>
			<g>
				<circle class="st0" cx="18.5" cy="30" r="8"/>
				<path class="st1" d="M24,25.4l0.6-0.5C23.2,23.1,21,22,18.5,22c-4.4,0-8,3.6-8,8h0.8C15.9,30,20.5,28.4,24,25.4z"/>
			</g>
			<g>
				<path class="st0" d="M18.5,38c-1.1,0-2.1-0.2-3-0.6l0,1.6l3,4.5l3-4.5l0-1.6C20.6,37.8,19.6,38,18.5,38z"/>
				<polygon class="st0" points="15.5,39 15,43.5 22,43.5 21.5,39 18.5,43.5 				"/>
				<path class="st0" d="M30.5,53.5v-7.2c0-2-1.2-3.8-3-4.6l-6-2.7l-3,4.5l-3-4.5l-6,2.7c-1.8,0.8-3,2.6-3,4.6v7.2"/>
			</g>
		</g>
		<g>
			<polygon class="st0" points="26.5,45.5 10.5,45.5 11,55.5 26,55.5 			"/>
			<circle class="st0" cx="18.5" cy="50.5" r="1.5"/>
		</g>
		<g>
			<path class="st2" d="M35.5,58.5h-34c-0.6,0-1-0.4-1-1v-1c0-0.6,0.4-1,1-1h34c0.6,0,1,0.4,1,1v1C36.5,58.1,36.1,58.5,35.5,58.5z"
				/>
			<line class="st0" x1="34.5" y1="58.5" x2="34.5" y2="63.5"/>
			<line class="st0" x1="2.5" y1="63.5" x2="2.5" y2="58.5"/>
		</g>
		<g>
			<g>
				<circle class="st0" cx="45.5" cy="8.5" r="8"/>
				<path class="st1" d="M51,3.9l0.6-0.5c-1.5-1.8-3.7-2.9-6.1-2.9c-4.4,0-8,3.6-8,8h0.8C42.9,8.5,47.5,6.9,51,3.9z"/>
			</g>
			<g>
				<path class="st0" d="M45.5,16.5c-1.1,0-2.1-0.2-3-0.6l0,1.6l3,4.5l3-4.5l0-1.6C47.6,16.3,46.6,16.5,45.5,16.5z"/>
				<polygon class="st0" points="42.5,17.5 42,22 49,22 48.5,17.5 45.5,22 				"/>
				<path class="st0" d="M57.5,32v-7.2c0-2-1.2-3.8-3-4.6l-6-2.7l-3,4.5l-3-4.5l-6,2.7c-1.8,0.8-3,2.6-3,4.6V32"/>
			</g>
		</g>
		<g>
			<polygon class="st0" points="53.5,24 37.5,24 38,34 53,34 			"/>
			<circle class="st0" cx="45.5" cy="29" r="1.5"/>
		</g>
		<g>
			<path class="st2" d="M62.5,37h-34c-0.6,0-1-0.4-1-1v-1c0-0.6,0.4-1,1-1h34c0.6,0,1,0.4,1,1v1C63.5,36.6,63.1,37,62.5,37z"/>
			<line class="st0" x1="61.5" y1="37" x2="61.5" y2="42"/>
			<line class="st0" x1="29.5" y1="40" x2="29.5" y2="37"/>
		</g>
	</g>
</g>
</svg>
