<?xml version="1.0" encoding="utf-8"?>
<!-- Generator: Adobe Illustrator 21.1.0, SVG Export Plug-In . SVG Version: 6.00 Build 0)  -->
<svg version="1.1" id="Icon_Set" xmlns="http://www.w3.org/2000/svg" xmlns:xlink="http://www.w3.org/1999/xlink" x="0px" y="0px"
	 viewBox="0 0 64 64" style="enable-background:new 0 0 64 64;" xml:space="preserve">
<style type="text/css">
	.st0{fill:none;stroke:#37474F;stroke-linecap:round;stroke-linejoin:round;stroke-miterlimit:10;}
	.st1{fill:#FFB300;stroke:#37474F;stroke-linecap:round;stroke-linejoin:round;stroke-miterlimit:10;}
	.st2{fill:#90CAF9;stroke:#37474F;stroke-linecap:round;stroke-linejoin:round;stroke-miterlimit:10;}
	.st3{fill:#FFFFFF;stroke:#37474F;stroke-linecap:round;stroke-linejoin:round;stroke-miterlimit:10;}
	.st4{fill:#FF7043;stroke:#37474F;stroke-linecap:round;stroke-linejoin:round;stroke-miterlimit:10;}
	.st5{fill:#9CCC65;stroke:#37474F;stroke-linecap:round;stroke-linejoin:round;stroke-miterlimit:10;}
	.st6{fill:#37474F;}
	.st7{fill:#37474F;stroke:#37474F;stroke-linecap:round;stroke-linejoin:round;stroke-miterlimit:10;}
	.st8{fill:none;stroke:#37474F;stroke-linecap:square;stroke-linejoin:round;stroke-miterlimit:10;}
</style>
<g id="Downsizing">
	<g>
		<circle class="st0" cx="32" cy="32" r="24"/>
		<g>
			<line class="st0" x1="28" y1="2" x2="33" y2="2"/>
			<line class="st0" x1="35" y1="2" x2="36" y2="2"/>
		</g>
		<g>
			<line class="st0" x1="36" y1="62" x2="31" y2="62"/>
			<line class="st0" x1="29" y1="62" x2="28" y2="62"/>
		</g>
		<g>
			<line class="st0" x1="2" y1="36" x2="2" y2="31"/>
			<line class="st0" x1="2" y1="29" x2="2" y2="28"/>
		</g>
		<g>
			<line class="st0" x1="62" y1="28" x2="62" y2="33"/>
			<line class="st0" x1="62" y1="35" x2="62" y2="36"/>
		</g>
		<g>
			<g>
				<path class="st4" d="M62,2c0.4,0,0.8,0.1,1.1,0.4c0.6,0.6,0.6,1.5,0,2.1l-8,8c-0.6,0.6-1.5,0.6-2.1,0c-0.6-0.6-0.6-1.5,0-2.1
					l8-8C61.2,2.1,61.6,2,62,2z"/>
			</g>
			<g>
				<path class="st4" d="M54,2.5c0.8,0,1.5,0.7,1.5,1.5v6h6c0.8,0,1.5,0.7,1.5,1.5S62.3,13,61.5,13H54c-0.8,0-1.5-0.7-1.5-1.5V4
					C52.5,3.2,53.2,2.5,54,2.5z"/>
			</g>
		</g>
		<g>
			<g>
				<path class="st4" d="M63.5,60.5c0,0.4-0.1,0.8-0.4,1.1c-0.6,0.6-1.5,0.6-2.1,0l-8-8c-0.6-0.6-0.6-1.5,0-2.1
					c0.6-0.6,1.5-0.6,2.1,0l8,8C63.4,59.7,63.5,60.1,63.5,60.5z"/>
			</g>
			<g>
				<path class="st4" d="M63,52.5c0,0.8-0.7,1.5-1.5,1.5h-6v6c0,0.8-0.7,1.5-1.5,1.5s-1.5-0.7-1.5-1.5v-7.5c0-0.8,0.7-1.5,1.5-1.5
					h7.5C62.3,51,63,51.7,63,52.5z"/>
			</g>
		</g>
		<g>
			<g>
				<path class="st4" d="M2,62c-0.4,0-0.8-0.1-1.1-0.4c-0.6-0.6-0.6-1.5,0-2.1l8-8c0.6-0.6,1.5-0.6,2.1,0c0.6,0.6,0.6,1.5,0,2.1
					l-8,8C2.8,61.9,2.4,62,2,62z"/>
			</g>
			<g>
				<path class="st4" d="M10,61.5c-0.8,0-1.5-0.7-1.5-1.5v-6h-6C1.7,54,1,53.3,1,52.5S1.7,51,2.5,51H10c0.8,0,1.5,0.7,1.5,1.5V60
					C11.5,60.8,10.8,61.5,10,61.5z"/>
			</g>
		</g>
		<g>
			<g>
				<path class="st4" d="M0.5,3.5c0-0.4,0.1-0.8,0.4-1.1c0.6-0.6,1.5-0.6,2.1,0l8,8c0.6,0.6,0.6,1.5,0,2.1c-0.6,0.6-1.5,0.6-2.1,0
					l-8-8C0.6,4.3,0.5,3.9,0.5,3.5z"/>
			</g>
			<g>
				<path class="st4" d="M1,11.5C1,10.7,1.7,10,2.5,10h6V4c0-0.8,0.7-1.5,1.5-1.5s1.5,0.7,1.5,1.5v7.5c0,0.8-0.7,1.5-1.5,1.5H2.5
					C1.7,13,1,12.3,1,11.5z"/>
			</g>
		</g>
		<g>
			<g>
				<circle class="st0" cx="32" cy="21.2" r="8"/>
				<path class="st1" d="M37.5,16.6l0.6-0.5c-1.5-1.8-3.7-2.9-6.1-2.9c-4.4,0-8,3.6-8,8h0.8C29.4,21.2,34,19.6,37.5,16.6z"/>
			</g>
			<g>
				<path class="st0" d="M32,29.2c-1.1,0-2.1-0.2-3-0.6l0,1.6l3,4.5l3-4.5l0-1.6C34.1,29,33.1,29.2,32,29.2z"/>
				<line class="st0" x1="39" y1="40.3" x2="39" y2="47.3"/>
				<line class="st0" x1="25" y1="40.3" x2="25" y2="47.3"/>
				<polygon class="st2" points="34.5,46.7 32,49.2 29.5,46.7 31,34.7 33,34.7 				"/>
				<polygon class="st0" points="29,30.3 28.5,34.7 35.5,34.7 35,30.2 32,34.7 				"/>
				<path class="st0" d="M44,47.3v-9.8c0-2-1.2-3.8-3-4.6l-6-2.7l-3,4.5l-3-4.5l-6,2.7c-1.8,0.8-3,2.6-3,4.6v9.8"/>
			</g>
		</g>
	</g>
</g>
</svg>
