<?xml version="1.0" encoding="utf-8"?>
<!-- Generator: Adobe Illustrator 21.1.0, SVG Export Plug-In . SVG Version: 6.00 Build 0)  -->
<svg version="1.1" id="Icon_Set" xmlns="http://www.w3.org/2000/svg" xmlns:xlink="http://www.w3.org/1999/xlink" x="0px" y="0px"
	 viewBox="0 0 64 64" style="enable-background:new 0 0 64 64;" xml:space="preserve">
<style type="text/css">
	.st0{fill:none;stroke:#37474F;stroke-linecap:round;stroke-linejoin:round;stroke-miterlimit:10;}
	.st1{fill:#FFB300;stroke:#37474F;stroke-linecap:round;stroke-linejoin:round;stroke-miterlimit:10;}
	.st2{fill:#90CAF9;stroke:#37474F;stroke-linecap:round;stroke-linejoin:round;stroke-miterlimit:10;}
	.st3{fill:#FFFFFF;stroke:#37474F;stroke-linecap:round;stroke-linejoin:round;stroke-miterlimit:10;}
	.st4{fill:#FF7043;stroke:#37474F;stroke-linecap:round;stroke-linejoin:round;stroke-miterlimit:10;}
	.st5{fill:#9CCC65;stroke:#37474F;stroke-linecap:round;stroke-linejoin:round;stroke-miterlimit:10;}
	.st6{fill:#37474F;}
	.st7{fill:#37474F;stroke:#37474F;stroke-linecap:round;stroke-linejoin:round;stroke-miterlimit:10;}
	.st8{fill:none;stroke:#37474F;stroke-linecap:square;stroke-linejoin:round;stroke-miterlimit:10;}
</style>
<g id="Energy_Conservation">
	<g>
		<g>
			<g>
				<path class="st0" d="M41.5,20.5c-0.1,0-0.2,0-0.3,0c-1.1-4.9-5.5-8.5-10.7-8.5s-9.6,3.6-10.7,8.5c-0.1,0-0.2,0-0.3,0
					c-1.4,0-2.5,1.1-2.5,2.5s1.1,2.5,2.5,2.5c0.1,0,0.2,0,0.3,0c1.1,4.9,5.5,8.5,10.7,8.5s9.6-3.6,10.7-8.5c0.1,0,0.2,0,0.3,0
					c1.4,0,2.5-1.1,2.5-2.5S42.9,20.5,41.5,20.5z"/>
				<path class="st1" d="M20.5,22H20v-6.5h3v4C23,20.9,21.9,22,20.5,22z"/>
				<path class="st1" d="M37.5,15.5H20v0c0-4.1,3.4-7.5,7.5-7.5h5.2C34.9,8,37,7.5,39,6.6L42.5,5v5.5C42.5,13.3,40.3,15.5,37.5,15.5
					z"/>
				<path class="st1" d="M38,15.4v4.1c0,1.4,1.1,2.5,2.5,2.5H41v-7.9C40.2,14.8,39.2,15.3,38,15.4z"/>
				<g>
					<circle class="st6" cx="34" cy="21.5" r="1"/>
					<circle class="st6" cx="27" cy="21.5" r="1"/>
				</g>
				<path class="st0" d="M27,26.5c2,2,5.1,2,7.1,0"/>
			</g>
			<g>
				<line class="st0" x1="40.5" y1="59" x2="40.5" y2="49"/>
				<line class="st0" x1="20.5" y1="59" x2="20.5" y2="49"/>
				<path class="st0" d="M48.5,59V45.9c0-3-1.8-5.7-4.5-6.9L34.5,35l-4,6l-4-6L17,39.1c-2.8,1.2-4.5,3.9-4.5,6.9V59"/>
				<g>
					<polygon class="st0" points="24.5,43 30.5,41 26.5,35 					"/>
					<polygon class="st0" points="34.5,35 30.5,41 36.5,43 					"/>
				</g>
				<path class="st0" d="M30.5,34c-1.4,0-2.8-0.3-4-0.8V35l4,6l4-6v-1.8C33.3,33.7,31.9,34,30.5,34z"/>
				<line class="st0" x1="30.5" y1="59" x2="30.5" y2="41"/>
			</g>
		</g>
		<g>
			<path class="st2" d="M63.5,39.5V42c0,2.8-2.2,5-5,5h0c-2.8,0-5-2.2-5-5v-2.5c0-1.4,1.1-2.5,2.5-2.5h5
				C62.4,37,63.5,38.1,63.5,39.5z"/>
			<line class="st0" x1="55.5" y1="35" x2="55.5" y2="32"/>
			<line class="st0" x1="61.5" y1="35" x2="61.5" y2="32"/>
			<line class="st3" x1="56" y1="40" x2="61" y2="40"/>
			<line class="st0" x1="58.5" y1="59" x2="58.5" y2="49"/>
		</g>
		<g>
			<line class="st0" x1="8.5" y1="35" x2="3.5" y2="35"/>
			<line class="st0" x1="1.5" y1="35" x2="0.5" y2="35"/>
		</g>
		<g>
			<line class="st0" x1="50.5" y1="22" x2="55.5" y2="22"/>
			<line class="st0" x1="57.5" y1="22" x2="58.5" y2="22"/>
		</g>
	</g>
</g>
</svg>
