<?xml version="1.0" encoding="utf-8"?>
<!-- Generator: Adobe Illustrator 21.1.0, SVG Export Plug-In . SVG Version: 6.00 Build 0)  -->
<svg version="1.1" id="Icon_Set" xmlns="http://www.w3.org/2000/svg" xmlns:xlink="http://www.w3.org/1999/xlink" x="0px" y="0px"
	 viewBox="0 0 64 64" style="enable-background:new 0 0 64 64;" xml:space="preserve">
<style type="text/css">
	.st0{fill:none;stroke:#37474F;stroke-linecap:round;stroke-linejoin:round;stroke-miterlimit:10;}
	.st1{fill:#FFB300;stroke:#37474F;stroke-linecap:round;stroke-linejoin:round;stroke-miterlimit:10;}
	.st2{fill:#90CAF9;stroke:#37474F;stroke-linecap:round;stroke-linejoin:round;stroke-miterlimit:10;}
	.st3{fill:#FFFFFF;stroke:#37474F;stroke-linecap:round;stroke-linejoin:round;stroke-miterlimit:10;}
	.st4{fill:#FF7043;stroke:#37474F;stroke-linecap:round;stroke-linejoin:round;stroke-miterlimit:10;}
	.st5{fill:#9CCC65;stroke:#37474F;stroke-linecap:round;stroke-linejoin:round;stroke-miterlimit:10;}
	.st6{fill:#37474F;}
	.st7{fill:#37474F;stroke:#37474F;stroke-linecap:round;stroke-linejoin:round;stroke-miterlimit:10;}
	.st8{fill:none;stroke:#37474F;stroke-linecap:square;stroke-linejoin:round;stroke-miterlimit:10;}
</style>
<g id="Winner">
	<g>
		<g>
			<line class="st0" x1="0.5" y1="2.3" x2="5.5" y2="2.3"/>
			<line class="st0" x1="7.5" y1="2.2" x2="8.5" y2="2.2"/>
		</g>
		<g>
			<line class="st0" x1="58.5" y1="61.7" x2="53.5" y2="61.7"/>
			<line class="st0" x1="51.5" y1="61.8" x2="50.5" y2="61.8"/>
		</g>
		<g>
			<path class="st0" d="M30.3,20.7c-0.1,0-0.2,0-0.3,0c-1.1-4.9-5.5-8.5-10.7-8.5s-9.6,3.6-10.7,8.5c-0.1,0-0.2,0-0.3,0
				c-1.4,0-2.5,1.1-2.5,2.5s1.1,2.5,2.5,2.5c0.1,0,0.2,0,0.3,0c1.1,4.9,5.5,8.5,10.7,8.5s9.6-3.6,10.7-8.5c0.1,0,0.2,0,0.3,0
				c1.4,0,2.5-1.1,2.5-2.5S31.6,20.7,30.3,20.7z"/>
			<path class="st1" d="M9.3,22.2H8.8v-6.5h3v4C11.8,21.1,10.6,22.2,9.3,22.2z"/>
			<path class="st1" d="M26.3,15.7H8.8v0c0-4.1,3.4-7.5,7.5-7.5h5.2c2.2,0,4.3-0.5,6.3-1.4l3.5-1.6v5.5C31.3,13.5,29,15.7,26.3,15.7
				z"/>
			<path class="st1" d="M26.8,15.7v4.1c0,1.4,1.1,2.5,2.5,2.5h0.5v-7.9C29,15.1,27.9,15.6,26.8,15.7z"/>
			<g>
				<circle class="st6" cx="22.8" cy="21.7" r="1"/>
				<circle class="st6" cx="15.8" cy="21.7" r="1"/>
			</g>
			<path class="st0" d="M15.7,26.8c2,2,5.1,2,7.1,0"/>
		</g>
		<path class="st0" d="M45.5,17.2l-1.7-0.6c-0.8-0.3-1.5-0.9-1.8-1.8l-0.6-1.7l-0.6,1.7c-0.3,0.8-0.9,1.5-1.8,1.8l-1.7,0.6l1.7,0.6
			c0.8,0.3,1.5,0.9,1.8,1.8l0.6,1.7l0.6-1.7c0.3-0.8,0.9-1.5,1.8-1.8L45.5,17.2z"/>
		<path class="st0" d="M59.5,10.2l-1.7-0.6c-0.8-0.3-1.5-0.9-1.8-1.8l-0.6-1.7l-0.6,1.7c-0.3,0.8-0.9,1.5-1.8,1.8l-1.7,0.6l1.7,0.6
			c0.8,0.3,1.5,0.9,1.8,1.8l0.6,1.7l0.6-1.7c0.3-0.8,0.9-1.5,1.8-1.8L59.5,10.2z"/>
		<g>
			<line class="st0" x1="29.3" y1="59.3" x2="29.3" y2="47.7"/>
			<line class="st0" x1="9.3" y1="59.3" x2="9.3" y2="49.3"/>
			<line class="st0" x1="19.3" y1="59.3" x2="19.3" y2="41.3"/>
			<g>
				<path class="st0" d="M1.3,59.3V46.2c0-3,1.8-5.7,4.5-6.9l9.5-4.1l4,6l4-6l8.4,3.6l7.5,7.5l4.9-4.9l5.7,5.7l-5.3,5.3
					c-2.9,2.9-7.7,2.9-10.6,0l-4.6-4.6"/>
			</g>
			<polygon class="st2" points="21.8,56.3 19.3,59.3 16.8,56.3 18.3,41.3 20.3,41.3 			"/>
			<g>
				<polygon class="st0" points="13.2,41.3 17.3,38.3 15.3,35.3 12.8,36.3 				"/>
				<polygon class="st0" points="25.3,41.3 21.3,38.3 23.3,35.3 25.7,36.3 				"/>
			</g>
			<path class="st2" d="M20.3,41.3h-2c-0.6,0-1-0.4-1-1v-1c0-0.6,0.4-1,1-1h2c0.6,0,1,0.4,1,1v1C21.3,40.8,20.8,41.3,20.3,41.3z"/>
			<path class="st0" d="M19.3,34.2c-1.4,0-2.8-0.3-4-0.8v1.8l2.2,3.4c0.2-0.2,0.4-0.4,0.8-0.4h2c0.3,0,0.6,0.1,0.8,0.4l2.2-3.4v-1.8
				C22,34,20.7,34.2,19.3,34.2z"/>
			<path class="st0" d="M55.3,38.8h-2.5c-0.6,0-1,0.4-1,1v5c0,0.6,0.4,1,1,1h2.5c0.6,0,1-0.4,1-1v-5C56.3,39.2,55.8,38.8,55.3,38.8z
				"/>
			<path class="st0" d="M46.8,39.8l0.4-0.9c0.4-0.9,1.3-1.6,2.3-1.6h1.3c0.6,0,1,0.4,1,1v0.5c0,0.6-0.4,1-1,1h-1"/>
		</g>
		<g>
			<path class="st0" d="M51.7,47.7v3.5H49c-0.6,0-1,0.4-1,1c0,0.6,0.4,1,1,1h8c0.6,0,1-0.4,1-1c0-0.6-0.4-1-1-1h-2.8v-3.5"/>
			<path class="st0" d="M45.8,28.8h-0.9c-1.5,0-2.7,1.4-2.5,2.9l0.2,1c0.2,1.2,1.2,2.1,2.5,2.1h2.3L45.8,28.8z"/>
			<path class="st0" d="M60.1,28.8H61c1.5,0,2.7,1.4,2.5,2.9l-0.2,1c-0.2,1.2-1.2,2.1-2.5,2.1h-2.3L60.1,28.8z"/>
			<path class="st0" d="M57.1,37.4c0.6-0.6,1.1-1.4,1.4-2.3l2.2-8c0.2-0.6-0.3-1.3-1-1.3H46.3c-0.7,0-1.1,0.6-1,1.3l2.2,8
				c0.1,0.2,0.1,0.4,0.2,0.6"/>
		</g>
	</g>
</g>
</svg>
