<?xml version="1.0" encoding="utf-8"?>
<!-- Generator: Adobe Illustrator 21.1.0, SVG Export Plug-In . SVG Version: 6.00 Build 0)  -->
<svg version="1.1" id="Icon_Set" xmlns="http://www.w3.org/2000/svg" xmlns:xlink="http://www.w3.org/1999/xlink" x="0px" y="0px"
	 viewBox="0 0 64 64" style="enable-background:new 0 0 64 64;" xml:space="preserve">
<style type="text/css">
	.st0{fill:none;stroke:#37474F;stroke-linecap:round;stroke-linejoin:round;stroke-miterlimit:10;}
	.st1{fill:#FFB300;stroke:#37474F;stroke-linecap:round;stroke-linejoin:round;stroke-miterlimit:10;}
	.st2{fill:#90CAF9;stroke:#37474F;stroke-linecap:round;stroke-linejoin:round;stroke-miterlimit:10;}
	.st3{fill:#FFFFFF;stroke:#37474F;stroke-linecap:round;stroke-linejoin:round;stroke-miterlimit:10;}
	.st4{fill:#FF7043;stroke:#37474F;stroke-linecap:round;stroke-linejoin:round;stroke-miterlimit:10;}
	.st5{fill:#9CCC65;stroke:#37474F;stroke-linecap:round;stroke-linejoin:round;stroke-miterlimit:10;}
	.st6{fill:#37474F;}
	.st7{fill:#37474F;stroke:#37474F;stroke-linecap:round;stroke-linejoin:round;stroke-miterlimit:10;}
	.st8{fill:none;stroke:#37474F;stroke-linecap:square;stroke-linejoin:round;stroke-miterlimit:10;}
</style>
<g id="Telepathy">
	<g>
		<g>
			<path class="st4" d="M57.5,20.5h-10c-2.8,0-5-2.2-5-5v-10c0-2.8,2.2-5,5-5h10c2.8,0,5,2.2,5,5v10C62.5,18.3,60.3,20.5,57.5,20.5z
				"/>
			<g>
				<path class="st0" d="M53.4,4.8c3.1,3.1,3.1,8.2,0,11.3"/>
				<path class="st0" d="M51.3,6.9c2,2,2,5.2,0,7.2"/>
				<path class="st0" d="M49.3,8.9c0.9,0.9,0.9,2.2,0,3.1"/>
			</g>
		</g>
		<g>
			<line class="st0" x1="50.5" y1="59.5" x2="55.5" y2="59.5"/>
			<line class="st0" x1="57.5" y1="59.5" x2="58.5" y2="59.5"/>
		</g>
		<g>
			<line class="st0" x1="9.5" y1="38.5" x2="4.5" y2="38.5"/>
			<line class="st0" x1="2.5" y1="38.5" x2="1.5" y2="38.5"/>
		</g>
		<g>
			<g>
				<path class="st0" d="M27.5,16.5c-5.2,0-9.6,3.6-10.7,8.5c-0.1,0-0.2,0-0.3,0c-1.4,0-2.5,1.1-2.5,2.5c0,1.4,1.1,2.5,2.5,2.5
					c0.1,0,0.2,0,0.3,0c1.1,4.9,5.5,8.5,10.7,8.5c6.1,0,11-4.9,11-11S33.6,16.5,27.5,16.5z"/>
				<path class="st1" d="M17.5,26.5H17V20h3v4C20,25.4,18.9,26.5,17.5,26.5z"/>
				<g>
					<circle class="st6" cx="33" cy="25" r="1"/>
					<circle class="st6" cx="26" cy="25" r="1"/>
				</g>
				<path class="st0" d="M26,30c2,2,5.1,2,7.1,0"/>
				<path class="st1" d="M34.5,20H17v0c0-4.1,3.4-7.5,7.5-7.5h6c3,0,5.9-0.9,8.3-2.5l0.7-0.5V15C39.5,17.8,37.3,20,34.5,20z"/>
			</g>
			<g>
				<line class="st0" x1="17.5" y1="63.5" x2="17.5" y2="53.5"/>
				<line class="st0" x1="37.5" y1="63.5" x2="37.5" y2="53"/>
				<g>
					<polygon class="st0" points="21.5,47.5 27.5,45.5 23.5,39.5 					"/>
					<polygon class="st0" points="31.5,39.5 27.5,45.5 33.5,47.5 					"/>
				</g>
				<path class="st0" d="M27.5,38.5c-1.4,0-2.8-0.3-4-0.8v1.8l4,6l4-6v-1.8C30.3,38.2,28.9,38.5,27.5,38.5z"/>
				<line class="st0" x1="27.5" y1="63.5" x2="27.5" y2="45.5"/>
				<path class="st0" d="M40.5,48v-6.5h7v8.2c0,3.6-3.7,6-7,4.6l-3-1.3"/>
				<path class="st0" d="M40,35.7h-2c-0.6,0-1-0.4-1-1v-0.5c0-0.6,0.4-1,1-1h2c0.6,0,1,0.4,1,1v0.5C41,35.3,40.6,35.7,40,35.7z"/>
				<path class="st0" d="M46,33.5v-3c0-0.6,0.4-1,1-1h0.5c0.6,0,1,0.4,1,1v3c0,0.6-0.4,1-1,1H47C46.4,34.5,46,34.1,46,33.5z"/>
				<path class="st0" d="M43.5,33.5v-3c0-0.6,0.4-1,1-1H45c0.6,0,1,0.4,1,1v3c0,0.6-0.4,1-1,1h-0.5C43.9,34.5,43.5,34.1,43.5,33.5z"
					/>
				<path class="st0" d="M41,29.5v-5c0-0.6,0.4-1,1-1h0.5c0.6,0,1,0.4,1,1v9"/>
				<path class="st0" d="M46,39.5c1.4,0,2.5-1.1,2.5-2.5v-2.5"/>
				<path class="st0" d="M38.5,35.8V37c0,1.4,1.1,2.5,2.5,2.5"/>
				<path class="st0" d="M41,29.5v-4c0-0.6-0.4-1-1-1h-0.5c-0.6,0-1,0.4-1,1v7.8"/>
				<path class="st0" d="M40.5,43.4l-9-3.9l-4,6l-4-6L14,43.6c-2.8,1.2-4.5,3.9-4.5,6.9v13.1"/>
			</g>
		</g>
	</g>
</g>
</svg>
