<?xml version="1.0" encoding="utf-8"?>
<!-- Generator: Adobe Illustrator 21.1.0, SVG Export Plug-In . SVG Version: 6.00 Build 0)  -->
<svg version="1.1" id="Icon_Set" xmlns="http://www.w3.org/2000/svg" xmlns:xlink="http://www.w3.org/1999/xlink" x="0px" y="0px"
	 viewBox="0 0 64 64" style="enable-background:new 0 0 64 64;" xml:space="preserve">
<style type="text/css">
	.st0{fill:none;stroke:#37474F;stroke-linecap:round;stroke-linejoin:round;stroke-miterlimit:10;}
	.st1{fill:#FFB300;stroke:#37474F;stroke-linecap:round;stroke-linejoin:round;stroke-miterlimit:10;}
	.st2{fill:#90CAF9;stroke:#37474F;stroke-linecap:round;stroke-linejoin:round;stroke-miterlimit:10;}
	.st3{fill:#FFFFFF;stroke:#37474F;stroke-linecap:round;stroke-linejoin:round;stroke-miterlimit:10;}
	.st4{fill:#FF7043;stroke:#37474F;stroke-linecap:round;stroke-linejoin:round;stroke-miterlimit:10;}
	.st5{fill:#9CCC65;stroke:#37474F;stroke-linecap:round;stroke-linejoin:round;stroke-miterlimit:10;}
	.st6{fill:#37474F;}
	.st7{fill:#37474F;stroke:#37474F;stroke-linecap:round;stroke-linejoin:round;stroke-miterlimit:10;}
	.st8{fill:none;stroke:#37474F;stroke-linecap:square;stroke-linejoin:round;stroke-miterlimit:10;}
</style>
<g id="Resources_Management">
	<g>
		<g>
			<line class="st0" x1="16" y1="42" x2="11" y2="42"/>
			<line class="st0" x1="9" y1="42" x2="8" y2="42"/>
		</g>
		<g>
			<line class="st0" x1="48" y1="42" x2="53" y2="42"/>
			<line class="st0" x1="55" y1="42" x2="56" y2="42"/>
		</g>
		<g>
			<circle class="st5" cx="13" cy="9" r="8"/>
			<path class="st0" d="M14.6,6.6H12c-0.6,0-1,0.4-1,1V8c0,0.6,0.4,1,1,1h2c0.5,0,1,0.4,1,1l0,0.4c0,0.6-0.4,1-1,1h-2.6"/>
			<line class="st0" x1="13" y1="5.1" x2="13" y2="6.6"/>
			<line class="st0" x1="13" y1="11.4" x2="13" y2="12.9"/>
		</g>
		<g>
			<circle class="st2" cx="51" cy="9" r="8"/>
			<polyline class="st0" points="51,4.5 51,9.5 54.5,7.5 			"/>
		</g>
		<g>
			<g>
				<circle class="st0" cx="32" cy="15" r="6"/>
				<path class="st1" d="M36.2,11.5l0.4-0.4C35.5,9.8,33.9,9,32,9c-3.3,0-6,2.7-6,6h0.6C30.1,15,33.5,13.8,36.2,11.5z"/>
			</g>
			<g>
				<path class="st0" d="M44,18.9l-1.6,3.2c-0.4,0.8-1.3,1.4-2.2,1.4H38L35,22l-3,3.5L29,22l-3,1.5h-2.2c-0.9,0-1.8-0.5-2.2-1.4
					L20,18.9"/>
				<path class="st0" d="M15.5,18.9l2.9,5.8c0.8,1.7,2.6,2.8,4.5,2.8H26V39h12v-1.4V27.5h3.1c1.9,0,3.6-1.1,4.5-2.8l2.9-5.8"/>
				<path class="st0" d="M32,21c-1.1,0-2.1-0.3-3-0.8l0,1.8l3,3.5l3-3.5l0-1.8C34.1,20.7,33.1,21,32,21z"/>
				<polygon class="st2" points="33.5,33 32,35 30.5,33 31,24 33,24 				"/>
				<line class="st0" x1="32" y1="44" x2="32" y2="49.9"/>
				<path class="st0" d="M37,63h-2.1c-0.5,0-0.9-0.4-1-0.9L32,44l-1.9,18.1c-0.1,0.5-0.5,0.9-1,0.9H27c-0.6,0-1-0.4-1-1V39h12v23
					C38,62.6,37.6,63,37,63z"/>
			</g>
		</g>
	</g>
</g>
</svg>
