<?xml version="1.0" encoding="utf-8"?>
<!-- Generator: Adobe Illustrator 21.1.0, SVG Export Plug-In . SVG Version: 6.00 Build 0)  -->
<svg version="1.1" id="Icon_Set" xmlns="http://www.w3.org/2000/svg" xmlns:xlink="http://www.w3.org/1999/xlink" x="0px" y="0px"
	 viewBox="0 0 64 64" style="enable-background:new 0 0 64 64;" xml:space="preserve">
<style type="text/css">
	.st0{fill:none;stroke:#37474F;stroke-linecap:round;stroke-linejoin:round;stroke-miterlimit:10;}
	.st1{fill:#FFB300;stroke:#37474F;stroke-linecap:round;stroke-linejoin:round;stroke-miterlimit:10;}
	.st2{fill:#90CAF9;stroke:#37474F;stroke-linecap:round;stroke-linejoin:round;stroke-miterlimit:10;}
	.st3{fill:#FFFFFF;stroke:#37474F;stroke-linecap:round;stroke-linejoin:round;stroke-miterlimit:10;}
	.st4{fill:#FF7043;stroke:#37474F;stroke-linecap:round;stroke-linejoin:round;stroke-miterlimit:10;}
	.st5{fill:#9CCC65;stroke:#37474F;stroke-linecap:round;stroke-linejoin:round;stroke-miterlimit:10;}
	.st6{fill:#37474F;}
	.st7{fill:#37474F;stroke:#37474F;stroke-linecap:round;stroke-linejoin:round;stroke-miterlimit:10;}
	.st8{fill:none;stroke:#37474F;stroke-linecap:square;stroke-linejoin:round;stroke-miterlimit:10;}
</style>
<g id="Sick">
	<g>
		<g>
			<line class="st0" x1="46.5" y1="17" x2="46.5" y2="12"/>
			<line class="st0" x1="46.5" y1="10" x2="46.5" y2="9"/>
		</g>
		<g>
			<line class="st0" x1="50.5" y1="15" x2="50.5" y2="5"/>
			<line class="st0" x1="50.5" y1="3" x2="50.5" y2="2"/>
		</g>
		<g>
			<line class="st0" x1="54.5" y1="20" x2="54.5" y2="10"/>
			<line class="st0" x1="54.5" y1="8" x2="54.5" y2="7"/>
		</g>
		<g>
			<g>
				<line class="st0" x1="17.5" y1="62" x2="17.5" y2="52"/>
				<path class="st0" d="M45.5,62V48.9c0-3-1.8-5.7-4.5-6.9L31.5,38l-4,11l-4-11L14,42.1c-2.8,1.2-4.5,3.9-4.5,6.9V62"/>
				<line class="st0" x1="37.5" y1="62" x2="37.5" y2="52"/>
				<path class="st0" d="M27.5,37c-1.4,0-2.8-0.3-4-0.8V38l4,11l4-11v-1.8C30.3,36.7,28.9,37,27.5,37z"/>
			</g>
			<g>
				<path class="st0" d="M38.5,23.5c-0.1,0-0.2,0-0.3,0c-1.1-4.9-5.5-8.5-10.7-8.5s-9.6,3.6-10.7,8.5c-0.1,0-0.2,0-0.3,0
					c-1.4,0-2.5,1.1-2.5,2.5s1.1,2.5,2.5,2.5c0.1,0,0.2,0,0.3,0c1.1,4.9,5.5,8.5,10.7,8.5s9.6-3.6,10.7-8.5c0.1,0,0.2,0,0.3,0
					c1.4,0,2.5-1.1,2.5-2.5S39.9,23.5,38.5,23.5z"/>
				<path class="st1" d="M17.5,25H17v-6.5h3v4C20,23.9,18.9,25,17.5,25z"/>
				<path class="st1" d="M34.5,18.5H17v0c0-4.1,3.4-7.5,7.5-7.5h5.2c2.2,0,4.3-0.5,6.3-1.4L39.5,8v5.5
					C39.5,16.3,37.3,18.5,34.5,18.5z"/>
				<path class="st1" d="M35,18.4v4.1c0,1.4,1.1,2.5,2.5,2.5H38v-7.9C37.2,17.8,36.2,18.3,35,18.4z"/>
				<g>
					<circle class="st6" cx="31" cy="24.5" r="1"/>
					<circle class="st6" cx="24" cy="24.5" r="1"/>
				</g>
				<path class="st2" d="M33.5,34.4l-1.9,0.3c-2.7,0.5-5.5,0.5-8.2,0l-1.9-0.3l-0.2-0.8c-0.5-1.8-0.5-3.7,0-5.5l0.2-0.8l1.9-0.3
					c2.7-0.5,5.5-0.5,8.2,0l1.9,0.3l0.2,0.8c0.5,1.8,0.5,3.7,0,5.5L33.5,34.4z"/>
				<line class="st0" x1="21.5" y1="27.4" x2="17" y2="25"/>
				<line class="st0" x1="33.5" y1="27.4" x2="38" y2="25"/>
				<line class="st0" x1="21" y1="31" x2="34" y2="31"/>
			</g>
		</g>
	</g>
</g>
</svg>
