<?xml version="1.0" encoding="utf-8"?>
<!-- Generator: Adobe Illustrator 21.1.0, SVG Export Plug-In . SVG Version: 6.00 Build 0)  -->
<svg version="1.1" id="Icon_Set" xmlns="http://www.w3.org/2000/svg" xmlns:xlink="http://www.w3.org/1999/xlink" x="0px" y="0px"
	 viewBox="0 0 64 64" style="enable-background:new 0 0 64 64;" xml:space="preserve">
<style type="text/css">
	.st0{fill:none;stroke:#37474F;stroke-linecap:round;stroke-linejoin:round;stroke-miterlimit:10;}
	.st1{fill:#FFB300;stroke:#37474F;stroke-linecap:round;stroke-linejoin:round;stroke-miterlimit:10;}
	.st2{fill:#90CAF9;stroke:#37474F;stroke-linecap:round;stroke-linejoin:round;stroke-miterlimit:10;}
	.st3{fill:#FFFFFF;stroke:#37474F;stroke-linecap:round;stroke-linejoin:round;stroke-miterlimit:10;}
	.st4{fill:#FF7043;stroke:#37474F;stroke-linecap:round;stroke-linejoin:round;stroke-miterlimit:10;}
	.st5{fill:#9CCC65;stroke:#37474F;stroke-linecap:round;stroke-linejoin:round;stroke-miterlimit:10;}
	.st6{fill:#37474F;}
	.st7{fill:#37474F;stroke:#37474F;stroke-linecap:round;stroke-linejoin:round;stroke-miterlimit:10;}
	.st8{fill:none;stroke:#37474F;stroke-linecap:square;stroke-linejoin:round;stroke-miterlimit:10;}
</style>
<g id="Brain_Power">
	<g>
		<g>
			<g>
				<path class="st0" d="M37.5,25c-0.1,0-0.2,0-0.3,0c-1.1-4.9-5.5-8.5-10.7-8.5s-9.6,3.6-10.7,8.5c-0.1,0-0.2,0-0.3,0
					c-1.4,0-2.5,1.1-2.5,2.5s1.1,2.5,2.5,2.5c0.1,0,0.2,0,0.3,0c1.1,4.9,5.5,8.5,10.7,8.5s9.6-3.6,10.7-8.5c0.1,0,0.2,0,0.3,0
					c1.4,0,2.5-1.1,2.5-2.5S38.9,25,37.5,25z"/>
				<path class="st1" d="M16.5,26.5H16V20h3v4C19,25.4,17.9,26.5,16.5,26.5z"/>
				<path class="st1" d="M33.5,20H16v0c0-4.1,3.4-7.5,7.5-7.5h5.2c2.2,0,4.3-0.5,6.3-1.4l3.5-1.6V15C38.5,17.8,36.3,20,33.5,20z"/>
				<path class="st1" d="M34,19.9V24c0,1.4,1.1,2.5,2.5,2.5H37v-7.9C36.2,19.3,35.2,19.8,34,19.9z"/>
				<g>
					<circle class="st6" cx="30" cy="26" r="1"/>
					<circle class="st6" cx="23" cy="26" r="1"/>
				</g>
				<path class="st0" d="M23,31c2,2,5.1,2,7.1,0"/>
			</g>
			<g>
				<line class="st0" x1="36.5" y1="63.5" x2="36.5" y2="53.5"/>
				<line class="st0" x1="16.5" y1="63.5" x2="16.5" y2="53.5"/>
				<path class="st0" d="M44.5,63.5V50.4c0-3-1.8-5.7-4.5-6.9l-9.5-4.1l-4,6l-4-6l-9.5,4.1c-2.8,1.2-4.5,3.9-4.5,6.9v13.1"/>
				<g>
					<polygon class="st0" points="20.5,47.5 26.5,45.5 22.5,39.5 					"/>
					<polygon class="st0" points="30.5,39.5 26.5,45.5 32.5,47.5 					"/>
				</g>
				<path class="st0" d="M26.5,38.5c-1.4,0-2.8-0.3-4-0.8v1.8l4,6l4-6v-1.8C29.3,38.2,27.9,38.5,26.5,38.5z"/>
				<line class="st0" x1="26.5" y1="63.5" x2="26.5" y2="45.5"/>
			</g>
		</g>
		<g>
			<circle class="st4" cx="53.5" cy="10.5" r="10"/>
			<g>
				<line class="st0" x1="53.5" y1="3.5" x2="53.5" y2="10.5"/>
				<path class="st0" d="M51.5,5.9c-1.8,0.8-3,2.5-3,4.6c0,2.8,2.2,5,5,5s5-2.2,5-5c0-2-1.2-3.8-3-4.6"/>
			</g>
		</g>
		<path class="st0" d="M53.9,30.7l-0.2-0.1c0.1-0.3,0.1-0.7,0.1-1s0-0.7-0.1-1l0.2-0.1l0.6-0.5c0.2-0.2,0.2-0.4,0.1-0.6l-0.8-1.4
			c-0.1-0.2-0.4-0.3-0.6-0.2l-0.8,0.3L52.2,26c-0.5-0.5-1.1-0.8-1.8-1v-0.2l-0.2-0.8c0-0.2-0.2-0.4-0.5-0.4h-1.6
			c-0.2,0-0.4,0.2-0.5,0.4l-0.2,0.8v0.2c-0.7,0.2-1.3,0.6-1.8,1l-0.2-0.1l-0.8-0.3c-0.2-0.1-0.5,0-0.6,0.2l-0.8,1.4
			c-0.1,0.2-0.1,0.4,0.1,0.6l0.6,0.5l0.2,0.1c-0.1,0.3-0.1,0.7-0.1,1s0,0.7,0.1,1l-0.2,0.1l-0.6,0.5c-0.2,0.2-0.2,0.4-0.1,0.6
			l0.8,1.4c0.1,0.2,0.4,0.3,0.6,0.2l0.8-0.3l0.2-0.1c0.5,0.5,1.1,0.8,1.8,1v0.2l0.2,0.8c0,0.2,0.2,0.4,0.5,0.4h1.6
			c0.2,0,0.4-0.2,0.5-0.4l0.2-0.8v-0.2c0.7-0.2,1.3-0.6,1.8-1l0.2,0.1l0.8,0.3c0.2,0.1,0.5,0,0.6-0.2l0.8-1.4
			c0.1-0.2,0.1-0.4-0.1-0.6L53.9,30.7z M49,32.4c-1.6,0-2.9-1.3-2.9-2.9s1.3-2.9,2.9-2.9c1.6,0,2.9,1.3,2.9,2.9S50.6,32.4,49,32.4z"
			/>
		<g>
			<line class="st0" x1="49.5" y1="59.5" x2="54.5" y2="59.5"/>
			<line class="st0" x1="56.5" y1="59.5" x2="57.5" y2="59.5"/>
		</g>
		<g>
			<line class="st0" x1="8.5" y1="38.5" x2="3.5" y2="38.5"/>
			<line class="st0" x1="1.5" y1="38.5" x2="0.5" y2="38.5"/>
		</g>
	</g>
</g>
</svg>
