<?xml version="1.0" encoding="utf-8"?>
<!-- Generator: Adobe Illustrator 21.1.0, SVG Export Plug-In . SVG Version: 6.00 Build 0)  -->
<svg version="1.1" id="Icon_Set" xmlns="http://www.w3.org/2000/svg" xmlns:xlink="http://www.w3.org/1999/xlink" x="0px" y="0px"
	 viewBox="0 0 64 64" style="enable-background:new 0 0 64 64;" xml:space="preserve">
<style type="text/css">
	.st0{fill:none;stroke:#37474F;stroke-linecap:round;stroke-linejoin:round;stroke-miterlimit:10;}
	.st1{fill:#FFB300;stroke:#37474F;stroke-linecap:round;stroke-linejoin:round;stroke-miterlimit:10;}
	.st2{fill:#90CAF9;stroke:#37474F;stroke-linecap:round;stroke-linejoin:round;stroke-miterlimit:10;}
	.st3{fill:#FFFFFF;stroke:#37474F;stroke-linecap:round;stroke-linejoin:round;stroke-miterlimit:10;}
	.st4{fill:#FF7043;stroke:#37474F;stroke-linecap:round;stroke-linejoin:round;stroke-miterlimit:10;}
	.st5{fill:#9CCC65;stroke:#37474F;stroke-linecap:round;stroke-linejoin:round;stroke-miterlimit:10;}
	.st6{fill:#37474F;}
	.st7{fill:#37474F;stroke:#37474F;stroke-linecap:round;stroke-linejoin:round;stroke-miterlimit:10;}
	.st8{fill:none;stroke:#37474F;stroke-linecap:square;stroke-linejoin:round;stroke-miterlimit:10;}
</style>
<g id="Maintenance">
	<g>
		<g>
			<line class="st0" x1="51" y1="44" x2="56" y2="44"/>
			<line class="st0" x1="58" y1="44" x2="59" y2="44"/>
		</g>
		<g>
			<line class="st0" x1="9" y1="15" x2="4" y2="15"/>
			<line class="st0" x1="2" y1="15" x2="1" y2="15"/>
		</g>
		<g>
			<g>
				<path class="st2" d="M61.8,19.8c1.2-1.2,1.5-2.9,0.9-4.4l-3,3l-2.1-2.1l3-3c-1.5-0.6-3.2-0.3-4.4,0.9c-1,1-1.4,2.5-1,3.9
					L42.6,30.6c-0.8,0.8-0.8,2,0,2.8l0,0c0.8,0.8,2,0.8,2.8,0L58,20.8C59.3,21.2,60.8,20.8,61.8,19.8z"/>
				<line class="st0" x1="45.4" y1="30.6" x2="44" y2="32"/>
			</g>
			<g>
				<polyline class="st0" points="50.4,20 46.3,15.9 45.6,14.5 44.2,13.1 42.1,15.3 43.6,16.7 45,17.4 48.9,21.4 				"/>
			</g>
			<path class="st0" d="M57.4,24.2l-4.2,4.2l1.4,1.4l0.7-0.7l4.1,4.1c0.8,0.8,2,0.8,2.8,0c0.8-0.8,0.8-2,0-2.8l-4.1-4.1l0.7-0.7
				L57.4,24.2z"/>
		</g>
		<g>
			<g>
				<path class="st0" d="M36,20.5c-0.1,0-0.2,0-0.3,0C34.6,15.6,30.2,12,25,12s-9.6,3.6-10.7,8.5c-0.1,0-0.2,0-0.3,0
					c-1.4,0-2.5,1.1-2.5,2.5s1.1,2.5,2.5,2.5c0.1,0,0.2,0,0.3,0C15.4,30.4,19.8,34,25,34s9.6-3.6,10.7-8.5c0.1,0,0.2,0,0.3,0
					c1.4,0,2.5-1.1,2.5-2.5S37.4,20.5,36,20.5z"/>
				<path class="st1" d="M15,22h-0.5v-6.5h3v4C17.5,20.9,16.4,22,15,22z"/>
				<path class="st1" d="M32,15.5H14.5v0c0-4.1,3.4-7.5,7.5-7.5h5.2c2.2,0,4.3-0.5,6.3-1.4L37,5v5.5C37,13.3,34.8,15.5,32,15.5z"/>
				<path class="st1" d="M32.5,15.4v4.1c0,1.4,1.1,2.5,2.5,2.5h0.5v-7.9C34.7,14.8,33.7,15.3,32.5,15.4z"/>
				<g>
					<circle class="st6" cx="28.5" cy="21.5" r="1"/>
					<circle class="st6" cx="21.5" cy="21.5" r="1"/>
				</g>
				<path class="st0" d="M21.5,26.5c2,2,5.1,2,7.1,0"/>
			</g>
			<g>
				<line class="st0" x1="15" y1="51" x2="7" y2="51"/>
				<line class="st0" x1="43" y1="51" x2="35" y2="51"/>
				<path class="st0" d="M43,59V45.9c0-3-1.8-5.7-4.5-6.9L29,35l0,0c-1.9,2.9-6.1,2.9-8,0l0,0l-9.5,4.1C8.8,40.2,7,42.9,7,45.9V59"
					/>
				<path class="st0" d="M25,34c-1.4,0-2.8-0.3-4-0.8V35l0,0c1.9,2.9,6.1,2.9,8,0l0,0v-1.8C27.8,33.7,26.4,34,25,34z"/>
				<polygon class="st0" points="18,36.3 15,37.6 15,48 18,48 				"/>
				<polygon class="st0" points="35,37.6 32,36.3 32,48 35,48 				"/>
				<polyline class="st0" points="15,59 15,48 35,48 35,59 				"/>
				<rect x="22" y="51" class="st0" width="6" height="3"/>
			</g>
		</g>
	</g>
</g>
</svg>
