<?xml version="1.0" encoding="utf-8"?>
<!-- Generator: Adobe Illustrator 21.1.0, SVG Export Plug-In . SVG Version: 6.00 Build 0)  -->
<svg version="1.1" id="Icon_Set" xmlns="http://www.w3.org/2000/svg" xmlns:xlink="http://www.w3.org/1999/xlink" x="0px" y="0px"
	 viewBox="0 0 64 64" style="enable-background:new 0 0 64 64;" xml:space="preserve">
<style type="text/css">
	.st0{fill:none;stroke:#37474F;stroke-linecap:round;stroke-linejoin:round;stroke-miterlimit:10;}
	.st1{fill:#FFB300;stroke:#37474F;stroke-linecap:round;stroke-linejoin:round;stroke-miterlimit:10;}
	.st2{fill:#90CAF9;stroke:#37474F;stroke-linecap:round;stroke-linejoin:round;stroke-miterlimit:10;}
	.st3{fill:#FFFFFF;stroke:#37474F;stroke-linecap:round;stroke-linejoin:round;stroke-miterlimit:10;}
	.st4{fill:#FF7043;stroke:#37474F;stroke-linecap:round;stroke-linejoin:round;stroke-miterlimit:10;}
	.st5{fill:#9CCC65;stroke:#37474F;stroke-linecap:round;stroke-linejoin:round;stroke-miterlimit:10;}
	.st6{fill:#37474F;}
	.st7{fill:#37474F;stroke:#37474F;stroke-linecap:round;stroke-linejoin:round;stroke-miterlimit:10;}
	.st8{fill:none;stroke:#37474F;stroke-linecap:square;stroke-linejoin:round;stroke-miterlimit:10;}
</style>
<g id="User_Settings">
	<g>
		<g>
			<line class="st0" x1="48.4" y1="29" x2="43.4" y2="29"/>
			<line class="st0" x1="41.4" y1="29" x2="40.4" y2="29"/>
		</g>
		<g>
			<line class="st0" x1="55.5" y1="24" x2="60.5" y2="24"/>
			<line class="st0" x1="62.5" y1="24" x2="63.5" y2="24"/>
		</g>
		<g>
			<path class="st5" d="M61.9,48.9l-0.4-0.2c0.2-0.7,0.2-1.4,0.2-2.2s-0.1-1.5-0.2-2.2l0.4-0.2l1.3-1.1c0.4-0.3,0.4-0.8,0.2-1.3
				l-1.7-2.9c-0.2-0.4-0.7-0.6-1.2-0.4l-1.6,0.6l-0.4,0.2c-1.1-1-2.3-1.7-3.8-2.2v-0.5l-0.3-1.7c-0.1-0.5-0.5-0.8-1-0.8H50
				c-0.5,0-0.9,0.3-1,0.8l-0.3,1.7V37c-1.4,0.4-2.7,1.2-3.8,2.2l-0.4-0.2l-1.6-0.6c-0.5-0.2-0.9,0-1.2,0.4L40,41.7
				c-0.2,0.4-0.2,0.9,0.2,1.3l1.3,1.1l0.4,0.2c-0.2,0.7-0.2,1.4-0.2,2.2s0.1,1.5,0.2,2.2l-0.4,0.2L40.2,50c-0.4,0.3-0.4,0.8-0.2,1.3
				l1.7,2.9c0.2,0.4,0.7,0.6,1.2,0.4l1.6-0.6l0.4-0.2c1.1,1,2.3,1.7,3.8,2.2v0.5l0.3,1.7c0.1,0.5,0.5,0.8,1,0.8h3.4
				c0.5,0,0.9-0.3,1-0.8l0.3-1.7V56c1.4-0.4,2.7-1.2,3.8-2.2l0.4,0.2l1.6,0.6c0.5,0.2,0.9,0,1.2-0.4l1.7-2.9
				c0.2-0.4,0.2-0.9-0.2-1.3L61.9,48.9z M51.7,52.5c-3.3,0-6-2.7-6-6s2.7-6,6-6s6,2.7,6,6S55,52.5,51.7,52.5z"/>
			<polyline class="st0" points="48.5,46.5 50.6,48.6 54.9,44.4 			"/>
		</g>
		<g>
			<g>
				<path class="st0" d="M29.5,20.5c-0.1,0-0.2,0-0.3,0c-1.1-4.9-5.5-8.5-10.7-8.5s-9.6,3.6-10.7,8.5c-0.1,0-0.2,0-0.3,0
					C6.1,20.5,5,21.6,5,23s1.1,2.5,2.5,2.5c0.1,0,0.2,0,0.3,0c1.1,4.9,5.5,8.5,10.7,8.5s9.6-3.6,10.7-8.5c0.1,0,0.2,0,0.3,0
					c1.4,0,2.5-1.1,2.5-2.5S30.9,20.5,29.5,20.5z"/>
				<path class="st1" d="M8.5,22H8v-6.5h3v4C11,20.9,9.9,22,8.5,22z"/>
				<path class="st1" d="M25.5,15.5H8v0C8,11.4,11.4,8,15.5,8h5.2C22.9,8,25,7.5,27,6.6L30.5,5v5.5C30.5,13.3,28.3,15.5,25.5,15.5z"
					/>
				<path class="st1" d="M26,15.4v4.1c0,1.4,1.1,2.5,2.5,2.5H29v-7.9C28.2,14.8,27.2,15.3,26,15.4z"/>
				<g>
					<circle class="st6" cx="22" cy="21.5" r="1"/>
					<circle class="st6" cx="15" cy="21.5" r="1"/>
				</g>
				<path class="st0" d="M15,26.5c2,2,5.1,2,7.1,0"/>
			</g>
			<g>
				<line class="st0" x1="8.5" y1="59" x2="8.5" y2="49"/>
				<line class="st0" x1="8.5" y1="51" x2="0.5" y2="51"/>
				<line class="st0" x1="36.5" y1="51" x2="28.5" y2="51"/>
				<line class="st0" x1="8.5" y1="59" x2="8.5" y2="49"/>
				<path class="st0" d="M36.5,59V45.9c0-3-1.8-5.7-4.5-6.9L22.5,35l0,0c-1.9,2.9-6.1,2.9-8,0l0,0L5,39.1c-2.8,1.2-4.5,3.9-4.5,6.9
					V59"/>
				<line class="st0" x1="28.5" y1="59" x2="28.5" y2="49"/>
				<path class="st0" d="M18.5,34c-1.4,0-2.8-0.3-4-0.8V35l0,0c1.9,2.9,6.1,2.9,8,0l0,0v-1.8C21.3,33.7,19.9,34,18.5,34z"/>
			</g>
		</g>
	</g>
</g>
</svg>
