<?xml version="1.0" encoding="utf-8"?>
<!-- Generator: Adobe Illustrator 21.1.0, SVG Export Plug-In . SVG Version: 6.00 Build 0)  -->
<svg version="1.1" id="Icon_Set" xmlns="http://www.w3.org/2000/svg" xmlns:xlink="http://www.w3.org/1999/xlink" x="0px" y="0px"
	 viewBox="0 0 64 64" style="enable-background:new 0 0 64 64;" xml:space="preserve">
<style type="text/css">
	.st0{fill:none;stroke:#37474F;stroke-linecap:round;stroke-linejoin:round;stroke-miterlimit:10;}
	.st1{fill:#FFB300;stroke:#37474F;stroke-linecap:round;stroke-linejoin:round;stroke-miterlimit:10;}
	.st2{fill:#90CAF9;stroke:#37474F;stroke-linecap:round;stroke-linejoin:round;stroke-miterlimit:10;}
	.st3{fill:#FFFFFF;stroke:#37474F;stroke-linecap:round;stroke-linejoin:round;stroke-miterlimit:10;}
	.st4{fill:#FF7043;stroke:#37474F;stroke-linecap:round;stroke-linejoin:round;stroke-miterlimit:10;}
	.st5{fill:#9CCC65;stroke:#37474F;stroke-linecap:round;stroke-linejoin:round;stroke-miterlimit:10;}
	.st6{fill:#37474F;}
	.st7{fill:#37474F;stroke:#37474F;stroke-linecap:round;stroke-linejoin:round;stroke-miterlimit:10;}
	.st8{fill:none;stroke:#37474F;stroke-linecap:square;stroke-linejoin:round;stroke-miterlimit:10;}
</style>
<g id="Digital_Man">
	<g>
		<g>
			<line class="st0" x1="51.5" y1="57" x2="56.5" y2="57"/>
			<line class="st0" x1="58.5" y1="57" x2="59.5" y2="57"/>
		</g>
		<g>
			<line class="st0" x1="8.5" y1="36" x2="3.5" y2="36"/>
			<line class="st0" x1="1.5" y1="36" x2="0.5" y2="36"/>
		</g>
		<g>
			<path class="st2" d="M58.5,23h-10c-2.8,0-5-2.2-5-5V8c0-2.8,2.2-5,5-5h10c2.8,0,5,2.2,5,5v10C63.5,20.8,61.3,23,58.5,23z"/>
			<circle class="st3" cx="48.5" cy="14" r="2"/>
			<line class="st0" x1="48.5" y1="23" x2="48.5" y2="16"/>
			<circle class="st3" cx="58.5" cy="17" r="2"/>
			<line class="st0" x1="58.5" y1="3" x2="58.5" y2="15"/>
			<polyline class="st0" points="53.5,23 53.5,12 48.5,7 			"/>
			<circle class="st3" cx="48.5" cy="7" r="2"/>
		</g>
		<g>
			<g>
				<line class="st0" x1="33.5" y1="61" x2="33.5" y2="51"/>
				<line class="st0" x1="13.5" y1="61" x2="13.5" y2="51"/>
				<path class="st0" d="M33.5,53v3c0,2.8,2.2,5,5,5h3c2.8,0,5-2.2,5-5v-7h-8v6"/>
				<path class="st0" d="M5.5,61V47.9c0-3,1.8-5.7,4.5-6.9l9.5-4.1l4,6l4-6l8,3.4"/>
				<g>
					<polygon class="st0" points="17.5,45 23.5,43 19.5,37 					"/>
					<polygon class="st0" points="27.5,37 23.5,43 29.5,45 					"/>
				</g>
				<path class="st0" d="M23.5,36c-1.4,0-2.8-0.3-4-0.8V37l4,6l4-6v-1.8C26.3,35.7,24.9,36,23.5,36z"/>
				<path class="st0" d="M45.5,49h-5c-0.6,0-1-0.4-1-1v-5.5c0-0.6,0.4-1,1-1h5c0.6,0,1,0.4,1,1V48C46.5,48.6,46.1,49,45.5,49z"/>
				<path class="st0" d="M39.5,42.5c0-0.6,0.4-1,1-1h5V29c0-0.6-0.4-1-1-1h-8c-0.6,0-1,0.4-1,1v15c0,0.6,0.4,1,1,1h3V42.5z"/>
			</g>
			<g>
				<path class="st0" d="M23.5,14c-5.2,0-9.6,3.6-10.7,8.5c-0.1,0-0.2,0-0.3,0c-1.4,0-2.5,1.1-2.5,2.5c0,1.4,1.1,2.5,2.5,2.5
					c0.1,0,0.2,0,0.3,0c1.1,4.9,5.5,8.5,10.7,8.5c6.1,0,11-4.9,11-11S29.6,14,23.5,14z"/>
				<path class="st1" d="M13.5,24H13v-6.5h3v4C16,22.9,14.9,24,13.5,24z"/>
				<circle class="st6" cx="29" cy="24.5" r="1"/>
				<circle class="st6" cx="22" cy="24.5" r="1"/>
				<path class="st0" d="M29,29c-2,2-5.1,2-7.1,0"/>
				<path class="st1" d="M30.5,17.5H13v0c0-4.1,3.4-7.5,7.5-7.5h6c3,0,5.9-0.9,8.3-2.5L35.5,7v5.5C35.5,15.3,33.3,17.5,30.5,17.5z"
					/>
				<circle class="st0" cx="22" cy="24.5" r="3"/>
				<circle class="st0" cx="29" cy="24.5" r="3"/>
				<line class="st0" x1="19" y1="24" x2="13" y2="24"/>
				<line class="st0" x1="32" y1="24" x2="34" y2="24"/>
			</g>
		</g>
		<line class="st2" x1="40.5" y1="12" x2="30.5" y2="12"/>
		<path class="st0" d="M53.5,26v3.6c0,3-2.4,5.4-5.4,5.4h-7.6"/>
	</g>
</g>
</svg>
