<?xml version="1.0" encoding="utf-8"?>
<!-- Generator: Adobe Illustrator 21.1.0, SVG Export Plug-In . SVG Version: 6.00 Build 0)  -->
<svg version="1.1" id="Icon_Set" xmlns="http://www.w3.org/2000/svg" xmlns:xlink="http://www.w3.org/1999/xlink" x="0px" y="0px"
	 viewBox="0 0 64 64" style="enable-background:new 0 0 64 64;" xml:space="preserve">
<style type="text/css">
	.st0{fill:none;stroke:#37474F;stroke-linecap:round;stroke-linejoin:round;stroke-miterlimit:10;}
	.st1{fill:#FFB300;stroke:#37474F;stroke-linecap:round;stroke-linejoin:round;stroke-miterlimit:10;}
	.st2{fill:#90CAF9;stroke:#37474F;stroke-linecap:round;stroke-linejoin:round;stroke-miterlimit:10;}
	.st3{fill:#FFFFFF;stroke:#37474F;stroke-linecap:round;stroke-linejoin:round;stroke-miterlimit:10;}
	.st4{fill:#FF7043;stroke:#37474F;stroke-linecap:round;stroke-linejoin:round;stroke-miterlimit:10;}
	.st5{fill:#9CCC65;stroke:#37474F;stroke-linecap:round;stroke-linejoin:round;stroke-miterlimit:10;}
	.st6{fill:#37474F;}
	.st7{fill:#37474F;stroke:#37474F;stroke-linecap:round;stroke-linejoin:round;stroke-miterlimit:10;}
	.st8{fill:none;stroke:#37474F;stroke-linecap:square;stroke-linejoin:round;stroke-miterlimit:10;}
</style>
<g id="King">
	<g>
		<line class="st0" x1="22" y1="53.5" x2="22" y2="63.5"/>
		<line class="st0" x1="42" y1="63.5" x2="42" y2="53.5"/>
		<g>
			<path class="st0" d="M28,39.5l-9.5,4.1c-2.8,1.2-4.5,3.9-4.5,6.9v13.1"/>
			<path class="st0" d="M50,63.5V50.4c0-3-1.8-5.7-4.5-6.9L36,39.5"/>
		</g>
		<g>
			<line class="st0" x1="55" y1="58.5" x2="60" y2="58.5"/>
			<line class="st0" x1="62" y1="58.5" x2="63" y2="58.5"/>
		</g>
		<g>
			<line class="st0" x1="9" y1="58.5" x2="4" y2="58.5"/>
			<line class="st0" x1="2" y1="58.5" x2="1" y2="58.5"/>
		</g>
		<path class="st0" d="M2,28.5l1.7-0.6c0.8-0.3,1.5-0.9,1.8-1.8L6,24.5l0.6,1.7c0.3,0.8,0.9,1.5,1.8,1.8l1.7,0.6l-1.7,0.6
			c-0.8,0.3-1.5,0.9-1.8,1.8L6,32.5l-0.6-1.7c-0.3-0.8-0.9-1.5-1.8-1.8L2,28.5z"/>
		<path class="st0" d="M52,33.5l1.7-0.6c0.8-0.3,1.5-0.9,1.8-1.8l0.6-1.7l0.6,1.7c0.3,0.8,0.9,1.5,1.8,1.8l1.7,0.6l-1.7,0.6
			c-0.8,0.3-1.5,0.9-1.8,1.8L56,37.5l-0.6-1.7c-0.3-0.8-0.9-1.5-1.8-1.8L52,33.5z"/>
		<path class="st0" d="M44,4.5l1.7-0.6c0.8-0.3,1.5-0.9,1.8-1.8L48,0.5l0.6,1.7c0.3,0.8,0.9,1.5,1.8,1.8L52,4.5l-1.7,0.6
			c-0.8,0.3-1.5,0.9-1.8,1.8L48,8.5l-0.6-1.7c-0.3-0.8-0.9-1.5-1.8-1.8L44,4.5z"/>
		<path class="st1" d="M32,39.5c-11,0-20,2.7-20,6c0,2.9,6.9,5.3,16.1,5.9l3.9-5.9l3.9,5.9c9.2-0.5,16.1-3,16.1-5.9
			C52,42.2,43,39.5,32,39.5z"/>
		<path class="st3" d="M32,38.5c-1.4,0-2.8-0.3-4-0.8v1.8l4,6l4-6v-1.8C34.8,38.2,33.4,38.5,32,38.5z"/>
		<path class="st0" d="M43,25c-0.1,0-0.2,0-0.3,0c-1.1-4.9-5.5-8.5-10.7-8.5s-9.6,3.6-10.7,8.5c-0.1,0-0.2,0-0.3,0
			c-1.4,0-2.5,1.1-2.5,2.5S19.6,30,21,30c0.1,0,0.2,0,0.3,0c1.1,4.9,5.5,8.5,10.7,8.5s9.6-3.6,10.7-8.5c0.1,0,0.2,0,0.3,0
			c1.4,0,2.5-1.1,2.5-2.5S44.4,25,43,25z"/>
		<path class="st4" d="M22,26.5h-0.5v-6.1h3V24C24.5,25.4,23.4,26.5,22,26.5z"/>
		<path class="st4" d="M42,26.5h0.5v-6.1h-3V24C39.5,25.4,40.6,26.5,42,26.5z"/>
		<g>
			<circle class="st6" cx="35.5" cy="26" r="1"/>
			<circle class="st6" cx="28.5" cy="26" r="1"/>
		</g>
		<path class="st0" d="M28.5,31c2,2,5.1,2,7.1,0"/>
		<path class="st1" d="M40.9,10.6l-2.7,1.9c-0.4,0.3-1,0.2-1.4-0.2L32.8,7c-0.4-0.5-1.2-0.5-1.6,0l-4.1,5.3
			c-0.3,0.4-0.9,0.5-1.4,0.2l-2.7-1.9c-0.7-0.5-1.6,0-1.6,0.8v9h21v-9C42.5,10.6,41.6,10.1,40.9,10.6z"/>
		<line class="st1" x1="42.5" y1="17.4" x2="21.5" y2="17.4"/>
		<line class="st3" x1="33.5" y1="48" x2="33.5" y2="63.5"/>
		<circle class="st2" cx="32" cy="13.9" r="1.5"/>
		<line class="st3" x1="30.5" y1="63.5" x2="30.5" y2="48"/>
		<rect x="14" y="54.5" class="st2" width="8" height="5"/>
		<rect x="42" y="54.5" class="st2" width="8" height="5"/>
	</g>
</g>
</svg>
