<?xml version="1.0" encoding="utf-8"?>
<!-- Generator: Adobe Illustrator 21.1.0, SVG Export Plug-In . SVG Version: 6.00 Build 0)  -->
<svg version="1.1" id="Icon_Set" xmlns="http://www.w3.org/2000/svg" xmlns:xlink="http://www.w3.org/1999/xlink" x="0px" y="0px"
	 viewBox="0 0 64 64" style="enable-background:new 0 0 64 64;" xml:space="preserve">
<style type="text/css">
	.st0{fill:none;stroke:#37474F;stroke-linecap:round;stroke-linejoin:round;stroke-miterlimit:10;}
	.st1{fill:#FFB300;stroke:#37474F;stroke-linecap:round;stroke-linejoin:round;stroke-miterlimit:10;}
	.st2{fill:#90CAF9;stroke:#37474F;stroke-linecap:round;stroke-linejoin:round;stroke-miterlimit:10;}
	.st3{fill:#FFFFFF;stroke:#37474F;stroke-linecap:round;stroke-linejoin:round;stroke-miterlimit:10;}
	.st4{fill:#FF7043;stroke:#37474F;stroke-linecap:round;stroke-linejoin:round;stroke-miterlimit:10;}
	.st5{fill:#9CCC65;stroke:#37474F;stroke-linecap:round;stroke-linejoin:round;stroke-miterlimit:10;}
	.st6{fill:#37474F;}
	.st7{fill:#37474F;stroke:#37474F;stroke-linecap:round;stroke-linejoin:round;stroke-miterlimit:10;}
	.st8{fill:none;stroke:#37474F;stroke-linecap:square;stroke-linejoin:round;stroke-miterlimit:10;}
</style>
<g id="Operations_Management">
	<g>
		<g>
			<line class="st0" x1="54" y1="61.5" x2="59" y2="61.5"/>
			<line class="st0" x1="61" y1="61.5" x2="62" y2="61.5"/>
		</g>
		<g>
			<line class="st0" x1="10" y1="61.5" x2="5" y2="61.5"/>
			<line class="st0" x1="3" y1="61.5" x2="2" y2="61.5"/>
		</g>
		<path class="st4" d="M41.9,15.4l-0.4-0.2c0.2-0.7,0.2-1.4,0.2-2.2s-0.1-1.5-0.2-2.2l0.4-0.2l1.3-1.1c0.4-0.3,0.4-0.8,0.2-1.3
			l-1.7-2.9c-0.2-0.4-0.7-0.6-1.2-0.4l-1.6,0.6l-0.4,0.2c-1.1-1-2.3-1.7-3.8-2.2V3l-0.3-1.7c-0.1-0.5-0.5-0.8-1-0.8h-3.4
			c-0.5,0-0.9,0.3-1,0.8L28.7,3v0.5c-1.4,0.4-2.7,1.2-3.8,2.2l-0.4-0.2l-1.6-0.6c-0.5-0.2-0.9,0-1.2,0.4l-1.7,2.9
			c-0.2,0.4-0.2,0.9,0.2,1.3l1.3,1.1l0.4,0.2c-0.2,0.7-0.2,1.4-0.2,2.2s0.1,1.5,0.2,2.2l-0.4,0.2l-1.3,1.1c-0.4,0.3-0.4,0.8-0.2,1.3
			l1.7,2.9c0.2,0.4,0.7,0.6,1.2,0.4l1.6-0.6l0.4-0.2c1.1,1,2.3,1.7,3.8,2.2V23l0.3,1.7c0.1,0.5,0.5,0.8,1,0.8h3.4
			c0.5,0,0.9-0.3,1-0.8l0.3-1.7v-0.5c1.4-0.4,2.7-1.2,3.8-2.2l0.4,0.2l1.6,0.6c0.5,0.2,0.9,0,1.2-0.4l1.7-2.9
			c0.2-0.4,0.2-0.9-0.2-1.3L41.9,15.4z M31.7,19c-3.3,0-6-2.7-6-6s2.7-6,6-6s6,2.7,6,6S35.1,19,31.7,19z"/>
		<g>
			<g>
				<circle class="st0" cx="32" cy="35.5" r="8"/>
				<path class="st1" d="M37.5,30.9l0.6-0.5c-1.5-1.8-3.7-2.9-6.1-2.9c-4.4,0-8,3.6-8,8h0.8C29.4,35.5,33.9,33.9,37.5,30.9z"/>
			</g>
			<g>
				<path class="st0" d="M32,43.5c-1.1,0-2.1-0.2-3-0.6l0,1.6l3,4.5l3-4.5l0-1.6C34.1,43.3,33.1,43.5,32,43.5z"/>
				<line class="st0" x1="39" y1="54.5" x2="39" y2="61.5"/>
				<line class="st0" x1="25" y1="54.5" x2="25" y2="61.5"/>
				<polygon class="st2" points="34.5,61 32,63.5 29.5,61 31,49 33,49 				"/>
				<polygon class="st0" points="29,44.5 28.5,49 35.5,49 35,44.5 32,49 				"/>
				<path class="st0" d="M44,61.5v-9.8c0-2-1.2-3.8-3-4.6l-6-2.7L32,49l-3-4.5l-6,2.7c-1.8,0.8-3,2.6-3,4.6v9.8"/>
			</g>
		</g>
		<g>
			<g>
				<circle class="st0" cx="50" cy="30.5" r="6"/>
				<path class="st1" d="M54.2,27l0.4-0.4c-1.1-1.3-2.8-2.2-4.6-2.2c-3.3,0-6,2.7-6,6h0.6C48.1,30.5,51.5,29.3,54.2,27z"/>
			</g>
			<path class="st0" d="M50,36.5c-1.1,0-2.1-0.3-3-0.8l0,1.8l3,4.5l3-4.5l0-1.8C52.1,36.2,51.1,36.5,50,36.5z"/>
			<line class="st0" x1="50" y1="42" x2="50" y2="45.5"/>
			<line class="st0" x1="56" y1="46.5" x2="56" y2="56.5"/>
			<g>
				<path class="st0" d="M46,56.5h10h3c0.6,0,1-0.4,1-1V44.1c0-1.9-1.1-3.6-2.8-4.5L53,37.5L50,42l-3-4.5l-4.2,2.1
					c-1.7,0.8-2.8,2.6-2.8,4.5v1"/>
			</g>
		</g>
		<g>
			<g>
				<circle class="st0" cx="14" cy="30.5" r="6"/>
				<path class="st1" d="M18.2,27l0.4-0.4c-1.1-1.3-2.8-2.2-4.6-2.2c-3.3,0-6,2.7-6,6h0.6C12.1,30.5,15.5,29.3,18.2,27z"/>
			</g>
			<path class="st0" d="M14,36.5c1.1,0,2.1-0.3,3-0.8l0,1.8L14,42l-3-4.5l0-1.8C11.9,36.2,12.9,36.5,14,36.5z"/>
			<line class="st0" x1="14" y1="42" x2="14" y2="45.5"/>
			<line class="st0" x1="8" y1="46.5" x2="8" y2="56.5"/>
			<g>
				<path class="st0" d="M18,56.5H8H5c-0.6,0-1-0.4-1-1V44.1c0-1.9,1.1-3.6,2.8-4.5l4.2-2.1l3,4.5l3-4.5l4.2,2.1
					c1.7,0.8,2.8,2.6,2.8,4.5v1"/>
			</g>
		</g>
	</g>
</g>
</svg>
