<?xml version="1.0" encoding="utf-8"?>
<!-- Generator: Adobe Illustrator 21.1.0, SVG Export Plug-In . SVG Version: 6.00 Build 0)  -->
<svg version="1.1" id="Icon_Set" xmlns="http://www.w3.org/2000/svg" xmlns:xlink="http://www.w3.org/1999/xlink" x="0px" y="0px"
	 viewBox="0 0 64 64" style="enable-background:new 0 0 64 64;" xml:space="preserve">
<style type="text/css">
	.st0{fill:none;stroke:#37474F;stroke-linecap:round;stroke-linejoin:round;stroke-miterlimit:10;}
	.st1{fill:#FFB300;stroke:#37474F;stroke-linecap:round;stroke-linejoin:round;stroke-miterlimit:10;}
	.st2{fill:#90CAF9;stroke:#37474F;stroke-linecap:round;stroke-linejoin:round;stroke-miterlimit:10;}
	.st3{fill:#FFFFFF;stroke:#37474F;stroke-linecap:round;stroke-linejoin:round;stroke-miterlimit:10;}
	.st4{fill:#FF7043;stroke:#37474F;stroke-linecap:round;stroke-linejoin:round;stroke-miterlimit:10;}
	.st5{fill:#9CCC65;stroke:#37474F;stroke-linecap:round;stroke-linejoin:round;stroke-miterlimit:10;}
	.st6{fill:#37474F;}
	.st7{fill:#37474F;stroke:#37474F;stroke-linecap:round;stroke-linejoin:round;stroke-miterlimit:10;}
	.st8{fill:none;stroke:#37474F;stroke-linecap:square;stroke-linejoin:round;stroke-miterlimit:10;}
</style>
<g id="Good_Leader">
	<g>
		<g>
			<line class="st0" x1="57.5" y1="21.9" x2="57.5" y2="10.9"/>
			<polygon class="st4" points="57.5,16.9 57.5,11.9 63.5,14.4 			"/>
		</g>
		<g>
			<line class="st0" x1="5.5" y1="5.5" x2="10.5" y2="5.5"/>
			<line class="st0" x1="12.5" y1="5.5" x2="13.5" y2="5.5"/>
		</g>
		<g>
			<line class="st0" x1="52" y1="57.5" x2="47" y2="57.5"/>
			<line class="st0" x1="45" y1="57.5" x2="44" y2="57.5"/>
		</g>
		<polyline class="st0" points="62,44 47,44 47,49.5 32,49.5 32,55 17,55 17,60.5 2,60.5 2,63.5 		"/>
		<g>
			<g>
				<circle class="st0" cx="42.8" cy="6.5" r="6"/>
				<path class="st1" d="M47,3l0.4-0.4c-1.1-1.3-2.8-2.2-4.6-2.2c-3.3,0-6,2.7-6,6h0.6C40.9,6.5,44.3,5.3,47,3z"/>
			</g>
			<g>
				<path class="st0" d="M42.8,12.5c-1.1,0-2.1-0.3-3-0.8l0,1.8l3,3.5l3-3.5l0-1.8C44.9,12.2,43.9,12.5,42.8,12.5z"/>
				<path class="st0" d="M36.8,30.5v19h4l1.9-13.1c0.1-0.5,0.5-0.9,1-0.9H48c0.5,0,0.9,0.3,1,0.8l1.8,7.7h4V33
					c0-1.4-1.1-2.5-2.5-2.5H36.8z"/>
				<path class="st0" d="M31.7,32.9v-9.3c0-0.9,0.5-1.8,1.4-2.2l3.7-1.9v11h12v-6.6l0.6,1.2c0.8,1.7,2.6,2.8,4.5,2.8H58v-4h-3.2
					c-0.9,0-1.8-0.5-2.2-1.4l-3-6c-0.5-1-1.3-1.8-2.2-2.2l-1.5-0.8l-3,3.5l-3-3.5l-9.3,4.7c-1.7,0.8-2.8,2.6-2.8,4.5v10.3"/>
				<polygon class="st2" points="44.3,24.5 42.8,26.5 41.3,24.5 41.8,15.5 43.8,15.5 				"/>
				<path class="st0" d="M60,23.9L60,23.9c1.1,0,2,0.9,2,2v0c0,1.1-0.9,2-2,2l0,0"/>
			</g>
		</g>
		<g>
			<g>
				<circle class="st0" cx="15.6" cy="17.5" r="6"/>
				<path class="st1" d="M19.8,14l0.4-0.4c-1.1-1.3-2.8-2.2-4.6-2.2c-3.3,0-6,2.7-6,6h0.6C13.7,17.5,17.1,16.3,19.8,14z"/>
			</g>
			<g>
				<path class="st0" d="M15.6,23.5c-1.1,0-2.1-0.3-3-0.8l0,1.8l3,4.5l3-4.5l0-1.8C17.7,23.2,16.7,23.5,15.6,23.5z"/>
				<line class="st0" x1="15.6" y1="29" x2="15.6" y2="33"/>
				<path class="st0" d="M9.6,41.5v19h4l1.9-13.1c0.1-0.5,0.5-0.9,1-0.9h4.3c0.5,0,0.9,0.3,1,0.8l1.8,7.7h4V44
					c0-1.4-1.1-2.5-2.5-2.5H9.6z"/>
				<path class="st0" d="M12.6,24.5l-9.3,4.7c-1.7,0.8-2.8,2.6-2.8,4.5v8.1h4v-7.2c0-0.9,0.5-1.8,1.4-2.2l3.7-1.9v11h12v-6.6
					l0.6,1.2c0.8,1.7,2.6,2.8,4.5,2.8h4.5v-4h-3.6c-0.9,0-1.8-0.5-2.2-1.4l-3-6c-0.5-1-1.3-1.8-2.2-2.2l-1.5-0.8"/>
				<path class="st0" d="M33.2,34.9L33.2,34.9c1.1,0,2,0.9,2,2v0c0,1.1-0.9,2-2,2l0,0"/>
				<path class="st0" d="M4.5,43.8L4.5,43.8c0,1.1-0.9,2-2,2h0c-1.1,0-2-0.9-2-2l0,0"/>
			</g>
		</g>
	</g>
</g>
</svg>
