<?xml version="1.0" encoding="utf-8"?>
<!-- Generator: Adobe Illustrator 21.1.0, SVG Export Plug-In . SVG Version: 6.00 Build 0)  -->
<svg version="1.1" id="Icon_Set" xmlns="http://www.w3.org/2000/svg" xmlns:xlink="http://www.w3.org/1999/xlink" x="0px" y="0px"
	 viewBox="0 0 64 64" style="enable-background:new 0 0 64 64;" xml:space="preserve">
<style type="text/css">
	.st0{fill:none;stroke:#37474F;stroke-linecap:round;stroke-linejoin:round;stroke-miterlimit:10;}
	.st1{fill:#FFB300;stroke:#37474F;stroke-linecap:round;stroke-linejoin:round;stroke-miterlimit:10;}
	.st2{fill:#90CAF9;stroke:#37474F;stroke-linecap:round;stroke-linejoin:round;stroke-miterlimit:10;}
	.st3{fill:#FFFFFF;stroke:#37474F;stroke-linecap:round;stroke-linejoin:round;stroke-miterlimit:10;}
	.st4{fill:#FF7043;stroke:#37474F;stroke-linecap:round;stroke-linejoin:round;stroke-miterlimit:10;}
	.st5{fill:#9CCC65;stroke:#37474F;stroke-linecap:round;stroke-linejoin:round;stroke-miterlimit:10;}
	.st6{fill:#37474F;}
	.st7{fill:#37474F;stroke:#37474F;stroke-linecap:round;stroke-linejoin:round;stroke-miterlimit:10;}
	.st8{fill:none;stroke:#37474F;stroke-linecap:square;stroke-linejoin:round;stroke-miterlimit:10;}
</style>
<g id="Qualification">
	<g>
		<g>
			<path class="st5" d="M58.5,60h-10c-2.8,0-5-2.2-5-5V45c0-2.8,2.2-5,5-5h10c2.8,0,5,2.2,5,5v10C63.5,57.8,61.3,60,58.5,60z"/>
			<polyline class="st0" points="48.2,50 51.7,53.5 58.8,46.5 			"/>
		</g>
		<line class="st0" x1="35.5" y1="10" x2="44.5" y2="10"/>
		<polyline class="st0" points="33.5,48 19.5,48 16.5,50 		"/>
		<g>
			<line class="st0" x1="13.7" y1="30" x2="8.7" y2="30"/>
			<line class="st0" x1="6.7" y1="30" x2="5.7" y2="30"/>
		</g>
		<g>
			<line class="st0" x1="48.5" y1="30" x2="53.5" y2="30"/>
			<line class="st0" x1="55.5" y1="30" x2="56.5" y2="30"/>
		</g>
		<g>
			<path class="st0" d="M57.7,15h-8.4c-1.5,0-2.8-1.3-2.8-2.8V7.8c0-1.5,1.3-2.8,2.8-2.8h8.4c1.5,0,2.8,1.3,2.8,2.8v4.4
				C60.5,13.7,59.3,15,57.7,15z"/>
			<circle class="st6" cx="57" cy="10" r="1"/>
			<circle class="st6" cx="53.5" cy="10" r="1"/>
			<circle class="st6" cx="50" cy="10" r="1"/>
		</g>
		<polyline class="st0" points="28.5,25 21.5,15 16.5,15 		"/>
		<g>
			<path class="st0" d="M11.7,20H3.3c-1.5,0-2.8-1.3-2.8-2.8v-4.4c0-1.5,1.3-2.8,2.8-2.8h8.4c1.5,0,2.8,1.3,2.8,2.8v4.4
				C14.5,18.7,13.2,20,11.7,20z"/>
			<line class="st0" x1="4" y1="15" x2="11" y2="15"/>
		</g>
		<g>
			<path class="st8" d="M3.3,55h8.4c1.5,0,2.8-1.3,2.8-2.8v-4.4c0-1.5-1.3-2.8-2.8-2.8H3.3c-1.5,0-2.8,1.3-2.8,2.8v4.4
				C0.5,53.7,1.8,55,3.3,55z"/>
			<line class="st0" x1="4.5" y1="48" x2="4.5" y2="52"/>
			<line class="st0" x1="7.5" y1="48" x2="7.5" y2="52"/>
			<line class="st0" x1="10.5" y1="48" x2="10.5" y2="52"/>
		</g>
		<g>
			<g>
				<circle class="st0" cx="31.5" cy="10" r="6"/>
				<path class="st1" d="M35.7,6.5l0.4-0.4C35,4.8,33.4,4,31.5,4c-3.3,0-6,2.7-6,6h0.6C29.6,10,33,8.8,35.7,6.5z"/>
			</g>
			<g>
				<g>
					<path class="st0" d="M31.5,16c-1.1,0-2.1-0.3-3-0.8l0,1.8l3,4.5l3-4.5l0-1.8C33.6,15.7,32.6,16,31.5,16z"/>
					<path class="st0" d="M31.5,21.5l-3-4.5l-4.2,2.1c-1.7,0.8-2.8,2.6-2.8,4.5V35c0,0.6,0.4,1,1,1h18c0.6,0,1-0.4,1-1V23.6
						c0-1.9-1.1-3.6-2.8-4.5L34.5,17L31.5,21.5"/>
					<line class="st0" x1="31.5" y1="21.5" x2="31.5" y2="25.5"/>
				</g>
				<line class="st0" x1="25.5" y1="36" x2="25.5" y2="26"/>
				<line class="st0" x1="37.5" y1="26" x2="37.5" y2="36"/>
				<path class="st0" d="M36.5,60h-2.1c-0.5,0-0.9-0.4-1-0.9L31.5,41l-1.9,18.1c-0.1,0.5-0.5,0.9-1,0.9h-2.1c-0.6,0-1-0.4-1-1V36h12
					v23C37.5,59.6,37.1,60,36.5,60z"/>
				<path class="st0" d="M25.5,38L25.5,38c0,1.1-0.9,2-2,2h0c-1.1,0-2-0.9-2-2v0"/>
				<path class="st0" d="M41.5,38L41.5,38c0,1.1-0.9,2-2,2h0c-1.1,0-2-0.9-2-2v0"/>
			</g>
		</g>
	</g>
</g>
</svg>
