<?xml version="1.0" encoding="utf-8"?>
<!-- Generator: Adobe Illustrator 21.1.0, SVG Export Plug-In . SVG Version: 6.00 Build 0)  -->
<svg version="1.1" id="Icon_Set" xmlns="http://www.w3.org/2000/svg" xmlns:xlink="http://www.w3.org/1999/xlink" x="0px" y="0px"
	 viewBox="0 0 64 64" style="enable-background:new 0 0 64 64;" xml:space="preserve">
<style type="text/css">
	.st0{fill:none;stroke:#37474F;stroke-linecap:round;stroke-linejoin:round;stroke-miterlimit:10;}
	.st1{fill:#FFB300;stroke:#37474F;stroke-linecap:round;stroke-linejoin:round;stroke-miterlimit:10;}
	.st2{fill:#90CAF9;stroke:#37474F;stroke-linecap:round;stroke-linejoin:round;stroke-miterlimit:10;}
	.st3{fill:#FFFFFF;stroke:#37474F;stroke-linecap:round;stroke-linejoin:round;stroke-miterlimit:10;}
	.st4{fill:#FF7043;stroke:#37474F;stroke-linecap:round;stroke-linejoin:round;stroke-miterlimit:10;}
	.st5{fill:#9CCC65;stroke:#37474F;stroke-linecap:round;stroke-linejoin:round;stroke-miterlimit:10;}
	.st6{fill:#37474F;}
	.st7{fill:#37474F;stroke:#37474F;stroke-linecap:round;stroke-linejoin:round;stroke-miterlimit:10;}
	.st8{fill:none;stroke:#37474F;stroke-linecap:square;stroke-linejoin:round;stroke-miterlimit:10;}
</style>
<g id="Target">
	<g>
		<g>
			<line class="st0" x1="59.5" y1="58" x2="54.5" y2="58"/>
			<line class="st0" x1="52.5" y1="58" x2="51.5" y2="58"/>
		</g>
		<g>
			<line class="st0" x1="33.3" y1="34" x2="38.3" y2="34"/>
			<line class="st0" x1="40.3" y1="34" x2="41.3" y2="34"/>
		</g>
		<g>
			<g>
				<path class="st0" d="M18.5,15c-5.2,0-9.6,3.6-10.7,8.5c-0.1,0-0.2,0-0.3,0C6.1,23.5,5,24.6,5,26c0,1.4,1.1,2.5,2.5,2.5
					c0.1,0,0.2,0,0.3,0c1.1,4.9,5.5,8.5,10.7,8.5c6.1,0,11-4.9,11-11S24.6,15,18.5,15z"/>
				<path class="st1" d="M8.5,25H8v-6.5h3v4C11,23.9,9.9,25,8.5,25z"/>
				<g>
					<circle class="st6" cx="24" cy="23.5" r="1"/>
					<circle class="st6" cx="17" cy="23.5" r="1"/>
				</g>
				<path class="st0" d="M24,28.5c-2,2-5.1,2-7.1,0"/>
				<path class="st1" d="M25.5,18.5H8v0c0-4.1,3.4-7.5,7.5-7.5h6c3,0,5.9-0.9,8.3-2.5L30.5,8v5.5C30.5,16.3,28.3,18.5,25.5,18.5z"/>
			</g>
			<g>
				<line class="st0" x1="8.5" y1="62" x2="8.5" y2="52"/>
				<g>
					<polygon class="st0" points="12.5,46 18.5,44 14.5,38 					"/>
					<polygon class="st0" points="22.5,38 18.5,44 24.5,46 					"/>
				</g>
				<path class="st0" d="M18.5,37c-1.4,0-2.8-0.3-4-0.8V38l4,6l4-6v-1.8C21.3,36.7,19.9,37,18.5,37z"/>
				<line class="st0" x1="18.5" y1="62" x2="18.5" y2="44"/>
				<path class="st0" d="M55.4,46.3l4.6-4.6c0.4-0.4,0.4-1,0-1.4l-3.5-3.5c-0.4-0.4-1-0.4-1.4,0l-2.8,2.8l-0.7-0.7
					c-0.4-0.4-1-0.4-1.4,0l-0.4,0.4c-0.4,0.4-0.4,1,0,1.4l0.7,0.7"/>
				<g>
					<path class="st0" d="M0.5,62V48.9c0-3,1.8-5.7,4.5-6.9l9.5-4.1l4,6l4-6l6.7,2.9c1.2,0.5,2.2,1.2,3.1,2.1l7.5,7.5l8.5-8.5
						l5.7,5.7l-8.8,8.8c-2.9,2.9-7.7,2.9-10.6,0l-6-6l0,11.5"/>
				</g>
			</g>
		</g>
		<g>
			<circle class="st4" cx="48.5" cy="14" r="12"/>
			<circle class="st3" cx="48.5" cy="14" r="8"/>
			<circle class="st4" cx="48.5" cy="14" r="4"/>
			<line class="st0" x1="48.5" y1="14" x2="61.5" y2="14"/>
			<polygon class="st1" points="63.5,16 59.5,16 58.5,14 59.5,12 63.5,12 62.5,14 			"/>
		</g>
	</g>
</g>
</svg>
