<?xml version="1.0" encoding="utf-8"?>
<!-- Generator: Adobe Illustrator 21.1.0, SVG Export Plug-In . SVG Version: 6.00 Build 0)  -->
<svg version="1.1" id="Icon_Set" xmlns="http://www.w3.org/2000/svg" xmlns:xlink="http://www.w3.org/1999/xlink" x="0px" y="0px"
	 viewBox="0 0 64 64" style="enable-background:new 0 0 64 64;" xml:space="preserve">
<style type="text/css">
	.st0{fill:none;stroke:#37474F;stroke-linecap:round;stroke-linejoin:round;stroke-miterlimit:10;}
	.st1{fill:#FFB300;stroke:#37474F;stroke-linecap:round;stroke-linejoin:round;stroke-miterlimit:10;}
	.st2{fill:#90CAF9;stroke:#37474F;stroke-linecap:round;stroke-linejoin:round;stroke-miterlimit:10;}
	.st3{fill:#FFFFFF;stroke:#37474F;stroke-linecap:round;stroke-linejoin:round;stroke-miterlimit:10;}
	.st4{fill:#FF7043;stroke:#37474F;stroke-linecap:round;stroke-linejoin:round;stroke-miterlimit:10;}
	.st5{fill:#9CCC65;stroke:#37474F;stroke-linecap:round;stroke-linejoin:round;stroke-miterlimit:10;}
	.st6{fill:#37474F;}
	.st7{fill:#37474F;stroke:#37474F;stroke-linecap:round;stroke-linejoin:round;stroke-miterlimit:10;}
	.st8{fill:none;stroke:#37474F;stroke-linecap:square;stroke-linejoin:round;stroke-miterlimit:10;}
</style>
<g id="On_Call">
	<g>
		<g>
			<g>
				<path class="st0" d="M27,12c-5.2,0-9.6,3.6-10.7,8.5c-0.1,0-0.2,0-0.3,0c-1.4,0-2.5,1.1-2.5,2.5c0,1.4,1.1,2.5,2.5,2.5
					c0.1,0,0.2,0,0.3,0C17.4,30.4,21.8,34,27,34c6.1,0,11-4.9,11-11S33.1,12,27,12z"/>
				<path class="st1" d="M17,22h-0.5v-6.5h3v4C19.5,20.9,18.4,22,17,22z"/>
				<g>
					<circle class="st6" cx="32.5" cy="22.5" r="1"/>
					<circle class="st6" cx="25.5" cy="22.5" r="1"/>
				</g>
				<path class="st0" d="M32.5,27c-2,2-5.1,2-7.1,0"/>
				<path class="st1" d="M34,15.5H16.5v0c0-4.1,3.4-7.5,7.5-7.5h6c3,0,5.9-0.9,8.3-2.5L39,5v5.5C39,13.3,36.8,15.5,34,15.5z"/>
			</g>
			<g>
				<line class="st0" x1="37" y1="59" x2="37" y2="49"/>
				<line class="st0" x1="17" y1="59" x2="17" y2="49"/>
				<path class="st0" d="M37,51v3c0,2.8,2.2,5,5,5h3c2.8,0,5-2.2,5-5v-7h-8v6"/>
				<path class="st0" d="M9,59V45.9c0-3,1.8-5.7,4.5-6.9L23,35l4,6l4-6l9,3.9"/>
				<g>
					<polygon class="st0" points="21,43 27,41 23,35 					"/>
					<polygon class="st0" points="31,35 27,41 33,43 					"/>
				</g>
				<path class="st0" d="M27,34c-1.4,0-2.8-0.3-4-0.8V35l4,6l4-6v-1.8C29.8,33.7,28.4,34,27,34z"/>
				<line class="st0" x1="27" y1="59" x2="27" y2="41"/>
				<path class="st0" d="M49,47h-5c-0.6,0-1-0.4-1-1v-5.5c0-0.6,0.4-1,1-1h5c0.6,0,1,0.4,1,1V46C50,46.6,49.6,47,49,47z"/>
				<path class="st0" d="M43,40.5c0-0.6,0.4-1,1-1h4V32c0-0.6-0.4-1-1-1h-6c-0.6,0-1,0.4-1,1v10c0,0.6,0.4,1,1,1h2V40.5z"/>
			</g>
		</g>
		<g>
			<line class="st0" x1="55" y1="55" x2="60" y2="55"/>
			<line class="st0" x1="62" y1="55" x2="63" y2="55"/>
		</g>
		<g>
			<line class="st0" x1="9" y1="34" x2="4" y2="34"/>
			<line class="st0" x1="2" y1="34" x2="1" y2="34"/>
		</g>
		<g>
			<path class="st5" d="M46,12.6L46,12.6c0.6,6.6,5.8,11.8,12.3,12.3l0,0c0.6,0.1,1.1-0.1,1.5-0.5l1.8-1.8c0.5-0.5,0.5-1.3,0-1.8
				l-1.8-1.8c-0.5-0.5-1.3-0.5-1.8,0l-0.7,0.7c-0.6,0.6-1.5,0.7-2.2,0.4c-1.9-1-3.4-2.5-4.4-4.4c-0.4-0.7-0.2-1.6,0.4-2.2l0.7-0.7
				c0.5-0.5,0.5-1.3,0-1.8l-1.8-1.8c-0.5-0.5-1.3-0.5-1.8,0l-1.8,1.8C46.2,11.5,46,12.1,46,12.6z"/>
			<circle class="st5" cx="61.5" cy="9.5" r="1.5"/>
			<circle class="st5" cx="57.5" cy="13.5" r="1.5"/>
		</g>
	</g>
</g>
</svg>
