<?xml version="1.0" encoding="utf-8"?>
<!-- Generator: Adobe Illustrator 21.1.0, SVG Export Plug-In . SVG Version: 6.00 Build 0)  -->
<svg version="1.1" id="Icon_Set" xmlns="http://www.w3.org/2000/svg" xmlns:xlink="http://www.w3.org/1999/xlink" x="0px" y="0px"
	 viewBox="0 0 64 64" style="enable-background:new 0 0 64 64;" xml:space="preserve">
<style type="text/css">
	.st0{fill:none;stroke:#37474F;stroke-linecap:round;stroke-linejoin:round;stroke-miterlimit:10;}
	.st1{fill:#FFB300;stroke:#37474F;stroke-linecap:round;stroke-linejoin:round;stroke-miterlimit:10;}
	.st2{fill:#90CAF9;stroke:#37474F;stroke-linecap:round;stroke-linejoin:round;stroke-miterlimit:10;}
	.st3{fill:#FFFFFF;stroke:#37474F;stroke-linecap:round;stroke-linejoin:round;stroke-miterlimit:10;}
	.st4{fill:#FF7043;stroke:#37474F;stroke-linecap:round;stroke-linejoin:round;stroke-miterlimit:10;}
	.st5{fill:#9CCC65;stroke:#37474F;stroke-linecap:round;stroke-linejoin:round;stroke-miterlimit:10;}
	.st6{fill:#37474F;}
	.st7{fill:#37474F;stroke:#37474F;stroke-linecap:round;stroke-linejoin:round;stroke-miterlimit:10;}
	.st8{fill:none;stroke:#37474F;stroke-linecap:square;stroke-linejoin:round;stroke-miterlimit:10;}
</style>
<g id="Bootstrap_Startup">
	<g>
		<g>
			<g>
				<line class="st0" x1="15" y1="12" x2="10" y2="12"/>
				<line class="st0" x1="8" y1="12" x2="7" y2="12"/>
			</g>
			<g>
				<line class="st0" x1="49" y1="12" x2="54" y2="12"/>
				<line class="st0" x1="56" y1="12" x2="57" y2="12"/>
			</g>
		</g>
		<g>
			<line class="st2" x1="32" y1="31.8" x2="32" y2="41"/>
			<path class="st0" d="M9,41v-3c0-1.4,1.1-2.5,2.5-2.5h41c1.4,0,2.5,1.1,2.5,2.5v3"/>
		</g>
		<g>
			<circle class="st5" cx="9" cy="53.5" r="8"/>
			<path class="st0" d="M10.6,51.1H8.2c-0.7,0-1.2,0.5-1.2,1.2l0,0c0,0.7,0.5,1.2,1.2,1.2h1.6c0.7,0,1.2,0.5,1.2,1.2l0,0
				c0,0.7-0.5,1.2-1.2,1.2H7.4"/>
			<line class="st0" x1="9" y1="49.6" x2="9" y2="51.1"/>
			<line class="st0" x1="9" y1="55.9" x2="9" y2="57.4"/>
		</g>
		<g>
			<circle class="st2" cx="55" cy="53.5" r="8"/>
			<polyline class="st0" points="55,49 55,54 58.5,52 			"/>
		</g>
		<path class="st4" d="M38.9,55.2L38.6,55c0.1-0.5,0.2-1,0.2-1.5c0-0.5-0.1-1-0.2-1.5l0.3-0.2l0.7-0.6c0.4-0.3,0.4-0.8,0.2-1.3
			l-0.9-1.5c-0.2-0.4-0.7-0.6-1.2-0.4l-0.9,0.3l-0.3,0.2c-0.7-0.7-1.6-1.2-2.5-1.5v-0.3l-0.2-0.9c-0.1-0.5-0.5-0.8-1-0.8h-1.8
			c-0.5,0-0.9,0.3-1,0.8L30,46.7v0.3c-1,0.3-1.8,0.8-2.5,1.5l-0.3-0.2l-0.9-0.3c-0.5-0.2-0.9,0-1.2,0.4L24.2,50
			c-0.2,0.4-0.2,0.9,0.2,1.3l0.7,0.6l0.3,0.2c-0.1,0.5-0.2,1-0.2,1.5c0,0.5,0.1,1,0.2,1.5l-0.3,0.2l-0.7,0.6
			c-0.4,0.3-0.4,0.8-0.2,1.3l0.9,1.5c0.2,0.4,0.7,0.6,1.2,0.4l0.9-0.3l0.3-0.2c0.7,0.7,1.6,1.2,2.5,1.5v0.3l0.2,0.9
			c0.1,0.5,0.5,0.8,1,0.8h1.8c0.5,0,0.9-0.3,1-0.8l0.2-0.9V60c1-0.3,1.8-0.8,2.5-1.5l0.3,0.2l0.9,0.3c0.5,0.2,0.9,0,1.2-0.4l0.9-1.5
			c0.2-0.4,0.2-0.9-0.2-1.3L38.9,55.2z M32,57.6c-2.2,0-4.1-1.8-4.1-4.1s1.8-4.1,4.1-4.1s4.1,1.8,4.1,4.1S34.3,57.6,32,57.6z"/>
		<g>
			<g>
				<circle class="st0" cx="32" cy="8" r="6"/>
				<path class="st1" d="M36.2,4.5l0.4-0.4C35.5,2.8,33.8,2,32,2c-3.3,0-6,2.7-6,6h0.6C30.1,8,33.5,6.8,36.2,4.5z"/>
			</g>
			<g>
				<path class="st0" d="M32,14c-1.1,0-2.1-0.3-3-0.8l0,1.8l3,3.5l3-3.5l0-1.8C34.1,13.7,33.1,14,32,14z"/>
				<g>
					<path class="st0" d="M42,28v-6.4c0-1.9-1.1-3.6-2.8-4.5L35,15l-3,3.5"/>
					<path class="st0" d="M32,18.5L29,15l-4.2,2.1C23.1,18,22,19.7,22,21.6V28"/>
				</g>
				<polygon class="st2" points="33.5,26 32,28 30.5,26 31,17 33,17 				"/>
			</g>
		</g>
	</g>
</g>
</svg>
