<?xml version="1.0" encoding="utf-8"?>
<!-- Generator: Adobe Illustrator 21.1.0, SVG Export Plug-In . SVG Version: 6.00 Build 0)  -->
<svg version="1.1" id="Icon_Set" xmlns="http://www.w3.org/2000/svg" xmlns:xlink="http://www.w3.org/1999/xlink" x="0px" y="0px"
	 viewBox="0 0 64 64" style="enable-background:new 0 0 64 64;" xml:space="preserve">
<style type="text/css">
	.st0{fill:none;stroke:#37474F;stroke-linecap:round;stroke-linejoin:round;stroke-miterlimit:10;}
	.st1{fill:#FFB300;stroke:#37474F;stroke-linecap:round;stroke-linejoin:round;stroke-miterlimit:10;}
	.st2{fill:#90CAF9;stroke:#37474F;stroke-linecap:round;stroke-linejoin:round;stroke-miterlimit:10;}
	.st3{fill:#FFFFFF;stroke:#37474F;stroke-linecap:round;stroke-linejoin:round;stroke-miterlimit:10;}
	.st4{fill:#FF7043;stroke:#37474F;stroke-linecap:round;stroke-linejoin:round;stroke-miterlimit:10;}
	.st5{fill:#9CCC65;stroke:#37474F;stroke-linecap:round;stroke-linejoin:round;stroke-miterlimit:10;}
	.st6{fill:#37474F;}
	.st7{fill:#37474F;stroke:#37474F;stroke-linecap:round;stroke-linejoin:round;stroke-miterlimit:10;}
	.st8{fill:none;stroke:#37474F;stroke-linecap:square;stroke-linejoin:round;stroke-miterlimit:10;}
</style>
<g id="Progress">
	<g>
		<g>
			<line class="st0" x1="32.5" y1="50.5" x2="27.5" y2="50.5"/>
			<line class="st0" x1="25.5" y1="50.5" x2="24.5" y2="50.5"/>
		</g>
		<g>
			<line class="st0" x1="14.5" y1="5" x2="19.5" y2="5"/>
			<line class="st0" x1="21.5" y1="5" x2="22.5" y2="5"/>
		</g>
		<g>
			<rect x="13" y="33.5" class="st1" width="3" height="6"/>
			<rect x="21.3" y="28.5" class="st4" width="3" height="11"/>
			<rect x="29.3" y="23" class="st2" width="3" height="16.5"/>
			<g>
				<polyline class="st0" points="15.7,25.5 19.3,22 22.8,25.5 32.3,16 				"/>
				<polyline class="st0" points="28.3,16 32.3,16 32.3,20 				"/>
			</g>
			<path class="st0" d="M40.5,17.8v-4.3c0-1.4-1.1-2.5-2.5-2.5H7c-1.4,0-2.5,1.1-2.5,2.5V42c0,1.4,1.1,2.5,2.5,2.5h31
				c1.4,0,2.5-1.1,2.5-2.5v-0.1"/>
		</g>
		<g>
			<g>
				<circle class="st0" cx="49.5" cy="10" r="6"/>
				<path class="st1" d="M53.7,6.5l0.4-0.4C53,4.8,51.4,4,49.5,4c-3.3,0-6,2.7-6,6h0.6C47.6,10,51,8.8,53.7,6.5z"/>
			</g>
			<g>
				<g>
					<path class="st0" d="M49.5,16c-1.1,0-2.1-0.3-3-0.8l0,1.8l3,4.5l3-4.5l0-1.8C51.6,15.7,50.6,16,49.5,16z"/>
					<path class="st0" d="M49.5,21.5l-3-4.5l-4.2,2.1c-1.7,0.8-2.8,2.6-2.8,4.5V35c0,0.6,0.4,1,1,1h18c0.6,0,1-0.4,1-1V23.6
						c0-1.9-1.1-3.6-2.8-4.5L52.5,17L49.5,21.5"/>
					<line class="st0" x1="49.5" y1="21.5" x2="49.5" y2="25.5"/>
				</g>
				<line class="st0" x1="43.5" y1="36" x2="43.5" y2="26"/>
				<line class="st0" x1="55.5" y1="26" x2="55.5" y2="36"/>
				<path class="st0" d="M54.5,60h-2.1c-0.5,0-0.9-0.4-1-0.9L49.5,41l-1.9,18.1c-0.1,0.5-0.5,0.9-1,0.9h-2.1c-0.6,0-1-0.4-1-1V36h12
					v23C55.5,59.6,55.1,60,54.5,60z"/>
				<path class="st0" d="M43.5,38L43.5,38c0,1.1-0.9,2-2,2h0c-1.1,0-2-0.9-2-2v0"/>
				<path class="st0" d="M59.5,38L59.5,38c0,1.1-0.9,2-2,2h0c-1.1,0-2-0.9-2-2v0"/>
			</g>
		</g>
	</g>
</g>
</svg>
