<?xml version="1.0" encoding="utf-8"?>
<!-- Generator: Adobe Illustrator 21.1.0, SVG Export Plug-In . SVG Version: 6.00 Build 0)  -->
<svg version="1.1" id="Icon_Set" xmlns="http://www.w3.org/2000/svg" xmlns:xlink="http://www.w3.org/1999/xlink" x="0px" y="0px"
	 viewBox="0 0 64 64" style="enable-background:new 0 0 64 64;" xml:space="preserve">
<style type="text/css">
	.st0{fill:none;stroke:#37474F;stroke-linecap:round;stroke-linejoin:round;stroke-miterlimit:10;}
	.st1{fill:#FFB300;stroke:#37474F;stroke-linecap:round;stroke-linejoin:round;stroke-miterlimit:10;}
	.st2{fill:#90CAF9;stroke:#37474F;stroke-linecap:round;stroke-linejoin:round;stroke-miterlimit:10;}
	.st3{fill:#FFFFFF;stroke:#37474F;stroke-linecap:round;stroke-linejoin:round;stroke-miterlimit:10;}
	.st4{fill:#FF7043;stroke:#37474F;stroke-linecap:round;stroke-linejoin:round;stroke-miterlimit:10;}
	.st5{fill:#9CCC65;stroke:#37474F;stroke-linecap:round;stroke-linejoin:round;stroke-miterlimit:10;}
	.st6{fill:#37474F;}
	.st7{fill:#37474F;stroke:#37474F;stroke-linecap:round;stroke-linejoin:round;stroke-miterlimit:10;}
	.st8{fill:none;stroke:#37474F;stroke-linecap:square;stroke-linejoin:round;stroke-miterlimit:10;}
</style>
<g id="Top_Sales">
	<g>
		<g>
			<line class="st0" x1="0.5" y1="2.5" x2="5.5" y2="2.5"/>
			<line class="st0" x1="7.5" y1="2.5" x2="8.5" y2="2.5"/>
		</g>
		<g>
			<line class="st0" x1="63.5" y1="7.5" x2="58.5" y2="7.5"/>
			<line class="st0" x1="56.5" y1="7.5" x2="55.5" y2="7.5"/>
		</g>
		<rect x="21.5" y="52.5" class="st0" width="18" height="11"/>
		<rect x="3.5" y="58" class="st0" width="18" height="5.5"/>
		<rect x="39.5" y="59" class="st0" width="18" height="4.5"/>
		<g>
			<g>
				<circle class="st0" cx="30.5" cy="6.5" r="6"/>
				<path class="st1" d="M34.7,3l0.4-0.4c-1.1-1.3-2.8-2.2-4.6-2.2c-3.3,0-6,2.7-6,6h0.6C28.6,6.5,32,5.3,34.7,3z"/>
			</g>
			<g>
				<path class="st0" d="M30.5,12.5c-1.1,0-2.1-0.3-3-0.8l0,1.8l3,3.5l3-3.5l0-1.8C32.6,12.2,31.6,12.5,30.5,12.5z"/>
				<path class="st0" d="M35.5,52.5h-2.1c-0.5,0-0.9-0.4-1-0.9l-1.9-16.1l-1.9,16.1c-0.1,0.5-0.5,0.9-1,0.9h-2.1c-0.6,0-1-0.4-1-1
					v-21h12v21C36.5,52.1,36.1,52.5,35.5,52.5z"/>
				<path class="st0" d="M49.2,6.1L49.2,6.1c0.5-1,0.1-2.2-0.9-2.7l0,0c-1-0.5-2.2-0.1-2.7,0.9v0"/>
				<g>
					<path class="st0" d="M44.7,6.1L41,13.6c-0.4,0.8-1.3,1.4-2.2,1.4h-2.2l-3-1.5l-3,3.5l-3-3.5l-4.2,2.1c-1.7,0.8-2.8,2.6-2.8,4.5
						v9.4c0,0.6,0.4,1,1,1l15,0V19h3.1c1.9,0,3.6-1.1,4.5-2.8l4.2-8.3L44.7,6.1z"/>
				</g>
				<polygon class="st2" points="32,24.5 30.5,26.5 29,24.5 29.5,15.5 31.5,15.5 				"/>
				<line class="st0" x1="24.5" y1="30.5" x2="24.5" y2="20.5"/>
				<path class="st0" d="M24.5,32.5L24.5,32.5c0,1.1-0.9,2-2,2h0c-1.1,0-2-0.9-2-2v0"/>
			</g>
		</g>
		<g>
			<g>
				<circle class="st0" cx="13.5" cy="14.5" r="6"/>
				<path class="st1" d="M17.7,11l0.4-0.4c-1.1-1.3-2.8-2.2-4.6-2.2c-3.3,0-6,2.7-6,6h0.6C11.6,14.5,15,13.3,17.7,11z"/>
			</g>
			<g>
				<path class="st0" d="M13.5,20.5c-1.1,0-2.1-0.3-3-0.8l0,1.8l3,4.5l3-4.5l0-1.8C15.6,20.2,14.6,20.5,13.5,20.5z"/>
				<path class="st0" d="M18.5,22.5l-2-1l-3,4.5l-3-4.5l-4.2,2.1c-1.7,0.8-2.8,2.6-2.8,4.5V37c0,0.6,0.4,1,1,1h18"/>
				<line class="st0" x1="13.5" y1="26" x2="13.5" y2="30"/>
				<line class="st0" x1="7.5" y1="38" x2="7.5" y2="30.5"/>
				<line class="st0" x1="19.5" y1="35" x2="19.5" y2="38"/>
				<path class="st0" d="M18.5,58h-2.1c-0.5,0-0.9-0.4-1-0.9L13.5,43l-1.9,14.1c-0.1,0.5-0.5,0.9-1,0.9H8.5c-0.6,0-1-0.4-1-1V38h12
					v19C19.5,57.6,19.1,58,18.5,58z"/>
				<path class="st0" d="M7.5,40L7.5,40c0,1.1-0.9,2-2,2h0c-1.1,0-2-0.9-2-2v0"/>
				<path class="st0" d="M19.5,40c0,1.1,0.9,2,2,2c0.4,0,0.7-0.1,1-0.3"/>
			</g>
		</g>
		<g>
			<g>
				<path class="st0" d="M43.4,19.9c1.1,1,2.5,1.6,4.1,1.6c3.3,0,6-2.7,6-6c0-2.6-1.7-4.8-4-5.6"/>
				<path class="st1" d="M47.2,14.6c1.6-0.6,3.1-1.5,4.5-2.6l0.4-0.4c-0.7-0.8-1.6-1.4-2.6-1.8"/>
			</g>
			<g>
				<path class="st0" d="M47.5,21.5c-1.1,0-2.1-0.3-3-0.8l0,1.8l3,4.5l3-4.5l0-1.8C49.6,21.2,48.6,21.5,47.5,21.5z"/>
				<path class="st0" d="M38.5,39h18c0.6,0,1-0.4,1-1v-8.9c0-1.9-1.1-3.6-2.8-4.5l-4.2-2.1l-3,4.5l-3-4.5l-4.2,2.1
					c-0.7,0.4-1.3,0.9-1.8,1.5"/>
				<line class="st0" x1="47.5" y1="27" x2="47.5" y2="31"/>
				<line class="st0" x1="41.5" y1="39" x2="41.5" y2="31.5"/>
				<line class="st0" x1="53.5" y1="31.5" x2="53.5" y2="39"/>
				<path class="st0" d="M52.5,59h-2.1c-0.5,0-0.9-0.4-1-0.9L47.5,44l-1.9,14.1c-0.1,0.5-0.5,0.9-1,0.9h-2.1c-0.6,0-1-0.4-1-1V39h12
					v19C53.5,58.6,53.1,59,52.5,59z"/>
				<path class="st0" d="M57.5,41L57.5,41c0,1.1-0.9,2-2,2h0c-1.1,0-2-0.9-2-2v0"/>
				<path class="st0" d="M41.5,40c0,1.1-0.9,2-2,2c-0.4,0-0.7-0.1-1-0.3"/>
			</g>
		</g>
	</g>
</g>
</svg>
