<?xml version="1.0" encoding="utf-8"?>
<!-- Generator: Adobe Illustrator 21.1.0, SVG Export Plug-In . SVG Version: 6.00 Build 0)  -->
<svg version="1.1" id="Icon_Set" xmlns="http://www.w3.org/2000/svg" xmlns:xlink="http://www.w3.org/1999/xlink" x="0px" y="0px"
	 viewBox="0 0 64 64" style="enable-background:new 0 0 64 64;" xml:space="preserve">
<style type="text/css">
	.st0{fill:none;stroke:#37474F;stroke-linecap:round;stroke-linejoin:round;stroke-miterlimit:10;}
	.st1{fill:#FFB300;stroke:#37474F;stroke-linecap:round;stroke-linejoin:round;stroke-miterlimit:10;}
	.st2{fill:#90CAF9;stroke:#37474F;stroke-linecap:round;stroke-linejoin:round;stroke-miterlimit:10;}
	.st3{fill:#FFFFFF;stroke:#37474F;stroke-linecap:round;stroke-linejoin:round;stroke-miterlimit:10;}
	.st4{fill:#FF7043;stroke:#37474F;stroke-linecap:round;stroke-linejoin:round;stroke-miterlimit:10;}
	.st5{fill:#9CCC65;stroke:#37474F;stroke-linecap:round;stroke-linejoin:round;stroke-miterlimit:10;}
	.st6{fill:#37474F;}
	.st7{fill:#37474F;stroke:#37474F;stroke-linecap:round;stroke-linejoin:round;stroke-miterlimit:10;}
	.st8{fill:none;stroke:#37474F;stroke-linecap:square;stroke-linejoin:round;stroke-miterlimit:10;}
</style>
<g id="Operator">
	<g>
		<g>
			<line class="st0" x1="49.2" y1="59.7" x2="54.2" y2="59.7"/>
			<line class="st0" x1="56.2" y1="59.8" x2="57.2" y2="59.8"/>
		</g>
		<g>
			<line class="st0" x1="8.2" y1="38.8" x2="3.2" y2="38.8"/>
			<line class="st0" x1="1.2" y1="38.7" x2="0.2" y2="38.7"/>
		</g>
		<g>
			<g>
				<g>
					<path class="st0" d="M15.6,30.2c1.1,4.9,5.5,8.5,10.7,8.5s9.6-3.6,10.7-8.5"/>
					<path class="st1" d="M16.3,26.7h-0.5v-6.5h3v4C18.8,25.6,17.7,26.7,16.3,26.7z"/>
					<path class="st1" d="M33.3,20.2H15.8v0c0-4.1,3.4-7.5,7.5-7.5h5.2c2.2,0,4.3-0.5,6.3-1.4l3.5-1.6v5.5
						C38.3,18,36,20.2,33.3,20.2z"/>
					<path class="st1" d="M33.8,20.2v4.1c0,1.4,1.1,2.5,2.5,2.5h0.5v-7.9C36,19.6,34.9,20.1,33.8,20.2z"/>
					<g>
						<circle class="st6" cx="29.8" cy="26.2" r="1"/>
						<circle class="st6" cx="22.8" cy="26.2" r="1"/>
					</g>
					<path class="st0" d="M22.7,31.3c2,2,5.1,2,7.1,0"/>
				</g>
				<path class="st0" d="M38.7,19.6c0,0.3,0,0.7,0,1v3.1"/>
				<path class="st0" d="M13.8,23.7v-3.1c0-6.9,5.6-12.5,12.5-12.5h0c2.4,0,4.6,0.7,6.5,1.8"/>
				<path class="st0" d="M13.8,31.7h-1.5c-1.4,0-2.5-1.1-2.5-2.5v-3c0-1.4,1.1-2.5,2.5-2.5h1.5V31.7z"/>
				<path class="st0" d="M38.8,23.7h1.5c1.4,0,2.5,1.1,2.5,2.5v3c0,1.4-1.1,2.5-2.5,2.5h-1.5V23.7z"/>
				<path class="st0" d="M38.8,31.7L38.8,31.7c0,5.5-4.5,10-10,10h-2.5"/>
			</g>
			<g>
				<line class="st0" x1="36.3" y1="63.8" x2="36.3" y2="53.7"/>
				<line class="st0" x1="16.3" y1="63.8" x2="16.3" y2="53.7"/>
				<path class="st0" d="M22.3,39.8l-9.5,4.1c-2.8,1.2-4.5,3.9-4.5,6.9v13.1"/>
				<path class="st0" d="M44.3,63.8V50.7c0-3-1.8-5.7-4.5-6.9l-4.5-1.9"/>
				<path class="st0" d="M30.3,39.8v-0.1V38c-1.2,0.5-2.6,0.8-4,0.8s-2.8-0.3-4-0.8v1.8l4,6l1.3-2"/>
				<rect x="29.3" y="53.8" class="st0" width="4" height="2.5"/>
			</g>
		</g>
		<g>
			<circle class="st2" cx="53.8" cy="10.2" r="10"/>
			<g>
				<path class="st0" d="M48.8,8.7c0-1.1,0.9-2,2-2h0c1.1,0,2,0.9,2,2v0.2c0,0.5-0.2,1-0.6,1.4l-3.4,3.4h4"/>
				<g>
					<path class="st0" d="M54.8,6.7v1.5c0,1.1,0.9,2,2,2h2V6.7"/>
					<line class="st0" x1="58.8" y1="13.7" x2="58.8" y2="10.2"/>
				</g>
			</g>
		</g>
	</g>
</g>
</svg>
