<?xml version="1.0" encoding="utf-8"?>
<!-- Generator: Adobe Illustrator 21.1.0, SVG Export Plug-In . SVG Version: 6.00 Build 0)  -->
<svg version="1.1" id="Icon_Set" xmlns="http://www.w3.org/2000/svg" xmlns:xlink="http://www.w3.org/1999/xlink" x="0px" y="0px"
	 viewBox="0 0 64 64" style="enable-background:new 0 0 64 64;" xml:space="preserve">
<style type="text/css">
	.st0{fill:none;stroke:#37474F;stroke-linecap:round;stroke-linejoin:round;stroke-miterlimit:10;}
	.st1{fill:#FFB300;stroke:#37474F;stroke-linecap:round;stroke-linejoin:round;stroke-miterlimit:10;}
	.st2{fill:#90CAF9;stroke:#37474F;stroke-linecap:round;stroke-linejoin:round;stroke-miterlimit:10;}
	.st3{fill:#FFFFFF;stroke:#37474F;stroke-linecap:round;stroke-linejoin:round;stroke-miterlimit:10;}
	.st4{fill:#FF7043;stroke:#37474F;stroke-linecap:round;stroke-linejoin:round;stroke-miterlimit:10;}
	.st5{fill:#9CCC65;stroke:#37474F;stroke-linecap:round;stroke-linejoin:round;stroke-miterlimit:10;}
	.st6{fill:#37474F;}
	.st7{fill:#37474F;stroke:#37474F;stroke-linecap:round;stroke-linejoin:round;stroke-miterlimit:10;}
	.st8{fill:none;stroke:#37474F;stroke-linecap:square;stroke-linejoin:round;stroke-miterlimit:10;}
</style>
<g id="Counterbalance">
	<g>
		<g>
			<path class="st0" d="M56,33.6H42c-0.6,0-1-0.4-1-1v-2c0-0.6,0.4-1,1-1h14c0.6,0,1,0.4,1,1v2C57,33.2,56.6,33.6,56,33.6z"/>
			<path class="st0" d="M55,29.6H41c-0.6,0-1-0.4-1-1v-2c0-0.6,0.4-1,1-1h14c0.6,0,1,0.4,1,1v2C56,29.2,55.6,29.6,55,29.6z"/>
			<g>
				<circle class="st5" cx="49" cy="13.6" r="8"/>
				<path class="st0" d="M50.6,11.2h-2.4c-0.7,0-1.2,0.5-1.2,1.2v0c0,0.7,0.5,1.2,1.2,1.2h1.6c0.7,0,1.2,0.5,1.2,1.2v0
					c0,0.7-0.5,1.2-1.2,1.2h-2.4"/>
				<line class="st0" x1="49" y1="9.7" x2="49" y2="11.2"/>
				<line class="st0" x1="49" y1="16" x2="49" y2="17.5"/>
			</g>
			<path class="st0" d="M56,25.6H42c-0.6,0-1-0.4-1-1v-2c0-0.6,0.4-1,1-1h14c0.6,0,1,0.4,1,1v2C57,25.2,56.6,25.6,56,25.6z"/>
			<path class="st0" d="M54,37.6H40c-0.6,0-1-0.4-1-1v-2c0-0.6,0.4-1,1-1h14c0.6,0,1,0.4,1,1v2C55,37.2,54.6,37.6,54,37.6z"/>
			<path class="st0" d="M41,41.6v-3c0-0.6,0.4-1,1-1h14c0.6,0,1,0.4,1,1v3"/>
		</g>
		<g>
			<line class="st0" x1="49.2" y1="52.4" x2="54.2" y2="52.4"/>
			<line class="st0" x1="56.2" y1="52.4" x2="57.2" y2="52.4"/>
		</g>
		<g>
			<line class="st0" x1="15.2" y1="52.4" x2="10.2" y2="52.4"/>
			<line class="st0" x1="8.2" y1="52.4" x2="7.2" y2="52.4"/>
		</g>
		<g>
			<g>
				<circle class="st0" cx="19" cy="13.6" r="8"/>
				<path class="st1" d="M24.5,9l0.6-0.5c-1.5-1.8-3.7-2.9-6.1-2.9c-4.4,0-8,3.6-8,8h0.8C16.4,13.6,21,12,24.5,9z"/>
			</g>
			<g>
				<path class="st0" d="M19,21.6c-1.1,0-2.1-0.2-3-0.6l0,1.6l3,4.5l3-4.5l0-1.6C21.1,21.4,20.1,21.6,19,21.6z"/>
				<line class="st0" x1="26" y1="32.6" x2="26" y2="39.6"/>
				<line class="st0" x1="12" y1="32.6" x2="12" y2="39.6"/>
				<polygon class="st2" points="21.5,39.1 19,41.6 16.5,39.1 18,27.1 20,27.1 				"/>
				<polygon class="st0" points="16,22.6 15.5,27.1 22.5,27.1 22,22.6 19,27.1 				"/>
				<path class="st0" d="M31,39.2v-9.3c0-2-1.2-3.8-3-4.6l-6-2.7l-3,4.5l-3-4.5l-6,2.7c-1.8,0.8-3,2.6-3,4.6v9.8"/>
			</g>
		</g>
		<circle class="st0" cx="32" cy="45.1" r="4"/>
		<path class="st0" d="M29,50.3l-3.3,6.6c-0.3,0.7,0.2,1.4,0.9,1.4h10.8c0.7,0,1.2-0.8,0.9-1.4L35,50.3"/>
		<g>
			<path class="st0" d="M26.2,43.6H3c-0.6,0-1,0.4-1,1v1c0,0.6,0.4,1,1,1h23.2"/>
			<path class="st0" d="M37.8,46.6H61c0.6,0,1-0.4,1-1v-1c0-0.6-0.4-1-1-1H37.8"/>
		</g>
	</g>
</g>
</svg>
