<?xml version="1.0" encoding="utf-8"?>
<!-- Generator: Adobe Illustrator 21.1.0, SVG Export Plug-In . SVG Version: 6.00 Build 0)  -->
<svg version="1.1" id="Icon_Set" xmlns="http://www.w3.org/2000/svg" xmlns:xlink="http://www.w3.org/1999/xlink" x="0px" y="0px"
	 viewBox="0 0 64 64" style="enable-background:new 0 0 64 64;" xml:space="preserve">
<style type="text/css">
	.st0{fill:none;stroke:#37474F;stroke-linecap:round;stroke-linejoin:round;stroke-miterlimit:10;}
	.st1{fill:#FFB300;stroke:#37474F;stroke-linecap:round;stroke-linejoin:round;stroke-miterlimit:10;}
	.st2{fill:#90CAF9;stroke:#37474F;stroke-linecap:round;stroke-linejoin:round;stroke-miterlimit:10;}
	.st3{fill:#FFFFFF;stroke:#37474F;stroke-linecap:round;stroke-linejoin:round;stroke-miterlimit:10;}
	.st4{fill:#FF7043;stroke:#37474F;stroke-linecap:round;stroke-linejoin:round;stroke-miterlimit:10;}
	.st5{fill:#9CCC65;stroke:#37474F;stroke-linecap:round;stroke-linejoin:round;stroke-miterlimit:10;}
	.st6{fill:#37474F;}
	.st7{fill:#37474F;stroke:#37474F;stroke-linecap:round;stroke-linejoin:round;stroke-miterlimit:10;}
	.st8{fill:none;stroke:#37474F;stroke-linecap:square;stroke-linejoin:round;stroke-miterlimit:10;}
</style>
<g id="Resources">
	<g>
		<g>
			<circle class="st2" cx="53.5" cy="14.5" r="10"/>
			<circle class="st2" cx="53.5" cy="14.5" r="7.5"/>
			<polyline class="st0" points="53.5,10 53.5,15.3 56.5,12.8 			"/>
		</g>
		<g>
			<circle class="st5" cx="10.5" cy="49.5" r="10"/>
			<circle class="st5" cx="10.5" cy="49.5" r="7.5"/>
			<path class="st0" d="M12.2,47.2l-3,0c-0.6,0-1,0.5-1,1l0,0.3c0,0.6,0.5,1,1,1l2.5,0c0.6,0,1,0.4,1,1v0.3c0,0.6-0.4,1-1,1l-3,0"/>
			<line class="st0" x1="10.5" y1="45.8" x2="10.5" y2="46.8"/>
			<line class="st0" x1="10.5" y1="52.2" x2="10.5" y2="53.2"/>
		</g>
		<g>
			<line class="st0" x1="13.5" y1="4.5" x2="8.5" y2="4.5"/>
			<line class="st0" x1="6.5" y1="4.5" x2="5.5" y2="4.5"/>
		</g>
		<g>
			<line class="st0" x1="50.5" y1="59.5" x2="55.5" y2="59.5"/>
			<line class="st0" x1="57.5" y1="59.5" x2="58.5" y2="59.5"/>
		</g>
		<path class="st0" d="M42.3,10.3C39.2,8.8,35.7,8,32,8C18.7,8,8,18.7,8,32c0,1.9,0.2,3.8,0.7,5.7"/>
		<path class="st0" d="M21.7,53.7C24.8,55.2,28.3,56,32,56c13.3,0,24-10.7,24-24c0-1.9-0.2-3.8-0.7-5.7"/>
		<g>
			<g>
				<circle class="st0" cx="32" cy="27" r="8"/>
				<path class="st1" d="M37.5,22.4l0.6-0.5C36.7,20.1,34.5,19,32,19c-4.4,0-8,3.6-8,8h0.8C29.4,27,34,25.4,37.5,22.4z"/>
			</g>
			<path class="st0" d="M32,35c-1.1,0-2.1-0.2-3-0.6l0,1.6l3,4.5l3-4.5l0-1.6C34.1,34.8,33.1,35,32,35z"/>
			<polygon class="st0" points="29,36 28.5,40.5 35.5,40.5 35,36 32,40.5 			"/>
			<path class="st0" d="M42.1,39.4c-0.3-0.3-0.7-0.5-1.1-0.7L35,36l-3,4.5L29,36l-6,2.7c-0.4,0.2-0.8,0.4-1.1,0.7"/>
			<line class="st2" x1="32" y1="40.5" x2="32" y2="53"/>
			<path class="st0" d="M44,49.1v-5.9c0-2-1.2-3.8-3-4.6L35,36l-3,4.5L29,36l-6,2.7c-1.5,0.7-2.6,2-2.9,3.6"/>
		</g>
	</g>
</g>
</svg>
