<?xml version="1.0" encoding="utf-8"?>
<!-- Generator: Adobe Illustrator 21.1.0, SVG Export Plug-In . SVG Version: 6.00 Build 0)  -->
<svg version="1.1" id="Icon_Set" xmlns="http://www.w3.org/2000/svg" xmlns:xlink="http://www.w3.org/1999/xlink" x="0px" y="0px"
	 viewBox="0 0 64 64" style="enable-background:new 0 0 64 64;" xml:space="preserve">
<style type="text/css">
	.st0{fill:none;stroke:#37474F;stroke-linecap:round;stroke-linejoin:round;stroke-miterlimit:10;}
	.st1{fill:#FFB300;stroke:#37474F;stroke-linecap:round;stroke-linejoin:round;stroke-miterlimit:10;}
	.st2{fill:#90CAF9;stroke:#37474F;stroke-linecap:round;stroke-linejoin:round;stroke-miterlimit:10;}
	.st3{fill:#FFFFFF;stroke:#37474F;stroke-linecap:round;stroke-linejoin:round;stroke-miterlimit:10;}
	.st4{fill:#FF7043;stroke:#37474F;stroke-linecap:round;stroke-linejoin:round;stroke-miterlimit:10;}
	.st5{fill:#9CCC65;stroke:#37474F;stroke-linecap:round;stroke-linejoin:round;stroke-miterlimit:10;}
	.st6{fill:#37474F;}
	.st7{fill:#37474F;stroke:#37474F;stroke-linecap:round;stroke-linejoin:round;stroke-miterlimit:10;}
	.st8{fill:none;stroke:#37474F;stroke-linecap:square;stroke-linejoin:round;stroke-miterlimit:10;}
</style>
<g id="Business_Settings">
	<g>
		<path class="st5" d="M56.5,26.7l-0.3-0.2c0.1-0.5,0.2-1,0.2-1.5s-0.1-1-0.2-1.5l0.3-0.2l0.7-0.6c0.4-0.3,0.4-0.8,0.2-1.3L56.5,20
			c-0.2-0.4-0.7-0.6-1.2-0.4l-0.9,0.3L54.2,20c-0.7-0.7-1.6-1.2-2.5-1.5v-0.3l-0.2-0.9c-0.1-0.5-0.5-0.8-1-0.8h-1.8
			c-0.5,0-0.9,0.3-1,0.8l-0.2,0.9v0.3c-1,0.3-1.8,0.8-2.5,1.5l-0.3-0.2l-0.9-0.3c-0.5-0.2-0.9,0-1.2,0.4l-0.9,1.5
			c-0.2,0.4-0.2,0.9,0.2,1.3l0.7,0.6l0.3,0.2c-0.1,0.5-0.2,1-0.2,1.5s0.1,1,0.2,1.5l-0.3,0.2L42,27.3c-0.4,0.3-0.4,0.8-0.2,1.3
			l0.9,1.5c0.2,0.4,0.7,0.6,1.2,0.4l0.9-0.3L45,30c0.7,0.7,1.6,1.2,2.5,1.5v0.3l0.2,0.9c0.1,0.5,0.5,0.8,1,0.8h1.8
			c0.5,0,0.9-0.3,1-0.8l0.2-0.9v-0.3c1-0.3,1.8-0.8,2.5-1.5l0.3,0.2l0.9,0.3c0.5,0.2,0.9,0,1.2-0.4l0.9-1.5c0.2-0.4,0.2-0.9-0.2-1.3
			L56.5,26.7z M49.6,29.1c-2.2,0-4.1-1.8-4.1-4.1s1.8-4.1,4.1-4.1s4.1,1.8,4.1,4.1S51.8,29.1,49.6,29.1z"/>
		<path class="st4" d="M62.5,43.7l-0.3-0.2c0.1-0.5,0.2-1,0.2-1.5c0-0.5-0.1-1-0.2-1.5l0.3-0.2l0.7-0.6c0.4-0.3,0.4-0.8,0.2-1.3
			L62.5,37c-0.2-0.4-0.7-0.6-1.2-0.4l-0.9,0.3L60.2,37c-0.7-0.7-1.6-1.2-2.5-1.5v-0.3l-0.2-0.9c-0.1-0.5-0.5-0.8-1-0.8h-1.8
			c-0.5,0-0.9,0.3-1,0.8l-0.2,0.9v0.3c-1,0.3-1.8,0.8-2.5,1.5l-0.3-0.2l-0.9-0.3c-0.5-0.2-0.9,0-1.2,0.4l-0.9,1.5
			c-0.2,0.4-0.2,0.9,0.2,1.3l0.7,0.6l0.3,0.2c-0.1,0.5-0.2,1-0.2,1.5c0,0.5,0.1,1,0.2,1.5l-0.3,0.2L48,44.3
			c-0.4,0.3-0.4,0.8-0.2,1.3l0.9,1.5c0.2,0.4,0.7,0.6,1.2,0.4l0.9-0.3L51,47c0.7,0.7,1.6,1.2,2.5,1.5v0.3l0.2,0.9
			c0.1,0.5,0.5,0.8,1,0.8h1.8c0.5,0,0.9-0.3,1-0.8l0.2-0.9v-0.3c1-0.3,1.8-0.8,2.5-1.5l0.3,0.2l0.9,0.3c0.5,0.2,0.9,0,1.2-0.4
			l0.9-1.5c0.2-0.4,0.2-0.9-0.2-1.3L62.5,43.7z M55.6,46.1c-2.2,0-4.1-1.8-4.1-4.1c0-2.2,1.8-4.1,4.1-4.1s4.1,1.8,4.1,4.1
			C59.7,44.3,57.8,46.1,55.6,46.1z"/>
		<g>
			<line class="st0" x1="8.5" y1="35" x2="3.5" y2="35"/>
			<line class="st0" x1="1.5" y1="35" x2="0.5" y2="35"/>
		</g>
		<g>
			<line class="st0" x1="18" y1="3" x2="23" y2="3"/>
			<line class="st0" x1="25" y1="3" x2="26" y2="3"/>
		</g>
		<g>
			<g>
				<path class="st0" d="M34,22.5c-0.1,0-0.2,0-0.3,0C32.6,17.6,28.2,14,23,14s-9.6,3.6-10.7,8.5c-0.1,0-0.2,0-0.3,0
					c-1.4,0-2.5,1.1-2.5,2.5s1.1,2.5,2.5,2.5c0.1,0,0.2,0,0.3,0C13.4,32.4,17.8,36,23,36s9.6-3.6,10.7-8.5c0.1,0,0.2,0,0.3,0
					c1.4,0,2.5-1.1,2.5-2.5S35.4,22.5,34,22.5z"/>
				<path class="st1" d="M13,24h-0.5v-6.5h3v4C15.5,22.9,14.4,24,13,24z"/>
				<path class="st1" d="M30.5,17.4v4.1c0,1.4,1.1,2.5,2.5,2.5h0.5v-7.9C32.7,16.8,31.7,17.3,30.5,17.4z"/>
				<g>
					<circle class="st6" cx="26.5" cy="23.5" r="1"/>
					<circle class="st6" cx="19.5" cy="23.5" r="1"/>
				</g>
				<path class="st0" d="M19.5,28.5c2,2,5.1,2,7.1,0"/>
				<path class="st1" d="M30,17.5H12.5v0c0-4.1,3.4-7.5,7.5-7.5h5.2c2.2,0,4.3-0.5,6.3-1.4L35,7v5.5C35,15.3,32.8,17.5,30,17.5z"/>
			</g>
			<g>
				<polygon class="st2" points="25.5,58.1 23,61 20.5,58.1 22,43 24,43 				"/>
				<line class="st0" x1="13" y1="61" x2="13" y2="51"/>
				<line class="st0" x1="33" y1="61" x2="33" y2="51"/>
				<g>
					<path class="st0" d="M19,37l-9.5,4.1C6.8,42.2,5,44.9,5,47.9V61"/>
					<path class="st0" d="M27,37l9.5,4.1c2.8,1.2,4.5,3.9,4.5,6.9V53h10v8H38c-2.8,0-5-2.2-5-5v-3"/>
				</g>
				<g>
					<polygon class="st0" points="16.9,43 21,40 19,37 16.5,38.1 					"/>
					<polygon class="st0" points="29.1,43 25,40 27,37 29.5,38.1 					"/>
				</g>
				<path class="st2" d="M24,43h-2c-0.6,0-1-0.4-1-1v-1c0-0.6,0.4-1,1-1h2c0.6,0,1,0.4,1,1v1C25,42.6,24.6,43,24,43z"/>
				<path class="st0" d="M23,36c-1.4,0-2.8-0.3-4-0.8V37l2.2,3.4c0.2-0.2,0.4-0.4,0.8-0.4h2c0.3,0,0.6,0.1,0.8,0.4L27,37v-1.8
					C25.8,35.7,24.4,36,23,36z"/>
				<path class="st0" d="M53,60h6.4c1.1,0,2.1-0.7,2.4-1.8l1.1-3.9c0.2-0.6-0.3-1.3-1-1.3h-9"/>
				<g>
					<line class="st0" x1="18.5" y1="61" x2="16.5" y2="38.1"/>
					<line class="st0" x1="29.5" y1="38.1" x2="27.5" y2="61"/>
				</g>
			</g>
		</g>
	</g>
</g>
</svg>
