<?xml version="1.0" encoding="utf-8"?>
<!-- Generator: Adobe Illustrator 21.1.0, SVG Export Plug-In . SVG Version: 6.00 Build 0)  -->
<svg version="1.1" id="Icon_Set" xmlns="http://www.w3.org/2000/svg" xmlns:xlink="http://www.w3.org/1999/xlink" x="0px" y="0px"
	 viewBox="0 0 64 64" style="enable-background:new 0 0 64 64;" xml:space="preserve">
<style type="text/css">
	.st0{fill:none;stroke:#37474F;stroke-linecap:round;stroke-linejoin:round;stroke-miterlimit:10;}
	.st1{fill:#FFB300;stroke:#37474F;stroke-linecap:round;stroke-linejoin:round;stroke-miterlimit:10;}
	.st2{fill:#90CAF9;stroke:#37474F;stroke-linecap:round;stroke-linejoin:round;stroke-miterlimit:10;}
	.st3{fill:#FFFFFF;stroke:#37474F;stroke-linecap:round;stroke-linejoin:round;stroke-miterlimit:10;}
	.st4{fill:#FF7043;stroke:#37474F;stroke-linecap:round;stroke-linejoin:round;stroke-miterlimit:10;}
	.st5{fill:#9CCC65;stroke:#37474F;stroke-linecap:round;stroke-linejoin:round;stroke-miterlimit:10;}
	.st6{fill:#37474F;}
	.st7{fill:#37474F;stroke:#37474F;stroke-linecap:round;stroke-linejoin:round;stroke-miterlimit:10;}
	.st8{fill:none;stroke:#37474F;stroke-linecap:square;stroke-linejoin:round;stroke-miterlimit:10;}
</style>
<g id="Gossip">
	<g>
		<g>
			<line class="st0" x1="13.5" y1="23" x2="8.5" y2="23"/>
			<line class="st0" x1="6.5" y1="23" x2="5.5" y2="23"/>
		</g>
		<g>
			<line class="st0" x1="53" y1="13" x2="58" y2="13"/>
			<line class="st0" x1="60" y1="13" x2="61" y2="13"/>
		</g>
		<g>
			<g>
				<circle class="st0" cx="51.5" cy="30" r="8"/>
				<path class="st1" d="M57,25.4l0.6-0.5C56.2,23.1,54,22,51.5,22c-4.4,0-8,3.6-8,8h0.8C48.9,30,53.5,28.4,57,25.4z"/>
			</g>
			<g>
				<path class="st0" d="M51.5,38c-1.1,0-2.1-0.2-3-0.6l0,1.6l3,4.5l3-4.5l0-1.6C53.6,37.8,52.6,38,51.5,38z"/>
				<line class="st0" x1="58.5" y1="49" x2="58.5" y2="61"/>
				<line class="st0" x1="44.5" y1="49" x2="44.5" y2="61"/>
				<polygon class="st0" points="48.5,39 48,43.5 55,43.5 54.5,39 51.5,43.5 				"/>
				<path class="st0" d="M63.5,61V46.3c0-2-1.2-3.8-3-4.6l-6-2.7l-3,4.5l-3-4.5l-6,2.7c-1.8,0.8-3,2.6-3,4.6V61"/>
			</g>
		</g>
		<g>
			<path class="st0" d="M31.9,15.9c1,2.4,3.8,4.1,7.1,4.1c0.6,0,1.2-0.1,1.8-0.2l2.1,1.1c0.5,0.3,1.1-0.1,1.1-0.7v-1.8
				c1.5-1.1,2.5-2.7,2.5-4.5c0-3.3-3.4-6-7.5-6c-0.9,0-1.7,0.1-2.5,0.4"/>
			<circle class="st6" cx="42.5" cy="14" r="1"/>
			<circle class="st6" cx="39" cy="14" r="1"/>
			<circle class="st6" cx="35.5" cy="14" r="1"/>
		</g>
		<g>
			<path class="st5" d="M27,3c-4.1,0-7.5,2.7-7.5,6c0,1.8,1,3.4,2.5,4.5v1.8c0,0.6,0.6,0.9,1.1,0.7l2.1-1.1c0.6,0.1,1.2,0.2,1.8,0.2
				c4.1,0,7.5-2.7,7.5-6C34.5,5.7,31.1,3,27,3z"/>
			<circle class="st6" cx="23.5" cy="9" r="1"/>
			<circle class="st6" cx="27" cy="9" r="1"/>
			<circle class="st6" cx="30.5" cy="9" r="1"/>
		</g>
		<g>
			<g>
				<circle class="st0" cx="24.9" cy="30" r="8"/>
				<path class="st1" d="M30.4,25.4l0.6-0.5c-1.5-1.8-3.7-2.9-6.1-2.9c-4.4,0-8,3.6-8,8h0.8C22.3,30,26.9,28.4,30.4,25.4z"/>
			</g>
			<g>
				<path class="st0" d="M24.9,38c1.1,0,2.1-0.2,3-0.6l0,1.6l-3,4.5l-3-4.5l0-1.6C22.8,37.8,23.8,38,24.9,38z"/>
				<path class="st0" d="M17.9,61l0-13.9l-4.6,4.6c-1,1-2.6,1-3.5,0l-7.1-7.1l3.5-3.5l5.3,5.3l3.7-3.7c0.9-0.9,1.8-1.5,2.9-2
					l3.8-1.7l3,4.5l3-4.5l6,2.7c1.8,0.8,3,2.6,3,4.6V61"/>
				<line class="st0" x1="31.9" y1="49" x2="31.9" y2="61"/>
				<polygon class="st0" points="27.9,39 28.4,43.5 21.4,43.5 21.9,39 24.9,43.5 				"/>
				<path class="st0" d="M1.2,43.2L1.2,43.2c-1-1-1-2.6,0-3.5l0,0c1-1,2.6-1,3.5,0l0,0"/>
			</g>
		</g>
	</g>
</g>
</svg>
