<?xml version="1.0" encoding="utf-8"?>
<!-- Generator: Adobe Illustrator 21.1.0, SVG Export Plug-In . SVG Version: 6.00 Build 0)  -->
<svg version="1.1" id="Icon_Set" xmlns="http://www.w3.org/2000/svg" xmlns:xlink="http://www.w3.org/1999/xlink" x="0px" y="0px"
	 viewBox="0 0 64 64" style="enable-background:new 0 0 64 64;" xml:space="preserve">
<style type="text/css">
	.st0{fill:none;stroke:#37474F;stroke-linecap:round;stroke-linejoin:round;stroke-miterlimit:10;}
	.st1{fill:#FFB300;stroke:#37474F;stroke-linecap:round;stroke-linejoin:round;stroke-miterlimit:10;}
	.st2{fill:#90CAF9;stroke:#37474F;stroke-linecap:round;stroke-linejoin:round;stroke-miterlimit:10;}
	.st3{fill:#FFFFFF;stroke:#37474F;stroke-linecap:round;stroke-linejoin:round;stroke-miterlimit:10;}
	.st4{fill:#FF7043;stroke:#37474F;stroke-linecap:round;stroke-linejoin:round;stroke-miterlimit:10;}
	.st5{fill:#9CCC65;stroke:#37474F;stroke-linecap:round;stroke-linejoin:round;stroke-miterlimit:10;}
	.st6{fill:#37474F;}
	.st7{fill:#37474F;stroke:#37474F;stroke-linecap:round;stroke-linejoin:round;stroke-miterlimit:10;}
	.st8{fill:none;stroke:#37474F;stroke-linecap:square;stroke-linejoin:round;stroke-miterlimit:10;}
</style>
<g id="Wrong_User">
	<g>
		<g>
			<g>
				<path class="st0" d="M35.5,25c-0.1,0-0.2,0-0.3,0c-1.1-4.9-5.5-8.5-10.7-8.5s-9.6,3.6-10.7,8.5c-0.1,0-0.2,0-0.3,0
					c-1.4,0-2.5,1.1-2.5,2.5s1.1,2.5,2.5,2.5c0.1,0,0.2,0,0.3,0c1.1,4.9,5.5,8.5,10.7,8.5s9.6-3.6,10.7-8.5c0.1,0,0.2,0,0.3,0
					c1.4,0,2.5-1.1,2.5-2.5S36.9,25,35.5,25z"/>
				<path class="st1" d="M14.5,26.5H14V20h3v4C17,25.4,15.9,26.5,14.5,26.5z"/>
				<path class="st1" d="M31.5,20H14v0c0-4.1,3.4-7.5,7.5-7.5h5.2c2.2,0,4.3-0.5,6.3-1.4l3.5-1.6V15C36.5,17.8,34.3,20,31.5,20z"/>
				<path class="st1" d="M32,19.9V24c0,1.4,1.1,2.5,2.5,2.5H35v-7.9C34.2,19.3,33.2,19.8,32,19.9z"/>
				<g>
					<circle class="st6" cx="28" cy="26" r="1"/>
					<circle class="st6" cx="21" cy="26" r="1"/>
				</g>
				<path class="st0" d="M28,32c-2-2-5.1-2-7.1,0"/>
			</g>
			<g>
				<line class="st0" x1="14.5" y1="63.5" x2="14.5" y2="53.5"/>
				<line class="st0" x1="14.5" y1="55.5" x2="6.5" y2="55.5"/>
				<line class="st0" x1="42.5" y1="55.5" x2="34.5" y2="55.5"/>
				<line class="st0" x1="14.5" y1="63.5" x2="14.5" y2="53.5"/>
				<path class="st0" d="M42.5,63.5V50.4c0-3-1.8-5.7-4.5-6.9l-9.5-4.1l0,0c-1.9,2.9-6.1,2.9-8,0l0,0L11,43.6
					c-2.8,1.2-4.5,3.9-4.5,6.9v13.1"/>
				<line class="st0" x1="34.5" y1="63.5" x2="34.5" y2="53.5"/>
				<path class="st0" d="M24.5,38.5c-1.4,0-2.8-0.3-4-0.8v1.8l0,0c1.9,2.9,6.1,2.9,8,0l0,0v-1.8C27.3,38.2,25.9,38.5,24.5,38.5z"/>
			</g>
		</g>
		<g>
			<line class="st0" x1="8.5" y1="5.5" x2="3.5" y2="5.5"/>
			<line class="st0" x1="1.5" y1="5.5" x2="0.5" y2="5.5"/>
		</g>
		<g>
			<line class="st0" x1="15.6" y1="0.5" x2="20.6" y2="0.5"/>
			<line class="st0" x1="22.6" y1="0.5" x2="23.6" y2="0.5"/>
		</g>
		<path class="st0" d="M44.5,63.5H46c1.4,0,2.5-1.1,2.5-2.5V35.5c0-1.4-1.1-2.5-2.5-2.5h-9"/>
		<path class="st0" d="M12,33H3c-1.4,0-2.5,1.1-2.5,2.5V61c0,1.4,1.1,2.5,2.5,2.5h1.5"/>
		<g>
			<circle class="st4" cx="53.5" cy="15.5" r="10"/>
			<line class="st0" x1="57" y1="12" x2="50" y2="19"/>
			<line class="st0" x1="57" y1="19" x2="50" y2="12"/>
		</g>
	</g>
</g>
</svg>
