<?xml version="1.0" encoding="utf-8"?>
<!-- Generator: Adobe Illustrator 21.1.0, SVG Export Plug-In . SVG Version: 6.00 Build 0)  -->
<svg version="1.1" id="Icon_Set" xmlns="http://www.w3.org/2000/svg" xmlns:xlink="http://www.w3.org/1999/xlink" x="0px" y="0px"
	 viewBox="0 0 64 64" style="enable-background:new 0 0 64 64;" xml:space="preserve">
<style type="text/css">
	.st0{fill:none;stroke:#37474F;stroke-linecap:round;stroke-linejoin:round;stroke-miterlimit:10;}
	.st1{fill:#FFB300;stroke:#37474F;stroke-linecap:round;stroke-linejoin:round;stroke-miterlimit:10;}
	.st2{fill:#90CAF9;stroke:#37474F;stroke-linecap:round;stroke-linejoin:round;stroke-miterlimit:10;}
	.st3{fill:#FFFFFF;stroke:#37474F;stroke-linecap:round;stroke-linejoin:round;stroke-miterlimit:10;}
	.st4{fill:#FF7043;stroke:#37474F;stroke-linecap:round;stroke-linejoin:round;stroke-miterlimit:10;}
	.st5{fill:#9CCC65;stroke:#37474F;stroke-linecap:round;stroke-linejoin:round;stroke-miterlimit:10;}
	.st6{fill:#37474F;}
	.st7{fill:#37474F;stroke:#37474F;stroke-linecap:round;stroke-linejoin:round;stroke-miterlimit:10;}
	.st8{fill:none;stroke:#37474F;stroke-linecap:square;stroke-linejoin:round;stroke-miterlimit:10;}
</style>
<g id="Partner">
	<g>
		<g>
			<line class="st0" x1="50.5" y1="4" x2="55.5" y2="4"/>
			<line class="st0" x1="57.5" y1="4" x2="58.5" y2="4"/>
		</g>
		<g>
			<line class="st0" x1="13.5" y1="4" x2="8.5" y2="4"/>
			<line class="st0" x1="6.5" y1="4" x2="5.5" y2="4"/>
		</g>
		<g>
			<path class="st0" d="M30.4,26.5c0.6-0.2,1.2-0.1,1.6,0.2v-3.3h-7.5c-1.4,0-2.5,1.1-2.5,2.5v7.5h3.3c-0.2,0.3-0.3,0.6-0.3,1
				c0,1.1,0.9,2,2,2s2-0.9,2-2c0-0.4-0.1-0.7-0.3-1H32v-3.3c-0.3,0.2-0.6,0.3-1,0.3c-1.2,0-2.2-1.1-2-2.3
				C29.1,27.3,29.7,26.7,30.4,26.5z"/>
			<path class="st2" d="M33.6,36.5c-0.6-0.2-1.2-0.1-1.6,0.2v-3.3h-3.3c0.2,0.3,0.3,0.6,0.3,1c0,1.1-0.9,2-2,2s-2-0.9-2-2
				c0-0.4,0.1-0.7,0.3-1H22v7.5c0,1.4,1.1,2.5,2.5,2.5H32v-3.3c0.3,0.2,0.6,0.3,1,0.3c1.2,0,2.2-1.1,2-2.3
				C34.9,37.3,34.3,36.7,33.6,36.5z"/>
			<path class="st0" d="M38.7,33.4c0.2-0.3,0.3-0.6,0.3-1c0-1.1-0.9-2-2-2s-2,0.9-2,2c0,0.4,0.1,0.7,0.3,1H32v3.3
				c0.5-0.3,1-0.4,1.6-0.2c0.7,0.2,1.3,0.8,1.4,1.6c0.2,1.3-0.8,2.3-2,2.3c-0.4,0-0.7-0.1-1-0.3v3.3h7.5c1.4,0,2.5-1.1,2.5-2.5v-7.5
				H38.7z"/>
			<path class="st4" d="M32,23.4v3.3c-0.5-0.3-1-0.4-1.6-0.2c-0.7,0.2-1.3,0.8-1.4,1.6c-0.2,1.3,0.8,2.3,2,2.3c0.4,0,0.7-0.1,1-0.3
				v3.3h3.3c-0.2-0.3-0.3-0.6-0.3-1c0-1.1,0.9-2,2-2s2,0.9,2,2c0,0.4-0.1,0.7-0.3,1H42v-7.5c0-1.4-1.1-2.5-2.5-2.5H32z"/>
		</g>
		<g>
			<line class="st0" x1="28" y1="17" x2="28" y2="13"/>
			<line class="st0" x1="26" y1="15" x2="30" y2="15"/>
		</g>
		<g>
			<line class="st0" x1="36" y1="12" x2="36" y2="8"/>
			<line class="st0" x1="34" y1="10" x2="38" y2="10"/>
		</g>
		<g>
			<g>
				<circle class="st0" cx="10" cy="21" r="8"/>
				<path class="st1" d="M15.5,16.4l0.6-0.5C14.7,14.1,12.5,13,10,13c-4.4,0-8,3.6-8,8h0.8C7.4,21,12,19.4,15.5,16.4z"/>
			</g>
			<g>
				<g>
					<path class="st0" d="M12.3,36.8l4.2,10.1c0.3,0.6,0.7,1.1,1.3,1.3L28,52.4L26,57l-11-4.6c-1.2-0.5-2.2-1.5-2.7-2.7l-4.6-11"/>
				</g>
				<line class="st0" x1="17" y1="60" x2="17" y2="53.3"/>
				<path class="st0" d="M17,47.6V41c0-3.7-2.1-7.1-5.3-8.8L7.5,30l-3.2,3.6C3.5,34.5,3,35.7,3,36.9V60"/>
				<path class="st0" d="M29.8,53.2L29.8,53.2c1.3,0.5,1.9,2,1.4,3.3l0,0c-0.5,1.3-2,1.9-3.3,1.4l0,0"/>
				<path class="st0" d="M10,29c-0.9,0-1.7-0.1-2.5-0.4V30l4.2,2.2c0.2,0.1,0.3,0.2,0.5,0.3h0.3v-3.9C11.7,28.9,10.9,29,10,29z"/>
				<line class="st0" x1="3" y1="56" x2="17" y2="56"/>
			</g>
		</g>
		<g>
			<g>
				<circle class="st0" cx="54" cy="21" r="8"/>
				<path class="st1" d="M48.5,16.4l-0.6-0.5c1.5-1.8,3.7-2.9,6.1-2.9c4.4,0,8,3.6,8,8h-0.8C56.6,21,52,19.4,48.5,16.4z"/>
			</g>
			<g>
				<path class="st0" d="M34.2,53.2L34.2,53.2c-1.3,0.5-1.9,2-1.4,3.3v0c0.5,1.3,2,1.9,3.3,1.4l0,0"/>
				<polyline class="st0" points="44,49.1 36,52.4 38,57 44,54.5 				"/>
				<line class="st0" x1="51.5" y1="60" x2="51.5" y2="38.5"/>
				<line class="st0" x1="56.5" y1="38.5" x2="56.5" y2="60"/>
				<path class="st0" d="M61,60V36.9c0-1.2-0.5-2.4-1.3-3.3L56.5,30l-4.2,2.2C49.1,33.9,47,37.3,47,41v19"/>
				<path class="st0" d="M54,29c0.9,0,1.7-0.1,2.5-0.4V30l-4.2,2.2c-0.2,0.1-0.3,0.2-0.5,0.3h-0.3v-3.9C52.3,28.9,53.1,29,54,29z"/>
				<line class="st0" x1="47" y1="56" x2="49.5" y2="56"/>
				<line class="st0" x1="58.5" y1="56" x2="61" y2="56"/>
			</g>
		</g>
	</g>
</g>
</svg>
