<?xml version="1.0" encoding="utf-8"?>
<!-- Generator: Adobe Illustrator 21.1.0, SVG Export Plug-In . SVG Version: 6.00 Build 0)  -->
<svg version="1.1" id="Icon_Set" xmlns="http://www.w3.org/2000/svg" xmlns:xlink="http://www.w3.org/1999/xlink" x="0px" y="0px"
	 viewBox="0 0 64 64" style="enable-background:new 0 0 64 64;" xml:space="preserve">
<style type="text/css">
	.st0{fill:none;stroke:#37474F;stroke-linecap:round;stroke-linejoin:round;stroke-miterlimit:10;}
	.st1{fill:#FFB300;stroke:#37474F;stroke-linecap:round;stroke-linejoin:round;stroke-miterlimit:10;}
	.st2{fill:#90CAF9;stroke:#37474F;stroke-linecap:round;stroke-linejoin:round;stroke-miterlimit:10;}
	.st3{fill:#FFFFFF;stroke:#37474F;stroke-linecap:round;stroke-linejoin:round;stroke-miterlimit:10;}
	.st4{fill:#FF7043;stroke:#37474F;stroke-linecap:round;stroke-linejoin:round;stroke-miterlimit:10;}
	.st5{fill:#9CCC65;stroke:#37474F;stroke-linecap:round;stroke-linejoin:round;stroke-miterlimit:10;}
	.st6{fill:#37474F;}
	.st7{fill:#37474F;stroke:#37474F;stroke-linecap:round;stroke-linejoin:round;stroke-miterlimit:10;}
	.st8{fill:none;stroke:#37474F;stroke-linecap:square;stroke-linejoin:round;stroke-miterlimit:10;}
</style>
<g id="Exit">
	<g>
		<g>
			<line class="st0" x1="53" y1="8.5" x2="58" y2="8.5"/>
			<line class="st0" x1="60" y1="8.5" x2="61" y2="8.5"/>
		</g>
		<g>
			<line class="st0" x1="18.4" y1="51.5" x2="13.4" y2="51.5"/>
			<line class="st0" x1="11.4" y1="51.5" x2="10.4" y2="51.5"/>
		</g>
		<g>
			<path class="st0" d="M21,59.5H5.5C4.1,59.5,3,58.4,3,57V3c0-1.4,1.1-2.5,2.5-2.5h33C39.9,0.5,41,1.6,41,3v6"/>
		</g>
		<g>
			<g>
				<path class="st4" d="M8.4,12.2C8.2,12.5,8,12.9,8,13.3c0,0.8,0.7,1.5,1.5,1.5h11.3c0.8,0,1.5-0.7,1.5-1.5c0-0.8-0.7-1.5-1.5-1.5
					H9.5C9.1,11.8,8.7,12,8.4,12.2z"/>
			</g>
			<g>
				<path class="st4" d="M14.4,6.9c-0.6,0.6-0.6,1.5,0,2.1l4.2,4.2l-4.2,4.2c-0.6,0.6-0.6,1.5,0,2.1c0.6,0.6,1.5,0.6,2.1,0l5.3-5.3
					c0.6-0.6,0.6-1.5,0-2.1l-5.3-5.3C16,6.4,15,6.4,14.4,6.9z"/>
			</g>
		</g>
		<g>
			<g>
				<ellipse transform="matrix(0.3827 -0.9239 0.9239 0.3827 10.7863 52.117)" class="st0" cx="44.4" cy="18" rx="6" ry="6"/>
				<g>
					<path class="st1" d="M49.6,16.4l0.6-0.2c-0.5-1.6-1.7-3-3.4-3.8c-3.1-1.3-6.6,0.2-7.8,3.2l0.5,0.2
						C42.6,17.2,46.2,17.4,49.6,16.4z"/>
				</g>
			</g>
			<g>
				<path class="st0" d="M32.7,46.2l-5.3,15.2c-0.2,0.5,0.1,1,0.6,1.3l2,0.8c0.5,0.2,1.1,0,1.3-0.5l7-14.5"/>
				<path class="st0" d="M44.3,35.4c0.1,1.9,1.3,3.5,3.1,4.3l7.5,3.1l1.5-3.7l-8.1-3.4l-0.5-6.8c-0.1-1.9-1.3-3.5-3.1-4.3l-7.1-3
					c-0.7-0.3-1.5-0.4-2.3-0.4l-8.1,0.6C25.4,22,23.7,23.2,23,25l-3.1,7.5l3.7,1.5l3.4-8.1l7.9-0.6l-5,12c-1.1,2.6,0.2,5.5,2.7,6.5
					l10.2,4.2l-3.2,10.1c-0.2,0.5,0.1,1,0.6,1.2l2,0.8c0.5,0.2,1.1,0,1.3-0.5l4.9-10.2c1.2-2.6,0.1-5.7-2.6-6.8l-4.3-1.8l2.9-7
					L44.3,35.4z"/>
				<path class="st0" d="M22.8,35.9L22.8,35.9c-0.4,1-1.6,1.5-2.6,1.1h0c-1-0.4-1.5-1.6-1.1-2.6h0"/>
				<path class="st0" d="M58.3,39.9L58.3,39.9c1,0.4,1.5,1.6,1.1,2.6v0c-0.4,1-1.6,1.5-2.6,1.1l0,0"/>
				<line class="st0" x1="41.3" y1="41.1" x2="30.2" y2="36.5"/>
			</g>
		</g>
	</g>
</g>
</svg>
