<?xml version="1.0" encoding="utf-8"?>
<!-- Generator: Adobe Illustrator 21.1.0, SVG Export Plug-In . SVG Version: 6.00 Build 0)  -->
<svg version="1.1" id="Icon_Set" xmlns="http://www.w3.org/2000/svg" xmlns:xlink="http://www.w3.org/1999/xlink" x="0px" y="0px"
	 viewBox="0 0 64 64" style="enable-background:new 0 0 64 64;" xml:space="preserve">
<style type="text/css">
	.st0{fill:none;stroke:#37474F;stroke-linecap:round;stroke-linejoin:round;stroke-miterlimit:10;}
	.st1{fill:#FFB300;stroke:#37474F;stroke-linecap:round;stroke-linejoin:round;stroke-miterlimit:10;}
	.st2{fill:#90CAF9;stroke:#37474F;stroke-linecap:round;stroke-linejoin:round;stroke-miterlimit:10;}
	.st3{fill:#FFFFFF;stroke:#37474F;stroke-linecap:round;stroke-linejoin:round;stroke-miterlimit:10;}
	.st4{fill:#FF7043;stroke:#37474F;stroke-linecap:round;stroke-linejoin:round;stroke-miterlimit:10;}
	.st5{fill:#9CCC65;stroke:#37474F;stroke-linecap:round;stroke-linejoin:round;stroke-miterlimit:10;}
	.st6{fill:#37474F;}
	.st7{fill:#37474F;stroke:#37474F;stroke-linecap:round;stroke-linejoin:round;stroke-miterlimit:10;}
	.st8{fill:none;stroke:#37474F;stroke-linecap:square;stroke-linejoin:round;stroke-miterlimit:10;}
</style>
<g id="Same_Approach">
	<g>
		<g>
			<polyline class="st0" points="13,16.9 13,9.9 21,9.9 21,1.9 			"/>
			<polyline class="st0" points="19,3.9 21,1.9 23,3.9 			"/>
		</g>
		<g>
			<polyline class="st0" points="41,3.9 43,1.9 45,3.9 			"/>
			<polyline class="st0" points="51,16.9 51,9.9 43,9.9 43,1.9 			"/>
		</g>
		<g>
			<polyline class="st0" points="29,4.9 32,1.9 35,4.9 			"/>
			<g>
				<line class="st0" x1="32" y1="8.4" x2="32" y2="6.4"/>
				<line class="st0" x1="32" y1="13.4" x2="32" y2="11.4"/>
				<line class="st0" x1="32" y1="18.4" x2="32" y2="16.4"/>
				<line class="st0" x1="32" y1="23.4" x2="32" y2="21.4"/>
			</g>
		</g>
		<g>
			<g>
				<circle class="st0" cx="32" cy="34.1" r="8"/>
				<path class="st1" d="M37.5,29.5l0.6-0.5c-1.5-1.8-3.7-2.9-6.1-2.9c-4.4,0-8,3.6-8,8h0.8C29.4,34.1,34,32.4,37.5,29.5z"/>
			</g>
			<g>
				<path class="st0" d="M32,42.1c-1.1,0-2.1-0.2-3-0.6l0,1.6l3,4.5l3-4.5l0-1.6C34.1,41.9,33.1,42.1,32,42.1z"/>
				<line class="st0" x1="39" y1="53.1" x2="39" y2="60.1"/>
				<line class="st0" x1="25" y1="53.1" x2="25" y2="60.1"/>
				<polygon class="st2" points="34.5,59.6 32,62.1 29.5,59.6 31,47.6 33,47.6 				"/>
				<polygon class="st0" points="29,43.1 28.5,47.6 35.5,47.6 35,43.1 32,47.6 				"/>
				<path class="st0" d="M44,60.1v-9.8c0-2-1.2-3.8-3-4.6l-6-2.7l-3,4.5l-3-4.5l-6,2.7c-1.8,0.8-3,2.6-3,4.6v9.8"/>
			</g>
		</g>
		<g>
			<g>
				<circle class="st0" cx="13" cy="27.9" r="8"/>
				<path class="st1" d="M18.5,23.3l0.6-0.5c-1.5-1.8-3.7-2.9-6.1-2.9c-4.4,0-8,3.6-8,8h0.8C10.4,27.9,15,26.3,18.5,23.3z"/>
			</g>
			<g>
				<path class="st0" d="M13,35.9c-1.1,0-2.1-0.2-3-0.6l0,1.6l3,4.5l3-4.5l0-1.6C15.1,35.7,14.1,35.9,13,35.9z"/>
				<line class="st0" x1="6" y1="46.9" x2="6" y2="53.9"/>
				<polygon class="st2" points="15.5,53.4 13,55.9 10.5,53.4 12,41.4 14,41.4 				"/>
				<polygon class="st0" points="10,36.9 9.5,41.4 16.5,41.4 16,36.9 13,41.4 				"/>
				<g>
					<path class="st0" d="M24.8,42.8c-0.4-1.4-1.4-2.6-2.8-3.2l-6-2.7l-3,4.5l-3-4.5l-6,2.7c-1.8,0.8-3,2.6-3,4.6v9.8"/>
				</g>
			</g>
		</g>
		<g>
			<g>
				<circle class="st0" cx="51" cy="27.9" r="8"/>
				<path class="st1" d="M56.5,23.3l0.6-0.5c-1.5-1.8-3.7-2.9-6.1-2.9c-4.4,0-8,3.6-8,8h0.8C48.4,27.9,53,26.3,56.5,23.3z"/>
			</g>
			<g>
				<path class="st0" d="M51,35.9c1.1,0,2.1-0.2,3-0.6l0,1.6l-3,4.5l-3-4.5l0-1.6C48.9,35.7,49.9,35.9,51,35.9z"/>
				<line class="st0" x1="58" y1="46.9" x2="58" y2="53.9"/>
				<polygon class="st2" points="48.5,53.4 51,55.9 53.5,53.4 52,41.4 50,41.4 				"/>
				<polygon class="st0" points="54,36.9 54.5,41.4 47.5,41.4 48,36.9 51,41.4 				"/>
				<g>
					<path class="st0" d="M39.2,42.8c0.4-1.4,1.4-2.6,2.8-3.2l6-2.7l3,4.5l3-4.5l6,2.7c1.8,0.8,3,2.6,3,4.6v9.8"/>
				</g>
			</g>
		</g>
	</g>
</g>
</svg>
