<?xml version="1.0" encoding="utf-8"?>
<!-- Generator: Adobe Illustrator 21.1.0, SVG Export Plug-In . SVG Version: 6.00 Build 0)  -->
<svg version="1.1" id="Icon_Set" xmlns="http://www.w3.org/2000/svg" xmlns:xlink="http://www.w3.org/1999/xlink" x="0px" y="0px"
	 viewBox="0 0 64 64" style="enable-background:new 0 0 64 64;" xml:space="preserve">
<style type="text/css">
	.st0{fill:none;stroke:#37474F;stroke-linecap:round;stroke-linejoin:round;stroke-miterlimit:10;}
	.st1{fill:#FFB300;stroke:#37474F;stroke-linecap:round;stroke-linejoin:round;stroke-miterlimit:10;}
	.st2{fill:#90CAF9;stroke:#37474F;stroke-linecap:round;stroke-linejoin:round;stroke-miterlimit:10;}
	.st3{fill:#FFFFFF;stroke:#37474F;stroke-linecap:round;stroke-linejoin:round;stroke-miterlimit:10;}
	.st4{fill:#FF7043;stroke:#37474F;stroke-linecap:round;stroke-linejoin:round;stroke-miterlimit:10;}
	.st5{fill:#9CCC65;stroke:#37474F;stroke-linecap:round;stroke-linejoin:round;stroke-miterlimit:10;}
	.st6{fill:#37474F;}
	.st7{fill:#37474F;stroke:#37474F;stroke-linecap:round;stroke-linejoin:round;stroke-miterlimit:10;}
	.st8{fill:none;stroke:#37474F;stroke-linecap:square;stroke-linejoin:round;stroke-miterlimit:10;}
</style>
<g id="Hard_At_Work">
	<g>
		<g>
			<line class="st0" x1="49" y1="23" x2="54" y2="23"/>
			<line class="st0" x1="56" y1="23" x2="57" y2="23"/>
		</g>
		<g>
			<line class="st0" x1="15" y1="23" x2="10" y2="23"/>
			<line class="st0" x1="8" y1="23" x2="7" y2="23"/>
		</g>
		<g>
			<line class="st0" x1="41.7" y1="42" x2="22.3" y2="42"/>
			<path class="st0" d="M62,63V44.5c0-1.4-1.1-2.5-2.5-2.5h-2.7"/>
			<path class="st0" d="M7.2,42H4.5C3.1,42,2,43.1,2,44.5V63"/>
		</g>
		<path class="st2" d="M41,63V53h-4.5c-1.4,0-2.5-1.1-2.5-2.5v-3c0-0.6,0.2-1.1,0.5-1.5h-5c0.3,0.4,0.5,0.9,0.5,1.5v3
			c0,1.4-1.1,2.5-2.5,2.5H23v10"/>
		<g>
			<g>
				<g>
					<rect x="13.4" y="9" transform="matrix(0.866 -0.5 0.5 0.866 -3.1463 10.3146)" class="st4" width="8.5" height="4"/>
				</g>
				<g>
					<rect x="15.7" y="3.3" transform="matrix(0.5 -0.866 0.866 0.5 2.3174 19.0704)" class="st4" width="4" height="8.5"/>
				</g>
				<path class="st0" d="M43,14.5c-0.1,0-0.2,0-0.3,0C41.6,9.6,37.2,6,32,6s-9.6,3.6-10.7,8.5c-0.1,0-0.2,0-0.3,0
					c-1.4,0-2.5,1.1-2.5,2.5s1.1,2.5,2.5,2.5c0.1,0,0.2,0,0.3,0C22.4,24.4,26.8,28,32,28s9.6-3.6,10.7-8.5c0.1,0,0.2,0,0.3,0
					c1.4,0,2.5-1.1,2.5-2.5S44.4,14.5,43,14.5z"/>
				<path class="st1" d="M22,16h-0.5V9.5h3v4C24.5,14.9,23.4,16,22,16z"/>
				<path class="st1" d="M42.5,9.5h-21l0-1C21.5,4.4,24.9,1,29,1h6c4.1,0,7.5,3.4,7.5,7.5V9.5z"/>
				<path class="st1" d="M42,16h0.5V9.5h-3v4C39.5,14.9,40.6,16,42,16z"/>
				<g>
					<circle class="st6" cx="35.5" cy="20.5" r="1"/>
					<circle class="st6" cx="28.5" cy="20.5" r="1"/>
				</g>
				<path class="st4" d="M20.5,11.2c3.7,1.4,7.6,2.1,11.5,2.1s7.8-0.7,11.5-2.1V6.9l-0.7,0.3c-6.8,2.9-14.7,2.9-21.5,0l-0.7-0.3
					V11.2z"/>
			</g>
			<g>
				<path class="st0" d="M44,52l10-5.9c1.1-0.7,1.6-2,1-3.2l-4.5-9.7c-1-2.1-2.7-3.8-4.8-4.8l-6.6-3.1c-1.6,1.4-3.6,2.3-5.7,2.6
					L32,30l-1.4-2.1c-2.2-0.3-4.2-1.2-5.7-2.6l-6.6,3.1c-2.1,1-3.8,2.7-4.8,4.8L9,42.9c-0.5,1.2-0.1,2.6,1,3.2L20,52"/>
				<path class="st0" d="M22.2,44l-3.8-2.2L21,36 M43,36l2.7,5.8L41.8,44"/>
				<path class="st0" d="M27.3,26.9L26,32l6-2l-1.4-2.1C29.4,27.8,28.3,27.4,27.3,26.9z"/>
				<path class="st0" d="M36.7,26.9c-1,0.5-2.1,0.8-3.3,1L32,30l6,2L36.7,26.9z"/>
				<line class="st0" x1="32" y1="40" x2="32" y2="30"/>
				<path class="st0" d="M27.5,53H22l2-8h3.5c1.4,0,2.5,1.1,2.5,2.5v3C30,51.9,28.9,53,27.5,53z"/>
				<path class="st0" d="M36.5,53H42l-2-8h-3.5c-1.4,0-2.5,1.1-2.5,2.5v3C34,51.9,35.1,53,36.5,53z"/>
				<path class="st2" d="M27.5,45h-2v-5c0-0.6,0.4-1,1-1h0c0.6,0,1,0.4,1,1V45z"/>
			</g>
		</g>
		<line class="st0" x1="27" y1="59" x2="37" y2="59"/>
		<line class="st0" x1="27" y1="56" x2="37" y2="56"/>
	</g>
</g>
</svg>
