<?xml version="1.0" encoding="utf-8"?>
<!-- Generator: Adobe Illustrator 21.1.0, SVG Export Plug-In . SVG Version: 6.00 Build 0)  -->
<svg version="1.1" id="Icon_Set" xmlns="http://www.w3.org/2000/svg" xmlns:xlink="http://www.w3.org/1999/xlink" x="0px" y="0px"
	 viewBox="0 0 64 64" style="enable-background:new 0 0 64 64;" xml:space="preserve">
<style type="text/css">
	.st0{fill:none;stroke:#37474F;stroke-linecap:round;stroke-linejoin:round;stroke-miterlimit:10;}
	.st1{fill:#FFB300;stroke:#37474F;stroke-linecap:round;stroke-linejoin:round;stroke-miterlimit:10;}
	.st2{fill:#90CAF9;stroke:#37474F;stroke-linecap:round;stroke-linejoin:round;stroke-miterlimit:10;}
	.st3{fill:#FFFFFF;stroke:#37474F;stroke-linecap:round;stroke-linejoin:round;stroke-miterlimit:10;}
	.st4{fill:#FF7043;stroke:#37474F;stroke-linecap:round;stroke-linejoin:round;stroke-miterlimit:10;}
	.st5{fill:#9CCC65;stroke:#37474F;stroke-linecap:round;stroke-linejoin:round;stroke-miterlimit:10;}
	.st6{fill:#37474F;}
	.st7{fill:#37474F;stroke:#37474F;stroke-linecap:round;stroke-linejoin:round;stroke-miterlimit:10;}
	.st8{fill:none;stroke:#37474F;stroke-linecap:square;stroke-linejoin:round;stroke-miterlimit:10;}
</style>
<g id="Stakeholders">
	<g>
		<g>
			<circle class="st0" cx="32" cy="32" r="24"/>
			<circle class="st2" cx="19" cy="10" r="4"/>
			<circle class="st2" cx="45" cy="10" r="4"/>
			<circle class="st2" cx="45" cy="54" r="4"/>
			<circle class="st2" cx="19" cy="54" r="4"/>
			<circle class="st2" cx="6" cy="32" r="4"/>
			<circle class="st2" cx="58" cy="32" r="4"/>
			<g>
				<line class="st0" x1="36" y1="4" x2="31" y2="4"/>
				<line class="st0" x1="29" y1="4" x2="28" y2="4"/>
			</g>
			<g>
				<line class="st0" x1="28" y1="60" x2="33" y2="60"/>
				<line class="st0" x1="35" y1="60" x2="36" y2="60"/>
			</g>
		</g>
		<g>
			<g>
				<g>
					<circle class="st0" cx="32" cy="22" r="8"/>
					<path class="st1" d="M37.5,17.4l0.6-0.5C36.7,15.1,34.5,14,32,14c-4.4,0-8,3.6-8,8h0.8C29.4,22,34,20.4,37.5,17.4z"/>
				</g>
				<g>
					<path class="st0" d="M32,30c-1.1,0-2.1-0.2-3-0.6l0,1.6l3,4.5l3-4.5l0-1.6C34.1,29.8,33.1,30,32,30z"/>
					<polygon class="st0" points="29,31 28.5,35.5 35.5,35.5 35,31 32,35.5 					"/>
					<path class="st0" d="M29,31l-6,2.7c-1.8,0.8-3,2.6-3,4.6v4.5h24v-4.5c0-2-1.2-3.8-3-4.6L35,31"/>
					<line class="st2" x1="32" y1="35.5" x2="32" y2="42.5"/>
				</g>
			</g>
			<polygon class="st4" points="34.5,47.5 32,50 29.5,47.5 31,35.5 33,35.5 			"/>
		</g>
	</g>
</g>
</svg>
