<?xml version="1.0" encoding="utf-8"?>
<!-- Generator: Adobe Illustrator 21.1.0, SVG Export Plug-In . SVG Version: 6.00 Build 0)  -->
<svg version="1.1" id="Icon_Set" xmlns="http://www.w3.org/2000/svg" xmlns:xlink="http://www.w3.org/1999/xlink" x="0px" y="0px"
	 viewBox="0 0 64 64" style="enable-background:new 0 0 64 64;" xml:space="preserve">
<style type="text/css">
	.st0{fill:none;stroke:#37474F;stroke-linecap:round;stroke-linejoin:round;stroke-miterlimit:10;}
	.st1{fill:#FFB300;stroke:#37474F;stroke-linecap:round;stroke-linejoin:round;stroke-miterlimit:10;}
	.st2{fill:#90CAF9;stroke:#37474F;stroke-linecap:round;stroke-linejoin:round;stroke-miterlimit:10;}
	.st3{fill:#FFFFFF;stroke:#37474F;stroke-linecap:round;stroke-linejoin:round;stroke-miterlimit:10;}
	.st4{fill:#FF7043;stroke:#37474F;stroke-linecap:round;stroke-linejoin:round;stroke-miterlimit:10;}
	.st5{fill:#9CCC65;stroke:#37474F;stroke-linecap:round;stroke-linejoin:round;stroke-miterlimit:10;}
	.st6{fill:#37474F;}
	.st7{fill:#37474F;stroke:#37474F;stroke-linecap:round;stroke-linejoin:round;stroke-miterlimit:10;}
	.st8{fill:none;stroke:#37474F;stroke-linecap:square;stroke-linejoin:round;stroke-miterlimit:10;}
</style>
<g id="Applicants_Screening">
	<g>
		<g>
			<g>
				<circle class="st0" cx="30.5" cy="16.5" r="6"/>
				<path class="st1" d="M34.7,13l0.4-0.4c-1.1-1.3-2.8-2.2-4.6-2.2c-3.3,0-6,2.7-6,6h0.6C28.6,16.5,32,15.3,34.7,13z"/>
			</g>
			<g>
				<line class="st0" x1="30.5" y1="28" x2="30.5" y2="31.5"/>
				<path class="st0" d="M30.5,22.5c-1.1,0-2.1-0.3-3-0.8l0,1.8l3,4.5l3-4.5l0-1.8C32.6,22.2,31.6,22.5,30.5,22.5z"/>
				<path class="st0" d="M27.5,23.5l-4.2,2.1c-1.7,0.8-2.8,2.6-2.8,4.5v4"/>
				<path class="st0" d="M39.9,27.6c-0.5-0.9-1.2-1.6-2.1-2l-4.2-2.1"/>
			</g>
		</g>
		<polyline class="st0" points="24,42.5 24.5,42.5 26.1,42.5 		"/>
		<g>
			<g>
				<circle class="st0" cx="12" cy="26.5" r="6"/>
				<path class="st1" d="M16.2,23l0.4-0.4c-1.1-1.3-2.8-2.2-4.6-2.2c-3.3,0-6,2.7-6,6h0.6C10.1,26.5,13.5,25.3,16.2,23z"/>
			</g>
			<g>
				<path class="st0" d="M12,32.5c-1.1,0-2.1-0.3-3-0.8l0,1.8l3,4.5l3-4.5l0-1.8C14.1,32.2,13.1,32.5,12,32.5z"/>
				<path class="st0" d="M9,33.5l-4.2,2.1C3.1,36.5,2,38.2,2,40.1V50c0,1.4,1.1,2.5,2.5,2.5H6h12h1.5c1.4,0,2.5-1.1,2.5-2.5v-9.9
					c0-1.9-1.1-3.6-2.8-4.5L15,33.5"/>
				<line class="st0" x1="12" y1="38" x2="12" y2="42"/>
				<polyline class="st0" points="18,42.5 18,52.5 6,52.5 6,42.5 				"/>
			</g>
		</g>
		<g>
			<g>
				<circle class="st0" cx="49" cy="6.5" r="6"/>
				<path class="st1" d="M53.2,3l0.4-0.4c-1.1-1.3-2.8-2.2-4.6-2.2c-3.3,0-6,2.7-6,6h0.6C47.1,6.5,50.5,5.3,53.2,3z"/>
			</g>
			<g>
				<path class="st0" d="M46,13.5l-4.2,2.1c-1.7,0.8-2.8,2.6-2.8,4.5v4"/>
				<path class="st0" d="M50.7,32.5H55h1.5c1.4,0,2.5-1.1,2.5-2.5v-9.9c0-1.9-1.1-3.6-2.8-4.5L52,13.5"/>
				<path class="st0" d="M49,12.5c-1.1,0-2.1-0.3-3-0.8l0,1.8l3,4.5l3-4.5l0-1.8C51.1,12.2,50.1,12.5,49,12.5z"/>
				<line class="st0" x1="49" y1="18" x2="49" y2="22"/>
			</g>
		</g>
		<g>
			<g>
				<path class="st0" d="M48.6,50.1c-0.5,0.5-1,0.9-1.5,1.3l3.7,3.7l2.8-2.8l-3.7-3.7C49.5,49.1,49.1,49.6,48.6,50.1z"/>
				<path class="st2" d="M48.6,33.2c-4.7-4.7-12.3-4.7-17,0s-4.7,12.3,0,17c4.7,4.7,12.3,4.7,17,0C53.3,45.4,53.3,37.8,48.6,33.2z
					 M46.5,48c-3.5,3.5-9.2,3.5-12.7,0s-3.5-9.2,0-12.7c3.5-3.5,9.2-3.5,12.7,0C50,38.8,50,44.5,46.5,48z"/>
				<path class="st0" d="M53.2,52.6l-2.1,2.1c-0.4,0.4-0.4,1,0,1.4l7.1,7.1c0.4,0.4,1,0.4,1.4,0l2.1-2.1c0.4-0.4,0.4-1,0-1.4
					l-7.1-7.1C54.2,52.2,53.6,52.2,53.2,52.6z"/>
			</g>
			<g>
				<path class="st0" d="M37.1,39.1c0-1.7,1.3-3,3-3c1.7,0,3,1.3,3,3c0,1.7-1.3,3-3,3v1.5"/>
				<circle class="st6" cx="40.1" cy="46.4" r="0.8"/>
			</g>
		</g>
		<g>
			<line class="st0" x1="15" y1="13.5" x2="10" y2="13.5"/>
			<line class="st0" x1="8" y1="13.5" x2="7" y2="13.5"/>
		</g>
		<g>
			<line class="st0" x1="27" y1="3.5" x2="32" y2="3.5"/>
			<line class="st0" x1="34" y1="3.5" x2="35" y2="3.5"/>
		</g>
	</g>
</g>
</svg>
