<?xml version="1.0" encoding="utf-8"?>
<!-- Generator: Adobe Illustrator 21.1.0, SVG Export Plug-In . SVG Version: 6.00 Build 0)  -->
<svg version="1.1" id="Icon_Set" xmlns="http://www.w3.org/2000/svg" xmlns:xlink="http://www.w3.org/1999/xlink" x="0px" y="0px"
	 viewBox="0 0 64 64" style="enable-background:new 0 0 64 64;" xml:space="preserve">
<style type="text/css">
	.st0{fill:none;stroke:#37474F;stroke-linecap:round;stroke-linejoin:round;stroke-miterlimit:10;}
	.st1{fill:#FFB300;stroke:#37474F;stroke-linecap:round;stroke-linejoin:round;stroke-miterlimit:10;}
	.st2{fill:#90CAF9;stroke:#37474F;stroke-linecap:round;stroke-linejoin:round;stroke-miterlimit:10;}
	.st3{fill:#FFFFFF;stroke:#37474F;stroke-linecap:round;stroke-linejoin:round;stroke-miterlimit:10;}
	.st4{fill:#FF7043;stroke:#37474F;stroke-linecap:round;stroke-linejoin:round;stroke-miterlimit:10;}
	.st5{fill:#9CCC65;stroke:#37474F;stroke-linecap:round;stroke-linejoin:round;stroke-miterlimit:10;}
	.st6{fill:#37474F;}
	.st7{fill:#37474F;stroke:#37474F;stroke-linecap:round;stroke-linejoin:round;stroke-miterlimit:10;}
	.st8{fill:none;stroke:#37474F;stroke-linecap:square;stroke-linejoin:round;stroke-miterlimit:10;}
</style>
<g id="Networking">
	<g>
		<g>
			<g>
				<line class="st0" x1="45.5" y1="32" x2="58" y2="32"/>
				<line class="st0" x1="25.1" y1="43.6" x2="19" y2="54"/>
				<line class="st0" x1="45" y1="10" x2="38.9" y2="20.4"/>
				<line class="st0" x1="38.9" y1="43.6" x2="45" y2="54"/>
				<line class="st0" x1="19" y1="10" x2="25.1" y2="20.4"/>
				<polygon class="st0" points="45,10 19,10 6,32 19,54 45,54 58,32 				"/>
				<line class="st0" x1="6" y1="32" x2="18.5" y2="32"/>
			</g>
			<circle class="st5" cx="19" cy="10" r="4"/>
			<circle class="st5" cx="45" cy="10" r="4"/>
			<circle class="st5" cx="45" cy="54" r="4"/>
			<circle class="st5" cx="19" cy="54" r="4"/>
			<circle class="st5" cx="6" cy="32" r="4"/>
			<circle class="st5" cx="58" cy="32" r="4"/>
		</g>
		<g>
			<line class="st0" x1="36" y1="4" x2="31" y2="4"/>
			<line class="st0" x1="29" y1="4" x2="28" y2="4"/>
		</g>
		<g>
			<line class="st0" x1="28" y1="60" x2="33" y2="60"/>
			<line class="st0" x1="35" y1="60" x2="36" y2="60"/>
		</g>
		<g>
			<g>
				<circle class="st0" cx="32" cy="28.5" r="6"/>
				<path class="st1" d="M36.2,25l0.4-0.4c-1.1-1.3-2.8-2.2-4.6-2.2c-3.3,0-6,2.7-6,6h0.6C30.1,28.5,33.5,27.3,36.2,25z"/>
			</g>
			<path class="st0" d="M32,34.5c-1.1,0-2.1-0.3-3-0.8l0,1.8l3,3.5l3-3.5l0-1.8C34.1,34.2,33.1,34.5,32,34.5z"/>
			<circle class="st0" cx="32" cy="32" r="13.5"/>
			<path class="st0" d="M23,39.1c0.5-0.6,1.1-1.1,1.8-1.5l4.2-2.1l3,3.5l3-3.5l4.2,2.1c0.7,0.4,1.3,0.9,1.8,1.5"/>
			<line class="st0" x1="32" y1="43.5" x2="32" y2="39"/>
		</g>
	</g>
</g>
</svg>
