<?xml version="1.0" encoding="utf-8"?>
<!-- Generator: Adobe Illustrator 21.1.0, SVG Export Plug-In . SVG Version: 6.00 Build 0)  -->
<svg version="1.1" id="Icon_Set" xmlns="http://www.w3.org/2000/svg" xmlns:xlink="http://www.w3.org/1999/xlink" x="0px" y="0px"
	 viewBox="0 0 64 64" style="enable-background:new 0 0 64 64;" xml:space="preserve">
<style type="text/css">
	.st0{fill:none;stroke:#37474F;stroke-linecap:round;stroke-linejoin:round;stroke-miterlimit:10;}
	.st1{fill:#FFB300;stroke:#37474F;stroke-linecap:round;stroke-linejoin:round;stroke-miterlimit:10;}
	.st2{fill:#90CAF9;stroke:#37474F;stroke-linecap:round;stroke-linejoin:round;stroke-miterlimit:10;}
	.st3{fill:#FFFFFF;stroke:#37474F;stroke-linecap:round;stroke-linejoin:round;stroke-miterlimit:10;}
	.st4{fill:#FF7043;stroke:#37474F;stroke-linecap:round;stroke-linejoin:round;stroke-miterlimit:10;}
	.st5{fill:#9CCC65;stroke:#37474F;stroke-linecap:round;stroke-linejoin:round;stroke-miterlimit:10;}
	.st6{fill:#37474F;}
	.st7{fill:#37474F;stroke:#37474F;stroke-linecap:round;stroke-linejoin:round;stroke-miterlimit:10;}
	.st8{fill:none;stroke:#37474F;stroke-linecap:square;stroke-linejoin:round;stroke-miterlimit:10;}
</style>
<g id="Announce">
	<g>
		<g>
			<line class="st0" x1="50.5" y1="50" x2="55.5" y2="50"/>
			<line class="st0" x1="57.5" y1="50" x2="58.5" y2="50"/>
		</g>
		<g>
			<line class="st0" x1="8.5" y1="33" x2="3.5" y2="33"/>
			<line class="st0" x1="1.5" y1="33" x2="0.5" y2="33"/>
		</g>
		<g>
			<g>
				<path class="st0" d="M35.5,32.8v1.7c0,1.4,1.1,2.5,2.5,2.5"/>
				<g>
					<line class="st0" x1="10.5" y1="59" x2="10.5" y2="49"/>
					<line class="st0" x1="30.5" y1="59" x2="30.5" y2="48.5"/>
					<line class="st0" x1="20.5" y1="59" x2="20.5" y2="41"/>
					<path class="st0" d="M36.5,43.5V39h8v7.9c0,3.6-3.7,6-7,4.6l-7-3"/>
					<path class="st0" d="M36.5,40.1l-12-5.1l-4,6l-4-6L7,39.1c-2.8,1.2-4.5,3.9-4.5,6.9V59"/>
					<polygon class="st2" points="23,56.1 20.5,59 18,56.1 19.5,41 21.5,41 					"/>
					<g>
						<polygon class="st0" points="14.4,41 18.5,38 16.5,35 14,36.1 						"/>
						<polygon class="st0" points="26.6,41 22.5,38 24.5,35 27,36.1 						"/>
					</g>
					<path class="st2" d="M21.5,41h-2c-0.6,0-1-0.4-1-1v-1c0-0.6,0.4-1,1-1h2c0.6,0,1,0.4,1,1v1C22.5,40.6,22.1,41,21.5,41z"/>
					<path class="st0" d="M20.5,34c-1.4,0-2.8-0.3-4-0.8V35l2.2,3.4c0.2-0.2,0.4-0.4,0.8-0.4h2c0.3,0,0.6,0.1,0.8,0.4l2.2-3.4v-1.8
						C23.3,33.7,21.9,34,20.5,34z"/>
				</g>
				<path class="st0" d="M43,37c1.2,0,2.2-0.8,2.4-1.9"/>
			</g>
			<g>
				<path class="st0" d="M31.1,20.2c-1.1-4.2-4.7-7.5-9-8.1c-5.9-0.9-11.1,3-12.4,8.4c-0.1,0-0.2,0-0.3,0C8.1,20.5,7,21.6,7,23
					c0,1.4,1.1,2.5,2.5,2.5c0.1,0,0.2,0,0.3,0c1.1,4.9,5.5,8.5,10.7,8.5c2.6,0,5-0.9,6.8-2.4"/>
				<g>
					<circle class="st6" cx="26" cy="20.5" r="1"/>
					<circle class="st6" cx="19" cy="20.5" r="1"/>
				</g>
				<path class="st1" d="M10.5,22H10v-6.5h3v4C13,20.9,11.9,22,10.5,22z"/>
				<path class="st1" d="M27.5,15.5H10v0c0-4.1,3.4-7.5,7.5-7.5h6c3,0,5.9-0.9,8.3-2.5L32.5,5v5.5C32.5,13.3,30.3,15.5,27.5,15.5z"
					/>
				<circle class="st0" cx="22.5" cy="27" r="2.5"/>
			</g>
		</g>
		<g>
			<g>
				<line class="st0" x1="57.5" y1="26.7" x2="63.5" y2="26.7"/>
				<line class="st0" x1="56.2" y1="31.7" x2="59.8" y2="35.3"/>
				<line class="st0" x1="56.2" y1="21.7" x2="59.8" y2="18.2"/>
			</g>
			<g>
				<path class="st4" d="M29,30.2v-7c0-0.6,0.4-1,1-1h10c0.3,0,0.6-0.1,0.9-0.2l10.2-3.8c0.7-0.2,1.4,0.2,1.4,0.9v15.1
					c0,0.7-0.7,1.2-1.4,0.9l-10.2-3.8c-0.3-0.1-0.6-0.2-0.9-0.2H30C29.4,31.2,29,30.8,29,30.2z"/>
				<line class="st0" x1="49.5" y1="34.6" x2="49.5" y2="18.9"/>
				<line class="st4" x1="40" y1="22.2" x2="40" y2="31.2"/>
			</g>
		</g>
	</g>
</g>
</svg>
