<?xml version="1.0" encoding="utf-8"?>
<!-- Generator: Adobe Illustrator 21.1.0, SVG Export Plug-In . SVG Version: 6.00 Build 0)  -->
<svg version="1.1" id="Icon_Set" xmlns="http://www.w3.org/2000/svg" xmlns:xlink="http://www.w3.org/1999/xlink" x="0px" y="0px"
	 viewBox="0 0 64 64" style="enable-background:new 0 0 64 64;" xml:space="preserve">
<style type="text/css">
	.st0{fill:none;stroke:#37474F;stroke-linecap:round;stroke-linejoin:round;stroke-miterlimit:10;}
	.st1{fill:#FFB300;stroke:#37474F;stroke-linecap:round;stroke-linejoin:round;stroke-miterlimit:10;}
	.st2{fill:#90CAF9;stroke:#37474F;stroke-linecap:round;stroke-linejoin:round;stroke-miterlimit:10;}
	.st3{fill:#FFFFFF;stroke:#37474F;stroke-linecap:round;stroke-linejoin:round;stroke-miterlimit:10;}
	.st4{fill:#FF7043;stroke:#37474F;stroke-linecap:round;stroke-linejoin:round;stroke-miterlimit:10;}
	.st5{fill:#9CCC65;stroke:#37474F;stroke-linecap:round;stroke-linejoin:round;stroke-miterlimit:10;}
	.st6{fill:#37474F;}
	.st7{fill:#37474F;stroke:#37474F;stroke-linecap:round;stroke-linejoin:round;stroke-miterlimit:10;}
	.st8{fill:none;stroke:#37474F;stroke-linecap:square;stroke-linejoin:round;stroke-miterlimit:10;}
</style>
<g id="Resume">
	<g>
		<path class="st0" d="M11,2.5L11,2.5c0-1.1,0.9-2,2-2h0c1.1,0,2,0.9,2,2v8c0,1.1-0.9,2-2,2h0c-1.1,0-2-0.9-2-2v-3c0-0.6,0.4-1,1-1
			h0c0.6,0,1,0.4,1,1v3"/>
		<g>
			<path class="st0" d="M48,50.5V54c0,1.4-1.1,2.5-2.5,2.5H42"/>
			<path class="st0" d="M26.6,61H12.5c-1.4,0-2.5-1.1-2.5-2.5l0,0"/>
			<path class="st0" d="M52.5,46v12.5c0,1.4-1.1,2.5-2.5,2.5H37.5"/>
			<path class="st0" d="M50,9L50,9c1.4,0,2.5,1.1,2.5,2.5v20.6"/>
			<path class="st0" d="M28.1,56.5H8.5C7.1,56.5,6,55.4,6,54V7c0-1.4,1.1-2.5,2.5-2.5h37C46.9,4.5,48,5.6,48,7v26.5"/>
			<g>
				<path class="st2" d="M42,23.5H32c-0.6,0-1-0.4-1-1v-12c0-0.6,0.4-1,1-1h10c0.6,0,1,0.4,1,1v12C43,23,42.6,23.5,42,23.5z"/>
				<circle class="st3" cx="37" cy="16.5" r="2.7"/>
				<path class="st3" d="M41,23.5h-8v-0.3c0-2.2,1.8-4,4-4h0c2.2,0,4,1.8,4,4V23.5z"/>
			</g>
			<line class="st0" x1="11" y1="23.5" x2="19" y2="23.5"/>
			<line class="st0" x1="11" y1="15.5" x2="19" y2="15.5"/>
			<line class="st0" x1="11" y1="18.5" x2="27" y2="18.5"/>
			<line class="st0" x1="11" y1="28.5" x2="43" y2="28.5"/>
			<line class="st2" x1="11" y1="33.5" x2="27" y2="33.5"/>
			<line class="st2" x1="11" y1="38.5" x2="27" y2="38.5"/>
			<line class="st2" x1="11" y1="43.5" x2="27" y2="43.5"/>
			<line class="st2" x1="11" y1="48.5" x2="19" y2="48.5"/>
		</g>
		<g>
			<line class="st0" x1="35" y1="0.5" x2="40" y2="0.5"/>
			<line class="st0" x1="42" y1="0.5" x2="43" y2="0.5"/>
		</g>
		<g>
			<line class="st0" x1="56.5" y1="19.5" x2="56.5" y2="24.5"/>
			<line class="st0" x1="56.5" y1="26.5" x2="56.5" y2="27.5"/>
		</g>
		<g>
			<path class="st1" d="M56.6,34.2l0.7,0.7c1,1,1,2.6,0,3.5L37.8,57.8l-4.2-4.2L53,34.2C54,33.2,55.6,33.2,56.6,34.2z"/>
			<polygon class="st0" points="33.6,53.6 37.8,57.8 34.3,61.4 27.9,63.5 30,57.1 			"/>
			<polygon class="st0" points="29.3,59.3 27.9,63.5 32.2,62.1 			"/>
			<line class="st0" x1="49.8" y1="34.5" x2="42.8" y2="41.6"/>
			<line class="st7" x1="57.3" y1="38.4" x2="53" y2="34.2"/>
		</g>
	</g>
</g>
</svg>
