<?xml version="1.0" encoding="utf-8"?>
<!-- Generator: Adobe Illustrator 21.1.0, SVG Export Plug-In . SVG Version: 6.00 Build 0)  -->
<svg version="1.1" id="Icon_Set" xmlns="http://www.w3.org/2000/svg" xmlns:xlink="http://www.w3.org/1999/xlink" x="0px" y="0px"
	 viewBox="0 0 64 64" style="enable-background:new 0 0 64 64;" xml:space="preserve">
<style type="text/css">
	.st0{fill:none;stroke:#37474F;stroke-linecap:round;stroke-linejoin:round;stroke-miterlimit:10;}
	.st1{fill:#FFB300;stroke:#37474F;stroke-linecap:round;stroke-linejoin:round;stroke-miterlimit:10;}
	.st2{fill:#90CAF9;stroke:#37474F;stroke-linecap:round;stroke-linejoin:round;stroke-miterlimit:10;}
	.st3{fill:#FFFFFF;stroke:#37474F;stroke-linecap:round;stroke-linejoin:round;stroke-miterlimit:10;}
	.st4{fill:#FF7043;stroke:#37474F;stroke-linecap:round;stroke-linejoin:round;stroke-miterlimit:10;}
	.st5{fill:#9CCC65;stroke:#37474F;stroke-linecap:round;stroke-linejoin:round;stroke-miterlimit:10;}
	.st6{fill:#37474F;}
	.st7{fill:#37474F;stroke:#37474F;stroke-linecap:round;stroke-linejoin:round;stroke-miterlimit:10;}
	.st8{fill:none;stroke:#37474F;stroke-linecap:square;stroke-linejoin:round;stroke-miterlimit:10;}
</style>
<g id="User_Placeholder">
	<g>
		<g>
			<path class="st0" d="M45.5,25c-0.1,0-0.2,0-0.3,0c-1.1-4.9-5.5-8.5-10.7-8.5s-9.6,3.6-10.7,8.5c-0.1,0-0.2,0-0.3,0
				c-1.4,0-2.5,1.1-2.5,2.5s1.1,2.5,2.5,2.5c0.1,0,0.2,0,0.3,0c1.1,4.9,5.5,8.5,10.7,8.5s9.6-3.6,10.7-8.5c0.1,0,0.2,0,0.3,0
				c1.4,0,2.5-1.1,2.5-2.5S46.9,25,45.5,25z"/>
			<path class="st1" d="M24.5,26.5H24V20h3v4C27,25.4,25.9,26.5,24.5,26.5z"/>
			<path class="st1" d="M41.5,20H24v0c0-4.1,3.4-7.5,7.5-7.5h5.2c2.2,0,4.3-0.5,6.3-1.4l3.5-1.6V15C46.5,17.8,44.3,20,41.5,20z"/>
			<path class="st1" d="M42,19.9V24c0,1.4,1.1,2.5,2.5,2.5H45v-7.9C44.2,19.3,43.2,19.8,42,19.9z"/>
			<g>
				<circle class="st6" cx="38" cy="26" r="1"/>
				<circle class="st6" cx="31" cy="26" r="1"/>
			</g>
			<path class="st0" d="M31,31c2,2,5.1,2,7.1,0"/>
		</g>
		<g>
			<line class="st0" x1="24.5" y1="63.5" x2="24.5" y2="53.5"/>
			<line class="st0" x1="24.5" y1="55.5" x2="16.5" y2="55.5"/>
			<line class="st0" x1="52.5" y1="55.5" x2="44.5" y2="55.5"/>
			<line class="st0" x1="24.5" y1="63.5" x2="24.5" y2="53.5"/>
			<path class="st0" d="M52.5,63.5V50.4c0-3-1.8-5.7-4.5-6.9l-9.5-4.1l0,0c-1.9,2.9-6.1,2.9-8,0l0,0L21,43.6
				c-2.8,1.2-4.5,3.9-4.5,6.9v13.1"/>
			<line class="st0" x1="44.5" y1="63.5" x2="44.5" y2="53.5"/>
			<path class="st0" d="M34.5,38.5c-1.4,0-2.8-0.3-4-0.8v1.8l0,0c1.9,2.9,6.1,2.9,8,0l0,0v-1.8C37.3,38.2,35.9,38.5,34.5,38.5z"/>
		</g>
		<path class="st2" d="M6.6,12.6l6.9,11.7l6.9-11.7c1.9-3.2,1.3-7.2-1.3-9.8c-3.1-3-8-3-11.1,0C5.3,5.3,4.7,9.4,6.6,12.6z M9.5,8.5
			c0-2.2,1.8-4,4-4s4,1.8,4,4s-1.8,4-4,4S9.5,10.7,9.5,8.5z"/>
		<g>
			<g>
				<line class="st0" x1="38.4" y1="5.5" x2="33.4" y2="5.5"/>
				<line class="st0" x1="31.4" y1="5.5" x2="30.4" y2="5.5"/>
			</g>
			<g>
				<line class="st0" x1="45.5" y1="0.5" x2="50.5" y2="0.5"/>
				<line class="st0" x1="52.5" y1="0.5" x2="53.5" y2="0.5"/>
			</g>
		</g>
		<path class="st0" d="M54.5,63.5H56c1.4,0,2.5-1.1,2.5-2.5V35.5c0-1.4-1.1-2.5-2.5-2.5h-9"/>
		<path class="st0" d="M22,33h-9c-1.4,0-2.5,1.1-2.5,2.5V61c0,1.4,1.1,2.5,2.5,2.5h1.5"/>
	</g>
</g>
</svg>
