<?xml version="1.0" encoding="utf-8"?>
<!-- Generator: Adobe Illustrator 17.0.0, SVG Export Plug-In . SVG Version: 6.00 Build 0)  -->
<!DOCTYPE svg PUBLIC "-//W3C//DTD SVG 1.1//EN" "http://www.w3.org/Graphics/SVG/1.1/DTD/svg11.dtd">
<svg version="1.1" xmlns="http://www.w3.org/2000/svg" xmlns:xlink="http://www.w3.org/1999/xlink" x="0px" y="0px" width="512px"
	 height="512px" viewBox="0 0 512 512" enable-background="new 0 0 512 512" xml:space="preserve">
<g id="famous_places">
	<g id="Pyramid">
	</g>
	<g id="Colloseum">
	</g>
	<g id="Mount_Fuji">
	</g>
	<g id="Great_Wall_of_China">
	</g>
	<g id="Stonehenge">
	</g>
	<g id="Golden_Gate_Bridge">
	</g>
	<g id="Christ_the_Redeemer">
	</g>
	<g id="Statue_of_Liberty">
	</g>
	<g id="Taj_Mahal">
	</g>
	<g id="Eiffel_tower">
	</g>
</g>
<g id="camping">
	<g id="mug">
	</g>
	<g id="hook">
	</g>
	<g id="Swiss_knife">
	</g>
	<g id="flashlight">
		<g>
			<path fill="#FF6650" d="M295.248,344.5h9.638c6.864,0,11.188,7.046,7.822,12.749l-7.991,13.54
				c-1.084,1.837-1.419,3.992-0.939,6.05l1.924,8.251c1.246,5.343-3.02,10.41-8.761,10.41l0,0c-4.791,0-8.737-3.587-8.965-8.148
				l-1.693-33.891C286.039,348.583,290.124,344.5,295.248,344.5z"/>
			<path fill="#4A4A4A" d="M285.142,480.645h-59c-7.232,0-13.094-5.862-13.094-13.094V214.645c0-7.232,5.862-13.094,13.094-13.094
				h59c7.232,0,13.094,5.862,13.094,13.094v252.906C298.236,474.783,292.374,480.645,285.142,480.645z"/>
			<rect x="220.998" y="279.551" fill="#5E5E5E" width="11.2" height="188"/>
			<path fill="#333333" d="M298,295.683v-66.037c0-7.232-5.626-11.963-12.858-11.963h-59c-7.231,0-13.142,4.731-13.142,11.963
				v66.037H298z"/>
			<path fill="#333333" d="M300.786,279.552h-90.287c-5.615,0-10.336-4.215-10.969-9.794l-7.491-65.92
				c-0.744-6.549,4.378-12.287,10.969-12.287h105.269c6.591,0,11.714,5.738,10.97,12.287l-7.491,65.92
				C311.121,275.337,306.401,279.552,300.786,279.552z"/>
			<path fill="#333333" d="M318.602,217.552h-125.92c-6.802,0-12.316-5.514-12.316-12.316v-27.369
				c0-6.802,5.514-12.316,12.316-12.316h125.92c6.802,0,12.316,5.514,12.316,12.316v27.369
				C330.918,212.038,325.404,217.552,318.602,217.552z"/>
			<path fill="#4A4A4A" d="M300.786,279.552h-90.287c-5.615,0-10.336-4.215-10.969-9.794l-7.491-65.92
				c-0.744-6.549,4.378-12.287,10.969-12.287h105.269c6.591,0,11.714,5.738,10.97,12.287l-7.491,65.92
				C311.121,275.337,306.401,279.552,300.786,279.552z"/>
			<rect x="215.398" y="217.551" fill="#5E5E5E" width="11.2" height="62"/>
			<path fill="#333333" d="M315.642,236.683l3.604-31.713c0.744-6.549-4.378-12.287-10.969-12.287H203.008
				c-6.591,0-11.714,5.738-10.97,12.287l3.604,31.713H315.642z"/>
			<path fill="#4A4A4A" d="M318.602,217.552h-125.92c-6.802,0-12.316-5.514-12.316-12.316v-27.369
				c0-6.802,5.514-12.316,12.316-12.316h125.92c6.802,0,12.316,5.514,12.316,12.316v27.369
				C330.918,212.038,325.404,217.552,318.602,217.552z"/>
			<path fill="#333333" d="M286.365,398.5v-57c0-4.142,3.358-7.5,7.5-7.5h4.371v72h-4.371
				C289.723,406,286.365,402.642,286.365,398.5z"/>
			<path fill="#4A4A4A" d="M206.457,486.808v-11.486c0-4.292,3.479-7.771,7.771-7.771h82.83c4.292,0,7.771,3.479,7.771,7.771v11.486
				c0,4.292-3.479,7.771-7.771,7.771h-82.83C209.936,494.579,206.457,491.099,206.457,486.808z"/>
			<rect x="213.048" y="455" fill="#333333" width="84.817" height="12.552"/>
			<rect x="210.198" y="165.551" fill="#5E5E5E" width="10.8" height="52"/>
			<rect x="215.998" y="467.552" fill="#5E5E5E" width="11.2" height="27.027"/>
			<polygon fill="#FFD161" points="192.682,165.552 92.682,0 419.318,0 319.318,165.552 			"/>
		</g>
	</g>
	<g id="lantern">
	</g>
	<g id="campfire">
	</g>
	<g id="beanie">
	</g>
	<g id="rope">
	</g>
	<g id="boot">
	</g>
	<g id="axe">
	</g>
</g>
<g id="hotel_1_">
	<g id="towel">
	</g>
	<g id="phone">
	</g>
	<g id="pool">
	</g>
	<g id="food_service">
	</g>
	<g id="wifi">
	</g>
	<g id="bed">
	</g>
	<g id="door">
	</g>
	<g id="key">
	</g>
	<g id="do_not_disturb">
	</g>
	<g id="bell">
	</g>
</g>
<g id="winter">
	<g id="snowman">
	</g>
	<g id="snow_mountain">
	</g>
	<g id="reindeer">
	</g>
	<g id="winter_tree">
	</g>
	<g id="lift">
	</g>
	<g id="beanie__x26__google">
	</g>
	<g id="ski">
	</g>
	<g id="snowboard">
	</g>
	<g id="snowboading">
	</g>
	<g id="skiing">
	</g>
</g>
<g id="general_travelling">
	<g id="dinner_set">
	</g>
	<g id="polaroid">
	</g>
	<g id="camera">
	</g>
	<g id="calendar">
	</g>
	<g id="calendar_single">
	</g>
	<g id="shopping_bag">
	</g>
	<g id="watch">
	</g>
	<g id="alarm_clock">
	</g>
	<g id="credit_card">
	</g>
	<g id="road_sign">
	</g>
	<g id="hotel">
	</g>
	<g id="money">
	</g>
	<g id="sunglass">
	</g>
	<g id="cocktail">
	</g>
	<g id="compass">
	</g>
	<g id="tent">
	</g>
	<g id="backpack">
	</g>
	<g id="map">
	</g>
	<g id="ticket_1_">
	</g>
	<g id="passport">
	</g>
	<g id="luggage">
	</g>
	<g id="globe">
	</g>
	<g id="suitcase">
	</g>
</g>
<g id="vehicles">
	<g id="trailer">
	</g>
	<g id="airplane">
	</g>
	<g id="yatch">
	</g>
	<g id="taxi">
	</g>
	<g id="hot_air_ballon">
	</g>
	<g id="bus">
	</g>
	<g id="train">
	</g>
</g>
<g id="summer">
	<g id="postcard">
	</g>
	<g id="bikini">
	</g>
	<g id="flipflop">
	</g>
	<g id="plane_around_the_globe">
	</g>
	<g id="binocular">
	</g>
	<g id="beach_table">
	</g>
	<g id="sun_hat">
	</g>
	<g id="beach_bag">
	</g>
	<g id="sea__x26__wave">
	</g>
	<g id="beach">
	</g>
	<g id="beach_ball">
	</g>
	<g id="jetski">
	</g>
	<g id="sandcastle">
	</g>
	<g id="lifeguard_male">
	</g>
	<g id="lifeguard_female">
	</g>
	<g id="lighthouse">
	</g>
	<g id="hammok">
	</g>
	<g id="beach_chair__x26__umbrella">
	</g>
	<g id="lifeguard">
	</g>
	<g id="suncream">
	</g>
	<g id="starfish">
	</g>
	<g id="beach_bar">
	</g>
	<g id="bucket__x26__shovel">
	</g>
	<g id="palm_tree">
	</g>
	<g id="shark_warning">
	</g>
	<g id="surfboard">
	</g>
	<g id="swimming_trunks">
	</g>
	<g id="coconut_drink">
	</g>
	<g id="beach_chair__x26__towel">
	</g>
	<g id="coconut_tree">
	</g>
</g>
</svg>
