<?xml version="1.0" encoding="utf-8"?>
<!-- Generator: Adobe Illustrator 17.0.0, SVG Export Plug-In . SVG Version: 6.00 Build 0)  -->
<!DOCTYPE svg PUBLIC "-//W3C//DTD SVG 1.1//EN" "http://www.w3.org/Graphics/SVG/1.1/DTD/svg11.dtd">
<svg version="1.1" xmlns="http://www.w3.org/2000/svg" xmlns:xlink="http://www.w3.org/1999/xlink" x="0px" y="0px" width="512px"
	 height="512px" viewBox="0 0 512 512" enable-background="new 0 0 512 512" xml:space="preserve">
<g id="famous_places">
	<g id="Pyramid">
	</g>
	<g id="Colloseum">
	</g>
	<g id="Mount_Fuji">
	</g>
	<g id="Great_Wall_of_China">
	</g>
	<g id="Stonehenge">
	</g>
	<g id="Golden_Gate_Bridge">
	</g>
	<g id="Christ_the_Redeemer">
	</g>
	<g id="Statue_of_Liberty">
	</g>
	<g id="Taj_Mahal">
	</g>
	<g id="Eiffel_tower">
	</g>
</g>
<g id="camping">
	<g id="mug">
	</g>
	<g id="hook">
	</g>
	<g id="Swiss_knife">
	</g>
	<g id="flashlight">
	</g>
	<g id="lantern">
	</g>
	<g id="campfire">
	</g>
	<g id="beanie">
	</g>
	<g id="rope">
	</g>
	<g id="boot">
	</g>
	<g id="axe">
	</g>
</g>
<g id="hotel_1_">
	<g id="towel">
	</g>
	<g id="phone">
	</g>
	<g id="pool">
		<g>
			<path fill="#E3E3E3" d="M69,401.546v10c1,0,0,0.013,0,0.016v-9.998C69,401.564,70,401.546,69,401.546z"/>
			<path fill="#E3E3E3" d="M69,362.434v10c1,0,0,0.013,0,0.017v-9.998C69,362.453,70,362.434,69,362.434z"/>
			<path fill="#E3E3E3" d="M69,323.322v10c1,0,0,0.013,0,0.013v-9.994C69,323.338,70,323.322,69,323.322z"/>
			<path fill="#E3E3E3" d="M69,284.21v10c1,0,0,0.013,0,0.013v-9.994C69,284.229,70,284.21,69,284.21z"/>
			<rect x="69.952" y="107.325" fill="#E3E3E3" width="372.263" height="19.232"/>
			<path fill="#279685" d="M223.146,47.29C188.511,47.29,159,75.636,159,109.189v0.521v38v143c0,4.143,3.357,7.5,7.5,7.5
				s7.5-3.357,7.5-7.5v-143v-38v-0.521c0-25.422,22.642-46.899,49.146-46.899s49.021,21.692,49.021,47.246
				c0,0.093,0.135,0.378,0.139,0.378h14.972c0.003,0-0.111-0.285-0.111-0.378C287.168,75.85,257.782,47.29,223.146,47.29z"/>
			<g>
				<path fill="#2FB49F" d="M315.5,163.71c4.143,0,7.5,3.459,7.5,7.602s-3.357,7.602-7.5,7.602h-147c-4.143,0-7.5-3.459-7.5-7.602
					s3.357-7.551,7.5-7.551"/>
			</g>
			<g>
				<path fill="#2FB49F" d="M315.5,219.71c4.143,0,7.5,3.459,7.5,7.602s-3.357,7.602-7.5,7.602h-147c-4.143,0-7.5-3.459-7.5-7.602
					s3.357-7.551,7.5-7.551"/>
			</g>
			<g>
				<path fill="#2FB49F" d="M168.5,287.71c-4.143,0-7.5-3.256-7.5-7.398s3.357-7.398,7.5-7.398h147c4.143,0,7.5,3.256,7.5,7.398
					s-3.357,7.449-7.5,7.449"/>
			</g>
			<polygon fill="#E3E3E3" points="442,437.546 442,427.546 442,427.536 442,437.535 			"/>
			<polygon fill="#E3E3E3" points="442,398.434 442,388.434 442,388.424 442,398.423 			"/>
			<polygon fill="#E3E3E3" points="442,359.322 442,349.322 442,349.312 442,359.311 			"/>
			<polygon fill="#E3E3E3" points="442,320.21 442,310.21 442,310.2 442,320.199 			"/>
			<path fill="#38D6BD" d="M372.146,47.29C337.511,47.29,308,75.636,308,109.189v0.521v38v143c0,4.143,3.357,7.5,7.5,7.5
				s7.5-3.357,7.5-7.5v-143v-38v-0.521c0-25.422,22.642-46.899,49.146-46.899s49.021,21.692,49.021,47.246
				c0,0.093,0.135,0.378,0.139,0.378h14.972c0.003,0-0.111-0.285-0.111-0.378C436.168,75.85,406.782,47.29,372.146,47.29z"/>
			<path fill="#4E709C" d="M425.578,416.43c-5.286-6.631-11.81-14.884-24.582-14.884c-12.771,0-19.322,8.253-24.608,14.884
				c-5.493,6.892-9.232,11.116-16.801,11.116c-7.568,0-11.313-4.225-16.806-11.116c-5.285-6.631-11.859-14.884-24.629-14.884
				c-12.771,0-19.346,8.253-24.631,14.884c-5.493,6.892-9.243,11.116-16.812,11.116s-11.318-4.225-16.811-11.116
				c-5.285-6.631-11.862-14.884-24.632-14.884s-19.347,8.253-24.632,14.884c-5.493,6.892-9.243,11.116-16.812,11.116
				c-7.566,0-11.316-4.224-16.809-11.116c-5.284-6.631-11.86-14.884-24.629-14.884c-12.77,0-19.347,8.253-24.632,14.884
				c-5.493,6.892-9.243,11.116-16.812,11.116s-11.794-4.225-17.288-11.116C88.435,409.88,82,401.761,69,401.564v9.998v53.352h373
				v-27.38v-9.999C434,427.429,431,423.232,425.578,416.43z"/>
			<path fill="#5C84B8" d="M425.578,377.318c-5.286-6.631-11.81-14.884-24.582-14.884c-12.771,0-19.322,8.253-24.608,14.884
				c-5.493,6.892-9.232,11.116-16.801,11.116c-7.568,0-11.313-4.225-16.806-11.116c-5.285-6.631-11.859-14.884-24.629-14.884
				c-12.771,0-19.346,8.253-24.631,14.884c-5.493,6.892-9.243,11.116-16.812,11.116s-11.318-4.225-16.811-11.116
				c-5.285-6.631-11.862-14.884-24.632-14.884s-19.347,8.253-24.632,14.884c-5.493,6.892-9.243,11.116-16.812,11.116
				c-7.566,0-11.316-4.224-16.809-11.116c-5.284-6.631-11.86-14.884-24.629-14.884c-12.77,0-19.347,8.253-24.632,14.884
				c-5.493,6.892-9.243,11.116-16.812,11.116s-11.794-4.225-17.288-11.116C88.435,370.768,82,362.649,69,362.453v9.998v29.114
				c13,0.197,19.435,8.315,24.656,14.866c5.493,6.892,9.481,11.116,17.05,11.116s11.437-4.225,16.931-11.116
				c5.285-6.631,11.922-14.884,24.691-14.884c12.769,0,19.375,8.253,24.659,14.884c5.492,6.893,9.257,11.116,16.823,11.116
				c7.568,0,11.326-4.225,16.819-11.116c5.285-6.631,11.866-14.884,24.636-14.884s19.349,8.253,24.634,14.884
				c5.493,6.892,9.244,11.116,16.812,11.116s11.32-4.225,16.813-11.116c5.285-6.631,11.863-14.884,24.633-14.884
				c12.77,0,19.347,8.253,24.632,14.884c5.493,6.892,9.244,11.116,16.813,11.116c7.569,0,11.321-4.225,16.814-11.116
				c5.286-6.631,11.864-14.884,24.635-14.884c12.771,0,19.242,8.253,24.528,14.884C431,423.232,434,427.429,442,427.536v-29.113
				v-9.999C434,388.317,431,384.121,425.578,377.318z"/>
			<path fill="#71A3E3" d="M425.578,338.206c-5.286-6.631-11.81-14.884-24.582-14.884c-12.771,0-19.322,8.253-24.608,14.884
				c-5.493,6.892-9.232,11.116-16.801,11.116c-7.568,0-11.313-4.225-16.806-11.116c-5.285-6.631-11.859-14.884-24.629-14.884
				c-12.771,0-19.346,8.253-24.631,14.884c-5.493,6.892-9.243,11.116-16.812,11.116s-11.318-4.225-16.811-11.116
				c-5.285-6.631-11.862-14.884-24.632-14.884s-19.347,8.253-24.632,14.884c-5.493,6.892-9.243,11.116-16.812,11.116
				c-7.566,0-11.316-4.224-16.809-11.116c-5.284-6.631-11.86-14.884-24.629-14.884c-12.77,0-19.347,8.253-24.632,14.884
				c-5.493,6.892-9.243,11.116-16.812,11.116s-11.794-4.225-17.288-11.116C88.435,331.656,82,323.538,69,323.341v9.998v29.114
				c13,0.197,19.435,8.315,24.656,14.865c5.493,6.892,9.481,11.116,17.05,11.116s11.437-4.225,16.931-11.116
				c5.285-6.631,11.922-14.884,24.691-14.884c12.769,0,19.375,8.253,24.659,14.884c5.492,6.893,9.257,11.116,16.823,11.116
				c7.568,0,11.326-4.225,16.819-11.116c5.285-6.631,11.866-14.884,24.636-14.884s19.349,8.253,24.634,14.884
				c5.493,6.892,9.244,11.116,16.812,11.116s11.32-4.225,16.813-11.116c5.285-6.631,11.863-14.884,24.633-14.884
				c12.77,0,19.347,8.253,24.632,14.884c5.493,6.892,9.244,11.116,16.813,11.116c7.569,0,11.321-4.225,16.814-11.116
				c5.286-6.631,11.864-14.884,24.635-14.884c12.771,0,19.242,8.253,24.528,14.884C431,384.121,434,388.317,442,388.424v-29.113
				v-9.999C434,349.205,431,345.009,425.578,338.206z"/>
			<path fill="#E3E3E3" d="M425.578,299.094c-5.286-6.631-11.81-14.884-24.582-14.884c-12.771,0-19.322,8.253-24.608,14.884
				c-5.493,6.892-9.232,11.116-16.801,11.116c-7.568,0-11.313-4.225-16.806-11.116c-5.285-6.631-11.859-14.884-24.629-14.884
				c-12.771,0-19.346,8.253-24.631,14.884c-5.493,6.892-9.243,11.116-16.812,11.116s-11.318-4.225-16.811-11.116
				c-5.285-6.631-11.862-14.884-24.632-14.884s-19.347,8.253-24.632,14.884c-5.493,6.892-9.243,11.116-16.812,11.116
				c-7.566,0-11.316-4.224-16.809-11.116c-5.284-6.631-11.86-14.884-24.629-14.884c-12.77,0-19.347,8.253-24.632,14.884
				c-5.493,6.892-9.243,11.116-16.812,11.116s-11.794-4.225-17.288-11.116C88.435,292.544,82,284.426,69,284.229v9.998v29.114
				c13,0.197,19.435,8.315,24.656,14.865c5.493,6.892,9.481,11.116,17.05,11.116s11.437-4.225,16.931-11.116
				c5.285-6.631,11.922-14.884,24.691-14.884c12.769,0,19.375,8.253,24.659,14.884c5.492,6.893,9.257,11.116,16.823,11.116
				c7.568,0,11.326-4.225,16.819-11.116c5.285-6.631,11.866-14.884,24.636-14.884s19.349,8.253,24.634,14.884
				c5.493,6.892,9.244,11.116,16.812,11.116s11.32-4.225,16.813-11.116c5.285-6.631,11.863-14.884,24.633-14.884
				c12.77,0,19.347,8.253,24.632,14.884c5.493,6.892,9.244,11.116,16.813,11.116c7.569,0,11.321-4.225,16.814-11.116
				c5.286-6.631,11.864-14.884,24.635-14.884c12.771,0,19.242,8.253,24.528,14.884C431,345.009,434,349.205,442,349.312v-29.113
				V310.2C434,310.093,431,305.897,425.578,299.094z"/>
		</g>
	</g>
	<g id="food_service">
	</g>
	<g id="wifi">
	</g>
	<g id="bed">
	</g>
	<g id="door">
	</g>
	<g id="key">
	</g>
	<g id="do_not_disturb">
	</g>
	<g id="bell">
	</g>
</g>
<g id="winter">
	<g id="snowman">
	</g>
	<g id="snow_mountain">
	</g>
	<g id="reindeer">
	</g>
	<g id="winter_tree">
	</g>
	<g id="lift">
	</g>
	<g id="beanie__x26__google">
	</g>
	<g id="ski">
	</g>
	<g id="snowboard">
	</g>
	<g id="snowboading">
	</g>
	<g id="skiing">
	</g>
</g>
<g id="general_travelling">
	<g id="dinner_set">
	</g>
	<g id="polaroid">
	</g>
	<g id="camera">
	</g>
	<g id="calendar">
	</g>
	<g id="calendar_single">
	</g>
	<g id="shopping_bag">
	</g>
	<g id="watch">
	</g>
	<g id="alarm_clock">
	</g>
	<g id="credit_card">
	</g>
	<g id="road_sign">
	</g>
	<g id="hotel">
	</g>
	<g id="money">
	</g>
	<g id="sunglass">
	</g>
	<g id="cocktail">
	</g>
	<g id="compass">
	</g>
	<g id="tent">
	</g>
	<g id="backpack">
	</g>
	<g id="map">
	</g>
	<g id="ticket_1_">
	</g>
	<g id="passport">
	</g>
	<g id="luggage">
	</g>
	<g id="globe">
	</g>
	<g id="suitcase">
	</g>
</g>
<g id="vehicles">
	<g id="trailer">
	</g>
	<g id="airplane">
	</g>
	<g id="yatch">
	</g>
	<g id="taxi">
	</g>
	<g id="hot_air_ballon">
	</g>
	<g id="bus">
	</g>
	<g id="train">
	</g>
</g>
<g id="summer">
	<g id="postcard">
	</g>
	<g id="bikini">
	</g>
	<g id="flipflop">
	</g>
	<g id="plane_around_the_globe">
	</g>
	<g id="binocular">
	</g>
	<g id="beach_table">
	</g>
	<g id="sun_hat">
	</g>
	<g id="beach_bag">
	</g>
	<g id="sea__x26__wave">
	</g>
	<g id="beach">
	</g>
	<g id="beach_ball">
	</g>
	<g id="jetski">
	</g>
	<g id="sandcastle">
	</g>
	<g id="lifeguard_male">
	</g>
	<g id="lifeguard_female">
	</g>
	<g id="lighthouse">
	</g>
	<g id="hammok">
	</g>
	<g id="beach_chair__x26__umbrella">
	</g>
	<g id="lifeguard">
	</g>
	<g id="suncream">
	</g>
	<g id="starfish">
	</g>
	<g id="beach_bar">
	</g>
	<g id="bucket__x26__shovel">
	</g>
	<g id="palm_tree">
	</g>
	<g id="shark_warning">
	</g>
	<g id="surfboard">
	</g>
	<g id="swimming_trunks">
	</g>
	<g id="coconut_drink">
	</g>
	<g id="beach_chair__x26__towel">
	</g>
	<g id="coconut_tree">
	</g>
</g>
</svg>
