<?xml version="1.0" encoding="utf-8"?>
<!-- Generator: Adobe Illustrator 17.0.0, SVG Export Plug-In . SVG Version: 6.00 Build 0)  -->
<!DOCTYPE svg PUBLIC "-//W3C//DTD SVG 1.1//EN" "http://www.w3.org/Graphics/SVG/1.1/DTD/svg11.dtd">
<svg version="1.1" xmlns="http://www.w3.org/2000/svg" xmlns:xlink="http://www.w3.org/1999/xlink" x="0px" y="0px" width="512px"
	 height="512px" viewBox="0 0 512 512" enable-background="new 0 0 512 512" xml:space="preserve">
<g id="famous_places">
	<g id="Pyramid">
	</g>
	<g id="Colloseum">
	</g>
	<g id="Mount_Fuji">
	</g>
	<g id="Great_Wall_of_China">
	</g>
	<g id="Stonehenge">
	</g>
	<g id="Golden_Gate_Bridge">
	</g>
	<g id="Christ_the_Redeemer">
	</g>
	<g id="Statue_of_Liberty">
	</g>
	<g id="Taj_Mahal">
	</g>
	<g id="Eiffel_tower">
	</g>
</g>
<g id="camping">
	<g id="mug">
	</g>
	<g id="hook">
	</g>
	<g id="Swiss_knife">
	</g>
	<g id="flashlight">
	</g>
	<g id="lantern">
	</g>
	<g id="campfire">
	</g>
	<g id="beanie">
	</g>
	<g id="rope">
	</g>
	<g id="boot">
	</g>
	<g id="axe">
	</g>
</g>
<g id="hotel_1_">
	<g id="towel">
	</g>
	<g id="phone">
	</g>
	<g id="pool">
	</g>
	<g id="food_service">
	</g>
	<g id="wifi">
	</g>
	<g id="bed">
	</g>
	<g id="door">
	</g>
	<g id="key">
	</g>
	<g id="do_not_disturb">
	</g>
	<g id="bell">
	</g>
</g>
<g id="winter">
	<g id="snowman">
	</g>
	<g id="snow_mountain">
	</g>
	<g id="reindeer">
	</g>
	<g id="winter_tree">
	</g>
	<g id="lift">
	</g>
	<g id="beanie__x26__google">
	</g>
	<g id="ski">
	</g>
	<g id="snowboard">
	</g>
	<g id="snowboading">
	</g>
	<g id="skiing">
	</g>
</g>
<g id="general_travelling">
	<g id="dinner_set">
	</g>
	<g id="polaroid">
	</g>
	<g id="camera">
	</g>
	<g id="calendar">
	</g>
	<g id="calendar_single">
	</g>
	<g id="shopping_bag">
	</g>
	<g id="watch">
	</g>
	<g id="alarm_clock">
	</g>
	<g id="credit_card">
	</g>
	<g id="road_sign">
	</g>
	<g id="hotel">
	</g>
	<g id="money">
	</g>
	<g id="sunglass">
	</g>
	<g id="cocktail">
		<g>
			<path fill="#E3E3E3" d="M354.569,126.805l-102.033,88.363c-2.119,1.835-5.265,1.835-7.385,0l-102.033-88.363
				c-3.948-3.419-1.53-9.904,3.692-9.904h204.067C356.099,116.902,358.517,123.387,354.569,126.805z"/>
			<path fill="#E3E3E3" d="M201.901,443.789l44.436-23.643c0.923-0.491,2.293-0.491,3.216,0l44.436,23.643
				c1.719,0.915,0.666,2.65-1.608,2.65h-88.871C201.235,446.439,200.182,444.704,201.901,443.789z"/>
			<rect x="242.894" y="181.986" fill="#E3E3E3" width="11.899" height="252.307"/>
			<ellipse fill="#E3E3E3" cx="249.213" cy="458.115" rx="78.978" ry="23.822"/>
			<g>
				<path fill="#FFD161" d="M245.864,205.817c1.71,1.481,4.249,1.481,5.959,0l21.405-18.537
					c-13.965,0.123-26.818,4.498-37.375,9.868L245.864,205.817z"/>
				<path fill="#FFFFFF" d="M242.894,150c18.129,6.968,42.572,9.221,63.156,8.855l28.109-24.343
					c3.185-2.759,1.234-7.992-2.979-7.992H166.508c-4.214,0-6.165,5.233-2.979,7.992l22.193,19.219
					C202.66,147.567,224.537,142.945,242.894,150z"/>
				<path fill="#FFB561" d="M247.945,178.997c-4.429,4.181-11.768,7.904-20.348,11l8.256,7.15c10.557-5.37,23.41-9.744,37.375-9.868
					l19.266-16.685C274.439,170.02,255.841,171.544,247.945,178.997z"/>
				<path fill="#FF6650" d="M292.494,170.594l13.556-11.74c-20.585,0.366-45.027-1.887-63.156-8.855
					c-18.357-7.055-40.234-2.433-57.173,3.731l41.876,36.266c8.579-3.096,15.918-6.82,20.348-11
					C255.841,171.544,274.439,170.02,292.494,170.594z"/>
			</g>
			<g>
				<path fill="#FFD161" d="M245.864,205.817c1.71,1.481,4.249,1.481,5.959,0l21.405-18.537
					c-13.965,0.123-26.818,4.498-37.375,9.868L245.864,205.817z"/>
				<path fill="#FFFFFF" d="M242.894,150c18.129,6.968,42.572,9.221,63.156,8.855l28.109-24.343
					c3.185-2.759,1.234-7.992-2.979-7.992H166.508c-4.214,0-6.165,5.233-2.979,7.992l22.193,19.219
					C202.66,147.567,224.537,142.945,242.894,150z"/>
				<path fill="#FFB561" d="M247.945,178.997c-4.429,4.181-11.768,7.904-20.348,11l8.256,7.15c10.557-5.37,23.41-9.744,37.375-9.868
					l19.266-16.685C274.439,170.02,255.841,171.544,247.945,178.997z"/>
				<path fill="#FF6650" d="M292.494,170.594l13.556-11.74c-20.585,0.366-45.027-1.887-63.156-8.855
					c-18.357-7.055-40.234-2.433-57.173,3.731l41.876,36.266c8.579-3.096,15.918-6.82,20.348-11
					C255.841,171.544,274.439,170.02,292.494,170.594z"/>
			</g>
			<polygon fill="#8A532D" points="311.599,65.079 302.031,61.272 279.83,116.937 290.92,116.937 			"/>
			<path fill="#8A532D" d="M264.331,155.466c3.435,0.621,6.935,0.995,10.466,1.419l12.287-30.948h-11.09L264.331,155.466z"/>
			<path fill="#2FB49F" d="M363.285,93.546c-9.288-23.541-25.625-40.542-47.247-49.166c-21.476-8.569-44.919-7.433-67.799,3.28
				c-17.151,8.029-27.847,18.475-28.295,18.916c-0.825,0.813-1.178,1.99-0.949,3.125c0.228,1.136,1.021,2.081,2.096,2.512
				c1.063,0.427,2.272,0.288,3.217-0.355c0.456-0.311,11.359-7.557,25.981-1.725c14.2,5.664,15.572,17.477,15.623,17.976
				c0.132,1.277,1.047,2.405,2.24,2.876c0.917,0.363,1.943,0.313,2.82-0.134c0.554-0.284,13.758-6.872,27.14-1.535l0.368,0.146
				c13.389,5.341,18.424,19.206,18.632,19.793c0.331,0.937,1.137,1.718,2.061,2.082c1.184,0.472,2.534,0.241,3.501-0.591
				c0.382-0.329,9.511-7.979,23.716-2.315c14.62,5.833,17.54,18.619,17.654,19.145c0.332,1.611,1.752,2.739,3.359,2.739
				c0.135,0,0.272-0.008,0.409-0.025c1.771-0.21,3.085-1.742,3.026-3.523C370.819,126.141,370.249,111.197,363.285,93.546z"/>
		</g>
	</g>
	<g id="compass">
	</g>
	<g id="tent">
	</g>
	<g id="backpack">
	</g>
	<g id="map">
	</g>
	<g id="ticket_1_">
	</g>
	<g id="passport">
	</g>
	<g id="luggage">
	</g>
	<g id="globe">
	</g>
	<g id="suitcase">
	</g>
</g>
<g id="vehicles">
	<g id="trailer">
	</g>
	<g id="airplane">
	</g>
	<g id="yatch">
	</g>
	<g id="taxi">
	</g>
	<g id="hot_air_ballon">
	</g>
	<g id="bus">
	</g>
	<g id="train">
	</g>
</g>
<g id="summer">
	<g id="postcard">
	</g>
	<g id="bikini">
	</g>
	<g id="flipflop">
	</g>
	<g id="plane_around_the_globe">
	</g>
	<g id="binocular">
	</g>
	<g id="beach_table">
	</g>
	<g id="sun_hat">
	</g>
	<g id="beach_bag">
	</g>
	<g id="sea__x26__wave">
	</g>
	<g id="beach">
	</g>
	<g id="beach_ball">
	</g>
	<g id="jetski">
	</g>
	<g id="sandcastle">
	</g>
	<g id="lifeguard_male">
	</g>
	<g id="lifeguard_female">
	</g>
	<g id="lighthouse">
	</g>
	<g id="hammok">
	</g>
	<g id="beach_chair__x26__umbrella">
	</g>
	<g id="lifeguard">
	</g>
	<g id="suncream">
	</g>
	<g id="starfish">
	</g>
	<g id="beach_bar">
	</g>
	<g id="bucket__x26__shovel">
	</g>
	<g id="palm_tree">
	</g>
	<g id="shark_warning">
	</g>
	<g id="surfboard">
	</g>
	<g id="swimming_trunks">
	</g>
	<g id="coconut_drink">
	</g>
	<g id="beach_chair__x26__towel">
	</g>
	<g id="coconut_tree">
	</g>
</g>
</svg>
