<?xml version="1.0" encoding="utf-8"?>
<!-- Generator: Adobe Illustrator 17.0.0, SVG Export Plug-In . SVG Version: 6.00 Build 0)  -->
<!DOCTYPE svg PUBLIC "-//W3C//DTD SVG 1.1//EN" "http://www.w3.org/Graphics/SVG/1.1/DTD/svg11.dtd">
<svg version="1.1" xmlns="http://www.w3.org/2000/svg" xmlns:xlink="http://www.w3.org/1999/xlink" x="0px" y="0px" width="512px"
	 height="512px" viewBox="0 0 512 512" enable-background="new 0 0 512 512" xml:space="preserve">
<g id="famous_places">
	<g id="Pyramid">
	</g>
	<g id="Colloseum">
	</g>
	<g id="Mount_Fuji">
	</g>
	<g id="Great_Wall_of_China">
	</g>
	<g id="Stonehenge">
	</g>
	<g id="Golden_Gate_Bridge">
	</g>
	<g id="Christ_the_Redeemer">
	</g>
	<g id="Statue_of_Liberty">
	</g>
	<g id="Taj_Mahal">
	</g>
	<g id="Eiffel_tower">
	</g>
</g>
<g id="camping">
	<g id="mug">
	</g>
	<g id="hook">
	</g>
	<g id="Swiss_knife">
	</g>
	<g id="flashlight">
	</g>
	<g id="lantern">
	</g>
	<g id="campfire">
	</g>
	<g id="beanie">
	</g>
	<g id="rope">
	</g>
	<g id="boot">
	</g>
	<g id="axe">
	</g>
</g>
<g id="hotel_1_">
	<g id="towel">
	</g>
	<g id="phone">
	</g>
	<g id="pool">
	</g>
	<g id="food_service">
	</g>
	<g id="wifi">
	</g>
	<g id="bed">
	</g>
	<g id="door">
	</g>
	<g id="key">
	</g>
	<g id="do_not_disturb">
	</g>
	<g id="bell">
	</g>
</g>
<g id="winter">
	<g id="snowman">
	</g>
	<g id="snow_mountain">
	</g>
	<g id="reindeer">
	</g>
	<g id="winter_tree">
	</g>
	<g id="lift">
	</g>
	<g id="beanie__x26__google">
	</g>
	<g id="ski">
	</g>
	<g id="snowboard">
	</g>
	<g id="snowboading">
	</g>
	<g id="skiing">
	</g>
</g>
<g id="general_travelling">
	<g id="dinner_set">
	</g>
	<g id="polaroid">
	</g>
	<g id="camera">
	</g>
	<g id="calendar">
	</g>
	<g id="calendar_single">
	</g>
	<g id="shopping_bag">
	</g>
	<g id="watch">
	</g>
	<g id="alarm_clock">
	</g>
	<g id="credit_card">
	</g>
	<g id="road_sign">
	</g>
	<g id="hotel">
	</g>
	<g id="money">
	</g>
	<g id="sunglass">
	</g>
	<g id="cocktail">
	</g>
	<g id="compass">
	</g>
	<g id="tent">
	</g>
	<g id="backpack">
	</g>
	<g id="map">
	</g>
	<g id="ticket_1_">
	</g>
	<g id="passport">
	</g>
	<g id="luggage">
	</g>
	<g id="globe">
	</g>
	<g id="suitcase">
	</g>
</g>
<g id="vehicles">
	<g id="trailer">
	</g>
	<g id="airplane">
	</g>
	<g id="yatch">
	</g>
	<g id="taxi">
	</g>
	<g id="hot_air_ballon">
	</g>
	<g id="bus">
	</g>
	<g id="train">
	</g>
</g>
<g id="summer">
	<g id="postcard">
	</g>
	<g id="bikini">
	</g>
	<g id="flipflop">
	</g>
	<g id="plane_around_the_globe">
	</g>
	<g id="binocular">
	</g>
	<g id="beach_table">
	</g>
	<g id="sun_hat">
	</g>
	<g id="beach_bag">
	</g>
	<g id="sea__x26__wave">
	</g>
	<g id="beach">
	</g>
	<g id="beach_ball">
	</g>
	<g id="jetski">
	</g>
	<g id="sandcastle">
	</g>
	<g id="lifeguard_male">
	</g>
	<g id="lifeguard_female">
	</g>
	<g id="lighthouse">
		<g>
			<circle fill="#FF6650" cx="256" cy="25.015" r="12"/>
			<path fill="#2D415A" d="M417.645,491.561c-4.042-1.451-99.678-35.546-160.76-35.546c-61.053,0-158.374,34.08-162.487,35.53
				c-2.343,0.827-3.435,2.432-2.674,3.934c0.761,1.501,3.189,2.536,5.952,2.536h316.649c2.754,0,5.176-1.028,5.944-2.522
				C421.039,493.997,419.968,492.396,417.645,491.561z"/>
			<g>
				<path fill="#2FB49F" d="M304.266,91.162c0,26.657-21.609,28.266-48.266,28.266s-48.266-1.609-48.266-28.266
					S229.343,42.896,256,42.896S304.266,64.506,304.266,91.162z"/>
				<polygon fill="#E3E3E3" points="200.679,419.659 311.321,419.659 309.613,388.572 202.387,388.572 				"/>
				<polygon fill="#A6A6A6" points="309.967,395.015 202.033,395.015 200.679,420.015 311.321,420.015 				"/>
				<polygon fill="#E3E3E3" points="204.275,354.213 307.725,354.213 305.972,322.309 206.028,322.309 				"/>
				<polygon fill="#E3E3E3" points="207.916,287.95 304.084,287.95 302.376,256.863 209.624,256.863 				"/>
				<polygon fill="#E3E3E3" points="213.265,190.6 211.512,222.505 300.488,222.505 298.735,190.6 				"/>
				<polygon fill="#FF6650" points="296.848,156.015 215.152,156.015 213.265,191.015 298.735,191.015 				"/>
				<polygon fill="#FF6650" points="209.624,257.015 302.376,257.015 300.488,223.015 211.512,223.015 				"/>
				<polygon fill="#FF6650" points="206.028,322.015 305.972,322.015 304.084,288.015 207.916,288.015 				"/>
				<polygon fill="#FF6650" points="202.387,389.015 309.613,389.015 307.725,354.015 204.275,354.015 				"/>
				<polygon fill="#FF6650" points="166.068,472.015 345.932,472.015 342.044,408.015 169.956,408.015 				"/>
				<polygon fill="#CF5341" points="214.163,174.239 297.837,174.239 296.938,157.877 215.062,157.877 				"/>
				<rect x="206.949" y="87.89" fill="#FFD161" width="98.102" height="68.351"/>
				<rect x="219.93" y="89.526" fill="#FFFFFF" width="72.14" height="66.715"/>
				<path fill="#FF6650" d="M311.393,166.058H200.607c-4.518,0-8.181-3.663-8.181-8.181v0c0-4.518,3.663-8.181,8.181-8.181h110.786
					c4.518,0,8.181,3.663,8.181,8.181v0C319.574,162.395,315.911,166.058,311.393,166.058z"/>
				<path fill="#FF6650" d="M311.393,96.071H200.607c-4.518,0-8.181-3.663-8.181-8.181v0c0-4.518,3.663-8.181,8.181-8.181h110.786
					c4.518,0,8.181,3.663,8.181,8.181v0C319.574,92.408,315.911,96.071,311.393,96.071z"/>
			</g>
			<polygon fill="#FFD161" points="0,203.015 195.819,143.015 195.819,102.015 0,52.015 			"/>
			<polygon fill="#FFD161" points="512,203.015 316.181,143.015 316.181,102.015 512,52.015 			"/>
			<path fill="#4A4A4A" d="M240.991,257.015v-8.634c0-8.191,6.64-14.832,14.832-14.832h0.354c8.191,0,14.832,6.64,14.832,14.832
				v8.634"/>
			<path fill="#4A4A4A" d="M238.886,322.015v-9.845c0-9.34,7.572-16.912,16.912-16.912h0.403c9.34,0,16.912,7.572,16.912,16.912
				v9.845"/>
			<path fill="#4A4A4A" d="M235.943,389.015v-11.539c0-10.946,8.874-19.82,19.82-19.82h0.473c10.946,0,19.82,8.874,19.82,19.82
				v11.539"/>
			<path fill="#4A4A4A" d="M227,472.015v-16.684c0-15.827,12.831-28.658,28.658-28.658h0.684c15.827,0,28.658,12.831,28.658,28.658
				v16.684"/>
			<path fill="#E3E3E3" d="M267.592,44.896h-23.184c-3.281,0-5.941-2.66-5.941-5.941v0c0-3.281,2.66-5.941,5.941-5.941h23.184
				c3.281,0,5.941,2.66,5.941,5.941v0C273.533,42.237,270.873,44.896,267.592,44.896z"/>
		</g>
	</g>
	<g id="hammok">
	</g>
	<g id="beach_chair__x26__umbrella">
	</g>
	<g id="lifeguard">
	</g>
	<g id="suncream">
	</g>
	<g id="starfish">
	</g>
	<g id="beach_bar">
	</g>
	<g id="bucket__x26__shovel">
	</g>
	<g id="palm_tree">
	</g>
	<g id="shark_warning">
	</g>
	<g id="surfboard">
	</g>
	<g id="swimming_trunks">
	</g>
	<g id="coconut_drink">
	</g>
	<g id="beach_chair__x26__towel">
	</g>
	<g id="coconut_tree">
	</g>
</g>
</svg>
