<?xml version="1.0" encoding="utf-8"?>
<!-- Generator: Adobe Illustrator 17.0.0, SVG Export Plug-In . SVG Version: 6.00 Build 0)  -->
<!DOCTYPE svg PUBLIC "-//W3C//DTD SVG 1.1//EN" "http://www.w3.org/Graphics/SVG/1.1/DTD/svg11.dtd">
<svg version="1.1" xmlns="http://www.w3.org/2000/svg" xmlns:xlink="http://www.w3.org/1999/xlink" x="0px" y="0px" width="512px"
	 height="512px" viewBox="0 0 512 512" enable-background="new 0 0 512 512" xml:space="preserve">
<g id="famous_places">
	<g id="Pyramid">
	</g>
	<g id="Colloseum">
	</g>
	<g id="Mount_Fuji">
	</g>
	<g id="Great_Wall_of_China">
	</g>
	<g id="Stonehenge">
	</g>
	<g id="Golden_Gate_Bridge">
	</g>
	<g id="Christ_the_Redeemer">
	</g>
	<g id="Statue_of_Liberty">
	</g>
	<g id="Taj_Mahal">
	</g>
	<g id="Eiffel_tower">
	</g>
</g>
<g id="camping">
	<g id="mug">
	</g>
	<g id="hook">
	</g>
	<g id="Swiss_knife">
	</g>
	<g id="flashlight">
	</g>
	<g id="lantern">
	</g>
	<g id="campfire">
	</g>
	<g id="beanie">
	</g>
	<g id="rope">
	</g>
	<g id="boot">
	</g>
	<g id="axe">
	</g>
</g>
<g id="hotel_1_">
	<g id="towel">
	</g>
	<g id="phone">
	</g>
	<g id="pool">
	</g>
	<g id="food_service">
	</g>
	<g id="wifi">
	</g>
	<g id="bed">
	</g>
	<g id="door">
	</g>
	<g id="key">
	</g>
	<g id="do_not_disturb">
	</g>
	<g id="bell">
	</g>
</g>
<g id="winter">
	<g id="snowman">
	</g>
	<g id="snow_mountain">
	</g>
	<g id="reindeer">
	</g>
	<g id="winter_tree">
	</g>
	<g id="lift">
	</g>
	<g id="beanie__x26__google">
	</g>
	<g id="ski">
	</g>
	<g id="snowboard">
	</g>
	<g id="snowboading">
	</g>
	<g id="skiing">
	</g>
</g>
<g id="general_travelling">
	<g id="dinner_set">
	</g>
	<g id="polaroid">
	</g>
	<g id="camera">
	</g>
	<g id="calendar">
	</g>
	<g id="calendar_single">
	</g>
	<g id="shopping_bag">
	</g>
	<g id="watch">
	</g>
	<g id="alarm_clock">
	</g>
	<g id="credit_card">
	</g>
	<g id="road_sign">
	</g>
	<g id="hotel">
	</g>
	<g id="money">
	</g>
	<g id="sunglass">
	</g>
	<g id="cocktail">
	</g>
	<g id="compass">
	</g>
	<g id="tent">
	</g>
	<g id="backpack">
	</g>
	<g id="map">
	</g>
	<g id="ticket_1_">
	</g>
	<g id="passport">
	</g>
	<g id="luggage">
	</g>
	<g id="globe">
	</g>
	<g id="suitcase">
	</g>
</g>
<g id="vehicles">
	<g id="trailer">
	</g>
	<g id="airplane">
	</g>
	<g id="yatch">
	</g>
	<g id="taxi">
	</g>
	<g id="hot_air_ballon">
	</g>
	<g id="bus">
	</g>
	<g id="train">
	</g>
</g>
<g id="summer">
	<g id="postcard">
	</g>
	<g id="bikini">
	</g>
	<g id="flipflop">
	</g>
	<g id="plane_around_the_globe">
	</g>
	<g id="binocular">
	</g>
	<g id="beach_table">
	</g>
	<g id="sun_hat">
	</g>
	<g id="beach_bag">
	</g>
	<g id="sea__x26__wave">
	</g>
	<g id="beach">
	</g>
	<g id="beach_ball">
	</g>
	<g id="jetski">
	</g>
	<g id="sandcastle">
	</g>
	<g id="lifeguard_male">
	</g>
	<g id="lifeguard_female">
	</g>
	<g id="lighthouse">
	</g>
	<g id="hammok">
	</g>
	<g id="beach_chair__x26__umbrella">
	</g>
	<g id="lifeguard">
	</g>
	<g id="suncream">
	</g>
	<g id="starfish">
	</g>
	<g id="beach_bar">
	</g>
	<g id="bucket__x26__shovel">
	</g>
	<g id="palm_tree">
	</g>
	<g id="shark_warning">
		<g>
			<path fill="#FFD161" d="M256,490.028c-21.261,0-41.25-8.28-56.286-23.313L45.286,312.286
				C30.251,297.251,21.972,277.262,21.972,256c0-21.261,8.28-41.25,23.313-56.286L199.714,45.286
				C214.749,30.252,234.738,21.972,256,21.972c21.263,0,41.253,8.28,56.287,23.315l154.427,154.427
				c15.035,15.036,23.314,35.025,23.314,56.286c0,21.262-8.279,41.251-23.313,56.286L312.286,466.714
				C297.252,481.748,277.263,490.028,256,490.028z"/>
			<path fill="#FFD161" d="M256,490.028c-21.261,0-41.25-8.28-56.286-23.313L45.286,312.286
				C30.251,297.251,21.972,277.262,21.972,256c0-21.261,8.28-41.25,23.313-56.286L199.714,45.286
				C214.749,30.252,234.738,21.972,256,21.972c21.263,0,41.253,8.28,56.287,23.315l154.427,154.427
				c15.035,15.036,23.314,35.025,23.314,56.286c0,21.262-8.279,41.251-23.313,56.286L312.286,466.714
				C297.252,481.748,277.263,490.028,256,490.028z"/>
			<path fill="#FFD161" d="M256,490.028c-21.261,0-41.25-8.28-56.286-23.313L45.286,312.286
				C30.251,297.251,21.972,277.262,21.972,256c0-21.261,8.28-41.25,23.313-56.286L199.714,45.286
				C214.749,30.252,234.738,21.972,256,21.972c21.263,0,41.253,8.28,56.287,23.315l154.427,154.427
				c15.035,15.036,23.314,35.025,23.314,56.286c0,21.262-8.279,41.251-23.313,56.286L312.286,466.714
				C297.252,481.748,277.263,490.028,256,490.028z"/>
			<path fill="#FFB561" d="M466.714,199.714L312.287,45.287c-13.54-13.541-31.105-21.58-49.995-23.048
				c8.443,3.892,16.225,9.278,22.995,16.048l154.427,154.427c15.035,15.036,23.314,35.025,23.314,56.286
				c0,21.262-8.279,41.251-23.313,56.286L285.286,459.714c-15.034,15.034-35.023,23.314-56.286,23.314
				c-2.113,0-4.208-0.105-6.292-0.267c10.307,4.751,21.604,7.267,33.292,7.267c21.263,0,41.252-8.28,56.286-23.314l154.429-154.428
				c15.034-15.035,23.313-35.024,23.313-56.286C490.028,234.739,481.749,214.749,466.714,199.714z"/>
			<path fill="#2D415A" d="M256,460.028c-13.249,0-25.704-5.159-35.073-14.527L66.499,291.073
				c-9.368-9.369-14.527-21.824-14.527-35.073c0-13.249,5.159-25.704,14.527-35.073L220.927,66.5
				c9.369-9.369,21.824-14.528,35.073-14.528c13.249,0,25.705,5.159,35.073,14.528l154.428,154.427
				c9.368,9.369,14.527,21.824,14.527,35.073c0,13.249-5.159,25.705-14.527,35.073L291.073,445.501
				C281.705,454.869,269.249,460.028,256,460.028z"/>
			<path fill="#FFD161" d="M227.998,438.43L73.57,284.002c-15.465-15.465-15.465-40.538,0-56.003L227.998,73.57
				c15.465-15.465,40.538-15.465,56.003,0L438.43,227.998c15.465,15.465,15.465,40.538,0,56.003L284.002,438.43
				C268.537,453.894,243.463,453.894,227.998,438.43z"/>
			<path fill="#2D415A" d="M390.298,245.67c-8.831-1.85-52.466,29.602-52.466,29.602c-29.017-12.798-55.34-18.277-80.086-20.598
				c-1.382-4.673-2.618-10.728-0.88-13.629c2.896-4.836-2.902-20.572-27.953,12.098c-12.257-0.238-24.211-0.072-36.011-0.072
				c-40.838,0-67.093,17.734-70.826,19.194c-6.054,2.369,5.325,8.297,10.205,11.312c6.149-1.299,13.639-1.986,21.142-0.422
				c0,0-4.021,2.743-8.25,6.166c13.769,4.472,31.717,6.431,50.018,6.962c4.403,8.867,11.942,18.479,24.204,19.692
				c23.376,2.313,1.606-9.541,2.102-14.252c0.126-1.197,0.214-3.22,0.41-5.567c28.256-0.992,52.666-4.301,57.747-5.62
				c1.496-0.389,15.064,6.475,15.584,2.312c0.519-4.163,21.817-9.713,21.817-7.4c0,2.313,10.389,5.55,10.389,4.163
				c0-0.662,1.783-3.315,4.427-5.265c2.899-2.138,6.834-3.43,10.638-0.285c7.272,6.013,38.44,18.039,38.96,15.726
				c0.519-2.313-5.195-4.163-12.467-20.351C361.728,263.246,399.129,247.52,390.298,245.67z M142.689,270.407
				c-1.343,0-2.432-0.969-2.432-2.165c0-1.196,1.089-2.165,2.432-2.165c1.343,0,2.432,0.97,2.432,2.165
				C145.121,269.438,144.032,270.407,142.689,270.407z"/>
			<g>
				
					<path fill="none" stroke="#2D415A" stroke-width="10" stroke-linecap="round" stroke-linejoin="round" stroke-miterlimit="10" d="
					M136,180.637c14.123,0,14.123,22.6,28.245,22.6c14.123,0,14.123-22.6,28.246-22.6c14.125,0,14.125,22.6,28.249,22.6
					c14.125,0,14.125-22.6,28.25-22.6c14.126,0,14.126,22.6,28.251,22.6c14.125,0,14.125-22.6,28.25-22.6
					c14.127,0,14.127,22.6,28.254,22.6c14.127,0,14.127-22.6,28.254-22.6"/>
			</g>
			<circle fill="#FFFFFF" cx="120.425" cy="228.361" r="21.424"/>
		</g>
	</g>
	<g id="surfboard">
	</g>
	<g id="swimming_trunks">
	</g>
	<g id="coconut_drink">
	</g>
	<g id="beach_chair__x26__towel">
	</g>
	<g id="coconut_tree">
	</g>
</g>
</svg>
