<?xml version="1.0" encoding="utf-8"?>
<!-- Generator: Adobe Illustrator 17.0.0, SVG Export Plug-In . SVG Version: 6.00 Build 0)  -->
<!DOCTYPE svg PUBLIC "-//W3C//DTD SVG 1.1//EN" "http://www.w3.org/Graphics/SVG/1.1/DTD/svg11.dtd">
<svg version="1.1" xmlns="http://www.w3.org/2000/svg" xmlns:xlink="http://www.w3.org/1999/xlink" x="0px" y="0px" width="512px"
	 height="512px" viewBox="0 0 512 512" enable-background="new 0 0 512 512" xml:space="preserve">
<g id="famous_places">
	<g id="Pyramid">
	</g>
	<g id="Colloseum">
	</g>
	<g id="Mount_Fuji">
	</g>
	<g id="Great_Wall_of_China">
	</g>
	<g id="Stonehenge">
	</g>
	<g id="Golden_Gate_Bridge">
	</g>
	<g id="Christ_the_Redeemer">
	</g>
	<g id="Statue_of_Liberty">
	</g>
	<g id="Taj_Mahal">
	</g>
	<g id="Eiffel_tower">
	</g>
</g>
<g id="camping">
	<g id="mug">
	</g>
	<g id="hook">
	</g>
	<g id="Swiss_knife">
	</g>
	<g id="flashlight">
	</g>
	<g id="lantern">
	</g>
	<g id="campfire">
	</g>
	<g id="beanie">
	</g>
	<g id="rope">
	</g>
	<g id="boot">
	</g>
	<g id="axe">
	</g>
</g>
<g id="hotel_1_">
	<g id="towel">
	</g>
	<g id="phone">
	</g>
	<g id="pool">
	</g>
	<g id="food_service">
	</g>
	<g id="wifi">
	</g>
	<g id="bed">
	</g>
	<g id="door">
	</g>
	<g id="key">
	</g>
	<g id="do_not_disturb">
	</g>
	<g id="bell">
	</g>
</g>
<g id="winter">
	<g id="snowman">
	</g>
	<g id="snow_mountain">
	</g>
	<g id="reindeer">
	</g>
	<g id="winter_tree">
	</g>
	<g id="lift">
	</g>
	<g id="beanie__x26__google">
		<g>
			<path fill="#4A4A4A" d="M396.644,378.436H115.356c-5.992,0-10.849-4.857-10.849-10.849v-31.674
				c0-5.992,4.857-10.849,10.849-10.849h281.288c5.992,0,10.849,4.857,10.849,10.849v31.674
				C407.492,373.579,402.635,378.436,396.644,378.436z"/>
			<g>
				<circle fill="#FFD161" cx="256" cy="97.391" r="29.871"/>
				<path fill="#FFB561" d="M282.671,110.837c-8.516-2.234-17.454-3.428-26.671-3.428h0c-9.217,0-18.155,1.194-26.671,3.428
					c4.921,9.741,15.012,16.424,26.671,16.424C267.659,127.262,277.75,120.578,282.671,110.837z"/>
				<path fill="#FFD161" d="M360.818,299.11H151.182v-77.495c0-57.889,46.928-104.818,104.818-104.818h0
					c57.889,0,104.818,46.928,104.818,104.818V299.11z"/>
				<g>
					<defs>
						<path id="SVGID_13_" d="M360.818,299.11H151.182v-77.495c0-57.889,46.928-104.818,104.818-104.818h0
							c57.889,0,104.818,46.928,104.818,104.818V299.11z"/>
					</defs>
					<clipPath id="SVGID_2_">
						<use xlink:href="#SVGID_13_"  overflow="visible"/>
					</clipPath>
					<g clip-path="url(#SVGID_2_)">
						<g>
							<g>
								<rect x="251" y="112.568" fill="#FFB561" width="10" height="181"/>
							</g>
							<g>
								<path fill="#FFB561" d="M165.153,253.808l-9.975-0.71c5.263-73.904,30.637-112.55,50.997-131.957
									c22.495-21.442,43.784-24.895,44.679-25.031l2.909-0.571l17.134,22.027h-10.188c-40.134,0-53.8,98.213-55.679,136.007
									l-9.988-0.433c0.072-1.455,1.869-35.997,10.339-71.204c10.321-42.903,25.8-67.347,46.087-72.906l-1.861-2.399
									c-6.066,1.646-21.296,7.02-37.064,22.255C193.684,147.107,170.154,183.575,165.153,253.808z"/>
							</g>
							<g>
								<path fill="#FFB561" d="M346.847,253.808c-5.001-70.233-28.531-106.697-47.39-124.918
									c-15.761-15.228-30.984-20.6-37.064-22.25l-1.861,2.406c20.29,5.557,35.766,30.017,46.088,72.922
									c8.47,35.207,10.267,69.782,10.339,71.236l-9.988,0.37c-1.887-37.794-15.568-136.007-55.679-136.007h-10.188l17.133-22.027
									l2.909,0.507c0.895,0.136,22.184,3.62,44.679,25.063c20.36,19.406,45.734,58.068,50.997,131.972L346.847,253.808z"/>
							</g>
						</g>
					</g>
				</g>
				<path fill="#FFB561" d="M360,238.605c-1-0.216-2.001-1.038-3.454-1.038H157.405c-2.141,0-4.405,0.96-6.405,1.42v59.58h209
					V238.605z"/>
				<path fill="#FFD161" d="M348.747,315.358H163.253c-19.052,0-34.497-15.445-34.497-34.497v0
					c0-19.052,15.445-34.497,34.497-34.497h185.494c19.052,0,34.497,15.445,34.497,34.497v0
					C383.244,299.914,367.799,315.358,348.747,315.358z"/>
				<g>
					<defs>
						<path id="SVGID_15_" d="M348.747,315.358H163.253c-19.052,0-34.497-15.445-34.497-34.497v0
							c0-19.052,15.445-34.497,34.497-34.497h185.494c19.052,0,34.497,15.445,34.497,34.497v0
							C383.244,299.914,367.799,315.358,348.747,315.358z"/>
					</defs>
					<clipPath id="SVGID_4_">
						<use xlink:href="#SVGID_15_"  overflow="visible"/>
					</clipPath>
					<g clip-path="url(#SVGID_4_)">
						<g>
							<g>
								<rect x="250" y="230.568" fill="#FFB561" width="10" height="104"/>
							</g>
							<g>
								<rect x="215" y="230.568" fill="#FFB561" width="10" height="104"/>
							</g>
							<g>
								<rect x="180" y="230.568" fill="#FFB561" width="10" height="104"/>
							</g>
							<g>
								<rect x="145" y="230.568" fill="#FFB561" width="10" height="104"/>
							</g>
						</g>
						<g>
							<g>
								<rect x="354" y="230.568" fill="#FFB561" width="10" height="104"/>
							</g>
							<g>
								<rect x="320" y="230.568" fill="#FFB561" width="10" height="104"/>
							</g>
							<g>
								<rect x="285" y="230.568" fill="#FFB561" width="10" height="104"/>
							</g>
							<g>
								<rect x="250" y="230.568" fill="#FFB561" width="10" height="104"/>
							</g>
						</g>
					</g>
				</g>
			</g>
			<path fill="#38D6BD" d="M384.476,319.568c0-25.786-17.74-29-17.74-29h-110.24h-110c0,0-17.74,3.214-17.74,29
				s-2.593,109,51.407,109h49.333c0,0,16,0.072,16-26.262c0-11.333,0-17.631,11-17.631s11.12,6.28,11.12,17.613
				c0,26.333,16.12,26.28,16.12,26.28h49.333C387.07,428.568,384.476,345.353,384.476,319.568z"/>
			<path fill="#2D415A" d="M284.085,418.568c-2.459,0-6.469-4.145-6.469-16.262c0-10.348,0-27.631-21.12-27.631
				c-11.522,0-16.537,5.682-18.716,10.435c-2.284,4.984-2.284,10.605-2.284,17.187c0,12.099-3.939,16.271-6.359,16.271h-48.974
				c-9.014,0-16.242-2.787-22.102-8.667c-19.565-19.64-19.39-66.677-19.314-86.778c0.005-1.238,0.009-2.444,0.009-3.501
				c0-14.645,7.029-18.054,9.01-19.054h217.622c2.536,1,9.089,4.725,9.089,19.072c0,1.057,0.004,2.245,0.009,3.483
				c0.075,20.101,0.251,67.121-19.314,86.76c-5.859,5.88-13.088,8.685-22.102,8.685H284.085z"/>
			<path fill="#45638A" d="M185.067,300.568l-22.995,112.651c5.07,3.586,11.031,5.349,18.091,5.349h27.873l24.087-118H185.067z"/>
			<path fill="#45638A" d="M245.221,300.568l-24.086,118h8.002c2.42,0,6.359-4.163,6.359-16.262c0-6.582,0-12.23,2.284-17.214
				c1.433-3.125,4.107-6.688,9.037-8.732l15.46-75.792H245.221z"/>
		</g>
	</g>
	<g id="ski">
	</g>
	<g id="snowboard">
	</g>
	<g id="snowboading">
	</g>
	<g id="skiing">
	</g>
</g>
<g id="general_travelling">
	<g id="dinner_set">
	</g>
	<g id="polaroid">
	</g>
	<g id="camera">
	</g>
	<g id="calendar">
	</g>
	<g id="calendar_single">
	</g>
	<g id="shopping_bag">
	</g>
	<g id="watch">
	</g>
	<g id="alarm_clock">
	</g>
	<g id="credit_card">
	</g>
	<g id="road_sign">
	</g>
	<g id="hotel">
	</g>
	<g id="money">
	</g>
	<g id="sunglass">
	</g>
	<g id="cocktail">
	</g>
	<g id="compass">
	</g>
	<g id="tent">
	</g>
	<g id="backpack">
	</g>
	<g id="map">
	</g>
	<g id="ticket_1_">
	</g>
	<g id="passport">
	</g>
	<g id="luggage">
	</g>
	<g id="globe">
	</g>
	<g id="suitcase">
	</g>
</g>
<g id="vehicles">
	<g id="trailer">
	</g>
	<g id="airplane">
	</g>
	<g id="yatch">
	</g>
	<g id="taxi">
	</g>
	<g id="hot_air_ballon">
	</g>
	<g id="bus">
	</g>
	<g id="train">
	</g>
</g>
<g id="summer">
	<g id="postcard">
	</g>
	<g id="bikini">
	</g>
	<g id="flipflop">
	</g>
	<g id="plane_around_the_globe">
	</g>
	<g id="binocular">
	</g>
	<g id="beach_table">
	</g>
	<g id="sun_hat">
	</g>
	<g id="beach_bag">
	</g>
	<g id="sea__x26__wave">
	</g>
	<g id="beach">
	</g>
	<g id="beach_ball">
	</g>
	<g id="jetski">
	</g>
	<g id="sandcastle">
	</g>
	<g id="lifeguard_male">
	</g>
	<g id="lifeguard_female">
	</g>
	<g id="lighthouse">
	</g>
	<g id="hammok">
	</g>
	<g id="beach_chair__x26__umbrella">
	</g>
	<g id="lifeguard">
	</g>
	<g id="suncream">
	</g>
	<g id="starfish">
	</g>
	<g id="beach_bar">
	</g>
	<g id="bucket__x26__shovel">
	</g>
	<g id="palm_tree">
	</g>
	<g id="shark_warning">
	</g>
	<g id="surfboard">
	</g>
	<g id="swimming_trunks">
	</g>
	<g id="coconut_drink">
	</g>
	<g id="beach_chair__x26__towel">
	</g>
	<g id="coconut_tree">
	</g>
</g>
</svg>
