<?xml version="1.0" encoding="utf-8"?>
<!-- Generator: Adobe Illustrator 17.0.0, SVG Export Plug-In . SVG Version: 6.00 Build 0)  -->
<!DOCTYPE svg PUBLIC "-//W3C//DTD SVG 1.1//EN" "http://www.w3.org/Graphics/SVG/1.1/DTD/svg11.dtd">
<svg version="1.1" xmlns="http://www.w3.org/2000/svg" xmlns:xlink="http://www.w3.org/1999/xlink" x="0px" y="0px" width="512px"
	 height="512px" viewBox="0 0 512 512" enable-background="new 0 0 512 512" xml:space="preserve">
<g id="famous_places">
	<g id="Pyramid">
	</g>
	<g id="Colloseum">
	</g>
	<g id="Mount_Fuji">
	</g>
	<g id="Great_Wall_of_China">
	</g>
	<g id="Stonehenge">
	</g>
	<g id="Golden_Gate_Bridge">
	</g>
	<g id="Christ_the_Redeemer">
	</g>
	<g id="Statue_of_Liberty">
	</g>
	<g id="Taj_Mahal">
	</g>
	<g id="Eiffel_tower">
	</g>
</g>
<g id="camping">
	<g id="mug">
	</g>
	<g id="hook">
	</g>
	<g id="Swiss_knife">
	</g>
	<g id="flashlight">
	</g>
	<g id="lantern">
	</g>
	<g id="campfire">
	</g>
	<g id="beanie">
	</g>
	<g id="rope">
	</g>
	<g id="boot">
	</g>
	<g id="axe">
	</g>
</g>
<g id="hotel_1_">
	<g id="towel">
	</g>
	<g id="phone">
	</g>
	<g id="pool">
	</g>
	<g id="food_service">
	</g>
	<g id="wifi">
	</g>
	<g id="bed">
	</g>
	<g id="door">
	</g>
	<g id="key">
	</g>
	<g id="do_not_disturb">
	</g>
	<g id="bell">
	</g>
</g>
<g id="winter">
	<g id="snowman">
	</g>
	<g id="snow_mountain">
	</g>
	<g id="reindeer">
	</g>
	<g id="winter_tree">
	</g>
	<g id="lift">
	</g>
	<g id="beanie__x26__google">
	</g>
	<g id="ski">
		<g>
			<g>
				<path fill="#2D415A" d="M327.158,157.518c-0.756,0-1.547-0.03-2.376-0.094c-6.369-0.49-15.333-7.414-28.231-57.017
					c-6.875-26.443-11.685-53.068-11.731-53.334c-0.328-1.825,0.641-3.636,2.341-4.375c1.703-0.74,3.687-0.212,4.797,1.27
					c0.153,0.204,15.449,20.676,29.111,43.482c19.25,32.133,25.87,52.737,20.238,62.989
					C339.486,153.755,335.565,157.518,327.158,157.518z M296.273,63.813c2.023,9.702,4.797,22.185,8.031,34.62
					c12.96,49.828,20.766,50.99,21.092,51.015c7.033,0.543,8.438-2.019,8.899-2.86c1.852-3.371,3.602-15.481-20.089-55.026
					C308.033,81.257,301.524,71.439,296.273,63.813z"/>
			</g>
			<path fill="#FF6650" d="M128.718,461.719L128.718,461.719c13.189,0,23.88-10.691,23.88-23.88V58.1
				c0-13.189-10.691-23.88-23.88-23.88h0c-13.189,0-23.88,10.691-23.88,23.88v379.739
				C104.838,451.027,115.529,461.719,128.718,461.719z"/>
			<g>
				<path fill="#E3E3E3" d="M113.088,237.568c0,0,2.335-36.819,15.668-36.819s15.999,36.819,15.999,36.819H113.088z"/>
				<rect x="112.884" y="237.087" fill="#45638A" width="31.667" height="105.791"/>
				<rect x="118" y="241.568" fill="#2D415A" width="22" height="97"/>
				<rect x="109.195" y="230.171" fill="#FFD161" width="39.045" height="13.833"/>
				<path fill="#E3E3E3" d="M110,328.568v14.457l6,3.047v6.094c0,12.798,13,11.275,13,11.275s13,1.524,13-11.275v-6.094l6-3.047
					v-14.457H110z"/>
				<rect x="109.756" y="320.475" fill="#A6A6A6" width="38" height="8.227"/>
			</g>
			<rect x="105" y="373.568" fill="#FFD161" width="48" height="11"/>
			<rect x="105" y="394.568" fill="#FFD161" width="48" height="11"/>
			<rect x="105" y="415.568" fill="#FFD161" width="48" height="11"/>
			<g>
				<path fill="#FF6650" d="M202.718,461.719L202.718,461.719c13.189,0,23.88-10.691,23.88-23.88V58.1
					c0-13.189-10.691-23.88-23.88-23.88h0c-13.189,0-23.88,10.691-23.88,23.88v379.739
					C178.838,451.027,189.529,461.719,202.718,461.719z"/>
				<g>
					<path fill="#E3E3E3" d="M187.088,237.568c0,0,2.335-36.819,15.668-36.819c13.333,0,15.999,36.819,15.999,36.819H187.088z"/>
					<rect x="186.884" y="237.087" fill="#45638A" width="31.667" height="105.791"/>
					<rect x="192" y="241.568" fill="#2D415A" width="22" height="97"/>
					<rect x="183.195" y="230.171" fill="#FFD161" width="39.045" height="13.833"/>
					<path fill="#E3E3E3" d="M184,328.568v14.457l6,3.047v6.094c0,12.798,13,11.275,13,11.275s13,1.524,13-11.275v-6.094l6-3.047
						v-14.457H184z"/>
					<rect x="183.756" y="320.475" fill="#A6A6A6" width="38" height="8.227"/>
				</g>
				<rect x="179" y="373.568" fill="#FFD161" width="48" height="11"/>
				<rect x="179" y="394.568" fill="#FFD161" width="48" height="11"/>
				<rect x="179" y="415.568" fill="#FFD161" width="48" height="11"/>
			</g>
			
				<line fill="none" stroke="#FFD161" stroke-width="8" stroke-linecap="round" stroke-linejoin="round" stroke-miterlimit="10" x1="289" y1="77.568" x2="289" y2="450.568"/>
			<path fill="#FF6650" d="M292.351,114.769h-8.264c-3.977,0-7.201-3.224-7.201-7.201V41.422c0-3.977,3.224-7.201,7.201-7.201h8.264
				c3.977,0,7.201,3.224,7.201,7.201v66.146C299.552,111.545,296.328,114.769,292.351,114.769z"/>
			<path fill="#45638A" d="M300.718,120.292H275.72c-3.775,0-6.834-3.06-6.834-6.834v-0.126c0-3.775,3.06-6.834,6.834-6.834h24.998
				c3.775,0,6.834,3.06,6.834,6.834v0.126C307.552,117.232,304.493,120.292,300.718,120.292z"/>
			<g>
				<path fill="#FF6650" d="M315.606,422.148c0-3.707-12.021-6.713-26.85-6.713c-14.829,0-26.85,3.005-26.85,6.713
					c0,0.087,0.013,0.172,0.026,0.258h53.648C315.593,422.32,315.606,422.235,315.606,422.148z"/>
				<path fill="#CF5341" d="M261.932,422.406c0.543,3.587,12.342,6.454,26.824,6.454s26.281-2.867,26.824-6.454H261.932z"/>
			</g>
			<g>
				<path fill="#2D415A" d="M391.158,157.518c-0.756,0-1.547-0.03-2.376-0.094c-6.369-0.49-15.333-7.414-28.231-57.017
					c-6.875-26.443-11.685-53.068-11.731-53.334c-0.328-1.825,0.641-3.636,2.341-4.375c1.703-0.74,3.687-0.212,4.797,1.27
					c0.153,0.204,15.449,20.676,29.111,43.482c19.25,32.133,25.87,52.737,20.238,62.989
					C403.486,153.755,399.565,157.518,391.158,157.518z M360.273,63.813c2.023,9.702,4.797,22.185,8.031,34.62
					c12.96,49.828,20.766,50.99,21.092,51.015c7.033,0.543,8.438-2.019,8.899-2.86c1.852-3.371,3.602-15.481-20.089-55.026
					C372.033,81.257,365.524,71.439,360.273,63.813z"/>
			</g>
			
				<line fill="none" stroke="#FFD161" stroke-width="8" stroke-linecap="round" stroke-linejoin="round" stroke-miterlimit="10" x1="353" y1="77.568" x2="353" y2="450.568"/>
			<path fill="#FF6650" d="M356.351,114.769h-8.264c-3.977,0-7.201-3.224-7.201-7.201V41.422c0-3.977,3.224-7.201,7.201-7.201h8.264
				c3.977,0,7.201,3.224,7.201,7.201v66.146C363.552,111.545,360.328,114.769,356.351,114.769z"/>
			<path fill="#45638A" d="M364.718,120.292H339.72c-3.775,0-6.834-3.06-6.834-6.834v-0.126c0-3.775,3.06-6.834,6.834-6.834h24.998
				c3.775,0,6.834,3.06,6.834,6.834v0.126C371.552,117.232,368.493,120.292,364.718,120.292z"/>
			<g>
				<path fill="#FF6650" d="M379.606,422.148c0-3.707-12.021-6.713-26.85-6.713c-14.829,0-26.85,3.005-26.85,6.713
					c0,0.087,0.013,0.172,0.026,0.258h53.648C379.593,422.32,379.606,422.235,379.606,422.148z"/>
				<path fill="#CF5341" d="M325.932,422.406c0.543,3.587,12.342,6.454,26.824,6.454s26.281-2.867,26.824-6.454H325.932z"/>
			</g>
		</g>
	</g>
	<g id="snowboard">
	</g>
	<g id="snowboading">
	</g>
	<g id="skiing">
	</g>
</g>
<g id="general_travelling">
	<g id="dinner_set">
	</g>
	<g id="polaroid">
	</g>
	<g id="camera">
	</g>
	<g id="calendar">
	</g>
	<g id="calendar_single">
	</g>
	<g id="shopping_bag">
	</g>
	<g id="watch">
	</g>
	<g id="alarm_clock">
	</g>
	<g id="credit_card">
	</g>
	<g id="road_sign">
	</g>
	<g id="hotel">
	</g>
	<g id="money">
	</g>
	<g id="sunglass">
	</g>
	<g id="cocktail">
	</g>
	<g id="compass">
	</g>
	<g id="tent">
	</g>
	<g id="backpack">
	</g>
	<g id="map">
	</g>
	<g id="ticket_1_">
	</g>
	<g id="passport">
	</g>
	<g id="luggage">
	</g>
	<g id="globe">
	</g>
	<g id="suitcase">
	</g>
</g>
<g id="vehicles">
	<g id="trailer">
	</g>
	<g id="airplane">
	</g>
	<g id="yatch">
	</g>
	<g id="taxi">
	</g>
	<g id="hot_air_ballon">
	</g>
	<g id="bus">
	</g>
	<g id="train">
	</g>
</g>
<g id="summer">
	<g id="postcard">
	</g>
	<g id="bikini">
	</g>
	<g id="flipflop">
	</g>
	<g id="plane_around_the_globe">
	</g>
	<g id="binocular">
	</g>
	<g id="beach_table">
	</g>
	<g id="sun_hat">
	</g>
	<g id="beach_bag">
	</g>
	<g id="sea__x26__wave">
	</g>
	<g id="beach">
	</g>
	<g id="beach_ball">
	</g>
	<g id="jetski">
	</g>
	<g id="sandcastle">
	</g>
	<g id="lifeguard_male">
	</g>
	<g id="lifeguard_female">
	</g>
	<g id="lighthouse">
	</g>
	<g id="hammok">
	</g>
	<g id="beach_chair__x26__umbrella">
	</g>
	<g id="lifeguard">
	</g>
	<g id="suncream">
	</g>
	<g id="starfish">
	</g>
	<g id="beach_bar">
	</g>
	<g id="bucket__x26__shovel">
	</g>
	<g id="palm_tree">
	</g>
	<g id="shark_warning">
	</g>
	<g id="surfboard">
	</g>
	<g id="swimming_trunks">
	</g>
	<g id="coconut_drink">
	</g>
	<g id="beach_chair__x26__towel">
	</g>
	<g id="coconut_tree">
	</g>
</g>
</svg>
