<?xml version="1.0" encoding="utf-8"?>
<!-- Generator: Adobe Illustrator 17.0.0, SVG Export Plug-In . SVG Version: 6.00 Build 0)  -->
<!DOCTYPE svg PUBLIC "-//W3C//DTD SVG 1.1//EN" "http://www.w3.org/Graphics/SVG/1.1/DTD/svg11.dtd">
<svg version="1.1" xmlns="http://www.w3.org/2000/svg" xmlns:xlink="http://www.w3.org/1999/xlink" x="0px" y="0px" width="512px"
	 height="512px" viewBox="0 0 512 512" enable-background="new 0 0 512 512" xml:space="preserve">
<g id="famous_places">
	<g id="Pyramid">
	</g>
	<g id="Colloseum">
	</g>
	<g id="Mount_Fuji">
	</g>
	<g id="Great_Wall_of_China">
	</g>
	<g id="Stonehenge">
	</g>
	<g id="Golden_Gate_Bridge">
	</g>
	<g id="Christ_the_Redeemer">
	</g>
	<g id="Statue_of_Liberty">
	</g>
	<g id="Taj_Mahal">
	</g>
	<g id="Eiffel_tower">
	</g>
</g>
<g id="camping">
	<g id="mug">
	</g>
	<g id="hook">
	</g>
	<g id="Swiss_knife">
	</g>
	<g id="flashlight">
	</g>
	<g id="lantern">
	</g>
	<g id="campfire">
	</g>
	<g id="beanie">
	</g>
	<g id="rope">
	</g>
	<g id="boot">
	</g>
	<g id="axe">
	</g>
</g>
<g id="hotel_1_">
	<g id="towel">
	</g>
	<g id="phone">
	</g>
	<g id="pool">
	</g>
	<g id="food_service">
	</g>
	<g id="wifi">
	</g>
	<g id="bed">
	</g>
	<g id="door">
	</g>
	<g id="key">
	</g>
	<g id="do_not_disturb">
	</g>
	<g id="bell">
	</g>
</g>
<g id="winter">
	<g id="snowman">
	</g>
	<g id="snow_mountain">
	</g>
	<g id="reindeer">
	</g>
	<g id="winter_tree">
	</g>
	<g id="lift">
	</g>
	<g id="beanie__x26__google">
	</g>
	<g id="ski">
	</g>
	<g id="snowboard">
	</g>
	<g id="snowboading">
	</g>
	<g id="skiing">
	</g>
</g>
<g id="general_travelling">
	<g id="dinner_set">
	</g>
	<g id="polaroid">
	</g>
	<g id="camera">
	</g>
	<g id="calendar">
	</g>
	<g id="calendar_single">
	</g>
	<g id="shopping_bag">
	</g>
	<g id="watch">
	</g>
	<g id="alarm_clock">
		<g>
			<polygon fill="#FFD161" points="152.692,413.85 133.707,460.452 152.769,460.452 175.341,423.544 			"/>
			<polygon fill="#FFD161" points="359.308,413.85 378.293,460.452 359.23,460.452 336.659,423.544 			"/>
			<rect x="246.949" y="59.818" fill="#1B2736" width="18.102" height="39"/>
			<path fill="#FFD161" d="M271.038,70.818h-30.075c-5.423,0-9.818-4.396-9.818-9.818v0c0-5.423,4.396-9.818,9.818-9.818h30.075
				c5.423,0,9.818,4.396,9.818,9.818v0C280.856,66.423,276.46,70.818,271.038,70.818z"/>
			<g>
				
					<rect x="366.174" y="86.706" transform="matrix(0.7866 0.6174 -0.6174 0.7866 148.9329 -207.5725)" fill="#1B2736" width="17.252" height="49.993"/>
				<path fill="#FFD161" d="M424.913,87.656L386.25,57.311c-12.478-9.793-30.532-7.617-40.325,4.86l-9.266,11.806l83.849,65.81
					l9.266-11.806C439.567,115.504,437.391,97.45,424.913,87.656z"/>
				
					<rect x="128.574" y="86.706" transform="matrix(-0.7866 0.6174 -0.6174 -0.7866 314.0939 114.8631)" fill="#1B2736" width="17.252" height="49.993"/>
				<path fill="#FFD161" d="M87.087,87.656l38.663-30.346c12.478-9.793,30.532-7.617,40.325,4.86l9.266,11.806l-83.849,65.81
					l-9.266-11.806C72.433,115.504,74.609,97.45,87.087,87.656z"/>
			</g>
			<circle fill="#2D415A" cx="256" cy="266.825" r="186.949"/>
			<circle fill="#1B2736" cx="256" cy="266.825" r="162.594"/>
			<g>
				<circle fill="#E3E3E3" cx="256" cy="266.825" r="147.181"/>
				<circle fill="#FFFFFF" cx="266.097" cy="254.401" r="132.365"/>
			</g>
			<circle fill="#1B2736" cx="256" cy="266.825" r="28.481"/>
			<g>
				<g>
					<path fill="#FF6650" d="M263.77,272.819c-0.404,0-0.815-0.062-1.221-0.191l-87.46-28c-2.104-0.674-3.264-2.925-2.59-5.029
						s2.928-3.266,5.029-2.59l87.46,28c2.104,0.674,3.264,2.925,2.59,5.029C267.035,271.736,265.463,272.819,263.77,272.819z"/>
				</g>
			</g>
			<g>
				<path fill="#2D415A" d="M339.793,319.759c-1.725,0-3.477-0.373-5.138-1.162l-82.031-38.938
					c-5.987-2.842-8.537-9.999-5.695-15.986c2.843-5.988,10.002-8.539,15.986-5.695l82.031,38.938
					c5.987,2.842,8.537,9.999,5.695,15.986C348.588,317.228,344.282,319.759,339.793,319.759z"/>
			</g>
			<g>
				<path fill="#2D415A" d="M258,275.818c-3.866,0-7-3.134-7-7v-110c0-3.866,3.134-7,7-7s7,3.134,7,7v110
					C265,272.685,261.866,275.818,258,275.818z"/>
			</g>
			<g>
				
					<line fill="none" stroke="#1B2736" stroke-width="12" stroke-linecap="round" stroke-linejoin="round" stroke-miterlimit="10" x1="256" y1="145.452" x2="256" y2="130.452"/>
				
					<line fill="none" stroke="#1B2736" stroke-width="12" stroke-linecap="round" stroke-linejoin="round" stroke-miterlimit="10" x1="256" y1="403.452" x2="256" y2="388.452"/>
				
					<line fill="none" stroke="#1B2736" stroke-width="12" stroke-linecap="round" stroke-linejoin="round" stroke-miterlimit="10" x1="379" y1="269.452" x2="394" y2="269.452"/>
				
					<line fill="none" stroke="#1B2736" stroke-width="12" stroke-linecap="round" stroke-linejoin="round" stroke-miterlimit="10" x1="121" y1="269.452" x2="136" y2="269.452"/>
			</g>
		</g>
	</g>
	<g id="credit_card">
	</g>
	<g id="road_sign">
	</g>
	<g id="hotel">
	</g>
	<g id="money">
	</g>
	<g id="sunglass">
	</g>
	<g id="cocktail">
	</g>
	<g id="compass">
	</g>
	<g id="tent">
	</g>
	<g id="backpack">
	</g>
	<g id="map">
	</g>
	<g id="ticket_1_">
	</g>
	<g id="passport">
	</g>
	<g id="luggage">
	</g>
	<g id="globe">
	</g>
	<g id="suitcase">
	</g>
</g>
<g id="vehicles">
	<g id="trailer">
	</g>
	<g id="airplane">
	</g>
	<g id="yatch">
	</g>
	<g id="taxi">
	</g>
	<g id="hot_air_ballon">
	</g>
	<g id="bus">
	</g>
	<g id="train">
	</g>
</g>
<g id="summer">
	<g id="postcard">
	</g>
	<g id="bikini">
	</g>
	<g id="flipflop">
	</g>
	<g id="plane_around_the_globe">
	</g>
	<g id="binocular">
	</g>
	<g id="beach_table">
	</g>
	<g id="sun_hat">
	</g>
	<g id="beach_bag">
	</g>
	<g id="sea__x26__wave">
	</g>
	<g id="beach">
	</g>
	<g id="beach_ball">
	</g>
	<g id="jetski">
	</g>
	<g id="sandcastle">
	</g>
	<g id="lifeguard_male">
	</g>
	<g id="lifeguard_female">
	</g>
	<g id="lighthouse">
	</g>
	<g id="hammok">
	</g>
	<g id="beach_chair__x26__umbrella">
	</g>
	<g id="lifeguard">
	</g>
	<g id="suncream">
	</g>
	<g id="starfish">
	</g>
	<g id="beach_bar">
	</g>
	<g id="bucket__x26__shovel">
	</g>
	<g id="palm_tree">
	</g>
	<g id="shark_warning">
	</g>
	<g id="surfboard">
	</g>
	<g id="swimming_trunks">
	</g>
	<g id="coconut_drink">
	</g>
	<g id="beach_chair__x26__towel">
	</g>
	<g id="coconut_tree">
	</g>
</g>
</svg>
