<?xml version="1.0" encoding="utf-8"?>
<!-- Generator: Adobe Illustrator 17.0.0, SVG Export Plug-In . SVG Version: 6.00 Build 0)  -->
<!DOCTYPE svg PUBLIC "-//W3C//DTD SVG 1.1//EN" "http://www.w3.org/Graphics/SVG/1.1/DTD/svg11.dtd">
<svg version="1.1" xmlns="http://www.w3.org/2000/svg" xmlns:xlink="http://www.w3.org/1999/xlink" x="0px" y="0px" width="512px"
	 height="512px" viewBox="0 0 512 512" enable-background="new 0 0 512 512" xml:space="preserve">
<g id="famous_places">
	<g id="Pyramid">
	</g>
	<g id="Colloseum">
	</g>
	<g id="Mount_Fuji">
	</g>
	<g id="Great_Wall_of_China">
	</g>
	<g id="Stonehenge">
	</g>
	<g id="Golden_Gate_Bridge">
	</g>
	<g id="Christ_the_Redeemer">
		<g>
			<g>
				<rect x="204" y="316.799" fill="#BBC4C7" width="12" height="146"/>
				<rect x="216" y="316.799" fill="#DCE7EB" width="14" height="146"/>
				<rect x="230" y="316.799" fill="#BBC4C7" width="13" height="146"/>
				<rect x="243" y="316.799" fill="#DCE7EB" width="13" height="146"/>
				<rect x="256" y="316.799" fill="#BBC4C7" width="13" height="146"/>
				<rect x="269" y="316.799" fill="#DCE7EB" width="14" height="146"/>
				<rect x="283" y="316.799" fill="#BBC4C7" width="12" height="146"/>
				<rect x="295" y="316.799" fill="#DCE7EB" width="13" height="146"/>
			</g>
			<g>
				<path fill="#ABB3B6" d="M284,111.994c0,13.699-11.106,24.805-24.805,24.805h-4.39c-13.699,0-24.805-11.106-24.805-24.805v-49.39
					c0-13.699,11.106-24.805,24.805-24.805h4.39c13.699,0,24.805,11.106,24.805,24.805V111.994z"/>
			</g>
			<rect x="239" y="97.799" fill="#BBC4C7" width="31" height="33"/>
			<path fill="#CED8DB" d="M256.01,116.799H40.498c0,13,50.502,15.809,50.502,15.809v5.976l39.729,5.635l38.346,28.768L198,189.729
				v152.705l117,28.681V189.729l28.644-16.742l38.152-28.768L422,138.585v-5.976c0,0,49.502-2.809,49.502-15.809H256.01z"/>
			<polygon fill="#BBC4C7" points="194,264.144 194,288.949 225.006,276.03 			"/>
			<path fill="#BBC4C7" d="M148.254,116.799c0,0,29.746,60.528,49.746,65.954v14.728c0,0-42.76-20.682-57.488-80.682H148.254z"/>
			<polygon fill="#DCE7EB" points="197.098,163.46 183.145,265.694 225.004,276.03 209.501,169.058 			"/>
			<path fill="#BBC4C7" d="M221.386,116.799c0,0,31.523,52.743,72.348,40.341l-3.101-12.936c0,0-40.825-11.405-39.791-27.405
				H221.386z"/>
			<path fill="#CED8DB" d="M257,49.267l-21,17.509V99.1c0,0,4.165,10.101,21,10.101S278,99.1,278,99.1V66.776L257,49.267z"/>
			<path fill="#BBC4C7" d="M118.032,116.799c0,0,28.681,53.518,50.773,47.317l10.465,14.712c0,0-51.935,1.971-71.314-62.029H118.032
				z"/>
			<path fill="#BBC4C7" d="M363.746,116.799c0,0-29.746,60.528-48.746,65.954v14.728c0,0,41.76-20.682,56.488-80.682H363.746z"/>
			<path fill="#BBC4C7" d="M393.968,116.799c0,0-28.681,53.518-50.773,47.317l-10.465,14.712c0,0,51.935,1.971,71.314-62.029
				H393.968z"/>
			<path fill="#BBC4C7" d="M183.145,116.799c0,0,4.651,111.676,113.172,62.056l-6.976-13.205c0,0-72.864,18.149-88.368-48.851
				H183.145z"/>
			<polygon fill="#DCE7EB" points="284,116.799 284,307.553 323,320.73 323,116.799 			"/>
			<polygon fill="#BBC4C7" points="218.027,178.799 261.4,358.043 288.615,364.645 225.004,178.799 			"/>
			<rect x="174" y="462.799" fill="#ABB3B6" width="163" height="26"/>
		</g>
	</g>
	<g id="Statue_of_Liberty">
	</g>
	<g id="Taj_Mahal">
	</g>
	<g id="Eiffel_tower">
	</g>
</g>
<g id="camping">
	<g id="mug">
	</g>
	<g id="hook">
	</g>
	<g id="Swiss_knife">
	</g>
	<g id="flashlight">
	</g>
	<g id="lantern">
	</g>
	<g id="campfire">
	</g>
	<g id="beanie">
	</g>
	<g id="rope">
	</g>
	<g id="boot">
	</g>
	<g id="axe">
	</g>
</g>
<g id="hotel_1_">
	<g id="towel">
	</g>
	<g id="phone">
	</g>
	<g id="pool">
	</g>
	<g id="food_service">
	</g>
	<g id="wifi">
	</g>
	<g id="bed">
	</g>
	<g id="door">
	</g>
	<g id="key">
	</g>
	<g id="do_not_disturb">
	</g>
	<g id="bell">
	</g>
</g>
<g id="winter">
	<g id="snowman">
	</g>
	<g id="snow_mountain">
	</g>
	<g id="reindeer">
	</g>
	<g id="winter_tree">
	</g>
	<g id="lift">
	</g>
	<g id="beanie__x26__google">
	</g>
	<g id="ski">
	</g>
	<g id="snowboard">
	</g>
	<g id="snowboading">
	</g>
	<g id="skiing">
	</g>
</g>
<g id="general_travelling">
	<g id="dinner_set">
	</g>
	<g id="polaroid">
	</g>
	<g id="camera">
	</g>
	<g id="calendar">
	</g>
	<g id="calendar_single">
	</g>
	<g id="shopping_bag">
	</g>
	<g id="watch">
	</g>
	<g id="alarm_clock">
	</g>
	<g id="credit_card">
	</g>
	<g id="road_sign">
	</g>
	<g id="hotel">
	</g>
	<g id="money">
	</g>
	<g id="sunglass">
	</g>
	<g id="cocktail">
	</g>
	<g id="compass">
	</g>
	<g id="tent">
	</g>
	<g id="backpack">
	</g>
	<g id="map">
	</g>
	<g id="ticket_1_">
	</g>
	<g id="passport">
	</g>
	<g id="luggage">
	</g>
	<g id="globe">
	</g>
	<g id="suitcase">
	</g>
</g>
<g id="vehicles">
	<g id="trailer">
	</g>
	<g id="airplane">
	</g>
	<g id="yatch">
	</g>
	<g id="taxi">
	</g>
	<g id="hot_air_ballon">
	</g>
	<g id="bus">
	</g>
	<g id="train">
	</g>
</g>
<g id="summer">
	<g id="postcard">
	</g>
	<g id="bikini">
	</g>
	<g id="flipflop">
	</g>
	<g id="plane_around_the_globe">
	</g>
	<g id="binocular">
	</g>
	<g id="beach_table">
	</g>
	<g id="sun_hat">
	</g>
	<g id="beach_bag">
	</g>
	<g id="sea__x26__wave">
	</g>
	<g id="beach">
	</g>
	<g id="beach_ball">
	</g>
	<g id="jetski">
	</g>
	<g id="sandcastle">
	</g>
	<g id="lifeguard_male">
	</g>
	<g id="lifeguard_female">
	</g>
	<g id="lighthouse">
	</g>
	<g id="hammok">
	</g>
	<g id="beach_chair__x26__umbrella">
	</g>
	<g id="lifeguard">
	</g>
	<g id="suncream">
	</g>
	<g id="starfish">
	</g>
	<g id="beach_bar">
	</g>
	<g id="bucket__x26__shovel">
	</g>
	<g id="palm_tree">
	</g>
	<g id="shark_warning">
	</g>
	<g id="surfboard">
	</g>
	<g id="swimming_trunks">
	</g>
	<g id="coconut_drink">
	</g>
	<g id="beach_chair__x26__towel">
	</g>
	<g id="coconut_tree">
	</g>
</g>
</svg>
