<?xml version="1.0" encoding="utf-8"?>
<!-- Generator: Adobe Illustrator 17.0.0, SVG Export Plug-In . SVG Version: 6.00 Build 0)  -->
<!DOCTYPE svg PUBLIC "-//W3C//DTD SVG 1.1//EN" "http://www.w3.org/Graphics/SVG/1.1/DTD/svg11.dtd">
<svg version="1.1" xmlns="http://www.w3.org/2000/svg" xmlns:xlink="http://www.w3.org/1999/xlink" x="0px" y="0px" width="512px"
	 height="512px" viewBox="0 0 512 512" enable-background="new 0 0 512 512" xml:space="preserve">
<g id="famous_places">
	<g id="Pyramid">
	</g>
	<g id="Colloseum">
	</g>
	<g id="Mount_Fuji">
	</g>
	<g id="Great_Wall_of_China">
	</g>
	<g id="Stonehenge">
	</g>
	<g id="Golden_Gate_Bridge">
	</g>
	<g id="Christ_the_Redeemer">
	</g>
	<g id="Statue_of_Liberty">
	</g>
	<g id="Taj_Mahal">
	</g>
	<g id="Eiffel_tower">
	</g>
</g>
<g id="camping">
	<g id="mug">
	</g>
	<g id="hook">
	</g>
	<g id="Swiss_knife">
	</g>
	<g id="flashlight">
	</g>
	<g id="lantern">
	</g>
	<g id="campfire">
	</g>
	<g id="beanie">
	</g>
	<g id="rope">
	</g>
	<g id="boot">
	</g>
	<g id="axe">
	</g>
</g>
<g id="hotel_1_">
	<g id="towel">
	</g>
	<g id="phone">
	</g>
	<g id="pool">
	</g>
	<g id="food_service">
	</g>
	<g id="wifi">
	</g>
	<g id="bed">
	</g>
	<g id="door">
	</g>
	<g id="key">
	</g>
	<g id="do_not_disturb">
	</g>
	<g id="bell">
	</g>
</g>
<g id="winter">
	<g id="snowman">
	</g>
	<g id="snow_mountain">
	</g>
	<g id="reindeer">
	</g>
	<g id="winter_tree">
	</g>
	<g id="lift">
	</g>
	<g id="beanie__x26__google">
	</g>
	<g id="ski">
	</g>
	<g id="snowboard">
	</g>
	<g id="snowboading">
	</g>
	<g id="skiing">
	</g>
</g>
<g id="general_travelling">
	<g id="dinner_set">
	</g>
	<g id="polaroid">
	</g>
	<g id="camera">
	</g>
	<g id="calendar">
	</g>
	<g id="calendar_single">
	</g>
	<g id="shopping_bag">
	</g>
	<g id="watch">
	</g>
	<g id="alarm_clock">
	</g>
	<g id="credit_card">
	</g>
	<g id="road_sign">
	</g>
	<g id="hotel">
	</g>
	<g id="money">
	</g>
	<g id="sunglass">
	</g>
	<g id="cocktail">
	</g>
	<g id="compass">
	</g>
	<g id="tent">
	</g>
	<g id="backpack">
	</g>
	<g id="map">
	</g>
	<g id="ticket_1_">
	</g>
	<g id="passport">
	</g>
	<g id="luggage">
	</g>
	<g id="globe">
	</g>
	<g id="suitcase">
	</g>
</g>
<g id="vehicles">
	<g id="trailer">
	</g>
	<g id="airplane">
	</g>
	<g id="yatch">
		<g>
			<polygon fill="#E3E3E3" points="340,44.071 88.444,295.459 340,295.956 			"/>
			<polygon fill="#E3E3E3" points="349,38.937 349,287.937 446,287.937 			"/>
			<polygon fill="#BABABA" points="345,44.071 262.544,295.803 345,295.937 349,287.937 397,287.937 			"/>
			
				<polyline fill="none" stroke="#E3E3E3" stroke-width="10" stroke-linecap="round" stroke-linejoin="round" stroke-miterlimit="10" points="
				212,309.937 54,309.937 66,368.25 			"/>
			<g>
				
					<line fill="none" stroke="#E3E3E3" stroke-width="10" stroke-linecap="round" stroke-linejoin="round" stroke-miterlimit="10" x1="86" y1="366.937" x2="86" y2="309.937"/>
				
					<line fill="none" stroke="#E3E3E3" stroke-width="10" stroke-linecap="round" stroke-linejoin="round" stroke-miterlimit="10" x1="128" y1="366.937" x2="128" y2="309.937"/>
				
					<line fill="none" stroke="#E3E3E3" stroke-width="10" stroke-linecap="round" stroke-linejoin="round" stroke-miterlimit="10" x1="170" y1="366.937" x2="170" y2="309.937"/>
				
					<line fill="none" stroke="#E3E3E3" stroke-width="10" stroke-linecap="round" stroke-linejoin="round" stroke-miterlimit="10" x1="212" y1="366.937" x2="212" y2="309.937"/>
			</g>
			<g>
				<path fill="#2D415A" d="M344,383.937c-2.762,0-5-2.238-5-5v-340c0-2.762,2.238-5,5-5s5,2.238,5,5v340
					C349,381.699,346.762,383.937,344,383.937z"/>
			</g>
			<path fill="#FF6650" d="M224.244,378.08l40.582-55.161c5.464-7.428,13.074-11.637,21.035-11.637h105.442
				c15.857,0,28.757,16.378,28.923,36.72l0.497,61.098c0.172,21.104-13.393,38.142-29.836,37.476l-146.52-5.937
				C219.444,439.628,207.13,401.343,224.244,378.08z"/>
			<g>
				<g>
					<circle fill="#2D415A" cx="289.5" cy="333.437" r="13.5"/>
					<path fill="#6FEBE7" d="M289.5,341.937c-4.687,0-8.5-3.813-8.5-8.5s3.813-8.5,8.5-8.5s8.5,3.813,8.5,8.5
						S294.187,341.937,289.5,341.937z"/>
				</g>
				<g>
					<circle fill="#2D415A" cx="336.5" cy="333.437" r="13.5"/>
					<path fill="#6FEBE7" d="M336.5,341.937c-4.687,0-8.5-3.813-8.5-8.5s3.813-8.5,8.5-8.5s8.5,3.813,8.5,8.5
						S341.187,341.937,336.5,341.937z"/>
				</g>
				<g>
					<circle fill="#2D415A" cx="383.5" cy="333.437" r="13.5"/>
					<path fill="#6FEBE7" d="M383.5,341.937c-4.687,0-8.5-3.813-8.5-8.5s3.813-8.5,8.5-8.5s8.5,3.813,8.5,8.5
						S388.187,341.937,383.5,341.937z"/>
				</g>
			</g>
			<path fill="#2D415A" d="M456.941,370.674c3.835-9.13-3.225-19.086-13.558-19.095l-375.212-0.354
				c-11.561-0.01-18.558,12.194-12.32,21.456l19.676,29.257h368.302L456.941,370.674z"/>
			<path fill="#2D415A" d="M123.411,472.937h290.518c0.12,0,0.239-0.558,0.345-0.81l12.652-30.19H102.628L123.411,472.937z"/>
			<polygon fill="#E3E3E3" points="90.76,424.937 96.467,432.937 430.769,432.937 434.328,424.937 			"/>
			<polygon fill="#FF6650" points="443.829,401.837 75.527,401.837 90.76,424.454 434.328,424.454 			"/>
			<polygon fill="#2FB49F" points="102.628,442.073 426.926,442.073 430.769,432.927 96.467,432.927 			"/>
			<path fill="#182330" d="M124.491,474.537c2.688,3.99,7.325,6.4,12.306,6.4h263.905c5.693,0,10.833-3,13.227-8H123.411
				L124.491,474.537z"/>
			<g>
				<path fill="#182330" d="M420.724,392.937H98.444c-0.606,0-1.181-0.275-1.561-0.749l-22.444-28
					c-0.481-0.601-0.575-1.423-0.242-2.116s1.033-1.135,1.803-1.135h362c0.725,0,1.394,0.393,1.746,1.025
					c0.354,0.633,0.337,1.408-0.044,2.024l-17.276,28C422.062,392.578,421.417,392.937,420.724,392.937z M99.404,388.937h320.203
					l14.809-24H80.166L99.404,388.937z"/>
			</g>
			<g>
				<path fill="#2D415A" d="M340,300.937H88c-2.762,0-5-2.238-5-5s2.238-5,5-5h252c2.762,0,5,2.238,5,5S342.762,300.937,340,300.937
					z"/>
			</g>
			<g>
				<path fill="#2D415A" d="M446,292.937h-97c-2.762,0-5-2.238-5-5s2.238-5,5-5h97c2.762,0,5,2.238,5,5S448.762,292.937,446,292.937
					z"/>
			</g>
		</g>
		<polygon fill="#FF6650" points="344,33.937 344,11.937 392,22.937 		"/>
	</g>
	<g id="taxi">
	</g>
	<g id="hot_air_ballon">
	</g>
	<g id="bus">
	</g>
	<g id="train">
	</g>
</g>
<g id="summer">
	<g id="postcard">
	</g>
	<g id="bikini">
	</g>
	<g id="flipflop">
	</g>
	<g id="plane_around_the_globe">
	</g>
	<g id="binocular">
	</g>
	<g id="beach_table">
	</g>
	<g id="sun_hat">
	</g>
	<g id="beach_bag">
	</g>
	<g id="sea__x26__wave">
	</g>
	<g id="beach">
	</g>
	<g id="beach_ball">
	</g>
	<g id="jetski">
	</g>
	<g id="sandcastle">
	</g>
	<g id="lifeguard_male">
	</g>
	<g id="lifeguard_female">
	</g>
	<g id="lighthouse">
	</g>
	<g id="hammok">
	</g>
	<g id="beach_chair__x26__umbrella">
	</g>
	<g id="lifeguard">
	</g>
	<g id="suncream">
	</g>
	<g id="starfish">
	</g>
	<g id="beach_bar">
	</g>
	<g id="bucket__x26__shovel">
	</g>
	<g id="palm_tree">
	</g>
	<g id="shark_warning">
	</g>
	<g id="surfboard">
	</g>
	<g id="swimming_trunks">
	</g>
	<g id="coconut_drink">
	</g>
	<g id="beach_chair__x26__towel">
	</g>
	<g id="coconut_tree">
	</g>
</g>
</svg>
