<?xml version="1.0" encoding="utf-8"?>
<!-- Generator: Adobe Illustrator 17.0.0, SVG Export Plug-In . SVG Version: 6.00 Build 0)  -->
<!DOCTYPE svg PUBLIC "-//W3C//DTD SVG 1.1//EN" "http://www.w3.org/Graphics/SVG/1.1/DTD/svg11.dtd">
<svg version="1.1" xmlns="http://www.w3.org/2000/svg" xmlns:xlink="http://www.w3.org/1999/xlink" x="0px" y="0px" width="512px"
	 height="512px" viewBox="0 0 512 512" enable-background="new 0 0 512 512" xml:space="preserve">
<g id="famous_places">
	<g id="Pyramid">
	</g>
	<g id="Colloseum">
	</g>
	<g id="Mount_Fuji">
	</g>
	<g id="Great_Wall_of_China">
	</g>
	<g id="Stonehenge">
	</g>
	<g id="Golden_Gate_Bridge">
	</g>
	<g id="Christ_the_Redeemer">
	</g>
	<g id="Statue_of_Liberty">
	</g>
	<g id="Taj_Mahal">
	</g>
	<g id="Eiffel_tower">
	</g>
</g>
<g id="camping">
	<g id="mug">
	</g>
	<g id="hook">
	</g>
	<g id="Swiss_knife">
	</g>
	<g id="flashlight">
	</g>
	<g id="lantern">
	</g>
	<g id="campfire">
	</g>
	<g id="beanie">
	</g>
	<g id="rope">
	</g>
	<g id="boot">
	</g>
	<g id="axe">
	</g>
</g>
<g id="hotel_1_">
	<g id="towel">
	</g>
	<g id="phone">
	</g>
	<g id="pool">
	</g>
	<g id="food_service">
		<g>
			<path fill="#2D3E52" d="M243.178,92.702c-5.566-8.884-10.312-12.036-10.312-24.645V44.871h-4.829h-0.516h-5.366v23.187
				c0,12.609-5.083,15.761-10.649,24.645c-5.566,8.884-5.952,19.487-5.952,19.487v55.594c0,8.856,19.352,7.659,21.822,7.472
				c2.47,0.188,21.822,1.385,21.822-7.472v-55.594C249.199,112.189,248.744,101.586,243.178,92.702"/>
			<rect x="212.21" y="111.074" fill="#E3E3E3" width="30.333" height="49.676"/>
			<path fill="#212E3D" d="M243.178,92.702c-5.566-8.884-10.312-12.036-10.312-24.645V44.871h-4.016v23.187
				c0,12.609,5.013,15.761,10.58,24.645c5.566,8.884,6.289,19.487,6.289,19.487v55.594c0,6.053-9.179,7.41-15.715,7.602
				c5.991,0.171,19.196-0.274,19.196-7.602v-55.594C249.199,112.189,248.744,101.586,243.178,92.702"/>
			<g>
				<circle fill="none" stroke="#A6A6A6" stroke-width="2" stroke-miterlimit="10" cx="173.5" cy="101" r="7"/>
				<path fill="#A6A6A6" d="M219,159.452c0-0.388-0.315-0.702-0.702-0.702h-89.595c-0.388,0-0.702,0.315-0.702,0.702v4.595
					c0,0.388,0.315,0.702,0.702,0.702h89.595c0.388,0,0.702-0.315,0.702-0.702V159.452z"/>
				<path fill="#A6A6A6" d="M113.483,173.074c0.768,1.636,2.425,2.676,4.352,2.676h112.251c1.927,0,3.584-1.04,4.352-2.676H113.483z
					"/>
				<path fill="#E3E3E3" d="M113,171.035v-1.743c0-2.656,2.178-4.378,4.835-4.378h112.251c2.656,0,4.914,1.721,4.914,4.378v1.743
					c0,0.73-0.272,1.879-0.563,1.879H113.483C113.192,172.914,113,171.765,113,171.035z"/>
				<g>
					<path fill="#E3E3E3" d="M176.515,114.149h-6.689c-1.617,0-2.927-1.31-2.927-2.927v-0.295c0-1.617,1.31-2.927,2.927-2.927h6.689
						c1.617,0,2.927,1.31,2.927,2.927v0.295C179.442,112.838,178.132,114.149,176.515,114.149z"/>
					<path fill="#E3E3E3" d="M207.477,126.387c-9.069-9.06-21.135-14.05-33.977-14.05c-12.842,0-24.908,4.99-33.977,14.05
						c-9.076,9.067-14.074,21.037-14.074,33.895c0,0.407,0.33,0.632,0.738,0.632h94.625c0.407,0,0.738-0.225,0.738-0.632
						C221.55,147.423,216.552,135.454,207.477,126.387z"/>
					<path fill="#A6A6A6" d="M207.477,126.387c-9.069-9.06-21.135-14.05-33.977-14.05c-3.068,0-6.09,0.288-9.039,0.845
						c9.396,1.774,18.036,6.309,24.938,13.205c9.075,9.067,14.074,20.955,14.074,33.813c0,0.407-0.33,0.55-0.738,0.55h18.077
						c0.407,0,0.738-0.143,0.738-0.55C221.55,147.341,216.552,135.454,207.477,126.387z"/>
				</g>
			</g>
			<path fill="#E3E3E3" d="M258.095,134.914c6.023,0,10.905-4.797,10.905-10.82v-24.18h-23v24.18c0,5.569,4.552,9.941,10,10.569
				v37.086l-8,4.164h9h9l-8-4.164v-36.836H258.095z"/>
			<path fill="#E3E3E3" d="M286.095,134.914c6.023,0,10.905-4.797,10.905-10.82v-24.18h-23v24.18c0,5.569,4.552,9.941,10,10.569
				v37.086l-8,4.164h9h9l-8-4.164v-36.836H286.095z"/>
			<rect x="126.92" y="375.75" fill="#A6A6A6" width="203.551" height="28"/>
			<g>
				<path fill="#E3E3E3" d="M331,181.75c-3.866,0-7-3.134-7-7v-63c0-9.339,6.897-26.836,33-26.836h49c3.866,0,7,3.134,7,7
					s-3.134,7-7,7h-49c-8.262,0-13.941,2.211-16.881,6.732c-1.961,3.018-2.119,6.074-2.119,6.103v63
					C338,178.616,334.866,181.75,331,181.75z"/>
			</g>
			<circle fill="#2D415A" cx="141.25" cy="451" r="21.25"/>
			<circle fill="#A6A6A6" cx="141.25" cy="451" r="14"/>
			<g>
				<path fill="#E3E3E3" d="M141,454.75c-3.866,0-7-3.134-7-7v-11.377l-13.747-5.866c-2.579-1.101-4.253-3.635-4.253-6.438V227.75
					c0-3.866,3.134-7,7-7s7,3.134,7,7v191.695l13.747,5.866c2.579,1.101,4.253,3.635,4.253,6.438v16
					C148,451.616,144.866,454.75,141,454.75z"/>
			</g>
			<circle fill="#2D415A" cx="349.25" cy="451" r="21.25"/>
			<circle fill="#A6A6A6" cx="349.25" cy="451" r="14"/>
			<g>
				<path fill="#E3E3E3" d="M349,454.75c-3.866,0-7-3.134-7-7v-11.377l-13.747-5.866c-2.579-1.101-4.253-3.635-4.253-6.438V227.75
					c0-3.866,3.134-7,7-7s7,3.134,7,7v191.695l13.747,5.866c2.579,1.101,4.253,3.635,4.253,6.438v16
					C356,451.616,352.866,454.75,349,454.75z"/>
			</g>
			<path fill="#2D415A" d="M423.17,103.75h-54c-3.038,0-5.5-2.462-5.5-5.5v-11c0-3.038,2.462-5.5,5.5-5.5h54
				c3.038,0,5.5,2.462,5.5,5.5v11C428.67,101.288,426.208,103.75,423.17,103.75z"/>
			<g>
				<path fill="#FFD161" d="M371.424,366.475H83.33V213.527c0-21.229,17.209-38.438,38.438-38.438h211.218
					c21.229,0,38.438,17.209,38.438,38.438V366.475z"/>
				<polygon fill="#FF9B29" points="124,366.914 140.5,271.221 158.5,366.914 				"/>
				<polygon fill="#FF9B29" points="283,366.914 299.5,271.221 317.5,366.914 				"/>
			</g>
			<path fill="#FF6650" d="M232.296,59.417h-10.195c-1.235,0-2.236-1.001-2.236-2.236V41.986c0-1.235,1.001-2.236,2.236-2.236
				h10.195c1.235,0,2.236,1.001,2.236,2.236v15.195C234.532,58.416,233.531,59.417,232.296,59.417z"/>
			<rect x="219.865" y="44.871" fill="#FFD161" width="14.667" height="4.712"/>
		</g>
	</g>
	<g id="wifi">
	</g>
	<g id="bed">
	</g>
	<g id="door">
	</g>
	<g id="key">
	</g>
	<g id="do_not_disturb">
	</g>
	<g id="bell">
	</g>
</g>
<g id="winter">
	<g id="snowman">
	</g>
	<g id="snow_mountain">
	</g>
	<g id="reindeer">
	</g>
	<g id="winter_tree">
	</g>
	<g id="lift">
	</g>
	<g id="beanie__x26__google">
	</g>
	<g id="ski">
	</g>
	<g id="snowboard">
	</g>
	<g id="snowboading">
	</g>
	<g id="skiing">
	</g>
</g>
<g id="general_travelling">
	<g id="dinner_set">
	</g>
	<g id="polaroid">
	</g>
	<g id="camera">
	</g>
	<g id="calendar">
	</g>
	<g id="calendar_single">
	</g>
	<g id="shopping_bag">
	</g>
	<g id="watch">
	</g>
	<g id="alarm_clock">
	</g>
	<g id="credit_card">
	</g>
	<g id="road_sign">
	</g>
	<g id="hotel">
	</g>
	<g id="money">
	</g>
	<g id="sunglass">
	</g>
	<g id="cocktail">
	</g>
	<g id="compass">
	</g>
	<g id="tent">
	</g>
	<g id="backpack">
	</g>
	<g id="map">
	</g>
	<g id="ticket_1_">
	</g>
	<g id="passport">
	</g>
	<g id="luggage">
	</g>
	<g id="globe">
	</g>
	<g id="suitcase">
	</g>
</g>
<g id="vehicles">
	<g id="trailer">
	</g>
	<g id="airplane">
	</g>
	<g id="yatch">
	</g>
	<g id="taxi">
	</g>
	<g id="hot_air_ballon">
	</g>
	<g id="bus">
	</g>
	<g id="train">
	</g>
</g>
<g id="summer">
	<g id="postcard">
	</g>
	<g id="bikini">
	</g>
	<g id="flipflop">
	</g>
	<g id="plane_around_the_globe">
	</g>
	<g id="binocular">
	</g>
	<g id="beach_table">
	</g>
	<g id="sun_hat">
	</g>
	<g id="beach_bag">
	</g>
	<g id="sea__x26__wave">
	</g>
	<g id="beach">
	</g>
	<g id="beach_ball">
	</g>
	<g id="jetski">
	</g>
	<g id="sandcastle">
	</g>
	<g id="lifeguard_male">
	</g>
	<g id="lifeguard_female">
	</g>
	<g id="lighthouse">
	</g>
	<g id="hammok">
	</g>
	<g id="beach_chair__x26__umbrella">
	</g>
	<g id="lifeguard">
	</g>
	<g id="suncream">
	</g>
	<g id="starfish">
	</g>
	<g id="beach_bar">
	</g>
	<g id="bucket__x26__shovel">
	</g>
	<g id="palm_tree">
	</g>
	<g id="shark_warning">
	</g>
	<g id="surfboard">
	</g>
	<g id="swimming_trunks">
	</g>
	<g id="coconut_drink">
	</g>
	<g id="beach_chair__x26__towel">
	</g>
	<g id="coconut_tree">
	</g>
</g>
</svg>
