<?xml version="1.0" encoding="utf-8"?>
<!-- Generator: Adobe Illustrator 17.0.0, SVG Export Plug-In . SVG Version: 6.00 Build 0)  -->
<!DOCTYPE svg PUBLIC "-//W3C//DTD SVG 1.1//EN" "http://www.w3.org/Graphics/SVG/1.1/DTD/svg11.dtd">
<svg version="1.1" xmlns="http://www.w3.org/2000/svg" xmlns:xlink="http://www.w3.org/1999/xlink" x="0px" y="0px" width="512px"
	 height="512px" viewBox="0 0 512 512" enable-background="new 0 0 512 512" xml:space="preserve">
<g id="famous_places">
	<g id="Pyramid">
	</g>
	<g id="Colloseum">
	</g>
	<g id="Mount_Fuji">
	</g>
	<g id="Great_Wall_of_China">
	</g>
	<g id="Stonehenge">
	</g>
	<g id="Golden_Gate_Bridge">
	</g>
	<g id="Christ_the_Redeemer">
	</g>
	<g id="Statue_of_Liberty">
	</g>
	<g id="Taj_Mahal">
	</g>
	<g id="Eiffel_tower">
	</g>
</g>
<g id="camping">
	<g id="mug">
	</g>
	<g id="hook">
	</g>
	<g id="Swiss_knife">
	</g>
	<g id="flashlight">
	</g>
	<g id="lantern">
	</g>
	<g id="campfire">
	</g>
	<g id="beanie">
	</g>
	<g id="rope">
	</g>
	<g id="boot">
	</g>
	<g id="axe">
	</g>
</g>
<g id="hotel_1_">
	<g id="towel">
	</g>
	<g id="phone">
	</g>
	<g id="pool">
	</g>
	<g id="food_service">
	</g>
	<g id="wifi">
	</g>
	<g id="bed">
	</g>
	<g id="door">
	</g>
	<g id="key">
	</g>
	<g id="do_not_disturb">
	</g>
	<g id="bell">
	</g>
</g>
<g id="winter">
	<g id="snowman">
	</g>
	<g id="snow_mountain">
	</g>
	<g id="reindeer">
	</g>
	<g id="winter_tree">
	</g>
	<g id="lift">
	</g>
	<g id="beanie__x26__google">
	</g>
	<g id="ski">
	</g>
	<g id="snowboard">
	</g>
	<g id="snowboading">
	</g>
	<g id="skiing">
	</g>
</g>
<g id="general_travelling">
	<g id="dinner_set">
	</g>
	<g id="polaroid">
	</g>
	<g id="camera">
	</g>
	<g id="calendar">
	</g>
	<g id="calendar_single">
	</g>
	<g id="shopping_bag">
	</g>
	<g id="watch">
	</g>
	<g id="alarm_clock">
	</g>
	<g id="credit_card">
	</g>
	<g id="road_sign">
	</g>
	<g id="hotel">
	</g>
	<g id="money">
	</g>
	<g id="sunglass">
	</g>
	<g id="cocktail">
	</g>
	<g id="compass">
	</g>
	<g id="tent">
	</g>
	<g id="backpack">
	</g>
	<g id="map">
	</g>
	<g id="ticket_1_">
	</g>
	<g id="passport">
	</g>
	<g id="luggage">
	</g>
	<g id="globe">
	</g>
	<g id="suitcase">
	</g>
</g>
<g id="vehicles">
	<g id="trailer">
	</g>
	<g id="airplane">
	</g>
	<g id="yatch">
	</g>
	<g id="taxi">
	</g>
	<g id="hot_air_ballon">
	</g>
	<g id="bus">
	</g>
	<g id="train">
	</g>
</g>
<g id="summer">
	<g id="postcard">
		<g>
			<g>
				<path fill="#FFB561" d="M80.62,235.04l279.87-98.597c5.051-1.779,8.402-6.49,9.444-12.187L182.279,53.823
					c-5.692-2.136-11.452-0.067-14.488,5.218L67.835,233.125C71.79,235.662,76.386,236.532,80.62,235.04z"/>
				<path fill="#FFD161" d="M434.479,341.845l-279.87,98.597c-8.27,2.914-17.337-1.429-20.25-9.699L67.822,241.876
					c-2.914-8.27,1.429-17.337,9.699-20.25l279.87-98.597c8.27-2.914,17.337,1.429,20.25,9.699l66.537,188.867
					C447.092,329.866,442.749,338.932,434.479,341.845z"/>
				<path fill="#FFD161" d="M246.967,279.365L67.648,232.23c-0.869,3.05-0.732,6.346,0.402,9.565l66.537,188.867
					c2.914,8.27,11.647,12.395,19.917,9.481l279.87-98.597c8.27-2.914,12.49-11.601,9.576-19.872l-66.537-188.867
					c-1.422-4.037-4.201-7.168-7.746-8.946L261.403,274.179C258.113,278.744,252.41,280.793,246.967,279.365z"/>
				<path fill="#FFB561" d="M357.285,122.729l-279.87,98.597c-5.051,1.779-8.572,6.008-9.934,10.795l179.46,47.169
					c5.443,1.428,11.216-0.603,14.506-5.169l108.275-150.467C366.003,121.788,361.519,121.237,357.285,122.729z"/>
				<path fill="#FF9B29" d="M246.941,279.29c5.443,1.428,11.216-0.603,14.506-5.168l75.574-105.024l-217.626,76.669L246.941,279.29z
					"/>
			</g>
			<path fill="#FF6650" d="M416.11,459.325H133.903c-12.779,0-23.138-10.359-23.138-23.138V250.465
				c0-12.779,10.359-23.138,23.138-23.138H416.11c12.779,0,23.138,10.359,23.138,23.138v185.722
				C439.248,448.965,428.889,459.325,416.11,459.325z"/>
			<path fill="#E3E3E3" d="M418,435.314c0,1.733-1.405,3.139-3.138,3.139H133.138c-1.733,0-3.138-1.405-3.138-3.139V249.591
				c0-1.733,1.405-3.139,3.138-3.139h281.725c1.733,0,3.138,1.405,3.138,3.139V435.314z"/>
			
				<line fill="none" stroke="#2D415A" stroke-width="4" stroke-linecap="round" stroke-linejoin="round" stroke-miterlimit="10" x1="272" y1="260.452" x2="272" y2="425.452"/>
			<path fill="#2FB49F" d="M399.529,268.432c0-1.653-1.04-3.054-2.498-3.611c1.458-0.557,2.498-1.958,2.498-3.611
				c0-2.14-1.735-3.875-3.875-3.875c-1.499,0-2.784,0.86-3.428,2.105c-0.645-1.245-1.93-2.105-3.429-2.105s-2.784,0.86-3.428,2.105
				c-0.645-1.246-1.93-2.105-3.429-2.105c-1.499,0-2.784,0.86-3.428,2.105c-0.645-1.245-1.93-2.105-3.428-2.105
				c-1.499,0-2.784,0.86-3.429,2.105c-0.645-1.246-1.93-2.105-3.429-2.105c-1.499,0-2.784,0.86-3.428,2.105
				c-0.645-1.245-1.93-2.105-3.428-2.105c-1.499,0-2.784,0.86-3.429,2.105c-0.645-1.246-1.93-2.105-3.428-2.105
				s-2.784,0.86-3.428,2.105c-0.645-1.245-1.93-2.105-3.429-2.105c-2.14,0-3.875,1.735-3.875,3.875c0,1.653,1.04,3.054,2.498,3.611
				c-1.458,0.557-2.498,1.958-2.498,3.611s1.04,3.054,2.498,3.611c-1.458,0.557-2.498,1.958-2.498,3.611s1.04,3.055,2.498,3.611
				c-1.458,0.557-2.498,1.958-2.498,3.611c0,1.653,1.04,3.055,2.498,3.611c-1.458,0.557-2.498,1.958-2.498,3.611
				c0,1.653,1.04,3.055,2.498,3.611c-1.458,0.557-2.498,1.958-2.498,3.611c0,1.653,1.04,3.054,2.498,3.611
				c-1.458,0.557-2.498,1.958-2.498,3.611c0,1.653,1.04,3.054,2.498,3.611c-1.458,0.557-2.498,1.958-2.498,3.611
				s1.04,3.054,2.498,3.611c-1.458,0.557-2.498,1.958-2.498,3.611s1.04,3.054,2.498,3.611c-1.458,0.557-2.498,1.958-2.498,3.611
				c0,2.14,1.735,3.875,3.875,3.875c1.499,0,2.784-0.86,3.429-2.105c0.645,1.245,1.93,2.105,3.428,2.105s2.784-0.86,3.428-2.105
				c0.645,1.245,1.93,2.105,3.429,2.105c1.499,0,2.784-0.86,3.428-2.105c0.645,1.245,1.93,2.105,3.428,2.105
				c1.499,0,2.784-0.86,3.429-2.105c0.645,1.245,1.93,2.105,3.429,2.105c1.499,0,2.784-0.86,3.428-2.105
				c0.645,1.245,1.93,2.105,3.428,2.105c1.499,0,2.784-0.86,3.429-2.105c0.645,1.245,1.93,2.105,3.428,2.105s2.784-0.86,3.429-2.105
				c0.645,1.245,1.93,2.105,3.428,2.105c2.14,0,3.875-1.735,3.875-3.875c0-1.653-1.04-3.055-2.498-3.611
				c1.458-0.557,2.498-1.958,2.498-3.611s-1.04-3.055-2.498-3.611c1.458-0.557,2.498-1.958,2.498-3.611s-1.04-3.055-2.498-3.611
				c1.458-0.557,2.498-1.958,2.498-3.611c0-1.653-1.04-3.055-2.498-3.611c1.458-0.557,2.498-1.958,2.498-3.611
				c0-1.653-1.04-3.055-2.498-3.611c1.458-0.557,2.498-1.958,2.498-3.611c0-1.653-1.04-3.054-2.498-3.611
				c1.458-0.557,2.498-1.958,2.498-3.611c0-1.653-1.04-3.054-2.498-3.611c1.458-0.557,2.498-1.958,2.498-3.611
				s-1.04-3.054-2.498-3.611C398.489,271.486,399.529,270.085,399.529,268.432z"/>
			<g>
				<g>
					<rect x="352.238" y="267.214" fill="#FFD161" width="38.833" height="52.991"/>
				</g>
			</g>
			
				<line fill="none" stroke="#2D415A" stroke-width="4" stroke-linecap="round" stroke-linejoin="round" stroke-miterlimit="10" x1="284" y1="357.452" x2="399" y2="357.452"/>
			
				<line fill="none" stroke="#2D415A" stroke-width="4" stroke-linecap="round" stroke-linejoin="round" stroke-miterlimit="10" x1="284" y1="377.452" x2="399" y2="377.452"/>
			
				<line fill="none" stroke="#2D415A" stroke-width="4" stroke-linecap="round" stroke-linejoin="round" stroke-miterlimit="10" x1="284" y1="397.452" x2="399" y2="397.452"/>
			
				<line fill="none" stroke="#2D415A" stroke-width="4" stroke-linecap="round" stroke-linejoin="round" stroke-miterlimit="10" x1="284" y1="417.452" x2="399" y2="417.452"/>
			<g>
				<path fill="#2D415A" d="M200.876,348.987c-33.509,0.55-61.749-16.557-65.689-39.793c-0.281-1.656-0.437-3.336-0.465-4.992
					c-0.415-25.286,28.586-46.339,64.649-46.931s65.738,19.499,66.153,44.785c0.019,1.138-0.034,2.309-0.164,3.686
					C263.058,329.833,235.336,348.422,200.876,348.987z"/>
				<g>
					<path fill="#89B4B3" d="M189.487,314.336c17.535,11.525,49.573,0.742,71.25-9.033c0.1-1.048,0.162-2.103,0.144-3.17
						c-0.373-22.762-27.878-40.768-61.433-40.217s-60.454,19.449-60.081,42.211c0.024,1.451,0.161,2.883,0.4,4.292
						C152.406,305.089,172.159,302.948,189.487,314.336z"/>
					<path fill="#FFB561" d="M189.487,314.336c-17.328-11.388-37.08-9.248-49.72-5.918c3.509,20.69,29.618,36.441,61.033,35.926
						c31.982-0.525,57.899-17.721,59.936-39.04C239.06,315.078,207.022,325.861,189.487,314.336z"/>
				</g>
				<circle fill="#FF6650" cx="177.299" cy="291.637" r="11.813"/>
				<path fill="#356785" d="M200.187,302.935c-19.229-13.384-44.826-15.663-55.618-16.003c-3.425,5.269-5.302,11.09-5.202,17.194
					c0.024,1.451,0.161,2.883,0.4,4.292c12.64-3.33,32.392-5.47,49.72,5.918c11.872,7.803,30.389,5.376,47.839-0.036
					C224.68,313.268,210.715,310.263,200.187,302.935z"/>
				<path fill="#FFB561" d="M189.487,314.336c-17.328-11.388-37.08-9.248-49.72-5.918c3.509,20.69,29.618,36.441,61.033,35.926
					c31.982-0.525,57.899-17.721,59.936-39.04C239.06,315.078,207.022,325.861,189.487,314.336z"/>
				<path fill="#6E4224" d="M226.067,294.473c0,0,10.403,27.802,8.825,34.323l5.155-2.26c0,0-5.797-25.32-12.486-32.087
					L226.067,294.473z"/>
				<path fill="#4FB463" d="M209.691,306.293c0,0,2.64-12.518,16.763-11.244l-1.267,5.95l-2.341,1.327l-0.026-3.078l-2.975,4.779
					l-1.68,0.952l-0.239-4.338l-2.838,6.186L209.691,306.293z"/>
				<path fill="#4FB463" d="M227.618,294.552c0,0,9.78-4.071,15.525,0.285l0.932,3.825l-2.989,0.049l-1.843-3.003l0.079,4.826
					l-3.238-0.246l-1.309-3.561l0.064,3.88l-1.971-1.672L227.618,294.552z"/>
				<path fill="#4FB463" d="M215.713,282.982c0.873-1.442,6.062,1.444,11.78,11.572l-8.418-3.267l0.76-2.658l-4.064-2.06
					L215.713,282.982z"/>
				<path fill="#4FB463" d="M240.322,276.133c0,0-16.188,3.638-13.243,19.137l6.467-3.531l-2.785-2.725l4.783-0.078l-0.462-3.257
					l3.656-2.514l3.254-2.109L240.322,276.133z"/>
			</g>
			
				<line fill="none" stroke="#2D415A" stroke-width="4" stroke-linecap="round" stroke-linejoin="round" stroke-miterlimit="10" x1="139" y1="377.452" x2="221" y2="377.452"/>
			
				<line fill="none" stroke="#2D415A" stroke-width="4" stroke-linecap="round" stroke-linejoin="round" stroke-miterlimit="10" x1="139" y1="397.452" x2="221" y2="397.452"/>
			
				<line fill="none" stroke="#2D415A" stroke-width="4" stroke-linecap="round" stroke-linejoin="round" stroke-miterlimit="10" x1="139" y1="417.452" x2="221" y2="417.452"/>
		</g>
	</g>
	<g id="bikini">
	</g>
	<g id="flipflop">
	</g>
	<g id="plane_around_the_globe">
	</g>
	<g id="binocular">
	</g>
	<g id="beach_table">
	</g>
	<g id="sun_hat">
	</g>
	<g id="beach_bag">
	</g>
	<g id="sea__x26__wave">
	</g>
	<g id="beach">
	</g>
	<g id="beach_ball">
	</g>
	<g id="jetski">
	</g>
	<g id="sandcastle">
	</g>
	<g id="lifeguard_male">
	</g>
	<g id="lifeguard_female">
	</g>
	<g id="lighthouse">
	</g>
	<g id="hammok">
	</g>
	<g id="beach_chair__x26__umbrella">
	</g>
	<g id="lifeguard">
	</g>
	<g id="suncream">
	</g>
	<g id="starfish">
	</g>
	<g id="beach_bar">
	</g>
	<g id="bucket__x26__shovel">
	</g>
	<g id="palm_tree">
	</g>
	<g id="shark_warning">
	</g>
	<g id="surfboard">
	</g>
	<g id="swimming_trunks">
	</g>
	<g id="coconut_drink">
	</g>
	<g id="beach_chair__x26__towel">
	</g>
	<g id="coconut_tree">
	</g>
</g>
</svg>
