<?xml version="1.0" encoding="utf-8"?>
<!-- Generator: Adobe Illustrator 17.0.0, SVG Export Plug-In . SVG Version: 6.00 Build 0)  -->
<!DOCTYPE svg PUBLIC "-//W3C//DTD SVG 1.1//EN" "http://www.w3.org/Graphics/SVG/1.1/DTD/svg11.dtd">
<svg version="1.1" xmlns="http://www.w3.org/2000/svg" xmlns:xlink="http://www.w3.org/1999/xlink" x="0px" y="0px" width="512px"
	 height="512px" viewBox="0 0 512 512" enable-background="new 0 0 512 512" xml:space="preserve">
<g id="famous_places">
	<g id="Pyramid">
	</g>
	<g id="Colloseum">
	</g>
	<g id="Mount_Fuji">
	</g>
	<g id="Great_Wall_of_China">
	</g>
	<g id="Stonehenge">
	</g>
	<g id="Golden_Gate_Bridge">
	</g>
	<g id="Christ_the_Redeemer">
	</g>
	<g id="Statue_of_Liberty">
	</g>
	<g id="Taj_Mahal">
	</g>
	<g id="Eiffel_tower">
	</g>
</g>
<g id="camping">
	<g id="mug">
	</g>
	<g id="hook">
	</g>
	<g id="Swiss_knife">
	</g>
	<g id="flashlight">
	</g>
	<g id="lantern">
	</g>
	<g id="campfire">
	</g>
	<g id="beanie">
	</g>
	<g id="rope">
	</g>
	<g id="boot">
	</g>
	<g id="axe">
	</g>
</g>
<g id="hotel_1_">
	<g id="towel">
	</g>
	<g id="phone">
	</g>
	<g id="pool">
	</g>
	<g id="food_service">
	</g>
	<g id="wifi">
	</g>
	<g id="bed">
	</g>
	<g id="door">
	</g>
	<g id="key">
	</g>
	<g id="do_not_disturb">
	</g>
	<g id="bell">
	</g>
</g>
<g id="winter">
	<g id="snowman">
	</g>
	<g id="snow_mountain">
	</g>
	<g id="reindeer">
	</g>
	<g id="winter_tree">
	</g>
	<g id="lift">
	</g>
	<g id="beanie__x26__google">
	</g>
	<g id="ski">
	</g>
	<g id="snowboard">
	</g>
	<g id="snowboading">
	</g>
	<g id="skiing">
	</g>
</g>
<g id="general_travelling">
	<g id="dinner_set">
	</g>
	<g id="polaroid">
	</g>
	<g id="camera">
	</g>
	<g id="calendar">
	</g>
	<g id="calendar_single">
	</g>
	<g id="shopping_bag">
	</g>
	<g id="watch">
	</g>
	<g id="alarm_clock">
	</g>
	<g id="credit_card">
	</g>
	<g id="road_sign">
	</g>
	<g id="hotel">
	</g>
	<g id="money">
	</g>
	<g id="sunglass">
	</g>
	<g id="cocktail">
	</g>
	<g id="compass">
	</g>
	<g id="tent">
	</g>
	<g id="backpack">
	</g>
	<g id="map">
	</g>
	<g id="ticket_1_">
	</g>
	<g id="passport">
	</g>
	<g id="luggage">
	</g>
	<g id="globe">
	</g>
	<g id="suitcase">
	</g>
</g>
<g id="vehicles">
	<g id="trailer">
	</g>
	<g id="airplane">
	</g>
	<g id="yatch">
	</g>
	<g id="taxi">
	</g>
	<g id="hot_air_ballon">
	</g>
	<g id="bus">
	</g>
	<g id="train">
	</g>
</g>
<g id="summer">
	<g id="postcard">
	</g>
	<g id="bikini">
	</g>
	<g id="flipflop">
		<g>
			<g>
				<path fill="#E3E3E3" d="M134.631,420.081c-25.275,0-41.171-8.284-50.024-26.071c-7.759-15.588-9.639-37.542-12.021-65.335
					c-1.171-13.668-2.5-29.158-4.708-45.972c-1.154-8.778-2.374-17.544-3.586-26.246C54.495,186.073,45.24,119.593,76.609,83.555
					c15.353-17.639,38.495-26.214,70.75-26.214c45.007,0,77.28,17.658,90.875,49.718c15.29,36.059,3.94,87.001-26.381,118.946
					c-2.646,4.843-18.826,37.047-11.284,87.091c6.485,43.04,2.794,69.883-11.971,87.039
					C177.046,413.558,159.393,420.081,134.631,420.081z"/>
				<path fill="#ADD660" d="M205.429,221.211c0,0-21.478,35.001-12.728,93.071c8.75,58.07,0.795,97.844-58.07,97.844
					S86.757,365.33,75.765,281.667C61.446,172.686,36.786,65.296,147.359,65.296S252.362,172.686,205.429,221.211z"/>
				<path fill="#2FB49F" d="M187.882,233.143c0,0,9.72,0.821,5.441,23.704c-2.069,11.064-3.309,24.495-2.434,39.998
					c0.313,5.551-33.921,12.528-33.007,18.597c1.076,7.142,36.719,12.847,37.226,19.396c1.178,15.207,0.65,28.707-2.381,39.998
					c0,0-20.442,5.673-55.255,5.673c-30.918,0-51.088-5.672-51.088-5.672c-2.57-11.029-3.921-24.405-5.282-39.995
					c-0.599-6.856,37.489-11.698,36.781-19.399c-0.478-5.195-39.692-13.023-40.299-18.595c-0.536-4.916-1.134-9.977-1.818-15.18
					c-1.09-8.3-2.241-16.59-3.387-24.824c-1.108-7.964,33.213-11.185,32.171-19.002c-0.641-4.809-36.685-14.272-37.265-18.999
					c-1.695-13.804-3.074-27.219-3.8-40c-0.26-4.576,49.808-14.599,49.731-19.001c-0.149-8.552-50.168-11.227-49.454-18.998
					c1.392-15.168,4.644-28.69,10.598-39.955c11.719-22.17,33.176-23.676,72.267-23.676c40.862,0,66.595,2.749,79.509,23.69
					c7.065,11.457,10.513,24.793,10.96,38.633c0.191,5.926-35.544,11.614-36.404,17.616c-1.033,7.212,32.586,14.732,30.189,21.713
					c-5.108,14.878-13.123,28.804-23.229,39.969C206.921,219.642,188.634,232.366,187.882,233.143z"/>
				<path fill="#FFD161" d="M147.359,65.045c-39.205,0-61.396,13.797-73.088,35.797h151.964
					C213.353,79.841,188.339,65.045,147.359,65.045z"/>
				<path fill="#FFD161" d="M63.498,178.841H230.81c4.284-12,6.552-25,6.318-38H63.764C62.68,152.841,62.723,165.841,63.498,178.841
					z"/>
				<path fill="#FFD161" d="M72.401,256.841h120.903c4.274-23,12.125-35.705,12.125-35.705c0.755-0.78,1.498-1.295,2.23-2.295
					H67.284C68.815,230.841,70.602,243.841,72.401,256.841z"/>
				<path fill="#FFD161" d="M81.113,334.841h114.003c-0.506-6-1.331-13.402-2.415-20.591c-0.919-6.098-1.488-11.409-1.8-17.409
					H77.575C79.092,310.841,80.105,323.841,81.113,334.841z"/>
				<path fill="#FFD161" d="M134.631,412.229c34.859,0,51.861-14.388,58.116-37.388H86.366
					C92.041,398.841,103.675,412.229,134.631,412.229z"/>
				<path fill="#FF9B29" d="M165.257,255.417c-6.799,0-12.33-5.531-12.33-12.33c0-6.799,5.531-12.33,12.33-12.33
					c6.799,0,12.33,5.531,12.33,12.33C177.587,249.885,172.056,255.417,165.257,255.417z"/>
				<path fill="#FF9B29" d="M85.709,233.143c-6.799,0-12.33-5.531-12.33-12.33s5.531-12.33,12.33-12.33s12.33,5.531,12.33,12.33
					S92.507,233.143,85.709,233.143z"/>
				<path fill="#FF9B29" d="M150.938,101.093c-6.799,0-12.33-5.531-12.33-12.33s5.531-12.33,12.33-12.33s12.33,5.531,12.33,12.33
					S157.737,101.093,150.938,101.093z"/>
				<path fill="#E3E3E3" d="M198.482,147.517c-4.508-14.706-16.03-32.981-45.094-39.602l2.863-13.012
					c0.755-3.432-1.414-6.827-4.847-7.582c-3.421-0.763-6.827,1.414-7.582,4.847l-3.053,13.877
					c-12.626-0.639-23.596,3.137-32.68,11.268c-30.281,27.11-27.896,94.1-27.781,96.939c0.144,3.511,3.14,6.182,6.62,6.098
					c3.511-0.144,6.241-3.107,6.098-6.62c-0.008-0.16-0.626-16.259,2.125-35.262c3.535-24.419,10.944-42.286,21.427-51.672
					c7.621-6.824,16.853-9.3,28.23-7.565c22.058,3.364,36.022,14.135,41.503,32.017c9.342,30.474-8.04,73.991-21.001,85.973
					c-2.581,2.386-2.738,6.414-0.353,8.994c1.255,1.356,2.963,2.043,4.675,2.043c1.546,0,3.095-0.559,4.319-1.69
					C189.031,232.626,209.798,184.431,198.482,147.517z"/>
			</g>
			<g>
				<path fill="#E3E3E3" d="M377.369,420.081c25.275,0,41.171-8.284,50.024-26.071c7.759-15.588,9.639-37.542,12.021-65.335
					c1.171-13.668,2.5-29.158,4.708-45.972c1.154-8.778,2.374-17.544,3.586-26.246c9.797-70.385,19.053-136.865-12.316-172.902
					c-15.353-17.639-38.495-26.214-70.75-26.214c-45.007,0-77.28,17.658-90.875,49.718c-15.29,36.059-3.94,87.001,26.381,118.946
					c2.646,4.843,18.826,37.047,11.284,87.091c-6.485,43.04-2.793,69.883,11.971,87.039
					C334.954,413.558,352.607,420.081,377.369,420.081z"/>
				<path fill="#ADD660" d="M306.571,221.211c0,0,21.478,35.001,12.728,93.071s-0.795,97.844,58.07,97.844
					s47.874-46.797,58.866-130.459c14.319-108.981,38.979-216.371-71.593-216.371S259.638,172.686,306.571,221.211z"/>
				<path fill="#2FB49F" d="M324.118,233.143c0,0-9.72,0.821-5.441,23.704c2.069,11.064,3.309,24.495,2.434,39.998
					c-0.313,5.551,33.921,12.528,33.007,18.597c-1.076,7.142-36.719,12.847-37.226,19.396c-1.178,15.207-0.65,28.707,2.381,39.998
					c0,0,20.442,5.673,55.255,5.673c30.918,0,51.088-5.672,51.088-5.672c2.57-11.029,3.921-24.405,5.282-39.995
					c0.599-6.856-37.489-11.698-36.781-19.399c0.478-5.195,39.692-13.023,40.299-18.595c0.536-4.916,1.134-9.977,1.818-15.18
					c1.09-8.3,2.241-16.59,3.387-24.824c1.108-7.964-33.213-11.185-32.171-19.002c0.641-4.809,36.685-14.272,37.265-18.999
					c1.695-13.804,3.074-27.219,3.8-40c0.26-4.576-49.808-14.599-49.731-19.001c0.149-8.552,50.168-11.227,49.454-18.998
					c-1.392-15.168-4.644-28.69-10.598-39.955c-11.719-22.17-33.176-23.676-72.267-23.676c-40.862,0-66.595,2.749-79.509,23.69
					c-7.065,11.457-10.513,24.793-10.96,38.633c-0.191,5.926,35.544,11.614,36.404,17.616c1.033,7.212-32.586,14.732-30.189,21.713
					c5.108,14.878,13.123,28.804,23.229,39.969C305.079,219.642,323.366,232.366,324.118,233.143z"/>
				<path fill="#FFD161" d="M364.642,65.045c39.205,0,61.396,13.797,73.088,35.797H285.766
					C298.647,79.841,323.661,65.045,364.642,65.045z"/>
				<path fill="#FFD161" d="M448.502,178.841H281.19c-4.284-12-6.552-25-6.318-38h173.364
					C449.32,152.841,449.277,165.841,448.502,178.841z"/>
				<path fill="#FFD161" d="M439.599,256.841H318.696c-4.274-23-12.125-35.705-12.125-35.705c-0.755-0.78-1.498-1.295-2.23-2.295
					h140.375C443.185,230.841,441.398,243.841,439.599,256.841z"/>
				<path fill="#FFD161" d="M430.887,334.841H316.884c0.506-6,1.331-13.402,2.415-20.591c0.919-6.098,1.488-11.409,1.8-17.409
					h113.326C432.908,310.841,431.895,323.841,430.887,334.841z"/>
				<path fill="#FFD161" d="M377.369,412.229c-34.859,0-51.861-14.388-58.116-37.388h106.381
					C419.959,398.841,408.325,412.229,377.369,412.229z"/>
				<path fill="#FF9B29" d="M346.743,255.417c6.799,0,12.33-5.531,12.33-12.33c0-6.799-5.531-12.33-12.33-12.33
					s-12.33,5.531-12.33,12.33C334.413,249.885,339.944,255.417,346.743,255.417z"/>
				<path fill="#FF9B29" d="M426.291,233.143c6.799,0,12.33-5.531,12.33-12.33s-5.531-12.33-12.33-12.33s-12.33,5.531-12.33,12.33
					S419.493,233.143,426.291,233.143z"/>
				<path fill="#FF9B29" d="M361.062,101.093c6.799,0,12.33-5.531,12.33-12.33s-5.531-12.33-12.33-12.33s-12.33,5.531-12.33,12.33
					S354.263,101.093,361.062,101.093z"/>
				<path fill="#E3E3E3" d="M313.518,147.517c4.508-14.706,16.03-32.981,45.094-39.602l-2.863-13.012
					c-0.755-3.432,1.414-6.827,4.847-7.582c3.421-0.763,6.827,1.414,7.582,4.847l3.053,13.877
					c12.626-0.639,23.596,3.137,32.68,11.268c30.281,27.11,27.896,94.1,27.781,96.939c-0.144,3.511-3.14,6.182-6.62,6.098
					c-3.511-0.144-6.241-3.107-6.098-6.62c0.008-0.16,0.626-16.259-2.125-35.262c-3.535-24.419-10.944-42.286-21.427-51.672
					c-7.621-6.824-16.853-9.3-28.23-7.565c-22.058,3.364-36.022,14.135-41.503,32.017c-9.342,30.474,8.04,73.991,21.001,85.973
					c2.581,2.386,2.738,6.414,0.353,8.994c-1.255,1.356-2.963,2.043-4.675,2.043c-1.546,0-3.095-0.559-4.319-1.69
					C322.969,232.626,302.202,184.431,313.518,147.517z"/>
			</g>
		</g>
	</g>
	<g id="plane_around_the_globe">
	</g>
	<g id="binocular">
	</g>
	<g id="beach_table">
	</g>
	<g id="sun_hat">
	</g>
	<g id="beach_bag">
	</g>
	<g id="sea__x26__wave">
	</g>
	<g id="beach">
	</g>
	<g id="beach_ball">
	</g>
	<g id="jetski">
	</g>
	<g id="sandcastle">
	</g>
	<g id="lifeguard_male">
	</g>
	<g id="lifeguard_female">
	</g>
	<g id="lighthouse">
	</g>
	<g id="hammok">
	</g>
	<g id="beach_chair__x26__umbrella">
	</g>
	<g id="lifeguard">
	</g>
	<g id="suncream">
	</g>
	<g id="starfish">
	</g>
	<g id="beach_bar">
	</g>
	<g id="bucket__x26__shovel">
	</g>
	<g id="palm_tree">
	</g>
	<g id="shark_warning">
	</g>
	<g id="surfboard">
	</g>
	<g id="swimming_trunks">
	</g>
	<g id="coconut_drink">
	</g>
	<g id="beach_chair__x26__towel">
	</g>
	<g id="coconut_tree">
	</g>
</g>
</svg>
