<?xml version="1.0" encoding="utf-8"?>
<!-- Generator: Adobe Illustrator 17.0.0, SVG Export Plug-In . SVG Version: 6.00 Build 0)  -->
<!DOCTYPE svg PUBLIC "-//W3C//DTD SVG 1.1//EN" "http://www.w3.org/Graphics/SVG/1.1/DTD/svg11.dtd">
<svg version="1.1" xmlns="http://www.w3.org/2000/svg" xmlns:xlink="http://www.w3.org/1999/xlink" x="0px" y="0px" width="512px"
	 height="512px" viewBox="0 0 512 512" enable-background="new 0 0 512 512" xml:space="preserve">
<g id="famous_places">
	<g id="Pyramid">
	</g>
	<g id="Colloseum">
	</g>
	<g id="Mount_Fuji">
	</g>
	<g id="Great_Wall_of_China">
	</g>
	<g id="Stonehenge">
	</g>
	<g id="Golden_Gate_Bridge">
	</g>
	<g id="Christ_the_Redeemer">
	</g>
	<g id="Statue_of_Liberty">
	</g>
	<g id="Taj_Mahal">
	</g>
	<g id="Eiffel_tower">
	</g>
</g>
<g id="camping">
	<g id="mug">
	</g>
	<g id="hook">
	</g>
	<g id="Swiss_knife">
	</g>
	<g id="flashlight">
	</g>
	<g id="lantern">
	</g>
	<g id="campfire">
	</g>
	<g id="beanie">
	</g>
	<g id="rope">
	</g>
	<g id="boot">
	</g>
	<g id="axe">
	</g>
</g>
<g id="hotel_1_">
	<g id="towel">
	</g>
	<g id="phone">
	</g>
	<g id="pool">
	</g>
	<g id="food_service">
	</g>
	<g id="wifi">
	</g>
	<g id="bed">
	</g>
	<g id="door">
	</g>
	<g id="key">
	</g>
	<g id="do_not_disturb">
	</g>
	<g id="bell">
	</g>
</g>
<g id="winter">
	<g id="snowman">
	</g>
	<g id="snow_mountain">
	</g>
	<g id="reindeer">
	</g>
	<g id="winter_tree">
	</g>
	<g id="lift">
	</g>
	<g id="beanie__x26__google">
	</g>
	<g id="ski">
	</g>
	<g id="snowboard">
	</g>
	<g id="snowboading">
	</g>
	<g id="skiing">
	</g>
</g>
<g id="general_travelling">
	<g id="dinner_set">
	</g>
	<g id="polaroid">
	</g>
	<g id="camera">
	</g>
	<g id="calendar">
	</g>
	<g id="calendar_single">
	</g>
	<g id="shopping_bag">
	</g>
	<g id="watch">
	</g>
	<g id="alarm_clock">
	</g>
	<g id="credit_card">
	</g>
	<g id="road_sign">
	</g>
	<g id="hotel">
	</g>
	<g id="money">
	</g>
	<g id="sunglass">
	</g>
	<g id="cocktail">
	</g>
	<g id="compass">
	</g>
	<g id="tent">
	</g>
	<g id="backpack">
	</g>
	<g id="map">
	</g>
	<g id="ticket_1_">
	</g>
	<g id="passport">
	</g>
	<g id="luggage">
		<g>
			<path fill="none" stroke="#2D415A" stroke-width="14" stroke-miterlimit="10" d="M335.5,341.217h18.4
				c11.335,0,20.524-9.189,20.524-20.524v-25.265c0-11.335-9.189-20.524-20.524-20.524h-18.4"/>
			<g>
				<g>
					<path fill="#2D415A" d="M197.954,467.681h-11.66c-2.485,0-4.5-2.015-4.5-4.5v-1.043c0-2.485,2.015-4.5,4.5-4.5h11.66
						c2.485,0,4.5,2.015,4.5,4.5v1.043C202.454,465.667,200.439,467.681,197.954,467.681z"/>
					<rect x="190.271" y="465.728" fill="#2D415A" width="3.706" height="17.018"/>
					<circle fill="#2D415A" cx="192.124" cy="480.515" r="9.485"/>
				</g>
				<g>
					<path fill="#2D415A" d="M289.46,467.681H277.8c-2.485,0-4.5-2.015-4.5-4.5v-1.043c0-2.485,2.015-4.5,4.5-4.5h11.66
						c2.485,0,4.5,2.015,4.5,4.5v1.043C293.96,465.667,291.946,467.681,289.46,467.681z"/>
					<rect x="281.777" y="465.728" fill="#2D415A" width="3.706" height="17.018"/>
					<circle fill="#2D415A" cx="283.63" cy="480.515" r="9.485"/>
				</g>
			</g>
			<path fill="#FF8B7A" d="M309.373,421.258H169.283c-14.429,0-26.126-11.697-26.126-26.126V158.495
				c0-14.429,11.697-26.126,26.126-26.126h140.091c14.429,0,26.126,11.697,26.126,26.126v236.637
				C335.5,409.561,323.803,421.258,309.373,421.258z"/>
			<path fill="#2D415A" d="M137.577,426.959V189.162c0-17.19,13.936-31.126,31.126-31.126h141.25
				c17.19,0,31.126,13.936,31.126,31.126v237.796c0,17.191-13.936,31.127-31.127,31.127H168.703
				C151.513,458.085,137.577,444.149,137.577,426.959z"/>
			<path fill="#FF6650" d="M309.373,452.505H169.283c-14.429,0-26.126-11.697-26.126-26.126V189.742
				c0-14.429,11.697-26.126,26.126-26.126h140.091c14.429,0,26.126,11.697,26.126,26.126v236.637
				C335.5,440.807,323.803,452.505,309.373,452.505z"/>
			<g>
				<g>
					<path fill="#C24E3D" d="M186.475,435.86h-1.951c-4.647,0-8.414-3.767-8.414-8.414V250.114c0-4.647,3.767-8.414,8.414-8.414
						h1.951c4.647,0,8.414,3.767,8.414,8.414v177.332C194.889,432.093,191.122,435.86,186.475,435.86z"/>
					<path fill="#FF8B7A" d="M182.769,435.86h-1.951c-4.647,0-8.414-3.767-8.414-8.414V250.114c0-4.647,3.767-8.414,8.414-8.414
						h1.951c4.647,0,8.414,3.767,8.414,8.414v177.332C191.183,432.093,187.416,435.86,182.769,435.86z"/>
				</g>
				<g>
					<path fill="#C24E3D" d="M297.838,241.7h-1.951c-4.647,0-8.414,3.767-8.414,8.414v177.332c0,4.647,3.767,8.414,8.414,8.414
						h1.951c4.647,0,8.414-3.767,8.414-8.414V250.114C306.251,245.467,302.485,241.7,297.838,241.7z"/>
					<path fill="#FF8B7A" d="M294.132,241.7h-1.951c-4.647,0-8.414,3.767-8.414,8.414v177.332c0,4.647,3.767,8.414,8.414,8.414
						h1.951c4.647,0,8.414-3.767,8.414-8.414V250.114C302.545,245.467,298.778,241.7,294.132,241.7z"/>
				</g>
				<g>
					<path fill="#C24E3D" d="M242.157,435.86h-1.951c-4.647,0-8.414-3.767-8.414-8.414V250.114c0-4.647,3.767-8.414,8.414-8.414
						h1.951c4.647,0,8.414,3.767,8.414,8.414v177.332C250.57,432.093,246.803,435.86,242.157,435.86z"/>
					<path fill="#FF8B7A" d="M238.45,435.86h-1.951c-4.647,0-8.414-3.767-8.414-8.414V250.114c0-4.647,3.767-8.414,8.414-8.414
						h1.951c4.647,0,8.414,3.767,8.414,8.414v177.332C246.864,432.093,243.097,435.86,238.45,435.86z"/>
				</g>
			</g>
			<path fill="none" stroke="#2D415A" stroke-width="5" stroke-miterlimit="10" d="M172.405,230.69v-38.086
				c0-7.622,6.179-13.801,13.801-13.801h106.245c7.622,0,13.801,6.179,13.801,13.801v57.192"/>
			
				<line fill="none" stroke="#E3E3E3" stroke-width="10" stroke-miterlimit="10" x1="213.708" y1="42.524" x2="213.708" y2="147.036"/>
			
				<line fill="none" stroke="#E3E3E3" stroke-width="10" stroke-miterlimit="10" x1="280.02" y1="147.036" x2="280.02" y2="52.554"/>
			<path fill="none" stroke="#2D415A" stroke-width="14" stroke-miterlimit="10" d="M280.02,60.923v-18.4
				c0-11.335-9.189-20.524-20.524-20.524h-25.265c-11.335,0-20.524,9.189-20.524,20.524v18.4"/>
			<rect x="302.545" y="225.803" fill="#405C80" width="7.596" height="10.322"/>
			<g>
				<path fill="#73B4B2" d="M358.963,363.899l-11.438,16.181v40.732h11.438h11.438v-40.732L358.963,363.899z M358.963,374.501
					c-1.815,0-3.286-1.471-3.286-3.286c0-1.815,1.471-3.286,3.286-3.286s3.286,1.471,3.286,3.286
					C362.25,373.029,360.778,374.501,358.963,374.501z"/>
			</g>
			<g>
				<g>
					<path fill="#FFB561" d="M348.641,351.624c0-10.283,4.727-18.971,10.322-18.971c5.595,0,10.322,8.688,10.322,18.971
						c0,7.856-2.763,14.767-6.56,17.598l1.309,1.852c4.443-3.233,7.483-10.627,7.483-19.45c0-11.889-5.514-21.203-12.554-21.203
						s-12.554,9.313-12.554,21.203c0,8.823,3.04,16.217,7.483,19.45l1.309-1.852C351.404,366.391,348.641,359.48,348.641,351.624z"
						/>
					<path fill="#FFB561" d="M361.902,369.77c-0.936,0.531-1.922,0.825-2.939,0.825s-2.003-0.294-2.939-0.825
						c-0.216,0.438-0.348,0.923-0.348,1.444c0,0.332,0.064,0.645,0.155,0.947c1,0.419,2.044,0.666,3.131,0.666
						s2.132-0.246,3.132-0.666c0.091-0.302,0.155-0.615,0.155-0.947C362.25,370.693,362.118,370.208,361.902,369.77z"/>
					<path fill="#FFB561" d="M361.902,369.77c0.216,0.438,0.348,0.923,0.348,1.444c0,0.332-0.064,0.645-0.155,0.947
						c0.67-0.281,1.32-0.637,1.94-1.088l-1.309-1.852C362.456,369.423,362.182,369.611,361.902,369.77z"/>
				</g>
			</g>
		</g>
	</g>
	<g id="globe">
	</g>
	<g id="suitcase">
	</g>
</g>
<g id="vehicles">
	<g id="trailer">
	</g>
	<g id="airplane">
	</g>
	<g id="yatch">
	</g>
	<g id="taxi">
	</g>
	<g id="hot_air_ballon">
	</g>
	<g id="bus">
	</g>
	<g id="train">
	</g>
</g>
<g id="summer">
	<g id="postcard">
	</g>
	<g id="bikini">
	</g>
	<g id="flipflop">
	</g>
	<g id="plane_around_the_globe">
	</g>
	<g id="binocular">
	</g>
	<g id="beach_table">
	</g>
	<g id="sun_hat">
	</g>
	<g id="beach_bag">
	</g>
	<g id="sea__x26__wave">
	</g>
	<g id="beach">
	</g>
	<g id="beach_ball">
	</g>
	<g id="jetski">
	</g>
	<g id="sandcastle">
	</g>
	<g id="lifeguard_male">
	</g>
	<g id="lifeguard_female">
	</g>
	<g id="lighthouse">
	</g>
	<g id="hammok">
	</g>
	<g id="beach_chair__x26__umbrella">
	</g>
	<g id="lifeguard">
	</g>
	<g id="suncream">
	</g>
	<g id="starfish">
	</g>
	<g id="beach_bar">
	</g>
	<g id="bucket__x26__shovel">
	</g>
	<g id="palm_tree">
	</g>
	<g id="shark_warning">
	</g>
	<g id="surfboard">
	</g>
	<g id="swimming_trunks">
	</g>
	<g id="coconut_drink">
	</g>
	<g id="beach_chair__x26__towel">
	</g>
	<g id="coconut_tree">
	</g>
</g>
</svg>
