<?xml version="1.0" encoding="utf-8"?>
<!-- Generator: Adobe Illustrator 17.0.0, SVG Export Plug-In . SVG Version: 6.00 Build 0)  -->
<!DOCTYPE svg PUBLIC "-//W3C//DTD SVG 1.1//EN" "http://www.w3.org/Graphics/SVG/1.1/DTD/svg11.dtd">
<svg version="1.1" xmlns="http://www.w3.org/2000/svg" xmlns:xlink="http://www.w3.org/1999/xlink" x="0px" y="0px" width="512px"
	 height="512px" viewBox="0 0 512 512" enable-background="new 0 0 512 512" xml:space="preserve">
<g id="famous_places">
	<g id="Pyramid">
	</g>
	<g id="Colloseum">
	</g>
	<g id="Mount_Fuji">
	</g>
	<g id="Great_Wall_of_China">
	</g>
	<g id="Stonehenge">
	</g>
	<g id="Golden_Gate_Bridge">
	</g>
	<g id="Christ_the_Redeemer">
	</g>
	<g id="Statue_of_Liberty">
	</g>
	<g id="Taj_Mahal">
	</g>
	<g id="Eiffel_tower">
	</g>
</g>
<g id="camping">
	<g id="mug">
	</g>
	<g id="hook">
	</g>
	<g id="Swiss_knife">
	</g>
	<g id="flashlight">
	</g>
	<g id="lantern">
	</g>
	<g id="campfire">
	</g>
	<g id="beanie">
	</g>
	<g id="rope">
	</g>
	<g id="boot">
	</g>
	<g id="axe">
	</g>
</g>
<g id="hotel_1_">
	<g id="towel">
	</g>
	<g id="phone">
	</g>
	<g id="pool">
	</g>
	<g id="food_service">
	</g>
	<g id="wifi">
	</g>
	<g id="bed">
	</g>
	<g id="door">
	</g>
	<g id="key">
	</g>
	<g id="do_not_disturb">
	</g>
	<g id="bell">
	</g>
</g>
<g id="winter">
	<g id="snowman">
	</g>
	<g id="snow_mountain">
	</g>
	<g id="reindeer">
	</g>
	<g id="winter_tree">
	</g>
	<g id="lift">
	</g>
	<g id="beanie__x26__google">
	</g>
	<g id="ski">
	</g>
	<g id="snowboard">
	</g>
	<g id="snowboading">
	</g>
	<g id="skiing">
	</g>
</g>
<g id="general_travelling">
	<g id="dinner_set">
	</g>
	<g id="polaroid">
	</g>
	<g id="camera">
	</g>
	<g id="calendar">
	</g>
	<g id="calendar_single">
	</g>
	<g id="shopping_bag">
	</g>
	<g id="watch">
	</g>
	<g id="alarm_clock">
	</g>
	<g id="credit_card">
	</g>
	<g id="road_sign">
		<rect x="233.059" y="43.996" fill="#8A532D" width="42.834" height="430.478"/>
		<rect x="233.059" y="43.996" fill="#6E4224" width="9.321" height="430.478"/>
		
			<line fill="none" stroke="#6E4224" stroke-width="4" stroke-linecap="round" stroke-linejoin="round" stroke-miterlimit="10" x1="251.333" y1="54.015" x2="251.333" y2="99.015"/>
		
			<line fill="none" stroke="#6E4224" stroke-width="4" stroke-linecap="round" stroke-linejoin="round" stroke-miterlimit="10" x1="267.333" y1="92.015" x2="267.333" y2="135.015"/>
		
			<line fill="none" stroke="#6E4224" stroke-width="4" stroke-linecap="round" stroke-linejoin="round" stroke-miterlimit="10" x1="251.333" y1="135.015" x2="251.333" y2="177.015"/>
		
			<line fill="none" stroke="#6E4224" stroke-width="4" stroke-linecap="round" stroke-linejoin="round" stroke-miterlimit="10" x1="267.333" y1="177.015" x2="267.333" y2="198.015"/>
		
			<line fill="none" stroke="#6E4224" stroke-width="4" stroke-linecap="round" stroke-linejoin="round" stroke-miterlimit="10" x1="254.333" y1="212.015" x2="254.333" y2="246.015"/>
		
			<line fill="none" stroke="#6E4224" stroke-width="4" stroke-linecap="round" stroke-linejoin="round" stroke-miterlimit="10" x1="256.333" y1="272.015" x2="256.333" y2="321.015"/>
		
			<line fill="none" stroke="#6E4224" stroke-width="4" stroke-linecap="round" stroke-linejoin="round" stroke-miterlimit="10" x1="256.333" y1="353.015" x2="256.333" y2="393.015"/>
		
			<line fill="none" stroke="#6E4224" stroke-width="4" stroke-linecap="round" stroke-linejoin="round" stroke-miterlimit="10" x1="267.333" y1="420.015" x2="267.333" y2="458.015"/>
		<path fill="#33C4AD" d="M385.774,143.135H212.496c-8.113,0-14.691-6.577-14.691-14.691V81.466c0-8.113,6.577-14.691,14.691-14.691
			h173.278c3.765,0,7.387,1.446,10.117,4.039l24.732,23.489c6.098,5.792,4.574,28.113,4.574,28.113l-29.305,16.68
			C393.161,141.689,389.539,143.135,385.774,143.135z"/>
		<path fill="#2FB49F" d="M385.774,156.526H212.496c-8.113,0-14.691-6.577-14.691-14.691V94.858c0-8.113,6.577-14.691,14.691-14.691
			h173.278c3.765,0,7.387,1.446,10.117,4.039l24.732,23.489c6.098,5.792,6.098,15.512,0,21.304l-24.732,23.489
			C393.161,155.081,389.539,156.526,385.774,156.526z"/>
		<path fill="#FFD161" d="M332.883,298.503H219.642c-5.302,0-9.601-4.298-9.601-9.601v-30.701c0-5.302,4.298-9.601,9.601-9.601
			h113.241c2.461,0,4.827,0.945,6.612,2.639l16.163,15.351c3.985,3.785,2.989,18.373,2.989,18.373l-19.152,10.901
			C337.71,297.558,335.343,298.503,332.883,298.503z"/>
		<path fill="#FFB561" d="M332.883,307.255H219.642c-5.302,0-9.601-4.298-9.601-9.601v-30.701c0-5.302,4.298-9.601,9.601-9.601
			h113.241c2.461,0,4.827,0.945,6.612,2.639l16.163,15.351c3.985,3.785,3.985,10.137,0,13.923l-16.163,15.351
			C337.71,306.31,335.343,307.255,332.883,307.255z"/>
		<path fill="#FF8978" d="M141.204,228.056h139.626c6.538,0,11.838-5.3,11.838-11.838v-37.854c0-6.538-5.3-11.838-11.838-11.838
			H141.204c-3.034,0-5.952,1.165-8.152,3.254l-19.928,18.927c-4.914,4.667-3.686,22.653-3.686,22.653l23.614,13.44
			C135.252,226.891,138.17,228.056,141.204,228.056z"/>
		<path fill="#FF6650" d="M141.204,238.847h139.626c6.538,0,11.838-5.3,11.838-11.838v-37.854c0-6.538-5.3-11.838-11.838-11.838
			H141.204c-3.034,0-5.952,1.165-8.152,3.254l-19.928,18.927c-4.914,4.667-4.914,12.499,0,17.167l19.928,18.927
			C135.252,237.682,138.17,238.847,141.204,238.847z"/>
		<path fill="#2D415A" d="M345.21,474.561c-2.285-1.451-56.348-35.546-90.877-35.546c-34.513,0-89.528,34.08-91.853,35.53
			c-1.325,0.827-1.942,2.432-1.512,3.934c0.43,1.501,1.803,2.536,3.365,2.536h179c1.557,0,2.926-1.028,3.36-2.522
			C347.129,476.997,346.524,475.396,345.21,474.561z"/>
	</g>
	<g id="hotel">
	</g>
	<g id="money">
	</g>
	<g id="sunglass">
	</g>
	<g id="cocktail">
	</g>
	<g id="compass">
	</g>
	<g id="tent">
	</g>
	<g id="backpack">
	</g>
	<g id="map">
	</g>
	<g id="ticket_1_">
	</g>
	<g id="passport">
	</g>
	<g id="luggage">
	</g>
	<g id="globe">
	</g>
	<g id="suitcase">
	</g>
</g>
<g id="vehicles">
	<g id="trailer">
	</g>
	<g id="airplane">
	</g>
	<g id="yatch">
	</g>
	<g id="taxi">
	</g>
	<g id="hot_air_ballon">
	</g>
	<g id="bus">
	</g>
	<g id="train">
	</g>
</g>
<g id="summer">
	<g id="postcard">
	</g>
	<g id="bikini">
	</g>
	<g id="flipflop">
	</g>
	<g id="plane_around_the_globe">
	</g>
	<g id="binocular">
	</g>
	<g id="beach_table">
	</g>
	<g id="sun_hat">
	</g>
	<g id="beach_bag">
	</g>
	<g id="sea__x26__wave">
	</g>
	<g id="beach">
	</g>
	<g id="beach_ball">
	</g>
	<g id="jetski">
	</g>
	<g id="sandcastle">
	</g>
	<g id="lifeguard_male">
	</g>
	<g id="lifeguard_female">
	</g>
	<g id="lighthouse">
	</g>
	<g id="hammok">
	</g>
	<g id="beach_chair__x26__umbrella">
	</g>
	<g id="lifeguard">
	</g>
	<g id="suncream">
	</g>
	<g id="starfish">
	</g>
	<g id="beach_bar">
	</g>
	<g id="bucket__x26__shovel">
	</g>
	<g id="palm_tree">
	</g>
	<g id="shark_warning">
	</g>
	<g id="surfboard">
	</g>
	<g id="swimming_trunks">
	</g>
	<g id="coconut_drink">
	</g>
	<g id="beach_chair__x26__towel">
	</g>
	<g id="coconut_tree">
	</g>
</g>
</svg>
