<?xml version="1.0" encoding="utf-8"?>
<!-- Generator: Adobe Illustrator 17.0.0, SVG Export Plug-In . SVG Version: 6.00 Build 0)  -->
<!DOCTYPE svg PUBLIC "-//W3C//DTD SVG 1.1//EN" "http://www.w3.org/Graphics/SVG/1.1/DTD/svg11.dtd">
<svg version="1.1" xmlns="http://www.w3.org/2000/svg" xmlns:xlink="http://www.w3.org/1999/xlink" x="0px" y="0px" width="512px"
	 height="512px" viewBox="0 0 512 512" enable-background="new 0 0 512 512" xml:space="preserve">
<g id="famous_places">
	<g id="Pyramid">
	</g>
	<g id="Colloseum">
	</g>
	<g id="Mount_Fuji">
	</g>
	<g id="Great_Wall_of_China">
	</g>
	<g id="Stonehenge">
	</g>
	<g id="Golden_Gate_Bridge">
	</g>
	<g id="Christ_the_Redeemer">
	</g>
	<g id="Statue_of_Liberty">
	</g>
	<g id="Taj_Mahal">
	</g>
	<g id="Eiffel_tower">
	</g>
</g>
<g id="camping">
	<g id="mug">
	</g>
	<g id="hook">
	</g>
	<g id="Swiss_knife">
	</g>
	<g id="flashlight">
	</g>
	<g id="lantern">
	</g>
	<g id="campfire">
	</g>
	<g id="beanie">
	</g>
	<g id="rope">
	</g>
	<g id="boot">
	</g>
	<g id="axe">
	</g>
</g>
<g id="hotel_1_">
	<g id="towel">
	</g>
	<g id="phone">
	</g>
	<g id="pool">
	</g>
	<g id="food_service">
	</g>
	<g id="wifi">
	</g>
	<g id="bed">
	</g>
	<g id="door">
	</g>
	<g id="key">
	</g>
	<g id="do_not_disturb">
	</g>
	<g id="bell">
	</g>
</g>
<g id="winter">
	<g id="snowman">
	</g>
	<g id="snow_mountain">
	</g>
	<g id="reindeer">
	</g>
	<g id="winter_tree">
	</g>
	<g id="lift">
	</g>
	<g id="beanie__x26__google">
	</g>
	<g id="ski">
	</g>
	<g id="snowboard">
	</g>
	<g id="snowboading">
	</g>
	<g id="skiing">
	</g>
</g>
<g id="general_travelling">
	<g id="dinner_set">
	</g>
	<g id="polaroid">
	</g>
	<g id="camera">
	</g>
	<g id="calendar">
	</g>
	<g id="calendar_single">
	</g>
	<g id="shopping_bag">
	</g>
	<g id="watch">
	</g>
	<g id="alarm_clock">
	</g>
	<g id="credit_card">
	</g>
	<g id="road_sign">
	</g>
	<g id="hotel">
	</g>
	<g id="money">
	</g>
	<g id="sunglass">
	</g>
	<g id="cocktail">
	</g>
	<g id="compass">
	</g>
	<g id="tent">
	</g>
	<g id="backpack">
	</g>
	<g id="map">
	</g>
	<g id="ticket_1_">
	</g>
	<g id="passport">
	</g>
	<g id="luggage">
	</g>
	<g id="globe">
	</g>
	<g id="suitcase">
	</g>
</g>
<g id="vehicles">
	<g id="trailer">
	</g>
	<g id="airplane">
	</g>
	<g id="yatch">
	</g>
	<g id="taxi">
		<g>
			<polygon fill="#FFD161" points="260.434,184.988 269.388,160.333 289.495,160.333 293.2,187.262 			"/>
			<path fill="#2D415A" d="M155.978,305.382l30.692-105.233c2.589-8.877,12.188-15.131,23.223-15.131h129.792
				c12.204,0,22.447,7.612,23.753,17.654l13.415,103.129c1.505,11.574-9.338,21.713-23.404,21.884l-173.899,2.104
				C163.946,329.977,152.316,317.936,155.978,305.382z"/>
			<path fill="#6FEBE7" d="M343.984,203.288c-0.909-6.992-7.785-12.351-15.994-12.351H209.893c-7.398,0-13.82,4.386-15.615,10.541
				l-16.149,55.459h172.824L343.984,203.288z"/>
			<path fill="#54B3AF" d="M350.952,256.937H178.129l-14.542,49.806c-1.31,4.493,0.011,9.028,3.625,12.492
				c3.094,2.965,7.349,4.585,11.977,4.585l162.443-2.113c4.224-0.051,8.193-1.498,11.176-4.069c3.46-2.98,5.134-7.025,4.592-11.187
				L350.952,256.937z"/>
			<rect x="163.295" y="283.25" fill="#2D415A" width="205.698" height="8"/>
			<rect x="270.003" y="187.262" fill="#2D415A" width="7.797" height="109.211"/>
			<path fill="#FFD161" d="M385.987,369.418H118.243c-7.358,0-13.322-5.965-13.322-13.322V343v-28.698
				c0-2.695,0.817-5.327,2.344-7.548l3.533-5.139c4.928-7.169,13.07-11.451,21.769-11.451h253.42
				c14.59,0,26.418,11.828,26.418,26.418V343C412.405,357.59,400.577,369.418,385.987,369.418z"/>
			<path fill="#E3E3E3" d="M130.446,380.917H105c-6.624,0-11.993-5.369-11.993-11.993v-18.681c0-6.624,5.369-11.993,11.993-11.993
				h25.446c6.624,0,11.993,5.369,11.993,11.993v18.681C142.439,375.547,137.07,380.917,130.446,380.917z"/>
			<circle fill="#4A4A4A" cx="193.55" cy="370.5" r="38.25"/>
			<circle fill="#E3E3E3" cx="193.55" cy="370.5" r="23.847"/>
			<circle fill="#4A4A4A" cx="330.55" cy="370.5" r="38.25"/>
			<circle fill="#E3E3E3" cx="330.55" cy="370.5" r="23.847"/>
			<path fill="#FFB561" d="M168.743,299.25h103.5c2.623,0,4.75,2.127,4.75,4.75v37.5c0,2.623-2.127,4.75-4.75,4.75h-29.14
				c-1.71,0-3.282-0.914-4.126-2.402c-3.302-5.82-16.863-20.263-70.288-21.064c-2.6-0.039-4.696-2.148-4.696-4.748V304
				C163.993,301.377,166.12,299.25,168.743,299.25z"/>
			<path fill="#FFD161" d="M243.103,344.25c-0.986,0-1.9-0.532-2.387-1.389c-3.613-6.367-17.861-21.265-71.998-22.076
				c-1.503-0.022-2.726-1.255-2.726-2.748V304c0-1.517,1.233-2.75,2.75-2.75h103.5c1.517,0,2.75,1.233,2.75,2.75v37.5
				c0,1.517-1.233,2.75-2.75,2.75H243.103z"/>
			<path fill="#FFB561" d="M280.993,304v42.25h11c0,0,8-21.836,77-21.836V299.25h-83.25C283.12,299.25,280.993,301.377,280.993,304z
				"/>
			<path fill="#FFD161" d="M282.993,344.25V304c0-1.517,1.233-2.75,2.75-2.75h81.25v21.17c-59.03,0.366-73.292,16.941-76.217,21.83
				H282.993z"/>
			<path fill="#E3E3E3" d="M376.993,369.25h31c6.075,0,11-4.925,11-11v-17.5c0-4.694-3.806-8.5-8.5-8.5h-13.5v19h-20V369.25z"/>
			<rect x="105.096" y="312.174" fill="#2D415A" width="31.397" height="23.076"/>
			<rect x="105.096" y="312.174" fill="#FF6650" width="15.699" height="23.076"/>
		</g>
	</g>
	<g id="hot_air_ballon">
	</g>
	<g id="bus">
	</g>
	<g id="train">
	</g>
</g>
<g id="summer">
	<g id="postcard">
	</g>
	<g id="bikini">
	</g>
	<g id="flipflop">
	</g>
	<g id="plane_around_the_globe">
	</g>
	<g id="binocular">
	</g>
	<g id="beach_table">
	</g>
	<g id="sun_hat">
	</g>
	<g id="beach_bag">
	</g>
	<g id="sea__x26__wave">
	</g>
	<g id="beach">
	</g>
	<g id="beach_ball">
	</g>
	<g id="jetski">
	</g>
	<g id="sandcastle">
	</g>
	<g id="lifeguard_male">
	</g>
	<g id="lifeguard_female">
	</g>
	<g id="lighthouse">
	</g>
	<g id="hammok">
	</g>
	<g id="beach_chair__x26__umbrella">
	</g>
	<g id="lifeguard">
	</g>
	<g id="suncream">
	</g>
	<g id="starfish">
	</g>
	<g id="beach_bar">
	</g>
	<g id="bucket__x26__shovel">
	</g>
	<g id="palm_tree">
	</g>
	<g id="shark_warning">
	</g>
	<g id="surfboard">
	</g>
	<g id="swimming_trunks">
	</g>
	<g id="coconut_drink">
	</g>
	<g id="beach_chair__x26__towel">
	</g>
	<g id="coconut_tree">
	</g>
</g>
</svg>
