<?xml version="1.0" encoding="utf-8"?>
<!-- Generator: Adobe Illustrator 17.0.0, SVG Export Plug-In . SVG Version: 6.00 Build 0)  -->
<!DOCTYPE svg PUBLIC "-//W3C//DTD SVG 1.1//EN" "http://www.w3.org/Graphics/SVG/1.1/DTD/svg11.dtd">
<svg version="1.1" xmlns="http://www.w3.org/2000/svg" xmlns:xlink="http://www.w3.org/1999/xlink" x="0px" y="0px" width="512px"
	 height="512px" viewBox="0 0 512 512" enable-background="new 0 0 512 512" xml:space="preserve">
<g id="famous_places">
	<g id="Pyramid">
	</g>
	<g id="Colloseum">
	</g>
	<g id="Mount_Fuji">
	</g>
	<g id="Great_Wall_of_China">
	</g>
	<g id="Stonehenge">
	</g>
	<g id="Golden_Gate_Bridge">
	</g>
	<g id="Christ_the_Redeemer">
	</g>
	<g id="Statue_of_Liberty">
	</g>
	<g id="Taj_Mahal">
	</g>
	<g id="Eiffel_tower">
	</g>
</g>
<g id="camping">
	<g id="mug">
	</g>
	<g id="hook">
	</g>
	<g id="Swiss_knife">
	</g>
	<g id="flashlight">
	</g>
	<g id="lantern">
	</g>
	<g id="campfire">
	</g>
	<g id="beanie">
	</g>
	<g id="rope">
	</g>
	<g id="boot">
	</g>
	<g id="axe">
	</g>
</g>
<g id="hotel_1_">
	<g id="towel">
	</g>
	<g id="phone">
	</g>
	<g id="pool">
	</g>
	<g id="food_service">
	</g>
	<g id="wifi">
	</g>
	<g id="bed">
	</g>
	<g id="door">
	</g>
	<g id="key">
	</g>
	<g id="do_not_disturb">
	</g>
	<g id="bell">
	</g>
</g>
<g id="winter">
	<g id="snowman">
	</g>
	<g id="snow_mountain">
	</g>
	<g id="reindeer">
	</g>
	<g id="winter_tree">
	</g>
	<g id="lift">
	</g>
	<g id="beanie__x26__google">
	</g>
	<g id="ski">
	</g>
	<g id="snowboard">
	</g>
	<g id="snowboading">
	</g>
	<g id="skiing">
	</g>
</g>
<g id="general_travelling">
	<g id="dinner_set">
	</g>
	<g id="polaroid">
		<g>
			<path fill="#FFF7E3" d="M359.846,342.152H152.003c-13.845,0-25.068-11.224-25.068-25.068V118.322
				c0-13.845,11.224-25.068,25.068-25.068h207.842c13.845,0,25.068,11.224,25.068,25.068v198.762
				C384.914,330.929,373.691,342.152,359.846,342.152z"/>
			<g>
				<rect x="223.561" y="93.253" fill="#FF6650" width="21.677" height="232.318"/>
				<rect x="244.934" y="93.253" fill="#FFD161" width="21.677" height="232.318"/>
				<rect x="266.611" y="93.253" fill="#2FB49F" width="21.677" height="232.318"/>
			</g>
			<path fill="#4A4A4A" d="M413.734,344.872v33.664l-157.809,21.25L98.266,371.941v-26.102c0-5.263,1.874-10.355,5.286-14.362
				l24.714-29.025h255.468l25.341,29.762C412.082,335.746,413.734,340.233,413.734,344.872z"/>
			<path fill="#333333" d="M387.052,409.791H124.948c-14.736,0-26.681-11.946-26.681-26.681v-28.337
				c0-14.736,11.946-26.681,26.681-26.681h262.105c14.736,0,26.681,11.946,26.681,26.681v28.337
				C413.734,397.845,401.788,409.791,387.052,409.791z"/>
			<rect x="121.333" y="358.53" fill="#4A4A4A" width="269.333" height="20.822"/>
			<rect x="148.667" y="368.941" fill="#A6A6A6" width="214.667" height="95.845"/>
			<rect x="168.824" y="368.941" fill="#FFFFFF" width="174.351" height="77.845"/>
			<g>
				<circle fill="#E3E3E3" cx="255.925" cy="199.703" r="76.488"/>
				<circle fill="#333333" cx="255.925" cy="199.703" r="58.37"/>
				<circle fill="#4A4A4A" cx="255.925" cy="199.703" r="44.623"/>
				<circle fill="#333333" cx="255.925" cy="199.703" r="28.357"/>
				<circle fill="#5C84B8" cx="255.925" cy="199.703" r="8.189"/>
				<circle fill="#4A4A4A" cx="255.925" cy="199.703" r="11.534"/>
			</g>
			<circle fill="#CF5341" cx="159.081" cy="272.441" r="20.833"/>
			<circle fill="#FF6650" cx="159.081" cy="272.441" r="13.929"/>
			<path fill="#333333" d="M361.828,151.452h-20.165c-5.109,0-9.251-4.142-9.251-9.251v-20.165c0-5.109,4.142-9.251,9.251-9.251
				h20.165c5.109,0,9.251,4.142,9.251,9.251v20.165C371.079,147.311,366.937,151.452,361.828,151.452z"/>
			<path fill="#4A4A4A" d="M357.955,147.579h-12.419c-5.109,0-9.251-4.142-9.251-9.251v-12.419c0-5.109,4.142-9.251,9.251-9.251
				h12.419c5.109,0,9.251,4.142,9.251,9.251v12.419C367.206,143.438,363.064,147.579,357.955,147.579z"/>
			<circle fill="#A6A6A6" cx="351.925" cy="131.703" r="11.534"/>
			<circle fill="#4A4A4A" cx="356.93" cy="206.126" r="14.185"/>
			<circle fill="#A6A6A6" cx="356.93" cy="206.126" r="10.294"/>
		</g>
	</g>
	<g id="camera">
	</g>
	<g id="calendar">
	</g>
	<g id="calendar_single">
	</g>
	<g id="shopping_bag">
	</g>
	<g id="watch">
	</g>
	<g id="alarm_clock">
	</g>
	<g id="credit_card">
	</g>
	<g id="road_sign">
	</g>
	<g id="hotel">
	</g>
	<g id="money">
	</g>
	<g id="sunglass">
	</g>
	<g id="cocktail">
	</g>
	<g id="compass">
	</g>
	<g id="tent">
	</g>
	<g id="backpack">
	</g>
	<g id="map">
	</g>
	<g id="ticket_1_">
	</g>
	<g id="passport">
	</g>
	<g id="luggage">
	</g>
	<g id="globe">
	</g>
	<g id="suitcase">
	</g>
</g>
<g id="vehicles">
	<g id="trailer">
	</g>
	<g id="airplane">
	</g>
	<g id="yatch">
	</g>
	<g id="taxi">
	</g>
	<g id="hot_air_ballon">
	</g>
	<g id="bus">
	</g>
	<g id="train">
	</g>
</g>
<g id="summer">
	<g id="postcard">
	</g>
	<g id="bikini">
	</g>
	<g id="flipflop">
	</g>
	<g id="plane_around_the_globe">
	</g>
	<g id="binocular">
	</g>
	<g id="beach_table">
	</g>
	<g id="sun_hat">
	</g>
	<g id="beach_bag">
	</g>
	<g id="sea__x26__wave">
	</g>
	<g id="beach">
	</g>
	<g id="beach_ball">
	</g>
	<g id="jetski">
	</g>
	<g id="sandcastle">
	</g>
	<g id="lifeguard_male">
	</g>
	<g id="lifeguard_female">
	</g>
	<g id="lighthouse">
	</g>
	<g id="hammok">
	</g>
	<g id="beach_chair__x26__umbrella">
	</g>
	<g id="lifeguard">
	</g>
	<g id="suncream">
	</g>
	<g id="starfish">
	</g>
	<g id="beach_bar">
	</g>
	<g id="bucket__x26__shovel">
	</g>
	<g id="palm_tree">
	</g>
	<g id="shark_warning">
	</g>
	<g id="surfboard">
	</g>
	<g id="swimming_trunks">
	</g>
	<g id="coconut_drink">
	</g>
	<g id="beach_chair__x26__towel">
	</g>
	<g id="coconut_tree">
	</g>
</g>
</svg>
