<?xml version="1.0" encoding="utf-8"?>
<!-- Generator: Adobe Illustrator 17.0.0, SVG Export Plug-In . SVG Version: 6.00 Build 0)  -->
<!DOCTYPE svg PUBLIC "-//W3C//DTD SVG 1.1//EN" "http://www.w3.org/Graphics/SVG/1.1/DTD/svg11.dtd">
<svg version="1.1" xmlns="http://www.w3.org/2000/svg" xmlns:xlink="http://www.w3.org/1999/xlink" x="0px" y="0px" width="512px"
	 height="512px" viewBox="0 0 512 512" enable-background="new 0 0 512 512" xml:space="preserve">
<g id="famous_places">
	<g id="Pyramid">
	</g>
	<g id="Colloseum">
	</g>
	<g id="Mount_Fuji">
	</g>
	<g id="Great_Wall_of_China">
	</g>
	<g id="Stonehenge">
	</g>
	<g id="Golden_Gate_Bridge">
	</g>
	<g id="Christ_the_Redeemer">
	</g>
	<g id="Statue_of_Liberty">
	</g>
	<g id="Taj_Mahal">
	</g>
	<g id="Eiffel_tower">
	</g>
</g>
<g id="camping">
	<g id="mug">
	</g>
	<g id="hook">
	</g>
	<g id="Swiss_knife">
	</g>
	<g id="flashlight">
	</g>
	<g id="lantern">
	</g>
	<g id="campfire">
	</g>
	<g id="beanie">
	</g>
	<g id="rope">
	</g>
	<g id="boot">
	</g>
	<g id="axe">
	</g>
</g>
<g id="hotel_1_">
	<g id="towel">
	</g>
	<g id="phone">
	</g>
	<g id="pool">
	</g>
	<g id="food_service">
	</g>
	<g id="wifi">
	</g>
	<g id="bed">
	</g>
	<g id="door">
	</g>
	<g id="key">
	</g>
	<g id="do_not_disturb">
	</g>
	<g id="bell">
		<rect x="250.223" y="129.884" fill="#FF9B29" width="11.812" height="243.677"/>
		<path fill="#FFD162" d="M267.876,168.075h-23.494c-4.602,0-8.333-3.731-8.333-8.333v-3.02c0-4.602,3.731-8.333,8.333-8.333h23.494
			c4.602,0,8.333,3.731,8.333,8.333v3.02C276.209,164.344,272.478,168.075,267.876,168.075z"/>
		<path fill="#FFD162" d="M364.911,207.257c-29.035-29.007-67.667-44.982-108.782-44.982s-79.748,15.975-108.782,44.982
			c-29.057,29.03-45.06,67.851-45.06,109.02c0,1.305,1.058,2.522,2.362,2.522h302.957c1.305,0,2.362-1.218,2.362-2.522
			C409.97,275.107,393.968,236.287,364.911,207.257z"/>
		<path fill="#FF9B29" d="M364.911,207.257c-29.035-29.007-67.667-44.982-108.782-44.982c-9.821,0-19.498,0.922-28.939,2.705
			c30.082,5.681,57.744,20.199,79.843,42.277c29.057,29.03,45.059,67.851,45.059,109.02c0,1.305-1.058,2.522-2.362,2.522h57.878
			c1.305,0,2.362-1.218,2.362-2.522C409.97,275.107,393.968,236.287,364.911,207.257z"/>
		<path fill="#FFD162" d="M410,335.161c0-1.305-1.058-2.362-2.362-2.362H105.362c-1.305,0-2.362,1.058-2.362,2.362v14.275
			c0,1.305,1.058,2.362,2.362,2.362h302.275c1.305,0,2.362-1.058,2.362-2.362V335.161z"/>
		<path fill="#FF9B29" d="M410,335.161c0-1.305-1.058-2.362-2.362-2.362h-28.275c-1.305,0-2.362,1.058-2.362,2.362v14.275
			c0,1.305,1.058,2.362,2.362,2.362h28.275c1.305,0,2.362-1.058,2.362-2.362V335.161z"/>
		<path fill="#FFD162" d="M407.544,351.967c-0.091-0.01-0.182-0.168-0.273-0.168H104.454c-0.092,0-0.185,0.158-0.277,0.168
			c-7.653,0.902-22.126,6.772-22.126,22.448c0,1.305,1.058,2.384,2.362,2.384h343.173c1.305,0,2.362-1.079,2.362-2.384
			C429.949,358.737,415.294,352.868,407.544,351.967z"/>
		<path fill="#FF9B29" d="M407.544,351.967c-0.091-0.01-0.182-0.168-0.273-0.168h-55.516c0.091,0,0.182,0.158,0.273,0.168
			c7.749,0.901,22.404,6.77,22.404,22.448c0,1.305-1.058,2.384-2.362,2.384h55.516c1.305,0,2.362-1.079,2.362-2.384
			C429.949,358.737,415.294,352.868,407.544,351.967z"/>
		<g>
			<path fill="#FFFFFF" d="M167.059,221.672c-2.003,0-3.96-1.002-5.097-2.826c-1.753-2.812-0.895-6.513,1.917-8.267
				c2.363-1.473,4.825-2.781,7.316-3.889c3.028-1.35,6.575,0.018,7.92,3.046c1.346,3.027-0.018,6.573-3.046,7.919
				c-1.984,0.882-3.95,1.928-5.842,3.107C169.24,221.378,168.143,221.672,167.059,221.672z"/>
		</g>
		<g>
			<path fill="#FFFFFF" d="M120.88,310.304c-0.277,0-0.558-0.019-0.841-0.059c-3.28-0.46-5.567-3.49-5.109-6.771
				c0.242-1.731,6.172-42.745,27.457-72.174c1.943-2.685,5.693-3.288,8.378-1.345c2.685,1.941,3.288,5.692,1.346,8.378
				c-19.507,26.971-25.241,66.41-25.296,66.806C126.393,308.136,123.823,310.304,120.88,310.304z"/>
		</g>
		<path fill="#FFD162" d="M256.709,118.869c-9.35,0-16.93,6.93-16.93,16.93h33.861C273.639,125.799,266.059,118.869,256.709,118.869
			z"/>
		<path fill="#8A532D" d="M461,398.944v-5.861c0-8.933-7.326-16.283-16.259-16.283H67.259c-8.933,0-16.259,7.35-16.259,16.283v5.861
			c0,2.454,0.647,4.771,1.625,6.855h406.75C460.353,403.715,461,401.398,461,398.944z"/>
		<path fill="#6E4224" d="M52.625,405.799c2.582,5.501,8.155,9,14.634,9h377.482c6.479,0,12.052-3.499,14.634-9H52.625z"/>
		<path fill="none" stroke="#A6A6A6" stroke-width="7" stroke-linecap="round" stroke-linejoin="round" stroke-miterlimit="10" d="
			M89.667,210.466c0,0,10-44.382,58.667-48.191"/>
		<path fill="none" stroke="#A6A6A6" stroke-width="7" stroke-linecap="round" stroke-linejoin="round" stroke-miterlimit="10" d="
			M79.667,186.37c0,0,5.744-27.905,35.206-33.905"/>
		<path fill="#8A532D" d="M51,398.944v-5.861c0-8.933,7.326-16.283,16.259-16.283h377.482c8.933,0,16.259,7.35,16.259,16.283v5.861
			c0,2.454-0.647,4.771-1.625,6.855H52.625C51.647,403.715,51,401.398,51,398.944z"/>
		<path fill="none" stroke="#A6A6A6" stroke-width="7" stroke-linecap="round" stroke-linejoin="round" stroke-miterlimit="10" d="
			M422.333,210.466c0,0-10-44.382-58.667-48.191"/>
		<path fill="none" stroke="#A6A6A6" stroke-width="7" stroke-linecap="round" stroke-linejoin="round" stroke-miterlimit="10" d="
			M432.333,186.37c0,0-5.744-27.905-35.206-33.905"/>
	</g>
</g>
<g id="winter">
	<g id="snowman">
	</g>
	<g id="snow_mountain">
	</g>
	<g id="reindeer">
	</g>
	<g id="winter_tree">
	</g>
	<g id="lift">
	</g>
	<g id="beanie__x26__google">
	</g>
	<g id="ski">
	</g>
	<g id="snowboard">
	</g>
	<g id="snowboading">
	</g>
	<g id="skiing">
	</g>
</g>
<g id="general_travelling">
	<g id="dinner_set">
	</g>
	<g id="polaroid">
	</g>
	<g id="camera">
	</g>
	<g id="calendar">
	</g>
	<g id="calendar_single">
	</g>
	<g id="shopping_bag">
	</g>
	<g id="watch">
	</g>
	<g id="alarm_clock">
	</g>
	<g id="credit_card">
	</g>
	<g id="road_sign">
	</g>
	<g id="hotel">
	</g>
	<g id="money">
	</g>
	<g id="sunglass">
	</g>
	<g id="cocktail">
	</g>
	<g id="compass">
	</g>
	<g id="tent">
	</g>
	<g id="backpack">
	</g>
	<g id="map">
	</g>
	<g id="ticket_1_">
	</g>
	<g id="passport">
	</g>
	<g id="luggage">
	</g>
	<g id="globe">
	</g>
	<g id="suitcase">
	</g>
</g>
<g id="vehicles">
	<g id="trailer">
	</g>
	<g id="airplane">
	</g>
	<g id="yatch">
	</g>
	<g id="taxi">
	</g>
	<g id="hot_air_ballon">
	</g>
	<g id="bus">
	</g>
	<g id="train">
	</g>
</g>
<g id="summer">
	<g id="postcard">
	</g>
	<g id="bikini">
	</g>
	<g id="flipflop">
	</g>
	<g id="plane_around_the_globe">
	</g>
	<g id="binocular">
	</g>
	<g id="beach_table">
	</g>
	<g id="sun_hat">
	</g>
	<g id="beach_bag">
	</g>
	<g id="sea__x26__wave">
	</g>
	<g id="beach">
	</g>
	<g id="beach_ball">
	</g>
	<g id="jetski">
	</g>
	<g id="sandcastle">
	</g>
	<g id="lifeguard_male">
	</g>
	<g id="lifeguard_female">
	</g>
	<g id="lighthouse">
	</g>
	<g id="hammok">
	</g>
	<g id="beach_chair__x26__umbrella">
	</g>
	<g id="lifeguard">
	</g>
	<g id="suncream">
	</g>
	<g id="starfish">
	</g>
	<g id="beach_bar">
	</g>
	<g id="bucket__x26__shovel">
	</g>
	<g id="palm_tree">
	</g>
	<g id="shark_warning">
	</g>
	<g id="surfboard">
	</g>
	<g id="swimming_trunks">
	</g>
	<g id="coconut_drink">
	</g>
	<g id="beach_chair__x26__towel">
	</g>
	<g id="coconut_tree">
	</g>
</g>
</svg>
