<?xml version="1.0" encoding="utf-8"?>
<!-- Generator: Adobe Illustrator 17.0.0, SVG Export Plug-In . SVG Version: 6.00 Build 0)  -->
<!DOCTYPE svg PUBLIC "-//W3C//DTD SVG 1.1//EN" "http://www.w3.org/Graphics/SVG/1.1/DTD/svg11.dtd">
<svg version="1.1" xmlns="http://www.w3.org/2000/svg" xmlns:xlink="http://www.w3.org/1999/xlink" x="0px" y="0px" width="512px"
	 height="512px" viewBox="0 0 512 512" enable-background="new 0 0 512 512" xml:space="preserve">
<g id="famous_places">
	<g id="Pyramid">
	</g>
	<g id="Colloseum">
	</g>
	<g id="Mount_Fuji">
	</g>
	<g id="Great_Wall_of_China">
	</g>
	<g id="Stonehenge">
	</g>
	<g id="Golden_Gate_Bridge">
	</g>
	<g id="Christ_the_Redeemer">
	</g>
	<g id="Statue_of_Liberty">
	</g>
	<g id="Taj_Mahal">
	</g>
	<g id="Eiffel_tower">
	</g>
</g>
<g id="camping">
	<g id="mug">
	</g>
	<g id="hook">
	</g>
	<g id="Swiss_knife">
	</g>
	<g id="flashlight">
	</g>
	<g id="lantern">
	</g>
	<g id="campfire">
	</g>
	<g id="beanie">
	</g>
	<g id="rope">
	</g>
	<g id="boot">
	</g>
	<g id="axe">
	</g>
</g>
<g id="hotel_1_">
	<g id="towel">
	</g>
	<g id="phone">
	</g>
	<g id="pool">
	</g>
	<g id="food_service">
	</g>
	<g id="wifi">
	</g>
	<g id="bed">
	</g>
	<g id="door">
	</g>
	<g id="key">
	</g>
	<g id="do_not_disturb">
	</g>
	<g id="bell">
	</g>
</g>
<g id="winter">
	<g id="snowman">
	</g>
	<g id="snow_mountain">
	</g>
	<g id="reindeer">
	</g>
	<g id="winter_tree">
	</g>
	<g id="lift">
	</g>
	<g id="beanie__x26__google">
	</g>
	<g id="ski">
	</g>
	<g id="snowboard">
	</g>
	<g id="snowboading">
	</g>
	<g id="skiing">
	</g>
</g>
<g id="general_travelling">
	<g id="dinner_set">
	</g>
	<g id="polaroid">
	</g>
	<g id="camera">
	</g>
	<g id="calendar">
	</g>
	<g id="calendar_single">
	</g>
	<g id="shopping_bag">
	</g>
	<g id="watch">
	</g>
	<g id="alarm_clock">
	</g>
	<g id="credit_card">
	</g>
	<g id="road_sign">
	</g>
	<g id="hotel">
	</g>
	<g id="money">
	</g>
	<g id="sunglass">
	</g>
	<g id="cocktail">
	</g>
	<g id="compass">
	</g>
	<g id="tent">
	</g>
	<g id="backpack">
	</g>
	<g id="map">
	</g>
	<g id="ticket_1_">
	</g>
	<g id="passport">
	</g>
	<g id="luggage">
	</g>
	<g id="globe">
	</g>
	<g id="suitcase">
	</g>
</g>
<g id="vehicles">
	<g id="trailer">
	</g>
	<g id="airplane">
	</g>
	<g id="yatch">
	</g>
	<g id="taxi">
	</g>
	<g id="hot_air_ballon">
	</g>
	<g id="bus">
	</g>
	<g id="train">
	</g>
</g>
<g id="summer">
	<g id="postcard">
	</g>
	<g id="bikini">
		<path fill="#CF5341" d="M402.876,185.819c-3.456-14.849-27.611-30.875-25.055-37.218c4.683-11.621-11.937,19.756-11.937,19.756
			l-3.924-14.368c0,0,16.669-6.501-17.499,1.165s-51.409,30.665-60.353,45.54c-8.944,14.875-28.049,15.791-28.049,15.791
			s-19.166-0.916-28.11-15.791c-8.944-14.875-26.215-37.874-60.383-45.54s-9.109,1.181-9.109,1.181l-20.752-0.942
			c0,0-8.212-18.412-3.529-6.791c2.556,6.343-21.599,22.369-25.055,37.218c-6.448,27.708,9.128,71.332,52.387,78.473
			c66.442,10.968,94.551-35.03,94.551-35.03s28.049,45.998,94.491,35.03C393.808,257.151,409.324,213.527,402.876,185.819z"/>
		<path fill="#FF6650" d="M402.876,173.042c-3.456-14.849-27.611-30.875-25.055-37.218c4.683-11.621,9.722-95.665,9.722-95.665
			h-9.722c0,0,0.808,94.551-33.36,102.218s-51.409,30.665-60.353,45.54c-8.944,14.875-28.049,15.791-28.049,15.791
			s-19.166-0.916-28.11-15.791c-8.944-14.875-26.215-37.874-60.383-45.54s-33.39-102.218-33.39-102.218h-9.722
			c0,0,5.039,84.045,9.722,95.665c2.556,6.343-21.599,22.369-25.055,37.218c-6.448,27.708,9.128,71.332,52.387,78.473
			c66.442,10.968,94.551-35.03,94.551-35.03s28.049,45.998,94.491,35.03C393.808,244.373,409.324,200.75,402.876,173.042z"/>
		<path fill="#FF6650" d="M263.958,471.841c0,0,0.042-80.998,102.042-80.998v-15.002H255.97H145v15.002
			c104,0,102.983,80.998,102.983,80.998"/>
		<path fill="#E3E3E3" d="M147.139,148.112l2.9,5.876c0.374,0.757,1.096,1.282,1.932,1.404l6.485,0.942
			c2.105,0.306,2.945,2.893,1.422,4.377l-4.692,4.574c-0.605,0.59-0.881,1.439-0.738,2.271l1.108,6.458
			c0.36,2.096-1.841,3.695-3.724,2.705l-5.8-3.049c-0.748-0.393-1.641-0.393-2.388,0l-5.8,3.049
			c-1.883,0.99-4.083-0.609-3.724-2.705l1.108-6.458c0.143-0.832-0.133-1.682-0.738-2.271l-4.692-4.574
			c-1.523-1.485-0.683-4.071,1.422-4.377l6.485-0.942c0.836-0.121,1.558-0.646,1.932-1.404l2.9-5.876
			C143.478,146.205,146.198,146.205,147.139,148.112z"/>
		<path fill="#E3E3E3" d="M188.027,174.177l2.9,5.876c0.374,0.757,1.096,1.282,1.932,1.404l6.485,0.942
			c2.105,0.306,2.945,2.893,1.422,4.377l-4.692,4.574c-0.605,0.59-0.881,1.439-0.738,2.271l1.108,6.458
			c0.36,2.096-1.841,3.695-3.724,2.705l-5.8-3.049c-0.748-0.393-1.641-0.393-2.388,0l-5.8,3.049
			c-1.883,0.99-4.083-0.609-3.724-2.705l1.108-6.458c0.143-0.832-0.133-1.682-0.738-2.271l-4.692-4.574
			c-1.523-1.485-0.683-4.071,1.422-4.377l6.485-0.942c0.836-0.121,1.558-0.646,1.932-1.404l2.9-5.876
			C184.365,172.27,187.085,172.27,188.027,174.177z"/>
		<path fill="#E3E3E3" d="M137.556,189.347l2.9,5.876c0.374,0.757,1.096,1.282,1.932,1.404l6.485,0.942
			c2.105,0.306,2.945,2.893,1.422,4.377l-4.692,4.574c-0.605,0.59-0.881,1.439-0.738,2.271l1.108,6.458
			c0.36,2.096-1.841,3.695-3.724,2.705l-5.8-3.049c-0.748-0.393-1.641-0.393-2.388,0l-5.8,3.049
			c-1.883,0.99-4.083-0.609-3.724-2.705l1.108-6.458c0.143-0.832-0.133-1.682-0.738-2.271l-4.692-4.574
			c-1.523-1.485-0.683-4.071,1.422-4.377l6.485-0.942c0.836-0.121,1.558-0.646,1.932-1.404l2.9-5.876
			C133.895,187.44,136.615,187.44,137.556,189.347z"/>
		<path fill="#E3E3E3" d="M172.208,211.689l2.9,5.876c0.374,0.757,1.096,1.282,1.932,1.404l6.485,0.942
			c2.105,0.306,2.945,2.893,1.422,4.377l-4.692,4.574c-0.605,0.59-0.881,1.439-0.738,2.271l1.108,6.458
			c0.36,2.096-1.841,3.695-3.724,2.705l-5.8-3.049c-0.748-0.393-1.641-0.393-2.388,0l-5.8,3.049
			c-1.883,0.99-4.083-0.609-3.724-2.705l1.108-6.458c0.143-0.832-0.133-1.682-0.738-2.271l-4.692-4.574
			c-1.523-1.485-0.683-4.071,1.422-4.377l6.485-0.942c0.836-0.121,1.558-0.646,1.932-1.404l2.9-5.876
			C168.547,209.782,171.267,209.782,172.208,211.689z"/>
		<path fill="#E3E3E3" d="M215.651,202.637l2.9,5.876c0.374,0.757,1.096,1.282,1.932,1.404l6.485,0.942
			c2.105,0.306,2.945,2.893,1.422,4.377l-4.692,4.574c-0.605,0.59-0.881,1.439-0.738,2.271l1.108,6.458
			c0.36,2.096-1.841,3.695-3.724,2.705l-5.8-3.049c-0.748-0.393-1.641-0.393-2.388,0l-5.8,3.049
			c-1.883,0.99-4.083-0.609-3.724-2.705l1.108-6.458c0.143-0.832-0.133-1.682-0.738-2.271l-4.692-4.574
			c-1.523-1.485-0.683-4.071,1.422-4.377l6.485-0.942c0.836-0.121,1.558-0.646,1.932-1.404l2.9-5.876
			C211.99,200.729,214.709,200.729,215.651,202.637z"/>
		<path fill="#E3E3E3" d="M364.861,148.112l-2.9,5.876c-0.374,0.757-1.096,1.282-1.932,1.404l-6.485,0.942
			c-2.105,0.306-2.945,2.893-1.422,4.377l4.692,4.574c0.605,0.59,0.881,1.439,0.738,2.271l-1.108,6.458
			c-0.36,2.096,1.841,3.695,3.724,2.705l5.8-3.049c0.748-0.393,1.641-0.393,2.388,0l5.8,3.049c1.883,0.99,4.083-0.609,3.724-2.705
			l-1.108-6.458c-0.143-0.832,0.133-1.682,0.738-2.271l4.692-4.574c1.523-1.485,0.683-4.071-1.422-4.377l-6.485-0.942
			c-0.836-0.121-1.558-0.646-1.932-1.404l-2.9-5.876C368.522,146.205,365.802,146.205,364.861,148.112z"/>
		<path fill="#E3E3E3" d="M323.973,174.177l-2.9,5.876c-0.374,0.757-1.096,1.282-1.932,1.404l-6.485,0.942
			c-2.105,0.306-2.945,2.893-1.422,4.377l4.692,4.574c0.605,0.59,0.881,1.439,0.738,2.271l-1.108,6.458
			c-0.36,2.096,1.841,3.695,3.724,2.705l5.8-3.049c0.748-0.393,1.641-0.393,2.388,0l5.8,3.049c1.883,0.99,4.083-0.609,3.724-2.705
			l-1.108-6.458c-0.143-0.832,0.133-1.682,0.738-2.271l4.692-4.574c1.523-1.485,0.683-4.071-1.422-4.377l-6.485-0.942
			c-0.836-0.121-1.558-0.646-1.932-1.404l-2.9-5.876C327.635,172.27,324.915,172.27,323.973,174.177z"/>
		<path fill="#E3E3E3" d="M374.444,189.347l-2.9,5.876c-0.374,0.757-1.096,1.282-1.932,1.404l-6.485,0.942
			c-2.105,0.306-2.945,2.893-1.422,4.377l4.692,4.574c0.605,0.59,0.881,1.439,0.738,2.271l-1.108,6.458
			c-0.36,2.096,1.841,3.695,3.724,2.705l5.8-3.049c0.748-0.393,1.641-0.393,2.388,0l5.8,3.049c1.883,0.99,4.083-0.609,3.724-2.705
			l-1.108-6.458c-0.143-0.832,0.133-1.682,0.738-2.271l4.692-4.574c1.523-1.485,0.683-4.071-1.422-4.377l-6.485-0.942
			c-0.836-0.121-1.558-0.646-1.932-1.404l-2.9-5.876C378.105,187.44,375.385,187.44,374.444,189.347z"/>
		<path fill="#E3E3E3" d="M339.792,211.689l-2.9,5.876c-0.374,0.757-1.096,1.282-1.932,1.404l-6.485,0.942
			c-2.105,0.306-2.945,2.893-1.422,4.377l4.692,4.574c0.605,0.59,0.881,1.439,0.738,2.271l-1.108,6.458
			c-0.36,2.096,1.841,3.695,3.724,2.705l5.8-3.049c0.748-0.393,1.641-0.393,2.388,0l5.8,3.049c1.883,0.99,4.083-0.609,3.724-2.705
			l-1.108-6.458c-0.143-0.832,0.133-1.682,0.738-2.271l4.692-4.574c1.523-1.485,0.683-4.071-1.422-4.377l-6.485-0.942
			c-0.836-0.121-1.558-0.646-1.932-1.404l-2.9-5.876C343.453,209.782,340.733,209.782,339.792,211.689z"/>
		<path fill="#E3E3E3" d="M296.349,202.637l-2.9,5.876c-0.374,0.757-1.096,1.282-1.932,1.404l-6.485,0.942
			c-2.105,0.306-2.945,2.893-1.422,4.377l4.692,4.574c0.605,0.59,0.881,1.439,0.738,2.271l-1.108,6.458
			c-0.36,2.096,1.841,3.695,3.724,2.705l5.8-3.049c0.748-0.393,1.641-0.393,2.388,0l5.8,3.049c1.883,0.99,4.083-0.609,3.724-2.705
			l-1.108-6.458c-0.143-0.832,0.133-1.682,0.738-2.271l4.692-4.574c1.523-1.485,0.683-4.071-1.422-4.377l-6.485-0.942
			c-0.836-0.121-1.558-0.646-1.932-1.404l-2.9-5.876C300.01,200.729,297.291,200.729,296.349,202.637z"/>
		<g>
			<path fill="none" stroke="#2D415A" stroke-width="4" stroke-linecap="round" stroke-linejoin="round" stroke-miterlimit="10" d="
				M137.491,94.709h-9.174c-2.187,0-3.96-1.773-3.96-3.96v-9.576c0-2.187,1.773-3.96,3.96-3.96h9.174c2.187,0,3.96,1.773,3.96,3.96
				v9.576C141.451,92.936,139.678,94.709,137.491,94.709z"/>
			
				<line fill="none" stroke="#2D415A" stroke-width="4" stroke-linecap="round" stroke-linejoin="round" stroke-miterlimit="10" x1="134" y1="93.452" x2="134" y2="84.452"/>
		</g>
		<g>
			<path fill="none" stroke="#2D415A" stroke-width="4" stroke-linecap="round" stroke-linejoin="round" stroke-miterlimit="10" d="
				M384.092,94.709h-9.174c-2.187,0-3.96-1.773-3.96-3.96v-9.576c0-2.187,1.773-3.96,3.96-3.96h9.174c2.187,0,3.96,1.773,3.96,3.96
				v9.576C388.052,92.936,386.279,94.709,384.092,94.709z"/>
			
				<line fill="none" stroke="#2D415A" stroke-width="4" stroke-linecap="round" stroke-linejoin="round" stroke-miterlimit="10" x1="380" y1="93.452" x2="380" y2="84.452"/>
		</g>
		<rect x="144.838" y="359.589" fill="#CF5341" width="221.046" height="16.61"/>
	</g>
	<g id="flipflop">
	</g>
	<g id="plane_around_the_globe">
	</g>
	<g id="binocular">
	</g>
	<g id="beach_table">
	</g>
	<g id="sun_hat">
	</g>
	<g id="beach_bag">
	</g>
	<g id="sea__x26__wave">
	</g>
	<g id="beach">
	</g>
	<g id="beach_ball">
	</g>
	<g id="jetski">
	</g>
	<g id="sandcastle">
	</g>
	<g id="lifeguard_male">
	</g>
	<g id="lifeguard_female">
	</g>
	<g id="lighthouse">
	</g>
	<g id="hammok">
	</g>
	<g id="beach_chair__x26__umbrella">
	</g>
	<g id="lifeguard">
	</g>
	<g id="suncream">
	</g>
	<g id="starfish">
	</g>
	<g id="beach_bar">
	</g>
	<g id="bucket__x26__shovel">
	</g>
	<g id="palm_tree">
	</g>
	<g id="shark_warning">
	</g>
	<g id="surfboard">
	</g>
	<g id="swimming_trunks">
	</g>
	<g id="coconut_drink">
	</g>
	<g id="beach_chair__x26__towel">
	</g>
	<g id="coconut_tree">
	</g>
</g>
</svg>
