<?xml version="1.0" encoding="utf-8"?>
<!-- Generator: Adobe Illustrator 17.0.0, SVG Export Plug-In . SVG Version: 6.00 Build 0)  -->
<!DOCTYPE svg PUBLIC "-//W3C//DTD SVG 1.1//EN" "http://www.w3.org/Graphics/SVG/1.1/DTD/svg11.dtd">
<svg version="1.1" xmlns="http://www.w3.org/2000/svg" xmlns:xlink="http://www.w3.org/1999/xlink" x="0px" y="0px" width="512px"
	 height="512px" viewBox="0 0 512 512" enable-background="new 0 0 512 512" xml:space="preserve">
<g id="famous_places">
	<g id="Pyramid">
	</g>
	<g id="Colloseum">
	</g>
	<g id="Mount_Fuji">
	</g>
	<g id="Great_Wall_of_China">
	</g>
	<g id="Stonehenge">
	</g>
	<g id="Golden_Gate_Bridge">
	</g>
	<g id="Christ_the_Redeemer">
	</g>
	<g id="Statue_of_Liberty">
	</g>
	<g id="Taj_Mahal">
	</g>
	<g id="Eiffel_tower">
	</g>
</g>
<g id="camping">
	<g id="mug">
	</g>
	<g id="hook">
	</g>
	<g id="Swiss_knife">
	</g>
	<g id="flashlight">
	</g>
	<g id="lantern">
	</g>
	<g id="campfire">
	</g>
	<g id="beanie">
	</g>
	<g id="rope">
	</g>
	<g id="boot">
	</g>
	<g id="axe">
	</g>
</g>
<g id="hotel_1_">
	<g id="towel">
	</g>
	<g id="phone">
	</g>
	<g id="pool">
	</g>
	<g id="food_service">
	</g>
	<g id="wifi">
	</g>
	<g id="bed">
	</g>
	<g id="door">
	</g>
	<g id="key">
	</g>
	<g id="do_not_disturb">
	</g>
	<g id="bell">
	</g>
</g>
<g id="winter">
	<g id="snowman">
	</g>
	<g id="snow_mountain">
	</g>
	<g id="reindeer">
	</g>
	<g id="winter_tree">
	</g>
	<g id="lift">
	</g>
	<g id="beanie__x26__google">
	</g>
	<g id="ski">
	</g>
	<g id="snowboard">
	</g>
	<g id="snowboading">
	</g>
	<g id="skiing">
	</g>
</g>
<g id="general_travelling">
	<g id="dinner_set">
	</g>
	<g id="polaroid">
	</g>
	<g id="camera">
	</g>
	<g id="calendar">
	</g>
	<g id="calendar_single">
	</g>
	<g id="shopping_bag">
	</g>
	<g id="watch">
	</g>
	<g id="alarm_clock">
	</g>
	<g id="credit_card">
	</g>
	<g id="road_sign">
	</g>
	<g id="hotel">
	</g>
	<g id="money">
	</g>
	<g id="sunglass">
	</g>
	<g id="cocktail">
	</g>
	<g id="compass">
	</g>
	<g id="tent">
	</g>
	<g id="backpack">
	</g>
	<g id="map">
	</g>
	<g id="ticket_1_">
	</g>
	<g id="passport">
	</g>
	<g id="luggage">
	</g>
	<g id="globe">
	</g>
	<g id="suitcase">
	</g>
</g>
<g id="vehicles">
	<g id="trailer">
	</g>
	<g id="airplane">
	</g>
	<g id="yatch">
	</g>
	<g id="taxi">
	</g>
	<g id="hot_air_ballon">
	</g>
	<g id="bus">
		<g>
			<polygon fill="#C24E3D" points="279,133.937 296.039,113.937 436,113.937 436,133.937 			"/>
			<rect x="117.954" y="113.937" fill="#E3E3E3" width="116.046" height="20"/>
			<path fill="#FF6650" d="M463.053,362.131v-222.35c0-7.625-6.181-13.806-13.806-13.806H100.254c-4.115,0-8.015,1.836-10.638,5.006
				l-1.376,1.663c-2.048,2.476-3.168,5.588-3.168,8.8v9.493h61.835c2.2,0,4.093,2.133,4.093,4.333v141.333
				c0,2.2-1.893,4.333-4.093,4.333H80.279l0.268-0.333h-0.268l-9.033,8.797c-2.669,2.599-4.174,6.166-4.174,9.891v42.839
				c0,0.614,0.054,1.214,0.132,1.806h395.717C462.999,363.345,463.053,362.745,463.053,362.131z"/>
			<rect x="67.204" y="321.282" fill="#2D415A" width="18.463" height="40.656"/>
			<rect x="67.204" y="321.282" fill="#FF6650" width="9.231" height="40.656"/>
			<rect x="85" y="158.937" fill="#6FEBE7" width="58" height="61"/>
			<path fill="#2D415A" d="M67.204,363.937c0.887,6.769,6.664,12,13.675,12h368.367c7.011,0,12.788-5.231,13.675-12H67.204z"/>
			<circle fill="#4A4A4A" cx="167.667" cy="369.937" r="41.333"/>
			<circle fill="#E3E3E3" cx="167.667" cy="369.937" r="27.667"/>
			<circle fill="#4A4A4A" cx="379.667" cy="369.937" r="41.333"/>
			<circle fill="#E3E3E3" cx="379.667" cy="369.937" r="27.667"/>
			<path fill="#2D415A" d="M165,150.937c-2.2,0-4,1.8-4,4v160.108c0,2.2,1.794,3.854,3.987,3.676c0,0,0.412-0.034,2.657-0.034
				c26.217,0,49.053,41.74,49.053,41.74c1.056,1.93,2.906,3.509,4.112,3.509s2.192-1.8,2.192-4v-205c0-2.2-1.8-4-4-4H165z"/>
			<path fill="#2D415A" d="M296.039,239.937c0,2.2-1.8,4-4,4h-53.954c-2.2,0-4-1.8-4-4v-84.667c0-2.2,1.8-4,4-4h53.954
				c2.2,0,4,1.8,4,4V239.937z"/>
			<path fill="#2D415A" d="M367.993,239.937c0,2.2-1.8,4-4,4h-53.954c-2.2,0-4-1.8-4-4v-84.667c0-2.2,1.8-4,4-4h53.954
				c2.2,0,4,1.8,4,4V239.937z"/>
			<path fill="#2D415A" d="M439.977,239.937c0,2.2-1.8,4-4,4h-53.954c-2.2,0-4-1.8-4-4v-84.667c0-2.2,1.8-4,4-4h53.954
				c2.2,0,4,1.8,4,4V239.937z"/>
			<rect x="71.667" y="169.271" fill="#2D415A" width="28" height="8.131"/>
			<polygon fill="#2D415A" points="80.279,169.271 63.667,169.271 71.667,235.437 80.279,235.437 			"/>
			<path fill="#2D415A" d="M151,296.604V155.271c0-2.2-1.893-4.333-4.093-4.333H85l0,0l0,0v8h58v134H84.776
				c-0.558,2.667-1.895,5.467-3.878,7.398l-0.35,0.602h66.36C149.107,300.937,151,298.804,151,296.604z"/>
			<path fill="#2D415A" d="M146.907,300.937c2.2,0,4.093-2.133,4.093-4.333V155.271c0-2.2-1.893-4.333-4.093-4.333H85l0,0h61.907
				c2.2,0,4.093,2.133,4.093,4.333v141.333C151,298.804,149.107,300.937,146.907,300.937h-66.36h-0.268H146.907z"/>
			<rect x="85" y="153.937" fill="#2D415A" width="65.907" height="41.928"/>
			<rect x="169" y="158.937" fill="#6FEBE7" width="46" height="61"/>
			<path fill="#54B3AF" d="M169,310.716c19.66,0.805,36.338,18.937,46,32.267V219.937h-46V310.716z"/>
			<rect x="242" y="158.937" fill="#6FEBE7" width="46" height="61"/>
			<rect x="242" y="219.937" fill="#54B3AF" width="46" height="16"/>
			<rect x="314" y="158.937" fill="#6FEBE7" width="46" height="61"/>
			<rect x="314" y="219.937" fill="#54B3AF" width="46" height="16"/>
			<rect x="386" y="158.937" fill="#6FEBE7" width="46" height="61"/>
			<rect x="386" y="219.937" fill="#54B3AF" width="46" height="16"/>
			<path fill="#54B3AF" d="M85,290.111c0,0.958-0.031,1.904-0.224,2.827H143v-73H85V290.111z"/>
			<path fill="#C24E3D" d="M446,255.937H296h-0.001H234c-1.104,0-2,0.896-2,2v93c0,1.104,0.896,2,2,2h62.039h0.001H323
				c0.952,0,1.772-0.672,1.961-1.605c0.07-0.351,6.904-32.068,42.227-37.57c0.249,0.111,0.522,0.175,0.812,0.175
				c0.484,0,0.922-0.179,1.268-0.465c2.755-0.338,5.66-0.535,8.756-0.535H446c1.104,0,2-0.896,2-2v-53
				C448,256.833,447.104,255.937,446,255.937z M236,259.937h58.001l0.037,89H236V259.937z M321.453,348.937h-23.415l-0.037-89H366
				v49.955C333.156,315.264,323.421,342.061,321.453,348.937z M444,308.937h-65.977c-2.809,0-5.476,0.149-8.023,0.414v-49.414h74
				V308.937z"/>
		</g>
	</g>
	<g id="train">
	</g>
</g>
<g id="summer">
	<g id="postcard">
	</g>
	<g id="bikini">
	</g>
	<g id="flipflop">
	</g>
	<g id="plane_around_the_globe">
	</g>
	<g id="binocular">
	</g>
	<g id="beach_table">
	</g>
	<g id="sun_hat">
	</g>
	<g id="beach_bag">
	</g>
	<g id="sea__x26__wave">
	</g>
	<g id="beach">
	</g>
	<g id="beach_ball">
	</g>
	<g id="jetski">
	</g>
	<g id="sandcastle">
	</g>
	<g id="lifeguard_male">
	</g>
	<g id="lifeguard_female">
	</g>
	<g id="lighthouse">
	</g>
	<g id="hammok">
	</g>
	<g id="beach_chair__x26__umbrella">
	</g>
	<g id="lifeguard">
	</g>
	<g id="suncream">
	</g>
	<g id="starfish">
	</g>
	<g id="beach_bar">
	</g>
	<g id="bucket__x26__shovel">
	</g>
	<g id="palm_tree">
	</g>
	<g id="shark_warning">
	</g>
	<g id="surfboard">
	</g>
	<g id="swimming_trunks">
	</g>
	<g id="coconut_drink">
	</g>
	<g id="beach_chair__x26__towel">
	</g>
	<g id="coconut_tree">
	</g>
</g>
</svg>
