<?xml version="1.0" encoding="utf-8"?>
<!-- Generator: Adobe Illustrator 17.0.0, SVG Export Plug-In . SVG Version: 6.00 Build 0)  -->
<!DOCTYPE svg PUBLIC "-//W3C//DTD SVG 1.1//EN" "http://www.w3.org/Graphics/SVG/1.1/DTD/svg11.dtd">
<svg version="1.1" xmlns="http://www.w3.org/2000/svg" xmlns:xlink="http://www.w3.org/1999/xlink" x="0px" y="0px" width="512px"
	 height="512px" viewBox="0 0 512 512" enable-background="new 0 0 512 512" xml:space="preserve">
<g id="famous_places">
	<g id="Pyramid">
	</g>
	<g id="Colloseum">
	</g>
	<g id="Mount_Fuji">
	</g>
	<g id="Great_Wall_of_China">
	</g>
	<g id="Stonehenge">
	</g>
	<g id="Golden_Gate_Bridge">
	</g>
	<g id="Christ_the_Redeemer">
	</g>
	<g id="Statue_of_Liberty">
	</g>
	<g id="Taj_Mahal">
	</g>
	<g id="Eiffel_tower">
	</g>
</g>
<g id="camping">
	<g id="mug">
	</g>
	<g id="hook">
	</g>
	<g id="Swiss_knife">
	</g>
	<g id="flashlight">
	</g>
	<g id="lantern">
	</g>
	<g id="campfire">
	</g>
	<g id="beanie">
	</g>
	<g id="rope">
	</g>
	<g id="boot">
	</g>
	<g id="axe">
		<g>
			<path fill="#8A532D" d="M468.669,384.654l-31.641,31.641c-3.705,3.705-9.745,3.598-13.317-0.236l-275.86-296.145
				c-3.397-3.647-3.296-9.329,0.228-12.853l11.356-11.356c3.524-3.524,9.206-3.625,12.853-0.228l296.145,275.86
				C472.267,374.909,472.374,380.949,468.669,384.654z"/>
			<path fill="#6E4224" d="M172.288,95.477c-3.647-3.397-9.329-3.296-12.853,0.228l-10.657,10.657
				c3.524-3.524,9.206-3.625,12.853-0.228l296.145,275.86c3.834,3.572,3.942,9.612,0.236,13.317l10.657-10.657
				c3.705-3.705,3.598-9.745-0.236-13.317L172.288,95.477z"/>
			<path fill="#6E4224" d="M176.69,99.577c-5.955,5.861-14.908,14.232-26.036,23.345l74.77,80.268
				c4.928-4.885,10.23-9.832,15.805-14.727l0.265-0.232l0.229-0.267c4.234-4.926,8.892-9.94,13.839-14.918L176.69,99.577z"/>
			<path fill="#E3E3E3" d="M79.707,172.141c-10.895,4.271-22.159,7.548-33.59,9.338c-4.23,0.662-6.689,5.135-4.913,9.03
				c10.48,22.987,46.065,89.515,118.236,119.882c4.474,1.882,9.294-1.711,8.89-6.548c-0.639-7.639-0.06-19.138,5.097-33.876
				C123.323,242.616,93.758,198.365,79.707,172.141z"/>
			<path fill="#FF6650" d="M196.02,96.349c-2.556-2.556-6.711-2.506-9.213,0.103c-13.561,14.145-56.287,55.77-107.1,75.689
				c14.051,26.224,43.616,70.475,93.72,97.826c7.668-21.916,25.477-51.004,64.503-85.262c6.311-7.345,13.639-15.025,22.121-23.009
				c-0.268-1.1-0.83-2.146-1.698-3.014L196.02,96.349z"/>
			
				<line fill="none" stroke="#6E4224" stroke-width="4" stroke-linecap="round" stroke-linejoin="round" stroke-miterlimit="10" x1="242.95" y1="199.847" x2="306.59" y2="263.487"/>
			
				<line fill="none" stroke="#6E4224" stroke-width="4" stroke-linecap="round" stroke-linejoin="round" stroke-miterlimit="10" x1="295.92" y1="267.08" x2="317.133" y2="288.294"/>
			
				<line fill="none" stroke="#6E4224" stroke-width="4" stroke-linecap="round" stroke-linejoin="round" stroke-miterlimit="10" x1="325.618" y1="272.737" x2="360.267" y2="307.385"/>
			
				<line fill="none" stroke="#6E4224" stroke-width="4" stroke-linecap="round" stroke-linejoin="round" stroke-miterlimit="10" x1="341.175" y1="312.335" x2="389.258" y2="360.418"/>
			
				<line fill="none" stroke="#6E4224" stroke-width="4" stroke-linecap="round" stroke-linejoin="round" stroke-miterlimit="10" x1="397.743" y1="334.963" x2="440.17" y2="377.389"/>
			<path fill="#FF9D8F" d="M90.322,190.19c5.158,8.045,11.353,16.766,18.664,25.628c25.989-18.427,95.657-89.249,106.342-100.161
				l-11.157-11.157C167.319,149.538,114.806,178.374,90.322,190.19z"/>
		</g>
	</g>
</g>
<g id="hotel_1_">
	<g id="towel">
	</g>
	<g id="phone">
	</g>
	<g id="pool">
	</g>
	<g id="food_service">
	</g>
	<g id="wifi">
	</g>
	<g id="bed">
	</g>
	<g id="door">
	</g>
	<g id="key">
	</g>
	<g id="do_not_disturb">
	</g>
	<g id="bell">
	</g>
</g>
<g id="winter">
	<g id="snowman">
	</g>
	<g id="snow_mountain">
	</g>
	<g id="reindeer">
	</g>
	<g id="winter_tree">
	</g>
	<g id="lift">
	</g>
	<g id="beanie__x26__google">
	</g>
	<g id="ski">
	</g>
	<g id="snowboard">
	</g>
	<g id="snowboading">
	</g>
	<g id="skiing">
	</g>
</g>
<g id="general_travelling">
	<g id="dinner_set">
	</g>
	<g id="polaroid">
	</g>
	<g id="camera">
	</g>
	<g id="calendar">
	</g>
	<g id="calendar_single">
	</g>
	<g id="shopping_bag">
	</g>
	<g id="watch">
	</g>
	<g id="alarm_clock">
	</g>
	<g id="credit_card">
	</g>
	<g id="road_sign">
	</g>
	<g id="hotel">
	</g>
	<g id="money">
	</g>
	<g id="sunglass">
	</g>
	<g id="cocktail">
	</g>
	<g id="compass">
	</g>
	<g id="tent">
	</g>
	<g id="backpack">
	</g>
	<g id="map">
	</g>
	<g id="ticket_1_">
	</g>
	<g id="passport">
	</g>
	<g id="luggage">
	</g>
	<g id="globe">
	</g>
	<g id="suitcase">
	</g>
</g>
<g id="vehicles">
	<g id="trailer">
	</g>
	<g id="airplane">
	</g>
	<g id="yatch">
	</g>
	<g id="taxi">
	</g>
	<g id="hot_air_ballon">
	</g>
	<g id="bus">
	</g>
	<g id="train">
	</g>
</g>
<g id="summer">
	<g id="postcard">
	</g>
	<g id="bikini">
	</g>
	<g id="flipflop">
	</g>
	<g id="plane_around_the_globe">
	</g>
	<g id="binocular">
	</g>
	<g id="beach_table">
	</g>
	<g id="sun_hat">
	</g>
	<g id="beach_bag">
	</g>
	<g id="sea__x26__wave">
	</g>
	<g id="beach">
	</g>
	<g id="beach_ball">
	</g>
	<g id="jetski">
	</g>
	<g id="sandcastle">
	</g>
	<g id="lifeguard_male">
	</g>
	<g id="lifeguard_female">
	</g>
	<g id="lighthouse">
	</g>
	<g id="hammok">
	</g>
	<g id="beach_chair__x26__umbrella">
	</g>
	<g id="lifeguard">
	</g>
	<g id="suncream">
	</g>
	<g id="starfish">
	</g>
	<g id="beach_bar">
	</g>
	<g id="bucket__x26__shovel">
	</g>
	<g id="palm_tree">
	</g>
	<g id="shark_warning">
	</g>
	<g id="surfboard">
	</g>
	<g id="swimming_trunks">
	</g>
	<g id="coconut_drink">
	</g>
	<g id="beach_chair__x26__towel">
	</g>
	<g id="coconut_tree">
	</g>
</g>
</svg>
