<?xml version="1.0" encoding="utf-8"?>
<!-- Generator: Adobe Illustrator 17.0.0, SVG Export Plug-In . SVG Version: 6.00 Build 0)  -->
<!DOCTYPE svg PUBLIC "-//W3C//DTD SVG 1.1//EN" "http://www.w3.org/Graphics/SVG/1.1/DTD/svg11.dtd">
<svg version="1.1" xmlns="http://www.w3.org/2000/svg" xmlns:xlink="http://www.w3.org/1999/xlink" x="0px" y="0px" width="512px"
	 height="512px" viewBox="0 0 512 512" enable-background="new 0 0 512 512" xml:space="preserve">
<g id="famous_places">
	<g id="Pyramid">
	</g>
	<g id="Colloseum">
	</g>
	<g id="Mount_Fuji">
	</g>
	<g id="Great_Wall_of_China">
	</g>
	<g id="Stonehenge">
	</g>
	<g id="Golden_Gate_Bridge">
	</g>
	<g id="Christ_the_Redeemer">
	</g>
	<g id="Statue_of_Liberty">
	</g>
	<g id="Taj_Mahal">
	</g>
	<g id="Eiffel_tower">
	</g>
</g>
<g id="camping">
	<g id="mug">
	</g>
	<g id="hook">
	</g>
	<g id="Swiss_knife">
	</g>
	<g id="flashlight">
	</g>
	<g id="lantern">
	</g>
	<g id="campfire">
	</g>
	<g id="beanie">
	</g>
	<g id="rope">
	</g>
	<g id="boot">
	</g>
	<g id="axe">
	</g>
</g>
<g id="hotel_1_">
	<g id="towel">
	</g>
	<g id="phone">
	</g>
	<g id="pool">
	</g>
	<g id="food_service">
	</g>
	<g id="wifi">
	</g>
	<g id="bed">
	</g>
	<g id="door">
	</g>
	<g id="key">
	</g>
	<g id="do_not_disturb">
	</g>
	<g id="bell">
	</g>
</g>
<g id="winter">
	<g id="snowman">
	</g>
	<g id="snow_mountain">
	</g>
	<g id="reindeer">
	</g>
	<g id="winter_tree">
		<g>
			<rect y="0" fill="#2D415A" width="512" height="512"/>
			<g>
				<path fill="#4FB463" d="M209.265,168.016l19.136,11.562c4.3,2.598,3.737,9.003-0.95,10.811l-48.637,18.766
					c-4.846,1.87-5.232,8.576-0.633,10.99l22.478,11.797c4.372,2.294,4.297,8.579-0.129,10.768l-50.077,20.714
					c-4.535,2.244-7.323,14.206-2.745,16.358l64.169,30.171c3.575,1.681,7.774-0.463,8.51-4.344l28.747-151.733
					c0.856-4.519-3.449-8.3-7.82-6.868l-29.336,3.426C207.066,152.044,204.84,165.343,209.265,168.016z"/>
				<path fill="#4FB463" d="M302.746,168.016l-19.136,11.562c-4.3,2.598-3.737,9.003,0.95,10.811l47.079,13.045
					c4.846,1.87,6.79,14.297,2.191,16.71l-22.478,11.797c-4.372,2.294-4.297,8.579,0.129,10.768l52.93,26.186
					c4.535,2.244,4.47,8.734-0.108,10.886l-64.169,30.171c-3.575,1.681-7.774-0.463-8.51-4.344l-28.747-151.733
					c-0.856-4.519,3.449-8.3,7.82-6.868l29.297,3.422C304.906,152.04,307.171,165.343,302.746,168.016z"/>
				<g>
					<polygon fill="#4FB463" points="92.961,369.683 248.936,408.683 238.951,346.683 					"/>
					<polygon fill="#4FB463" points="422.109,368.994 248.247,407.994 273.06,346.683 					"/>
					<polygon fill="#8A532D" points="273.06,346.683 255.936,346.683 238.951,346.683 218.436,470.683 255.936,470.683 
						293.575,470.683 					"/>
					<path fill="#62E07B" d="M333.425,274.452h24.312c5.866,0,8.422-7.416,3.801-11.03l-48.506-37.94
						c-4.621-3.614-2.065-11.03,3.801-11.03h10.988c5.856,0,8.418-7.394,3.817-11.017l-39.324-30.965
						c-4.601-3.623-2.039-11.017,3.817-11.017h0.049c5.86,0,8.419-7.402,3.811-11.022l-40.241-31.61
						c-2.239-1.759-5.391-1.757-7.628,0.004l-40.145,31.61c-4.601,3.623-2.039,11.018,3.817,11.018h0
						c5.854,0,8.417,7.39,3.821,11.015l-39.27,30.971c-4.596,3.625-2.033,11.015,3.821,11.015h10.937
						c5.865,0,8.421,7.412,3.804,11.028l-48.455,37.945c-4.617,3.616-2.061,11.028,3.804,11.028h24.246
						c5.865,0,8.421,7.412,3.804,11.028l-93.15,72.945c-4.617,3.616-2.061,11.028,3.804,11.028h162.975h163.103
						c5.866,0,8.422-7.414,3.802-11.029l-93.218-72.942C325.003,281.867,327.559,274.452,333.425,274.452z"/>
					<path fill="#FFFFFF" d="M255.936,107.183l-44.5,29.5c0,0,4.5,18,20,13s22,0.241,27-5.629c5-5.871,25.5,18.129,31.5,12.629
						s-6-13.5-6-13.5s13.1,17.373,18.55,9.436c5.45-7.936-14.55-25.936-22.05-26.936S276.936,100.683,255.936,107.183z"/>
					<path fill="#FFFFFF" d="M166.38,214.683c0,0,0.82,15,7.556,11s4-17.5,15-20s16.163-9,13.581-19.5
						C199.936,175.683,165.325,194.683,166.38,214.683z"/>
					<path fill="#FFFFFF" d="M330.299,239.218c0,0-7.599,12.222,10.137,17.012c17.736,4.79,18,38.952,28,38.952
						s10.908-10.5,7.204-20.5S344.162,229.254,330.299,239.218z"/>
					<path fill="#FFFFFF" d="M196.39,274.683c0,0,12.018,4.5,6.782,14c-5.236,9.5-14.698,7.5-9.467,28.5s-6.269,36-11.269,25.5
						s-18-26.5-23.5-17.5s-2,33.374-15,20.937c-13-12.437-21.003-9.941-16.502-17.439c4.502-7.498,10.502-31.998,23.002-33.498
						S180.844,269.683,196.39,274.683z"/>
					<path fill="#FFFFFF" d="M256.936,441.683c-68.559,0-105,29-105,29h105h105C361.936,470.683,325.936,441.683,256.936,441.683z"
						/>
					<polygon fill="#B56D3B" points="234.473,373.75 224.178,435.977 274.603,432.683 265.936,377.683 					"/>
				</g>
			</g>
			<circle fill="#FFFFFF" cx="68" cy="45.683" r="7"/>
			<circle fill="#FFFFFF" cx="94.3" cy="93.649" r="5.726"/>
			<circle fill="#FFFFFF" cx="125.921" cy="95.237" r="7.314"/>
			<circle fill="#FFFFFF" cx="82.251" cy="154.182" r="7.251"/>
			<circle fill="#FFFFFF" cx="271.705" cy="209.941" r="5.164"/>
			<circle fill="#FFFFFF" cx="267.04" cy="268.659" r="3.976"/>
			<circle fill="#FFFFFF" cx="315.729" cy="300.433" r="5.25"/>
			<circle fill="#FFFFFF" cx="263.271" cy="318.723" r="7.96"/>
			<circle fill="#FFFFFF" cx="238.468" cy="263.457" r="7.226"/>
			<circle fill="#FFFFFF" cx="96.174" cy="272.999" r="6.672"/>
			<circle fill="#FFFFFF" cx="185.175" cy="150.345" r="7.163"/>
			<circle fill="#FFFFFF" cx="226.611" cy="53.183" r="7.5"/>
			<circle fill="#FFFFFF" cx="319.962" cy="84.166" r="9.483"/>
			<circle fill="#FFFFFF" cx="379.772" cy="79.617" r="4.934"/>
			<circle fill="#FFFFFF" cx="408.956" cy="148.682" r="5.5"/>
			<circle fill="#FFFFFF" cx="455.792" cy="215.569" r="10.792"/>
			<circle fill="#FFFFFF" cx="391.083" cy="203.795" r="11.31"/>
			<circle fill="#FFFFFF" cx="439.923" cy="294.933" r="10.75"/>
			<circle fill="#FFFFFF" cx="456" cy="49.683" r="11"/>
			<circle fill="#FFFFFF" cx="410.393" cy="30.683" r="8"/>
			<circle fill="#FFFFFF" cx="334.445" cy="17.683" r="5"/>
			<circle fill="#FFFFFF" cx="41" cy="412.863" r="8"/>
			<circle fill="#FFFFFF" cx="367.783" cy="428.42" r="7.557"/>
			<circle fill="#FFFFFF" cx="438.642" cy="425.238" r="6.358"/>
		</g>
	</g>
	<g id="lift">
	</g>
	<g id="beanie__x26__google">
	</g>
	<g id="ski">
	</g>
	<g id="snowboard">
	</g>
	<g id="snowboading">
	</g>
	<g id="skiing">
	</g>
</g>
<g id="general_travelling">
	<g id="dinner_set">
	</g>
	<g id="polaroid">
	</g>
	<g id="camera">
	</g>
	<g id="calendar">
	</g>
	<g id="calendar_single">
	</g>
	<g id="shopping_bag">
	</g>
	<g id="watch">
	</g>
	<g id="alarm_clock">
	</g>
	<g id="credit_card">
	</g>
	<g id="road_sign">
	</g>
	<g id="hotel">
	</g>
	<g id="money">
	</g>
	<g id="sunglass">
	</g>
	<g id="cocktail">
	</g>
	<g id="compass">
	</g>
	<g id="tent">
	</g>
	<g id="backpack">
	</g>
	<g id="map">
	</g>
	<g id="ticket_1_">
	</g>
	<g id="passport">
	</g>
	<g id="luggage">
	</g>
	<g id="globe">
	</g>
	<g id="suitcase">
	</g>
</g>
<g id="vehicles">
	<g id="trailer">
	</g>
	<g id="airplane">
	</g>
	<g id="yatch">
	</g>
	<g id="taxi">
	</g>
	<g id="hot_air_ballon">
	</g>
	<g id="bus">
	</g>
	<g id="train">
	</g>
</g>
<g id="summer">
	<g id="postcard">
	</g>
	<g id="bikini">
	</g>
	<g id="flipflop">
	</g>
	<g id="plane_around_the_globe">
	</g>
	<g id="binocular">
	</g>
	<g id="beach_table">
	</g>
	<g id="sun_hat">
	</g>
	<g id="beach_bag">
	</g>
	<g id="sea__x26__wave">
	</g>
	<g id="beach">
	</g>
	<g id="beach_ball">
	</g>
	<g id="jetski">
	</g>
	<g id="sandcastle">
	</g>
	<g id="lifeguard_male">
	</g>
	<g id="lifeguard_female">
	</g>
	<g id="lighthouse">
	</g>
	<g id="hammok">
	</g>
	<g id="beach_chair__x26__umbrella">
	</g>
	<g id="lifeguard">
	</g>
	<g id="suncream">
	</g>
	<g id="starfish">
	</g>
	<g id="beach_bar">
	</g>
	<g id="bucket__x26__shovel">
	</g>
	<g id="palm_tree">
	</g>
	<g id="shark_warning">
	</g>
	<g id="surfboard">
	</g>
	<g id="swimming_trunks">
	</g>
	<g id="coconut_drink">
	</g>
	<g id="beach_chair__x26__towel">
	</g>
	<g id="coconut_tree">
	</g>
</g>
</svg>
