<?xml version="1.0" encoding="utf-8"?>
<!-- Generator: Adobe Illustrator 17.0.0, SVG Export Plug-In . SVG Version: 6.00 Build 0)  -->
<!DOCTYPE svg PUBLIC "-//W3C//DTD SVG 1.1//EN" "http://www.w3.org/Graphics/SVG/1.1/DTD/svg11.dtd">
<svg version="1.1" xmlns="http://www.w3.org/2000/svg" xmlns:xlink="http://www.w3.org/1999/xlink" x="0px" y="0px" width="512px"
	 height="512px" viewBox="0 0 512 512" enable-background="new 0 0 512 512" xml:space="preserve">
<g id="famous_places">
	<g id="Pyramid">
	</g>
	<g id="Colloseum">
	</g>
	<g id="Mount_Fuji">
	</g>
	<g id="Great_Wall_of_China">
	</g>
	<g id="Stonehenge">
	</g>
	<g id="Golden_Gate_Bridge">
	</g>
	<g id="Christ_the_Redeemer">
	</g>
	<g id="Statue_of_Liberty">
	</g>
	<g id="Taj_Mahal">
	</g>
	<g id="Eiffel_tower">
	</g>
</g>
<g id="camping">
	<g id="mug">
	</g>
	<g id="hook">
	</g>
	<g id="Swiss_knife">
	</g>
	<g id="flashlight">
	</g>
	<g id="lantern">
	</g>
	<g id="campfire">
	</g>
	<g id="beanie">
	</g>
	<g id="rope">
	</g>
	<g id="boot">
	</g>
	<g id="axe">
	</g>
</g>
<g id="hotel_1_">
	<g id="towel">
	</g>
	<g id="phone">
	</g>
	<g id="pool">
	</g>
	<g id="food_service">
	</g>
	<g id="wifi">
	</g>
	<g id="bed">
	</g>
	<g id="door">
	</g>
	<g id="key">
	</g>
	<g id="do_not_disturb">
	</g>
	<g id="bell">
	</g>
</g>
<g id="winter">
	<g id="snowman">
	</g>
	<g id="snow_mountain">
	</g>
	<g id="reindeer">
	</g>
	<g id="winter_tree">
	</g>
	<g id="lift">
	</g>
	<g id="beanie__x26__google">
	</g>
	<g id="ski">
	</g>
	<g id="snowboard">
	</g>
	<g id="snowboading">
	</g>
	<g id="skiing">
	</g>
</g>
<g id="general_travelling">
	<g id="dinner_set">
	</g>
	<g id="polaroid">
	</g>
	<g id="camera">
	</g>
	<g id="calendar">
	</g>
	<g id="calendar_single">
	</g>
	<g id="shopping_bag">
	</g>
	<g id="watch">
	</g>
	<g id="alarm_clock">
	</g>
	<g id="credit_card">
	</g>
	<g id="road_sign">
	</g>
	<g id="hotel">
	</g>
	<g id="money">
	</g>
	<g id="sunglass">
	</g>
	<g id="cocktail">
	</g>
	<g id="compass">
	</g>
	<g id="tent">
	</g>
	<g id="backpack">
	</g>
	<g id="map">
	</g>
	<g id="ticket_1_">
	</g>
	<g id="passport">
	</g>
	<g id="luggage">
	</g>
	<g id="globe">
	</g>
	<g id="suitcase">
	</g>
</g>
<g id="vehicles">
	<g id="trailer">
	</g>
	<g id="airplane">
	</g>
	<g id="yatch">
	</g>
	<g id="taxi">
	</g>
	<g id="hot_air_ballon">
	</g>
	<g id="bus">
	</g>
	<g id="train">
	</g>
</g>
<g id="summer">
	<g id="postcard">
	</g>
	<g id="bikini">
	</g>
	<g id="flipflop">
	</g>
	<g id="plane_around_the_globe">
	</g>
	<g id="binocular">
	</g>
	<g id="beach_table">
	</g>
	<g id="sun_hat">
	</g>
	<g id="beach_bag">
	</g>
	<g id="sea__x26__wave">
	</g>
	<g id="beach">
	</g>
	<g id="beach_ball">
	</g>
	<g id="jetski">
		<path fill="#2D415A" d="M266.01,222.937H158.498l0.512-3.552c0-7.636-6.191-14.448-13.827-14.448h-35.317
			c-7.637,0-13.865,6.721-13.865,14.357v25.452c0,7.147,5.832,12.191,12.979,12.191h10.05c0,0,17.688,0,39.98,0
			c31.81,0,72.999,0,85.588,0C273.177,256.937,266.01,222.937,266.01,222.937z"/>
		<path fill="#45638A" d="M109.865,214.937h25.317c7.636,0,13.827,6.812,13.827,14.448l-0.512,3.552H266.01
			c0,0,0.3,1.444,0.533,3.716c0.823-7.275-0.533-13.716-0.533-13.716H158.498l0.512-3.552c0-7.636-6.19-14.448-13.827-14.448
			h-35.317c-7.636,0-13.865,6.721-13.865,14.357v10C96,221.658,102.229,214.937,109.865,214.937z"/>
		<path fill="#38D4B8" d="M416.527,356.472c-54.268,0-318.251,0-318.251,0c-13.96,0-25.276-11.316-25.276-25.276v-40.767
			l397.795,18.431C470.795,308.86,470.795,356.472,416.527,356.472z"/>
		<path fill="#2D415A" d="M308.449,199.959l0.577,2.643c1.306,5.984,7.828,9.207,13.375,6.61l15.073-7.059
			c6.668-3.123,7.699-12.18,1.904-16.721l-18.002-14.11c-4.312-3.379-10.315-3.577-14.839-0.488l-40.283,27.501
			c-2.996,2.045-3.842,6.091-1.917,9.165l0,0c1.597,2.551,4.69,3.738,7.584,2.91L308.449,199.959z"/>
		<path fill="#E3E3E3" d="M73,308.86v-32.89c0-10.676,8.655-19.331,19.331-19.331h161.904c0,0,26.182-6.847,32.099-27.688
			c1.695-5.971,5.898-10.915,11.499-13.591l48.693-23.256c6.355-3.035,13.684-3.26,20.208-0.607
			c28.417,11.555,104.061,48.755,104.061,117.362H73z"/>
		<path fill="#2D415A" d="M468.909,289.937H73v10h397.274C469.957,296.937,469.5,292.937,468.909,289.937z"/>
		<path fill="#4E709C" d="M489.458,463.43c-7.256-6.631-16.211-14.884-33.742-14.884c-17.529,0-26.522,8.253-33.778,14.884
			c-7.54,6.892-12.672,11.116-23.062,11.116c-10.389,0-15.528-4.225-23.069-11.116c-7.255-6.631-16.278-14.884-33.806-14.884
			c-17.529,0-26.555,8.253-33.81,14.884c-7.54,6.892-12.688,11.116-23.077,11.116s-15.536-4.225-23.076-11.116
			c-7.255-6.631-16.283-14.884-33.811-14.884s-26.556,8.253-33.811,14.884c-7.54,6.892-12.688,11.116-23.076,11.116
			c-10.386,0-15.533-4.224-23.072-11.116c-7.253-6.631-16.28-14.884-33.807-14.884c-17.528,0-26.556,8.253-33.811,14.884
			c-7.54,6.892-12.688,11.116-23.076,11.116s-16.19-4.225-23.73-11.116C26.677,456.88,17.845,448.761,0,448.565v9.998v53.375h512
			v-27.403v-9.999C501.019,474.429,496.901,470.233,489.458,463.43z"/>
		<path fill="#5C84B8" d="M489.458,424.318c-7.256-6.631-16.211-14.884-33.742-14.884c-17.529,0-26.522,8.253-33.778,14.884
			c-7.54,6.892-12.672,11.116-23.062,11.116c-10.389,0-15.528-4.225-23.069-11.116c-7.255-6.631-16.278-14.884-33.806-14.884
			c-17.529,0-26.555,8.253-33.81,14.884c-7.54,6.892-12.688,11.116-23.077,11.116s-15.536-4.225-23.076-11.116
			c-7.255-6.631-16.283-14.884-33.811-14.884s-26.556,8.253-33.811,14.884c-7.54,6.892-12.688,11.116-23.076,11.116
			c-10.386,0-15.533-4.224-23.072-11.116c-7.253-6.631-16.28-14.884-33.807-14.884c-17.528,0-26.556,8.253-33.811,14.884
			c-7.54,6.892-12.688,11.116-23.076,11.116s-16.19-4.225-23.73-11.116C26.677,417.768,17.845,409.65,0,409.453v9.998v29.114
			c17.845,0.197,26.677,8.315,33.844,14.866c7.54,6.892,13.014,11.116,23.403,11.116s15.7-4.225,23.24-11.116
			c7.255-6.631,16.364-14.884,33.893-14.884c17.527,0,26.595,8.253,33.848,14.884c7.539,6.893,12.707,11.116,23.093,11.116
			c10.389,0,15.546-4.225,23.087-11.116c7.255-6.631,16.288-14.884,33.816-14.884s26.559,8.253,33.813,14.884
			c7.54,6.892,12.689,11.116,23.078,11.116c10.389,0,15.538-4.225,23.078-11.116c7.255-6.631,16.283-14.884,33.813-14.884
			c17.528,0,26.557,8.253,33.811,14.884c7.54,6.892,12.689,11.116,23.078,11.116c10.39,0,15.54-4.225,23.08-11.116
			c7.256-6.631,16.286-14.884,33.815-14.884c17.531,0,26.412,8.253,33.668,14.884c7.443,6.802,11.561,10.999,22.542,11.106v-29.113
			v-9.999C501.019,435.317,496.901,431.121,489.458,424.318z"/>
		<path fill="#71A3E3" d="M489.458,385.206c-7.256-6.631-16.211-14.884-33.742-14.884c-17.529,0-26.522,8.253-33.778,14.884
			c-7.54,6.892-12.672,11.116-23.062,11.116c-10.389,0-15.528-4.225-23.069-11.116c-7.255-6.631-16.278-14.884-33.806-14.884
			c-17.529,0-26.555,8.253-33.81,14.884c-7.54,6.892-12.688,11.116-23.077,11.116s-15.536-4.225-23.076-11.116
			c-7.255-6.631-16.283-14.884-33.811-14.884s-26.556,8.253-33.811,14.884c-7.54,6.892-12.688,11.116-23.076,11.116
			c-10.386,0-15.533-4.224-23.072-11.116c-7.253-6.631-16.28-14.884-33.807-14.884c-17.528,0-26.556,8.253-33.811,14.884
			c-7.54,6.892-12.688,11.116-23.076,11.116s-16.19-4.225-23.73-11.116c-7.166-6.55-15.999-14.668-33.844-14.865v9.998v29.114
			c17.845,0.197,26.677,8.315,33.844,14.865c7.54,6.892,13.014,11.116,23.403,11.116s15.7-4.225,23.24-11.116
			c7.255-6.631,16.364-14.884,33.893-14.884c17.527,0,26.595,8.253,33.848,14.884c7.539,6.893,12.707,11.116,23.093,11.116
			c10.389,0,15.546-4.225,23.087-11.116c7.255-6.631,16.288-14.884,33.816-14.884s26.559,8.253,33.813,14.884
			c7.54,6.892,12.689,11.116,23.078,11.116c10.389,0,15.538-4.225,23.078-11.116c7.255-6.631,16.283-14.884,33.813-14.884
			c17.528,0,26.557,8.253,33.811,14.884c7.54,6.892,12.689,11.116,23.078,11.116c10.39,0,15.54-4.225,23.08-11.116
			c7.256-6.631,16.286-14.884,33.815-14.884c17.531,0,26.412,8.253,33.668,14.884c7.443,6.803,11.561,10.999,22.542,11.106v-29.113
			v-9.999C501.019,396.205,496.901,392.009,489.458,385.206z"/>
		<path fill="#E3E3E3" d="M489.458,346.094c-7.256-6.631-16.211-14.884-33.742-14.884c-17.529,0-26.522,8.253-33.778,14.884
			c-7.54,6.892-12.672,11.116-23.062,11.116c-10.389,0-15.528-4.225-23.069-11.116c-7.255-6.631-16.278-14.884-33.806-14.884
			c-17.529,0-26.555,8.253-33.81,14.884c-7.54,6.892-12.688,11.116-23.077,11.116s-15.536-4.225-23.076-11.116
			c-7.255-6.631-16.283-14.884-33.811-14.884s-26.556,8.253-33.811,14.884c-7.54,6.892-12.688,11.116-23.076,11.116
			c-10.386,0-15.533-4.224-23.072-11.116c-7.253-6.631-16.28-14.884-33.807-14.884c-17.528,0-26.556,8.253-33.811,14.884
			c-7.54,6.892-12.688,11.116-23.076,11.116s-16.19-4.225-23.73-11.116c-7.166-6.55-15.999-14.668-33.844-14.865v9.998v29.114
			c17.845,0.197,26.677,8.315,33.844,14.865c7.54,6.892,13.014,11.116,23.403,11.116s15.7-4.225,23.24-11.116
			c7.255-6.631,16.364-14.884,33.893-14.884c17.527,0,26.595,8.253,33.848,14.884c7.539,6.893,12.707,11.116,23.093,11.116
			c10.389,0,15.546-4.225,23.087-11.116c7.255-6.631,16.288-14.884,33.816-14.884s26.559,8.253,33.813,14.884
			c7.54,6.892,12.689,11.116,23.078,11.116c10.389,0,15.538-4.225,23.078-11.116c7.255-6.631,16.283-14.884,33.813-14.884
			c17.528,0,26.557,8.253,33.811,14.884c7.54,6.892,12.689,11.116,23.078,11.116c10.39,0,15.54-4.225,23.08-11.116
			c7.256-6.631,16.286-14.884,33.815-14.884c17.531,0,26.412,8.253,33.668,14.884c7.443,6.803,11.561,10.999,22.542,11.106v-29.113
			V357.2C501.019,357.093,496.901,352.897,489.458,346.094z"/>
	</g>
	<g id="sandcastle">
	</g>
	<g id="lifeguard_male">
	</g>
	<g id="lifeguard_female">
	</g>
	<g id="lighthouse">
	</g>
	<g id="hammok">
	</g>
	<g id="beach_chair__x26__umbrella">
	</g>
	<g id="lifeguard">
	</g>
	<g id="suncream">
	</g>
	<g id="starfish">
	</g>
	<g id="beach_bar">
	</g>
	<g id="bucket__x26__shovel">
	</g>
	<g id="palm_tree">
	</g>
	<g id="shark_warning">
	</g>
	<g id="surfboard">
	</g>
	<g id="swimming_trunks">
	</g>
	<g id="coconut_drink">
	</g>
	<g id="beach_chair__x26__towel">
	</g>
	<g id="coconut_tree">
	</g>
</g>
</svg>
