<?xml version="1.0" encoding="utf-8"?>
<!-- Generator: Adobe Illustrator 17.0.0, SVG Export Plug-In . SVG Version: 6.00 Build 0)  -->
<!DOCTYPE svg PUBLIC "-//W3C//DTD SVG 1.1//EN" "http://www.w3.org/Graphics/SVG/1.1/DTD/svg11.dtd">
<svg version="1.1" xmlns="http://www.w3.org/2000/svg" xmlns:xlink="http://www.w3.org/1999/xlink" x="0px" y="0px" width="512px"
	 height="512px" viewBox="0 0 512 512" enable-background="new 0 0 512 512" xml:space="preserve">
<g id="famous_places">
	<g id="Pyramid">
	</g>
	<g id="Colloseum">
	</g>
	<g id="Mount_Fuji">
	</g>
	<g id="Great_Wall_of_China">
	</g>
	<g id="Stonehenge">
	</g>
	<g id="Golden_Gate_Bridge">
	</g>
	<g id="Christ_the_Redeemer">
	</g>
	<g id="Statue_of_Liberty">
	</g>
	<g id="Taj_Mahal">
	</g>
	<g id="Eiffel_tower">
	</g>
</g>
<g id="camping">
	<g id="mug">
	</g>
	<g id="hook">
	</g>
	<g id="Swiss_knife">
	</g>
	<g id="flashlight">
	</g>
	<g id="lantern">
	</g>
	<g id="campfire">
	</g>
	<g id="beanie">
	</g>
	<g id="rope">
	</g>
	<g id="boot">
	</g>
	<g id="axe">
	</g>
</g>
<g id="hotel_1_">
	<g id="towel">
	</g>
	<g id="phone">
	</g>
	<g id="pool">
	</g>
	<g id="food_service">
	</g>
	<g id="wifi">
	</g>
	<g id="bed">
	</g>
	<g id="door">
	</g>
	<g id="key">
	</g>
	<g id="do_not_disturb">
	</g>
	<g id="bell">
	</g>
</g>
<g id="winter">
	<g id="snowman">
	</g>
	<g id="snow_mountain">
	</g>
	<g id="reindeer">
	</g>
	<g id="winter_tree">
	</g>
	<g id="lift">
	</g>
	<g id="beanie__x26__google">
	</g>
	<g id="ski">
	</g>
	<g id="snowboard">
	</g>
	<g id="snowboading">
		<g>
			<path fill="#38D4B8" d="M178.339,393.879c-23.137,9.288-90.591,32.094-65.956,78.099s81.022,2.532,101.578-11.578
				c20.555-14.109,67.986-49.902,143.164-76.881c75.177-26.98,46.764-67.642,46.764-67.642s-18.063-46.129-82.189,1.488
				S201.476,384.591,178.339,393.879z"/>
			<path fill="#2FB199" d="M403.888,315.877c0,0-5.308-13.538-20.369-18.373c3.812,4.406,5.369,8.373,5.369,8.373
				s28.413,40.662-46.764,67.642S219.516,436.291,198.96,450.4c-15.849,10.879-52.998,39.205-80.472,30.521
				c26.854,30.648,76.471-7.478,95.472-20.521c20.555-14.109,67.986-49.902,143.164-76.881S403.888,315.877,403.888,315.877z"/>
			<circle fill="#2D415A" cx="229.217" cy="80.937" r="31.432"/>
			
				<rect x="219.05" y="89.917" transform="matrix(0.8988 0.4383 -0.4383 0.8988 70.8792 -89.3112)" fill="#2D415A" width="19.737" height="37.952"/>
			<path fill="#2D415A" d="M217.469,111.914l-40.243,11.127c-3.967,1.097-6.363,5.801-5.286,10.377l14.587,103.279
				c0.858,3.644,3.705,6.171,6.952,6.171h25.657h25.566c3.246,0,6.092-2.525,6.951-6.167l14.629-103.281
				c1.08-4.576-1.316-9.282-5.283-10.38l-40.196-11.124C219.707,111.611,218.565,111.61,217.469,111.914z"/>
			<path fill="#2D415A" d="M185.873,232.21c0,0-0.466,48.708,22.583,51.556s46.099,4.692,46.099,4.692l-18.072-39.645l10.788-13.098
				L185.873,232.21z"/>
			
				<path fill="none" stroke="#2D415A" stroke-width="23" stroke-linecap="round" stroke-linejoin="round" stroke-miterlimit="10" d="
				M226.483,393.53c0,0,89.845-132.327-12.495-128.842l30.714-21.676c0,0,154.605-5.482,102.974,108.492"/>
			
				<path fill="none" stroke="#2D415A" stroke-width="15" stroke-linecap="round" stroke-linejoin="round" stroke-miterlimit="10" d="
				M112.569,243.281c0,0-53.466-122.902,90.355-110.897c69.425,5.795,154.894,16.668,169.645-23.345"/>
			<path fill="#FF6650" d="M263.113,79.119h-68.456V53.813c0-18.904,15.324-34.228,34.228-34.228h0
				c18.904,0,34.228,15.324,34.228,34.228V79.119z"/>
			<g>
				<path fill="#E3E3E3" d="M195.015,60.422h67.74c4.616,0,8.358,3.057,8.358,6.829v20.343c0,3.771-3.742,6.829-8.358,6.829h-19.702
					c-3.073,0-5.897-1.377-7.356-3.587l0,0c-3-4.543-10.848-4.829-14.33-0.522l-0.843,1.043c-1.547,1.914-4.167,3.065-6.974,3.065
					h-18.534c-4.616,0-8.358-3.057-8.358-6.829V67.25C186.657,63.479,190.399,60.422,195.015,60.422z"/>
				<path fill="#FFD161" d="M243.053,89.568c-0.824,0-1.579-0.368-1.97-0.96c-2.53-3.833-7.416-6.213-12.749-6.213
					c-4.872,0-9.386,1.985-12.074,5.31l-0.844,1.044c-0.415,0.512-1.113,0.819-1.867,0.819h-18.535c-1.234,0-3.015-0.82-3.015-1.829
					V67.396c0-1.008,1.781-1.829,3.015-1.829h67.741c1.234,0,1.244,0.82,1.244,1.829v20.343c0,1.008-0.011,1.829-1.244,1.829
					H243.053z"/>
			</g>
		</g>
	</g>
	<g id="skiing">
	</g>
</g>
<g id="general_travelling">
	<g id="dinner_set">
	</g>
	<g id="polaroid">
	</g>
	<g id="camera">
	</g>
	<g id="calendar">
	</g>
	<g id="calendar_single">
	</g>
	<g id="shopping_bag">
	</g>
	<g id="watch">
	</g>
	<g id="alarm_clock">
	</g>
	<g id="credit_card">
	</g>
	<g id="road_sign">
	</g>
	<g id="hotel">
	</g>
	<g id="money">
	</g>
	<g id="sunglass">
	</g>
	<g id="cocktail">
	</g>
	<g id="compass">
	</g>
	<g id="tent">
	</g>
	<g id="backpack">
	</g>
	<g id="map">
	</g>
	<g id="ticket_1_">
	</g>
	<g id="passport">
	</g>
	<g id="luggage">
	</g>
	<g id="globe">
	</g>
	<g id="suitcase">
	</g>
</g>
<g id="vehicles">
	<g id="trailer">
	</g>
	<g id="airplane">
	</g>
	<g id="yatch">
	</g>
	<g id="taxi">
	</g>
	<g id="hot_air_ballon">
	</g>
	<g id="bus">
	</g>
	<g id="train">
	</g>
</g>
<g id="summer">
	<g id="postcard">
	</g>
	<g id="bikini">
	</g>
	<g id="flipflop">
	</g>
	<g id="plane_around_the_globe">
	</g>
	<g id="binocular">
	</g>
	<g id="beach_table">
	</g>
	<g id="sun_hat">
	</g>
	<g id="beach_bag">
	</g>
	<g id="sea__x26__wave">
	</g>
	<g id="beach">
	</g>
	<g id="beach_ball">
	</g>
	<g id="jetski">
	</g>
	<g id="sandcastle">
	</g>
	<g id="lifeguard_male">
	</g>
	<g id="lifeguard_female">
	</g>
	<g id="lighthouse">
	</g>
	<g id="hammok">
	</g>
	<g id="beach_chair__x26__umbrella">
	</g>
	<g id="lifeguard">
	</g>
	<g id="suncream">
	</g>
	<g id="starfish">
	</g>
	<g id="beach_bar">
	</g>
	<g id="bucket__x26__shovel">
	</g>
	<g id="palm_tree">
	</g>
	<g id="shark_warning">
	</g>
	<g id="surfboard">
	</g>
	<g id="swimming_trunks">
	</g>
	<g id="coconut_drink">
	</g>
	<g id="beach_chair__x26__towel">
	</g>
	<g id="coconut_tree">
	</g>
</g>
</svg>
