<?xml version="1.0" encoding="utf-8"?>
<!-- Generator: Adobe Illustrator 17.0.0, SVG Export Plug-In . SVG Version: 6.00 Build 0)  -->
<!DOCTYPE svg PUBLIC "-//W3C//DTD SVG 1.1//EN" "http://www.w3.org/Graphics/SVG/1.1/DTD/svg11.dtd">
<svg version="1.1" xmlns="http://www.w3.org/2000/svg" xmlns:xlink="http://www.w3.org/1999/xlink" x="0px" y="0px" width="512px"
	 height="512px" viewBox="0 0 512 512" enable-background="new 0 0 512 512" xml:space="preserve">
<g id="famous_places">
	<g id="Pyramid">
		<g>
			<g>
				<polygon fill="#FFB561" points="344.684,228.914 291.495,164.017 319.576,228.914 				"/>
				<polygon fill="#FF9B29" points="319.576,228.914 394,400.914 485.655,400.914 344.684,228.914 				"/>
				<polygon fill="#FFB561" points="394,400.914 319.576,228.914 259.504,228.914 250.917,228.914 137,400.914 				"/>
				<polygon fill="#FFD161" points="291.495,164.402 250.917,229.299 259.504,229.299 319.576,229.299 				"/>
				<rect x="265" y="255.299" fill="#FFD161" width="35" height="11"/>
				<rect x="216" y="287.299" fill="#FFD161" width="35" height="11"/>
				<rect x="283" y="310.299" fill="#FFD161" width="35" height="11"/>
				<rect x="216" y="344.299" fill="#FFD161" width="35" height="11"/>
				<rect x="322" y="370.299" fill="#FFD161" width="35" height="11"/>
				<rect x="406" y="354.914" fill="#FFB561" width="35" height="11"/>
				<rect x="359" y="297.914" fill="#FFB561" width="35" height="11"/>
				<rect x="348" y="272.914" fill="#FFB561" width="19" height="11"/>
			</g>
			<g>
				<path fill="#4FB463" d="M458.069,279.98l-4.49,3.98l2.653,2.994c6.338-5.617,5.259-15.928-1.64-23.712
					c-6.899-7.784-17.005-10.095-23.343-4.478l3.095,3.493l4.49-3.98l3.316,3.742l-4.49,3.98l1.99,2.245l4.49-3.98l3.316,3.742
					l-4.49,3.98l1.99,2.245l4.49-3.98l3.316,3.742l-4.49,3.98l1.99,2.245l4.49-3.98L458.069,279.98z"/>
				<path fill="#4FB463" d="M452.802,281.329l1.588,5.786l3.857-1.059c-2.242-8.167-11.969-11.751-22-8.998
					c-10.03,2.753-16.565,10.801-14.324,18.968l4.5-1.235l-1.588-5.786l4.822-1.323l1.588,5.786l2.893-0.794l-1.588-5.786
					l4.822-1.323l1.588,5.786l2.893-0.794l-1.588-5.786l4.822-1.323l1.588,5.786l2.893-0.794l-1.588-5.786L452.802,281.329z"/>
				<path fill="#4FB463" d="M457.842,279.98l4.49,3.98l-2.653,2.994c-6.338-5.617-5.259-15.928,1.64-23.712
					c6.899-7.784,17.005-10.095,23.343-4.478l-3.095,3.493l-4.49-3.98l-3.316,3.742l4.49,3.98l-1.99,2.245l-4.49-3.98l-3.316,3.742
					l4.49,3.98l-1.99,2.245l-4.49-3.98l-3.316,3.742l4.49,3.98l-1.99,2.245l-4.49-3.98L457.842,279.98z"/>
				<path fill="#4FB463" d="M463.109,281.329l-1.588,5.786l-3.857-1.059c2.242-8.167,11.969-11.751,22-8.998
					c10.03,2.753,16.565,10.801,14.324,18.968l-4.5-1.235l1.588-5.786l-4.822-1.323l-1.588,5.786l-2.893-0.794l1.588-5.786
					l-4.822-1.323l-1.588,5.786l-2.893-0.794l1.588-5.786l-4.822-1.323l-1.588,5.786l-2.893-0.794l1.588-5.786L463.109,281.329z"/>
				<g>
					<polygon fill="#B56D3B" points="461.75,343.914 453.917,343.914 450,336.914 465.667,336.914 					"/>
					<polygon fill="#8A532D" points="461.75,336.914 453.917,336.914 450,328.914 465.667,328.914 					"/>
					<polygon fill="#B56D3B" points="461.75,328.914 453.917,328.914 450,321.914 465.667,321.914 					"/>
					<polygon fill="#8A532D" points="461.75,321.914 453.917,321.914 450,314.914 465.667,314.914 					"/>
					<polygon fill="#B56D3B" points="461.75,314.914 453.917,314.914 450,307.914 465.667,307.914 					"/>
					<polygon fill="#8A532D" points="461.75,307.914 453.917,307.914 450,299.914 465.667,299.914 					"/>
					<polygon fill="#B56D3B" points="461.75,299.914 453.917,299.914 450,292.914 465.667,292.914 					"/>
					<polygon fill="#8A532D" points="461.75,292.914 453.917,292.914 450,285.914 465.667,285.914 					"/>
					<polygon fill="#B56D3B" points="461.75,401.914 453.917,401.914 450,394.914 465.667,394.914 					"/>
					<polygon fill="#8A532D" points="461.75,394.914 453.917,394.914 450,386.914 465.667,386.914 					"/>
					<polygon fill="#B56D3B" points="461.75,386.914 453.917,386.914 450,379.914 465.667,379.914 					"/>
					<polygon fill="#8A532D" points="461.75,379.914 453.917,379.914 450,372.914 465.667,372.914 					"/>
					<polygon fill="#B56D3B" points="461.75,372.914 453.917,372.914 450,365.914 465.667,365.914 					"/>
					<polygon fill="#8A532D" points="461.75,365.914 453.917,365.914 450,357.914 465.667,357.914 					"/>
					<polygon fill="#B56D3B" points="461.75,357.914 453.917,357.914 450,350.914 465.667,350.914 					"/>
					<polygon fill="#8A532D" points="461.75,350.914 453.917,350.914 450,343.914 465.667,343.914 					"/>
				</g>
			</g>
			<g>
				<polygon fill="#FFB561" points="189.032,310.914 154.449,276.809 172.707,310.914 				"/>
				<polygon fill="#FF9B29" points="172.707,310.914 221.096,400.914 280.688,400.914 189.032,310.914 				"/>
				<polygon fill="#FFB561" points="221.096,400.914 172.707,310.914 133.65,310.914 128.067,310.914 54,400.914 				"/>
				<polygon fill="#FFD161" points="154.449,276.805 128.067,310.91 133.65,310.91 172.707,310.91 				"/>
				<rect x="137.223" y="324.573" fill="#FFD161" width="22.756" height="5.781"/>
				<rect x="105.364" y="341.39" fill="#FFD161" width="22.756" height="5.781"/>
				<rect x="148.926" y="353.477" fill="#FFD161" width="22.756" height="5.781"/>
				<rect x="105.364" y="371.345" fill="#FFD161" width="22.756" height="5.781"/>
				<rect x="174.283" y="385.008" fill="#FFD161" width="22.756" height="5.781"/>
				<rect x="229" y="376.914" fill="#FFB561" width="23" height="6"/>
				<rect x="198" y="346.914" fill="#FFB561" width="23" height="5"/>
				<rect x="191" y="333.914" fill="#FFB561" width="13" height="5"/>
			</g>
			<g>
				<path fill="#4FB463" d="M74.359,315.675l-3.176,2.815l1.876,2.117c4.483-3.973,3.72-11.265-1.16-16.77
					c-4.879-5.505-12.027-7.139-16.51-3.167l2.189,2.47l3.176-2.815l2.345,2.647l-3.176,2.815l1.407,1.588l3.176-2.815l2.345,2.647
					l-3.176,2.815l1.407,1.588l3.176-2.815l2.345,2.647l-3.176,2.815l1.407,1.588l3.176-2.815L74.359,315.675z"/>
				<path fill="#4FB463" d="M70.633,316.629l1.123,4.092l2.728-0.749c-1.585-5.776-8.465-8.311-15.559-6.364
					c-7.094,1.947-11.716,7.639-10.131,13.415l3.183-0.874l-1.123-4.092l3.41-0.936l1.123,4.092l2.046-0.562l-1.123-4.092
					l3.41-0.936l1.123,4.092l2.046-0.562l-1.123-4.092l3.41-0.936l1.123,4.092l2.046-0.562l-1.123-4.092L70.633,316.629z"/>
				<path fill="#4FB463" d="M74.198,315.675l3.176,2.815l-1.876,2.117c-4.483-3.973-3.72-11.265,1.16-16.77
					s12.027-7.139,16.51-3.167l-2.189,2.47l-3.176-2.815l-2.345,2.647l3.176,2.815l-1.407,1.588l-3.176-2.815l-2.345,2.647
					l3.176,2.815l-1.407,1.588l-3.176-2.815l-2.345,2.647l3.176,2.815l-1.407,1.588l-3.176-2.815L74.198,315.675z"/>
				<path fill="#4FB463" d="M77.923,316.629l-1.123,4.092l-2.728-0.749c1.585-5.776,8.465-8.311,15.559-6.364
					c7.094,1.947,11.716,7.639,10.131,13.415l-3.183-0.874l1.123-4.092l-3.41-0.936l-1.123,4.092l-2.046-0.562l1.123-4.092
					l-3.41-0.936l-1.123,4.092l-2.046-0.562l1.123-4.092l-3.41-0.936l-1.123,4.092l-2.046-0.562l1.123-4.092L77.923,316.629z"/>
				<g>
					<polygon fill="#B56D3B" points="76.962,360.914 71.422,360.914 68.652,355.914 79.732,355.914 					"/>
					<polygon fill="#8A532D" points="76.962,355.914 71.422,355.914 68.652,349.914 79.732,349.914 					"/>
					<polygon fill="#B56D3B" points="76.962,349.914 71.422,349.914 68.652,344.914 79.732,344.914 					"/>
					<polygon fill="#8A532D" points="76.962,344.914 71.422,344.914 68.652,339.914 79.732,339.914 					"/>
					<polygon fill="#B56D3B" points="76.962,339.914 71.422,339.914 68.652,335.914 79.732,335.914 					"/>
					<polygon fill="#8A532D" points="76.962,335.914 71.422,335.914 68.652,329.914 79.732,329.914 					"/>
					<polygon fill="#B56D3B" points="76.962,329.914 71.422,329.914 68.652,324.914 79.732,324.914 					"/>
					<polygon fill="#8A532D" points="76.962,324.914 71.422,324.914 68.652,319.914 79.732,319.914 					"/>
					<polygon fill="#B56D3B" points="76.962,401.914 71.422,401.914 68.652,396.914 79.732,396.914 					"/>
					<polygon fill="#8A532D" points="76.962,396.914 71.422,396.914 68.652,390.914 79.732,390.914 					"/>
					<polygon fill="#B56D3B" points="76.962,390.914 71.422,390.914 68.652,385.914 79.732,385.914 					"/>
					<polygon fill="#8A532D" points="76.962,385.914 71.422,385.914 68.652,380.914 79.732,380.914 					"/>
					<polygon fill="#B56D3B" points="76.962,380.914 71.422,380.914 68.652,376.914 79.732,376.914 					"/>
					<polygon fill="#8A532D" points="76.962,376.914 71.422,376.914 68.652,370.914 79.732,370.914 					"/>
					<polygon fill="#B56D3B" points="76.962,370.914 71.422,370.914 68.652,365.914 79.732,365.914 					"/>
					<polygon fill="#8A532D" points="76.962,365.914 71.422,365.914 68.652,360.914 79.732,360.914 					"/>
				</g>
			</g>
			<circle fill="#FFD161" cx="117.051" cy="163.935" r="68.234"/>
			<rect x="10" y="401.299" fill="#FFD161" width="492" height="15"/>
		</g>
	</g>
	<g id="Colloseum">
	</g>
	<g id="Mount_Fuji">
	</g>
	<g id="Great_Wall_of_China">
	</g>
	<g id="Stonehenge">
	</g>
	<g id="Golden_Gate_Bridge">
	</g>
	<g id="Christ_the_Redeemer">
	</g>
	<g id="Statue_of_Liberty">
	</g>
	<g id="Taj_Mahal">
	</g>
	<g id="Eiffel_tower">
	</g>
</g>
<g id="camping">
	<g id="mug">
	</g>
	<g id="hook">
	</g>
	<g id="Swiss_knife">
	</g>
	<g id="flashlight">
	</g>
	<g id="lantern">
	</g>
	<g id="campfire">
	</g>
	<g id="beanie">
	</g>
	<g id="rope">
	</g>
	<g id="boot">
	</g>
	<g id="axe">
	</g>
</g>
<g id="hotel_1_">
	<g id="towel">
	</g>
	<g id="phone">
	</g>
	<g id="pool">
	</g>
	<g id="food_service">
	</g>
	<g id="wifi">
	</g>
	<g id="bed">
	</g>
	<g id="door">
	</g>
	<g id="key">
	</g>
	<g id="do_not_disturb">
	</g>
	<g id="bell">
	</g>
</g>
<g id="winter">
	<g id="snowman">
	</g>
	<g id="snow_mountain">
	</g>
	<g id="reindeer">
	</g>
	<g id="winter_tree">
	</g>
	<g id="lift">
	</g>
	<g id="beanie__x26__google">
	</g>
	<g id="ski">
	</g>
	<g id="snowboard">
	</g>
	<g id="snowboading">
	</g>
	<g id="skiing">
	</g>
</g>
<g id="general_travelling">
	<g id="dinner_set">
	</g>
	<g id="polaroid">
	</g>
	<g id="camera">
	</g>
	<g id="calendar">
	</g>
	<g id="calendar_single">
	</g>
	<g id="shopping_bag">
	</g>
	<g id="watch">
	</g>
	<g id="alarm_clock">
	</g>
	<g id="credit_card">
	</g>
	<g id="road_sign">
	</g>
	<g id="hotel">
	</g>
	<g id="money">
	</g>
	<g id="sunglass">
	</g>
	<g id="cocktail">
	</g>
	<g id="compass">
	</g>
	<g id="tent">
	</g>
	<g id="backpack">
	</g>
	<g id="map">
	</g>
	<g id="ticket_1_">
	</g>
	<g id="passport">
	</g>
	<g id="luggage">
	</g>
	<g id="globe">
	</g>
	<g id="suitcase">
	</g>
</g>
<g id="vehicles">
	<g id="trailer">
	</g>
	<g id="airplane">
	</g>
	<g id="yatch">
	</g>
	<g id="taxi">
	</g>
	<g id="hot_air_ballon">
	</g>
	<g id="bus">
	</g>
	<g id="train">
	</g>
</g>
<g id="summer">
	<g id="postcard">
	</g>
	<g id="bikini">
	</g>
	<g id="flipflop">
	</g>
	<g id="plane_around_the_globe">
	</g>
	<g id="binocular">
	</g>
	<g id="beach_table">
	</g>
	<g id="sun_hat">
	</g>
	<g id="beach_bag">
	</g>
	<g id="sea__x26__wave">
	</g>
	<g id="beach">
	</g>
	<g id="beach_ball">
	</g>
	<g id="jetski">
	</g>
	<g id="sandcastle">
	</g>
	<g id="lifeguard_male">
	</g>
	<g id="lifeguard_female">
	</g>
	<g id="lighthouse">
	</g>
	<g id="hammok">
	</g>
	<g id="beach_chair__x26__umbrella">
	</g>
	<g id="lifeguard">
	</g>
	<g id="suncream">
	</g>
	<g id="starfish">
	</g>
	<g id="beach_bar">
	</g>
	<g id="bucket__x26__shovel">
	</g>
	<g id="palm_tree">
	</g>
	<g id="shark_warning">
	</g>
	<g id="surfboard">
	</g>
	<g id="swimming_trunks">
	</g>
	<g id="coconut_drink">
	</g>
	<g id="beach_chair__x26__towel">
	</g>
	<g id="coconut_tree">
	</g>
</g>
</svg>
