<?xml version="1.0" encoding="utf-8"?>
<!-- Generator: Adobe Illustrator 17.0.0, SVG Export Plug-In . SVG Version: 6.00 Build 0)  -->
<!DOCTYPE svg PUBLIC "-//W3C//DTD SVG 1.1//EN" "http://www.w3.org/Graphics/SVG/1.1/DTD/svg11.dtd">
<svg version="1.1" xmlns="http://www.w3.org/2000/svg" xmlns:xlink="http://www.w3.org/1999/xlink" x="0px" y="0px" width="512px"
	 height="512px" viewBox="0 0 512 512" enable-background="new 0 0 512 512" xml:space="preserve">
<g id="famous_places">
	<g id="Pyramid">
	</g>
	<g id="Colloseum">
	</g>
	<g id="Mount_Fuji">
	</g>
	<g id="Great_Wall_of_China">
	</g>
	<g id="Stonehenge">
	</g>
	<g id="Golden_Gate_Bridge">
	</g>
	<g id="Christ_the_Redeemer">
	</g>
	<g id="Statue_of_Liberty">
	</g>
	<g id="Taj_Mahal">
	</g>
	<g id="Eiffel_tower">
	</g>
</g>
<g id="camping">
	<g id="mug">
	</g>
	<g id="hook">
	</g>
	<g id="Swiss_knife">
	</g>
	<g id="flashlight">
	</g>
	<g id="lantern">
	</g>
	<g id="campfire">
	</g>
	<g id="beanie">
	</g>
	<g id="rope">
	</g>
	<g id="boot">
	</g>
	<g id="axe">
	</g>
</g>
<g id="hotel_1_">
	<g id="towel">
	</g>
	<g id="phone">
	</g>
	<g id="pool">
	</g>
	<g id="food_service">
	</g>
	<g id="wifi">
	</g>
	<g id="bed">
	</g>
	<g id="door">
	</g>
	<g id="key">
	</g>
	<g id="do_not_disturb">
	</g>
	<g id="bell">
	</g>
</g>
<g id="winter">
	<g id="snowman">
	</g>
	<g id="snow_mountain">
	</g>
	<g id="reindeer">
	</g>
	<g id="winter_tree">
	</g>
	<g id="lift">
	</g>
	<g id="beanie__x26__google">
	</g>
	<g id="ski">
	</g>
	<g id="snowboard">
	</g>
	<g id="snowboading">
	</g>
	<g id="skiing">
	</g>
</g>
<g id="general_travelling">
	<g id="dinner_set">
	</g>
	<g id="polaroid">
	</g>
	<g id="camera">
	</g>
	<g id="calendar">
	</g>
	<g id="calendar_single">
	</g>
	<g id="shopping_bag">
	</g>
	<g id="watch">
	</g>
	<g id="alarm_clock">
	</g>
	<g id="credit_card">
	</g>
	<g id="road_sign">
	</g>
	<g id="hotel">
	</g>
	<g id="money">
	</g>
	<g id="sunglass">
	</g>
	<g id="cocktail">
	</g>
	<g id="compass">
	</g>
	<g id="tent">
	</g>
	<g id="backpack">
	</g>
	<g id="map">
	</g>
	<g id="ticket_1_">
	</g>
	<g id="passport">
	</g>
	<g id="luggage">
	</g>
	<g id="globe">
	</g>
	<g id="suitcase">
	</g>
</g>
<g id="vehicles">
	<g id="trailer">
	</g>
	<g id="airplane">
	</g>
	<g id="yatch">
	</g>
	<g id="taxi">
	</g>
	<g id="hot_air_ballon">
	</g>
	<g id="bus">
	</g>
	<g id="train">
	</g>
</g>
<g id="summer">
	<g id="postcard">
	</g>
	<g id="bikini">
	</g>
	<g id="flipflop">
	</g>
	<g id="plane_around_the_globe">
	</g>
	<g id="binocular">
	</g>
	<g id="beach_table">
	</g>
	<g id="sun_hat">
	</g>
	<g id="beach_bag">
	</g>
	<g id="sea__x26__wave">
	</g>
	<g id="beach">
	</g>
	<g id="beach_ball">
	</g>
	<g id="jetski">
	</g>
	<g id="sandcastle">
	</g>
	<g id="lifeguard_male">
	</g>
	<g id="lifeguard_female">
	</g>
	<g id="lighthouse">
	</g>
	<g id="hammok">
	</g>
	<g id="beach_chair__x26__umbrella">
	</g>
	<g id="lifeguard">
	</g>
	<g id="suncream">
	</g>
	<g id="starfish">
	</g>
	<g id="beach_bar">
	</g>
	<g id="bucket__x26__shovel">
	</g>
	<g id="palm_tree">
	</g>
	<g id="shark_warning">
	</g>
	<g id="surfboard">
	</g>
	<g id="swimming_trunks">
	</g>
	<g id="coconut_drink">
	</g>
	<g id="beach_chair__x26__towel">
	</g>
	<g id="coconut_tree">
		<path fill="#6E4224" d="M255.7,165.812c0,0,5.087,269.752,40.232,319.585h-82.93c0,0-3.906-235.227,29.985-314.792L255.7,165.812z
			"/>
		<circle fill="#6E4224" cx="224.987" cy="202.606" r="17.131"/>
		<path fill="#8A532D" d="M229.588,485.397h66.344c-12.265-46.73-38.268-249.645-39.879-305.586
			C225.96,266.841,229.588,485.397,229.588,485.397z"/>
		<circle fill="#6E4224" cx="267.119" cy="216.738" r="14.262"/>
		<circle fill="#6E4224" cx="313.068" cy="469.788" r="10.212"/>
		
			<line fill="none" stroke="#6E4224" stroke-width="4" stroke-linecap="round" stroke-linejoin="round" stroke-miterlimit="10" x1="229.002" y1="249.737" x2="255.263" y2="249.737"/>
		
			<line fill="none" stroke="#6E4224" stroke-width="4" stroke-linecap="round" stroke-linejoin="round" stroke-miterlimit="10" x1="229.002" y1="314.699" x2="252.498" y2="314.699"/>
		
			<line fill="none" stroke="#6E4224" stroke-width="4" stroke-linecap="round" stroke-linejoin="round" stroke-miterlimit="10" x1="223.473" y1="365.839" x2="253.881" y2="365.839"/>
		
			<line fill="none" stroke="#6E4224" stroke-width="4" stroke-linecap="round" stroke-linejoin="round" stroke-miterlimit="10" x1="223.473" y1="428.036" x2="253.881" y2="428.036"/>
		
			<line fill="none" stroke="#6E4224" stroke-width="4" stroke-linecap="round" stroke-linejoin="round" stroke-miterlimit="10" x1="219.326" y1="469.501" x2="271.849" y2="469.501"/>
		<circle fill="#B06A39" cx="252.777" cy="195.396" r="16.92"/>
		<circle fill="#8A532D" cx="239.119" cy="219.738" r="14.262"/>
		<path fill="#4FB463" d="M430.636,208.922c0,0-70.205-83.599-185.302-25.589l36.63,32.684l24.22,3.381L296.109,193.3l41.128,30.433
			l17.387,2.427l-12.496-37.463l44.677,42.78L430.636,208.922z"/>
		<path fill="#4FB463" d="M243.266,179.247c0,0-112.266-16.58-148.803,73.852l23.061,8.361l25.426-9.585l5.532-31.543l15.474,41.047
			l26.544-12.91l-0.848-34.473l12.442,33.006l11.064-20.721L243.266,179.247z"/>
		<path fill="#4FB463" d="M357.667,55.017c-58-18.351-94.889,25.595-109.333,130.316l54-48l-6.402-26l35.735,6.812L357.667,55.017z"
			/>
		<path fill="#4FB463" d="M78.023,58.507c0,0,150.718-33.534,177.676,107.305l-7.366,19.521l-60.841-17.605l14.42-32.346
			l-40.681,15.336l-6.99-29.067l-39.309-9.014l-19.449-6.938L78.023,58.507z"/>
		<polygon fill="#62E07B" points="154.241,121.651 188,100 138.957,118.146 		"/>
		<polygon fill="#62E07B" points="161.231,150.718 201.912,135.382 156.408,130.661 		"/>
		<polygon fill="#62E07B" points="142.949,251.875 148.481,220.333 132.008,256 		"/>
		<polygon fill="#62E07B" points="190.499,248.469 179.16,253.985 189.651,213.997 		"/>
		<polygon fill="#62E07B" points="337.237,223.733 296.109,193.3 354.624,226.16 		"/>
		<polygon fill="#62E07B" points="386.805,231.477 342.128,188.697 409.618,219.738 		"/>
		<polygon fill="#62E07B" points="302.333,137.333 287.276,150.718 295.932,111.333 		"/>
		<polygon fill="#62E07B" points="342,93 303,93 348.082,78.289 		"/>
		<path fill="#FFD161" d="M344.349,485.486c-2.39-1.015-58.937-24.861-95.053-24.861c-36.099,0-93.641,23.835-96.073,24.85
			c-1.386,0.579-2.031,1.701-1.581,2.751c0.45,1.05,1.886,1.774,3.519,1.774h187.225c1.628,0,3.06-0.719,3.515-1.764
			C346.356,487.19,345.722,486.07,344.349,485.486z"/>
		<circle fill="#B06A39" cx="295.777" cy="465.396" r="16.92"/>
	</g>
</g>
</svg>
