<?xml version="1.0" encoding="utf-8"?>
<!-- Generator: Adobe Illustrator 17.0.0, SVG Export Plug-In . SVG Version: 6.00 Build 0)  -->
<!DOCTYPE svg PUBLIC "-//W3C//DTD SVG 1.1//EN" "http://www.w3.org/Graphics/SVG/1.1/DTD/svg11.dtd">
<svg version="1.1" xmlns="http://www.w3.org/2000/svg" xmlns:xlink="http://www.w3.org/1999/xlink" x="0px" y="0px" width="512px"
	 height="512px" viewBox="0 0 512 512" enable-background="new 0 0 512 512" xml:space="preserve">
<g id="famous_places">
	<g id="Pyramid">
	</g>
	<g id="Colloseum">
	</g>
	<g id="Mount_Fuji">
	</g>
	<g id="Great_Wall_of_China">
	</g>
	<g id="Stonehenge">
	</g>
	<g id="Golden_Gate_Bridge">
	</g>
	<g id="Christ_the_Redeemer">
	</g>
	<g id="Statue_of_Liberty">
	</g>
	<g id="Taj_Mahal">
	</g>
	<g id="Eiffel_tower">
	</g>
</g>
<g id="camping">
	<g id="mug">
	</g>
	<g id="hook">
	</g>
	<g id="Swiss_knife">
	</g>
	<g id="flashlight">
	</g>
	<g id="lantern">
	</g>
	<g id="campfire">
	</g>
	<g id="beanie">
	</g>
	<g id="rope">
	</g>
	<g id="boot">
	</g>
	<g id="axe">
	</g>
</g>
<g id="hotel_1_">
	<g id="towel">
	</g>
	<g id="phone">
	</g>
	<g id="pool">
	</g>
	<g id="food_service">
	</g>
	<g id="wifi">
	</g>
	<g id="bed">
	</g>
	<g id="door">
	</g>
	<g id="key">
	</g>
	<g id="do_not_disturb">
	</g>
	<g id="bell">
	</g>
</g>
<g id="winter">
	<g id="snowman">
	</g>
	<g id="snow_mountain">
	</g>
	<g id="reindeer">
	</g>
	<g id="winter_tree">
	</g>
	<g id="lift">
	</g>
	<g id="beanie__x26__google">
	</g>
	<g id="ski">
	</g>
	<g id="snowboard">
	</g>
	<g id="snowboading">
	</g>
	<g id="skiing">
	</g>
</g>
<g id="general_travelling">
	<g id="dinner_set">
	</g>
	<g id="polaroid">
	</g>
	<g id="camera">
	</g>
	<g id="calendar">
	</g>
	<g id="calendar_single">
	</g>
	<g id="shopping_bag">
	</g>
	<g id="watch">
	</g>
	<g id="alarm_clock">
	</g>
	<g id="credit_card">
	</g>
	<g id="road_sign">
	</g>
	<g id="hotel">
	</g>
	<g id="money">
	</g>
	<g id="sunglass">
	</g>
	<g id="cocktail">
	</g>
	<g id="compass">
	</g>
	<g id="tent">
	</g>
	<g id="backpack">
	</g>
	<g id="map">
	</g>
	<g id="ticket_1_">
	</g>
	<g id="passport">
	</g>
	<g id="luggage">
	</g>
	<g id="globe">
	</g>
	<g id="suitcase">
	</g>
</g>
<g id="vehicles">
	<g id="trailer">
	</g>
	<g id="airplane">
	</g>
	<g id="yatch">
	</g>
	<g id="taxi">
	</g>
	<g id="hot_air_ballon">
	</g>
	<g id="bus">
	</g>
	<g id="train">
	</g>
</g>
<g id="summer">
	<g id="postcard">
	</g>
	<g id="bikini">
	</g>
	<g id="flipflop">
	</g>
	<g id="plane_around_the_globe">
	</g>
	<g id="binocular">
	</g>
	<g id="beach_table">
	</g>
	<g id="sun_hat">
	</g>
	<g id="beach_bag">
	</g>
	<g id="sea__x26__wave">
	</g>
	<g id="beach">
	</g>
	<g id="beach_ball">
	</g>
	<g id="jetski">
	</g>
	<g id="sandcastle">
	</g>
	<g id="lifeguard_male">
	</g>
	<g id="lifeguard_female">
	</g>
	<g id="lighthouse">
	</g>
	<g id="hammok">
	</g>
	<g id="beach_chair__x26__umbrella">
	</g>
	<g id="lifeguard">
	</g>
	<g id="suncream">
	</g>
	<g id="starfish">
	</g>
	<g id="beach_bar">
	</g>
	<g id="bucket__x26__shovel">
		<g>
			<path fill="#ADD660" d="M317.734,185.168l-3.714-9.924c-1.765-4.857-0.687-10.473,3.021-14.073l38.012-36.903
				c2.484-2.412,5.992-3.568,9.454-3.53l11.174,0.023c3.462,0.038,6.702-1.394,9.186-3.806l12.459-12.096
				c5.2-5.048,5.687-12.979,0.639-18.179l-24.221-24.949c-5.048-5.199-13.863-5.846-19.063-0.798l-12.656,12.287
				c-2.367,2.298-3.527,5.664-3.708,8.958l-0.619,10.867c-0.181,3.293-1.617,6.376-3.984,8.673l-38.456,37.334
				c-3.625,3.52-8.801,4.798-13.54,3.046l-8.64-3.145c-7.145-2.641-15.135-0.074-19.475,6.186l-31.511,45.494
				c0,0-16.363,20.073,2.804,39.816l1.368-1.335l-1.152,1.557c19.167,19.743,39.915,4.188,39.915,4.188l46.116-29.991
				C317.655,200.634,320.387,192.468,317.734,185.168z M362.601,108.436l-5.638-5.807l-5.638-5.807
				c-1.193-1.228-1.902-2.828-1.877-4.54l0.251-9.717c0.025-1.712,0.834-3.182,2.063-4.375l7.184-6.974
				c2.558-2.483,6.684-2.986,9.167-0.428l10.504,10.819l10.504,10.819c2.483,2.558,2.415,7.24-0.143,9.723l-7.184,6.974
				c-1.228,1.193-3.027,1.697-4.739,1.672l-9.898-0.274C365.445,110.497,363.794,109.665,362.601,108.436z"/>
			<path fill="#8AAB4D" d="M307.976,164.016c-0.05,0-0.099,0.004-0.149,0.004c-3.956-8.873-10.445-16.365-18.544-21.566
				c-2.449,0.644-5.066,0.57-7.564-0.353l-8.64-3.145c-7.145-2.642-15.134-0.074-19.475,6.186l-31.511,45.494
				c0,0-16.363,20.072,2.804,39.815l1.368-1.336l-1.152,1.557c7.161,7.376,14.541,9.824,20.979,9.998
				c1.407-2.772,2.588-5.678,3.499-8.702c4.139,1.121,8.488,1.73,12.981,1.73c1.545,0,3.071-0.08,4.58-0.22l43.992-28.61
				c6.512-4.235,9.244-12.4,6.59-19.701l-3.714-9.924c-1.279-3.519-1.057-7.433,0.568-10.693
				C312.434,164.203,310.227,164.016,307.976,164.016z"/>
			<g>
				<path fill="#FFD161" d="M296.766,175.225c-0.05,0-0.099,0.004-0.149,0.004c-7.72-17.316-25.071-29.394-45.255-29.394
					c-21.014,0-38.958,13.091-46.157,31.557c-5.625-2.012-11.682-3.115-17.999-3.115c-29.52,0-53.452,23.931-53.452,53.452
					c0,29.52,23.931,53.452,53.452,53.452c24.147,0,44.546-16.016,51.175-38.002c4.139,1.121,8.488,1.73,12.981,1.73
					c4.789,0,9.414-0.693,13.795-1.961c7.565,9.021,18.915,14.76,31.609,14.76c22.777,0,41.241-18.464,41.241-41.241
					S319.543,175.225,296.766,175.225z"/>
				<path fill="#FFB561" d="M133.755,227.729c0,1.504,0.078,2.99,0.2,4.462h200.941c2.001-4.847,3.112-10.155,3.112-15.725
					c0-5.644-1.137-11.021-3.189-15.921H141.187C136.471,208.512,133.755,217.801,133.755,227.729z"/>
				<path fill="#FF6650" d="M310.191,454.528h-148.46c-10.33,0-18.935-8.642-19.79-19.875l-14.838-194.821
					c-0.962-12.632,8.174-23.464,19.79-23.464h178.135c11.616,0,20.752,10.832,19.79,23.464l-14.838,194.821
					C329.125,445.886,320.52,454.528,310.191,454.528z"/>
				<circle fill="#FF8B7A" cx="155.454" cy="292.075" r="12.088"/>
				
					<line fill="none" stroke="#FF8B7A" stroke-width="15" stroke-linecap="round" stroke-linejoin="round" stroke-miterlimit="10" x1="155.984" y1="321.227" x2="160.747" y2="388.54"/>
				<path fill="#CF5341" d="M325.028,216.369h-42.663c11.616,0,20.752,10.832,19.79,23.464l-14.838,194.821
					c-0.856,11.233-9.46,19.875-19.79,19.875h42.663c10.33,0,18.935-8.642,19.79-19.875l14.838-194.821
					C345.781,227.201,336.645,216.369,325.028,216.369z"/>
				
					<path fill="none" stroke="#E3E3E3" stroke-width="14" stroke-linecap="round" stroke-linejoin="round" stroke-miterlimit="10" d="
					M353.533,234.906c0,0,18.488,108.032-116.374,108.032h-1.278c-134.863,0-116.374-108.056-116.374-108.056"/>
				<path fill="#FF8B7A" d="M348.628,243.198H123.293c-7.065,0-12.793-5.728-12.793-12.793v-6.059
					c0-7.065,5.728-12.793,12.793-12.793h225.335c7.065,0,12.793,5.728,12.793,12.793v6.059
					C361.421,237.471,355.694,243.198,348.628,243.198z"/>
			</g>
		</g>
	</g>
	<g id="palm_tree">
	</g>
	<g id="shark_warning">
	</g>
	<g id="surfboard">
	</g>
	<g id="swimming_trunks">
	</g>
	<g id="coconut_drink">
	</g>
	<g id="beach_chair__x26__towel">
	</g>
	<g id="coconut_tree">
	</g>
</g>
</svg>
