<?xml version="1.0" encoding="utf-8"?>
<!-- Generator: Adobe Illustrator 17.0.0, SVG Export Plug-In . SVG Version: 6.00 Build 0)  -->
<!DOCTYPE svg PUBLIC "-//W3C//DTD SVG 1.1//EN" "http://www.w3.org/Graphics/SVG/1.1/DTD/svg11.dtd">
<svg version="1.1" xmlns="http://www.w3.org/2000/svg" xmlns:xlink="http://www.w3.org/1999/xlink" x="0px" y="0px" width="512px"
	 height="512px" viewBox="0 0 512 512" enable-background="new 0 0 512 512" xml:space="preserve">
<g id="famous_places">
	<g id="Pyramid">
	</g>
	<g id="Colloseum">
	</g>
	<g id="Mount_Fuji">
	</g>
	<g id="Great_Wall_of_China">
	</g>
	<g id="Stonehenge">
	</g>
	<g id="Golden_Gate_Bridge">
	</g>
	<g id="Christ_the_Redeemer">
	</g>
	<g id="Statue_of_Liberty">
	</g>
	<g id="Taj_Mahal">
	</g>
	<g id="Eiffel_tower">
	</g>
</g>
<g id="camping">
	<g id="mug">
	</g>
	<g id="hook">
	</g>
	<g id="Swiss_knife">
	</g>
	<g id="flashlight">
	</g>
	<g id="lantern">
	</g>
	<g id="campfire">
	</g>
	<g id="beanie">
	</g>
	<g id="rope">
	</g>
	<g id="boot">
	</g>
	<g id="axe">
	</g>
</g>
<g id="hotel_1_">
	<g id="towel">
	</g>
	<g id="phone">
	</g>
	<g id="pool">
	</g>
	<g id="food_service">
	</g>
	<g id="wifi">
	</g>
	<g id="bed">
	</g>
	<g id="door">
	</g>
	<g id="key">
	</g>
	<g id="do_not_disturb">
	</g>
	<g id="bell">
	</g>
</g>
<g id="winter">
	<g id="snowman">
	</g>
	<g id="snow_mountain">
	</g>
	<g id="reindeer">
	</g>
	<g id="winter_tree">
	</g>
	<g id="lift">
	</g>
	<g id="beanie__x26__google">
	</g>
	<g id="ski">
	</g>
	<g id="snowboard">
	</g>
	<g id="snowboading">
	</g>
	<g id="skiing">
	</g>
</g>
<g id="general_travelling">
	<g id="dinner_set">
	</g>
	<g id="polaroid">
	</g>
	<g id="camera">
	</g>
	<g id="calendar">
		<g>
			<g>
				<path fill="#E3E3E3" d="M72.743,151.824v198.2c0,14.101,11.431,25.532,25.532,25.532h231.769
					c14.101,0,25.532-11.431,25.532-25.532v-198.2H72.743z"/>
				<g>
					<path fill="#FF6650" d="M355.576,95.849c0-14.101-11.431-25.532-25.532-25.532H98.275c-14.101,0-25.532,11.431-25.532,25.532
						v38.975h282.833V95.849z"/>
					<rect x="72.743" y="134.824" fill="#CF5341" width="282.833" height="17"/>
				</g>
				<g>
					<g>
						<circle fill="#CF5341" cx="121.16" cy="93.253" r="13.317"/>
						<circle fill="#CF5341" cx="167.66" cy="93.253" r="13.317"/>
						<circle fill="#CF5341" cx="214.16" cy="93.253" r="13.317"/>
						<circle fill="#CF5341" cx="260.66" cy="93.253" r="13.317"/>
						<circle fill="#CF5341" cx="307.16" cy="93.253" r="13.317"/>
					</g>
				</g>
				<g>
					<path fill="#E3E3E3" d="M121,98.824c-3.313,0-6-2.687-6-6v-42c0-3.313,2.687-6,6-6s6,2.687,6,6v42
						C127,96.137,124.313,98.824,121,98.824z"/>
					<path fill="#E3E3E3" d="M168,98.824c-3.313,0-6-2.687-6-6v-42c0-3.313,2.687-6,6-6s6,2.687,6,6v42
						C174,96.137,171.313,98.824,168,98.824z"/>
					<path fill="#E3E3E3" d="M214,98.824c-3.313,0-6-2.687-6-6v-42c0-3.313,2.687-6,6-6s6,2.687,6,6v42
						C220,96.137,217.313,98.824,214,98.824z"/>
					<path fill="#E3E3E3" d="M261,98.824c-3.313,0-6-2.687-6-6v-42c0-3.313,2.687-6,6-6s6,2.687,6,6v42
						C267,96.137,264.313,98.824,261,98.824z"/>
					<path fill="#E3E3E3" d="M307,98.824c-3.313,0-6-2.687-6-6v-42c0-3.313,2.687-6,6-6s6,2.687,6,6v42
						C313,96.137,310.313,98.824,307,98.824z"/>
				</g>
				<g>
					<g>
						<g>
							<path fill="#808080" d="M139,273.77c0,5.348-4.335,9.683-9.683,9.683h-27.635c-5.348,0-9.683-4.335-9.683-9.683v-27.635
								c0-5.348,4.335-9.683,9.683-9.683h27.635c5.348,0,9.683,4.335,9.683,9.683V273.77z"/>
							<path fill="#808080" d="M205,273.77c0,5.348-4.335,9.683-9.683,9.683h-27.635c-5.348,0-9.683-4.335-9.683-9.683v-27.635
								c0-5.348,4.335-9.683,9.683-9.683h27.635c5.348,0,9.683,4.335,9.683,9.683V273.77z"/>
							<path fill="#808080" d="M270,273.77c0,5.348-4.335,9.683-9.683,9.683h-27.635c-5.348,0-9.683-4.335-9.683-9.683v-27.635
								c0-5.348,4.335-9.683,9.683-9.683h27.635c5.348,0,9.683,4.335,9.683,9.683V273.77z"/>
							<path fill="#808080" d="M336,273.77c0,5.348-4.335,9.683-9.683,9.683h-27.635c-5.348,0-9.683-4.335-9.683-9.683v-27.635
								c0-5.348,4.335-9.683,9.683-9.683h27.635c5.348,0,9.683,4.335,9.683,9.683V273.77z"/>
						</g>
					</g>
				</g>
				<g>
					<g>
						<path fill="#808080" d="M205.16,203.77c0,5.348-4.335,9.683-9.683,9.683h-27.635c-5.348,0-9.683-4.335-9.683-9.683v-27.635
							c0-5.348,4.335-9.683,9.683-9.683h27.635c5.348,0,9.683,4.335,9.683,9.683V203.77z"/>
						<path fill="#FFD161" d="M270.16,203.77c0,5.348-4.335,9.683-9.683,9.683h-27.635c-5.348,0-9.683-4.335-9.683-9.683v-27.635
							c0-5.348,4.335-9.683,9.683-9.683h27.635c5.348,0,9.683,4.335,9.683,9.683V203.77z"/>
						<path fill="#808080" d="M336.16,203.77c0,5.348-4.335,9.683-9.683,9.683h-27.635c-5.348,0-9.683-4.335-9.683-9.683v-27.635
							c0-5.348,4.335-9.683,9.683-9.683h27.635c5.348,0,9.683,4.335,9.683,9.683V203.77z"/>
					</g>
					<g>
						<g>
							<path fill="#808080" d="M139.16,343.77c0,5.348-4.335,9.683-9.683,9.683h-27.635c-5.348,0-9.683-4.335-9.683-9.683v-27.635
								c0-5.348,4.335-9.683,9.683-9.683h27.635c5.348,0,9.683,4.335,9.683,9.683V343.77z"/>
							<path fill="#2FB49F" d="M205.16,343.77c0,5.348-4.335,9.683-9.683,9.683h-27.635c-5.348,0-9.683-4.335-9.683-9.683v-27.635
								c0-5.348,4.335-9.683,9.683-9.683h27.635c5.348,0,9.683,4.335,9.683,9.683V343.77z"/>
							<path fill="#808080" d="M270.16,343.77c0,5.348-4.335,9.683-9.683,9.683h-27.635c-5.348,0-9.683-4.335-9.683-9.683v-27.635
								c0-5.348,4.335-9.683,9.683-9.683h27.635c5.348,0,9.683,4.335,9.683,9.683V343.77z"/>
							<path fill="#808080" d="M336.16,343.77c0,5.348-4.335,9.683-9.683,9.683h-27.635c-5.348,0-9.683-4.335-9.683-9.683v-27.635
								c0-5.348,4.335-9.683,9.683-9.683h27.635c5.348,0,9.683,4.335,9.683,9.683V343.77z"/>
						</g>
					</g>
				</g>
			</g>
			<circle fill="#4A4A4A" cx="340.709" cy="368.275" r="98.522"/>
			<g>
				<g>
					<g>
						<circle fill="#FFFFFF" cx="340.709" cy="368.275" r="77.564"/>
					</g>
					<g>
						<g>
							<circle fill="#4A4A4A" cx="340.709" cy="368.275" r="14.667"/>
						</g>
					</g>
					<g>
						<g>
							<path fill="#4A4A4A" d="M341,371.452c-1.657,0-3-1.343-3-3v-63c0-1.657,1.343-3,3-3s3,1.343,3,3v63
								C344,370.11,342.657,371.452,341,371.452z"/>
						</g>
					</g>
					<g>
						<path fill="#4A4A4A" d="M373.155,399.785c-1.47,0-2.951-0.46-4.214-1.414l-32.45-24.51c-3.085-2.33-3.697-6.72-1.367-9.805
							c2.329-3.087,6.721-3.698,9.805-1.367l32.45,24.51c3.085,2.33,3.697,6.72,1.367,9.805
							C377.37,398.826,375.274,399.785,373.155,399.785z"/>
					</g>
				</g>
			</g>
		</g>
	</g>
	<g id="calendar_single">
	</g>
	<g id="shopping_bag">
	</g>
	<g id="watch">
	</g>
	<g id="alarm_clock">
	</g>
	<g id="credit_card">
	</g>
	<g id="road_sign">
	</g>
	<g id="hotel">
	</g>
	<g id="money">
	</g>
	<g id="sunglass">
	</g>
	<g id="cocktail">
	</g>
	<g id="compass">
	</g>
	<g id="tent">
	</g>
	<g id="backpack">
	</g>
	<g id="map">
	</g>
	<g id="ticket_1_">
	</g>
	<g id="passport">
	</g>
	<g id="luggage">
	</g>
	<g id="globe">
	</g>
	<g id="suitcase">
	</g>
</g>
<g id="vehicles">
	<g id="trailer">
	</g>
	<g id="airplane">
	</g>
	<g id="yatch">
	</g>
	<g id="taxi">
	</g>
	<g id="hot_air_ballon">
	</g>
	<g id="bus">
	</g>
	<g id="train">
	</g>
</g>
<g id="summer">
	<g id="postcard">
	</g>
	<g id="bikini">
	</g>
	<g id="flipflop">
	</g>
	<g id="plane_around_the_globe">
	</g>
	<g id="binocular">
	</g>
	<g id="beach_table">
	</g>
	<g id="sun_hat">
	</g>
	<g id="beach_bag">
	</g>
	<g id="sea__x26__wave">
	</g>
	<g id="beach">
	</g>
	<g id="beach_ball">
	</g>
	<g id="jetski">
	</g>
	<g id="sandcastle">
	</g>
	<g id="lifeguard_male">
	</g>
	<g id="lifeguard_female">
	</g>
	<g id="lighthouse">
	</g>
	<g id="hammok">
	</g>
	<g id="beach_chair__x26__umbrella">
	</g>
	<g id="lifeguard">
	</g>
	<g id="suncream">
	</g>
	<g id="starfish">
	</g>
	<g id="beach_bar">
	</g>
	<g id="bucket__x26__shovel">
	</g>
	<g id="palm_tree">
	</g>
	<g id="shark_warning">
	</g>
	<g id="surfboard">
	</g>
	<g id="swimming_trunks">
	</g>
	<g id="coconut_drink">
	</g>
	<g id="beach_chair__x26__towel">
	</g>
	<g id="coconut_tree">
	</g>
</g>
</svg>
