<?xml version="1.0" encoding="utf-8"?>
<!-- Generator: Adobe Illustrator 17.0.0, SVG Export Plug-In . SVG Version: 6.00 Build 0)  -->
<!DOCTYPE svg PUBLIC "-//W3C//DTD SVG 1.1//EN" "http://www.w3.org/Graphics/SVG/1.1/DTD/svg11.dtd">
<svg version="1.1" xmlns="http://www.w3.org/2000/svg" xmlns:xlink="http://www.w3.org/1999/xlink" x="0px" y="0px" width="512px"
	 height="512px" viewBox="0 0 512 512" enable-background="new 0 0 512 512" xml:space="preserve">
<g id="famous_places">
	<g id="Pyramid">
	</g>
	<g id="Colloseum">
	</g>
	<g id="Mount_Fuji">
	</g>
	<g id="Great_Wall_of_China">
	</g>
	<g id="Stonehenge">
	</g>
	<g id="Golden_Gate_Bridge">
	</g>
	<g id="Christ_the_Redeemer">
	</g>
	<g id="Statue_of_Liberty">
	</g>
	<g id="Taj_Mahal">
	</g>
	<g id="Eiffel_tower">
	</g>
</g>
<g id="camping">
	<g id="mug">
	</g>
	<g id="hook">
	</g>
	<g id="Swiss_knife">
	</g>
	<g id="flashlight">
	</g>
	<g id="lantern">
	</g>
	<g id="campfire">
	</g>
	<g id="beanie">
	</g>
	<g id="rope">
	</g>
	<g id="boot">
	</g>
	<g id="axe">
	</g>
</g>
<g id="hotel_1_">
	<g id="towel">
	</g>
	<g id="phone">
	</g>
	<g id="pool">
	</g>
	<g id="food_service">
	</g>
	<g id="wifi">
	</g>
	<g id="bed">
	</g>
	<g id="door">
	</g>
	<g id="key">
	</g>
	<g id="do_not_disturb">
	</g>
	<g id="bell">
	</g>
</g>
<g id="winter">
	<g id="snowman">
	</g>
	<g id="snow_mountain">
	</g>
	<g id="reindeer">
	</g>
	<g id="winter_tree">
	</g>
	<g id="lift">
	</g>
	<g id="beanie__x26__google">
	</g>
	<g id="ski">
	</g>
	<g id="snowboard">
	</g>
	<g id="snowboading">
	</g>
	<g id="skiing">
	</g>
</g>
<g id="general_travelling">
	<g id="dinner_set">
	</g>
	<g id="polaroid">
	</g>
	<g id="camera">
	</g>
	<g id="calendar">
	</g>
	<g id="calendar_single">
	</g>
	<g id="shopping_bag">
	</g>
	<g id="watch">
	</g>
	<g id="alarm_clock">
	</g>
	<g id="credit_card">
	</g>
	<g id="road_sign">
	</g>
	<g id="hotel">
	</g>
	<g id="money">
	</g>
	<g id="sunglass">
	</g>
	<g id="cocktail">
	</g>
	<g id="compass">
		<g>
			<circle fill="none" stroke="#FFD161" stroke-width="9" stroke-miterlimit="10" cx="376.998" cy="99.898" r="51.49"/>
			<path fill="#FFB561" d="M304.501,218.047l-11.725-8.05c-4.623-3.175-5.798-9.496-2.623-14.119l46.445-67.643
				c3.174-4.623,9.496-5.798,14.119-2.623l11.725,8.05c4.623,3.174,5.798,9.496,2.623,14.119l-46.445,67.643
				C315.446,220.047,309.124,221.221,304.501,218.047z"/>
			
				<rect x="310.343" y="145.313" transform="matrix(0.8244 0.566 -0.566 0.8244 154.7962 -155.2621)" fill="#DB9C53" width="34.532" height="53.031"/>
			<path fill="#FFD161" d="M339.283,200.514l-42.638-29.276c-4.51-3.096-5.655-9.262-2.559-13.772l9.252-13.475
				c3.096-4.51,9.262-5.655,13.772-2.559l42.638,29.276c4.51,3.096,5.655,9.262,2.559,13.772l-9.252,13.475
				C349.958,202.464,343.793,203.61,339.283,200.514z"/>
			
				<rect x="307.927" y="142.324" transform="matrix(0.8244 0.566 -0.566 0.8244 145.7275 -148.8871)" fill="#FFECBD" width="9.749" height="36.155"/>
			
				<rect x="338.718" y="163.466" transform="matrix(-0.8244 -0.566 0.566 -0.8244 524.0826 525.691)" fill="#FFECBD" width="9.749" height="36.155"/>
			
				<rect x="323.322" y="152.895" transform="matrix(0.8244 0.566 -0.566 0.8244 154.4149 -155.7451)" fill="#FFECBD" width="9.749" height="36.155"/>
			<circle fill="#2FB49F" cx="228.026" cy="316.861" r="143.886"/>
			<circle fill="#E3E3E3" cx="228.026" cy="316.861" r="103.753"/>
			<circle fill="#FFFFFF" cx="225.641" cy="327.892" r="93.309"/>
			<g>
				<polygon fill="#FF6650" points="217.611,301.47 302.318,265.486 238.653,331.946 				"/>
				<polygon fill="#2D415A" points="238.653,331.946 153.946,367.929 217.611,301.47 				"/>
			</g>
			<g>
				<path d="M264.297,252.173l9.674-14.089l0.307,0.211l1.962,17.238l7.415-10.799l1.388,0.953l-9.674,14.089l-0.316-0.217
					l-1.974-17.053l-7.325,10.668L264.297,252.173z"/>
			</g>
			<g>
				<path d="M291.707,350.221l1.447,0.993l-4.093,12.128l11.01-7.379l0.292,0.2l-2.978,12.893l9.898-8.142l1.436,0.986
					l-13.723,11.309l-0.261-0.179l3.138-13.53l-11.58,7.733l-0.263-0.181L291.707,350.221z"/>
			</g>
			<g>
				<path d="M154.75,256.182l8.074,5.544l-0.948,1.38l-6.666-4.577l-3.031,4.414l6.609,4.538l-0.947,1.379l-6.609-4.538
					l-3.801,5.536l6.609,4.538l-0.947,1.379l-8.016-5.504L154.75,256.182z"/>
			</g>
			<g>
				<path d="M174.666,385.739l1.691,0.103c-0.223,2.131,0.218,3.576,1.322,4.334c0.473,0.324,0.992,0.519,1.558,0.584
					s1.085-0.015,1.557-0.236c0.471-0.22,0.849-0.539,1.134-0.954c0.324-0.473,0.482-1.045,0.475-1.718
					c-0.011-0.928-0.298-2.234-0.862-3.917c-0.565-1.694-0.856-2.838-0.871-3.431c-0.042-1.006,0.202-1.895,0.733-2.667
					c0.421-0.614,0.95-1.071,1.591-1.375c0.64-0.302,1.326-0.416,2.059-0.341c0.732,0.076,1.412,0.329,2.037,0.759
					c0.664,0.456,1.172,1.046,1.524,1.771c0.352,0.726,0.548,1.751,0.589,3.075l-1.748,0.082c-0.048-1.066-0.182-1.839-0.402-2.32
					c-0.22-0.48-0.551-0.87-0.991-1.173c-0.568-0.39-1.151-0.537-1.748-0.439c-0.598,0.096-1.069,0.398-1.416,0.902
					c-0.21,0.306-0.35,0.646-0.42,1.022c-0.07,0.374-0.051,0.847,0.055,1.418c0.062,0.306,0.346,1.192,0.853,2.658
					c0.601,1.738,0.887,3.113,0.859,4.126c-0.03,1.014-0.287,1.875-0.773,2.584c-0.701,1.022-1.699,1.643-2.992,1.864
					c-1.294,0.22-2.495-0.051-3.606-0.814c-0.855-0.587-1.474-1.348-1.857-2.283C174.634,388.421,174.518,387.215,174.666,385.739z"
					/>
			</g>
		</g>
	</g>
	<g id="tent">
	</g>
	<g id="backpack">
	</g>
	<g id="map">
	</g>
	<g id="ticket_1_">
	</g>
	<g id="passport">
	</g>
	<g id="luggage">
	</g>
	<g id="globe">
	</g>
	<g id="suitcase">
	</g>
</g>
<g id="vehicles">
	<g id="trailer">
	</g>
	<g id="airplane">
	</g>
	<g id="yatch">
	</g>
	<g id="taxi">
	</g>
	<g id="hot_air_ballon">
	</g>
	<g id="bus">
	</g>
	<g id="train">
	</g>
</g>
<g id="summer">
	<g id="postcard">
	</g>
	<g id="bikini">
	</g>
	<g id="flipflop">
	</g>
	<g id="plane_around_the_globe">
	</g>
	<g id="binocular">
	</g>
	<g id="beach_table">
	</g>
	<g id="sun_hat">
	</g>
	<g id="beach_bag">
	</g>
	<g id="sea__x26__wave">
	</g>
	<g id="beach">
	</g>
	<g id="beach_ball">
	</g>
	<g id="jetski">
	</g>
	<g id="sandcastle">
	</g>
	<g id="lifeguard_male">
	</g>
	<g id="lifeguard_female">
	</g>
	<g id="lighthouse">
	</g>
	<g id="hammok">
	</g>
	<g id="beach_chair__x26__umbrella">
	</g>
	<g id="lifeguard">
	</g>
	<g id="suncream">
	</g>
	<g id="starfish">
	</g>
	<g id="beach_bar">
	</g>
	<g id="bucket__x26__shovel">
	</g>
	<g id="palm_tree">
	</g>
	<g id="shark_warning">
	</g>
	<g id="surfboard">
	</g>
	<g id="swimming_trunks">
	</g>
	<g id="coconut_drink">
	</g>
	<g id="beach_chair__x26__towel">
	</g>
	<g id="coconut_tree">
	</g>
</g>
</svg>
