<?xml version="1.0" encoding="utf-8"?>
<!-- Generator: Adobe Illustrator 17.0.0, SVG Export Plug-In . SVG Version: 6.00 Build 0)  -->
<!DOCTYPE svg PUBLIC "-//W3C//DTD SVG 1.1//EN" "http://www.w3.org/Graphics/SVG/1.1/DTD/svg11.dtd">
<svg version="1.1" xmlns="http://www.w3.org/2000/svg" xmlns:xlink="http://www.w3.org/1999/xlink" x="0px" y="0px" width="512px"
	 height="512px" viewBox="0 0 512 512" enable-background="new 0 0 512 512" xml:space="preserve">
<g id="famous_places">
	<g id="Pyramid">
	</g>
	<g id="Colloseum">
	</g>
	<g id="Mount_Fuji">
	</g>
	<g id="Great_Wall_of_China">
	</g>
	<g id="Stonehenge">
	</g>
	<g id="Golden_Gate_Bridge">
	</g>
	<g id="Christ_the_Redeemer">
	</g>
	<g id="Statue_of_Liberty">
	</g>
	<g id="Taj_Mahal">
	</g>
	<g id="Eiffel_tower">
	</g>
</g>
<g id="camping">
	<g id="mug">
	</g>
	<g id="hook">
	</g>
	<g id="Swiss_knife">
	</g>
	<g id="flashlight">
	</g>
	<g id="lantern">
	</g>
	<g id="campfire">
	</g>
	<g id="beanie">
	</g>
	<g id="rope">
	</g>
	<g id="boot">
	</g>
	<g id="axe">
	</g>
</g>
<g id="hotel_1_">
	<g id="towel">
	</g>
	<g id="phone">
	</g>
	<g id="pool">
	</g>
	<g id="food_service">
	</g>
	<g id="wifi">
	</g>
	<g id="bed">
	</g>
	<g id="door">
	</g>
	<g id="key">
	</g>
	<g id="do_not_disturb">
	</g>
	<g id="bell">
	</g>
</g>
<g id="winter">
	<g id="snowman">
	</g>
	<g id="snow_mountain">
	</g>
	<g id="reindeer">
	</g>
	<g id="winter_tree">
	</g>
	<g id="lift">
	</g>
	<g id="beanie__x26__google">
	</g>
	<g id="ski">
	</g>
	<g id="snowboard">
	</g>
	<g id="snowboading">
	</g>
	<g id="skiing">
	</g>
</g>
<g id="general_travelling">
	<g id="dinner_set">
	</g>
	<g id="polaroid">
	</g>
	<g id="camera">
	</g>
	<g id="calendar">
	</g>
	<g id="calendar_single">
	</g>
	<g id="shopping_bag">
	</g>
	<g id="watch">
	</g>
	<g id="alarm_clock">
	</g>
	<g id="credit_card">
	</g>
	<g id="road_sign">
	</g>
	<g id="hotel">
	</g>
	<g id="money">
	</g>
	<g id="sunglass">
	</g>
	<g id="cocktail">
	</g>
	<g id="compass">
	</g>
	<g id="tent">
	</g>
	<g id="backpack">
		<g>
			<path fill="#22806E" d="M170,357.937h-34c-8.946,0-17.056,3.566-23,9.346v85.307c5.944,5.781,14.054,9.346,23,9.346h34
				c18.225,0,33-14.775,33-33v-38C203,372.712,188.225,357.937,170,357.937z"/>
			<path fill="#6E4224" d="M103,390.937v38c0,9.279,3.835,17.658,10,23.654v-85.307C106.835,373.279,103,381.658,103,390.937z"/>
		</g>
		<g>
			<path fill="#22806E" d="M358.91,155.757H149.09c-6.8,0-13.16,1.884-18.59,5.154v149.873c5.43,3.27,11.789,5.154,18.59,5.154
				h209.82c8.553,0,16.405-2.981,22.59-7.953V163.711C375.315,158.739,367.463,155.757,358.91,155.757z"/>
			<path fill="#6E4224" d="M113,191.847v88c0,13.131,7.015,24.622,17.5,30.936V160.911C120.015,167.225,113,178.716,113,191.847z"/>
			<path fill="#6E4224" d="M395,279.847v-88c0-11.379-5.272-21.522-13.5-28.137v144.274C389.728,301.369,395,291.227,395,279.847z"
				/>
		</g>
		<g>
			<path fill="#22806E" d="M376,357.937h-34c-18.225,0-33,14.775-33,33v38c0,18.225,14.775,33,33,33h34
				c8.946,0,17.056-3.566,23-9.346v-85.307C393.056,361.503,384.946,357.937,376,357.937z"/>
			<path fill="#6E4224" d="M409,428.937v-38c0-9.279-3.835-17.658-10-23.654v85.307C405.165,446.595,409,438.216,409,428.937z"/>
		</g>
		<path fill="#2FB199" d="M330.423,481.937H179.485c-15.783,0-28.577-12.795-28.577-28.577V137.453
			c0-15.783,12.795-28.577,28.577-28.577h150.938c15.783,0,28.577,12.795,28.577,28.577V453.36
			C359,469.143,346.205,481.937,330.423,481.937z"/>
		
			<path fill="none" stroke="#E3E3E3" stroke-linecap="round" stroke-linejoin="round" stroke-miterlimit="10" stroke-dasharray="6" d="
			M348.5,452.86c0,10.26-8.317,18.577-18.577,18.577H179.077c-10.26,0-18.577-8.317-18.577-18.577V137.014
			c0-10.26,8.317-18.577,18.577-18.577h150.846c10.26,0,18.577,8.317,18.577,18.577V452.86z"/>
		<g>
			<defs>
				<path id="SVGID_19_" d="M330.423,481.937H179.485c-15.783,0-28.577-12.795-28.577-28.577V137.453
					c0-15.783,12.795-28.577,28.577-28.577h150.938c15.783,0,28.577,12.795,28.577,28.577V453.36
					C359,469.143,346.205,481.937,330.423,481.937z"/>
			</defs>
			<clipPath id="SVGID_2_">
				<use xlink:href="#SVGID_19_"  overflow="visible"/>
			</clipPath>
			<path clip-path="url(#SVGID_2_)" fill="#1D6E5E" d="M358.535,89.163c-2.611-9.264-11.063-15.663-20.688-15.663h-82.393h-2
				h-82.819c-9.625,0-18.077,6.399-20.688,15.663l-10.481,37.186c-1.56,5.535-0.837,11.464,2.007,16.462l24.372,42.826
				c3.822,6.715,10.954,10.863,18.681,10.863h68.927h2h68.501c7.727,0,14.859-4.147,18.681-10.863l24.372-42.826
				c2.844-4.998,3.567-10.927,2.007-16.462L358.535,89.163z"/>
		</g>
		<path fill="#22806E" d="M312.407,465.937H198.5c-10.77,0-19.5-8.73-19.5-19.5V301.575c0-10.77,8.73-19.5,19.5-19.5h113.907
			c10.77,0,19.5,8.73,19.5,19.5v144.862C331.907,457.207,323.177,465.937,312.407,465.937z"/>
		<rect x="193.667" y="160.911" fill="#6E4224" width="20" height="125.693"/>
		<rect x="296.24" y="160.911" fill="#6E4224" width="20" height="125.693"/>
		<path fill="#22806E" d="M359.248,77.601c-2.611-9.264-11.063-15.663-20.688-15.663h-82.393h-2h-82.819
			c-9.625,0-18.077,6.399-20.688,15.663l-10.481,37.186c-1.56,5.535-0.837,11.464,2.007,16.462l24.372,42.826
			c3.822,6.715,10.954,10.863,18.681,10.863h68.927h2h68.501c7.727,0,14.859-4.147,18.681-10.863l24.372-42.826
			c2.844-4.998,3.567-10.927,2.007-16.462L359.248,77.601z"/>
		
			<path fill="none" stroke="#E3E3E3" stroke-linecap="round" stroke-linejoin="round" stroke-miterlimit="10" stroke-dasharray="6" d="
			M185.239,174.937c-4.123,0-7.95-2.226-9.989-5.809l-24.373-42.826c-1.511-2.654-1.901-5.863-1.073-8.803l10.48-37.187
			c1.391-4.932,5.939-8.376,11.063-8.376H338.56c5.124,0,9.673,3.444,11.063,8.376l10.48,37.187
			c0.828,2.939,0.438,6.148-1.073,8.803l-24.373,42.826c-2.039,3.583-5.866,5.809-9.989,5.809H185.239z"/>
		<path fill="#38D4B8" d="M312.407,455.937H198.5c-10.77,0-19.5-8.73-19.5-19.5V291.575c0-10.77,8.73-19.5,19.5-19.5h113.907
			c10.77,0,19.5,8.73,19.5,19.5v144.862C331.907,447.207,323.177,455.937,312.407,455.937z"/>
		<path fill="#22806E" d="M323.34,309.937H187.567c-10.28,0-18.613-8.333-18.613-18.613v-15.954c0-10.28,8.333-18.613,18.613-18.613
			H323.34c10.28,0,18.613,8.333,18.613,18.613v15.954C341.954,301.604,333.62,309.937,323.34,309.937z"/>
		
			<path fill="none" stroke="#E3E3E3" stroke-linecap="round" stroke-linejoin="round" stroke-miterlimit="10" stroke-dasharray="6" d="
			M187.566,299.937c-4.749,0-8.613-3.864-8.613-8.613v-15.953c0-4.749,3.864-8.613,8.613-8.613h135.774
			c4.749,0,8.612,3.864,8.612,8.613v15.953c0,4.749-3.863,8.613-8.612,8.613H187.566z"/>
		<rect x="244.24" y="61.937" fill="#6E4224" width="20" height="123"/>
		<polygon fill="#52311B" points="246.194,184.937 262.287,184.937 262.287,230.271 254.241,222.604 246.194,230.271 		"/>
		<polygon fill="#52311B" points="246.194,309.937 262.287,309.937 262.287,355.271 254.241,347.604 246.194,355.271 		"/>
		<rect x="244.24" y="256.757" fill="#6E4224" width="20" height="53.18"/>
		<path fill="none" stroke="#FFB561" stroke-width="5" stroke-miterlimit="10" d="M260.361,125.643h-12.24
			c-4.326,0-7.833-3.507-7.833-7.833v-6.039c0-4.326,3.507-7.833,7.833-7.833h12.24c4.326,0,7.833,3.507,7.833,7.833v6.039
			C268.194,122.136,264.687,125.643,260.361,125.643z"/>
		<path fill="none" stroke="#FFB561" stroke-width="5" stroke-miterlimit="10" d="M209.787,232.971h-12.24
			c-4.326,0-7.833-3.507-7.833-7.833v-6.039c0-4.326,3.507-7.833,7.833-7.833h12.24c4.326,0,7.833,3.507,7.833,7.833v6.039
			C217.62,229.464,214.113,232.971,209.787,232.971z"/>
		<path fill="none" stroke="#FFB561" stroke-width="5" stroke-miterlimit="10" d="M312.361,232.971H300.12
			c-4.326,0-7.833-3.507-7.833-7.833v-6.039c0-4.326,3.507-7.833,7.833-7.833h12.241c4.326,0,7.833,3.507,7.833,7.833v6.039
			C320.194,229.464,316.687,232.971,312.361,232.971z"/>
		<path fill="none" stroke="#FFB561" stroke-width="5" stroke-miterlimit="10" d="M260.361,292.928h-12.24
			c-4.326,0-7.833-3.507-7.833-7.833v-6.039c0-4.326,3.507-7.833,7.833-7.833h12.24c4.326,0,7.833,3.507,7.833,7.833v6.039
			C268.194,289.421,264.687,292.928,260.361,292.928z"/>
		<path fill="none" stroke="#6E4224" stroke-width="5" stroke-miterlimit="10" d="M293.337,441.757h-76.763
			c-10.077,0-18.247-8.169-18.247-18.247v-31.257c0-10.077,8.169-18.247,18.247-18.247h76.763c10.077,0,18.247,8.169,18.247,18.247
			v31.257C311.583,433.588,303.414,441.757,293.337,441.757z"/>
		<line fill="none" stroke="#FFB561" stroke-width="5" stroke-miterlimit="10" x1="218" y1="393.437" x2="296" y2="393.437"/>
		<path fill="#FF6650" d="M397.529,92.498h-285.15c-10.284,0-18.621-8.337-18.621-18.621V44.559
			c0-10.284,8.337-18.621,18.621-18.621h285.15c10.284,0,18.621,8.337,18.621,18.621v29.318
			C416.15,84.161,407.813,92.498,397.529,92.498z"/>
		<rect x="208" y="25.937" fill="#6E4224" width="20" height="67"/>
		<path fill="none" stroke="#FFB561" stroke-width="5" stroke-miterlimit="10" d="M224.12,70.29H211.88
			c-4.326,0-7.833-3.507-7.833-7.833v-6.039c0-4.326,3.507-7.833,7.833-7.833h12.241c4.326,0,7.833,3.507,7.833,7.833v6.039
			C231.954,66.783,228.446,70.29,224.12,70.29z"/>
		<rect x="282" y="25.937" fill="#6E4224" width="20" height="67"/>
		<path fill="none" stroke="#FFB561" stroke-width="5" stroke-miterlimit="10" d="M285.787,70.29h12.24
			c4.326,0,7.833-3.507,7.833-7.833v-6.039c0-4.326-3.507-7.833-7.833-7.833h-12.24c-4.326,0-7.833,3.507-7.833,7.833v6.039
			C277.954,66.783,281.461,70.29,285.787,70.29z"/>
	</g>
	<g id="map">
	</g>
	<g id="ticket_1_">
	</g>
	<g id="passport">
	</g>
	<g id="luggage">
	</g>
	<g id="globe">
	</g>
	<g id="suitcase">
	</g>
</g>
<g id="vehicles">
	<g id="trailer">
	</g>
	<g id="airplane">
	</g>
	<g id="yatch">
	</g>
	<g id="taxi">
	</g>
	<g id="hot_air_ballon">
	</g>
	<g id="bus">
	</g>
	<g id="train">
	</g>
</g>
<g id="summer">
	<g id="postcard">
	</g>
	<g id="bikini">
	</g>
	<g id="flipflop">
	</g>
	<g id="plane_around_the_globe">
	</g>
	<g id="binocular">
	</g>
	<g id="beach_table">
	</g>
	<g id="sun_hat">
	</g>
	<g id="beach_bag">
	</g>
	<g id="sea__x26__wave">
	</g>
	<g id="beach">
	</g>
	<g id="beach_ball">
	</g>
	<g id="jetski">
	</g>
	<g id="sandcastle">
	</g>
	<g id="lifeguard_male">
	</g>
	<g id="lifeguard_female">
	</g>
	<g id="lighthouse">
	</g>
	<g id="hammok">
	</g>
	<g id="beach_chair__x26__umbrella">
	</g>
	<g id="lifeguard">
	</g>
	<g id="suncream">
	</g>
	<g id="starfish">
	</g>
	<g id="beach_bar">
	</g>
	<g id="bucket__x26__shovel">
	</g>
	<g id="palm_tree">
	</g>
	<g id="shark_warning">
	</g>
	<g id="surfboard">
	</g>
	<g id="swimming_trunks">
	</g>
	<g id="coconut_drink">
	</g>
	<g id="beach_chair__x26__towel">
	</g>
	<g id="coconut_tree">
	</g>
</g>
</svg>
