<?xml version="1.0" encoding="utf-8"?>
<!-- Generator: Adobe Illustrator 17.0.0, SVG Export Plug-In . SVG Version: 6.00 Build 0)  -->
<!DOCTYPE svg PUBLIC "-//W3C//DTD SVG 1.1//EN" "http://www.w3.org/Graphics/SVG/1.1/DTD/svg11.dtd">
<svg version="1.1" xmlns="http://www.w3.org/2000/svg" xmlns:xlink="http://www.w3.org/1999/xlink" x="0px" y="0px" width="512px"
	 height="512px" viewBox="0 0 512 512" enable-background="new 0 0 512 512" xml:space="preserve">
<g id="famous_places">
	<g id="Pyramid">
	</g>
	<g id="Colloseum">
	</g>
	<g id="Mount_Fuji">
	</g>
	<g id="Great_Wall_of_China">
	</g>
	<g id="Stonehenge">
	</g>
	<g id="Golden_Gate_Bridge">
	</g>
	<g id="Christ_the_Redeemer">
	</g>
	<g id="Statue_of_Liberty">
	</g>
	<g id="Taj_Mahal">
	</g>
	<g id="Eiffel_tower">
	</g>
</g>
<g id="camping">
	<g id="mug">
	</g>
	<g id="hook">
	</g>
	<g id="Swiss_knife">
	</g>
	<g id="flashlight">
	</g>
	<g id="lantern">
	</g>
	<g id="campfire">
	</g>
	<g id="beanie">
	</g>
	<g id="rope">
	</g>
	<g id="boot">
	</g>
	<g id="axe">
	</g>
</g>
<g id="hotel_1_">
	<g id="towel">
	</g>
	<g id="phone">
	</g>
	<g id="pool">
	</g>
	<g id="food_service">
	</g>
	<g id="wifi">
	</g>
	<g id="bed">
	</g>
	<g id="door">
	</g>
	<g id="key">
	</g>
	<g id="do_not_disturb">
	</g>
	<g id="bell">
	</g>
</g>
<g id="winter">
	<g id="snowman">
	</g>
	<g id="snow_mountain">
	</g>
	<g id="reindeer">
		<rect x="206.412" y="341.785" fill="#B56D3B" width="98.348" height="170.214"/>
		<path fill="#8A532D" d="M206,437.586c2,3.464,4.443,6.641,7.266,9.52c14.762,15.053,37.467,15.577,41.827,15.577
			c0.196,0,0.968,0,0.968,0c4.366,0,27.004-0.525,41.771-15.582c2.817-2.873,5.169-6.031,7.169-9.47v-65.948h-99V437.586z"/>
		<g>
			<path fill="#B56D3B" d="M204.178,260.784c0,0,3.289-18.648-12.335-29.708s-71.365-18.484-76.389-2.437
				s33.627,77.488,79.678,56.636C241.184,264.423,204.178,260.784,204.178,260.784z"/>
			<g>
				<path fill="#B56D3B" d="M307.031,260.784c0,0-3.289-18.648,12.335-29.708s71.365-18.484,76.389-2.437
					s-33.627,77.488-79.678,56.636C270.026,264.423,307.031,260.784,307.031,260.784z"/>
			</g>
			<path fill="#8A532D" d="M195.132,285.275c46.051-20.852,9.046-24.491,9.046-24.491s2.707-15.359-8.471-26.466
				c-1.849,1.34-3.659,2.728-5.396,4.202c-14.919,12.662-24.561,29.27-28.446,48.735
				C172.067,290.55,183.356,290.607,195.132,285.275z"/>
			<path fill="#8A532D" d="M320.854,238.519c-1.728-1.467-3.53-2.849-5.371-4.183c-11.156,11.106-8.452,26.448-8.452,26.448
				s-37.006,3.639,9.046,24.491c11.76,5.325,23.034,5.275,33.225,1.994C345.419,267.798,335.777,251.184,320.854,238.519z"/>
			<path fill="#B56D3B" d="M172.252,307.683c0,66,39.327,62.655,38.505,104.742c-0.822,42.086,44.818,40.73,44.818,40.73
				s45.67,1.363,44.848-40.723c-0.822-42.086,38.49-38.748,38.49-104.748C338.913,201.683,172.252,201.683,172.252,307.683z"/>
			<path fill="#B56D3B" d="M172.252,307.683c0,66,39.327,62.655,38.505,104.742c-0.822,42.086,44.818,40.73,44.818,40.73
				s45.67,1.363,44.848-40.723c-0.822-42.086,38.49-38.748,38.49-104.748C338.913,201.683,172.252,201.683,172.252,307.683z"/>
			<path fill="#E68A4B" d="M255.582,363.104c-20.676,0-38.824,10.776-49.171,27.008c2.802,6.079,4.524,13.115,4.345,22.269
				c-0.822,42.086,44.818,40.752,44.818,40.752s45.67,1.33,44.848-40.756c-0.179-9.147,1.54-16.178,4.337-22.254
				C294.414,373.885,276.263,363.104,255.582,363.104z"/>
			<circle fill="#CF5341" cx="255.582" cy="407.211" r="26.315"/>
			<ellipse fill="#FF6650" cx="250.644" cy="404.277" rx="17.677" ry="18.447"/>
			<circle fill="#4A4A4A" cx="202.02" cy="320.033" r="14.289"/>
			<circle fill="#4A4A4A" cx="309.145" cy="320.033" r="14.289"/>
			<g>
				<g>
					<ellipse fill="#8A532D" cx="222.152" cy="253.321" rx="8.517" ry="8.223"/>
					<g>
						<path fill="#FFD161" d="M69.856,51.805c0,0-0.074,0.197-0.217,0.579c-0.161,0.467-0.401,1.161-0.714,2.065
							c-0.619,1.87-1.505,4.7-2.472,8.366c-0.964,3.665-2.013,8.168-2.884,13.348c-0.866,5.176-1.56,11.039-1.687,17.307
							c-0.131,6.259,0.345,12.939,1.96,19.404c1.641,6.442,4.438,12.605,8.939,17.549c2.218,2.506,4.907,4.671,7.938,6.575
							c3.057,1.871,6.518,3.396,10.253,4.588c1.863,0.604,3.808,1.098,5.797,1.528c0.981,0.246,2.016,0.377,3.025,0.577l3.576,0.628
							l3.468,0.614l0.868,0.154l0.935,0.199l1.881,0.409c2.507,0.547,5.037,1.077,7.41,1.754c9.653,2.517,19.057,5.895,27.937,9.975
							c8.883,4.077,17.241,8.851,24.894,14.065c15.295,10.481,27.697,22.682,36.763,34.357
							c9.103,11.673,14.848,22.857,17.668,31.355c1.417,4.25,2.176,7.787,2.503,10.29c0.204,1.229,0.213,2.249,0.284,2.898
							c0.049,0.661,0.074,1.001,0.074,1.001c0.21,2.85-1.93,5.331-4.78,5.541c-2.725,0.201-5.112-1.746-5.5-4.408l-0.077-0.535
							c0,0-0.035-0.245-0.103-0.718c-0.09-0.479-0.111-1.162-0.331-2.1c-0.353-1.857-1.112-4.64-2.502-8.138
							c-1.397-3.495-3.485-7.69-6.365-12.274c-2.876-4.584-6.535-9.558-10.967-14.627c-8.845-10.143-20.843-20.656-35.234-29.351
							c-7.203-4.325-14.984-8.192-23.153-11.388c-8.167-3.2-16.718-5.726-25.409-7.468c-2.19-0.495-4.296-0.796-6.407-1.14
							l-1.582-0.258l-0.797-0.128l-0.875-0.104l-3.497-0.416l-3.376-0.397c-1.301-0.172-2.596-0.276-3.899-0.512
							c-2.601-0.405-5.207-0.909-7.799-1.581c-5.181-1.324-10.33-3.205-15.191-5.797c-4.838-2.621-9.413-5.882-13.304-9.756
							c-1.976-1.908-3.734-3.99-5.392-6.104c-1.592-2.152-3.106-4.342-4.367-6.607c-2.614-4.501-4.489-9.149-5.952-13.69
							c-2.847-9.113-3.886-17.807-4.19-25.65c-0.292-7.86,0.151-14.933,0.822-21.124c0.68-6.193,1.602-11.51,2.485-15.873
							c0.887-4.363,1.74-7.772,2.374-10.134c0.319-1.181,0.583-2.102,0.776-2.749c0.215-0.701,0.327-1.062,0.327-1.062
							c2.238-7.28,9.953-11.368,17.233-9.13s11.367,9.954,9.13,17.233c-0.078,0.255-0.163,0.506-0.255,0.752L69.856,51.805z"/>
					</g>
					<g>
						<path fill="#FFD161" d="M114.822,67.541c0,0-0.032,0.076-0.094,0.224c-0.024,0.055-0.053,0.122-0.088,0.203
							c-0.042,0.106-0.091,0.229-0.146,0.368c-0.225,0.565-0.555,1.458-0.953,2.619c-0.787,2.33-1.853,5.767-2.802,9.999
							c-0.498,2.112-0.92,4.425-1.337,6.883c-0.363,2.46-0.732,5.07-0.929,7.778c-0.243,2.71-0.325,5.515-0.333,8.369
							c0.052,2.845,0.147,5.75,0.489,8.621c0.276,2.886,0.785,5.732,1.362,8.526c0.307,1.391,0.682,2.752,1.015,4.115
							c0.421,1.328,0.806,2.659,1.237,3.951c0.482,1.268,0.921,2.538,1.413,3.754c0.53,1.203,1.048,2.379,1.553,3.525
							c0.571,1.117,1.127,2.204,1.664,3.255c0.566,1.038,1.175,2.006,1.727,2.959c0.536,0.966,1.154,1.821,1.717,2.655
							c0.577,0.823,1.078,1.645,1.634,2.352c1.118,1.406,2.04,2.691,2.898,3.665c1.727,1.95,2.714,3.065,2.714,3.065l0.141,0.159
							c1.137,1.284,1.017,3.246-0.266,4.382c-1.19,1.054-2.964,1.028-4.121-0.005c0,0-1.209-1.075-3.324-2.957
							c-1.056-0.949-2.228-2.216-3.637-3.619c-0.7-0.706-1.36-1.532-2.104-2.366c-0.73-0.846-1.526-1.717-2.249-2.71
							c-0.739-0.98-1.545-1.983-2.315-3.066c-0.742-1.105-1.509-2.247-2.298-3.422c-0.722-1.22-1.464-2.474-2.222-3.755
							c-0.72-1.304-1.389-2.672-2.105-4.053c-0.663-1.401-1.283-2.852-1.939-4.314c-0.565-1.491-1.175-2.996-1.714-4.537
							c-1.04-3.091-2.004-6.278-2.714-9.518c-0.778-3.232-1.286-6.509-1.73-9.747c-0.383-3.239-0.666-6.445-0.761-9.548
							c-0.141-3.107-0.083-6.107-0.001-8.957c0.136-2.843,0.305-5.536,0.582-8.012c0.506-4.959,1.255-9.073,1.865-11.984
							c0.311-1.458,0.586-2.61,0.801-3.431c0.054-0.207,0.102-0.39,0.144-0.548c0.052-0.183,0.096-0.336,0.131-0.46
							c0.059-0.208,0.089-0.315,0.089-0.315l0.009-0.033c1.355-4.792,6.339-7.578,11.131-6.222
							c4.792,1.355,7.578,6.339,6.222,11.131C115.084,66.855,114.951,67.227,114.822,67.541z"/>
					</g>
					<g>
						<path fill="#FFD161" d="M180.087,107.779c0,0-0.227,0.134-0.653,0.387c-0.458,0.277-1.172,0.746-2.073,1.362
							c-0.901,0.625-1.998,1.411-3.222,2.368c-1.235,0.946-2.579,2.078-4.015,3.348c-1.414,1.286-2.928,2.711-4.398,4.312
							c-1.508,1.58-2.944,3.345-4.353,5.217c-1.369,1.89-2.673,3.907-3.782,6.04c-1.075,2.138-2.07,4.369-2.692,6.678
							c-0.389,1.147-0.574,2.318-0.826,3.49c-0.148,0.585-0.148,1.176-0.234,1.765c-0.049,0.589-0.176,1.181-0.169,1.769
							c0.013,1.175-0.121,2.364,0.033,3.524c0.044,0.586,0.088,1.168,0.131,1.746c0.059,0.578,0.195,1.144,0.285,1.713
							c0.105,0.567,0.188,1.137,0.304,1.696c0.156,0.553,0.31,1.101,0.462,1.643c0.157,0.542,0.287,1.089,0.459,1.619
							c0.202,0.522,0.401,1.038,0.597,1.547c0.195,0.513,0.388,1.02,0.578,1.518c0.203,0.496,0.464,0.961,0.687,1.434
							c0.482,0.93,0.865,1.874,1.381,2.714c1.031,1.678,1.904,3.28,2.911,4.571c0.954,1.322,1.751,2.51,2.547,3.394
							c1.521,1.827,2.391,2.871,2.391,2.871l0.146,0.175c1.1,1.321,0.921,3.283-0.4,4.383c-1.215,1.012-2.973,0.941-4.103-0.105
							c0,0-1.086-1.002-2.985-2.757c-0.982-0.848-2.038-2.033-3.289-3.364c-1.294-1.29-2.539-2.963-3.967-4.744
							c-0.714-0.891-1.327-1.932-2.033-2.957c-0.337-0.524-0.711-1.038-1.034-1.6c-0.311-0.571-0.628-1.151-0.948-1.74
							c-0.32-0.592-0.643-1.192-0.971-1.8c-0.3-0.625-0.561-1.282-0.847-1.936c-0.279-0.66-0.562-1.327-0.847-2
							c-0.246-0.691-0.458-1.406-0.69-2.122c-0.217-0.72-0.477-1.438-0.658-2.184c-0.162-0.754-0.324-1.513-0.488-2.277
							c-0.384-1.525-0.464-3.119-0.668-4.72c-0.102-0.802-0.064-1.609-0.098-2.422c0.003-0.81-0.073-1.636,0.004-2.445
							c0.111-1.624,0.183-3.277,0.48-4.882c0.445-3.256,1.352-6.391,2.404-9.395c1.084-2.992,2.413-5.8,3.834-8.424
							c1.454-2.593,2.972-5.034,4.555-7.211c1.555-2.211,3.155-4.178,4.669-5.965c1.532-1.766,2.981-3.347,4.325-4.692
							c1.333-1.357,2.549-2.497,3.573-3.429c1.034-0.93,1.864-1.645,2.481-2.146c0.653-0.52,1.002-0.797,1.002-0.797
							c3.9-3.102,9.575-2.454,12.676,1.445c3.101,3.899,2.454,9.575-1.445,12.676c-0.313,0.249-0.637,0.474-0.971,0.674
							L180.087,107.779z"/>
					</g>
				</g>
				<g>
					<ellipse fill="#8A532D" cx="289.848" cy="253.321" rx="8.517" ry="8.223"/>
					<g>
						<path fill="#FFD161" d="M468.212,42.842c0,0,0.111,0.362,0.327,1.062c0.192,0.647,0.457,1.567,0.776,2.749
							c0.634,2.362,1.487,5.771,2.374,10.134c0.883,4.363,1.805,9.68,2.485,15.873c0.671,6.191,1.115,13.264,0.822,21.124
							c-0.304,7.843-1.343,16.537-4.19,25.65c-1.463,4.541-3.338,9.189-5.952,13.69c-1.261,2.265-2.775,4.455-4.367,6.607
							c-1.658,2.114-3.415,4.195-5.392,6.104c-3.891,3.874-8.466,7.135-13.304,9.756c-4.861,2.592-10.01,4.474-15.191,5.797
							c-2.592,0.672-5.198,1.176-7.799,1.581c-1.303,0.236-2.598,0.34-3.899,0.512l-3.376,0.397l-3.497,0.416l-0.875,0.104
							l-0.797,0.128l-1.582,0.258c-2.111,0.344-4.217,0.645-6.407,1.14c-8.691,1.742-17.242,4.268-25.409,7.468
							c-8.168,3.196-15.95,7.063-23.153,11.388c-14.391,8.695-26.389,19.208-35.234,29.351c-4.432,5.069-8.091,10.042-10.967,14.627
							c-2.88,4.584-4.968,8.779-6.365,12.274c-1.39,3.498-2.149,6.28-2.502,8.138c-0.219,0.938-0.24,1.621-0.331,2.1
							c-0.068,0.474-0.103,0.718-0.103,0.718l-0.074,0.517c-0.406,2.829-3.028,4.793-5.857,4.387
							c-2.704-0.388-4.617-2.82-4.426-5.503c0,0,0.025-0.341,0.074-1.001c0.071-0.649,0.08-1.67,0.284-2.898
							c0.328-2.503,1.086-6.04,2.503-10.29c2.821-8.498,8.565-19.682,17.668-31.355c9.066-11.675,21.468-23.876,36.763-34.357
							c7.653-5.214,16.011-9.988,24.894-14.065c8.88-4.081,18.284-7.458,27.937-9.975c2.373-0.677,4.903-1.207,7.41-1.754
							l1.881-0.409l0.935-0.199l0.868-0.154l3.468-0.614l3.576-0.628c1.009-0.2,2.044-0.331,3.025-0.577
							c1.989-0.43,3.935-0.924,5.797-1.528c3.735-1.192,7.196-2.717,10.253-4.588c3.031-1.903,5.72-4.069,7.938-6.575
							c4.501-4.943,7.298-11.107,8.939-17.549c1.615-6.465,2.09-13.145,1.96-19.404c-0.127-6.269-0.82-12.131-1.687-17.307
							c-0.871-5.18-1.92-9.683-2.884-13.348c-0.967-3.666-1.853-6.496-2.472-8.366c-0.313-0.904-0.552-1.598-0.714-2.065
							c-0.143-0.382-0.217-0.579-0.217-0.579l-0.025-0.068c-2.675-7.131,0.937-15.08,8.068-17.755
							c7.131-2.675,15.08,0.938,17.755,8.068C468.036,42.3,468.134,42.59,468.212,42.842z"/>
					</g>
					<g>
						<path fill="#FFD161" d="M414.185,61.645c0,0,0.03,0.107,0.089,0.315c0.035,0.124,0.079,0.278,0.131,0.46
							c0.042,0.158,0.089,0.341,0.144,0.548c0.215,0.821,0.49,1.973,0.801,3.431c0.61,2.911,1.358,7.025,1.865,11.984
							c0.277,2.476,0.446,5.169,0.582,8.012c0.081,2.85,0.14,5.85-0.001,8.957c-0.095,3.103-0.378,6.309-0.761,9.548
							c-0.443,3.237-0.952,6.514-1.73,9.747c-0.71,3.239-1.674,6.427-2.714,9.518c-0.539,1.541-1.149,3.046-1.714,4.537
							c-0.656,1.463-1.276,2.914-1.939,4.314c-0.716,1.38-1.385,2.749-2.105,4.053c-0.758,1.281-1.5,2.535-2.222,3.755
							c-0.789,1.175-1.556,2.317-2.298,3.422c-0.77,1.083-1.576,2.085-2.315,3.066c-0.723,0.993-1.518,1.864-2.249,2.71
							c-0.744,0.834-1.404,1.661-2.104,2.366c-1.409,1.403-2.58,2.67-3.637,3.619c-2.115,1.882-3.324,2.957-3.324,2.957
							c-1.281,1.14-3.243,1.025-4.383-0.256c-1.057-1.188-1.035-2.961-0.005-4.122l0.141-0.159c0,0,0.987-1.115,2.714-3.065
							c0.858-0.974,1.78-2.259,2.898-3.665c0.555-0.707,1.057-1.528,1.634-2.352c0.563-0.834,1.181-1.689,1.717-2.655
							c0.552-0.954,1.161-1.921,1.727-2.959c0.537-1.051,1.093-2.138,1.664-3.255c0.505-1.146,1.023-2.322,1.553-3.525
							c0.492-1.216,0.931-2.487,1.413-3.754c0.431-1.291,0.817-2.623,1.237-3.951c0.332-1.363,0.708-2.724,1.015-4.115
							c0.578-2.794,1.086-5.641,1.362-8.526c0.342-2.87,0.437-5.776,0.489-8.621c-0.008-2.854-0.09-5.658-0.333-8.369
							c-0.197-2.708-0.566-5.318-0.929-7.778c-0.417-2.458-0.838-4.771-1.337-6.883c-0.949-4.232-2.015-7.669-2.802-9.999
							c-0.398-1.161-0.728-2.053-0.953-2.619c-0.055-0.139-0.104-0.262-0.146-0.368c-0.035-0.081-0.065-0.148-0.088-0.203
							c-0.062-0.147-0.094-0.224-0.094-0.224c-1.919-4.596,0.251-9.877,4.846-11.796c4.596-1.919,9.877,0.251,11.796,4.847
							c0.134,0.32,0.248,0.644,0.342,0.97L414.185,61.645z"/>
					</g>
					<g>
						<path fill="#FFD161" d="M342.117,92.95c0,0,0.348,0.277,1.002,0.797c0.617,0.501,1.447,1.216,2.481,2.146
							c1.025,0.932,2.24,2.071,3.573,3.429c1.344,1.345,2.793,2.926,4.325,4.692c1.513,1.787,3.114,3.754,4.669,5.965
							c1.584,2.178,3.102,4.619,4.555,7.211c1.421,2.624,2.75,5.432,3.834,8.424c1.051,3.004,1.959,6.139,2.404,9.395
							c0.298,1.604,0.37,3.258,0.48,4.882c0.077,0.809,0.001,1.635,0.004,2.445c-0.034,0.813,0.004,1.62-0.098,2.422
							c-0.204,1.601-0.283,3.194-0.668,4.72c-0.164,0.764-0.327,1.523-0.488,2.277c-0.181,0.746-0.441,1.464-0.658,2.184
							c-0.231,0.716-0.444,1.43-0.69,2.122c-0.285,0.673-0.568,1.34-0.847,2c-0.286,0.654-0.547,1.312-0.847,1.936
							c-0.328,0.608-0.652,1.208-0.971,1.8c-0.321,0.588-0.637,1.168-0.948,1.74c-0.323,0.562-0.697,1.075-1.034,1.6
							c-0.706,1.025-1.318,2.066-2.033,2.957c-1.428,1.781-2.673,3.455-3.967,4.744c-1.25,1.332-2.306,2.517-3.289,3.364
							c-1.9,1.755-2.985,2.757-2.985,2.757c-1.263,1.167-3.232,1.088-4.398-0.174c-1.073-1.162-1.093-2.921-0.106-4.104l0.147-0.175
							c0,0,0.87-1.044,2.391-2.871c0.796-0.883,1.593-2.072,2.547-3.394c1.007-1.291,1.88-2.893,2.911-4.571
							c0.516-0.84,0.899-1.785,1.381-2.714c0.223-0.473,0.485-0.938,0.687-1.434c0.19-0.499,0.383-1.005,0.578-1.518
							c0.197-0.509,0.396-1.025,0.597-1.547c0.172-0.529,0.302-1.076,0.459-1.619c0.152-0.542,0.306-1.089,0.462-1.643
							c0.117-0.559,0.199-1.129,0.304-1.696c0.09-0.57,0.227-1.135,0.285-1.713c0.043-0.578,0.087-1.16,0.131-1.746
							c0.155-1.16,0.02-2.349,0.033-3.524c0.007-0.588-0.12-1.18-0.169-1.769c-0.086-0.589-0.086-1.179-0.234-1.765
							c-0.252-1.172-0.436-2.343-0.826-3.49c-0.622-2.31-1.618-4.541-2.692-6.678c-1.109-2.133-2.414-4.15-3.782-6.04
							c-1.409-1.873-2.845-3.637-4.353-5.217c-1.47-1.602-2.984-3.026-4.398-4.312c-1.436-1.27-2.78-2.402-4.015-3.348
							c-1.224-0.958-2.321-1.743-3.222-2.368c-0.901-0.616-1.615-1.085-2.073-1.362c-0.426-0.252-0.653-0.387-0.653-0.387
							l-0.012-0.007c-4.286-2.541-5.701-8.075-3.16-12.361c2.541-4.286,8.075-5.701,12.361-3.16
							C341.446,92.454,341.811,92.71,342.117,92.95z"/>
					</g>
				</g>
			</g>
		</g>
		<rect x="200.847" y="469.952" fill="#FF6650" width="109.478" height="25.167"/>
		<rect x="289.125" y="469.952" fill="#CF5341" width="21.199" height="25.167"/>
	</g>
	<g id="winter_tree">
	</g>
	<g id="lift">
	</g>
	<g id="beanie__x26__google">
	</g>
	<g id="ski">
	</g>
	<g id="snowboard">
	</g>
	<g id="snowboading">
	</g>
	<g id="skiing">
	</g>
</g>
<g id="general_travelling">
	<g id="dinner_set">
	</g>
	<g id="polaroid">
	</g>
	<g id="camera">
	</g>
	<g id="calendar">
	</g>
	<g id="calendar_single">
	</g>
	<g id="shopping_bag">
	</g>
	<g id="watch">
	</g>
	<g id="alarm_clock">
	</g>
	<g id="credit_card">
	</g>
	<g id="road_sign">
	</g>
	<g id="hotel">
	</g>
	<g id="money">
	</g>
	<g id="sunglass">
	</g>
	<g id="cocktail">
	</g>
	<g id="compass">
	</g>
	<g id="tent">
	</g>
	<g id="backpack">
	</g>
	<g id="map">
	</g>
	<g id="ticket_1_">
	</g>
	<g id="passport">
	</g>
	<g id="luggage">
	</g>
	<g id="globe">
	</g>
	<g id="suitcase">
	</g>
</g>
<g id="vehicles">
	<g id="trailer">
	</g>
	<g id="airplane">
	</g>
	<g id="yatch">
	</g>
	<g id="taxi">
	</g>
	<g id="hot_air_ballon">
	</g>
	<g id="bus">
	</g>
	<g id="train">
	</g>
</g>
<g id="summer">
	<g id="postcard">
	</g>
	<g id="bikini">
	</g>
	<g id="flipflop">
	</g>
	<g id="plane_around_the_globe">
	</g>
	<g id="binocular">
	</g>
	<g id="beach_table">
	</g>
	<g id="sun_hat">
	</g>
	<g id="beach_bag">
	</g>
	<g id="sea__x26__wave">
	</g>
	<g id="beach">
	</g>
	<g id="beach_ball">
	</g>
	<g id="jetski">
	</g>
	<g id="sandcastle">
	</g>
	<g id="lifeguard_male">
	</g>
	<g id="lifeguard_female">
	</g>
	<g id="lighthouse">
	</g>
	<g id="hammok">
	</g>
	<g id="beach_chair__x26__umbrella">
	</g>
	<g id="lifeguard">
	</g>
	<g id="suncream">
	</g>
	<g id="starfish">
	</g>
	<g id="beach_bar">
	</g>
	<g id="bucket__x26__shovel">
	</g>
	<g id="palm_tree">
	</g>
	<g id="shark_warning">
	</g>
	<g id="surfboard">
	</g>
	<g id="swimming_trunks">
	</g>
	<g id="coconut_drink">
	</g>
	<g id="beach_chair__x26__towel">
	</g>
	<g id="coconut_tree">
	</g>
</g>
</svg>
