<?xml version="1.0" encoding="utf-8"?>
<!-- Generator: Adobe Illustrator 17.0.0, SVG Export Plug-In . SVG Version: 6.00 Build 0)  -->
<!DOCTYPE svg PUBLIC "-//W3C//DTD SVG 1.1//EN" "http://www.w3.org/Graphics/SVG/1.1/DTD/svg11.dtd">
<svg version="1.1" xmlns="http://www.w3.org/2000/svg" xmlns:xlink="http://www.w3.org/1999/xlink" x="0px" y="0px" width="512px"
	 height="512px" viewBox="0 0 512 512" enable-background="new 0 0 512 512" xml:space="preserve">
<g id="famous_places">
	<g id="Pyramid">
	</g>
	<g id="Colloseum">
	</g>
	<g id="Mount_Fuji">
	</g>
	<g id="Great_Wall_of_China">
	</g>
	<g id="Stonehenge">
		<g>
			<polygon fill="#CED8DB" points="124,194.948 228.005,210.806 235,302.931 235,374.914 135.565,374.914 124,263.594 			"/>
			<polygon fill="#CED8DB" points="279.288,194.71 255.933,374.914 351.149,374.914 342.167,247.666 303.541,178.226 			"/>
			<polygon fill="#BBC4C7" points="124,234.642 234.694,295.607 228.38,210.806 150.584,198.972 124,202.201 			"/>
			<polygon fill="#BBC4C7" points="344.915,286.603 342.167,247.666 312.78,194.836 279.288,194.71 271.754,252.839 			"/>
			<polygon fill="#BBC4C7" points="115.47,374.914 104.5,256 99.833,239.914 65.5,256 54.5,374.914 			"/>
			<polygon fill="#BBC4C7" points="37.5,374.914 6,374.914 6,297.914 15.5,267.914 42.5,267.914 			"/>
			<polygon fill="#BBC4C7" points="24,226.914 24,251.914 32.25,267.914 65.375,256 75.976,251.063 65.5,226.914 			"/>
			<polygon fill="#CED8DB" points="84.985,218.914 65.5,226.914 76.038,251.063 93.5,239.914 			"/>
			<polygon fill="#BBC4C7" points="425.167,256 392.4,234.988 381.5,297.914 425.5,374.914 446.5,374.914 			"/>
			<polygon fill="#CED8DB" points="392.4,234.988 362.567,260.914 372.53,374.914 425.5,374.914 395.5,289.914 400.5,247.414 			"/>
			<polygon fill="#CED8DB" points="442.5,267.914 460.5,374.914 481.5,374.914 467.5,294.914 			"/>
			<polygon fill="#BBC4C7" points="475.5,267.914 488.5,325.914 505.5,374.914 481.5,374.914 442.5,267.914 			"/>
			<polygon fill="#CED8DB" points="115.5,239.914 99.5,239.914 81.753,247.414 93.5,340.914 76.038,374.914 124.5,374.914 			"/>
			<polygon fill="#CED8DB" points="42,267.914 24.5,267.914 17,327.914 17,374.914 42,374.914 			"/>
			<polygon fill="#CED8DB" points="65.5,173.373 74.483,210.638 395.5,211.015 386.517,173.373 122.989,145.914 			"/>
			<polygon fill="#BBC4C7" points="395.5,211.008 388.5,164.914 303.541,164.914 308.5,204.008 124.5,211.108 			"/>
		</g>
	</g>
	<g id="Golden_Gate_Bridge">
	</g>
	<g id="Christ_the_Redeemer">
	</g>
	<g id="Statue_of_Liberty">
	</g>
	<g id="Taj_Mahal">
	</g>
	<g id="Eiffel_tower">
	</g>
</g>
<g id="camping">
	<g id="mug">
	</g>
	<g id="hook">
	</g>
	<g id="Swiss_knife">
	</g>
	<g id="flashlight">
	</g>
	<g id="lantern">
	</g>
	<g id="campfire">
	</g>
	<g id="beanie">
	</g>
	<g id="rope">
	</g>
	<g id="boot">
	</g>
	<g id="axe">
	</g>
</g>
<g id="hotel_1_">
	<g id="towel">
	</g>
	<g id="phone">
	</g>
	<g id="pool">
	</g>
	<g id="food_service">
	</g>
	<g id="wifi">
	</g>
	<g id="bed">
	</g>
	<g id="door">
	</g>
	<g id="key">
	</g>
	<g id="do_not_disturb">
	</g>
	<g id="bell">
	</g>
</g>
<g id="winter">
	<g id="snowman">
	</g>
	<g id="snow_mountain">
	</g>
	<g id="reindeer">
	</g>
	<g id="winter_tree">
	</g>
	<g id="lift">
	</g>
	<g id="beanie__x26__google">
	</g>
	<g id="ski">
	</g>
	<g id="snowboard">
	</g>
	<g id="snowboading">
	</g>
	<g id="skiing">
	</g>
</g>
<g id="general_travelling">
	<g id="dinner_set">
	</g>
	<g id="polaroid">
	</g>
	<g id="camera">
	</g>
	<g id="calendar">
	</g>
	<g id="calendar_single">
	</g>
	<g id="shopping_bag">
	</g>
	<g id="watch">
	</g>
	<g id="alarm_clock">
	</g>
	<g id="credit_card">
	</g>
	<g id="road_sign">
	</g>
	<g id="hotel">
	</g>
	<g id="money">
	</g>
	<g id="sunglass">
	</g>
	<g id="cocktail">
	</g>
	<g id="compass">
	</g>
	<g id="tent">
	</g>
	<g id="backpack">
	</g>
	<g id="map">
	</g>
	<g id="ticket_1_">
	</g>
	<g id="passport">
	</g>
	<g id="luggage">
	</g>
	<g id="globe">
	</g>
	<g id="suitcase">
	</g>
</g>
<g id="vehicles">
	<g id="trailer">
	</g>
	<g id="airplane">
	</g>
	<g id="yatch">
	</g>
	<g id="taxi">
	</g>
	<g id="hot_air_ballon">
	</g>
	<g id="bus">
	</g>
	<g id="train">
	</g>
</g>
<g id="summer">
	<g id="postcard">
	</g>
	<g id="bikini">
	</g>
	<g id="flipflop">
	</g>
	<g id="plane_around_the_globe">
	</g>
	<g id="binocular">
	</g>
	<g id="beach_table">
	</g>
	<g id="sun_hat">
	</g>
	<g id="beach_bag">
	</g>
	<g id="sea__x26__wave">
	</g>
	<g id="beach">
	</g>
	<g id="beach_ball">
	</g>
	<g id="jetski">
	</g>
	<g id="sandcastle">
	</g>
	<g id="lifeguard_male">
	</g>
	<g id="lifeguard_female">
	</g>
	<g id="lighthouse">
	</g>
	<g id="hammok">
	</g>
	<g id="beach_chair__x26__umbrella">
	</g>
	<g id="lifeguard">
	</g>
	<g id="suncream">
	</g>
	<g id="starfish">
	</g>
	<g id="beach_bar">
	</g>
	<g id="bucket__x26__shovel">
	</g>
	<g id="palm_tree">
	</g>
	<g id="shark_warning">
	</g>
	<g id="surfboard">
	</g>
	<g id="swimming_trunks">
	</g>
	<g id="coconut_drink">
	</g>
	<g id="beach_chair__x26__towel">
	</g>
	<g id="coconut_tree">
	</g>
</g>
</svg>
