<?xml version="1.0" encoding="utf-8"?>
<!-- Generator: Adobe Illustrator 17.0.0, SVG Export Plug-In . SVG Version: 6.00 Build 0)  -->
<!DOCTYPE svg PUBLIC "-//W3C//DTD SVG 1.1//EN" "http://www.w3.org/Graphics/SVG/1.1/DTD/svg11.dtd">
<svg version="1.1" xmlns="http://www.w3.org/2000/svg" xmlns:xlink="http://www.w3.org/1999/xlink" x="0px" y="0px" width="512px"
	 height="512px" viewBox="0 0 512 512" enable-background="new 0 0 512 512" xml:space="preserve">
<g id="famous_places">
	<g id="Pyramid">
	</g>
	<g id="Colloseum">
	</g>
	<g id="Mount_Fuji">
	</g>
	<g id="Great_Wall_of_China">
	</g>
	<g id="Stonehenge">
	</g>
	<g id="Golden_Gate_Bridge">
	</g>
	<g id="Christ_the_Redeemer">
	</g>
	<g id="Statue_of_Liberty">
	</g>
	<g id="Taj_Mahal">
	</g>
	<g id="Eiffel_tower">
	</g>
</g>
<g id="camping">
	<g id="mug">
	</g>
	<g id="hook">
	</g>
	<g id="Swiss_knife">
	</g>
	<g id="flashlight">
	</g>
	<g id="lantern">
	</g>
	<g id="campfire">
	</g>
	<g id="beanie">
	</g>
	<g id="rope">
	</g>
	<g id="boot">
	</g>
	<g id="axe">
	</g>
</g>
<g id="hotel_1_">
	<g id="towel">
	</g>
	<g id="phone">
	</g>
	<g id="pool">
	</g>
	<g id="food_service">
	</g>
	<g id="wifi">
	</g>
	<g id="bed">
	</g>
	<g id="door">
	</g>
	<g id="key">
	</g>
	<g id="do_not_disturb">
	</g>
	<g id="bell">
	</g>
</g>
<g id="winter">
	<g id="snowman">
	</g>
	<g id="snow_mountain">
	</g>
	<g id="reindeer">
	</g>
	<g id="winter_tree">
	</g>
	<g id="lift">
	</g>
	<g id="beanie__x26__google">
	</g>
	<g id="ski">
	</g>
	<g id="snowboard">
	</g>
	<g id="snowboading">
	</g>
	<g id="skiing">
	</g>
</g>
<g id="general_travelling">
	<g id="dinner_set">
	</g>
	<g id="polaroid">
	</g>
	<g id="camera">
	</g>
	<g id="calendar">
	</g>
	<g id="calendar_single">
	</g>
	<g id="shopping_bag">
	</g>
	<g id="watch">
	</g>
	<g id="alarm_clock">
	</g>
	<g id="credit_card">
	</g>
	<g id="road_sign">
	</g>
	<g id="hotel">
	</g>
	<g id="money">
	</g>
	<g id="sunglass">
	</g>
	<g id="cocktail">
	</g>
	<g id="compass">
	</g>
	<g id="tent">
	</g>
	<g id="backpack">
	</g>
	<g id="map">
	</g>
	<g id="ticket_1_">
		<g>
			<path fill="#228273" d="M270.119,400.509H120.451c-7.007,0-12.687-5.68-12.687-12.687v-231.52c0-7.007,5.68-12.687,12.687-12.687
				l149.668-18.823c7.007,0,12.687,5.68,12.687,12.687v250.342C282.805,394.828,277.125,400.509,270.119,400.509z"/>
			<path fill="#FFFFFF" d="M125.844,149.569c-7.007,0-12.687,5.68-12.687,12.687v231.52c0,1.814,0.387,3.536,1.073,5.097
				c1.839,1.037,3.958,1.636,6.22,1.636l155.061-0.88V132.951L125.844,149.569z"/>
			<g>
				<path fill="#E3E3E3" d="M187.764,33.463v445.075h57.739c0-0.033-0.002-0.065-0.002-0.099c0-27.89,22.61-50.5,50.5-50.5
					c27.89,0,50.5,22.61,50.5,50.5c0,0.033-0.002,0.066-0.002,0.099h57.739V33.463H187.764z"/>
				<rect x="187.764" y="33.463" fill="#FF6650" width="216.472" height="77.476"/>
				<rect x="187.764" y="33.463" fill="#FF8B7A" width="216.472" height="8.906"/>
				<path fill="#2D415A" d="M375,225.703v-12.72l-65.636-28.263c0.544-27.889-2.368-51.407-13.541-51.407
					c-11.173,0-13.938,23.518-13.393,51.407L217,212.983v12.72l67.429-5.96c2.619,29.643,7.037,55.502,7.037,55.502L275,279.262
					v8.703l17.077-0.669l3.852,5.356l3.841-5.356L317,287.966v-8.703l-16.644-4.017c0,0,4.312-25.86,6.931-55.502L375,225.703z"/>
				<g>
					<g>
						<rect x="224.25" y="346.713" fill="#2D415A" width="3.5" height="50.5"/>
						<rect x="229.938" y="346.713" fill="#2D415A" width="6.125" height="50.5"/>
						<rect x="238.969" y="346.713" fill="#2D415A" width="3.062" height="50.5"/>
						<rect x="245.031" y="346.713" fill="#2D415A" width="2.627" height="50.5"/>
						<rect x="249.299" y="346.713" fill="#2D415A" width="4.596" height="50.5"/>
						<rect x="256.077" y="346.713" fill="#2D415A" width="2.298" height="50.5"/>
					</g>
					<g>
						<rect x="260.604" y="346.713" fill="#2D415A" width="3.5" height="50.5"/>
						<rect x="266.292" y="346.713" fill="#2D415A" width="6.125" height="50.5"/>
						<rect x="275.323" y="346.713" fill="#2D415A" width="3.062" height="50.5"/>
						<rect x="281.385" y="346.713" fill="#2D415A" width="2.627" height="50.5"/>
						<rect x="285.653" y="346.713" fill="#2D415A" width="4.596" height="50.5"/>
						<rect x="292.431" y="346.713" fill="#2D415A" width="2.298" height="50.5"/>
					</g>
					<g>
						<rect x="296.25" y="346.713" fill="#2D415A" width="3.5" height="50.5"/>
						<rect x="301.938" y="346.713" fill="#2D415A" width="6.125" height="50.5"/>
						<rect x="310.969" y="346.713" fill="#2D415A" width="3.062" height="50.5"/>
						<rect x="317.031" y="346.713" fill="#2D415A" width="2.627" height="50.5"/>
						<rect x="321.299" y="346.713" fill="#2D415A" width="4.596" height="50.5"/>
						<rect x="328.077" y="346.713" fill="#2D415A" width="2.298" height="50.5"/>
					</g>
					<g>
						<rect x="333.625" y="346.713" fill="#2D415A" width="3.5" height="50.5"/>
						<rect x="339.312" y="346.713" fill="#2D415A" width="6.125" height="50.5"/>
						<rect x="348.344" y="346.713" fill="#2D415A" width="3.062" height="50.5"/>
						<rect x="354.406" y="346.713" fill="#2D415A" width="2.627" height="50.5"/>
						<rect x="358.674" y="346.713" fill="#2D415A" width="4.596" height="50.5"/>
						<rect x="365.452" y="346.713" fill="#2D415A" width="2.298" height="50.5"/>
					</g>
				</g>
				<g>
					<g>
						<path fill="#FFFFFF" d="M233.307,60.07v-2.953h16.529v2.953h-6.727v27.214h-3.076V60.07H233.307z"/>
						<path fill="#FFFFFF" d="M253.753,57.117h3.015v30.167h-3.015V57.117z"/>
						<path fill="#FFFFFF" d="M291.776,62.716l-2.379,1.825c-1.312-1.709-2.889-3.004-4.728-3.886s-3.859-1.323-6.061-1.323
							c-2.406,0-4.635,0.578-6.686,1.733s-3.64,2.707-4.768,4.655s-1.692,4.14-1.692,6.573c0,3.678,1.262,6.748,3.784,9.208
							s5.704,3.691,9.546,3.691c4.225,0,7.759-1.654,10.604-4.963l2.379,1.805c-1.505,1.914-3.381,3.394-5.63,4.44
							s-4.762,1.569-7.537,1.569c-5.277,0-9.44-1.757-12.489-5.271c-2.557-2.967-3.835-6.549-3.835-10.747
							c0-4.416,1.549-8.131,4.646-11.146s6.976-4.522,11.638-4.522c2.816,0,5.359,0.557,7.63,1.671
							C288.467,59.144,290.327,60.706,291.776,62.716z"/>
						<path fill="#FFFFFF" d="M297.825,57.117h3.076v11.321l12.059-11.321h4.051l-14.489,13.535l15.617,16.632h-4.016
							l-13.222-14.052v14.052h-3.076V57.117z"/>
						<path fill="#FFFFFF" d="M322.661,57.117h17.288v2.953h-14.273v9.454h14.15v2.953h-14.15v11.854h14.15v2.953h-17.165V57.117z"
							/>
						<path fill="#FFFFFF" d="M342.164,60.07v-2.953h16.529v2.953h-6.727v27.214h-3.076V60.07H342.164z"/>
					</g>
				</g>
			</g>
			<path fill="#2FB49F" d="M265.555,412.604H125.014c-9.527,0-17.25-7.723-17.25-17.25V172.961c0-9.527,7.723-17.25,17.25-17.25
				h140.542c9.527,0,17.25,7.723,17.25,17.25v222.393C282.805,404.881,275.082,412.604,265.555,412.604z"/>
			<g>
				<circle fill="none" stroke="#FFFFFF" stroke-width="5" stroke-miterlimit="10" cx="195.285" cy="258.954" r="47.302"/>
				<line fill="none" stroke="#FFFFFF" stroke-width="5" stroke-miterlimit="10" x1="195.5" y1="212" x2="195.5" y2="306"/>
				<path fill="none" stroke="#FFFFFF" stroke-width="5" stroke-miterlimit="10" d="M183.762,304.84c0,0-35.316-44.73,0-91.772"/>
				<circle fill="none" stroke="#FFFFFF" stroke-width="5" stroke-miterlimit="10" cx="195.285" cy="258.954" r="47.302"/>
				<path fill="none" stroke="#FFFFFF" stroke-width="5" stroke-miterlimit="10" d="M206.807,304.84c0,0,35.316-44.73,0-91.772"/>
				<path fill="none" stroke="#FFFFFF" stroke-width="5" stroke-miterlimit="10" d="M148.285,253.611c0,0,6.536,18.298,47,18.298
					s47-18.296,47-18.296"/>
			</g>
			<g>
				<g>
					<path fill="#FFFFFF" d="M131.274,356.509h3.882c2.226,0,3.727,0.097,4.505,0.292c1.113,0.274,2.023,0.837,2.729,1.689
						c0.706,0.852,1.059,1.923,1.059,3.213c0,1.298-0.344,2.369-1.034,3.213c-0.689,0.843-1.638,1.411-2.848,1.702
						c-0.883,0.212-2.535,0.318-4.955,0.318h-1.391v9.062h-1.948V356.509z M133.222,358.417v6.611l3.299,0.04
						c1.334,0,2.31-0.121,2.928-0.363c0.618-0.243,1.104-0.635,1.457-1.177c0.353-0.542,0.529-1.148,0.529-1.818
						c0-0.652-0.177-1.249-0.529-1.791c-0.353-0.542-0.82-0.928-1.398-1.157c-0.579-0.229-1.526-0.344-2.842-0.344H133.222z"/>
					<path fill="#FFFFFF" d="M155.308,356.509l9.089,19.489h-2.104l-3.065-6.412h-8.395l-3.036,6.412h-2.173l9.208-19.489H155.308z
						 M155.061,360.65l-3.339,7.054h6.663L155.061,360.65z"/>
					<path fill="#FFFFFF" d="M165.403,372.368l1.656-0.994c1.166,2.147,2.512,3.22,4.041,3.22c0.654,0,1.267-0.152,1.842-0.458
						c0.574-0.305,1.011-0.713,1.311-1.225s0.45-1.055,0.45-1.63c0-0.654-0.221-1.294-0.662-1.921
						c-0.61-0.865-1.722-1.908-3.339-3.127c-1.625-1.227-2.636-2.115-3.034-2.662c-0.689-0.919-1.033-1.913-1.033-2.981
						c0-0.848,0.203-1.62,0.609-2.318c0.407-0.697,0.978-1.248,1.716-1.649c0.737-0.402,1.538-0.603,2.405-0.603
						c0.919,0,1.777,0.228,2.576,0.682c0.799,0.455,1.645,1.292,2.538,2.511l-1.59,1.205c-0.733-0.971-1.357-1.612-1.875-1.921
						c-0.516-0.309-1.079-0.464-1.689-0.464c-0.786,0-1.429,0.238-1.927,0.715c-0.499,0.477-0.749,1.064-0.749,1.763
						c0,0.424,0.088,0.835,0.265,1.232c0.177,0.397,0.499,0.83,0.967,1.299c0.256,0.247,1.095,0.896,2.517,1.947
						c1.686,1.245,2.843,2.354,3.471,3.325c0.627,0.972,0.941,1.948,0.941,2.928c0,1.413-0.537,2.641-1.61,3.683
						c-1.073,1.042-2.378,1.564-3.915,1.564c-1.184,0-2.257-0.316-3.219-0.947C167.103,374.91,166.215,373.852,165.403,372.368z"/>
					<path fill="#FFFFFF" d="M178.916,372.368l1.656-0.994c1.166,2.147,2.512,3.22,4.041,3.22c0.654,0,1.267-0.152,1.842-0.458
						c0.574-0.305,1.011-0.713,1.311-1.225c0.3-0.512,0.45-1.055,0.45-1.63c0-0.654-0.221-1.294-0.662-1.921
						c-0.61-0.865-1.722-1.908-3.339-3.127c-1.625-1.227-2.636-2.115-3.034-2.662c-0.689-0.919-1.033-1.913-1.033-2.981
						c0-0.848,0.203-1.62,0.609-2.318c0.407-0.697,0.978-1.248,1.716-1.649c0.737-0.402,1.538-0.603,2.405-0.603
						c0.919,0,1.777,0.228,2.576,0.682c0.799,0.455,1.645,1.292,2.538,2.511l-1.59,1.205c-0.733-0.971-1.357-1.612-1.875-1.921
						c-0.516-0.309-1.079-0.464-1.689-0.464c-0.786,0-1.429,0.238-1.927,0.715c-0.499,0.477-0.749,1.064-0.749,1.763
						c0,0.424,0.088,0.835,0.265,1.232c0.177,0.397,0.499,0.83,0.967,1.299c0.256,0.247,1.095,0.896,2.517,1.947
						c1.686,1.245,2.843,2.354,3.47,3.325c0.627,0.972,0.941,1.948,0.941,2.928c0,1.413-0.537,2.641-1.61,3.683
						s-2.378,1.564-3.915,1.564c-1.184,0-2.257-0.316-3.219-0.947C180.616,374.91,179.728,373.852,178.916,372.368z"/>
					<path fill="#FFFFFF" d="M194.43,356.509h3.882c2.226,0,3.727,0.097,4.505,0.292c1.113,0.274,2.023,0.837,2.729,1.689
						c0.706,0.852,1.059,1.923,1.059,3.213c0,1.298-0.344,2.369-1.034,3.213c-0.689,0.843-1.638,1.411-2.848,1.702
						c-0.883,0.212-2.535,0.318-4.955,0.318h-1.391v9.062h-1.948V356.509z M196.378,358.417v6.611l3.299,0.04
						c1.334,0,2.31-0.121,2.928-0.363c0.618-0.243,1.104-0.635,1.457-1.177c0.353-0.542,0.529-1.148,0.529-1.818
						c0-0.652-0.177-1.249-0.529-1.791c-0.353-0.542-0.82-0.928-1.398-1.157c-0.579-0.229-1.526-0.344-2.842-0.344H196.378z"/>
					<path fill="#FFFFFF" d="M219.781,356.019c2.952,0,5.422,0.985,7.411,2.955s2.983,4.394,2.983,7.274
						c0,2.853-0.992,5.273-2.976,7.26c-1.984,1.987-4.403,2.981-7.258,2.981c-2.89,0-5.33-0.99-7.318-2.968
						c-1.989-1.979-2.983-4.373-2.983-7.181c0-1.872,0.452-3.608,1.359-5.206c0.906-1.599,2.14-2.851,3.705-3.756
						C216.268,356.472,217.961,356.019,219.781,356.019z M219.868,357.913c-1.442,0-2.809,0.376-4.1,1.128
						c-1.291,0.751-2.3,1.763-3.025,3.036c-0.725,1.273-1.088,2.691-1.088,4.256c0,2.316,0.802,4.271,2.408,5.867
						c1.605,1.595,3.541,2.393,5.805,2.393c1.513,0,2.912-0.367,4.2-1.1c1.287-0.734,2.291-1.737,3.012-3.01
						c0.721-1.273,1.082-2.687,1.082-4.243c0-1.547-0.361-2.946-1.082-4.197c-0.72-1.251-1.736-2.252-3.045-3.003
						C222.725,358.289,221.336,357.913,219.868,357.913z"/>
					<path fill="#FFFFFF" d="M234.189,356.509h3.882c2.164,0,3.63,0.088,4.398,0.265c1.157,0.266,2.098,0.834,2.822,1.705
						c0.724,0.87,1.087,1.943,1.087,3.217c0,1.061-0.25,1.994-0.748,2.799c-0.499,0.804-1.212,1.413-2.14,1.824
						c-0.928,0.412-2.209,0.621-3.843,0.63l7.008,9.049h-2.409l-7.009-9.049h-1.101v9.049h-1.948V356.509z M236.137,358.417v6.624
						l3.357,0.027c1.301,0,2.262-0.124,2.887-0.371c0.623-0.247,1.11-0.643,1.459-1.186c0.35-0.543,0.524-1.151,0.524-1.822
						c0-0.654-0.177-1.248-0.531-1.782c-0.354-0.534-0.818-0.916-1.393-1.146s-1.531-0.345-2.866-0.345H236.137z"/>
					<path fill="#FFFFFF" d="M248.617,358.417v-1.908h10.678v1.908h-4.345v17.581h-1.987v-17.581H248.617z"/>
				</g>
			</g>
		</g>
	</g>
	<g id="passport">
	</g>
	<g id="luggage">
	</g>
	<g id="globe">
	</g>
	<g id="suitcase">
	</g>
</g>
<g id="vehicles">
	<g id="trailer">
	</g>
	<g id="airplane">
	</g>
	<g id="yatch">
	</g>
	<g id="taxi">
	</g>
	<g id="hot_air_ballon">
	</g>
	<g id="bus">
	</g>
	<g id="train">
	</g>
</g>
<g id="summer">
	<g id="postcard">
	</g>
	<g id="bikini">
	</g>
	<g id="flipflop">
	</g>
	<g id="plane_around_the_globe">
	</g>
	<g id="binocular">
	</g>
	<g id="beach_table">
	</g>
	<g id="sun_hat">
	</g>
	<g id="beach_bag">
	</g>
	<g id="sea__x26__wave">
	</g>
	<g id="beach">
	</g>
	<g id="beach_ball">
	</g>
	<g id="jetski">
	</g>
	<g id="sandcastle">
	</g>
	<g id="lifeguard_male">
	</g>
	<g id="lifeguard_female">
	</g>
	<g id="lighthouse">
	</g>
	<g id="hammok">
	</g>
	<g id="beach_chair__x26__umbrella">
	</g>
	<g id="lifeguard">
	</g>
	<g id="suncream">
	</g>
	<g id="starfish">
	</g>
	<g id="beach_bar">
	</g>
	<g id="bucket__x26__shovel">
	</g>
	<g id="palm_tree">
	</g>
	<g id="shark_warning">
	</g>
	<g id="surfboard">
	</g>
	<g id="swimming_trunks">
	</g>
	<g id="coconut_drink">
	</g>
	<g id="beach_chair__x26__towel">
	</g>
	<g id="coconut_tree">
	</g>
</g>
</svg>
