<?xml version="1.0" encoding="utf-8"?>
<!-- Generator: Adobe Illustrator 17.0.0, SVG Export Plug-In . SVG Version: 6.00 Build 0)  -->
<!DOCTYPE svg PUBLIC "-//W3C//DTD SVG 1.1//EN" "http://www.w3.org/Graphics/SVG/1.1/DTD/svg11.dtd">
<svg version="1.1" xmlns="http://www.w3.org/2000/svg" xmlns:xlink="http://www.w3.org/1999/xlink" x="0px" y="0px" width="512px"
	 height="512px" viewBox="0 0 512 512" enable-background="new 0 0 512 512" xml:space="preserve">
<g id="famous_places">
	<g id="Pyramid">
	</g>
	<g id="Colloseum">
	</g>
	<g id="Mount_Fuji">
	</g>
	<g id="Great_Wall_of_China">
	</g>
	<g id="Stonehenge">
	</g>
	<g id="Golden_Gate_Bridge">
	</g>
	<g id="Christ_the_Redeemer">
	</g>
	<g id="Statue_of_Liberty">
	</g>
	<g id="Taj_Mahal">
	</g>
	<g id="Eiffel_tower">
	</g>
</g>
<g id="camping">
	<g id="mug">
	</g>
	<g id="hook">
	</g>
	<g id="Swiss_knife">
	</g>
	<g id="flashlight">
	</g>
	<g id="lantern">
	</g>
	<g id="campfire">
	</g>
	<g id="beanie">
	</g>
	<g id="rope">
	</g>
	<g id="boot">
	</g>
	<g id="axe">
	</g>
</g>
<g id="hotel_1_">
	<g id="towel">
	</g>
	<g id="phone">
	</g>
	<g id="pool">
	</g>
	<g id="food_service">
	</g>
	<g id="wifi">
	</g>
	<g id="bed">
	</g>
	<g id="door">
	</g>
	<g id="key">
	</g>
	<g id="do_not_disturb">
	</g>
	<g id="bell">
	</g>
</g>
<g id="winter">
	<g id="snowman">
	</g>
	<g id="snow_mountain">
	</g>
	<g id="reindeer">
	</g>
	<g id="winter_tree">
	</g>
	<g id="lift">
	</g>
	<g id="beanie__x26__google">
	</g>
	<g id="ski">
	</g>
	<g id="snowboard">
	</g>
	<g id="snowboading">
	</g>
	<g id="skiing">
	</g>
</g>
<g id="general_travelling">
	<g id="dinner_set">
	</g>
	<g id="polaroid">
	</g>
	<g id="camera">
	</g>
	<g id="calendar">
	</g>
	<g id="calendar_single">
	</g>
	<g id="shopping_bag">
	</g>
	<g id="watch">
	</g>
	<g id="alarm_clock">
	</g>
	<g id="credit_card">
	</g>
	<g id="road_sign">
	</g>
	<g id="hotel">
	</g>
	<g id="money">
	</g>
	<g id="sunglass">
	</g>
	<g id="cocktail">
	</g>
	<g id="compass">
	</g>
	<g id="tent">
	</g>
	<g id="backpack">
	</g>
	<g id="map">
	</g>
	<g id="ticket_1_">
	</g>
	<g id="passport">
	</g>
	<g id="luggage">
	</g>
	<g id="globe">
	</g>
	<g id="suitcase">
	</g>
</g>
<g id="vehicles">
	<g id="trailer">
	</g>
	<g id="airplane">
	</g>
	<g id="yatch">
	</g>
	<g id="taxi">
	</g>
	<g id="hot_air_ballon">
	</g>
	<g id="bus">
	</g>
	<g id="train">
	</g>
</g>
<g id="summer">
	<g id="postcard">
	</g>
	<g id="bikini">
	</g>
	<g id="flipflop">
	</g>
	<g id="plane_around_the_globe">
	</g>
	<g id="binocular">
	</g>
	<g id="beach_table">
	</g>
	<g id="sun_hat">
	</g>
	<g id="beach_bag">
	</g>
	<g id="sea__x26__wave">
	</g>
	<g id="beach">
	</g>
	<g id="beach_ball">
	</g>
	<g id="jetski">
	</g>
	<g id="sandcastle">
	</g>
	<g id="lifeguard_male">
	</g>
	<g id="lifeguard_female">
	</g>
	<g id="lighthouse">
	</g>
	<g id="hammok">
	</g>
	<g id="beach_chair__x26__umbrella">
	</g>
	<g id="lifeguard">
	</g>
	<g id="suncream">
	</g>
	<g id="starfish">
	</g>
	<g id="beach_bar">
		<g>
			<rect x="224.359" y="123.5" fill="#CCCCCC" width="2" height="36"/>
			<rect x="294.812" y="123.5" fill="#CCCCCC" width="2" height="36"/>
			<path fill="#FFD161" d="M301.848,189.577h-82.525c-3.905,0-7.071-3.166-7.071-7.071v-24.799c0-3.905,3.166-7.071,7.071-7.071
				h82.525c3.905,0,7.071,3.166,7.071,7.071v24.799C308.919,186.412,305.753,189.577,301.848,189.577z"/>
			<g>
				<path fill="#CCCCCC" d="M367.077,184.101l-16.204,14.033c-0.337,0.291-0.836,0.291-1.173,0l-16.204-14.033
					c-0.627-0.543-0.243-1.573,0.586-1.573h32.408C367.32,182.528,367.704,183.558,367.077,184.101z"/>
				<path fill="#CCCCCC" d="M342.831,234.442l7.057-3.755c0.147-0.078,0.364-0.078,0.511,0l7.057,3.755
					c0.273,0.145,0.106,0.421-0.255,0.421h-14.114C342.725,234.862,342.558,234.587,342.831,234.442z"/>
				<rect x="349.341" y="192.864" fill="#CCCCCC" width="1.89" height="40.07"/>
				<ellipse fill="#CCCCCC" cx="350.319" cy="236.717" rx="12.543" ry="3.783"/>
				<g>
					<path fill="#FFD161" d="M349.787,196.649c0.272,0.235,0.675,0.235,0.946,0l3.399-2.944c-2.218,0.02-4.259,0.714-5.936,1.567
						L349.787,196.649z"/>
					<path fill="#FFFFFF" d="M349.316,187.784c2.879,1.107,6.761,1.464,10.03,1.406l4.464-3.866
						c0.506-0.438,0.196-1.269-0.473-1.269h-26.152c-0.669,0-0.979,0.831-0.473,1.269l3.524,3.052
						C342.926,187.398,346.4,186.664,349.316,187.784z"/>
					<path fill="#FFB561" d="M350.118,192.389c-0.703,0.664-1.869,1.255-3.231,1.747l1.311,1.135
						c1.677-0.853,3.718-1.548,5.936-1.567l3.06-2.65C354.325,190.964,351.372,191.206,350.118,192.389z"/>
					<path fill="#FF6650" d="M357.193,191.055l2.153-1.864c-3.269,0.058-7.151-0.3-10.03-1.406c-2.915-1.12-6.39-0.386-9.08,0.593
						l6.651,5.76c1.363-0.492,2.528-1.083,3.231-1.747C351.372,191.206,354.325,190.964,357.193,191.055z"/>
				</g>
				<g>
					<path fill="#FFD161" d="M349.787,196.649c0.272,0.235,0.675,0.235,0.946,0l3.399-2.944c-2.218,0.02-4.259,0.714-5.936,1.567
						L349.787,196.649z"/>
					<path fill="#FFFFFF" d="M349.316,187.784c2.879,1.107,6.761,1.464,10.03,1.406l4.464-3.866
						c0.506-0.438,0.196-1.269-0.473-1.269h-26.152c-0.669,0-0.979,0.831-0.473,1.269l3.524,3.052
						C342.926,187.398,346.4,186.664,349.316,187.784z"/>
					<path fill="#FFB561" d="M350.118,192.389c-0.703,0.664-1.869,1.255-3.231,1.747l1.311,1.135
						c1.677-0.853,3.718-1.548,5.936-1.567l3.06-2.65C354.325,190.964,351.372,191.206,350.118,192.389z"/>
					<path fill="#FF6650" d="M357.193,191.055l2.153-1.864c-3.269,0.058-7.151-0.3-10.03-1.406c-2.915-1.12-6.39-0.386-9.08,0.593
						l6.651,5.76c1.363-0.492,2.528-1.083,3.231-1.747C351.372,191.206,354.325,190.964,357.193,191.055z"/>
				</g>
				<polygon fill="#8A532D" points="360.227,174.5 358.707,173.996 355.182,182.937 356.943,182.937 				"/>
				<path fill="#8A532D" d="M352.72,188.64c0.546,0.099,1.101,0.152,1.662,0.219l1.951-4.921h-1.761L352.72,188.64z"/>
				<path fill="#2FB49F" d="M368.435,178.819c-1.475-3.739-4.07-6.439-7.503-7.808c-3.411-1.361-7.134-1.18-10.767,0.521
					c-2.724,1.275-4.423,2.934-4.494,3.004c-0.131,0.129-0.187,0.316-0.151,0.496c0.036,0.18,0.162,0.331,0.333,0.399
					c0.169,0.068,0.361,0.046,0.511-0.056c0.072-0.049,1.804-1.2,4.126-0.274c2.255,0.899,2.473,2.775,2.481,2.855
					c0.021,0.203,0.166,0.382,0.356,0.457c0.146,0.058,0.309,0.05,0.448-0.021c0.088-0.045,2.185-1.091,4.31-0.244l0.058,0.023
					c2.126,0.848,2.926,3.05,2.959,3.143c0.053,0.149,0.181,0.273,0.327,0.331c0.188,0.075,0.402,0.038,0.556-0.094
					c0.061-0.052,1.511-1.267,3.766-0.368c2.322,0.926,2.786,2.957,2.804,3.041c0.053,0.256,0.278,0.435,0.533,0.435
					c0.021,0,0.043-0.001,0.065-0.004c0.281-0.033,0.49-0.277,0.481-0.56C369.632,183.995,369.541,181.622,368.435,178.819z"/>
			</g>
			<g>
				<rect x="375.598" y="96.167" fill="#8A532D" width="7.333" height="154.447"/>
				<rect x="124.265" y="96.167" fill="#8A532D" width="7.333" height="154.447"/>
				<rect x="118.265" y="256.754" fill="#8A532D" width="33.333" height="173.413"/>
				<rect x="145.585" y="256.754" fill="#6E4224" width="6.013" height="173.413"/>
				<rect x="151.598" y="256.754" fill="#8A532D" width="33.333" height="173.413"/>
				<rect x="178.919" y="256.754" fill="#6E4224" width="6.013" height="173.413"/>
				<rect x="184.932" y="256.754" fill="#8A532D" width="33.333" height="173.413"/>
				<rect x="212.252" y="256.754" fill="#6E4224" width="6.013" height="173.413"/>
				<rect x="218.265" y="256.754" fill="#8A532D" width="33.333" height="173.413"/>
				<rect x="245.585" y="256.754" fill="#6E4224" width="6.013" height="173.413"/>
				<rect x="251.598" y="256.754" fill="#8A532D" width="33.333" height="173.413"/>
				<rect x="278.919" y="256.754" fill="#6E4224" width="6.013" height="173.413"/>
				<rect x="284.932" y="256.754" fill="#8A532D" width="33.333" height="173.413"/>
				<rect x="312.252" y="256.754" fill="#6E4224" width="6.013" height="173.413"/>
				<rect x="318.265" y="256.754" fill="#8A532D" width="33.333" height="173.413"/>
				<rect x="345.585" y="256.754" fill="#6E4224" width="6.013" height="173.413"/>
				<g>
					<rect x="351.598" y="256.754" fill="#8A532D" width="33.333" height="173.413"/>
				</g>
				<rect x="378.919" y="256.754" fill="#6E4224" width="6.013" height="173.413"/>
				<g>
					<g>
						<g>
							<polygon fill="#6E4224" points="342.279,436.167 335.634,436.167 372.049,313.473 378.694,313.473 							"/>
							<polygon fill="#6E4224" points="431.631,436.167 438.276,436.167 401.862,313.473 395.217,313.473 							"/>
						</g>
						<path fill="#BA703D" d="M417.587,294.284h-57.63c-7.233,0-13.097,4.063-13.097,9.075v7.081c0,0.388,0.047,0.768,0.115,1.144
							c0.813,4.471,6.309,7.931,12.982,7.931h57.63c6.673,0,12.169-3.46,12.982-7.931c0.068-0.375,0.115-0.755,0.115-1.144v-7.081
							C430.684,298.347,424.82,294.284,417.587,294.284z"/>
					</g>
					<rect x="354.912" y="380.331" fill="#6E4224" width="65.447" height="6.789"/>
				</g>
				<path fill="#BA703D" d="M394.658,257.303H112.539c-4.569,0-8.274-3.704-8.274-8.274v-4.225c0-4.569,3.704-8.274,8.274-8.274
					h282.119c4.569,0,8.274,3.704,8.274,8.274v4.225C402.932,253.599,399.227,257.303,394.658,257.303z"/>
				<g>
					<path fill="#FF9B29" d="M413.867,99.758C409.046,97.735,403.575,96,394.196,96c-22.527,0-22.527,10-45.054,10
						c-22.526,0-22.526-10-45.051-10c-22.526,0-22.526,10-45.052,10c-22.527,0-22.527-10-45.054-10c-22.526,0-22.526,10-45.052,10
						c-22.529,0-22.529-10-45.059-10c-18.175,0-17.922-3.516-30.429-1c0,0-6.281,18.262-8.301,24.897
						c-1.24,4.074,1.252,8.34,5.409,9.268C102.357,131.8,106.129,138,123.868,138c22.527,0,22.527-10,45.054-10
						c22.526,0,22.526,10,45.051,10c22.526,0,22.526-10,45.052-10c22.527,0,22.527,10,45.054,10c22.526,0,22.526-10,45.052-10
						c22.529,0,22.529,10,45.059,10c11.485,0,17.118-2.597,22.865-5.145c3.353-1.486,5.089-5.219,4.061-8.739
						C418.484,115.111,413.867,99.758,413.867,99.758z"/>
					<path fill="#FFB561" d="M167.275,110c23.249,0,23.249-10,46.498-10c23.25,0,23.25,10,46.5,10c23.249,0,23.249-10,46.498-10
						c23.249,0,23.249,10,46.497,10c23.25,0,23.25-10,46.5-10c3.352,0,6.22,0.208,8.745,0.564c5.127,0.723,9.23-4.207,7.677-9.145
						l-3.57-11.35C395.108,80.907,394.209,90,375.01,90c-20.128,0-20.128-10-40.255-10c-20.125,0-20.125,10-40.25,10
						c-20.125,0-20.125-10-40.251-10c-20.125,0-20.125,10-40.249,10c-20.124,0-20.124-10-40.248-10c-20.122,0-20.122,10-40.244,10
						c-19.667,0-20.125-9.546-38.92-9.979l-4.911,15.613c-1.813,5.765,3.955,10.991,9.523,8.642
						c5.302-2.236,11.062-4.275,21.564-4.275C144.022,100,144.022,110,167.275,110z"/>
					<path fill="#FFD161" d="M170.551,86c20.709,0,20.709,10,41.417,10c20.709,0,20.709-10,41.418-10c20.71,0,20.71,10,41.42,10
						c20.709,0,20.709-10,41.419-10c20.712,0,20.712,10,41.425,10c19.757,0,20.682-9.093,38.701-9.932l-2.618-7.702
						c-1.313-4.056-5.182-6.429-9.557-6.429H101.247c-4.375,0-8.245,2.374-9.557,6.429l-2.602,7.847
						c19.341,0.433,19.812,9.883,40.051,9.883C149.845,96.096,149.845,86,170.551,86z"/>
				</g>
				<path fill="#FFD161" d="M257,418.53v-0.038c0,0.006-0.665,0.013-1,0.019c-0.335-0.006,0-0.013-1-0.019v0.038
					c-231,4.331-198.786,22.407-198.786,22.407h199h2h198.514C455.728,440.937,488,422.861,257,418.53z"/>
			</g>
		</g>
	</g>
	<g id="bucket__x26__shovel">
	</g>
	<g id="palm_tree">
	</g>
	<g id="shark_warning">
	</g>
	<g id="surfboard">
	</g>
	<g id="swimming_trunks">
	</g>
	<g id="coconut_drink">
	</g>
	<g id="beach_chair__x26__towel">
	</g>
	<g id="coconut_tree">
	</g>
</g>
</svg>
