<?xml version="1.0" encoding="utf-8"?>
<!-- Generator: Adobe Illustrator 17.0.0, SVG Export Plug-In . SVG Version: 6.00 Build 0)  -->
<!DOCTYPE svg PUBLIC "-//W3C//DTD SVG 1.1//EN" "http://www.w3.org/Graphics/SVG/1.1/DTD/svg11.dtd">
<svg version="1.1" xmlns="http://www.w3.org/2000/svg" xmlns:xlink="http://www.w3.org/1999/xlink" x="0px" y="0px" width="512px"
	 height="512px" viewBox="0 0 512 512" enable-background="new 0 0 512 512" xml:space="preserve">
<g id="famous_places">
	<g id="Pyramid">
	</g>
	<g id="Colloseum">
	</g>
	<g id="Mount_Fuji">
	</g>
	<g id="Great_Wall_of_China">
	</g>
	<g id="Stonehenge">
	</g>
	<g id="Golden_Gate_Bridge">
	</g>
	<g id="Christ_the_Redeemer">
	</g>
	<g id="Statue_of_Liberty">
	</g>
	<g id="Taj_Mahal">
	</g>
	<g id="Eiffel_tower">
	</g>
</g>
<g id="camping">
	<g id="mug">
	</g>
	<g id="hook">
	</g>
	<g id="Swiss_knife">
	</g>
	<g id="flashlight">
	</g>
	<g id="lantern">
	</g>
	<g id="campfire">
	</g>
	<g id="beanie">
	</g>
	<g id="rope">
	</g>
	<g id="boot">
	</g>
	<g id="axe">
	</g>
</g>
<g id="hotel_1_">
	<g id="towel">
	</g>
	<g id="phone">
	</g>
	<g id="pool">
	</g>
	<g id="food_service">
	</g>
	<g id="wifi">
	</g>
	<g id="bed">
	</g>
	<g id="door">
	</g>
	<g id="key">
	</g>
	<g id="do_not_disturb">
	</g>
	<g id="bell">
	</g>
</g>
<g id="winter">
	<g id="snowman">
	</g>
	<g id="snow_mountain">
	</g>
	<g id="reindeer">
	</g>
	<g id="winter_tree">
	</g>
	<g id="lift">
		<g>
			
				<line fill="none" stroke="#4A4A4A" stroke-width="8" stroke-miterlimit="10" x1="300.379" y1="136.683" x2="354.379" y2="186.183"/>
			
				<line fill="none" stroke="#4A4A4A" stroke-width="8" stroke-miterlimit="10" x1="211.621" y1="136.683" x2="157.621" y2="186.183"/>
			<circle fill="#4A4A4A" cx="215" cy="116.053" r="20.629"/>
			<circle fill="#4A4A4A" cx="297" cy="116.053" r="20.629"/>
			<circle fill="#4A4A4A" cx="256" cy="116.053" r="20.629"/>
			<path fill="#5E5E5E" d="M319.69,142.952H192.31c-2.659,0-4.815-2.156-4.815-4.815v-17.5c0-2.659,2.156-4.815,4.815-4.815H319.69
				c2.659,0,4.815,2.156,4.815,4.815v17.5C324.504,140.797,322.349,142.952,319.69,142.952z"/>
		</g>
		<path fill="#FF6650" d="M132.772,423.326l1.643,2.282c7.328,10.18,18.233,16.075,29.74,16.075h91.824h91.903
			c11.513,0,22.424-5.901,29.752-16.092l1.605-2.232c5.547-7.713,8.686-17.313,8.959-27.281H123.802
			C124.084,406.036,127.227,415.623,132.772,423.326z"/>
		<rect y="87.693" fill="#4A4A4A" width="512" height="7.501"/>
		<g>
			<path fill="#FF6650" d="M378.953,187.634l-1.341-1.864c-7.328-10.188-18.238-16.088-29.749-16.088H255.98h-91.844
				c-11.508,0-22.415,5.896-29.743,16.079l-4.962,6.842c-3.582,4.836-5.443,10.975-5.443,17.322v5.362h263.933
				C387.717,205.185,384.568,195.442,378.953,187.634z"/>
			<path fill="#B8B8B8" d="M387.941,216.251c-0.001-0.322-0.013-0.642-0.02-0.963H123.777l-0.001,179.331
				c0,0.488,0.014,0.974,0.028,1.46h264.395c0.014-0.498,0.027-0.996,0.026-1.496L387.941,216.251z"/>
			<rect x="188.271" y="214.876" fill="#E3E3E3" width="135.458" height="181.153"/>
			<g>
				<rect x="213.407" y="228.087" fill="#2D415A" width="85.185" height="85.185"/>
				<rect x="222" y="237.683" fill="#6FEBE7" width="67" height="66"/>
				<rect x="222" y="264.683" fill="#54B3AF" width="67" height="39"/>
			</g>
		</g>
	</g>
	<g id="beanie__x26__google">
	</g>
	<g id="ski">
	</g>
	<g id="snowboard">
	</g>
	<g id="snowboading">
	</g>
	<g id="skiing">
	</g>
</g>
<g id="general_travelling">
	<g id="dinner_set">
	</g>
	<g id="polaroid">
	</g>
	<g id="camera">
	</g>
	<g id="calendar">
	</g>
	<g id="calendar_single">
	</g>
	<g id="shopping_bag">
	</g>
	<g id="watch">
	</g>
	<g id="alarm_clock">
	</g>
	<g id="credit_card">
	</g>
	<g id="road_sign">
	</g>
	<g id="hotel">
	</g>
	<g id="money">
	</g>
	<g id="sunglass">
	</g>
	<g id="cocktail">
	</g>
	<g id="compass">
	</g>
	<g id="tent">
	</g>
	<g id="backpack">
	</g>
	<g id="map">
	</g>
	<g id="ticket_1_">
	</g>
	<g id="passport">
	</g>
	<g id="luggage">
	</g>
	<g id="globe">
	</g>
	<g id="suitcase">
	</g>
</g>
<g id="vehicles">
	<g id="trailer">
	</g>
	<g id="airplane">
	</g>
	<g id="yatch">
	</g>
	<g id="taxi">
	</g>
	<g id="hot_air_ballon">
	</g>
	<g id="bus">
	</g>
	<g id="train">
	</g>
</g>
<g id="summer">
	<g id="postcard">
	</g>
	<g id="bikini">
	</g>
	<g id="flipflop">
	</g>
	<g id="plane_around_the_globe">
	</g>
	<g id="binocular">
	</g>
	<g id="beach_table">
	</g>
	<g id="sun_hat">
	</g>
	<g id="beach_bag">
	</g>
	<g id="sea__x26__wave">
	</g>
	<g id="beach">
	</g>
	<g id="beach_ball">
	</g>
	<g id="jetski">
	</g>
	<g id="sandcastle">
	</g>
	<g id="lifeguard_male">
	</g>
	<g id="lifeguard_female">
	</g>
	<g id="lighthouse">
	</g>
	<g id="hammok">
	</g>
	<g id="beach_chair__x26__umbrella">
	</g>
	<g id="lifeguard">
	</g>
	<g id="suncream">
	</g>
	<g id="starfish">
	</g>
	<g id="beach_bar">
	</g>
	<g id="bucket__x26__shovel">
	</g>
	<g id="palm_tree">
	</g>
	<g id="shark_warning">
	</g>
	<g id="surfboard">
	</g>
	<g id="swimming_trunks">
	</g>
	<g id="coconut_drink">
	</g>
	<g id="beach_chair__x26__towel">
	</g>
	<g id="coconut_tree">
	</g>
</g>
</svg>
