<?xml version="1.0" encoding="utf-8"?>
<!-- Generator: Adobe Illustrator 17.0.0, SVG Export Plug-In . SVG Version: 6.00 Build 0)  -->
<!DOCTYPE svg PUBLIC "-//W3C//DTD SVG 1.1//EN" "http://www.w3.org/Graphics/SVG/1.1/DTD/svg11.dtd">
<svg version="1.1" xmlns="http://www.w3.org/2000/svg" xmlns:xlink="http://www.w3.org/1999/xlink" x="0px" y="0px" width="512px"
	 height="512px" viewBox="0 0 512 512" enable-background="new 0 0 512 512" xml:space="preserve">
<g id="famous_places">
	<g id="Pyramid">
	</g>
	<g id="Colloseum">
	</g>
	<g id="Mount_Fuji">
	</g>
	<g id="Great_Wall_of_China">
	</g>
	<g id="Stonehenge">
	</g>
	<g id="Golden_Gate_Bridge">
	</g>
	<g id="Christ_the_Redeemer">
	</g>
	<g id="Statue_of_Liberty">
	</g>
	<g id="Taj_Mahal">
	</g>
	<g id="Eiffel_tower">
	</g>
</g>
<g id="camping">
	<g id="mug">
	</g>
	<g id="hook">
	</g>
	<g id="Swiss_knife">
	</g>
	<g id="flashlight">
	</g>
	<g id="lantern">
	</g>
	<g id="campfire">
	</g>
	<g id="beanie">
	</g>
	<g id="rope">
	</g>
	<g id="boot">
	</g>
	<g id="axe">
	</g>
</g>
<g id="hotel_1_">
	<g id="towel">
	</g>
	<g id="phone">
	</g>
	<g id="pool">
	</g>
	<g id="food_service">
	</g>
	<g id="wifi">
	</g>
	<g id="bed">
	</g>
	<g id="door">
	</g>
	<g id="key">
	</g>
	<g id="do_not_disturb">
	</g>
	<g id="bell">
	</g>
</g>
<g id="winter">
	<g id="snowman">
	</g>
	<g id="snow_mountain">
	</g>
	<g id="reindeer">
	</g>
	<g id="winter_tree">
	</g>
	<g id="lift">
	</g>
	<g id="beanie__x26__google">
	</g>
	<g id="ski">
	</g>
	<g id="snowboard">
	</g>
	<g id="snowboading">
	</g>
	<g id="skiing">
	</g>
</g>
<g id="general_travelling">
	<g id="dinner_set">
	</g>
	<g id="polaroid">
	</g>
	<g id="camera">
	</g>
	<g id="calendar">
	</g>
	<g id="calendar_single">
	</g>
	<g id="shopping_bag">
	</g>
	<g id="watch">
	</g>
	<g id="alarm_clock">
	</g>
	<g id="credit_card">
	</g>
	<g id="road_sign">
	</g>
	<g id="hotel">
	</g>
	<g id="money">
	</g>
	<g id="sunglass">
	</g>
	<g id="cocktail">
	</g>
	<g id="compass">
	</g>
	<g id="tent">
	</g>
	<g id="backpack">
	</g>
	<g id="map">
	</g>
	<g id="ticket_1_">
	</g>
	<g id="passport">
	</g>
	<g id="luggage">
	</g>
	<g id="globe">
	</g>
	<g id="suitcase">
	</g>
</g>
<g id="vehicles">
	<g id="trailer">
	</g>
	<g id="airplane">
	</g>
	<g id="yatch">
	</g>
	<g id="taxi">
	</g>
	<g id="hot_air_ballon">
	</g>
	<g id="bus">
	</g>
	<g id="train">
	</g>
</g>
<g id="summer">
	<g id="postcard">
	</g>
	<g id="bikini">
	</g>
	<g id="flipflop">
	</g>
	<g id="plane_around_the_globe">
	</g>
	<g id="binocular">
	</g>
	<g id="beach_table">
	</g>
	<g id="sun_hat">
		<g>
			<path fill="#1B2736" d="M189.739,356.342c-9.93,0-20.198-0.406-30.804-1.218c-17.864-1.369-30.503-8.403-37.564-20.907
				c-20.459-36.23,14.012-105.614,15.488-108.55c0.869-1.726,2.974-2.423,4.699-1.553c1.727,0.869,2.423,2.973,1.555,4.699
				c-0.345,0.686-34.277,68.983-15.644,101.967c5.843,10.343,16.609,16.186,32.001,17.365c46.963,3.596,87.154-0.915,119.461-13.413
				c41.719-16.14,70.701-45.866,86.141-88.353c0.66-1.818,2.671-2.754,4.484-2.094c1.816,0.66,2.755,2.668,2.094,4.485
				c-16.16,44.471-46.505,75.589-90.192,92.491C255.522,351.293,224.766,356.341,189.739,356.342z"/>
		</g>
		<g>
			<path fill="#FFD161" d="M259.453,216.206c0,0,49.879-26.449,102.809-14.372c-1.34-56.173-47.264-101.307-103.76-101.307
				c-46.773,0-86.311,30.935-99.299,73.458C188.17,171.072,220.468,209.144,259.453,216.206z"/>
			<path fill="#FF6650" d="M259.453,152.439c-37.755-6.898-68.762-5.027-89.872-1.64c-4.35,7.209-7.87,14.973-10.378,23.186
				c28.966-2.913,61.265,35.16,100.25,42.221c0,0,49.878-26.449,102.809-14.372c-0.134-5.592-0.727-11.068-1.71-16.407
				C336.017,174.089,299.631,159.779,259.453,152.439z"/>
		</g>
		<path fill="#FFB561" d="M259.453,152.439c40.178,7.34,76.564,21.65,101.099,32.988c-7.308-39.674-37.142-71.443-75.765-81.527
			c26.513,21.447,58.967,50.371,60.034,64.233c0,0-131.704-45.801-175.239-17.334l0,0
			C190.69,147.412,221.698,145.541,259.453,152.439z"/>
		<path fill="#FFD161" d="M496.33,234.531c-7.243-4.829-235.412-55.533-235.412-55.533c-166.6-30.181-239.034,51.911-240.241,65.191
			c-1.208,13.28,82.092-2.415,103.822-7.243c21.73-4.829,136.419,7.243,136.419,7.243s124.346,25.352,177.465,27.767
			C491.501,274.37,503.573,239.36,496.33,234.531z"/>
		<path fill="#FFB561" d="M260.917,209.783c0,0,173.309,38.514,222.622,51.603c7.067-4.9,11.331-10.712,13.324-15.727l-0.534-0.263
			c-7.243-4.829-235.412-55.533-235.412-55.533c-147.32-26.688-220.963,34.385-236.88,58.067c3.611,1.317,9.903,1.66,17.66,1.366
			C73.917,222.512,144.334,188.662,260.917,209.783z"/>
		<path fill="#FFB561" d="M81.087,244.966c18.016-2.786,35.157-6.187,43.411-8.021c21.73-4.829,136.419,7.243,136.419,7.243
			s124.346,25.352,177.465,27.767c2.684,0.122,5.236,0.125,7.714,0.065c-69.207-16.546-185.179-42.318-185.179-42.318
			C179.208,214.899,120.201,227.119,81.087,244.966z"/>
		<path fill="#FFD161" d="M260.917,189.863c0,0,228.169,50.704,235.412,55.533l0.534,0.263c2.09-5.26,1.704-9.636-0.534-11.128
			c-7.243-4.829-235.412-55.533-235.412-55.533c-166.6-30.181-239.034,51.911-240.241,65.191c-0.154,1.691,1.076,2.907,3.361,3.741
			C39.954,224.248,113.597,163.175,260.917,189.863z"/>
		
			<line fill="none" stroke="#FFB561" stroke-width="3" stroke-linecap="round" stroke-linejoin="round" stroke-miterlimit="10" x1="228.566" y1="114.3" x2="214.139" y2="122.068"/>
		
			<line fill="none" stroke="#FFB561" stroke-width="3" stroke-linecap="round" stroke-linejoin="round" stroke-miterlimit="10" x1="249.652" y1="118.184" x2="248.542" y2="132.056"/>
		
			<line fill="none" stroke="#FFB561" stroke-width="3" stroke-linecap="round" stroke-linejoin="round" stroke-miterlimit="10" x1="259.596" y1="125.12" x2="265.067" y2="136.495"/>
		
			<line fill="none" stroke="#FFB561" stroke-width="3" stroke-linecap="round" stroke-linejoin="round" stroke-miterlimit="10" x1="275.177" y1="125.12" x2="294.223" y2="144.663"/>
		
			<line fill="none" stroke="#FFB561" stroke-width="3" stroke-linecap="round" stroke-linejoin="round" stroke-miterlimit="10" x1="301.811" y1="132.056" x2="307.36" y2="144.663"/>
		<g>
			<g>
				<g>
					<path fill="#1B2736" d="M103.825,407.04c-8.705,0-16.791-4.261-24.081-12.702c-7.372-8.535-9.505-16.308-6.342-23.102
						c10.27-22.055,75.981-21.838,83.452-21.739c1.203,0.016,2.313,0.648,2.94,1.674s0.684,2.303,0.149,3.38
						c-0.985,1.987-24.457,48.696-52.651,52.266C106.126,406.966,104.97,407.04,103.825,407.04z M150.941,356.509
						c-21.96,0.327-64.734,3.808-71.193,17.683c-1.895,4.071-0.114,9.31,5.293,15.571c6.716,7.774,13.705,11.081,21.372,10.111
						c9.939-1.259,21.219-9.929,32.617-25.073C144.273,367.835,148.419,360.973,150.941,356.509z"/>
				</g>
				<g>
					<path fill="#1B2736" d="M122.16,445.164c-1.498,0-2.883-0.969-3.345-2.475c-0.122-0.398-2.998-9.9-4.05-22.902
						c-0.98-12.127-0.465-29.678,7.559-44.422c6.925-12.723,18.205-21.381,33.528-25.735c1.859-0.528,3.795,0.55,4.323,2.41
						c0.528,1.859-0.551,3.795-2.411,4.323c-13.436,3.817-23.286,11.328-29.278,22.323c-7.186,13.186-7.641,29.23-6.757,40.368
						c0.975,12.285,3.752,21.495,3.78,21.587c0.563,1.848-0.478,3.805-2.325,4.369C122.844,445.114,122.499,445.164,122.16,445.164z
						"/>
				</g>
				<g>
					<path fill="#1B2736" d="M209.45,407.04c-1.146,0-2.302-0.074-3.468-0.222c-28.194-3.57-51.666-50.279-52.651-52.266
						c-0.534-1.078-0.478-2.354,0.149-3.38s1.737-1.659,2.94-1.674c7.464-0.104,73.182-0.317,83.451,21.739
						c3.164,6.794,1.03,14.567-6.342,23.102C226.241,402.779,218.155,407.04,209.45,407.04z M162.334,356.497
						c6.739,11.912,25.025,40.912,44.533,43.377c7.666,0.972,14.653-2.339,21.366-10.111c5.407-6.262,7.188-11.501,5.293-15.572
						C227.665,361.602,188.981,356.828,162.334,356.497z"/>
				</g>
				<g>
					<path fill="#1B2736" d="M191.114,445.165c-0.339,0-0.685-0.05-1.025-0.154c-1.849-0.566-2.889-2.523-2.322-4.372
						c0.055-0.18,2.809-9.36,3.779-21.585c0.884-11.138,0.429-27.182-6.757-40.368c-5.992-10.995-15.843-18.505-29.278-22.323
						c-1.86-0.528-2.939-2.464-2.411-4.323c0.528-1.859,2.466-2.937,4.323-2.41c15.323,4.354,26.604,13.012,33.528,25.735
						c8.023,14.744,8.539,32.294,7.559,44.422c-1.052,13.001-3.928,22.504-4.05,22.902
						C193.998,444.196,192.612,445.165,191.114,445.165z"/>
				</g>
			</g>
			<g>
				<path fill="#2D415A" d="M160.089,368.128h-2.703c-3.291,0-5.959-2.668-5.959-5.959v-13.254c0-3.291,2.668-5.959,5.959-5.959
					h2.703c3.291,0,5.959,2.668,5.959,5.959v13.254C166.048,365.46,163.38,368.128,160.089,368.128z"/>
			</g>
		</g>
	</g>
	<g id="beach_bag">
	</g>
	<g id="sea__x26__wave">
	</g>
	<g id="beach">
	</g>
	<g id="beach_ball">
	</g>
	<g id="jetski">
	</g>
	<g id="sandcastle">
	</g>
	<g id="lifeguard_male">
	</g>
	<g id="lifeguard_female">
	</g>
	<g id="lighthouse">
	</g>
	<g id="hammok">
	</g>
	<g id="beach_chair__x26__umbrella">
	</g>
	<g id="lifeguard">
	</g>
	<g id="suncream">
	</g>
	<g id="starfish">
	</g>
	<g id="beach_bar">
	</g>
	<g id="bucket__x26__shovel">
	</g>
	<g id="palm_tree">
	</g>
	<g id="shark_warning">
	</g>
	<g id="surfboard">
	</g>
	<g id="swimming_trunks">
	</g>
	<g id="coconut_drink">
	</g>
	<g id="beach_chair__x26__towel">
	</g>
	<g id="coconut_tree">
	</g>
</g>
</svg>
