<?xml version="1.0" encoding="utf-8"?>
<!-- Generator: Adobe Illustrator 17.0.0, SVG Export Plug-In . SVG Version: 6.00 Build 0)  -->
<!DOCTYPE svg PUBLIC "-//W3C//DTD SVG 1.1//EN" "http://www.w3.org/Graphics/SVG/1.1/DTD/svg11.dtd">
<svg version="1.1" xmlns="http://www.w3.org/2000/svg" xmlns:xlink="http://www.w3.org/1999/xlink" x="0px" y="0px" width="512px"
	 height="512px" viewBox="0 0 512 512" enable-background="new 0 0 512 512" xml:space="preserve">
<g id="famous_places">
	<g id="Pyramid">
	</g>
	<g id="Colloseum">
	</g>
	<g id="Mount_Fuji">
	</g>
	<g id="Great_Wall_of_China">
	</g>
	<g id="Stonehenge">
	</g>
	<g id="Golden_Gate_Bridge">
	</g>
	<g id="Christ_the_Redeemer">
	</g>
	<g id="Statue_of_Liberty">
	</g>
	<g id="Taj_Mahal">
	</g>
	<g id="Eiffel_tower">
	</g>
</g>
<g id="camping">
	<g id="mug">
	</g>
	<g id="hook">
	</g>
	<g id="Swiss_knife">
	</g>
	<g id="flashlight">
	</g>
	<g id="lantern">
	</g>
	<g id="campfire">
	</g>
	<g id="beanie">
	</g>
	<g id="rope">
	</g>
	<g id="boot">
	</g>
	<g id="axe">
	</g>
</g>
<g id="hotel_1_">
	<g id="towel">
	</g>
	<g id="phone">
	</g>
	<g id="pool">
	</g>
	<g id="food_service">
	</g>
	<g id="wifi">
	</g>
	<g id="bed">
	</g>
	<g id="door">
	</g>
	<g id="key">
	</g>
	<g id="do_not_disturb">
	</g>
	<g id="bell">
	</g>
</g>
<g id="winter">
	<g id="snowman">
	</g>
	<g id="snow_mountain">
	</g>
	<g id="reindeer">
	</g>
	<g id="winter_tree">
	</g>
	<g id="lift">
	</g>
	<g id="beanie__x26__google">
	</g>
	<g id="ski">
	</g>
	<g id="snowboard">
	</g>
	<g id="snowboading">
	</g>
	<g id="skiing">
	</g>
</g>
<g id="general_travelling">
	<g id="dinner_set">
	</g>
	<g id="polaroid">
	</g>
	<g id="camera">
	</g>
	<g id="calendar">
	</g>
	<g id="calendar_single">
	</g>
	<g id="shopping_bag">
	</g>
	<g id="watch">
	</g>
	<g id="alarm_clock">
	</g>
	<g id="credit_card">
	</g>
	<g id="road_sign">
	</g>
	<g id="hotel">
	</g>
	<g id="money">
	</g>
	<g id="sunglass">
	</g>
	<g id="cocktail">
	</g>
	<g id="compass">
	</g>
	<g id="tent">
	</g>
	<g id="backpack">
	</g>
	<g id="map">
	</g>
	<g id="ticket_1_">
	</g>
	<g id="passport">
	</g>
	<g id="luggage">
	</g>
	<g id="globe">
	</g>
	<g id="suitcase">
	</g>
</g>
<g id="vehicles">
	<g id="trailer">
	</g>
	<g id="airplane">
		<g>
			<g>
				<path fill="#FFD161" d="M169.515,231.789c-1.757-1.757-4.607-1.757-6.364,0l-10.253,10.253c-1.757,1.757-1.757,4.607,0,6.364
					l0.707,0.707l16.617-16.617L169.515,231.789z"/>
				<path fill="#2FB49F" d="M153.605,249.113l22.874,22.874c1.757,1.757,4.607,1.757,6.364,0l10.253-10.253
					c1.757-1.757,1.757-4.607,0-6.364l-22.874-22.874L153.605,249.113z"/>
			</g>
			<g>
				<path fill="#FFD161" d="M144.06,278.458c-1.757-1.757-4.607-1.757-6.364,0l-10.253,10.253c-1.757,1.757-1.757,4.607,0,6.364
					l0.707,0.707l16.617-16.617L144.06,278.458z"/>
				<path fill="#2FB49F" d="M128.15,295.782l22.874,22.874c1.757,1.757,4.607,1.757,6.364,0l10.253-10.253
					c1.757-1.757,1.757-4.607,0-6.364l-22.874-22.874L128.15,295.782z"/>
			</g>
			<polygon fill="#228273" points="186.095,197.811 130.659,373.245 141.585,384.171 227.852,238.507 			"/>
			<polygon fill="#FFD161" points="188.57,200.222 185.715,199.013 130.659,373.245 141.585,384.171 145.267,377.953 
				136.635,369.321 198.328,209.733 			"/>
			<g>
				<path fill="#FFD161" d="M237.044,164.26c-1.757-1.757-1.757-4.607,0-6.364l10.253-10.253c1.757-1.757,4.607-1.757,6.364,0
					l0.707,0.707l-16.617,16.617L237.044,164.26z"/>
				<path fill="#2FB49F" d="M254.368,148.35l22.874,22.874c1.757,1.757,1.757,4.607,0,6.364l-10.253,10.253
					c-1.757,1.757-4.607,1.757-6.364,0l-22.874-22.874L254.368,148.35z"/>
			</g>
			<g>
				<path fill="#FFD161" d="M283.713,138.804c-1.757-1.757-1.757-4.607,0-6.364l10.253-10.253c1.757-1.757,4.607-1.757,6.364,0
					l0.707,0.707l-16.617,16.617L283.713,138.804z"/>
				<path fill="#2FB49F" d="M301.037,122.895l22.874,22.874c1.757,1.757,1.757,4.607,0,6.364l-10.253,10.253
					c-1.757,1.757-4.607,1.757-6.364,0l-22.874-22.874L301.037,122.895z"/>
			</g>
			<polygon fill="#228273" points="203.066,180.84 378.5,125.404 389.426,136.33 243.762,222.597 			"/>
			<polygon fill="#FFD161" points="205.477,183.314 204.268,180.46 378.5,125.404 389.426,136.33 383.208,140.012 374.576,131.38 
				214.988,193.073 			"/>
			<path fill="#2FB49F" d="M350.399,321.852L159.969,123.955c0,0-29.168-25.986-42.78-12.374s12.021,43.134,12.021,43.134
				l197.897,190.429l-2.736,35.845l9.546,9.546l16.617-28.638l14.142-2.121l0.354-0.354l2.121-14.142l28.638-16.617l-9.546-9.546
				L350.399,321.852z"/>
			<path fill="#279685" d="M159.969,123.955c0,0-22.4-19.955-37.101-15.73c-2.074,0.596-3.996,1.672-5.679,3.355
				c-1.687,1.687-2.769,3.618-3.374,5.706c-4.278,14.768,15.395,37.427,15.395,37.427l197.897,190.429l-0.014,0.18l9.098,1.805
				c0,0-165.498-153.129-196.065-192.749c-13.504-17.504-17.692-29.761-18.163-37.993c8.232,0.471,20.489,4.658,37.993,18.163
				c39.619,30.567,192.749,196.065,192.749,196.065l-1.747-8.805l-0.56,0.043L159.969,123.955z"/>
			<polygon fill="#FFD161" points="326.823,345.213 335.875,347.457 329.322,379.574 336.039,386.292 333.564,390.888 
				324.018,381.342 			"/>
			<polygon fill="#228273" points="350.535,361.897 340.172,351.753 336.039,386.292 			"/>
			<polygon fill="#FFD161" points="350.468,321.568 352.712,330.62 384.829,324.066 391.547,330.784 396.143,328.309 
				386.597,318.763 			"/>
			<polygon fill="#228273" points="367.152,345.28 357.008,334.917 391.547,330.784 			"/>
			
				<rect x="360.543" y="312.288" transform="matrix(0.7071 -0.7071 0.7071 0.7071 -146.9721 362.2538)" fill="#FFD161" width="6.5" height="92.5"/>
			<path fill="#6FEBE7" d="M134.514,129.612c-11.314,11.314,4.95,25.456,4.95,25.456c-5.362-15.615,4.891-25.868,20.506-20.506
				C159.969,134.562,145.827,118.298,134.514,129.612z"/>
		</g>
	</g>
	<g id="yatch">
	</g>
	<g id="taxi">
	</g>
	<g id="hot_air_ballon">
	</g>
	<g id="bus">
	</g>
	<g id="train">
	</g>
</g>
<g id="summer">
	<g id="postcard">
	</g>
	<g id="bikini">
	</g>
	<g id="flipflop">
	</g>
	<g id="plane_around_the_globe">
	</g>
	<g id="binocular">
	</g>
	<g id="beach_table">
	</g>
	<g id="sun_hat">
	</g>
	<g id="beach_bag">
	</g>
	<g id="sea__x26__wave">
	</g>
	<g id="beach">
	</g>
	<g id="beach_ball">
	</g>
	<g id="jetski">
	</g>
	<g id="sandcastle">
	</g>
	<g id="lifeguard_male">
	</g>
	<g id="lifeguard_female">
	</g>
	<g id="lighthouse">
	</g>
	<g id="hammok">
	</g>
	<g id="beach_chair__x26__umbrella">
	</g>
	<g id="lifeguard">
	</g>
	<g id="suncream">
	</g>
	<g id="starfish">
	</g>
	<g id="beach_bar">
	</g>
	<g id="bucket__x26__shovel">
	</g>
	<g id="palm_tree">
	</g>
	<g id="shark_warning">
	</g>
	<g id="surfboard">
	</g>
	<g id="swimming_trunks">
	</g>
	<g id="coconut_drink">
	</g>
	<g id="beach_chair__x26__towel">
	</g>
	<g id="coconut_tree">
	</g>
</g>
</svg>
