<?xml version="1.0" encoding="utf-8"?>
<!-- Generator: Adobe Illustrator 17.0.0, SVG Export Plug-In . SVG Version: 6.00 Build 0)  -->
<!DOCTYPE svg PUBLIC "-//W3C//DTD SVG 1.1//EN" "http://www.w3.org/Graphics/SVG/1.1/DTD/svg11.dtd">
<svg version="1.1" xmlns="http://www.w3.org/2000/svg" xmlns:xlink="http://www.w3.org/1999/xlink" x="0px" y="0px" width="512px"
	 height="512px" viewBox="0 0 512 512" enable-background="new 0 0 512 512" xml:space="preserve">
<g id="famous_places">
	<g id="Pyramid">
	</g>
	<g id="Colloseum">
	</g>
	<g id="Mount_Fuji">
	</g>
	<g id="Great_Wall_of_China">
	</g>
	<g id="Stonehenge">
	</g>
	<g id="Golden_Gate_Bridge">
	</g>
	<g id="Christ_the_Redeemer">
	</g>
	<g id="Statue_of_Liberty">
	</g>
	<g id="Taj_Mahal">
	</g>
	<g id="Eiffel_tower">
	</g>
</g>
<g id="camping">
	<g id="mug">
	</g>
	<g id="hook">
	</g>
	<g id="Swiss_knife">
	</g>
	<g id="flashlight">
	</g>
	<g id="lantern">
	</g>
	<g id="campfire">
	</g>
	<g id="beanie">
	</g>
	<g id="rope">
	</g>
	<g id="boot">
	</g>
	<g id="axe">
	</g>
</g>
<g id="hotel_1_">
	<g id="towel">
	</g>
	<g id="phone">
	</g>
	<g id="pool">
	</g>
	<g id="food_service">
	</g>
	<g id="wifi">
	</g>
	<g id="bed">
	</g>
	<g id="door">
	</g>
	<g id="key">
	</g>
	<g id="do_not_disturb">
	</g>
	<g id="bell">
	</g>
</g>
<g id="winter">
	<g id="snowman">
	</g>
	<g id="snow_mountain">
	</g>
	<g id="reindeer">
	</g>
	<g id="winter_tree">
	</g>
	<g id="lift">
	</g>
	<g id="beanie__x26__google">
	</g>
	<g id="ski">
	</g>
	<g id="snowboard">
	</g>
	<g id="snowboading">
	</g>
	<g id="skiing">
	</g>
</g>
<g id="general_travelling">
	<g id="dinner_set">
	</g>
	<g id="polaroid">
	</g>
	<g id="camera">
	</g>
	<g id="calendar">
	</g>
	<g id="calendar_single">
	</g>
	<g id="shopping_bag">
	</g>
	<g id="watch">
	</g>
	<g id="alarm_clock">
	</g>
	<g id="credit_card">
	</g>
	<g id="road_sign">
	</g>
	<g id="hotel">
	</g>
	<g id="money">
	</g>
	<g id="sunglass">
	</g>
	<g id="cocktail">
	</g>
	<g id="compass">
	</g>
	<g id="tent">
	</g>
	<g id="backpack">
	</g>
	<g id="map">
	</g>
	<g id="ticket_1_">
	</g>
	<g id="passport">
	</g>
	<g id="luggage">
	</g>
	<g id="globe">
	</g>
	<g id="suitcase">
		<g>
			<path fill="#8A532D" d="M443.5,399.25h-375c-11.874,0-21.5-9.626-21.5-21.5v-253c0-11.874,9.626-21.5,21.5-21.5h375
				c11.874,0,21.5,9.626,21.5,21.5v253C465,389.624,455.374,399.25,443.5,399.25z"/>
			<g>
				<defs>
					<path id="SVGID_23_" d="M443.5,399.25h-375c-11.874,0-21.5-9.626-21.5-21.5v-253c0-11.874,9.626-21.5,21.5-21.5h375
						c11.874,0,21.5,9.626,21.5,21.5v253C465,389.624,455.374,399.25,443.5,399.25z"/>
				</defs>
				<clipPath id="SVGID_2_">
					<use xlink:href="#SVGID_23_"  overflow="visible"/>
				</clipPath>
			</g>
			<path fill="#6E4224" d="M443.5,442.25h-375c-11.874,0-21.5-9.626-21.5-21.5v-253c0-11.874,9.626-21.5,21.5-21.5h375
				c11.874,0,21.5,9.626,21.5,21.5v253C465,432.624,455.374,442.25,443.5,442.25z"/>
			<g>
				
					<rect x="149" y="163" transform="matrix(-0.2007 0.9797 -0.9797 -0.2007 422.6204 68.1673)" fill="#E3E3E3" width="69" height="87"/>
				
					<rect x="144.525" y="176.089" transform="matrix(0.9797 0.2007 -0.2007 0.9797 45.1607 -32.7121)" fill="#FFFFFF" width="78.848" height="60.667"/>
				
					<rect x="145.059" y="170.815" transform="matrix(0.9797 0.2007 -0.2007 0.9797 43.5789 -27.6528)" fill="#4FB463" width="26.283" height="60.667"/>
				
					<rect x="196.556" y="181.362" transform="matrix(0.9797 0.2007 -0.2007 0.9797 46.7426 -37.7713)" fill="#FF6650" width="26.283" height="60.667"/>
			</g>
			<rect x="112" y="103.25" fill="#FFB561" width="29" height="339"/>
			<path fill="#6E4224" d="M131.875,296.5h-10.75c-1.588,0-2.875-1.287-2.875-2.875l0,0c0-1.588,1.287-2.875,2.875-2.875h10.75
				c1.588,0,2.875,1.287,2.875,2.875l0,0C134.75,295.213,133.463,296.5,131.875,296.5z"/>
			<path fill="#6E4224" d="M131.875,281.452h-10.75c-1.588,0-2.875-1.287-2.875-2.875l0,0c0-1.588,1.287-2.875,2.875-2.875h10.75
				c1.588,0,2.875,1.287,2.875,2.875l0,0C134.75,280.165,133.463,281.452,131.875,281.452z"/>
			<path fill="#6E4224" d="M131.875,266.404h-10.75c-1.588,0-2.875-1.287-2.875-2.875l0,0c0-1.588,1.287-2.875,2.875-2.875h10.75
				c1.588,0,2.875,1.287,2.875,2.875l0,0C134.75,265.117,133.463,266.404,131.875,266.404z"/>
			<path fill="#6E4224" d="M131.875,251.357h-10.75c-1.588,0-2.875-1.287-2.875-2.875v0c0-1.588,1.287-2.875,2.875-2.875h10.75
				c1.588,0,2.875,1.287,2.875,2.875v0C134.75,250.069,133.463,251.357,131.875,251.357z"/>
			<path fill="#6E4224" d="M131.875,236.309h-10.75c-1.588,0-2.875-1.287-2.875-2.875l0,0c0-1.588,1.287-2.875,2.875-2.875h10.75
				c1.588,0,2.875,1.287,2.875,2.875l0,0C134.75,235.022,133.463,236.309,131.875,236.309z"/>
			<rect x="112" y="103.25" fill="#FFD161" width="29" height="43"/>
			<rect x="371" y="103.25" fill="#FFB561" width="29" height="339"/>
			<g>
				<path fill="#6E4224" d="M390.875,296.5h-10.75c-1.588,0-2.875-1.287-2.875-2.875l0,0c0-1.588,1.287-2.875,2.875-2.875h10.75
					c1.588,0,2.875,1.287,2.875,2.875l0,0C393.75,295.213,392.463,296.5,390.875,296.5z"/>
				<path fill="#6E4224" d="M390.875,281.452h-10.75c-1.588,0-2.875-1.287-2.875-2.875l0,0c0-1.588,1.287-2.875,2.875-2.875h10.75
					c1.588,0,2.875,1.287,2.875,2.875l0,0C393.75,280.165,392.463,281.452,390.875,281.452z"/>
				<path fill="#6E4224" d="M390.875,266.404h-10.75c-1.588,0-2.875-1.287-2.875-2.875l0,0c0-1.588,1.287-2.875,2.875-2.875h10.75
					c1.588,0,2.875,1.287,2.875,2.875l0,0C393.75,265.117,392.463,266.404,390.875,266.404z"/>
				<path fill="#6E4224" d="M390.875,251.357h-10.75c-1.588,0-2.875-1.287-2.875-2.875v0c0-1.588,1.287-2.875,2.875-2.875h10.75
					c1.588,0,2.875,1.287,2.875,2.875v0C393.75,250.069,392.463,251.357,390.875,251.357z"/>
				<path fill="#6E4224" d="M390.875,236.309h-10.75c-1.588,0-2.875-1.287-2.875-2.875l0,0c0-1.588,1.287-2.875,2.875-2.875h10.75
					c1.588,0,2.875,1.287,2.875,2.875l0,0C393.75,235.022,392.463,236.309,390.875,236.309z"/>
			</g>
			<rect x="371" y="103.25" fill="#FFD161" width="29" height="43"/>
			<path fill="#6E4224" d="M131.125,296.5h-10.75c-1.588,0-2.875-1.287-2.875-2.875l0,0c0-1.588,1.287-2.875,2.875-2.875h10.75
				c1.588,0,2.875,1.287,2.875,2.875l0,0C134,295.213,132.713,296.5,131.125,296.5z"/>
			<g>
				<path fill="none" stroke="#E3E3E3" stroke-width="15" stroke-miterlimit="10" d="M191,124.75c0,0,0-39.5,32-39.5"/>
				<path fill="none" stroke="#E3E3E3" stroke-width="15" stroke-miterlimit="10" d="M321,124.75c0,0,0-39.5-32-39.5"/>
				<path fill="#FFB561" d="M292.5,97.25h-76c-5.247,0-9.5-4.253-9.5-9.5v-8.5c0-5.247,4.253-9.5,9.5-9.5h76
					c5.247,0,9.5,4.253,9.5,9.5v8.5C302,92.997,297.747,97.25,292.5,97.25z"/>
			</g>
			<path fill="#FFD161" d="M98,146.25v-5H65c0,0-12-0.004-18,10v26L98,146.25z"/>
			<path fill="#FFD161" d="M414,146.25v-5h33c0,0,12-0.004,18,10v26L414,146.25z"/>
			<g>
				<defs>
					<path id="SVGID_25_" d="M443.5,442.25h-375c-11.874,0-21.5-9.626-21.5-21.5v-253c0-11.874,9.626-21.5,21.5-21.5h375
						c11.874,0,21.5,9.626,21.5,21.5v253C465,432.624,455.374,442.25,443.5,442.25z"/>
				</defs>
				<clipPath id="SVGID_4_">
					<use xlink:href="#SVGID_25_"  overflow="visible"/>
				</clipPath>
				<g clip-path="url(#SVGID_4_)">
					<g>
						<circle fill="#FFB561" cx="55" cy="442.25" r="43"/>
						<circle fill="#FFB561" cx="457" cy="442.25" r="43"/>
					</g>
					<g>
						<circle fill="#FFB561" cx="55" cy="146.25" r="43"/>
						<circle fill="#FFB561" cx="457" cy="146.25" r="43"/>
					</g>
				</g>
			</g>
			<path fill="none" stroke="#E3E3E3" stroke-width="10" stroke-miterlimit="10" d="M140,268.75c6.351,0,11.5,5.149,11.5,11.5v25
				c0,6.351-5.149,11.5-11.5,11.5h-27.5c-6.351,0-11.5-5.149-11.5-11.5v-25c0-6.351,5.149-11.5,11.5-11.5"/>
			<line fill="none" stroke="#E3E3E3" stroke-width="10" stroke-miterlimit="10" x1="126" y1="293" x2="126" y2="317"/>
			<path fill="none" stroke="#E3E3E3" stroke-width="10" stroke-miterlimit="10" d="M399,268.75c6.351,0,11.5,5.149,11.5,11.5v25
				c0,6.351-5.149,11.5-11.5,11.5h-27.5c-6.351,0-11.5-5.149-11.5-11.5v-25c0-6.351,5.149-11.5,11.5-11.5"/>
			<line fill="none" stroke="#E3E3E3" stroke-width="10" stroke-miterlimit="10" x1="385" y1="293" x2="385" y2="317"/>
			<g>
				<path fill="#E3E3E3" d="M215.39,418.019c-19.462,11.652-41.805,11.169-51.971-1.123c-0.725-0.876-1.384-1.808-1.96-2.77
					c-8.793-14.686,1.094-36.836,22.039-49.376c20.945-12.54,45.138-10.793,53.931,3.893c0.396,0.661,0.761,1.366,1.15,2.217
					C245.374,385.764,235.404,406.037,215.39,418.019z"/>
				<g>
					<path fill="#89B4B3" d="M196.996,401.553c14.179,0.829,29.318-16.326,38.723-29.386c-0.296-0.649-0.616-1.288-0.987-1.908
						c-7.915-13.22-30.13-14.479-49.619-2.811c-19.489,11.668-28.872,31.844-20.957,45.064c0.505,0.843,1.069,1.636,1.686,2.381
						C172.127,408.667,182.985,400.734,196.996,401.553z"/>
					<path fill="#FFB561" d="M196.996,401.553c-14.011-0.819-24.869,7.115-31.154,13.341c9.053,10.945,29.687,11.353,47.934,0.429
						c18.576-11.121,27.957-29.967,21.944-43.156C226.314,385.227,211.174,402.381,196.996,401.553z"/>
				</g>
				<circle fill="#FF6650" cx="182.175" cy="392.364" r="7.996"/>
				<path fill="#356785" d="M199.415,391.25c-15.8-1.346-31.58,5.972-38.023,9.421c-0.227,4.248,0.641,8.295,2.763,11.841
					c0.505,0.843,1.069,1.636,1.686,2.381c6.286-6.226,17.144-14.16,31.154-13.341c9.599,0.561,19.636-7.122,28.039-16.196
					C217.27,389.027,208.065,391.987,199.415,391.25z"/>
				<path fill="#FFB561" d="M196.996,401.553c-14.011-0.819-24.869,7.115-31.154,13.341c9.053,10.945,29.687,11.353,47.934,0.429
					c18.576-11.121,27.957-29.967,21.944-43.156C226.314,385.227,211.174,402.381,196.996,401.553z"/>
				<path fill="#6E4224" d="M211.729,377.537c0,0,15.5,12.784,16.78,17.141l2.259-3.068c0,0-11.96-12.886-18.17-14.592
					L211.729,377.537z"/>
				<path fill="#4FB463" d="M206.123,390.005c0,0-2.685-8.233,6.027-12.261l1.269,3.917l-0.924,1.569l-1.056-1.796l-0.129,3.808
					l-0.663,1.127l-1.607-2.463l0.427,4.586L206.123,390.005z"/>
				<path fill="#4FB463" d="M212.665,377.059c0,0,4.358-5.694,9.2-5.082l1.84,1.928l-1.736,1.039l-2.096-1.137l1.678,2.803
					l-1.982,0.951l-1.972-1.645l1.349,2.254l-1.721-0.314L212.665,377.059z"/>
				<path fill="#4FB463" d="M201.772,374.3c0.025-1.141,4.043-1.203,10.82,2.802l-6.04,0.931l-0.453-1.816l-3.079,0.166
					L201.772,374.3z"/>
				<path fill="#4FB463" d="M213.886,361.964c0,0-8.262,7.606-1.295,15.699l2.598-4.257l-2.554-0.656l2.778-1.663l-1.372-1.753
					l1.294-2.71l1.195-2.337L213.886,361.964z"/>
			</g>
		</g>
	</g>
</g>
<g id="vehicles">
	<g id="trailer">
	</g>
	<g id="airplane">
	</g>
	<g id="yatch">
	</g>
	<g id="taxi">
	</g>
	<g id="hot_air_ballon">
	</g>
	<g id="bus">
	</g>
	<g id="train">
	</g>
</g>
<g id="summer">
	<g id="postcard">
	</g>
	<g id="bikini">
	</g>
	<g id="flipflop">
	</g>
	<g id="plane_around_the_globe">
	</g>
	<g id="binocular">
	</g>
	<g id="beach_table">
	</g>
	<g id="sun_hat">
	</g>
	<g id="beach_bag">
	</g>
	<g id="sea__x26__wave">
	</g>
	<g id="beach">
	</g>
	<g id="beach_ball">
	</g>
	<g id="jetski">
	</g>
	<g id="sandcastle">
	</g>
	<g id="lifeguard_male">
	</g>
	<g id="lifeguard_female">
	</g>
	<g id="lighthouse">
	</g>
	<g id="hammok">
	</g>
	<g id="beach_chair__x26__umbrella">
	</g>
	<g id="lifeguard">
	</g>
	<g id="suncream">
	</g>
	<g id="starfish">
	</g>
	<g id="beach_bar">
	</g>
	<g id="bucket__x26__shovel">
	</g>
	<g id="palm_tree">
	</g>
	<g id="shark_warning">
	</g>
	<g id="surfboard">
	</g>
	<g id="swimming_trunks">
	</g>
	<g id="coconut_drink">
	</g>
	<g id="beach_chair__x26__towel">
	</g>
	<g id="coconut_tree">
	</g>
</g>
</svg>
