<?xml version="1.0" encoding="utf-8"?>
<!-- Generator: Adobe Illustrator 17.0.0, SVG Export Plug-In . SVG Version: 6.00 Build 0)  -->
<!DOCTYPE svg PUBLIC "-//W3C//DTD SVG 1.1//EN" "http://www.w3.org/Graphics/SVG/1.1/DTD/svg11.dtd">
<svg version="1.1" xmlns="http://www.w3.org/2000/svg" xmlns:xlink="http://www.w3.org/1999/xlink" x="0px" y="0px" width="512px"
	 height="512px" viewBox="0 0 512 512" enable-background="new 0 0 512 512" xml:space="preserve">
<g id="famous_places">
	<g id="Pyramid">
	</g>
	<g id="Colloseum">
	</g>
	<g id="Mount_Fuji">
	</g>
	<g id="Great_Wall_of_China">
	</g>
	<g id="Stonehenge">
	</g>
	<g id="Golden_Gate_Bridge">
	</g>
	<g id="Christ_the_Redeemer">
	</g>
	<g id="Statue_of_Liberty">
	</g>
	<g id="Taj_Mahal">
	</g>
	<g id="Eiffel_tower">
	</g>
</g>
<g id="camping">
	<g id="mug">
	</g>
	<g id="hook">
	</g>
	<g id="Swiss_knife">
	</g>
	<g id="flashlight">
	</g>
	<g id="lantern">
	</g>
	<g id="campfire">
	</g>
	<g id="beanie">
		<g>
			<circle fill="#38D6BD" cx="256" cy="111.212" r="45.951"/>
			<path fill="#2FB49F" d="M297.028,131.897c-13.101-3.437-26.849-5.274-41.028-5.274h0c-14.179,0-27.927,1.837-41.028,5.274
				c7.57,14.984,23.094,25.266,41.028,25.266C273.935,157.163,289.458,146.882,297.028,131.897z"/>
			<path fill="#38D6BD" d="M417.242,421.743H94.758V302.532c0-89.051,72.19-161.242,161.242-161.242h0
				c89.051,0,161.242,72.19,161.242,161.242V421.743z"/>
			<g>
				<defs>
					<path id="SVGID_3_" d="M417.242,421.743H94.758V302.532c0-89.051,72.19-161.242,161.242-161.242h0
						c89.051,0,161.242,72.19,161.242,161.242V421.743z"/>
				</defs>
				<clipPath id="SVGID_2_">
					<use xlink:href="#SVGID_3_"  overflow="visible"/>
				</clipPath>
				<g clip-path="url(#SVGID_2_)">
					<line fill="none" stroke="#2FB49F" stroke-width="10" stroke-miterlimit="10" x1="256" y1="134.567" x2="256" y2="413.567"/>
					<path fill="none" stroke="#2FB49F" stroke-width="10" stroke-miterlimit="10" d="M169.91,351.284
						c0,0,10.756-216.333,93.333-216.333l-14-18.104c0,0-125.333,19.104-140.667,234.437"/>
					<path fill="none" stroke="#2FB49F" stroke-width="10" stroke-miterlimit="10" d="M342.09,351.284
						c0,0-10.756-216.333-93.333-216.333l14-18.104c0,0,125.333,19.104,140.667,234.437"/>
				</g>
			</g>
			<path fill="#2FB49F" d="M417,328.444c-2-0.332-4.095-0.877-6.33-0.877H104.33c-3.293,0-6.33,0.757-9.33,1.465v92.535h322V328.444
				z"/>
			<path fill="#38D6BD" d="M409.17,446.738H102.83c-23.511,0-42.57-19.059-42.57-42.57v-20.993c0-23.511,19.059-42.57,42.57-42.57
				h306.34c23.511,0,42.57,19.059,42.57,42.57v20.993C451.74,427.679,432.681,446.738,409.17,446.738z"/>
			<g>
				<defs>
					<path id="SVGID_5_" d="M409.17,446.738H102.83c-23.511,0-42.57-19.059-42.57-42.57v-20.993c0-23.511,19.059-42.57,42.57-42.57
						h306.34c23.511,0,42.57,19.059,42.57,42.57v20.993C451.74,427.679,432.681,446.738,409.17,446.738z"/>
				</defs>
				<clipPath id="SVGID_4_">
					<use xlink:href="#SVGID_5_"  overflow="visible"/>
				</clipPath>
				<g clip-path="url(#SVGID_4_)">
					<g>
						<line fill="none" stroke="#2FB49F" stroke-width="10" stroke-miterlimit="10" x1="256" y1="316.567" x2="256" y2="475.567"/>
						<line fill="none" stroke="#2FB49F" stroke-width="10" stroke-miterlimit="10" x1="202" y1="316.567" x2="202" y2="475.567"/>
						<line fill="none" stroke="#2FB49F" stroke-width="10" stroke-miterlimit="10" x1="148" y1="316.567" x2="148" y2="475.567"/>
						<line fill="none" stroke="#2FB49F" stroke-width="10" stroke-miterlimit="10" x1="94" y1="316.567" x2="94" y2="475.567"/>
					</g>
					<g>
						<line fill="none" stroke="#2FB49F" stroke-width="10" stroke-miterlimit="10" x1="416" y1="316.567" x2="416" y2="475.567"/>
						<line fill="none" stroke="#2FB49F" stroke-width="10" stroke-miterlimit="10" x1="362" y1="316.567" x2="362" y2="475.567"/>
						<line fill="none" stroke="#2FB49F" stroke-width="10" stroke-miterlimit="10" x1="309" y1="316.567" x2="309" y2="475.567"/>
						<line fill="none" stroke="#2FB49F" stroke-width="10" stroke-miterlimit="10" x1="256" y1="316.567" x2="256" y2="475.567"/>
					</g>
				</g>
			</g>
		</g>
	</g>
	<g id="rope">
	</g>
	<g id="boot">
	</g>
	<g id="axe">
	</g>
</g>
<g id="hotel_1_">
	<g id="towel">
	</g>
	<g id="phone">
	</g>
	<g id="pool">
	</g>
	<g id="food_service">
	</g>
	<g id="wifi">
	</g>
	<g id="bed">
	</g>
	<g id="door">
	</g>
	<g id="key">
	</g>
	<g id="do_not_disturb">
	</g>
	<g id="bell">
	</g>
</g>
<g id="winter">
	<g id="snowman">
	</g>
	<g id="snow_mountain">
	</g>
	<g id="reindeer">
	</g>
	<g id="winter_tree">
	</g>
	<g id="lift">
	</g>
	<g id="beanie__x26__google">
	</g>
	<g id="ski">
	</g>
	<g id="snowboard">
	</g>
	<g id="snowboading">
	</g>
	<g id="skiing">
	</g>
</g>
<g id="general_travelling">
	<g id="dinner_set">
	</g>
	<g id="polaroid">
	</g>
	<g id="camera">
	</g>
	<g id="calendar">
	</g>
	<g id="calendar_single">
	</g>
	<g id="shopping_bag">
	</g>
	<g id="watch">
	</g>
	<g id="alarm_clock">
	</g>
	<g id="credit_card">
	</g>
	<g id="road_sign">
	</g>
	<g id="hotel">
	</g>
	<g id="money">
	</g>
	<g id="sunglass">
	</g>
	<g id="cocktail">
	</g>
	<g id="compass">
	</g>
	<g id="tent">
	</g>
	<g id="backpack">
	</g>
	<g id="map">
	</g>
	<g id="ticket_1_">
	</g>
	<g id="passport">
	</g>
	<g id="luggage">
	</g>
	<g id="globe">
	</g>
	<g id="suitcase">
	</g>
</g>
<g id="vehicles">
	<g id="trailer">
	</g>
	<g id="airplane">
	</g>
	<g id="yatch">
	</g>
	<g id="taxi">
	</g>
	<g id="hot_air_ballon">
	</g>
	<g id="bus">
	</g>
	<g id="train">
	</g>
</g>
<g id="summer">
	<g id="postcard">
	</g>
	<g id="bikini">
	</g>
	<g id="flipflop">
	</g>
	<g id="plane_around_the_globe">
	</g>
	<g id="binocular">
	</g>
	<g id="beach_table">
	</g>
	<g id="sun_hat">
	</g>
	<g id="beach_bag">
	</g>
	<g id="sea__x26__wave">
	</g>
	<g id="beach">
	</g>
	<g id="beach_ball">
	</g>
	<g id="jetski">
	</g>
	<g id="sandcastle">
	</g>
	<g id="lifeguard_male">
	</g>
	<g id="lifeguard_female">
	</g>
	<g id="lighthouse">
	</g>
	<g id="hammok">
	</g>
	<g id="beach_chair__x26__umbrella">
	</g>
	<g id="lifeguard">
	</g>
	<g id="suncream">
	</g>
	<g id="starfish">
	</g>
	<g id="beach_bar">
	</g>
	<g id="bucket__x26__shovel">
	</g>
	<g id="palm_tree">
	</g>
	<g id="shark_warning">
	</g>
	<g id="surfboard">
	</g>
	<g id="swimming_trunks">
	</g>
	<g id="coconut_drink">
	</g>
	<g id="beach_chair__x26__towel">
	</g>
	<g id="coconut_tree">
	</g>
</g>
</svg>
