<?xml version="1.0" encoding="utf-8"?>
<!-- Generator: Adobe Illustrator 17.0.0, SVG Export Plug-In . SVG Version: 6.00 Build 0)  -->
<!DOCTYPE svg PUBLIC "-//W3C//DTD SVG 1.1//EN" "http://www.w3.org/Graphics/SVG/1.1/DTD/svg11.dtd">
<svg version="1.1" xmlns="http://www.w3.org/2000/svg" xmlns:xlink="http://www.w3.org/1999/xlink" x="0px" y="0px" width="512px"
	 height="512px" viewBox="0 0 512 512" enable-background="new 0 0 512 512" xml:space="preserve">
<g id="famous_places">
	<g id="Pyramid">
	</g>
	<g id="Colloseum">
	</g>
	<g id="Mount_Fuji">
	</g>
	<g id="Great_Wall_of_China">
	</g>
	<g id="Stonehenge">
	</g>
	<g id="Golden_Gate_Bridge">
		<g>
			<path fill="#ABB3B6" d="M118.5,344.299c-1.381,0-2.5-1.119-2.5-2.5v-125c0-1.381,1.119-2.5,2.5-2.5s2.5,1.119,2.5,2.5v125
				C121,343.18,119.881,344.299,118.5,344.299z"/>
		</g>
		<g>
			<path fill="#ABB3B6" d="M239.5,344.299c-1.381,0-2.5-1.119-2.5-2.5v-87c0-1.381,1.119-2.5,2.5-2.5s2.5,1.119,2.5,2.5v87
				C242,343.18,240.881,344.299,239.5,344.299z"/>
		</g>
		<g>
			<path fill="#ABB3B6" d="M146.5,344.299c-1.381,0-2.5-1.119-2.5-2.5v-108c0-1.381,1.119-2.5,2.5-2.5s2.5,1.119,2.5,2.5v108
				C149,343.18,147.881,344.299,146.5,344.299z"/>
		</g>
		<g>
			<path fill="#ABB3B6" d="M177.5,340.299c-1.381,0-2.5-1.119-2.5-2.5v-90c0-1.381,1.119-2.5,2.5-2.5s2.5,1.119,2.5,2.5v90
				C180,339.18,178.881,340.299,177.5,340.299z"/>
		</g>
		<g>
			<path fill="#ABB3B6" d="M206.5,340.299c-1.381,0-2.5-1.119-2.5-2.5v-83c0-1.381,1.119-2.5,2.5-2.5s2.5,1.119,2.5,2.5v83
				C209,339.18,207.881,340.299,206.5,340.299z"/>
		</g>
		<g>
			<path fill="#ABB3B6" d="M363.5,344.299c-1.381,0-2.5-1.119-2.5-2.5v-125c0-1.381,1.119-2.5,2.5-2.5s2.5,1.119,2.5,2.5v125
				C366,343.18,364.881,344.299,363.5,344.299z"/>
		</g>
		<g>
			<path fill="#ABB3B6" d="M335.5,344.299c-1.381,0-2.5-1.119-2.5-2.5v-108c0-1.381,1.119-2.5,2.5-2.5s2.5,1.119,2.5,2.5v108
				C338,343.18,336.881,344.299,335.5,344.299z"/>
		</g>
		<g>
			<path fill="#ABB3B6" d="M304.5,340.299c-1.381,0-2.5-1.119-2.5-2.5v-90c0-1.381,1.119-2.5,2.5-2.5s2.5,1.119,2.5,2.5v90
				C307,339.18,305.881,340.299,304.5,340.299z"/>
		</g>
		<g>
			<path fill="#ABB3B6" d="M275.5,340.299c-1.381,0-2.5-1.119-2.5-2.5v-83c0-1.381,1.119-2.5,2.5-2.5s2.5,1.119,2.5,2.5v83
				C278,339.18,276.881,340.299,275.5,340.299z"/>
		</g>
		<g>
			<path fill="#B04737" d="M396,166.077c-1.65-1.107-3-3.813-3-6.013v-10.265c0-2.2-1.35-4-3-4s-3,1.8-3,4v10.265
				c0,2.2-1.35,4.906-3,6.013c-1.65,1.107-3,7.522-3,9.722v288c0,2.2,0.739,5.641,1.642,7.648l2.711,2.711
				c2.006,0.903,4.098,1.642,4.648,1.642s2.641-0.739,4.648-1.642l2.711-2.711c0.903-2.006,1.642-5.448,1.642-7.648v-288
				C399,173.599,397.65,167.184,396,166.077z"/>
		</g>
		<g>
			<path fill="#B04737" d="M238.003,260c-33.121,0-80.077-5.712-115.681-32.923c-21.598-16.507-28.717-33.032-29.01-33.728
				c-0.856-2.036,0.101-4.382,2.137-5.238c2.036-0.855,4.377,0.099,5.235,2.131c0.143,0.329,6.934,15.679,26.944,30.82
				C146.281,235.176,180.57,252,238.003,252c110.441,0,148.187-61.616,148.555-62.238c1.126-1.9,3.581-2.528,5.479-1.405
				c1.901,1.125,2.53,3.578,1.405,5.479c-0.406,0.688-10.235,17.012-34.451,33.378C336.859,242.171,297.904,260,238.003,260z"/>
		</g>
		<g>
			<rect x="390" y="186.799" fill="#FF6650" width="61" height="10"/>
			<rect x="390" y="219.133" fill="#FF6650" width="61" height="10"/>
			<rect x="390" y="251.466" fill="#FF6650" width="61" height="10"/>
			<rect x="390" y="283.799" fill="#FF6650" width="61" height="10"/>
		</g>
		<g>
			<path fill="#B04737" d="M103,166.077c-1.65-1.107-3-3.813-3-6.013v-10.265c0-2.2-1.35-4-3-4s-3,1.8-3,4v10.265
				c0,2.2-1.35,4.906-3,6.013c-1.65,1.107-3,7.522-3,9.722v288c0,2.2,0.739,5.641,1.641,7.648l2.711,2.711
				c2.006,0.903,4.098,1.642,4.648,1.642s2.641-0.739,4.648-1.642l2.711-2.711c0.903-2.006,1.641-5.448,1.641-7.648v-288
				C106,173.599,104.65,167.184,103,166.077z"/>
		</g>
		
			<line fill="none" stroke="#CED8DB" stroke-width="5" stroke-linecap="round" stroke-linejoin="round" stroke-miterlimit="10" x1="180.5" y1="216.799" x2="180.5" y2="341.799"/>
		
			<line fill="none" stroke="#CED8DB" stroke-width="5" stroke-linecap="round" stroke-linejoin="round" stroke-miterlimit="10" x1="301.5" y1="341.799" x2="301.5" y2="254.799"/>
		
			<line fill="none" stroke="#CED8DB" stroke-width="5" stroke-linecap="round" stroke-linejoin="round" stroke-miterlimit="10" x1="208.5" y1="233.799" x2="208.5" y2="341.799"/>
		
			<line fill="none" stroke="#CED8DB" stroke-width="5" stroke-linecap="round" stroke-linejoin="round" stroke-miterlimit="10" x1="239.5" y1="247.799" x2="239.5" y2="337.799"/>
		
			<line fill="none" stroke="#CED8DB" stroke-width="5" stroke-linecap="round" stroke-linejoin="round" stroke-miterlimit="10" x1="268.5" y1="254.799" x2="268.5" y2="337.799"/>
		
			<line fill="none" stroke="#CED8DB" stroke-width="5" stroke-linecap="round" stroke-linejoin="round" stroke-miterlimit="10" x1="425.5" y1="216.799" x2="425.5" y2="341.799"/>
		
			<line fill="none" stroke="#CED8DB" stroke-width="5" stroke-linecap="round" stroke-linejoin="round" stroke-miterlimit="10" x1="397.5" y1="233.799" x2="397.5" y2="341.799"/>
		
			<line fill="none" stroke="#CED8DB" stroke-width="5" stroke-linecap="round" stroke-linejoin="round" stroke-miterlimit="10" x1="366.5" y1="247.799" x2="366.5" y2="337.799"/>
		
			<line fill="none" stroke="#CED8DB" stroke-width="5" stroke-linecap="round" stroke-linejoin="round" stroke-miterlimit="10" x1="337.5" y1="254.799" x2="337.5" y2="337.799"/>
		<rect y="332.799" fill="#FF6650" width="512" height="19"/>
		<g>
			<rect x="97" y="186.799" fill="#FF6650" width="61" height="10"/>
			<rect x="97" y="219.133" fill="#FF6650" width="61" height="10"/>
			<rect x="97" y="251.466" fill="#FF6650" width="61" height="10"/>
			<rect x="97" y="283.799" fill="#FF6650" width="61" height="10"/>
		</g>
		<path fill="#CF5341" d="M167,467.799c0,4.4-3.6,8-8,8h-2c-4.4,0-8-3.6-8-8v-296c0-4.4,3.6-8,8-8h2c4.4,0,8,3.6,8,8V467.799z"/>
		<g>
			<path fill="#CF5341" d="M161,178.799c0,2.2-1.35,4-3,4s-3-1.8-3-4v-29c0-2.2,1.35-4,3-4s3,1.8,3,4V178.799z"/>
		</g>
		<path fill="#CF5341" d="M460,467.799c0,4.4-3.6,8-8,8h-2c-4.4,0-8-3.6-8-8v-296c0-4.4,3.6-8,8-8h2c4.4,0,8,3.6,8,8V467.799z"/>
		<g>
			<path fill="#CF5341" d="M454,178.799c0,2.2-1.35,4-3,4s-3-1.8-3-4v-29c0-2.2,1.35-4,3-4s3,1.8,3,4V178.799z"/>
		</g>
		<path fill="none" stroke="#CF5341" stroke-width="8" stroke-linejoin="round" stroke-miterlimit="10" d="M512.25,246.049
			c-26.75,0-61.25-54.25-61.25-54.25S413.003,256,299.003,256S158,191.799,158,191.799s-31,63-158,63"/>
		<rect y="421.799" fill="#71A3E3" width="512" height="90"/>
	</g>
	<g id="Christ_the_Redeemer">
	</g>
	<g id="Statue_of_Liberty">
	</g>
	<g id="Taj_Mahal">
	</g>
	<g id="Eiffel_tower">
	</g>
</g>
<g id="camping">
	<g id="mug">
	</g>
	<g id="hook">
	</g>
	<g id="Swiss_knife">
	</g>
	<g id="flashlight">
	</g>
	<g id="lantern">
	</g>
	<g id="campfire">
	</g>
	<g id="beanie">
	</g>
	<g id="rope">
	</g>
	<g id="boot">
	</g>
	<g id="axe">
	</g>
</g>
<g id="hotel_1_">
	<g id="towel">
	</g>
	<g id="phone">
	</g>
	<g id="pool">
	</g>
	<g id="food_service">
	</g>
	<g id="wifi">
	</g>
	<g id="bed">
	</g>
	<g id="door">
	</g>
	<g id="key">
	</g>
	<g id="do_not_disturb">
	</g>
	<g id="bell">
	</g>
</g>
<g id="winter">
	<g id="snowman">
	</g>
	<g id="snow_mountain">
	</g>
	<g id="reindeer">
	</g>
	<g id="winter_tree">
	</g>
	<g id="lift">
	</g>
	<g id="beanie__x26__google">
	</g>
	<g id="ski">
	</g>
	<g id="snowboard">
	</g>
	<g id="snowboading">
	</g>
	<g id="skiing">
	</g>
</g>
<g id="general_travelling">
	<g id="dinner_set">
	</g>
	<g id="polaroid">
	</g>
	<g id="camera">
	</g>
	<g id="calendar">
	</g>
	<g id="calendar_single">
	</g>
	<g id="shopping_bag">
	</g>
	<g id="watch">
	</g>
	<g id="alarm_clock">
	</g>
	<g id="credit_card">
	</g>
	<g id="road_sign">
	</g>
	<g id="hotel">
	</g>
	<g id="money">
	</g>
	<g id="sunglass">
	</g>
	<g id="cocktail">
	</g>
	<g id="compass">
	</g>
	<g id="tent">
	</g>
	<g id="backpack">
	</g>
	<g id="map">
	</g>
	<g id="ticket_1_">
	</g>
	<g id="passport">
	</g>
	<g id="luggage">
	</g>
	<g id="globe">
	</g>
	<g id="suitcase">
	</g>
</g>
<g id="vehicles">
	<g id="trailer">
	</g>
	<g id="airplane">
	</g>
	<g id="yatch">
	</g>
	<g id="taxi">
	</g>
	<g id="hot_air_ballon">
	</g>
	<g id="bus">
	</g>
	<g id="train">
	</g>
</g>
<g id="summer">
	<g id="postcard">
	</g>
	<g id="bikini">
	</g>
	<g id="flipflop">
	</g>
	<g id="plane_around_the_globe">
	</g>
	<g id="binocular">
	</g>
	<g id="beach_table">
	</g>
	<g id="sun_hat">
	</g>
	<g id="beach_bag">
	</g>
	<g id="sea__x26__wave">
	</g>
	<g id="beach">
	</g>
	<g id="beach_ball">
	</g>
	<g id="jetski">
	</g>
	<g id="sandcastle">
	</g>
	<g id="lifeguard_male">
	</g>
	<g id="lifeguard_female">
	</g>
	<g id="lighthouse">
	</g>
	<g id="hammok">
	</g>
	<g id="beach_chair__x26__umbrella">
	</g>
	<g id="lifeguard">
	</g>
	<g id="suncream">
	</g>
	<g id="starfish">
	</g>
	<g id="beach_bar">
	</g>
	<g id="bucket__x26__shovel">
	</g>
	<g id="palm_tree">
	</g>
	<g id="shark_warning">
	</g>
	<g id="surfboard">
	</g>
	<g id="swimming_trunks">
	</g>
	<g id="coconut_drink">
	</g>
	<g id="beach_chair__x26__towel">
	</g>
	<g id="coconut_tree">
	</g>
</g>
</svg>
