<?xml version="1.0" encoding="utf-8"?>
<!-- Generator: Adobe Illustrator 17.0.0, SVG Export Plug-In . SVG Version: 6.00 Build 0)  -->
<!DOCTYPE svg PUBLIC "-//W3C//DTD SVG 1.1//EN" "http://www.w3.org/Graphics/SVG/1.1/DTD/svg11.dtd">
<svg version="1.1" xmlns="http://www.w3.org/2000/svg" xmlns:xlink="http://www.w3.org/1999/xlink" x="0px" y="0px" width="512px"
	 height="512px" viewBox="0 0 512 512" enable-background="new 0 0 512 512" xml:space="preserve">
<g id="famous_places">
	<g id="Pyramid">
	</g>
	<g id="Colloseum">
	</g>
	<g id="Mount_Fuji">
	</g>
	<g id="Great_Wall_of_China">
	</g>
	<g id="Stonehenge">
	</g>
	<g id="Golden_Gate_Bridge">
	</g>
	<g id="Christ_the_Redeemer">
	</g>
	<g id="Statue_of_Liberty">
	</g>
	<g id="Taj_Mahal">
	</g>
	<g id="Eiffel_tower">
	</g>
</g>
<g id="camping">
	<g id="mug">
	</g>
	<g id="hook">
		<g>
			<g>
				<g>
					<path fill="#A6A6A6" d="M308.827,369.502c-0.767,0-1.544-0.088-2.322-0.273c-5.373-1.277-8.692-6.669-7.415-12.042l40.182-169
						c1.278-5.373,6.672-8.697,12.042-7.415c5.373,1.277,8.692,6.669,7.415,12.042l-40.182,169
						C317.454,366.408,313.353,369.502,308.827,369.502z"/>
				</g>
			</g>
			<g>
				<path fill="#E3E3E3" d="M326.633,339.726l-24.824-5.902c-3.891-0.925-6.296-4.83-5.37-8.721l23.873-100.405
					c0.925-3.891,4.83-6.296,8.721-5.37l24.824,5.902c3.891,0.925,6.296,4.83,5.37,8.721l-23.873,100.405
					C334.429,338.247,330.524,340.651,326.633,339.726z"/>
			</g>
			<g>
				<path fill="#5C84B8" d="M246.066,441.5c-39.625,0-71.984-31.705-73.04-71.079l-33.689-181.267
					c-0.225-1.205-0.337-2.429-0.337-3.654c0-63.411,51.589-115,115-115s115,51.589,115,115c0,11.046-8.954,20-20,20
					s-20-8.954-20-20c0-41.355-33.645-75-75-75c-40.774,0-74.054,32.708-74.98,73.264l33.644,181.017
					c0.225,1.205,0.337,2.429,0.337,3.654c0,18.232,14.834,33.065,33.066,33.065c19.715,0,39.065-16.378,39.065-33.065
					c0-11.046,8.954-20,20-20s20,8.954,20,20C325.132,407.357,288.186,441.5,246.066,441.5z"/>
			</g>
			<g>
				<path fill="#4E709C" d="M259.066,410.5c19.715,0,39.065-16.378,39.065-33.065c0-11.046,8.954-20,20-20
					c1.347,0,2.661,0.138,3.933,0.392c-3.538-5.634-9.789-9.392-16.933-9.392c-11.046,0-20,8.954-20,20
					c0,16.688-19.351,33.065-39.065,33.065c-4.134,0-8.089-0.769-11.74-2.161C240.389,406.178,249.23,410.5,259.066,410.5z"/>
				<path fill="#4E709C" d="M342,194.5c0-28.409-15.878-53.178-39.225-65.903C318.812,142.363,329,162.758,329,185.5
					c0,9.699,6.906,17.781,16.067,19.608C343.135,202.031,342,198.402,342,194.5z"/>
				<path fill="#71A3E3" d="M186.026,379.421l-33.689-181.267c-0.225-1.205-0.337-2.429-0.337-3.654c0-63.411,51.589-115,115-115
					c21.41,0,41.467,5.888,58.651,16.119C305.983,79.908,281.071,70.5,254,70.5c-63.411,0-115,51.589-115,115
					c0,1.226,0.112,2.449,0.337,3.654l33.689,181.267c0.721,26.892,16.05,50.198,38.318,62.278
					C196.304,419.694,186.596,400.682,186.026,379.421z"/>
			</g>
			<g>
				<defs>
					<path id="SVGID_1_" d="M326.633,339.726l-24.824-5.902c-3.891-0.925-6.296-4.83-5.37-8.721l23.873-100.405
						c0.925-3.891,4.83-6.296,8.721-5.37l24.824,5.902c3.891,0.925,6.296,4.83,5.37,8.721l-23.873,100.405
						C334.429,338.247,330.524,340.651,326.633,339.726z"/>
				</defs>
				<clipPath id="SVGID_2_">
					<use xlink:href="#SVGID_1_"  overflow="visible"/>
				</clipPath>
				
					<line clip-path="url(#SVGID_2_)" fill="none" stroke="#A6A6A6" stroke-width="10" stroke-miterlimit="10" x1="274.818" y1="255.5" x2="352" y2="412.833"/>
				
					<line clip-path="url(#SVGID_2_)" fill="none" stroke="#A6A6A6" stroke-width="10" stroke-miterlimit="10" x1="299.818" y1="230.5" x2="377" y2="387.833"/>
				
					<line clip-path="url(#SVGID_2_)" fill="none" stroke="#A6A6A6" stroke-width="10" stroke-miterlimit="10" x1="324.818" y1="205.5" x2="402" y2="362.833"/>
			</g>
		</g>
	</g>
	<g id="Swiss_knife">
	</g>
	<g id="flashlight">
	</g>
	<g id="lantern">
	</g>
	<g id="campfire">
	</g>
	<g id="beanie">
	</g>
	<g id="rope">
	</g>
	<g id="boot">
	</g>
	<g id="axe">
	</g>
</g>
<g id="hotel_1_">
	<g id="towel">
	</g>
	<g id="phone">
	</g>
	<g id="pool">
	</g>
	<g id="food_service">
	</g>
	<g id="wifi">
	</g>
	<g id="bed">
	</g>
	<g id="door">
	</g>
	<g id="key">
	</g>
	<g id="do_not_disturb">
	</g>
	<g id="bell">
	</g>
</g>
<g id="winter">
	<g id="snowman">
	</g>
	<g id="snow_mountain">
	</g>
	<g id="reindeer">
	</g>
	<g id="winter_tree">
	</g>
	<g id="lift">
	</g>
	<g id="beanie__x26__google">
	</g>
	<g id="ski">
	</g>
	<g id="snowboard">
	</g>
	<g id="snowboading">
	</g>
	<g id="skiing">
	</g>
</g>
<g id="general_travelling">
	<g id="dinner_set">
	</g>
	<g id="polaroid">
	</g>
	<g id="camera">
	</g>
	<g id="calendar">
	</g>
	<g id="calendar_single">
	</g>
	<g id="shopping_bag">
	</g>
	<g id="watch">
	</g>
	<g id="alarm_clock">
	</g>
	<g id="credit_card">
	</g>
	<g id="road_sign">
	</g>
	<g id="hotel">
	</g>
	<g id="money">
	</g>
	<g id="sunglass">
	</g>
	<g id="cocktail">
	</g>
	<g id="compass">
	</g>
	<g id="tent">
	</g>
	<g id="backpack">
	</g>
	<g id="map">
	</g>
	<g id="ticket_1_">
	</g>
	<g id="passport">
	</g>
	<g id="luggage">
	</g>
	<g id="globe">
	</g>
	<g id="suitcase">
	</g>
</g>
<g id="vehicles">
	<g id="trailer">
	</g>
	<g id="airplane">
	</g>
	<g id="yatch">
	</g>
	<g id="taxi">
	</g>
	<g id="hot_air_ballon">
	</g>
	<g id="bus">
	</g>
	<g id="train">
	</g>
</g>
<g id="summer">
	<g id="postcard">
	</g>
	<g id="bikini">
	</g>
	<g id="flipflop">
	</g>
	<g id="plane_around_the_globe">
	</g>
	<g id="binocular">
	</g>
	<g id="beach_table">
	</g>
	<g id="sun_hat">
	</g>
	<g id="beach_bag">
	</g>
	<g id="sea__x26__wave">
	</g>
	<g id="beach">
	</g>
	<g id="beach_ball">
	</g>
	<g id="jetski">
	</g>
	<g id="sandcastle">
	</g>
	<g id="lifeguard_male">
	</g>
	<g id="lifeguard_female">
	</g>
	<g id="lighthouse">
	</g>
	<g id="hammok">
	</g>
	<g id="beach_chair__x26__umbrella">
	</g>
	<g id="lifeguard">
	</g>
	<g id="suncream">
	</g>
	<g id="starfish">
	</g>
	<g id="beach_bar">
	</g>
	<g id="bucket__x26__shovel">
	</g>
	<g id="palm_tree">
	</g>
	<g id="shark_warning">
	</g>
	<g id="surfboard">
	</g>
	<g id="swimming_trunks">
	</g>
	<g id="coconut_drink">
	</g>
	<g id="beach_chair__x26__towel">
	</g>
	<g id="coconut_tree">
	</g>
</g>
</svg>
