<?xml version="1.0" encoding="utf-8"?>
<!-- Generator: Adobe Illustrator 17.0.0, SVG Export Plug-In . SVG Version: 6.00 Build 0)  -->
<!DOCTYPE svg PUBLIC "-//W3C//DTD SVG 1.1//EN" "http://www.w3.org/Graphics/SVG/1.1/DTD/svg11.dtd">
<svg version="1.1" xmlns="http://www.w3.org/2000/svg" xmlns:xlink="http://www.w3.org/1999/xlink" x="0px" y="0px" width="512px"
	 height="512px" viewBox="0 0 512 512" enable-background="new 0 0 512 512" xml:space="preserve">
<g id="famous_places">
	<g id="Pyramid">
	</g>
	<g id="Colloseum">
		<g>
			<path fill="#FF9B29" d="M203,110.914h9c0,0,52.948,72.403,143.948,87.128l-109.057-0.777L184,195.957v-85.043H203z"/>
			<path fill="#FF9B29" d="M429,239.806l-2.072-1.496c-7.36-5.317-23.164-15.788-46.31-26.185
				c-26.773-12.026-70.207-26.676-124.34-28.537L266,213.883v30.5l25,46v23.531h138V239.806z"/>
			<path fill="#5D5D5D" d="M374,288.914v-29.45c0-7.344,5.365-13.55,12.708-13.55h1.995c7.344,0,13.297,6.207,13.297,13.55v38.45"/>
			<path fill="#5D5D5D" d="M308,271.914v-38.601c0-9.59,7.441-17.399,17.031-17.399h2.605c9.59,0,17.364,7.809,17.364,17.399v38.601
				"/>
			<path fill="#FF9B29" d="M429,314.806l-2.072-1.496c-7.36-5.317-23.164-15.788-46.31-26.185
				c-23.683-10.638-60.453-23.332-106.035-27.41L291,290.383v98.531h138V314.806z"/>
			<path fill="#FFB561" d="M439,314.383c0,0-62.682-51.349-166.104-58.23l11.387,20.951C380.898,286.792,439,334.383,439,334.383
				V314.383z"/>
			<path fill="#5D5D5D" d="M367,388.914v-44.531c0-11.046,8.954-20.469,20-20.469h3c11.046,0,20,9.423,20,20.469v44.531"/>
			<path fill="#5D5D5D" d="M298,388.914v-52.839c0-13.085,11.092-24.161,24.364-24.161h3.605c13.272,0,24.031,11.076,24.031,24.161
				v52.839"/>
			<path fill="#FFB561" d="M439,240.383c0,0-69.621-57.034-183.178-58.94l6.641,20.175C372.087,205.568,439,260.383,439,260.383
				V240.383z"/>
			<g>
				<path fill="#FFB561" d="M72,172.522v73.392h131V124.612C137.751,133.651,91.848,159.419,72,172.522z"/>
				<path fill="#FFD161" d="M61,160.383v20c0,0,3.782-3.095,11-7.86c19.848-13.104,65.751-38.871,131-47.911v-5.005v-14.989
					C114.024,116.945,61,160.383,61,160.383z"/>
			</g>
			<path fill="#FFB561" d="M266,232.383v-30.5l-9.722-30.294c-0.46-0.016-0.79-0.038-1.252-0.052L251,171.411v-0.03l-0.5,0.015
				l-0.5-0.015v0.03l-4.151,0.125c-54.781,1.656-98.466,16.461-125.467,28.589c-23.146,10.396-38.949,20.867-46.31,26.185
				L72,227.806v74.109h178h1h40v-23.531L266,232.383z"/>
			<path fill="#FFB561" d="M274.583,247.715c-6.387-0.571-12.824-0.976-19.556-1.179L251,246.411v-0.03l-0.5,0.015l-0.5-0.015v0.03
				l-4.151,0.125c-54.781,1.656-98.466,16.461-125.467,28.589c-23.146,10.396-38.949,20.867-46.31,26.185L72,302.806v74.109h178h1
				h40v-98.531L274.583,247.715z"/>
			<path fill="#5D5D5D" d="M283,376.914V311.96c0-16.059-13.26-29.046-29.319-29.046h-4.362c-16.059,0-29.319,12.987-29.319,29.046
				v64.954"/>
			<path fill="#5D5D5D" d="M134,376.914v-44.531c0-11.046-8.954-20.469-20-20.469h-3c-11.046,0-20,9.423-20,20.469v44.531"/>
			<path fill="#5D5D5D" d="M193,259.914v-38.601c0-9.59-7.441-17.399-17.031-17.399h-2.605c-9.59,0-17.364,7.809-17.364,17.399
				v38.601"/>
			<path fill="#5D5D5D" d="M127,276.914v-29.45c0-7.344-5.365-13.55-12.708-13.55h-1.995c-7.344,0-13.297,6.207-13.297,13.55v38.45"
				/>
			<path fill="#5D5D5D" d="M138,201.914v-29.45c0-7.344-5.365-13.55-12.708-13.55h-1.995c-7.344,0-13.297,6.207-13.297,13.55v38.45"
				/>
			<path fill="#5D5D5D" d="M203,376.914v-52.839c0-13.085-11.092-24.161-24.364-24.161h-3.605
				c-13.272,0-24.031,11.076-24.031,24.161v52.839"/>
			<path fill="#FFD161" d="M251,243.391v-0.008c-0.168,0-0.333,0.004-0.5,0.004s-0.332-0.004-0.5-0.004v0.008
				c-116.407,0.336-188,58.992-188,58.992v20c0,0,71.797-58.828,188.5-58.996c11.726,0.017,22.991,0.634,33.783,1.717
				l-11.387-20.951C265.787,243.679,258.488,243.412,251,243.391z"/>
			<rect x="58" y="376.914" fill="#FF9B29" width="396" height="30"/>
			<rect x="46.333" y="377.383" fill="#FFD161" width="419.333" height="15"/>
			<path fill="#FFD161" d="M251,169.391v-0.008c-0.168,0-0.333,0.004-0.5,0.004s-0.332-0.004-0.5-0.004v0.008
				c-116.407,0.336-188,58.992-188,58.992v20c0,0,71.797-58.828,188.5-58.996c4.044,0.006,8.028,0.089,11.963,0.23l-6.641-20.175
				C254.222,169.416,252.617,169.396,251,169.391z"/>
		</g>
	</g>
	<g id="Mount_Fuji">
	</g>
	<g id="Great_Wall_of_China">
	</g>
	<g id="Stonehenge">
	</g>
	<g id="Golden_Gate_Bridge">
	</g>
	<g id="Christ_the_Redeemer">
	</g>
	<g id="Statue_of_Liberty">
	</g>
	<g id="Taj_Mahal">
	</g>
	<g id="Eiffel_tower">
	</g>
</g>
<g id="camping">
	<g id="mug">
	</g>
	<g id="hook">
	</g>
	<g id="Swiss_knife">
	</g>
	<g id="flashlight">
	</g>
	<g id="lantern">
	</g>
	<g id="campfire">
	</g>
	<g id="beanie">
	</g>
	<g id="rope">
	</g>
	<g id="boot">
	</g>
	<g id="axe">
	</g>
</g>
<g id="hotel_1_">
	<g id="towel">
	</g>
	<g id="phone">
	</g>
	<g id="pool">
	</g>
	<g id="food_service">
	</g>
	<g id="wifi">
	</g>
	<g id="bed">
	</g>
	<g id="door">
	</g>
	<g id="key">
	</g>
	<g id="do_not_disturb">
	</g>
	<g id="bell">
	</g>
</g>
<g id="winter">
	<g id="snowman">
	</g>
	<g id="snow_mountain">
	</g>
	<g id="reindeer">
	</g>
	<g id="winter_tree">
	</g>
	<g id="lift">
	</g>
	<g id="beanie__x26__google">
	</g>
	<g id="ski">
	</g>
	<g id="snowboard">
	</g>
	<g id="snowboading">
	</g>
	<g id="skiing">
	</g>
</g>
<g id="general_travelling">
	<g id="dinner_set">
	</g>
	<g id="polaroid">
	</g>
	<g id="camera">
	</g>
	<g id="calendar">
	</g>
	<g id="calendar_single">
	</g>
	<g id="shopping_bag">
	</g>
	<g id="watch">
	</g>
	<g id="alarm_clock">
	</g>
	<g id="credit_card">
	</g>
	<g id="road_sign">
	</g>
	<g id="hotel">
	</g>
	<g id="money">
	</g>
	<g id="sunglass">
	</g>
	<g id="cocktail">
	</g>
	<g id="compass">
	</g>
	<g id="tent">
	</g>
	<g id="backpack">
	</g>
	<g id="map">
	</g>
	<g id="ticket_1_">
	</g>
	<g id="passport">
	</g>
	<g id="luggage">
	</g>
	<g id="globe">
	</g>
	<g id="suitcase">
	</g>
</g>
<g id="vehicles">
	<g id="trailer">
	</g>
	<g id="airplane">
	</g>
	<g id="yatch">
	</g>
	<g id="taxi">
	</g>
	<g id="hot_air_ballon">
	</g>
	<g id="bus">
	</g>
	<g id="train">
	</g>
</g>
<g id="summer">
	<g id="postcard">
	</g>
	<g id="bikini">
	</g>
	<g id="flipflop">
	</g>
	<g id="plane_around_the_globe">
	</g>
	<g id="binocular">
	</g>
	<g id="beach_table">
	</g>
	<g id="sun_hat">
	</g>
	<g id="beach_bag">
	</g>
	<g id="sea__x26__wave">
	</g>
	<g id="beach">
	</g>
	<g id="beach_ball">
	</g>
	<g id="jetski">
	</g>
	<g id="sandcastle">
	</g>
	<g id="lifeguard_male">
	</g>
	<g id="lifeguard_female">
	</g>
	<g id="lighthouse">
	</g>
	<g id="hammok">
	</g>
	<g id="beach_chair__x26__umbrella">
	</g>
	<g id="lifeguard">
	</g>
	<g id="suncream">
	</g>
	<g id="starfish">
	</g>
	<g id="beach_bar">
	</g>
	<g id="bucket__x26__shovel">
	</g>
	<g id="palm_tree">
	</g>
	<g id="shark_warning">
	</g>
	<g id="surfboard">
	</g>
	<g id="swimming_trunks">
	</g>
	<g id="coconut_drink">
	</g>
	<g id="beach_chair__x26__towel">
	</g>
	<g id="coconut_tree">
	</g>
</g>
</svg>
