<?xml version="1.0" encoding="utf-8"?>
<!-- Generator: Adobe Illustrator 17.0.0, SVG Export Plug-In . SVG Version: 6.00 Build 0)  -->
<!DOCTYPE svg PUBLIC "-//W3C//DTD SVG 1.1//EN" "http://www.w3.org/Graphics/SVG/1.1/DTD/svg11.dtd">
<svg version="1.1" xmlns="http://www.w3.org/2000/svg" xmlns:xlink="http://www.w3.org/1999/xlink" x="0px" y="0px" width="512px"
	 height="512px" viewBox="0 0 512 512" enable-background="new 0 0 512 512" xml:space="preserve">
<g id="famous_places">
	<g id="Pyramid">
	</g>
	<g id="Colloseum">
	</g>
	<g id="Mount_Fuji">
	</g>
	<g id="Great_Wall_of_China">
	</g>
	<g id="Stonehenge">
	</g>
	<g id="Golden_Gate_Bridge">
	</g>
	<g id="Christ_the_Redeemer">
	</g>
	<g id="Statue_of_Liberty">
	</g>
	<g id="Taj_Mahal">
	</g>
	<g id="Eiffel_tower">
	</g>
</g>
<g id="camping">
	<g id="mug">
	</g>
	<g id="hook">
	</g>
	<g id="Swiss_knife">
	</g>
	<g id="flashlight">
	</g>
	<g id="lantern">
	</g>
	<g id="campfire">
	</g>
	<g id="beanie">
	</g>
	<g id="rope">
	</g>
	<g id="boot">
	</g>
	<g id="axe">
	</g>
</g>
<g id="hotel_1_">
	<g id="towel">
	</g>
	<g id="phone">
	</g>
	<g id="pool">
	</g>
	<g id="food_service">
	</g>
	<g id="wifi">
	</g>
	<g id="bed">
	</g>
	<g id="door">
	</g>
	<g id="key">
	</g>
	<g id="do_not_disturb">
	</g>
	<g id="bell">
	</g>
</g>
<g id="winter">
	<g id="snowman">
	</g>
	<g id="snow_mountain">
	</g>
	<g id="reindeer">
	</g>
	<g id="winter_tree">
	</g>
	<g id="lift">
	</g>
	<g id="beanie__x26__google">
	</g>
	<g id="ski">
	</g>
	<g id="snowboard">
	</g>
	<g id="snowboading">
	</g>
	<g id="skiing">
	</g>
</g>
<g id="general_travelling">
	<g id="dinner_set">
	</g>
	<g id="polaroid">
	</g>
	<g id="camera">
	</g>
	<g id="calendar">
	</g>
	<g id="calendar_single">
	</g>
	<g id="shopping_bag">
	</g>
	<g id="watch">
	</g>
	<g id="alarm_clock">
	</g>
	<g id="credit_card">
	</g>
	<g id="road_sign">
	</g>
	<g id="hotel">
	</g>
	<g id="money">
	</g>
	<g id="sunglass">
	</g>
	<g id="cocktail">
	</g>
	<g id="compass">
	</g>
	<g id="tent">
	</g>
	<g id="backpack">
	</g>
	<g id="map">
	</g>
	<g id="ticket_1_">
	</g>
	<g id="passport">
	</g>
	<g id="luggage">
	</g>
	<g id="globe">
	</g>
	<g id="suitcase">
	</g>
</g>
<g id="vehicles">
	<g id="trailer">
	</g>
	<g id="airplane">
	</g>
	<g id="yatch">
	</g>
	<g id="taxi">
	</g>
	<g id="hot_air_ballon">
	</g>
	<g id="bus">
	</g>
	<g id="train">
	</g>
</g>
<g id="summer">
	<g id="postcard">
	</g>
	<g id="bikini">
	</g>
	<g id="flipflop">
	</g>
	<g id="plane_around_the_globe">
	</g>
	<g id="binocular">
	</g>
	<g id="beach_table">
		<g>
			<g>
				<g>
					<path fill="#FFD161" d="M178.511,221.92c-0.793,0-1.55-0.454-1.901-1.223l-16.975-37.273l-15.302-6.912
						c-1.05-0.474-1.517-1.71-1.043-2.761c0.474-1.05,1.709-1.519,2.761-1.043l16.017,7.235c0.461,0.208,0.831,0.576,1.04,1.037
						l17.3,37.987c0.478,1.049,0.015,2.287-1.034,2.764C179.094,221.859,178.8,221.92,178.511,221.92z"/>
				</g>
				<g>
					<path fill="#FFD161" d="M333.489,221.92c0.793,0,1.55-0.454,1.901-1.223l16.975-37.273l15.302-6.912
						c1.05-0.474,1.517-1.71,1.043-2.761c-0.474-1.05-1.709-1.519-2.761-1.043l-16.017,7.235c-0.461,0.208-0.831,0.576-1.04,1.037
						l-17.3,37.987c-0.478,1.049-0.015,2.287,1.034,2.764C332.906,221.859,333.2,221.92,333.489,221.92z"/>
				</g>
				<path fill="#8A532D" d="M204.311,196.326l-40.894,18.412c-1.42,3.622-2.208,7.561-2.208,11.687
					c0,17.703,14.351,32.054,32.054,32.054s32.054-14.351,32.054-32.054C225.317,212.604,216.57,200.827,204.311,196.326z"/>
				<path fill="#6E4224" d="M204.311,196.326l-2.028,0.913c2.962,4.856,4.67,10.56,4.67,16.664
					c0,17.703-14.351,32.054-32.054,32.054c-2.671,0-5.263-0.332-7.743-0.947c5.812,8.149,15.336,13.469,26.108,13.469
					c17.703,0,32.054-14.351,32.054-32.054C225.317,212.604,216.57,200.827,204.311,196.326z"/>
				<path fill="#8A532D" d="M307.689,196.326l40.894,18.412c1.42,3.622,2.208,7.561,2.208,11.687
					c0,17.703-14.351,32.054-32.054,32.054c-17.703,0-32.054-14.351-32.054-32.054C286.683,212.604,295.43,200.827,307.689,196.326z
					"/>
				<path fill="#6E4224" d="M307.689,196.326l2.028,0.913c-2.962,4.856-4.67,10.56-4.67,16.664
					c0,17.703,14.351,32.054,32.054,32.054c2.671,0,5.263-0.332,7.743-0.947c-5.812,8.149-15.336,13.469-26.108,13.469
					c-17.703,0-32.054-14.351-32.054-32.054C286.683,212.604,295.43,200.827,307.689,196.326z"/>
			</g>
			<g>
				<g>
					<path fill="#8A532D" d="M186.063,422.932c-1.543,0-3.098-0.501-4.401-1.534c-3.072-2.433-3.588-6.896-1.155-9.967
						c25.577-32.283,36.139-66.267,31.392-101.007c-3.561-26.062-14.876-42.91-14.99-43.077c-2.203-3.233-1.378-7.646,1.85-9.856
						c3.225-2.211,7.63-1.4,9.848,1.823c0.533,0.774,13.097,19.287,17.249,48.455c3.813,26.789,0.972,68.047-34.227,112.475
						C190.229,422.011,188.156,422.932,186.063,422.932z"/>
				</g>
				<g>
					<g>
						<path fill="#8A532D" d="M326.092,422.932c-2.093,0-4.166-0.921-5.566-2.689c-35.199-44.428-38.041-85.686-34.227-112.475
							c4.153-29.167,16.716-47.681,17.249-48.455c2.222-3.228,6.638-4.043,9.868-1.82c3.224,2.22,4.04,6.63,1.828,9.856
							c-0.199,0.294-11.441,17.113-14.988,43.074c-4.747,34.74,5.816,68.724,31.392,101.007c2.433,3.072,1.917,7.534-1.155,9.967
							C329.19,422.43,327.635,422.932,326.092,422.932z"/>
					</g>
				</g>
				<g>
					<path fill="#8A532D" d="M198.759,258.067c-0.579,0.397-1.078,0.386-1.499,1.386h11.013
						C205.97,256.452,201.831,255.96,198.759,258.067z"/>
					<path fill="#6E4224" d="M208.273,258.92H197.26c-1.924,2.504-2.158,5.779-0.351,8.431c0.065,0.095,3.722,5.759,7.528,14.942
						h15.186c-4.984-14.191-10.661-22.461-11.016-22.975C208.502,259.165,208.388,258.92,208.273,258.92z"/>
					<path fill="#8A532D" d="M313.416,258.069c-3.077-2.118-7.226-1.617-9.533,1.383h11.025
						C314.488,258.452,313.992,258.466,313.416,258.069z"/>
					<path fill="#6E4224" d="M314.907,258.92h-11.025c-0.115,0-0.229,0.245-0.334,0.398c-0.355,0.515-6.032,8.785-11.016,22.975
						h15.185c3.781-9.182,7.415-14.773,7.527-14.939C317.061,264.704,316.832,261.424,314.907,258.92z"/>
				</g>
				<g>
					<path fill="#8A532D" d="M291.894,316.452h-72.623c-3.919,0-7.095-3.081-7.095-7s3.177-7,7.095-7h72.623
						c3.919,0,7.095,3.081,7.095,7S295.813,316.452,291.894,316.452z"/>
				</g>
				<path fill="#FFD161" d="M354.618,273.98H157.382c-6.476,0-11.726-5.25-11.726-11.726v0c0-6.476,5.25-11.726,11.726-11.726
					h197.235c6.476,0,11.726,5.25,11.726,11.726v0C366.343,268.73,361.094,273.98,354.618,273.98z"/>
			</g>
			<g>
				<g>
					<g>
						<path fill="#FFD161" d="M154,323.72v-5.926c0-4.195-3.428-7.341-7.622-7.341H72.431c-4.195,0-7.431,3.147-7.431,7.341v5.926
							c0,0.325-0.137,0.733-0.097,0.733h89.003C153.946,324.452,154,324.045,154,323.72z"/>
						<path fill="#FFB561" d="M64.903,324.452c0.472,4,3.659,7,7.528,7h73.947c3.87,0,7.057-3,7.528-7H64.903z"/>
					</g>
					<g>
						<g>
							<path fill="#8A532D" d="M50.89,422.932c-1.349,0-2.687-0.581-3.611-1.703c-1.638-1.992-1.354-4.933,0.634-6.574l0,0
								c0.097-0.08,9.803-8.192,17.481-21.461c10.051-17.37,12.088-35.035,6.055-52.503c-0.843-2.44,0.452-5.1,2.891-5.942
								c2.441-0.846,5.101,0.452,5.942,2.891c6.895,19.965,4.487,40.894-6.966,60.522c-8.536,14.629-19.018,23.342-19.46,23.706
								C52.986,422.583,51.935,422.932,50.89,422.932z"/>
						</g>
						<g>
							<path fill="#8A532D" d="M150.912,422.932c-1.045,0-2.097-0.349-2.967-1.065c-0.442-0.364-10.924-9.077-19.46-23.706
								c-11.452-19.628-13.861-40.556-6.966-60.522c0.842-2.44,3.503-3.737,5.942-2.891c2.44,0.842,3.734,3.503,2.891,5.942
								c-14.515,42.029,23.149,73.646,23.531,73.96c1.992,1.64,2.278,4.585,0.639,6.578
								C153.6,422.351,152.261,422.932,150.912,422.932z"/>
						</g>
					</g>
					<g>
						<path fill="#6E4224" d="M71.392,337.83c-0.271,0.905-0.275,1.899,0.057,2.861c0.899,2.603,1.615,5.21,2.155,7.821H83.1
							c-0.629-3.582-1.545-7.147-2.755-10.681H71.392z"/>
						<path fill="#6E4224" d="M130.353,340.69c0.332-0.961,0.328-1.955,0.057-2.861h-8.954c-1.21,3.535-2.126,7.099-2.755,10.681
							h9.506C128.731,345.949,129.438,343.34,130.353,340.69z"/>
					</g>
					<g>
						<path fill="#8A532D" d="M149.688,341.452H59.565c-2.54,0-4.728-1.598-5.234-4.087L30.967,222.371
							c-0.587-2.891,1.28-5.662,4.171-6.248c2.891-0.587,5.71,1.454,6.296,4.344l22.497,110.985h85.757c2.949,0,5.341,2.051,5.341,5
							S152.637,341.452,149.688,341.452z"/>
					</g>
				</g>
				<g>
					<g>
						<path fill="#FFD161" d="M358,323.72v-5.926c0-4.195,3.428-7.341,7.622-7.341h73.947c4.195,0,7.431,3.147,7.431,7.341v5.926
							c0,0.325,0.137,0.733,0.097,0.733h-89.003C358.054,324.452,358,324.045,358,323.72z"/>
						<path fill="#FFB561" d="M447.097,324.452c-0.472,4-3.659,7-7.528,7h-73.947c-3.87,0-7.057-3-7.528-7H447.097z"/>
					</g>
					<g>
						<g>
							<path fill="#8A532D" d="M461.11,422.932c1.349,0,2.687-0.581,3.611-1.703c1.638-1.992,1.354-4.933-0.634-6.574l0,0
								c-0.097-0.08-9.803-8.192-17.481-21.461c-10.051-17.37-12.088-35.035-6.055-52.503c0.843-2.44-0.452-5.1-2.891-5.942
								c-2.441-0.846-5.101,0.452-5.942,2.891c-6.895,19.965-4.487,40.894,6.966,60.522c8.536,14.629,19.018,23.342,19.46,23.706
								C459.014,422.583,460.065,422.932,461.11,422.932z"/>
						</g>
						<g>
							<path fill="#8A532D" d="M361.088,422.932c1.045,0,2.097-0.349,2.967-1.065c0.442-0.364,10.924-9.077,19.46-23.706
								c11.452-19.628,13.861-40.556,6.966-60.522c-0.842-2.44-3.503-3.737-5.942-2.891c-2.44,0.842-3.734,3.503-2.891,5.942
								c14.515,42.029-23.149,73.646-23.531,73.96c-1.992,1.64-2.279,4.585-0.639,6.578
								C358.4,422.351,359.739,422.932,361.088,422.932z"/>
						</g>
					</g>
					<g>
						<path fill="#6E4224" d="M440.608,337.83c0.271,0.905,0.275,1.899-0.057,2.861c-0.899,2.603-1.615,5.21-2.155,7.821H428.9
							c0.629-3.582,1.545-7.147,2.755-10.681H440.608z"/>
						<path fill="#6E4224" d="M381.647,340.69c-0.332-0.961-0.328-1.955-0.057-2.861h8.954c1.21,3.535,2.126,7.099,2.755,10.681
							h-9.506C383.269,345.949,382.562,343.34,381.647,340.69z"/>
					</g>
					<g>
						<path fill="#8A532D" d="M362.312,341.452h90.123c2.54,0,4.728-1.598,5.234-4.087l23.365-114.995
							c0.587-2.891-1.28-5.662-4.171-6.248c-2.891-0.587-5.71,1.454-6.296,4.344l-22.497,110.985h-85.757
							c-2.949,0-5.341,2.051-5.341,5S359.363,341.452,362.312,341.452z"/>
					</g>
				</g>
			</g>
		</g>
	</g>
	<g id="sun_hat">
	</g>
	<g id="beach_bag">
	</g>
	<g id="sea__x26__wave">
	</g>
	<g id="beach">
	</g>
	<g id="beach_ball">
	</g>
	<g id="jetski">
	</g>
	<g id="sandcastle">
	</g>
	<g id="lifeguard_male">
	</g>
	<g id="lifeguard_female">
	</g>
	<g id="lighthouse">
	</g>
	<g id="hammok">
	</g>
	<g id="beach_chair__x26__umbrella">
	</g>
	<g id="lifeguard">
	</g>
	<g id="suncream">
	</g>
	<g id="starfish">
	</g>
	<g id="beach_bar">
	</g>
	<g id="bucket__x26__shovel">
	</g>
	<g id="palm_tree">
	</g>
	<g id="shark_warning">
	</g>
	<g id="surfboard">
	</g>
	<g id="swimming_trunks">
	</g>
	<g id="coconut_drink">
	</g>
	<g id="beach_chair__x26__towel">
	</g>
	<g id="coconut_tree">
	</g>
</g>
</svg>
