<?xml version="1.0" encoding="utf-8"?>
<!-- Generator: Adobe Illustrator 17.0.0, SVG Export Plug-In . SVG Version: 6.00 Build 0)  -->
<!DOCTYPE svg PUBLIC "-//W3C//DTD SVG 1.1//EN" "http://www.w3.org/Graphics/SVG/1.1/DTD/svg11.dtd">
<svg version="1.1" xmlns="http://www.w3.org/2000/svg" xmlns:xlink="http://www.w3.org/1999/xlink" x="0px" y="0px" width="512px"
	 height="512px" viewBox="0 0 512 512" enable-background="new 0 0 512 512" xml:space="preserve">
<g id="famous_places">
	<g id="Pyramid">
	</g>
	<g id="Colloseum">
	</g>
	<g id="Mount_Fuji">
	</g>
	<g id="Great_Wall_of_China">
	</g>
	<g id="Stonehenge">
	</g>
	<g id="Golden_Gate_Bridge">
	</g>
	<g id="Christ_the_Redeemer">
	</g>
	<g id="Statue_of_Liberty">
	</g>
	<g id="Taj_Mahal">
		<g>
			<g>
				<path fill="#FFD161" d="M255.61,211.152c-1.301,29.666-60.633,18.736-60.633,65.577s121.266,46.841,121.266,0
					S257.171,240.817,255.61,211.152z"/>
				<polygon fill="#FFB561" points="305.963,315.242 206.037,315.242 215.48,303.792 295.855,303.792 				"/>
			</g>
		</g>
		<rect x="206.427" y="314.618" fill="#FF9B29" width="99.146" height="40.699"/>
		<polygon fill="#FFD161" points="300.889,346.209 300.889,330.595 261.074,330.595 250.926,330.595 211.111,330.595 
			211.111,346.209 168.954,346.209 168.954,450.82 250.926,450.82 261.074,450.82 343.046,450.82 343.046,346.209 		"/>
		<polygon fill="#FFB561" points="140.069,326.692 152.56,326.692 152.56,346.209 168.954,346.209 168.954,450.82 140.069,450.82 		
			"/>
		<g>
			<rect x="180.404" y="357.919" fill="#FFB561" width="27.974" height="42.157"/>
			<path fill="#5D5D5D" d="M202.458,369.337c-3.123-1.561-7.986-5.758-7.986-5.758s-4.66,4.196-7.782,5.758
				c-3.123,1.561-3.684,4.586-3.684,9.856c0,5.27,0,20.883,0,20.883h23.42c0,0,0-15.614,0-20.883
				C206.427,373.923,205.581,370.898,202.458,369.337z"/>
		</g>
		<g>
			<rect x="180.404" y="408.663" fill="#FFB561" width="27.974" height="42.157"/>
			<path fill="#5D5D5D" d="M202.458,420.081c-3.123-1.561-7.986-5.758-7.986-5.758s-4.66,4.196-7.782,5.758
				c-3.123,1.561-3.684,4.586-3.684,9.856s0,20.883,0,20.883h23.42c0,0,0-15.614,0-20.883S205.581,421.642,202.458,420.081z"/>
		</g>
		<g>
			<rect x="145.274" y="357.919" fill="#FF9B29" width="17.956" height="42.157"/>
			<path fill="#5D5D5D" d="M159.405,369.337c-2.004-1.561-5.114-5.758-5.114-5.758s-2.909,4.196-4.914,5.758
				c-2.004,1.561-2.283,4.586-2.283,9.856c0,5.27,0,20.883,0,20.883h14.833c0,0,0-15.614,0-20.883
				C161.928,373.923,161.41,370.898,159.405,369.337z"/>
		</g>
		<g>
			<rect x="145.274" y="408.663" fill="#FF9B29" width="17.956" height="42.157"/>
			<path fill="#5D5D5D" d="M159.405,420.081c-2.004-1.561-5.114-5.758-5.114-5.758s-2.909,4.196-4.914,5.758
				c-2.004,1.561-2.283,4.586-2.283,9.856s0,20.883,0,20.883h14.833c0,0,0-15.614,0-20.883S161.41,421.642,159.405,420.081z"/>
		</g>
		<polygon fill="#FFB561" points="371.931,326.692 359.44,326.692 359.44,346.209 343.046,346.209 343.046,450.82 371.931,450.82 		
			"/>
		<g>
			<rect x="303.621" y="357.919" fill="#FFB561" width="27.974" height="42.157"/>
			<path fill="#5D5D5D" d="M309.542,369.337c3.123-1.561,7.986-5.758,7.986-5.758s4.66,4.196,7.782,5.758
				c3.123,1.561,3.684,4.586,3.684,9.856c0,5.27,0,20.883,0,20.883h-23.42c0,0,0-15.614,0-20.883
				C305.573,373.923,306.419,370.898,309.542,369.337z"/>
		</g>
		<g>
			<rect x="303.621" y="408.663" fill="#FFB561" width="27.974" height="42.157"/>
			<path fill="#5D5D5D" d="M309.542,420.081c3.123-1.561,7.986-5.758,7.986-5.758s4.66,4.196,7.782,5.758
				c3.123,1.561,3.684,4.586,3.684,9.856s0,20.883,0,20.883h-23.42c0,0,0-15.614,0-20.883S306.419,421.642,309.542,420.081z"/>
		</g>
		<g>
			<rect x="348.771" y="357.919" fill="#FF9B29" width="17.956" height="42.157"/>
			<path fill="#5D5D5D" d="M352.595,369.337c2.004-1.561,5.114-5.758,5.114-5.758s2.909,4.196,4.914,5.758
				c2.004,1.561,2.283,4.586,2.283,9.856c0,5.27,0,20.883,0,20.883h-14.833c0,0,0-15.614,0-20.883
				C350.072,373.923,350.59,370.898,352.595,369.337z"/>
		</g>
		<g>
			<rect x="348.771" y="408.663" fill="#FF9B29" width="17.956" height="42.157"/>
			<path fill="#5D5D5D" d="M352.595,420.081c2.004-1.561,5.114-5.758,5.114-5.758s2.909,4.196,4.914,5.758
				c2.004,1.561,2.283,4.586,2.283,9.856s0,20.883,0,20.883h-14.833c0,0,0-15.614,0-20.883S350.59,421.642,352.595,420.081z"/>
		</g>
		<g>
			<rect x="221.291" y="346.209" fill="#FFB561" width="69.418" height="104.611"/>
			<path fill="#5D5D5D" d="M236.277,374.541c7.749-3.874,19.669-14.287,19.669-14.287s11.611,10.413,19.36,14.287
				c7.749,3.874,9.189,11.381,9.189,24.458s0,51.821,0,51.821h-57.77c0,0,0-38.745,0-51.821S228.528,378.416,236.277,374.541z"/>
		</g>
		<g>
			<g>
				<g>
					<g>
						<path fill="#FFD161" d="M184.568,287.292c-0.379,8.642-17.662,5.831-17.662,19.102c0,13.272,35.324,13.272,35.324,0
							C202.23,293.123,185.023,295.934,184.568,287.292z"/>
						<polygon fill="#FF9B29" points="199.236,317.584 170.127,317.584 172.878,314.249 196.291,314.249 						"/>
					</g>
				</g>
				<path fill="#FFB561" d="M170.516,317.324v28.885h2.342c0,0,0-9.173,0-12.269c0-3.096,0.403-4.873,1.059-5.79
					c0.655-0.918,1.919-3.383,1.919-3.383s1.013,2.465,1.669,3.383c0.655,0.917,0.818,2.695,0.818,5.79c0,3.096,0,12.269,0,12.269
					h2.342c0,0,0-9.173,0-12.269c0-3.096,0.501-4.873,1.385-5.79c0.885-0.918,2.547-3.383,2.547-3.383s1.28,2.465,2.165,3.383
					c0.885,0.917,0.929,2.695,0.929,5.79c0,3.096,0,12.269,0,12.269h3.123c0,0,0-9.173,0-12.269c0-3.096,0.163-4.873,0.818-5.79
					c0.655-0.918,1.669-3.383,1.669-3.383s1.263,2.465,1.919,3.383c0.655,0.917,1.059,2.695,1.059,5.79c0,3.096,0,12.269,0,12.269
					h2.342v-28.885H170.516z"/>
			</g>
			<g>
				<g>
					<g>
						<path fill="#FFD161" d="M326.651,287.292c-0.379,8.642-17.662,5.831-17.662,19.102c0,13.272,35.324,13.272,35.324,0
							C344.314,293.123,327.106,295.934,326.651,287.292z"/>
						<polygon fill="#FF9B29" points="341.319,317.584 312.211,317.584 314.962,314.249 338.375,314.249 						"/>
					</g>
				</g>
				<path fill="#FFB561" d="M312.599,317.324v28.885h2.342c0,0,0-9.173,0-12.269c0-3.096,0.403-4.873,1.059-5.79
					c0.655-0.918,1.919-3.383,1.919-3.383s1.013,2.465,1.669,3.383c0.655,0.917,0.818,2.695,0.818,5.79c0,3.096,0,12.269,0,12.269
					h2.342c0,0,0-9.173,0-12.269c0-3.096,0.501-4.873,1.385-5.79c0.885-0.918,2.547-3.383,2.547-3.383s1.28,2.465,2.165,3.383
					c0.885,0.917,0.929,2.695,0.929,5.79c0,3.096,0,12.269,0,12.269h3.123c0,0,0-9.173,0-12.269c0-3.096,0.163-4.873,0.818-5.79
					c0.655-0.918,1.669-3.383,1.669-3.383s1.263,2.465,1.919,3.383c0.655,0.917,1.059,2.695,1.059,5.79c0,3.096,0,12.269,0,12.269
					h2.342v-28.885H312.599z"/>
			</g>
		</g>
		<rect x="140.069" y="314.618" fill="#FFB561" width="1.952" height="27.687"/>
		<rect x="140.069" y="314.618" fill="#FFB561" width="1.952" height="27.687"/>
		<rect x="150.543" y="314.618" fill="#FFB561" width="1.952" height="27.687"/>
		<rect x="162.253" y="324.767" fill="#FFB561" width="1.952" height="27.687"/>
		<rect x="369.979" y="314.618" fill="#FFB561" width="1.952" height="27.687"/>
		<rect x="369.979" y="314.618" fill="#FFB561" width="1.952" height="27.687"/>
		<rect x="359.505" y="314.618" fill="#FFB561" width="1.952" height="27.687"/>
		<rect x="347.795" y="324.767" fill="#FFB561" width="1.952" height="27.687"/>
		<polygon fill="#FFB561" points="127.969,463.311 100.645,463.311 108.452,324.767 120.162,324.767 		"/>
		<rect x="98.108" y="421.154" fill="#FFD161" width="32.398" height="5.074"/>
		<rect x="100.645" y="373.923" fill="#FFD161" width="27.324" height="5.074"/>
		<g>
			<g>
				<g>
					<path fill="#FFD161" d="M113.819,294.638c-0.218,4.965-10.148,3.169-10.148,10.976c0,7.026,20.296,7.026,20.296,0
						C123.967,297.807,114.08,299.603,113.819,294.638z"/>
					<polygon fill="#FF9B29" points="122.247,311.806 105.522,311.806 107.102,309.89 120.555,309.89 					"/>
				</g>
			</g>
			<path fill="#FFB561" d="M105.719,311.859v16.394h1.561c0,0,0-5.271,0-7.049c0-1.779,0.137-2.8,0.513-3.327
				c0.377-0.527,1.055-1.944,1.055-1.944s0.645,1.416,1.022,1.944c0.377,0.527,0.533,1.548,0.533,3.327c0,1.779,0,7.049,0,7.049
				h1.561c0,0,0-5.271,0-7.049c0-1.779,0.093-2.8,0.602-3.327c0.508-0.527,1.366-1.944,1.366-1.944s0.815,1.416,1.323,1.944
				c0.508,0.527,0.613,1.548,0.613,3.327c0,1.779,0,7.049,0,7.049h1.561c0,0,0-5.271,0-7.049c0-1.779,0.083-2.8,0.459-3.327
				c0.377-0.527,0.953-1.944,0.953-1.944s0.726,1.416,1.102,1.944c0.377,0.527,0.608,1.548,0.608,3.327c0,1.779,0,7.049,0,7.049
				h1.561v-16.394H105.719z"/>
		</g>
		<rect x="104.494" y="324.155" fill="#FFD161" width="19.625" height="5.074"/>
		<polygon fill="#FFB561" points="87.058,463.311 51.451,463.311 61.624,282.766 76.884,282.766 		"/>
		<rect x="48.144" y="408.374" fill="#FFD161" width="42.22" height="6.613"/>
		<rect x="51.451" y="346.825" fill="#FFD161" width="35.607" height="6.613"/>
		<g>
			<g>
				<g>
					<path fill="#FFD161" d="M69.254,243.689c-0.284,6.47-13.225,4.154-13.225,14.303c0,8.587,26.449,8.587,26.449,0
						C82.479,247.843,69.595,250.16,69.254,243.689z"/>
					<polygon fill="#FF9B29" points="80.237,265.877 58.442,265.877 60.502,263.379 78.032,263.379 					"/>
				</g>
			</g>
			<path fill="#FFB561" d="M58.879,265.799v21.859h2.342c0,0,0-7.217,0-9.535c0-2.318-0.065-3.649,0.425-4.335
				c0.491-0.687,1.253-2.533,1.253-2.533s0.94,1.846,1.431,2.533c0.491,0.687,0.794,2.018,0.794,4.335c0,2.318,0,9.535,0,9.535
				h1.561c0,0,0-7.217,0-9.535c0-2.318,0.198-3.649,0.86-4.335c0.662-0.687,1.818-2.533,1.818-2.533s1.193,1.846,1.856,2.533
				c0.662,0.687,0.93,2.018,0.93,4.335c0,2.318,0,9.535,0,9.535h2.342c0,0,0-7.217,0-9.535c0-2.318-0.159-3.649,0.332-4.335
				c0.491-0.687,1.109-2.533,1.109-2.533s1.062,1.846,1.553,2.533c0.491,0.687,0.909,2.018,0.909,4.335c0,2.318,0,9.535,0,9.535
				h1.561v-21.859H58.879z"/>
		</g>
		<rect x="56.467" y="281.969" fill="#FFD161" width="25.575" height="6.613"/>
		
			<line fill="none" stroke="#FFD161" stroke-width="4" stroke-linecap="round" stroke-linejoin="round" stroke-miterlimit="10" x1="69.808" y1="249.405" x2="69.808" y2="218.958"/>
		
			<line fill="none" stroke="#FFD161" stroke-width="4" stroke-linecap="round" stroke-linejoin="round" stroke-miterlimit="10" x1="114.307" y1="301.71" x2="114.307" y2="273.606"/>
		<polygon fill="#FFB561" points="384.031,463.311 411.355,463.311 403.548,324.767 391.838,324.767 		"/>
		<rect x="381.494" y="421.154" fill="#FFD161" width="32.398" height="5.074"/>
		<rect x="384.031" y="373.923" fill="#FFD161" width="27.324" height="5.074"/>
		<g>
			<g>
				<g>
					<path fill="#FFD161" d="M398.181,294.638c0.218,4.965,10.148,3.169,10.148,10.976c0,7.026-20.296,7.026-20.296,0
						C388.033,297.807,397.92,299.603,398.181,294.638z"/>
					<polygon fill="#FF9B29" points="389.753,311.806 406.478,311.806 404.898,309.89 391.445,309.89 					"/>
				</g>
			</g>
			<path fill="#FFB561" d="M406.281,311.859v16.394h-1.561c0,0,0-5.271,0-7.049c0-1.779-0.137-2.8-0.513-3.327
				c-0.377-0.527-1.055-1.944-1.055-1.944s-0.645,1.416-1.022,1.944c-0.377,0.527-0.533,1.548-0.533,3.327c0,1.779,0,7.049,0,7.049
				h-1.561c0,0,0-5.271,0-7.049c0-1.779-0.093-2.8-0.602-3.327c-0.508-0.527-1.366-1.944-1.366-1.944s-0.815,1.416-1.323,1.944
				c-0.508,0.527-0.613,1.548-0.613,3.327c0,1.779,0,7.049,0,7.049h-1.561c0,0,0-5.271,0-7.049c0-1.779-0.083-2.8-0.459-3.327
				c-0.377-0.527-0.953-1.944-0.953-1.944s-0.726,1.416-1.102,1.944c-0.377,0.527-0.608,1.548-0.608,3.327c0,1.779,0,7.049,0,7.049
				h-1.561v-16.394H406.281z"/>
		</g>
		<rect x="387.881" y="324.155" fill="#FFD161" width="19.625" height="5.074"/>
		<polygon fill="#FFB561" points="424.942,463.311 460.549,463.311 450.376,282.766 435.116,282.766 		"/>
		<rect x="421.636" y="408.374" fill="#FFD161" width="42.22" height="6.613"/>
		<rect x="424.942" y="346.825" fill="#FFD161" width="35.607" height="6.613"/>
		<g>
			<g>
				<g>
					<path fill="#FFD161" d="M442.746,243.689c0.284,6.47,13.225,4.154,13.225,14.303c0,8.587-26.449,8.587-26.449,0
						C429.521,247.843,442.405,250.16,442.746,243.689z"/>
					<polygon fill="#FF9B29" points="431.763,265.877 453.558,265.877 451.498,263.379 433.968,263.379 					"/>
				</g>
			</g>
			<path fill="#FFB561" d="M453.121,265.799v21.859h-2.342c0,0,0-7.217,0-9.535c0-2.318,0.065-3.649-0.425-4.335
				c-0.491-0.687-1.253-2.533-1.253-2.533s-0.94,1.846-1.431,2.533c-0.491,0.687-0.794,2.018-0.794,4.335c0,2.318,0,9.535,0,9.535
				h-1.561c0,0,0-7.217,0-9.535c0-2.318-0.198-3.649-0.86-4.335c-0.662-0.687-1.818-2.533-1.818-2.533s-1.193,1.846-1.856,2.533
				c-0.663,0.687-0.93,2.018-0.93,4.335c0,2.318,0,9.535,0,9.535h-2.342c0,0,0-7.217,0-9.535c0-2.318,0.159-3.649-0.332-4.335
				c-0.491-0.687-1.109-2.533-1.109-2.533s-1.062,1.846-1.553,2.533c-0.491,0.687-0.909,2.018-0.909,4.335c0,2.318,0,9.535,0,9.535
				h-1.561v-21.859H453.121z"/>
		</g>
		<rect x="429.958" y="281.969" fill="#FFD161" width="25.575" height="6.613"/>
		
			<line fill="none" stroke="#FFD161" stroke-width="4" stroke-linecap="round" stroke-linejoin="round" stroke-miterlimit="10" x1="442.192" y1="249.405" x2="442.192" y2="218.958"/>
		
			<line fill="none" stroke="#FFD161" stroke-width="4" stroke-linecap="round" stroke-linejoin="round" stroke-miterlimit="10" x1="397.693" y1="301.71" x2="397.693" y2="273.606"/>
		
			<line fill="none" stroke="#FFD161" stroke-width="6" stroke-linecap="round" stroke-linejoin="round" stroke-miterlimit="10" x1="255.61" y1="234.572" x2="255.61" y2="177.582"/>
		<rect x="43.807" y="455.114" fill="#FFB561" width="424.387" height="19.127"/>
		<rect x="39.752" y="449.649" fill="#FFD161" width="432.496" height="7.416"/>
	</g>
	<g id="Eiffel_tower">
	</g>
</g>
<g id="camping">
	<g id="mug">
	</g>
	<g id="hook">
	</g>
	<g id="Swiss_knife">
	</g>
	<g id="flashlight">
	</g>
	<g id="lantern">
	</g>
	<g id="campfire">
	</g>
	<g id="beanie">
	</g>
	<g id="rope">
	</g>
	<g id="boot">
	</g>
	<g id="axe">
	</g>
</g>
<g id="hotel_1_">
	<g id="towel">
	</g>
	<g id="phone">
	</g>
	<g id="pool">
	</g>
	<g id="food_service">
	</g>
	<g id="wifi">
	</g>
	<g id="bed">
	</g>
	<g id="door">
	</g>
	<g id="key">
	</g>
	<g id="do_not_disturb">
	</g>
	<g id="bell">
	</g>
</g>
<g id="winter">
	<g id="snowman">
	</g>
	<g id="snow_mountain">
	</g>
	<g id="reindeer">
	</g>
	<g id="winter_tree">
	</g>
	<g id="lift">
	</g>
	<g id="beanie__x26__google">
	</g>
	<g id="ski">
	</g>
	<g id="snowboard">
	</g>
	<g id="snowboading">
	</g>
	<g id="skiing">
	</g>
</g>
<g id="general_travelling">
	<g id="dinner_set">
	</g>
	<g id="polaroid">
	</g>
	<g id="camera">
	</g>
	<g id="calendar">
	</g>
	<g id="calendar_single">
	</g>
	<g id="shopping_bag">
	</g>
	<g id="watch">
	</g>
	<g id="alarm_clock">
	</g>
	<g id="credit_card">
	</g>
	<g id="road_sign">
	</g>
	<g id="hotel">
	</g>
	<g id="money">
	</g>
	<g id="sunglass">
	</g>
	<g id="cocktail">
	</g>
	<g id="compass">
	</g>
	<g id="tent">
	</g>
	<g id="backpack">
	</g>
	<g id="map">
	</g>
	<g id="ticket_1_">
	</g>
	<g id="passport">
	</g>
	<g id="luggage">
	</g>
	<g id="globe">
	</g>
	<g id="suitcase">
	</g>
</g>
<g id="vehicles">
	<g id="trailer">
	</g>
	<g id="airplane">
	</g>
	<g id="yatch">
	</g>
	<g id="taxi">
	</g>
	<g id="hot_air_ballon">
	</g>
	<g id="bus">
	</g>
	<g id="train">
	</g>
</g>
<g id="summer">
	<g id="postcard">
	</g>
	<g id="bikini">
	</g>
	<g id="flipflop">
	</g>
	<g id="plane_around_the_globe">
	</g>
	<g id="binocular">
	</g>
	<g id="beach_table">
	</g>
	<g id="sun_hat">
	</g>
	<g id="beach_bag">
	</g>
	<g id="sea__x26__wave">
	</g>
	<g id="beach">
	</g>
	<g id="beach_ball">
	</g>
	<g id="jetski">
	</g>
	<g id="sandcastle">
	</g>
	<g id="lifeguard_male">
	</g>
	<g id="lifeguard_female">
	</g>
	<g id="lighthouse">
	</g>
	<g id="hammok">
	</g>
	<g id="beach_chair__x26__umbrella">
	</g>
	<g id="lifeguard">
	</g>
	<g id="suncream">
	</g>
	<g id="starfish">
	</g>
	<g id="beach_bar">
	</g>
	<g id="bucket__x26__shovel">
	</g>
	<g id="palm_tree">
	</g>
	<g id="shark_warning">
	</g>
	<g id="surfboard">
	</g>
	<g id="swimming_trunks">
	</g>
	<g id="coconut_drink">
	</g>
	<g id="beach_chair__x26__towel">
	</g>
	<g id="coconut_tree">
	</g>
</g>
</svg>
