<?xml version="1.0" encoding="utf-8"?>
<!-- Generator: Adobe Illustrator 17.0.0, SVG Export Plug-In . SVG Version: 6.00 Build 0)  -->
<!DOCTYPE svg PUBLIC "-//W3C//DTD SVG 1.1//EN" "http://www.w3.org/Graphics/SVG/1.1/DTD/svg11.dtd">
<svg version="1.1" xmlns="http://www.w3.org/2000/svg" xmlns:xlink="http://www.w3.org/1999/xlink" x="0px" y="0px" width="512px"
	 height="512px" viewBox="0 0 512 512" enable-background="new 0 0 512 512" xml:space="preserve">
<g id="famous_places">
	<g id="Pyramid">
	</g>
	<g id="Colloseum">
	</g>
	<g id="Mount_Fuji">
	</g>
	<g id="Great_Wall_of_China">
	</g>
	<g id="Stonehenge">
	</g>
	<g id="Golden_Gate_Bridge">
	</g>
	<g id="Christ_the_Redeemer">
	</g>
	<g id="Statue_of_Liberty">
	</g>
	<g id="Taj_Mahal">
	</g>
	<g id="Eiffel_tower">
	</g>
</g>
<g id="camping">
	<g id="mug">
	</g>
	<g id="hook">
	</g>
	<g id="Swiss_knife">
	</g>
	<g id="flashlight">
	</g>
	<g id="lantern">
	</g>
	<g id="campfire">
	</g>
	<g id="beanie">
	</g>
	<g id="rope">
	</g>
	<g id="boot">
	</g>
	<g id="axe">
	</g>
</g>
<g id="hotel_1_">
	<g id="towel">
	</g>
	<g id="phone">
	</g>
	<g id="pool">
	</g>
	<g id="food_service">
	</g>
	<g id="wifi">
	</g>
	<g id="bed">
	</g>
	<g id="door">
	</g>
	<g id="key">
	</g>
	<g id="do_not_disturb">
	</g>
	<g id="bell">
	</g>
</g>
<g id="winter">
	<g id="snowman">
	</g>
	<g id="snow_mountain">
	</g>
	<g id="reindeer">
	</g>
	<g id="winter_tree">
	</g>
	<g id="lift">
	</g>
	<g id="beanie__x26__google">
	</g>
	<g id="ski">
	</g>
	<g id="snowboard">
	</g>
	<g id="snowboading">
	</g>
	<g id="skiing">
	</g>
</g>
<g id="general_travelling">
	<g id="dinner_set">
	</g>
	<g id="polaroid">
	</g>
	<g id="camera">
	</g>
	<g id="calendar">
	</g>
	<g id="calendar_single">
	</g>
	<g id="shopping_bag">
	</g>
	<g id="watch">
	</g>
	<g id="alarm_clock">
	</g>
	<g id="credit_card">
	</g>
	<g id="road_sign">
	</g>
	<g id="hotel">
	</g>
	<g id="money">
	</g>
	<g id="sunglass">
	</g>
	<g id="cocktail">
	</g>
	<g id="compass">
	</g>
	<g id="tent">
	</g>
	<g id="backpack">
	</g>
	<g id="map">
	</g>
	<g id="ticket_1_">
	</g>
	<g id="passport">
	</g>
	<g id="luggage">
	</g>
	<g id="globe">
	</g>
	<g id="suitcase">
	</g>
</g>
<g id="vehicles">
	<g id="trailer">
	</g>
	<g id="airplane">
	</g>
	<g id="yatch">
	</g>
	<g id="taxi">
	</g>
	<g id="hot_air_ballon">
	</g>
	<g id="bus">
	</g>
	<g id="train">
	</g>
</g>
<g id="summer">
	<g id="postcard">
	</g>
	<g id="bikini">
	</g>
	<g id="flipflop">
	</g>
	<g id="plane_around_the_globe">
	</g>
	<g id="binocular">
	</g>
	<g id="beach_table">
	</g>
	<g id="sun_hat">
	</g>
	<g id="beach_bag">
	</g>
	<g id="sea__x26__wave">
	</g>
	<g id="beach">
	</g>
	<g id="beach_ball">
	</g>
	<g id="jetski">
	</g>
	<g id="sandcastle">
	</g>
	<g id="lifeguard_male">
	</g>
	<g id="lifeguard_female">
	</g>
	<g id="lighthouse">
	</g>
	<g id="hammok">
	</g>
	<g id="beach_chair__x26__umbrella">
	</g>
	<g id="lifeguard">
	</g>
	<g id="suncream">
	</g>
	<g id="starfish">
	</g>
	<g id="beach_bar">
	</g>
	<g id="bucket__x26__shovel">
	</g>
	<g id="palm_tree">
	</g>
	<g id="shark_warning">
	</g>
	<g id="surfboard">
		<g>
			<path fill="#A6A6A6" d="M322.281,300.547c14.297-197.562-12.757-235.79-27.041-237.969
				c-14.283-2.178-51.503,26.248-96.746,219.09c-45.243,192.843,34.302,190.359,34.302,190.359S307.984,498.109,322.281,300.547z"/>
			<path fill="#E3E3E3" d="M323.374,293.379c14.297-197.562-12.757-235.79-27.041-237.969
				c-14.283-2.178-51.503,26.248-96.746,219.09c-45.244,192.843,34.302,190.359,34.302,190.359S309.078,490.941,323.374,293.379z
				 M236.249,449.385c-6.144-0.937-10.366-6.678-9.429-12.822c0.937-6.144,6.678-10.366,12.822-9.429
				c6.144,0.937,10.366,6.678,9.429,12.822C248.134,446.1,242.393,450.322,236.249,449.385z"/>
			<path fill="#FF6650" d="M296.334,55.41c-9.518-1.452-29.222,10.704-54.698,76.036l84.245,12.848
				C321.037,74.338,305.852,56.862,296.334,55.41z"/>
			<path fill="#2FB49F" d="M293.515,321.909c-18.489-2.82-13.978-32.401-32.466-35.22c-18.488-2.82-22.999,26.761-41.487,23.942
				c-13.586-2.072-14.76-18.587-21.76-28.322c-4.457,19.964-7.53,37.743-9.469,53.58c8,9.457,8.586,27.541,22.844,29.715
				c18.488,2.82,22.999-26.761,41.487-23.942c18.489,2.82,13.977,32.401,32.466,35.22c14.271,2.176,20.219-14.941,30.69-21.572
				c2.87-15.695,5.235-33.583,6.931-53.967C313.155,308.541,307.113,323.982,293.515,321.909z"/>
			<path fill="#2FB49F" d="M227.147,260.892c18.488,2.82,22.999-26.761,41.487-23.942c18.489,2.82,13.977,32.401,32.466,35.22
				c11.288,1.722,17.368-8.631,24.598-16.317c0.874-17.148,1.392-32.871,1.605-47.288c-4.863,5.372-10.133,9.803-17.819,8.631
				c-18.489-2.82-13.978-32.401-32.466-35.22c-18.488-2.82-22.999,26.761-41.487,23.942c-7.674-1.17-11.383-6.954-14.422-13.519
				c-4.094,13.826-8.286,28.988-12.563,45.617C213.147,247.503,215.872,259.173,227.147,260.892z"/>
		</g>
		<path fill="#FFD161" d="M363.655,472.628c-2.692-1.143-66.385-28.003-107.066-28.003c-40.661,0-105.476,26.848-108.216,27.99
			c-1.561,0.652-2.288,1.916-1.781,3.099c0.507,1.182,2.124,1.998,3.964,1.998h210.887c1.834,0,3.447-0.81,3.959-1.987
			C365.916,474.547,365.202,473.286,363.655,472.628z"/>
	</g>
	<g id="swimming_trunks">
	</g>
	<g id="coconut_drink">
	</g>
	<g id="beach_chair__x26__towel">
	</g>
	<g id="coconut_tree">
	</g>
</g>
</svg>
