<?xml version="1.0" encoding="utf-8"?>
<!-- Generator: Adobe Illustrator 17.0.0, SVG Export Plug-In . SVG Version: 6.00 Build 0)  -->
<!DOCTYPE svg PUBLIC "-//W3C//DTD SVG 1.1//EN" "http://www.w3.org/Graphics/SVG/1.1/DTD/svg11.dtd">
<svg version="1.1" xmlns="http://www.w3.org/2000/svg" xmlns:xlink="http://www.w3.org/1999/xlink" x="0px" y="0px" width="512px"
	 height="512px" viewBox="0 0 512 512" enable-background="new 0 0 512 512" xml:space="preserve">
<g id="famous_places">
	<g id="Pyramid">
	</g>
	<g id="Colloseum">
	</g>
	<g id="Mount_Fuji">
	</g>
	<g id="Great_Wall_of_China">
	</g>
	<g id="Stonehenge">
	</g>
	<g id="Golden_Gate_Bridge">
	</g>
	<g id="Christ_the_Redeemer">
	</g>
	<g id="Statue_of_Liberty">
	</g>
	<g id="Taj_Mahal">
	</g>
	<g id="Eiffel_tower">
		<g>
			<path fill="#FF9B29" d="M286.863,115.799H255.97h-30.893c3.707,227-99.107,346-99.107,346h69.45c13.883-52,60.55-56,60.55-56
				s46.667,4,60.55,56h69.45C385.97,461.799,283.156,342.799,286.863,115.799z M233.75,349.799l10-95h24.5l10,95H233.75z"/>
			<path fill="#FFB561" d="M255.97,75.333L255.97,75.333c-1.389,0-2.515-1.126-2.515-2.515v-50.97c0-1.389,1.126-2.515,2.515-2.515
				l0,0c1.389,0,2.515,1.126,2.515,2.515v50.97C258.485,74.207,257.359,75.333,255.97,75.333z"/>
			<path fill="#FF9B29" d="M268.25,263.799h-24.5l-10,68h44.5L268.25,263.799z M248.068,268.799h15.863l8.529,58h-32.922
				L248.068,268.799z"/>
			<path fill="#FFD161" d="M286.863,98.333H255.97h-30.893c3.707,227.372-99.107,346-99.107,346h69.45c13.883-52,60.55-56,60.55-56
				s46.667,4,60.55,56h69.45C385.97,444.333,283.156,325.333,286.863,98.333z M233.75,332.333l10-68.5h24.5l10,68.5H233.75z"/>
			<polygon fill="#FF9B29" points="219.47,470.333 125.97,470.333 137.47,444.333 209.97,444.333 			"/>
			<path fill="#FF9B29" d="M251,108.799h-15.829c0.015,6-0.062,12-0.196,18H251V108.799z"/>
			<path fill="#FF9B29" d="M276.965,126.799c-0.134-6-0.211-12-0.197-18H261v18H276.965z"/>
			<path fill="#FF9B29" d="M251,133.799h-16.218c-0.125,3-0.281,8-0.466,12H251V133.799z"/>
			<path fill="#FF9B29" d="M251,152.799h-17.053c-0.227,3-0.489,7-0.775,11H251V152.799z"/>
			<path fill="#FF9B29" d="M334.118,434.799h31.912c-5.065-8-11.354-17-18.242-29h-26.971L334.118,434.799z"/>
			<path fill="#FF9B29" d="M251,373.799h-31.5l-11.263,25h3.796c15.324-14,31.967-18.64,38.967-19.918V373.799z"/>
			<path fill="#FF9B29" d="M317.661,398.799h26.284c-3.978-8-8.109-17-12.282-25h-25.048L317.661,398.799z"/>
			<path fill="#FF9B29" d="M261,254.799h15.896l3.964,27h17.666c-7.231-28-13.442-58-17.355-92H261V254.799z"/>
			<path fill="#FF9B29" d="M292.441,373.799H261v5.082c7,1.278,23.584,5.918,38.907,19.918h3.796L292.441,373.799z"/>
			<path fill="#FF9B29" d="M289.816,342.799h2.821l10.821,24h24.999c-0.867-2-1.735-3.894-2.603-5.892
				c-8.468-19.5-17.469-44.108-25.42-72.108h-18.546L289.816,342.799z"/>
			<path fill="#FF9B29" d="M261,182.799h19.424c-0.391-4-0.761-9-1.094-12H261V182.799z"/>
			<path fill="#FF9B29" d="M251,170.799h-18.381c-0.332,3-0.701,8-1.091,12H251V170.799z"/>
			<path fill="#FF9B29" d="M261,163.799h17.776c-0.287-4-0.549-8-0.777-11H261V163.799z"/>
			<path fill="#FF9B29" d="M261,145.799h16.628c-0.185-4-0.342-9-0.468-12H261V145.799z"/>
			<polygon fill="#FF9B29" points="251,342.799 233.75,342.799 222.717,366.799 251,366.799 			"/>
			<path fill="#FF9B29" d="M219.304,342.799h2.881l7.928-54h-18.558c-7.964,28-16.984,52.726-25.469,72.25
				c-0.847,1.95-1.695,3.75-2.542,5.75h24.939L219.304,342.799z"/>
			<path fill="#FF9B29" d="M205.326,373.799h-24.988c-4.174,8-8.307,17-12.288,25h26.229L205.326,373.799z"/>
			<path fill="#FF9B29" d="M164.204,405.799c-6.895,12-13.193,21-18.266,29h31.885l13.301-29H164.204z"/>
			<polygon fill="#FF9B29" points="289.223,366.799 278.19,342.799 261,342.799 261,366.799 			"/>
			<path fill="#FF9B29" d="M235.104,254.799H251v-65h-20.217c-3.904,34-10.104,64-17.324,92h17.681L235.104,254.799z"/>
			<path fill="#FF9B29" d="M295.764,221.799h-79.565c-0.806,5-1.659,10-2.551,15h84.673
				C297.428,231.799,296.572,226.799,295.764,221.799z"/>
			<path fill="#FF9B29" d="M329.548,343.799c-2.809-7-5.588-15-8.3-22h-44.605l1.606,11h-44.5l1.606-11h-44.607
				c-0.011,0-0.023-0.17-0.034-0.139c-2.699,7.656-5.466,15.064-8.261,22.015c-0.001,0.002-0.002,0.123-0.003,0.123H329.548z"/>
			<rect x="164.484" y="315.333" fill="#FFD161" width="183" height="22"/>
			<polygon fill="#FF9B29" points="347.484,337.333 164.484,337.333 180.016,349.333 331.998,349.333 			"/>
			<circle fill="#FFD161" cx="255.97" cy="76.333" r="24.667"/>
			<rect x="224.637" y="75.333" fill="#FFD161" width="62.667" height="36"/>
			<rect x="224.637" y="83" fill="#FF9B29" width="62.667" height="20.667"/>
			<rect x="219.304" y="91.834" fill="#FFD161" width="73.333" height="14.833"/>
			<polygon fill="#FF9B29" points="286.793,116.333 225.13,116.333 219.304,106.667 292.637,106.667 			"/>
			<rect x="203.97" y="226.833" fill="#FFD161" width="104" height="18"/>
			<polygon fill="#FF9B29" points="307.97,244.833 203.97,244.833 209.827,254.436 302.15,254.436 			"/>
			<rect x="218.895" y="200.333" fill="#FFD161" width="73.741" height="7"/>
			<polygon fill="#FFB561" points="202.47,470.333 108.97,470.333 120.47,444.333 195.42,444.333 			"/>
			<polygon fill="#FF9B29" points="292.234,470.333 385.734,470.333 374.234,444.333 301.734,444.333 			"/>
			<polygon fill="#FFB561" points="309.234,470.333 402.734,470.333 391.234,444.333 316.284,444.333 			"/>
			<circle fill="#FFFFFF" cx="246.86" cy="64.944" r="5.611"/>
			<rect x="93.333" y="470.334" fill="#ADADAD" width="325.333" height="22.333"/>
		</g>
	</g>
</g>
<g id="camping">
	<g id="mug">
	</g>
	<g id="hook">
	</g>
	<g id="Swiss_knife">
	</g>
	<g id="flashlight">
	</g>
	<g id="lantern">
	</g>
	<g id="campfire">
	</g>
	<g id="beanie">
	</g>
	<g id="rope">
	</g>
	<g id="boot">
	</g>
	<g id="axe">
	</g>
</g>
<g id="hotel_1_">
	<g id="towel">
	</g>
	<g id="phone">
	</g>
	<g id="pool">
	</g>
	<g id="food_service">
	</g>
	<g id="wifi">
	</g>
	<g id="bed">
	</g>
	<g id="door">
	</g>
	<g id="key">
	</g>
	<g id="do_not_disturb">
	</g>
	<g id="bell">
	</g>
</g>
<g id="winter">
	<g id="snowman">
	</g>
	<g id="snow_mountain">
	</g>
	<g id="reindeer">
	</g>
	<g id="winter_tree">
	</g>
	<g id="lift">
	</g>
	<g id="beanie__x26__google">
	</g>
	<g id="ski">
	</g>
	<g id="snowboard">
	</g>
	<g id="snowboading">
	</g>
	<g id="skiing">
	</g>
</g>
<g id="general_travelling">
	<g id="dinner_set">
	</g>
	<g id="polaroid">
	</g>
	<g id="camera">
	</g>
	<g id="calendar">
	</g>
	<g id="calendar_single">
	</g>
	<g id="shopping_bag">
	</g>
	<g id="watch">
	</g>
	<g id="alarm_clock">
	</g>
	<g id="credit_card">
	</g>
	<g id="road_sign">
	</g>
	<g id="hotel">
	</g>
	<g id="money">
	</g>
	<g id="sunglass">
	</g>
	<g id="cocktail">
	</g>
	<g id="compass">
	</g>
	<g id="tent">
	</g>
	<g id="backpack">
	</g>
	<g id="map">
	</g>
	<g id="ticket_1_">
	</g>
	<g id="passport">
	</g>
	<g id="luggage">
	</g>
	<g id="globe">
	</g>
	<g id="suitcase">
	</g>
</g>
<g id="vehicles">
	<g id="trailer">
	</g>
	<g id="airplane">
	</g>
	<g id="yatch">
	</g>
	<g id="taxi">
	</g>
	<g id="hot_air_ballon">
	</g>
	<g id="bus">
	</g>
	<g id="train">
	</g>
</g>
<g id="summer">
	<g id="postcard">
	</g>
	<g id="bikini">
	</g>
	<g id="flipflop">
	</g>
	<g id="plane_around_the_globe">
	</g>
	<g id="binocular">
	</g>
	<g id="beach_table">
	</g>
	<g id="sun_hat">
	</g>
	<g id="beach_bag">
	</g>
	<g id="sea__x26__wave">
	</g>
	<g id="beach">
	</g>
	<g id="beach_ball">
	</g>
	<g id="jetski">
	</g>
	<g id="sandcastle">
	</g>
	<g id="lifeguard_male">
	</g>
	<g id="lifeguard_female">
	</g>
	<g id="lighthouse">
	</g>
	<g id="hammok">
	</g>
	<g id="beach_chair__x26__umbrella">
	</g>
	<g id="lifeguard">
	</g>
	<g id="suncream">
	</g>
	<g id="starfish">
	</g>
	<g id="beach_bar">
	</g>
	<g id="bucket__x26__shovel">
	</g>
	<g id="palm_tree">
	</g>
	<g id="shark_warning">
	</g>
	<g id="surfboard">
	</g>
	<g id="swimming_trunks">
	</g>
	<g id="coconut_drink">
	</g>
	<g id="beach_chair__x26__towel">
	</g>
	<g id="coconut_tree">
	</g>
</g>
</svg>
