<?xml version="1.0" encoding="utf-8"?>
<!-- Generator: Adobe Illustrator 17.0.0, SVG Export Plug-In . SVG Version: 6.00 Build 0)  -->
<!DOCTYPE svg PUBLIC "-//W3C//DTD SVG 1.1//EN" "http://www.w3.org/Graphics/SVG/1.1/DTD/svg11.dtd">
<svg version="1.1" xmlns="http://www.w3.org/2000/svg" xmlns:xlink="http://www.w3.org/1999/xlink" x="0px" y="0px" width="512px"
	 height="512px" viewBox="0 0 512 512" enable-background="new 0 0 512 512" xml:space="preserve">
<g id="famous_places">
	<g id="Pyramid">
	</g>
	<g id="Colloseum">
	</g>
	<g id="Mount_Fuji">
	</g>
	<g id="Great_Wall_of_China">
	</g>
	<g id="Stonehenge">
	</g>
	<g id="Golden_Gate_Bridge">
	</g>
	<g id="Christ_the_Redeemer">
	</g>
	<g id="Statue_of_Liberty">
	</g>
	<g id="Taj_Mahal">
	</g>
	<g id="Eiffel_tower">
	</g>
</g>
<g id="camping">
	<g id="mug">
	</g>
	<g id="hook">
	</g>
	<g id="Swiss_knife">
	</g>
	<g id="flashlight">
	</g>
	<g id="lantern">
	</g>
	<g id="campfire">
	</g>
	<g id="beanie">
	</g>
	<g id="rope">
	</g>
	<g id="boot">
	</g>
	<g id="axe">
	</g>
</g>
<g id="hotel_1_">
	<g id="towel">
	</g>
	<g id="phone">
	</g>
	<g id="pool">
	</g>
	<g id="food_service">
	</g>
	<g id="wifi">
	</g>
	<g id="bed">
	</g>
	<g id="door">
	</g>
	<g id="key">
	</g>
	<g id="do_not_disturb">
	</g>
	<g id="bell">
	</g>
</g>
<g id="winter">
	<g id="snowman">
	</g>
	<g id="snow_mountain">
	</g>
	<g id="reindeer">
	</g>
	<g id="winter_tree">
	</g>
	<g id="lift">
	</g>
	<g id="beanie__x26__google">
	</g>
	<g id="ski">
	</g>
	<g id="snowboard">
	</g>
	<g id="snowboading">
	</g>
	<g id="skiing">
	</g>
</g>
<g id="general_travelling">
	<g id="dinner_set">
	</g>
	<g id="polaroid">
	</g>
	<g id="camera">
	</g>
	<g id="calendar">
	</g>
	<g id="calendar_single">
	</g>
	<g id="shopping_bag">
	</g>
	<g id="watch">
	</g>
	<g id="alarm_clock">
	</g>
	<g id="credit_card">
	</g>
	<g id="road_sign">
	</g>
	<g id="hotel">
	</g>
	<g id="money">
	</g>
	<g id="sunglass">
	</g>
	<g id="cocktail">
	</g>
	<g id="compass">
	</g>
	<g id="tent">
	</g>
	<g id="backpack">
	</g>
	<g id="map">
	</g>
	<g id="ticket_1_">
	</g>
	<g id="passport">
	</g>
	<g id="luggage">
	</g>
	<g id="globe">
	</g>
	<g id="suitcase">
	</g>
</g>
<g id="vehicles">
	<g id="trailer">
	</g>
	<g id="airplane">
	</g>
	<g id="yatch">
	</g>
	<g id="taxi">
	</g>
	<g id="hot_air_ballon">
		<g>
			<g>
				<path fill="#FFD161" d="M219.036,465.72c0.709,5.702,5.063,9.946,10.203,9.946h53.522c5.14,0,9.494-4.244,10.203-9.946
					l0.67-5.387h-75.269L219.036,465.72z"/>
				<path fill="#FFD161" d="M297.805,426.797c0.863-6.938-3.949-13.13-10.203-13.13h-63.204c-6.255,0-11.066,6.192-10.203,13.13
					l2.222,17.87h79.165L297.805,426.797z"/>
				<polygon fill="#6FEBE7" points="217.122,449.937 217.661,453.937 294.339,453.937 294.878,449.937 				"/>
				<polygon fill="#2D415A" points="295.583,443.937 216.417,443.937 217.122,449.937 294.878,449.937 				"/>
				<polygon fill="#FF6650" points="218.366,459.937 293.634,459.937 294.339,453.937 217.661,453.937 				"/>
			</g>
			<g>
				<path fill="#FF6650" d="M228.554,38.517c-91.286,15.032-115.716,104.365-115.716,145.772c0,41.116,18.426,81.396,44.411,108.053
					C125.225,237.088,121.775,153.806,228.554,38.517z"/>
				<path fill="#FF6650" d="M363.94,281.82c21.005-26.14,35.222-61.51,35.222-97.53c0-40.762-23.589-127.972-111.398-145.018
					C387.288,147.081,390.342,226.843,363.94,281.82z"/>
				<path fill="#FF6650" d="M246.411,36.595c-1.581,0.084-3.143,0.191-4.689,0.316c-38.874,50.42-125.793,189.285-16.59,310.423
					h18.87C223.99,288.966,191.162,157.714,246.411,36.595z"/>
				<path fill="#FF6650" d="M274.169,37.264c-2.801-0.29-5.655-0.52-8.574-0.673c55.238,121.12,22.418,252.375,2.411,310.743h22.481
					C399.432,226.481,313.176,87.98,274.169,37.264z"/>
				<path fill="#CF5341" d="M165.394,300.036c30.196,26.17,41.268,47.297,41.268,47.297h18.469
					c-109.202-121.138-22.284-260.003,16.59-310.423c-4.538,0.365-8.923,0.907-13.167,1.606
					c-106.78,115.289-103.329,198.571-71.305,253.825C159.89,295.051,162.608,297.622,165.394,300.036z"/>
				<path fill="#CF5341" d="M246.411,36.595c-55.249,121.119-22.421,252.371-2.409,310.738h12.052h11.951
					c20.007-58.368,52.827-189.623-2.411-310.743c-3.115-0.163-6.289-0.257-9.541-0.257
					C252.767,36.333,249.558,36.428,246.411,36.595z"/>
				<path fill="#CF5341" d="M290.486,347.333h14.744c0,0,11.072-21.127,41.268-47.297c6.183-5.358,12.034-11.487,17.442-18.217
					c26.402-54.977,23.349-134.738-76.176-242.548c-4.371-0.848-8.901-1.521-13.595-2.008
					C313.176,87.98,399.432,226.481,290.486,347.333z"/>
			</g>
			<rect x="212.562" y="371.814" fill="#2D415A" width="4.825" height="46.475"/>
			<rect x="297.025" y="371.814" fill="#2D415A" width="4.825" height="46.475"/>
			<rect x="253.587" y="371.814" fill="#2D415A" width="4.825" height="46.475"/>
			<path fill="#8A532D" d="M307.711,422.911H204.289c-2.553,0-4.622-2.069-4.622-4.622v0c0-2.553,2.069-4.622,4.622-4.622h103.422
				c2.553,0,4.622,2.069,4.622,4.622v0C312.333,420.842,310.264,422.911,307.711,422.911z"/>
			<path fill="#8A532D" d="M306.385,378.104H205.615c-6.599,0-11.948-5.349-11.948-11.948v-8.354
				c0-6.599,5.349-11.948,11.948-11.948h100.771c6.599,0,11.948,5.349,11.948,11.948v8.354
				C318.333,372.755,312.984,378.104,306.385,378.104z"/>
			<path fill="#FFD161" d="M266.591,115.594l17.573,35.607c1.72,3.486,5.046,5.902,8.892,6.461l39.295,5.71
				c9.687,1.408,13.555,13.312,6.545,20.145l-28.434,27.716c-2.784,2.713-4.054,6.622-3.397,10.454l6.712,39.136
				c1.655,9.648-8.472,17.005-17.136,12.45l-35.147-18.478c-3.441-1.809-7.551-1.809-10.992,0l-35.147,18.478
				c-8.664,4.555-18.791-2.802-17.136-12.45l6.712-39.136c0.657-3.831-0.613-7.74-3.397-10.454l-28.434-27.716
				c-7.01-6.833-3.142-18.737,6.545-20.145l39.295-5.71c3.847-0.559,7.172-2.975,8.892-6.461l17.573-35.607
				C249.741,106.816,262.259,106.816,266.591,115.594z"/>
			<path fill="#FF6650" d="M215.185,426.422l1.828-3.089h-2.959h-2.959l1.83,3.092c-3.784,0.553-6.693,3.803-6.693,7.741
				c0,4.326,3.507,7.833,7.833,7.833c4.326,0,7.833-3.507,7.833-7.833C221.898,430.222,218.979,426.967,215.185,426.422z"/>
			<path fill="#FF6650" d="M257.185,426.422l1.828-3.089h-2.959h-2.959l1.83,3.092c-3.784,0.553-6.693,3.803-6.693,7.741
				c0,4.326,3.507,7.833,7.833,7.833c4.326,0,7.833-3.507,7.833-7.833C263.898,430.222,260.979,426.967,257.185,426.422z"/>
			<path fill="#FF6650" d="M300.185,426.422l1.828-3.089h-2.959h-2.959l1.83,3.092c-3.784,0.553-6.693,3.803-6.693,7.741
				c0,4.326,3.507,7.833,7.833,7.833c4.326,0,7.833-3.507,7.833-7.833C306.898,430.222,303.979,426.967,300.185,426.422z"/>
		</g>
	</g>
	<g id="bus">
	</g>
	<g id="train">
	</g>
</g>
<g id="summer">
	<g id="postcard">
	</g>
	<g id="bikini">
	</g>
	<g id="flipflop">
	</g>
	<g id="plane_around_the_globe">
	</g>
	<g id="binocular">
	</g>
	<g id="beach_table">
	</g>
	<g id="sun_hat">
	</g>
	<g id="beach_bag">
	</g>
	<g id="sea__x26__wave">
	</g>
	<g id="beach">
	</g>
	<g id="beach_ball">
	</g>
	<g id="jetski">
	</g>
	<g id="sandcastle">
	</g>
	<g id="lifeguard_male">
	</g>
	<g id="lifeguard_female">
	</g>
	<g id="lighthouse">
	</g>
	<g id="hammok">
	</g>
	<g id="beach_chair__x26__umbrella">
	</g>
	<g id="lifeguard">
	</g>
	<g id="suncream">
	</g>
	<g id="starfish">
	</g>
	<g id="beach_bar">
	</g>
	<g id="bucket__x26__shovel">
	</g>
	<g id="palm_tree">
	</g>
	<g id="shark_warning">
	</g>
	<g id="surfboard">
	</g>
	<g id="swimming_trunks">
	</g>
	<g id="coconut_drink">
	</g>
	<g id="beach_chair__x26__towel">
	</g>
	<g id="coconut_tree">
	</g>
</g>
</svg>
