<?xml version="1.0" encoding="utf-8"?>
<!-- Generator: Adobe Illustrator 17.0.0, SVG Export Plug-In . SVG Version: 6.00 Build 0)  -->
<!DOCTYPE svg PUBLIC "-//W3C//DTD SVG 1.1//EN" "http://www.w3.org/Graphics/SVG/1.1/DTD/svg11.dtd">
<svg version="1.1" xmlns="http://www.w3.org/2000/svg" xmlns:xlink="http://www.w3.org/1999/xlink" x="0px" y="0px" width="512px"
	 height="512px" viewBox="0 0 512 512" enable-background="new 0 0 512 512" xml:space="preserve">
<g id="famous_places">
	<g id="Pyramid">
	</g>
	<g id="Colloseum">
	</g>
	<g id="Mount_Fuji">
	</g>
	<g id="Great_Wall_of_China">
	</g>
	<g id="Stonehenge">
	</g>
	<g id="Golden_Gate_Bridge">
	</g>
	<g id="Christ_the_Redeemer">
	</g>
	<g id="Statue_of_Liberty">
	</g>
	<g id="Taj_Mahal">
	</g>
	<g id="Eiffel_tower">
	</g>
</g>
<g id="camping">
	<g id="mug">
	</g>
	<g id="hook">
	</g>
	<g id="Swiss_knife">
	</g>
	<g id="flashlight">
	</g>
	<g id="lantern">
	</g>
	<g id="campfire">
	</g>
	<g id="beanie">
	</g>
	<g id="rope">
	</g>
	<g id="boot">
	</g>
	<g id="axe">
	</g>
</g>
<g id="hotel_1_">
	<g id="towel">
	</g>
	<g id="phone">
	</g>
	<g id="pool">
	</g>
	<g id="food_service">
	</g>
	<g id="wifi">
	</g>
	<g id="bed">
	</g>
	<g id="door">
	</g>
	<g id="key">
	</g>
	<g id="do_not_disturb">
	</g>
	<g id="bell">
	</g>
</g>
<g id="winter">
	<g id="snowman">
	</g>
	<g id="snow_mountain">
	</g>
	<g id="reindeer">
	</g>
	<g id="winter_tree">
	</g>
	<g id="lift">
	</g>
	<g id="beanie__x26__google">
	</g>
	<g id="ski">
	</g>
	<g id="snowboard">
	</g>
	<g id="snowboading">
	</g>
	<g id="skiing">
	</g>
</g>
<g id="general_travelling">
	<g id="dinner_set">
	</g>
	<g id="polaroid">
	</g>
	<g id="camera">
	</g>
	<g id="calendar">
	</g>
	<g id="calendar_single">
	</g>
	<g id="shopping_bag">
	</g>
	<g id="watch">
	</g>
	<g id="alarm_clock">
	</g>
	<g id="credit_card">
	</g>
	<g id="road_sign">
	</g>
	<g id="hotel">
	</g>
	<g id="money">
	</g>
	<g id="sunglass">
	</g>
	<g id="cocktail">
	</g>
	<g id="compass">
	</g>
	<g id="tent">
	</g>
	<g id="backpack">
	</g>
	<g id="map">
	</g>
	<g id="ticket_1_">
	</g>
	<g id="passport">
	</g>
	<g id="luggage">
	</g>
	<g id="globe">
	</g>
	<g id="suitcase">
	</g>
</g>
<g id="vehicles">
	<g id="trailer">
	</g>
	<g id="airplane">
	</g>
	<g id="yatch">
	</g>
	<g id="taxi">
	</g>
	<g id="hot_air_ballon">
	</g>
	<g id="bus">
	</g>
	<g id="train">
	</g>
</g>
<g id="summer">
	<g id="postcard">
	</g>
	<g id="bikini">
	</g>
	<g id="flipflop">
	</g>
	<g id="plane_around_the_globe">
	</g>
	<g id="binocular">
	</g>
	<g id="beach_table">
	</g>
	<g id="sun_hat">
	</g>
	<g id="beach_bag">
	</g>
	<g id="sea__x26__wave">
	</g>
	<g id="beach">
	</g>
	<g id="beach_ball">
	</g>
	<g id="jetski">
	</g>
	<g id="sandcastle">
	</g>
	<g id="lifeguard_male">
	</g>
	<g id="lifeguard_female">
	</g>
	<g id="lighthouse">
	</g>
	<g id="hammok">
	</g>
	<g id="beach_chair__x26__umbrella">
		<g>
			
				<rect x="81.506" y="261.967" transform="matrix(0.3309 0.9437 -0.9437 0.3309 411.3716 -43.2495)" fill="#2D415A" width="309.357" height="13"/>
		</g>
		<path fill="#1B2736" d="M191.134,120.352l-12.268,4.303l20.535,58.56l0.407-0.162c4.085-1.629,8.161-2.696,12.141-3.341
			L191.134,120.352z"/>
		<path fill="#FFD161" d="M351.452,418.938c-1.598-1.015-39.409-24.861-63.559-24.861c-24.138,0-62.615,23.835-64.242,24.85
			c-0.926,0.579-1.358,1.701-1.057,2.751c0.301,1.05,1.261,1.774,2.353,1.774H350.14c1.089,0,2.046-0.719,2.35-1.764
			C352.794,420.642,352.371,419.522,351.452,418.938z"/>
		<g>
			<g>
				<path fill="#8A532D" d="M111.044,424.598c-2,0-4.024-0.527-5.86-1.635c-5.377-3.243-7.107-10.23-3.864-15.607l36.066-59.799
					c3.243-5.377,10.231-7.106,15.606-3.864c5.377,3.243,7.107,10.23,3.864,15.607l-36.066,59.799
					C118.655,422.638,114.897,424.598,111.044,424.598z"/>
			</g>
			<path fill="#6E4224" d="M122.2,372.737h26.552l8.104-13.437c1.757-2.912,2.043-6.294,1.092-9.301h-22.034L122.2,372.737z"/>
			<g>
				<path fill="#8A532D" d="M372.154,424.598c-3.853,0-7.611-1.959-9.745-5.499L326.342,359.3
					c-3.243-5.377-1.513-12.363,3.864-15.607c5.374-3.24,12.363-1.513,15.606,3.864l36.066,59.799
					c3.243,5.377,1.513,12.363-3.864,15.607C376.178,424.07,374.153,424.598,372.154,424.598z"/>
			</g>
			<path fill="#6E4224" d="M345.811,347.557c-1.212-2.01-2.948-3.509-4.926-4.43l-5.541,6.872H325.25
				c-0.951,3.006-0.665,6.388,1.092,9.301l8.104,13.437h6.335c3.438,0,6.691-1.556,8.85-4.233l5.043-6.253L345.811,347.557z"/>
			<g>
				<path fill="#8A532D" d="M340.781,364.452h-218.75c-6.279,0-11.369-4.721-11.369-11s5.09-11,11.369-11h213.313l86.753-107.729
					c3.941-4.887,11.099-5.728,15.986-1.787c4.888,3.941,5.655,11.062,1.714,15.949L349.631,360.46
					C347.472,363.137,344.219,364.452,340.781,364.452z"/>
			</g>
			<path fill="#E3E3E3" d="M329.418,331.316v-8.877c0-6.283-5.094-11.377-11.377-11.377H130.272
				c-6.283,0-11.377,5.094-11.377,11.377v8.877c0,0.487,0.041,0.963,0.1,1.434h210.323
				C329.378,332.279,329.418,331.803,329.418,331.316z"/>
			<path fill="#A6A6A6" d="M118.995,332.75c0.706,5.605,5.48,9.943,11.277,9.943h187.769c5.797,0,10.571-4.338,11.277-9.943H118.995
				z"/>
			<g>
				<path fill="#E3E3E3" d="M412.173,216.009c-4.871-3.969-12.038-3.237-16.006,1.634l-68.896,84.564
					c-3.969,4.871-3.237,12.038,1.634,16.006l6.882,5.607c0.14,0.114,0.287,0.21,0.431,0.316L418.63,221.27L412.173,216.009z"/>
				<path fill="#A6A6A6" d="M419.056,221.617l-0.426-0.347l-82.411,102.868c4.855,3.594,11.721,2.781,15.576-1.95l68.896-84.564
					C424.659,232.752,423.927,225.585,419.056,221.617z"/>
			</g>
		</g>
		<g>
			<path fill="#FF6650" d="M164.098,76.536c-43.071,17.179-75.617,51.048-94.119,97.942c-13.873,35.162-15.008,64.931-15.048,66.18
				c-0.118,3.549,2.501,6.6,6.028,7.019c0.274,0.033,0.546,0.049,0.815,0.049c3.202,0,6.03-2.247,6.691-5.455
				c0.227-1.049,6.046-26.52,35.169-38.139c28.297-11.283,46.483,3.957,47.244,4.612c1.405,1.21,3.216,1.773,5.008,1.629
				C131.002,119.343,164.098,76.536,164.098,76.536z"/>
			<path fill="#FF6650" d="M355.525,120.752c-0.891-0.88-22.198-21.688-56.365-37.683c-45.579-21.341-92.28-23.603-135.062-6.533
				c52.836-1.249,83.273,52.995,98.075,90.958c0.969-1.067,1.631-2.405,1.78-3.846c0.103-0.995,2.835-24.527,31.123-35.81
				c29.128-11.619,50.847,2.817,51.756,3.436c1.881,1.282,4.291,1.559,6.408,0.708c2.142-0.857,3.721-2.741,4.175-5.003
				C357.872,124.716,357.168,122.371,355.525,120.752z"/>
			<path fill="#FFD161" d="M164.098,76.536c0,0-33.097,42.807-8.212,133.836c0.665-0.053,1.328-0.197,1.966-0.451
				c1.841-0.726,3.447-2.282,4.106-4.148c0.414-1.169,10.446-28.789,37.117-39.428l0.733-0.292
				c26.658-10.633,52.96,2.492,54.065,3.057c1.748,0.891,3.792,0.991,5.618,0.267c1.029-0.406,1.943-1.068,2.682-1.883
				C247.372,129.531,216.935,75.287,164.098,76.536z"/>
		</g>
	</g>
	<g id="lifeguard">
	</g>
	<g id="suncream">
	</g>
	<g id="starfish">
	</g>
	<g id="beach_bar">
	</g>
	<g id="bucket__x26__shovel">
	</g>
	<g id="palm_tree">
	</g>
	<g id="shark_warning">
	</g>
	<g id="surfboard">
	</g>
	<g id="swimming_trunks">
	</g>
	<g id="coconut_drink">
	</g>
	<g id="beach_chair__x26__towel">
	</g>
	<g id="coconut_tree">
	</g>
</g>
</svg>
