<?xml version="1.0" encoding="utf-8"?>
<!-- Generator: Adobe Illustrator 17.0.0, SVG Export Plug-In . SVG Version: 6.00 Build 0)  -->
<!DOCTYPE svg PUBLIC "-//W3C//DTD SVG 1.1//EN" "http://www.w3.org/Graphics/SVG/1.1/DTD/svg11.dtd">
<svg version="1.1" xmlns="http://www.w3.org/2000/svg" xmlns:xlink="http://www.w3.org/1999/xlink" x="0px" y="0px" width="512px"
	 height="512px" viewBox="0 0 512 512" enable-background="new 0 0 512 512" xml:space="preserve">
<g id="famous_places">
	<g id="Pyramid">
	</g>
	<g id="Colloseum">
	</g>
	<g id="Mount_Fuji">
	</g>
	<g id="Great_Wall_of_China">
	</g>
	<g id="Stonehenge">
	</g>
	<g id="Golden_Gate_Bridge">
	</g>
	<g id="Christ_the_Redeemer">
	</g>
	<g id="Statue_of_Liberty">
	</g>
	<g id="Taj_Mahal">
	</g>
	<g id="Eiffel_tower">
	</g>
</g>
<g id="camping">
	<g id="mug">
	</g>
	<g id="hook">
	</g>
	<g id="Swiss_knife">
	</g>
	<g id="flashlight">
	</g>
	<g id="lantern">
	</g>
	<g id="campfire">
	</g>
	<g id="beanie">
	</g>
	<g id="rope">
	</g>
	<g id="boot">
	</g>
	<g id="axe">
	</g>
</g>
<g id="hotel_1_">
	<g id="towel">
	</g>
	<g id="phone">
	</g>
	<g id="pool">
	</g>
	<g id="food_service">
	</g>
	<g id="wifi">
	</g>
	<g id="bed">
	</g>
	<g id="door">
	</g>
	<g id="key">
	</g>
	<g id="do_not_disturb">
	</g>
	<g id="bell">
	</g>
</g>
<g id="winter">
	<g id="snowman">
		<rect y="0" fill="#2D415A" width="512" height="512"/>
		<g>
			<path fill="#6E4224" d="M179.324,277.462l-44.384-33.669c-0.067-0.482-0.19-0.96-0.376-1.421l-17.5-43.375
				c-1.24-3.073-4.735-4.561-7.81-3.319c-3.073,1.24-4.559,4.736-3.319,7.809l10.642,26.376l-36.451-27.651
				c-2.64-2.004-6.404-1.486-8.406,1.154c-2.003,2.64-1.486,6.403,1.154,8.406l37.299,28.294l-43.138,3.362
				c-3.304,0.258-5.773,3.145-5.516,6.448c0.245,3.145,2.873,5.534,5.975,5.534c0.156,0,0.314-0.006,0.473-0.019l56.595-4.411
				l47.511,36.041c1.084,0.823,2.357,1.22,3.621,1.22c1.813,0,3.605-0.819,4.785-2.375
				C182.481,283.229,181.965,279.465,179.324,277.462z"/>
			<g>
				<circle fill="#FFFFFF" cx="258.349" cy="349.925" r="118.651"/>
			</g>
			<path fill="#E3E3E3" d="M258.349,231.274c-5.946,0-11.788,0.443-17.5,1.287C298.08,241.023,342,290.342,342,349.925
				s-43.92,108.902-101.151,117.363c5.712,0.844,11.554,1.287,17.5,1.287c65.529,0,118.651-53.122,118.651-118.651
				S323.878,231.274,258.349,231.274z"/>
			<path fill="#E3E3E3" d="M306.995,241.675c-14.845-6.681-31.311-10.401-48.646-10.401c-21.008,0-40.736,5.467-57.852,15.045
				c8.835,20.146,28.944,34.225,52.352,34.225C278.016,280.544,299.368,264.269,306.995,241.675z"/>
			<path fill="#8A532D" d="M450.46,214.85l-50.619,0.347l32.979-44.476c1.974-2.662,1.416-6.419-1.245-8.394
				c-2.664-1.973-6.421-1.417-8.394,1.246l-31.383,42.323l-13.159-36.177c-1.133-3.114-4.575-4.693-7.689-3.561
				s-4.721,4.63-3.588,7.744l15.823,43.61l-70.004,94.409c-1.974,2.662-1.416,6.419,1.245,8.394
				c1.075,0.796,2.327,1.181,3.569,1.181c1.835,0,3.647-0.839,4.824-2.427l67.788-91.421c0.131,0.01,0.26,0.034,0.392,0.034
				c0.013,0,0.026,0,0.04,0l59.5-0.618c3.313-0.022,5.982-2.945,5.96-6.259S453.783,214.813,450.46,214.85z"/>
			<g>
				<circle fill="#333333" cx="194.999" cy="303.497" r="11.999"/>
				<circle fill="#4A4A4A" cx="192.66" cy="301.158" r="7.66"/>
			</g>
			<g>
				<circle fill="#333333" cx="188.999" cy="342.497" r="11.999"/>
				<circle fill="#4A4A4A" cx="186.66" cy="340.158" r="7.66"/>
			</g>
			<g>
				<circle fill="#333333" cx="192.999" cy="385.497" r="11.999"/>
				<circle fill="#4A4A4A" cx="190.66" cy="383.158" r="7.66"/>
			</g>
		</g>
		<path fill="#FF6650" d="M258.349,280.314c0,0,15.341,51.917,16.739,83.538c0.287,6.496,7.204,10.502,12.985,7.524l25.364-13.069
			c3.34-1.721,5.245-5.348,4.757-9.074c-2.242-17.129-9.047-64.66-17.195-78.781C291,253.119,258.349,280.314,258.349,280.314z"/>
		<path fill="#CF5341" d="M265.202,306.329c11.979,3.813,27.539,4.234,44.755-6.597c-2.63-12.315-5.685-23.379-8.957-29.05
			c-3.7-6.413-10.5-6.728-17.6-4.583l-24.924,14.877C259.1,283.121,261.993,293.175,265.202,306.329z"/>
		<path fill="none" stroke="#FF6650" stroke-width="40" stroke-linecap="round" stroke-miterlimit="10" d="M179,238.743
			c0,0,7.66,30.607,51.717,37.349c55.228,8.452,93.616-37.349,93.616-37.349"/>
		<g>
			<circle fill="#FFFFFF" cx="249.349" cy="203.51" r="60.651"/>
			<path fill="#FFB561" d="M127.733,185.947h88.123c0,0,17.333,2.08,14.559,18.026c-2.773,15.946-18.026,16.639-18.026,16.639
				l-85.672-28.368C123.236,191.091,124.065,185.947,127.733,185.947z"/>
			<path fill="#FF9B29" d="M216.897,186.358c0.801,2.207,1.088,4.888,0.519,8.161c-2.773,15.946-18.026,16.639-18.026,16.639
				l-73.584-24.366c-1.89,1.395-1.833,4.773,0.911,5.682l85.672,28.368c0,0,15.253-0.693,18.026-16.639
				C232.775,190.638,220.59,187.109,216.897,186.358z"/>
			<circle fill="#4A4A4A" cx="258.099" cy="185.493" r="8.75"/>
			<circle fill="#4A4A4A" cx="206.099" cy="176.493" r="8.75"/>
			<path fill="none" stroke="#4A4A4A" stroke-width="3" stroke-linecap="round" stroke-linejoin="round" stroke-miterlimit="10" d="
				M200.349,221.243c0,0,3.151,17.5,19.651,17.5s26.5-13,26.5-13"/>
			<g>
				
					<ellipse transform="matrix(0.941 0.3385 -0.3385 0.941 64.0891 -80.3734)" fill="#4A4A4A" cx="262.451" cy="143.538" rx="59.75" ry="17.202"/>
				<path fill="#333333" d="M241.553,131.022c0,0,2.686,19.565,30.255,24.17c27.569,4.605,11.137-16.185,11.137-16.185
					L241.553,131.022z"/>
				<path fill="#FF6650" d="M295.63,50.579c0,0-34.006-13.297-38.455-2.411l-15.622,82.854c0,0,1.195,7.462,20.014,14.232
					s24.494,1.781,24.494,1.781l40.744-73.815C330.313,61.995,295.63,50.579,295.63,50.579z"/>
				<path fill="#4A4A4A" d="M265.773,132.828c11.433,4.113,20.845,2.287,26.477,2.997l34.556-62.605
					c3.507-11.225-31.176-22.641-31.176-22.641s-34.006-13.297-38.455-2.411l-13.271,70.385
					C248.708,121.543,254.695,128.842,265.773,132.828z"/>
			</g>
		</g>
	</g>
	<g id="snow_mountain">
	</g>
	<g id="reindeer">
	</g>
	<g id="winter_tree">
	</g>
	<g id="lift">
	</g>
	<g id="beanie__x26__google">
	</g>
	<g id="ski">
	</g>
	<g id="snowboard">
	</g>
	<g id="snowboading">
	</g>
	<g id="skiing">
	</g>
</g>
<g id="general_travelling">
	<g id="dinner_set">
	</g>
	<g id="polaroid">
	</g>
	<g id="camera">
	</g>
	<g id="calendar">
	</g>
	<g id="calendar_single">
	</g>
	<g id="shopping_bag">
	</g>
	<g id="watch">
	</g>
	<g id="alarm_clock">
	</g>
	<g id="credit_card">
	</g>
	<g id="road_sign">
	</g>
	<g id="hotel">
	</g>
	<g id="money">
	</g>
	<g id="sunglass">
	</g>
	<g id="cocktail">
	</g>
	<g id="compass">
	</g>
	<g id="tent">
	</g>
	<g id="backpack">
	</g>
	<g id="map">
	</g>
	<g id="ticket_1_">
	</g>
	<g id="passport">
	</g>
	<g id="luggage">
	</g>
	<g id="globe">
	</g>
	<g id="suitcase">
	</g>
</g>
<g id="vehicles">
	<g id="trailer">
	</g>
	<g id="airplane">
	</g>
	<g id="yatch">
	</g>
	<g id="taxi">
	</g>
	<g id="hot_air_ballon">
	</g>
	<g id="bus">
	</g>
	<g id="train">
	</g>
</g>
<g id="summer">
	<g id="postcard">
	</g>
	<g id="bikini">
	</g>
	<g id="flipflop">
	</g>
	<g id="plane_around_the_globe">
	</g>
	<g id="binocular">
	</g>
	<g id="beach_table">
	</g>
	<g id="sun_hat">
	</g>
	<g id="beach_bag">
	</g>
	<g id="sea__x26__wave">
	</g>
	<g id="beach">
	</g>
	<g id="beach_ball">
	</g>
	<g id="jetski">
	</g>
	<g id="sandcastle">
	</g>
	<g id="lifeguard_male">
	</g>
	<g id="lifeguard_female">
	</g>
	<g id="lighthouse">
	</g>
	<g id="hammok">
	</g>
	<g id="beach_chair__x26__umbrella">
	</g>
	<g id="lifeguard">
	</g>
	<g id="suncream">
	</g>
	<g id="starfish">
	</g>
	<g id="beach_bar">
	</g>
	<g id="bucket__x26__shovel">
	</g>
	<g id="palm_tree">
	</g>
	<g id="shark_warning">
	</g>
	<g id="surfboard">
	</g>
	<g id="swimming_trunks">
	</g>
	<g id="coconut_drink">
	</g>
	<g id="beach_chair__x26__towel">
	</g>
	<g id="coconut_tree">
	</g>
</g>
</svg>
