<?xml version="1.0" encoding="utf-8"?>
<!-- Generator: Adobe Illustrator 17.0.0, SVG Export Plug-In . SVG Version: 6.00 Build 0)  -->
<!DOCTYPE svg PUBLIC "-//W3C//DTD SVG 1.1//EN" "http://www.w3.org/Graphics/SVG/1.1/DTD/svg11.dtd">
<svg version="1.1" xmlns="http://www.w3.org/2000/svg" xmlns:xlink="http://www.w3.org/1999/xlink" x="0px" y="0px" width="512px"
	 height="512px" viewBox="0 0 512 512" enable-background="new 0 0 512 512" xml:space="preserve">
<g id="famous_places">
	<g id="Pyramid">
	</g>
	<g id="Colloseum">
	</g>
	<g id="Mount_Fuji">
	</g>
	<g id="Great_Wall_of_China">
	</g>
	<g id="Stonehenge">
	</g>
	<g id="Golden_Gate_Bridge">
	</g>
	<g id="Christ_the_Redeemer">
	</g>
	<g id="Statue_of_Liberty">
	</g>
	<g id="Taj_Mahal">
	</g>
	<g id="Eiffel_tower">
	</g>
</g>
<g id="camping">
	<g id="mug">
	</g>
	<g id="hook">
	</g>
	<g id="Swiss_knife">
	</g>
	<g id="flashlight">
	</g>
	<g id="lantern">
	</g>
	<g id="campfire">
	</g>
	<g id="beanie">
	</g>
	<g id="rope">
	</g>
	<g id="boot">
	</g>
	<g id="axe">
	</g>
</g>
<g id="hotel_1_">
	<g id="towel">
	</g>
	<g id="phone">
		<g>
			<path fill="#279685" d="M379.651,457.582H132.349c-18.275,0-33.091-14.815-33.091-33.091V107.509
				c0-18.275,14.815-33.091,33.091-33.091h247.303c18.275,0,33.091,14.815,33.091,33.091v316.983
				C412.742,442.767,397.927,457.582,379.651,457.582z"/>
			<path fill="#2FB49F" d="M379.651,437.582H132.349c-18.275,0-33.091-14.815-33.091-33.091V87.509
				c0-18.275,14.815-33.091,33.091-33.091h247.303c18.275,0,33.091,14.815,33.091,33.091v316.983
				C412.742,422.767,397.927,437.582,379.651,437.582z"/>
			<path fill="#FFB561" d="M286.577,157.915h-28.667c-3.406,0-6.167-2.761-6.167-6.167v-1c0-3.406,2.761-6.167,6.167-6.167h28.667
				c3.406,0,6.167,2.761,6.167,6.167v1C292.744,155.155,289.983,157.915,286.577,157.915z"/>
			<path fill="#279685" d="M246,384.428c0,17.389-14.097,31.486-31.486,31.486h-66.027c-17.389,0-31.486-14.097-31.486-31.486
				V111.401c0-17.389,14.097-31.486,31.486-31.486h66.027c17.389,0,31.486,14.097,31.486,31.486V384.428z"/>
			<path fill="#279685" d="M374.591,136.378H262.897c-6.344,0-11.486-5.143-11.486-11.486v-23.796
				c0-6.344,5.143-11.486,11.486-11.486h111.694c6.344,0,11.486,5.143,11.486,11.486v23.796
				C386.077,131.236,380.935,136.378,374.591,136.378z"/>
			<path fill="#54B3AF" d="M382,125.428c0,3.582-2.904,6.486-6.486,6.486H263.486c-3.582,0-6.486-2.904-6.486-6.486v-24.027
				c0-3.582,2.904-6.486,6.486-6.486h112.027c3.582,0,6.486,2.904,6.486,6.486V125.428z"/>
			<g>
				<g>
					<g>
						<path fill="#E3E3E3" d="M293,238.951c0,5.502-4.461,9.963-9.963,9.963h-21.074c-5.502,0-9.963-4.461-9.963-9.963v-21.074
							c0-5.502,4.461-9.963,9.963-9.963h21.074c5.502,0,9.963,4.461,9.963,9.963V238.951z"/>
						<path fill="#E3E3E3" d="M387,238.951c0,5.502-4.461,9.963-9.963,9.963h-21.074c-5.502,0-9.963-4.461-9.963-9.963v-21.074
							c0-5.502,4.461-9.963,9.963-9.963h21.074c5.502,0,9.963,4.461,9.963,9.963V238.951z"/>
					</g>
					<path fill="#E3E3E3" d="M340,238.951c0,5.502-4.461,9.963-9.963,9.963h-21.074c-5.502,0-9.963-4.461-9.963-9.963v-21.074
						c0-5.502,4.461-9.963,9.963-9.963h21.074c5.502,0,9.963,4.461,9.963,9.963V238.951z"/>
					<g>
						<path fill="#FFFFFF" d="M293,234.951c0,5.502-4.461,9.963-9.963,9.963h-21.074c-5.502,0-9.963-4.461-9.963-9.963v-21.074
							c0-5.502,4.461-9.963,9.963-9.963h21.074c5.502,0,9.963,4.461,9.963,9.963V234.951z"/>
						<path fill="#FFFFFF" d="M387,234.951c0,5.502-4.461,9.963-9.963,9.963h-21.074c-5.502,0-9.963-4.461-9.963-9.963v-21.074
							c0-5.502,4.461-9.963,9.963-9.963h21.074c5.502,0,9.963,4.461,9.963,9.963V234.951z"/>
					</g>
					<path fill="#FFFFFF" d="M340,234.951c0,5.502-4.461,9.963-9.963,9.963h-21.074c-5.502,0-9.963-4.461-9.963-9.963v-21.074
						c0-5.502,4.461-9.963,9.963-9.963h21.074c5.502,0,9.963,4.461,9.963,9.963V234.951z"/>
					<path fill="#E3E3E3" d="M340,186.951c0,5.502-4.461,9.963-9.963,9.963h-21.074c-5.502,0-9.963-4.461-9.963-9.963v-31.074
						c0-5.502,4.461-9.963,9.963-9.963h21.074c5.502,0,9.963,4.461,9.963,9.963V186.951z"/>
					<path fill="#FFFFFF" d="M340,182.951c0,5.502-4.461,9.963-9.963,9.963h-21.074c-5.502,0-9.963-4.461-9.963-9.963v-31.074
						c0-5.502,4.461-9.963,9.963-9.963h21.074c5.502,0,9.963,4.461,9.963,9.963V182.951z"/>
				</g>
				<g>
					<g>
						<path fill="#E3E3E3" d="M293,291.951c0,5.502-4.461,9.963-9.963,9.963h-21.074c-5.502,0-9.963-4.461-9.963-9.963v-21.074
							c0-5.502,4.461-9.963,9.963-9.963h21.074c5.502,0,9.963,4.461,9.963,9.963V291.951z"/>
						<path fill="#E3E3E3" d="M387,291.951c0,5.502-4.461,9.963-9.963,9.963h-21.074c-5.502,0-9.963-4.461-9.963-9.963v-21.074
							c0-5.502,4.461-9.963,9.963-9.963h21.074c5.502,0,9.963,4.461,9.963,9.963V291.951z"/>
					</g>
					<path fill="#E3E3E3" d="M340,291.951c0,5.502-4.461,9.963-9.963,9.963h-21.074c-5.502,0-9.963-4.461-9.963-9.963v-21.074
						c0-5.502,4.461-9.963,9.963-9.963h21.074c5.502,0,9.963,4.461,9.963,9.963V291.951z"/>
					<g>
						<path fill="#FFFFFF" d="M293,287.951c0,5.502-4.461,9.963-9.963,9.963h-21.074c-5.502,0-9.963-4.461-9.963-9.963v-21.074
							c0-5.502,4.461-9.963,9.963-9.963h21.074c5.502,0,9.963,4.461,9.963,9.963V287.951z"/>
						<path fill="#FFFFFF" d="M387,287.951c0,5.502-4.461,9.963-9.963,9.963h-21.074c-5.502,0-9.963-4.461-9.963-9.963v-21.074
							c0-5.502,4.461-9.963,9.963-9.963h21.074c5.502,0,9.963,4.461,9.963,9.963V287.951z"/>
					</g>
					<path fill="#FFFFFF" d="M340,287.951c0,5.502-4.461,9.963-9.963,9.963h-21.074c-5.502,0-9.963-4.461-9.963-9.963v-21.074
						c0-5.502,4.461-9.963,9.963-9.963h21.074c5.502,0,9.963,4.461,9.963,9.963V287.951z"/>
				</g>
				<g>
					<g>
						<path fill="#E3E3E3" d="M293,343.951c0,5.502-4.461,9.963-9.963,9.963h-21.074c-5.502,0-9.963-4.461-9.963-9.963v-21.074
							c0-5.502,4.461-9.963,9.963-9.963h21.074c5.502,0,9.963,4.461,9.963,9.963V343.951z"/>
						<path fill="#E3E3E3" d="M387,343.951c0,5.502-4.461,9.963-9.963,9.963h-21.074c-5.502,0-9.963-4.461-9.963-9.963v-21.074
							c0-5.502,4.461-9.963,9.963-9.963h21.074c5.502,0,9.963,4.461,9.963,9.963V343.951z"/>
					</g>
					<path fill="#E3E3E3" d="M340,343.951c0,5.502-4.461,9.963-9.963,9.963h-21.074c-5.502,0-9.963-4.461-9.963-9.963v-21.074
						c0-5.502,4.461-9.963,9.963-9.963h21.074c5.502,0,9.963,4.461,9.963,9.963V343.951z"/>
					<g>
						<path fill="#FFFFFF" d="M293,339.951c0,5.502-4.461,9.963-9.963,9.963h-21.074c-5.502,0-9.963-4.461-9.963-9.963v-21.074
							c0-5.502,4.461-9.963,9.963-9.963h21.074c5.502,0,9.963,4.461,9.963,9.963V339.951z"/>
						<path fill="#FFFFFF" d="M387,339.951c0,5.502-4.461,9.963-9.963,9.963h-21.074c-5.502,0-9.963-4.461-9.963-9.963v-21.074
							c0-5.502,4.461-9.963,9.963-9.963h21.074c5.502,0,9.963,4.461,9.963,9.963V339.951z"/>
					</g>
					<path fill="#FFFFFF" d="M340,339.951c0,5.502-4.461,9.963-9.963,9.963h-21.074c-5.502,0-9.963-4.461-9.963-9.963v-21.074
						c0-5.502,4.461-9.963,9.963-9.963h21.074c5.502,0,9.963,4.461,9.963,9.963V339.951z"/>
				</g>
				<g>
					<g>
						<path fill="#E3E3E3" d="M293,396.951c0,5.502-4.461,9.963-9.963,9.963h-21.074c-5.502,0-9.963-4.461-9.963-9.963v-21.074
							c0-5.502,4.461-9.963,9.963-9.963h21.074c5.502,0,9.963,4.461,9.963,9.963V396.951z"/>
						<path fill="#E3E3E3" d="M387,396.951c0,5.502-4.461,9.963-9.963,9.963h-21.074c-5.502,0-9.963-4.461-9.963-9.963v-21.074
							c0-5.502,4.461-9.963,9.963-9.963h21.074c5.502,0,9.963,4.461,9.963,9.963V396.951z"/>
					</g>
					<path fill="#E3E3E3" d="M340,396.951c0,5.502-4.461,9.963-9.963,9.963h-21.074c-5.502,0-9.963-4.461-9.963-9.963v-21.074
						c0-5.502,4.461-9.963,9.963-9.963h21.074c5.502,0,9.963,4.461,9.963,9.963V396.951z"/>
					<g>
						<path fill="#FFFFFF" d="M293,392.951c0,5.502-4.461,9.963-9.963,9.963h-21.074c-5.502,0-9.963-4.461-9.963-9.963v-21.074
							c0-5.502,4.461-9.963,9.963-9.963h21.074c5.502,0,9.963,4.461,9.963,9.963V392.951z"/>
						<path fill="#FFFFFF" d="M387,392.951c0,5.502-4.461,9.963-9.963,9.963h-21.074c-5.502,0-9.963-4.461-9.963-9.963v-21.074
							c0-5.502,4.461-9.963,9.963-9.963h21.074c5.502,0,9.963,4.461,9.963,9.963V392.951z"/>
					</g>
					<path fill="#FFFFFF" d="M340,392.951c0,5.502-4.461,9.963-9.963,9.963h-21.074c-5.502,0-9.963-4.461-9.963-9.963v-21.074
						c0-5.502,4.461-9.963,9.963-9.963h21.074c5.502,0,9.963,4.461,9.963,9.963V392.951z"/>
				</g>
			</g>
			<path fill="#FFD161" d="M286.577,154.915h-28.667c-3.406,0-6.167-2.761-6.167-6.167v-1c0-3.406,2.761-6.167,6.167-6.167h28.667
				c3.406,0,6.167,2.761,6.167,6.167v1C292.744,152.155,289.983,154.915,286.577,154.915z"/>
			<path fill="#2D415A" d="M286.577,196.582h-28.667c-3.406,0-6.167-2.761-6.167-6.167v-1c0-3.406,2.761-6.167,6.167-6.167h28.667
				c3.406,0,6.167,2.761,6.167,6.167v1C292.744,193.821,289.983,196.582,286.577,196.582z"/>
			<path fill="#5C84B8" d="M286.577,193.582h-28.667c-3.406,0-6.167-2.761-6.167-6.167v-1c0-3.406,2.761-6.167,6.167-6.167h28.667
				c3.406,0,6.167,2.761,6.167,6.167v1C292.744,190.821,289.983,193.582,286.577,193.582z"/>
			<path fill="#CF5341" d="M379.911,157.915h-28.667c-3.406,0-6.167-2.761-6.167-6.167v-1c0-3.406,2.761-6.167,6.167-6.167h28.667
				c3.406,0,6.167,2.761,6.167,6.167v1C386.077,155.155,383.316,157.915,379.911,157.915z"/>
			<path fill="#FF6650" d="M379.911,154.915h-28.667c-3.406,0-6.167-2.761-6.167-6.167v-1c0-3.406,2.761-6.167,6.167-6.167h28.667
				c3.406,0,6.167,2.761,6.167,6.167v1C386.077,152.155,383.316,154.915,379.911,154.915z"/>
			<path fill="#6E4224" d="M379.911,196.582h-28.667c-3.406,0-6.167-2.761-6.167-6.167v-1c0-3.406,2.761-6.167,6.167-6.167h28.667
				c3.406,0,6.167,2.761,6.167,6.167v1C386.077,193.821,383.316,196.582,379.911,196.582z"/>
			<path fill="#8A532D" d="M379.911,193.582h-28.667c-3.406,0-6.167-2.761-6.167-6.167v-1c0-3.406,2.761-6.167,6.167-6.167h28.667
				c3.406,0,6.167,2.761,6.167,6.167v1C386.077,190.821,383.316,193.582,379.911,193.582z"/>
			<g>
				<path fill="#38D6BD" d="M148.23,89.914c-11.866,0-21.23,9.315-21.23,21.182v273.316c0,11.867,9.364,21.503,21.23,21.503H181
					v-316H148.23z"/>
				<path fill="#2FB49F" d="M236,384.412V111.096c0-11.867-10.113-21.182-21.98-21.182H181v316h33.02
					C225.887,405.914,236,396.278,236,384.412z"/>
			</g>
			<polygon fill="#6FEBE7" points="287.653,94.914 278.301,131.914 304.801,131.914 314.153,94.914 			"/>
			<polygon fill="#6FEBE7" points="327.172,94.914 317.82,131.914 334.32,131.914 343.672,94.914 			"/>
		</g>
	</g>
	<g id="pool">
	</g>
	<g id="food_service">
	</g>
	<g id="wifi">
	</g>
	<g id="bed">
	</g>
	<g id="door">
	</g>
	<g id="key">
	</g>
	<g id="do_not_disturb">
	</g>
	<g id="bell">
	</g>
</g>
<g id="winter">
	<g id="snowman">
	</g>
	<g id="snow_mountain">
	</g>
	<g id="reindeer">
	</g>
	<g id="winter_tree">
	</g>
	<g id="lift">
	</g>
	<g id="beanie__x26__google">
	</g>
	<g id="ski">
	</g>
	<g id="snowboard">
	</g>
	<g id="snowboading">
	</g>
	<g id="skiing">
	</g>
</g>
<g id="general_travelling">
	<g id="dinner_set">
	</g>
	<g id="polaroid">
	</g>
	<g id="camera">
	</g>
	<g id="calendar">
	</g>
	<g id="calendar_single">
	</g>
	<g id="shopping_bag">
	</g>
	<g id="watch">
	</g>
	<g id="alarm_clock">
	</g>
	<g id="credit_card">
	</g>
	<g id="road_sign">
	</g>
	<g id="hotel">
	</g>
	<g id="money">
	</g>
	<g id="sunglass">
	</g>
	<g id="cocktail">
	</g>
	<g id="compass">
	</g>
	<g id="tent">
	</g>
	<g id="backpack">
	</g>
	<g id="map">
	</g>
	<g id="ticket_1_">
	</g>
	<g id="passport">
	</g>
	<g id="luggage">
	</g>
	<g id="globe">
	</g>
	<g id="suitcase">
	</g>
</g>
<g id="vehicles">
	<g id="trailer">
	</g>
	<g id="airplane">
	</g>
	<g id="yatch">
	</g>
	<g id="taxi">
	</g>
	<g id="hot_air_ballon">
	</g>
	<g id="bus">
	</g>
	<g id="train">
	</g>
</g>
<g id="summer">
	<g id="postcard">
	</g>
	<g id="bikini">
	</g>
	<g id="flipflop">
	</g>
	<g id="plane_around_the_globe">
	</g>
	<g id="binocular">
	</g>
	<g id="beach_table">
	</g>
	<g id="sun_hat">
	</g>
	<g id="beach_bag">
	</g>
	<g id="sea__x26__wave">
	</g>
	<g id="beach">
	</g>
	<g id="beach_ball">
	</g>
	<g id="jetski">
	</g>
	<g id="sandcastle">
	</g>
	<g id="lifeguard_male">
	</g>
	<g id="lifeguard_female">
	</g>
	<g id="lighthouse">
	</g>
	<g id="hammok">
	</g>
	<g id="beach_chair__x26__umbrella">
	</g>
	<g id="lifeguard">
	</g>
	<g id="suncream">
	</g>
	<g id="starfish">
	</g>
	<g id="beach_bar">
	</g>
	<g id="bucket__x26__shovel">
	</g>
	<g id="palm_tree">
	</g>
	<g id="shark_warning">
	</g>
	<g id="surfboard">
	</g>
	<g id="swimming_trunks">
	</g>
	<g id="coconut_drink">
	</g>
	<g id="beach_chair__x26__towel">
	</g>
	<g id="coconut_tree">
	</g>
</g>
</svg>
