<?xml version="1.0" encoding="utf-8"?>
<!-- Generator: Adobe Illustrator 17.0.0, SVG Export Plug-In . SVG Version: 6.00 Build 0)  -->
<!DOCTYPE svg PUBLIC "-//W3C//DTD SVG 1.1//EN" "http://www.w3.org/Graphics/SVG/1.1/DTD/svg11.dtd">
<svg version="1.1" xmlns="http://www.w3.org/2000/svg" xmlns:xlink="http://www.w3.org/1999/xlink" x="0px" y="0px" width="512px"
	 height="512px" viewBox="0 0 512 512" enable-background="new 0 0 512 512" xml:space="preserve">
<g id="famous_places">
	<g id="Pyramid">
	</g>
	<g id="Colloseum">
	</g>
	<g id="Mount_Fuji">
	</g>
	<g id="Great_Wall_of_China">
	</g>
	<g id="Stonehenge">
	</g>
	<g id="Golden_Gate_Bridge">
	</g>
	<g id="Christ_the_Redeemer">
	</g>
	<g id="Statue_of_Liberty">
	</g>
	<g id="Taj_Mahal">
	</g>
	<g id="Eiffel_tower">
	</g>
</g>
<g id="camping">
	<g id="mug">
	</g>
	<g id="hook">
	</g>
	<g id="Swiss_knife">
	</g>
	<g id="flashlight">
	</g>
	<g id="lantern">
	</g>
	<g id="campfire">
	</g>
	<g id="beanie">
	</g>
	<g id="rope">
	</g>
	<g id="boot">
	</g>
	<g id="axe">
	</g>
</g>
<g id="hotel_1_">
	<g id="towel">
	</g>
	<g id="phone">
	</g>
	<g id="pool">
	</g>
	<g id="food_service">
	</g>
	<g id="wifi">
	</g>
	<g id="bed">
	</g>
	<g id="door">
	</g>
	<g id="key">
		<g>
			<path fill="#2D415A" d="M287.912,154.009l-70.128-61.083c-9.162-7.98-23.059-7.023-31.039,2.14L67.863,231.55
				c-7.98,9.162-7.022,23.059,2.14,31.039l70.128,61.083c9.162,7.98,23.059,7.023,31.039-2.14l118.882-136.485
				C298.032,175.886,297.074,161.989,287.912,154.009z M216.73,165.179c-5.794-5.047-6.4-13.835-1.353-19.629
				s13.835-6.4,19.63-1.353s6.4,13.835,1.353,19.629C231.312,169.62,222.524,170.226,216.73,165.179z"/>
			<path fill="#5C84B8" d="M282.511,178.48c4.353-4.997,3.83-12.577-1.167-16.93l-70.128-61.083
				c-4.997-4.353-12.577-3.83-16.93,1.167L75.404,238.118c-4.353,4.997-3.83,12.577,1.167,16.93l70.128,61.083
				c4.997,4.353,12.577,3.83,16.93-1.167L282.511,178.48z M216.73,165.179c-5.794-5.047-6.4-13.835-1.353-19.629
				s13.835-6.4,19.63-1.353s6.4,13.835,1.353,19.629C231.312,169.62,222.524,170.226,216.73,165.179z"/>
			<g>
				<path fill="#FFB561" d="M371.502,235.825c-13.361-13.911-31.235-21.952-50.328-22.644c-20.183-0.724-39.291,6.59-53.828,20.609
					c-14.548,14.031-22.856,32.857-22.856,53.012c0,28.899,17.511,55.617,43.511,67.338v11.611c0,2.209,2.385,4.047,4.594,4.047
					h52.561c2.209,0,3.846-1.838,3.846-4.047v-11.983c11-5.121,20.905-12.924,28.262-22.691
					c9.628-12.784,14.78-28.018,14.827-44.052C392.144,267.914,384.858,249.732,371.502,235.825z M318.461,248.133
					c-17.397,0-31.5-7.761-31.5-17.333s14.103-17.333,31.5-17.333s31.5,7.761,31.5,17.333S335.858,248.133,318.461,248.133z"/>
				<path fill="#FFD161" d="M371.502,225.825c-13.361-13.911-31.235-21.952-50.328-22.644c-20.183-0.724-39.291,6.59-53.828,20.609
					c-14.548,14.031-22.628,32.857-22.628,53.012c0,28.899,17.739,55.617,43.739,67.338v11.611c0,2.209,1.928,4.047,4.137,4.047
					h52.561c2.209,0,4.303-1.838,4.303-4.047v-11.983c11-5.121,20.677-12.924,28.033-22.691
					c9.628-12.784,14.666-28.018,14.712-44.052C392.258,257.914,384.858,239.732,371.502,225.825z M318.461,248.133
					c-17.397,0-31.5-7.761-31.5-17.333s14.103-17.333,31.5-17.333s31.5,7.761,31.5,17.333S335.858,248.133,318.461,248.133z"/>
				<path fill="#FFB561" d="M318.461,248.133c-16.167,0-29.482-6.703-31.285-15.333c-0.137,0.657-0.215,1.323-0.215,2
					c0,9.573,14.103,17.333,31.5,17.333s31.5-7.761,31.5-17.333c0-0.677-0.078-1.343-0.215-2
					C347.942,241.429,334.627,248.133,318.461,248.133z"/>
				<polygon fill="#A6A6A6" points="337.457,371.799 299.457,371.799 299.457,397.133 308.957,406.466 299.457,410.799 
					299.457,437.799 304.457,447.133 299.457,452.799 299.457,485.826 318.457,494.799 337.457,485.826 337.457,452.799 
					332.457,447.133 337.457,437.799 337.457,410.799 327.957,406.466 337.457,397.133 				"/>
				<polygon fill="#CCCCCC" points="337,363.799 299,363.799 299,389.133 308.5,398.466 299,402.799 299,429.799 304,439.133 
					299,444.799 299,477.826 318,486.799 337,477.826 337,444.799 332,439.133 337,429.799 337,402.799 327.5,398.466 337,389.133 
									"/>
				<rect x="314.957" y="363.799" fill="#A6A6A6" width="7" height="123"/>
			</g>
			<g>
				<path fill="#E3E3E3" d="M132.107,215.351c-0.804,0.923-1.801,1.427-2.989,1.508c-1.188,0.083-2.245-0.279-3.168-1.084
					c-0.924-0.805-1.427-1.801-1.509-2.99c-0.083-1.188,0.279-2.245,1.084-3.168l29.673-34.067c0.805-0.924,1.801-1.427,2.99-1.509
					c1.188-0.081,2.245,0.279,3.169,1.084c0.923,0.804,1.426,1.802,1.508,2.989c0.082,1.189-0.279,2.245-1.084,3.169
					L132.107,215.351z"/>
				<path fill="#E3E3E3" d="M144.5,220.357l13.742,11.97c0.923,0.804,1.426,1.802,1.509,2.99c0.081,1.188-0.28,2.244-1.085,3.168
					c-0.804,0.923-1.801,1.427-2.989,1.509c-1.189,0.082-2.245-0.28-3.169-1.084l-14.204-12.372
					c-0.923-0.804-1.629-1.706-2.113-2.703c-0.485-0.998-0.745-2.02-0.781-3.067c-0.037-1.047,0.12-2.061,0.468-3.045
					c0.348-0.982,0.875-1.879,1.578-2.686l4.929-5.659c2.514-2.887,5.629-4.675,9.345-5.365c4.609-0.86,8.876,0.419,12.802,3.839
					c2.002,1.743,4.031,2.327,6.091,1.752c1.387-0.349,2.634-1.158,3.741-2.429c1.072-1.231,1.705-2.541,1.899-3.93
					c0.288-2.119-0.588-4.067-2.627-5.844c-1.963-1.71-3.974-2.277-6.033-1.7c-1.388,0.349-2.634,1.157-3.741,2.428
					c-0.772,0.886-1.75,1.387-2.935,1.505c-1.187,0.118-2.261-0.243-3.222-1.081c-0.924-0.805-1.429-1.82-1.512-3.044
					c-0.085-1.224,0.276-2.298,1.081-3.222c2.481-2.848,5.579-4.618,9.295-5.308c4.609-0.86,8.876,0.419,12.802,3.839
					c3.965,3.453,5.833,7.486,5.609,12.097c-0.174,3.775-1.518,7.106-4.033,9.993c-2.548,2.926-5.644,4.731-9.287,5.417
					c-4.608,0.86-8.895-0.437-12.859-3.89c-1.963-1.71-3.974-2.277-6.033-1.701c-1.389,0.35-2.634,1.158-3.741,2.429L144.5,220.357z
					"/>
				<path fill="#E3E3E3" d="M171.06,243.491l13.742,11.97c0.923,0.804,1.426,1.802,1.509,2.99c0.081,1.188-0.28,2.244-1.085,3.168
					c-0.804,0.923-1.801,1.427-2.989,1.509c-1.189,0.082-2.245-0.28-3.169-1.084l-14.204-12.372
					c-0.923-0.804-1.629-1.706-2.113-2.703c-0.485-0.998-0.745-2.02-0.781-3.067c-0.037-1.047,0.12-2.061,0.468-3.045
					c0.348-0.982,0.875-1.879,1.578-2.686l4.929-5.659c2.514-2.887,5.629-4.675,9.345-5.365c4.609-0.86,8.876,0.419,12.802,3.839
					c2.001,1.743,4.031,2.327,6.091,1.752c1.387-0.349,2.634-1.158,3.741-2.428c1.072-1.231,1.705-2.542,1.899-3.93
					c0.288-2.119-0.588-4.067-2.627-5.844c-1.963-1.71-3.974-2.277-6.033-1.7c-1.388,0.349-2.634,1.158-3.741,2.428
					c-0.772,0.886-1.75,1.387-2.935,1.505c-1.187,0.118-2.261-0.243-3.222-1.081c-0.924-0.805-1.429-1.82-1.512-3.044
					c-0.085-1.224,0.276-2.298,1.081-3.222c2.481-2.848,5.579-4.618,9.295-5.308c4.609-0.86,8.876,0.419,12.802,3.839
					c3.965,3.453,5.833,7.486,5.609,12.097c-0.174,3.775-1.518,7.106-4.033,9.993c-2.548,2.926-5.644,4.731-9.287,5.417
					c-4.608,0.86-8.895-0.437-12.859-3.89c-1.963-1.71-3.974-2.277-6.033-1.701c-1.389,0.35-2.634,1.158-3.741,2.428L171.06,243.491
					z"/>
			</g>
			<g>
				<path fill="#CCCCCC" d="M318.46,30.299c-43.905,0-81.355,28.138-95.282,67.325l9.002,7.841
					c11.161-37.078,45.614-64.166,86.281-64.166c49.675,0,90.088,40.413,90.088,90.088c0,36.364-21.659,67.763-52.753,81.979
					c-3.772,1.725-7.684,3.193-11.712,4.39c-1.051,0.312-2.108,0.612-3.175,0.887c-7.179,1.848-14.701,2.832-22.449,2.832
					c-7.748,0-15.27-0.983-22.448-2.832c-4.311,2.411-7.345,5.512-8.513,8.976c9.762,3.148,20.165,4.856,30.961,4.856
					c10.796,0,21.199-1.708,30.962-4.856c2.825-0.911,5.598-1.937,8.309-3.084c2.805-1.187,5.543-2.502,8.213-3.929
					c31.868-17.029,53.604-50.631,53.604-89.219C419.548,75.647,374.2,30.299,318.46,30.299z"/>
				<path fill="#CCCCCC" d="M262.254,201.737c-11.964-9.577-21.43-22.142-27.284-36.545c-3.079-7.575-5.162-15.655-6.071-24.085
					c-3.694-0.821-7.628-0.096-10.829,2.076c1.032,8.84,3.203,17.337,6.374,25.336c6.482,16.353,17.116,30.619,30.591,41.507
					c2.6,2.101,5.306,4.076,8.109,5.916c2.52,1.654,5.112,3.209,7.781,4.637c3.203-2.719,6.594-5.133,10.144-7.238
					c-3.684-1.688-7.231-3.624-10.63-5.774C267.6,205.77,264.866,203.827,262.254,201.737z"/>
			</g>
		</g>
	</g>
	<g id="do_not_disturb">
	</g>
	<g id="bell">
	</g>
</g>
<g id="winter">
	<g id="snowman">
	</g>
	<g id="snow_mountain">
	</g>
	<g id="reindeer">
	</g>
	<g id="winter_tree">
	</g>
	<g id="lift">
	</g>
	<g id="beanie__x26__google">
	</g>
	<g id="ski">
	</g>
	<g id="snowboard">
	</g>
	<g id="snowboading">
	</g>
	<g id="skiing">
	</g>
</g>
<g id="general_travelling">
	<g id="dinner_set">
	</g>
	<g id="polaroid">
	</g>
	<g id="camera">
	</g>
	<g id="calendar">
	</g>
	<g id="calendar_single">
	</g>
	<g id="shopping_bag">
	</g>
	<g id="watch">
	</g>
	<g id="alarm_clock">
	</g>
	<g id="credit_card">
	</g>
	<g id="road_sign">
	</g>
	<g id="hotel">
	</g>
	<g id="money">
	</g>
	<g id="sunglass">
	</g>
	<g id="cocktail">
	</g>
	<g id="compass">
	</g>
	<g id="tent">
	</g>
	<g id="backpack">
	</g>
	<g id="map">
	</g>
	<g id="ticket_1_">
	</g>
	<g id="passport">
	</g>
	<g id="luggage">
	</g>
	<g id="globe">
	</g>
	<g id="suitcase">
	</g>
</g>
<g id="vehicles">
	<g id="trailer">
	</g>
	<g id="airplane">
	</g>
	<g id="yatch">
	</g>
	<g id="taxi">
	</g>
	<g id="hot_air_ballon">
	</g>
	<g id="bus">
	</g>
	<g id="train">
	</g>
</g>
<g id="summer">
	<g id="postcard">
	</g>
	<g id="bikini">
	</g>
	<g id="flipflop">
	</g>
	<g id="plane_around_the_globe">
	</g>
	<g id="binocular">
	</g>
	<g id="beach_table">
	</g>
	<g id="sun_hat">
	</g>
	<g id="beach_bag">
	</g>
	<g id="sea__x26__wave">
	</g>
	<g id="beach">
	</g>
	<g id="beach_ball">
	</g>
	<g id="jetski">
	</g>
	<g id="sandcastle">
	</g>
	<g id="lifeguard_male">
	</g>
	<g id="lifeguard_female">
	</g>
	<g id="lighthouse">
	</g>
	<g id="hammok">
	</g>
	<g id="beach_chair__x26__umbrella">
	</g>
	<g id="lifeguard">
	</g>
	<g id="suncream">
	</g>
	<g id="starfish">
	</g>
	<g id="beach_bar">
	</g>
	<g id="bucket__x26__shovel">
	</g>
	<g id="palm_tree">
	</g>
	<g id="shark_warning">
	</g>
	<g id="surfboard">
	</g>
	<g id="swimming_trunks">
	</g>
	<g id="coconut_drink">
	</g>
	<g id="beach_chair__x26__towel">
	</g>
	<g id="coconut_tree">
	</g>
</g>
</svg>
