<?xml version="1.0" encoding="utf-8"?>
<!-- Generator: Adobe Illustrator 17.0.0, SVG Export Plug-In . SVG Version: 6.00 Build 0)  -->
<!DOCTYPE svg PUBLIC "-//W3C//DTD SVG 1.1//EN" "http://www.w3.org/Graphics/SVG/1.1/DTD/svg11.dtd">
<svg version="1.1" xmlns="http://www.w3.org/2000/svg" xmlns:xlink="http://www.w3.org/1999/xlink" x="0px" y="0px" width="512px"
	 height="512px" viewBox="0 0 512 512" enable-background="new 0 0 512 512" xml:space="preserve">
<g id="famous_places">
	<g id="Pyramid">
	</g>
	<g id="Colloseum">
	</g>
	<g id="Mount_Fuji">
	</g>
	<g id="Great_Wall_of_China">
	</g>
	<g id="Stonehenge">
	</g>
	<g id="Golden_Gate_Bridge">
	</g>
	<g id="Christ_the_Redeemer">
	</g>
	<g id="Statue_of_Liberty">
	</g>
	<g id="Taj_Mahal">
	</g>
	<g id="Eiffel_tower">
	</g>
</g>
<g id="camping">
	<g id="mug">
	</g>
	<g id="hook">
	</g>
	<g id="Swiss_knife">
	</g>
	<g id="flashlight">
	</g>
	<g id="lantern">
	</g>
	<g id="campfire">
	</g>
	<g id="beanie">
	</g>
	<g id="rope">
	</g>
	<g id="boot">
	</g>
	<g id="axe">
	</g>
</g>
<g id="hotel_1_">
	<g id="towel">
	</g>
	<g id="phone">
	</g>
	<g id="pool">
	</g>
	<g id="food_service">
	</g>
	<g id="wifi">
	</g>
	<g id="bed">
	</g>
	<g id="door">
	</g>
	<g id="key">
	</g>
	<g id="do_not_disturb">
	</g>
	<g id="bell">
	</g>
</g>
<g id="winter">
	<g id="snowman">
	</g>
	<g id="snow_mountain">
	</g>
	<g id="reindeer">
	</g>
	<g id="winter_tree">
	</g>
	<g id="lift">
	</g>
	<g id="beanie__x26__google">
	</g>
	<g id="ski">
	</g>
	<g id="snowboard">
	</g>
	<g id="snowboading">
	</g>
	<g id="skiing">
	</g>
</g>
<g id="general_travelling">
	<g id="dinner_set">
	</g>
	<g id="polaroid">
	</g>
	<g id="camera">
	</g>
	<g id="calendar">
	</g>
	<g id="calendar_single">
	</g>
	<g id="shopping_bag">
	</g>
	<g id="watch">
	</g>
	<g id="alarm_clock">
	</g>
	<g id="credit_card">
	</g>
	<g id="road_sign">
	</g>
	<g id="hotel">
	</g>
	<g id="money">
	</g>
	<g id="sunglass">
	</g>
	<g id="cocktail">
	</g>
	<g id="compass">
	</g>
	<g id="tent">
	</g>
	<g id="backpack">
	</g>
	<g id="map">
	</g>
	<g id="ticket_1_">
	</g>
	<g id="passport">
	</g>
	<g id="luggage">
	</g>
	<g id="globe">
	</g>
	<g id="suitcase">
	</g>
</g>
<g id="vehicles">
	<g id="trailer">
	</g>
	<g id="airplane">
	</g>
	<g id="yatch">
	</g>
	<g id="taxi">
	</g>
	<g id="hot_air_ballon">
	</g>
	<g id="bus">
	</g>
	<g id="train">
	</g>
</g>
<g id="summer">
	<g id="postcard">
	</g>
	<g id="bikini">
	</g>
	<g id="flipflop">
	</g>
	<g id="plane_around_the_globe">
	</g>
	<g id="binocular">
	</g>
	<g id="beach_table">
	</g>
	<g id="sun_hat">
	</g>
	<g id="beach_bag">
	</g>
	<g id="sea__x26__wave">
	</g>
	<g id="beach">
	</g>
	<g id="beach_ball">
	</g>
	<g id="jetski">
	</g>
	<g id="sandcastle">
	</g>
	<g id="lifeguard_male">
	</g>
	<g id="lifeguard_female">
	</g>
	<g id="lighthouse">
	</g>
	<g id="hammok">
	</g>
	<g id="beach_chair__x26__umbrella">
	</g>
	<g id="lifeguard">
		<path fill="none" stroke="#FFD161" stroke-width="10" stroke-linecap="round" stroke-linejoin="round" stroke-miterlimit="10" d="
			M91,221.27c0,0-30.58-71.475,13.461-115.516s106.841-20.478,106.841-20.478"/>
		<path fill="none" stroke="#FFD161" stroke-width="10" stroke-linecap="round" stroke-linejoin="round" stroke-miterlimit="10" d="
			M421,221.27c0,0,30.58-71.475-13.461-115.516S300.698,85.275,300.698,85.275"/>
		<path fill="none" stroke="#FFD161" stroke-width="10" stroke-linecap="round" stroke-linejoin="round" stroke-miterlimit="10" d="
			M421,292.501c0,0,30.58,71.475-13.461,115.516s-106.841,20.478-106.841,20.478"/>
		<path fill="none" stroke="#FFD161" stroke-width="10" stroke-linecap="round" stroke-linejoin="round" stroke-miterlimit="10" d="
			M91,292.501c0,0-30.58,71.475,13.461,115.516s106.841,20.478,106.841,20.478"/>
		<g>
			<g>
				<path fill="#E3E3E3" d="M256,69.885c-103.277,0-187,83.723-187,187s83.723,187,187,187c103.277,0,187-83.723,187-187
					S359.277,69.885,256,69.885z M256,359.276c-56.549,0-102.391-45.842-102.391-102.391S199.451,154.493,256,154.493
					s102.391,45.842,102.391,102.391S312.549,359.276,256,359.276z"/>
			</g>
			<path fill="#A6A6A6" d="M256,142.397c-63.23,0-114.488,51.258-114.488,114.488S192.77,371.373,256,371.373
				c63.23,0,114.489-51.258,114.489-114.488S319.23,142.397,256,142.397z M256,346.839c-49.68,0-89.954-40.274-89.954-89.954
				S206.32,166.931,256,166.931c49.68,0,89.954,40.274,89.954,89.954S305.68,346.839,256,346.839z"/>
			<path fill="#FF6650" d="M295.838,186.219c-1.521,0-3.039-0.347-4.436-1.037c-11.063-5.475-22.975-8.251-35.402-8.251
				c-12.427,0-24.339,2.775-35.403,8.25c-1.396,0.69-2.914,1.037-4.435,1.037c-1.386,0-2.772-0.288-4.068-0.865
				c-2.719-1.211-4.757-3.569-5.561-6.436l-26.419-94.24c-1.397-4.986,1.242-10.215,6.085-12.05
				C208.506,64.172,231.99,59.885,256,59.885c24.009,0,47.493,4.287,69.801,12.741c4.843,1.835,7.482,7.063,6.085,12.05
				l-26.419,94.242c-0.804,2.866-2.842,5.225-5.561,6.436C298.61,185.931,297.224,186.219,295.838,186.219z"/>
			<path fill="#FF6650" d="M256,453.885c-24.012,0-47.496-4.287-69.801-12.741c-4.843-1.835-7.482-7.063-6.085-12.05l26.419-94.242
				c0.804-2.866,2.842-5.225,5.561-6.436c1.296-0.577,2.683-0.865,4.068-0.865c1.521,0,3.039,0.347,4.436,1.037
				c11.063,5.475,22.975,8.251,35.402,8.251s24.339-2.776,35.404-8.251c1.396-0.69,2.914-1.037,4.435-1.037
				c1.386,0,2.772,0.288,4.068,0.865c2.719,1.211,4.757,3.569,5.561,6.436l26.418,94.241c1.397,4.986-1.242,10.215-6.085,12.05
				C303.494,449.598,280.01,453.885,256,453.885z"/>
			<path fill="#FF6650" d="M81.09,333.144c-4.061,0-7.844-2.489-9.348-6.458C63.287,304.379,59,280.895,59,256.885
				c0-24.012,4.287-47.496,12.741-69.801c1.504-3.969,5.287-6.458,9.348-6.458c0.895,0,1.802,0.121,2.702,0.373l94.242,26.419
				c2.866,0.804,5.225,2.842,6.436,5.561s1.148,5.836-0.172,8.504c-5.475,11.063-8.251,22.975-8.251,35.402
				s2.776,24.339,8.251,35.404c1.32,2.667,1.383,5.784,0.172,8.503s-3.569,4.757-6.436,5.561l-94.241,26.418
				C82.892,333.023,81.984,333.144,81.09,333.144z"/>
			<path fill="#FF6650" d="M430.911,333.144c-0.895,0-1.802-0.121-2.702-0.373l-94.242-26.419c-2.866-0.804-5.225-2.842-6.436-5.561
				s-1.148-5.836,0.172-8.504c5.475-11.063,8.251-22.975,8.251-35.402s-2.776-24.339-8.251-35.404
				c-1.32-2.667-1.383-5.784-0.172-8.503s3.569-4.757,6.436-5.561l94.241-26.418c0.9-0.252,1.808-0.373,2.702-0.373
				c4.061,0,7.844,2.489,9.348,6.458C448.713,209.391,453,232.875,453,256.885c0,24.012-4.287,47.496-12.741,69.801
				C438.755,330.654,434.972,333.144,430.911,333.144z"/>
			<path fill="#CF5341" d="M212.094,185.353c1.296,0.577,2.683,0.865,4.068,0.865c1.521,0,3.039-0.347,4.435-1.037
				c11.064-5.475,22.977-8.25,35.403-8.25c12.428,0,24.339,2.776,35.402,8.251c1.396,0.69,2.915,1.037,4.436,1.037
				c1.386,0,2.772-0.288,4.068-0.865c2.719-1.211,4.757-3.569,5.561-6.436l6.194-22.095c-16.478-9.186-35.456-14.427-55.661-14.427
				s-39.182,5.241-55.66,14.427l6.194,22.094C207.337,181.783,209.375,184.142,212.094,185.353z"/>
			<path fill="#CF5341" d="M299.907,328.416c-1.296-0.577-2.683-0.865-4.068-0.865c-1.521,0-3.039,0.347-4.435,1.037
				c-11.065,5.475-22.977,8.251-35.404,8.251s-24.339-2.776-35.402-8.251c-1.396-0.69-2.915-1.037-4.436-1.037
				c-1.386,0-2.772,0.288-4.068,0.865c-2.719,1.211-4.757,3.569-5.561,6.436l-6.194,22.095
				c16.478,9.186,35.456,14.427,55.661,14.427c20.205,0,39.183-5.241,55.661-14.427l-6.194-22.094
				C304.664,331.986,302.626,329.627,299.907,328.416z"/>
			<path fill="#CF5341" d="M184.469,300.792c1.211-2.719,1.148-5.836-0.172-8.503c-5.475-11.065-8.251-22.977-8.251-35.404
				s2.776-24.339,8.251-35.402c1.32-2.668,1.383-5.785,0.172-8.504s-3.569-4.757-6.436-5.561l-22.095-6.194
				c-9.186,16.478-14.427,35.456-14.427,55.661c0,20.205,5.241,39.183,14.427,55.661l22.094-6.194
				C180.899,305.549,183.258,303.511,184.469,300.792z"/>
			<path fill="#CF5341" d="M356.061,201.224l-22.094,6.194c-2.866,0.804-5.225,2.842-6.436,5.561s-1.148,5.836,0.172,8.503
				c5.475,11.065,8.251,22.977,8.251,35.404s-2.776,24.339-8.251,35.402c-1.32,2.668-1.383,5.785-0.172,8.504
				s3.569,4.757,6.436,5.561l22.095,6.194c9.186-16.478,14.427-35.456,14.427-55.661
				C370.488,236.68,365.247,217.702,356.061,201.224z"/>
		</g>
	</g>
	<g id="suncream">
	</g>
	<g id="starfish">
	</g>
	<g id="beach_bar">
	</g>
	<g id="bucket__x26__shovel">
	</g>
	<g id="palm_tree">
	</g>
	<g id="shark_warning">
	</g>
	<g id="surfboard">
	</g>
	<g id="swimming_trunks">
	</g>
	<g id="coconut_drink">
	</g>
	<g id="beach_chair__x26__towel">
	</g>
	<g id="coconut_tree">
	</g>
</g>
</svg>
