<?xml version="1.0" encoding="utf-8"?>
<!-- Generator: Adobe Illustrator 17.0.0, SVG Export Plug-In . SVG Version: 6.00 Build 0)  -->
<!DOCTYPE svg PUBLIC "-//W3C//DTD SVG 1.1//EN" "http://www.w3.org/Graphics/SVG/1.1/DTD/svg11.dtd">
<svg version="1.1" xmlns="http://www.w3.org/2000/svg" xmlns:xlink="http://www.w3.org/1999/xlink" x="0px" y="0px" width="512px"
	 height="512px" viewBox="0 0 512 512" enable-background="new 0 0 512 512" xml:space="preserve">
<g id="famous_places">
	<g id="Pyramid">
	</g>
	<g id="Colloseum">
	</g>
	<g id="Mount_Fuji">
	</g>
	<g id="Great_Wall_of_China">
	</g>
	<g id="Stonehenge">
	</g>
	<g id="Golden_Gate_Bridge">
	</g>
	<g id="Christ_the_Redeemer">
	</g>
	<g id="Statue_of_Liberty">
	</g>
	<g id="Taj_Mahal">
	</g>
	<g id="Eiffel_tower">
	</g>
</g>
<g id="camping">
	<g id="mug">
	</g>
	<g id="hook">
	</g>
	<g id="Swiss_knife">
	</g>
	<g id="flashlight">
	</g>
	<g id="lantern">
	</g>
	<g id="campfire">
	</g>
	<g id="beanie">
	</g>
	<g id="rope">
	</g>
	<g id="boot">
	</g>
	<g id="axe">
	</g>
</g>
<g id="hotel_1_">
	<g id="towel">
	</g>
	<g id="phone">
	</g>
	<g id="pool">
	</g>
	<g id="food_service">
	</g>
	<g id="wifi">
	</g>
	<g id="bed">
	</g>
	<g id="door">
	</g>
	<g id="key">
	</g>
	<g id="do_not_disturb">
	</g>
	<g id="bell">
	</g>
</g>
<g id="winter">
	<g id="snowman">
	</g>
	<g id="snow_mountain">
	</g>
	<g id="reindeer">
	</g>
	<g id="winter_tree">
	</g>
	<g id="lift">
	</g>
	<g id="beanie__x26__google">
	</g>
	<g id="ski">
	</g>
	<g id="snowboard">
	</g>
	<g id="snowboading">
	</g>
	<g id="skiing">
	</g>
</g>
<g id="general_travelling">
	<g id="dinner_set">
	</g>
	<g id="polaroid">
	</g>
	<g id="camera">
	</g>
	<g id="calendar">
	</g>
	<g id="calendar_single">
	</g>
	<g id="shopping_bag">
	</g>
	<g id="watch">
	</g>
	<g id="alarm_clock">
	</g>
	<g id="credit_card">
	</g>
	<g id="road_sign">
	</g>
	<g id="hotel">
		<g>
			<path fill="#2D415A" d="M410,313.937h-38c-2.762,0-5-2.238-5-5s2.238-5,5-5h33v-112h-27c-2.762,0-5-2.238-5-5s2.238-5,5-5h32
				c2.762,0,5,2.238,5,5v122C415,311.699,412.762,313.937,410,313.937z"/>
		</g>
		<path fill="#E3E3E3" d="M443.272,327.437h-38.651c-4.25,0-7.695-3.445-7.695-7.695V171.209c0-4.25,3.445-7.695,7.695-7.695h38.651
			c4.25,0,7.695,3.445,7.695,7.695v148.533C450.967,323.992,447.522,327.437,443.272,327.437z"/>
		<path fill="#FF6650" d="M404.621,322.437c-1.486,0-2.695-1.209-2.695-2.694V171.21c0-1.486,1.209-2.695,2.695-2.695h38.651
			c1.485,0,2.694,1.209,2.694,2.695v148.533c0,1.485-1.209,2.694-2.694,2.694H404.621z"/>
		<g>
			<path fill="#FFFFFF" d="M419.786,175.389v7.222h8.348v-7.222h2.254v17.261h-2.254v-8.093h-8.348v8.093h-2.228v-17.261H419.786z"
				/>
			<path fill="#FFFFFF" d="M431.834,214.568c0,5.941-3.611,9.092-8.016,9.092c-4.559,0-7.76-3.535-7.76-8.759
				c0-5.48,3.406-9.065,8.016-9.065C428.786,205.836,431.834,209.446,431.834,214.568z M418.44,214.85
				c0,3.688,1.998,6.991,5.506,6.991c3.534,0,5.532-3.253,5.532-7.171c0-3.432-1.793-7.017-5.506-7.017
				C420.284,207.654,418.44,211.06,418.44,214.85z"/>
			<path fill="#FFFFFF" d="M422.819,238.74h-5.25v-1.896h12.779v1.896h-5.275v15.366h-2.254V238.74z"/>
			<path fill="#FFFFFF" d="M428.543,276.742h-6.709v6.223h7.478v1.869h-9.706v-17.261h9.322v1.869h-7.094v5.455h6.709V276.742z"/>
			<path fill="#FFFFFF" d="M419.862,298.303h2.228v15.391h7.376v1.869h-9.604V298.303z"/>
		</g>
		<g>
			<path fill="#FFD161" d="M374.417,432.604H137.583c-4.74,0-8.583-3.843-8.583-8.583V119.187c0-4.74,3.843-8.583,8.583-8.583
				h236.833c4.74,0,8.583,3.843,8.583,8.583v304.833C383,428.761,379.157,432.604,374.417,432.604z"/>
			<path fill="#54B3AF" d="M318.208,127.437H193.792c-3.613,0-6.542-2.929-6.542-6.542V110.09c0-3.613,2.929-6.542,6.542-6.542
				h124.417c3.613,0,6.542,2.929,6.542,6.542v10.805C324.75,124.509,321.821,127.437,318.208,127.437z"/>
			<g>
				<path fill="#2D415A" d="M222,385.437c0,2.485-2.015,4.5-4.5,4.5h-20c-2.485,0-4.5-2.015-4.5-4.5v-25c0-2.485,2.015-4.5,4.5-4.5
					h20c2.485,0,4.5,2.015,4.5,4.5V385.437z"/>
				<rect x="198.333" y="360.937" fill="#FFB561" width="19" height="24"/>
				<path fill="#2D415A" d="M321,385.437c0,2.485-2.015,4.5-4.5,4.5h-20c-2.485,0-4.5-2.015-4.5-4.5v-25c0-2.485,2.015-4.5,4.5-4.5
					h20c2.485,0,4.5,2.015,4.5,4.5V385.437z"/>
				<rect x="297.333" y="360.937" fill="#FFB561" width="19" height="24"/>
			</g>
			<rect x="232.272" y="355.937" fill="#228273" width="47.456" height="76.667"/>
			<rect x="232.272" y="355.937" fill="#2FB49F" width="23.728" height="76.667"/>
			<g>
				<g>
					<path fill="#2D415A" d="M172,164.437c0,2.485-2.015,4.5-4.5,4.5h-20c-2.485,0-4.5-2.015-4.5-4.5v-25c0-2.485,2.015-4.5,4.5-4.5
						h20c2.485,0,4.5,2.015,4.5,4.5V164.437z"/>
					<rect x="148" y="139.937" fill="#6FEBE7" width="19" height="24"/>
					<path fill="#2D415A" d="M222,164.437c0,2.485-2.015,4.5-4.5,4.5h-20c-2.485,0-4.5-2.015-4.5-4.5v-25c0-2.485,2.015-4.5,4.5-4.5
						h20c2.485,0,4.5,2.015,4.5,4.5V164.437z"/>
					<rect x="198" y="139.937" fill="#54B3AF" width="19" height="24"/>
					<path fill="#2D415A" d="M271,164.437c0,2.485-2.015,4.5-4.5,4.5h-20c-2.485,0-4.5-2.015-4.5-4.5v-25c0-2.485,2.015-4.5,4.5-4.5
						h20c2.485,0,4.5,2.015,4.5,4.5V164.437z"/>
					<rect x="247.333" y="139.937" fill="#FFB561" width="19" height="24"/>
					<path fill="#2D415A" d="M321,164.437c0,2.485-2.015,4.5-4.5,4.5h-20c-2.485,0-4.5-2.015-4.5-4.5v-25c0-2.485,2.015-4.5,4.5-4.5
						h20c2.485,0,4.5,2.015,4.5,4.5V164.437z"/>
					<rect x="297" y="139.937" fill="#54B3AF" width="19" height="24"/>
					<path fill="#2D415A" d="M371,164.437c0,2.485-2.015,4.5-4.5,4.5h-20c-2.485,0-4.5-2.015-4.5-4.5v-25c0-2.485,2.015-4.5,4.5-4.5
						h20c2.485,0,4.5,2.015,4.5,4.5V164.437z"/>
					<rect x="347" y="139.937" fill="#6FEBE7" width="19" height="24"/>
				</g>
				<g>
					<path fill="#2D415A" d="M172,207.437c0,2.485-2.015,4.5-4.5,4.5h-20c-2.485,0-4.5-2.015-4.5-4.5v-25c0-2.485,2.015-4.5,4.5-4.5
						h20c2.485,0,4.5,2.015,4.5,4.5V207.437z"/>
					<rect x="148" y="182.937" fill="#54B3AF" width="19" height="24"/>
					<path fill="#2D415A" d="M222,207.437c0,2.485-2.015,4.5-4.5,4.5h-20c-2.485,0-4.5-2.015-4.5-4.5v-25c0-2.485,2.015-4.5,4.5-4.5
						h20c2.485,0,4.5,2.015,4.5,4.5V207.437z"/>
					<rect x="198.333" y="182.937" fill="#FFB561" width="19" height="24"/>
					<path fill="#2D415A" d="M271,207.437c0,2.485-2.015,4.5-4.5,4.5h-20c-2.485,0-4.5-2.015-4.5-4.5v-25c0-2.485,2.015-4.5,4.5-4.5
						h20c2.485,0,4.5,2.015,4.5,4.5V207.437z"/>
					<rect x="247" y="182.937" fill="#54B3AF" width="19" height="24"/>
					<path fill="#2D415A" d="M321,207.437c0,2.485-2.015,4.5-4.5,4.5h-20c-2.485,0-4.5-2.015-4.5-4.5v-25c0-2.485,2.015-4.5,4.5-4.5
						h20c2.485,0,4.5,2.015,4.5,4.5V207.437z"/>
					<rect x="297.333" y="182.937" fill="#FFB561" width="19" height="24"/>
					<path fill="#2D415A" d="M371,207.437c0,2.485-2.015,4.5-4.5,4.5h-20c-2.485,0-4.5-2.015-4.5-4.5v-25c0-2.485,2.015-4.5,4.5-4.5
						h20c2.485,0,4.5,2.015,4.5,4.5V207.437z"/>
					<rect x="347" y="182.937" fill="#54B3AF" width="19" height="24"/>
				</g>
				<g>
					<path fill="#2D415A" d="M172,250.437c0,2.485-2.015,4.5-4.5,4.5h-20c-2.485,0-4.5-2.015-4.5-4.5v-25c0-2.485,2.015-4.5,4.5-4.5
						h20c2.485,0,4.5,2.015,4.5,4.5V250.437z"/>
					<rect x="148" y="225.937" fill="#6FEBE7" width="19" height="24"/>
					<path fill="#2D415A" d="M222,250.437c0,2.485-2.015,4.5-4.5,4.5h-20c-2.485,0-4.5-2.015-4.5-4.5v-25c0-2.485,2.015-4.5,4.5-4.5
						h20c2.485,0,4.5,2.015,4.5,4.5V250.437z"/>
					<rect x="198" y="225.937" fill="#54B3AF" width="19" height="24"/>
					<path fill="#2D415A" d="M271,250.437c0,2.485-2.015,4.5-4.5,4.5h-20c-2.485,0-4.5-2.015-4.5-4.5v-25c0-2.485,2.015-4.5,4.5-4.5
						h20c2.485,0,4.5,2.015,4.5,4.5V250.437z"/>
					<rect x="247.333" y="225.937" fill="#FFB561" width="19" height="24"/>
					<path fill="#2D415A" d="M321,250.437c0,2.485-2.015,4.5-4.5,4.5h-20c-2.485,0-4.5-2.015-4.5-4.5v-25c0-2.485,2.015-4.5,4.5-4.5
						h20c2.485,0,4.5,2.015,4.5,4.5V250.437z"/>
					<rect x="297" y="225.937" fill="#54B3AF" width="19" height="24"/>
					<path fill="#2D415A" d="M371,250.437c0,2.485-2.015,4.5-4.5,4.5h-20c-2.485,0-4.5-2.015-4.5-4.5v-25c0-2.485,2.015-4.5,4.5-4.5
						h20c2.485,0,4.5,2.015,4.5,4.5V250.437z"/>
					<rect x="347" y="225.937" fill="#6FEBE7" width="19" height="24"/>
				</g>
				<g>
					<path fill="#2D415A" d="M172,293.437c0,2.485-2.015,4.5-4.5,4.5h-20c-2.485,0-4.5-2.015-4.5-4.5v-25c0-2.485,2.015-4.5,4.5-4.5
						h20c2.485,0,4.5,2.015,4.5,4.5V293.437z"/>
					<rect x="148" y="268.937" fill="#54B3AF" width="19" height="24"/>
					<path fill="#2D415A" d="M222,293.437c0,2.485-2.015,4.5-4.5,4.5h-20c-2.485,0-4.5-2.015-4.5-4.5v-25c0-2.485,2.015-4.5,4.5-4.5
						h20c2.485,0,4.5,2.015,4.5,4.5V293.437z"/>
					<rect x="198.333" y="268.937" fill="#FFB561" width="19" height="24"/>
					<path fill="#2D415A" d="M271,293.437c0,2.485-2.015,4.5-4.5,4.5h-20c-2.485,0-4.5-2.015-4.5-4.5v-25c0-2.485,2.015-4.5,4.5-4.5
						h20c2.485,0,4.5,2.015,4.5,4.5V293.437z"/>
					<rect x="247" y="268.937" fill="#54B3AF" width="19" height="24"/>
					<path fill="#2D415A" d="M321,293.437c0,2.485-2.015,4.5-4.5,4.5h-20c-2.485,0-4.5-2.015-4.5-4.5v-25c0-2.485,2.015-4.5,4.5-4.5
						h20c2.485,0,4.5,2.015,4.5,4.5V293.437z"/>
					<rect x="297.333" y="268.937" fill="#FFB561" width="19" height="24"/>
					<path fill="#2D415A" d="M371,293.437c0,2.485-2.015,4.5-4.5,4.5h-20c-2.485,0-4.5-2.015-4.5-4.5v-25c0-2.485,2.015-4.5,4.5-4.5
						h20c2.485,0,4.5,2.015,4.5,4.5V293.437z"/>
					<rect x="347" y="268.937" fill="#54B3AF" width="19" height="24"/>
				</g>
				<g>
					<path fill="#2D415A" d="M172,336.437c0,2.485-2.015,4.5-4.5,4.5h-20c-2.485,0-4.5-2.015-4.5-4.5v-25c0-2.485,2.015-4.5,4.5-4.5
						h20c2.485,0,4.5,2.015,4.5,4.5V336.437z"/>
					<rect x="148" y="311.937" fill="#6FEBE7" width="19" height="24"/>
					<path fill="#2D415A" d="M222,336.437c0,2.485-2.015,4.5-4.5,4.5h-20c-2.485,0-4.5-2.015-4.5-4.5v-25c0-2.485,2.015-4.5,4.5-4.5
						h20c2.485,0,4.5,2.015,4.5,4.5V336.437z"/>
					<rect x="198" y="311.937" fill="#54B3AF" width="19" height="24"/>
					<path fill="#2D415A" d="M271,336.437c0,2.485-2.015,4.5-4.5,4.5h-20c-2.485,0-4.5-2.015-4.5-4.5v-25c0-2.485,2.015-4.5,4.5-4.5
						h20c2.485,0,4.5,2.015,4.5,4.5V336.437z"/>
					<rect x="247.333" y="311.937" fill="#FFB561" width="19" height="24"/>
					<path fill="#2D415A" d="M321,336.437c0,2.485-2.015,4.5-4.5,4.5h-20c-2.485,0-4.5-2.015-4.5-4.5v-25c0-2.485,2.015-4.5,4.5-4.5
						h20c2.485,0,4.5,2.015,4.5,4.5V336.437z"/>
					<rect x="297" y="311.937" fill="#54B3AF" width="19" height="24"/>
					<path fill="#2D415A" d="M371,336.437c0,2.485-2.015,4.5-4.5,4.5h-20c-2.485,0-4.5-2.015-4.5-4.5v-25c0-2.485,2.015-4.5,4.5-4.5
						h20c2.485,0,4.5,2.015,4.5,4.5V336.437z"/>
					<rect x="347" y="311.937" fill="#6FEBE7" width="19" height="24"/>
				</g>
			</g>
			<path fill="#2D415A" d="M167.833,389.937h-20c-2.485,0-4.5-2.015-4.5-4.5v-25c0-2.485,2.015-4.5,4.5-4.5h20
				c2.485,0,4.5,2.015,4.5,4.5v25C172.333,387.923,170.319,389.937,167.833,389.937z"/>
			<rect x="148" y="360.937" fill="#54B3AF" width="19" height="24"/>
			<path fill="#2D415A" d="M366.833,389.937h-20c-2.485,0-4.5-2.015-4.5-4.5v-25c0-2.485,2.015-4.5,4.5-4.5h20
				c2.485,0,4.5,2.015,4.5,4.5v25C371.333,387.923,369.319,389.937,366.833,389.937z"/>
			<rect x="347" y="360.937" fill="#54B3AF" width="19" height="24"/>
			<rect x="227.333" y="355.937" fill="#FF6650" width="59" height="14.5"/>
			<g>
				<path fill="#2D415A" d="M259.225,85.633l3.532,7.157c0.524,1.062,1.537,1.797,2.708,1.968l7.898,1.148
					c2.95,0.429,4.128,4.054,1.993,6.135l-5.715,5.571c-0.848,0.826-1.234,2.017-1.034,3.184l1.349,7.866
					c0.504,2.938-2.58,5.179-5.219,3.792l-7.064-3.714c-1.048-0.551-2.3-0.551-3.347,0l-7.064,3.714
					c-2.639,1.387-5.723-0.853-5.219-3.792l1.349-7.866c0.2-1.167-0.187-2.357-1.034-3.184l-5.715-5.571
					c-2.135-2.081-0.957-5.706,1.993-6.135l7.898-1.148c1.171-0.17,2.184-0.906,2.708-1.968l3.532-7.157
					C254.094,82.959,257.906,82.959,259.225,85.633z"/>
				<path fill="#FFD161" d="M248.32,111.638c0.479-2.789-0.445-5.634-2.472-7.609l-3.679-3.586l5.083-0.738
					c2.799-0.406,5.22-2.163,6.473-4.701L256,90.395l2.273,4.606c1.254,2.54,3.675,4.297,6.475,4.703l5.082,0.738l-3.679,3.587
					c-2.026,1.975-2.95,4.819-2.472,7.609l0.868,5.062l-4.547-2.391c-1.229-0.646-2.612-0.987-4.001-0.987s-2.771,0.342-4,0.987
					l-4.548,2.391L248.32,111.638z"/>
			</g>
			<g>
				<g>
					<path fill="#2D415A" d="M217.725,85.633l3.532,7.157c0.524,1.062,1.537,1.797,2.708,1.968l7.898,1.148
						c2.95,0.429,4.128,4.054,1.993,6.135l-5.715,5.571c-0.848,0.826-1.234,2.017-1.034,3.184l1.349,7.866
						c0.504,2.938-2.58,5.179-5.219,3.792l-7.064-3.714c-1.048-0.551-2.3-0.551-3.347,0l-7.064,3.714
						c-2.639,1.387-5.723-0.853-5.219-3.792l1.349-7.866c0.2-1.167-0.187-2.357-1.034-3.184l-5.715-5.571
						c-2.135-2.081-0.957-5.706,1.993-6.135l7.898-1.148c1.171-0.17,2.184-0.906,2.708-1.968l3.532-7.157
						C212.594,82.959,216.406,82.959,217.725,85.633z"/>
					<path fill="#FFD161" d="M206.32,111.638c0.479-2.789-0.445-5.634-2.472-7.609l-3.679-3.586l5.083-0.738
						c2.799-0.406,5.22-2.163,6.473-4.701L214,90.395l2.273,4.606c1.254,2.54,3.675,4.297,6.475,4.703l5.082,0.738l-3.679,3.587
						c-2.026,1.975-2.95,4.819-2.472,7.609l0.868,5.062l-4.547-2.391c-1.229-0.646-2.612-0.987-4.001-0.987s-2.771,0.342-4,0.987
						l-4.548,2.391L206.32,111.638z"/>
				</g>
				<g>
					<path fill="#2D415A" d="M300.725,85.633l3.532,7.157c0.524,1.062,1.537,1.797,2.708,1.968l7.898,1.148
						c2.95,0.429,4.128,4.054,1.993,6.135l-5.715,5.571c-0.848,0.826-1.234,2.017-1.034,3.184l1.349,7.866
						c0.504,2.938-2.58,5.179-5.219,3.792l-7.064-3.714c-1.048-0.551-2.3-0.551-3.347,0l-7.064,3.714
						c-2.639,1.387-5.723-0.853-5.219-3.792l1.349-7.866c0.2-1.167-0.187-2.357-1.034-3.184l-5.715-5.571
						c-2.135-2.081-0.957-5.706,1.993-6.135l7.898-1.148c1.171-0.17,2.184-0.906,2.708-1.968l3.532-7.157
						C295.594,82.959,299.406,82.959,300.725,85.633z"/>
					<path fill="#FFD161" d="M289.32,111.638c0.479-2.789-0.445-5.634-2.472-7.609l-3.679-3.586l5.083-0.738
						c2.799-0.406,5.22-2.163,6.473-4.701L297,90.395l2.273,4.606c1.254,2.54,3.675,4.297,6.475,4.703l5.082,0.738l-3.679,3.587
						c-2.026,1.975-2.95,4.819-2.472,7.609l0.868,5.062l-4.547-2.391c-1.229-0.646-2.612-0.987-4.001-0.987s-2.771,0.342-4,0.987
						l-4.548,2.391L289.32,111.638z"/>
				</g>
			</g>
		</g>
	</g>
	<g id="money">
	</g>
	<g id="sunglass">
	</g>
	<g id="cocktail">
	</g>
	<g id="compass">
	</g>
	<g id="tent">
	</g>
	<g id="backpack">
	</g>
	<g id="map">
	</g>
	<g id="ticket_1_">
	</g>
	<g id="passport">
	</g>
	<g id="luggage">
	</g>
	<g id="globe">
	</g>
	<g id="suitcase">
	</g>
</g>
<g id="vehicles">
	<g id="trailer">
	</g>
	<g id="airplane">
	</g>
	<g id="yatch">
	</g>
	<g id="taxi">
	</g>
	<g id="hot_air_ballon">
	</g>
	<g id="bus">
	</g>
	<g id="train">
	</g>
</g>
<g id="summer">
	<g id="postcard">
	</g>
	<g id="bikini">
	</g>
	<g id="flipflop">
	</g>
	<g id="plane_around_the_globe">
	</g>
	<g id="binocular">
	</g>
	<g id="beach_table">
	</g>
	<g id="sun_hat">
	</g>
	<g id="beach_bag">
	</g>
	<g id="sea__x26__wave">
	</g>
	<g id="beach">
	</g>
	<g id="beach_ball">
	</g>
	<g id="jetski">
	</g>
	<g id="sandcastle">
	</g>
	<g id="lifeguard_male">
	</g>
	<g id="lifeguard_female">
	</g>
	<g id="lighthouse">
	</g>
	<g id="hammok">
	</g>
	<g id="beach_chair__x26__umbrella">
	</g>
	<g id="lifeguard">
	</g>
	<g id="suncream">
	</g>
	<g id="starfish">
	</g>
	<g id="beach_bar">
	</g>
	<g id="bucket__x26__shovel">
	</g>
	<g id="palm_tree">
	</g>
	<g id="shark_warning">
	</g>
	<g id="surfboard">
	</g>
	<g id="swimming_trunks">
	</g>
	<g id="coconut_drink">
	</g>
	<g id="beach_chair__x26__towel">
	</g>
	<g id="coconut_tree">
	</g>
</g>
</svg>
