<?xml version="1.0" encoding="utf-8"?>
<!-- Generator: Adobe Illustrator 17.0.0, SVG Export Plug-In . SVG Version: 6.00 Build 0)  -->
<!DOCTYPE svg PUBLIC "-//W3C//DTD SVG 1.1//EN" "http://www.w3.org/Graphics/SVG/1.1/DTD/svg11.dtd">
<svg version="1.1" xmlns="http://www.w3.org/2000/svg" xmlns:xlink="http://www.w3.org/1999/xlink" x="0px" y="0px" width="512px"
	 height="512px" viewBox="0 0 512 512" enable-background="new 0 0 512 512" xml:space="preserve">
<g id="famous_places">
	<g id="Pyramid">
	</g>
	<g id="Colloseum">
	</g>
	<g id="Mount_Fuji">
	</g>
	<g id="Great_Wall_of_China">
	</g>
	<g id="Stonehenge">
	</g>
	<g id="Golden_Gate_Bridge">
	</g>
	<g id="Christ_the_Redeemer">
	</g>
	<g id="Statue_of_Liberty">
	</g>
	<g id="Taj_Mahal">
	</g>
	<g id="Eiffel_tower">
	</g>
</g>
<g id="camping">
	<g id="mug">
	</g>
	<g id="hook">
	</g>
	<g id="Swiss_knife">
	</g>
	<g id="flashlight">
	</g>
	<g id="lantern">
	</g>
	<g id="campfire">
	</g>
	<g id="beanie">
	</g>
	<g id="rope">
	</g>
	<g id="boot">
	</g>
	<g id="axe">
	</g>
</g>
<g id="hotel_1_">
	<g id="towel">
	</g>
	<g id="phone">
	</g>
	<g id="pool">
	</g>
	<g id="food_service">
	</g>
	<g id="wifi">
	</g>
	<g id="bed">
	</g>
	<g id="door">
	</g>
	<g id="key">
	</g>
	<g id="do_not_disturb">
	</g>
	<g id="bell">
	</g>
</g>
<g id="winter">
	<g id="snowman">
	</g>
	<g id="snow_mountain">
	</g>
	<g id="reindeer">
	</g>
	<g id="winter_tree">
	</g>
	<g id="lift">
	</g>
	<g id="beanie__x26__google">
	</g>
	<g id="ski">
	</g>
	<g id="snowboard">
	</g>
	<g id="snowboading">
	</g>
	<g id="skiing">
	</g>
</g>
<g id="general_travelling">
	<g id="dinner_set">
	</g>
	<g id="polaroid">
	</g>
	<g id="camera">
	</g>
	<g id="calendar">
	</g>
	<g id="calendar_single">
	</g>
	<g id="shopping_bag">
	</g>
	<g id="watch">
	</g>
	<g id="alarm_clock">
	</g>
	<g id="credit_card">
		<g>
			<g>
				<path fill="#E3E3E3" d="M168.024,220.14c-13.057,0-23.642,10.585-23.642,23.642v135.436c0,13.057,10.585,23.642,23.642,23.642
					h76.861l33.37-182.72H168.024z"/>
				<polygon fill="#E3E3E3" points="324.255,220.14 290.884,402.86 295.918,402.86 329.289,220.14 				"/>
				<path fill="#E3E3E3" d="M407.745,220.14h-57.524l-33.37,182.72h90.894c13.057,0,23.642-10.585,23.642-23.642V243.782
					C431.387,230.725,420.802,220.14,407.745,220.14z"/>
				<polygon fill="#FFFFFF" points="278.255,220.64 244.884,402.64 290.884,402.64 324.255,220.64 				"/>
				<polygon fill="#F0F0F0" points="329.289,220.64 295.918,402.64 316.85,402.64 350.221,220.64 				"/>
				<g>
					<polygon fill="#2D415A" points="298.196,259.452 291.32,296.452 296.354,296.452 303.229,259.452 					"/>
					<polygon fill="#2D415A" points="145,259.452 145,296.452 245.32,296.452 252.196,259.452 					"/>
					<polygon fill="#2D415A" points="432,259.452 324.162,259.452 317.286,296.452 432,296.452 					"/>
					<polygon fill="#5C84B8" points="252.196,259.452 245.32,296.452 291.32,296.452 298.196,259.452 					"/>
					<polygon fill="#5275A3" points="303.229,259.452 296.354,296.452 317.286,296.452 324.162,259.452 					"/>
				</g>
				<g>
					<rect x="163.118" y="305.64" fill="#4A4A4A" width="27.5" height="14.348"/>
					<rect x="195.492" y="305.64" fill="#4A4A4A" width="89.077" height="14.348"/>
					<rect x="293.58" y="305.64" fill="#4A4A4A" width="73.038" height="14.348"/>
					<rect x="339.118" y="324.292" fill="#4A4A4A" width="27.5" height="14.348"/>
					<rect x="245.167" y="324.292" fill="#4A4A4A" width="89.077" height="14.348"/>
					<rect x="163.118" y="324.292" fill="#4A4A4A" width="73.038" height="14.348"/>
				</g>
			</g>
			<g>
				<path fill="#ADD660" d="M104.024,109.14c-13.057,0-23.642,10.585-23.642,23.642v135.436c0,13.057,10.585,23.642,23.642,23.642
					h76.861l33.37-182.72H104.024z"/>
				<polygon fill="#ADD660" points="260.255,109.14 226.884,291.86 231.918,291.86 265.289,109.14 				"/>
				<path fill="#ADD660" d="M343.745,109.14h-57.524l-33.37,182.72h90.894c13.057,0,23.642-10.585,23.642-23.642V132.782
					C367.387,119.725,356.802,109.14,343.745,109.14z"/>
				<polygon fill="#C6F56E" points="214.255,109.64 180.884,291.64 226.884,291.64 260.255,109.64 				"/>
				<polygon fill="#D7FF8A" points="265.289,109.64 231.918,291.64 252.85,291.64 286.221,109.64 				"/>
				<circle fill="#FF6650" cx="290.118" cy="255.14" r="22"/>
				<circle fill="#FFD161" cx="319.118" cy="255.14" r="22"/>
				<rect x="291.868" y="246.64" fill="#FFD161" width="24.75" height="3.75"/>
				<rect x="291.868" y="250.39" fill="#FF6650" width="24.75" height="3.75"/>
				<rect x="291.868" y="254.14" fill="#FFD161" width="24.75" height="3.75"/>
				<rect x="291.868" y="257.89" fill="#FF6650" width="24.75" height="3.75"/>
				<rect x="291.868" y="261.64" fill="#FFD161" width="24.75" height="3.75"/>
				<rect x="105.618" y="131.64" fill="#E3E3E3" width="81" height="36"/>
			</g>
		</g>
	</g>
	<g id="road_sign">
	</g>
	<g id="hotel">
	</g>
	<g id="money">
	</g>
	<g id="sunglass">
	</g>
	<g id="cocktail">
	</g>
	<g id="compass">
	</g>
	<g id="tent">
	</g>
	<g id="backpack">
	</g>
	<g id="map">
	</g>
	<g id="ticket_1_">
	</g>
	<g id="passport">
	</g>
	<g id="luggage">
	</g>
	<g id="globe">
	</g>
	<g id="suitcase">
	</g>
</g>
<g id="vehicles">
	<g id="trailer">
	</g>
	<g id="airplane">
	</g>
	<g id="yatch">
	</g>
	<g id="taxi">
	</g>
	<g id="hot_air_ballon">
	</g>
	<g id="bus">
	</g>
	<g id="train">
	</g>
</g>
<g id="summer">
	<g id="postcard">
	</g>
	<g id="bikini">
	</g>
	<g id="flipflop">
	</g>
	<g id="plane_around_the_globe">
	</g>
	<g id="binocular">
	</g>
	<g id="beach_table">
	</g>
	<g id="sun_hat">
	</g>
	<g id="beach_bag">
	</g>
	<g id="sea__x26__wave">
	</g>
	<g id="beach">
	</g>
	<g id="beach_ball">
	</g>
	<g id="jetski">
	</g>
	<g id="sandcastle">
	</g>
	<g id="lifeguard_male">
	</g>
	<g id="lifeguard_female">
	</g>
	<g id="lighthouse">
	</g>
	<g id="hammok">
	</g>
	<g id="beach_chair__x26__umbrella">
	</g>
	<g id="lifeguard">
	</g>
	<g id="suncream">
	</g>
	<g id="starfish">
	</g>
	<g id="beach_bar">
	</g>
	<g id="bucket__x26__shovel">
	</g>
	<g id="palm_tree">
	</g>
	<g id="shark_warning">
	</g>
	<g id="surfboard">
	</g>
	<g id="swimming_trunks">
	</g>
	<g id="coconut_drink">
	</g>
	<g id="beach_chair__x26__towel">
	</g>
	<g id="coconut_tree">
	</g>
</g>
</svg>
