<?xml version="1.0" encoding="utf-8"?>
<!-- Generator: Adobe Illustrator 17.0.0, SVG Export Plug-In . SVG Version: 6.00 Build 0)  -->
<!DOCTYPE svg PUBLIC "-//W3C//DTD SVG 1.1//EN" "http://www.w3.org/Graphics/SVG/1.1/DTD/svg11.dtd">
<svg version="1.1" xmlns="http://www.w3.org/2000/svg" xmlns:xlink="http://www.w3.org/1999/xlink" x="0px" y="0px" width="512px"
	 height="512px" viewBox="0 0 512 512" enable-background="new 0 0 512 512" xml:space="preserve">
<g id="famous_places">
	<g id="Pyramid">
	</g>
	<g id="Colloseum">
	</g>
	<g id="Mount_Fuji">
	</g>
	<g id="Great_Wall_of_China">
	</g>
	<g id="Stonehenge">
	</g>
	<g id="Golden_Gate_Bridge">
	</g>
	<g id="Christ_the_Redeemer">
	</g>
	<g id="Statue_of_Liberty">
	</g>
	<g id="Taj_Mahal">
	</g>
	<g id="Eiffel_tower">
	</g>
</g>
<g id="camping">
	<g id="mug">
	</g>
	<g id="hook">
	</g>
	<g id="Swiss_knife">
	</g>
	<g id="flashlight">
	</g>
	<g id="lantern">
	</g>
	<g id="campfire">
	</g>
	<g id="beanie">
	</g>
	<g id="rope">
	</g>
	<g id="boot">
	</g>
	<g id="axe">
	</g>
</g>
<g id="hotel_1_">
	<g id="towel">
	</g>
	<g id="phone">
	</g>
	<g id="pool">
	</g>
	<g id="food_service">
	</g>
	<g id="wifi">
	</g>
	<g id="bed">
	</g>
	<g id="door">
	</g>
	<g id="key">
	</g>
	<g id="do_not_disturb">
	</g>
	<g id="bell">
	</g>
</g>
<g id="winter">
	<g id="snowman">
	</g>
	<g id="snow_mountain">
	</g>
	<g id="reindeer">
	</g>
	<g id="winter_tree">
	</g>
	<g id="lift">
	</g>
	<g id="beanie__x26__google">
	</g>
	<g id="ski">
	</g>
	<g id="snowboard">
	</g>
	<g id="snowboading">
	</g>
	<g id="skiing">
		<circle fill="#2D415A" cx="305.316" cy="86.287" r="34.092"/>
		
			<rect x="272.109" y="94.269" transform="matrix(0.6631 0.7485 -0.7485 0.6631 181.2521 -173.0022)" fill="#2D415A" width="21.407" height="41.163"/>
		<path fill="#2D415A" d="M155.557,176.956l68.929-62.598c13.746-12.484,34.159-14.191,49.789-4.165l21.097,13.534
			c5.807,3.725,5.821,12.206,0.026,15.95l-64.95,41.963c-6.306,4.074-6.09,13.369,0.398,17.146l16.939,9.861l-37.333,18.515
			C210.451,227.162,132.703,219.85,155.557,176.956z"/>
		<path fill="none" stroke="#2D415A" stroke-width="22" stroke-linecap="round" stroke-linejoin="round" stroke-miterlimit="10" d="
			M201.962,215.072c0,0,187.885,7.202,16.978,123.882"/>
		<g>
			<g>
				<path fill="#FFD161" d="M26.525,219.6c-2.43,0-4.439-1.928-4.522-4.374c-0.085-2.499,1.873-4.594,4.372-4.678l367.848-12.43
					c2.544-0.105,4.594,1.874,4.678,4.372c0.084,2.499-1.874,4.594-4.373,4.678L26.68,219.597
					C26.628,219.599,26.576,219.6,26.525,219.6z"/>
			</g>
		</g>
		<path fill="none" stroke="#2D415A" stroke-width="15" stroke-linecap="round" stroke-linejoin="round" stroke-miterlimit="10" d="
			M288.366,134.092c0,0-30.236,69.468,78.859,69.468"/>
		<g>
			<path fill="#FF9B29" d="M66.702,238.787c-8.091,0-12.456-13.121-12.456-25.466c0-12.345,4.365-25.466,12.456-25.466
				c8.09,0,12.456,13.121,12.456,25.466C79.158,225.666,74.792,238.787,66.702,238.787z M66.702,193.513
				c-2.706,0-6.797,7.9-6.797,19.807s4.091,19.807,6.797,19.807s6.797-7.9,6.797-19.807S69.408,193.513,66.702,193.513z"/>
		</g>
		<path fill="#FFD161" d="M363.473,426.14c16.217,0,33.786-4.672,42.884-22.099c2.748-5.264,0.707-11.759-4.556-14.507
			c-5.265-2.749-11.758-0.708-14.508,4.556c-9.523,18.242-45.204,7.823-51.248,5.9L72.806,244.847
			c-4.82-2.892-10.988-1.564-14.225,2.902l298.138,178.134C358.925,426.046,361.185,426.14,363.473,426.14z"/>
		<path fill="#FF9B29" d="M58.58,247.749c-0.184,0.253-0.363,0.512-0.527,0.786c-3.056,5.092-1.404,11.697,3.688,14.752
			L325.997,419.04c0.598,0.359,1.23,0.659,1.886,0.895c1.108,0.399,13.689,4.828,28.836,5.948L58.58,247.749z"/>
		<path fill="#E3E3E3" d="M335.094,55.903c0,0,13.453,19.828,8.453,37.559L328,91.068l-5-4.781V70.568l-0.5-13L335.094,55.903z"/>
		<path fill="#FFD161" d="M327.711,56.879L327,58.568v25l5,5l12.268,1.59c2.667-16.8-9.175-34.255-9.175-34.255L327.711,56.879z"/>
		<path fill="#38D4B8" d="M335,55.507l-59.231,51.283c0,0-51.256-48.195-9.793-76.241C310.219,0.625,335,55.507,335,55.507z"/>
		<path fill="#4A4A4A" d="M261.091,86.141H323V70.422h-67.848c-2.055,0-3.517,1.999-2.894,3.957l2.198,6.911
			C255.376,84.179,258.059,86.141,261.091,86.141z"/>
	</g>
</g>
<g id="general_travelling">
	<g id="dinner_set">
	</g>
	<g id="polaroid">
	</g>
	<g id="camera">
	</g>
	<g id="calendar">
	</g>
	<g id="calendar_single">
	</g>
	<g id="shopping_bag">
	</g>
	<g id="watch">
	</g>
	<g id="alarm_clock">
	</g>
	<g id="credit_card">
	</g>
	<g id="road_sign">
	</g>
	<g id="hotel">
	</g>
	<g id="money">
	</g>
	<g id="sunglass">
	</g>
	<g id="cocktail">
	</g>
	<g id="compass">
	</g>
	<g id="tent">
	</g>
	<g id="backpack">
	</g>
	<g id="map">
	</g>
	<g id="ticket_1_">
	</g>
	<g id="passport">
	</g>
	<g id="luggage">
	</g>
	<g id="globe">
	</g>
	<g id="suitcase">
	</g>
</g>
<g id="vehicles">
	<g id="trailer">
	</g>
	<g id="airplane">
	</g>
	<g id="yatch">
	</g>
	<g id="taxi">
	</g>
	<g id="hot_air_ballon">
	</g>
	<g id="bus">
	</g>
	<g id="train">
	</g>
</g>
<g id="summer">
	<g id="postcard">
	</g>
	<g id="bikini">
	</g>
	<g id="flipflop">
	</g>
	<g id="plane_around_the_globe">
	</g>
	<g id="binocular">
	</g>
	<g id="beach_table">
	</g>
	<g id="sun_hat">
	</g>
	<g id="beach_bag">
	</g>
	<g id="sea__x26__wave">
	</g>
	<g id="beach">
	</g>
	<g id="beach_ball">
	</g>
	<g id="jetski">
	</g>
	<g id="sandcastle">
	</g>
	<g id="lifeguard_male">
	</g>
	<g id="lifeguard_female">
	</g>
	<g id="lighthouse">
	</g>
	<g id="hammok">
	</g>
	<g id="beach_chair__x26__umbrella">
	</g>
	<g id="lifeguard">
	</g>
	<g id="suncream">
	</g>
	<g id="starfish">
	</g>
	<g id="beach_bar">
	</g>
	<g id="bucket__x26__shovel">
	</g>
	<g id="palm_tree">
	</g>
	<g id="shark_warning">
	</g>
	<g id="surfboard">
	</g>
	<g id="swimming_trunks">
	</g>
	<g id="coconut_drink">
	</g>
	<g id="beach_chair__x26__towel">
	</g>
	<g id="coconut_tree">
	</g>
</g>
</svg>
