<?xml version="1.0" encoding="utf-8"?>
<!-- Generator: Adobe Illustrator 17.0.0, SVG Export Plug-In . SVG Version: 6.00 Build 0)  -->
<!DOCTYPE svg PUBLIC "-//W3C//DTD SVG 1.1//EN" "http://www.w3.org/Graphics/SVG/1.1/DTD/svg11.dtd">
<svg version="1.1" xmlns="http://www.w3.org/2000/svg" xmlns:xlink="http://www.w3.org/1999/xlink" x="0px" y="0px" width="512px"
	 height="512px" viewBox="0 0 512 512" enable-background="new 0 0 512 512" xml:space="preserve">
<g id="famous_places">
	<g id="Pyramid">
	</g>
	<g id="Colloseum">
	</g>
	<g id="Mount_Fuji">
	</g>
	<g id="Great_Wall_of_China">
	</g>
	<g id="Stonehenge">
	</g>
	<g id="Golden_Gate_Bridge">
	</g>
	<g id="Christ_the_Redeemer">
	</g>
	<g id="Statue_of_Liberty">
	</g>
	<g id="Taj_Mahal">
	</g>
	<g id="Eiffel_tower">
	</g>
</g>
<g id="camping">
	<g id="mug">
	</g>
	<g id="hook">
	</g>
	<g id="Swiss_knife">
	</g>
	<g id="flashlight">
	</g>
	<g id="lantern">
	</g>
	<g id="campfire">
	</g>
	<g id="beanie">
	</g>
	<g id="rope">
	</g>
	<g id="boot">
	</g>
	<g id="axe">
	</g>
</g>
<g id="hotel_1_">
	<g id="towel">
	</g>
	<g id="phone">
	</g>
	<g id="pool">
	</g>
	<g id="food_service">
	</g>
	<g id="wifi">
	</g>
	<g id="bed">
	</g>
	<g id="door">
	</g>
	<g id="key">
	</g>
	<g id="do_not_disturb">
	</g>
	<g id="bell">
	</g>
</g>
<g id="winter">
	<g id="snowman">
	</g>
	<g id="snow_mountain">
	</g>
	<g id="reindeer">
	</g>
	<g id="winter_tree">
	</g>
	<g id="lift">
	</g>
	<g id="beanie__x26__google">
	</g>
	<g id="ski">
	</g>
	<g id="snowboard">
	</g>
	<g id="snowboading">
	</g>
	<g id="skiing">
	</g>
</g>
<g id="general_travelling">
	<g id="dinner_set">
	</g>
	<g id="polaroid">
	</g>
	<g id="camera">
	</g>
	<g id="calendar">
	</g>
	<g id="calendar_single">
	</g>
	<g id="shopping_bag">
	</g>
	<g id="watch">
	</g>
	<g id="alarm_clock">
	</g>
	<g id="credit_card">
	</g>
	<g id="road_sign">
	</g>
	<g id="hotel">
	</g>
	<g id="money">
	</g>
	<g id="sunglass">
	</g>
	<g id="cocktail">
	</g>
	<g id="compass">
	</g>
	<g id="tent">
	</g>
	<g id="backpack">
	</g>
	<g id="map">
	</g>
	<g id="ticket_1_">
	</g>
	<g id="passport">
	</g>
	<g id="luggage">
	</g>
	<g id="globe">
	</g>
	<g id="suitcase">
	</g>
</g>
<g id="vehicles">
	<g id="trailer">
	</g>
	<g id="airplane">
	</g>
	<g id="yatch">
	</g>
	<g id="taxi">
	</g>
	<g id="hot_air_ballon">
	</g>
	<g id="bus">
	</g>
	<g id="train">
	</g>
</g>
<g id="summer">
	<g id="postcard">
	</g>
	<g id="bikini">
	</g>
	<g id="flipflop">
	</g>
	<g id="plane_around_the_globe">
	</g>
	<g id="binocular">
	</g>
	<g id="beach_table">
	</g>
	<g id="sun_hat">
	</g>
	<g id="beach_bag">
	</g>
	<g id="sea__x26__wave">
	</g>
	<g id="beach">
	</g>
	<g id="beach_ball">
	</g>
	<g id="jetski">
	</g>
	<g id="sandcastle">
		<g>
			<polygon fill="#FF6650" points="255.5,38.271 303.059,55.604 256.018,71.604 			"/>
			
				<line fill="none" stroke="#5D5D5D" stroke-width="5" stroke-linecap="round" stroke-linejoin="round" stroke-miterlimit="10" x1="255.5" y1="37.937" x2="255.5" y2="133.937"/>
			<polygon fill="#FF6650" points="403.5,216.271 451.059,233.604 404.018,249.604 			"/>
			
				<line fill="none" stroke="#5D5D5D" stroke-width="5" stroke-linecap="round" stroke-linejoin="round" stroke-miterlimit="10" x1="403.5" y1="215.937" x2="403.5" y2="311.937"/>
			<polygon fill="#71A3E3" points="403.5,216.271 451.059,233.604 404.018,249.604 			"/>
			
				<line fill="none" stroke="#5D5D5D" stroke-width="5" stroke-linecap="round" stroke-linejoin="round" stroke-miterlimit="10" x1="403.5" y1="215.937" x2="403.5" y2="311.937"/>
			<g>
				<polygon fill="#FFD161" points="296.883,129.937 215.097,129.937 207.484,196.937 304.529,196.937 				"/>
				<polygon fill="#FFB561" points="310.174,246.36 304.529,197.086 207.484,197.086 201.861,246.36 				"/>
				<path fill="#FFD161" d="M297.434,82.64h11.251c3.767,0,6.821,3.054,6.821,6.821v21.754h-24.893V89.461
					C290.613,85.694,293.667,82.64,297.434,82.64z"/>
				<path fill="#FFD161" d="M250.369,82.64h11.251c3.767,0,6.821,3.054,6.821,6.821v21.754h-24.893V89.461
					C243.547,85.694,246.601,82.64,250.369,82.64z"/>
				<path fill="#FFD161" d="M203.303,82.64h11.251c3.767,0,6.821,3.054,6.821,6.821v21.754h-24.893V89.461
					C196.482,85.694,199.536,82.64,203.303,82.64z"/>
				<polygon fill="#FFB561" points="215.101,130.01 196.482,111.215 256.322,111.215 264.839,111.215 315.506,111.215 
					296.88,130.01 296.883,130.042 215.097,130.042 				"/>
				<path fill="#5D5D5D" d="M255.268,147.937h1.716c6.317,0,11.016,6.841,11.016,14.722v14.278h-25v-14.278
					C243,154.778,248.951,147.937,255.268,147.937z"/>
			</g>
			<g>
				<path fill="#FFD161" d="M150.179,202.937h-10.357c-3.767,0-6.821,3.054-6.821,6.821v22.179h24v-22.179
					C157,205.991,153.946,202.937,150.179,202.937z"/>
				<path fill="#FFD161" d="M195.179,202.937h-11.357c-3.767,0-6.821,3.054-6.821,6.821v22.179h25v-22.179
					C202,205.991,198.946,202.937,195.179,202.937z"/>
				<path fill="#FFD161" d="M239.179,202.937h-11.357c-3.767,0-6.821,3.054-6.821,6.821v22.179h25v-22.179
					C246,205.991,242.946,202.937,239.179,202.937z"/>
				<path fill="#FFD161" d="M284.179,202.937h-11.357c-3.767,0-6.821,3.054-6.821,6.821v22.179h25v-22.179
					C291,205.991,287.946,202.937,284.179,202.937z"/>
				<path fill="#FFD161" d="M328.179,202.937h-11.357c-3.767,0-6.821,3.054-6.821,6.821v22.179h25v-22.179
					C335,205.991,331.946,202.937,328.179,202.937z"/>
				<path fill="#FFD161" d="M372.179,202.937h-10.357c-3.767,0-6.821,3.054-6.821,6.821v22.179h24v-22.179
					C379,205.991,375.946,202.937,372.179,202.937z"/>
			</g>
			<rect x="132.477" y="227.86" fill="#FFB561" width="247.036" height="211.5"/>
			<path fill="#FF9B29" d="M183.387,323.169L202,304.215v-22.457c0-3.767-3.054-6.821-6.821-6.821H177v29h-22v-22.179
				c0-3.767-3.054-6.821-6.821-6.821H132v164h64.633l-13.239-115.789L183.387,323.169z"/>
			<path fill="#FF9B29" d="M327.875,323.169L309,304.215v-21.445c0-4.326,3.507-7.833,7.833-7.833H334v29h22v-21.167
				c0-4.326,3.507-7.833,7.833-7.833H379v164h-64.109l13.108-115.789L327.875,323.169z"/>
			<rect x="132.477" y="227.86" fill="#FF9B29" width="247.036" height="35"/>
			<path fill="#FFD161" d="M186.089,275.64h-13.048c-3.271,0-5.923,2.652-5.923,5.923v22.653h24.893v-22.653
				C192.012,278.292,189.36,275.64,186.089,275.64z"/>
			<polygon fill="#FFB561" points="173.393,323.01 192.012,304.215 132.172,304.215 123.655,304.215 72.988,304.215 91.615,323.01 
				91.611,323.042 173.397,323.042 			"/>
			<polygon fill="#FFD161" points="91.611,322.937 78.32,438.937 186.633,438.937 173.397,322.937 			"/>
			<g>
				<path fill="#FFD161" d="M420.94,275.64h11.251c3.767,0,6.821,3.054,6.821,6.821v21.754h-24.893v-21.754
					C414.119,278.694,417.173,275.64,420.94,275.64z"/>
				<path fill="#FFD161" d="M373.875,275.64h11.251c3.767,0,6.821,3.054,6.821,6.821v21.754h-24.893v-21.754
					C367.053,278.694,370.107,275.64,373.875,275.64z"/>
				<path fill="#FFD161" d="M326.809,275.64h11.251c3.767,0,6.821,3.054,6.821,6.821v21.754h-24.893v-21.754
					C319.988,278.694,323.042,275.64,326.809,275.64z"/>
				<polygon fill="#FFB561" points="338.607,323.01 319.988,304.215 379.828,304.215 388.345,304.215 439.012,304.215 
					420.385,323.01 420.389,323.042 338.603,323.042 				"/>
				<polygon fill="#FFD161" points="420.389,322.937 433.68,438.937 325.367,438.937 338.603,322.937 				"/>
				<path fill="#5D5D5D" d="M378.774,340.937h1.716c6.317,0,11.51,6.841,11.51,14.722v14.278h-25v-14.278
					C367,347.778,372.456,340.937,378.774,340.937z"/>
			</g>
			<path fill="#5D5D5D" d="M258.075,334.937h-5.399c-19.879,0-36.676,20.618-36.676,45.418v45.582h79v-45.582
				C295,355.555,277.954,334.937,258.075,334.937z"/>
			<polygon fill="#38D4B8" points="108.22,222.182 155.78,239.515 108.738,255.515 			"/>
			
				<line fill="none" stroke="#5D5D5D" stroke-width="5" stroke-linecap="round" stroke-linejoin="round" stroke-miterlimit="10" x1="108.22" y1="221.848" x2="108.22" y2="317.848"/>
			<g>
				<path fill="#FFD161" d="M91.06,275.64H79.809c-3.767,0-6.821,3.054-6.821,6.821v21.754h24.893v-21.754
					C97.881,278.694,94.827,275.64,91.06,275.64z"/>
				<path fill="#FFD161" d="M138.125,275.64h-11.251c-3.767,0-6.821,3.054-6.821,6.821v21.754h24.893v-21.754
					C144.947,278.694,141.893,275.64,138.125,275.64z"/>
				<polygon fill="#FFD161" points="91.611,322.937 78.32,438.937 186.633,438.937 173.397,322.937 				"/>
				<path fill="#5D5D5D" d="M133.226,340.937h-1.716c-6.317,0-11.51,6.841-11.51,14.722v14.278h25v-14.278
					C145,347.778,139.544,340.937,133.226,340.937z"/>
				<polygon fill="#FFB561" points="173.393,323.01 192.012,304.215 132.172,304.215 123.655,304.215 72.988,304.215 91.615,323.01 
					91.611,323.042 173.397,323.042 				"/>
			</g>
		</g>
		<g>
			<path fill="#FF6650" d="M421.33,392.314l4.933,11.591c0.527,1.239,1.783,2.25,3.359,2.704l14.743,4.249
				c3.968,1.144,4.93,5.23,1.628,6.915l-12.268,6.262c-1.311,0.669-2.056,1.829-1.991,3.103l0.601,11.913
				c0.162,3.206-4.47,4.836-7.838,2.758l-12.515-7.721c-1.337-0.825-3.054-1.119-4.589-0.786l-14.371,3.114
				c-3.867,0.838-7.692-2.241-6.472-5.211l4.533-11.034c0.484-1.179,0.168-2.521-0.845-3.589l-9.483-9.989
				c-2.552-2.688-0.284-6.221,3.838-5.979l15.316,0.901c1.637,0.096,3.158-0.439,4.067-1.431l8.51-9.287
				C414.776,388.299,420.002,389.194,421.33,392.314z"/>
			<path fill="#CF5341" d="M416.476,420.608l-8.869-1.52l-20.304,15.638c1.237,1.367,3.469,2.189,5.716,1.703l14.372-3.12
				c1.536-0.333,3.253-0.042,4.59,0.783l12.515,7.719c1.785,1.101,4.361,0.975,5.954,0.31L416.476,420.608z"/>
			<polygon fill="#FF8B7A" points="407.622,419.004 405.991,411.992 413.886,409.189 420.396,414.473 416.526,420.53 			"/>
		</g>
		<path fill="#FFD161" d="M30,452.937c0,0,48.698-26.733,225.5-26.733S482,452.937,482,452.937H30z"/>
		<g>
			<path fill="#5C84B8" d="M103.265,381.251l8.355,12.976c0.893,1.387,2.619,2.348,4.615,2.57l18.682,2.081
				c5.028,0.56,7.035,5.296,3.397,8.014l-13.519,10.1c-1.445,1.079-2.104,2.635-1.763,4.159l3.191,14.262
				c0.859,3.838-4.397,6.765-8.894,4.953l-16.71-6.734c-1.786-0.72-3.919-0.72-5.705,0l-16.71,6.734
				c-4.497,1.812-9.753-1.115-8.894-4.953l3.191-14.262c0.341-1.524-0.318-3.079-1.763-4.159l-13.519-10.1
				c-3.638-2.718-1.631-7.454,3.397-8.014l18.682-2.081c1.997-0.222,3.722-1.184,4.615-2.57l8.355-12.976
				C94.52,377.759,101.016,377.759,103.265,381.251z"/>
			<path fill="#4E709C" d="M103.258,415.937H92.234l-21.283,23.329c1.777,1.395,4.643,2.048,7.255,0.995l16.71-6.681
				c1.786-0.72,3.919-0.693,5.705,0.026l16.71,6.747c2.384,0.961,5.468,0.039,7.255-1.093L103.258,415.937z"/>
			<polygon fill="#71A3E3" points="92.234,415.937 88.814,407.997 97.768,403.075 106.722,407.965 103.302,415.937 			"/>
		</g>
	</g>
	<g id="lifeguard_male">
	</g>
	<g id="lifeguard_female">
	</g>
	<g id="lighthouse">
	</g>
	<g id="hammok">
	</g>
	<g id="beach_chair__x26__umbrella">
	</g>
	<g id="lifeguard">
	</g>
	<g id="suncream">
	</g>
	<g id="starfish">
	</g>
	<g id="beach_bar">
	</g>
	<g id="bucket__x26__shovel">
	</g>
	<g id="palm_tree">
	</g>
	<g id="shark_warning">
	</g>
	<g id="surfboard">
	</g>
	<g id="swimming_trunks">
	</g>
	<g id="coconut_drink">
	</g>
	<g id="beach_chair__x26__towel">
	</g>
	<g id="coconut_tree">
	</g>
</g>
</svg>
