<?xml version="1.0" encoding="utf-8"?>
<!-- Generator: Adobe Illustrator 17.0.0, SVG Export Plug-In . SVG Version: 6.00 Build 0)  -->
<!DOCTYPE svg PUBLIC "-//W3C//DTD SVG 1.1//EN" "http://www.w3.org/Graphics/SVG/1.1/DTD/svg11.dtd">
<svg version="1.1" xmlns="http://www.w3.org/2000/svg" xmlns:xlink="http://www.w3.org/1999/xlink" x="0px" y="0px" width="512px"
	 height="512px" viewBox="0 0 512 512" enable-background="new 0 0 512 512" xml:space="preserve">
<g id="famous_places">
	<g id="Pyramid">
	</g>
	<g id="Colloseum">
	</g>
	<g id="Mount_Fuji">
	</g>
	<g id="Great_Wall_of_China">
	</g>
	<g id="Stonehenge">
	</g>
	<g id="Golden_Gate_Bridge">
	</g>
	<g id="Christ_the_Redeemer">
	</g>
	<g id="Statue_of_Liberty">
	</g>
	<g id="Taj_Mahal">
	</g>
	<g id="Eiffel_tower">
	</g>
</g>
<g id="camping">
	<g id="mug">
	</g>
	<g id="hook">
	</g>
	<g id="Swiss_knife">
	</g>
	<g id="flashlight">
	</g>
	<g id="lantern">
	</g>
	<g id="campfire">
	</g>
	<g id="beanie">
	</g>
	<g id="rope">
	</g>
	<g id="boot">
	</g>
	<g id="axe">
	</g>
</g>
<g id="hotel_1_">
	<g id="towel">
	</g>
	<g id="phone">
	</g>
	<g id="pool">
	</g>
	<g id="food_service">
	</g>
	<g id="wifi">
	</g>
	<g id="bed">
	</g>
	<g id="door">
	</g>
	<g id="key">
	</g>
	<g id="do_not_disturb">
	</g>
	<g id="bell">
	</g>
</g>
<g id="winter">
	<g id="snowman">
	</g>
	<g id="snow_mountain">
	</g>
	<g id="reindeer">
	</g>
	<g id="winter_tree">
	</g>
	<g id="lift">
	</g>
	<g id="beanie__x26__google">
	</g>
	<g id="ski">
	</g>
	<g id="snowboard">
	</g>
	<g id="snowboading">
	</g>
	<g id="skiing">
	</g>
</g>
<g id="general_travelling">
	<g id="dinner_set">
	</g>
	<g id="polaroid">
	</g>
	<g id="camera">
	</g>
	<g id="calendar">
	</g>
	<g id="calendar_single">
	</g>
	<g id="shopping_bag">
	</g>
	<g id="watch">
	</g>
	<g id="alarm_clock">
	</g>
	<g id="credit_card">
	</g>
	<g id="road_sign">
	</g>
	<g id="hotel">
	</g>
	<g id="money">
	</g>
	<g id="sunglass">
	</g>
	<g id="cocktail">
	</g>
	<g id="compass">
	</g>
	<g id="tent">
	</g>
	<g id="backpack">
	</g>
	<g id="map">
		<g>
			<g>
				<polygon fill="#E3E3E3" points="149.64,374.757 43,414.757 43,122.757 149.64,82.757 				"/>
				<polygon fill="#73B4B2" points="52.505,399.757 52.505,127.757 149.64,92.757 149.64,364.757 				"/>
			</g>
			<g>
				<g>
					<polygon fill="#B3B3B3" points="256.093,441.757 149.453,374.757 149.453,82.757 256.093,149.757 					"/>
					<g>
						<g>
							<polygon fill="#629997" points="149,92.757 149,364.757 256,431.757 256,159.757 							"/>
						</g>
					</g>
				</g>
				<g>
					<polygon fill="#E3E3E3" points="255.907,149.757 362.547,82.757 362.547,374.757 255.907,441.757 					"/>
					<g>
						<polygon fill="#73B4B2" points="256,159.757 256,431.757 363,364.498 363,92.498 						"/>
					</g>
				</g>
			</g>
			<g>
				<polygon fill="#B3B3B3" points="362.36,374.757 469,414.757 469,122.757 362.36,82.757 				"/>
				<polygon fill="#629997" points="459.495,399.757 459.495,127.757 362.36,92.757 362.36,364.757 				"/>
			</g>
			<polygon fill="#ADD660" points="115,140.757 71,168.757 71,189.757 96.32,266.757 149,243.166 149,147.671 			"/>
			<polygon fill="#8EB04F" points="187.913,225.82 189.272,187.757 164.4,150.757 150,147.802 150,242.879 			"/>
			<polygon fill="#8EB04F" points="217.766,281.757 187.756,327.757 222.762,399.757 256,393.584 256,292.04 			"/>
			<polygon fill="#ADD660" points="297.953,385.757 353,340.757 353,296.757 328,256.757 265.953,294.757 256,292.09 256,393.549 
							"/>
			<polygon fill="#ADD660" points="345.82,168.757 332.73,215.757 362,228.34 362,166.446 			"/>
			<polygon fill="#8EB04F" points="382,236.757 421,237.757 447,177.757 438,155.757 363,166.355 363,228.615 			"/>
			<polygon fill="#73B4B2" points="363,166.419 362,166.446 362,228.34 363,228.42 			"/>
			<path fill="#FF6650" d="M382,70.243c-21.113,0-38.229,17.116-38.229,38.229c0,21.113,38.229,95.286,38.229,95.286
				s38.229-74.172,38.229-95.286C420.229,87.358,403.113,70.243,382,70.243z M382,128.957c-11.091,0-20.081-8.991-20.081-20.081
				S370.909,88.794,382,88.794c11.091,0,20.081,8.991,20.081,20.081S393.091,128.957,382,128.957z"/>
			<g>
				<g>
					<path fill="none" stroke="#E3E3E3" stroke-width="3" stroke-linecap="round" stroke-linejoin="round" d="M123,195.34
						c0,0,0.364,2.126,1.18,5.879"/>
					
						<path fill="none" stroke="#E3E3E3" stroke-width="3" stroke-linecap="round" stroke-linejoin="round" stroke-dasharray="11.9323,11.9323" d="
						M126.98,212.815C137.584,253.05,171.67,348.81,255.907,348.81c87.981,0,116.616-98.734,123.944-133.285"/>
					<path fill="none" stroke="#E3E3E3" stroke-width="3" stroke-linecap="round" stroke-linejoin="round" d="M381.015,209.672
						c0.697-3.769,0.985-5.915,0.985-5.915"/>
				</g>
			</g>
			<polygon fill="#ADD660" points="271,197.393 298.087,166.419 317.586,174.819 309.5,203.757 			"/>
			<polygon fill="#8EB04F" points="180.533,266.757 202.5,242.879 217.719,256.757 			"/>
		</g>
	</g>
	<g id="ticket_1_">
	</g>
	<g id="passport">
	</g>
	<g id="luggage">
	</g>
	<g id="globe">
	</g>
	<g id="suitcase">
	</g>
</g>
<g id="vehicles">
	<g id="trailer">
	</g>
	<g id="airplane">
	</g>
	<g id="yatch">
	</g>
	<g id="taxi">
	</g>
	<g id="hot_air_ballon">
	</g>
	<g id="bus">
	</g>
	<g id="train">
	</g>
</g>
<g id="summer">
	<g id="postcard">
	</g>
	<g id="bikini">
	</g>
	<g id="flipflop">
	</g>
	<g id="plane_around_the_globe">
	</g>
	<g id="binocular">
	</g>
	<g id="beach_table">
	</g>
	<g id="sun_hat">
	</g>
	<g id="beach_bag">
	</g>
	<g id="sea__x26__wave">
	</g>
	<g id="beach">
	</g>
	<g id="beach_ball">
	</g>
	<g id="jetski">
	</g>
	<g id="sandcastle">
	</g>
	<g id="lifeguard_male">
	</g>
	<g id="lifeguard_female">
	</g>
	<g id="lighthouse">
	</g>
	<g id="hammok">
	</g>
	<g id="beach_chair__x26__umbrella">
	</g>
	<g id="lifeguard">
	</g>
	<g id="suncream">
	</g>
	<g id="starfish">
	</g>
	<g id="beach_bar">
	</g>
	<g id="bucket__x26__shovel">
	</g>
	<g id="palm_tree">
	</g>
	<g id="shark_warning">
	</g>
	<g id="surfboard">
	</g>
	<g id="swimming_trunks">
	</g>
	<g id="coconut_drink">
	</g>
	<g id="beach_chair__x26__towel">
	</g>
	<g id="coconut_tree">
	</g>
</g>
</svg>
