<?xml version="1.0" encoding="utf-8"?>
<!-- Generator: Adobe Illustrator 17.0.0, SVG Export Plug-In . SVG Version: 6.00 Build 0)  -->
<!DOCTYPE svg PUBLIC "-//W3C//DTD SVG 1.1//EN" "http://www.w3.org/Graphics/SVG/1.1/DTD/svg11.dtd">
<svg version="1.1" xmlns="http://www.w3.org/2000/svg" xmlns:xlink="http://www.w3.org/1999/xlink" x="0px" y="0px" width="512px"
	 height="512px" viewBox="0 0 512 512" enable-background="new 0 0 512 512" xml:space="preserve">
<g id="famous_places">
	<g id="Pyramid">
	</g>
	<g id="Colloseum">
	</g>
	<g id="Mount_Fuji">
	</g>
	<g id="Great_Wall_of_China">
	</g>
	<g id="Stonehenge">
	</g>
	<g id="Golden_Gate_Bridge">
	</g>
	<g id="Christ_the_Redeemer">
	</g>
	<g id="Statue_of_Liberty">
	</g>
	<g id="Taj_Mahal">
	</g>
	<g id="Eiffel_tower">
	</g>
</g>
<g id="camping">
	<g id="mug">
	</g>
	<g id="hook">
	</g>
	<g id="Swiss_knife">
	</g>
	<g id="flashlight">
	</g>
	<g id="lantern">
	</g>
	<g id="campfire">
	</g>
	<g id="beanie">
	</g>
	<g id="rope">
	</g>
	<g id="boot">
	</g>
	<g id="axe">
	</g>
</g>
<g id="hotel_1_">
	<g id="towel">
	</g>
	<g id="phone">
	</g>
	<g id="pool">
	</g>
	<g id="food_service">
	</g>
	<g id="wifi">
	</g>
	<g id="bed">
	</g>
	<g id="door">
		<g>
			<rect x="114.945" y="15.799" fill="#8A532D" width="282.111" height="463"/>
			<rect x="125.223" y="25.799" fill="#6E4224" width="262" height="443"/>
			<rect x="135" y="35.799" fill="#8A532D" width="242" height="423"/>
			<path fill="#279685" d="M364,213.523c0-5.615-5.017-21.513-21.183-21.513c-16.166,0-20.508,10.005-21.739,14.639
				c-1.231,4.634-2.757,12.298,1.512,12.335c4.269,0.038,5.57,1.31,7.274-6.588c1.704-7.898,8.508-9.609,11.994-9.32
				c3.486,0.29,13.84,2.599,10.831,16.844c-3.008,14.245-20.387,14.853-20.387,14.853l-0.727,0.026h-5.209
				c-3.859,0-7.367,3.366-7.367,7.225v44.899c0,3.859,3.508,6.876,7.367,6.876h31.001c3.859,0,6.632-3.017,6.632-6.876v-41.789
				v-0.007C364,245.127,364,219.138,364,213.523z"/>
			<g>
				<g>
					<path fill="#2FB49F" d="M326.367,237.799h5.209l0.728-0.035c0,0,17.38-0.622,20.388-14.867
						c0.506-2.398,0.633-4.455,0.479-6.224c-0.079,1.007-0.234,2.087-0.479,3.247c-3.008,14.245-20.388,14.854-20.388,14.854
						l-0.728,0.026h-5.209c-3.859,0-7.367,3.366-7.367,7.225v2.981C319,241.146,322.508,237.799,326.367,237.799z"/>
					<path fill="#2FB49F" d="M342.817,192.01c-16.166,0-20.508,10.005-21.739,14.639c-0.736,2.771-1.569,6.623-1.217,9.283
						c0.202-2.133,0.745-4.457,1.236-6.302c1.231-4.634,5.552-14.639,21.718-14.639c16.166,0,21.186,15.897,21.186,21.513
						c0-1.253,0-2.277,0-2.981C364,207.907,358.983,192.01,342.817,192.01z"/>
				</g>
			</g>
			<rect x="205.556" y="102.799" fill="#A6A6A6" width="101.333" height="47.975"/>
			<rect x="205.556" y="92.799" fill="#E3E3E3" width="101.333" height="47.975"/>
			<g>
				<path fill="#8A532D" d="M225.42,128.709c0,0.752-0.258,1.386-0.774,1.902c-0.518,0.517-1.151,0.775-1.903,0.775
					c-0.751,0-1.386-0.259-1.902-0.775s-0.774-1.15-0.774-1.902v-27.715c0-0.752,0.258-1.387,0.774-1.903s1.151-0.774,1.902-0.774
					c0.752,0,1.386,0.258,1.903,0.774c0.517,0.517,0.774,1.151,0.774,1.903V128.709z"/>
				<path fill="#8A532D" d="M233.17,126.031h11.181c0.751,0,1.386,0.259,1.902,0.775s0.775,1.15,0.775,1.902
					c0,0.752-0.259,1.386-0.775,1.902s-1.151,0.775-1.902,0.775h-11.556c-0.752,0-1.441-0.133-2.067-0.399
					c-0.627-0.266-1.159-0.634-1.597-1.104c-0.439-0.47-0.775-1.002-1.011-1.598c-0.234-0.595-0.352-1.221-0.352-1.879v-4.604
					c0-2.349,0.72-4.431,2.16-6.248c1.785-2.255,4.275-3.382,7.47-3.382c1.628,0,2.802-0.548,3.522-1.645
					c0.501-0.72,0.752-1.597,0.752-2.63c0-1.002-0.235-1.863-0.705-2.584c-0.721-1.096-1.91-1.645-3.569-1.645
					c-1.598,0-2.757,0.549-3.477,1.645c-0.501,0.721-0.752,1.597-0.752,2.631c0,0.721-0.251,1.347-0.751,1.879
					c-0.502,0.533-1.144,0.799-1.926,0.799c-0.752,0-1.395-0.266-1.927-0.799c-0.532-0.532-0.798-1.175-0.798-1.926
					c0-2.317,0.72-4.385,2.16-6.201c1.785-2.255,4.275-3.382,7.47-3.382c3.225,0,5.715,1.111,7.469,3.335
					c1.44,1.816,2.161,3.898,2.161,6.248c0,2.38-0.705,4.462-2.114,6.247c-1.785,2.255-4.291,3.383-7.516,3.383
					c-1.598,0-2.757,0.548-3.477,1.644c-0.501,0.721-0.752,1.598-0.752,2.631V126.031z"/>
				<path fill="#8A532D" d="M267.978,111.564c-0.438,1.221-1.127,2.317-2.066,3.288c0.876,0.846,1.55,1.832,2.02,2.959
					c0.47,1.128,0.705,2.459,0.705,3.993c0,3.194-1.112,5.669-3.336,7.422c-1.816,1.441-3.915,2.161-6.294,2.161
					c-2.381,0-4.463-0.705-6.248-2.114c-2.255-1.722-3.382-4.211-3.382-7.469c0-0.752,0.266-1.394,0.798-1.926
					s1.175-0.799,1.927-0.799c0.72,0,1.346,0.267,1.879,0.799c0.532,0.532,0.798,1.174,0.798,1.926c0,1.598,0.548,2.756,1.645,3.477
					c0.72,0.501,1.581,0.751,2.584,0.751c1.033,0,1.909-0.234,2.63-0.704c1.097-0.721,1.645-1.895,1.645-3.523
					c0-1.628-0.548-2.803-1.645-3.523c-0.721-0.5-1.597-0.751-2.63-0.751c-0.721,0-1.348-0.251-1.879-0.752
					c-0.533-0.501-0.799-1.143-0.799-1.926c0-0.72,0.266-1.347,0.799-1.879c0.531-0.532,1.158-0.799,1.879-0.799
					c1.628,0,2.802-0.548,3.522-1.645c0.501-0.72,0.752-1.597,0.752-2.63c0-1.002-0.235-1.863-0.705-2.584
					c-0.721-1.096-1.91-1.645-3.569-1.645c-1.598,0-2.757,0.549-3.477,1.645c-0.501,0.721-0.752,1.597-0.752,2.631
					c0,0.721-0.251,1.347-0.751,1.879c-0.502,0.533-1.144,0.799-1.926,0.799c-0.752,0-1.395-0.266-1.927-0.799
					c-0.532-0.532-0.798-1.175-0.798-1.926c0-2.317,0.72-4.385,2.16-6.201c1.785-2.255,4.275-3.382,7.47-3.382
					c3.225,0,5.715,1.111,7.469,3.335c1.44,1.816,2.161,3.898,2.161,6.248C268.637,109.12,268.417,110.342,267.978,111.564z"/>
				<path fill="#8A532D" d="M290.245,112.55c0,0.783-0.173,1.55-0.517,2.302c0.344,0.751,0.517,1.52,0.517,2.302v11.556
					c0,0.752-0.259,1.386-0.775,1.902s-1.151,0.775-1.902,0.775c-0.752,0-1.386-0.259-1.902-0.775s-0.775-1.15-0.775-1.902v-11.18
					h-8.878c-1.504,0-2.725-0.501-3.664-1.504c-0.909-1.063-1.362-2.223-1.362-3.476v-11.556c0-0.721,0.266-1.347,0.798-1.88
					c0.532-0.531,1.175-0.798,1.927-0.798c0.751,0,1.386,0.258,1.902,0.774s0.774,1.151,0.774,1.903v11.18h8.503v-11.18
					c0-0.752,0.259-1.387,0.775-1.903s1.15-0.774,1.902-0.774c0.751,0,1.386,0.258,1.902,0.774s0.775,1.151,0.775,1.903V112.55z"/>
			</g>
			<g>
				<circle fill="#E3E3E3" cx="341.889" cy="213.133" r="23.667"/>
				<circle fill="#A6A6A6" cx="341.889" cy="213.133" r="17.667"/>
				<circle fill="#E3E3E3" cx="341.889" cy="213.133" r="11.667"/>
			</g>
			<path fill="#6E4224" d="M152.223,307.799v135h208v-135H152.223z M350.223,432.799h-188v-115h188V432.799z"/>
		</g>
	</g>
	<g id="key">
	</g>
	<g id="do_not_disturb">
	</g>
	<g id="bell">
	</g>
</g>
<g id="winter">
	<g id="snowman">
	</g>
	<g id="snow_mountain">
	</g>
	<g id="reindeer">
	</g>
	<g id="winter_tree">
	</g>
	<g id="lift">
	</g>
	<g id="beanie__x26__google">
	</g>
	<g id="ski">
	</g>
	<g id="snowboard">
	</g>
	<g id="snowboading">
	</g>
	<g id="skiing">
	</g>
</g>
<g id="general_travelling">
	<g id="dinner_set">
	</g>
	<g id="polaroid">
	</g>
	<g id="camera">
	</g>
	<g id="calendar">
	</g>
	<g id="calendar_single">
	</g>
	<g id="shopping_bag">
	</g>
	<g id="watch">
	</g>
	<g id="alarm_clock">
	</g>
	<g id="credit_card">
	</g>
	<g id="road_sign">
	</g>
	<g id="hotel">
	</g>
	<g id="money">
	</g>
	<g id="sunglass">
	</g>
	<g id="cocktail">
	</g>
	<g id="compass">
	</g>
	<g id="tent">
	</g>
	<g id="backpack">
	</g>
	<g id="map">
	</g>
	<g id="ticket_1_">
	</g>
	<g id="passport">
	</g>
	<g id="luggage">
	</g>
	<g id="globe">
	</g>
	<g id="suitcase">
	</g>
</g>
<g id="vehicles">
	<g id="trailer">
	</g>
	<g id="airplane">
	</g>
	<g id="yatch">
	</g>
	<g id="taxi">
	</g>
	<g id="hot_air_ballon">
	</g>
	<g id="bus">
	</g>
	<g id="train">
	</g>
</g>
<g id="summer">
	<g id="postcard">
	</g>
	<g id="bikini">
	</g>
	<g id="flipflop">
	</g>
	<g id="plane_around_the_globe">
	</g>
	<g id="binocular">
	</g>
	<g id="beach_table">
	</g>
	<g id="sun_hat">
	</g>
	<g id="beach_bag">
	</g>
	<g id="sea__x26__wave">
	</g>
	<g id="beach">
	</g>
	<g id="beach_ball">
	</g>
	<g id="jetski">
	</g>
	<g id="sandcastle">
	</g>
	<g id="lifeguard_male">
	</g>
	<g id="lifeguard_female">
	</g>
	<g id="lighthouse">
	</g>
	<g id="hammok">
	</g>
	<g id="beach_chair__x26__umbrella">
	</g>
	<g id="lifeguard">
	</g>
	<g id="suncream">
	</g>
	<g id="starfish">
	</g>
	<g id="beach_bar">
	</g>
	<g id="bucket__x26__shovel">
	</g>
	<g id="palm_tree">
	</g>
	<g id="shark_warning">
	</g>
	<g id="surfboard">
	</g>
	<g id="swimming_trunks">
	</g>
	<g id="coconut_drink">
	</g>
	<g id="beach_chair__x26__towel">
	</g>
	<g id="coconut_tree">
	</g>
</g>
</svg>
