<?xml version="1.0" encoding="utf-8"?>
<!-- Generator: Adobe Illustrator 17.0.0, SVG Export Plug-In . SVG Version: 6.00 Build 0)  -->
<!DOCTYPE svg PUBLIC "-//W3C//DTD SVG 1.1//EN" "http://www.w3.org/Graphics/SVG/1.1/DTD/svg11.dtd">
<svg version="1.1" xmlns="http://www.w3.org/2000/svg" xmlns:xlink="http://www.w3.org/1999/xlink" x="0px" y="0px" width="512px"
	 height="512px" viewBox="0 0 512 512" enable-background="new 0 0 512 512" xml:space="preserve">
<g id="famous_places">
	<g id="Pyramid">
	</g>
	<g id="Colloseum">
	</g>
	<g id="Mount_Fuji">
	</g>
	<g id="Great_Wall_of_China">
	</g>
	<g id="Stonehenge">
	</g>
	<g id="Golden_Gate_Bridge">
	</g>
	<g id="Christ_the_Redeemer">
	</g>
	<g id="Statue_of_Liberty">
	</g>
	<g id="Taj_Mahal">
	</g>
	<g id="Eiffel_tower">
	</g>
</g>
<g id="camping">
	<g id="mug">
	</g>
	<g id="hook">
	</g>
	<g id="Swiss_knife">
	</g>
	<g id="flashlight">
	</g>
	<g id="lantern">
	</g>
	<g id="campfire">
	</g>
	<g id="beanie">
	</g>
	<g id="rope">
	</g>
	<g id="boot">
	</g>
	<g id="axe">
	</g>
</g>
<g id="hotel_1_">
	<g id="towel">
	</g>
	<g id="phone">
	</g>
	<g id="pool">
	</g>
	<g id="food_service">
	</g>
	<g id="wifi">
	</g>
	<g id="bed">
	</g>
	<g id="door">
	</g>
	<g id="key">
	</g>
	<g id="do_not_disturb">
	</g>
	<g id="bell">
	</g>
</g>
<g id="winter">
	<g id="snowman">
	</g>
	<g id="snow_mountain">
	</g>
	<g id="reindeer">
	</g>
	<g id="winter_tree">
	</g>
	<g id="lift">
	</g>
	<g id="beanie__x26__google">
	</g>
	<g id="ski">
	</g>
	<g id="snowboard">
	</g>
	<g id="snowboading">
	</g>
	<g id="skiing">
	</g>
</g>
<g id="general_travelling">
	<g id="dinner_set">
	</g>
	<g id="polaroid">
	</g>
	<g id="camera">
	</g>
	<g id="calendar">
	</g>
	<g id="calendar_single">
	</g>
	<g id="shopping_bag">
	</g>
	<g id="watch">
	</g>
	<g id="alarm_clock">
	</g>
	<g id="credit_card">
	</g>
	<g id="road_sign">
	</g>
	<g id="hotel">
	</g>
	<g id="money">
	</g>
	<g id="sunglass">
	</g>
	<g id="cocktail">
	</g>
	<g id="compass">
	</g>
	<g id="tent">
	</g>
	<g id="backpack">
	</g>
	<g id="map">
	</g>
	<g id="ticket_1_">
	</g>
	<g id="passport">
	</g>
	<g id="luggage">
	</g>
	<g id="globe">
	</g>
	<g id="suitcase">
	</g>
</g>
<g id="vehicles">
	<g id="trailer">
	</g>
	<g id="airplane">
	</g>
	<g id="yatch">
	</g>
	<g id="taxi">
	</g>
	<g id="hot_air_ballon">
	</g>
	<g id="bus">
	</g>
	<g id="train">
	</g>
</g>
<g id="summer">
	<g id="postcard">
	</g>
	<g id="bikini">
	</g>
	<g id="flipflop">
	</g>
	<g id="plane_around_the_globe">
	</g>
	<g id="binocular">
		<g>
			<path fill="#73B4B2" d="M221.4,221.168l5.265-42.714l-0.2-0.043c0.027-0.12,0.07-0.234,0.096-0.354
				c4.209-19.418-8.119-38.572-27.537-42.781s-38.571,8.12-42.78,27.538c-0.026,0.12-0.035,0.241-0.06,0.362l-0.018-0.004
				l-12.631,40.451c-4.092,5.149-7.101,11.287-8.589,18.15c-5.183,23.91,9.998,47.494,33.908,52.677
				c23.91,5.183,47.495-9.998,52.678-33.908C222.965,233.932,222.834,227.348,221.4,221.168z"/>
			<path fill="#73B4B2" d="M290.6,221.168l-5.265-42.714l0.2-0.043c-0.027-0.12-0.07-0.234-0.096-0.354
				c-4.209-19.418,8.119-38.572,27.537-42.781s38.571,8.12,42.78,27.538c0.026,0.12,0.035,0.241,0.06,0.362l0.018-0.004
				l12.631,40.451c4.092,5.149,7.101,11.287,8.589,18.15c5.183,23.91-9.998,47.494-33.908,52.677
				c-23.91,5.183-47.495-9.998-52.678-33.908C289.035,233.932,289.166,227.348,290.6,221.168z"/>
			<polygon fill="#629997" points="292.555,205.371 218.649,205.371 223.649,166.732 287.555,166.732 			"/>
			<rect x="218.649" y="205.371" fill="#73B4B2" width="73.906" height="22.009"/>
			<path fill="#279685" d="M243.197,287.355l-5.032-53.005c0-29.426-23.855-53.281-53.281-53.281
				c-24.185,0-52.594,16.119-59.101,38.196l-15.701,30.558l34.924,9.847c9.761,11.013,24.004,17.961,39.878,17.961
				c5.424,0,10.657-0.816,15.589-2.323L243.197,287.355z"/>
			<circle fill="#2FB49F" cx="167.5" cy="300.967" r="76.898"/>
			<g>
				<circle fill="#2D415A" cx="167.5" cy="300.967" r="59.612"/>
				<circle fill="#5C84B8" cx="165.848" cy="302.178" r="37.479"/>
				<circle fill="#2D415A" cx="165.848" cy="302.178" r="23.817"/>
				<circle fill="#5C84B8" cx="144.904" cy="255.568" r="7.898"/>
				<circle fill="#5C84B8" cx="125.484" cy="272.962" r="5.399"/>
			</g>
			<path fill="#279685" d="M268.803,287.355l5.032-53.005c0-29.426,23.855-53.281,53.281-53.281
				c24.185,0,52.594,16.119,59.101,38.196l15.701,30.558l-34.924,9.847c-9.761,11.013-24.004,17.961-39.878,17.961
				c-5.424,0-10.657-0.816-15.589-2.323L268.803,287.355z"/>
			<circle fill="#2FB49F" cx="344.5" cy="300.967" r="76.898"/>
			<circle fill="#73B4B2" cx="255.831" cy="215.941" r="12.729"/>
			<circle fill="#629997" cx="255.831" cy="172.941" r="12.729"/>
			<circle fill="#5C84B8" cx="255.831" cy="215.941" r="9.879"/>
			<circle fill="#2D415A" cx="255.831" cy="218.941" r="9.879"/>
			<g>
				<circle fill="#2D415A" cx="344.5" cy="300.967" r="59.612"/>
				<circle fill="#5C84B8" cx="342.848" cy="302.178" r="37.479"/>
				<circle fill="#2D415A" cx="342.848" cy="302.178" r="23.817"/>
				<circle fill="#5C84B8" cx="321.904" cy="255.568" r="7.898"/>
				<circle fill="#5C84B8" cx="302.484" cy="272.962" r="5.399"/>
			</g>
		</g>
	</g>
	<g id="beach_table">
	</g>
	<g id="sun_hat">
	</g>
	<g id="beach_bag">
	</g>
	<g id="sea__x26__wave">
	</g>
	<g id="beach">
	</g>
	<g id="beach_ball">
	</g>
	<g id="jetski">
	</g>
	<g id="sandcastle">
	</g>
	<g id="lifeguard_male">
	</g>
	<g id="lifeguard_female">
	</g>
	<g id="lighthouse">
	</g>
	<g id="hammok">
	</g>
	<g id="beach_chair__x26__umbrella">
	</g>
	<g id="lifeguard">
	</g>
	<g id="suncream">
	</g>
	<g id="starfish">
	</g>
	<g id="beach_bar">
	</g>
	<g id="bucket__x26__shovel">
	</g>
	<g id="palm_tree">
	</g>
	<g id="shark_warning">
	</g>
	<g id="surfboard">
	</g>
	<g id="swimming_trunks">
	</g>
	<g id="coconut_drink">
	</g>
	<g id="beach_chair__x26__towel">
	</g>
	<g id="coconut_tree">
	</g>
</g>
</svg>
