<?xml version="1.0" encoding="utf-8"?>
<!-- Generator: Adobe Illustrator 17.0.0, SVG Export Plug-In . SVG Version: 6.00 Build 0)  -->
<!DOCTYPE svg PUBLIC "-//W3C//DTD SVG 1.1//EN" "http://www.w3.org/Graphics/SVG/1.1/DTD/svg11.dtd">
<svg version="1.1" xmlns="http://www.w3.org/2000/svg" xmlns:xlink="http://www.w3.org/1999/xlink" x="0px" y="0px" width="512px"
	 height="512px" viewBox="0 0 512 512" enable-background="new 0 0 512 512" xml:space="preserve">
<g id="famous_places">
	<g id="Pyramid">
	</g>
	<g id="Colloseum">
	</g>
	<g id="Mount_Fuji">
	</g>
	<g id="Great_Wall_of_China">
	</g>
	<g id="Stonehenge">
	</g>
	<g id="Golden_Gate_Bridge">
	</g>
	<g id="Christ_the_Redeemer">
	</g>
	<g id="Statue_of_Liberty">
	</g>
	<g id="Taj_Mahal">
	</g>
	<g id="Eiffel_tower">
	</g>
</g>
<g id="camping">
	<g id="mug">
	</g>
	<g id="hook">
	</g>
	<g id="Swiss_knife">
	</g>
	<g id="flashlight">
	</g>
	<g id="lantern">
	</g>
	<g id="campfire">
	</g>
	<g id="beanie">
	</g>
	<g id="rope">
	</g>
	<g id="boot">
	</g>
	<g id="axe">
	</g>
</g>
<g id="hotel_1_">
	<g id="towel">
	</g>
	<g id="phone">
	</g>
	<g id="pool">
	</g>
	<g id="food_service">
	</g>
	<g id="wifi">
	</g>
	<g id="bed">
	</g>
	<g id="door">
	</g>
	<g id="key">
	</g>
	<g id="do_not_disturb">
	</g>
	<g id="bell">
	</g>
</g>
<g id="winter">
	<g id="snowman">
	</g>
	<g id="snow_mountain">
	</g>
	<g id="reindeer">
	</g>
	<g id="winter_tree">
	</g>
	<g id="lift">
	</g>
	<g id="beanie__x26__google">
	</g>
	<g id="ski">
	</g>
	<g id="snowboard">
	</g>
	<g id="snowboading">
	</g>
	<g id="skiing">
	</g>
</g>
<g id="general_travelling">
	<g id="dinner_set">
	</g>
	<g id="polaroid">
	</g>
	<g id="camera">
	</g>
	<g id="calendar">
	</g>
	<g id="calendar_single">
	</g>
	<g id="shopping_bag">
	</g>
	<g id="watch">
	</g>
	<g id="alarm_clock">
	</g>
	<g id="credit_card">
	</g>
	<g id="road_sign">
	</g>
	<g id="hotel">
	</g>
	<g id="money">
	</g>
	<g id="sunglass">
	</g>
	<g id="cocktail">
	</g>
	<g id="compass">
	</g>
	<g id="tent">
	</g>
	<g id="backpack">
	</g>
	<g id="map">
	</g>
	<g id="ticket_1_">
	</g>
	<g id="passport">
	</g>
	<g id="luggage">
	</g>
	<g id="globe">
	</g>
	<g id="suitcase">
	</g>
</g>
<g id="vehicles">
	<g id="trailer">
		<g>
			<path fill="#2D415A" d="M444.716,387.304h-71.894c-5,0-9.053-4.053-9.053-9.053l0,0c0-5,4.053-9.053,9.053-9.053h71.894
				c5,0,9.053,4.053,9.053,9.053l0,0C453.768,383.251,449.715,387.304,444.716,387.304z"/>
			<rect x="433.768" y="360.333" fill="#2D415A" width="8.428" height="66.313"/>
			<rect x="176.88" y="128.082" fill="#E3E3E3" width="5.776" height="37.181"/>
			<rect x="140.768" y="150.325" fill="#A3A3A3" width="78" height="17.189"/>
			<rect x="152.52" y="126.229" fill="#A3A3A3" width="54.496" height="10.888"/>
			<circle fill="#4A4A4A" cx="296.318" cy="388.5" r="38.25"/>
			<circle fill="#E3E3E3" cx="296.318" cy="388.5" r="23.847"/>
			<circle fill="#4A4A4A" cx="146.318" cy="388.5" r="38.25"/>
			<circle fill="#E3E3E3" cx="146.318" cy="388.5" r="23.847"/>
			<path fill="#A3A3A3" d="M63.017,372.937c5.102,9.378,13.804,15.613,23.764,15.613h268.384c0,0,20.195-1.136,38.918-15.613H63.017
				z"/>
			<g>
				<path fill="#E3E3E3" d="M63.017,372.937h331.065c3.992-3.086,7.916-6.783,11.564-11.2H59.039
					C59.834,365.778,61.182,369.565,63.017,372.937z"/>
				<path fill="#E3E3E3" d="M349.296,158.063H100.857c-18.13,0-33.151,17.246-34.337,39.426l-1.6,29.895h352.179
					C397.418,156.517,349.296,158.063,349.296,158.063z"/>
				<path fill="#E3E3E3" d="M64.256,239.792l-3.063,57.238h364.142c-0.035-22.54-1.994-41.416-5.258-57.238H64.256z"/>
				<path fill="#FFD161" d="M58.292,351.256c-0.194,3.624,0.09,7.138,0.748,10.48h346.607
					c11.137-13.487,19.695-33.726,19.695-64.101c0-0.205-0.005-0.402-0.005-0.606H61.193L58.292,351.256z"/>
				<path fill="#FF6650" d="M417.099,227.383H64.92l-0.664,12.409h355.822C419.179,235.431,418.185,231.291,417.099,227.383z"/>
			</g>
			<g>
				<path fill="#2D415A" d="M198.768,309.12c0,2.2-1.8,4-4,4h-114c-2.2,0-3.875-1.796-3.722-3.99l4.993-71.551
					c0.153-2.195,2.078-3.99,4.278-3.99h108.451c2.2,0,4,1.8,4,4V309.12z"/>
			</g>
			<g>
				<path fill="#2D415A" d="M275.777,309.12c0,2.2-1.8,4-4,4h-59.983c-2.2,0-4-1.8-4-4v-71.532c0-2.2,1.8-4,4-4h59.983
					c2.2,0,4,1.8,4,4V309.12z"/>
			</g>
			<g>
				<path fill="#6FEBE7" d="M262,295.937c0,2.209-1.791,4-4,4h-32c-2.209,0-4-1.791-4-4v-44c0-2.209,1.791-4,4-4h32
					c2.209,0,4,1.791,4,4V295.937z"/>
			</g>
			<g>
				<path fill="#2D415A" d="M275.777,309.12c0,2.2-1.8,4-4,4h-59.983c-2.2,0-4-1.8-4-4v-71.532c0-2.2,1.8-4,4-4h59.983
					c2.2,0,4,1.8,4,4V309.12z"/>
			</g>
			<rect x="285.165" y="216.896" fill="#FF6650" width="70" height="171.654"/>
			<g>
				<path fill="#2D415A" d="M339.29,282.461c0,2.2-1.8,4-4,4h-30.25c-2.2,0-4-1.8-4-4v-44.873c0-2.2,1.8-4,4-4h30.25
					c2.2,0,4,1.8,4,4V282.461z"/>
			</g>
			<g>
				<path fill="#6FEBE7" d="M184.768,243.937H95.644c-2.2,0-4.125,1.575-4.278,3.77l-1.488,21.23H189v-21.35
					C189,245.388,186.968,243.937,184.768,243.937z"/>
				<path fill="#54B3AF" d="M87.768,299.038c-0.153,2.195,1.522,3.899,3.722,3.899h93.278c2.2,0,4.232-1.617,4.232-3.817v-30.183
					H89.878L87.768,299.038z"/>
				<path fill="#54B3AF" d="M218,299.937c0,2.209,1.559,4,3.768,4h40c2.209,0,4.232-1.791,4.232-4v-31h-48V299.937z"/>
				<path fill="#6FEBE7" d="M261.768,243.937h-40c-2.209,0-3.768,1.791-3.768,4v21h48v-21
					C266,245.728,263.977,243.937,261.768,243.937z"/>
				<path fill="#54B3AF" d="M311,268.937v4c0,2.209,1.559,4,3.768,4h10c2.209,0,4.232-1.791,4.232-4v-4H311z"/>
				<path fill="#6FEBE7" d="M329,247.937c0-2.209-2.023-4-4.232-4h-10c-2.209,0-3.768,1.791-3.768,4v21h18V247.937z"/>
			</g>
			<path fill="#FFFFFF" d="M110.801,216.896H94.726c-3.848,0-6.967-3.119-6.967-6.967v-3.95c0-3.848,3.119-6.967,6.967-6.967h16.076
				c3.848,0,6.967,3.119,6.967,6.967v3.95C117.768,213.777,114.649,216.896,110.801,216.896z"/>
			<path fill="#FF6650" d="M389.01,207.955h-13.17c-2.801,0-5.072-2.271-5.072-5.072v0c0-2.801,2.271-5.072,5.072-5.072h13.17
				c2.801,0,5.072,2.271,5.072,5.072v0C394.082,205.684,391.811,207.955,389.01,207.955z"/>
			<path fill="none" stroke="#A3A3A3" stroke-width="5" stroke-linecap="round" stroke-linejoin="round" stroke-miterlimit="10" d="
				M108.768,190.937h13.5c5.247,0,9.5,4.253,9.5,9.5v0c0,5.247,4.253,9.5,9.5,9.5h200c5.247,0,9.5-4.253,9.5-9.5v-24
				c0-5.247-4.253-9.5-9.5-9.5h-228.75c-2.99,0-5.806,1.408-7.6,3.8l-3.75,5C96.471,182,100.94,190.937,108.768,190.937z"/>
			
				<line fill="none" stroke="#E3E3E3" stroke-width="10" stroke-linecap="round" stroke-linejoin="round" stroke-miterlimit="10" x1="335" y1="302.937" x2="347" y2="302.937"/>
			<g>
				<g>
					<g>
						<path fill="#B04637" d="M342.165,322.937h-44c-1.381,0-2.5-1.119-2.5-2.5s1.119-2.5,2.5-2.5h44c1.381,0,2.5,1.119,2.5,2.5
							S343.545,322.937,342.165,322.937z"/>
					</g>
				</g>
				<g>
					<g>
						<path fill="#B04637" d="M342.165,332.937h-44c-1.381,0-2.5-1.119-2.5-2.5s1.119-2.5,2.5-2.5h44c1.381,0,2.5,1.119,2.5,2.5
							S343.545,332.937,342.165,332.937z"/>
					</g>
				</g>
				<g>
					<g>
						<path fill="#B04637" d="M342.165,342.937h-44c-1.381,0-2.5-1.119-2.5-2.5s1.119-2.5,2.5-2.5h44c1.381,0,2.5,1.119,2.5,2.5
							S343.545,342.937,342.165,342.937z"/>
					</g>
				</g>
				<g>
					<g>
						<path fill="#B04637" d="M342.165,352.937h-44c-1.381,0-2.5-1.119-2.5-2.5s1.119-2.5,2.5-2.5h44c1.381,0,2.5,1.119,2.5,2.5
							S343.545,352.937,342.165,352.937z"/>
					</g>
				</g>
				<g>
					<g>
						<path fill="#B04637" d="M342.165,362.937h-44c-1.381,0-2.5-1.119-2.5-2.5s1.119-2.5,2.5-2.5h44c1.381,0,2.5,1.119,2.5,2.5
							S343.545,362.937,342.165,362.937z"/>
					</g>
				</g>
			</g>
			<path fill="#2D415A" d="M350.308,222.597h-60.286c-5.444,0-9.857-4.413-9.857-9.857v0c0-5.444,4.413-9.857,9.857-9.857h60.286
				c5.444,0,9.857,4.413,9.857,9.857v0C360.165,218.184,355.751,222.597,350.308,222.597z"/>
			
				<rect x="370.768" y="252.901" fill="none" stroke="#A3A3A3" stroke-width="5" stroke-linecap="round" stroke-linejoin="round" stroke-miterlimit="10" width="38" height="34.933"/>
		</g>
	</g>
	<g id="airplane">
	</g>
	<g id="yatch">
	</g>
	<g id="taxi">
	</g>
	<g id="hot_air_ballon">
	</g>
	<g id="bus">
	</g>
	<g id="train">
	</g>
</g>
<g id="summer">
	<g id="postcard">
	</g>
	<g id="bikini">
	</g>
	<g id="flipflop">
	</g>
	<g id="plane_around_the_globe">
	</g>
	<g id="binocular">
	</g>
	<g id="beach_table">
	</g>
	<g id="sun_hat">
	</g>
	<g id="beach_bag">
	</g>
	<g id="sea__x26__wave">
	</g>
	<g id="beach">
	</g>
	<g id="beach_ball">
	</g>
	<g id="jetski">
	</g>
	<g id="sandcastle">
	</g>
	<g id="lifeguard_male">
	</g>
	<g id="lifeguard_female">
	</g>
	<g id="lighthouse">
	</g>
	<g id="hammok">
	</g>
	<g id="beach_chair__x26__umbrella">
	</g>
	<g id="lifeguard">
	</g>
	<g id="suncream">
	</g>
	<g id="starfish">
	</g>
	<g id="beach_bar">
	</g>
	<g id="bucket__x26__shovel">
	</g>
	<g id="palm_tree">
	</g>
	<g id="shark_warning">
	</g>
	<g id="surfboard">
	</g>
	<g id="swimming_trunks">
	</g>
	<g id="coconut_drink">
	</g>
	<g id="beach_chair__x26__towel">
	</g>
	<g id="coconut_tree">
	</g>
</g>
</svg>
