<?xml version="1.0" encoding="utf-8"?>
<!-- Generator: Adobe Illustrator 17.0.0, SVG Export Plug-In . SVG Version: 6.00 Build 0)  -->
<!DOCTYPE svg PUBLIC "-//W3C//DTD SVG 1.1//EN" "http://www.w3.org/Graphics/SVG/1.1/DTD/svg11.dtd">
<svg version="1.1" xmlns="http://www.w3.org/2000/svg" xmlns:xlink="http://www.w3.org/1999/xlink" x="0px" y="0px" width="512px"
	 height="512px" viewBox="0 0 512 512" enable-background="new 0 0 512 512" xml:space="preserve">
<g id="famous_places">
	<g id="Pyramid">
	</g>
	<g id="Colloseum">
	</g>
	<g id="Mount_Fuji">
	</g>
	<g id="Great_Wall_of_China">
	</g>
	<g id="Stonehenge">
	</g>
	<g id="Golden_Gate_Bridge">
	</g>
	<g id="Christ_the_Redeemer">
	</g>
	<g id="Statue_of_Liberty">
		<g>
			<g>
				<path fill="#FF6650" d="M211.357,39.134c0,8.653-7.015,15.668-15.668,15.668s-15.668-7.015-15.668-15.668
					s15.668-25.098,15.668-25.098S211.357,30.481,211.357,39.134z"/>
				<path fill="#FF9B29" d="M204.597,41.008c0,4.92-3.988,8.908-8.908,8.908s-8.908-3.988-8.908-8.908s8.908-14.27,8.908-14.27
					S204.597,36.088,204.597,41.008z"/>
				<path fill="#FFD161" d="M200.748,41.828c0,2.778-2.252,5.03-5.03,5.03s-5.03-2.252-5.03-5.03c0-2.778,5.03-8.057,5.03-8.057
					S200.748,39.05,200.748,41.828z"/>
				<path fill="#FFD161" d="M207.342,21.613c0,1.784-1.446,3.229-3.229,3.229c-1.784,0-3.229-1.446-3.229-3.229
					s3.229-5.173,3.229-5.173S207.342,19.829,207.342,21.613z"/>
				<path fill="#FFD161" d="M184.914,31.468c0,1.784-1.446,3.229-3.229,3.229s-3.229-1.446-3.229-3.229
					c0-1.784,3.229-5.173,3.229-5.173S184.914,29.684,184.914,31.468z"/>
			</g>
			<path fill="#279685" d="M272.312,188.01c-1.602,1.252,4.561-5.381,4.561-5.381l20.199-2.83h-24.76l18.814-20.994
				c0,0-21.928,14.829-22.034,14.785l-4.925,0.41l-4.887-22.451l-4.887,22.493l-4.925-0.347
				c-0.106,0.044-22.034-14.894-22.034-14.894l18.814,20.997h-24.76l20.199,2.83c0,0,6.163,6.522,4.561,5.27
				c-1.602-1.252-24.76,2.065-24.76,2.065l27.366,3.72l10.425-3.027l10.425,3.048l27.366-3.689
				C297.072,190.016,273.914,186.759,272.312,188.01z"/>
			<path fill="#279685" d="M274.484,195.084l-5.647-1.372l-9.991,20.814l-9.991-20.814l-5.647,1.372l-12.163,47.713
				c0,0,19.982-2.606,21.285-3.041c1.084-0.361,5.171-16.941,6.516-22.512c1.345,5.571,5.432,22.151,6.516,22.512
				c1.303,0.435,21.284,3.041,21.284,3.041L274.484,195.084z"/>
			<path fill="#38D6BD" d="M274.918,242.797c-0.977-0.326-4.726-34.099-4.726-34.099l-23.943,6.081l-3.909,21.828l27.853,10.425
				L274.918,242.797z"/>
			<path fill="#38D6BD" d="M259,171.124v5.213l-20.85,18.678C238.15,195.015,231,175.468,259,171.124z"/>
			<g>
				<path fill="#38D6BD" d="M259,171.124v5.213l20.85,18.678C279.85,195.015,288,175.468,259,171.124z"/>
			</g>
			<path fill="#2FB49F" d="M259.281,176.771c-20.633,0-20.85,18.243-20.85,18.243l20.85-4.343l20.85,4.343
				C280.131,195.015,280.131,176.771,259.281,176.771z"/>
			<path fill="#2FB49F" d="M258.5,187.197L245,198.49v20.85c0,0,2.641,6.516,13.5,6.516c10.859,0,13.5-6.516,13.5-6.516v-20.85
				L258.5,187.197z"/>
			<path fill="#38D6BD" d="M258.5,181.549c0,0-13.5-1.955-20.5,13.574v13.575c0,0,3.077-3.813,7.977-6.966l0.165-0.052
				c0,0,13.519-8.838,13.519-14.484c0,0,3.335,8.29,8.937,12.506c1.304,0.583,2.525,1.245,3.631,1.949
				c0.024,0.008,0.052,0.02,0.075,0.027l-0.5,0.055c4.897,3.153,7.195,6.964,7.195,6.964v-13.575
				C272,179.595,258.5,181.549,258.5,181.549z"/>
			
				<rect x="186.415" y="53.214" transform="matrix(1 0.0054 -0.0054 1 0.3121 -1.0431)" fill="#2FB49F" width="17.265" height="9.166"/>
			<polyline fill="#2FB49F" points="198.221,217.153 189.153,132.539 172.308,115.698 181.563,97.799 192.933,97.799 
				200.033,109.881 190.817,116.186 181.749,114.05 190.817,121.973 200.033,119.852 204.567,105.653 200.033,97.799 
				206.682,97.799 211.442,109.352 204.567,127.292 200.033,131.502 218.846,196.538 			"/>
			<g>
				<polygon fill="#279685" points="191.286,121.927 191.797,134.799 198.221,134.799 198.804,120.466 198.611,120.21 
					198.804,120.147 199.211,110.374 191.041,116.032 				"/>
				<polygon fill="#279685" points="189.682,83.799 190.277,97.799 192.933,97.799 199.288,108.825 200.336,83.799 				"/>
			</g>
			<polygon fill="#2FB49F" points="280.641,243.083 279.133,236.32 294.998,247.296 305.046,373.159 300.286,391.139 			"/>
			<polygon fill="#2FB49F" points="300.286,468.349 211.971,468.878 225.72,430.802 			"/>
			<polygon fill="#279685" points="214.615,437.677 300.286,468.349 286.536,359.409 			"/>
			<polygon fill="#2FB49F" points="265,265.806 265,420.225 213.703,437.677 			"/>
			<polygon fill="#279685" points="257.073,295.42 258.508,410.178 276.489,288.546 			"/>
			<polygon fill="#2FB49F" points="238.941,305.204 211.971,381.62 214.615,437.677 265.912,300.517 			"/>
			<polygon fill="#2FB49F" points="254.806,228.787 223.323,207.364 200.865,225.085 213.557,265.277 			"/>
			<polygon fill="#2FB49F" points="270,231.198 261.081,228.787 209.82,308.641 200.847,318.16 220.511,357.195 270,260.73 			"/>
			<polygon fill="#38D6BD" points="262.739,254.171 200.865,355.179 211.971,381.62 286.536,269.507 279.133,236.32 
				270.143,231.198 			"/>
			<polygon fill="#38D6BD" points="254.806,226.143 200.865,276.382 209.855,308.641 270.143,228.787 			"/>
			<path fill="#38D6BD" d="M217.259,188.948l8.461,16.041l-27.499,27.235c0,0-10.048-20.801-8.99-21.638
				c1.058-0.837,6.782-15.844,6.782-15.844l2.209,14.125L217.259,188.948z"/>
			<path fill="#38D6BD" d="M286.536,269.507l13.75,121.632c0,0-41.778,22.211-41.778,19.038s11.634-127.449,11.634-127.449
				L286.536,269.507z"/>
			<polygon fill="#279685" points="258.508,410.178 265.912,420.225 266.781,407.795 			"/>
			<polygon fill="#279685" points="234.519,430.905 257.421,323.221 230.112,385.755 214.615,437.677 			"/>
			<rect x="204.787" y="463.061" fill="#38D6BD" width="97.609" height="12.163"/>
			<rect x="165.176" y="475.224" fill="#ADADAD" width="176.83" height="22.74"/>
			<path fill="#279685" d="M292.354,251.799h5.288l10.048,36.618l15.336,6.939c0,0-30.144,42.21-30.937,40.624
				C291.296,334.394,292.354,251.799,292.354,251.799z"/>
			<polygon fill="#279685" points="268.9,296.024 288.327,285.349 286.536,269.507 			"/>
			<polygon fill="#279685" points="304.202,343.909 328,349.362 328,313.401 			"/>
			<polygon fill="#38D6BD" points="325.67,276.911 283.363,336.184 303.948,359.409 346.824,295.42 			"/>
			<polygon fill="#2FB49F" points="328.314,306.409 318.795,323.221 336.247,326.622 338.891,316.515 			"/>
			<polygon fill="#2FB49F" points="195.048,76.799 172.308,76.799 189.559,83.799 195.048,83.799 200.537,83.799 217.788,76.799 			
				"/>
			<polygon fill="#38D6BD" points="212.038,57.799 195.048,57.799 178.058,57.799 172.308,76.799 195.048,76.799 217.788,76.799 			
				"/>
		</g>
	</g>
	<g id="Taj_Mahal">
	</g>
	<g id="Eiffel_tower">
	</g>
</g>
<g id="camping">
	<g id="mug">
	</g>
	<g id="hook">
	</g>
	<g id="Swiss_knife">
	</g>
	<g id="flashlight">
	</g>
	<g id="lantern">
	</g>
	<g id="campfire">
	</g>
	<g id="beanie">
	</g>
	<g id="rope">
	</g>
	<g id="boot">
	</g>
	<g id="axe">
	</g>
</g>
<g id="hotel_1_">
	<g id="towel">
	</g>
	<g id="phone">
	</g>
	<g id="pool">
	</g>
	<g id="food_service">
	</g>
	<g id="wifi">
	</g>
	<g id="bed">
	</g>
	<g id="door">
	</g>
	<g id="key">
	</g>
	<g id="do_not_disturb">
	</g>
	<g id="bell">
	</g>
</g>
<g id="winter">
	<g id="snowman">
	</g>
	<g id="snow_mountain">
	</g>
	<g id="reindeer">
	</g>
	<g id="winter_tree">
	</g>
	<g id="lift">
	</g>
	<g id="beanie__x26__google">
	</g>
	<g id="ski">
	</g>
	<g id="snowboard">
	</g>
	<g id="snowboading">
	</g>
	<g id="skiing">
	</g>
</g>
<g id="general_travelling">
	<g id="dinner_set">
	</g>
	<g id="polaroid">
	</g>
	<g id="camera">
	</g>
	<g id="calendar">
	</g>
	<g id="calendar_single">
	</g>
	<g id="shopping_bag">
	</g>
	<g id="watch">
	</g>
	<g id="alarm_clock">
	</g>
	<g id="credit_card">
	</g>
	<g id="road_sign">
	</g>
	<g id="hotel">
	</g>
	<g id="money">
	</g>
	<g id="sunglass">
	</g>
	<g id="cocktail">
	</g>
	<g id="compass">
	</g>
	<g id="tent">
	</g>
	<g id="backpack">
	</g>
	<g id="map">
	</g>
	<g id="ticket_1_">
	</g>
	<g id="passport">
	</g>
	<g id="luggage">
	</g>
	<g id="globe">
	</g>
	<g id="suitcase">
	</g>
</g>
<g id="vehicles">
	<g id="trailer">
	</g>
	<g id="airplane">
	</g>
	<g id="yatch">
	</g>
	<g id="taxi">
	</g>
	<g id="hot_air_ballon">
	</g>
	<g id="bus">
	</g>
	<g id="train">
	</g>
</g>
<g id="summer">
	<g id="postcard">
	</g>
	<g id="bikini">
	</g>
	<g id="flipflop">
	</g>
	<g id="plane_around_the_globe">
	</g>
	<g id="binocular">
	</g>
	<g id="beach_table">
	</g>
	<g id="sun_hat">
	</g>
	<g id="beach_bag">
	</g>
	<g id="sea__x26__wave">
	</g>
	<g id="beach">
	</g>
	<g id="beach_ball">
	</g>
	<g id="jetski">
	</g>
	<g id="sandcastle">
	</g>
	<g id="lifeguard_male">
	</g>
	<g id="lifeguard_female">
	</g>
	<g id="lighthouse">
	</g>
	<g id="hammok">
	</g>
	<g id="beach_chair__x26__umbrella">
	</g>
	<g id="lifeguard">
	</g>
	<g id="suncream">
	</g>
	<g id="starfish">
	</g>
	<g id="beach_bar">
	</g>
	<g id="bucket__x26__shovel">
	</g>
	<g id="palm_tree">
	</g>
	<g id="shark_warning">
	</g>
	<g id="surfboard">
	</g>
	<g id="swimming_trunks">
	</g>
	<g id="coconut_drink">
	</g>
	<g id="beach_chair__x26__towel">
	</g>
	<g id="coconut_tree">
	</g>
</g>
</svg>
