<?xml version="1.0" encoding="utf-8"?>
<!-- Generator: Adobe Illustrator 17.0.0, SVG Export Plug-In . SVG Version: 6.00 Build 0)  -->
<!DOCTYPE svg PUBLIC "-//W3C//DTD SVG 1.1//EN" "http://www.w3.org/Graphics/SVG/1.1/DTD/svg11.dtd">
<svg version="1.1" xmlns="http://www.w3.org/2000/svg" xmlns:xlink="http://www.w3.org/1999/xlink" x="0px" y="0px" width="512px"
	 height="512px" viewBox="0 0 512 512" enable-background="new 0 0 512 512" xml:space="preserve">
<g id="famous_places">
	<g id="Pyramid">
	</g>
	<g id="Colloseum">
	</g>
	<g id="Mount_Fuji">
	</g>
	<g id="Great_Wall_of_China">
	</g>
	<g id="Stonehenge">
	</g>
	<g id="Golden_Gate_Bridge">
	</g>
	<g id="Christ_the_Redeemer">
	</g>
	<g id="Statue_of_Liberty">
	</g>
	<g id="Taj_Mahal">
	</g>
	<g id="Eiffel_tower">
	</g>
</g>
<g id="camping">
	<g id="mug">
	</g>
	<g id="hook">
	</g>
	<g id="Swiss_knife">
	</g>
	<g id="flashlight">
	</g>
	<g id="lantern">
	</g>
	<g id="campfire">
	</g>
	<g id="beanie">
	</g>
	<g id="rope">
	</g>
	<g id="boot">
	</g>
	<g id="axe">
	</g>
</g>
<g id="hotel_1_">
	<g id="towel">
	</g>
	<g id="phone">
	</g>
	<g id="pool">
	</g>
	<g id="food_service">
	</g>
	<g id="wifi">
	</g>
	<g id="bed">
	</g>
	<g id="door">
	</g>
	<g id="key">
	</g>
	<g id="do_not_disturb">
	</g>
	<g id="bell">
	</g>
</g>
<g id="winter">
	<g id="snowman">
	</g>
	<g id="snow_mountain">
	</g>
	<g id="reindeer">
	</g>
	<g id="winter_tree">
	</g>
	<g id="lift">
	</g>
	<g id="beanie__x26__google">
	</g>
	<g id="ski">
	</g>
	<g id="snowboard">
	</g>
	<g id="snowboading">
	</g>
	<g id="skiing">
	</g>
</g>
<g id="general_travelling">
	<g id="dinner_set">
	</g>
	<g id="polaroid">
	</g>
	<g id="camera">
	</g>
	<g id="calendar">
	</g>
	<g id="calendar_single">
	</g>
	<g id="shopping_bag">
	</g>
	<g id="watch">
	</g>
	<g id="alarm_clock">
	</g>
	<g id="credit_card">
	</g>
	<g id="road_sign">
	</g>
	<g id="hotel">
	</g>
	<g id="money">
	</g>
	<g id="sunglass">
	</g>
	<g id="cocktail">
	</g>
	<g id="compass">
	</g>
	<g id="tent">
	</g>
	<g id="backpack">
	</g>
	<g id="map">
	</g>
	<g id="ticket_1_">
	</g>
	<g id="passport">
	</g>
	<g id="luggage">
	</g>
	<g id="globe">
		<g>
			
				<line fill="none" stroke="#8A532D" stroke-width="7" stroke-miterlimit="10" x1="366.574" y1="98.708" x2="129.574" y2="344.634"/>
			<g>
				<g>
					<g>
						<path fill="#6E4224" d="M118.607,344.527l8.485-8.485c65.054,65.054,170.399,64.983,235.294,0.088
							c64.895-64.895,64.85-170.357-0.088-235.295l-4.243-4.243l24.749-24.749l8.485,8.485l-16.155,16.155
							c31.253,33.351,48.355,76.494,48.291,122.156c-0.067,47.513-18.75,92.17-52.466,125.886
							C301.386,414.102,188.611,414.531,118.607,344.527z"/>
					</g>
				</g>
				<circle fill="#73B4B2" cx="246.015" cy="217.649" r="157.441"/>
				<g>
					<defs>
						<circle id="SVGID_21_" cx="246.015" cy="217.649" r="157.441"/>
					</defs>
					<clipPath id="SVGID_2_">
						<use xlink:href="#SVGID_21_"  overflow="visible"/>
					</clipPath>
					<g clip-path="url(#SVGID_2_)">
						<polygon fill="#629997" points="262.574,42.458 262.574,82.458 199.139,98.708 184.106,126.253 152.574,134.708 
							179.606,168.983 207.574,136.458 246.015,136.458 284.574,158.435 284.574,201.458 311.634,203.065 319.133,233.161 
							298.134,250.208 272.636,285.955 266.636,313.836 255.997,329.39 235.574,331.085 235.574,285.955 218.498,251.708 
							197.639,238.911 166.141,188.017 124.143,158.606 113.608,163.958 101.574,116.708 101.574,72.556 245.539,2.059 						"/>
						<polygon fill="#4FB463" points="377.63,103.708 364.131,158.606 377.63,190.892 403.456,217.649 430.128,203.065 						"/>
						<polygon fill="#629997" points="215.857,399.706 221.748,380.769 233.692,375.09 245.82,352.137 265.574,335.627 
							265.574,347.458 265.574,357.819 281.635,367.667 337.132,357.819 344.632,393.54 338.632,408.539 						"/>
					</g>
					<g clip-path="url(#SVGID_2_)">
						<g>
							<g>
								<polygon fill="#629997" points="367.63,116.708 354.131,171.606 367.63,203.892 393.456,230.649 420.128,216.065 								
									"/>
							</g>
							<g>
								<polygon fill="#ADD660" points="253,45.458 253,85.458 189.352,101.708 174.213,129.253 142.627,137.708 169.633,171.754 
									197.574,139 236.015,139 275,161.435 275,204.458 301.847,206.065 309.24,236.161 288.188,253.208 262.662,288.955 
									256.649,316.836 246.216,332.39 226,334.085 226,288.955 208.712,254.708 187.746,241.911 156.194,191.017 114.17,161.606 
									103.835,166.958 92,119.708 92,75.556 235.965,5.059 								"/>
							</g>
							<g>
								<polygon fill="#ADD660" points="367.63,106.708 354.131,161.606 367.63,193.892 393.456,220.649 420.128,206.065 								
									"/>
							</g>
							<g>
								<polygon fill="#ADD660" points="205.857,402.706 211.748,383.769 223.692,378.09 236.033,355.137 256,338.627 256,350.458 
									256,360.819 271.848,370.667 327.239,360.819 334.685,396.54 328.659,411.539 								"/>
							</g>
						</g>
					</g>
				</g>
				<g>
					<polygon fill="#6E4224" points="252,439 240,439 240,396.458 252,384.458 					"/>
				</g>
				<polygon fill="#8A532D" points="327.907,439.125 164.574,439.125 184.574,426.458 307.907,426.458 				"/>
				<polygon fill="#6E4224" points="345.574,451.792 146.907,451.792 156.907,439.125 335.574,439.125 				"/>
			</g>
		</g>
	</g>
	<g id="suitcase">
	</g>
</g>
<g id="vehicles">
	<g id="trailer">
	</g>
	<g id="airplane">
	</g>
	<g id="yatch">
	</g>
	<g id="taxi">
	</g>
	<g id="hot_air_ballon">
	</g>
	<g id="bus">
	</g>
	<g id="train">
	</g>
</g>
<g id="summer">
	<g id="postcard">
	</g>
	<g id="bikini">
	</g>
	<g id="flipflop">
	</g>
	<g id="plane_around_the_globe">
	</g>
	<g id="binocular">
	</g>
	<g id="beach_table">
	</g>
	<g id="sun_hat">
	</g>
	<g id="beach_bag">
	</g>
	<g id="sea__x26__wave">
	</g>
	<g id="beach">
	</g>
	<g id="beach_ball">
	</g>
	<g id="jetski">
	</g>
	<g id="sandcastle">
	</g>
	<g id="lifeguard_male">
	</g>
	<g id="lifeguard_female">
	</g>
	<g id="lighthouse">
	</g>
	<g id="hammok">
	</g>
	<g id="beach_chair__x26__umbrella">
	</g>
	<g id="lifeguard">
	</g>
	<g id="suncream">
	</g>
	<g id="starfish">
	</g>
	<g id="beach_bar">
	</g>
	<g id="bucket__x26__shovel">
	</g>
	<g id="palm_tree">
	</g>
	<g id="shark_warning">
	</g>
	<g id="surfboard">
	</g>
	<g id="swimming_trunks">
	</g>
	<g id="coconut_drink">
	</g>
	<g id="beach_chair__x26__towel">
	</g>
	<g id="coconut_tree">
	</g>
</g>
</svg>
