<?xml version="1.0" encoding="utf-8"?>
<!-- Generator: Adobe Illustrator 17.0.0, SVG Export Plug-In . SVG Version: 6.00 Build 0)  -->
<!DOCTYPE svg PUBLIC "-//W3C//DTD SVG 1.1//EN" "http://www.w3.org/Graphics/SVG/1.1/DTD/svg11.dtd">
<svg version="1.1" xmlns="http://www.w3.org/2000/svg" xmlns:xlink="http://www.w3.org/1999/xlink" x="0px" y="0px" width="512px"
	 height="512px" viewBox="0 0 512 512" enable-background="new 0 0 512 512" xml:space="preserve">
<g id="famous_places">
	<g id="Pyramid">
	</g>
	<g id="Colloseum">
	</g>
	<g id="Mount_Fuji">
	</g>
	<g id="Great_Wall_of_China">
	</g>
	<g id="Stonehenge">
	</g>
	<g id="Golden_Gate_Bridge">
	</g>
	<g id="Christ_the_Redeemer">
	</g>
	<g id="Statue_of_Liberty">
	</g>
	<g id="Taj_Mahal">
	</g>
	<g id="Eiffel_tower">
	</g>
</g>
<g id="camping">
	<g id="mug">
	</g>
	<g id="hook">
	</g>
	<g id="Swiss_knife">
	</g>
	<g id="flashlight">
	</g>
	<g id="lantern">
	</g>
	<g id="campfire">
	</g>
	<g id="beanie">
	</g>
	<g id="rope">
	</g>
	<g id="boot">
	</g>
	<g id="axe">
	</g>
</g>
<g id="hotel_1_">
	<g id="towel">
	</g>
	<g id="phone">
	</g>
	<g id="pool">
	</g>
	<g id="food_service">
	</g>
	<g id="wifi">
	</g>
	<g id="bed">
	</g>
	<g id="door">
	</g>
	<g id="key">
	</g>
	<g id="do_not_disturb">
	</g>
	<g id="bell">
	</g>
</g>
<g id="winter">
	<g id="snowman">
	</g>
	<g id="snow_mountain">
	</g>
	<g id="reindeer">
	</g>
	<g id="winter_tree">
	</g>
	<g id="lift">
	</g>
	<g id="beanie__x26__google">
	</g>
	<g id="ski">
	</g>
	<g id="snowboard">
	</g>
	<g id="snowboading">
	</g>
	<g id="skiing">
	</g>
</g>
<g id="general_travelling">
	<g id="dinner_set">
	</g>
	<g id="polaroid">
	</g>
	<g id="camera">
		<g>
			<path fill="#333333" d="M388.003,184.589h-92.006c-17.318,0-29.184-17.874-22.813-34.362l4.749-12.29
				c3.703-9.583,12.748-15.878,22.813-15.878h82.508c10.066,0,19.11,6.295,22.813,15.878l4.749,12.29
				C417.187,166.715,405.321,184.589,388.003,184.589z"/>
			<path fill="#333333" d="M152.392,150.274h-35.785c-6.319,0-11.441-5.122-11.441-11.441V133.5c0-6.319,5.122-11.441,11.441-11.441
				h35.785c6.319,0,11.441,5.122,11.441,11.441v5.333C163.833,145.152,158.711,150.274,152.392,150.274z"/>
			<path fill="#333333" d="M170,151.452h-59.435C84.36,151.452,63,173.196,63,199.402v143.286c0,26.206,21.36,46.764,47.565,46.764
				H170v-36h277.557c0.859-4,1.443-6.928,1.443-10.764V199.402c0-3.836-0.583-7.949-1.443-11.949H170V151.452z"/>
			<path fill="#A6A6A6" d="M401.435,151.941H170v36h277.557C442.546,166.941,423.804,151.941,401.435,151.941z"/>
			<path fill="#A6A6A6" d="M170,389.941h231.435c22.369,0,41.111-15,46.123-36H170V389.941z"/>
			<rect x="63" y="176.452" fill="#4A4A4A" width="143" height="171"/>
			<path fill="#E3E3E3" d="M206,163.912c0-16.002-13.435-28.971-29.437-28.971H92.09c-16.002,0-29.09,12.97-29.09,28.971v13.029h143
				V163.912z"/>
			<path fill="#E3E3E3" d="M63,361.164c0,16.002,13.088,28.777,29.09,28.777h84.474c16.002,0,29.437-12.775,29.437-28.777v-13.223
				H63V361.164z"/>
			<circle fill="#E3E3E3" cx="342" cy="270.941" r="93.642"/>
			<circle fill="#2D415A" cx="342" cy="270.941" r="71.461"/>
			<circle fill="#5C84B8" cx="342" cy="270.941" r="54.631"/>
			<circle fill="#2D415A" cx="342" cy="270.941" r="34.717"/>
			<circle fill="#5C84B8" cx="331.308" cy="262.633" r="10.025"/>
			<circle fill="#5C84B8" cx="355.404" cy="279.538" r="14.121"/>
			<circle fill="#E3E3E3" cx="238.257" cy="187.531" r="17.59"/>
			<circle fill="#FF6650" cx="238.257" cy="187.531" r="10.924"/>
		</g>
	</g>
	<g id="calendar">
	</g>
	<g id="calendar_single">
	</g>
	<g id="shopping_bag">
	</g>
	<g id="watch">
	</g>
	<g id="alarm_clock">
	</g>
	<g id="credit_card">
	</g>
	<g id="road_sign">
	</g>
	<g id="hotel">
	</g>
	<g id="money">
	</g>
	<g id="sunglass">
	</g>
	<g id="cocktail">
	</g>
	<g id="compass">
	</g>
	<g id="tent">
	</g>
	<g id="backpack">
	</g>
	<g id="map">
	</g>
	<g id="ticket_1_">
	</g>
	<g id="passport">
	</g>
	<g id="luggage">
	</g>
	<g id="globe">
	</g>
	<g id="suitcase">
	</g>
</g>
<g id="vehicles">
	<g id="trailer">
	</g>
	<g id="airplane">
	</g>
	<g id="yatch">
	</g>
	<g id="taxi">
	</g>
	<g id="hot_air_ballon">
	</g>
	<g id="bus">
	</g>
	<g id="train">
	</g>
</g>
<g id="summer">
	<g id="postcard">
	</g>
	<g id="bikini">
	</g>
	<g id="flipflop">
	</g>
	<g id="plane_around_the_globe">
	</g>
	<g id="binocular">
	</g>
	<g id="beach_table">
	</g>
	<g id="sun_hat">
	</g>
	<g id="beach_bag">
	</g>
	<g id="sea__x26__wave">
	</g>
	<g id="beach">
	</g>
	<g id="beach_ball">
	</g>
	<g id="jetski">
	</g>
	<g id="sandcastle">
	</g>
	<g id="lifeguard_male">
	</g>
	<g id="lifeguard_female">
	</g>
	<g id="lighthouse">
	</g>
	<g id="hammok">
	</g>
	<g id="beach_chair__x26__umbrella">
	</g>
	<g id="lifeguard">
	</g>
	<g id="suncream">
	</g>
	<g id="starfish">
	</g>
	<g id="beach_bar">
	</g>
	<g id="bucket__x26__shovel">
	</g>
	<g id="palm_tree">
	</g>
	<g id="shark_warning">
	</g>
	<g id="surfboard">
	</g>
	<g id="swimming_trunks">
	</g>
	<g id="coconut_drink">
	</g>
	<g id="beach_chair__x26__towel">
	</g>
	<g id="coconut_tree">
	</g>
</g>
</svg>
