<?xml version="1.0" encoding="utf-8"?>
<!-- Generator: Adobe Illustrator 17.0.0, SVG Export Plug-In . SVG Version: 6.00 Build 0)  -->
<!DOCTYPE svg PUBLIC "-//W3C//DTD SVG 1.1//EN" "http://www.w3.org/Graphics/SVG/1.1/DTD/svg11.dtd">
<svg version="1.1" xmlns="http://www.w3.org/2000/svg" xmlns:xlink="http://www.w3.org/1999/xlink" x="0px" y="0px" width="512px"
	 height="512px" viewBox="0 0 512 512" enable-background="new 0 0 512 512" xml:space="preserve">
<g id="famous_places">
	<g id="Pyramid">
	</g>
	<g id="Colloseum">
	</g>
	<g id="Mount_Fuji">
	</g>
	<g id="Great_Wall_of_China">
	</g>
	<g id="Stonehenge">
	</g>
	<g id="Golden_Gate_Bridge">
	</g>
	<g id="Christ_the_Redeemer">
	</g>
	<g id="Statue_of_Liberty">
	</g>
	<g id="Taj_Mahal">
	</g>
	<g id="Eiffel_tower">
	</g>
</g>
<g id="camping">
	<g id="mug">
	</g>
	<g id="hook">
	</g>
	<g id="Swiss_knife">
	</g>
	<g id="flashlight">
	</g>
	<g id="lantern">
	</g>
	<g id="campfire">
	</g>
	<g id="beanie">
	</g>
	<g id="rope">
	</g>
	<g id="boot">
	</g>
	<g id="axe">
	</g>
</g>
<g id="hotel_1_">
	<g id="towel">
	</g>
	<g id="phone">
	</g>
	<g id="pool">
	</g>
	<g id="food_service">
	</g>
	<g id="wifi">
	</g>
	<g id="bed">
	</g>
	<g id="door">
	</g>
	<g id="key">
	</g>
	<g id="do_not_disturb">
	</g>
	<g id="bell">
	</g>
</g>
<g id="winter">
	<g id="snowman">
	</g>
	<g id="snow_mountain">
	</g>
	<g id="reindeer">
	</g>
	<g id="winter_tree">
	</g>
	<g id="lift">
	</g>
	<g id="beanie__x26__google">
	</g>
	<g id="ski">
	</g>
	<g id="snowboard">
	</g>
	<g id="snowboading">
	</g>
	<g id="skiing">
	</g>
</g>
<g id="general_travelling">
	<g id="dinner_set">
	</g>
	<g id="polaroid">
	</g>
	<g id="camera">
	</g>
	<g id="calendar">
	</g>
	<g id="calendar_single">
	</g>
	<g id="shopping_bag">
	</g>
	<g id="watch">
	</g>
	<g id="alarm_clock">
	</g>
	<g id="credit_card">
	</g>
	<g id="road_sign">
	</g>
	<g id="hotel">
	</g>
	<g id="money">
	</g>
	<g id="sunglass">
	</g>
	<g id="cocktail">
	</g>
	<g id="compass">
	</g>
	<g id="tent">
	</g>
	<g id="backpack">
	</g>
	<g id="map">
	</g>
	<g id="ticket_1_">
	</g>
	<g id="passport">
	</g>
	<g id="luggage">
	</g>
	<g id="globe">
	</g>
	<g id="suitcase">
	</g>
</g>
<g id="vehicles">
	<g id="trailer">
	</g>
	<g id="airplane">
	</g>
	<g id="yatch">
	</g>
	<g id="taxi">
	</g>
	<g id="hot_air_ballon">
	</g>
	<g id="bus">
	</g>
	<g id="train">
	</g>
</g>
<g id="summer">
	<g id="postcard">
	</g>
	<g id="bikini">
	</g>
	<g id="flipflop">
	</g>
	<g id="plane_around_the_globe">
	</g>
	<g id="binocular">
	</g>
	<g id="beach_table">
	</g>
	<g id="sun_hat">
	</g>
	<g id="beach_bag">
	</g>
	<g id="sea__x26__wave">
	</g>
	<g id="beach">
	</g>
	<g id="beach_ball">
	</g>
	<g id="jetski">
	</g>
	<g id="sandcastle">
	</g>
	<g id="lifeguard_male">
	</g>
	<g id="lifeguard_female">
	</g>
	<g id="lighthouse">
	</g>
	<g id="hammok">
	</g>
	<g id="beach_chair__x26__umbrella">
	</g>
	<g id="lifeguard">
	</g>
	<g id="suncream">
	</g>
	<g id="starfish">
	</g>
	<g id="beach_bar">
	</g>
	<g id="bucket__x26__shovel">
	</g>
	<g id="palm_tree">
	</g>
	<g id="shark_warning">
	</g>
	<g id="surfboard">
	</g>
	<g id="swimming_trunks">
	</g>
	<g id="coconut_drink">
	</g>
	<g id="beach_chair__x26__towel">
		<g>
			<g>
				<g>
					<path fill="#8A532D" d="M54.038,389.395c-2.527,0-5.084-0.666-7.405-2.066c-6.793-4.098-8.98-12.926-4.882-19.72l45.571-75.558
						c4.097-6.794,12.927-8.979,19.719-4.883c6.793,4.098,8.98,12.926,4.882,19.72l-45.571,75.558
						C63.654,386.92,58.906,389.395,54.038,389.395z"/>
				</g>
				<path fill="#6E4224" d="M68.134,323.867h33.549l10.24-16.978c2.22-3.68,2.582-7.953,1.38-11.752H85.461L68.134,323.867z"/>
				<g>
					<path fill="#8A532D" d="M383.96,389.395c-4.868,0-9.617-2.475-12.314-6.948l-45.571-75.558
						c-4.098-6.793-1.912-15.622,4.882-19.72c6.791-4.094,15.622-1.912,19.719,4.883l45.571,75.558
						c4.098,6.793,1.912,15.622-4.882,19.72C389.045,388.729,386.486,389.395,383.96,389.395z"/>
				</g>
				<path fill="#6E4224" d="M350.676,292.052c-1.531-2.539-3.724-4.433-6.225-5.597l-7.002,8.683h-12.754
					c-1.202,3.799-0.84,8.072,1.38,11.752l10.24,16.978h8.005c4.344,0,8.455-1.966,11.182-5.348l6.372-7.901L350.676,292.052z"/>
				<g>
					<path fill="#8A532D" d="M344.319,313H67.921c-7.933,0-14.365-6.067-14.365-14s6.432-14,14.365-14H337.45l109.616-135.819
						c4.98-6.175,14.024-7.087,20.199-2.108c6.176,4.98,7.146,14.052,2.165,20.227L355.501,308.117
						C352.774,311.5,348.663,313,344.319,313z"/>
				</g>
				<path fill="#E3E3E3" d="M329.962,271.53v-11.217c0-7.939-6.436-14.375-14.375-14.375H78.333
					c-7.939,0-14.375,6.436-14.375,14.375v11.217c0,0.615,0.051,1.217,0.126,1.812h265.752
					C329.911,272.747,329.962,272.145,329.962,271.53z"/>
				<path fill="#A6A6A6" d="M64.084,273.342c0.893,7.082,6.925,12.564,14.249,12.564h237.254c7.324,0,13.356-5.482,14.249-12.564
					H64.084z"/>
				<g>
					<path fill="#E3E3E3" d="M434.526,125.836c-6.155-5.015-15.21-4.09-20.225,2.065l-87.053,106.85
						c-5.015,6.155-4.09,15.21,2.065,20.225l8.696,7.085c0.176,0.144,0.363,0.265,0.544,0.399l104.13-129.977L434.526,125.836z"/>
					<path fill="#A6A6A6" d="M443.222,132.921l-0.538-0.438l-104.13,129.977c6.135,4.541,14.81,3.514,19.681-2.464l87.053-106.85
						C450.302,146.99,449.378,137.935,443.222,132.921z"/>
				</g>
			</g>
			<path fill="#ADD660" d="M225.916,347.361H90.923V246.878c0-10.158,8.234-18.392,18.392-18.392h98.209
				c10.158,0,18.392,8.234,18.392,18.392V347.361z"/>
			<rect x="90.923" y="300.372" fill="#FFD161" width="134.993" height="21.795"/>
		</g>
	</g>
	<g id="coconut_tree">
	</g>
</g>
</svg>
