<?xml version="1.0" encoding="utf-8"?>
<!-- Generator: Adobe Illustrator 17.0.0, SVG Export Plug-In . SVG Version: 6.00 Build 0)  -->
<!DOCTYPE svg PUBLIC "-//W3C//DTD SVG 1.1//EN" "http://www.w3.org/Graphics/SVG/1.1/DTD/svg11.dtd">
<svg version="1.1" xmlns="http://www.w3.org/2000/svg" xmlns:xlink="http://www.w3.org/1999/xlink" x="0px" y="0px" width="512px"
	 height="512px" viewBox="0 0 512 512" enable-background="new 0 0 512 512" xml:space="preserve">
<g id="famous_places">
	<g id="Pyramid">
	</g>
	<g id="Colloseum">
	</g>
	<g id="Mount_Fuji">
	</g>
	<g id="Great_Wall_of_China">
	</g>
	<g id="Stonehenge">
	</g>
	<g id="Golden_Gate_Bridge">
	</g>
	<g id="Christ_the_Redeemer">
	</g>
	<g id="Statue_of_Liberty">
	</g>
	<g id="Taj_Mahal">
	</g>
	<g id="Eiffel_tower">
	</g>
</g>
<g id="camping">
	<g id="mug">
	</g>
	<g id="hook">
	</g>
	<g id="Swiss_knife">
	</g>
	<g id="flashlight">
	</g>
	<g id="lantern">
	</g>
	<g id="campfire">
	</g>
	<g id="beanie">
	</g>
	<g id="rope">
	</g>
	<g id="boot">
	</g>
	<g id="axe">
	</g>
</g>
<g id="hotel_1_">
	<g id="towel">
	</g>
	<g id="phone">
	</g>
	<g id="pool">
	</g>
	<g id="food_service">
	</g>
	<g id="wifi">
	</g>
	<g id="bed">
	</g>
	<g id="door">
	</g>
	<g id="key">
	</g>
	<g id="do_not_disturb">
	</g>
	<g id="bell">
	</g>
</g>
<g id="winter">
	<g id="snowman">
	</g>
	<g id="snow_mountain">
	</g>
	<g id="reindeer">
	</g>
	<g id="winter_tree">
	</g>
	<g id="lift">
	</g>
	<g id="beanie__x26__google">
	</g>
	<g id="ski">
	</g>
	<g id="snowboard">
	</g>
	<g id="snowboading">
	</g>
	<g id="skiing">
	</g>
</g>
<g id="general_travelling">
	<g id="dinner_set">
	</g>
	<g id="polaroid">
	</g>
	<g id="camera">
	</g>
	<g id="calendar">
	</g>
	<g id="calendar_single">
	</g>
	<g id="shopping_bag">
	</g>
	<g id="watch">
	</g>
	<g id="alarm_clock">
	</g>
	<g id="credit_card">
	</g>
	<g id="road_sign">
	</g>
	<g id="hotel">
	</g>
	<g id="money">
	</g>
	<g id="sunglass">
	</g>
	<g id="cocktail">
	</g>
	<g id="compass">
	</g>
	<g id="tent">
	</g>
	<g id="backpack">
	</g>
	<g id="map">
	</g>
	<g id="ticket_1_">
	</g>
	<g id="passport">
	</g>
	<g id="luggage">
	</g>
	<g id="globe">
	</g>
	<g id="suitcase">
	</g>
</g>
<g id="vehicles">
	<g id="trailer">
	</g>
	<g id="airplane">
	</g>
	<g id="yatch">
	</g>
	<g id="taxi">
	</g>
	<g id="hot_air_ballon">
	</g>
	<g id="bus">
	</g>
	<g id="train">
	</g>
</g>
<g id="summer">
	<g id="postcard">
	</g>
	<g id="bikini">
	</g>
	<g id="flipflop">
	</g>
	<g id="plane_around_the_globe">
	</g>
	<g id="binocular">
	</g>
	<g id="beach_table">
	</g>
	<g id="sun_hat">
	</g>
	<g id="beach_bag">
	</g>
	<g id="sea__x26__wave">
		<rect y="0" fill="#2D415A" width="512" height="450.956"/>
		<path fill="#E3E3E3" d="M406.081,59.216c-3.795,0-7.479,0.475-11,1.358c19.58,4.91,34.081,22.621,34.081,43.724
			c0,21.103-14.502,38.813-34.081,43.724c3.521,0.883,7.205,1.358,11,1.358c24.898,0,45.081-20.184,45.081-45.081
			C451.163,79.399,430.979,59.216,406.081,59.216z"/>
		<g>
			<ellipse fill="#FF6650" cx="145.164" cy="195.401" rx="4.812" ry="5.044"/>
			<g>
				<path fill="#2FB49F" d="M164.517,223.204c0,11.204-8.665,11.881-19.353,11.881c-10.688,0-19.353-0.676-19.353-11.881
					s8.665-20.287,19.353-20.287C155.852,202.917,164.517,212,164.517,223.204z"/>
				<polygon fill="#E3E3E3" points="122.982,361.278 167.346,361.278 166.661,348.211 123.667,348.211 				"/>
				<polygon fill="#A6A6A6" points="166.803,350.919 123.525,350.919 122.982,361.427 167.346,361.427 				"/>
				<polygon fill="#E3E3E3" points="124.424,333.77 165.904,333.77 165.201,320.359 125.127,320.359 				"/>
				<polygon fill="#E3E3E3" points="125.883,305.918 164.444,305.918 163.759,292.851 126.568,292.851 				"/>
				<polygon fill="#E3E3E3" points="128.028,265 127.325,278.41 163.002,278.41 162.3,265 				"/>
				<polygon fill="#FF6650" points="161.543,249.937 128.785,249.937 128.028,264.937 162.3,264.937 				"/>
				<polygon fill="#FF6650" points="126.568,292.937 163.759,292.937 163.002,277.937 127.325,277.937 				"/>
				<polygon fill="#FF6650" points="125.127,319.937 165.201,319.937 164.444,305.937 125.883,305.937 				"/>
				<polygon fill="#FF6650" points="123.667,347.937 166.661,347.937 165.904,333.937 124.424,333.937 				"/>
				<polygon fill="#FF6650" points="109.104,383.937 181.224,383.937 179.665,354.937 110.663,354.937 				"/>
				<polygon fill="#CF5341" points="128.389,258.123 161.939,258.123 161.579,251.246 128.749,251.246 				"/>
				<rect x="125.496" y="221.828" fill="#FFD161" width="39.336" height="28.729"/>
				<path fill="#FF6650" d="M167.865,254.684h-45.403c-1.541,0-2.79-1.249-2.79-2.79v-1.297c0-1.541,1.249-2.79,2.79-2.79h45.403
					c1.541,0,2.79,1.249,2.79,2.79v1.297C170.655,253.435,169.406,254.684,167.865,254.684z"/>
				<path fill="#FF6650" d="M167.865,225.267h-45.403c-1.541,0-2.79-1.249-2.79-2.79v-1.297c0-1.541,1.249-2.79,2.79-2.79h45.403
					c1.541,0,2.79,1.249,2.79,2.79v1.297C170.655,224.018,169.406,225.267,167.865,225.267z"/>
			</g>
			<path fill="#4A4A4A" d="M139.146,292.915v-3.629c0-3.443,2.663-6.234,5.947-6.234h0.142c3.285,0,5.947,2.791,5.947,6.234v3.629"
				/>
			<path fill="#4A4A4A" d="M138.302,320.236v-4.138c0-3.926,3.036-7.108,6.781-7.108h0.162c3.745,0,6.781,3.183,6.781,7.108v4.138"
				/>
			<path fill="#4A4A4A" d="M137.122,348.397v-4.85c0-4.601,3.558-8.331,7.947-8.331h0.19c4.389,0,7.947,3.73,7.947,8.331v4.85"/>
			<path fill="#4A4A4A" d="M133.536,383.284v-7.012c0-6.653,5.145-12.046,11.491-12.046h0.274c6.346,0,11.491,5.393,11.491,12.046
				v7.012"/>
			<path fill="#E3E3E3" d="M150.168,203.757H140.16c-1.119,0-2.026-0.907-2.026-2.026v-0.942c0-1.119,0.907-2.026,2.026-2.026
				h10.008c1.119,0,2.026,0.907,2.026,2.026v0.942C152.194,202.85,151.287,203.757,150.168,203.757z"/>
			<path fill="#FFD161" d="M209.979,394.241c-1.621-1.05-39.968-25.709-64.46-25.709c-24.481,0-63.503,24.649-65.152,25.698
				c-0.94,0.598-1.377,1.773-1.072,2.859c0.305,1.086,1.279,1.849,2.387,1.849h126.967c1.104,0,2.075-0.758,2.384-1.839
				C211.34,396.017,210.91,394.845,209.979,394.241z"/>
		</g>
		<path fill="#4E709C" d="M330.847,153.698L330.847,153.698c0,5.493,4.453,9.945,9.945,9.945h96.507
			c5.493,0,9.945-4.453,9.945-9.945v0c0-5.493-4.453-9.945-9.945-9.945h-22.837c-5.493,0-9.945-4.453-9.945-9.945v0
			c0-5.493-4.453-9.945-9.945-9.945H289.96c-5.493,0-9.945,4.453-9.945,9.945v0c0,5.493,4.453,9.945,9.945,9.945h30.941
			C326.394,143.752,330.847,148.205,330.847,153.698z"/>
		<polygon fill="#E3E3E3" points="512,484.547 512,474.547 512,474.536 512,484.535 		"/>
		<polygon fill="#E3E3E3" points="512,445.434 512,435.434 512,435.424 512,445.423 		"/>
		<polygon fill="#E3E3E3" points="512,406.322 512,396.322 512,396.312 512,406.311 		"/>
		<polygon fill="#E3E3E3" points="512,367.211 512,357.211 512,357.2 512,367.199 		"/>
		<path fill="#4E709C" d="M176.098,49.086L176.098,49.086c0-7.456-6.044-13.5-13.5-13.5h-131c-7.456,0-13.5,6.044-13.5,13.5v0
			c0,7.456,6.044,13.5,13.5,13.5h31c7.456,0,13.5,6.044,13.5,13.5v0c0,7.456,6.044,13.5,13.5,13.5h142c7.456,0,13.5-6.044,13.5-13.5
			v0c0-7.456-6.044-13.5-13.5-13.5h-42C182.143,62.586,176.098,56.542,176.098,49.086z"/>
		<g>
			<g>
				<path fill="#E3E3E3" d="M396.968,42.048c-0.926,0-1.838-0.426-2.425-1.23l0,0c-0.124-0.169-12.569-16.904-26.316-16.162
					c-7.148,0.387-13.688,5.54-19.447,15.319c-0.059,0.158-0.13,0.312-0.216,0.461c-0.536,0.929-1.526,1.5-2.599,1.5
					s-2.089-0.572-2.625-1.5c-0.062-0.107-0.116-0.216-0.164-0.328c-5.781-9.873-12.354-15.075-19.54-15.466
					c-13.729-0.755-26.179,15.952-26.303,16.121c-0.979,1.335-2.858,1.625-4.191,0.648c-1.336-0.978-1.629-2.852-0.652-4.189
					c0.581-0.796,14.416-19.47,31.451-18.573c8.263,0.442,15.646,5.352,21.998,14.612c6.349-9.254,13.728-14.159,21.985-14.598
					c17.017-0.92,30.883,17.818,31.465,18.616c0.977,1.339,0.683,3.215-0.656,4.191C398.199,41.861,397.58,42.048,396.968,42.048z"
					/>
			</g>
		</g>
		<g>
			<g>
				<path fill="#E3E3E3" d="M87.94,154.163c-0.917,0-1.821-0.418-2.41-1.211c-1.609-2.151-6.858-7.647-11.954-7.391
					c-3.002,0.161-5.826,2.379-8.396,6.595c-0.04,0.09-0.085,0.179-0.135,0.266c-0.533,0.937-1.528,1.515-2.606,1.515
					s-2.086-0.579-2.62-1.515c-0.032-0.058-0.063-0.116-0.092-0.175c-2.594-4.289-5.447-6.548-8.484-6.715
					c-5.078-0.266-10.327,5.188-11.929,7.316c-0.996,1.323-2.873,1.592-4.198,0.6c-1.324-0.992-1.597-2.866-0.607-4.192
					c0.312-0.417,7.734-10.209,17.037-9.716c4.064,0.215,7.711,2.273,10.881,6.131c3.163-3.846,6.802-5.895,10.855-6.103
					c9.353-0.501,16.756,9.388,17.066,9.808c0.987,1.331,0.709,3.209-0.622,4.197C89.188,153.971,88.562,154.163,87.94,154.163z"/>
			</g>
		</g>
		<g>
			<g>
				<path fill="#E3E3E3" d="M253.825,123.958c-0.934,0-1.854-0.434-2.439-1.25c-0.143-0.196-8.226-11.21-17.152-11.21
					c-0.195,0-0.389,0.005-0.583,0.016c-4.711,0.257-9.073,3.795-12.972,10.519c-0.056,0.142-0.123,0.28-0.201,0.415
					c-0.537,0.922-1.524,1.49-2.592,1.49s-2.073-0.567-2.61-1.49c-0.059-0.099-0.11-0.201-0.155-0.304
					c-3.92-6.804-8.31-10.38-13.053-10.633c-7.675-0.411-15.387,7.936-17.718,11.186c-0.966,1.345-2.838,1.655-4.187,0.688
					c-1.346-0.966-1.654-2.84-0.688-4.187c0.42-0.585,10.472-14.331,22.912-13.68c5.809,0.31,11.001,3.607,15.48,9.817
					c4.479-6.209,9.671-9.505,15.478-9.814c12.492-0.654,22.495,13.102,22.915,13.688c0.966,1.347,0.657,3.221-0.689,4.187
					C255.041,123.775,254.43,123.958,253.825,123.958z"/>
			</g>
		</g>
		<path fill="#71A3E3" d="M0,396.312c0,0,145.595-30.955,221.613,3.727S373.513,342.402,512,380.521v131.416H0V396.312z"/>
		<path fill="#5C84B8" d="M512,421.312c0,0-145.595-30.955-221.613,3.727S138,367.402,0,405.521v107.416h512V421.312z"/>
		<path fill="#4E709C" d="M0,446.486c0,0,145.595-17.656,221.613,2.126c76.018,19.782,151.901-32.876,290.387-11.133v75.459H0
			V446.486z"/>
		<path fill="#FFD161" d="M512,457.137c0,0-215.995,4.604-296.741,55.8H512V457.137z"/>
	</g>
	<g id="beach">
	</g>
	<g id="beach_ball">
	</g>
	<g id="jetski">
	</g>
	<g id="sandcastle">
	</g>
	<g id="lifeguard_male">
	</g>
	<g id="lifeguard_female">
	</g>
	<g id="lighthouse">
	</g>
	<g id="hammok">
	</g>
	<g id="beach_chair__x26__umbrella">
	</g>
	<g id="lifeguard">
	</g>
	<g id="suncream">
	</g>
	<g id="starfish">
	</g>
	<g id="beach_bar">
	</g>
	<g id="bucket__x26__shovel">
	</g>
	<g id="palm_tree">
	</g>
	<g id="shark_warning">
	</g>
	<g id="surfboard">
	</g>
	<g id="swimming_trunks">
	</g>
	<g id="coconut_drink">
	</g>
	<g id="beach_chair__x26__towel">
	</g>
	<g id="coconut_tree">
	</g>
</g>
</svg>
