<?xml version="1.0" encoding="utf-8"?>
<!-- Generator: Adobe Illustrator 17.0.0, SVG Export Plug-In . SVG Version: 6.00 Build 0)  -->
<!DOCTYPE svg PUBLIC "-//W3C//DTD SVG 1.1//EN" "http://www.w3.org/Graphics/SVG/1.1/DTD/svg11.dtd">
<svg version="1.1" xmlns="http://www.w3.org/2000/svg" xmlns:xlink="http://www.w3.org/1999/xlink" x="0px" y="0px" width="512px"
	 height="512px" viewBox="0 0 512 512" enable-background="new 0 0 512 512" xml:space="preserve">
<g id="famous_places">
	<g id="Pyramid">
	</g>
	<g id="Colloseum">
	</g>
	<g id="Mount_Fuji">
	</g>
	<g id="Great_Wall_of_China">
	</g>
	<g id="Stonehenge">
	</g>
	<g id="Golden_Gate_Bridge">
	</g>
	<g id="Christ_the_Redeemer">
	</g>
	<g id="Statue_of_Liberty">
	</g>
	<g id="Taj_Mahal">
	</g>
	<g id="Eiffel_tower">
	</g>
</g>
<g id="camping">
	<g id="mug">
	</g>
	<g id="hook">
	</g>
	<g id="Swiss_knife">
	</g>
	<g id="flashlight">
	</g>
	<g id="lantern">
	</g>
	<g id="campfire">
	</g>
	<g id="beanie">
	</g>
	<g id="rope">
	</g>
	<g id="boot">
	</g>
	<g id="axe">
	</g>
</g>
<g id="hotel_1_">
	<g id="towel">
	</g>
	<g id="phone">
	</g>
	<g id="pool">
	</g>
	<g id="food_service">
	</g>
	<g id="wifi">
	</g>
	<g id="bed">
	</g>
	<g id="door">
	</g>
	<g id="key">
	</g>
	<g id="do_not_disturb">
	</g>
	<g id="bell">
	</g>
</g>
<g id="winter">
	<g id="snowman">
	</g>
	<g id="snow_mountain">
	</g>
	<g id="reindeer">
	</g>
	<g id="winter_tree">
	</g>
	<g id="lift">
	</g>
	<g id="beanie__x26__google">
	</g>
	<g id="ski">
	</g>
	<g id="snowboard">
	</g>
	<g id="snowboading">
	</g>
	<g id="skiing">
	</g>
</g>
<g id="general_travelling">
	<g id="dinner_set">
	</g>
	<g id="polaroid">
	</g>
	<g id="camera">
	</g>
	<g id="calendar">
	</g>
	<g id="calendar_single">
	</g>
	<g id="shopping_bag">
	</g>
	<g id="watch">
	</g>
	<g id="alarm_clock">
	</g>
	<g id="credit_card">
	</g>
	<g id="road_sign">
	</g>
	<g id="hotel">
	</g>
	<g id="money">
	</g>
	<g id="sunglass">
	</g>
	<g id="cocktail">
	</g>
	<g id="compass">
	</g>
	<g id="tent">
	</g>
	<g id="backpack">
	</g>
	<g id="map">
	</g>
	<g id="ticket_1_">
	</g>
	<g id="passport">
	</g>
	<g id="luggage">
	</g>
	<g id="globe">
	</g>
	<g id="suitcase">
	</g>
</g>
<g id="vehicles">
	<g id="trailer">
	</g>
	<g id="airplane">
	</g>
	<g id="yatch">
	</g>
	<g id="taxi">
	</g>
	<g id="hot_air_ballon">
	</g>
	<g id="bus">
	</g>
	<g id="train">
		<path fill="#8F8F8F" d="M465.802,375.5H37.865c-12.349,0-22.562,9.125-24.275,21h476.487
			C488.364,384.625,478.151,375.5,465.802,375.5z"/>
		<circle fill="#4A4A4A" cx="385.5" cy="363.333" r="20.167"/>
		<g>
			<circle fill="#4A4A4A" cx="97.5" cy="363.333" r="20.167"/>
			<circle fill="#4A4A4A" cx="155.1" cy="363.333" r="20.167"/>
			<circle fill="#4A4A4A" cx="212.7" cy="363.333" r="20.167"/>
			<circle fill="#4A4A4A" cx="270.3" cy="363.333" r="20.167"/>
			<circle fill="#4A4A4A" cx="327.9" cy="363.333" r="20.167"/>
			<circle fill="#4A4A4A" cx="385.5" cy="363.333" r="20.167"/>
		</g>
		<circle fill="#4A4A4A" cx="456.5" cy="363.333" r="20.167"/>
		<path fill="#666666" d="M13.59,396.5c-0.166,1.154-0.257,2.332-0.257,3.531v17c0,13.548,10.983,24.469,24.531,24.469h427.937
			c13.548,0,24.531-10.92,24.531-24.469v-17c0-1.199-0.09-2.378-0.257-3.531H13.59z"/>
		<path fill="#E3E3E3" d="M101.264,188.5c-14.957,0-28.931,7.452-37.266,19.872l-53.053,79.062
			c-4.963,7.395-7.612,16.1-7.612,25.006c0,13.911,6.452,27.036,17.466,35.534l5.421,4.181l-1.714-1.322h375.827V188.5H101.264z"/>
		<path fill="#6FEBE7" d="M10.946,287.434c-0.236,0.352-0.462,0.709-0.687,1.066h30.139c14.876,0,26.935-12.059,26.935-26.936
			v-57.556c-1.191,1.376-2.306,2.831-3.335,4.363L10.946,287.434z"/>
		<path fill="#ADD660" d="M63.999,208.606L54.161,223.5h346.172v-35H101.264C86.307,188.5,72.333,196.186,63.999,208.606z"/>
		<path fill="#2D415A" d="M67.333,204.009c-1.191,1.376-2.306,2.831-3.335,4.363L49.15,230.5h18.183v31.064
			c0,14.876-12.059,26.936-26.935,26.936H10.259c-1.981,3.141-3.554,6.501-4.698,10h44.837c14.876,0,26.935-12.059,26.935-26.936
			v-76.136C73.626,197.766,70.246,200.642,67.333,204.009z"/>
		<rect x="136.969" y="206" fill="#2D415A" width="64.864" height="137.026"/>
		<rect x="201.833" y="206" fill="#2D415A" width="180.5" height="82.5"/>
		<g>
			<rect x="209.333" y="214.5" fill="#6FEBE7" width="165" height="41"/>
			<rect x="145.333" y="214.5" fill="#6FEBE7" width="48" height="41"/>
			<rect x="209.333" y="255.5" fill="#54B3AF" width="165" height="25"/>
			<rect x="145.333" y="255.5" fill="#54B3AF" width="48" height="80"/>
		</g>
		<path fill="#54B3AF" d="M32.332,255.5l-21.387,31.903c-0.236,0.352-0.462,0.74-0.687,1.097h30.139
			c14.876,0,26.935-12.059,26.935-26.936V255.5H32.332z"/>
		<g>
			<path fill="#A3A3A3" d="M26.22,352.156c7.854,6.058,17.493,9.344,27.412,9.344h346.701v-10.667H24.506L26.22,352.156z"/>
		</g>
		<rect x="400.333" y="188.5" fill="#A3A3A3" width="11" height="173"/>
		<rect x="411.333" y="195.428" fill="#4A4A4A" width="18.333" height="166.072"/>
		<rect x="429.667" y="188.5" fill="#E3E3E3" width="60.41" height="173"/>
		<rect x="429.667" y="350.833" fill="#A3A3A3" width="60.41" height="10.667"/>
		<rect x="429.667" y="188.5" fill="#ADD660" width="60.41" height="35"/>
	</g>
</g>
<g id="summer">
	<g id="postcard">
	</g>
	<g id="bikini">
	</g>
	<g id="flipflop">
	</g>
	<g id="plane_around_the_globe">
	</g>
	<g id="binocular">
	</g>
	<g id="beach_table">
	</g>
	<g id="sun_hat">
	</g>
	<g id="beach_bag">
	</g>
	<g id="sea__x26__wave">
	</g>
	<g id="beach">
	</g>
	<g id="beach_ball">
	</g>
	<g id="jetski">
	</g>
	<g id="sandcastle">
	</g>
	<g id="lifeguard_male">
	</g>
	<g id="lifeguard_female">
	</g>
	<g id="lighthouse">
	</g>
	<g id="hammok">
	</g>
	<g id="beach_chair__x26__umbrella">
	</g>
	<g id="lifeguard">
	</g>
	<g id="suncream">
	</g>
	<g id="starfish">
	</g>
	<g id="beach_bar">
	</g>
	<g id="bucket__x26__shovel">
	</g>
	<g id="palm_tree">
	</g>
	<g id="shark_warning">
	</g>
	<g id="surfboard">
	</g>
	<g id="swimming_trunks">
	</g>
	<g id="coconut_drink">
	</g>
	<g id="beach_chair__x26__towel">
	</g>
	<g id="coconut_tree">
	</g>
</g>
</svg>
