<?xml version="1.0" encoding="utf-8"?>
<!-- Generator: Adobe Illustrator 17.0.0, SVG Export Plug-In . SVG Version: 6.00 Build 0)  -->
<!DOCTYPE svg PUBLIC "-//W3C//DTD SVG 1.1//EN" "http://www.w3.org/Graphics/SVG/1.1/DTD/svg11.dtd">
<svg version="1.1" xmlns="http://www.w3.org/2000/svg" xmlns:xlink="http://www.w3.org/1999/xlink" x="0px" y="0px" width="512px"
	 height="512px" viewBox="0 0 512 512" enable-background="new 0 0 512 512" xml:space="preserve">
<g id="famous_places">
	<g id="Pyramid">
	</g>
	<g id="Colloseum">
	</g>
	<g id="Mount_Fuji">
	</g>
	<g id="Great_Wall_of_China">
	</g>
	<g id="Stonehenge">
	</g>
	<g id="Golden_Gate_Bridge">
	</g>
	<g id="Christ_the_Redeemer">
	</g>
	<g id="Statue_of_Liberty">
	</g>
	<g id="Taj_Mahal">
	</g>
	<g id="Eiffel_tower">
	</g>
</g>
<g id="camping">
	<g id="mug">
	</g>
	<g id="hook">
	</g>
	<g id="Swiss_knife">
	</g>
	<g id="flashlight">
	</g>
	<g id="lantern">
	</g>
	<g id="campfire">
	</g>
	<g id="beanie">
	</g>
	<g id="rope">
	</g>
	<g id="boot">
	</g>
	<g id="axe">
	</g>
</g>
<g id="hotel_1_">
	<g id="towel">
	</g>
	<g id="phone">
	</g>
	<g id="pool">
	</g>
	<g id="food_service">
	</g>
	<g id="wifi">
	</g>
	<g id="bed">
	</g>
	<g id="door">
	</g>
	<g id="key">
	</g>
	<g id="do_not_disturb">
	</g>
	<g id="bell">
	</g>
</g>
<g id="winter">
	<g id="snowman">
	</g>
	<g id="snow_mountain">
	</g>
	<g id="reindeer">
	</g>
	<g id="winter_tree">
	</g>
	<g id="lift">
	</g>
	<g id="beanie__x26__google">
	</g>
	<g id="ski">
	</g>
	<g id="snowboard">
	</g>
	<g id="snowboading">
	</g>
	<g id="skiing">
	</g>
</g>
<g id="general_travelling">
	<g id="dinner_set">
	</g>
	<g id="polaroid">
	</g>
	<g id="camera">
	</g>
	<g id="calendar">
	</g>
	<g id="calendar_single">
	</g>
	<g id="shopping_bag">
	</g>
	<g id="watch">
	</g>
	<g id="alarm_clock">
	</g>
	<g id="credit_card">
	</g>
	<g id="road_sign">
	</g>
	<g id="hotel">
	</g>
	<g id="money">
	</g>
	<g id="sunglass">
	</g>
	<g id="cocktail">
	</g>
	<g id="compass">
	</g>
	<g id="tent">
	</g>
	<g id="backpack">
	</g>
	<g id="map">
	</g>
	<g id="ticket_1_">
	</g>
	<g id="passport">
		<g>
			<path fill="#405C80" d="M357.75,435.219h-203.5c-9.527,0-17.25-7.723-17.25-17.25V103.178c0-9.527,7.723-17.25,17.25-17.25
				l203.5-25.593c9.527,0,17.25,7.723,17.25,17.25v340.384C375,427.496,367.277,435.219,357.75,435.219z"/>
			<path fill="#FFFFFF" d="M161.583,94.023c-9.527,0-17.25,7.723-17.25,17.25v314.792c0,2.467,0.527,4.808,1.46,6.93
				c2.5,1.411,5.382,2.225,8.457,2.225l210.833-1.197V71.427L161.583,94.023z"/>
			<path fill="#2D415A" d="M357.75,451.665h-203.5c-9.527,0-17.25-7.723-17.25-17.25V119.623c0-9.527,7.723-17.25,17.25-17.25h203.5
				c9.527,0,17.25,7.723,17.25,17.25v314.792C375,443.942,367.277,451.665,357.75,451.665z"/>
			<g>
				<circle fill="none" stroke="#FFFFFF" stroke-width="5" stroke-miterlimit="10" cx="256" cy="215.558" r="64.315"/>
				<line fill="none" stroke="#FFFFFF" stroke-width="5" stroke-miterlimit="10" x1="255.5" y1="151" x2="255.5" y2="280"/>
				<path fill="none" stroke="#FFFFFF" stroke-width="5" stroke-miterlimit="10" d="M240.333,277.948c0,0-48.018-60.818,0-124.78"/>
				<circle fill="none" stroke="#FFFFFF" stroke-width="5" stroke-miterlimit="10" cx="256" cy="215.558" r="64.315"/>
				<path fill="none" stroke="#FFFFFF" stroke-width="5" stroke-miterlimit="10" d="M271.667,277.948c0,0,48.018-60.818,0-124.78"/>
				<path fill="none" stroke="#FFFFFF" stroke-width="5" stroke-miterlimit="10" d="M192.095,208.293
					c0,0,8.887,24.879,63.905,24.879s63.905-24.876,63.905-24.876"/>
			</g>
			<g>
				<g>
					<path fill="#FFFFFF" d="M168.967,375.394h5.278c3.026,0,5.067,0.132,6.125,0.396c1.513,0.372,2.75,1.138,3.711,2.297
						c0.96,1.158,1.44,2.614,1.44,4.368c0,1.765-0.468,3.222-1.405,4.368c-0.937,1.146-2.228,1.918-3.872,2.314
						c-1.201,0.288-3.447,0.433-6.737,0.433h-1.892v12.321h-2.648V375.394z M171.615,377.988v8.989l4.485,0.054
						c1.813,0,3.141-0.165,3.981-0.494c0.84-0.33,1.501-0.863,1.981-1.601c0.479-0.736,0.72-1.561,0.72-2.472
						c0-0.887-0.24-1.698-0.72-2.436c-0.48-0.737-1.114-1.262-1.9-1.573c-0.787-0.312-2.075-0.468-3.864-0.468H171.615z"/>
					<path fill="#FFFFFF" d="M201.645,375.394l12.357,26.498h-2.86l-4.168-8.719h-11.415l-4.128,8.719h-2.954l12.52-26.498H201.645z
						 M201.31,381.024l-4.54,9.592h9.06L201.31,381.024z"/>
					<path fill="#FFFFFF" d="M215.37,396.957l2.252-1.352c1.585,2.919,3.416,4.378,5.494,4.378c0.889,0,1.723-0.207,2.504-0.622
						c0.78-0.414,1.375-0.97,1.783-1.666s0.612-1.435,0.612-2.216c0-0.889-0.3-1.759-0.9-2.611c-0.829-1.177-2.342-2.595-4.54-4.252
						c-2.209-1.669-3.584-2.876-4.125-3.62c-0.937-1.249-1.404-2.601-1.404-4.054c0-1.152,0.275-2.203,0.828-3.152
						c0.553-0.948,1.33-1.696,2.333-2.242c1.002-0.547,2.092-0.82,3.27-0.82c1.249,0,2.416,0.31,3.503,0.928
						c1.087,0.619,2.237,1.757,3.45,3.414l-2.162,1.639c-0.996-1.32-1.846-2.191-2.549-2.611c-0.702-0.42-1.468-0.631-2.297-0.631
						c-1.068,0-1.942,0.324-2.62,0.973c-0.679,0.648-1.019,1.447-1.019,2.396c0,0.576,0.12,1.135,0.36,1.675
						s0.679,1.129,1.315,1.766c0.348,0.336,1.488,1.219,3.423,2.647c2.293,1.693,3.866,3.201,4.719,4.521
						c0.853,1.321,1.279,2.648,1.279,3.981c0,1.922-0.729,3.591-2.188,5.008s-3.233,2.126-5.323,2.126
						c-1.609,0-3.068-0.43-4.377-1.288C217.682,400.413,216.475,398.974,215.37,396.957z"/>
					<path fill="#FFFFFF" d="M233.744,396.957l2.252-1.352c1.585,2.919,3.416,4.378,5.494,4.378c0.889,0,1.723-0.207,2.504-0.622
						c0.78-0.414,1.375-0.97,1.783-1.666s0.612-1.435,0.612-2.216c0-0.889-0.3-1.759-0.9-2.611c-0.829-1.177-2.342-2.595-4.54-4.252
						c-2.209-1.669-3.584-2.876-4.125-3.62c-0.937-1.249-1.404-2.601-1.404-4.054c0-1.152,0.275-2.203,0.828-3.152
						c0.553-0.948,1.33-1.696,2.333-2.242c1.002-0.547,2.092-0.82,3.27-0.82c1.249,0,2.416,0.31,3.503,0.928
						c1.087,0.619,2.237,1.757,3.45,3.414l-2.162,1.639c-0.996-1.32-1.846-2.191-2.549-2.611c-0.702-0.42-1.468-0.631-2.297-0.631
						c-1.068,0-1.942,0.324-2.62,0.973c-0.679,0.648-1.019,1.447-1.019,2.396c0,0.576,0.12,1.135,0.36,1.675
						s0.679,1.129,1.315,1.766c0.348,0.336,1.488,1.219,3.423,2.647c2.293,1.693,3.866,3.201,4.719,4.521
						c0.853,1.321,1.279,2.648,1.279,3.981c0,1.922-0.729,3.591-2.188,5.008s-3.233,2.126-5.323,2.126
						c-1.609,0-3.068-0.43-4.377-1.288C236.056,400.413,234.849,398.974,233.744,396.957z"/>
					<path fill="#FFFFFF" d="M254.838,375.394h5.278c3.026,0,5.067,0.132,6.125,0.396c1.513,0.372,2.75,1.138,3.711,2.297
						c0.96,1.158,1.44,2.614,1.44,4.368c0,1.765-0.468,3.222-1.405,4.368c-0.937,1.146-2.228,1.918-3.872,2.314
						c-1.201,0.288-3.447,0.433-6.737,0.433h-1.892v12.321h-2.648V375.394z M257.486,377.988v8.989l4.485,0.054
						c1.813,0,3.141-0.165,3.981-0.494c0.84-0.33,1.501-0.863,1.981-1.601c0.479-0.736,0.72-1.561,0.72-2.472
						c0-0.887-0.24-1.698-0.72-2.436c-0.48-0.737-1.114-1.262-1.9-1.573c-0.787-0.312-2.075-0.468-3.864-0.468H257.486z"/>
					<path fill="#FFFFFF" d="M289.308,374.727c4.014,0,7.372,1.34,10.076,4.018s4.056,5.975,4.056,9.89
						c0,3.879-1.349,7.169-4.047,9.871c-2.697,2.702-5.987,4.054-9.868,4.054c-3.93,0-7.247-1.346-9.95-4.035
						c-2.704-2.69-4.056-5.945-4.056-9.764c0-2.546,0.615-4.906,1.848-7.079c1.231-2.174,2.91-3.876,5.038-5.107
						C284.531,375.344,286.832,374.727,289.308,374.727z M289.425,377.303c-1.961,0-3.819,0.511-5.575,1.533
						c-1.756,1.021-3.128,2.397-4.113,4.128c-0.986,1.73-1.479,3.659-1.479,5.787c0,3.148,1.091,5.808,3.274,7.978
						c2.183,2.169,4.814,3.254,7.894,3.254c2.057,0,3.96-0.499,5.711-1.496c1.75-0.998,3.115-2.362,4.095-4.093
						c0.98-1.73,1.471-3.653,1.471-5.769c0-2.104-0.49-4.006-1.471-5.706c-0.979-1.701-2.36-3.062-4.141-4.083
						C293.31,377.814,291.422,377.303,289.425,377.303z"/>
					<path fill="#FFFFFF" d="M308.897,375.394h5.278c2.942,0,4.936,0.12,5.98,0.36c1.573,0.361,2.853,1.134,3.837,2.318
						c0.984,1.184,1.478,2.642,1.478,4.374c0,1.442-0.34,2.711-1.018,3.806c-0.679,1.094-1.648,1.921-2.909,2.479
						c-1.262,0.56-3.003,0.845-5.225,0.856l9.529,12.304h-3.275l-9.53-12.304h-1.497v12.304h-2.648V375.394z M311.546,377.988v9.007
						l4.564,0.036c1.769,0,3.076-0.168,3.925-0.504c0.848-0.336,1.51-0.874,1.984-1.612c0.476-0.738,0.713-1.564,0.713-2.478
						c0-0.889-0.24-1.696-0.722-2.423s-1.112-1.245-1.895-1.558s-2.081-0.469-3.897-0.469H311.546z"/>
					<path fill="#FFFFFF" d="M328.515,377.988v-2.594h14.519v2.594h-5.908v23.904h-2.702v-23.904H328.515z"/>
				</g>
			</g>
			<line fill="none" stroke="#FFFFFF" stroke-width="5" stroke-miterlimit="10" x1="214" y1="307.5" x2="240" y2="307.5"/>
			<line fill="none" stroke="#FFFFFF" stroke-width="5" stroke-miterlimit="10" x1="298" y1="307.5" x2="272" y2="307.5"/>
			<circle fill="none" stroke="#FFFFFF" stroke-width="5" stroke-miterlimit="10" cx="256" cy="308.123" r="7.25"/>
		</g>
	</g>
	<g id="luggage">
	</g>
	<g id="globe">
	</g>
	<g id="suitcase">
	</g>
</g>
<g id="vehicles">
	<g id="trailer">
	</g>
	<g id="airplane">
	</g>
	<g id="yatch">
	</g>
	<g id="taxi">
	</g>
	<g id="hot_air_ballon">
	</g>
	<g id="bus">
	</g>
	<g id="train">
	</g>
</g>
<g id="summer">
	<g id="postcard">
	</g>
	<g id="bikini">
	</g>
	<g id="flipflop">
	</g>
	<g id="plane_around_the_globe">
	</g>
	<g id="binocular">
	</g>
	<g id="beach_table">
	</g>
	<g id="sun_hat">
	</g>
	<g id="beach_bag">
	</g>
	<g id="sea__x26__wave">
	</g>
	<g id="beach">
	</g>
	<g id="beach_ball">
	</g>
	<g id="jetski">
	</g>
	<g id="sandcastle">
	</g>
	<g id="lifeguard_male">
	</g>
	<g id="lifeguard_female">
	</g>
	<g id="lighthouse">
	</g>
	<g id="hammok">
	</g>
	<g id="beach_chair__x26__umbrella">
	</g>
	<g id="lifeguard">
	</g>
	<g id="suncream">
	</g>
	<g id="starfish">
	</g>
	<g id="beach_bar">
	</g>
	<g id="bucket__x26__shovel">
	</g>
	<g id="palm_tree">
	</g>
	<g id="shark_warning">
	</g>
	<g id="surfboard">
	</g>
	<g id="swimming_trunks">
	</g>
	<g id="coconut_drink">
	</g>
	<g id="beach_chair__x26__towel">
	</g>
	<g id="coconut_tree">
	</g>
</g>
</svg>
