<?xml version="1.0" encoding="utf-8"?>
<!-- Generator: Adobe Illustrator 17.0.0, SVG Export Plug-In . SVG Version: 6.00 Build 0)  -->
<!DOCTYPE svg PUBLIC "-//W3C//DTD SVG 1.1//EN" "http://www.w3.org/Graphics/SVG/1.1/DTD/svg11.dtd">
<svg version="1.1" xmlns="http://www.w3.org/2000/svg" xmlns:xlink="http://www.w3.org/1999/xlink" x="0px" y="0px" width="512px"
	 height="512px" viewBox="0 0 512 512" enable-background="new 0 0 512 512" xml:space="preserve">
<g id="famous_places">
	<g id="Pyramid">
	</g>
	<g id="Colloseum">
	</g>
	<g id="Mount_Fuji">
	</g>
	<g id="Great_Wall_of_China">
	</g>
	<g id="Stonehenge">
	</g>
	<g id="Golden_Gate_Bridge">
	</g>
	<g id="Christ_the_Redeemer">
	</g>
	<g id="Statue_of_Liberty">
	</g>
	<g id="Taj_Mahal">
	</g>
	<g id="Eiffel_tower">
	</g>
</g>
<g id="camping">
	<g id="mug">
	</g>
	<g id="hook">
	</g>
	<g id="Swiss_knife">
	</g>
	<g id="flashlight">
	</g>
	<g id="lantern">
		<g>
			<path fill="none" stroke="#4A4A4A" stroke-width="10" stroke-linecap="round" stroke-miterlimit="10" d="M257.421,182.128
				L257.421,182.128c-17.397,0-31.5-14.103-31.5-31.5v-83c0-17.397,14.103-31.5,31.5-31.5h0c17.397,0,31.5,14.103,31.5,31.5v83
				C288.921,168.025,274.818,182.128,257.421,182.128z"/>
			<polygon fill="#38D6BD" points="303.918,399.876 210.923,399.876 180.923,453.873 333.918,453.873 			"/>
			<path fill="#E3E3E3" d="M338.984,475.872H175.857c-3.81,0-6.898-3.088-6.898-6.898v-7.202c0-3.81,3.088-6.898,6.898-6.898
				h163.127c3.81,0,6.898,3.088,6.898,6.898v7.202C345.882,472.783,342.794,475.872,338.984,475.872z"/>
			<polygon fill="#2FB49F" points="180.923,454.683 333.918,454.683 330.214,447.683 184.627,447.683 			"/>
			<path fill="#E3E3E3" d="M210,356.179v44.504h93v-44.504c-13,8.365-29.441,13.198-46.5,13.198S224,364.544,210,356.179z"/>
			<rect x="210.5" y="383.603" fill="#A6A6A6" width="93" height="5.192"/>
			<rect x="210.5" y="393.603" fill="#A6A6A6" width="93" height="5.192"/>
			<path fill="#38D6BD" d="M345.096,221.128H169.745l20.135-86.568c2.482-10.672,14.425-18.432,28.365-18.432h77.29
				c13.84,0,25.727,7.652,28.317,18.229L345.096,221.128z"/>
			<path fill="#E3E3E3" d="M304.045,373.997h-93.248c-29.18,0-52.835-23.655-52.835-52.835V208.832
				c0-29.18,23.655-52.835,52.835-52.835h93.248c29.18,0,45.789,22.951,45.789,52.131l-12.333,110
				C337.5,347.308,333.225,373.997,304.045,373.997z"/>
			<g>
				<path fill="#FF6650" d="M306.057,329.754c0,25.707-20.84,46.547-46.547,46.547s-46.547-20.84-46.547-46.547
					c0-25.707,46.547-74.56,46.547-74.56S306.057,304.047,306.057,329.754z"/>
				<path fill="#FF9B29" d="M285.975,335.321c0,14.616-11.849,26.465-26.465,26.465c-14.616,0-26.465-11.849-26.465-26.465
					c0-14.616,26.465-42.392,26.465-42.392S285.975,320.704,285.975,335.321z"/>
				<path fill="#FFD161" d="M274.54,337.757c0,8.252-6.69,14.942-14.942,14.942s-14.942-6.69-14.942-14.942
					c0-8.253,14.942-23.935,14.942-23.935S274.54,329.505,274.54,337.757z"/>
				<path fill="#FFD161" d="M294.129,277.703c0,5.299-4.295,9.594-9.594,9.594c-5.299,0-9.594-4.295-9.594-9.594
					s9.594-15.368,9.594-15.368S294.129,272.405,294.129,277.703z"/>
				<path fill="#FFD161" d="M227.499,306.98c0,5.299-4.295,9.594-9.594,9.594c-5.299,0-9.594-4.295-9.594-9.594
					s9.594-15.368,9.594-15.368S227.499,301.681,227.499,306.98z"/>
			</g>
			<g>
				<path fill="#ADADAD" d="M304.045,156.683H300.5l-2.439,6.768C314.241,172.482,325,189.986,325,209.832v112.331
					c0,25.934-18.311,47.52-42.953,51.52h31.5c24.642-4,42.453-25.587,42.453-51.52V209.832
					C356,180.652,333.225,156.683,304.045,156.683z"/>
			</g>
			<polygon fill="#2FB49F" points="180.94,172.683 333.312,172.683 326.669,145.683 187.25,145.683 			"/>
			<path fill="#38D6BD" d="M357.934,182.128H154.066c-7.492,0-13.566-6.074-13.566-13.566v0c0-7.492,6.074-13.566,13.566-13.566
				h203.869c7.492,0,13.566,6.074,13.566,13.566v0C371.5,176.055,365.426,182.128,357.934,182.128z"/>
			<rect x="210.5" y="373.462" fill="#A6A6A6" width="93" height="5.192"/>
			<path fill="none" stroke="#ADADAD" stroke-width="7" stroke-linecap="round" stroke-linejoin="round" stroke-miterlimit="10" d="
				M187.5,192.128c0,0-6.654,9-6.577,29"/>
			
				<line fill="none" stroke="#ADADAD" stroke-width="7" stroke-linecap="round" stroke-linejoin="round" stroke-miterlimit="10" x1="180.5" y1="233.683" x2="180.5" y2="313.683"/>
			<circle fill="#2FB49F" cx="257.421" cy="426.874" r="14.333"/>
			<circle fill="#FFD161" cx="257.421" cy="426.874" r="12.095"/>
		</g>
	</g>
	<g id="campfire">
	</g>
	<g id="beanie">
	</g>
	<g id="rope">
	</g>
	<g id="boot">
	</g>
	<g id="axe">
	</g>
</g>
<g id="hotel_1_">
	<g id="towel">
	</g>
	<g id="phone">
	</g>
	<g id="pool">
	</g>
	<g id="food_service">
	</g>
	<g id="wifi">
	</g>
	<g id="bed">
	</g>
	<g id="door">
	</g>
	<g id="key">
	</g>
	<g id="do_not_disturb">
	</g>
	<g id="bell">
	</g>
</g>
<g id="winter">
	<g id="snowman">
	</g>
	<g id="snow_mountain">
	</g>
	<g id="reindeer">
	</g>
	<g id="winter_tree">
	</g>
	<g id="lift">
	</g>
	<g id="beanie__x26__google">
	</g>
	<g id="ski">
	</g>
	<g id="snowboard">
	</g>
	<g id="snowboading">
	</g>
	<g id="skiing">
	</g>
</g>
<g id="general_travelling">
	<g id="dinner_set">
	</g>
	<g id="polaroid">
	</g>
	<g id="camera">
	</g>
	<g id="calendar">
	</g>
	<g id="calendar_single">
	</g>
	<g id="shopping_bag">
	</g>
	<g id="watch">
	</g>
	<g id="alarm_clock">
	</g>
	<g id="credit_card">
	</g>
	<g id="road_sign">
	</g>
	<g id="hotel">
	</g>
	<g id="money">
	</g>
	<g id="sunglass">
	</g>
	<g id="cocktail">
	</g>
	<g id="compass">
	</g>
	<g id="tent">
	</g>
	<g id="backpack">
	</g>
	<g id="map">
	</g>
	<g id="ticket_1_">
	</g>
	<g id="passport">
	</g>
	<g id="luggage">
	</g>
	<g id="globe">
	</g>
	<g id="suitcase">
	</g>
</g>
<g id="vehicles">
	<g id="trailer">
	</g>
	<g id="airplane">
	</g>
	<g id="yatch">
	</g>
	<g id="taxi">
	</g>
	<g id="hot_air_ballon">
	</g>
	<g id="bus">
	</g>
	<g id="train">
	</g>
</g>
<g id="summer">
	<g id="postcard">
	</g>
	<g id="bikini">
	</g>
	<g id="flipflop">
	</g>
	<g id="plane_around_the_globe">
	</g>
	<g id="binocular">
	</g>
	<g id="beach_table">
	</g>
	<g id="sun_hat">
	</g>
	<g id="beach_bag">
	</g>
	<g id="sea__x26__wave">
	</g>
	<g id="beach">
	</g>
	<g id="beach_ball">
	</g>
	<g id="jetski">
	</g>
	<g id="sandcastle">
	</g>
	<g id="lifeguard_male">
	</g>
	<g id="lifeguard_female">
	</g>
	<g id="lighthouse">
	</g>
	<g id="hammok">
	</g>
	<g id="beach_chair__x26__umbrella">
	</g>
	<g id="lifeguard">
	</g>
	<g id="suncream">
	</g>
	<g id="starfish">
	</g>
	<g id="beach_bar">
	</g>
	<g id="bucket__x26__shovel">
	</g>
	<g id="palm_tree">
	</g>
	<g id="shark_warning">
	</g>
	<g id="surfboard">
	</g>
	<g id="swimming_trunks">
	</g>
	<g id="coconut_drink">
	</g>
	<g id="beach_chair__x26__towel">
	</g>
	<g id="coconut_tree">
	</g>
</g>
</svg>
