<?xml version="1.0" encoding="utf-8"?>
<!-- Generator: Adobe Illustrator 17.0.0, SVG Export Plug-In . SVG Version: 6.00 Build 0)  -->
<!DOCTYPE svg PUBLIC "-//W3C//DTD SVG 1.1//EN" "http://www.w3.org/Graphics/SVG/1.1/DTD/svg11.dtd">
<svg version="1.1" xmlns="http://www.w3.org/2000/svg" xmlns:xlink="http://www.w3.org/1999/xlink" x="0px" y="0px" width="512px"
	 height="512px" viewBox="0 0 512 512" enable-background="new 0 0 512 512" xml:space="preserve">
<g id="famous_places">
	<g id="Pyramid">
	</g>
	<g id="Colloseum">
	</g>
	<g id="Mount_Fuji">
	</g>
	<g id="Great_Wall_of_China">
	</g>
	<g id="Stonehenge">
	</g>
	<g id="Golden_Gate_Bridge">
	</g>
	<g id="Christ_the_Redeemer">
	</g>
	<g id="Statue_of_Liberty">
	</g>
	<g id="Taj_Mahal">
	</g>
	<g id="Eiffel_tower">
	</g>
</g>
<g id="camping">
	<g id="mug">
	</g>
	<g id="hook">
	</g>
	<g id="Swiss_knife">
	</g>
	<g id="flashlight">
	</g>
	<g id="lantern">
	</g>
	<g id="campfire">
	</g>
	<g id="beanie">
	</g>
	<g id="rope">
	</g>
	<g id="boot">
	</g>
	<g id="axe">
	</g>
</g>
<g id="hotel_1_">
	<g id="towel">
	</g>
	<g id="phone">
	</g>
	<g id="pool">
	</g>
	<g id="food_service">
	</g>
	<g id="wifi">
	</g>
	<g id="bed">
	</g>
	<g id="door">
	</g>
	<g id="key">
	</g>
	<g id="do_not_disturb">
	</g>
	<g id="bell">
	</g>
</g>
<g id="winter">
	<g id="snowman">
	</g>
	<g id="snow_mountain">
	</g>
	<g id="reindeer">
	</g>
	<g id="winter_tree">
	</g>
	<g id="lift">
	</g>
	<g id="beanie__x26__google">
	</g>
	<g id="ski">
	</g>
	<g id="snowboard">
	</g>
	<g id="snowboading">
	</g>
	<g id="skiing">
	</g>
</g>
<g id="general_travelling">
	<g id="dinner_set">
	</g>
	<g id="polaroid">
	</g>
	<g id="camera">
	</g>
	<g id="calendar">
	</g>
	<g id="calendar_single">
	</g>
	<g id="shopping_bag">
	</g>
	<g id="watch">
	</g>
	<g id="alarm_clock">
	</g>
	<g id="credit_card">
	</g>
	<g id="road_sign">
	</g>
	<g id="hotel">
	</g>
	<g id="money">
	</g>
	<g id="sunglass">
	</g>
	<g id="cocktail">
	</g>
	<g id="compass">
	</g>
	<g id="tent">
	</g>
	<g id="backpack">
	</g>
	<g id="map">
	</g>
	<g id="ticket_1_">
	</g>
	<g id="passport">
	</g>
	<g id="luggage">
	</g>
	<g id="globe">
	</g>
	<g id="suitcase">
	</g>
</g>
<g id="vehicles">
	<g id="trailer">
	</g>
	<g id="airplane">
	</g>
	<g id="yatch">
	</g>
	<g id="taxi">
	</g>
	<g id="hot_air_ballon">
	</g>
	<g id="bus">
	</g>
	<g id="train">
	</g>
</g>
<g id="summer">
	<g id="postcard">
	</g>
	<g id="bikini">
	</g>
	<g id="flipflop">
	</g>
	<g id="plane_around_the_globe">
	</g>
	<g id="binocular">
	</g>
	<g id="beach_table">
	</g>
	<g id="sun_hat">
	</g>
	<g id="beach_bag">
	</g>
	<g id="sea__x26__wave">
	</g>
	<g id="beach">
	</g>
	<g id="beach_ball">
	</g>
	<g id="jetski">
	</g>
	<g id="sandcastle">
	</g>
	<g id="lifeguard_male">
	</g>
	<g id="lifeguard_female">
	</g>
	<g id="lighthouse">
	</g>
	<g id="hammok">
	</g>
	<g id="beach_chair__x26__umbrella">
	</g>
	<g id="lifeguard">
	</g>
	<g id="suncream">
	</g>
	<g id="starfish">
	</g>
	<g id="beach_bar">
	</g>
	<g id="bucket__x26__shovel">
	</g>
	<g id="palm_tree">
	</g>
	<g id="shark_warning">
	</g>
	<g id="surfboard">
	</g>
	<g id="swimming_trunks">
	</g>
	<g id="coconut_drink">
		<polygon fill="#4A4A4A" points="321.041,89.433 306.781,83.899 247.694,234 264.223,234 		"/>
		<path fill="#FF6650" d="M398.072,131.578c-13.842-35.084-38.191-60.422-70.414-73.275c-32.007-12.771-66.946-11.078-101.045,4.888
			c-25.562,11.966-41.503,27.534-42.169,28.192c-1.229,1.211-1.756,2.965-1.414,4.658c0.34,1.693,1.521,3.102,3.124,3.743
			c1.584,0.636,3.387,0.43,4.794-0.53c0.68-0.463,16.929-11.263,38.721-2.57c21.164,8.441,23.208,26.046,23.284,26.791
			c0.197,1.902,1.561,3.585,3.338,4.286c1.366,0.541,2.895,0.466,4.203-0.2c0.826-0.423,20.504-10.242,40.448-2.287l0.548,0.218
			c19.954,7.96,27.459,28.623,27.769,29.498c0.493,1.396,1.694,2.56,3.072,3.104c1.764,0.703,3.777,0.36,5.218-0.881
			c0.57-0.49,14.175-11.891,35.345-3.45c21.788,8.693,26.141,27.749,26.311,28.534c0.495,2.401,2.61,4.081,5.006,4.081
			c0.202,0,0.405-0.012,0.61-0.037c2.639-0.313,4.598-2.595,4.51-5.251C409.3,180.156,408.451,157.885,398.072,131.578z"/>
		<g>
			<path fill="#FFD161" d="M209.892,293.205c-3.445,0-6.735-1.972-8.257-5.311l-73.73-161.897L61.44,95.975
				c-4.561-2.061-6.589-7.429-4.529-11.993c2.057-4.561,7.422-6.597,11.993-4.529l69.57,31.425c2.001,0.903,3.608,2.503,4.518,4.504
				l75.143,164.998c2.075,4.557,0.064,9.932-4.493,12.007C212.424,292.939,211.145,293.205,209.892,293.205z"/>
		</g>
		<polygon fill="#E3E3E3" points="153.843,257.725 147.667,246 306.333,173.333 313.146,186.002 198.333,271.333 		"/>
		<path fill="#8A532D" d="M321.955,182.036L144.33,262.008c-6.166,15.734-9.589,32.844-9.589,50.764
			C134.742,389.666,197.076,452,273.97,452s139.228-62.334,139.228-139.228C413.199,252.741,375.206,201.587,321.955,182.036z"/>
		<path fill="#6E4224" d="M321.955,182.036l-8.81,3.967c12.864,21.093,20.285,45.869,20.285,72.382
			c0,76.894-62.334,139.228-139.228,139.228c-11.6,0-22.859-1.442-33.633-4.115C185.813,428.895,227.18,452,273.97,452
			c76.894,0,139.228-62.334,139.228-139.228C413.199,252.741,375.206,201.587,321.955,182.036z"/>
		
			<line fill="none" stroke="#6E4224" stroke-width="10" stroke-linecap="round" stroke-linejoin="round" stroke-miterlimit="10" x1="160.309" y1="295.478" x2="160.975" y2="340.317"/>
		
			<line fill="none" stroke="#6E4224" stroke-width="10" stroke-linecap="round" stroke-linejoin="round" stroke-miterlimit="10" x1="197.293" y1="309.835" x2="221.365" y2="363.168"/>
		
			<line fill="none" stroke="#6E4224" stroke-width="10" stroke-linecap="round" stroke-linejoin="round" stroke-miterlimit="10" x1="232.37" y1="263.75" x2="259.667" y2="295.796"/>
		
			<line fill="none" stroke="#6E4224" stroke-width="10" stroke-linecap="round" stroke-linejoin="round" stroke-miterlimit="10" x1="285.67" y1="272.234" x2="311.932" y2="295.796"/>
		
			<line fill="none" stroke="#6E4224" stroke-width="10" stroke-linecap="round" stroke-linejoin="round" stroke-miterlimit="10" x1="309.812" y1="229.054" x2="339.464" y2="234.449"/>
		
			<line fill="none" stroke="#8A532D" stroke-width="5" stroke-linecap="round" stroke-linejoin="round" stroke-miterlimit="10" x1="335" y1="305.16" x2="368.333" y2="317.898"/>
		
			<line fill="none" stroke="#8A532D" stroke-width="5" stroke-linecap="round" stroke-linejoin="round" stroke-miterlimit="10" x1="256" y1="420" x2="256.334" y2="430"/>
		
			<line fill="none" stroke="#8A532D" stroke-width="5" stroke-linecap="round" stroke-linejoin="round" stroke-miterlimit="10" x1="295.667" y1="400" x2="320.333" y2="425"/>
		
			<line fill="none" stroke="#8A532D" stroke-width="5" stroke-linecap="round" stroke-linejoin="round" stroke-miterlimit="10" x1="331" y1="347.333" x2="368.333" y2="386.667"/>
		
			<line fill="none" stroke="#8A532D" stroke-width="5" stroke-linecap="round" stroke-linejoin="round" stroke-miterlimit="10" x1="364" y1="259.5" x2="383" y2="259.5"/>
		<polygon fill="#BA703D" points="144.33,262.083 178,290 178,247 		"/>
		<polygon fill="#BA703D" points="226.576,225.172 274,259.5 274,204 		"/>
	</g>
	<g id="beach_chair__x26__towel">
	</g>
	<g id="coconut_tree">
	</g>
</g>
</svg>
