<?xml version="1.0" encoding="utf-8"?>
<!-- Generator: Adobe Illustrator 17.0.0, SVG Export Plug-In . SVG Version: 6.00 Build 0)  -->
<!DOCTYPE svg PUBLIC "-//W3C//DTD SVG 1.1//EN" "http://www.w3.org/Graphics/SVG/1.1/DTD/svg11.dtd">
<svg version="1.1" xmlns="http://www.w3.org/2000/svg" xmlns:xlink="http://www.w3.org/1999/xlink" x="0px" y="0px" width="512px"
	 height="512px" viewBox="0 0 512 512" enable-background="new 0 0 512 512" xml:space="preserve">
<g id="famous_places">
	<g id="Pyramid">
	</g>
	<g id="Colloseum">
	</g>
	<g id="Mount_Fuji">
	</g>
	<g id="Great_Wall_of_China">
	</g>
	<g id="Stonehenge">
	</g>
	<g id="Golden_Gate_Bridge">
	</g>
	<g id="Christ_the_Redeemer">
	</g>
	<g id="Statue_of_Liberty">
	</g>
	<g id="Taj_Mahal">
	</g>
	<g id="Eiffel_tower">
	</g>
</g>
<g id="camping">
	<g id="mug">
	</g>
	<g id="hook">
	</g>
	<g id="Swiss_knife">
	</g>
	<g id="flashlight">
	</g>
	<g id="lantern">
	</g>
	<g id="campfire">
	</g>
	<g id="beanie">
	</g>
	<g id="rope">
	</g>
	<g id="boot">
	</g>
	<g id="axe">
	</g>
</g>
<g id="hotel_1_">
	<g id="towel">
	</g>
	<g id="phone">
	</g>
	<g id="pool">
	</g>
	<g id="food_service">
	</g>
	<g id="wifi">
	</g>
	<g id="bed">
	</g>
	<g id="door">
	</g>
	<g id="key">
	</g>
	<g id="do_not_disturb">
	</g>
	<g id="bell">
	</g>
</g>
<g id="winter">
	<g id="snowman">
	</g>
	<g id="snow_mountain">
	</g>
	<g id="reindeer">
	</g>
	<g id="winter_tree">
	</g>
	<g id="lift">
	</g>
	<g id="beanie__x26__google">
	</g>
	<g id="ski">
	</g>
	<g id="snowboard">
	</g>
	<g id="snowboading">
	</g>
	<g id="skiing">
	</g>
</g>
<g id="general_travelling">
	<g id="dinner_set">
	</g>
	<g id="polaroid">
	</g>
	<g id="camera">
	</g>
	<g id="calendar">
	</g>
	<g id="calendar_single">
	</g>
	<g id="shopping_bag">
	</g>
	<g id="watch">
	</g>
	<g id="alarm_clock">
	</g>
	<g id="credit_card">
	</g>
	<g id="road_sign">
	</g>
	<g id="hotel">
	</g>
	<g id="money">
	</g>
	<g id="sunglass">
	</g>
	<g id="cocktail">
	</g>
	<g id="compass">
	</g>
	<g id="tent">
	</g>
	<g id="backpack">
	</g>
	<g id="map">
	</g>
	<g id="ticket_1_">
	</g>
	<g id="passport">
	</g>
	<g id="luggage">
	</g>
	<g id="globe">
	</g>
	<g id="suitcase">
	</g>
</g>
<g id="vehicles">
	<g id="trailer">
	</g>
	<g id="airplane">
	</g>
	<g id="yatch">
	</g>
	<g id="taxi">
	</g>
	<g id="hot_air_ballon">
	</g>
	<g id="bus">
	</g>
	<g id="train">
	</g>
</g>
<g id="summer">
	<g id="postcard">
	</g>
	<g id="bikini">
	</g>
	<g id="flipflop">
	</g>
	<g id="plane_around_the_globe">
	</g>
	<g id="binocular">
	</g>
	<g id="beach_table">
	</g>
	<g id="sun_hat">
	</g>
	<g id="beach_bag">
	</g>
	<g id="sea__x26__wave">
	</g>
	<g id="beach">
		<rect y="0" fill="#B4E1ED" width="512" height="450.956"/>
		<g>
			<path fill="#FFD161" d="M47.034,263.636c11.961,0,11.961,3.323,23.922,3.323c11.961,0,11.961-3.323,23.922-3.323
				c11.961,0,11.961,3.323,23.923,3.323c3.475,0,5.937-0.281,7.98-0.679c-3.384-26.717-26.193-47.376-53.829-47.376
				c-27.817,0-50.741,20.933-53.889,47.905c1.188,0.095,2.52,0.15,4.049,0.15C35.073,266.959,35.073,263.636,47.034,263.636z"/>
			<path fill="#FF9B29" d="M94.878,282.907c-11.961,0-11.961,3.323-23.922,3.323c-11.961,0-11.961-3.323-23.922-3.323
				c-11.961,0-11.961,3.323-23.923,3.323c-1.037,0-1.979-0.026-2.852-0.072c5.823,23.693,27.203,41.269,52.692,41.269
				c25.641,0,47.125-17.786,52.795-41.692c-1.838,0.298-4.037,0.495-6.947,0.495C106.839,286.23,106.839,282.907,94.878,282.907z"/>
			<path fill="#FFB561" d="M126.781,266.28c-2.042,0.398-4.505,0.679-7.98,0.679c-11.961,0-11.961-3.323-23.923-3.323
				c-11.961,0-11.961,3.323-23.922,3.323c-11.961,0-11.961-3.323-23.922-3.323c-11.961,0-11.961,3.323-23.923,3.323
				c-1.529,0-2.861-0.055-4.049-0.15c-0.243,2.085-0.373,4.206-0.373,6.356c0,4.479,0.547,8.829,1.57,12.992
				c0.873,0.046,1.815,0.072,2.852,0.072c11.961,0,11.961-3.323,23.923-3.323c11.961,0,11.961,3.323,23.922,3.323
				c11.961,0,11.961-3.323,23.922-3.323c11.961,0,11.961,3.323,23.923,3.323c2.909,0,5.108-0.197,6.947-0.495
				c0.957-4.035,1.466-8.242,1.466-12.569C127.214,270.833,127.066,268.535,126.781,266.28z"/>
		</g>
		<path fill="#5C84B8" d="M489.601,296.597c-7.256-4.229-16.14-9.492-33.671-9.492c-17.529,0-26.486,5.263-33.742,9.492
			c-7.54,4.395-12.654,7.089-23.044,7.089c-10.389,0-15.519-2.694-23.06-7.089c-7.255-4.229-16.274-9.492-33.802-9.492
			c-17.53,0-26.553,5.263-33.808,9.492c-7.54,4.395-12.687,7.089-23.075,7.089c-10.389,0-15.535-2.694-23.075-7.089
			c-7.255-4.229-16.282-9.492-33.81-9.492s-26.556,5.263-33.811,9.492c-7.54,4.395-12.688,7.089-23.076,7.089
			c-10.386,0-15.533-2.694-23.072-7.089c-7.253-4.229-16.28-9.492-33.807-9.492c-17.528,0-26.556,5.263-33.811,9.492
			c-7.54,4.395-12.688,7.089-23.076,7.089s-16.333-2.694-23.873-7.089C26.82,292.42,18,287.242,0,287.117v6.376V415.64
			c18,0.126,21.627-53.343,28.793-49.165c7.54,4.395,26.172-12.961,36.561-12.961s0.131,44.203,7.671,39.808
			c7.255-4.229,33.117-2.385,50.646-2.385c17.527,0,10.273-4.229,17.527,0c7.539,4.396-33.599,83.001-23.213,83.001
			c10.389,0,130.475-11.904,138.015-16.299c7.255-4.229,33.081-69.086,50.609-69.086s13.777-26.307,21.032-22.078
			c7.54,4.395,6.444,60.963,16.833,60.963c10.389,0,5.096-46.527,12.637-50.922c7.255-4.229-10.275-4.229,7.255-4.229
			c17.528,0,16.352,37.625,23.606,41.854c7.54,4.395,4.502-45.76,14.89-45.76c10.39,0,19.66,7.016,27.2,2.621
			c7.256-4.229,9.473-6.805,27.003-6.805c17.531,0,16.746,2.576,24.002,6.805C488.51,375.34,501,427.369,512,427.437V310.056v-6.376
			C501,303.611,497.044,300.935,489.601,296.597z"/>
		<path fill="#E3E3E3" d="M392.143,161.202L392.143,161.202c0,5.493,4.453,9.945,9.945,9.945h96.507
			c5.493,0,9.945-4.453,9.945-9.945v0c0-5.493-4.453-9.945-9.945-9.945h-22.837c-5.493,0-9.945-4.453-9.945-9.945v0
			c0-5.493-4.453-9.945-9.945-9.945h-104.61c-5.493,0-9.945,4.453-9.945,9.945v0c0,5.493,4.453,9.945,9.945,9.945h30.941
			C387.691,151.257,392.143,155.71,392.143,161.202z"/>
		<path fill="#E3E3E3" d="M198.044,49.086L198.044,49.086c0-7.456-6.044-13.5-13.5-13.5h-131c-7.456,0-13.5,6.044-13.5,13.5v0
			c0,7.456,6.044,13.5,13.5,13.5h31c7.456,0,13.5,6.044,13.5,13.5v0c0,7.456,6.044,13.5,13.5,13.5h142c7.456,0,13.5-6.044,13.5-13.5
			v0c0-7.456-6.044-13.5-13.5-13.5h-42C204.088,62.586,198.044,56.542,198.044,49.086z"/>
		<path fill="#FFB561" d="M268.61,406.805c0,0-135.116-73.867-268.61-73.867v141L268.61,406.805z"/>
		<polygon fill="#E3E3E3" points="293.649,199.401 311.855,192.32 387.291,383.937 366.189,383.937 		"/>
		<path fill="#FF6650" d="M195.304,253.239c17.672-44.791,48.758-77.141,89.897-93.549c40.863-16.304,85.469-14.143,129.004,6.24
			c32.634,15.277,52.986,35.152,53.837,35.993c1.57,1.546,2.242,3.786,1.806,5.947c-0.434,2.161-1.942,3.96-3.988,4.779
			c-2.023,0.812-4.324,0.549-6.121-0.676c-0.868-0.591-21.613-14.38-49.434-3.282c-27.019,10.777-29.629,33.253-29.727,34.204
			c-0.251,2.429-1.993,4.577-4.262,5.472c-1.744,0.691-3.696,0.596-5.366-0.255c-1.055-0.54-26.177-13.076-51.64-2.92l-0.7,0.279
			c-25.475,10.162-35.057,36.543-35.452,37.66c-0.63,1.782-2.163,3.269-3.922,3.962c-2.252,0.898-4.822,0.459-6.661-1.125
			c-0.727-0.625-18.097-15.181-45.125-4.405c-27.817,11.098-33.374,35.427-33.591,36.429c-0.632,3.065-3.333,5.211-6.391,5.211
			c-0.257,0-0.517-0.015-0.778-0.047c-3.369-0.4-5.87-3.314-5.757-6.704C180.969,315.258,182.054,286.824,195.304,253.239z"/>
		<path fill="#FFD161" d="M512,511.937v-169c0,0-387.006,7.429-512,108.019v60.981H512z"/>
		<path fill="#CF5341" d="M285.202,159.69c0,0-55.691,50.25-50.205,119.43c22.676-5.649,36.921,6.282,37.578,6.847
			c1.84,1.584,4.409,2.023,6.661,1.125c1.759-0.693,3.292-2.18,3.922-3.962c0.396-1.116,9.977-27.498,35.452-37.66l0.7-0.279
			c25.462-10.156,50.585,2.38,51.64,2.92c1.67,0.851,3.622,0.946,5.366,0.255c2.27-0.895,4.011-3.043,4.262-5.472
			c0.087-0.846,2.181-18.75,21.706-30.274C385.273,185.419,349.987,149.474,285.202,159.69z"/>
	</g>
	<g id="beach_ball">
	</g>
	<g id="jetski">
	</g>
	<g id="sandcastle">
	</g>
	<g id="lifeguard_male">
	</g>
	<g id="lifeguard_female">
	</g>
	<g id="lighthouse">
	</g>
	<g id="hammok">
	</g>
	<g id="beach_chair__x26__umbrella">
	</g>
	<g id="lifeguard">
	</g>
	<g id="suncream">
	</g>
	<g id="starfish">
	</g>
	<g id="beach_bar">
	</g>
	<g id="bucket__x26__shovel">
	</g>
	<g id="palm_tree">
	</g>
	<g id="shark_warning">
	</g>
	<g id="surfboard">
	</g>
	<g id="swimming_trunks">
	</g>
	<g id="coconut_drink">
	</g>
	<g id="beach_chair__x26__towel">
	</g>
	<g id="coconut_tree">
	</g>
</g>
</svg>
