<?xml version="1.0" encoding="utf-8"?>
<!-- Generator: Adobe Illustrator 17.0.0, SVG Export Plug-In . SVG Version: 6.00 Build 0)  -->
<!DOCTYPE svg PUBLIC "-//W3C//DTD SVG 1.1//EN" "http://www.w3.org/Graphics/SVG/1.1/DTD/svg11.dtd">
<svg version="1.1" xmlns="http://www.w3.org/2000/svg" xmlns:xlink="http://www.w3.org/1999/xlink" x="0px" y="0px" width="512px"
	 height="512px" viewBox="0 0 512 512" enable-background="new 0 0 512 512" xml:space="preserve">
<g id="famous_places">
	<g id="Pyramid">
	</g>
	<g id="Colloseum">
	</g>
	<g id="Mount_Fuji">
	</g>
	<g id="Great_Wall_of_China">
	</g>
	<g id="Stonehenge">
	</g>
	<g id="Golden_Gate_Bridge">
	</g>
	<g id="Christ_the_Redeemer">
	</g>
	<g id="Statue_of_Liberty">
	</g>
	<g id="Taj_Mahal">
	</g>
	<g id="Eiffel_tower">
	</g>
</g>
<g id="camping">
	<g id="mug">
		<g>
			<g>
				<path fill="#8A532D" d="M376.137,442.776c-53.585,0-97.18-43.594-97.18-97.179s43.595-97.18,97.18-97.18
					s97.18,43.595,97.18,97.18S429.722,442.776,376.137,442.776z M376.137,268.418c-42.557,0-77.18,34.623-77.18,77.18
					s34.623,77.179,77.18,77.179s77.18-34.622,77.18-77.179S418.694,268.418,376.137,268.418z"/>
			</g>
			<path fill="#6E4224" d="M385.915,442.292c0.009-0.296,0.085-0.591,0.085-0.89V422.14c-3,0.404-6.5,0.636-9.8,0.636
				c-42.557,0-77.211-34.622-77.211-77.179s34.67-77.18,77.227-77.18c3.3,0,6.784,0.232,9.784,0.636v-20.149
				c-3-0.32-6.514-0.486-9.8-0.486c-53.585,0-97.211,43.595-97.211,97.18s43.61,97.179,97.195,97.179
				C379.463,442.776,382.719,442.611,385.915,442.292z"/>
			<path fill="#E3E3E3" d="M321.07,67.992L321.07,67.992c0-15.464-12.536-28-28-28h-145c-18.778,0-34,15.222-34,34v0
				c0,18.778,15.222,34,34,34h64.5c13.531,0,24.5,10.969,24.5,24.5v0c0,13.531-10.969,24.5-24.5,24.5h0
				c-12.232,0-22.148,9.916-22.148,22.148v5.705c0,12.232,9.916,22.148,22.148,22.148h122.5v-24c0-14.359,11.641-26,26-26h0
				c8.322,0,15.068-6.746,15.068-15.068V123.06c0-8.322-6.746-15.068-15.068-15.068h0C338.978,107.992,321.07,90.083,321.07,67.992z
				"/>
			<path fill="#8A532D" d="M335.82,472.008H128.703c-16.903,0-30.606-13.703-30.606-30.606V219.806h268.329v221.596
				C366.426,458.305,352.723,472.008,335.82,472.008z"/>
			<path fill="#B56D3B" d="M129,441.402V219.683H98v221.719c0,16.903,13.8,30.281,30.703,30.281h30.808
				C142.608,471.683,129,458.305,129,441.402z"/>
			<rect x="98.097" y="219.806" fill="#6E4224" width="268.329" height="28.612"/>
			<path fill="#8A532D" d="M373.539,230.764H90.984c-6.794,0-12.301-5.507-12.301-12.301v0c0-6.794,5.507-12.301,12.301-12.301
				h282.555c6.794,0,12.301,5.507,12.301,12.301v0C385.84,225.256,380.332,230.764,373.539,230.764z"/>
			<path fill="#B56D3B" d="M111.499,218.183c0-6.793,5.507-12.5,12.301-12.5H90.984c-6.793,0-12.301,5.707-12.301,12.5
				c0,6.794,5.507,12.5,12.301,12.5H123.8C117.006,230.683,111.499,224.977,111.499,218.183z"/>
		</g>
	</g>
	<g id="hook">
	</g>
	<g id="Swiss_knife">
	</g>
	<g id="flashlight">
	</g>
	<g id="lantern">
	</g>
	<g id="campfire">
	</g>
	<g id="beanie">
	</g>
	<g id="rope">
	</g>
	<g id="boot">
	</g>
	<g id="axe">
	</g>
</g>
<g id="hotel_1_">
	<g id="towel">
	</g>
	<g id="phone">
	</g>
	<g id="pool">
	</g>
	<g id="food_service">
	</g>
	<g id="wifi">
	</g>
	<g id="bed">
	</g>
	<g id="door">
	</g>
	<g id="key">
	</g>
	<g id="do_not_disturb">
	</g>
	<g id="bell">
	</g>
</g>
<g id="winter">
	<g id="snowman">
	</g>
	<g id="snow_mountain">
	</g>
	<g id="reindeer">
	</g>
	<g id="winter_tree">
	</g>
	<g id="lift">
	</g>
	<g id="beanie__x26__google">
	</g>
	<g id="ski">
	</g>
	<g id="snowboard">
	</g>
	<g id="snowboading">
	</g>
	<g id="skiing">
	</g>
</g>
<g id="general_travelling">
	<g id="dinner_set">
	</g>
	<g id="polaroid">
	</g>
	<g id="camera">
	</g>
	<g id="calendar">
	</g>
	<g id="calendar_single">
	</g>
	<g id="shopping_bag">
	</g>
	<g id="watch">
	</g>
	<g id="alarm_clock">
	</g>
	<g id="credit_card">
	</g>
	<g id="road_sign">
	</g>
	<g id="hotel">
	</g>
	<g id="money">
	</g>
	<g id="sunglass">
	</g>
	<g id="cocktail">
	</g>
	<g id="compass">
	</g>
	<g id="tent">
	</g>
	<g id="backpack">
	</g>
	<g id="map">
	</g>
	<g id="ticket_1_">
	</g>
	<g id="passport">
	</g>
	<g id="luggage">
	</g>
	<g id="globe">
	</g>
	<g id="suitcase">
	</g>
</g>
<g id="vehicles">
	<g id="trailer">
	</g>
	<g id="airplane">
	</g>
	<g id="yatch">
	</g>
	<g id="taxi">
	</g>
	<g id="hot_air_ballon">
	</g>
	<g id="bus">
	</g>
	<g id="train">
	</g>
</g>
<g id="summer">
	<g id="postcard">
	</g>
	<g id="bikini">
	</g>
	<g id="flipflop">
	</g>
	<g id="plane_around_the_globe">
	</g>
	<g id="binocular">
	</g>
	<g id="beach_table">
	</g>
	<g id="sun_hat">
	</g>
	<g id="beach_bag">
	</g>
	<g id="sea__x26__wave">
	</g>
	<g id="beach">
	</g>
	<g id="beach_ball">
	</g>
	<g id="jetski">
	</g>
	<g id="sandcastle">
	</g>
	<g id="lifeguard_male">
	</g>
	<g id="lifeguard_female">
	</g>
	<g id="lighthouse">
	</g>
	<g id="hammok">
	</g>
	<g id="beach_chair__x26__umbrella">
	</g>
	<g id="lifeguard">
	</g>
	<g id="suncream">
	</g>
	<g id="starfish">
	</g>
	<g id="beach_bar">
	</g>
	<g id="bucket__x26__shovel">
	</g>
	<g id="palm_tree">
	</g>
	<g id="shark_warning">
	</g>
	<g id="surfboard">
	</g>
	<g id="swimming_trunks">
	</g>
	<g id="coconut_drink">
	</g>
	<g id="beach_chair__x26__towel">
	</g>
	<g id="coconut_tree">
	</g>
</g>
</svg>
