<?xml version="1.0" encoding="utf-8"?>
<!-- Generator: Adobe Illustrator 17.0.0, SVG Export Plug-In . SVG Version: 6.00 Build 0)  -->
<!DOCTYPE svg PUBLIC "-//W3C//DTD SVG 1.1//EN" "http://www.w3.org/Graphics/SVG/1.1/DTD/svg11.dtd">
<svg version="1.1" xmlns="http://www.w3.org/2000/svg" xmlns:xlink="http://www.w3.org/1999/xlink" x="0px" y="0px" width="512px"
	 height="512px" viewBox="0 0 512 512" enable-background="new 0 0 512 512" xml:space="preserve">
<g id="famous_places">
	<g id="Pyramid">
	</g>
	<g id="Colloseum">
	</g>
	<g id="Mount_Fuji">
	</g>
	<g id="Great_Wall_of_China">
		<polygon fill="#279685" points="246,92.817 0,187.914 0,259.914 512,259.914 512,187.914 334,92.914 		"/>
		<polygon fill="#2FB49F" points="512,259.914 445,168.914 351,159.914 0,259.914 0,443.914 512,448.914 		"/>
		<polygon fill="#38D6BD" points="55,375.02 0,387.914 0,511.914 512,511.914 512,410.914 201.5,364.59 		"/>
		<g>
			<rect x="290" y="16.914" fill="#FFB463" width="44" height="76"/>
			<rect x="246" y="16.914" fill="#FFD9A8" width="55" height="76"/>
			<rect x="246" y="31.914" fill="#FFB463" width="55" height="6"/>
			<rect x="267" y="11.914" fill="#FFD9A8" width="12" height="16"/>
			<rect x="246" y="11.914" fill="#FFD9A8" width="12" height="16"/>
			<rect x="289" y="11.914" fill="#FFD9A8" width="12" height="16"/>
			<rect x="301" y="11.914" fill="#FFB463" width="12" height="16"/>
			<rect x="322" y="11.914" fill="#FFB463" width="12" height="16"/>
			<rect x="240" y="27.914" fill="#F8ECD2" width="99" height="7"/>
			<rect x="246" y="71.914" fill="#FFB463" width="55" height="7"/>
			<rect x="240" y="67.914" fill="#F8ECD2" width="99" height="7"/>
			<path fill="#5D5D5D" d="M319.563,41.914h-0.96c-3.533,0-6.604,3.793-6.604,8.201v7.799h14v-7.799
				C326,45.707,323.097,41.914,319.563,41.914z"/>
		</g>
		<polygon fill="#FFD9A8" points="307,75.914 335,75.914 375,106.914 371,130.914 		"/>
		<polygon fill="#FFB463" points="363,133.914 307,92.914 307,75.914 363,114.914 		"/>
		<g>
			<rect x="401" y="92.914" fill="#FFB463" width="44" height="76"/>
			<rect x="357" y="92.914" fill="#FFD9A8" width="55" height="76"/>
			<rect x="357" y="107.914" fill="#FFB463" width="55" height="6"/>
			<rect x="378" y="87.914" fill="#FFD9A8" width="12" height="16"/>
			<rect x="357" y="87.914" fill="#FFD9A8" width="12" height="16"/>
			<rect x="400" y="87.914" fill="#FFD9A8" width="12" height="16"/>
			<rect x="412" y="87.914" fill="#FFB463" width="12" height="16"/>
			<rect x="433" y="87.914" fill="#FFB463" width="12" height="16"/>
			<rect x="351" y="103.914" fill="#F8ECD2" width="99" height="7"/>
			<rect x="357" y="147.914" fill="#FFB463" width="55" height="7"/>
			<rect x="351" y="143.914" fill="#F8ECD2" width="99" height="7"/>
			<path fill="#5D5D5D" d="M384.563,117.914h-0.96c-3.533,0-6.604,3.793-6.604,8.201v7.799h14v-7.799
				C391,121.707,388.097,117.914,384.563,117.914z"/>
		</g>
		<path fill="#FFD9A8" d="M183,271.914h43l83-120.167c0,0,11-17.833,32.5-17.833H384v26h-43c0,0-14-0.017-29,26.283
			s-75.333,112.717-75.333,112.717H180L183,271.914z"/>
		<path fill="#FFB463" d="M198,280.914h43l83-120.167c0,0,11-17.833,32.5-17.833H384v26h-28c0,0-14-0.017-29,26.283
			s-75.333,112.717-75.333,112.717H195L198,280.914z"/>
		<rect x="134" y="239.914" fill="#FFB463" width="78" height="135"/>
		<rect x="55" y="239.914" fill="#FFD9A8" width="98" height="135"/>
		<rect x="55" y="265.914" fill="#FFB463" width="98" height="12"/>
		<rect x="93" y="230.914" fill="#FFD9A8" width="21" height="29"/>
		<rect x="55" y="230.914" fill="#FFD9A8" width="21" height="29"/>
		<rect x="132" y="230.914" fill="#FFD9A8" width="21" height="29"/>
		<rect x="191" y="230.914" fill="#FFB463" width="21" height="29"/>
		<rect x="153" y="230.914" fill="#FFB463" width="21" height="29"/>
		<rect x="44" y="259.914" fill="#F8ECD2" width="177" height="12"/>
		<rect x="55" y="337.914" fill="#FFB463" width="98" height="12"/>
		<rect x="44" y="331.914" fill="#F8ECD2" width="177" height="12"/>
		<polygon fill="#FFD9A8" points="153,319.914 213.175,319.914 437,511.914 369,511.914 160.548,338.932 		"/>
		<path fill="#5D5D5D" d="M186.25,284.914h-1.716c-6.317,0-11.534,6.418-11.534,14.299v14.701h25v-14.701
			C198,291.332,192.567,284.914,186.25,284.914z"/>
		<polygon fill="#FFB463" points="153,319.639 369,511.914 295,511.914 153,374.345 		"/>
	</g>
	<g id="Stonehenge">
	</g>
	<g id="Golden_Gate_Bridge">
	</g>
	<g id="Christ_the_Redeemer">
	</g>
	<g id="Statue_of_Liberty">
	</g>
	<g id="Taj_Mahal">
	</g>
	<g id="Eiffel_tower">
	</g>
</g>
<g id="camping">
	<g id="mug">
	</g>
	<g id="hook">
	</g>
	<g id="Swiss_knife">
	</g>
	<g id="flashlight">
	</g>
	<g id="lantern">
	</g>
	<g id="campfire">
	</g>
	<g id="beanie">
	</g>
	<g id="rope">
	</g>
	<g id="boot">
	</g>
	<g id="axe">
	</g>
</g>
<g id="hotel_1_">
	<g id="towel">
	</g>
	<g id="phone">
	</g>
	<g id="pool">
	</g>
	<g id="food_service">
	</g>
	<g id="wifi">
	</g>
	<g id="bed">
	</g>
	<g id="door">
	</g>
	<g id="key">
	</g>
	<g id="do_not_disturb">
	</g>
	<g id="bell">
	</g>
</g>
<g id="winter">
	<g id="snowman">
	</g>
	<g id="snow_mountain">
	</g>
	<g id="reindeer">
	</g>
	<g id="winter_tree">
	</g>
	<g id="lift">
	</g>
	<g id="beanie__x26__google">
	</g>
	<g id="ski">
	</g>
	<g id="snowboard">
	</g>
	<g id="snowboading">
	</g>
	<g id="skiing">
	</g>
</g>
<g id="general_travelling">
	<g id="dinner_set">
	</g>
	<g id="polaroid">
	</g>
	<g id="camera">
	</g>
	<g id="calendar">
	</g>
	<g id="calendar_single">
	</g>
	<g id="shopping_bag">
	</g>
	<g id="watch">
	</g>
	<g id="alarm_clock">
	</g>
	<g id="credit_card">
	</g>
	<g id="road_sign">
	</g>
	<g id="hotel">
	</g>
	<g id="money">
	</g>
	<g id="sunglass">
	</g>
	<g id="cocktail">
	</g>
	<g id="compass">
	</g>
	<g id="tent">
	</g>
	<g id="backpack">
	</g>
	<g id="map">
	</g>
	<g id="ticket_1_">
	</g>
	<g id="passport">
	</g>
	<g id="luggage">
	</g>
	<g id="globe">
	</g>
	<g id="suitcase">
	</g>
</g>
<g id="vehicles">
	<g id="trailer">
	</g>
	<g id="airplane">
	</g>
	<g id="yatch">
	</g>
	<g id="taxi">
	</g>
	<g id="hot_air_ballon">
	</g>
	<g id="bus">
	</g>
	<g id="train">
	</g>
</g>
<g id="summer">
	<g id="postcard">
	</g>
	<g id="bikini">
	</g>
	<g id="flipflop">
	</g>
	<g id="plane_around_the_globe">
	</g>
	<g id="binocular">
	</g>
	<g id="beach_table">
	</g>
	<g id="sun_hat">
	</g>
	<g id="beach_bag">
	</g>
	<g id="sea__x26__wave">
	</g>
	<g id="beach">
	</g>
	<g id="beach_ball">
	</g>
	<g id="jetski">
	</g>
	<g id="sandcastle">
	</g>
	<g id="lifeguard_male">
	</g>
	<g id="lifeguard_female">
	</g>
	<g id="lighthouse">
	</g>
	<g id="hammok">
	</g>
	<g id="beach_chair__x26__umbrella">
	</g>
	<g id="lifeguard">
	</g>
	<g id="suncream">
	</g>
	<g id="starfish">
	</g>
	<g id="beach_bar">
	</g>
	<g id="bucket__x26__shovel">
	</g>
	<g id="palm_tree">
	</g>
	<g id="shark_warning">
	</g>
	<g id="surfboard">
	</g>
	<g id="swimming_trunks">
	</g>
	<g id="coconut_drink">
	</g>
	<g id="beach_chair__x26__towel">
	</g>
	<g id="coconut_tree">
	</g>
</g>
</svg>
