<?xml version="1.0" encoding="utf-8"?>
<!-- Generator: Adobe Illustrator 17.0.0, SVG Export Plug-In . SVG Version: 6.00 Build 0)  -->
<!DOCTYPE svg PUBLIC "-//W3C//DTD SVG 1.1//EN" "http://www.w3.org/Graphics/SVG/1.1/DTD/svg11.dtd">
<svg version="1.1" xmlns="http://www.w3.org/2000/svg" xmlns:xlink="http://www.w3.org/1999/xlink" x="0px" y="0px" width="512px"
	 height="512px" viewBox="0 0 512 512" enable-background="new 0 0 512 512" xml:space="preserve">
<g id="famous_places">
	<g id="Pyramid">
	</g>
	<g id="Colloseum">
	</g>
	<g id="Mount_Fuji">
	</g>
	<g id="Great_Wall_of_China">
	</g>
	<g id="Stonehenge">
	</g>
	<g id="Golden_Gate_Bridge">
	</g>
	<g id="Christ_the_Redeemer">
	</g>
	<g id="Statue_of_Liberty">
	</g>
	<g id="Taj_Mahal">
	</g>
	<g id="Eiffel_tower">
	</g>
</g>
<g id="camping">
	<g id="mug">
	</g>
	<g id="hook">
	</g>
	<g id="Swiss_knife">
	</g>
	<g id="flashlight">
	</g>
	<g id="lantern">
	</g>
	<g id="campfire">
	</g>
	<g id="beanie">
	</g>
	<g id="rope">
		<g>
			<g>
				<g>
					<g>
						<path fill="#FFD161" stroke="#FF9B29" stroke-width="5" stroke-linecap="round" stroke-miterlimit="10" d="M150.228,160.247
							c-2.034-2.033-3.003-5.038-2.306-8.046c1.075-4.635,5.705-7.52,10.34-6.445c21.389,4.963,36.086,17.148,45.73,28.895
							c-1.229-25.515-7.763-60.133-31.115-69.738c-4.398-1.811-6.5-6.844-4.69-11.245c1.81-4.4,6.844-6.5,11.245-4.69
							c21.239,8.734,35.068,31.57,39.982,66.038c3.42,23.97,1.604,48.071,0.357,52.062c-1.114,3.564-4.396,6.005-8.13,6.044
							c-3.733,0.041-7.068-2.329-8.259-5.868c-0.5-1.455-12.851-36.324-49.015-44.714
							C152.74,162.163,151.328,161.347,150.228,160.247z"/>
					</g>
				</g>
				<g>
					<defs>
						<path id="SVGID_7_" d="M150.228,160.247c-2.034-2.033-3.003-5.038-2.306-8.046c1.075-4.635,5.705-7.52,10.34-6.445
							c21.389,4.963,36.086,17.148,45.73,28.895c-1.229-25.515-7.763-60.133-31.115-69.738c-4.398-1.811-6.5-6.844-4.69-11.245
							c1.81-4.4,6.844-6.5,11.245-4.69c21.239,8.734,35.068,31.57,39.982,66.038c3.42,23.97,1.604,48.071,0.357,52.062
							c-1.114,3.564-4.396,6.005-8.13,6.044c-3.733,0.041-7.068-2.329-8.259-5.868c-0.5-1.455-12.851-36.324-49.015-44.714
							C152.74,162.163,151.328,161.347,150.228,160.247z"/>
					</defs>
					<clipPath id="SVGID_2_">
						<use xlink:href="#SVGID_7_"  overflow="visible"/>
					</clipPath>
					
						<line clip-path="url(#SVGID_2_)" fill="none" stroke="#FF9B29" stroke-width="3" stroke-linecap="round" stroke-miterlimit="10" x1="196.192" y1="29.84" x2="150.072" y2="221.609"/>
					
						<line clip-path="url(#SVGID_2_)" fill="none" stroke="#FF9B29" stroke-width="3" stroke-linecap="round" stroke-miterlimit="10" x1="233.302" y1="27.611" x2="173.434" y2="268.701"/>
				</g>
				<g>
					<g>
						<path fill="#FFD161" stroke="#FF9B29" stroke-width="5" stroke-linecap="round" stroke-miterlimit="10" d="M391.784,120.079
							c-41.675-41.675-109.486-41.676-151.162-0.001c-21.323,21.323-28.918,52.223-22.573,91.841
							c3.439,21.466,10.083,39.238,10.828,41.193l8.249,21.624l21.621,8.248c1.954,0.746,19.709,7.386,41.196,10.829
							c39.617,6.345,70.517-1.25,91.84-22.573C433.459,229.565,433.459,161.755,391.784,120.079z M302.669,276.8
							c-19.752-3.165-35.99-9.231-37.776-9.913l-14.417-5.499l-5.499-14.416c-0.682-1.787-6.749-18.025-9.913-37.778
							c-5.422-33.853,0.547-59.736,17.743-76.932c34.957-34.957,91.837-34.957,126.794,0.001c34.957,34.957,34.957,91.837,0,126.794
							C362.405,276.252,336.521,282.221,302.669,276.8z"/>
						<path fill="#FFD161" stroke="#FF9B29" stroke-width="5" stroke-linecap="round" stroke-miterlimit="10" d="M379.6,132.263
							c-34.958-34.958-91.837-34.958-126.794-0.001c-17.195,17.195-23.165,43.079-17.743,76.932
							c3.164,19.753,9.231,35.99,9.913,37.778l5.499,14.416l14.417,5.499c1.786,0.682,18.024,6.748,37.776,9.913
							c33.852,5.421,59.736-0.548,76.931-17.743C414.557,224.1,414.557,167.22,379.6,132.263z M305.394,259.786
							c-18.364-2.942-33.717-8.752-34.362-8.998l-7.208-2.75l-2.75-7.208c-0.246-0.644-6.056-15.997-8.999-34.362
							c-4.499-28.087-0.155-48.954,12.913-62.022c28.239-28.239,74.187-28.239,102.427,0.001c28.239,28.239,28.239,74.187,0,102.426
							C354.348,259.941,333.481,264.285,305.394,259.786z"/>
						<path fill="#FFD161" stroke="#FF9B29" stroke-width="5" stroke-linecap="round" stroke-miterlimit="10" d="M367.416,144.447
							c-28.239-28.239-74.188-28.239-102.427-0.001c-13.068,13.068-17.412,33.935-12.913,62.022
							c2.942,18.365,8.753,33.718,8.999,34.362l2.75,7.208l7.208,2.75c0.644,0.246,15.997,6.056,34.362,8.998
							c28.087,4.499,48.954,0.155,62.022-12.913C395.655,218.634,395.655,172.685,367.416,144.447z M277.174,234.689
							c0,0-21.555-56.503,0-78.059c21.555-21.555,56.503-21.555,78.059,0s21.555,56.503,0,78.059
							C333.677,256.244,277.174,234.689,277.174,234.689z"/>
					</g>
					<g>
						<path fill="#FFD161" stroke="#FF9B29" stroke-width="5" stroke-linecap="round" stroke-miterlimit="10" d="M120.216,391.646
							c41.675,41.675,109.486,41.676,151.162,0.001c21.323-21.323,28.918-52.223,22.573-91.841
							c-3.439-21.466-10.083-39.238-10.828-41.193l-8.249-21.624l-21.621-8.248c-1.954-0.746-19.709-7.386-41.196-10.829
							c-39.617-6.345-70.517,1.25-91.84,22.573C78.541,282.16,78.541,349.97,120.216,391.646z M209.331,234.925
							c19.752,3.165,35.99,9.231,37.776,9.913l14.417,5.499l5.499,14.416c0.682,1.787,6.749,18.025,9.913,37.777
							c5.422,33.853-0.547,59.736-17.743,76.932c-34.957,34.957-91.837,34.957-126.794-0.001
							c-34.957-34.957-34.957-91.837,0-126.794C149.595,235.473,175.479,229.504,209.331,234.925z"/>
						<path fill="#FFD161" stroke="#FF9B29" stroke-width="5" stroke-linecap="round" stroke-miterlimit="10" d="M132.4,379.462
							c34.958,34.958,91.837,34.958,126.794,0.001c17.195-17.195,23.165-43.079,17.743-76.932
							c-3.164-19.753-9.231-35.99-9.913-37.777l-5.499-14.416l-14.417-5.499c-1.786-0.682-18.024-6.748-37.776-9.913
							c-33.852-5.421-59.736,0.548-76.931,17.743C97.443,287.626,97.443,344.505,132.4,379.462z M206.606,251.939
							c18.364,2.942,33.717,8.752,34.362,8.998l7.208,2.75l2.75,7.208c0.246,0.644,6.056,15.997,8.999,34.362
							c4.499,28.087,0.155,48.954-12.913,62.022c-28.239,28.239-74.187,28.239-102.427-0.001
							c-28.239-28.239-28.239-74.187,0-102.426C157.651,251.784,178.519,247.44,206.606,251.939z"/>
						<path fill="#FFD161" stroke="#FF9B29" stroke-width="5" stroke-linecap="round" stroke-miterlimit="10" d="M144.584,367.278
							c28.239,28.239,74.188,28.239,102.427,0.001c13.068-13.068,17.412-33.935,12.913-62.022
							c-2.942-18.365-8.753-33.718-8.999-34.362l-2.75-7.208l-7.208-2.75c-0.644-0.246-15.997-6.056-34.362-8.998
							c-28.087-4.499-48.954-0.155-62.022,12.913C116.345,293.091,116.345,339.04,144.584,367.278z M234.826,277.036
							c0,0,21.555,56.503,0,78.059c-21.555,21.555-56.503,21.555-78.059,0s-21.555-56.503,0-78.059
							C178.323,255.481,234.826,277.036,234.826,277.036z"/>
					</g>
				</g>
				<g>
					<defs>
						<path id="SVGID_9_" d="M293.951,299.806c-0.399-2.493-0.843-4.933-1.315-7.307c2.374,0.471,4.815,0.915,7.309,1.315
							c39.617,6.345,70.517-1.25,91.84-22.573c41.675-41.675,41.675-109.486,0-151.161s-109.486-41.676-151.162-0.001
							c-21.323,21.323-28.918,52.223-22.573,91.841c0.399,2.493,0.843,4.933,1.315,7.308c-2.374-0.471-4.815-0.915-7.309-1.315
							c-39.617-6.345-70.517,1.25-91.84,22.573c-41.675,41.675-41.675,109.486,0,151.161s109.486,41.676,151.161,0.001
							C292.701,370.323,300.296,339.423,293.951,299.806z M277.174,156.63c21.555-21.555,56.503-21.555,78.058,0
							c21.555,21.555,21.555,56.503,0,78.058c-21.555,21.555-78.059,0-78.059,0S255.618,178.186,277.174,156.63z M156.768,355.095
							c-21.555-21.555-21.555-56.503,0-78.058c21.556-21.556,78.059,0,78.059,0s21.555,56.503,0,78.059
							C213.271,376.65,178.323,376.65,156.768,355.095z"/>
					</defs>
					<clipPath id="SVGID_4_">
						<use xlink:href="#SVGID_9_"  overflow="visible"/>
					</clipPath>
					<g clip-path="url(#SVGID_4_)">
						
							<line fill="none" stroke="#FF9B29" stroke-width="3" stroke-linecap="round" stroke-miterlimit="10" x1="416.326" y1="94.67" x2="105.199" y2="405.797"/>
						
							<line fill="none" stroke="#FF9B29" stroke-width="3" stroke-linecap="round" stroke-miterlimit="10" x1="371.47" y1="60.415" x2="151.47" y2="441.466"/>
						
							<line fill="none" stroke="#FF9B29" stroke-width="3" stroke-linecap="round" stroke-miterlimit="10" x1="318.41" y1="38.437" x2="204.53" y2="463.444"/>
						
							<line fill="none" stroke="#FF9B29" stroke-width="3" stroke-linecap="round" stroke-miterlimit="10" x1="261.5" y1="30.567" x2="261.5" y2="470.568"/>
						
							<line fill="none" stroke="#FF9B29" stroke-width="3" stroke-linecap="round" stroke-miterlimit="10" x1="204.53" y1="38.437" x2="318.41" y2="463.444"/>
						
							<line fill="none" stroke="#FF9B29" stroke-width="3" stroke-linecap="round" stroke-miterlimit="10" x1="151.47" y1="60.415" x2="371.47" y2="441.466"/>
						
							<line fill="none" stroke="#FF9B29" stroke-width="3" stroke-linecap="round" stroke-miterlimit="10" x1="105.199" y1="96.791" x2="416.326" y2="407.918"/>
						
							<line fill="none" stroke="#FF9B29" stroke-width="3" stroke-linecap="round" stroke-miterlimit="10" x1="71.127" y1="141.624" x2="452.178" y2="361.624"/>
						
							<line fill="none" stroke="#FF9B29" stroke-width="3" stroke-linecap="round" stroke-miterlimit="10" x1="49.32" y1="194.613" x2="474.327" y2="308.493"/>
						
							<line fill="none" stroke="#FF9B29" stroke-width="3" stroke-linecap="round" stroke-miterlimit="10" x1="42" y1="251.068" x2="482" y2="251.068"/>
						
							<line fill="none" stroke="#FF9B29" stroke-width="3" stroke-linecap="round" stroke-miterlimit="10" x1="49.579" y1="308.234" x2="474.586" y2="194.354"/>
						
							<line fill="none" stroke="#FF9B29" stroke-width="3" stroke-linecap="round" stroke-miterlimit="10" x1="71.627" y1="361.124" x2="452.678" y2="141.124"/>
					</g>
				</g>
				<path fill="#FFD161" stroke="#FF9B29" stroke-width="5" stroke-linecap="round" stroke-miterlimit="10" d="M328.289,316.761
					L195.486,183.957c-3.364-3.364-3.364-8.819,0-12.184h0c3.364-3.364,8.819-3.364,12.184,0l132.803,132.803
					c3.364,3.364,3.364,8.819,0,12.184l0,0C337.109,320.125,331.654,320.125,328.289,316.761z"/>
				<path fill="#FFD161" stroke="#FF9B29" stroke-width="5" stroke-linecap="round" stroke-miterlimit="10" d="M316.215,328.835
					L183.411,196.032c-3.364-3.364-3.364-8.819,0-12.184l0,0c3.364-3.364,8.819-3.364,12.184,0l132.803,132.803
					c3.364,3.364,3.364,8.819,0,12.184l0,0C325.034,332.2,319.579,332.2,316.215,328.835z"/>
				<path fill="#FFD161" stroke="#FF9B29" stroke-width="5" stroke-linecap="round" stroke-miterlimit="10" d="M304.031,341.019
					L171.228,208.216c-3.364-3.364-3.364-8.819,0-12.184h0c3.364-3.364,8.819-3.364,12.184,0l132.803,132.803
					c3.364,3.364,3.364,8.819,0,12.184v0C312.85,344.384,307.396,344.384,304.031,341.019z"/>
			</g>
			<g>
				<defs>
					<path id="SVGID_11_" d="M328.399,328.451c3.102-3.102,3.337-7.976,0.72-11.355c3.379,2.616,8.179,2.456,11.281-0.646
						c3.365-3.365,3.291-8.745-0.074-12.11L207.522,171.537c-3.364-3.364-8.745-3.439-12.11-0.074
						c-3.102,3.102-3.299,7.938-0.683,11.318c-3.379-2.617-8.235-2.4-11.336,0.701c-3.364,3.364-3.355,8.81,0.009,12.175
						c-3.364-3.364-9.052-3.132-12.417,0.233l0,0c-3.364,3.364-3.597,9.052-0.233,12.417L303.556,341.11
						c3.364,3.364,9.057,3.127,12.421-0.238l0,0c3.365-3.365,3.483-8.938,0.119-12.303
						C319.46,331.934,325.034,331.815,328.399,328.451z"/>
				</defs>
				<clipPath id="SVGID_6_">
					<use xlink:href="#SVGID_11_"  overflow="visible"/>
				</clipPath>
				<g clip-path="url(#SVGID_6_)">
					
						<line fill="none" stroke="#FF9B29" stroke-width="3" stroke-linecap="round" stroke-miterlimit="10" x1="214.404" y1="165.007" x2="184.749" y2="254.358"/>
					
						<line fill="none" stroke="#FF9B29" stroke-width="3" stroke-linecap="round" stroke-miterlimit="10" x1="236.183" y1="186.786" x2="206.528" y2="276.137"/>
					
						<line fill="none" stroke="#FF9B29" stroke-width="3" stroke-linecap="round" stroke-miterlimit="10" x1="257.962" y1="208.565" x2="228.307" y2="297.916"/>
					
						<line fill="none" stroke="#FF9B29" stroke-width="3" stroke-linecap="round" stroke-miterlimit="10" x1="279.741" y1="230.344" x2="250.085" y2="319.695"/>
					
						<line fill="none" stroke="#FF9B29" stroke-width="3" stroke-linecap="round" stroke-miterlimit="10" x1="301.52" y1="252.123" x2="271.864" y2="341.474"/>
					
						<line fill="none" stroke="#FF9B29" stroke-width="3" stroke-linecap="round" stroke-miterlimit="10" x1="323.299" y1="273.901" x2="293.643" y2="363.253"/>
				</g>
			</g>
		</g>
	</g>
	<g id="boot">
	</g>
	<g id="axe">
	</g>
</g>
<g id="hotel_1_">
	<g id="towel">
	</g>
	<g id="phone">
	</g>
	<g id="pool">
	</g>
	<g id="food_service">
	</g>
	<g id="wifi">
	</g>
	<g id="bed">
	</g>
	<g id="door">
	</g>
	<g id="key">
	</g>
	<g id="do_not_disturb">
	</g>
	<g id="bell">
	</g>
</g>
<g id="winter">
	<g id="snowman">
	</g>
	<g id="snow_mountain">
	</g>
	<g id="reindeer">
	</g>
	<g id="winter_tree">
	</g>
	<g id="lift">
	</g>
	<g id="beanie__x26__google">
	</g>
	<g id="ski">
	</g>
	<g id="snowboard">
	</g>
	<g id="snowboading">
	</g>
	<g id="skiing">
	</g>
</g>
<g id="general_travelling">
	<g id="dinner_set">
	</g>
	<g id="polaroid">
	</g>
	<g id="camera">
	</g>
	<g id="calendar">
	</g>
	<g id="calendar_single">
	</g>
	<g id="shopping_bag">
	</g>
	<g id="watch">
	</g>
	<g id="alarm_clock">
	</g>
	<g id="credit_card">
	</g>
	<g id="road_sign">
	</g>
	<g id="hotel">
	</g>
	<g id="money">
	</g>
	<g id="sunglass">
	</g>
	<g id="cocktail">
	</g>
	<g id="compass">
	</g>
	<g id="tent">
	</g>
	<g id="backpack">
	</g>
	<g id="map">
	</g>
	<g id="ticket_1_">
	</g>
	<g id="passport">
	</g>
	<g id="luggage">
	</g>
	<g id="globe">
	</g>
	<g id="suitcase">
	</g>
</g>
<g id="vehicles">
	<g id="trailer">
	</g>
	<g id="airplane">
	</g>
	<g id="yatch">
	</g>
	<g id="taxi">
	</g>
	<g id="hot_air_ballon">
	</g>
	<g id="bus">
	</g>
	<g id="train">
	</g>
</g>
<g id="summer">
	<g id="postcard">
	</g>
	<g id="bikini">
	</g>
	<g id="flipflop">
	</g>
	<g id="plane_around_the_globe">
	</g>
	<g id="binocular">
	</g>
	<g id="beach_table">
	</g>
	<g id="sun_hat">
	</g>
	<g id="beach_bag">
	</g>
	<g id="sea__x26__wave">
	</g>
	<g id="beach">
	</g>
	<g id="beach_ball">
	</g>
	<g id="jetski">
	</g>
	<g id="sandcastle">
	</g>
	<g id="lifeguard_male">
	</g>
	<g id="lifeguard_female">
	</g>
	<g id="lighthouse">
	</g>
	<g id="hammok">
	</g>
	<g id="beach_chair__x26__umbrella">
	</g>
	<g id="lifeguard">
	</g>
	<g id="suncream">
	</g>
	<g id="starfish">
	</g>
	<g id="beach_bar">
	</g>
	<g id="bucket__x26__shovel">
	</g>
	<g id="palm_tree">
	</g>
	<g id="shark_warning">
	</g>
	<g id="surfboard">
	</g>
	<g id="swimming_trunks">
	</g>
	<g id="coconut_drink">
	</g>
	<g id="beach_chair__x26__towel">
	</g>
	<g id="coconut_tree">
	</g>
</g>
</svg>
