<?xml version="1.0" encoding="utf-8"?>
<!-- Generator: Adobe Illustrator 17.0.0, SVG Export Plug-In . SVG Version: 6.00 Build 0)  -->
<!DOCTYPE svg PUBLIC "-//W3C//DTD SVG 1.1//EN" "http://www.w3.org/Graphics/SVG/1.1/DTD/svg11.dtd">
<svg version="1.1" xmlns="http://www.w3.org/2000/svg" xmlns:xlink="http://www.w3.org/1999/xlink" x="0px" y="0px" width="512px"
	 height="512px" viewBox="0 0 512 512" enable-background="new 0 0 512 512" xml:space="preserve">
<g id="famous_places">
	<g id="Pyramid">
	</g>
	<g id="Colloseum">
	</g>
	<g id="Mount_Fuji">
	</g>
	<g id="Great_Wall_of_China">
	</g>
	<g id="Stonehenge">
	</g>
	<g id="Golden_Gate_Bridge">
	</g>
	<g id="Christ_the_Redeemer">
	</g>
	<g id="Statue_of_Liberty">
	</g>
	<g id="Taj_Mahal">
	</g>
	<g id="Eiffel_tower">
	</g>
</g>
<g id="camping">
	<g id="mug">
	</g>
	<g id="hook">
	</g>
	<g id="Swiss_knife">
	</g>
	<g id="flashlight">
	</g>
	<g id="lantern">
	</g>
	<g id="campfire">
	</g>
	<g id="beanie">
	</g>
	<g id="rope">
	</g>
	<g id="boot">
	</g>
	<g id="axe">
	</g>
</g>
<g id="hotel_1_">
	<g id="towel">
	</g>
	<g id="phone">
	</g>
	<g id="pool">
	</g>
	<g id="food_service">
	</g>
	<g id="wifi">
	</g>
	<g id="bed">
	</g>
	<g id="door">
	</g>
	<g id="key">
	</g>
	<g id="do_not_disturb">
	</g>
	<g id="bell">
	</g>
</g>
<g id="winter">
	<g id="snowman">
	</g>
	<g id="snow_mountain">
	</g>
	<g id="reindeer">
	</g>
	<g id="winter_tree">
	</g>
	<g id="lift">
	</g>
	<g id="beanie__x26__google">
	</g>
	<g id="ski">
	</g>
	<g id="snowboard">
	</g>
	<g id="snowboading">
	</g>
	<g id="skiing">
	</g>
</g>
<g id="general_travelling">
	<g id="dinner_set">
	</g>
	<g id="polaroid">
	</g>
	<g id="camera">
	</g>
	<g id="calendar">
	</g>
	<g id="calendar_single">
	</g>
	<g id="shopping_bag">
	</g>
	<g id="watch">
	</g>
	<g id="alarm_clock">
	</g>
	<g id="credit_card">
	</g>
	<g id="road_sign">
	</g>
	<g id="hotel">
	</g>
	<g id="money">
	</g>
	<g id="sunglass">
	</g>
	<g id="cocktail">
	</g>
	<g id="compass">
	</g>
	<g id="tent">
	</g>
	<g id="backpack">
	</g>
	<g id="map">
	</g>
	<g id="ticket_1_">
	</g>
	<g id="passport">
	</g>
	<g id="luggage">
	</g>
	<g id="globe">
	</g>
	<g id="suitcase">
	</g>
</g>
<g id="vehicles">
	<g id="trailer">
	</g>
	<g id="airplane">
	</g>
	<g id="yatch">
	</g>
	<g id="taxi">
	</g>
	<g id="hot_air_ballon">
	</g>
	<g id="bus">
	</g>
	<g id="train">
	</g>
</g>
<g id="summer">
	<g id="postcard">
	</g>
	<g id="bikini">
	</g>
	<g id="flipflop">
	</g>
	<g id="plane_around_the_globe">
	</g>
	<g id="binocular">
	</g>
	<g id="beach_table">
	</g>
	<g id="sun_hat">
	</g>
	<g id="beach_bag">
	</g>
	<g id="sea__x26__wave">
	</g>
	<g id="beach">
	</g>
	<g id="beach_ball">
	</g>
	<g id="jetski">
	</g>
	<g id="sandcastle">
	</g>
	<g id="lifeguard_male">
	</g>
	<g id="lifeguard_female">
	</g>
	<g id="lighthouse">
	</g>
	<g id="hammok">
		<g>
			<g>
				<path fill="#6E4224" d="M376.381,213.435c0,0-3.367,178.537-26.628,211.519h54.887c0,0,2.585-155.686-19.846-208.347
					L376.381,213.435z"/>
				<path fill="#8A532D" d="M393.663,424.953h-43.91c20.067-28.453,25.328-165.228,26.394-202.254
					C396.064,280.301,393.663,424.953,393.663,424.953z"/>
				<path fill="#4FB463" d="M258.613,243.291c0,0,42.482-64.174,118.659-25.78l-20.26,30.475l-16.03,2.238l6.668-17.273
					l-27.221,20.142l-11.508,1.606l8.271-24.795l-29.57,28.314L258.613,243.291z"/>
				<path fill="#4FB463" d="M384.881,217.311c0,0,75.724,16.809,98.215,53.895l-15.263,5.534l-16.828-6.344l-3.662-20.877
					l-10.242,27.167l-17.568-8.545l0.561-22.816l-8.235,21.845l-7.323-13.714L384.881,217.311z"/>
				<path fill="#4FB463" d="M321.947,112.551c8.077-6.132,46.026,38.273,55.586,107.583l-33.206-39.998l10.135-13.188
					l-32.515-13.689V112.551z"/>
				<path fill="#4FB463" d="M493.977,142.414c0,0-99.753-22.195-117.596,71.021l8.229,8.892l36.914-7.624l-9.544-21.408
					l26.925,10.15l4.626-19.238l26.017-5.966l12.873-4.592L493.977,142.414z"/>
				
					<line fill="none" stroke="#6E4224" stroke-width="4" stroke-linecap="round" stroke-linejoin="round" stroke-miterlimit="10" x1="394.051" y1="268.981" x2="376.67" y2="268.981"/>
				
					<line fill="none" stroke="#6E4224" stroke-width="4" stroke-linecap="round" stroke-linejoin="round" stroke-miterlimit="10" x1="394.051" y1="311.976" x2="378.5" y2="311.976"/>
				
					<line fill="none" stroke="#6E4224" stroke-width="4" stroke-linecap="round" stroke-linejoin="round" stroke-miterlimit="10" x1="397.71" y1="345.823" x2="377.585" y2="345.823"/>
				
					<line fill="none" stroke="#6E4224" stroke-width="4" stroke-linecap="round" stroke-linejoin="round" stroke-miterlimit="10" x1="397.71" y1="386.989" x2="377.585" y2="386.989"/>
				
					<line fill="none" stroke="#6E4224" stroke-width="4" stroke-linecap="round" stroke-linejoin="round" stroke-miterlimit="10" x1="400.455" y1="414.432" x2="365.693" y2="414.432"/>
			</g>
			<g>
				<path fill="#6E4224" d="M135.619,213.435c0,0,3.367,178.537,26.628,211.519h-54.887c0,0-2.585-155.686,19.846-208.347
					L135.619,213.435z"/>
				<path fill="#8A532D" d="M118.337,424.953h43.91c-20.067-28.453-25.328-165.228-26.394-202.254
					C115.936,280.301,118.337,424.953,118.337,424.953z"/>
				<path fill="#4FB463" d="M253.387,243.291c0,0-42.482-64.174-118.659-25.78l20.26,30.475l16.03,2.238l-6.668-17.273
					l27.221,20.142l11.508,1.606l-8.271-24.795l29.57,28.314L253.387,243.291z"/>
				<path fill="#4FB463" d="M127.119,217.311c0,0-75.724,16.809-98.215,53.895l15.263,5.534l16.828-6.344l3.662-20.877
					l10.242,27.167l17.568-8.545l-0.561-22.816l8.235,21.845l7.323-13.714L127.119,217.311z"/>
				<path fill="#4FB463" d="M190.053,112.551c-8.077-6.132-46.026,38.273-55.586,107.583l33.206-39.998l-10.135-13.188
					l32.515-13.689V112.551z"/>
				<path fill="#4FB463" d="M18.023,142.414c0,0,99.753-22.195,117.596,71.021l-8.229,8.892l-36.914-7.624l9.544-21.408
					l-26.925,10.15l-4.626-19.238l-26.017-5.966l-12.873-4.592L18.023,142.414z"/>
				
					<line fill="none" stroke="#6E4224" stroke-width="4" stroke-linecap="round" stroke-linejoin="round" stroke-miterlimit="10" x1="117.949" y1="268.981" x2="135.33" y2="268.981"/>
				
					<line fill="none" stroke="#6E4224" stroke-width="4" stroke-linecap="round" stroke-linejoin="round" stroke-miterlimit="10" x1="117.949" y1="311.976" x2="133.5" y2="311.976"/>
				
					<line fill="none" stroke="#6E4224" stroke-width="4" stroke-linecap="round" stroke-linejoin="round" stroke-miterlimit="10" x1="114.29" y1="345.823" x2="134.415" y2="345.823"/>
				
					<line fill="none" stroke="#6E4224" stroke-width="4" stroke-linecap="round" stroke-linejoin="round" stroke-miterlimit="10" x1="114.29" y1="386.989" x2="134.415" y2="386.989"/>
				
					<line fill="none" stroke="#6E4224" stroke-width="4" stroke-linecap="round" stroke-linejoin="round" stroke-miterlimit="10" x1="111.545" y1="414.432" x2="146.307" y2="414.432"/>
			</g>
			<g>
				<path fill="#FFD162" d="M352.588,291.799c-0.86-0.157-1.683,0.346-1.946,1.17c-11.803,37.082-36.967,54.728-56,63
					c-20.547,8.93-38.597,9.197-39.068,9.202c-0.471-0.005-18.521-0.272-39.068-9.202c-19.032-8.272-44.197-25.917-56-63
					c-0.263-0.824-1.091-1.327-1.946-1.17c-0.85,0.154-1.453,0.917-1.408,1.78c0.014,0.275,1.573,27.808,14.361,54.956
					c11.883,25.228,36.113,55.299,84.06,55.299s72.176-30.071,84.06-55.299c12.788-27.148,14.347-54.681,14.361-54.956
					C354.041,292.716,353.438,291.954,352.588,291.799z"/>
				<g>
					<path fill="none" d="M164.2,307.232c-1.68-3.718-3.14-7.354-4.361-10.85c-0.015-0.043-0.031-0.085-0.046-0.128
						C161.125,300.122,162.601,303.776,164.2,307.232z"/>
					<path fill="none" d="M159.839,296.381c-0.031-0.089-0.061-0.177-0.092-0.266c0.016,0.046,0.03,0.093,0.046,0.138
						C159.808,296.297,159.824,296.338,159.839,296.381z"/>
					<path fill="none" d="M179.14,330.704c-7.961-9.83-14.741-21.269-19.301-34.323c1.221,3.497,2.68,7.133,4.361,10.85
						C168.436,316.39,173.538,324.142,179.14,330.704z"/>
					<path fill="none" d="M351.403,296.115c-0.031,0.089-0.061,0.177-0.092,0.266c0.015-0.043,0.031-0.085,0.046-0.128
						C351.372,296.208,351.387,296.161,351.403,296.115z"/>
					<path fill="none" d="M351.311,296.381c-4.561,13.054-11.34,24.493-19.301,34.323c5.603-6.562,10.704-14.315,14.941-23.474
						C348.63,303.513,350.09,299.878,351.311,296.381z"/>
					<path fill="none" d="M351.356,296.254c-0.015,0.043-0.031,0.085-0.046,0.128c-1.221,3.497-2.68,7.132-4.36,10.849
						C348.549,303.775,350.025,300.121,351.356,296.254z"/>
					<path fill="#FF6650" d="M351.538,295.724c-0.045,0.13-0.09,0.261-0.136,0.392c-0.016,0.046-0.03,0.093-0.046,0.138
						C351.418,296.078,351.478,295.9,351.538,295.724z"/>
					<path fill="#FF6650" d="M352.28,293.49c-0.239,0.751-0.488,1.494-0.742,2.234C351.795,294.973,352.045,294.226,352.28,293.49z"
						/>
					<path fill="#FF6650" d="M352.28,293.49c-0.283,0.889-0.58,1.758-0.877,2.626c0.045-0.131,0.091-0.262,0.136-0.392
						C351.792,294.983,352.041,294.24,352.28,293.49z"/>
					<path fill="#FF6650" d="M255.575,393.309c-68.305,0-90.889-81.546-96.705-99.819c0,0,5.632,108.625,96.705,108.625
						S352.28,293.49,352.28,293.49C346.464,311.762,323.88,393.309,255.575,393.309z"/>
					<path fill="#FF6650" d="M158.87,293.49c0.235,0.737,0.484,1.483,0.742,2.234C159.358,294.983,159.109,294.24,158.87,293.49z"/>
					<path fill="#FF6650" d="M159.747,296.115c-0.298-0.868-0.594-1.737-0.877-2.626c0.239,0.751,0.488,1.494,0.742,2.234
						C159.656,295.854,159.702,295.985,159.747,296.115z"/>
					<path fill="#FF6650" d="M159.793,296.254c-0.016-0.046-0.031-0.093-0.046-0.138c-0.045-0.131-0.091-0.262-0.136-0.392
						C159.672,295.9,159.732,296.078,159.793,296.254z"/>
					<path fill="#FF6650" d="M255.575,384.502c40.097,0,75.538-42.231,91.375-77.271c-4.237,9.159-9.338,16.911-14.941,23.474
						c-24.294,29.997-59.59,44.991-76.435,44.991s-52.141-14.994-76.435-44.991c-5.602-6.562-10.704-14.314-14.94-23.473
						C180.038,342.272,215.478,384.502,255.575,384.502z"/>
				</g>
			</g>
			<g>
				
					<circle fill="none" stroke="#4A4A4A" stroke-width="4" stroke-linecap="round" stroke-linejoin="round" stroke-miterlimit="10" cx="158.233" cy="289.962" r="4.607"/>
				
					<line fill="none" stroke="#4A4A4A" stroke-width="4" stroke-linecap="round" stroke-linejoin="round" stroke-miterlimit="10" x1="158" y1="290.452" x2="109" y2="290.452"/>
			</g>
			<g>
				
					<circle fill="none" stroke="#4A4A4A" stroke-width="4" stroke-linecap="round" stroke-linejoin="round" stroke-miterlimit="10" cx="353.998" cy="289.962" r="4.607"/>
				
					<line fill="none" stroke="#4A4A4A" stroke-width="4" stroke-linecap="round" stroke-linejoin="round" stroke-miterlimit="10" x1="354" y1="290.452" x2="403" y2="290.452"/>
			</g>
		</g>
		<path fill="#FFD161" d="M198.452,429.938c-1.598-1.015-39.409-24.861-63.559-24.861c-24.138,0-62.615,23.835-64.242,24.85
			c-0.926,0.579-1.358,1.701-1.057,2.751c0.301,1.05,1.261,1.774,2.353,1.774H197.14c1.089,0,2.046-0.719,2.35-1.764
			C199.794,431.642,199.371,430.522,198.452,429.938z"/>
		<path fill="#FFD161" d="M436.452,429.938c-1.598-1.015-39.409-24.861-63.559-24.861c-24.138,0-62.615,23.835-64.242,24.85
			c-0.926,0.579-1.358,1.701-1.057,2.751c0.301,1.05,1.261,1.774,2.353,1.774H435.14c1.089,0,2.046-0.719,2.35-1.764
			C437.794,431.642,437.371,430.522,436.452,429.938z"/>
	</g>
	<g id="beach_chair__x26__umbrella">
	</g>
	<g id="lifeguard">
	</g>
	<g id="suncream">
	</g>
	<g id="starfish">
	</g>
	<g id="beach_bar">
	</g>
	<g id="bucket__x26__shovel">
	</g>
	<g id="palm_tree">
	</g>
	<g id="shark_warning">
	</g>
	<g id="surfboard">
	</g>
	<g id="swimming_trunks">
	</g>
	<g id="coconut_drink">
	</g>
	<g id="beach_chair__x26__towel">
	</g>
	<g id="coconut_tree">
	</g>
</g>
</svg>
