<?xml version="1.0" encoding="utf-8"?>
<!-- Generator: Adobe Illustrator 17.0.0, SVG Export Plug-In . SVG Version: 6.00 Build 0)  -->
<!DOCTYPE svg PUBLIC "-//W3C//DTD SVG 1.1//EN" "http://www.w3.org/Graphics/SVG/1.1/DTD/svg11.dtd">
<svg version="1.1" xmlns="http://www.w3.org/2000/svg" xmlns:xlink="http://www.w3.org/1999/xlink" x="0px" y="0px" width="512px"
	 height="512px" viewBox="0 0 512 512" enable-background="new 0 0 512 512" xml:space="preserve">
<g id="famous_places">
	<g id="Pyramid">
	</g>
	<g id="Colloseum">
	</g>
	<g id="Mount_Fuji">
	</g>
	<g id="Great_Wall_of_China">
	</g>
	<g id="Stonehenge">
	</g>
	<g id="Golden_Gate_Bridge">
	</g>
	<g id="Christ_the_Redeemer">
	</g>
	<g id="Statue_of_Liberty">
	</g>
	<g id="Taj_Mahal">
	</g>
	<g id="Eiffel_tower">
	</g>
</g>
<g id="camping">
	<g id="mug">
	</g>
	<g id="hook">
	</g>
	<g id="Swiss_knife">
	</g>
	<g id="flashlight">
	</g>
	<g id="lantern">
	</g>
	<g id="campfire">
	</g>
	<g id="beanie">
	</g>
	<g id="rope">
	</g>
	<g id="boot">
	</g>
	<g id="axe">
	</g>
</g>
<g id="hotel_1_">
	<g id="towel">
	</g>
	<g id="phone">
	</g>
	<g id="pool">
	</g>
	<g id="food_service">
	</g>
	<g id="wifi">
	</g>
	<g id="bed">
	</g>
	<g id="door">
	</g>
	<g id="key">
	</g>
	<g id="do_not_disturb">
		<path fill="#279685" d="M347,127.838c0-24.491-22.095-93.828-92.603-93.828s-89.552,43.637-94.923,63.847
			c-5.371,20.21-12.078,53.637,6.542,53.8s24.267,5.713,31.699-28.732c7.432-34.446,37.094-41.911,52.299-40.648
			c15.205,1.263,60.355,11.336,47.235,73.466s-88.922,64.863-88.922,64.863l-3.174,0.193h-22.718
			c-16.83,0-30.435,14.519-30.435,31.349v195.829c0,16.83,13.605,30.822,30.435,30.822h135.214c16.83,0,29.352-13.992,29.352-30.822
			V265.713v-0.03C347,265.684,347,152.33,347,127.838z"/>
		<g>
			<g>
				<path fill="#2FB49F" d="M182.435,233.799h22.718l3.174-0.193c0,0,75.802-2.733,88.922-64.863
					c2.209-10.46,2.761-19.439,2.087-27.155c-0.343,4.391-1.019,9.098-2.087,14.155c-13.12,62.13-88.922,64.863-88.922,64.863
					l-3.174,0.193h-22.718c-16.83,0-30.435,14.519-30.435,31.349v13C152,248.318,165.605,233.799,182.435,233.799z"/>
				<path fill="#2FB49F" d="M254.397,34.01c-70.507,0-89.552,43.637-94.923,63.847c-3.212,12.084-6.896,28.888-5.363,40.487
					c0.879-9.303,3.224-19.441,5.363-27.487c5.371-20.21,24.415-63.847,94.923-63.847S347,116.347,347,140.838c0-5.463,0-9.93,0-13
					C347,103.347,324.905,34.01,254.397,34.01z"/>
			</g>
		</g>
		<g>
			<path fill="#E3E3E3" d="M195.285,318.475c0,3.304-0.991,6.21-2.973,8.721c-2.511,3.171-6.035,4.757-10.57,4.757h-6.474
				c-1.85,0-3.458-0.595-4.823-1.784c-1.498-1.321-2.246-3.061-2.246-5.219v-32.504c0-1.85,0.594-3.435,1.784-4.757
				c1.365-1.497,3.127-2.246,5.285-2.246h6.474c3.347,0,6.276,0.991,8.787,2.973c3.171,2.467,4.756,5.969,4.756,10.504V318.475z
				 M185.442,294.031c-1.014-0.704-2.246-1.057-3.7-1.057h-5.946v31.447h5.946c2.29,0,3.941-0.77,4.955-2.312
				c0.704-1.013,1.057-2.223,1.057-3.634V298.92C187.754,296.674,186.983,295.045,185.442,294.031z"/>
			<path fill="#E3E3E3" d="M225.674,318.475c0,3.304-0.991,6.21-2.973,8.721c-2.511,3.171-6.035,4.757-10.57,4.757
				c-4.492,0-7.994-1.563-10.504-4.691c-2.026-2.554-3.039-5.483-3.039-8.787V298.92c0-3.259,1.012-6.166,3.039-8.721
				c2.511-3.171,6.012-4.757,10.504-4.757c4.536,0,8.037,1.564,10.504,4.691c2.025,2.555,3.039,5.484,3.039,8.787V318.475z
				 M217.152,295.353c-1.057-1.586-2.731-2.378-5.021-2.378c-2.246,0-3.876,0.771-4.889,2.312c-0.705,1.013-1.057,2.246-1.057,3.7
				v19.423c0,1.453,0.33,2.665,0.991,3.633c0.968,1.586,2.62,2.378,4.955,2.378c2.29,0,3.941-0.77,4.955-2.312
				c0.704-1.013,1.057-2.223,1.057-3.634v-19.489C218.143,297.577,217.813,296.366,217.152,295.353z"/>
			<path fill="#E3E3E3" d="M272.334,328.187c0,1.057-0.363,1.949-1.09,2.676c-0.727,0.727-1.619,1.09-2.676,1.09
				s-1.949-0.364-2.676-1.09c-0.727-0.727-1.09-1.619-1.09-2.676v-29.2c0-1.409-0.33-2.62-0.991-3.633
				c-1.057-1.586-2.731-2.378-5.021-2.378c-2.246,0-3.876,0.771-4.889,2.312c-0.705,1.013-1.057,2.224-1.057,3.634v29.266
				c0,1.057-0.364,1.949-1.09,2.676c-0.727,0.727-1.619,1.09-2.676,1.09s-1.96-0.352-2.709-1.057
				c-0.749-0.704-1.123-1.607-1.123-2.709V298.92c0-3.259,1.012-6.166,3.039-8.721c2.511-3.171,6.012-4.757,10.504-4.757
				c4.536,0,8.037,1.564,10.504,4.691c2.025,2.555,3.039,5.484,3.039,8.787V328.187z"/>
			<path fill="#E3E3E3" d="M302.724,318.475c0,3.304-0.991,6.21-2.973,8.721c-2.511,3.171-6.035,4.757-10.57,4.757
				c-4.492,0-7.994-1.563-10.504-4.691c-2.026-2.554-3.039-5.483-3.039-8.787V298.92c0-3.259,1.012-6.166,3.039-8.721
				c2.511-3.171,6.012-4.757,10.504-4.757c4.536,0,8.037,1.564,10.504,4.691c2.025,2.555,3.039,5.484,3.039,8.787V318.475z
				 M294.201,295.353c-1.057-1.586-2.731-2.378-5.021-2.378c-2.246,0-3.876,0.771-4.889,2.312c-0.705,1.013-1.057,2.246-1.057,3.7
				v19.423c0,1.453,0.33,2.665,0.991,3.633c0.968,1.586,2.62,2.378,4.955,2.378c2.29,0,3.941-0.77,4.955-2.312
				c0.704-1.013,1.057-2.223,1.057-3.634v-19.489C295.192,297.577,294.862,296.366,294.201,295.353z"/>
			<path fill="#E3E3E3" d="M329.711,291.884c-0.727,0.727-1.619,1.09-2.676,1.09h-5.946v35.212c0,1.014-0.375,1.894-1.123,2.643
				c-0.75,0.75-1.652,1.123-2.709,1.123c-1.014,0-1.894-0.352-2.643-1.057c-0.75-0.704-1.123-1.607-1.123-2.709v-35.212h-5.946
				c-1.057,0-1.96-0.352-2.709-1.057c-0.749-0.704-1.123-1.607-1.123-2.709c0-1.012,0.374-1.893,1.123-2.643
				c0.749-0.748,1.652-1.123,2.709-1.123h6.474c1.189,0,2.268,0.243,3.237,0.727c1.057-0.484,2.157-0.727,3.303-0.727h6.475
				c1.057,0,1.949,0.364,2.676,1.09c0.727,0.727,1.09,1.619,1.09,2.676C330.801,290.266,330.438,291.158,329.711,291.884z"/>
			<g>
				<path fill="#E3E3E3" d="M189.151,393.875c0,4.955-0.766,9.315-2.299,13.081c-1.942,4.757-4.668,7.135-8.177,7.135h-5.008
					c-1.431,0-2.675-0.892-3.731-2.675c-1.159-1.982-1.737-4.591-1.737-7.828v-48.754c0-2.775,0.46-5.153,1.38-7.135
					c1.055-2.245,2.419-3.37,4.088-3.37h5.008c2.589,0,4.855,1.487,6.797,4.459c2.453,3.7,3.679,8.953,3.679,15.756V393.875z
					 M181.537,357.211c-0.784-1.056-1.737-1.586-2.862-1.586h-4.599v47.169h4.599c1.771,0,3.049-1.155,3.833-3.468
					c0.545-1.519,0.818-3.335,0.818-5.451v-29.331C183.325,361.175,182.729,358.731,181.537,357.211z"/>
				<path fill="#E3E3E3" d="M205.146,402.794h4.6c0.818,0,1.507,0.545,2.07,1.635c0.562,1.09,0.843,2.427,0.843,4.013
					c0,1.586-0.281,2.924-0.843,4.013c-0.562,1.09-1.252,1.635-2.07,1.635h-5.008c-0.886,0-1.737-0.363-2.555-1.09
					c-0.818,0.727-1.653,1.09-2.504,1.09h-5.008c-0.818,0-1.516-0.528-2.095-1.586c-0.579-1.056-0.868-2.411-0.868-4.063
					c0-1.519,0.289-2.839,0.868-3.964c0.579-1.122,1.278-1.684,2.095-1.684h4.599v-47.169h-4.599c-0.818,0-1.516-0.528-2.095-1.586
					c-0.579-1.056-0.868-2.411-0.868-4.063c0-1.519,0.289-2.839,0.868-3.964c0.579-1.122,1.278-1.685,2.095-1.685h5.008
					c0.818,0,1.652,0.364,2.504,1.091c0.92-0.727,1.771-1.091,2.555-1.091h5.008c0.818,0,1.507,0.545,2.07,1.635
					c0.562,1.09,0.843,2.428,0.843,4.013c0,1.586-0.281,2.924-0.843,4.013c-0.562,1.09-1.252,1.635-2.07,1.635h-4.6V402.794z"/>
				<path fill="#E3E3E3" d="M229.573,359.193c-0.818-2.378-2.113-3.567-3.884-3.567c-1.737,0-2.998,1.156-3.782,3.468
					c-0.545,1.52-0.818,3.336-0.818,5.45c0,2.247,0.255,4.097,0.766,5.549c0.783,2.313,2.061,3.468,3.833,3.468
					c3.508,0,6.217,2.346,8.125,7.036c1.567,3.832,2.351,8.259,2.351,13.278c0,4.955-0.766,9.315-2.299,13.081
					c-1.942,4.757-4.668,7.135-8.177,7.135c-3.475,0-6.183-2.344-8.125-7.036c-1.567-3.831-2.351-8.225-2.351-13.18
					c0-1.586,0.289-2.939,0.868-4.062c0.579-1.123,1.278-1.685,2.095-1.685c0.783,0,1.464,0.562,2.044,1.685
					c0.579,1.124,0.869,2.477,0.869,4.062c0,2.116,0.255,3.899,0.766,5.352c0.749,2.378,2.026,3.567,3.833,3.567
					c1.771,0,3.049-1.155,3.833-3.468c0.545-1.519,0.818-3.335,0.818-5.451c0-2.18-0.256-4.029-0.766-5.549
					c-0.784-2.312-2.079-3.469-3.884-3.469c-3.475,0-6.183-2.344-8.125-7.036c-1.567-3.831-2.351-8.257-2.351-13.278
					c0-4.888,0.783-9.248,2.351-13.081c1.942-4.757,4.65-7.135,8.125-7.135c3.508,0,6.217,2.346,8.125,7.036
					c1.567,3.832,2.351,8.225,2.351,13.18c0,1.586-0.273,2.94-0.818,4.063c-0.545,1.124-1.244,1.684-2.095,1.684
					c-0.784,0-1.465-0.56-2.044-1.684c-0.58-1.123-0.869-2.478-0.869-4.063C230.339,362.497,230.084,360.713,229.573,359.193z"/>
				<path fill="#E3E3E3" d="M257.041,353.99c-0.562,1.09-1.252,1.635-2.07,1.635h-4.6v52.816c0,1.521-0.29,2.842-0.868,3.964
					c-0.58,1.124-1.278,1.685-2.095,1.685c-0.784,0-1.465-0.528-2.044-1.586c-0.58-1.056-0.869-2.411-0.869-4.063v-52.816h-4.599
					c-0.818,0-1.516-0.528-2.095-1.586c-0.579-1.056-0.868-2.411-0.868-4.063c0-1.519,0.289-2.839,0.868-3.964
					c0.579-1.122,1.278-1.685,2.095-1.685h5.008c0.92,0,1.754,0.364,2.504,1.091c0.818-0.727,1.669-1.091,2.555-1.091h5.008
					c0.818,0,1.507,0.545,2.07,1.635c0.562,1.09,0.843,2.428,0.843,4.013C257.884,351.562,257.603,352.9,257.041,353.99z"/>
				<path fill="#E3E3E3" d="M281.391,393.875c0,4.955-0.766,9.315-2.299,13.081c-1.942,4.757-4.668,7.135-8.177,7.135
					c-3.475,0-6.183-2.344-8.125-7.036c-1.567-3.831-2.351-8.225-2.351-13.18v-43.898c0-1.519,0.289-2.839,0.868-3.964
					c0.579-1.122,1.278-1.685,2.095-1.685s1.508,0.545,2.07,1.635c0.562,1.09,0.843,2.428,0.843,4.013v43.8
					c0,2.18,0.255,3.998,0.766,5.45c0.749,2.378,2.026,3.567,3.833,3.567c1.771,0,3.049-1.155,3.833-3.468
					c0.545-1.519,0.818-3.335,0.818-5.451v-43.898c0-1.586,0.281-2.924,0.843-4.013c0.562-1.09,1.252-1.635,2.07-1.635
					s1.507,0.545,2.07,1.635c0.562,1.09,0.843,2.428,0.843,4.013V393.875z"/>
				<path fill="#E3E3E3" d="M304.132,385.453c0.511,2.378,0.766,5.187,0.766,8.423v14.567c0,1.586-0.281,2.924-0.843,4.013
					c-0.562,1.09-1.252,1.635-2.07,1.635s-1.508-0.545-2.07-1.635c-0.562-1.09-0.843-2.428-0.843-4.013v-14.567
					c0-3.434-0.597-5.911-1.789-7.432c-0.784-1.056-1.737-1.586-2.862-1.586h-4.599v23.584c0,1.586-0.281,2.924-0.843,4.013
					c-0.562,1.09-1.252,1.635-2.07,1.635s-1.516-0.528-2.095-1.586c-0.579-1.056-0.868-2.411-0.868-4.063v-24.377
					c0-1.65,0.204-3.27,0.613-4.855c-0.409-1.586-0.613-3.203-0.613-4.856v-19.521c0-2.775,0.46-5.153,1.38-7.135
					c1.056-2.245,2.419-3.37,4.088-3.37h5.008c2.589,0,4.855,1.487,6.797,4.459c2.453,3.7,3.679,8.953,3.679,15.756
					c0,3.171-0.255,5.963-0.766,8.374c-0.511,2.412-1.244,4.508-2.197,6.292C302.888,380.993,303.621,383.074,304.132,385.453z
					 M297.233,372.075c1.226-1.586,1.84-4.095,1.84-7.531c0-3.369-0.597-5.813-1.789-7.333c-0.784-1.056-1.737-1.586-2.862-1.586
					h-4.599v17.936h4.599C295.512,373.561,296.449,373.065,297.233,372.075z"/>
				<path fill="#E3E3E3" d="M327.639,385.453c0.511,2.378,0.766,5.187,0.766,8.423c0,6.738-1.209,11.958-3.628,15.657
					c-1.976,3.039-4.259,4.558-6.848,4.558h-5.008c-1.431,0-2.675-0.892-3.731-2.675c-1.159-1.982-1.737-4.591-1.737-7.828v-19.522
					c0-1.65,0.204-3.27,0.613-4.855c-0.409-1.586-0.613-3.203-0.613-4.856v-19.521c0-2.775,0.46-5.153,1.38-7.135
					c1.056-2.245,2.419-3.37,4.088-3.37h5.008c2.589,0,4.855,1.487,6.797,4.459c2.453,3.7,3.679,8.953,3.679,15.756
					c0,3.171-0.255,5.963-0.766,8.374c-0.511,2.412-1.244,4.508-2.197,6.292C326.395,380.993,327.128,383.074,327.639,385.453z
					 M313.33,355.625v17.936h4.599c1.09,0,2.027-0.496,2.811-1.486c1.227-1.586,1.84-4.095,1.84-7.531
					c0-3.369-0.597-5.813-1.789-7.333c-0.784-1.056-1.737-1.586-2.862-1.586H313.33z M313.33,384.858v17.936h4.599
					c1.09,0,2.027-0.496,2.811-1.487c1.227-1.452,1.84-3.929,1.84-7.432c0-3.434-0.597-5.911-1.789-7.432
					c-0.784-1.056-1.737-1.586-2.862-1.586H313.33z"/>
			</g>
		</g>
	</g>
	<g id="bell">
	</g>
</g>
<g id="winter">
	<g id="snowman">
	</g>
	<g id="snow_mountain">
	</g>
	<g id="reindeer">
	</g>
	<g id="winter_tree">
	</g>
	<g id="lift">
	</g>
	<g id="beanie__x26__google">
	</g>
	<g id="ski">
	</g>
	<g id="snowboard">
	</g>
	<g id="snowboading">
	</g>
	<g id="skiing">
	</g>
</g>
<g id="general_travelling">
	<g id="dinner_set">
	</g>
	<g id="polaroid">
	</g>
	<g id="camera">
	</g>
	<g id="calendar">
	</g>
	<g id="calendar_single">
	</g>
	<g id="shopping_bag">
	</g>
	<g id="watch">
	</g>
	<g id="alarm_clock">
	</g>
	<g id="credit_card">
	</g>
	<g id="road_sign">
	</g>
	<g id="hotel">
	</g>
	<g id="money">
	</g>
	<g id="sunglass">
	</g>
	<g id="cocktail">
	</g>
	<g id="compass">
	</g>
	<g id="tent">
	</g>
	<g id="backpack">
	</g>
	<g id="map">
	</g>
	<g id="ticket_1_">
	</g>
	<g id="passport">
	</g>
	<g id="luggage">
	</g>
	<g id="globe">
	</g>
	<g id="suitcase">
	</g>
</g>
<g id="vehicles">
	<g id="trailer">
	</g>
	<g id="airplane">
	</g>
	<g id="yatch">
	</g>
	<g id="taxi">
	</g>
	<g id="hot_air_ballon">
	</g>
	<g id="bus">
	</g>
	<g id="train">
	</g>
</g>
<g id="summer">
	<g id="postcard">
	</g>
	<g id="bikini">
	</g>
	<g id="flipflop">
	</g>
	<g id="plane_around_the_globe">
	</g>
	<g id="binocular">
	</g>
	<g id="beach_table">
	</g>
	<g id="sun_hat">
	</g>
	<g id="beach_bag">
	</g>
	<g id="sea__x26__wave">
	</g>
	<g id="beach">
	</g>
	<g id="beach_ball">
	</g>
	<g id="jetski">
	</g>
	<g id="sandcastle">
	</g>
	<g id="lifeguard_male">
	</g>
	<g id="lifeguard_female">
	</g>
	<g id="lighthouse">
	</g>
	<g id="hammok">
	</g>
	<g id="beach_chair__x26__umbrella">
	</g>
	<g id="lifeguard">
	</g>
	<g id="suncream">
	</g>
	<g id="starfish">
	</g>
	<g id="beach_bar">
	</g>
	<g id="bucket__x26__shovel">
	</g>
	<g id="palm_tree">
	</g>
	<g id="shark_warning">
	</g>
	<g id="surfboard">
	</g>
	<g id="swimming_trunks">
	</g>
	<g id="coconut_drink">
	</g>
	<g id="beach_chair__x26__towel">
	</g>
	<g id="coconut_tree">
	</g>
</g>
</svg>
