<?xml version="1.0" encoding="utf-8"?>
<!-- Generator: Adobe Illustrator 17.0.0, SVG Export Plug-In . SVG Version: 6.00 Build 0)  -->
<!DOCTYPE svg PUBLIC "-//W3C//DTD SVG 1.1//EN" "http://www.w3.org/Graphics/SVG/1.1/DTD/svg11.dtd">
<svg version="1.1" xmlns="http://www.w3.org/2000/svg" xmlns:xlink="http://www.w3.org/1999/xlink" x="0px" y="0px" width="512px"
	 height="512px" viewBox="0 0 512 512" enable-background="new 0 0 512 512" xml:space="preserve">
<g id="famous_places">
	<g id="Pyramid">
	</g>
	<g id="Colloseum">
	</g>
	<g id="Mount_Fuji">
	</g>
	<g id="Great_Wall_of_China">
	</g>
	<g id="Stonehenge">
	</g>
	<g id="Golden_Gate_Bridge">
	</g>
	<g id="Christ_the_Redeemer">
	</g>
	<g id="Statue_of_Liberty">
	</g>
	<g id="Taj_Mahal">
	</g>
	<g id="Eiffel_tower">
	</g>
</g>
<g id="camping">
	<g id="mug">
	</g>
	<g id="hook">
	</g>
	<g id="Swiss_knife">
	</g>
	<g id="flashlight">
	</g>
	<g id="lantern">
	</g>
	<g id="campfire">
		<g>
			<g>
				<g>
					<path fill="#8A532D" d="M387.613,339.132L171.442,463.939c-9.73,5.618-22.171,2.284-27.789-7.446l-22.697-39.312
						c-5.618-9.73-2.284-22.171,7.446-27.789l216.171-124.806c9.73-5.618,22.171-2.284,27.789,7.446l22.697,39.312
						C400.676,321.073,397.343,333.515,387.613,339.132z"/>
					<path fill="#6E4224" d="M137.124,445.899l6.22,10.773c5.618,9.73,18.472,13.065,28.202,7.448l216.171-124.806
						c9.73-5.617,12.663-18.068,7.045-27.798l-6.22-10.773L137.124,445.899z"/>
					<path fill="#6E4224" d="M190.107,377.849c-5.618-9.73-18.059-13.064-27.789-7.446l-24.445,14.113
						c-9.73,5.618-13.064,18.059-7.446,27.789l22.544,39.047c5.618,9.73,18.059,13.064,27.789,7.446l24.445-14.113
						c9.73-5.618,13.064-18.059,7.446-27.789L190.107,377.849z"/>
					<path fill="#D98246" d="M176.774,385.547c-5.618-9.73-18.059-13.064-27.789-7.446l-24.445,14.113
						c-9.73,5.618-13.064,18.059-7.446,27.789l22.544,39.047c5.618,9.73,18.059,13.064,27.789,7.446l24.445-14.113
						c9.73-5.618,13.064-18.059,7.446-27.789L176.774,385.547z"/>
					<path fill="none" stroke="#8A532D" stroke-width="4" stroke-linecap="round" stroke-miterlimit="10" d="M168.912,401.253
						c-3.227-5.59-10.374-7.505-15.964-4.278l-14.043,8.108c-5.59,3.227-7.505,10.374-4.277,15.964l12.873,22.296
						c3.227,5.59,10.374,7.505,15.964,4.278l14.043-8.108c5.59-3.227,7.505-10.374,4.277-15.964L168.912,401.253z"/>
					
						<line fill="none" stroke="#6E4224" stroke-width="4" stroke-linecap="round" stroke-linejoin="round" stroke-miterlimit="10" x1="198.086" y1="372.608" x2="285.067" y2="322.39"/>
					
						<ellipse transform="matrix(0.866 -0.5 0.5 0.866 -128.7726 193.9097)" fill="none" stroke="#6E4224" stroke-width="4" stroke-linecap="round" stroke-linejoin="round" stroke-miterlimit="10" cx="297.454" cy="337.248" rx="71.479" ry="0"/>
					
						<line fill="none" stroke="#6E4224" stroke-width="4" stroke-linecap="round" stroke-linejoin="round" stroke-miterlimit="10" x1="305.062" y1="299.841" x2="340.616" y2="279.314"/>
					
						<line fill="none" stroke="#6E4224" stroke-width="4" stroke-linecap="round" stroke-linejoin="round" stroke-miterlimit="10" x1="313.86" y1="315.078" x2="346.239" y2="296.384"/>
					
						<line fill="none" stroke="#6E4224" stroke-width="4" stroke-linecap="round" stroke-linejoin="round" stroke-miterlimit="10" x1="235.224" y1="340.162" x2="266.969" y2="321.834"/>
				</g>
				<g>
					<path fill="#8A532D" d="M124.387,337.666l216.171,124.806c9.73,5.618,22.171,2.284,27.789-7.446l22.697-39.312
						c5.618-9.73,2.284-22.171-7.446-27.789L167.427,263.119c-9.73-5.618-22.171-2.284-27.789,7.446l-22.697,39.312
						C111.324,319.607,114.657,332.049,124.387,337.666z"/>
					<path fill="#6E4224" d="M374.876,444.432l-6.22,10.773c-5.618,9.73-18.472,13.065-28.202,7.447L124.283,337.846
						c-9.73-5.617-12.663-18.068-7.045-27.798l6.22-10.773L374.876,444.432z"/>
					<path fill="#6E4224" d="M321.893,376.383c5.618-9.73,18.059-13.064,27.789-7.446l24.445,14.113
						c9.73,5.618,13.064,18.059,7.446,27.789l-22.544,39.047c-5.618,9.73-18.059,13.064-27.789,7.446l-24.445-14.113
						c-9.73-5.618-13.064-18.059-7.446-27.789L321.893,376.383z"/>
					<path fill="#D98246" d="M335.226,384.081c5.618-9.73,18.059-13.064,27.789-7.446l24.445,14.113
						c9.73,5.618,13.064,18.059,7.446,27.789l-22.544,39.047c-5.618,9.73-18.059,13.064-27.789,7.446l-24.445-14.113
						c-9.73-5.618-13.064-18.059-7.446-27.789L335.226,384.081z"/>
					<path fill="none" stroke="#8A532D" stroke-width="4" stroke-linecap="round" stroke-miterlimit="10" d="M364.203,441.706
						c-3.227,5.59-10.374,7.505-15.964,4.278l-14.043-8.108c-5.59-3.227-7.505-10.374-4.277-15.964l12.873-22.296
						c3.227-5.59,10.374-7.505,15.964-4.278l14.043,8.108c5.59,3.227,7.505,10.374,4.277,15.964L364.203,441.706z"/>
					
						<line fill="none" stroke="#6E4224" stroke-width="4" stroke-linecap="round" stroke-linejoin="round" stroke-miterlimit="10" x1="313.617" y1="370.971" x2="289.491" y2="357.042"/>
					
						<line fill="none" stroke="#6E4224" stroke-width="4" stroke-linecap="round" stroke-linejoin="round" stroke-miterlimit="10" x1="203.074" y1="302.916" x2="167.519" y2="282.388"/>
					
						<line fill="none" stroke="#6E4224" stroke-width="4" stroke-linecap="round" stroke-linejoin="round" stroke-miterlimit="10" x1="197.843" y1="313.441" x2="165.464" y2="294.746"/>
					
						<line fill="none" stroke="#6E4224" stroke-width="4" stroke-linecap="round" stroke-linejoin="round" stroke-miterlimit="10" x1="306.319" y1="355.753" x2="266.321" y2="332.659"/>
					
						<line fill="none" stroke="#6E4224" stroke-width="4" stroke-linecap="round" stroke-linejoin="round" stroke-miterlimit="10" x1="298.713" y1="389.455" x2="265.063" y2="370.027"/>
					
						<circle fill="none" stroke="#6E4224" stroke-width="4" stroke-linecap="round" stroke-linejoin="round" stroke-miterlimit="10" cx="219.727" cy="326.075" r="14.662"/>
				</g>
			</g>
			<g>
				<path fill="#FF6650" d="M354.189,192.571c0,51.647-41.868,93.516-93.516,93.516s-93.516-41.869-93.516-93.516
					s93.516-149.796,93.516-149.796S354.189,140.924,354.189,192.571z"/>
				<path fill="#FF9B29" d="M313.842,203.755c0,29.365-23.805,53.169-53.17,53.169c-29.365,0-53.169-23.805-53.169-53.169
					s53.169-85.168,53.169-85.168S313.842,174.39,313.842,203.755z"/>
				<path fill="#FFD161" d="M290.868,208.65c0,16.58-13.441,30.02-30.02,30.02s-30.02-13.441-30.02-30.02s30.02-48.087,30.02-48.087
					S290.868,192.07,290.868,208.65z"/>
				<path fill="#FFD161" d="M330.224,87.998c0,10.645-8.63,19.275-19.275,19.275s-19.275-8.63-19.275-19.275
					s19.275-30.875,19.275-30.875S330.224,77.352,330.224,87.998z"/>
				<path fill="#FFD161" d="M196.361,146.816c0,10.645-8.63,19.275-19.275,19.275s-19.275-8.63-19.275-19.275
					s19.275-30.875,19.275-30.875S196.361,136.171,196.361,146.816z"/>
			</g>
		</g>
	</g>
	<g id="beanie">
	</g>
	<g id="rope">
	</g>
	<g id="boot">
	</g>
	<g id="axe">
	</g>
</g>
<g id="hotel_1_">
	<g id="towel">
	</g>
	<g id="phone">
	</g>
	<g id="pool">
	</g>
	<g id="food_service">
	</g>
	<g id="wifi">
	</g>
	<g id="bed">
	</g>
	<g id="door">
	</g>
	<g id="key">
	</g>
	<g id="do_not_disturb">
	</g>
	<g id="bell">
	</g>
</g>
<g id="winter">
	<g id="snowman">
	</g>
	<g id="snow_mountain">
	</g>
	<g id="reindeer">
	</g>
	<g id="winter_tree">
	</g>
	<g id="lift">
	</g>
	<g id="beanie__x26__google">
	</g>
	<g id="ski">
	</g>
	<g id="snowboard">
	</g>
	<g id="snowboading">
	</g>
	<g id="skiing">
	</g>
</g>
<g id="general_travelling">
	<g id="dinner_set">
	</g>
	<g id="polaroid">
	</g>
	<g id="camera">
	</g>
	<g id="calendar">
	</g>
	<g id="calendar_single">
	</g>
	<g id="shopping_bag">
	</g>
	<g id="watch">
	</g>
	<g id="alarm_clock">
	</g>
	<g id="credit_card">
	</g>
	<g id="road_sign">
	</g>
	<g id="hotel">
	</g>
	<g id="money">
	</g>
	<g id="sunglass">
	</g>
	<g id="cocktail">
	</g>
	<g id="compass">
	</g>
	<g id="tent">
	</g>
	<g id="backpack">
	</g>
	<g id="map">
	</g>
	<g id="ticket_1_">
	</g>
	<g id="passport">
	</g>
	<g id="luggage">
	</g>
	<g id="globe">
	</g>
	<g id="suitcase">
	</g>
</g>
<g id="vehicles">
	<g id="trailer">
	</g>
	<g id="airplane">
	</g>
	<g id="yatch">
	</g>
	<g id="taxi">
	</g>
	<g id="hot_air_ballon">
	</g>
	<g id="bus">
	</g>
	<g id="train">
	</g>
</g>
<g id="summer">
	<g id="postcard">
	</g>
	<g id="bikini">
	</g>
	<g id="flipflop">
	</g>
	<g id="plane_around_the_globe">
	</g>
	<g id="binocular">
	</g>
	<g id="beach_table">
	</g>
	<g id="sun_hat">
	</g>
	<g id="beach_bag">
	</g>
	<g id="sea__x26__wave">
	</g>
	<g id="beach">
	</g>
	<g id="beach_ball">
	</g>
	<g id="jetski">
	</g>
	<g id="sandcastle">
	</g>
	<g id="lifeguard_male">
	</g>
	<g id="lifeguard_female">
	</g>
	<g id="lighthouse">
	</g>
	<g id="hammok">
	</g>
	<g id="beach_chair__x26__umbrella">
	</g>
	<g id="lifeguard">
	</g>
	<g id="suncream">
	</g>
	<g id="starfish">
	</g>
	<g id="beach_bar">
	</g>
	<g id="bucket__x26__shovel">
	</g>
	<g id="palm_tree">
	</g>
	<g id="shark_warning">
	</g>
	<g id="surfboard">
	</g>
	<g id="swimming_trunks">
	</g>
	<g id="coconut_drink">
	</g>
	<g id="beach_chair__x26__towel">
	</g>
	<g id="coconut_tree">
	</g>
</g>
</svg>
