<?xml version="1.0" encoding="utf-8"?>
<!-- Generator: Adobe Illustrator 17.0.0, SVG Export Plug-In . SVG Version: 6.00 Build 0)  -->
<!DOCTYPE svg PUBLIC "-//W3C//DTD SVG 1.1//EN" "http://www.w3.org/Graphics/SVG/1.1/DTD/svg11.dtd">
<svg version="1.1" xmlns="http://www.w3.org/2000/svg" xmlns:xlink="http://www.w3.org/1999/xlink" x="0px" y="0px" width="512px"
	 height="512px" viewBox="0 0 512 512" enable-background="new 0 0 512 512" xml:space="preserve">
<g id="famous_places">
	<g id="Pyramid">
	</g>
	<g id="Colloseum">
	</g>
	<g id="Mount_Fuji">
	</g>
	<g id="Great_Wall_of_China">
	</g>
	<g id="Stonehenge">
	</g>
	<g id="Golden_Gate_Bridge">
	</g>
	<g id="Christ_the_Redeemer">
	</g>
	<g id="Statue_of_Liberty">
	</g>
	<g id="Taj_Mahal">
	</g>
	<g id="Eiffel_tower">
	</g>
</g>
<g id="camping">
	<g id="mug">
	</g>
	<g id="hook">
	</g>
	<g id="Swiss_knife">
	</g>
	<g id="flashlight">
	</g>
	<g id="lantern">
	</g>
	<g id="campfire">
	</g>
	<g id="beanie">
	</g>
	<g id="rope">
	</g>
	<g id="boot">
	</g>
	<g id="axe">
	</g>
</g>
<g id="hotel_1_">
	<g id="towel">
	</g>
	<g id="phone">
	</g>
	<g id="pool">
	</g>
	<g id="food_service">
	</g>
	<g id="wifi">
	</g>
	<g id="bed">
	</g>
	<g id="door">
	</g>
	<g id="key">
	</g>
	<g id="do_not_disturb">
	</g>
	<g id="bell">
	</g>
</g>
<g id="winter">
	<g id="snowman">
	</g>
	<g id="snow_mountain">
	</g>
	<g id="reindeer">
	</g>
	<g id="winter_tree">
	</g>
	<g id="lift">
	</g>
	<g id="beanie__x26__google">
	</g>
	<g id="ski">
	</g>
	<g id="snowboard">
	</g>
	<g id="snowboading">
	</g>
	<g id="skiing">
	</g>
</g>
<g id="general_travelling">
	<g id="dinner_set">
	</g>
	<g id="polaroid">
	</g>
	<g id="camera">
	</g>
	<g id="calendar">
	</g>
	<g id="calendar_single">
	</g>
	<g id="shopping_bag">
	</g>
	<g id="watch">
	</g>
	<g id="alarm_clock">
	</g>
	<g id="credit_card">
	</g>
	<g id="road_sign">
	</g>
	<g id="hotel">
	</g>
	<g id="money">
	</g>
	<g id="sunglass">
	</g>
	<g id="cocktail">
	</g>
	<g id="compass">
	</g>
	<g id="tent">
	</g>
	<g id="backpack">
	</g>
	<g id="map">
	</g>
	<g id="ticket_1_">
	</g>
	<g id="passport">
	</g>
	<g id="luggage">
	</g>
	<g id="globe">
	</g>
	<g id="suitcase">
	</g>
</g>
<g id="vehicles">
	<g id="trailer">
	</g>
	<g id="airplane">
	</g>
	<g id="yatch">
	</g>
	<g id="taxi">
	</g>
	<g id="hot_air_ballon">
	</g>
	<g id="bus">
	</g>
	<g id="train">
	</g>
</g>
<g id="summer">
	<g id="postcard">
	</g>
	<g id="bikini">
	</g>
	<g id="flipflop">
	</g>
	<g id="plane_around_the_globe">
	</g>
	<g id="binocular">
	</g>
	<g id="beach_table">
	</g>
	<g id="sun_hat">
	</g>
	<g id="beach_bag">
		<g>
			<g>
				<g>
					<path fill="#E3E3E3" d="M289.061,287.312c-15.371-1.974-24.39-8.253-28.385-19.761c-3.501-10.086-2.93-23.583-2.208-40.671
						c0.355-8.403,0.757-17.927,0.727-28.325c-0.016-5.429-0.074-10.855-0.131-16.241c-0.461-43.568-0.898-84.72,20.993-104.186
						c10.715-9.528,25.458-12.935,45.073-10.416c27.37,3.515,45.617,16.774,51.381,37.332c6.482,23.123-4.399,53.216-25.333,70.275
						c-1.987,2.738-14.342,21.059-13.664,52.082c0.582,26.68-3.759,42.716-14.078,51.996
						C315.365,286.657,304.12,289.246,289.061,287.312z"/>
					<path fill="#ADD660" d="M347.647,171.901c0,0-15.795,19.608-15.009,55.606s-7.158,59.564-42.956,54.967
						c-35.798-4.597-25.459-32.198-25.609-83.934c-0.196-67.393-6.806-134.627,60.437-125.991S379.979,146.057,347.647,171.901z"/>
					<path fill="#2FB49F" d="M336.045,177.787c0,0,5.847,1.259,1.458,14.84c-2.122,6.567-3.925,14.638-4.604,24.134
						c-0.243,3.4-21.607,4.969-21.525,8.732c0.097,4.427,21.326,10.68,21.123,14.702c-0.471,9.34-1.847,17.508-4.572,24.138
						c0,0-12.874,1.853-34.046-0.866c-18.802-2.415-30.625-7.439-30.625-7.439c-0.702-6.908-0.478-15.147-0.089-24.735
						c0.171-4.216,23.712-4.186,23.883-8.925c0.115-3.197-23.121-11.02-23.055-14.455c0.058-3.031,0.089-6.156,0.08-9.373
						c-0.015-5.132-0.067-10.264-0.121-15.361c-0.052-4.93,21.071-4.208,21.048-9.043c-0.014-2.974-21.194-11.544-21.178-14.464
						c0.047-8.527,0.256-16.793,0.813-24.622c0.199-2.803,31.43-4.988,31.727-7.671c0.577-5.212-29.632-10.746-28.591-15.416
						c2.031-9.115,5.065-17.085,9.566-23.47c8.858-12.567,22.024-11.807,45.797-8.754c24.849,3.191,40.284,6.873,46.502,20.616
						c3.402,7.519,4.457,15.898,3.648,24.35c-0.346,3.618-22.522,4.287-23.514,7.87c-1.192,4.305,18.666,11.504,16.663,15.562
						c-4.269,8.649-10.23,16.492-17.248,22.493C348.677,171.063,336.562,177.373,336.045,177.787z"/>
					<path fill="#5C84B8" d="M324.466,72.887c-23.842-3.062-38.349,3.088-47.243,16.061l92.414,11.868
						C363.46,86.916,349.388,76.087,324.466,72.887z"/>
					<path fill="#5C84B8" d="M264.685,134.724l101.748,13.067c3.497-6.608,5.895-14.366,6.772-22.319l-105.428-13.54
						C266.226,118.79,265.233,126.728,264.685,134.724z"/>
					<path fill="#5C84B8" d="M263.985,183.028l73.525,9.442c4.382-13.552,10.143-20.618,10.143-20.618
						c0.52-0.415,1.071-1.13,1.517-1.073l-85.366-10.963C263.843,166.878,263.91,174.953,263.985,183.028z"/>
					<path fill="#5C84B8" d="M263.169,231.317l69.329,8.904c0.202-4.007,0.218-8.106,0.121-12.562
						c-0.083-3.78,0.054-7.579,0.246-10.579l-68.917-8.851C263.851,216.282,263.448,224.296,263.169,231.317z"/>
					<path fill="#5C84B8" d="M289.611,283.03c21.199,2.723,32.675-4.8,38.262-18.198l-64.694-8.308
						C264.847,270.853,270.785,280.612,289.611,283.03z"/>
					<path fill="#46658C" d="M320.546,189.565c-4.135-0.531-7.066-4.327-6.535-8.461c0.531-4.135,4.327-7.066,8.461-6.535
						c4.135,0.531,7.066,4.327,6.535,8.461C328.476,187.165,324.681,190.096,320.546,189.565z"/>
					<path fill="#46658C" d="M273.91,169.807c-4.135-0.531-7.066-4.327-6.535-8.461c0.531-4.135,4.327-7.066,8.461-6.535
						c4.135,0.531,7.066,4.327,6.535,8.461S278.044,170.338,273.91,169.807z"/>
					<path fill="#46658C" d="M323.891,94.598c-4.135-0.531-7.066-4.327-6.535-8.461c0.531-4.135,4.327-7.066,8.461-6.535
						c4.135,0.531,7.066,4.327,6.535,8.461C331.821,92.197,328.025,95.129,323.891,94.598z"/>
					<path fill="#E3E3E3" d="M349.178,126.543c-1.593-9.295-7.172-21.309-24.33-27.605l2.757-7.689
						c0.727-2.028-0.327-4.262-2.356-4.989c-2.021-0.731-4.262,0.327-4.989,2.356l-2.941,8.2c-7.628-1.375-14.595,0.065-20.754,4.3
						c-20.532,14.122-24.314,55.047-24.466,56.782c-0.186,2.147,1.427,4.005,3.55,4.226c2.147,0.186,4.038-1.402,4.226-3.55
						c0.008-0.098,0.889-9.937,4.047-21.278c4.057-14.574,9.958-24.861,17.066-29.75c5.167-3.555,10.975-4.34,17.759-2.396
						c13.151,3.768,20.802,11.409,22.739,22.712c3.301,19.262-10.668,44.368-19.486,50.643c-1.756,1.25-2.166,3.687-0.917,5.442
						c0.658,0.923,1.642,1.474,2.683,1.608c0.94,0.121,1.926-0.098,2.759-0.691C336.784,177.562,353.177,149.875,349.178,126.543z"
						/>
				</g>
				<g>
					<path fill="#E3E3E3" d="M367.089,284.969c15.371,1.974,25.684-1.822,32.457-11.948c5.936-8.874,8.794-22.077,12.413-38.794
						c1.78-8.22,3.797-17.537,6.453-27.589c1.388-5.248,2.814-10.484,4.23-15.681c11.455-42.038,22.276-81.744,6.014-106.11
						c-7.959-11.926-21.363-18.948-40.978-21.467c-27.37-3.515-48.375,4.703-59.147,23.138
						c-12.114,20.735-9.191,52.601,6.754,74.396c1.231,3.152,8.555,24,0.061,53.844c-7.305,25.668-7.157,42.28,0.482,53.866
						C341.804,277.689,352.03,283.035,367.089,284.969z"/>
					<path fill="#ADD660" d="M339.566,158.5c0,0,10.328,22.963,0.471,57.594s-8.125,59.44,27.673,64.038s32.768-24.72,45.987-74.739
						c17.219-65.157,40.603-128.538-26.64-137.174S314.814,125.325,339.566,158.5z"/>
					<path fill="#2FB49F" d="M349.305,167.127c0,0-5.975-0.26-5.16,13.99c0.394,6.89,0.099,15.155-1.643,24.514
						c-0.624,3.352,19.65,10.268,18.62,13.887c-1.212,4.259-23.333,4.945-24.153,8.888c-1.904,9.156-2.637,17.407-1.676,24.51
						c0,0,11.988,5.046,33.159,7.765c18.802,2.415,31.511,0.541,31.511,0.541c2.424-6.506,4.29-14.535,6.336-23.909
						c0.9-4.123-21.884-10.042-20.852-14.67c0.696-3.122,25.155-4.82,25.959-8.161c0.71-2.948,1.469-5.978,2.291-9.089
						c1.311-4.962,2.658-9.914,3.999-14.832c1.296-4.757-19.324-9.396-18.08-14.068c0.765-2.874,23.424-5.814,24.146-8.644
						c2.109-8.262,3.995-16.313,5.435-24.028c0.515-2.763-29.15-12.768-28.759-15.439c0.759-5.189,31.386-2.91,31.559-7.691
						c0.338-9.333-0.583-17.81-3.325-25.126c-5.395-14.397-18.326-16.989-42.099-20.042c-24.849-3.191-40.713-3.529-50.202,8.197
						c-5.192,6.416-8.329,14.256-9.682,22.638c-0.579,3.589,20.708,9.839,20.762,13.556c0.065,4.467-20.967,6.414-20.055,10.847
						c1.945,9.447,5.731,18.542,11.005,26.121C338.781,157.429,348.908,166.595,349.305,167.127z"/>
					<path fill="#5C84B8" d="M387.108,67.825c23.842,3.062,36.197,13.67,41.651,27.477l-92.414-11.868
						C345.834,71.546,362.186,64.624,387.108,67.825z"/>
					<path fill="#5C84B8" d="M429.196,143.752l-101.748-13.067c-1.714-7.278-2.074-15.39-0.912-23.306l105.428,13.54
						C431.732,127.947,430.687,135.878,429.196,143.752z"/>
					<path fill="#5C84B8" d="M417.668,190.666l-73.525-9.442c-0.816-14.22-4.604-22.512-4.604-22.512
						c-0.398-0.533-0.751-1.364-1.196-1.422l85.366,10.963C421.886,175.076,419.781,182.872,417.668,190.666z"/>
					<path fill="#5C84B8" d="M406.256,237.595l-69.329-8.904c0.817-3.928,1.901-8.394,3.121-12.681
						c1.035-3.637,1.799-6.851,2.499-10.794l68.917,8.851C409.395,222.875,407.76,230.73,406.256,237.595z"/>
					<path fill="#5C84B8" d="M367.732,279.956c-21.199-2.723-30.402-12.901-32.423-27.276l64.694,8.308
						C394.642,275.423,386.558,282.374,367.732,279.956z"/>
					<path fill="#46658C" d="M361.324,182.439c4.135,0.531,7.93-2.401,8.461-6.535c0.531-4.135-2.401-7.93-6.535-8.461
						c-4.135-0.531-7.93,2.401-8.461,6.535C354.258,178.112,357.19,181.908,361.324,182.439z"/>
					<path fill="#46658C" d="M411.44,175.106c4.135,0.531,7.93-2.401,8.461-6.535c0.531-4.135-2.401-7.93-6.535-8.461
						c-4.135-0.531-7.93,2.401-8.461,6.535C404.373,170.78,407.305,174.575,411.44,175.106z"/>
					<path fill="#46658C" d="M382.084,89.708c4.135,0.531,7.93-2.401,8.461-6.535c0.531-4.135-2.401-7.93-6.535-8.461
						c-4.135-0.531-7.93,2.401-8.461,6.535C375.018,85.381,377.95,89.177,382.084,89.708z"/>
					<path fill="#E3E3E3" d="M349.546,114.227c3.89-8.591,12.324-18.805,30.516-20.561l-0.725-8.137
						c-0.191-2.146,1.393-4.041,3.54-4.232c2.14-0.197,4.041,1.393,4.232,3.54l0.773,8.677c7.728,0.597,14.105,3.751,18.994,9.405
						c16.298,18.851,9.616,59.404,9.324,61.121c-0.362,2.124-2.392,3.514-4.502,3.191c-2.124-0.362-3.553-2.377-3.191-4.502
						c0.017-0.097,1.651-9.839,1.461-21.61c-0.242-15.126-3.353-26.57-8.995-33.097c-4.102-4.745-9.522-6.972-16.577-6.805
						c-13.677,0.323-23.01,5.783-27.74,16.229c-8.061,17.803-0.889,45.624,6.057,53.923c1.383,1.653,1.164,4.114-0.488,5.497
						c-0.869,0.727-1.961,1.011-3.003,0.877c-0.94-0.121-1.838-0.582-2.495-1.365C348.646,166.722,339.781,135.792,349.546,114.227z
						"/>
				</g>
			</g>
			<g>
				<path fill="#2D415A" d="M254.553,331.348c-52.417,0-95.061-42.644-95.061-95.061V157.89c0-52.416,42.644-95.061,95.061-95.061
					s95.061,42.644,95.061,95.061v78.397C349.614,288.704,306.97,331.348,254.553,331.348z M254.553,80.83
					c-42.491,0-77.061,34.569-77.061,77.061v78.397c0,42.491,34.569,77.061,77.061,77.061s77.061-34.569,77.061-77.061V157.89
					C331.614,115.399,297.044,80.83,254.553,80.83z"/>
			</g>
			<g>
				<path fill="#FF6650" d="M87.795,187.917c-8.414,0.006-14.505,8.034-12.245,16.139l60.909,218.426
					c1.534,5.5,6.544,9.305,12.254,9.305h211.681c5.71,0,10.721-3.805,12.254-9.305l60.909-218.426
					c2.26-8.105-3.83-16.133-12.245-16.139H87.795z"/>
			</g>
			<polygon fill="#E3E3E3" points="110.652,329.937 398.454,329.937 409.608,289.937 99.498,289.937 			"/>
			<polygon fill="#E3E3E3" points="79.7,218.937 90.854,258.937 418.252,258.937 429.406,218.937 			"/>
			<polygon fill="#E3E3E3" points="130.172,399.937 378.934,399.937 389.809,360.937 119.297,360.937 			"/>
			<polygon fill="#E3E3E3" points="429.406,218.937 418.252,258.937 90.854,258.937 79.7,218.937 			"/>
			<g>
				<circle fill="#2D415A" cx="338.872" cy="216.613" r="19"/>
			</g>
			
				<circle fill="none" stroke="#FFD161" stroke-width="8" stroke-linecap="round" stroke-linejoin="round" stroke-miterlimit="10" cx="338.872" cy="216.613" r="19"/>
			<g>
				<circle fill="#2D415A" cx="170.234" cy="216.613" r="19"/>
			</g>
			
				<circle fill="none" stroke="#FFD161" stroke-width="8" stroke-linecap="round" stroke-linejoin="round" stroke-miterlimit="10" cx="170.234" cy="216.613" r="19"/>
			<g>
				<path fill="#2D415A" d="M94.385,332.937c0,0-5.565-9.444-5.351-24.211c0.214-14.768-0.428-33.401,8.775-45.601
					c0,0,2.14-3.431,1.712-7.284c0.428-3.425-1.712-7.28-1.712-7.28c-9.203-12.199-8.561-30.746-8.775-45.513
					c-0.214-14.768,5.351-24.111,5.351-24.111h9.631l7.063,3.777c0,0-0.011-0.38,1.284-0.252
					c41.093,4.067,36.17,17.745,36.17,41.502s-34.03,25.887-36.598,26.744c-2.568,0.856-3.424,5.132-3.424,5.132
					s0.856,4.278,3.424,5.134s36.598,2.995,36.598,26.752s4.923,37.454-36.17,41.521c-1.295,0.128-1.284-0.188-1.284-0.188
					l-7.063,3.879H94.385z"/>
				<path fill="#2D415A" d="M94.385,178.937c0,0-5.565,9.341-5.351,24.109c0.214,14.768-0.428,33.35,8.775,45.55
					c0,0,2.14,3.406,1.712,7.258c0.428,3.425-1.712,7.268-1.712,7.268c-9.203,12.199-8.561,30.841-8.775,45.609
					c-0.214,14.768,5.351,24.207,5.351,24.207h9.631l7.063-3.879c0,0-0.011,0.329,1.284,0.201
					c41.093-4.067,36.17-17.771,36.17-41.528c0-23.757-34.03-25.9-36.598-26.756c-2.568-0.856-3.424-5.138-3.424-5.138
					s0.856-4.281,3.424-5.137c2.568-0.856,36.598-2.997,36.598-26.754s4.923-37.455-36.17-41.521
					c-1.295-0.128-1.284,0.29-1.284,0.29l-7.063-3.777H94.385z"/>
				<ellipse fill="#FFFFFF" cx="98.879" cy="325.408" rx="1.926" ry="4.908"/>
				<ellipse fill="#FFFFFF" cx="98.879" cy="186.262" rx="1.926" ry="4.908"/>
				<g>
					<path fill="#FFD161" d="M116.643,305.061c8.67-7.551,4.221-26.246,0.095-38.301c-3.842-0.263-7.356,0.102-9.94,0.847
						c-11.129,3.21-10.915,29.321-10.915,29.321c-1.284,28.251,14.126,25.897,14.126,25.897s0.915,0.117,2.425,0.189
						C110.687,317.016,110.749,310.195,116.643,305.061z"/>
					<path fill="#FFB561" d="M116.643,305.061c-5.894,5.134-5.956,11.955-4.21,17.953c3.85,0.182,11.643,0.054,18.57-3.124
						c4.01-9.972,1.779-34.145-0.135-49.04c-4.515-2.562-9.554-3.778-14.131-4.091C120.864,278.815,125.313,297.51,116.643,305.061z
						"/>
					<path fill="#FF6650" d="M131.004,319.89c6.683-3.065,12.548-8.967,13.249-20.18c0.971-15.528-5.368-24.311-13.384-28.86
						C132.783,285.746,135.014,309.918,131.004,319.89z"/>
				</g>
				<g>
					<path fill="#FFD161" d="M116.643,206.612c8.67,7.551,4.221,26.246,0.095,38.301c-3.842,0.263-7.356-0.102-9.94-0.847
						c-11.129-3.21-10.915-29.321-10.915-29.321c-1.284-28.251,14.126-25.897,14.126-25.897s0.915-0.117,2.425-0.189
						C110.687,194.658,110.749,201.478,116.643,206.612z"/>
					<path fill="#FFB561" d="M116.643,206.612c-5.894-5.134-5.956-11.955-4.21-17.953c3.85-0.182,11.643-0.054,18.57,3.124
						c4.01,9.972,1.779,34.145-0.135,49.04c-4.515,2.562-9.554,3.778-14.131,4.091C120.864,232.859,125.313,214.164,116.643,206.612
						z"/>
					<path fill="#FF6650" d="M131.004,191.783c6.683,3.065,12.548,8.967,13.249,20.18c0.971,15.528-5.368,24.312-13.384,28.86
						C132.783,225.927,135.014,201.755,131.004,191.783z"/>
				</g>
			</g>
		</g>
	</g>
	<g id="sea__x26__wave">
	</g>
	<g id="beach">
	</g>
	<g id="beach_ball">
	</g>
	<g id="jetski">
	</g>
	<g id="sandcastle">
	</g>
	<g id="lifeguard_male">
	</g>
	<g id="lifeguard_female">
	</g>
	<g id="lighthouse">
	</g>
	<g id="hammok">
	</g>
	<g id="beach_chair__x26__umbrella">
	</g>
	<g id="lifeguard">
	</g>
	<g id="suncream">
	</g>
	<g id="starfish">
	</g>
	<g id="beach_bar">
	</g>
	<g id="bucket__x26__shovel">
	</g>
	<g id="palm_tree">
	</g>
	<g id="shark_warning">
	</g>
	<g id="surfboard">
	</g>
	<g id="swimming_trunks">
	</g>
	<g id="coconut_drink">
	</g>
	<g id="beach_chair__x26__towel">
	</g>
	<g id="coconut_tree">
	</g>
</g>
</svg>
