<?xml version="1.0" encoding="utf-8"?>
<!-- Generator: Adobe Illustrator 17.0.0, SVG Export Plug-In . SVG Version: 6.00 Build 0)  -->
<!DOCTYPE svg PUBLIC "-//W3C//DTD SVG 1.1//EN" "http://www.w3.org/Graphics/SVG/1.1/DTD/svg11.dtd">
<svg version="1.1" xmlns="http://www.w3.org/2000/svg" xmlns:xlink="http://www.w3.org/1999/xlink" x="0px" y="0px" width="512px"
	 height="512px" viewBox="0 0 512 512" enable-background="new 0 0 512 512" xml:space="preserve">
<g id="famous_places">
	<g id="Pyramid">
	</g>
	<g id="Colloseum">
	</g>
	<g id="Mount_Fuji">
	</g>
	<g id="Great_Wall_of_China">
	</g>
	<g id="Stonehenge">
	</g>
	<g id="Golden_Gate_Bridge">
	</g>
	<g id="Christ_the_Redeemer">
	</g>
	<g id="Statue_of_Liberty">
	</g>
	<g id="Taj_Mahal">
	</g>
	<g id="Eiffel_tower">
	</g>
</g>
<g id="camping">
	<g id="mug">
	</g>
	<g id="hook">
	</g>
	<g id="Swiss_knife">
	</g>
	<g id="flashlight">
	</g>
	<g id="lantern">
	</g>
	<g id="campfire">
	</g>
	<g id="beanie">
	</g>
	<g id="rope">
	</g>
	<g id="boot">
	</g>
	<g id="axe">
	</g>
</g>
<g id="hotel_1_">
	<g id="towel">
	</g>
	<g id="phone">
	</g>
	<g id="pool">
	</g>
	<g id="food_service">
	</g>
	<g id="wifi">
	</g>
	<g id="bed">
	</g>
	<g id="door">
	</g>
	<g id="key">
	</g>
	<g id="do_not_disturb">
	</g>
	<g id="bell">
	</g>
</g>
<g id="winter">
	<g id="snowman">
	</g>
	<g id="snow_mountain">
	</g>
	<g id="reindeer">
	</g>
	<g id="winter_tree">
	</g>
	<g id="lift">
	</g>
	<g id="beanie__x26__google">
	</g>
	<g id="ski">
	</g>
	<g id="snowboard">
	</g>
	<g id="snowboading">
	</g>
	<g id="skiing">
	</g>
</g>
<g id="general_travelling">
	<g id="dinner_set">
	</g>
	<g id="polaroid">
	</g>
	<g id="camera">
	</g>
	<g id="calendar">
	</g>
	<g id="calendar_single">
		<g>
			<g>
				<path fill="#B5B5B5" d="M371.884,444.176H140.116c-14.101,0-25.532-11.431-25.532-25.532V164.469
					c0-14.101,11.431-25.532,25.532-25.532h231.769c14.101,0,25.532,11.431,25.532,25.532v254.175
					C397.417,432.745,385.985,444.176,371.884,444.176z"/>
				<path fill="#B9B9B9" d="M371.884,436.176H140.116c-14.101,0-25.532-11.431-25.532-25.532V156.469
					c0-14.101,11.431-25.532,25.532-25.532h231.769c14.101,0,25.532,11.431,25.532,25.532v254.175
					C397.417,424.745,385.985,436.176,371.884,436.176z"/>
				<path fill="#BCBCBC" d="M371.884,428.176H140.116c-14.101,0-25.532-11.431-25.532-25.532V148.469
					c0-14.101,11.431-25.532,25.532-25.532h231.769c14.101,0,25.532,11.431,25.532,25.532v254.175
					C397.417,416.745,385.985,428.176,371.884,428.176z"/>
				<path fill="#C0C0C0" d="M371.884,420.176H140.116c-14.101,0-25.532-11.431-25.532-25.532V140.469
					c0-14.101,11.431-25.532,25.532-25.532h231.769c14.101,0,25.532,11.431,25.532,25.532v254.175
					C397.417,408.745,385.985,420.176,371.884,420.176z"/>
				<path fill="#C3C3C3" d="M371.884,412.176H140.116c-14.101,0-25.532-11.431-25.532-25.532V132.469
					c0-14.101,11.431-25.532,25.532-25.532h231.769c14.101,0,25.532,11.431,25.532,25.532v254.175
					C397.417,400.745,385.985,412.176,371.884,412.176z"/>
				<path fill="#C7C7C7" d="M371.884,404.176H140.116c-14.101,0-25.532-11.431-25.532-25.532V124.469
					c0-14.101,11.431-25.532,25.532-25.532h231.769c14.101,0,25.532,11.431,25.532,25.532v254.175
					C397.417,392.745,385.985,404.176,371.884,404.176z"/>
			</g>
			<path fill="#E3E3E3" d="M114.583,174.824v198.2c0,14.101,11.431,25.532,25.532,25.532h231.769
				c14.101,0,25.532-11.431,25.532-25.532v-198.2H114.583z"/>
			<g>
				<path fill="#4A4A4A" d="M228.684,189.047c0.81,0.811,1.214,1.821,1.214,3.035v25.495c0,2.348-0.425,4.331-1.274,5.949
					c-0.85,1.619-1.911,2.935-3.187,3.945c-1.274,1.013-2.662,1.741-4.158,2.186c-1.498,0.446-2.874,0.668-4.128,0.668h-16.997
					c-2.348,0-4.331-0.425-5.949-1.274c-1.619-0.851-2.935-1.913-3.945-3.187c-1.012-1.275-1.74-2.65-2.186-4.128
					c-0.445-1.476-0.668-2.863-0.668-4.159c0-1.214,0.404-2.224,1.215-3.035c0.808-0.808,1.82-1.214,3.035-1.214
					c1.214,0,2.224,0.405,3.035,1.214c0.808,0.811,1.214,1.821,1.214,3.035c0,0.446,0.061,0.921,0.182,1.427
					c0.122,0.506,0.344,0.971,0.668,1.395c0.323,0.425,0.759,0.77,1.305,1.032c0.546,0.264,1.245,0.395,2.094,0.395h16.997
					c0.444,0,0.92-0.062,1.426-0.183c0.506-0.121,0.972-0.344,1.397-0.668c0.425-0.323,0.768-0.758,1.031-1.305
					c0.264-0.546,0.395-1.243,0.395-2.094v-25.495c0-1.214,0.404-2.224,1.214-3.035c0.81-0.808,1.821-1.214,3.035-1.214
					C226.863,187.833,227.874,188.238,228.684,189.047z"/>
				<path fill="#4A4A4A" d="M268.627,188.501c1.496,0.445,2.883,1.174,4.158,2.186c1.275,1.012,2.337,2.327,3.187,3.945
					c0.85,1.619,1.274,3.603,1.274,5.949v25.495c0,1.214-0.404,2.226-1.214,3.035c-0.81,0.81-1.821,1.214-3.035,1.214
					s-2.226-0.404-3.035-1.214c-0.81-0.81-1.214-1.821-1.214-3.035v-12.748h-25.495v12.748c0,1.214-0.405,2.226-1.214,3.035
					c-0.811,0.81-1.821,1.214-3.035,1.214c-1.215,0-2.227-0.404-3.035-1.214c-0.811-0.81-1.215-1.821-1.215-3.035v-25.495
					c0-1.254,0.223-2.631,0.668-4.128c0.445-1.497,1.174-2.883,2.186-4.159c1.011-1.274,2.326-2.336,3.945-3.187
					c1.618-0.85,3.601-1.274,5.949-1.274h16.997C265.753,187.833,267.129,188.056,268.627,188.501z M268.748,204.83v-4.249
					c0-0.851-0.131-1.548-0.395-2.094c-0.263-0.547-0.606-0.981-1.031-1.305c-0.425-0.324-0.891-0.547-1.397-0.668
					c-0.506-0.121-0.982-0.183-1.426-0.183h-16.997c-0.85,0-1.548,0.132-2.094,0.395c-0.546,0.264-0.982,0.607-1.305,1.032
					c-0.324,0.425-0.546,0.891-0.668,1.395c-0.121,0.507-0.182,0.982-0.182,1.427v4.249H268.748z"/>
				<path fill="#4A4A4A" d="M323.38,189.047c0.81,0.811,1.214,1.821,1.214,3.035v33.994c0,0.85-0.233,1.639-0.698,2.367
					c-0.466,0.729-1.122,1.255-1.973,1.578c-0.81,0.323-1.629,0.404-2.458,0.243c-0.829-0.161-1.528-0.566-2.094-1.214
					l-26.769-26.77v23.796c0,1.214-0.405,2.226-1.214,3.035c-0.811,0.81-1.821,1.214-3.035,1.214c-1.215,0-2.227-0.404-3.035-1.214
					c-0.811-0.81-1.215-1.821-1.215-3.035v-33.994c0-0.85,0.233-1.639,0.699-2.367c0.465-0.729,1.122-1.254,1.972-1.578
					c0.81-0.323,1.629-0.404,2.458-0.243c0.829,0.162,1.528,0.568,2.094,1.214l26.77,26.77v-23.796c0-1.214,0.404-2.224,1.214-3.035
					c0.81-0.808,1.821-1.214,3.035-1.214S322.57,188.238,323.38,189.047z"/>
			</g>
			<g>
				<path fill="#4A4A4A" d="M227.916,257.436c3.805,1.133,7.33,2.984,10.57,5.555c3.24,2.573,5.94,5.917,8.102,10.03
					c2.16,4.116,3.24,9.157,3.24,15.123c0,4.732-0.721,8.872-2.16,12.422c-1.442,3.549-3.241,6.61-5.401,9.181
					c2.16,2.573,3.959,5.633,5.401,9.182c1.439,3.549,2.16,7.691,2.16,12.422c0,5.968-1.08,11.009-3.24,15.123
					c-2.161,4.115-4.861,7.459-8.102,10.029c-3.24,2.573-6.766,4.425-10.57,5.556c-3.808,1.133-7.306,1.697-10.493,1.697h-64.811
					c-3.086,0-5.658-1.027-7.715-3.086c-2.06-2.057-3.086-4.63-3.086-7.716s1.026-5.656,3.086-7.716
					c2.057-2.057,4.629-3.086,7.715-3.086h64.811c1.131,0,2.339-0.154,3.626-0.463c1.285-0.309,2.47-0.873,3.55-1.697
					c1.08-0.822,1.952-1.929,2.623-3.317c0.668-1.389,1.003-3.164,1.003-5.324s-0.335-3.935-1.003-5.323
					c-0.671-1.389-1.543-2.493-2.623-3.318c-1.08-0.821-2.265-1.389-3.55-1.697c-1.287-0.309-2.495-0.463-3.626-0.463h-21.604
					c-3.086,0-5.658-1.026-7.716-3.086c-2.059-2.057-3.086-4.629-3.086-7.716c0-3.086,1.027-5.656,3.086-7.715
					c2.058-2.057,4.63-3.087,7.716-3.087h21.604c1.234,0,2.493-0.154,3.78-0.463c1.285-0.309,2.442-0.872,3.473-1.697
					c1.026-0.822,1.875-1.929,2.546-3.317c0.668-1.389,1.003-3.163,1.003-5.323c0-2.161-0.335-3.936-1.003-5.324
					c-0.671-1.389-1.543-2.493-2.623-3.317c-1.08-0.822-2.265-1.389-3.55-1.697c-1.287-0.309-2.495-0.463-3.626-0.463h-64.811
					c-3.086,0-5.658-1.027-7.715-3.087c-2.06-2.057-3.086-4.629-3.086-7.715c0-3.087,1.026-5.656,3.086-7.716
					c2.057-2.057,4.629-3.086,7.715-3.086h64.811C220.61,255.739,224.108,256.305,227.916,257.436z"/>
				<path fill="#4A4A4A" d="M348.277,257.436c3.805,1.133,7.33,2.984,10.57,5.555c3.24,2.573,5.94,5.917,8.102,10.03
					c2.16,4.116,3.24,9.157,3.24,15.123v43.206c0,3.294-0.566,6.816-1.697,10.57c-1.134,3.757-2.985,7.253-5.556,10.493
					c-2.572,3.24-5.917,5.941-10.03,8.102c-4.115,2.16-9.157,3.24-15.122,3.24h-43.207c-3.293,0-6.815-0.564-10.57-1.697
					c-3.756-1.131-7.252-2.982-10.493-5.556c-3.24-2.57-5.94-5.914-8.101-10.029c-2.16-4.114-3.24-9.155-3.24-15.123v-43.206
					c0-3.188,0.563-6.687,1.697-10.493c1.131-3.805,2.982-7.33,5.555-10.57c2.57-3.241,5.915-5.941,10.03-8.102
					c4.113-2.16,9.155-3.24,15.122-3.24h43.207C340.971,255.739,344.469,256.305,348.277,257.436z M348.585,331.35v-43.206
					c0-2.161-0.335-3.936-1.003-5.324c-0.671-1.389-1.543-2.493-2.623-3.317c-1.08-0.822-2.265-1.389-3.55-1.697
					c-1.287-0.309-2.495-0.463-3.626-0.463h-43.207c-2.16,0-3.935,0.335-5.323,1.003c-1.389,0.67-2.496,1.543-3.317,2.623
					c-0.825,1.08-1.39,2.264-1.698,3.549c-0.309,1.288-0.463,2.496-0.463,3.627v43.206c0,2.16,0.333,3.936,1.003,5.324
					c0.668,1.389,1.517,2.495,2.547,3.317c1.026,0.824,2.185,1.389,3.472,1.697c1.285,0.309,2.546,0.463,3.78,0.463h43.207
					c2.16,0,3.935-0.333,5.323-1.003c1.39-0.668,2.493-1.543,3.318-2.623c0.822-1.08,1.389-2.262,1.697-3.549
					C348.431,333.692,348.585,332.484,348.585,331.35z"/>
			</g>
			<g>
				<path fill="#FF6650" d="M397.417,118.849c0-14.101-11.431-25.532-25.532-25.532H140.116c-14.101,0-25.532,11.431-25.532,25.532
					v38.975h282.833V118.849z"/>
				<rect x="114.583" y="157.824" fill="#CF5341" width="282.833" height="17"/>
			</g>
			<g>
				<g>
					<circle fill="#CF5341" cx="163" cy="116.253" r="13.317"/>
					<circle fill="#CF5341" cx="209.5" cy="116.253" r="13.317"/>
					<circle fill="#CF5341" cx="256" cy="116.253" r="13.317"/>
					<circle fill="#CF5341" cx="302.5" cy="116.253" r="13.317"/>
					<circle fill="#CF5341" cx="349" cy="116.253" r="13.317"/>
				</g>
			</g>
			<g>
				<path fill="#E3E3E3" d="M163,121.824c-3.313,0-6-2.687-6-6v-42c0-3.313,2.687-6,6-6s6,2.687,6,6v42
					C169,119.137,166.313,121.824,163,121.824z"/>
				<path fill="#E3E3E3" d="M210,121.824c-3.313,0-6-2.687-6-6v-42c0-3.313,2.687-6,6-6s6,2.687,6,6v42
					C216,119.137,213.313,121.824,210,121.824z"/>
				<path fill="#E3E3E3" d="M256,121.824c-3.313,0-6-2.687-6-6v-42c0-3.313,2.687-6,6-6s6,2.687,6,6v42
					C262,119.137,259.313,121.824,256,121.824z"/>
				<path fill="#E3E3E3" d="M303,121.824c-3.313,0-6-2.687-6-6v-42c0-3.313,2.687-6,6-6s6,2.687,6,6v42
					C309,119.137,306.313,121.824,303,121.824z"/>
				<path fill="#E3E3E3" d="M349,121.824c-3.313,0-6-2.687-6-6v-42c0-3.313,2.687-6,6-6s6,2.687,6,6v42
					C355,119.137,352.313,121.824,349,121.824z"/>
			</g>
		</g>
	</g>
	<g id="shopping_bag">
	</g>
	<g id="watch">
	</g>
	<g id="alarm_clock">
	</g>
	<g id="credit_card">
	</g>
	<g id="road_sign">
	</g>
	<g id="hotel">
	</g>
	<g id="money">
	</g>
	<g id="sunglass">
	</g>
	<g id="cocktail">
	</g>
	<g id="compass">
	</g>
	<g id="tent">
	</g>
	<g id="backpack">
	</g>
	<g id="map">
	</g>
	<g id="ticket_1_">
	</g>
	<g id="passport">
	</g>
	<g id="luggage">
	</g>
	<g id="globe">
	</g>
	<g id="suitcase">
	</g>
</g>
<g id="vehicles">
	<g id="trailer">
	</g>
	<g id="airplane">
	</g>
	<g id="yatch">
	</g>
	<g id="taxi">
	</g>
	<g id="hot_air_ballon">
	</g>
	<g id="bus">
	</g>
	<g id="train">
	</g>
</g>
<g id="summer">
	<g id="postcard">
	</g>
	<g id="bikini">
	</g>
	<g id="flipflop">
	</g>
	<g id="plane_around_the_globe">
	</g>
	<g id="binocular">
	</g>
	<g id="beach_table">
	</g>
	<g id="sun_hat">
	</g>
	<g id="beach_bag">
	</g>
	<g id="sea__x26__wave">
	</g>
	<g id="beach">
	</g>
	<g id="beach_ball">
	</g>
	<g id="jetski">
	</g>
	<g id="sandcastle">
	</g>
	<g id="lifeguard_male">
	</g>
	<g id="lifeguard_female">
	</g>
	<g id="lighthouse">
	</g>
	<g id="hammok">
	</g>
	<g id="beach_chair__x26__umbrella">
	</g>
	<g id="lifeguard">
	</g>
	<g id="suncream">
	</g>
	<g id="starfish">
	</g>
	<g id="beach_bar">
	</g>
	<g id="bucket__x26__shovel">
	</g>
	<g id="palm_tree">
	</g>
	<g id="shark_warning">
	</g>
	<g id="surfboard">
	</g>
	<g id="swimming_trunks">
	</g>
	<g id="coconut_drink">
	</g>
	<g id="beach_chair__x26__towel">
	</g>
	<g id="coconut_tree">
	</g>
</g>
</svg>
