<?xml version="1.0" encoding="utf-8"?>
<!-- Generator: Adobe Illustrator 17.0.0, SVG Export Plug-In . SVG Version: 6.00 Build 0)  -->
<!DOCTYPE svg PUBLIC "-//W3C//DTD SVG 1.1//EN" "http://www.w3.org/Graphics/SVG/1.1/DTD/svg11.dtd">
<svg version="1.1" xmlns="http://www.w3.org/2000/svg" xmlns:xlink="http://www.w3.org/1999/xlink" x="0px" y="0px" width="512px"
	 height="512px" viewBox="0 0 512 512" enable-background="new 0 0 512 512" xml:space="preserve">
<g id="famous_places">
	<g id="Pyramid">
	</g>
	<g id="Colloseum">
	</g>
	<g id="Mount_Fuji">
	</g>
	<g id="Great_Wall_of_China">
	</g>
	<g id="Stonehenge">
	</g>
	<g id="Golden_Gate_Bridge">
	</g>
	<g id="Christ_the_Redeemer">
	</g>
	<g id="Statue_of_Liberty">
	</g>
	<g id="Taj_Mahal">
	</g>
	<g id="Eiffel_tower">
	</g>
</g>
<g id="camping">
	<g id="mug">
	</g>
	<g id="hook">
	</g>
	<g id="Swiss_knife">
	</g>
	<g id="flashlight">
	</g>
	<g id="lantern">
	</g>
	<g id="campfire">
	</g>
	<g id="beanie">
	</g>
	<g id="rope">
	</g>
	<g id="boot">
	</g>
	<g id="axe">
	</g>
</g>
<g id="hotel_1_">
	<g id="towel">
	</g>
	<g id="phone">
	</g>
	<g id="pool">
	</g>
	<g id="food_service">
	</g>
	<g id="wifi">
	</g>
	<g id="bed">
	</g>
	<g id="door">
	</g>
	<g id="key">
	</g>
	<g id="do_not_disturb">
	</g>
	<g id="bell">
	</g>
</g>
<g id="winter">
	<g id="snowman">
	</g>
	<g id="snow_mountain">
	</g>
	<g id="reindeer">
	</g>
	<g id="winter_tree">
	</g>
	<g id="lift">
	</g>
	<g id="beanie__x26__google">
	</g>
	<g id="ski">
	</g>
	<g id="snowboard">
	</g>
	<g id="snowboading">
	</g>
	<g id="skiing">
	</g>
</g>
<g id="general_travelling">
	<g id="dinner_set">
	</g>
	<g id="polaroid">
	</g>
	<g id="camera">
	</g>
	<g id="calendar">
	</g>
	<g id="calendar_single">
	</g>
	<g id="shopping_bag">
	</g>
	<g id="watch">
	</g>
	<g id="alarm_clock">
	</g>
	<g id="credit_card">
	</g>
	<g id="road_sign">
	</g>
	<g id="hotel">
	</g>
	<g id="money">
	</g>
	<g id="sunglass">
	</g>
	<g id="cocktail">
	</g>
	<g id="compass">
	</g>
	<g id="tent">
	</g>
	<g id="backpack">
	</g>
	<g id="map">
	</g>
	<g id="ticket_1_">
	</g>
	<g id="passport">
	</g>
	<g id="luggage">
	</g>
	<g id="globe">
	</g>
	<g id="suitcase">
	</g>
</g>
<g id="vehicles">
	<g id="trailer">
	</g>
	<g id="airplane">
	</g>
	<g id="yatch">
	</g>
	<g id="taxi">
	</g>
	<g id="hot_air_ballon">
	</g>
	<g id="bus">
	</g>
	<g id="train">
	</g>
</g>
<g id="summer">
	<g id="postcard">
	</g>
	<g id="bikini">
	</g>
	<g id="flipflop">
	</g>
	<g id="plane_around_the_globe">
	</g>
	<g id="binocular">
	</g>
	<g id="beach_table">
	</g>
	<g id="sun_hat">
	</g>
	<g id="beach_bag">
	</g>
	<g id="sea__x26__wave">
	</g>
	<g id="beach">
	</g>
	<g id="beach_ball">
	</g>
	<g id="jetski">
	</g>
	<g id="sandcastle">
	</g>
	<g id="lifeguard_male">
	</g>
	<g id="lifeguard_female">
	</g>
	<g id="lighthouse">
	</g>
	<g id="hammok">
	</g>
	<g id="beach_chair__x26__umbrella">
	</g>
	<g id="lifeguard">
	</g>
	<g id="suncream">
	</g>
	<g id="starfish">
	</g>
	<g id="beach_bar">
	</g>
	<g id="bucket__x26__shovel">
	</g>
	<g id="palm_tree">
	</g>
	<g id="shark_warning">
	</g>
	<g id="surfboard">
	</g>
	<g id="swimming_trunks">
		<g>
			<rect x="77.045" y="383.127" fill="#2D415A" width="133.947" height="25.794"/>
			<rect x="300.902" y="383.127" fill="#2D415A" width="133.947" height="25.794"/>
			<rect x="136.73" y="103.079" fill="#FFD161" width="240.251" height="25.057"/>
			<path fill="#FF6650" d="M113.706,166.09l142.241-48.64h2.211l141.847,48.64l40.24,209.062
				c1.344,6.994-3.712,13.596-10.814,14.122l-123.517,9.149c-6.739,0.499-12.543-4.698-12.78-11.451
				c-0.85-24.227-3.081-77.44-6.865-98.886c-4.098-23.221-56.545-23.228-60.644,0c-3.785,21.446-6.015,74.658-6.865,98.886
				c-0.237,6.753-6.041,11.95-12.78,11.451L82.57,389.281c-7.14-0.529-12.202-7.194-10.796-14.214L113.706,166.09z"/>
			<polygon fill="#FFD161" points="405.903,198.462 399.672,166.09 399.291,165.96 255.614,219.152 113.302,166.444 
				106.779,198.951 255.614,250.104 			"/>
			<path fill="#FFD161" d="M289.351,319.762l131.22-45.09l-6.35-32.99l-128.115,47.43
				C287.361,296.629,288.44,307.598,289.351,319.762z"/>
			<path fill="#FFD161" d="M225.121,289.109L98.126,242.074l-6.599,32.886l130.349,44.799
				C222.788,307.594,223.867,296.624,225.121,289.109z"/>
			<path fill="#FFD161" d="M292.801,386.972c0.165,4.702,3.032,8.643,7.032,10.439l135.408-46.529l-6.42-33.354l-136.752,50.628
				C292.376,375.348,292.62,381.819,292.801,386.972z"/>
			<path fill="#FFD161" d="M218.427,386.972c0.181-5.154,0.425-11.628,0.732-18.821L82.95,317.704l-6.675,33.265l135.124,46.44
				C215.396,395.613,218.262,391.673,218.427,386.972z"/>
			<path fill="#2D415A" d="M400.005,166.09l-6.699-35.133c-1.494-7.837-8.347-13.507-16.326-13.507H258.158h-2.211H137.016
				c-7.93,0-14.755,5.602-16.301,13.379l-7.009,35.26H400.005z"/>
			<g>
				<g>
					
						<path fill="none" stroke="#E3E3E3" stroke-width="7" stroke-linecap="round" stroke-linejoin="round" stroke-miterlimit="10" d="
						M256.341,138.085c0,0-98.559-1.29-67.054,35.19S256.341,138.085,256.341,138.085z"/>
					
						<path fill="none" stroke="#E3E3E3" stroke-width="7" stroke-linecap="round" stroke-linejoin="round" stroke-miterlimit="10" d="
						M225.121,217.981c0,0-20.01-65.341,31.219-79.896"/>
					
						<path fill="none" stroke="#E3E3E3" stroke-width="7" stroke-linecap="round" stroke-linejoin="round" stroke-miterlimit="10" d="
						M256.033,138.085c0,0,98.559-1.29,67.054,35.19S256.033,138.085,256.033,138.085z"/>
					
						<path fill="none" stroke="#E3E3E3" stroke-width="7" stroke-linecap="round" stroke-linejoin="round" stroke-miterlimit="10" d="
						M287.253,217.981c0,0,20.01-65.341-31.219-79.896"/>
				</g>
				<path fill="#FFFFFF" d="M258.707,151.719h-1.257c-3.291,0-5.959-2.668-5.959-5.959v-10.764c0-3.291,2.668-5.959,5.959-5.959
					h1.257c3.291,0,5.959,2.668,5.959,5.959v10.764C264.666,149.051,261.998,151.719,258.707,151.719z"/>
			</g>
		</g>
	</g>
	<g id="coconut_drink">
	</g>
	<g id="beach_chair__x26__towel">
	</g>
	<g id="coconut_tree">
	</g>
</g>
</svg>
