<?xml version="1.0" encoding="utf-8"?>
<!-- Generator: Adobe Illustrator 17.0.0, SVG Export Plug-In . SVG Version: 6.00 Build 0)  -->
<!DOCTYPE svg PUBLIC "-//W3C//DTD SVG 1.1//EN" "http://www.w3.org/Graphics/SVG/1.1/DTD/svg11.dtd">
<svg version="1.1" xmlns="http://www.w3.org/2000/svg" xmlns:xlink="http://www.w3.org/1999/xlink" x="0px" y="0px" width="512px"
	 height="512px" viewBox="0 0 512 512" enable-background="new 0 0 512 512" xml:space="preserve">
<g id="famous_places">
	<g id="Pyramid">
	</g>
	<g id="Colloseum">
	</g>
	<g id="Mount_Fuji">
	</g>
	<g id="Great_Wall_of_China">
	</g>
	<g id="Stonehenge">
	</g>
	<g id="Golden_Gate_Bridge">
	</g>
	<g id="Christ_the_Redeemer">
	</g>
	<g id="Statue_of_Liberty">
	</g>
	<g id="Taj_Mahal">
	</g>
	<g id="Eiffel_tower">
	</g>
</g>
<g id="camping">
	<g id="mug">
	</g>
	<g id="hook">
	</g>
	<g id="Swiss_knife">
	</g>
	<g id="flashlight">
	</g>
	<g id="lantern">
	</g>
	<g id="campfire">
	</g>
	<g id="beanie">
	</g>
	<g id="rope">
	</g>
	<g id="boot">
	</g>
	<g id="axe">
	</g>
</g>
<g id="hotel_1_">
	<g id="towel">
	</g>
	<g id="phone">
	</g>
	<g id="pool">
	</g>
	<g id="food_service">
	</g>
	<g id="wifi">
	</g>
	<g id="bed">
	</g>
	<g id="door">
	</g>
	<g id="key">
	</g>
	<g id="do_not_disturb">
	</g>
	<g id="bell">
	</g>
</g>
<g id="winter">
	<g id="snowman">
	</g>
	<g id="snow_mountain">
	</g>
	<g id="reindeer">
	</g>
	<g id="winter_tree">
	</g>
	<g id="lift">
	</g>
	<g id="beanie__x26__google">
	</g>
	<g id="ski">
	</g>
	<g id="snowboard">
	</g>
	<g id="snowboading">
	</g>
	<g id="skiing">
	</g>
</g>
<g id="general_travelling">
	<g id="dinner_set">
	</g>
	<g id="polaroid">
	</g>
	<g id="camera">
	</g>
	<g id="calendar">
	</g>
	<g id="calendar_single">
	</g>
	<g id="shopping_bag">
	</g>
	<g id="watch">
	</g>
	<g id="alarm_clock">
	</g>
	<g id="credit_card">
	</g>
	<g id="road_sign">
	</g>
	<g id="hotel">
	</g>
	<g id="money">
	</g>
	<g id="sunglass">
	</g>
	<g id="cocktail">
	</g>
	<g id="compass">
	</g>
	<g id="tent">
	</g>
	<g id="backpack">
	</g>
	<g id="map">
	</g>
	<g id="ticket_1_">
	</g>
	<g id="passport">
	</g>
	<g id="luggage">
	</g>
	<g id="globe">
	</g>
	<g id="suitcase">
	</g>
</g>
<g id="vehicles">
	<g id="trailer">
	</g>
	<g id="airplane">
	</g>
	<g id="yatch">
	</g>
	<g id="taxi">
	</g>
	<g id="hot_air_ballon">
	</g>
	<g id="bus">
	</g>
	<g id="train">
	</g>
</g>
<g id="summer">
	<g id="postcard">
	</g>
	<g id="bikini">
	</g>
	<g id="flipflop">
	</g>
	<g id="plane_around_the_globe">
	</g>
	<g id="binocular">
	</g>
	<g id="beach_table">
	</g>
	<g id="sun_hat">
	</g>
	<g id="beach_bag">
	</g>
	<g id="sea__x26__wave">
	</g>
	<g id="beach">
	</g>
	<g id="beach_ball">
	</g>
	<g id="jetski">
	</g>
	<g id="sandcastle">
	</g>
	<g id="lifeguard_male">
	</g>
	<g id="lifeguard_female">
	</g>
	<g id="lighthouse">
	</g>
	<g id="hammok">
	</g>
	<g id="beach_chair__x26__umbrella">
	</g>
	<g id="lifeguard">
	</g>
	<g id="suncream">
	</g>
	<g id="starfish">
	</g>
	<g id="beach_bar">
	</g>
	<g id="bucket__x26__shovel">
	</g>
	<g id="palm_tree">
		<g>
			<g>
				<g>
					<path fill="#4FB463" d="M266.639,128.505c-1.276-15.979-8.789-32.462-21.152-46.413
						c-12.364-13.951-27.825-23.389-43.534-26.577c-16.217-3.29-31.364,0.408-42.656,10.416c-0.827,0.732-0.903,1.997-0.171,2.823
						l11.054,12.473c0.353,0.397,0.848,0.638,1.377,0.67c0.531,0.031,1.051-0.148,1.446-0.5l14.541-12.886l9.19,10.37l-14.54,12.887
						c-0.397,0.352-0.639,0.847-0.67,1.376c-0.032,0.53,0.147,1.05,0.499,1.447l7.106,8.018c0.732,0.826,1.997,0.902,2.823,0.17
						l14.541-12.886l9.19,10.371l-14.54,12.886c-0.397,0.352-0.639,0.847-0.67,1.376c-0.032,0.53,0.147,1.05,0.499,1.447
						l7.106,8.019c0.732,0.826,1.998,0.902,2.823,0.17l14.541-12.886l9.19,10.371l-14.54,12.886
						c-0.397,0.352-0.639,0.847-0.67,1.376c-0.032,0.53,0.147,1.05,0.499,1.447l7.106,8.019c0.353,0.397,0.848,0.638,1.377,0.67
						c0.53,0.033,1.051-0.148,1.446-0.5l14.54-12.886l9.631,10.867l-8.121,16.688c-0.221,0.455-0.262,0.976-0.114,1.459l2.144,7.015
						c0.199,0.651,0.716,1.156,1.371,1.341c0.179,0.05,0.36,0.075,0.542,0.075c0.482,0,0.956-0.175,1.326-0.503
						C262.463,159.594,267.956,144.999,266.639,128.505z"/>
					<path fill="#4FB463" d="M352.704,65.932c-11.29-10.008-26.438-13.706-42.656-10.416c-15.709,3.188-31.17,12.626-43.534,26.577
						c-12.363,13.951-19.876,30.434-21.152,46.413c-1.317,16.494,4.176,31.088,15.468,41.095c0.369,0.328,0.843,0.503,1.326,0.503
						c0.159,0,0.319-0.019,0.477-0.058c0.638-0.156,1.158-0.616,1.393-1.229l2.676-7.015c0.202-0.532,0.169-1.125-0.092-1.63
						L258,143.5l9.607-10.841l14.54,12.886c0.396,0.352,0.92,0.534,1.446,0.5c0.529-0.032,1.024-0.273,1.377-0.67l7.106-8.019
						c0.352-0.397,0.531-0.917,0.499-1.447c-0.031-0.529-0.272-1.024-0.67-1.376l-14.54-12.886l9.19-10.371l14.541,12.886
						c0.827,0.733,2.09,0.656,2.823-0.17l7.106-8.019c0.352-0.397,0.531-0.917,0.499-1.447c-0.031-0.529-0.272-1.024-0.67-1.376
						l-14.54-12.886l9.19-10.371l14.541,12.886c0.827,0.733,2.09,0.656,2.823-0.17l7.106-8.018c0.352-0.397,0.531-0.917,0.499-1.447
						c-0.031-0.529-0.272-1.024-0.67-1.376l-14.54-12.887l9.19-10.37l14.541,12.886c0.396,0.352,0.92,0.532,1.446,0.5
						c0.529-0.032,1.024-0.273,1.377-0.67l11.054-12.473C353.607,67.928,353.531,66.664,352.704,65.932z"/>
					<g>
						<path fill="#62E07B" d="M293.24,117.2l7.858,6.963c0.827,0.733,2.09,0.656,2.823-0.17l7.106-8.019
							c0.133-0.15,0.233-0.323,0.315-0.502C305.012,115.348,298.937,115.944,293.24,117.2z"/>
						<path fill="#62E07B" d="M200.658,115.472c0.082,0.18,0.182,0.352,0.315,0.503l7.106,8.019c0.732,0.826,1.998,0.902,2.823,0.17
							l7.858-6.964C213.063,115.944,206.988,115.348,200.658,115.472z"/>
						<path fill="#62E07B" d="M256,144.457c-4.633-9.551-12.426-17.026-22.28-22l-13.626,12.077
							c-0.397,0.352-0.639,0.847-0.67,1.376c-0.032,0.53,0.147,1.05,0.499,1.447l3.982,4.493l12.766-3.504l0.458,0.751l7.263-6.437
							l0.795,0.897c0.036,7.149,1.394,13.866,3.995,19.916l-1.458,2.996l0.413,0.677c0.522,0.858,1.601,1.195,2.521,0.786
							l5.342-2.378l5.342,2.378c0.921,0.41,1.998,0.073,2.521-0.786l0.641-1.051l-1.539-2.98c2.502-5.958,3.812-12.549,3.848-19.558
							l0.795-0.897l7.263,6.437l0.458-0.751l12.766,3.504l3.982-4.493c0.352-0.397,0.531-0.917,0.499-1.447
							c-0.031-0.529-0.272-1.024-0.67-1.376l-13.626-12.077C268.426,127.431,260.633,134.906,256,144.457z"/>
					</g>
					<path fill="#4FB463" d="M258.971,164.371c-8.117-29.569-42.954-43.985-81.027-33.534c-38.077,10.452-60.671,40.631-52.556,70.2
						c0.141,0.512,0.479,0.946,0.939,1.209c0.304,0.173,0.646,0.262,0.989,0.262c0.178,0,0.355-0.023,0.529-0.071l16.072-4.412
						c1.065-0.292,1.691-1.393,1.399-2.458l-5.143-18.735l13.363-3.668l5.143,18.735c0.292,1.065,1.391,1.692,2.458,1.399
						l10.332-2.836c1.065-0.292,1.691-1.393,1.399-2.458l-5.143-18.735l13.362-3.668l5.143,18.735
						c0.293,1.064,1.392,1.69,2.458,1.399l10.332-2.836c1.065-0.292,1.691-1.393,1.399-2.458l-5.143-18.735l13.363-3.668
						l5.143,18.735c0.293,1.064,1.392,1.691,2.458,1.399l10.332-2.836c1.065-0.292,1.691-1.393,1.399-2.458l-5.143-18.735
						l13.839-3.799l11.467,18.8c0.522,0.858,1.601,1.195,2.521,0.786l7.197-3.204C258.759,166.326,259.232,165.324,258.971,164.371z
						"/>
					<path fill="#4FB463" d="M334.057,130.837c-38.073-10.45-72.911,3.965-81.027,33.534c-0.262,0.953,0.212,1.955,1.115,2.356
						l7.197,3.204c0.921,0.41,1.998,0.073,2.521-0.786l11.467-18.8l13.839,3.799l-5.143,18.735
						c-0.292,1.065,0.334,2.166,1.399,2.458l10.332,2.836c1.064,0.294,2.165-0.335,2.458-1.399l5.143-18.735l13.363,3.668
						l-5.143,18.735c-0.292,1.065,0.334,2.166,1.399,2.458l10.332,2.836c1.064,0.293,2.165-0.335,2.458-1.399l5.143-18.735
						l13.362,3.668l-5.143,18.735c-0.292,1.065,0.334,2.166,1.399,2.458l10.332,2.836c1.065,0.295,2.165-0.334,2.458-1.399
						l5.143-18.735l13.363,3.668l-5.143,18.735c-0.292,1.065,0.334,2.166,1.399,2.458l16.072,4.412
						c0.174,0.048,0.352,0.071,0.529,0.071c0.344,0,0.686-0.089,0.989-0.262c0.461-0.263,0.799-0.697,0.939-1.209
						C394.728,171.468,372.134,141.289,334.057,130.837z"/>
				</g>
				<g>
					<g>
						<g>
							<path fill="#B56D3B" d="M266.648,298.198c-0.543,0.956-1.888,1.739-2.988,1.739H248.34c-1.1,0-2.445-0.783-2.988-1.739
								l-7.683-13.522c-0.543-0.956-0.088-1.739,1.012-1.739h34.638c1.1,0,1.555,0.783,1.012,1.739L266.648,298.198z"/>
						</g>
						<g>
							<path fill="#8A532D" d="M266.529,281.136c-0.478,0.991-1.77,1.801-2.87,1.801H248.34c-1.1,0-2.391-0.81-2.87-1.801
								l-7.92-16.398c-0.478-0.991,0.03-1.801,1.13-1.801h34.638c1.1,0,1.609,0.81,1.13,1.801L266.529,281.136z"/>
						</g>
						<g>
							<path fill="#B56D3B" d="M266.605,261.175c-0.52,0.969-1.846,1.762-2.946,1.762H248.34c-1.1,0-2.426-0.793-2.946-1.762
								l-7.768-14.475c-0.52-0.969-0.046-1.762,1.054-1.762h34.638c1.1,0,1.574,0.793,1.054,1.762L266.605,261.175z"/>
						</g>
						<g>
							<path fill="#8A532D" d="M266.648,243.198c-0.543,0.956-1.888,1.739-2.988,1.739H248.34c-1.1,0-2.445-0.783-2.988-1.739
								l-7.683-13.522c-0.543-0.956-0.088-1.739,1.012-1.739h34.638c1.1,0,1.555,0.783,1.012,1.739L266.648,243.198z"/>
						</g>
						<g>
							<path fill="#B56D3B" d="M266.648,226.198c-0.543,0.956-1.888,1.739-2.988,1.739H248.34c-1.1,0-2.445-0.783-2.988-1.739
								l-7.683-13.522c-0.543-0.956-0.088-1.739,1.012-1.739h34.638c1.1,0,1.555,0.783,1.012,1.739L266.648,226.198z"/>
						</g>
						<g>
							<path fill="#8A532D" d="M266.529,209.136c-0.478,0.991-1.77,1.801-2.87,1.801H248.34c-1.1,0-2.391-0.81-2.87-1.801
								l-7.92-16.398c-0.478-0.991,0.03-1.801,1.13-1.801h34.638c1.1,0,1.609,0.81,1.13,1.801L266.529,209.136z"/>
						</g>
						<g>
							<path fill="#B56D3B" d="M266.648,189.198c-0.543,0.956-1.888,1.739-2.988,1.739H248.34c-1.1,0-2.445-0.783-2.988-1.739
								l-7.683-13.522c-0.543-0.956-0.088-1.739,1.012-1.739h34.638c1.1,0,1.555,0.783,1.012,1.739L266.648,189.198z"/>
						</g>
						<g>
							<path fill="#8A532D" d="M266.648,172.198c-0.543,0.956-1.888,1.739-2.988,1.739H248.34c-1.1,0-2.445-0.783-2.988-1.739
								l-7.683-13.522c-0.543-0.956-0.088-1.739,1.012-1.739h34.638c1.1,0,1.555,0.783,1.012,1.739L266.648,172.198z"/>
						</g>
						<g>
							<path fill="#B56D3B" d="M266.648,441.198c-0.543,0.956-1.888,1.739-2.988,1.739H248.34c-1.1,0-2.445-0.783-2.988-1.739
								l-7.683-13.522c-0.543-0.956-0.088-1.739,1.012-1.739h34.638c1.1,0,1.555,0.783,1.012,1.739L266.648,441.198z"/>
						</g>
						<g>
							<path fill="#8A532D" d="M266.529,424.136c-0.478,0.991-1.77,1.801-2.87,1.801H248.34c-1.1,0-2.391-0.81-2.87-1.801
								l-7.92-16.398c-0.478-0.991,0.03-1.801,1.13-1.801h34.638c1.1,0,1.609,0.81,1.13,1.801L266.529,424.136z"/>
						</g>
						<g>
							<path fill="#B56D3B" d="M266.648,404.198c-0.543,0.956-1.888,1.739-2.988,1.739H248.34c-1.1,0-2.445-0.783-2.988-1.739
								l-7.683-13.522c-0.543-0.956-0.088-1.739,1.012-1.739h34.638c1.1,0,1.555,0.783,1.012,1.739L266.648,404.198z"/>
						</g>
						<g>
							<path fill="#8A532D" d="M266.605,387.175c-0.52,0.969-1.846,1.762-2.946,1.762H248.34c-1.1,0-2.426-0.793-2.946-1.762
								l-7.768-14.475c-0.52-0.969-0.046-1.762,1.054-1.762h34.638c1.1,0,1.574,0.793,1.054,1.762L266.605,387.175z"/>
						</g>
						<g>
							<path fill="#B56D3B" d="M266.648,369.198c-0.543,0.956-1.888,1.739-2.988,1.739H248.34c-1.1,0-2.445-0.783-2.988-1.739
								l-7.683-13.522c-0.543-0.956-0.088-1.739,1.012-1.739h34.638c1.1,0,1.555,0.783,1.012,1.739L266.648,369.198z"/>
						</g>
						<g>
							<path fill="#8A532D" d="M266.529,352.136c-0.478,0.991-1.77,1.801-2.87,1.801H248.34c-1.1,0-2.391-0.81-2.87-1.801
								l-7.92-16.398c-0.478-0.991,0.03-1.801,1.13-1.801h34.638c1.1,0,1.609,0.81,1.13,1.801L266.529,352.136z"/>
						</g>
						<g>
							<path fill="#B56D3B" d="M266.648,332.198c-0.543,0.956-1.888,1.739-2.988,1.739H248.34c-1.1,0-2.445-0.783-2.988-1.739
								l-7.683-13.522c-0.543-0.956-0.088-1.739,1.012-1.739h34.638c1.1,0,1.555,0.783,1.012,1.739L266.648,332.198z"/>
						</g>
						<g>
							<path fill="#8A532D" d="M266.648,315.198c-0.543,0.956-1.888,1.739-2.988,1.739H248.34c-1.1,0-2.445-0.783-2.988-1.739
								l-7.683-13.522c-0.543-0.956-0.088-1.739,1.012-1.739h34.638c1.1,0,1.555,0.783,1.012,1.739L266.648,315.198z"/>
						</g>
					</g>
				</g>
			</g>
			<path fill="#FFD161" d="M331.666,454.082c-1.892-0.804-46.659-19.682-75.252-19.682c-28.579,0-74.135,18.87-76.06,19.673
				c-1.097,0.458-1.608,1.346-1.252,2.178c0.356,0.831,1.493,1.404,2.786,1.404h148.223c1.289,0,2.423-0.569,2.783-1.397
				C333.255,455.431,332.754,454.544,331.666,454.082z"/>
		</g>
	</g>
	<g id="shark_warning">
	</g>
	<g id="surfboard">
	</g>
	<g id="swimming_trunks">
	</g>
	<g id="coconut_drink">
	</g>
	<g id="beach_chair__x26__towel">
	</g>
	<g id="coconut_tree">
	</g>
</g>
</svg>
