<?xml version="1.0" encoding="utf-8"?>
<!-- Generator: Adobe Illustrator 17.0.0, SVG Export Plug-In . SVG Version: 6.00 Build 0)  -->
<!DOCTYPE svg PUBLIC "-//W3C//DTD SVG 1.1//EN" "http://www.w3.org/Graphics/SVG/1.1/DTD/svg11.dtd">
<svg version="1.1" xmlns="http://www.w3.org/2000/svg" xmlns:xlink="http://www.w3.org/1999/xlink" x="0px" y="0px" width="512px"
	 height="512px" viewBox="0 0 512 512" enable-background="new 0 0 512 512" xml:space="preserve">
<g id="famous_places">
	<g id="Pyramid">
	</g>
	<g id="Colloseum">
	</g>
	<g id="Mount_Fuji">
	</g>
	<g id="Great_Wall_of_China">
	</g>
	<g id="Stonehenge">
	</g>
	<g id="Golden_Gate_Bridge">
	</g>
	<g id="Christ_the_Redeemer">
	</g>
	<g id="Statue_of_Liberty">
	</g>
	<g id="Taj_Mahal">
	</g>
	<g id="Eiffel_tower">
	</g>
</g>
<g id="camping">
	<g id="mug">
	</g>
	<g id="hook">
	</g>
	<g id="Swiss_knife">
	</g>
	<g id="flashlight">
	</g>
	<g id="lantern">
	</g>
	<g id="campfire">
	</g>
	<g id="beanie">
	</g>
	<g id="rope">
	</g>
	<g id="boot">
	</g>
	<g id="axe">
	</g>
</g>
<g id="hotel_1_">
	<g id="towel">
	</g>
	<g id="phone">
	</g>
	<g id="pool">
	</g>
	<g id="food_service">
	</g>
	<g id="wifi">
	</g>
	<g id="bed">
	</g>
	<g id="door">
	</g>
	<g id="key">
	</g>
	<g id="do_not_disturb">
	</g>
	<g id="bell">
	</g>
</g>
<g id="winter">
	<g id="snowman">
	</g>
	<g id="snow_mountain">
	</g>
	<g id="reindeer">
	</g>
	<g id="winter_tree">
	</g>
	<g id="lift">
	</g>
	<g id="beanie__x26__google">
	</g>
	<g id="ski">
	</g>
	<g id="snowboard">
	</g>
	<g id="snowboading">
	</g>
	<g id="skiing">
	</g>
</g>
<g id="general_travelling">
	<g id="dinner_set">
	</g>
	<g id="polaroid">
	</g>
	<g id="camera">
	</g>
	<g id="calendar">
	</g>
	<g id="calendar_single">
	</g>
	<g id="shopping_bag">
	</g>
	<g id="watch">
	</g>
	<g id="alarm_clock">
	</g>
	<g id="credit_card">
	</g>
	<g id="road_sign">
	</g>
	<g id="hotel">
	</g>
	<g id="money">
	</g>
	<g id="sunglass">
	</g>
	<g id="cocktail">
	</g>
	<g id="compass">
	</g>
	<g id="tent">
	</g>
	<g id="backpack">
	</g>
	<g id="map">
	</g>
	<g id="ticket_1_">
	</g>
	<g id="passport">
	</g>
	<g id="luggage">
	</g>
	<g id="globe">
	</g>
	<g id="suitcase">
	</g>
</g>
<g id="vehicles">
	<g id="trailer">
	</g>
	<g id="airplane">
	</g>
	<g id="yatch">
	</g>
	<g id="taxi">
	</g>
	<g id="hot_air_ballon">
	</g>
	<g id="bus">
	</g>
	<g id="train">
	</g>
</g>
<g id="summer">
	<g id="postcard">
	</g>
	<g id="bikini">
	</g>
	<g id="flipflop">
	</g>
	<g id="plane_around_the_globe">
	</g>
	<g id="binocular">
	</g>
	<g id="beach_table">
	</g>
	<g id="sun_hat">
	</g>
	<g id="beach_bag">
	</g>
	<g id="sea__x26__wave">
	</g>
	<g id="beach">
	</g>
	<g id="beach_ball">
	</g>
	<g id="jetski">
	</g>
	<g id="sandcastle">
	</g>
	<g id="lifeguard_male">
	</g>
	<g id="lifeguard_female">
	</g>
	<g id="lighthouse">
	</g>
	<g id="hammok">
	</g>
	<g id="beach_chair__x26__umbrella">
	</g>
	<g id="lifeguard">
	</g>
	<g id="suncream">
	</g>
	<g id="starfish">
		<g>
			<path fill="#FFB561" d="M276.693,115.909l31.453,63.732c3.361,6.811,9.859,11.531,17.375,12.624l70.332,10.22
				c18.927,2.75,26.485,26.01,12.789,39.361l-50.893,49.608c-5.439,5.301-7.92,12.94-6.637,20.425l12.014,70.048
				c3.233,18.851-16.553,33.226-33.482,24.326l-62.907-33.072c-6.723-3.534-14.754-3.534-21.476,0l-62.907,33.072
				c-16.929,8.9-36.715-5.475-33.482-24.326l12.014-70.048c1.284-7.486-1.198-15.124-6.637-20.425l-50.893-49.608
				c-13.696-13.35-6.138-36.61,12.789-39.361l70.332-10.22c7.516-1.092,14.013-5.813,17.375-12.624l31.453-63.732
				C243.772,98.758,268.228,98.758,276.693,115.909z"/>
			<path fill="#FF9B29" d="M276.668,287.937h-41.501l-80.123,113.746c6.69,6.851,17.478,9.64,27.311,4.471l62.907-33.023
				c6.723-3.534,14.754-3.51,21.477,0.025l62.907,33.084c8.974,4.718,20.586,0.999,27.311-4.563L276.668,287.937z"/>
			<polygon fill="#FFD161" points="235.167,288.144 222.292,248.209 256,223.564 289.708,248.286 276.833,288.144 			"/>
			<g>
				<g>
					<g>
						<path fill="#FFD161" d="M233.436,292.281c-0.299,0-0.601-0.089-0.864-0.274c-0.677-0.478-0.838-1.414-0.36-2.09l1.729-2.451
							c0.477-0.677,1.411-0.839,2.091-0.361c0.677,0.478,0.838,1.414,0.36,2.09l-1.729,2.451
							C234.371,292.059,233.907,292.281,233.436,292.281z"/>
					</g>
					<g>
						<path fill="#FFD161" d="M166.958,386.494c-0.299,0-0.601-0.089-0.864-0.274c-0.677-0.478-0.838-1.414-0.36-2.09l3.693-5.234
							c0.477-0.677,1.411-0.839,2.091-0.361c0.677,0.478,0.838,1.414,0.36,2.09l-3.693,5.234
							C167.892,386.273,167.429,386.494,166.958,386.494z M178.038,370.792c-0.299,0-0.601-0.089-0.864-0.274
							c-0.677-0.478-0.838-1.414-0.36-2.09l3.693-5.234c0.477-0.677,1.411-0.839,2.091-0.361c0.677,0.478,0.838,1.414,0.36,2.09
							l-3.693,5.234C178.973,370.571,178.509,370.792,178.038,370.792z M189.118,355.09c-0.299,0-0.601-0.089-0.864-0.274
							c-0.677-0.478-0.838-1.414-0.36-2.09l3.693-5.234c0.477-0.677,1.411-0.839,2.091-0.361c0.677,0.478,0.838,1.414,0.36,2.09
							l-3.693,5.234C190.053,354.869,189.589,355.09,189.118,355.09z M200.197,339.388c-0.299,0-0.601-0.089-0.864-0.274
							c-0.677-0.478-0.838-1.414-0.36-2.09l3.693-5.234c0.477-0.677,1.411-0.839,2.091-0.361c0.677,0.478,0.838,1.414,0.36,2.09
							l-3.693,5.234C201.132,339.166,200.668,339.388,200.197,339.388z M211.277,323.685c-0.299,0-0.601-0.089-0.864-0.274
							c-0.677-0.478-0.838-1.414-0.36-2.09l3.693-5.234c0.477-0.677,1.411-0.839,2.091-0.361c0.677,0.478,0.838,1.414,0.36,2.09
							l-3.693,5.234C212.212,323.464,211.748,323.685,211.277,323.685z M222.357,307.983c-0.299,0-0.601-0.089-0.864-0.274
							c-0.677-0.478-0.838-1.414-0.36-2.09l3.693-5.234c0.477-0.677,1.411-0.839,2.091-0.361c0.677,0.478,0.838,1.414,0.36,2.09
							l-3.693,5.234C223.292,307.762,222.828,307.983,222.357,307.983z"/>
					</g>
					<g>
						<path fill="#FFD161" d="M157.842,399.414c-0.299,0-0.601-0.089-0.863-0.274c-0.678-0.478-0.839-1.413-0.361-2.09l1.729-2.452
							c0.478-0.677,1.413-0.839,2.09-0.361c0.678,0.478,0.839,1.413,0.361,2.09l-1.729,2.452
							C158.776,399.193,158.312,399.414,157.842,399.414z"/>
					</g>
				</g>
			</g>
			<g>
				<g>
					<g>
						<path fill="#FFD161" d="M278.563,292.281c-0.471,0-0.935-0.221-1.227-0.635l-1.729-2.451c-0.478-0.677-0.316-1.613,0.36-2.09
							c0.68-0.478,1.613-0.316,2.091,0.361l1.729,2.451c0.478,0.677,0.316,1.613-0.36,2.09
							C279.164,292.192,278.862,292.281,278.563,292.281z"/>
					</g>
					<g>
						<path fill="#FFD161" d="M345.043,386.494c-0.471,0-0.935-0.221-1.227-0.635l-3.693-5.234c-0.478-0.677-0.316-1.613,0.36-2.09
							c0.677-0.478,1.613-0.316,2.091,0.361l3.693,5.234c0.478,0.677,0.316,1.613-0.36,2.09
							C345.644,386.406,345.342,386.494,345.043,386.494z M333.963,370.792c-0.471,0-0.935-0.221-1.227-0.635l-3.693-5.234
							c-0.478-0.677-0.316-1.613,0.36-2.09c0.679-0.478,1.613-0.316,2.091,0.361l3.693,5.234c0.478,0.677,0.316,1.613-0.36,2.09
							C334.563,370.703,334.262,370.792,333.963,370.792z M322.883,355.09c-0.471,0-0.935-0.221-1.227-0.635l-3.693-5.234
							c-0.478-0.677-0.316-1.613,0.36-2.09c0.679-0.478,1.613-0.316,2.091,0.361l3.693,5.234c0.478,0.677,0.316,1.613-0.36,2.09
							C323.483,355.001,323.182,355.09,322.883,355.09z M311.804,339.388c-0.471,0-0.935-0.221-1.227-0.635l-3.693-5.234
							c-0.478-0.677-0.316-1.613,0.36-2.09c0.676-0.478,1.613-0.316,2.091,0.361l3.693,5.234c0.478,0.677,0.316,1.613-0.36,2.09
							C312.404,339.299,312.102,339.388,311.804,339.388z M300.724,323.685c-0.471,0-0.935-0.221-1.227-0.635l-3.693-5.234
							c-0.478-0.677-0.316-1.613,0.36-2.09c0.679-0.478,1.613-0.316,2.091,0.361l3.693,5.234c0.478,0.677,0.316,1.613-0.36,2.09
							C301.324,323.596,301.022,323.685,300.724,323.685z M289.643,307.983c-0.471,0-0.935-0.221-1.227-0.635l-3.693-5.234
							c-0.478-0.677-0.316-1.613,0.36-2.09c0.677-0.478,1.613-0.316,2.091,0.361l3.693,5.234c0.478,0.677,0.316,1.613-0.36,2.09
							C290.245,307.894,289.942,307.983,289.643,307.983z"/>
					</g>
					<g>
						<path fill="#FFD161" d="M354.159,399.414c-0.471,0-0.935-0.221-1.227-0.635l-1.729-2.452c-0.478-0.677-0.316-1.613,0.361-2.09
							c0.677-0.478,1.612-0.316,2.09,0.361l1.729,2.452c0.478,0.677,0.316,1.613-0.361,2.09
							C354.76,399.326,354.458,399.414,354.159,399.414z"/>
					</g>
				</g>
			</g>
			<g>
				<g>
					<g>
						<g>
							<path fill="#FFD161" d="M222.293,249.803c-0.125,0-0.251-0.016-0.377-0.048l-2.904-0.753
								c-0.803-0.208-1.284-1.027-1.076-1.829c0.208-0.802,1.028-1.285,1.828-1.076l2.904,0.753
								c0.803,0.208,1.284,1.027,1.076,1.829C223.568,249.354,222.96,249.803,222.293,249.803z"/>
						</g>
						<g>
							<path fill="#FFD161" d="M207.952,246.084c-0.125,0-0.251-0.016-0.377-0.048l-5.719-1.482
								c-0.803-0.208-1.284-1.027-1.076-1.829c0.209-0.803,1.029-1.283,1.828-1.076l5.719,1.482
								c0.803,0.208,1.284,1.027,1.076,1.829C209.228,245.636,208.619,246.084,207.952,246.084z M190.796,241.637
								c-0.125,0-0.251-0.016-0.378-0.048l-5.719-1.483c-0.802-0.208-1.283-1.027-1.075-1.829c0.208-0.803,1.024-1.284,1.829-1.076
								l5.719,1.483c0.802,0.208,1.283,1.027,1.075,1.829C192.071,241.188,191.463,241.637,190.796,241.637z M173.64,237.189
								c-0.125,0-0.251-0.016-0.378-0.048l-5.719-1.483c-0.802-0.208-1.283-1.027-1.075-1.829c0.208-0.803,1.022-1.285,1.829-1.076
								l5.719,1.483c0.802,0.208,1.283,1.027,1.075,1.829C174.915,236.741,174.307,237.189,173.64,237.189z M156.484,232.741
								c-0.125,0-0.251-0.016-0.377-0.048l-5.719-1.482c-0.803-0.208-1.284-1.027-1.076-1.829c0.207-0.803,1.029-1.286,1.828-1.076
								l5.719,1.482c0.803,0.208,1.284,1.027,1.076,1.829C157.761,232.292,157.151,232.741,156.484,232.741z M139.328,228.293
								c-0.125,0-0.251-0.016-0.377-0.048l-5.719-1.482c-0.803-0.208-1.284-1.027-1.076-1.829c0.208-0.803,1.028-1.284,1.828-1.076
								l5.719,1.482c0.803,0.208,1.284,1.027,1.076,1.829C140.604,227.845,139.995,228.293,139.328,228.293z M122.172,223.845
								c-0.125,0-0.251-0.016-0.378-0.048l-5.719-1.483c-0.802-0.208-1.283-1.027-1.075-1.829c0.209-0.803,1.023-1.284,1.829-1.076
								l5.719,1.483c0.802,0.208,1.283,1.027,1.075,1.829C123.447,223.397,122.839,223.845,122.172,223.845z"/>
						</g>
						<g>
							<path fill="#FFD161" d="M105.016,219.397c-0.125,0-0.251-0.016-0.377-0.048l-2.904-0.753
								c-0.803-0.208-1.284-1.027-1.076-1.829c0.208-0.802,1.029-1.285,1.828-1.076l2.904,0.753
								c0.803,0.208,1.284,1.027,1.076,1.829C106.291,218.949,105.682,219.397,105.016,219.397z"/>
						</g>
					</g>
				</g>
				<g>
					<g>
						<g>
							<path fill="#FFD161" d="M289.707,249.803c-0.672,0-1.283-0.455-1.454-1.135c-0.201-0.804,0.286-1.619,1.09-1.82l2.91-0.73
								c0.806-0.202,1.619,0.287,1.82,1.09c0.201,0.804-0.286,1.619-1.09,1.82l-2.91,0.73
								C289.95,249.788,289.828,249.803,289.707,249.803z"/>
						</g>
						<g>
							<path fill="#FFD161" d="M303.791,246.267c-0.672,0-1.283-0.455-1.454-1.135c-0.201-0.804,0.286-1.619,1.09-1.82l5.587-1.402
								c0.806-0.202,1.619,0.287,1.82,1.09c0.201,0.804-0.286,1.619-1.09,1.82l-5.587,1.402
								C304.034,246.253,303.912,246.267,303.791,246.267z M320.553,242.06c-0.672,0-1.283-0.455-1.454-1.135
								c-0.201-0.804,0.286-1.619,1.09-1.82l5.587-1.402c0.805-0.2,1.619,0.287,1.82,1.09c0.201,0.804-0.286,1.619-1.09,1.82
								l-5.587,1.402C320.796,242.046,320.674,242.06,320.553,242.06z M337.314,237.853c-0.672,0-1.283-0.455-1.454-1.135
								c-0.201-0.804,0.286-1.619,1.09-1.82l5.587-1.402c0.808-0.201,1.618,0.287,1.82,1.09c0.201,0.804-0.286,1.619-1.09,1.82
								l-5.587,1.402C337.557,237.839,337.435,237.853,337.314,237.853z M354.076,233.647c-0.672,0-1.283-0.455-1.454-1.135
								c-0.201-0.804,0.286-1.619,1.09-1.82l5.587-1.402c0.807-0.202,1.619,0.287,1.82,1.09c0.201,0.804-0.286,1.619-1.09,1.82
								l-5.587,1.402C354.319,233.632,354.197,233.647,354.076,233.647z M370.838,229.44c-0.672,0-1.283-0.455-1.454-1.135
								c-0.201-0.804,0.286-1.619,1.09-1.82l5.587-1.402c0.807-0.2,1.619,0.287,1.82,1.09c0.201,0.804-0.286,1.619-1.09,1.82
								l-5.587,1.402C371.081,229.425,370.959,229.44,370.838,229.44z M387.599,225.233c-0.672,0-1.283-0.455-1.454-1.135
								c-0.201-0.804,0.286-1.619,1.09-1.82l5.587-1.402c0.806-0.201,1.619,0.286,1.82,1.09s-0.286,1.619-1.09,1.82l-5.587,1.402
								C387.843,225.218,387.721,225.233,387.599,225.233z"/>
						</g>
						<g>
							<path fill="#FFD161" d="M404.361,221.026c-0.672,0-1.283-0.455-1.454-1.135c-0.201-0.804,0.286-1.619,1.09-1.82l2.91-0.73
								c0.806-0.202,1.619,0.287,1.82,1.09c0.201,0.804-0.286,1.619-1.09,1.82l-2.91,0.73
								C404.604,221.011,404.482,221.026,404.361,221.026z"/>
						</g>
					</g>
				</g>
				<g>
					<g>
						<g>
							<path fill="#FFD161" d="M256,233.937c-0.826,0-1.498-0.54-1.5-1.367l-0.009-3.064c-0.002-0.829,0.667-1.568,1.496-1.568
								h0.004c0.826,0,1.498,0.797,1.5,1.624l0.009,2.936c0.002,0.829-0.667,1.44-1.495,1.44H256z"/>
						</g>
						<g>
							<path fill="#FFD161" d="M255.954,218.937c-0.826,0-1.497-0.618-1.5-1.445l-0.019-6.064c-0.003-0.828,0.667-1.491,1.495-1.491
								c0,0,0.004,0,0.005,0c0.826,0,1.497,0.68,1.5,1.508l0.019,6.033c0.003,0.828-0.667,1.46-1.495,1.46H255.954z
								 M255.898,200.937c-0.826,0-1.497-0.734-1.5-1.561l-0.019-6.006c-0.003-0.828,0.667-1.433,1.495-1.433
								c0.002,0,0.004,0,0.004,0c0.827,0,1.498,0.564,1.501,1.391l0.019,6.091c0.003,0.828-0.667,1.518-1.495,1.518H255.898z
								 M255.843,181.937c-0.826,0-1.497-0.35-1.5-1.177l-0.019-6.198c-0.003-0.828,0.667-1.625,1.495-1.625h0.005
								c0.826,0,1.497,0.948,1.5,1.775l0.019,5.899c0.003,0.828-0.667,1.326-1.495,1.326H255.843z M255.786,163.937
								c-0.826,0-1.497-0.466-1.5-1.293l-0.019-6.14c-0.003-0.828,0.667-1.567,1.495-1.567h0.005c0.826,0,1.497,0.832,1.5,1.659
								l0.019,5.957c0.003,0.828-0.667,1.384-1.495,1.384H255.786z M255.73,145.937c-0.826,0-1.497-0.583-1.5-1.41l-0.019-6.082
								c-0.003-0.828,0.667-1.509,1.495-1.509h0.005c0.826,0,1.497,0.716,1.5,1.543l0.019,6.015
								c0.003,0.828-0.667,1.442-1.495,1.442C255.733,145.937,255.731,145.937,255.73,145.937z M255.675,127.937
								c-0.826,0-1.497-0.699-1.5-1.526l-0.019-6.023c-0.003-0.828,0.667-1.451,1.495-1.451h0.005c0.826,0,1.497,0.599,1.5,1.427
								l0.019,6.073c0.003,0.828-0.667,1.5-1.495,1.5C255.68,127.937,255.676,127.937,255.675,127.937z"/>
						</g>
						<g>
							<path fill="#FFD161" d="M255.619,109.937c-0.826,0-1.498-0.815-1.5-1.642l-0.009-2.927c-0.002-0.829,0.667-1.431,1.496-1.431
								h0.004c0.826,0,1.498,0.522,1.5,1.349l0.009,3.073c0.002,0.829-0.667,0.578-1.495,1.578H255.619z"/>
						</g>
					</g>
				</g>
				<g>
					<g>
						<path fill="#FFD161" d="M160.973,255.912c-0.078,0-0.156-0.006-0.235-0.019l-5.927-0.935
							c-0.818-0.129-1.377-0.897-1.248-1.715s0.903-1.376,1.715-1.248l5.927,0.935c0.818,0.129,1.377,0.897,1.248,1.715
							C162.336,255.385,161.698,255.912,160.973,255.912z"/>
					</g>
				</g>
				<g>
					<g>
						<path fill="#FFD161" d="M176.776,285.644c-0.69,0-1.312-0.479-1.465-1.181c-0.177-0.81,0.337-1.609,1.146-1.785l5.862-1.279
							c0.808-0.182,1.608,0.336,1.785,1.146c0.177,0.81-0.337,1.609-1.146,1.785l-5.862,1.279
							C176.989,285.633,176.882,285.644,176.776,285.644z M194.362,281.806c-0.69,0-1.312-0.479-1.465-1.18
							c-0.177-0.81,0.336-1.609,1.146-1.786l0.742-0.162c0.815-0.18,1.608,0.336,1.786,1.145c0.177,0.81-0.336,1.609-1.146,1.786
							l-0.742,0.162C194.575,281.795,194.468,281.806,194.362,281.806z"/>
					</g>
				</g>
				<g>
					<g>
						<path fill="#FFD161" d="M185.941,303.644c-0.612,0-1.188-0.378-1.409-0.988c-0.283-0.778,0.118-1.639,0.896-1.922l5.639-2.051
							c0.778-0.284,1.639,0.119,1.922,0.897s-0.118,1.639-0.896,1.922l-5.639,2.051
							C186.285,303.615,186.111,303.644,185.941,303.644z"/>
					</g>
				</g>
				<g>
					<g>
						<path fill="#FFD161" d="M176.775,317.644c-0.737,0-1.38-0.543-1.483-1.293c-0.114-0.821,0.458-1.578,1.279-1.692l5.943-0.826
							c0.817-0.118,1.578,0.459,1.691,1.279c0.114,0.821-0.458,1.578-1.279,1.692l-5.943,0.826
							C176.914,317.639,176.844,317.644,176.775,317.644z M194.604,315.167c-0.737,0-1.38-0.543-1.483-1.293
							c-0.114-0.821,0.458-1.578,1.279-1.692l5.942-0.825c0.817-0.116,1.578,0.459,1.691,1.279c0.114,0.821-0.458,1.578-1.279,1.692
							l-5.942,0.825C194.743,315.163,194.673,315.167,194.604,315.167z"/>
					</g>
				</g>
				<g>
					<g>
						<path fill="#FFD161" d="M335.37,293.689c-0.341,0-0.683-0.115-0.964-0.352l-4.594-3.86c-0.635-0.533-0.717-1.479-0.184-2.113
							c0.534-0.634,1.479-0.716,2.113-0.184l4.594,3.86c0.635,0.533,0.717,1.479,0.184,2.113
							C336.223,293.507,335.798,293.689,335.37,293.689z"/>
					</g>
				</g>
				<g>
					<g>
						<path fill="#FFD161" d="M360.11,272.937h-6c-0.828,0-1.5-0.671-1.5-1.5s0.672-1.5,1.5-1.5h6c0.828,0,1.5,0.671,1.5,1.5
							S360.938,272.937,360.11,272.937z M342.11,272.937h-6c-0.828,0-1.5-0.671-1.5-1.5s0.672-1.5,1.5-1.5h6
							c0.828,0,1.5,0.671,1.5,1.5S342.938,272.937,342.11,272.937z"/>
					</g>
				</g>
				<g>
					<g>
						<path fill="#FFD161" d="M295.444,229.644c-0.591,0-1.151-0.351-1.389-0.932c-0.314-0.767,0.053-1.643,0.818-1.957l5.552-2.275
							c0.769-0.314,1.644,0.053,1.957,0.819c0.314,0.767-0.053,1.643-0.818,1.957l-5.552,2.275
							C295.826,229.608,295.634,229.644,295.444,229.644z M312.099,222.819c-0.591,0-1.151-0.351-1.389-0.932
							c-0.314-0.767,0.053-1.643,0.818-1.957l5.552-2.275c0.769-0.314,1.644,0.053,1.957,0.819c0.314,0.767-0.053,1.643-0.818,1.957
							l-5.552,2.275C312.481,222.783,312.289,222.819,312.099,222.819z M328.756,215.992c-0.591,0-1.151-0.351-1.389-0.932
							c-0.314-0.767,0.053-1.643,0.818-1.957l5.552-2.275c0.77-0.313,1.645,0.053,1.957,0.819c0.314,0.767-0.053,1.643-0.818,1.957
							l-5.552,2.275C329.138,215.956,328.945,215.992,328.756,215.992z"/>
					</g>
				</g>
				<g>
					<g>
						<path fill="#FFD161" d="M284.776,218.586c-0.22,0-0.443-0.049-0.655-0.151c-0.744-0.362-1.055-1.26-0.692-2.005l2.623-5.396
							c0.36-0.745,1.257-1.055,2.005-0.693c0.744,0.362,1.055,1.26,0.692,2.005l-2.623,5.396
							C285.867,218.275,285.332,218.586,284.776,218.586z M292.645,202.397c-0.22,0-0.443-0.049-0.654-0.151
							c-0.745-0.362-1.056-1.26-0.693-2.005l2.623-5.396c0.361-0.745,1.259-1.055,2.004-0.693c0.745,0.362,1.056,1.26,0.693,2.005
							l-2.623,5.396C293.736,202.086,293.201,202.397,292.645,202.397z"/>
					</g>
				</g>
				<g>
					<g>
						<path fill="#FFD161" d="M285.928,187.477c-0.021,0-0.043,0-0.064-0.001c-0.827-0.035-1.47-0.734-1.436-1.562l0.253-5.994
							c0.035-0.828,0.758-1.473,1.562-1.436c0.827,0.035,1.47,0.734,1.436,1.562l-0.253,5.995
							C287.391,186.846,286.727,187.477,285.928,187.477z M286.686,169.493c-0.021,0-0.043,0-0.064-0.001
							c-0.827-0.035-1.47-0.734-1.436-1.562l0.253-5.995c0.035-0.828,0.745-1.464,1.562-1.436c0.827,0.035,1.47,0.734,1.436,1.562
							l-0.253,5.994C288.15,168.863,287.486,169.493,286.686,169.493z"/>
					</g>
				</g>
				<g>
					<g>
						<path fill="#FFD161" d="M270.112,218.644c-0.073,0-0.146-0.005-0.222-0.016c-0.819-0.121-1.385-0.884-1.265-1.703l0.877-5.936
							c0.121-0.819,0.885-1.381,1.703-1.265c0.82,0.121,1.386,0.884,1.266,1.703l-0.877,5.936
							C271.484,218.108,270.844,218.644,270.112,218.644z M272.743,200.837c-0.073,0-0.146-0.005-0.222-0.016
							c-0.819-0.121-1.385-0.884-1.265-1.703l0.877-5.936c0.121-0.82,0.889-1.391,1.703-1.265c0.82,0.121,1.386,0.884,1.266,1.703
							l-0.877,5.936C274.115,200.302,273.474,200.837,272.743,200.837z M275.373,183.031c-0.073,0-0.146-0.005-0.221-0.016
							c-0.82-0.121-1.386-0.884-1.266-1.703l0.877-5.936c0.121-0.82,0.887-1.389,1.703-1.265c0.82,0.121,1.386,0.884,1.266,1.703
							l-0.877,5.936C276.745,182.495,276.104,183.031,275.373,183.031z"/>
					</g>
				</g>
				<g>
					<g>
						<path fill="#FFD161" d="M232.11,218.937c-0.817,0-1.486-0.802-1.5-1.622l-0.097-5.926c-0.013-0.829,0.647-1.452,1.476-1.452
							c0.009,0,0.017,0,0.017,0c0.825,0,1.494,0.51,1.508,1.329l0.097,6.073c0.013,0.829-0.647,0.598-1.476,1.598
							C232.135,218.937,232.118,218.937,232.11,218.937z M231.821,200.937c-0.817,0-1.486-0.801-1.5-1.622l-0.096-6.072
							c-0.013-0.828,0.647-1.547,1.477-1.56c0.803,0.027,1.51,0.63,1.523,1.458l0.096,6.136c0.013,0.828-0.647,0.66-1.476,1.66
							C231.837,200.937,231.829,200.937,231.821,200.937z M231.532,182.937c-0.816,0-1.485-0.8-1.499-1.621l-0.097-5.927
							c-0.013-0.828,0.647-1.452,1.476-1.452c0.009,0,0.017,0,0.024,0c0.817,0,1.486,0.512,1.5,1.332l0.097,6.072
							c0.013,0.828-0.647,0.596-1.476,1.596C231.549,182.937,231.541,182.937,231.532,182.937z M231.243,164.937
							c-0.816,0-1.485-0.799-1.499-1.619l-0.097-5.928c-0.013-0.829,0.647-1.453,1.476-1.453c0.009,0,0.017,0,0.024,0
							c0.817,0,1.486,0.513,1.5,1.333l0.097,6.071c0.013,0.829-0.647,0.596-1.476,1.596
							C231.26,164.937,231.252,164.937,231.243,164.937z"/>
					</g>
				</g>
				<g>
					<g>
						<path fill="#FFD161" d="M222.292,215.644c-0.396,0-0.793-0.157-1.088-0.467l-4.131-4.352c-0.57-0.601-0.546-1.55,0.056-2.121
							c0.599-0.57,1.549-0.546,2.12,0.055l4.131,4.352c0.57,0.601,0.546,1.55-0.056,2.121
							C223.034,215.507,222.663,215.644,222.292,215.644z M209.9,202.589c-0.396,0-0.793-0.157-1.088-0.467l-4.131-4.352
							c-0.57-0.601-0.546-1.55,0.056-2.121c0.6-0.57,1.549-0.546,2.12,0.055l4.131,4.352c0.57,0.601,0.546,1.55-0.056,2.121
							C210.642,202.452,210.271,202.589,209.9,202.589z"/>
					</g>
				</g>
				<g>
					<g>
						<path fill="#FFD161" d="M208.112,225.065c-0.087,0-0.176-0.008-0.265-0.023l-5.907-1.049
							c-0.815-0.145-1.359-0.924-1.214-1.739c0.145-0.815,0.922-1.357,1.739-1.215l5.907,1.049c0.815,0.145,1.359,0.924,1.214,1.739
							C209.458,224.554,208.825,225.065,208.112,225.065z M190.39,221.919c-0.087,0-0.176-0.008-0.264-0.023l-5.908-1.049
							c-0.816-0.145-1.36-0.923-1.215-1.739c0.145-0.816,0.929-1.356,1.738-1.215l5.908,1.049c0.816,0.145,1.36,0.923,1.215,1.739
							C191.735,221.408,191.102,221.919,190.39,221.919z M172.666,218.772c-0.087,0-0.176-0.008-0.265-0.023l-5.907-1.049
							c-0.815-0.145-1.359-0.924-1.214-1.739c0.145-0.816,0.921-1.36,1.739-1.215l5.907,1.049c0.815,0.145,1.359,0.924,1.214,1.739
							C174.012,218.261,173.379,218.772,172.666,218.772z"/>
					</g>
				</g>
			</g>
			<g>
				<g>
					<path fill="#FFB561" d="M238.776,346.605c-0.234,0-0.472-0.055-0.693-0.17c-0.734-0.383-1.019-1.29-0.636-2.024l0.193-0.371
						c0.384-0.735,1.291-1.018,2.024-0.636c0.734,0.383,1.019,1.29,0.636,2.024l-0.193,0.371
						C239.84,346.311,239.317,346.605,238.776,346.605z M244.516,335.593c-0.234,0-0.471-0.055-0.692-0.17
						c-0.734-0.383-1.02-1.289-0.637-2.023l2.773-5.32c0.384-0.736,1.291-1.019,2.023-0.637c0.734,0.383,1.02,1.289,0.637,2.023
						l-2.773,5.32C245.579,335.299,245.057,335.593,244.516,335.593z M252.836,319.632c-0.234,0-0.471-0.055-0.692-0.17
						c-0.734-0.383-1.02-1.289-0.637-2.023l2.773-5.321c0.383-0.736,1.29-1.021,2.023-0.637c0.734,0.383,1.02,1.289,0.637,2.023
						l-2.773,5.321C253.899,319.338,253.377,319.632,252.836,319.632z"/>
				</g>
			</g>
			<g>
				<g>
					<path fill="#FFB561" d="M280.37,348.675c-0.562,0-1.101-0.317-1.357-0.859l-2.564-5.424c-0.354-0.749-0.033-1.643,0.715-1.997
						c0.753-0.355,1.644-0.034,1.998,0.715l2.564,5.424c0.354,0.749,0.033,1.643-0.715,1.997
						C280.803,348.628,280.585,348.675,280.37,348.675z M272.676,332.402c-0.562,0-1.101-0.317-1.357-0.859l-2.564-5.424
						c-0.354-0.749-0.033-1.643,0.715-1.997c0.753-0.354,1.643-0.034,1.998,0.715l2.564,5.424c0.354,0.749,0.033,1.643-0.716,1.997
						C273.108,332.356,272.891,332.402,272.676,332.402z"/>
				</g>
			</g>
			<g>
				<g>
					<path fill="#FFB561" d="M295.443,372.311c-0.609,0-1.183-0.375-1.407-0.98l-1.956-5.288c-0.287-0.777,0.11-1.64,0.887-1.927
						c0.777-0.287,1.64,0.109,1.928,0.886l1.956,5.288c0.287,0.777-0.109,1.64-0.887,1.927
						C295.792,372.281,295.616,372.311,295.443,372.311z M289.324,355.768c-0.609,0-1.183-0.375-1.407-0.98l-2.082-5.627
						c-0.287-0.777,0.109-1.64,0.887-1.927c0.777-0.287,1.639,0.109,1.928,0.886l2.082,5.627c0.287,0.777-0.109,1.64-0.887,1.927
						C289.673,355.738,289.497,355.768,289.324,355.768z"/>
				</g>
			</g>
			<g>
				<g>
					<path fill="#FFB561" d="M198.845,373.991c-0.16,0-0.323-0.026-0.483-0.081c-0.784-0.267-1.203-1.119-0.937-1.903l1.933-5.681
						c0.266-0.784,1.118-1.204,1.903-0.937c0.784,0.267,1.203,1.119,0.937,1.903l-1.933,5.68
						C200.053,373.598,199.47,373.991,198.845,373.991z"/>
				</g>
			</g>
			<polygon fill="#FFB561" points="241.456,280.144 232.468,252.391 256,235.249 279.532,252.413 270.544,280.144 			"/>
		</g>
	</g>
	<g id="beach_bar">
	</g>
	<g id="bucket__x26__shovel">
	</g>
	<g id="palm_tree">
	</g>
	<g id="shark_warning">
	</g>
	<g id="surfboard">
	</g>
	<g id="swimming_trunks">
	</g>
	<g id="coconut_drink">
	</g>
	<g id="beach_chair__x26__towel">
	</g>
	<g id="coconut_tree">
	</g>
</g>
</svg>
