<?xml version="1.0" encoding="utf-8"?>
<!-- Generator: Adobe Illustrator 17.0.0, SVG Export Plug-In . SVG Version: 6.00 Build 0)  -->
<!DOCTYPE svg PUBLIC "-//W3C//DTD SVG 1.1//EN" "http://www.w3.org/Graphics/SVG/1.1/DTD/svg11.dtd">
<svg version="1.1" xmlns="http://www.w3.org/2000/svg" xmlns:xlink="http://www.w3.org/1999/xlink" x="0px" y="0px" width="512px"
	 height="512px" viewBox="0 0 512 512" enable-background="new 0 0 512 512" xml:space="preserve">
<g id="famous_places">
	<g id="Pyramid">
	</g>
	<g id="Colloseum">
	</g>
	<g id="Mount_Fuji">
	</g>
	<g id="Great_Wall_of_China">
	</g>
	<g id="Stonehenge">
	</g>
	<g id="Golden_Gate_Bridge">
	</g>
	<g id="Christ_the_Redeemer">
	</g>
	<g id="Statue_of_Liberty">
	</g>
	<g id="Taj_Mahal">
	</g>
	<g id="Eiffel_tower">
	</g>
</g>
<g id="camping">
	<g id="mug">
	</g>
	<g id="hook">
	</g>
	<g id="Swiss_knife">
	</g>
	<g id="flashlight">
	</g>
	<g id="lantern">
	</g>
	<g id="campfire">
	</g>
	<g id="beanie">
	</g>
	<g id="rope">
	</g>
	<g id="boot">
	</g>
	<g id="axe">
	</g>
</g>
<g id="hotel_1_">
	<g id="towel">
	</g>
	<g id="phone">
	</g>
	<g id="pool">
	</g>
	<g id="food_service">
	</g>
	<g id="wifi">
	</g>
	<g id="bed">
	</g>
	<g id="door">
	</g>
	<g id="key">
	</g>
	<g id="do_not_disturb">
	</g>
	<g id="bell">
	</g>
</g>
<g id="winter">
	<g id="snowman">
	</g>
	<g id="snow_mountain">
	</g>
	<g id="reindeer">
	</g>
	<g id="winter_tree">
	</g>
	<g id="lift">
	</g>
	<g id="beanie__x26__google">
	</g>
	<g id="ski">
	</g>
	<g id="snowboard">
		<g>
			<path fill="#4A4A4A" d="M365.906,208.34c27.977-22.416,111.318-81.888,58.259-134.947S311.6,103.642,289.184,131.618
				s-72.793,96.985-165.027,165.416S87.958,409.6,87.958,409.6s44.066,55.967,112.497-36.267S337.929,230.756,365.906,208.34z"/>
			<path fill="#FFD161" d="M379.707,117.827l0.128-0.128l-5.486-59.966c-9.844,2.43-19.327,7.64-28.401,14.168l6.697,72.987
				L379.707,117.827z"/>
			<path fill="#38D4B8" d="M379.4,117.52l-27.063,27.063l73.47,6.867c6.516-9.083,11.664-18.612,14.059-28.462l-60.377-5.633
				L379.4,117.52z"/>
			<path fill="#38D4B8" d="M333.362,163.558l0.281,0.026l-6.841-75.744c-10.393,10.142-19.599,21.129-27.038,30.418l6.536,72.362
				L333.362,163.558z"/>
			<path fill="#FFD161" d="M333.669,163.865l-27.063,27.063l72.863,6.672c9.299-7.45,20.273-16.653,30.391-27.037l-76.217-6.979
				L333.669,163.865z"/>
			<path fill="#FFD161" d="M174.838,322.696l0.128-0.128l-5.634-61.603c-8.738,7.557-17.855,15.314-27.605,22.983l6.049,65.81
				L174.838,322.696z"/>
			<path fill="#38D4B8" d="M174.532,322.389l-27.063,27.063l66.229,6.204c7.675-9.752,15.4-18.909,22.963-27.647l-62.04-5.785
				L174.532,322.389z"/>
			<path fill="#38D4B8" d="M128.494,368.427l0.281,0.026l-6.333-70.119c-11.385,8.584-20.441,16.779-27.568,24.547l6.558,72.608
				L128.494,368.427z"/>
			<path fill="#FFD161" d="M128.8,368.734l-27.063,27.063l73.025,6.687c7.754-7.138,15.934-16.197,24.502-27.576l-70.49-6.455
				L128.8,368.734z"/>
			<g>
				<path fill="#45638A" d="M342.847,190.703l-36.162-36.162c-6.965-6.965-6.965-18.257,0-25.222l18.26-18.26
					c6.965-6.965,18.257-6.965,25.222,0l36.162,36.162c6.965,6.965,6.965,18.257,0,25.222l-18.26,18.26
					C361.104,197.668,349.812,197.668,342.847,190.703z"/>
				<path fill="#2D415A" d="M364.754,186.52c-5.012,5.012-13.139,5.012-18.151,0l-35.589-35.589c-5.012-5.012-5.012-13.139,0-18.151
					l17.912-17.912c5.012-5.012,13.139-5.012,18.151,0l35.589,35.589c5.012,5.012,5.012,13.139,0,18.151L364.754,186.52z"/>
				<path fill="#45638A" d="M343.417,195.051l-16.015-16.015c-2.499-2.499-2.499-6.551,0-9.05l38.211-38.211
					c2.499-2.499,6.551-2.499,9.05,0l16.015,16.015c2.499,2.499,2.499,6.551,0,9.05l-38.211,38.211
					C349.968,197.55,345.916,197.55,343.417,195.051z"/>
				
					<rect x="325.574" y="110.526" transform="matrix(0.7071 0.7071 -0.7071 0.7071 195.6308 -195.178)" fill="#45638A" width="15.685" height="56.065"/>
			</g>
			<g>
				<path fill="#45638A" d="M138.746,394.804l-36.162-36.162c-6.965-6.965-6.965-18.257,0-25.222l18.26-18.26
					c6.965-6.965,18.257-6.965,25.222,0l36.162,36.162c6.965,6.965,6.965,18.257,0,25.222l-18.26,18.26
					C157.003,401.769,145.711,401.769,138.746,394.804z"/>
				<path fill="#2D415A" d="M160.4,390.874c-5.012,5.012-13.139,5.012-18.151,0l-35.589-35.589c-5.012-5.012-5.012-13.139,0-18.151
					l17.912-17.912c5.012-5.012,13.139-5.012,18.151,0l35.589,35.589c5.012,5.012,5.012,13.139,0,18.151L160.4,390.874z"/>
				<path fill="#45638A" d="M139.316,399.153L123.3,383.138c-2.499-2.499-2.499-6.551,0-9.05l38.211-38.211
					c2.499-2.499,6.551-2.499,9.05,0l16.015,16.015c2.499,2.499,2.499,6.551,0,9.05l-38.211,38.211
					C145.866,401.652,141.815,401.652,139.316,399.153z"/>
				
					<rect x="121.472" y="314.627" transform="matrix(0.7071 0.7071 -0.7071 0.7071 280.1724 8.9236)" fill="#45638A" width="15.685" height="56.065"/>
			</g>
			<path fill="#5E5E5E" d="M356.081,216.107L228.21,204.163c-8.394,8.978-17.589,18.387-27.626,28.085l124.876,8.61
				C337.317,230.892,347.7,222.7,356.081,216.107z"/>
			<path fill="#5E5E5E" d="M316.049,248.882l-122.087-10.312c-4.064,3.834-8.256,7.706-12.584,11.611l121.932,9.961
				C307.688,256.189,311.939,252.439,316.049,248.882z"/>
		</g>
	</g>
	<g id="snowboading">
	</g>
	<g id="skiing">
	</g>
</g>
<g id="general_travelling">
	<g id="dinner_set">
	</g>
	<g id="polaroid">
	</g>
	<g id="camera">
	</g>
	<g id="calendar">
	</g>
	<g id="calendar_single">
	</g>
	<g id="shopping_bag">
	</g>
	<g id="watch">
	</g>
	<g id="alarm_clock">
	</g>
	<g id="credit_card">
	</g>
	<g id="road_sign">
	</g>
	<g id="hotel">
	</g>
	<g id="money">
	</g>
	<g id="sunglass">
	</g>
	<g id="cocktail">
	</g>
	<g id="compass">
	</g>
	<g id="tent">
	</g>
	<g id="backpack">
	</g>
	<g id="map">
	</g>
	<g id="ticket_1_">
	</g>
	<g id="passport">
	</g>
	<g id="luggage">
	</g>
	<g id="globe">
	</g>
	<g id="suitcase">
	</g>
</g>
<g id="vehicles">
	<g id="trailer">
	</g>
	<g id="airplane">
	</g>
	<g id="yatch">
	</g>
	<g id="taxi">
	</g>
	<g id="hot_air_ballon">
	</g>
	<g id="bus">
	</g>
	<g id="train">
	</g>
</g>
<g id="summer">
	<g id="postcard">
	</g>
	<g id="bikini">
	</g>
	<g id="flipflop">
	</g>
	<g id="plane_around_the_globe">
	</g>
	<g id="binocular">
	</g>
	<g id="beach_table">
	</g>
	<g id="sun_hat">
	</g>
	<g id="beach_bag">
	</g>
	<g id="sea__x26__wave">
	</g>
	<g id="beach">
	</g>
	<g id="beach_ball">
	</g>
	<g id="jetski">
	</g>
	<g id="sandcastle">
	</g>
	<g id="lifeguard_male">
	</g>
	<g id="lifeguard_female">
	</g>
	<g id="lighthouse">
	</g>
	<g id="hammok">
	</g>
	<g id="beach_chair__x26__umbrella">
	</g>
	<g id="lifeguard">
	</g>
	<g id="suncream">
	</g>
	<g id="starfish">
	</g>
	<g id="beach_bar">
	</g>
	<g id="bucket__x26__shovel">
	</g>
	<g id="palm_tree">
	</g>
	<g id="shark_warning">
	</g>
	<g id="surfboard">
	</g>
	<g id="swimming_trunks">
	</g>
	<g id="coconut_drink">
	</g>
	<g id="beach_chair__x26__towel">
	</g>
	<g id="coconut_tree">
	</g>
</g>
</svg>
