<?xml version="1.0" encoding="utf-8"?>
<!-- Generator: Adobe Illustrator 17.0.0, SVG Export Plug-In . SVG Version: 6.00 Build 0)  -->
<!DOCTYPE svg PUBLIC "-//W3C//DTD SVG 1.1//EN" "http://www.w3.org/Graphics/SVG/1.1/DTD/svg11.dtd">
<svg version="1.1" xmlns="http://www.w3.org/2000/svg" xmlns:xlink="http://www.w3.org/1999/xlink" x="0px" y="0px" width="512px"
	 height="512px" viewBox="0 0 512 512" enable-background="new 0 0 512 512" xml:space="preserve">
<g id="famous_places">
	<g id="Pyramid">
	</g>
	<g id="Colloseum">
	</g>
	<g id="Mount_Fuji">
	</g>
	<g id="Great_Wall_of_China">
	</g>
	<g id="Stonehenge">
	</g>
	<g id="Golden_Gate_Bridge">
	</g>
	<g id="Christ_the_Redeemer">
	</g>
	<g id="Statue_of_Liberty">
	</g>
	<g id="Taj_Mahal">
	</g>
	<g id="Eiffel_tower">
	</g>
</g>
<g id="camping">
	<g id="mug">
	</g>
	<g id="hook">
	</g>
	<g id="Swiss_knife">
	</g>
	<g id="flashlight">
	</g>
	<g id="lantern">
	</g>
	<g id="campfire">
	</g>
	<g id="beanie">
	</g>
	<g id="rope">
	</g>
	<g id="boot">
	</g>
	<g id="axe">
	</g>
</g>
<g id="hotel_1_">
	<g id="towel">
	</g>
	<g id="phone">
	</g>
	<g id="pool">
	</g>
	<g id="food_service">
	</g>
	<g id="wifi">
	</g>
	<g id="bed">
		<g>
			<rect x="61.712" y="274.261" fill="#8A532D" width="388.639" height="49.523"/>
			<rect x="61.712" y="274.261" fill="#6E4224" width="16.853" height="49.523"/>
			<rect x="433.498" y="274.261" fill="#6E4224" width="16.853" height="49.523"/>
			<path fill="#8A532D" d="M51.649,380L51.649,380c-5.523,0-10-4.477-10-10V234.5c0-5.523,4.477-10,10-10h0c5.523,0,10,4.477,10,10
				V370C61.649,375.523,57.172,380,51.649,380z"/>
			<path fill="#8A532D" d="M460.351,380L460.351,380c-5.523,0-10-4.477-10-10V102.5c0-5.523,4.477-10,10-10h0
				c5.523,0,10,4.477,10,10V370C470.351,375.523,465.874,380,460.351,380z"/>
			<path fill="#E3E3E3" d="M433.924,229.5H78.138c-9.072,0-16.427,7.354-16.427,16.427v11.908c0,9.072,7.354,16.427,16.427,16.427
				h355.786c9.072,0,16.427-7.354,16.427-16.427v-11.908C450.351,236.854,442.997,229.5,433.924,229.5z"/>
			<path fill="#A6A6A6" d="M354.715,260.5c-2.844,0-5.15-2.306-5.15-5.149V229.5H78.138c-4.516,0-8.604,1.824-11.573,4.773v21.078
				c0,2.665-2.031,4.95-4.626,5.216c1.254,7.827,8.019,13.933,16.199,13.933h355.786c8.162,0,14.915-6.199,16.191-14H354.715z"/>
			<path fill="#FF6650" d="M335.201,287.261H74.565v-60.032c0-10.091,8.18-18.271,18.271-18.271h224.093
				c10.091,0,18.271,8.18,18.271,18.271V287.261z"/>
			<path fill="#FFD161" d="M389.632,178.321c0,0-50.071,23.939-40.359,43.679l49.795-24.5l49.795-24.5
				C439.151,153.26,389.632,178.321,389.632,178.321z"/>
			<path fill="#FFB561" d="M408.505,216.679c0,0,50.071-23.939,40.359-43.679l-49.795,24.5L349.274,222
				C358.986,241.74,408.505,216.679,408.505,216.679z"/>
			<rect x="74.565" y="252.175" fill="#CF5341" width="260.636" height="35.086"/>
		</g>
	</g>
	<g id="door">
	</g>
	<g id="key">
	</g>
	<g id="do_not_disturb">
	</g>
	<g id="bell">
	</g>
</g>
<g id="winter">
	<g id="snowman">
	</g>
	<g id="snow_mountain">
	</g>
	<g id="reindeer">
	</g>
	<g id="winter_tree">
	</g>
	<g id="lift">
	</g>
	<g id="beanie__x26__google">
	</g>
	<g id="ski">
	</g>
	<g id="snowboard">
	</g>
	<g id="snowboading">
	</g>
	<g id="skiing">
	</g>
</g>
<g id="general_travelling">
	<g id="dinner_set">
	</g>
	<g id="polaroid">
	</g>
	<g id="camera">
	</g>
	<g id="calendar">
	</g>
	<g id="calendar_single">
	</g>
	<g id="shopping_bag">
	</g>
	<g id="watch">
	</g>
	<g id="alarm_clock">
	</g>
	<g id="credit_card">
	</g>
	<g id="road_sign">
	</g>
	<g id="hotel">
	</g>
	<g id="money">
	</g>
	<g id="sunglass">
	</g>
	<g id="cocktail">
	</g>
	<g id="compass">
	</g>
	<g id="tent">
	</g>
	<g id="backpack">
	</g>
	<g id="map">
	</g>
	<g id="ticket_1_">
	</g>
	<g id="passport">
	</g>
	<g id="luggage">
	</g>
	<g id="globe">
	</g>
	<g id="suitcase">
	</g>
</g>
<g id="vehicles">
	<g id="trailer">
	</g>
	<g id="airplane">
	</g>
	<g id="yatch">
	</g>
	<g id="taxi">
	</g>
	<g id="hot_air_ballon">
	</g>
	<g id="bus">
	</g>
	<g id="train">
	</g>
</g>
<g id="summer">
	<g id="postcard">
	</g>
	<g id="bikini">
	</g>
	<g id="flipflop">
	</g>
	<g id="plane_around_the_globe">
	</g>
	<g id="binocular">
	</g>
	<g id="beach_table">
	</g>
	<g id="sun_hat">
	</g>
	<g id="beach_bag">
	</g>
	<g id="sea__x26__wave">
	</g>
	<g id="beach">
	</g>
	<g id="beach_ball">
	</g>
	<g id="jetski">
	</g>
	<g id="sandcastle">
	</g>
	<g id="lifeguard_male">
	</g>
	<g id="lifeguard_female">
	</g>
	<g id="lighthouse">
	</g>
	<g id="hammok">
	</g>
	<g id="beach_chair__x26__umbrella">
	</g>
	<g id="lifeguard">
	</g>
	<g id="suncream">
	</g>
	<g id="starfish">
	</g>
	<g id="beach_bar">
	</g>
	<g id="bucket__x26__shovel">
	</g>
	<g id="palm_tree">
	</g>
	<g id="shark_warning">
	</g>
	<g id="surfboard">
	</g>
	<g id="swimming_trunks">
	</g>
	<g id="coconut_drink">
	</g>
	<g id="beach_chair__x26__towel">
	</g>
	<g id="coconut_tree">
	</g>
</g>
</svg>
