<?xml version="1.0" encoding="utf-8"?>
<!-- Generator: Adobe Illustrator 17.0.0, SVG Export Plug-In . SVG Version: 6.00 Build 0)  -->
<!DOCTYPE svg PUBLIC "-//W3C//DTD SVG 1.1//EN" "http://www.w3.org/Graphics/SVG/1.1/DTD/svg11.dtd">
<svg version="1.1" xmlns="http://www.w3.org/2000/svg" xmlns:xlink="http://www.w3.org/1999/xlink" x="0px" y="0px" width="512px"
	 height="512px" viewBox="0 0 512 512" enable-background="new 0 0 512 512" xml:space="preserve">
<g id="famous_places">
	<g id="Pyramid">
	</g>
	<g id="Colloseum">
	</g>
	<g id="Mount_Fuji">
	</g>
	<g id="Great_Wall_of_China">
	</g>
	<g id="Stonehenge">
	</g>
	<g id="Golden_Gate_Bridge">
	</g>
	<g id="Christ_the_Redeemer">
	</g>
	<g id="Statue_of_Liberty">
	</g>
	<g id="Taj_Mahal">
	</g>
	<g id="Eiffel_tower">
	</g>
</g>
<g id="camping">
	<g id="mug">
	</g>
	<g id="hook">
	</g>
	<g id="Swiss_knife">
	</g>
	<g id="flashlight">
	</g>
	<g id="lantern">
	</g>
	<g id="campfire">
	</g>
	<g id="beanie">
	</g>
	<g id="rope">
	</g>
	<g id="boot">
	</g>
	<g id="axe">
	</g>
</g>
<g id="hotel_1_">
	<g id="towel">
	</g>
	<g id="phone">
	</g>
	<g id="pool">
	</g>
	<g id="food_service">
	</g>
	<g id="wifi">
	</g>
	<g id="bed">
	</g>
	<g id="door">
	</g>
	<g id="key">
	</g>
	<g id="do_not_disturb">
	</g>
	<g id="bell">
	</g>
</g>
<g id="winter">
	<g id="snowman">
	</g>
	<g id="snow_mountain">
	</g>
	<g id="reindeer">
	</g>
	<g id="winter_tree">
	</g>
	<g id="lift">
	</g>
	<g id="beanie__x26__google">
	</g>
	<g id="ski">
	</g>
	<g id="snowboard">
	</g>
	<g id="snowboading">
	</g>
	<g id="skiing">
	</g>
</g>
<g id="general_travelling">
	<g id="dinner_set">
	</g>
	<g id="polaroid">
	</g>
	<g id="camera">
	</g>
	<g id="calendar">
	</g>
	<g id="calendar_single">
	</g>
	<g id="shopping_bag">
	</g>
	<g id="watch">
	</g>
	<g id="alarm_clock">
	</g>
	<g id="credit_card">
	</g>
	<g id="road_sign">
	</g>
	<g id="hotel">
	</g>
	<g id="money">
	</g>
	<g id="sunglass">
	</g>
	<g id="cocktail">
	</g>
	<g id="compass">
	</g>
	<g id="tent">
	</g>
	<g id="backpack">
	</g>
	<g id="map">
	</g>
	<g id="ticket_1_">
	</g>
	<g id="passport">
	</g>
	<g id="luggage">
	</g>
	<g id="globe">
	</g>
	<g id="suitcase">
	</g>
</g>
<g id="vehicles">
	<g id="trailer">
	</g>
	<g id="airplane">
	</g>
	<g id="yatch">
	</g>
	<g id="taxi">
	</g>
	<g id="hot_air_ballon">
	</g>
	<g id="bus">
	</g>
	<g id="train">
	</g>
</g>
<g id="summer">
	<g id="postcard">
	</g>
	<g id="bikini">
	</g>
	<g id="flipflop">
	</g>
	<g id="plane_around_the_globe">
	</g>
	<g id="binocular">
	</g>
	<g id="beach_table">
	</g>
	<g id="sun_hat">
	</g>
	<g id="beach_bag">
	</g>
	<g id="sea__x26__wave">
	</g>
	<g id="beach">
	</g>
	<g id="beach_ball">
	</g>
	<g id="jetski">
	</g>
	<g id="sandcastle">
	</g>
	<g id="lifeguard_male">
	</g>
	<g id="lifeguard_female">
	</g>
	<g id="lighthouse">
	</g>
	<g id="hammok">
	</g>
	<g id="beach_chair__x26__umbrella">
	</g>
	<g id="lifeguard">
	</g>
	<g id="suncream">
		<g>
			<path fill="#FFD161" d="M273.452,157.569h-34.904c-9.876,0-17.882-8.006-17.882-17.882v-71.65
				c0-9.876,8.006-17.882,17.882-17.882h34.904c9.876,0,17.882,8.006,17.882,17.882v71.65
				C291.333,149.563,283.328,157.569,273.452,157.569z"/>
			<path fill="#FFB561" d="M266.2,127H245.8c-4.746,0-8.594-3.847-8.594-8.594V82.594c0-4.746,3.847-8.594,8.594-8.594H266.2
				c4.746,0,8.594,3.847,8.594,8.594v35.813C274.794,123.153,270.946,127,266.2,127z"/>
			<path fill="#FF9B29" d="M276.97,145.5H235.03c-5.539,0-10.03-4.49-10.03-10.03v-11.578c0-5.539,4.49-10.03,10.03-10.03h41.941
				c5.539,0,10.03,4.49,10.03,10.03v11.578C287,141.01,282.51,145.5,276.97,145.5z"/>
			<path fill="#2FB199" d="M350,171.365c0-20.826-17.039-37.865-37.865-37.865H199.836c-20.81,0-37.836,17.026-37.836,37.836v1.024
				c0,7.885,2.437,15.199,6.596,21.236c2.303,3.343,2.303,7.827,0,11.17c-4.159,6.037-6.596,13.351-6.596,21.236v0.995
				c0,8.154,2.563,15.698,6.999,21.85c2.471,3.427,2.455,8.106-0.002,11.544c-4.366,6.108-6.997,13.562-6.997,21.611v0.995
				c0,8.114,2.58,15.623,6.961,21.759c2.441,3.418,2.441,8.07,0,11.488c-4.381,6.135-6.961,13.645-6.961,21.759v0.995
				c0,8.114,2.58,15.623,6.961,21.759c2.441,3.418,2.441,8.07,0,11.488c-4.381,6.135-6.961,13.645-6.961,21.759v0.995
				c0,20.712,16.791,37.503,37.503,37.503h112.661c20.896,0,37.836-16.94,37.836-37.836v-0.661c0-8.114-2.58-15.623-6.961-21.759
				c-2.441-3.418-2.441-8.07,0-11.488c4.381-6.135,6.961-13.645,6.961-21.759v-0.995c0-8.114-2.58-15.623-6.961-21.759
				c-2.441-3.418-2.441-8.07,0-11.488c4.381-6.135,6.961-13.645,6.961-21.759v-0.995c0-8.05-2.631-15.503-6.997-21.611
				c-2.457-3.438-2.474-8.117-0.002-11.544c4.436-6.152,6.999-13.696,6.999-21.85v-0.995c0-7.886-2.437-15.2-6.596-21.236
				c-2.303-3.343-2.303-7.827,0-11.17c4.159-6.037,6.596-13.351,6.596-21.236V171.365z"/>
			<path fill="#38D4B8" d="M257.484,283c25.317,14.018,54.693,13.333,81.615,6.946c0.585-2.248,0.901-4.575,0.901-6.949v-0.994
				c0-5.637-1.774-11.099-5.133-15.796c-4.977-6.962-4.967-16.289,0.022-23.208c3.344-4.636,5.11-10.169,5.11-16.001v-0.994
				c0-5.595-1.67-10.977-4.831-15.564c-4.639-6.733-4.639-15.782,0-22.516c3.161-4.587,4.831-9.969,4.831-15.563v-0.995
				C340,156,327.5,143.5,312.135,143.5H199.836c-15.349,0-27.836,12.487-27.836,27.836v1.024c0,5.594,1.67,10.976,4.83,15.562
				c4.64,6.734,4.64,15.783,0.001,22.517c-3.161,4.588-4.831,9.97-4.831,15.564v0.994c0,5.832,1.767,11.365,5.11,16.002
				c4.989,6.919,4.998,16.246,0.022,23.208c-0.024,0.034-0.044,0.069-0.068,0.103C204.18,265.673,233.116,269.508,257.484,283z"/>
			<path fill="#22806E" d="M334.901,298.944c1.962-2.746,3.363-5.789,4.198-8.998c-26.922,6.386-56.298,7.071-81.615-6.946
				c-24.369-13.492-53.138-17.327-80.253-16.69c-3.311,4.675-4.898,10.097-4.898,15.693v0.994c0,5.762,1.597,11.276,4.932,15.948
				c4.935,6.912,5.018,16.199,0.083,23.111c-3.336,4.671-5.016,10.186-5.016,15.947v0.994c0,5.762,1.597,11.276,4.932,15.948
				c4.935,6.912,5.018,16.199,0.083,23.111c-3.336,4.671-5.016,10.186-5.016,15.947v0.994c0,15.165,12.005,27.503,27.17,27.503
				h112.661c15.349,0,28.169-12.487,28.169-27.836v-0.661c0-5.762-1.929-11.276-5.265-15.947c-4.937-6.912-4.853-16.2,0.083-23.112
				c3.336-4.67,5.182-10.185,5.182-15.947v-0.994c0-5.762-1.929-11.276-5.265-15.947
				C330.132,315.144,329.965,305.856,334.901,298.944z"/>
			<circle fill="#E3E3E3" cx="194" cy="171.902" r="14.333"/>
			<circle fill="#E3E3E3" cx="237.667" cy="64.569" r="9"/>
			<circle fill="#FFD161" cx="256" cy="232.5" r="33.333"/>
			<g>
				<path fill="#FFD161" d="M247.559,182.037l5.299-9.178c1.396-2.419,4.888-2.419,6.284,0l5.299,9.178
					c1.396,2.419-0.349,5.442-3.142,5.442h-10.598C247.908,187.479,246.163,184.456,247.559,182.037z"/>
				<path fill="#FFD161" d="M264.441,282.963l-5.299,9.178c-1.396,2.419-4.888,2.419-6.284,0l-5.299-9.178
					c-1.396-2.419,0.349-5.442,3.142-5.442h10.598C264.092,277.521,265.837,280.544,264.441,282.963z"/>
			</g>
			<g>
				<path fill="#FFD161" d="M223.458,193.018v-10.598c0-2.793,3.023-4.539,5.442-3.142l9.178,5.299c2.419,1.396,2.419,4.888,0,6.284
					l-9.178,5.299C226.482,197.557,223.458,195.811,223.458,193.018z"/>
				<path fill="#FFD161" d="M288.542,271.982v10.598c0,2.793-3.023,4.539-5.442,3.142l-9.178-5.299
					c-2.419-1.396-2.419-4.888,0-6.284l9.178-5.299C285.518,267.443,288.542,269.189,288.542,271.982z"/>
			</g>
			<g>
				<path fill="#FFD161" d="M208.077,214.579l-5.299-9.178c-1.396-2.419,0.349-5.442,3.142-5.442h10.598
					c2.793,0,4.539,3.023,3.142,5.442l-5.299,9.178C212.965,216.997,209.474,216.997,208.077,214.579z"/>
				<path fill="#FFD161" d="M303.923,250.421l5.299,9.178c1.396,2.419-0.349,5.442-3.142,5.442h-10.598
					c-2.793,0-4.539-3.023-3.142-5.442l5.299-9.178C299.035,248.003,302.526,248.003,303.923,250.421z"/>
			</g>
			<g>
				<path fill="#FFD161" d="M205.537,240.941l-9.178-5.299c-2.419-1.396-2.419-4.888,0-6.284l9.178-5.299
					c2.419-1.396,5.442,0.349,5.442,3.142v10.598C210.979,240.592,207.956,242.337,205.537,240.941z"/>
				<path fill="#FFD161" d="M306.463,224.059l9.178,5.299c2.419,1.396,2.419,4.888,0,6.284l-9.178,5.299
					c-2.419,1.396-5.442-0.349-5.442-3.142v-10.598C301.021,224.408,304.044,222.663,306.463,224.059z"/>
			</g>
			<g>
				<path fill="#FFD161" d="M216.518,265.042h-10.598c-2.793,0-4.539-3.023-3.142-5.442l5.299-9.178
					c1.396-2.419,4.888-2.419,6.284,0l5.299,9.178C221.057,262.018,219.311,265.042,216.518,265.042z"/>
				<path fill="#FFD161" d="M295.482,199.958h10.598c2.793,0,4.539,3.023,3.142,5.442l-5.299,9.178
					c-1.396,2.419-4.888,2.419-6.284,0l-5.299-9.178C290.943,202.982,292.689,199.958,295.482,199.958z"/>
			</g>
			<g>
				<path fill="#FFD161" d="M238.079,280.423l-9.178,5.299c-2.419,1.396-5.442-0.349-5.442-3.142v-10.598
					c0-2.793,3.023-4.539,5.442-3.142l9.178,5.299C240.497,275.535,240.497,279.026,238.079,280.423z"/>
				<path fill="#FFD161" d="M273.921,184.577l9.178-5.299c2.419-1.396,5.442,0.349,5.442,3.142v10.598
					c0,2.793-3.023,4.539-5.442,3.142l-9.178-5.299C271.503,189.465,271.503,185.974,273.921,184.577z"/>
			</g>
			<g>
				<path fill="#E3E3E3" d="M296.107,359.8c-4.654,0-6.893-3.582-8.692-6.46c-1.642-2.626-2.746-4.236-4.679-4.236
					s-3.037,1.609-4.679,4.236c-1.799,2.878-4.038,6.46-8.692,6.46c-4.654,0-6.892-3.582-8.692-6.46
					c-1.641-2.626-2.745-4.236-4.679-4.236c-1.933,0-3.037,1.609-4.678,4.236c-1.799,2.878-4.038,6.46-8.692,6.46
					c-4.654,0-6.892-3.582-8.691-6.46c-1.641-2.626-2.745-4.236-4.678-4.236c-1.932,0-3.036,1.609-4.677,4.236
					c-1.799,2.878-4.037,6.46-8.691,6.46c-4.653,0-6.891-3.582-8.69-6.46c-1.641-2.626-2.745-4.236-4.677-4.236
					c-1.307,0-2.366-1.06-2.366-2.366c0-1.307,1.059-2.366,2.366-2.366c4.654,0,6.892,3.582,8.691,6.46
					c1.641,2.626,2.745,4.235,4.677,4.235c1.932,0,3.036-1.609,4.677-4.236c1.799-2.878,4.037-6.46,8.691-6.46
					c4.654,0,6.893,3.582,8.692,6.46c1.641,2.626,2.745,4.236,4.678,4.236c1.933,0,3.037-1.609,4.678-4.236
					c1.799-2.878,4.038-6.46,8.692-6.46s6.893,3.582,8.692,6.46c1.641,2.626,2.745,4.236,4.678,4.236
					c1.933,0,3.037-1.609,4.678-4.236c1.799-2.878,4.038-6.46,8.692-6.46c4.655,0,6.893,3.582,8.692,6.46
					c1.642,2.626,2.746,4.236,4.679,4.236s3.037-1.609,4.679-4.236c1.799-2.878,4.038-6.46,8.692-6.46
					c1.307,0,2.366,1.06,2.366,2.366c0,1.307-1.059,2.366-2.366,2.366c-1.933,0-3.037,1.609-4.679,4.236
					C303,356.218,300.762,359.8,296.107,359.8z"/>
			</g>
		</g>
	</g>
	<g id="starfish">
	</g>
	<g id="beach_bar">
	</g>
	<g id="bucket__x26__shovel">
	</g>
	<g id="palm_tree">
	</g>
	<g id="shark_warning">
	</g>
	<g id="surfboard">
	</g>
	<g id="swimming_trunks">
	</g>
	<g id="coconut_drink">
	</g>
	<g id="beach_chair__x26__towel">
	</g>
	<g id="coconut_tree">
	</g>
</g>
</svg>
