<?xml version="1.0" encoding="utf-8"?>
<!-- Generator: Adobe Illustrator 17.0.0, SVG Export Plug-In . SVG Version: 6.00 Build 0)  -->
<!DOCTYPE svg PUBLIC "-//W3C//DTD SVG 1.1//EN" "http://www.w3.org/Graphics/SVG/1.1/DTD/svg11.dtd">
<svg version="1.1" xmlns="http://www.w3.org/2000/svg" xmlns:xlink="http://www.w3.org/1999/xlink" x="0px" y="0px" width="512px"
	 height="512px" viewBox="0 0 512 512" enable-background="new 0 0 512 512" xml:space="preserve">
<g id="famous_places">
	<g id="Pyramid">
	</g>
	<g id="Colloseum">
	</g>
	<g id="Mount_Fuji">
	</g>
	<g id="Great_Wall_of_China">
	</g>
	<g id="Stonehenge">
	</g>
	<g id="Golden_Gate_Bridge">
	</g>
	<g id="Christ_the_Redeemer">
	</g>
	<g id="Statue_of_Liberty">
	</g>
	<g id="Taj_Mahal">
	</g>
	<g id="Eiffel_tower">
	</g>
</g>
<g id="camping">
	<g id="mug">
	</g>
	<g id="hook">
	</g>
	<g id="Swiss_knife">
	</g>
	<g id="flashlight">
	</g>
	<g id="lantern">
	</g>
	<g id="campfire">
	</g>
	<g id="beanie">
	</g>
	<g id="rope">
	</g>
	<g id="boot">
	</g>
	<g id="axe">
	</g>
</g>
<g id="hotel_1_">
	<g id="towel">
	</g>
	<g id="phone">
	</g>
	<g id="pool">
	</g>
	<g id="food_service">
	</g>
	<g id="wifi">
	</g>
	<g id="bed">
	</g>
	<g id="door">
	</g>
	<g id="key">
	</g>
	<g id="do_not_disturb">
	</g>
	<g id="bell">
	</g>
</g>
<g id="winter">
	<g id="snowman">
	</g>
	<g id="snow_mountain">
	</g>
	<g id="reindeer">
	</g>
	<g id="winter_tree">
	</g>
	<g id="lift">
	</g>
	<g id="beanie__x26__google">
	</g>
	<g id="ski">
	</g>
	<g id="snowboard">
	</g>
	<g id="snowboading">
	</g>
	<g id="skiing">
	</g>
</g>
<g id="general_travelling">
	<g id="dinner_set">
	</g>
	<g id="polaroid">
	</g>
	<g id="camera">
	</g>
	<g id="calendar">
	</g>
	<g id="calendar_single">
	</g>
	<g id="shopping_bag">
	</g>
	<g id="watch">
		<g>
			<path fill="#8A532D" d="M80.854,198.896c2.53-8.61,5.648-16.885,9.28-24.809H15.276v163.826h80.542
				C73.393,296.886,66.632,247.3,80.854,198.896z"/>
			<path fill="#8A532D" d="M496.724,174.087h-74.875c17.8,38.664,22.239,83.687,9.297,127.733
				c-3.758,12.789-8.804,24.847-14.935,36.093h80.513V174.087z"/>
			<path fill="#6E4224" d="M203.247,174.087H90.134c-3.632,7.924-6.751,16.199-9.28,24.809
				c-14.222,48.404-7.461,97.99,14.964,139.017h107.429V174.087z"/>
			<path fill="#6E4224" d="M421.849,174.087H308.753v163.826h107.458c6.132-11.245,11.177-23.303,14.935-36.093
				C444.088,257.774,439.649,212.751,421.849,174.087z"/>
		</g>
		<g>
			<g>
				<circle fill="#A3A3A3" cx="256" cy="256" r="167.619"/>
				<circle fill="#808080" cx="256" cy="256" r="145.782"/>
				<g>
					<circle fill="#E3E3E3" cx="256" cy="256" r="131.962"/>
					<circle fill="#FFFFFF" cx="265.053" cy="244.861" r="118.679"/>
				</g>
				
					<circle fill="none" stroke="#1B2736" stroke-width="6" stroke-linecap="round" stroke-linejoin="round" stroke-miterlimit="10" cx="256" cy="256" r="124.271"/>
				<circle fill="#1B2736" cx="256" cy="256" r="25.536"/>
				<g>
					<g>
						<path fill="#FF6650" d="M262.967,261.375c-0.362,0-0.731-0.055-1.094-0.172l-78.417-25.105
							c-1.886-0.604-2.926-2.622-2.322-4.509c0.604-1.887,2.625-2.928,4.509-2.322l78.417,25.105
							c1.886,0.604,2.926,2.622,2.322,4.509C265.894,260.404,264.484,261.375,262.967,261.375z"/>
					</g>
				</g>
				<g>
					<path fill="#2D415A" d="M331.129,303.461c-1.546,0-3.117-0.334-4.606-1.042l-73.549-34.911
						c-5.368-2.548-7.654-8.965-5.106-14.333c2.549-5.369,8.968-7.656,14.333-5.106l73.549,34.911
						c5.368,2.548,7.654,8.965,5.106,14.333C339.014,301.191,335.154,303.461,331.129,303.461z"/>
				</g>
				<g>
					<path fill="#2D415A" d="M257.5,264.064c-3.466,0-6.5-2.81-6.5-6.276v-98.626c0-3.466,3.034-6.276,6.5-6.276
						c3.466,0,6.5,2.81,6.5,6.276v98.626C264,261.254,260.966,264.064,257.5,264.064z"/>
				</g>
				<g>
					
						<line fill="none" stroke="#1B2736" stroke-width="8" stroke-linecap="round" stroke-linejoin="round" stroke-miterlimit="10" x1="257" y1="147.452" x2="257" y2="134.452"/>
					
						<line fill="none" stroke="#1B2736" stroke-width="8" stroke-linecap="round" stroke-linejoin="round" stroke-miterlimit="10" x1="257" y1="379.452" x2="257" y2="365.452"/>
					
						<line fill="none" stroke="#1B2736" stroke-width="8" stroke-linecap="round" stroke-linejoin="round" stroke-miterlimit="10" x1="366" y1="257.452" x2="379" y2="257.452"/>
					
						<line fill="none" stroke="#1B2736" stroke-width="8" stroke-linecap="round" stroke-linejoin="round" stroke-miterlimit="10" x1="135" y1="257.452" x2="148" y2="257.452"/>
				</g>
				<g>
					
						<line fill="none" stroke="#1B2736" stroke-width="4" stroke-linecap="round" stroke-linejoin="round" stroke-miterlimit="10" x1="203.058" y1="161.876" x2="196.334" y2="150.229"/>
					
						<line fill="none" stroke="#1B2736" stroke-width="4" stroke-linecap="round" stroke-linejoin="round" stroke-miterlimit="10" x1="318.719" y1="362.208" x2="311.995" y2="350.56"/>
					
						<line fill="none" stroke="#1B2736" stroke-width="4" stroke-linecap="round" stroke-linejoin="round" stroke-miterlimit="10" x1="351.704" y1="202.362" x2="363.352" y2="195.638"/>
					
						<line fill="none" stroke="#1B2736" stroke-width="4" stroke-linecap="round" stroke-linejoin="round" stroke-miterlimit="10" x1="151.373" y1="318.024" x2="163.02" y2="311.299"/>
				</g>
				<g>
					
						<line fill="none" stroke="#1B2736" stroke-width="4" stroke-linecap="round" stroke-linejoin="round" stroke-miterlimit="10" x1="163.162" y1="201.668" x2="151.515" y2="194.944"/>
					
						<line fill="none" stroke="#1B2736" stroke-width="4" stroke-linecap="round" stroke-linejoin="round" stroke-miterlimit="10" x1="363.494" y1="317.329" x2="351.846" y2="310.605"/>
					
						<line fill="none" stroke="#1B2736" stroke-width="4" stroke-linecap="round" stroke-linejoin="round" stroke-miterlimit="10" x1="312.137" y1="162.407" x2="318.861" y2="150.76"/>
					
						<line fill="none" stroke="#1B2736" stroke-width="4" stroke-linecap="round" stroke-linejoin="round" stroke-miterlimit="10" x1="196.476" y1="362.738" x2="203.2" y2="351.091"/>
				</g>
			</g>
			<g>
				<g>
					<circle fill="#FFB561" cx="196.809" cy="291.879" r="29.632"/>
					<circle fill="#FFD161" cx="198.842" cy="289.378" r="26.649"/>
				</g>
				<g>
					<path fill="#2D415A" d="M213.679,302.537c-0.347,0-0.7-0.075-1.034-0.234l-16.515-7.839c-1.205-0.572-1.719-2.013-1.147-3.219
						c0.572-1.206,2.014-1.719,3.219-1.147l16.515,7.839c1.205,0.572,1.719,2.013,1.147,3.219
						C215.45,302.027,214.583,302.537,213.679,302.537z"/>
				</g>
				<g>
					<path fill="#2D415A" d="M197,293.69c-0.778,0-1-0.631-1-1.409v-22.146c0-0.778,0.222-1.409,1-1.409s1,0.631,1,1.409v22.146
						C198,293.059,197.778,293.69,197,293.69z"/>
				</g>
				<g>
					
						<line fill="none" stroke="#1B2736" stroke-width="4" stroke-linecap="round" stroke-linejoin="round" stroke-miterlimit="10" x1="197" y1="267.452" x2="197" y2="265.452"/>
					
						<line fill="none" stroke="#1B2736" stroke-width="4" stroke-linecap="round" stroke-linejoin="round" stroke-miterlimit="10" x1="197" y1="319.452" x2="197" y2="317.452"/>
					
						<line fill="none" stroke="#1B2736" stroke-width="4" stroke-linecap="round" stroke-linejoin="round" stroke-miterlimit="10" x1="222" y1="292.452" x2="224" y2="292.452"/>
					
						<line fill="none" stroke="#1B2736" stroke-width="4" stroke-linecap="round" stroke-linejoin="round" stroke-miterlimit="10" x1="170" y1="292.452" x2="172" y2="292.452"/>
				</g>
			</g>
			<g>
				<g>
					<circle fill="#CF5341" cx="311.574" cy="211.185" r="29.632"/>
					<circle fill="#FF6650" cx="309.541" cy="208.684" r="26.649"/>
				</g>
				<g>
					<path fill="#2D415A" d="M294.704,221.843c0.347,0,0.7-0.075,1.034-0.234l16.515-7.839c1.205-0.572,1.719-2.013,1.147-3.219
						c-0.572-1.206-2.014-1.719-3.219-1.147l-16.515,7.839c-1.205,0.572-1.719,2.013-1.147,3.219
						C292.933,221.333,293.8,221.843,294.704,221.843z"/>
				</g>
				<g>
					<path fill="#2D415A" d="M310.5,212.996c0.778,0,1.5-0.631,1.5-1.409v-22.146c0-0.778-0.722-1.409-1.5-1.409
						s-1.5,0.631-1.5,1.409v22.146C309,212.365,309.722,212.996,310.5,212.996z"/>
				</g>
				<g>
					
						<line fill="none" stroke="#1B2736" stroke-width="4" stroke-linecap="round" stroke-linejoin="round" stroke-miterlimit="10" x1="311" y1="186.452" x2="311" y2="183.452"/>
					
						<line fill="none" stroke="#1B2736" stroke-width="4" stroke-linecap="round" stroke-linejoin="round" stroke-miterlimit="10" x1="311" y1="238.452" x2="311" y2="235.452"/>
					
						<line fill="none" stroke="#1B2736" stroke-width="4" stroke-linecap="round" stroke-linejoin="round" stroke-miterlimit="10" x1="287" y1="211.452" x2="284" y2="211.452"/>
					
						<line fill="none" stroke="#1B2736" stroke-width="4" stroke-linecap="round" stroke-linejoin="round" stroke-miterlimit="10" x1="339" y1="211.452" x2="336" y2="211.452"/>
				</g>
			</g>
		</g>
	</g>
	<g id="alarm_clock">
	</g>
	<g id="credit_card">
	</g>
	<g id="road_sign">
	</g>
	<g id="hotel">
	</g>
	<g id="money">
	</g>
	<g id="sunglass">
	</g>
	<g id="cocktail">
	</g>
	<g id="compass">
	</g>
	<g id="tent">
	</g>
	<g id="backpack">
	</g>
	<g id="map">
	</g>
	<g id="ticket_1_">
	</g>
	<g id="passport">
	</g>
	<g id="luggage">
	</g>
	<g id="globe">
	</g>
	<g id="suitcase">
	</g>
</g>
<g id="vehicles">
	<g id="trailer">
	</g>
	<g id="airplane">
	</g>
	<g id="yatch">
	</g>
	<g id="taxi">
	</g>
	<g id="hot_air_ballon">
	</g>
	<g id="bus">
	</g>
	<g id="train">
	</g>
</g>
<g id="summer">
	<g id="postcard">
	</g>
	<g id="bikini">
	</g>
	<g id="flipflop">
	</g>
	<g id="plane_around_the_globe">
	</g>
	<g id="binocular">
	</g>
	<g id="beach_table">
	</g>
	<g id="sun_hat">
	</g>
	<g id="beach_bag">
	</g>
	<g id="sea__x26__wave">
	</g>
	<g id="beach">
	</g>
	<g id="beach_ball">
	</g>
	<g id="jetski">
	</g>
	<g id="sandcastle">
	</g>
	<g id="lifeguard_male">
	</g>
	<g id="lifeguard_female">
	</g>
	<g id="lighthouse">
	</g>
	<g id="hammok">
	</g>
	<g id="beach_chair__x26__umbrella">
	</g>
	<g id="lifeguard">
	</g>
	<g id="suncream">
	</g>
	<g id="starfish">
	</g>
	<g id="beach_bar">
	</g>
	<g id="bucket__x26__shovel">
	</g>
	<g id="palm_tree">
	</g>
	<g id="shark_warning">
	</g>
	<g id="surfboard">
	</g>
	<g id="swimming_trunks">
	</g>
	<g id="coconut_drink">
	</g>
	<g id="beach_chair__x26__towel">
	</g>
	<g id="coconut_tree">
	</g>
</g>
</svg>
