<?xml version="1.0" encoding="utf-8"?>
<!-- Generator: Adobe Illustrator 17.0.0, SVG Export Plug-In . SVG Version: 6.00 Build 0)  -->
<!DOCTYPE svg PUBLIC "-//W3C//DTD SVG 1.1//EN" "http://www.w3.org/Graphics/SVG/1.1/DTD/svg11.dtd">
<svg version="1.1" xmlns="http://www.w3.org/2000/svg" xmlns:xlink="http://www.w3.org/1999/xlink" x="0px" y="0px" width="512px"
	 height="512px" viewBox="0 0 512 512" enable-background="new 0 0 512 512" xml:space="preserve">
<g id="famous_places">
	<g id="Pyramid">
	</g>
	<g id="Colloseum">
	</g>
	<g id="Mount_Fuji">
	</g>
	<g id="Great_Wall_of_China">
	</g>
	<g id="Stonehenge">
	</g>
	<g id="Golden_Gate_Bridge">
	</g>
	<g id="Christ_the_Redeemer">
	</g>
	<g id="Statue_of_Liberty">
	</g>
	<g id="Taj_Mahal">
	</g>
	<g id="Eiffel_tower">
	</g>
</g>
<g id="camping">
	<g id="mug">
	</g>
	<g id="hook">
	</g>
	<g id="Swiss_knife">
	</g>
	<g id="flashlight">
	</g>
	<g id="lantern">
	</g>
	<g id="campfire">
	</g>
	<g id="beanie">
	</g>
	<g id="rope">
	</g>
	<g id="boot">
	</g>
	<g id="axe">
	</g>
</g>
<g id="hotel_1_">
	<g id="towel">
	</g>
	<g id="phone">
	</g>
	<g id="pool">
	</g>
	<g id="food_service">
	</g>
	<g id="wifi">
	</g>
	<g id="bed">
	</g>
	<g id="door">
	</g>
	<g id="key">
	</g>
	<g id="do_not_disturb">
	</g>
	<g id="bell">
	</g>
</g>
<g id="winter">
	<g id="snowman">
	</g>
	<g id="snow_mountain">
		<g>
			<polygon fill="#71A3E3" points="374.404,457.683 201.517,137.587 28.742,457.683 			"/>
			<polygon fill="#E3E3E3" points="117.753,292.349 183.678,220.049 201.254,270.748 221.613,220.049 285.335,292.349 
				201.517,137.163 			"/>
			<polygon fill="#5C84B8" points="69.753,381.525 92.013,427.86 150.933,354.046 196.665,404.598 251.118,377.188 201.255,270.754 
				221.613,220.052 285.335,292.563 374.404,457.683 28.779,457.683 			"/>
			<polygon fill="#4E709C" points="322.771,360.527 308.398,335.369 176.302,457.683 374.404,457.683 			"/>
			<polygon fill="#71A3E3" points="479.778,457.683 355.905,292.773 232.112,457.683 			"/>
			<polygon fill="#E3E3E3" points="295.888,372.299 343.124,335.051 355.716,361.17 370.303,335.051 415.96,372.299 
				355.905,292.349 			"/>
			<polygon fill="#5C84B8" points="261.496,418.345 277.446,442.164 319.661,404.11 352.428,430.141 391.444,416.013 
				355.717,361.177 370.304,335.054 415.96,372.513 479.778,457.683 232.139,457.683 			"/>
			<g>
				<polygon fill="#8A532D" points="102.3,426.683 100.662,426.683 99.038,426.683 97.076,457.683 100.662,457.683 104.262,457.683 
									"/>
				<path fill="#62E07B" d="M112.614,414.418h3.751c0.905,0,1.299-1.818,0.586-2.704l-7.484-9.301
					c-0.713-0.886-0.319-2.704,0.586-2.704h1.695c0.903,0,1.299-1.813,0.589-2.701l-6.067-7.591
					c-0.71-0.888-0.315-2.701,0.589-2.701h0.008c0.904,0,1.299-1.815,0.588-2.702l-6.208-7.749
					c-0.345-0.431-0.832-0.431-1.177,0.001l-6.194,7.749c-0.71,0.888-0.315,2.701,0.589,2.701h0c0.903,0,1.299,1.811,0.589,2.7
					l-6.059,7.592c-0.709,0.889-0.314,2.7,0.589,2.7h1.687c0.905,0,1.299,1.817,0.587,2.703l-7.476,9.302
					c-0.712,0.886-0.318,2.703,0.587,2.703h3.741c0.905,0,1.299,1.817,0.587,2.703l-14.371,17.882
					c-0.712,0.886-0.318,2.703,0.587,2.703h25.144h25.164c0.905,0,1.299-1.818,0.587-2.704l-14.382-17.881
					C111.315,416.235,111.709,414.418,112.614,414.418z"/>
			</g>
			<g>
				<polygon fill="#8A532D" points="137.833,434.683 136.648,434.683 135.473,434.683 134.054,457.683 136.648,457.683 
					139.253,457.683 				"/>
				<path fill="#62E07B" d="M145.295,426.2h2.714c0.655,0,0.94-1.315,0.424-1.956l-5.414-6.729c-0.516-0.641-0.23-1.956,0.424-1.956
					h1.227c0.654,0,0.94-1.311,0.426-1.954l-4.389-5.492c-0.514-0.643-0.228-1.954,0.426-1.954h0.005
					c0.654,0,0.94-1.313,0.425-1.955l-4.492-5.606c-0.25-0.312-0.602-0.312-0.851,0.001l-4.481,5.606
					c-0.514,0.643-0.228,1.954,0.426,1.954l0,0c0.653,0,0.94,1.311,0.426,1.953l-4.383,5.493c-0.513,0.643-0.227,1.953,0.426,1.953
					h1.221c0.655,0,0.94,1.315,0.425,1.956l-5.409,6.73c-0.515,0.641-0.23,1.956,0.425,1.956h2.706c0.655,0,0.94,1.315,0.425,1.956
					l-10.398,12.937c-0.515,0.641-0.23,1.956,0.425,1.956h18.192h18.206c0.655,0,0.94-1.315,0.424-1.956l-10.405-12.937
					C144.355,427.515,144.641,426.2,145.295,426.2z"/>
			</g>
			<g>
				<polygon fill="#8A532D" points="378.969,441.683 378.131,441.683 377.299,441.683 376.294,457.683 378.131,457.683 
					379.974,457.683 				"/>
				<path fill="#62E07B" d="M384.251,435.405h1.921c0.463,0,0.665-0.931,0.3-1.385l-3.832-4.763c-0.365-0.454-0.163-1.385,0.3-1.385
					h0.868c0.463,0,0.665-0.928,0.302-1.383l-3.107-3.887c-0.363-0.455-0.161-1.383,0.302-1.383h0.004
					c0.463,0,0.665-0.929,0.301-1.384l-3.179-3.968c-0.177-0.221-0.426-0.221-0.603,0.001l-3.172,3.968
					c-0.364,0.455-0.161,1.383,0.302,1.383l0,0c0.462,0,0.665,0.928,0.302,1.383l-3.103,3.888c-0.363,0.455-0.161,1.383,0.302,1.383
					h0.864c0.463,0,0.665,0.93,0.301,1.384l-3.828,4.763c-0.365,0.454-0.163,1.384,0.301,1.384h1.916
					c0.463,0,0.665,0.93,0.301,1.384l-7.359,9.157c-0.365,0.454-0.163,1.384,0.301,1.384h12.876h12.886
					c0.463,0,0.665-0.931,0.3-1.385l-7.365-9.157C383.586,436.336,383.788,435.405,384.251,435.405z"/>
			</g>
			<g>
				<polygon fill="#8A532D" points="336.969,403.683 336.131,403.683 335.299,403.683 334.294,419.683 336.131,419.683 
					337.974,419.683 				"/>
				<path fill="#62E07B" d="M342.251,397.405h1.921c0.463,0,0.665-0.931,0.3-1.385l-3.832-4.763c-0.365-0.454-0.163-1.385,0.3-1.385
					h0.868c0.463,0,0.665-0.928,0.302-1.383l-3.107-3.887c-0.363-0.455-0.161-1.383,0.302-1.383h0.004
					c0.463,0,0.665-0.929,0.301-1.384l-3.179-3.968c-0.177-0.221-0.426-0.221-0.603,0.001l-3.172,3.968
					c-0.364,0.455-0.161,1.383,0.302,1.383l0,0c0.462,0,0.665,0.928,0.302,1.383l-3.103,3.888c-0.363,0.455-0.161,1.383,0.302,1.383
					h0.864c0.463,0,0.665,0.93,0.301,1.384l-3.828,4.763c-0.365,0.454-0.163,1.384,0.301,1.384h1.916
					c0.463,0,0.665,0.93,0.301,1.384l-7.359,9.157c-0.365,0.454-0.163,1.384,0.301,1.384h12.876h12.886
					c0.463,0,0.665-0.931,0.3-1.385l-7.365-9.157C341.586,398.336,341.788,397.405,342.251,397.405z"/>
			</g>
			<g>
				<polygon fill="#8A532D" points="173.348,430.683 171.933,430.683 170.529,430.683 168.834,457.683 171.933,457.683 
					175.044,457.683 				"/>
				<path fill="#62E07B" d="M182.262,420.204h3.242c0.782,0,1.123-1.571,0.507-2.337l-6.467-8.038
					c-0.616-0.766-0.275-2.337,0.507-2.337h1.465c0.781,0,1.122-1.566,0.509-2.334l-5.243-6.56
					c-0.613-0.768-0.272-2.334,0.509-2.334h0.007c0.781,0,1.123-1.568,0.508-2.335l-5.365-6.697
					c-0.299-0.373-0.719-0.372-1.017,0.001l-5.353,6.697c-0.613,0.767-0.272,2.334,0.509,2.334l0,0c0.78,0,1.122,1.565,0.509,2.333
					l-5.236,6.561c-0.613,0.768-0.271,2.333,0.509,2.333h1.458c0.782,0,1.123,1.57,0.507,2.336l-6.461,8.039
					c-0.616,0.766-0.275,2.336,0.507,2.336h3.233c0.782,0,1.123,1.57,0.507,2.336l-12.42,15.453
					c-0.616,0.766-0.275,2.336,0.507,2.336h21.729h21.747c0.782,0,1.123-1.571,0.507-2.337l-12.429-15.453
					C181.139,421.775,181.48,420.204,182.262,420.204z"/>
			</g>
			<path fill="#E3E3E3" d="M356.352,232.676L356.352,232.676c0,5.493,4.453,9.945,9.945,9.945h96.507
				c5.493,0,9.945-4.453,9.945-9.945v0c0-5.493-4.453-9.945-9.945-9.945h-22.837c-5.493,0-9.945-4.453-9.945-9.945v0
				c0-5.493-4.453-9.945-9.945-9.945h-104.61c-5.493,0-9.945,4.453-9.945,9.945v0c0,5.493,4.453,9.945,9.945,9.945h30.941
				C351.899,222.73,356.352,227.183,356.352,232.676z"/>
			<path fill="#E3E3E3" d="M180.222,67.795L180.222,67.795c0-7.456-6.044-13.5-13.5-13.5h-131c-7.456,0-13.5,6.044-13.5,13.5v0
				c0,7.456,6.044,13.5,13.5,13.5h31c7.456,0,13.5,6.044,13.5,13.5v0c0,7.456,6.044,13.5,13.5,13.5h142
				c7.456,0,13.5-6.044,13.5-13.5v0c0-7.456-6.044-13.5-13.5-13.5h-42C186.267,81.295,180.222,75.251,180.222,67.795z"/>
			<line fill="none" stroke="#4A4A4A" stroke-width="3" stroke-miterlimit="10" x1="386.5" y1="363.683" x2="386.5" y2="303.683"/>
			<line fill="none" stroke="#4A4A4A" stroke-width="3" stroke-miterlimit="10" x1="480.5" y1="457.683" x2="480.5" y2="429.683"/>
			
				<line fill="none" stroke="#4A4A4A" stroke-width="3" stroke-miterlimit="10" x1="372.358" y1="285.936" x2="489.778" y2="442.436"/>
			<line fill="none" stroke="#4A4A4A" stroke-width="3" stroke-miterlimit="10" x1="378" y1="364.183" x2="395" y2="364.183"/>
			<line fill="none" stroke="#4A4A4A" stroke-width="3" stroke-miterlimit="10" x1="425.5" y1="355.683" x2="425.5" y2="369.683"/>
			<g>
				<path fill="#FF6650" d="M439.278,372.857c0-2.011-1.245-3.921-3.256-3.921h-21.463c-2.011,0-3.781,1.91-3.781,3.921v3.781h28.5
					V372.857z"/>
				<path fill="#E3E3E3" d="M411,376.683v12.49c0,2.011,1.548,3.51,3.559,3.51h21.463c2.011,0,2.978-1.499,2.978-3.51v-12.49H411z"
					/>
			</g>
			<rect x="419.633" y="378.455" fill="#4A4A4A" width="10.79" height="8.5"/>
		</g>
	</g>
	<g id="reindeer">
	</g>
	<g id="winter_tree">
	</g>
	<g id="lift">
	</g>
	<g id="beanie__x26__google">
	</g>
	<g id="ski">
	</g>
	<g id="snowboard">
	</g>
	<g id="snowboading">
	</g>
	<g id="skiing">
	</g>
</g>
<g id="general_travelling">
	<g id="dinner_set">
	</g>
	<g id="polaroid">
	</g>
	<g id="camera">
	</g>
	<g id="calendar">
	</g>
	<g id="calendar_single">
	</g>
	<g id="shopping_bag">
	</g>
	<g id="watch">
	</g>
	<g id="alarm_clock">
	</g>
	<g id="credit_card">
	</g>
	<g id="road_sign">
	</g>
	<g id="hotel">
	</g>
	<g id="money">
	</g>
	<g id="sunglass">
	</g>
	<g id="cocktail">
	</g>
	<g id="compass">
	</g>
	<g id="tent">
	</g>
	<g id="backpack">
	</g>
	<g id="map">
	</g>
	<g id="ticket_1_">
	</g>
	<g id="passport">
	</g>
	<g id="luggage">
	</g>
	<g id="globe">
	</g>
	<g id="suitcase">
	</g>
</g>
<g id="vehicles">
	<g id="trailer">
	</g>
	<g id="airplane">
	</g>
	<g id="yatch">
	</g>
	<g id="taxi">
	</g>
	<g id="hot_air_ballon">
	</g>
	<g id="bus">
	</g>
	<g id="train">
	</g>
</g>
<g id="summer">
	<g id="postcard">
	</g>
	<g id="bikini">
	</g>
	<g id="flipflop">
	</g>
	<g id="plane_around_the_globe">
	</g>
	<g id="binocular">
	</g>
	<g id="beach_table">
	</g>
	<g id="sun_hat">
	</g>
	<g id="beach_bag">
	</g>
	<g id="sea__x26__wave">
	</g>
	<g id="beach">
	</g>
	<g id="beach_ball">
	</g>
	<g id="jetski">
	</g>
	<g id="sandcastle">
	</g>
	<g id="lifeguard_male">
	</g>
	<g id="lifeguard_female">
	</g>
	<g id="lighthouse">
	</g>
	<g id="hammok">
	</g>
	<g id="beach_chair__x26__umbrella">
	</g>
	<g id="lifeguard">
	</g>
	<g id="suncream">
	</g>
	<g id="starfish">
	</g>
	<g id="beach_bar">
	</g>
	<g id="bucket__x26__shovel">
	</g>
	<g id="palm_tree">
	</g>
	<g id="shark_warning">
	</g>
	<g id="surfboard">
	</g>
	<g id="swimming_trunks">
	</g>
	<g id="coconut_drink">
	</g>
	<g id="beach_chair__x26__towel">
	</g>
	<g id="coconut_tree">
	</g>
</g>
</svg>
