<?xml version="1.0" encoding="utf-8"?>
<!-- Generator: Adobe Illustrator 17.0.0, SVG Export Plug-In . SVG Version: 6.00 Build 0)  -->
<!DOCTYPE svg PUBLIC "-//W3C//DTD SVG 1.1//EN" "http://www.w3.org/Graphics/SVG/1.1/DTD/svg11.dtd">
<svg version="1.1" xmlns="http://www.w3.org/2000/svg" xmlns:xlink="http://www.w3.org/1999/xlink" x="0px" y="0px" width="512px"
	 height="512px" viewBox="0 0 512 512" enable-background="new 0 0 512 512" xml:space="preserve">
<g id="famous_places">
	<g id="Pyramid">
	</g>
	<g id="Colloseum">
	</g>
	<g id="Mount_Fuji">
	</g>
	<g id="Great_Wall_of_China">
	</g>
	<g id="Stonehenge">
	</g>
	<g id="Golden_Gate_Bridge">
	</g>
	<g id="Christ_the_Redeemer">
	</g>
	<g id="Statue_of_Liberty">
	</g>
	<g id="Taj_Mahal">
	</g>
	<g id="Eiffel_tower">
	</g>
</g>
<g id="camping">
	<g id="mug">
	</g>
	<g id="hook">
	</g>
	<g id="Swiss_knife">
	</g>
	<g id="flashlight">
	</g>
	<g id="lantern">
	</g>
	<g id="campfire">
	</g>
	<g id="beanie">
	</g>
	<g id="rope">
	</g>
	<g id="boot">
	</g>
	<g id="axe">
	</g>
</g>
<g id="hotel_1_">
	<g id="towel">
	</g>
	<g id="phone">
	</g>
	<g id="pool">
	</g>
	<g id="food_service">
	</g>
	<g id="wifi">
	</g>
	<g id="bed">
	</g>
	<g id="door">
	</g>
	<g id="key">
	</g>
	<g id="do_not_disturb">
	</g>
	<g id="bell">
	</g>
</g>
<g id="winter">
	<g id="snowman">
	</g>
	<g id="snow_mountain">
	</g>
	<g id="reindeer">
	</g>
	<g id="winter_tree">
	</g>
	<g id="lift">
	</g>
	<g id="beanie__x26__google">
	</g>
	<g id="ski">
	</g>
	<g id="snowboard">
	</g>
	<g id="snowboading">
	</g>
	<g id="skiing">
	</g>
</g>
<g id="general_travelling">
	<g id="dinner_set">
	</g>
	<g id="polaroid">
	</g>
	<g id="camera">
	</g>
	<g id="calendar">
	</g>
	<g id="calendar_single">
	</g>
	<g id="shopping_bag">
	</g>
	<g id="watch">
	</g>
	<g id="alarm_clock">
	</g>
	<g id="credit_card">
	</g>
	<g id="road_sign">
	</g>
	<g id="hotel">
	</g>
	<g id="money">
	</g>
	<g id="sunglass">
	</g>
	<g id="cocktail">
	</g>
	<g id="compass">
	</g>
	<g id="tent">
	</g>
	<g id="backpack">
	</g>
	<g id="map">
	</g>
	<g id="ticket_1_">
	</g>
	<g id="passport">
	</g>
	<g id="luggage">
	</g>
	<g id="globe">
	</g>
	<g id="suitcase">
	</g>
</g>
<g id="vehicles">
	<g id="trailer">
	</g>
	<g id="airplane">
	</g>
	<g id="yatch">
	</g>
	<g id="taxi">
	</g>
	<g id="hot_air_ballon">
	</g>
	<g id="bus">
	</g>
	<g id="train">
	</g>
</g>
<g id="summer">
	<g id="postcard">
	</g>
	<g id="bikini">
	</g>
	<g id="flipflop">
	</g>
	<g id="plane_around_the_globe">
	</g>
	<g id="binocular">
	</g>
	<g id="beach_table">
	</g>
	<g id="sun_hat">
	</g>
	<g id="beach_bag">
	</g>
	<g id="sea__x26__wave">
	</g>
	<g id="beach">
	</g>
	<g id="beach_ball">
	</g>
	<g id="jetski">
	</g>
	<g id="sandcastle">
	</g>
	<g id="lifeguard_male">
		<g>
			<g>
				
					<line fill="none" stroke="#2D415A" stroke-width="22" stroke-linecap="round" stroke-linejoin="round" stroke-miterlimit="10" x1="203.742" y1="339.365" x2="195.755" y2="480.435"/>
				
					<line fill="none" stroke="#2D415A" stroke-width="22" stroke-linecap="round" stroke-linejoin="round" stroke-miterlimit="10" x1="261.375" y1="339.365" x2="269.362" y2="480.435"/>
				<circle fill="#2D415A" cx="232.316" cy="65.657" r="34.092"/>
				<rect x="221.613" y="82.322" fill="#2D415A" width="21.407" height="41.163"/>
				<path fill="#2D415A" d="M229.899,116.612l-50.789,12.069c-5.007,1.19-8.031,6.292-6.671,11.255l18.41,112.018
					c1.083,3.953,4.676,6.693,8.774,6.693h32.38h32.265c4.097,0,7.688-2.738,8.773-6.689l18.462-112.021
					c1.362-4.963-1.66-10.068-6.668-11.259l-50.728-12.066C232.724,116.284,231.283,116.284,229.899,116.612z"/>
				<path fill="#FF6650" d="M283.611,364.319l-10.444-111.816h-41.163h-40.549L181.01,364.319h41.163c0,0,0-42.994,0-48.535
					c0-10.444,9.83-10.444,9.83-10.444s9.83,0,9.83,10.444c0,5.541,0,48.535,0,48.535H283.611z"/>
				<polygon fill="#E3E3E3" points="274.264,263.937 273.166,251.937 232.003,251.937 191.455,251.937 190.356,263.937 				"/>
				
					<path fill="none" stroke="#2D415A" stroke-width="15" stroke-linecap="round" stroke-linejoin="round" stroke-miterlimit="10" d="
					M182.239,138.23c0,0-57.751,15.359-54.679,79.868c3.072,64.509,62.396,50.456,62.396,50.456"/>
			</g>
			<g>
				<path fill="#CF5341" d="M234.441,190.405h-4.367c-0.869,0-1.573-0.704-1.573-1.573v-9.85c0-0.869,0.704-1.573,1.573-1.573h4.367
					c0.869,0,1.573,0.704,1.573,1.573v9.85C236.014,189.7,235.31,190.405,234.441,190.405z"/>
				<circle fill="#FF6650" cx="232.258" cy="175.784" r="5.889"/>
				<rect x="229.82" y="186.937" fill="#2D415A" width="4.875" height="2"/>
			</g>
			<g>
				<g>
					<path fill="#E3E3E3" d="M329.558,145.162c-28.834,0-52.208,23.374-52.208,52.208s23.374,52.208,52.208,52.208
						c28.834,0,52.208-23.374,52.208-52.208S358.392,145.162,329.558,145.162z M329.558,225.956
						c-15.788,0-28.586-12.799-28.586-28.586s12.799-28.586,28.586-28.586s28.586,12.799,28.586,28.586
						S345.346,225.956,329.558,225.956z"/>
				</g>
				<path fill="#A6A6A6" d="M329.558,165.406c-17.653,0-31.964,14.311-31.964,31.964s14.311,31.964,31.964,31.964
					c17.653,0,31.964-14.311,31.964-31.964S347.212,165.406,329.558,165.406z M329.558,222.484
					c-13.87,0-25.114-11.244-25.114-25.114s11.244-25.114,25.114-25.114s25.114,11.244,25.114,25.114
					S343.429,222.484,329.558,222.484z"/>
				<path fill="#FF6650" d="M340.681,177.641c-0.425,0-0.848-0.097-1.238-0.29c-3.089-1.528-6.414-2.304-9.884-2.304
					c-3.469,0-6.795,0.775-9.884,2.303c-0.39,0.193-0.814,0.29-1.238,0.29c-0.387,0-0.774-0.08-1.136-0.242
					c-0.759-0.338-1.328-0.997-1.552-1.797l-7.376-26.311c-0.39-1.392,0.347-2.852,1.699-3.364
					c6.228-2.361,12.784-3.557,19.488-3.557c6.703,0,13.259,1.197,19.488,3.557c1.352,0.512,2.089,1.972,1.699,3.364l-7.376,26.311
					c-0.224,0.8-0.793,1.459-1.552,1.797C341.455,177.56,341.068,177.641,340.681,177.641z"/>
				<path fill="#FF6650" d="M329.558,252.37c-6.704,0-13.26-1.197-19.488-3.557c-1.352-0.512-2.089-1.972-1.699-3.364l7.376-26.311
					c0.224-0.8,0.793-1.459,1.552-1.797c0.362-0.161,0.749-0.242,1.136-0.242c0.424,0,0.848,0.097,1.238,0.29
					c3.089,1.528,6.414,2.304,9.884,2.304c3.47,0,6.795-0.775,9.884-2.304c0.39-0.193,0.814-0.29,1.238-0.29
					c0.387,0,0.774,0.08,1.136,0.242c0.759,0.338,1.328,0.997,1.552,1.797l7.376,26.311c0.39,1.392-0.347,2.852-1.699,3.364
					C342.818,251.173,336.262,252.37,329.558,252.37z"/>
				<path fill="#FF6650" d="M280.726,218.66c-1.134,0-2.19-0.695-2.61-1.803c-2.361-6.228-3.557-12.784-3.557-19.488
					c0-6.704,1.197-13.26,3.557-19.488c0.42-1.108,1.476-1.803,2.61-1.803c0.25,0,0.503,0.034,0.754,0.104l26.311,7.376
					c0.8,0.224,1.459,0.793,1.797,1.552c0.338,0.759,0.321,1.629-0.048,2.374c-1.528,3.089-2.304,6.414-2.304,9.884
					s0.775,6.795,2.304,9.884c0.369,0.745,0.386,1.615,0.048,2.374s-0.997,1.328-1.797,1.552l-26.311,7.376
					C281.229,218.627,280.975,218.66,280.726,218.66z"/>
				<path fill="#FF6650" d="M378.392,218.66c-0.25,0-0.503-0.034-0.754-0.104l-26.311-7.376c-0.8-0.224-1.459-0.793-1.797-1.552
					c-0.338-0.759-0.321-1.629,0.048-2.374c1.528-3.089,2.304-6.414,2.304-9.884s-0.775-6.795-2.304-9.884
					c-0.369-0.745-0.386-1.615-0.048-2.374s0.997-1.328,1.797-1.552l26.311-7.376c0.251-0.07,0.505-0.104,0.754-0.104
					c1.134,0,2.19,0.695,2.61,1.803c2.361,6.228,3.557,12.784,3.557,19.488c0,6.704-1.197,13.26-3.557,19.488
					C380.581,217.965,379.525,218.66,378.392,218.66z"/>
				<path fill="#CF5341" d="M317.3,177.399c0.362,0.161,0.749,0.242,1.136,0.242c0.424,0,0.848-0.097,1.238-0.29
					c3.089-1.528,6.415-2.303,9.884-2.303c3.47,0,6.795,0.775,9.884,2.304c0.39,0.193,0.814,0.29,1.238,0.29
					c0.387,0,0.774-0.08,1.136-0.242c0.759-0.338,1.328-0.997,1.552-1.797l1.729-6.169c-4.6-2.565-9.899-4.028-15.54-4.028
					c-5.641,0-10.939,1.463-15.54,4.028l1.729,6.168C315.972,176.402,316.541,177.061,317.3,177.399z"/>
				<path fill="#CF5341" d="M341.817,217.341c-0.362-0.161-0.749-0.242-1.136-0.242c-0.425,0-0.848,0.097-1.238,0.29
					c-3.089,1.528-6.415,2.304-9.884,2.304c-3.47,0-6.795-0.775-9.884-2.304c-0.39-0.193-0.814-0.29-1.238-0.29
					c-0.387,0-0.774,0.08-1.136,0.242c-0.759,0.338-1.328,0.997-1.552,1.797l-1.729,6.169c4.6,2.565,9.899,4.028,15.54,4.028
					c5.641,0,10.939-1.463,15.54-4.028l-1.729-6.168C343.145,218.337,342.576,217.679,341.817,217.341z"/>
				<path fill="#CF5341" d="M309.588,209.628c0.338-0.759,0.321-1.629-0.048-2.374c-1.528-3.089-2.304-6.415-2.304-9.884
					s0.775-6.795,2.304-9.884c0.369-0.745,0.386-1.615,0.048-2.374c-0.338-0.759-0.997-1.328-1.797-1.552l-6.169-1.729
					c-2.565,4.6-4.028,9.899-4.028,15.54c0,5.641,1.463,10.939,4.028,15.54l6.169-1.729
					C308.591,210.956,309.25,210.387,309.588,209.628z"/>
				<path fill="#CF5341" d="M357.494,181.83l-6.169,1.729c-0.8,0.224-1.459,0.793-1.797,1.552s-0.321,1.629,0.048,2.374
					c1.528,3.089,2.304,6.415,2.304,9.884s-0.775,6.795-2.304,9.884c-0.369,0.745-0.386,1.615-0.048,2.374
					c0.338,0.759,0.997,1.328,1.797,1.552l6.169,1.729c2.565-4.6,4.028-9.899,4.028-15.54
					C361.522,191.729,360.059,186.43,357.494,181.83z"/>
			</g>
			<g>
				<path fill="#2D415A" d="M337.698,176.588c-5.746-12.74-13.947-21.956-21.481-28.338c-1.302-1.102-2.606-2.137-3.904-3.115
					c-13.829-10.426-26.908-13.994-27.508-14.153c-4.001-1.064-8.11,1.317-9.176,5.32c-1.064,4.003,1.317,8.111,5.32,9.176
					c0.105,0.028,8.712,2.377,18.751,9.085c2.229,1.49,4.528,3.191,6.821,5.134c5.935,5.027,10.739,10.734,14.448,17.067
					c6.776,11.572,9.844,25.271,9.096,40.978c-0.031,0.658-0.081,1.296-0.125,1.94c3.331-0.055,6.527-0.821,9.502-2.293
					c0.39-0.193,0.813-0.29,1.238-0.29c0.387,0,0.774,0.081,1.136,0.242c0.549,0.245,0.994,0.661,1.286,1.173
					c0.689-0.442,1.351-0.921,1.991-1.426C345.671,200.765,342.575,187.402,337.698,176.588z"/>
				<path fill="#2D415A" d="M318.322,251.206c-1.19,1.25-2.458,2.406-3.826,3.442c-15.293,11.582-37.405,6.654-37.605,6.609
					c-4.03-0.956-8.07,1.539-9.026,5.569c-0.955,4.031,1.538,8.072,5.569,9.027c0.531,0.126,6.521,1.496,14.865,1.496
					c10.1,0,23.65-2.008,35.144-10.66c5.245-3.949,9.537-8.883,12.895-14.743c-2.239,0.275-4.499,0.425-6.779,0.425
					C325.753,252.37,321.999,251.971,318.322,251.206z"/>
			</g>
			<path fill="none" stroke="#E3E3E3" stroke-width="4" stroke-linecap="round" stroke-linejoin="round" stroke-miterlimit="10" d="
				M206.999,122.054c0,0,1.226,46.729,25.56,46.729s24.425-46.729,24.425-46.729"/>
		</g>
	</g>
	<g id="lifeguard_female">
	</g>
	<g id="lighthouse">
	</g>
	<g id="hammok">
	</g>
	<g id="beach_chair__x26__umbrella">
	</g>
	<g id="lifeguard">
	</g>
	<g id="suncream">
	</g>
	<g id="starfish">
	</g>
	<g id="beach_bar">
	</g>
	<g id="bucket__x26__shovel">
	</g>
	<g id="palm_tree">
	</g>
	<g id="shark_warning">
	</g>
	<g id="surfboard">
	</g>
	<g id="swimming_trunks">
	</g>
	<g id="coconut_drink">
	</g>
	<g id="beach_chair__x26__towel">
	</g>
	<g id="coconut_tree">
	</g>
</g>
</svg>
