<?xml version="1.0" encoding="utf-8"?>
<!-- Generator: Adobe Illustrator 17.0.0, SVG Export Plug-In . SVG Version: 6.00 Build 0)  -->
<!DOCTYPE svg PUBLIC "-//W3C//DTD SVG 1.1//EN" "http://www.w3.org/Graphics/SVG/1.1/DTD/svg11.dtd">
<svg version="1.1" xmlns="http://www.w3.org/2000/svg" xmlns:xlink="http://www.w3.org/1999/xlink" x="0px" y="0px" width="512px"
	 height="512px" viewBox="0 0 512 512" enable-background="new 0 0 512 512" xml:space="preserve">
<g id="famous_places">
	<g id="Pyramid">
	</g>
	<g id="Colloseum">
	</g>
	<g id="Mount_Fuji">
		<g>
			<circle fill="#FF6650" cx="358.051" cy="266.549" r="68.234"/>
			<g>
				<path fill="#4E709C" d="M289.503,215.354l-28.437,17.865l-6.797-15.88l-25.309,3.97c0,28.001-31.936,41.33-56.058,73.163
					c-40.204,53.055-93.809,99.443-93.809,99.443h176.665h4.962h176.665c0,0-61.835-53.621-102.49-111.42
					C314.985,254.188,289.503,239.824,289.503,215.354z"/>
				<path fill="#CED8DB" d="M262.779,320.702l8.288-59.34c1.133-8.11,5.161-8.807,8.953-1.549l3.582,6.857
					c3.791,7.258,6.335,7.389,5.653,0.293c-0.682-7.096,2.853-7.599,7.856-1.118l47.311,61.289c5.003,6.482,6.399,5.653,3.101-1.842
					l-15.302-34.778c-2.533-5.757-1.267-8.513,2.675-7.753c-19.909-28.306-34.74-57.848-34.74-81.848H260.72h-4.962h-39.435
					c0,27-19.341,62.069-43.501,93.932l17.894-13.425c6.569-4.887,10.57-2.386,8.891,5.629l-4.812,22.936
					c-1.679,8.014,0.404,8.818,4.628,1.804l35.751-59.36c4.225-7.014,8.91-6.17,10.411,1.879l12.405,66.505
					C259.491,328.862,261.647,328.812,262.779,320.702z"/>
				<path fill="#2FB49F" d="M162.949,376.119c-5.951-10.091-23.619-33.394-40.581-33.394s-34.592,23.303-40.544,33.394
					c-5.951,10.091-42.042,34.498-42.042,34.498l82.586-8.673l74.02-6.506C196.388,395.438,168.9,386.21,162.949,376.119z"/>
				<path fill="#2FB49F" d="M376.674,371.581c-5.153-8.738-20.453-28.917-35.14-28.917s-29.954,20.178-35.108,28.917
					c-5.153,8.738-28.923,16.729-28.923,16.729l64.031,5.634l64.096-5.634C405.63,388.31,381.827,380.32,376.674,371.581z"/>
				<path fill="#2FB49F" d="M266,375.374v-0.278c0,0-3.289,0.023-8.499,0.115c-5.211-0.092-8.501-0.115-8.501-0.115v0.278
					c-55,1.251-203.128,7.887-237.716,41.54h238.825h16.215h234.391C466.127,383.261,322,376.625,266,375.374z"/>
			</g>
		</g>
	</g>
	<g id="Great_Wall_of_China">
	</g>
	<g id="Stonehenge">
	</g>
	<g id="Golden_Gate_Bridge">
	</g>
	<g id="Christ_the_Redeemer">
	</g>
	<g id="Statue_of_Liberty">
	</g>
	<g id="Taj_Mahal">
	</g>
	<g id="Eiffel_tower">
	</g>
</g>
<g id="camping">
	<g id="mug">
	</g>
	<g id="hook">
	</g>
	<g id="Swiss_knife">
	</g>
	<g id="flashlight">
	</g>
	<g id="lantern">
	</g>
	<g id="campfire">
	</g>
	<g id="beanie">
	</g>
	<g id="rope">
	</g>
	<g id="boot">
	</g>
	<g id="axe">
	</g>
</g>
<g id="hotel_1_">
	<g id="towel">
	</g>
	<g id="phone">
	</g>
	<g id="pool">
	</g>
	<g id="food_service">
	</g>
	<g id="wifi">
	</g>
	<g id="bed">
	</g>
	<g id="door">
	</g>
	<g id="key">
	</g>
	<g id="do_not_disturb">
	</g>
	<g id="bell">
	</g>
</g>
<g id="winter">
	<g id="snowman">
	</g>
	<g id="snow_mountain">
	</g>
	<g id="reindeer">
	</g>
	<g id="winter_tree">
	</g>
	<g id="lift">
	</g>
	<g id="beanie__x26__google">
	</g>
	<g id="ski">
	</g>
	<g id="snowboard">
	</g>
	<g id="snowboading">
	</g>
	<g id="skiing">
	</g>
</g>
<g id="general_travelling">
	<g id="dinner_set">
	</g>
	<g id="polaroid">
	</g>
	<g id="camera">
	</g>
	<g id="calendar">
	</g>
	<g id="calendar_single">
	</g>
	<g id="shopping_bag">
	</g>
	<g id="watch">
	</g>
	<g id="alarm_clock">
	</g>
	<g id="credit_card">
	</g>
	<g id="road_sign">
	</g>
	<g id="hotel">
	</g>
	<g id="money">
	</g>
	<g id="sunglass">
	</g>
	<g id="cocktail">
	</g>
	<g id="compass">
	</g>
	<g id="tent">
	</g>
	<g id="backpack">
	</g>
	<g id="map">
	</g>
	<g id="ticket_1_">
	</g>
	<g id="passport">
	</g>
	<g id="luggage">
	</g>
	<g id="globe">
	</g>
	<g id="suitcase">
	</g>
</g>
<g id="vehicles">
	<g id="trailer">
	</g>
	<g id="airplane">
	</g>
	<g id="yatch">
	</g>
	<g id="taxi">
	</g>
	<g id="hot_air_ballon">
	</g>
	<g id="bus">
	</g>
	<g id="train">
	</g>
</g>
<g id="summer">
	<g id="postcard">
	</g>
	<g id="bikini">
	</g>
	<g id="flipflop">
	</g>
	<g id="plane_around_the_globe">
	</g>
	<g id="binocular">
	</g>
	<g id="beach_table">
	</g>
	<g id="sun_hat">
	</g>
	<g id="beach_bag">
	</g>
	<g id="sea__x26__wave">
	</g>
	<g id="beach">
	</g>
	<g id="beach_ball">
	</g>
	<g id="jetski">
	</g>
	<g id="sandcastle">
	</g>
	<g id="lifeguard_male">
	</g>
	<g id="lifeguard_female">
	</g>
	<g id="lighthouse">
	</g>
	<g id="hammok">
	</g>
	<g id="beach_chair__x26__umbrella">
	</g>
	<g id="lifeguard">
	</g>
	<g id="suncream">
	</g>
	<g id="starfish">
	</g>
	<g id="beach_bar">
	</g>
	<g id="bucket__x26__shovel">
	</g>
	<g id="palm_tree">
	</g>
	<g id="shark_warning">
	</g>
	<g id="surfboard">
	</g>
	<g id="swimming_trunks">
	</g>
	<g id="coconut_drink">
	</g>
	<g id="beach_chair__x26__towel">
	</g>
	<g id="coconut_tree">
	</g>
</g>
</svg>
