<?xml version="1.0" encoding="utf-8"?>
<!-- Generator: Adobe Illustrator 17.0.0, SVG Export Plug-In . SVG Version: 6.00 Build 0)  -->
<!DOCTYPE svg PUBLIC "-//W3C//DTD SVG 1.1//EN" "http://www.w3.org/Graphics/SVG/1.1/DTD/svg11.dtd">
<svg version="1.1" xmlns="http://www.w3.org/2000/svg" xmlns:xlink="http://www.w3.org/1999/xlink" x="0px" y="0px" width="512px"
	 height="512px" viewBox="0 0 512 512" enable-background="new 0 0 512 512" xml:space="preserve">
<g id="famous_places">
	<g id="Pyramid">
	</g>
	<g id="Colloseum">
	</g>
	<g id="Mount_Fuji">
	</g>
	<g id="Great_Wall_of_China">
	</g>
	<g id="Stonehenge">
	</g>
	<g id="Golden_Gate_Bridge">
	</g>
	<g id="Christ_the_Redeemer">
	</g>
	<g id="Statue_of_Liberty">
	</g>
	<g id="Taj_Mahal">
	</g>
	<g id="Eiffel_tower">
	</g>
</g>
<g id="camping">
	<g id="mug">
	</g>
	<g id="hook">
	</g>
	<g id="Swiss_knife">
	</g>
	<g id="flashlight">
	</g>
	<g id="lantern">
	</g>
	<g id="campfire">
	</g>
	<g id="beanie">
	</g>
	<g id="rope">
	</g>
	<g id="boot">
	</g>
	<g id="axe">
	</g>
</g>
<g id="hotel_1_">
	<g id="towel">
	</g>
	<g id="phone">
	</g>
	<g id="pool">
	</g>
	<g id="food_service">
	</g>
	<g id="wifi">
	</g>
	<g id="bed">
	</g>
	<g id="door">
	</g>
	<g id="key">
	</g>
	<g id="do_not_disturb">
	</g>
	<g id="bell">
	</g>
</g>
<g id="winter">
	<g id="snowman">
	</g>
	<g id="snow_mountain">
	</g>
	<g id="reindeer">
	</g>
	<g id="winter_tree">
	</g>
	<g id="lift">
	</g>
	<g id="beanie__x26__google">
	</g>
	<g id="ski">
	</g>
	<g id="snowboard">
	</g>
	<g id="snowboading">
	</g>
	<g id="skiing">
	</g>
</g>
<g id="general_travelling">
	<g id="dinner_set">
	</g>
	<g id="polaroid">
	</g>
	<g id="camera">
	</g>
	<g id="calendar">
	</g>
	<g id="calendar_single">
	</g>
	<g id="shopping_bag">
	</g>
	<g id="watch">
	</g>
	<g id="alarm_clock">
	</g>
	<g id="credit_card">
	</g>
	<g id="road_sign">
	</g>
	<g id="hotel">
	</g>
	<g id="money">
	</g>
	<g id="sunglass">
		<g>
			<path fill="#1B2736" d="M74,254.024l53.119-116.656c2.097-4.605,8.238-5.528,11.596-1.743l20.087,22.643
				c1.32,1.488,2.048,3.407,2.048,5.396v0c0,4.142-4.817,6.419-8.018,3.79l-12.438-10.217c-1.623-1.333-4.071-0.743-4.908,1.183
				L88.49,266.538L74,254.024z"/>
			<path fill="#1B2736" d="M74,254.024l53.119-116.656c2.097-4.605,8.238-5.528,11.596-1.743l20.087,22.643
				c1.32,1.488,2.048,3.407,2.048,5.396v0c0,4.142-4.817,6.419-8.018,3.79l-12.438-10.217c-1.623-1.333-4.071-0.743-4.908,1.183
				L88.49,266.538L74,254.024z"/>
			<path fill="#1B2736" d="M438,254.024l-53.119-116.656c-2.097-4.605-8.238-5.528-11.596-1.743l-20.087,22.643
				c-1.32,1.488-2.048,3.407-2.048,5.396v0c0,4.142,4.817,6.419,8.018,3.79l12.438-10.217c1.623-1.333,4.071-0.743,4.908,1.183
				l46.996,108.119L438,254.024z"/>
			<g>
				<path fill="#2D415A" d="M74,250.424c0,0,22.238-13.141,57.112-12.636c34.874,0.506,78.846-1.011,107.654,20.722
					c0,0,8.087,5.054,17.185,4.044c8.087,1.011,17.185-4.044,17.185-4.044c28.809-21.733,72.829-20.216,107.703-20.722
					C415.713,237.282,438,250.424,438,250.424v22.744l-9.146,16.679c0,0,0.784-0.027,0.481,3.033
					c-9.603,97.041-41.963,85.416-98.064,85.416s-61.161-80.362-63.183-86.427c-2.022-6.065-12.133-8.086-12.133-8.086
					s-10.11,2.021-12.132,8.086c-2.022,6.065-7.076,86.427-63.178,86.427s-88.449,11.625-98.052-85.416
					c-0.303-3.059,0.505-3.033,0.505-3.033L74,273.168V250.424z"/>
				<path fill="#2D415A" d="M438,250.424c0,0-22.287-13.141-57.161-12.636c-34.874,0.506-78.87-1.011-107.679,20.722
					c0,0-8.099,5.054-17.197,4.044c-8.087,1.011-17.191-4.044-17.191-4.044c-28.809-21.733-72.784-20.216-107.658-20.722
					C96.241,237.282,74,250.424,74,250.424v22.744l9.098,16.679c0,0-0.808-0.027-0.506,3.033
					c9.603,97.041,41.95,85.416,98.052,85.416s61.155-80.362,63.177-86.427c2.022-6.065,12.13-8.086,12.13-8.086
					s10.108,2.021,12.13,8.086c2.022,6.065,7.076,86.427,63.177,86.427s88.449,11.625,98.052-85.416
					c0.303-3.059-0.457-3.033-0.457-3.033L438,273.168V250.424z"/>
				<ellipse fill="#FFFFFF" cx="91.656" cy="261.038" rx="11.591" ry="4.549"/>
				<ellipse fill="#FFFFFF" cx="420.247" cy="261.038" rx="11.591" ry="4.549"/>
				<g>
					<path fill="#FFD161" d="M139.705,302.987c17.832,20.475,61.98,9.968,90.448,0.224c0.62-9.072-0.24-17.371-2-23.474
						c-7.581-26.281-69.242-25.776-69.242-25.776c-66.715-3.033-61.156,33.358-61.156,33.358s-0.277,2.161-0.446,5.727
						C111.474,288.921,127.581,289.068,139.705,302.987z"/>
					<path fill="#FFB561" d="M139.705,302.987c-12.123-13.919-28.231-14.066-42.396-9.941c-0.429,9.091-0.128,27.494,7.376,43.854
						c23.549,9.468,80.632,4.202,115.807-0.319c6.049-10.661,8.922-22.561,9.661-33.37
						C201.685,312.956,157.537,323.462,139.705,302.987z"/>
					<path fill="#FF6650" d="M104.685,336.9c7.239,15.782,21.177,29.631,47.655,31.286c36.67,2.292,57.411-12.676,68.152-31.605
						C185.317,341.102,128.234,346.369,104.685,336.9z"/>
				</g>
				<g>
					<path fill="#FFD161" d="M372.19,302.987c-17.832,20.475-61.98,9.968-90.448,0.224c-0.62-9.072,0.24-17.371,2-23.474
						c7.581-26.281,69.242-25.776,69.242-25.776c66.715-3.033,61.156,33.358,61.156,33.358s0.277,2.161,0.446,5.727
						C400.421,288.921,384.314,289.068,372.19,302.987z"/>
					<path fill="#FFB561" d="M372.19,302.987c12.123-13.919,28.231-14.066,42.396-9.941c0.429,9.091,0.128,27.494-7.376,43.854
						c-23.549,9.468-80.632,4.202-115.807-0.319c-6.049-10.661-8.922-22.561-9.661-33.37
						C310.21,312.956,354.358,323.462,372.19,302.987z"/>
					<path fill="#FF6650" d="M407.21,336.9c-7.238,15.782-21.177,29.631-47.655,31.286c-36.67,2.292-57.411-12.676-68.152-31.605
						C326.578,341.102,383.661,346.369,407.21,336.9z"/>
				</g>
			</g>
		</g>
	</g>
	<g id="cocktail">
	</g>
	<g id="compass">
	</g>
	<g id="tent">
	</g>
	<g id="backpack">
	</g>
	<g id="map">
	</g>
	<g id="ticket_1_">
	</g>
	<g id="passport">
	</g>
	<g id="luggage">
	</g>
	<g id="globe">
	</g>
	<g id="suitcase">
	</g>
</g>
<g id="vehicles">
	<g id="trailer">
	</g>
	<g id="airplane">
	</g>
	<g id="yatch">
	</g>
	<g id="taxi">
	</g>
	<g id="hot_air_ballon">
	</g>
	<g id="bus">
	</g>
	<g id="train">
	</g>
</g>
<g id="summer">
	<g id="postcard">
	</g>
	<g id="bikini">
	</g>
	<g id="flipflop">
	</g>
	<g id="plane_around_the_globe">
	</g>
	<g id="binocular">
	</g>
	<g id="beach_table">
	</g>
	<g id="sun_hat">
	</g>
	<g id="beach_bag">
	</g>
	<g id="sea__x26__wave">
	</g>
	<g id="beach">
	</g>
	<g id="beach_ball">
	</g>
	<g id="jetski">
	</g>
	<g id="sandcastle">
	</g>
	<g id="lifeguard_male">
	</g>
	<g id="lifeguard_female">
	</g>
	<g id="lighthouse">
	</g>
	<g id="hammok">
	</g>
	<g id="beach_chair__x26__umbrella">
	</g>
	<g id="lifeguard">
	</g>
	<g id="suncream">
	</g>
	<g id="starfish">
	</g>
	<g id="beach_bar">
	</g>
	<g id="bucket__x26__shovel">
	</g>
	<g id="palm_tree">
	</g>
	<g id="shark_warning">
	</g>
	<g id="surfboard">
	</g>
	<g id="swimming_trunks">
	</g>
	<g id="coconut_drink">
	</g>
	<g id="beach_chair__x26__towel">
	</g>
	<g id="coconut_tree">
	</g>
</g>
</svg>
