<?xml version="1.0" encoding="iso-8859-1"?>
<!-- Generator: Adobe Illustrator 19.0.0, SVG Export Plug-In . SVG Version: 6.00 Build 0)  -->
<svg version="1.1" id="Layer_1" xmlns="http://www.w3.org/2000/svg" xmlns:xlink="http://www.w3.org/1999/xlink" x="0px" y="0px"
	 viewBox="0 0 512 512" style="enable-background:new 0 0 512 512;" xml:space="preserve">
<path style="fill:#5A968A;" d="M331.217,499.696l-37.49-28.117l-37.49,28.117c-2.837,2.128-6.92,0.983-8.237-2.31l0,0
	c-53.567-133.919-52.09-283.573,4.109-416.408l26.64-62.967c2.546-6.017,8.445-9.927,14.978-9.927l0,0
	c6.533,0,12.434,3.91,14.978,9.927l26.64,62.967c56.199,132.835,57.676,282.489,4.109,416.408l0,0
	C338.137,500.679,334.054,501.825,331.217,499.696z"/>
<path style="fill:#518279;" d="M339.454,497.386L339.454,497.386c-1.317,3.293-5.4,4.438-8.237,2.31l-37.49-28.117V8.084
	c6.534,0,12.434,3.91,14.978,9.927l26.64,62.967C391.545,213.814,393.022,363.467,339.454,497.386z"/>
<path style="fill:#65A599;" d="M378.563,298.404c-41.524,44.028-99.334,72.525-163.808,75.839
	c-2.102-14.212-3.639-28.487-4.614-42.789c-1.113-16.339-1.493-32.714-1.139-49.075c67.169-43.127,111.672-118.481,111.672-204.231
	c0-13.427-1.109-26.595-3.208-39.429l17.879,42.26C364.72,150.408,379.134,224.433,378.563,298.404z"/>
<path style="fill:#79B7AC;" d="M294.416,355.983c-24.968,9.946-51.978,16.021-80.255,17.438
	c-2.136-14.086-3.698-28.234-4.689-42.409c-1.132-16.193-1.517-32.424-1.159-48.64c36.351-22.762,66.167-54.582,86.102-92.193
	V355.983z"/>
<path d="M301.811,397.204c0,4.466-3.618,8.084-8.084,8.084c-4.466,0-8.084-3.618-8.084-8.084v-1.078
	c0-4.466,3.618-8.084,8.084-8.084c4.466,0,8.084,3.618,8.084,8.084V397.204z M409.6,503.916c0,4.466-3.618,8.084-8.084,8.084H153.6
	c-4.465,0-8.084-3.618-8.084-8.084s3.62-8.084,8.084-8.084h85.102c-25.845-66.27-38.597-135.931-37.896-207.136
	c0.719-72.837,15.474-143.784,43.856-210.867l26.64-62.966C275.122,5.834,283.924,0,293.726,0s18.604,5.834,22.425,14.861
	l26.64,62.966c28.382,67.084,43.137,138.031,43.856,210.869c0.702,71.205-12.05,140.865-37.896,207.136h52.764
	C405.982,495.832,409.6,499.45,409.6,503.916z M301.811,428.463v39.074l31.434,23.576c22.055-56.167,34.375-114.591,36.994-173.25
	c-40.564,36.787-91.613,59.118-146.308,63.833c6.162,37.039,16.247,73.684,30.277,109.417l31.435-23.576v-39.074
	c0-4.466,3.618-8.084,8.084-8.084C298.192,420.379,301.811,423.997,301.811,428.463z M328.638,85.902
	c-2.475,81.406-43.838,155.86-111.912,201.086c-0.351,26.267,1.246,52.557,4.785,78.691c56.806-4.649,109.47-29.612,149.258-70.84
	C370.867,223.967,356.809,153.139,328.638,85.902z M217.383,266.783c59.889-44.176,95.206-113.597,95.206-188.636
	c0-12.398-1-24.909-2.96-37.205l-8.369-19.782c-1.284-3.033-4.242-4.993-7.534-4.993c-3.293,0-6.251,1.96-7.533,4.994l-26.64,62.965
	C234.635,143.024,220.574,204.708,217.383,266.783z M274.863,495.832h37.726l-18.863-14.147L274.863,495.832z M122.341,495.832
	h-1.078c-4.465,0-8.084,3.618-8.084,8.084s3.62,8.084,8.084,8.084h1.078c4.465,0,8.084-3.618,8.084-8.084
	S126.806,495.832,122.341,495.832z M433.853,495.832h-1.078c-4.466,0-8.084,3.618-8.084,8.084s3.618,8.084,8.084,8.084h1.078
	c4.466,0,8.084-3.618,8.084-8.084S438.318,495.832,433.853,495.832z M79.225,495.832h-1.078c-4.465,0-8.084,3.618-8.084,8.084
	S73.683,512,78.147,512h1.078c4.465,0,8.084-3.618,8.084-8.084S83.69,495.832,79.225,495.832z"/>
<g>
</g>
<g>
</g>
<g>
</g>
<g>
</g>
<g>
</g>
<g>
</g>
<g>
</g>
<g>
</g>
<g>
</g>
<g>
</g>
<g>
</g>
<g>
</g>
<g>
</g>
<g>
</g>
<g>
</g>
</svg>
