<?xml version="1.0" encoding="iso-8859-1"?>
<!-- Generator: Adobe Illustrator 19.0.0, SVG Export Plug-In . SVG Version: 6.00 Build 0)  -->
<svg version="1.1" id="Layer_1" xmlns="http://www.w3.org/2000/svg" xmlns:xlink="http://www.w3.org/1999/xlink" x="0px" y="0px"
	 viewBox="0 0 512 512" style="enable-background:new 0 0 512 512;" xml:space="preserve">
<path style="fill:#AEE5DF;" d="M471.579,234.442H40.421V40.421h431.158V234.442z"/>
<path style="fill:#91CEC5;" d="M471.579,169.768H40.421V40.421h431.158V169.768z"/>
<path style="fill:#66A397;" d="M471.579,169.768H40.421v-64.674h431.158V169.768z"/>
<path style="fill:#5A968A;" d="M184.14,234.442h-71.86V40.421h71.86V234.442z M327.86,40.421H256v194.021h71.86V40.421z
	 M471.579,40.421h-71.86v194.021h71.86V40.421z"/>
<path style="fill:#46756C;" d="M184.14,169.768h-71.86v-64.674h71.86V169.768z M327.86,105.095H256v64.674h71.86V105.095z
	 M471.579,105.095h-71.86v64.674h71.86V105.095z"/>
<path d="M503.916,495.832h-24.253V8.084c0-4.465-3.618-8.084-8.084-8.084s-8.084,3.62-8.084,8.084v24.253H48.505V8.084
	C48.505,3.62,44.887,0,40.421,0s-8.084,3.62-8.084,8.084v487.747H8.084c-4.466,0-8.084,3.62-8.084,8.084S3.618,512,8.084,512
	h495.832c4.466,0,8.084-3.62,8.084-8.084S508.382,495.832,503.916,495.832z M335.944,226.358v-48.505h55.691v48.505H335.944z
	 M407.803,177.853h55.692v48.505h-55.692V177.853z M463.495,97.011h-45.811c-4.466,0-8.084,3.62-8.084,8.084
	s3.618,8.084,8.084,8.084h45.811v48.505h-55.692v-24.253c0-4.465-3.618-8.084-8.084-8.084s-8.084,3.62-8.084,8.084v24.253h-55.691
	v-24.253c0-4.465-3.618-8.084-8.084-8.084s-8.084,3.62-8.084,8.084v24.253h-42.218c-4.466,0-8.084,3.62-8.084,8.084
	c0,4.465,3.618,8.084,8.084,8.084h42.218v48.505h-55.692v-24.253c0-4.465-3.618-8.084-8.084-8.084s-8.084,3.62-8.084,8.084v24.253
	h-55.692v-24.253c0-4.465-3.618-8.084-8.084-8.084c-4.466,0-8.084,3.62-8.084,8.084v24.253H48.505v-48.505h55.692v13.474
	c0,4.465,3.618,8.084,8.084,8.084c4.466,0,8.084-3.62,8.084-8.084v-13.474h49.403c4.466,0,8.084-3.62,8.084-8.084
	c0-4.465-3.618-8.084-8.084-8.084h-49.403V48.505h55.691v48.505h-27.845c-4.466,0-8.084,3.62-8.084,8.084s3.618,8.084,8.084,8.084
	h27.845v24.253c0,4.465,3.618,8.084,8.084,8.084c4.466,0,8.084-3.62,8.084-8.084v-24.253h55.692v24.253
	c0,4.465,3.618,8.084,8.084,8.084s8.084-3.62,8.084-8.084V48.505h55.692v24.253c0,4.465,3.618,8.084,8.084,8.084
	s8.084-3.62,8.084-8.084V48.505h55.691v24.253c0,4.465,3.618,8.084,8.084,8.084s8.084-3.62,8.084-8.084V48.505h55.692V97.011z
	 M247.916,97.011h-55.692V48.505h55.692V97.011z M104.197,48.505v113.179H48.505V48.505H104.197z M48.505,242.526h414.989v253.305
	H48.505V242.526z M254.383,169.768c0,4.465-3.618,8.084-8.084,8.084h-1.078c-4.466,0-8.084-3.62-8.084-8.084
	c0-4.465,3.618-8.084,8.084-8.084h1.078C250.765,161.684,254.383,165.304,254.383,169.768z M211.267,169.768
	c0,4.465-3.618,8.084-8.084,8.084h-1.078c-4.466,0-8.084-3.62-8.084-8.084c0-4.465,3.618-8.084,8.084-8.084h1.078
	C207.649,161.684,211.267,165.304,211.267,169.768z M302.349,105.095c0,4.465-3.618,8.084-8.084,8.084h-1.078
	c-4.466,0-8.084-3.62-8.084-8.084s3.618-8.084,8.084-8.084h1.078C298.731,97.011,302.349,100.63,302.349,105.095z M64.674,105.095
	c0-4.465,3.618-8.084,8.084-8.084h1.078c4.466,0,8.084,3.62,8.084,8.084s-3.618,8.084-8.084,8.084h-1.078
	C68.292,113.179,64.674,109.559,64.674,105.095z M339.537,105.095c0,4.465-3.618,8.084-8.084,8.084h-1.078
	c-4.466,0-8.084-3.62-8.084-8.084s3.618-8.084,8.084-8.084h1.078C335.918,97.011,339.537,100.63,339.537,105.095z M393.432,105.095
	c0,4.465-3.618,8.084-8.084,8.084h-1.078c-4.466,0-8.084-3.62-8.084-8.084s3.618-8.084,8.084-8.084h1.078
	C389.813,97.011,393.432,100.63,393.432,105.095z"/>
<g>
</g>
<g>
</g>
<g>
</g>
<g>
</g>
<g>
</g>
<g>
</g>
<g>
</g>
<g>
</g>
<g>
</g>
<g>
</g>
<g>
</g>
<g>
</g>
<g>
</g>
<g>
</g>
<g>
</g>
</svg>
