<?xml version="1.0" encoding="iso-8859-1"?>
<!-- Generator: Adobe Illustrator 19.0.0, SVG Export Plug-In . SVG Version: 6.00 Build 0)  -->
<svg version="1.1" id="Layer_1" xmlns="http://www.w3.org/2000/svg" xmlns:xlink="http://www.w3.org/1999/xlink" x="0px" y="0px"
	 viewBox="0 0 512 512" style="enable-background:new 0 0 512 512;" xml:space="preserve">
<path style="fill:#868686;" d="M482.28,243.436H137.509c-11.948,0-21.636-9.686-21.636-21.636v-0.155
	c0-11.948,9.686-21.636,21.636-21.636h344.772c11.948,0,21.635,9.686,21.635,21.636v0.155
	C503.916,233.75,494.23,243.436,482.28,243.436z"/>
<path style="fill:#636363;" d="M501.479,211.716c1.549,2.997,2.437,6.394,2.437,10.006l0,0c0,11.992-9.651,21.713-21.558,21.713
	H137.432c-11.906,0-21.558-9.722-21.558-21.713l0,0c0-3.612,0.888-7.01,2.438-10.006c3.594,6.951,10.801,11.707,19.12,11.707
	h344.926C490.678,223.423,497.884,218.669,501.479,211.716z"/>
<path style="fill:#004859;" d="M482.28,167.441h-21.404c-11.948,0-21.635-9.686-21.635-21.636v-0.155
	c0-11.948,9.686-21.635,21.635-21.635h21.404c11.948,0,21.635,9.686,21.635,21.635v0.155
	C503.916,157.755,494.23,167.441,482.28,167.441z"/>
<path style="fill:#002E35;" d="M503.865,146.742c-0.529,11.517-9.94,20.699-21.507,20.699H460.8
	c-11.906,0-21.558-9.722-21.558-21.713l0,0c0-8.071,4.383-15.099,10.872-18.842c0.938,11.12,10.182,19.855,21.465,19.855h32.286
	V146.742z"/>
<path style="fill:#BF4D00;" d="M343.731,295.982l-98.236,29.053c-10.907,3.226-21.832-5.01-21.832-16.461l0,0
	c0-18.292-14.972-33.061-33.246-32.557c-17.613,0.486-31.428,15.487-31.428,33.234v28.524c0,7.613-4.981,14.316-12.234,16.461
	L35.837,387.039c-13.832,4.18-27.753-6.252-27.753-20.797v-79.382c0-11.992,9.651-21.713,21.558-21.713h75.453
	c11.911,0,21.565-9.729,21.558-21.727c-0.004-5.965,5.119-10.841,11.042-10.841H310.73c13.098,0,25.486,5.996,33.668,16.298
	l10.093,12.707C364.069,273.641,358.441,291.631,343.731,295.982z"/>
<path style="fill:#A83800;" d="M158.997,308.947c-0.001,0.102-0.008,0.203-0.008,0.305v28.524c0,7.613-4.981,14.316-12.234,16.461
	L35.837,387.039c-13.832,4.18-27.753-6.252-27.753-20.797v-79.382c0-11.992,9.651-21.713,21.558-21.713h15.341v48.513
	c0,14.544,13.921,24.976,27.753,20.797L158.997,308.947z M347.767,253.119l-129.038,38.163c3.125,5.011,4.935,10.938,4.935,17.293
	c0,11.449,10.924,19.686,21.832,16.461l98.236-29.052c14.71-4.35,20.338-22.339,10.761-34.397L347.767,253.119z"/>
<path style="fill:#4F2000;" d="M83.537,319.43c0,11.992-9.651,21.713-21.558,21.713s-21.558-9.722-21.558-21.713
	s9.651-21.713,21.558-21.713S83.537,307.439,83.537,319.43z"/>
<path d="M482.358,191.868h-2.695v-16.285h2.695c16.345,0,29.642-13.394,29.642-29.856s-13.297-29.854-29.642-29.854H460.8
	c-16.345,0-29.642,13.394-29.642,29.856s13.297,29.856,29.642,29.856h2.695v16.285H137.432c-16.345,0-29.642,13.394-29.642,29.856
	c0,8.97,4.008,17.353,10.719,22.968c-0.285,3.15-1.636,6.073-3.883,8.338c-2.545,2.565-5.929,3.977-9.531,3.977H29.642
	C13.297,257.007,0,270.401,0,286.863v79.38c0,9.532,4.355,18.263,11.947,23.953c5.216,3.908,11.357,5.931,17.614,5.931
	c2.852,0,5.729-0.419,8.553-1.273l110.918-32.805c10.622-3.141,18.041-13.122,18.041-24.272v-28.524
	c0-13.478,10.572-24.736,23.565-25.094c6.625-0.175,12.867,2.271,17.598,6.908c4.735,4.639,7.343,10.858,7.343,17.509
	c0,0.102,0.008,0.205,0.009,0.307l-21.473-7.949c-4.192-1.554-8.837,0.613-10.377,4.832c-1.54,4.222,0.608,8.9,4.799,10.451
	l42.926,15.891c5.136,2.062,10.822,2.36,16.309,0.741l98.236-29.054c9.499-2.809,16.946-10.163,19.921-19.674
	c2.975-9.51,1.059-19.837-5.125-27.622l-3.907-4.92h125.464c16.345,0,29.642-13.394,29.642-29.856S498.703,191.868,482.358,191.868z
	 M447.326,145.729c0-7.483,6.044-13.571,13.474-13.571h21.558c7.43,0,13.474,6.088,13.474,13.571
	c0,7.483-6.044,13.571-13.474,13.571H460.8C453.37,159.298,447.326,153.211,447.326,145.729z M350.509,279.227
	c-1.372,4.387-4.673,7.647-9.055,8.942l-98.236,29.054c-2.732,0.807-5.606,0.286-7.884-1.434c-2.279-1.717-3.586-4.348-3.586-7.214
	c0-11.085-4.345-21.449-12.235-29.181c-7.888-7.73-18.292-11.835-29.317-11.515c-21.665,0.597-39.29,19.158-39.29,41.373v28.524
	c0,3.972-2.643,7.527-6.427,8.647L33.514,379.242c-4.121,1.246-8.464,0.475-11.915-2.111c-3.451-2.587-5.432-6.555-5.432-10.888
	v-79.38c0-7.483,6.044-13.571,13.474-13.571h75.453c7.921,0,15.368-3.108,20.967-8.75c5.6-5.644,8.68-13.145,8.675-21.125
	c0-0.199,0.032-0.385,0.08-0.559c0.006-0.024,0.012-0.046,0.018-0.069c0.165-0.539,0.503-0.943,0.731-1.165
	c0.589-0.572,1.364-0.9,2.129-0.9h173.036c10.7,0,20.671,4.827,27.355,13.243l10.093,12.706
	C351.031,270.263,351.881,274.839,350.509,279.227z M482.358,235.293H342.232c-0.022,0-0.041,0.003-0.063,0.003
	c-8.889-6.989-19.869-10.86-31.439-10.86H137.695c-4.333,0-8.481,1.47-11.874,4.167c-1.199-2.052-1.863-4.419-1.863-6.881
	c0-7.483,6.044-13.571,13.474-13.571h344.926c7.43,0,13.474,6.088,13.474,13.571C495.832,229.205,489.788,235.293,482.358,235.293z
	 M61.979,289.575c-16.345,0-29.642,13.394-29.642,29.856c0,16.462,13.297,29.855,29.642,29.855s29.642-13.394,29.642-29.855
	C91.621,302.969,78.324,289.575,61.979,289.575z M61.979,333.001c-7.43,0-13.474-6.088-13.474-13.571s6.044-13.571,13.474-13.571
	c7.43,0,13.474,6.088,13.474,13.571S69.409,333.001,61.979,333.001z"/>
<g>
</g>
<g>
</g>
<g>
</g>
<g>
</g>
<g>
</g>
<g>
</g>
<g>
</g>
<g>
</g>
<g>
</g>
<g>
</g>
<g>
</g>
<g>
</g>
<g>
</g>
<g>
</g>
<g>
</g>
</svg>
