<?xml version="1.0" encoding="iso-8859-1"?>
<!-- Generator: Adobe Illustrator 19.0.0, SVG Export Plug-In . SVG Version: 6.00 Build 0)  -->
<svg version="1.1" id="Layer_1" xmlns="http://www.w3.org/2000/svg" xmlns:xlink="http://www.w3.org/1999/xlink" x="0px" y="0px"
	 viewBox="0 0 512 512" style="enable-background:new 0 0 512 512;" xml:space="preserve">
<path style="fill:#2074B3;" d="M503.916,320.674v10.779c0,35.718-28.956,64.674-64.674,64.674H191.326v-97.011h291.032
	C494.264,299.116,503.916,308.767,503.916,320.674z"/>
<path style="fill:#007DBC;" d="M406.905,207.495v92.772c0,9.958-6.812,18.629-16.493,20.963
	c-56.029,13.508-117.89,21.002-182.918,21.002c-1.802,0-3.592-0.031-5.389-0.043v64.717c0,53.578-43.433,97.011-97.011,97.011l0,0
	c-53.578,0-97.011-43.433-97.011-97.011v-89.869v-93.373v-16.168C8.084,97.363,97.363,8.084,207.495,8.084l0,0
	C317.626,8.084,406.905,97.363,406.905,207.495z"/>
<path style="fill:#009DD5;" d="M202.105,395.439v11.467c0,53.578-43.433,97.011-97.011,97.011l0,0
	c-53.578,0-97.011-43.433-97.011-97.011v-11.467c23.702,26.858,58.374,43.803,97.011,43.803S178.403,422.297,202.105,395.439z
	 M207.495,8.084L207.495,8.084C97.363,8.084,8.084,97.363,8.084,207.495v16.168v21.558c0-53.578,43.433-97.011,97.011-97.011l0,0
	c53.578,0,97.011,43.433,97.011,97.011v96.967c1.798,0.012,3.587,0.043,5.389,0.043c65.027,0,126.889-7.494,182.918-21.002
	c9.681-2.334,16.493-11.005,16.493-20.963v-92.772C406.905,97.363,317.626,8.084,207.495,8.084z"/>
<path style="fill:#004859;" d="M158.989,406.905L158.989,406.905c0,29.765-24.13,53.895-53.895,53.895l0,0
	c-29.765,0-53.895-24.13-53.895-53.895l0,0c0-29.765,24.13-53.895,53.895-53.895l0,0C134.86,353.01,158.989,377.14,158.989,406.905z
	"/>
<path style="fill:#60AAD7;" d="M121.263,406.905c0,8.929-7.239,16.168-16.168,16.168s-16.168-7.239-16.168-16.168
	c0-8.929,7.239-16.168,16.168-16.168S121.263,397.976,121.263,406.905z"/>
<path style="fill:#FFFFFF;" d="M350.316,207.495c0,4.465-3.62,8.084-8.084,8.084s-8.084-3.62-8.084-8.084
	c0-56.461-37.906-106.592-92.179-121.907c-4.298-1.213-6.798-5.679-5.586-9.976s5.682-6.794,9.976-5.586
	c29.35,8.283,55.799,26.235,74.473,50.55C340.12,145.694,350.316,175.75,350.316,207.495z M209.776,64.692
	c-0.759-0.012-1.519-0.018-2.281-0.018c-4.465,0-8.084,3.62-8.084,8.084s3.62,8.084,8.084,8.084c0.678,0,1.355,0.005,2.031,0.016
	c0.043,0,0.085,0.001,0.127,0.001c4.406,0,8.013-3.538,8.081-7.959C217.803,68.436,214.239,64.761,209.776,64.692z"/>
<path d="M512,320.674v10.779c0,40.119-32.639,72.758-72.758,72.758H210.189v2.695c0,57.95-47.145,105.095-105.095,105.095
	S0,464.855,0,406.905V207.495C0,93.082,93.082,0,207.495,0s207.495,93.082,207.495,207.495v92.772
	c0,13.75-9.327,25.601-22.683,28.822c-37.181,8.964-76.389,15.174-116.537,18.458c-4.467,0.379-8.353-2.948-8.716-7.398
	c-0.364-4.45,2.947-8.353,7.398-8.716c39.317-3.216,77.695-9.294,114.065-18.062c6.066-1.463,10.305-6.851,10.305-13.104v-92.772
	c0-105.498-85.828-191.326-191.326-191.326S16.168,101.997,16.168,207.495v199.411c0,49.033,39.893,88.926,88.926,88.926
	s88.926-39.893,88.926-88.926V342.19c0-4.466,3.618-8.084,8.084-8.084s8.084,3.618,8.084,8.084v45.853h229.053
	c31.203,0,56.589-25.387,56.589-56.589v-10.779c0-7.43-6.044-13.474-13.474-13.474h-43.116c-4.466,0-8.084-3.618-8.084-8.084
	s3.618-8.084,8.084-8.084h43.116C498.702,291.032,512,304.33,512,320.674z M244.864,333.309c-4.46,0.2-7.914,3.977-7.713,8.438
	c0.194,4.336,3.772,7.722,8.069,7.722c0.122,0,0.246-0.002,0.369-0.009l1.425-0.066c4.46-0.209,7.904-3.996,7.694-8.456
	c-0.209-4.46-3.998-7.903-8.456-7.694L244.864,333.309z M105.095,344.926c34.176,0,61.979,27.803,61.979,61.979
	s-27.803,61.979-61.979,61.979s-61.979-27.803-61.979-61.979S70.919,344.926,105.095,344.926z M105.095,361.095
	c-25.26,0-45.811,20.55-45.811,45.811s20.55,45.811,45.811,45.811s45.811-20.55,45.811-45.811S130.355,361.095,105.095,361.095z
	 M105.095,382.653c13.372,0,24.253,10.88,24.253,24.253s-10.88,24.253-24.253,24.253s-24.253-10.88-24.253-24.253
	S91.722,382.653,105.095,382.653z M105.095,398.821c-4.458,0-8.084,3.626-8.084,8.084s3.626,8.084,8.084,8.084
	s8.084-3.626,8.084-8.084S109.553,398.821,105.095,398.821z"/>
<g>
</g>
<g>
</g>
<g>
</g>
<g>
</g>
<g>
</g>
<g>
</g>
<g>
</g>
<g>
</g>
<g>
</g>
<g>
</g>
<g>
</g>
<g>
</g>
<g>
</g>
<g>
</g>
<g>
</g>
</svg>
