<?xml version="1.0" encoding="iso-8859-1"?>
<!-- Generator: Adobe Illustrator 19.0.0, SVG Export Plug-In . SVG Version: 6.00 Build 0)  -->
<svg version="1.1" id="Layer_1" xmlns="http://www.w3.org/2000/svg" xmlns:xlink="http://www.w3.org/1999/xlink" x="0px" y="0px"
	 viewBox="0 0 512 512" style="enable-background:new 0 0 512 512;" xml:space="preserve">
<path style="fill:#004859;" d="M322.43,503.916h-59.452c-24.808,0-44.498-20.883-43.041-45.648l2.987-21.773
	c10.56-76.989,12.763-154.893,6.572-232.355l-9.643-120.648C218.43,42.273,251.46,8.084,292.704,8.084l0,0
	c41.243,0,74.273,34.189,72.853,75.407l-9.643,120.648c-6.191,77.462-3.988,155.367,6.572,232.355l2.987,21.773
	C366.928,483.033,347.237,503.916,322.43,503.916z"/>
<path style="fill:#002E35;" d="M319.652,320.674v26.947c0,14.883-12.065,26.947-26.947,26.947l0,0
	c-14.882,0-26.947-12.065-26.947-26.947v-26.947l10.779-21.558v-26.947c0-2.976-2.413-5.389-5.389-5.389l0,0
	c-2.976,0-5.389-2.413-5.389-5.389v-75.453c0-14.882,12.065-26.947,26.947-26.947l0,0c14.883,0,26.947,12.065,26.947,26.947v75.453
	c0,2.976-2.413,5.389-5.389,5.389l0,0c-2.976,0-5.389,2.413-5.389,5.389v26.947L319.652,320.674z"/>
<path style="fill:#5A968A;" d="M319.586,78.843l-86.232,75.453c-1.534,1.342-3.431,1.999-5.32,1.999
	c-0.808,0-1.616-0.125-2.392-0.364l-1.223-15.302l84.52-73.954c3.361-2.939,8.467-2.599,11.407,0.761
	C323.287,70.795,322.946,75.902,319.586,78.843z M355.154,365.67l-77.059,67.427c-3.36,2.94-3.7,8.048-0.761,11.407
	c1.599,1.826,3.837,2.76,6.087,2.76c1.89,0,3.787-0.659,5.32-2l68.027-59.523C356.174,379.056,355.625,372.365,355.154,365.67z
	 M332.048,64.494c2.068,0,4.138-0.789,5.716-2.368l1.078-1.078c3.157-3.157,3.157-8.276,0-11.432c-3.157-3.157-8.276-3.157-11.432,0
	l-1.078,1.078c-3.157,3.157-3.157,8.276,0,11.432C327.91,63.705,329.978,64.494,332.048,64.494z"/>
<path style="fill:#007DBC;" d="M249.022,503.916h-59.452c-24.808,0-44.498-20.883-43.041-45.648l2.987-21.773
	c10.56-76.989,12.763-154.893,6.572-232.355l-9.643-120.648c-1.422-41.219,31.608-75.407,72.852-75.407l0,0
	c41.243,0,74.273,34.189,72.853,75.407l-9.643,120.648c-6.191,77.462-3.988,155.367,6.572,232.355l2.987,21.773
	C293.52,483.033,273.829,503.916,249.022,503.916z"/>
<path style="fill:#266DAD;" d="M282.505,204.139c-6.191,77.462-3.988,155.367,6.572,232.355l2.987,21.773
	c1.456,24.765-18.234,45.648-43.041,45.648h-59.453c-0.877,0-1.746-0.033-2.611-0.084c23.562-1.405,41.836-21.674,40.431-45.564
	l-2.987-21.773c-10.56-76.989-12.763-154.893-6.572-232.355l9.643-120.648c1.021-29.598-15.723-55.569-40.516-67.862
	c9.734-4.827,20.709-7.545,32.337-7.545l0,0c41.243,0,74.273,34.189,72.853,75.407L282.505,204.139z"/>
<path style="fill:#004859;" d="M246.243,320.674v26.947c0,14.883-12.065,26.947-26.947,26.947l0,0
	c-14.882,0-26.947-12.065-26.947-26.947v-26.947l10.779-21.558v-26.947c0-2.976-2.413-5.389-5.389-5.389l0,0
	c-2.976,0-5.389-2.413-5.389-5.389v-75.453c0-14.882,12.065-26.947,26.947-26.947l0,0c14.883,0,26.947,12.065,26.947,26.947v75.453
	c0,2.976-2.413,5.389-5.389,5.389l0,0c-2.976,0-5.389,2.413-5.389,5.389v26.947L246.243,320.674z"/>
<g>
	<path style="fill:#84C1B6;" d="M283.419,386.383l-80.383,69.744c-1.53,1.327-3.416,1.978-5.295,1.978
		c-2.262,0-4.511-0.943-6.109-2.786c-2.925-3.372-2.564-8.478,0.808-11.404l89.36-77.532
		C282.274,373.054,282.821,379.721,283.419,386.383z M173.76,461.299l-1.078,1.078c-3.157,3.157-3.157,8.276,0,11.432
		c1.578,1.578,3.648,2.368,5.716,2.368c2.068,0,4.138-0.789,5.716-2.368l1.078-1.078c3.157-3.157,3.157-8.276,0-11.432
		C182.035,458.143,176.916,458.143,173.76,461.299z M246.942,67.441c-2.936-3.363-8.043-3.708-11.406-0.772l-84.537,73.824
		l1.604,20.064l93.568-81.71C249.534,75.911,249.88,70.804,246.942,67.441z M258.639,64.494c2.068,0,4.138-0.789,5.716-2.368
		l1.078-1.078c3.157-3.157,3.157-8.276,0-11.432c-3.157-3.157-8.276-3.157-11.432,0l-1.078,1.078c-3.157,3.157-3.157,8.276,0,11.432
		C254.501,63.705,256.57,64.494,258.639,64.494z"/>
	<path style="fill:#84C1B6;" d="M72.758,29.642v64.674c0,5.953-4.826,10.779-10.779,10.779H40.421
		c-5.953,0-10.779-4.826-10.779-10.779V29.642c0-11.906,9.651-21.558,21.558-21.558l0,0C63.106,8.084,72.758,17.736,72.758,29.642z
		 M460.8,8.084L460.8,8.084c-11.906,0-21.558,9.651-21.558,21.558v64.674c0,5.953,4.826,10.779,10.779,10.779h21.558
		c5.953,0,10.779-4.826,10.779-10.779V29.642C482.358,17.736,472.706,8.084,460.8,8.084z"/>
</g>
<path style="fill:#5A968A;" d="M72.758,29.642v64.674c0,5.953-4.826,10.779-10.779,10.779H40.421
	c-5.953,0-10.779-4.826-10.779-10.779V83.537h10.779c5.953,0,10.779-4.826,10.779-10.779V8.084
	C63.106,8.084,72.758,17.736,72.758,29.642z M460.8,8.084v64.674c0,5.953-4.826,10.779-10.779,10.779h-10.779v10.779
	c0,5.953,4.826,10.779,10.779,10.779h21.558c5.953,0,10.779-4.826,10.779-10.779V29.642C482.358,17.736,472.706,8.084,460.8,8.084z"
	/>
<path style="fill:#266DAD;" d="M94.316,455.41L94.316,455.41c0,8.929-7.239,16.168-16.168,16.168H24.253
	c-8.929,0-16.168-7.239-16.168-16.168l0,0c0-8.929,7.239-16.168,16.168-16.168h53.895C87.077,439.242,94.316,446.481,94.316,455.41z
	 M487.747,439.242h-53.895c-8.929,0-16.168,7.239-16.168,16.168l0,0c0,8.929,7.239,16.168,16.168,16.168h53.895
	c8.929,0,16.168-7.239,16.168-16.168l0,0C503.916,446.481,496.677,439.242,487.747,439.242z"/>
<path style="fill:#007DBC;" d="M78.147,439.242c1.633,0,3.207,0.247,4.692,0.697c0.451,1.485,0.697,3.06,0.697,4.692
	c0,8.929-7.239,16.168-16.168,16.168H13.474c-1.633,0-3.207-0.247-4.692-0.697c-0.451-1.485-0.697-3.059-0.697-4.692
	c0-8.929,7.239-16.168,16.168-16.168H78.147z M433.853,439.242c-8.929,0-16.168,7.239-16.168,16.168
	c0,1.633,0.247,3.207,0.697,4.692c1.485,0.451,3.06,0.697,4.692,0.697h53.895c8.929,0,16.168-7.239,16.168-16.168
	c0-1.633-0.247-3.207-0.697-4.692c-1.485-0.451-3.06-0.697-4.692-0.697H433.853z"/>
<path d="M78.147,431.158H59.284V113.179h2.695c10.401,0,18.863-8.463,18.863-18.863V29.642C80.842,13.298,67.544,0,51.2,0
	S21.558,13.298,21.558,29.642v64.674c0,10.401,8.463,18.863,18.863,18.863h2.695v317.979H24.253C10.88,431.158,0,442.038,0,455.41
	c0,13.372,10.88,24.253,24.253,24.253h18.863v21.558c0,4.466,3.618,8.084,8.084,8.084s8.084-3.618,8.084-8.084v-21.558h18.863
	c13.372,0,24.253-10.88,24.253-24.253C102.4,442.038,91.52,431.158,78.147,431.158z M37.726,94.316V29.642
	c0-7.43,6.044-13.474,13.474-13.474s13.474,6.044,13.474,13.474v64.674c0,1.486-1.208,2.695-2.695,2.695H40.421
	C38.935,97.011,37.726,95.802,37.726,94.316z M78.147,463.495H24.253c-4.458,0-8.084-3.626-8.084-8.084
	c0-4.458,3.626-8.084,8.084-8.084h53.895c4.458,0,8.084,3.626,8.084,8.084C86.232,459.869,82.606,463.495,78.147,463.495z
	 M487.747,431.158h-18.863V113.179h2.695c10.401,0,18.863-8.463,18.863-18.863V29.642C490.442,13.298,477.144,0,460.8,0
	s-29.642,13.298-29.642,29.642v64.674c0,10.401,8.463,18.863,18.863,18.863h2.695v317.979h-18.863
	c-13.372,0-24.253,10.88-24.253,24.253c0,13.372,10.88,24.253,24.253,24.253h18.863v24.253c0,4.466,3.618,8.084,8.084,8.084
	s8.084-3.618,8.084-8.084v-24.253h18.863c13.372,0,24.253-10.88,24.253-24.253C512,442.038,501.12,431.158,487.747,431.158z
	 M447.326,94.316V29.642c0-7.43,6.044-13.474,13.474-13.474s13.474,6.044,13.474,13.474v64.674c0,1.486-1.208,2.695-2.695,2.695
	h-21.558C448.535,97.011,447.326,95.802,447.326,94.316z M487.747,463.495h-53.895c-4.458,0-8.084-3.626-8.084-8.084
	c0-4.458,3.626-8.084,8.084-8.084h53.895c4.458,0,8.084,3.626,8.084,8.084C495.832,459.869,492.206,463.495,487.747,463.495z
	 M350.944,24.714c15.397,15.937,23.456,36.91,22.692,59.057c-0.004,0.122-0.011,0.244-0.02,0.365l-9.643,120.648
	c-6.134,76.747-3.94,154.337,6.522,230.612l2.987,21.773c0.028,0.207,0.049,0.416,0.061,0.624
	c0.836,14.223-4.085,27.764-13.86,38.131C349.907,506.291,336.678,512,322.431,512h-21.159c-4.466,0-8.084-3.618-8.084-8.084
	s3.618-8.084,8.084-8.084h21.159c9.748,0,18.8-3.906,25.488-10.999c6.62-7.02,9.988-16.169,9.499-25.792l-2.942-21.447
	c-10.62-77.43-12.847-156.191-6.621-234.099l9.629-120.46c0.562-17.658-5.886-34.375-18.167-47.088
	c-12.325-12.754-28.878-19.778-46.612-19.778c-4.466,0-8.084-3.618-8.084-8.084S288.239,0,292.704,0
	C314.864,0,335.548,8.777,350.944,24.714z M300.133,457.794c-0.013-0.208-0.032-0.417-0.061-0.624l-2.987-21.773
	c-2.403-17.52-4.348-35.111-5.879-52.744h1.496c0.267,0,0.532-0.013,0.793-0.039c0.688-0.006,1.173-0.015,1.34-0.025
	c18.447-1.112,32.898-16.472,32.898-34.967v-26.947c0-1.255-0.292-2.493-0.854-3.615l-9.925-19.85v-22.614
	c6.142-1.253,10.779-6.697,10.779-13.203v-75.453c0-18.59-14.557-33.838-32.871-34.958l5.343-66.842
	c0.01-0.122,0.016-0.244,0.02-0.365c0.764-22.146-7.295-43.12-22.692-59.057S241.456,0,219.296,0s-42.843,8.777-58.24,24.714
	s-23.456,36.91-22.692,59.057c0.004,0.122,0.011,0.244,0.02,0.365l9.643,120.648c6.134,76.747,3.94,154.337-6.522,230.612
	l-2.987,21.773c-0.028,0.207-0.048,0.416-0.061,0.624c-0.836,14.223,4.085,27.764,13.86,38.131
	C162.091,506.292,175.321,512,189.568,512h59.452c14.248,0,27.477-5.708,37.252-16.076
	C296.048,485.558,300.971,472.017,300.133,457.794z M311.568,185.937v73.028c-6.142,1.253-10.779,6.697-10.779,13.203v26.947
	c0,1.255,0.292,2.493,0.854,3.615l9.925,19.851v25.039c0,9.923-7.719,18.169-17.59,18.821c-0.5,0.01-2.15,0.018-4.056,0.024
	c-3.848-53.814-3.652-107.954,0.643-161.683l3.011-37.665C303.571,167.577,311.568,175.829,311.568,185.937z M274.51,484.833
	c-6.687,7.093-15.739,10.999-25.488,10.999h-59.452c-9.748,0-18.8-3.906-25.488-10.999c-6.62-7.02-9.988-16.169-9.499-25.792
	l2.942-21.447c10.62-77.43,12.847-156.191,6.622-234.099l-9.629-120.458c-0.563-17.66,5.885-34.376,18.167-47.09
	c12.325-12.754,28.877-19.778,46.612-19.778s34.289,7.025,46.611,19.779c12.283,12.714,18.731,29.43,18.167,47.09l-9.629,120.458
	c-6.226,77.907-3.999,156.67,6.621,234.099l2.942,21.447C284.497,468.663,281.129,477.812,274.51,484.833z M219.296,150.905
	c-19.317,0-35.032,15.715-35.032,35.032v75.453c0,6.506,4.637,11.951,10.779,13.203v22.614l-9.925,19.851
	c-0.562,1.123-0.854,2.361-0.854,3.615v26.947c0,19.317,15.715,35.032,35.032,35.032s35.032-15.715,35.032-35.032v-26.947
	c0-1.255-0.292-2.493-0.854-3.615l-9.925-19.851v-22.614c6.142-1.253,10.779-6.697,10.779-13.203v-75.453
	C254.327,166.62,238.612,150.905,219.296,150.905z M238.159,258.965c-6.142,1.253-10.779,6.697-10.779,13.203v26.947
	c0,1.255,0.292,2.493,0.854,3.615l9.925,19.851v25.039c0,10.401-8.463,18.863-18.863,18.863s-18.863-8.463-18.863-18.863v-25.038
	l9.925-19.851c0.562-1.123,0.854-2.361,0.854-3.615v-26.947c0-6.506-4.637-11.951-10.779-13.203v-73.03
	c0-10.401,8.463-18.863,18.863-18.863s18.863,8.463,18.863,18.863L238.159,258.965L238.159,258.965z"/>
<g>
</g>
<g>
</g>
<g>
</g>
<g>
</g>
<g>
</g>
<g>
</g>
<g>
</g>
<g>
</g>
<g>
</g>
<g>
</g>
<g>
</g>
<g>
</g>
<g>
</g>
<g>
</g>
<g>
</g>
</svg>
