<?xml version="1.0" encoding="iso-8859-1"?>
<!-- Generator: Adobe Illustrator 19.0.0, SVG Export Plug-In . SVG Version: 6.00 Build 0)  -->
<svg version="1.1" id="Layer_1" xmlns="http://www.w3.org/2000/svg" xmlns:xlink="http://www.w3.org/1999/xlink" x="0px" y="0px"
	 viewBox="0 0 512 512" style="enable-background:new 0 0 512 512;" xml:space="preserve">
<path style="fill:#F7A246;" d="M503.916,308.893v21.758c0,18.026-14.477,32.638-32.337,32.638l-9.046,45.65
	c-1.008,5.085-5.432,8.746-10.57,8.746h-36.222c-5.138,0-9.562-3.661-10.57-8.746l-9.046-45.65h-53.895l-9.046,45.65
	c-1.008,5.085-5.432,8.746-10.57,8.746h-36.222c-5.138,0-9.562-3.661-10.57-8.746l-9.046-45.65H115.874l-9.046,45.65
	c-1.008,5.085-5.432,8.746-10.57,8.746H60.037c-5.138,0-9.562-3.661-10.57-8.746l-9.046-45.651
	c-17.86,0-32.337-14.612-32.337-32.638v-21.758h495.832V308.893z"/>
<path style="fill:#004859;" d="M503.916,319.773H8.084V148.274c0-7.427,5.965-13.448,13.324-13.448l0,0
	c5.047,0,9.66,2.878,11.917,7.433l3.414,6.891c2.257,4.556,6.871,7.433,11.917,7.433h61.166c3.846,0,7.504-1.677,10.034-4.6
	l45.931-53.068c2.53-2.923,6.188-4.6,10.034-4.6h10.077c3.479,0,6.822,1.374,9.311,3.829l122.813,121.101
	c1.734,1.711,3.899,2.91,6.259,3.471l146.393,34.765c19.477,4.625,33.24,22.166,33.24,42.36L503.916,319.773L503.916,319.773z"/>
<path style="fill:#659F00;" d="M135.976,133.358l29.81-34.442c2.53-2.923,6.188-4.6,10.034-4.6h10.077
	c3.479,0,6.822,1.374,9.311,3.829l122.813,121.101c1.734,1.711,3.899,2.91,6.259,3.471l82.624,19.622v1.279
	c0,12.016-9.651,21.758-21.558,21.758H284.639c-11.435,0-22.402-4.584-30.487-12.746L135.976,133.358z M128.848,221.86H8.084v97.913
	h226.358l-73.368-83.306C152.892,227.175,141.164,221.86,128.848,221.86z"/>
<path d="M472.544,249.618l-146.394-34.766c-0.922-0.219-1.769-0.69-2.45-1.362L200.885,92.387c-4.026-3.97-9.349-6.156-14.987-6.156
	H175.82c-6.195,0-12.08,2.695-16.147,7.394l-45.931,53.068c-0.994,1.148-2.423,1.807-3.921,1.807H48.656
	c-1.984,0-3.775-1.125-4.673-2.938l-3.414-6.891c-3.645-7.359-10.987-11.929-19.161-11.929C9.604,126.742,0,136.401,0,148.274
	v171.497v10.879c0,20.136,14.584,36.906,33.669,40.154l7.868,39.705c1.753,8.842,9.533,15.259,18.5,15.259h36.222
	c8.967,0,16.747-6.417,18.5-15.259l7.755-39.137h137.626l7.755,39.137c1.753,8.842,9.533,15.259,18.5,15.259h36.222
	c8.967,0,16.747-6.417,18.5-15.259l7.755-39.137h40.616l7.755,39.137c1.753,8.842,9.533,15.259,18.5,15.259h36.222
	c8.967,0,16.747-6.417,18.5-15.259l7.868-39.705C497.416,367.558,512,350.788,512,330.651v-10.879v-19.93
	C512,275.787,495.774,255.134,472.544,249.618z M171.899,104.207c0.994-1.148,2.423-1.807,3.921-1.807h10.078
	c1.362,0,2.653,0.534,3.635,1.5l23.165,22.842h-10.594c-4.465,0-8.084,3.62-8.084,8.084c0,4.465,3.62,8.084,8.084,8.084h26.989
	l16.702,16.469h-10.142c-4.465,0-8.084,3.62-8.084,8.084c0,4.465,3.62,8.084,8.084,8.084h26.539l16.702,16.469h-10.365
	c-4.465,0-8.084,3.62-8.084,8.084s3.62,8.084,8.084,8.084h26.762l17.054,16.816c2.787,2.749,6.269,4.678,10.068,5.58l75.5,17.93
	c-1.946,5.126-6.837,8.781-12.566,8.781h-100.71c-9.343,0-18.131-3.677-24.745-10.352L146.989,132.987L171.899,104.207z
	 M21.408,142.911c1.984,0,3.775,1.125,4.673,2.938l3.414,6.892c3.645,7.358,10.988,11.929,19.161,11.929h61.165
	c6.195,0,12.08-2.695,16.147-7.394l10.409-12.027l112.031,113.072c9.673,9.764,22.54,15.14,36.23,15.14h100.71
	c13.358,0,24.677-8.944,28.369-21.196l55.091,13.083c15.911,3.778,27.024,17.963,27.024,34.494v11.846H238.095l-70.955-80.565
	c-9.709-11.025-23.665-17.348-38.291-17.348H16.168v-65.502C16.168,145.316,18.519,142.911,21.408,142.911z M16.168,229.944h112.681
	c9.983,0,19.517,4.325,26.158,11.864l61.542,69.879H16.168V229.944z M471.579,355.204c-3.859,0-7.18,2.727-7.93,6.513l-9.046,45.65
	c-0.257,1.293-1.367,2.233-2.64,2.233h-36.222c-1.273,0-2.383-0.94-2.64-2.233l-9.046-45.65c-0.75-3.786-4.071-6.513-7.93-6.513
	h-53.895c-3.859,0-7.18,2.727-7.93,6.513l-9.046,45.65c-0.257,1.293-1.367,2.233-2.64,2.233h-36.222c-1.273,0-2.383-0.94-2.64-2.233
	l-9.046-45.65c-0.75-3.786-4.071-6.513-7.93-6.513H115.874c-3.859,0-7.18,2.727-7.93,6.513l-9.046,45.65
	c-0.257,1.293-1.367,2.233-2.64,2.233H60.037c-1.273,0-2.383-0.94-2.64-2.233l-9.046-45.65c-0.75-3.786-4.071-6.513-7.93-6.513
	c-13.373,0-24.253-11.015-24.253-24.553v-2.795h479.663v2.795C495.832,344.189,484.952,355.204,471.579,355.204z"/>
<g>
</g>
<g>
</g>
<g>
</g>
<g>
</g>
<g>
</g>
<g>
</g>
<g>
</g>
<g>
</g>
<g>
</g>
<g>
</g>
<g>
</g>
<g>
</g>
<g>
</g>
<g>
</g>
<g>
</g>
</svg>
