<?xml version="1.0" encoding="iso-8859-1"?>
<!-- Generator: Adobe Illustrator 19.0.0, SVG Export Plug-In . SVG Version: 6.00 Build 0)  -->
<svg version="1.1" id="Layer_1" xmlns="http://www.w3.org/2000/svg" xmlns:xlink="http://www.w3.org/1999/xlink" x="0px" y="0px"
	 viewBox="0 0 512 512" style="enable-background:new 0 0 512 512;" xml:space="preserve">
<path style="fill:#002E35;" d="M115.874,438.164l71.384-266.406c3.655-13.643,17.679-21.739,31.321-18.084l98.81,26.476
	c13.643,3.655,21.739,17.679,18.084,31.321l-60.742,226.692H115.874z"/>
<path style="fill:#004859;" d="M87.376,110.347L105.095,358.4H8.084V78.147c0-11.906,9.651-21.558,21.558-21.558l0,0
	C60.01,56.589,85.213,80.057,87.376,110.347z"/>
<path style="fill:#002E35;" d="M385.347,401.516h91.621c14.882,0,26.947,12.065,26.947,26.947l0,0
	c0,14.883-12.065,26.947-26.947,26.947h-91.621V401.516z"/>
<path style="fill:#266DAD;" d="M406.905,399.909v55.502H118.616c-15.665,0-30.799-5.686-42.588-16.001l-56.646-49.565
	c-7.18-6.282-11.298-15.359-11.298-24.899l0,0c0-20.385,18.257-35.921,38.381-32.658l351.387,56.982
	C403.07,390.115,406.905,394.622,406.905,399.909z"/>
<path style="fill:#868686;" d="M279.503,248.957l-41.487,154.83c-1.641,6.121-7.932,9.754-14.054,8.114l-40.301-10.799
	c-6.121-1.641-9.754-7.932-8.114-14.055l41.487-154.83c1.641-6.121,7.932-9.754,14.054-8.114l40.301,10.799
	C277.51,236.543,281.144,242.836,279.503,248.957z M465.839,269.642l-36.133-20.862c-5.489-3.168-12.507-1.288-15.675,4.199
	l-80.146,138.817c-3.169,5.489-1.288,12.507,4.201,15.676l36.133,20.862c5.489,3.169,12.507,1.288,15.675-4.201l80.146-138.817
	C473.209,279.828,471.328,272.811,465.839,269.642z"/>
<path style="fill:#007DBC;" d="M281.726,282.309l-13.949,52.058c-1.54,5.75-7.451,9.162-13.201,7.622l-62.47-16.739
	c-5.751-1.541-9.162-7.452-7.622-13.202l13.949-52.058c1.54-5.749,7.451-9.162,13.201-7.622l62.47,16.739
	C279.854,270.649,283.266,276.559,281.726,282.309z M459.609,303.383L403.6,271.046c-5.156-2.976-11.748-1.21-14.724,3.946
	l-26.947,46.674c-2.976,5.156-1.21,11.747,3.945,14.724l56.008,32.337c5.156,2.976,11.748,1.21,14.724-3.945l26.947-46.674
	C466.531,312.953,464.764,306.36,459.609,303.383z"/>
<path style="fill:#004859;" d="M108.328,386.425c0,8.929-7.239,16.168-16.168,16.168s-16.168-7.239-16.168-16.168
	c0-8.929,7.239-16.168,16.168-16.168S108.328,377.496,108.328,386.425z"/>
<path style="fill:#007DBC;" d="M69.524,278.5c0,8.929-7.239,16.168-16.168,16.168s-16.168-7.239-16.168-16.168
	c0-8.929,7.239-16.168,16.168-16.168S69.524,269.57,69.524,278.5z"/>
<path d="M476.968,393.432h-60.014l8.796-15.234c0.496,0.04,0.993,0.067,1.492,0.067c1.638,0,3.288-0.216,4.913-0.651
	c4.867-1.304,8.935-4.425,11.454-8.789l26.947-46.674c2.519-4.364,3.188-9.448,1.884-14.313c-0.567-2.117-1.496-4.07-2.704-5.824
	l7.306-12.654c2.613-4.524,3.306-9.796,1.954-14.843c-1.352-5.047-4.589-9.264-9.114-11.876l-36.134-20.862
	c-9.342-5.392-21.326-2.181-26.718,7.159l-7.306,12.656c-2.122-0.169-4.278,0.001-6.395,0.567
	c-4.867,1.304-8.935,4.425-11.454,8.789l-26.947,46.674c-2.519,4.364-3.188,9.448-1.884,14.313c0.567,2.118,1.497,4.07,2.704,5.824
	l-19.264,33.366l-33.946-5.505l40.744-152.058c2.326-8.686,1.132-17.755-3.363-25.541c-4.495-7.787-11.753-13.355-20.437-15.681
	l-98.81-26.476c-8.686-2.327-17.755-1.132-25.541,3.362c-7.786,4.496-13.355,11.753-15.682,20.438l-45.194,168.667l-22.751-3.689
	L95.44,109.772c-2.453-34.355-31.356-61.266-65.798-61.266C13.297,48.505,0,61.803,0,78.147v282.408
	c0,0.467,0.049,0.922,0.124,1.367C0.051,362.925,0,363.932,0,364.945c0,11.873,5.124,23.165,14.059,30.983l56.646,49.564
	c0.719,0.628,1.454,1.235,2.194,1.833H40.421c-4.465,0-8.084,3.618-8.084,8.084s3.62,8.084,8.084,8.084h78.195h9.834h278.456
	c0.32,0,0.634-0.023,0.943-0.059c0.309,0.037,0.623,0.059,0.943,0.059h68.177c19.316,0,35.032-15.715,35.032-35.032
	C512,409.145,496.284,393.432,476.968,393.432z M340.885,395.839l6.797-11.773c0.014-0.024,0.028-0.047,0.041-0.071l21.108-36.561
	l42.007,24.253l-27.947,48.405c-0.611,1.059-1.552,1.444-2.06,1.58c-0.507,0.135-1.514,0.273-2.573-0.338l-36.133-20.862
	C340.508,399.537,339.951,397.457,340.885,395.839z M425.664,255.781l36.134,20.862c1.057,0.611,1.443,1.552,1.579,2.059
	c0.136,0.507,0.272,1.513-0.338,2.573l-6.389,11.067l-42.007-24.253l6.389-11.067C421.967,255.403,424.044,254.847,425.664,255.781z
	 M368.929,325.708l26.947-46.674c0.486-0.841,1.234-1.147,1.636-1.256c0.172-0.046,0.416-0.092,0.705-0.092
	c0.388,0,0.857,0.083,1.34,0.361l56.005,32.335c0.001,0,0.003,0.001,0.004,0.002h0.001c0.84,0.486,1.146,1.233,1.255,1.635
	c0.108,0.403,0.217,1.204-0.269,2.045l-26.947,46.674c-0.486,0.841-1.234,1.147-1.636,1.256c-0.404,0.108-1.204,0.216-2.044-0.269
	l0,0l-56-32.331c-0.003-0.002-0.005-0.004-0.009-0.005c-0.001,0-0.002-0.001-0.003-0.001c-0.839-0.485-1.145-1.233-1.253-1.634
	C368.552,327.35,368.444,326.549,368.929,325.708z M195.066,173.851c1.209-4.513,4.104-8.286,8.149-10.622
	c4.045-2.336,8.759-2.956,13.271-1.747l98.811,26.476c4.513,1.209,8.285,4.104,10.619,8.149c2.336,4.046,2.957,8.759,1.747,13.272
	l-41.168,153.641l-27.97-4.536l2.242-8.366c6.933-1.284,12.877-6.409,14.819-13.659l13.949-52.059
	c1.942-7.25-0.649-14.649-6.007-19.226l3.784-14.125c2.791-10.417-3.413-21.163-13.83-23.956l-40.301-10.798
	c-5.048-1.352-10.318-0.659-14.843,1.953c-4.525,2.613-7.761,6.831-9.114,11.877l-3.785,14.127
	c-6.93,1.286-12.873,6.397-14.816,13.646l-13.948,52.059c-1.304,4.867-0.635,9.949,1.884,14.313c1.096,1.898,2.499,3.544,4.12,4.924
	l-4.363,16.284l-28.02-4.543L195.066,173.851z M271.694,246.864l-3.307,12.342l-46.852-12.554l3.307-12.341
	c0.316-1.181,1.125-1.797,1.579-2.059c0.455-0.263,1.393-0.653,2.574-0.338l40.301,10.798
	C271.102,243.195,272.178,245.058,271.694,246.864z M206.241,262.083c0.385-1.435,1.869-2.287,3.299-1.906l62.47,16.739
	c1.436,0.385,2.291,1.866,1.906,3.302l-13.948,52.058c-0.385,1.435-1.866,2.292-3.302,1.906v0.001l-62.469-16.739
	c-0.938-0.251-1.428-0.895-1.636-1.256c-0.208-0.361-0.521-1.106-0.269-2.044L206.241,262.083z M183.355,389.142l14.466-53.99
	l46.852,12.553l-14.466,53.989c-0.484,1.807-2.348,2.879-4.153,2.399l-40.302-10.799c-1.18-0.317-1.797-1.126-2.059-1.58
	C183.432,391.259,183.039,390.321,183.355,389.142z M29.642,64.674c26.001,0,47.819,20.316,49.672,46.249l15.79,221.061
	l-47.344-7.678c-11.225-1.822-22.614,1.066-31.591,7.932V78.147C16.168,70.717,22.212,64.674,29.642,64.674z M128.449,447.326
	h-9.834c-13.711,0-26.945-4.972-37.264-14.002L24.705,383.76c-5.426-4.747-8.537-11.606-8.537-18.815
	c0-7.343,3.207-14.282,8.799-19.04c5.591-4.759,12.955-6.813,20.203-5.637l93.687,15.193c0.02,0.003,0.041,0.006,0.061,0.01
	l35.191,5.706l-6.371,23.779c-1.353,5.047-0.659,10.317,1.954,14.843c2.613,4.524,6.831,7.761,11.876,9.113l40.302,10.799
	c1.689,0.453,3.386,0.669,5.056,0.668c8.635,0,16.56-5.771,18.899-14.499l8.493-31.695l73.518,11.922l-0.953,1.65
	c-5.393,9.339-2.181,21.325,7.159,26.719l36.133,20.862c3.014,1.74,6.358,2.629,9.748,2.629c1.699,0,3.409-0.223,5.094-0.675
	c5.047-1.353,9.263-4.59,11.876-9.114l1.926-3.336v22.485H128.449z M476.968,447.326h-61.979V409.6h61.979
	c10.401,0,18.863,8.463,18.863,18.863C495.832,438.864,487.369,447.326,476.968,447.326z M211.073,285.696
	c1.156-4.313,5.591-6.874,9.902-5.716l31.235,8.37c4.313,1.155,6.872,5.589,5.716,9.902c-0.968,3.612-4.235,5.994-7.804,5.994
	c-0.693,0-1.397-0.089-2.098-0.278l-31.235-8.37C212.477,294.441,209.918,290.009,211.073,285.696z M394.433,303.093
	c2.232-3.867,7.177-5.19,11.043-2.959l28.004,16.168c3.866,2.232,5.191,7.177,2.959,11.043c-1.497,2.593-4.215,4.043-7.008,4.043
	c-1.371,0-2.762-0.349-4.035-1.084l-28.004-16.168C393.524,311.904,392.2,306.96,394.433,303.093z M18.863,455.41
	c0,4.466-3.62,8.084-8.084,8.084H9.701c-4.465,0-8.084-3.618-8.084-8.084c0-4.466,3.62-8.084,8.084-8.084h1.078
	C15.244,447.326,18.863,450.945,18.863,455.41z M92.16,362.173c-13.373,0-24.253,10.88-24.253,24.253
	c0,13.372,10.879,24.253,24.253,24.253s24.253-10.88,24.253-24.253C116.413,373.053,105.533,362.173,92.16,362.173z M92.16,394.509
	c-4.458,0-8.084-3.626-8.084-8.084c0-4.458,3.626-8.084,8.084-8.084s8.084,3.626,8.084,8.084
	C100.244,390.883,96.618,394.509,92.16,394.509z M53.356,302.753c13.373,0,24.253-10.88,24.253-24.253
	c0-13.372-10.879-24.253-24.253-24.253s-24.253,10.88-24.253,24.253C29.103,291.872,39.982,302.753,53.356,302.753z M53.356,270.416
	c4.458,0,8.084,3.626,8.084,8.084c0,4.458-3.626,8.084-8.084,8.084s-8.084-3.626-8.084-8.084
	C45.272,274.042,48.898,270.416,53.356,270.416z"/>
<g>
</g>
<g>
</g>
<g>
</g>
<g>
</g>
<g>
</g>
<g>
</g>
<g>
</g>
<g>
</g>
<g>
</g>
<g>
</g>
<g>
</g>
<g>
</g>
<g>
</g>
<g>
</g>
<g>
</g>
</svg>
