<?xml version="1.0" encoding="iso-8859-1"?>
<!-- Generator: Adobe Illustrator 19.0.0, SVG Export Plug-In . SVG Version: 6.00 Build 0)  -->
<svg version="1.1" id="Layer_1" xmlns="http://www.w3.org/2000/svg" xmlns:xlink="http://www.w3.org/1999/xlink" x="0px" y="0px"
	 viewBox="0 0 512.001 512.001" style="enable-background:new 0 0 512.001 512.001;" xml:space="preserve">
<path style="fill:#91CEC5;" d="M110.317,107.509l24.95-91.482c1.279-4.69,5.538-7.943,10.4-7.943h24.103
	c5.953,0,10.779,4.826,10.779,10.779v43.116c0,41.671,33.781,75.453,75.453,75.453l0,0c42.403,0,76.61-34.736,75.91-77.134
	c-0.271-16.378-0.382-31.647-0.426-41.39c-0.028-5.973,4.806-10.823,10.779-10.823h24.073c4.861,0,9.12,3.253,10.4,7.943
	l24.95,91.482c3.465,12.705,5.221,25.817,5.221,38.986v3.639c0,20.066-4.076,39.923-11.981,58.368l0,0
	c-13.182,30.757-15.564,65.07-6.759,97.353l15.784,57.872c1.853,6.794,0.271,14.063-4.237,19.473l-94.131,112.958
	c-4.096,4.915-10.163,7.757-16.561,7.757h-66.037c-6.398,0-12.466-2.841-16.561-7.757l-94.131-112.958
	c-4.508-5.41-6.09-12.679-4.237-19.473l15.784-57.872c8.804-32.284,6.422-66.597-6.759-97.353l0,0
	c-7.904-18.444-11.981-38.301-11.981-58.368v-3.639C105.095,133.326,106.851,120.214,110.317,107.509z"/>
<path style="fill:#5A968A;" d="M403.97,363.728c1.853,6.794,0.271,14.063-4.237,19.473l-94.131,112.958
	c-4.096,4.915-10.163,7.757-16.561,7.757h-66.037c-6.398,0-12.466-2.841-16.561-7.757l-94.131-112.958
	c-4.508-5.41-6.09-12.679-4.237-19.473l15.784-57.872c8.804-32.284,6.422-66.597-6.759-97.353l0,0
	c-7.904-18.444-11.981-38.301-11.981-58.367v-3.639c0-13.17,1.756-26.28,5.221-38.986l6.122-22.449
	C159.058,185.526,258.592,256,374.589,256c2.943,0,5.871-0.06,8.792-0.151c-1.246,16.705,0.335,33.617,4.804,50.007L403.97,363.728z
	"/>
<path style="fill:#004859;" d="M403.949,363.728c1.853,6.794,0.271,14.063-4.237,19.473L305.58,496.159
	c-4.096,4.915-10.163,7.757-16.561,7.757h-66.037c-6.398,0-12.466-2.841-16.561-7.757L112.29,383.201
	c-4.508-5.41-6.09-12.679-4.237-19.473l15.784-57.872c8.355-30.636,6.629-63.098-4.833-92.616
	c38.151,90.669,142.859,150.55,250.176,150.55c11.585,0,23.001-0.725,34.209-2.117L403.949,363.728z"/>
<path d="M414.99,150.135v-3.639c0-13.885-1.853-27.718-5.506-41.114l-24.949-91.482C382.303,5.716,374.819,0,366.336,0h-24.073
	c-5.057,0-9.808,1.974-13.373,5.557c-3.565,3.581-5.513,8.335-5.49,13.389c0.046,9.91,0.157,25.153,0.427,41.485
	c0.302,18.308-6.606,35.585-19.453,48.645c-12.858,13.073-30.037,20.272-48.374,20.272c-37.147,0-67.368-30.221-67.368-67.368
	V18.863C188.632,8.463,180.17,0,169.769,0h-24.104c-8.483,0-15.967,5.716-18.198,13.901l-24.95,91.482
	c-3.653,13.395-5.506,27.228-5.506,41.113v3.639c0,21.281,4.25,41.99,12.634,61.552c12.411,28.958,14.681,61.645,6.392,92.042
	L100.253,361.6c-2.546,9.336-0.369,19.345,5.825,26.777l94.131,112.958c5.648,6.778,13.948,10.666,22.772,10.666h66.038
	c8.824,0,17.123-3.887,22.772-10.666l94.131-112.958c6.194-7.432,8.372-17.441,5.825-26.777l-15.784-57.871
	c-8.289-30.397-6.019-63.084,6.392-92.042C410.74,192.125,414.99,171.415,414.99,150.135z M398.822,150.135
	c0,19.079-3.81,37.645-11.327,55.183c-5.839,13.625-9.657,27.99-11.436,42.591c-0.502,0.003-1.002,0.006-1.49,0.006
	c-93.272,0-179.024-46.961-229.385-125.622c-2.407-3.761-7.408-4.856-11.167-2.449c-3.76,2.407-4.857,7.407-2.449,11.167
	c25.605,39.994,61.024,73.378,102.426,96.539c42.72,23.901,91.33,36.534,140.575,36.534c0.117,0,0.241-0.001,0.36-0.001
	c-0.269,14.752,1.526,29.555,5.438,43.901l15.784,57.871c1.157,4.244,0.167,8.792-2.648,12.171l-94.131,112.958
	c-2.568,3.081-6.34,4.848-10.351,4.848h-66.038c-4.011,0-7.783-1.768-10.351-4.848l-94.131-112.958
	c-2.815-3.378-3.805-7.927-2.648-12.171l15.784-57.871c5.216-19.127,6.682-39.067,4.486-58.615
	c44.457,64.392,114.651,108.961,194.32,119.874c0.373,0.051,0.742,0.075,1.107,0.075c3.976,0,7.444-2.937,7.999-6.988
	c0.607-4.424-2.49-8.5-6.913-9.106c-102.166-13.992-187.806-86.703-218.332-185.303c-0.746-5.868-1.122-11.801-1.122-17.785v-3.639
	c0-12.449,1.661-24.85,4.936-36.859l24.949-91.482c0.319-1.17,1.388-1.987,2.6-1.987h24.105c1.486,0,2.695,1.208,2.695,2.695V61.98
	c0,46.062,37.475,83.537,83.537,83.537c22.705,0,43.979-8.915,59.901-25.102c15.911-16.176,24.467-37.572,24.093-60.25
	c-0.268-16.252-0.38-31.426-0.426-41.295c-0.004-0.97,0.487-1.611,0.781-1.907c0.294-0.296,0.936-0.793,1.913-0.793h24.073
	c1.212,0,2.281,0.817,2.6,1.987l24.949,91.482c3.275,12.01,4.936,24.41,4.936,36.859v3.638H398.822z M360.197,363.76
	c0.016-4.455,3.633-8.056,8.083-8.056c0.011,0,0.021,0,0.029,0l0.87,0.001c4.466,0,8.084,3.618,8.084,8.084
	s-3.618,8.084-8.084,8.084l-0.926-0.001C363.788,371.856,360.181,368.224,360.197,363.76z M371.874,148.211
	c0,4.466-3.618,8.084-8.084,8.084h-21.558c-4.466,0-8.084-3.618-8.084-8.084c0-4.466,3.618-8.084,8.084-8.084h21.558
	C368.256,140.126,371.874,143.745,371.874,148.211z"/>
<g>
</g>
<g>
</g>
<g>
</g>
<g>
</g>
<g>
</g>
<g>
</g>
<g>
</g>
<g>
</g>
<g>
</g>
<g>
</g>
<g>
</g>
<g>
</g>
<g>
</g>
<g>
</g>
<g>
</g>
</svg>
