<?xml version="1.0" encoding="iso-8859-1"?>
<!-- Generator: Adobe Illustrator 19.0.0, SVG Export Plug-In . SVG Version: 6.00 Build 0)  -->
<svg version="1.1" id="Layer_1" xmlns="http://www.w3.org/2000/svg" xmlns:xlink="http://www.w3.org/1999/xlink" x="0px" y="0px"
	 viewBox="0 0 512 512" style="enable-background:new 0 0 512 512;" xml:space="preserve">
<path style="fill:#547A00;" d="M77.468,180.91c-5.025-10.791-0.363-23.617,10.414-28.648l0,0
	c21.553-10.063,47.171-0.727,57.22,20.855l95.534,205.15l-15.168,7.083H172.67L77.468,180.91z"/>
<path style="fill:#496300;" d="M369.808,94.316v280.253h-64.586v10.779h-64.586v-10.779h-64.586V83.537
	c0-17.859,14.458-32.337,32.293-32.337s32.293,14.477,32.293,32.337V40.421c0-17.859,14.458-32.337,32.293-32.337
	s32.293,14.477,32.293,32.337v53.895c0-17.859,14.458-32.337,32.294-32.337S369.808,76.456,369.808,94.316z"/>
<path style="fill:#547A00;" d="M305.222,40.377v344.97h-64.586V40.377c0-17.835,14.458-32.293,32.293-32.293h0.001
	C290.764,8.084,305.222,22.542,305.222,40.377z M413.945,383.823l20.325-232.625c1.554-17.791-11.588-33.475-29.355-35.032l0,0
	c-17.767-1.556-33.43,11.605-34.985,29.395l-20.64,236.235l43.897,3.846L413.945,383.823z"/>
<path style="fill:#659F00;" d="M414.27,385.347h-241.6l-50.443-107.789H423.63L414.27,385.347z"/>
<path style="fill:#002E35;" d="M393.461,503.916H188.995c-11.906,0-21.558-9.651-21.558-21.558V374.568h247.581v107.789
	C415.019,494.264,405.367,503.916,393.461,503.916z"/>
<path style="fill:#007DBC;" d="M436.547,417.684V460.8c0,5.953-4.826,10.779-10.779,10.779H253.596
	c-17.86,0-32.337-14.477-32.337-32.337l0,0c0-17.86,14.477-32.337,32.337-32.337h172.172
	C431.722,406.905,436.547,411.731,436.547,417.684z"/>
<path d="M425.768,398.821h-2.666v-24.253c0-0.514-0.053-1.016-0.146-1.504c0.052-0.269,0.089-0.544,0.114-0.825l19.251-220.339
	c1.94-22.202-14.525-41.846-36.703-43.789c-9.997-0.876-19.761,1.925-27.727,7.913V94.316c0-22.289-18.113-40.421-40.378-40.421
	c-9.075,0-17.46,3.012-24.208,8.09V40.421C313.306,18.132,295.193,0,272.928,0S232.55,18.132,232.55,40.421v10.784
	c-6.749-5.078-15.134-8.09-24.208-8.09c-22.265,0-40.378,18.132-40.378,40.421V203.06l-15.534-33.358
	c-5.775-12.402-16.03-21.808-28.878-26.484c-12.834-4.671-26.718-4.06-39.092,1.717c-14.794,6.908-21.218,24.577-14.321,39.387
	l44.162,94.835c0.139,0.69,0.37,1.367,0.692,2.012l3.631,7.273l40.727,87.457v106.457c0,16.345,13.284,29.642,29.613,29.642H393.49
	c16.329,0,29.613-13.297,29.613-29.642v-2.695h2.666c10.402,0,18.863-8.463,18.863-18.863v-43.116
	C444.632,407.284,436.169,398.821,425.768,398.821z M133.14,281.319l-2.791-5.588c-0.125-0.54-0.307-1.071-0.546-1.586
	l-45.006-96.648c-3.137-6.737-0.219-14.771,6.505-17.911c8.461-3.949,17.951-4.367,26.721-1.174
	c8.786,3.197,15.8,9.631,19.751,18.116l30.947,66.456c1.6,3.437,5.379,5.299,9.076,4.481c3.703-0.82,6.337-4.101,6.337-7.893V83.537
	c0-13.373,10.86-24.253,24.208-24.253s24.208,10.879,24.208,24.253v134.737c0,4.465,3.618,8.084,8.084,8.084s8.084-3.62,8.084-8.084
	V83.537V40.421c0-13.373,10.86-24.253,24.208-24.253s24.208,10.879,24.208,24.253v53.895v123.958c0,4.465,3.618,8.084,8.084,8.084
	s8.084-3.62,8.084-8.084V94.316c0-13.373,10.86-24.253,24.208-24.253s24.208,10.879,24.208,24.253v51.328
	c-0.02,0.142-0.046,0.281-0.059,0.426l-6.539,74.822c-0.388,4.447,2.902,8.369,7.349,8.758c0.24,0.02,0.478,0.031,0.714,0.031
	c4.147,0,7.677-3.172,8.044-7.381l6.416-73.422c0.098-0.399,0.175-0.806,0.212-1.227l0.121-1.385
	c0.563-6.454,3.603-12.303,8.56-16.467c4.952-4.162,11.226-6.14,17.667-5.578c13.299,1.165,23.17,12.952,22.006,26.275
	L415.82,269.474H190.043c-4.466,0-8.084,3.62-8.084,8.084c0,4.465,3.618,8.084,8.084,8.084h224.365l-7.063,80.842h-234.54
	l-39.567-84.967C133.206,281.45,133.173,281.384,133.14,281.319z M406.934,482.358c0,7.43-6.032,13.474-13.445,13.474H188.966
	c-7.413,0-13.445-6.044-13.445-13.474v-99.705h231.413v16.168H253.596c-22.289,0-40.422,18.132-40.422,40.421
	c0,22.289,18.133,40.421,40.422,40.421h153.338V482.358z M428.463,460.8c0,1.485-1.208,2.695-2.695,2.695H253.596
	c-13.372,0-24.253-10.879-24.253-24.253c0-13.373,10.88-24.253,24.253-24.253h172.172c1.486,0,2.695,1.209,2.695,2.695V460.8z
	 M164.309,277.558c0,4.465-3.618,8.084-8.084,8.084h-1.076c-4.466,0-8.084-3.62-8.084-8.084c0-4.465,3.618-8.084,8.084-8.084h1.076
	C160.689,269.474,164.309,273.093,164.309,277.558z"/>
<g>
</g>
<g>
</g>
<g>
</g>
<g>
</g>
<g>
</g>
<g>
</g>
<g>
</g>
<g>
</g>
<g>
</g>
<g>
</g>
<g>
</g>
<g>
</g>
<g>
</g>
<g>
</g>
<g>
</g>
</svg>
