<?xml version="1.0" encoding="iso-8859-1"?>
<!-- Generator: Adobe Illustrator 19.0.0, SVG Export Plug-In . SVG Version: 6.00 Build 0)  -->
<svg version="1.1" id="Layer_1" xmlns="http://www.w3.org/2000/svg" xmlns:xlink="http://www.w3.org/1999/xlink" x="0px" y="0px"
	 viewBox="0 0 512 512" style="enable-background:new 0 0 512 512;" xml:space="preserve">
<path style="fill:#5A968A;" d="M8.084,331.453c0-56.554,45.846-102.4,102.4-102.4s102.4,45.846,102.4,102.4
	s-45.846,102.4-102.4,102.4S8.084,388.007,8.084,331.453z M401.516,433.853c56.554,0,102.4-45.846,102.4-102.4
	s-45.846-102.4-102.4-102.4s-102.4,45.846-102.4,102.4S344.962,433.853,401.516,433.853z"/>
<path style="fill:#AEE5DF;" d="M40.421,331.453c0-38.694,31.368-70.063,70.063-70.063s70.063,31.369,70.063,70.063
	s-31.368,70.063-70.063,70.063S40.421,370.147,40.421,331.453z M401.516,401.516c38.694,0,70.063-31.369,70.063-70.063
	s-31.369-70.063-70.063-70.063s-70.063,31.369-70.063,70.063S362.822,401.516,401.516,401.516z"/>
<path style="fill:#007DBC;" d="M207.495,110.484H153.6c-8.929,0-16.168-7.239-16.168-16.168s7.239-16.168,16.168-16.168h53.895
	c8.929,0,16.168,7.239,16.168,16.168S216.424,110.484,207.495,110.484z M212.884,304.505c-17.86,0-32.337,14.478-32.337,32.337
	s14.477,32.337,32.337,32.337s32.337-14.478,32.337-32.337S230.744,304.505,212.884,304.505z"/>
<path style="fill:#002E35;" d="M212.884,353.011c-8.929,0-16.168-7.239-16.168-16.168c0-8.929,7.239-16.168,16.168-16.168
	s16.168,7.239,16.168,16.168C229.053,345.771,221.813,353.011,212.884,353.011z"/>
<path style="fill:#FFFFFF;" d="M102.183,261.406c1.026,4.345-1.664,8.7-6.009,9.726c-28.066,6.63-47.669,31.436-47.669,60.321
	c0,4.465-3.62,8.084-8.084,8.084s-8.084-3.62-8.084-8.084c0-36.419,24.723-67.694,60.121-76.056
	C96.802,254.371,101.157,257.061,102.183,261.406z M155.209,374.361c-11.803,12.298-27.686,19.07-44.725,19.07
	c-4.465,0-8.084,3.62-8.084,8.084c0,4.465,3.62,8.084,8.084,8.084c21.485,0,41.511-8.539,56.39-24.045
	c3.091-3.221,2.987-8.339-0.235-11.43C163.416,371.034,158.3,371.139,155.209,374.361z M80.177,385.049l-1.059-0.2
	c-4.387-0.827-8.616,2.057-9.445,6.444c-0.829,4.387,2.057,8.616,6.444,9.445l1.058,0.201c0.508,0.096,1.011,0.142,1.509,0.142
	c3.809,0,7.202-2.706,7.934-6.585C87.45,390.106,84.564,385.878,80.177,385.049z M431.575,259.297
	c-4.12-1.718-8.854,0.229-10.573,4.35c-1.718,4.121,0.229,8.855,4.35,10.573c23.17,9.662,38.142,32.128,38.142,57.232
	c0,4.465,3.62,8.084,8.084,8.084s8.084-3.62,8.084-8.084C479.663,299.802,460.787,271.48,431.575,259.297z M427.492,384.849
	l-1.058,0.201c-4.387,0.829-7.273,5.056-6.444,9.445c0.733,3.88,4.125,6.585,7.934,6.585c0.497,0,1.002-0.046,1.509-0.142
	l1.059-0.201c4.387-0.829,7.273-5.056,6.444-9.445C436.109,386.906,431.885,384.023,427.492,384.849z M401.516,393.432
	c-34.176,0-61.979-27.803-61.979-61.979c0-4.465-3.62-8.084-8.084-8.084c-4.465,0-8.084,3.62-8.084,8.084
	c0,43.091,35.056,78.147,78.147,78.147c4.465,0,8.084-3.62,8.084-8.084C409.6,397.051,405.98,393.432,401.516,393.432z"/>
<path d="M17.246,433.853c0,4.466-3.62,8.084-8.084,8.084H8.084c-4.465,0-8.084-3.618-8.084-8.084s3.62-8.084,8.084-8.084h1.078
	C13.627,425.768,17.246,429.387,17.246,433.853z M512,433.853c0,4.466-3.62,8.084-8.084,8.084H331.453
	c-4.465,0-8.084-3.618-8.084-8.084s3.62-8.084,8.084-8.084h12.576c-31.758-19.429-52.997-54.438-52.997-94.316
	c0-47.068,29.59-87.35,71.142-103.239l-15.133-45.399l-98.865,134.354c3.261,5.827,5.129,12.534,5.129,19.673
	c0,22.289-18.132,40.421-40.421,40.421c-0.613,0-1.222-0.019-1.829-0.046c-8.265,18.167-21.231,33.705-37.78,45.154
	c-1.721,1.191-3.479,2.312-5.255,3.398h77.201c4.465,0,8.084,3.618,8.084,8.084s-3.62,8.084-8.084,8.084h-204.8
	c-4.465,0-8.084-3.618-8.084-8.084s3.62-8.084,8.084-8.084h12.576C21.239,406.339,0,371.33,0,331.453
	c0-60.922,49.563-110.484,110.484-110.484c12.051,0,23.75,1.981,34.756,5.643l37.426-84.207l-7.945-23.835H153.6
	c-13.373,0-24.253-10.88-24.253-24.253s10.879-24.253,24.253-24.253h53.895c13.373,0,24.253,10.88,24.253,24.253
	s-10.879,24.253-24.253,24.253h-15.731l5.389,16.168h133.862l-8.552-25.658c-3.049-9.148-1.565-18.883,4.074-26.705
	c5.637-7.823,14.403-12.311,24.047-12.311h45.542c22.289,0,40.421,18.132,40.421,40.421s-18.132,40.421-40.421,40.421
	c-4.465,0-8.084-3.618-8.084-8.084c0-4.466,3.62-8.084,8.084-8.084c13.373,0,24.253-10.88,24.253-24.253
	S409.5,86.232,396.126,86.232h-45.542c-4.384,0-8.368,2.04-10.931,5.595c-2.563,3.555-3.238,7.98-1.852,12.138l12.099,36.299
	l0.047,0.142c0.002,0.005,0.003,0.01,0.005,0.015l27.716,83.147c7.683-1.698,15.661-2.6,23.846-2.6
	c60.922,0,110.484,49.563,110.484,110.484c0,39.878-21.239,74.887-52.997,94.316h44.913C508.38,425.768,512,429.387,512,433.853z
	 M153.6,102.4h53.895c4.458,0,8.084-3.626,8.084-8.084s-3.626-8.084-8.084-8.084H153.6c-4.458,0-8.084,3.626-8.084,8.084
	S149.142,102.4,153.6,102.4z M195.117,373.139c-11.073-5.442-19.311-15.8-21.84-28.213h-68.182c-2.737,0-5.287-1.384-6.779-3.679
	c-1.492-2.295-1.72-5.188-0.609-7.689l40.93-92.093c-8.95-2.81-18.416-4.329-28.152-4.329c-52.006,0-94.316,42.31-94.316,94.316
	s42.31,94.316,94.316,94.316C146.869,425.768,179.312,405.346,195.117,373.139z M199.02,298.871
	c-8.278-22.513-24.76-40.61-45.424-51.255l-36.062,81.142h55.742C176.096,314.925,185.999,303.64,199.02,298.871z M237.137,336.842
	c0-13.372-10.879-24.253-24.253-24.253s-24.253,10.88-24.253,24.253s10.879,24.253,24.253,24.253S237.137,350.214,237.137,336.842z
	 M340.783,164.039l-4.378-13.134H196.58l-26.828,60.362l0,0l-9.582,21.561c25.562,12.905,45.753,35.512,55.132,63.671
	c8.237,0.488,15.816,3.453,22.005,8.161L340.783,164.039z M401.516,425.768c52.006,0,94.316-42.31,94.316-94.316
	s-42.31-94.316-94.316-94.316c-6.402,0-12.656,0.645-18.703,1.865l31.761,95.283c1.412,4.236-0.877,8.815-5.114,10.226
	c-0.848,0.282-1.71,0.417-2.558,0.417c-3.386,0-6.539-2.142-7.668-5.53l-31.944-95.833c-35.135,13.731-60.09,47.948-60.09,87.888
	C307.2,383.459,349.51,425.768,401.516,425.768z M288.337,425.768h-1.078c-4.465,0-8.084,3.618-8.084,8.084s3.62,8.084,8.084,8.084
	h1.078c4.465,0,8.084-3.618,8.084-8.084S292.801,425.768,288.337,425.768z"/>
<g>
</g>
<g>
</g>
<g>
</g>
<g>
</g>
<g>
</g>
<g>
</g>
<g>
</g>
<g>
</g>
<g>
</g>
<g>
</g>
<g>
</g>
<g>
</g>
<g>
</g>
<g>
</g>
<g>
</g>
</svg>
