<?xml version="1.0" encoding="iso-8859-1"?>
<!-- Generator: Adobe Illustrator 19.0.0, SVG Export Plug-In . SVG Version: 6.00 Build 0)  -->
<svg version="1.1" id="Layer_1" xmlns="http://www.w3.org/2000/svg" xmlns:xlink="http://www.w3.org/1999/xlink" x="0px" y="0px"
	 viewBox="0 0 512 512" style="enable-background:new 0 0 512 512;" xml:space="preserve">
<path style="fill:#720000;" d="M353.01,148.211H158.989V29.642H353.01V148.211z"/>
<path style="fill:#E2E2E2;" d="M503.916,135.988v61.808c0,4.26-2.508,8.12-6.402,9.85l-90.609,40.27v215.579
	c0,11.906-9.651,21.558-21.558,21.558H126.653c-11.906,0-21.558-9.651-21.558-21.558V247.916l-90.609-40.271
	c-3.892-1.73-6.402-5.59-6.402-9.85v-61.808c0-43.322,25.645-82.534,65.334-99.898l0,0c13.782-6.029,28.663-9.142,43.706-9.142
	h57.303c5.38,0,9.933,3.968,10.668,9.297c5.432,39.37,33.642,71.463,70.904,82.554c37.262-11.09,65.472-43.185,70.904-82.554
	c0.735-5.329,5.288-9.297,10.668-9.297h57.303c15.043,0,29.923,3.113,43.705,9.143l0,0
	C478.271,53.454,503.916,92.667,503.916,135.988z"/>
<path style="fill:#F93100;" d="M503.916,135.988v61.808c0,4.26-2.508,8.12-6.402,9.85l-90.609,40.27v215.579
	c0,11.906-9.651,21.558-21.558,21.558H126.653c-11.906,0-21.558-9.651-21.558-21.558V247.916l-90.609-40.271
	c-3.892-1.73-6.402-5.59-6.402-9.85v-61.808c0-43.322,25.645-82.534,65.334-99.898l0,0c13.782-6.029,28.663-9.142,43.706-9.142
	h32.265C156.896,86.851,199.52,135.83,256,152.641c56.48-16.811,99.104-65.789,106.61-125.693h32.265
	c15.043,0,29.923,3.113,43.705,9.143l0,0C478.271,53.454,503.916,92.667,503.916,135.988z"/>
<path style="fill:#E2E2E2;" d="M250.417,339.537c0,4.465-3.62,8.084-8.084,8.084h-44.774c-4.465,0-8.084-3.62-8.084-8.084
	c0-4.465,3.62-8.084,8.084-8.084h21.765v-72.106l-24.177,19.342c-3.485,2.791-8.574,2.225-11.363-1.262
	c-2.789-3.486-2.224-8.574,1.262-11.363l37.311-29.849c2.427-1.941,5.752-2.319,8.552-0.973c2.801,1.346,4.582,4.179,4.582,7.287
	v88.926h6.84C246.797,331.453,250.417,335.072,250.417,339.537z M329.988,253.305v75.453c0,10.401-8.463,18.863-18.863,18.863
	h-30.678c-10.401,0-18.863-8.463-18.863-18.863v-75.453c0-10.401,8.463-18.863,18.863-18.863h30.678
	C321.526,234.442,329.988,242.905,329.988,253.305z M313.819,253.305c0-1.485-1.209-2.695-2.695-2.695h-30.678
	c-1.485,0-2.695,1.209-2.695,2.695v75.453c0,1.485,1.209,2.695,2.695,2.695h30.678c1.485,0,2.695-1.209,2.695-2.695V253.305z"/>
<path style="fill:#BC0000;" d="M149.39,26.947c3.493,27.877,14.598,53.381,31.158,74.384v27.477
	c0,52.793-31.499,98.227-76.727,118.541l-89.335-39.704c-3.892-1.73-6.402-5.59-6.402-9.85v-61.808
	c0-43.322,25.645-82.534,65.336-99.898l0,0c13.781-6.03,28.662-9.143,43.705-9.143H149.39z M438.58,36.089L438.58,36.089
	c-13.781-6.029-28.662-9.142-43.705-9.142H362.61c-3.492,27.877-14.598,53.381-31.158,74.384v27.477
	c0,52.793,31.499,98.227,76.727,118.541l89.335-39.704c3.892-1.73,6.401-5.59,6.401-9.85v-61.808
	C503.916,92.667,478.271,53.454,438.58,36.089z"/>
<path d="M441.822,28.683c-14.893-6.516-30.689-9.82-46.946-9.82h-67.124c-4.174,0-7.623,3.172-8.034,7.276H192.282
	c-0.411-4.104-3.861-7.276-8.034-7.276h-67.125c-16.257,0-32.051,3.304-46.946,9.82C27.547,47.335,0,89.454,0,135.988v61.808
	c0,7.447,4.397,14.213,11.203,17.237l85.808,38.137v210.325c0,16.345,13.298,29.642,29.642,29.642h258.695
	c16.344,0,29.642-13.297,29.642-29.642V253.169l85.808-38.137c6.805-3.025,11.203-9.791,11.203-17.237v-61.808
	C512,89.454,484.453,47.335,441.822,28.683z M317.594,42.307C310.631,73.94,287.4,100.088,256,110.331
	c-31.4-10.242-54.631-36.391-61.594-68.024H317.594z M253.693,126.547c1.505,0.447,3.108,0.447,4.612,0
	c41.807-12.444,71.907-48.668,76.9-91.515h17.929c-9.808,51.236-46.997,93.309-97.134,109.154
	c-50.138-15.845-87.328-57.919-97.134-109.154h17.929C181.786,77.879,211.886,114.103,253.693,126.547z M495.832,197.795
	c0,1.064-0.628,2.03-1.6,2.462l-86.594,38.486c-26.615-12.705-47.656-34.458-59.401-61.58c-1.774-4.096-6.534-5.979-10.631-4.206
	c-4.097,1.774-5.98,6.534-4.206,10.631c13.032,30.092,36.149,54.369,65.421,68.873v211.033c0,7.43-6.044,13.474-13.474,13.474
	H126.653c-7.43,0-13.474-6.044-13.474-13.474V251.829c28.669-14.572,51.303-38.586,64.147-68.24
	c1.774-4.097-0.109-8.857-4.205-10.631c-4.096-1.774-8.856,0.108-10.63,4.206c-11.656,26.913-32.464,48.541-58.787,61.286
	L17.77,200.256c-0.971-0.432-1.6-1.398-1.6-2.462v-61.808c0-40.11,23.744-76.415,60.49-92.492
	c12.838-5.616,26.453-8.465,40.465-8.465h25.312c10.157,59.295,53.149,108.062,111.258,125.358c0.752,0.224,1.53,0.336,2.307,0.336
	s1.553-0.112,2.307-0.336c58.105-17.294,101.098-66.061,111.254-125.356h25.312c14.013,0,27.628,2.848,40.465,8.465
	c36.747,16.077,60.49,52.381,60.49,92.492V197.795z M187.223,148.587l-0.148,1.005c-0.601,4.009-4.051,6.886-7.984,6.886
	c-0.4,0-0.803-0.029-1.209-0.091c-4.416-0.662-7.458-4.778-6.796-9.194l0.13-0.893c0.632-4.42,4.738-7.486,9.146-6.86
	C184.783,140.071,187.854,144.166,187.223,148.587z M339.636,147.166c0.677,4.413-2.352,8.539-6.765,9.216
	c-0.415,0.064-0.828,0.094-1.235,0.094c-3.924,0-7.367-2.862-7.98-6.86l-0.153-1.03c-0.632-4.42,2.44-8.514,6.86-9.146
	c4.409-0.631,8.514,2.439,9.146,6.86L339.636,147.166z"/>
<g>
</g>
<g>
</g>
<g>
</g>
<g>
</g>
<g>
</g>
<g>
</g>
<g>
</g>
<g>
</g>
<g>
</g>
<g>
</g>
<g>
</g>
<g>
</g>
<g>
</g>
<g>
</g>
<g>
</g>
</svg>
