<?xml version="1.0" encoding="iso-8859-1"?>
<!-- Generator: Adobe Illustrator 19.0.0, SVG Export Plug-In . SVG Version: 6.00 Build 0)  -->
<svg version="1.1" id="Layer_1" xmlns="http://www.w3.org/2000/svg" xmlns:xlink="http://www.w3.org/1999/xlink" x="0px" y="0px"
	 viewBox="0 0 512 512" style="enable-background:new 0 0 512 512;" xml:space="preserve">
<path style="fill:#6D2C00;" d="M342.232,482.358c0,11.906-9.651,21.558-21.558,21.558H191.326c-11.906,0-21.558-9.651-21.558-21.558
	v-53.895h172.463V482.358z"/>
<path style="fill:#A54300;" d="M309.895,450.021H202.105C94.951,450.021,8.084,363.155,8.084,256V83.537
	c0-41.671,33.781-75.453,75.453-75.453h344.926c41.671,0,75.453,33.781,75.453,75.453V256
	C503.916,363.155,417.049,450.021,309.895,450.021z"/>
<path style="fill:#6D2C00;" d="M299.116,385.347h-86.232c-71.436,0-129.347-57.911-129.347-129.347V8.084h344.926V256
	C428.463,327.436,370.552,385.347,299.116,385.347z"/>
<path style="fill:#FFFFFF;" d="M436.04,294.468c-10.701,28.756-29.654,53.359-54.808,71.15
	c-25.728,18.196-56.038,27.814-87.654,27.814c-4.465,0-8.084-3.62-8.084-8.084s3.62-8.084,8.084-8.084
	c56.462,0,107.623-35.539,127.309-88.434c1.556-4.184,6.215-6.314,10.396-4.757C435.467,285.629,437.597,290.284,436.04,294.468z
	 M258.695,377.263h-0.899c-4.465,0-8.084,3.62-8.084,8.084s3.62,8.084,8.084,8.084h0.899c4.465,0,8.084-3.62,8.084-8.084
	S263.159,377.263,258.695,377.263z"/>
<path style="fill:#BF4D00;" d="M428.463,212.884H83.537V8.084h344.926V212.884z"/>
<path style="fill:#8E3900;" d="M358.251,212.884H83.537V8.084h274.714V212.884z"/>
<path style="fill:#A54300;" d="M285.493,212.884H83.537V8.084h201.957V212.884z"/>
<path style="fill:#4F2000;" d="M83.537,245.221V8.084h129.347v194.021c0,47.625-38.607,86.232-86.232,86.232l0,0
	C102.841,288.337,83.537,269.033,83.537,245.221z"/>
<path d="M432.359,0.099C431.966,0.04,431.567,0,431.158,0c-0.29,0-0.577,0.017-0.858,0.046C429.687,0.033,429.079,0,428.463,0
	H83.537C37.475,0,0,37.475,0,83.537V256c0,111.441,90.664,202.105,202.105,202.105h107.789c8.207,0,16.299-0.504,24.253-1.461
	v25.713c0,7.43-6.044,13.474-13.474,13.474H191.326c-7.43,0-13.474-6.044-13.474-13.474c0-4.466-3.62-8.084-8.084-8.084
	c-4.465,0-8.084,3.618-8.084,8.084c0,16.344,13.297,29.642,29.642,29.642h129.347c16.345,0,29.642-13.298,29.642-29.642v-28.316
	C442.454,435.264,512,353.602,512,256V83.537C512,38.782,476.618,2.142,432.359,0.099z M91.621,16.168H204.8v185.937
	c0,43.091-35.056,78.147-78.147,78.147c-19.316,0-35.032-15.715-35.032-35.032V16.168z M495.832,256
	c0,102.526-83.411,185.937-185.937,185.937H202.105C99.579,441.937,16.168,358.526,16.168,256V83.537
	c0-34.41,25.937-62.857,59.284-66.866v228.55c0,28.231,22.969,51.2,51.2,51.2c52.006,0,94.316-42.31,94.316-94.316V16.168h56.589
	v196.716c0,4.466,3.62,8.084,8.084,8.084s8.084-3.618,8.084-8.084V16.168h56.589v196.716c0,4.466,3.62,8.084,8.084,8.084
	c4.465,0,8.084-3.618,8.084-8.084V16.168h56.589v196.716c0,4.466,3.62,8.084,8.084,8.084c4.465,0,8.084-3.618,8.084-8.084V17.042
	c32.039,5.176,56.589,33.017,56.589,66.495V256z"/>
<g>
</g>
<g>
</g>
<g>
</g>
<g>
</g>
<g>
</g>
<g>
</g>
<g>
</g>
<g>
</g>
<g>
</g>
<g>
</g>
<g>
</g>
<g>
</g>
<g>
</g>
<g>
</g>
<g>
</g>
</svg>
