<?xml version="1.0" encoding="iso-8859-1"?>
<!-- Generator: Adobe Illustrator 19.0.0, SVG Export Plug-In . SVG Version: 6.00 Build 0)  -->
<svg version="1.1" id="Layer_1" xmlns="http://www.w3.org/2000/svg" xmlns:xlink="http://www.w3.org/1999/xlink" x="0px" y="0px"
	 viewBox="0 0 512 512" style="enable-background:new 0 0 512 512;" xml:space="preserve">
<path style="fill:#FFB150;" d="M220.717,180.547h-19.05c-8.886,0-16.089-7.239-16.089-16.168s7.204-16.168,16.089-16.168h16.089
	l-36.201-81.854c-3.153-7.128,2.039-15.156,9.801-15.156h58.577V29.642c0-11.906,9.604-21.558,21.452-21.558
	c11.847,0,21.452,9.651,21.452,21.558V51.2h58.577c7.762,0,12.954,8.028,9.801,15.156l-36.2,81.854h16.089
	c8.886,0,16.089,7.239,16.089,16.168s-7.204,16.168-16.089,16.168h-19.05c10.866,0,20.017,8.166,21.301,19.01l24.564,207.348
	H174.853l24.563-207.348C200.701,188.714,209.851,180.547,220.717,180.547z"/>
<path style="fill:#D18839;" d="M361.218,66.356l-36.201,81.854h16.089c8.886,0,16.089,7.239,16.089,16.168
	s-7.204,16.168-16.089,16.168h-72.121c-10.866,0-20.016,8.166-21.301,19.01L223.12,406.905h-48.267l24.563-207.348
	c1.285-10.844,10.435-19.01,21.301-19.01h-19.05c-8.886,0-16.089-7.239-16.089-16.168s7.204-16.168,16.089-16.168h16.089
	l-36.201-81.854c-3.153-7.128,2.039-15.156,9.801-15.156h58.577V29.642c0-11.906,9.604-21.558,21.452-21.558
	c11.847,0,21.452,9.651,21.452,21.558V51.2h58.577C359.178,51.2,364.369,59.228,361.218,66.356z"/>
<path style="fill:#B2682F;" d="M410.824,482.358L410.824,482.358c0,11.906-9.604,21.558-21.452,21.558H153.401
	c-11.847,0-21.452-9.651-21.452-21.558l0,0c0-11.906,9.604-21.558,21.452-21.558h48.267c-35.542,0-64.356-28.956-64.356-64.674l0,0
	c0-5.953,4.802-10.779,10.726-10.779h246.698c5.924,0,10.726,4.826,10.726,10.779l0,0c0,35.718-28.813,64.674-64.356,64.674h48.267
	C401.22,460.8,410.824,470.451,410.824,482.358z"/>
<path style="fill:#FFFFFF;" d="M325.745,339.503c-0.248,0.023-0.494,0.033-0.738,0.033c-4.114,0-7.623-3.154-8.002-7.351
	l-0.122-1.35c-0.402-4.446,2.859-8.378,7.283-8.783c4.424-0.404,8.337,2.872,8.74,7.32l0.122,1.347
	C333.431,335.166,330.17,339.099,325.745,339.503z M322.803,306.979c4.425-0.404,7.685-4.336,7.283-8.783l-7.783-86.044
	c-0.403-4.446-4.318-7.725-8.74-7.318c-4.425,0.404-7.685,4.335-7.283,8.783l7.784,86.042c0.379,4.198,3.888,7.353,8.002,7.353
	C322.309,307.012,322.556,307.001,322.803,306.979z"/>
<path style="fill:#D18839;" d="M406.164,396.126L406.164,396.126c0,0.166-0.001,0.331-0.002,0.497
	c-0.177,23.648-19.554,42.619-43.087,42.619h-85.624c-31.886,0-58.34-23.309-63.449-53.895h181.434
	C401.362,385.347,406.164,390.173,406.164,396.126z M410.753,480.947c-0.727-11.246-10.007-20.147-21.381-20.147h-48.267H201.668
	h-21.452c-5.924,0-10.726,4.826-10.726,10.779s4.802,10.779,10.726,10.779h225.245C407.388,482.358,409.191,481.84,410.753,480.947z
	"/>
<g>
	<path style="fill:#B2682F;" d="M356.259,169.768c-2.211,6.276-8.152,10.779-15.154,10.779H201.668
		c-8.886,0-16.089-7.239-16.089-16.168s7.204-16.168,16.089-16.168h16.089l-36.201-81.853c-3.153-7.128,2.039-15.157,9.801-15.157
		h37.541c-7.762,0-12.954,8.028-9.801,15.157l0,0c16.216,36.667,52.399,60.295,92.325,60.295h23.128l-9.534,21.558h-69.719v5.389
		c0,8.929,7.204,16.168,16.089,16.168H356.259z"/>
	<path style="fill:#B2682F;" d="M292.839,51.2h-42.903V35.032h42.903V51.2z"/>
</g>
<path d="M432.978,495.832h-16.644c2.064-4.046,3.237-8.623,3.237-13.474c0-16.344-13.232-29.642-29.497-29.642h-2.831
	c16.43-13.35,26.965-33.752,26.965-56.589c0-10.401-8.421-18.863-18.77-18.863h-22.225l-21.164-178.662
	c-0.468-3.948-1.702-7.637-3.532-10.93c10.054-2.929,17.426-12.259,17.426-23.292c0-13.372-10.826-24.253-24.133-24.253h-3.71
	l31.174-70.487c2.591-5.859,2.062-12.565-1.414-17.94c-3.479-5.373-9.363-8.583-15.742-8.583h-50.533V29.642
	C301.585,13.298,288.353,0,272.089,0s-29.497,13.298-29.497,29.642v13.474h-50.533c-6.379,0-12.262,3.21-15.738,8.584
	s-4.005,12.081-1.414,17.94l31.174,70.486h-3.71c-13.308,0-24.133,10.88-24.133,24.253c0,11.033,7.373,20.365,17.426,23.292
	c-1.83,3.293-3.064,6.982-3.532,10.93l-21.167,178.662H148.74c-10.35,0-18.77,8.463-18.77,18.863
	c0,22.838,10.533,43.24,26.965,56.589h-2.831c-16.264,0-29.497,13.298-29.497,29.642c0,4.851,1.173,9.427,3.237,13.474H111.2
	c-4.443,0-8.044,3.618-8.044,8.084S106.757,512,111.2,512h321.78c4.443,0,8.044-3.618,8.044-8.084S437.422,495.832,432.978,495.832z
	 M258.682,29.642c0-7.43,6.015-13.474,13.408-13.474s13.408,6.044,13.408,13.474v13.474h-26.815V29.642H258.682z M189.609,63.074
	c-0.514-1.163-0.094-2.105,0.203-2.563s0.982-1.227,2.248-1.227h160.058c1.267,0,1.952,0.769,2.248,1.227s0.717,1.4,0.203,2.563
	l-34.078,77.052h-96.805L189.609,63.074z M202.37,156.295h16.155c0.04,0,0.081,0.001,0.121,0h107.027
	c0.014,0,0.027,0.002,0.041,0.002c0.01,0,0.019-0.002,0.029-0.002h16.065c4.436,0,8.044,3.626,8.044,8.084s-3.609,8.084-8.044,8.084
	H202.37c-4.436,0-8.044-3.626-8.044-8.084S197.934,156.295,202.37,156.295z M208.106,200.512
	c0.802-6.773,6.527-11.881,13.314-11.881h101.338c6.788,0,12.511,5.107,13.314,11.881l20.938,176.751H187.168L208.106,200.512z
	 M140.695,482.358c0-7.43,6.015-13.474,13.408-13.474h128.711c4.443,0,8.044-3.618,8.044-8.084s-3.601-8.084-8.044-8.084H202.37
	c-31.05,0-56.311-25.387-56.311-56.589c0-1.486,1.203-2.695,2.682-2.695h29.361c0.005,0,0.012,0.001,0.017,0.001
	c0.008,0,0.015-0.001,0.023-0.001h187.895c0.008,0,0.015,0.001,0.023,0.001c0.005,0,0.012-0.001,0.017-0.001h29.361
	c1.479,0,2.682,1.208,2.682,2.695c0,31.203-25.262,56.589-56.311,56.589c-4.443,0-8.044,3.618-8.044,8.084s3.601,8.084,8.044,8.084
	h48.267c7.393,0,13.408,6.044,13.408,13.474s-6.015,13.474-13.408,13.474H154.103C146.71,495.832,140.695,489.788,140.695,482.358z
	 M88.138,503.916c0,4.466-3.601,8.084-8.044,8.084h-1.073c-4.443,0-8.044-3.618-8.044-8.084s3.601-8.084,8.044-8.084h1.073
	C84.537,495.832,88.138,499.45,88.138,503.916z M54.887,503.916c0,4.466-3.601,8.084-8.044,8.084h-1.073
	c-4.443,0-8.044-3.618-8.044-8.084s3.601-8.084,8.044-8.084h1.073C51.286,495.832,54.887,499.45,54.887,503.916z M474.274,503.916
	c0,4.466-3.601,8.084-8.044,8.084h-1.072c-4.443,0-8.044-3.618-8.044-8.084s3.601-8.084,8.044-8.084h1.072
	C470.672,495.832,474.274,499.45,474.274,503.916z M323.037,460.8c0,4.466-3.601,8.084-8.044,8.084h-1.072
	c-4.443,0-8.044-3.618-8.044-8.084s3.601-8.084,8.044-8.084h1.072C319.435,452.716,323.037,456.334,323.037,460.8z"/>
<g>
</g>
<g>
</g>
<g>
</g>
<g>
</g>
<g>
</g>
<g>
</g>
<g>
</g>
<g>
</g>
<g>
</g>
<g>
</g>
<g>
</g>
<g>
</g>
<g>
</g>
<g>
</g>
<g>
</g>
</svg>
