<?xml version="1.0" encoding="iso-8859-1"?>
<!-- Generator: Adobe Illustrator 19.0.0, SVG Export Plug-In . SVG Version: 6.00 Build 0)  -->
<svg version="1.1" id="Layer_1" xmlns="http://www.w3.org/2000/svg" xmlns:xlink="http://www.w3.org/1999/xlink" x="0px" y="0px"
	 viewBox="0 0 512 512" style="enable-background:new 0 0 512 512;" xml:space="preserve">
<path style="fill:#F96800;" d="M309.895,342.232H202.105c-5.953,0-10.779-4.826-10.779-10.779v-43.116
	c0-5.953,4.826-10.779,10.779-10.779h107.789c5.953,0,10.779,4.826,10.779,10.779v43.116
	C320.674,337.406,315.848,342.232,309.895,342.232z"/>
<path style="fill:#659F00;" d="M482.358,309.895H29.642c-11.906,0-21.558-9.651-21.558-21.558V29.642
	c0-11.906,9.651-21.558,21.558-21.558h452.716c11.906,0,21.558,9.651,21.558,21.558v258.695
	C503.916,300.243,494.264,309.895,482.358,309.895z"/>
<path style="fill:#547A00;" d="M256,309.895H29.642c-11.906,0-21.558-9.651-21.558-21.558V29.642
	c0-11.906,9.651-21.558,21.558-21.558H256V309.895z"/>
<path style="fill:#004859;" d="M503.916,72.758H8.084V29.642c0-11.906,9.651-21.558,21.558-21.558h452.716
	c11.906,0,21.558,9.651,21.558,21.558V72.758z"/>
<path style="fill:#A80000;" d="M256,72.758H8.084V29.642c0-11.906,9.651-21.558,21.558-21.558H256V72.758z"/>
<path style="fill:#FFFFFF;" d="M264.084,209.381v1.078c0,4.465-3.62,8.084-8.084,8.084c-4.465,0-8.084-3.62-8.084-8.084v-1.078
	c0-4.465,3.62-8.084,8.084-8.084C260.465,201.297,264.084,204.916,264.084,209.381z M158.989,253.305h-13.474V121.263
	c0-3.108-1.782-5.94-4.582-7.287c-2.801-1.345-6.125-0.968-8.552,0.973l-53.895,43.116c-3.487,2.789-4.052,7.876-1.262,11.363
	c2.79,3.487,7.878,4.053,11.363,1.262l40.76-32.608v115.223H94.316c-4.465,0-8.084,3.62-8.084,8.084s3.62,8.084,8.084,8.084h64.674
	c4.465,0,8.084-3.62,8.084-8.084S163.454,253.305,158.989,253.305z M256,164.109c-4.465,0-8.084,3.62-8.084,8.084v1.078
	c0,4.465,3.62,8.084,8.084,8.084c4.465,0,8.084-3.62,8.084-8.084v-1.078C264.084,167.729,260.465,164.109,256,164.109z
	 M425.768,132.042v118.568c0,10.401-8.463,18.863-18.863,18.863H353.01c-10.401,0-18.863-8.463-18.863-18.863V132.042
	c0-10.401,8.463-18.863,18.863-18.863h53.895C417.306,113.179,425.768,121.641,425.768,132.042z M409.6,132.042
	c0-1.485-1.209-2.695-2.695-2.695H353.01c-1.485,0-2.695,1.209-2.695,2.695v118.568c0,1.485,1.209,2.695,2.695,2.695h53.895
	c1.485,0,2.695-1.209,2.695-2.695V132.042z"/>
<path d="M134.737,503.916c0,4.465-3.618,8.084-8.084,8.084h-1.078c-4.466,0-8.084-3.62-8.084-8.084s3.618-8.084,8.084-8.084h1.078
	C131.118,495.832,134.737,499.451,134.737,503.916z M83.537,495.832h-1.078c-4.466,0-8.084,3.62-8.084,8.084S77.993,512,82.459,512
	h1.078c4.466,0,8.084-3.62,8.084-8.084S88.003,495.832,83.537,495.832z M512,29.642v258.695c0,16.345-13.298,29.642-29.642,29.642
	h-153.6v13.474c0,10.401-8.463,18.863-18.863,18.863h-45.811v145.516h88.926c4.466,0,8.084,3.62,8.084,8.084S357.476,512,353.01,512
	H158.989c-4.466,0-8.084-3.62-8.084-8.084s3.618-8.084,8.084-8.084h88.926V350.316h-45.811c-10.401,0-18.863-8.463-18.863-18.863
	v-13.474h-153.6C13.298,317.979,0,304.682,0,288.337V29.642C0,13.297,13.298,0,29.642,0h452.716C498.702,0,512,13.297,512,29.642z
	 M16.168,29.642v35.032h479.663V29.642c0-7.43-6.044-13.474-13.474-13.474H29.642C22.212,16.168,16.168,22.212,16.168,29.642z
	 M312.589,317.979H199.411v13.474c0,1.485,1.208,2.695,2.695,2.695h107.789c1.486,0,2.695-1.209,2.695-2.695V317.979z
	 M495.832,288.337V80.842H264.084v56.589c0,4.465-3.618,8.084-8.084,8.084s-8.084-3.62-8.084-8.084V80.842H16.168v207.495
	c0,7.43,6.044,13.474,13.474,13.474h218.274v-56.589c0-4.465,3.618-8.084,8.084-8.084s8.084,3.62,8.084,8.084v56.589h218.274
	C489.788,301.811,495.832,295.767,495.832,288.337z M51.2,48.505h161.684c4.466,0,8.084-3.62,8.084-8.084s-3.618-8.084-8.084-8.084
	H51.2c-4.466,0-8.084,3.62-8.084,8.084S46.734,48.505,51.2,48.505z M299.116,48.505H460.8c4.466,0,8.084-3.62,8.084-8.084
	s-3.618-8.084-8.084-8.084H299.116c-4.466,0-8.084,3.62-8.084,8.084S294.65,48.505,299.116,48.505z"/>
<g>
</g>
<g>
</g>
<g>
</g>
<g>
</g>
<g>
</g>
<g>
</g>
<g>
</g>
<g>
</g>
<g>
</g>
<g>
</g>
<g>
</g>
<g>
</g>
<g>
</g>
<g>
</g>
<g>
</g>
</svg>
