<?xml version="1.0" encoding="iso-8859-1"?>
<!-- Generator: Adobe Illustrator 19.0.0, SVG Export Plug-In . SVG Version: 6.00 Build 0)  -->
<svg version="1.1" id="Layer_1" xmlns="http://www.w3.org/2000/svg" xmlns:xlink="http://www.w3.org/1999/xlink" x="0px" y="0px"
	 viewBox="0 0 512 512" style="enable-background:new 0 0 512 512;" xml:space="preserve">
<path style="fill:#4F2000;" d="M158.989,288.337h-43.116c-5.953,0-10.779-4.826-10.779-10.779v-42.757h64.674v42.757
	C169.768,283.511,164.943,288.337,158.989,288.337z M406.905,277.558v-42.757h-64.674v42.757c0,5.953,4.826,10.779,10.779,10.779
	h43.116C402.08,288.337,406.905,283.511,406.905,277.558z"/>
<path style="fill:#8C1A00;" d="M460.8,256H51.2c-23.812,0-43.116-19.304-43.116-43.116v-64.674
	c0-23.812,19.304-43.116,43.116-43.116h409.6c23.812,0,43.116,19.304,43.116,43.116v64.674C503.916,236.696,484.612,256,460.8,256z"
	/>
<path style="fill:#BF4D00;" d="M466.189,256H45.811c-20.836,0-37.726-16.891-37.726-37.726l0,0
	c0-20.836,16.891-37.726,37.726-37.726h420.379c20.836,0,37.726,16.891,37.726,37.726l0,0C503.916,239.109,487.025,256,466.189,256z
	"/>
<path style="fill:#007DBC;" d="M148.211,51.2h-21.558c-11.906,0-21.558-9.651-21.558-21.558l0,0
	c0-11.906,9.651-21.558,21.558-21.558h21.558c11.906,0,21.558,9.651,21.558,21.558l0,0C169.768,41.549,160.117,51.2,148.211,51.2z
	 M406.905,29.642L406.905,29.642c0-11.906-9.651-21.558-21.558-21.558h-21.558c-11.906,0-21.558,9.651-21.558,21.558l0,0
	c0,11.906,9.651,21.558,21.558,21.558h21.558C397.254,51.2,406.905,41.549,406.905,29.642z"/>
<path style="fill:#3D3D3D;" d="M202.105,487.747c0,8.929-7.239,16.168-16.168,16.168H88.926c-8.929,0-16.168-7.239-16.168-16.168
	c0-8.929,7.239-16.168,16.168-16.168h97.011C194.866,471.579,202.105,478.818,202.105,487.747z M423.074,471.579h-97.011
	c-8.929,0-16.168,7.239-16.168,16.168c0,8.929,7.239,16.168,16.168,16.168h97.011c8.929,0,16.168-7.239,16.168-16.168
	C439.242,478.818,432.003,471.579,423.074,471.579z"/>
<path style="fill:#FFFFFF;" d="M468.884,158.989v21.558c0,4.465-3.62,8.084-8.084,8.084c-4.465,0-8.084-3.62-8.084-8.084v-21.558
	c0-1.485-1.209-2.695-2.695-2.695H299.116c-4.465,0-8.084-3.62-8.084-8.084c0-4.465,3.62-8.084,8.084-8.084h150.905
	C460.422,140.126,468.884,148.589,468.884,158.989z M256.539,140.126h-1.078c-4.465,0-8.084,3.62-8.084,8.084
	c0,4.465,3.62,8.084,8.084,8.084h1.078c4.465,0,8.084-3.62,8.084-8.084C264.623,143.746,261.004,140.126,256.539,140.126z"/>
<path d="M460.8,97.011h-24.253V61.979c0-15.299-8.429-28.938-21.772-35.846C413.032,11.438,400.504,0,385.347,0h-21.558
	c-15.162,0-27.693,11.445-29.429,26.146c-13.174,6.894-21.771,20.76-21.771,35.832v35.032H199.411V61.979
	c0-15.199-8.557-28.984-21.775-35.864C175.884,11.428,163.361,0,148.211,0h-21.558c-15.156,0-27.685,11.436-29.427,26.131
	C83.88,33.039,75.453,46.67,75.453,61.979v35.032H51.2c-28.231,0-51.2,22.969-51.2,51.2v64.674c0,28.231,22.969,51.2,51.2,51.2
	h45.811v13.474c0,10.401,8.463,18.863,18.863,18.863h13.474v167.074H88.926c-13.373,0-24.253,10.88-24.253,24.253
	c0,2.834,0.494,5.553,1.39,8.084H40.421c-4.465,0-8.084,3.618-8.084,8.084S35.956,512,40.421,512h431.158
	c4.465,0,8.084-3.618,8.084-8.084s-3.62-8.084-8.084-8.084h-25.643c0.898-2.531,1.391-5.25,1.391-8.084
	c0-13.372-10.879-24.253-24.253-24.253h-40.421V296.421h13.474c10.401,0,18.863-8.463,18.863-18.863v-13.474H460.8
	c28.231,0,51.2-22.969,51.2-51.2v-64.674C512,119.979,489.031,97.011,460.8,97.011z M363.789,16.168h21.558
	c7.43,0,13.474,6.044,13.474,13.474s-6.044,13.474-13.474,13.474h-21.558c-7.43,0-13.474-6.044-13.474-13.474
	S356.36,16.168,363.789,16.168z M328.758,61.979c0-7.277,3.343-14.086,8.763-18.627c4.957,9.46,14.868,15.932,26.268,15.932h21.558
	c11.414,0,21.336-6.49,26.287-15.968c5.461,4.515,8.745,11.267,8.745,18.663v35.032h-91.621V61.979z M126.653,16.168h21.558
	c7.43,0,13.474,6.044,13.474,13.474s-6.044,13.474-13.474,13.474h-21.558c-7.43,0-13.474-6.044-13.474-13.474
	S119.223,16.168,126.653,16.168z M91.621,61.979c0-7.401,3.283-14.15,8.744-18.664c4.952,9.479,14.873,15.969,26.288,15.969h21.558
	c11.404,0,21.319-6.478,26.274-15.943c5.426,4.525,8.758,11.302,8.758,18.638v35.032H91.621V61.979z M113.179,277.558v-13.474
	h48.505v13.474c0,1.486-1.209,2.695-2.695,2.695h-43.116C114.388,280.253,113.179,279.044,113.179,277.558z M80.842,487.747
	c0-4.458,3.626-8.084,8.084-8.084h97.011c4.458,0,8.084,3.626,8.084,8.084s-3.626,8.084-8.084,8.084H88.926
	C84.468,495.832,80.842,492.206,80.842,487.747z M431.158,487.747c0,4.458-3.626,8.084-8.084,8.084h-97.011
	c-4.458,0-8.084-3.626-8.084-8.084s3.626-8.084,8.084-8.084h97.011C427.532,479.663,431.158,483.289,431.158,487.747z
	 M366.484,463.495h-40.421c-13.373,0-24.253,10.88-24.253,24.253c0,2.834,0.494,5.553,1.391,8.084h-94.402
	c0.898-2.531,1.39-5.25,1.39-8.084c0-13.372-10.879-24.253-24.253-24.253h-40.421V296.421h13.474
	c10.401,0,18.863-8.463,18.863-18.863v-13.474h156.295v13.474c0,10.401,8.463,18.863,18.863,18.863h13.474V463.495z
	 M398.821,277.558c0,1.486-1.209,2.695-2.695,2.695H353.01c-1.485,0-2.695-1.208-2.695-2.695v-13.474h48.505V277.558z
	 M495.832,212.884c0,19.317-15.716,35.032-35.032,35.032H51.2c-19.316,0-35.032-15.715-35.032-35.032v-64.674
	c0-19.317,15.716-35.032,35.032-35.032h409.6c19.316,0,35.032,15.715,35.032,35.032V212.884z M17.246,503.916
	c0,4.466-3.62,8.084-8.084,8.084H8.084C3.62,512,0,508.382,0,503.916s3.62-8.084,8.084-8.084h1.078
	C13.627,495.832,17.246,499.45,17.246,503.916z M512,503.916c0,4.466-3.62,8.084-8.084,8.084h-1.078
	c-4.465,0-8.084-3.618-8.084-8.084s3.62-8.084,8.084-8.084h1.078C508.38,495.832,512,499.45,512,503.916z"/>
<g>
</g>
<g>
</g>
<g>
</g>
<g>
</g>
<g>
</g>
<g>
</g>
<g>
</g>
<g>
</g>
<g>
</g>
<g>
</g>
<g>
</g>
<g>
</g>
<g>
</g>
<g>
</g>
<g>
</g>
</svg>
