<?xml version="1.0" encoding="iso-8859-1"?>
<!-- Generator: Adobe Illustrator 19.0.0, SVG Export Plug-In . SVG Version: 6.00 Build 0)  -->
<svg version="1.1" id="Layer_1" xmlns="http://www.w3.org/2000/svg" xmlns:xlink="http://www.w3.org/1999/xlink" x="0px" y="0px"
	 viewBox="0 0 512 512" style="enable-background:new 0 0 512 512;" xml:space="preserve">
<path style="fill:#BCBCBC;" d="M482.358,503.916H29.642c-11.906,0-21.558-9.651-21.558-21.558V29.642
	c0-11.906,9.651-21.558,21.558-21.558h452.716c11.906,0,21.558,9.651,21.558,21.558v452.716
	C503.916,494.264,494.264,503.916,482.358,503.916z"/>
<path style="fill:#E2E2E2;" d="M450.021,72.758v118.568v129.347v118.568c0,5.953-4.826,10.779-10.779,10.779H320.674H191.326H72.758
	c-5.953,0-10.779-4.826-10.779-10.779V320.674V191.326V72.758c0-5.953,4.826-10.779,10.779-10.779h118.568h129.347h118.568
	C445.195,61.979,450.021,66.805,450.021,72.758z"/>
<path style="fill:#002E35;" d="M320.674,320.674H191.326V191.326h129.347V320.674z M191.326,61.979H72.758
	c-5.953,0-10.779,4.826-10.779,10.779v118.568h129.347V61.979z M450.021,72.758c0-5.953-4.826-10.779-10.779-10.779H320.674v129.347
	h129.347V72.758z M191.326,320.674H61.979v118.568c0,5.953,4.826,10.779,10.779,10.779h118.568V320.674z M450.021,439.242V320.674
	H320.674v129.347h118.568C445.195,450.021,450.021,445.195,450.021,439.242z"/>
<path d="M439.242,53.895H72.758c-10.401,0-18.863,8.463-18.863,18.863v366.484c0,10.401,8.463,18.863,18.863,18.863h366.484
	c10.401,0,18.863-8.463,18.863-18.863V72.758C458.105,62.357,449.643,53.895,439.242,53.895z M199.411,312.589V199.411h113.179
	v113.179H199.411z M312.589,328.758v113.179H199.411V328.758H312.589z M70.063,199.411h113.179v113.179H70.063V199.411z
	 M199.411,183.242V70.063h113.179v113.179H199.411z M328.758,199.411h113.179v113.179H328.758V199.411z M441.937,72.758v110.484
	H328.758V70.063h110.484C440.727,70.063,441.937,71.271,441.937,72.758z M72.758,70.063h110.484v113.179H70.063V72.758
	C70.063,71.271,71.273,70.063,72.758,70.063z M70.063,439.242V328.758h113.179v113.179H72.758
	C71.273,441.937,70.063,440.728,70.063,439.242z M439.242,441.937H328.758V328.758h113.179v110.484
	C441.937,440.728,440.727,441.937,439.242,441.937z M482.358,0H29.642C13.297,0,0,13.298,0,29.642v452.716
	C0,498.702,13.297,512,29.642,512h452.716C498.703,512,512,498.702,512,482.358V29.642C512,13.298,498.703,0,482.358,0z
	 M495.832,482.358c0,7.43-6.044,13.474-13.474,13.474H29.642c-7.43,0-13.474-6.044-13.474-13.474V29.642
	c0-7.43,6.044-13.474,13.474-13.474h452.716c7.43,0,13.474,6.044,13.474,13.474V482.358z"/>
<g>
</g>
<g>
</g>
<g>
</g>
<g>
</g>
<g>
</g>
<g>
</g>
<g>
</g>
<g>
</g>
<g>
</g>
<g>
</g>
<g>
</g>
<g>
</g>
<g>
</g>
<g>
</g>
<g>
</g>
</svg>
