<?xml version="1.0" encoding="iso-8859-1"?>
<!-- Generator: Adobe Illustrator 19.0.0, SVG Export Plug-In . SVG Version: 6.00 Build 0)  -->
<svg version="1.1" id="Layer_1" xmlns="http://www.w3.org/2000/svg" xmlns:xlink="http://www.w3.org/1999/xlink" x="0px" y="0px"
	 viewBox="0 0 512 512" style="enable-background:new 0 0 512 512;" xml:space="preserve">
<path style="fill:#8C1A00;" d="M450.021,29.642v452.716c0,11.906-9.651,21.558-21.558,21.558H83.537
	c-11.906,0-21.558-9.651-21.558-21.558V29.642c0-11.906,9.651-21.558,21.558-21.558h344.926
	C440.37,8.084,450.021,17.736,450.021,29.642z"/>
<path style="fill:#659F00;" d="M406.905,61.979v388.042c0,5.953-4.826,10.779-10.779,10.779H115.874
	c-5.953,0-10.779-4.826-10.779-10.779V61.979c0-5.953,4.826-10.779,10.779-10.779h280.253
	C402.08,51.2,406.905,56.026,406.905,61.979z"/>
<path style="fill:#496300;" d="M137.432,460.8h-21.558c-5.953,0-10.779-4.826-10.779-10.779V61.979
	c0-5.953,4.826-10.779,10.779-10.779h280.253c5.953,0,10.779,4.826,10.779,10.779v21.558H148.211
	c-5.953,0-10.779,4.826-10.779,10.779V460.8z"/>
<path style="fill:#4F2000;" d="M148.211,256c0,14.882-12.065,26.947-26.947,26.947S94.316,270.882,94.316,256
	s12.065-26.947,26.947-26.947S148.211,241.117,148.211,256z M121.263,417.684c-14.882,0-26.947,12.065-26.947,26.947
	s12.065,26.947,26.947,26.947s26.947-12.065,26.947-26.947S136.146,417.684,121.263,417.684z M121.263,40.421
	c-14.882,0-26.947,12.065-26.947,26.947s12.065,26.947,26.947,26.947s26.947-12.065,26.947-26.947S136.146,40.421,121.263,40.421z
	 M390.737,229.053c-14.882,0-26.947,12.065-26.947,26.947s12.065,26.947,26.947,26.947c14.883,0,26.947-12.065,26.947-26.947
	S405.619,229.053,390.737,229.053z M390.737,417.684c-14.882,0-26.947,12.065-26.947,26.947s12.065,26.947,26.947,26.947
	c14.883,0,26.947-12.065,26.947-26.947S405.619,417.684,390.737,417.684z M390.737,94.316c14.883,0,26.947-12.065,26.947-26.947
	s-12.065-26.947-26.947-26.947c-14.882,0-26.947,12.065-26.947,26.947S375.854,94.316,390.737,94.316z"/>
<path style="fill:#FFFFA9;" d="M406.905,334.147h-97.011H202.105h-97.011v16.168h89.471c3.976,30.366,30.001,53.895,61.435,53.895
	s57.458-23.528,61.435-53.895h89.471V334.147z M256,388.042c-22.501,0-41.267-16.309-45.096-37.726h90.193
	C297.267,371.734,278.501,388.042,256,388.042z"/>
<path style="fill:#E1DE9C;" d="M137.432,350.316h-32.337v-16.168h32.337V350.316z"/>
<path d="M428.463,0H83.537C67.192,0,53.895,13.298,53.895,29.642v452.716c0,16.344,13.297,29.642,29.642,29.642h344.926
	c16.345,0,29.642-13.298,29.642-29.642V29.642C458.105,13.298,444.808,0,428.463,0z M441.937,482.358
	c0,7.43-6.044,13.474-13.474,13.474H83.537c-7.43,0-13.474-6.044-13.474-13.474V29.642c0-7.43,6.044-13.474,13.474-13.474h344.926
	c7.43,0,13.474,6.044,13.474,13.474V482.358z M425.768,67.368c0-19.317-15.716-35.032-35.032-35.032
	c-9.909,0-18.864,4.143-25.243,10.779H146.506c-6.378-6.636-15.333-10.779-25.243-10.779c-19.316,0-35.032,15.715-35.032,35.032
	c0,9.909,4.142,18.864,10.779,25.243v138.145c-6.637,6.379-10.779,15.334-10.779,25.243c0,9.909,4.142,18.864,10.779,25.243v138.145
	c-6.637,6.379-10.779,15.334-10.779,25.243c0,19.317,15.716,35.032,35.032,35.032c9.909,0,18.864-4.143,25.243-10.779h218.988
	c6.378,6.636,15.333,10.779,25.243,10.779c19.316,0,35.032-15.715,35.032-35.032c0-9.909-4.142-18.864-10.779-25.243V281.243
	c6.637-6.379,10.779-15.334,10.779-25.243c0-9.909-4.142-18.864-10.779-25.243V92.612C421.626,86.233,425.768,77.278,425.768,67.368
	z M390.737,48.505c10.401,0,18.863,8.463,18.863,18.863s-8.463,18.863-18.863,18.863c-10.401,0-18.863-8.463-18.863-18.863
	S380.336,48.505,390.737,48.505z M121.263,48.505c10.401,0,18.863,8.463,18.863,18.863s-8.463,18.863-18.863,18.863
	S102.4,77.769,102.4,67.368S110.863,48.505,121.263,48.505z M102.4,256c0-10.401,8.463-18.863,18.863-18.863
	s18.863,8.463,18.863,18.863c0,10.401-8.463,18.863-18.863,18.863S102.4,266.401,102.4,256z M121.263,463.495
	c-10.401,0-18.863-8.463-18.863-18.863s8.463-18.863,18.863-18.863s18.863,8.463,18.863,18.863S131.664,463.495,121.263,463.495z
	 M390.737,463.495c-10.401,0-18.863-8.463-18.863-18.863s8.463-18.863,18.863-18.863c10.401,0,18.863,8.463,18.863,18.863
	S401.137,463.495,390.737,463.495z M409.6,256c0,10.401-8.463,18.863-18.863,18.863c-10.401,0-18.863-8.463-18.863-18.863
	c0-10.401,8.463-18.863,18.863-18.863C401.137,237.137,409.6,245.599,409.6,256z M398.821,221.92
	c-2.597-0.615-5.301-0.952-8.084-0.952c-19.316,0-35.032,15.715-35.032,35.032s15.716,35.032,35.032,35.032
	c2.783,0,5.488-0.336,8.084-0.952v120.472c-2.597-0.615-5.301-0.952-8.084-0.952c-19.316,0-35.032,15.715-35.032,35.032
	c0,2.783,0.336,5.488,0.952,8.084H155.343c0.617-2.597,0.952-5.301,0.952-8.084c0-19.317-15.716-35.032-35.032-35.032
	c-2.783,0-5.488,0.336-8.084,0.952V290.08c2.597,0.615,5.301,0.952,8.084,0.952c19.316,0,35.032-15.715,35.032-35.032
	s-15.716-35.032-35.032-35.032c-2.783,0-5.488,0.336-8.084,0.952V101.448c2.597,0.615,5.301,0.952,8.084,0.952
	c19.316,0,35.032-15.715,35.032-35.032c0-2.783-0.336-5.488-0.952-8.084h201.314c-0.617,2.597-0.952,5.301-0.952,8.084
	c0,19.317,15.716,35.032,35.032,35.032c2.783,0,5.488-0.336,8.084-0.952V221.92z"/>
<g>
</g>
<g>
</g>
<g>
</g>
<g>
</g>
<g>
</g>
<g>
</g>
<g>
</g>
<g>
</g>
<g>
</g>
<g>
</g>
<g>
</g>
<g>
</g>
<g>
</g>
<g>
</g>
<g>
</g>
</svg>
