<?xml version="1.0" encoding="iso-8859-1"?>
<!-- Generator: Adobe Illustrator 19.0.0, SVG Export Plug-In . SVG Version: 6.00 Build 0)  -->
<svg version="1.1" id="Layer_1" xmlns="http://www.w3.org/2000/svg" xmlns:xlink="http://www.w3.org/1999/xlink" x="0px" y="0px"
	 viewBox="0 0 512 512" style="enable-background:new 0 0 512 512;" xml:space="preserve">
<path style="fill:#002E35;" d="M503.916,212.884V460.8c0,23.812-19.304,43.116-43.116,43.116H51.2
	c-23.812,0-43.116-19.304-43.116-43.116V212.884c0-23.812,19.304-43.116,43.116-43.116h409.6
	C484.612,169.768,503.916,189.071,503.916,212.884z"/>
<path style="fill:#004859;" d="M503.916,212.884v21.558c0,23.812-19.304,43.116-43.116,43.116H51.2
	c-23.812,0-43.116-19.304-43.116-43.116v-21.558c0-23.812,19.304-43.116,43.116-43.116h409.6
	C484.612,169.768,503.916,189.071,503.916,212.884z"/>
<path style="fill:#659F00;" d="M158.989,503.916h-53.895V61.979c0-23.812,19.304-43.116,43.116-43.116h10.779V503.916z
	 M363.789,18.863H353.01v485.053h53.895V61.979C406.905,38.166,387.601,18.863,363.789,18.863z"/>
<path style="fill:#266DAD;" d="M158.989,299.116h-53.895c-5.953,0-10.779-4.826-10.779-10.779v-43.116
	c0-5.953,4.826-10.779,10.779-10.779h53.895c5.953,0,10.779,4.826,10.779,10.779v43.116
	C169.768,294.29,164.943,299.116,158.989,299.116z M417.684,288.337v-43.116c0-5.953-4.826-10.779-10.779-10.779H353.01
	c-5.953,0-10.779,4.826-10.779,10.779v43.116c0,5.953,4.826,10.779,10.779,10.779h53.895
	C412.858,299.116,417.684,294.29,417.684,288.337z"/>
<path style="fill:#B5CE00;" d="M406.905,72.758H105.095V61.979c0-23.812,19.304-43.116,43.116-43.116h215.579
	c23.812,0,43.116,19.304,43.116,43.116V72.758z"/>
<path style="fill:#007DBC;" d="M309.895,83.537H202.105c-5.953,0-10.779-4.826-10.779-10.779V18.863
	c0-5.953,4.826-10.779,10.779-10.779h107.789c5.953,0,10.779,4.826,10.779,10.779v53.895
	C320.674,78.711,315.848,83.537,309.895,83.537z"/>
<path style="fill:#266DAD;" d="M320.674,40.421v32.337c0,5.953-4.826,10.779-10.779,10.779H202.105
	c-5.953,0-10.779-4.826-10.779-10.779V40.421c0,5.953,4.826,10.779,10.779,10.779h107.789
	C315.848,51.2,320.674,46.374,320.674,40.421z"/>
<path style="fill:#F7A246;" d="M277.558,460.8h-43.116c-11.906,0-21.558-9.651-21.558-21.558v-10.779
	c0-11.906,9.651-21.558,21.558-21.558h43.116c11.906,0,21.558,9.651,21.558,21.558v10.779
	C299.116,451.148,289.464,460.8,277.558,460.8z"/>
<path style="fill:#007DBC;" d="M148.211,234.442v32.337c0,5.953-4.826,10.779-10.779,10.779H94.316v-32.337
	c0-5.953,4.826-10.779,10.779-10.779H148.211z M353.01,234.442c-5.953,0-10.779,4.826-10.779,10.779v32.337h43.116
	c5.953,0,10.779-4.826,10.779-10.779v-32.337H353.01z"/>
<path d="M460.8,161.684h-45.811V72.758V61.979c0-28.231-22.969-51.2-51.2-51.2h-36.878C323.876,4.417,317.4,0,309.895,0H202.105
	c-7.505,0-13.982,4.417-17.017,10.779h-36.878c-28.231,0-51.2,22.969-51.2,51.2v10.779v88.926H51.2c-28.231,0-51.2,22.969-51.2,51.2
	V460.8C0,489.031,22.969,512,51.2,512h301.81h53.895H460.8c28.231,0,51.2-22.969,51.2-51.2V212.884
	C512,184.653,489.031,161.684,460.8,161.684z M460.8,177.853c19.317,0,35.032,15.715,35.032,35.032v21.558
	c0,19.317-15.715,35.032-35.032,35.032h-35.032v-24.253c0-7.505-4.417-13.982-10.779-17.017v-50.352H460.8z M185.089,80.842
	c3.035,6.362,9.511,10.779,17.017,10.779h107.789c7.505,0,13.982-4.417,17.017-10.779h18.015v80.842H167.074V80.842H185.089z
	 M398.821,80.842v145.516h-37.726V80.842H398.821z M334.147,245.221v24.253H177.853v-24.253c0-7.505-4.417-13.982-10.779-17.017
	v-50.352h177.853v50.352C338.565,231.239,334.147,237.716,334.147,245.221z M105.095,291.032c-1.486,0-2.695-1.208-2.695-2.695
	v-43.116c0-1.486,1.208-2.695,2.695-2.695h53.895c1.486,0,2.695,1.208,2.695,2.695v43.116c0,1.486-1.208,2.695-2.695,2.695H105.095z
	 M150.905,226.358h-37.726V80.842h37.726V226.358z M113.179,307.2h37.726v188.632h-37.726V307.2z M167.074,305.354
	c6.362-3.034,10.779-9.511,10.779-17.017v-2.695h156.295v2.695c0,7.505,4.417,13.982,10.779,17.017v190.478H167.074V305.354z
	 M353.01,291.032c-1.486,0-2.695-1.208-2.695-2.695v-43.116c0-1.486,1.208-2.695,2.695-2.695h53.895
	c1.486,0,2.695,1.208,2.695,2.695v43.116c0,1.486-1.208,2.695-2.695,2.695H353.01z M398.821,61.979v2.695h-70.063V26.947h35.032
	C383.106,26.947,398.821,42.662,398.821,61.979z M202.105,16.168h107.789c1.486,0,2.695,1.208,2.695,2.695v53.895
	c0,1.486-1.208,2.695-2.695,2.695H202.105c-1.486,0-2.695-1.208-2.695-2.695V18.863C199.411,17.377,200.619,16.168,202.105,16.168z
	 M113.179,61.979c0-19.317,15.715-35.032,35.032-35.032h35.032v37.726h-70.063V61.979z M16.168,212.884
	c0-19.317,15.715-35.032,35.032-35.032h45.811v50.352c-6.362,3.034-10.779,9.511-10.779,17.017v24.253H51.2
	c-19.317,0-35.032-15.715-35.032-35.032V212.884z M16.168,460.8V271.731c9.166,8.616,21.489,13.911,35.032,13.911h35.032v2.695
	c0,7.505,4.417,13.982,10.779,17.017v190.478H51.2C31.883,495.832,16.168,480.117,16.168,460.8z M361.095,495.832V307.2h37.726
	v188.632H361.095z M460.8,495.832h-45.811V305.354c6.362-3.034,10.779-9.511,10.779-17.017v-2.695H460.8
	c13.543,0,25.865-5.296,35.032-13.911V460.8C495.832,480.117,480.117,495.832,460.8,495.832z M277.558,398.821h-43.116
	c-16.344,0-29.642,13.298-29.642,29.642v10.779c0,16.344,13.298,29.642,29.642,29.642h43.116c16.344,0,29.642-13.298,29.642-29.642
	v-10.779C307.2,412.119,293.902,398.821,277.558,398.821z M291.032,439.242c0,7.43-6.044,13.474-13.474,13.474h-43.116
	c-7.43,0-13.474-6.044-13.474-13.474v-10.779c0-7.43,6.044-13.474,13.474-13.474h43.116c7.43,0,13.474,6.044,13.474,13.474V439.242z
	 M323.368,320.674c0,4.466-3.618,8.084-8.084,8.084H307.2v13.474c0,4.466-3.618,8.084-8.084,8.084s-8.084-3.618-8.084-8.084v-13.474
	h-94.316c-4.466,0-8.084-3.618-8.084-8.084s3.618-8.084,8.084-8.084h118.568C319.75,312.589,323.368,316.208,323.368,320.674z"/>
<g>
</g>
<g>
</g>
<g>
</g>
<g>
</g>
<g>
</g>
<g>
</g>
<g>
</g>
<g>
</g>
<g>
</g>
<g>
</g>
<g>
</g>
<g>
</g>
<g>
</g>
<g>
</g>
<g>
</g>
</svg>
