<?xml version="1.0" encoding="iso-8859-1"?>
<!-- Generator: Adobe Illustrator 19.0.0, SVG Export Plug-In . SVG Version: 6.00 Build 0)  -->
<svg version="1.1" id="Layer_1" xmlns="http://www.w3.org/2000/svg" xmlns:xlink="http://www.w3.org/1999/xlink" x="0px" y="0px"
	 viewBox="0 0 512 512" style="enable-background:new 0 0 512 512;" xml:space="preserve">
<path style="fill:#F96800;" d="M189.477,185.937h46.497c11.906,0,21.558,9.651,21.558,21.558v9.643c0,7.415-3.81,14.31-10.09,18.254
	l-95.454,59.969c-8.516,5.351-19.6,4.101-26.712-3.011L17.013,184.088c-5.717-5.717-8.929-13.473-8.929-21.558l0,0
	c0-16.838,13.649-30.488,30.488-30.488h79.151c5.717,0,11.2,2.271,15.244,6.314l41.266,41.266
	C178.276,183.666,183.759,185.937,189.477,185.937z"/>
<path style="fill:#F93100;" d="M174.005,281.528l-98.472-98.472c-5.717-5.717-8.929-13.473-8.929-21.558
	c0-14.115,9.594-25.985,22.615-29.456h28.506c5.717,0,11.2,2.271,15.244,6.314l41.266,41.266c4.043,4.043,9.526,6.314,15.244,6.314
	h46.497c11.906,0,21.558,9.651,21.558,21.558v9.642c0,7.415-3.81,14.31-10.089,18.254L174.005,281.528z"/>
<path style="fill:#1A6399;" d="M94.316,444.632c-47.625,0-86.232-38.607-86.232-86.232s38.607-86.232,86.232-86.232
	s86.232,38.607,86.232,86.232S141.94,444.632,94.316,444.632z"/>
<path style="fill:#F9A100;" d="M94.316,395.357c-20.41,0-36.957-16.546-36.957-36.957c0-20.411,16.546-36.957,36.957-36.957
	s36.957,16.546,36.957,36.957C131.272,378.811,114.726,395.357,94.316,395.357z"/>
<path style="fill:#F9B300;" d="M94.316,321.443c4.588,0,8.976,0.842,13.029,2.369c1.527,4.053,2.369,8.442,2.369,13.029
	c0,20.41-16.546,36.957-36.957,36.957c-4.588,0-8.976-0.842-13.029-2.369c-1.527-4.053-2.369-8.442-2.369-13.029
	C57.359,337.99,73.906,321.443,94.316,321.443z"/>
<path style="fill:#720000;" d="M482.358,358.4H117.983c-13.071,0-23.667-10.596-23.667-23.667l0,0c0-5.597,1.984-11.014,5.6-15.288
	l105.878-125.128c4.497-5.314,11.106-8.38,18.068-8.38h161.486h10.779h43.116L482.358,358.4z"/>
<path style="fill:#BC0000;" d="M468.154,301.585H240.863c-13.072,0-23.667-10.596-23.667-23.667c0-5.598,1.984-11.014,5.6-15.288
	l64.895-76.693h97.657h10.779h43.116L468.154,301.585z"/>
<path style="fill:#65A599;" d="M482.358,196.716v152.702h-75.453L330.128,98.292c-4.702-15.378,6.802-30.924,22.883-30.924l0,0
	C424.447,67.368,482.358,125.279,482.358,196.716z"/>
<path style="fill:#518279;" d="M332.023,104.49c2.091-0.797,4.374-1.237,6.786-1.237l0,0c56.786,0,102.819,46.034,102.819,102.819
	v121.384H400.19L332.023,104.49z"/>
<g>
	<path style="fill:#FFFFFF;" d="M433.544,201.868c0-30.779-16.871-58.936-44.03-73.482c-3.935-2.108-5.416-7.007-3.309-10.944
		c2.108-3.935,7.007-5.416,10.944-3.309c32.422,17.367,52.564,50.984,52.564,87.735c0,4.465-3.62,8.084-8.084,8.084
		C437.164,209.952,433.544,206.333,433.544,201.868z M441.629,220.968c-4.465,0-8.084,3.62-8.084,8.084v1.078
		c0,4.465,3.62,8.084,8.084,8.084c4.465,0,8.084-3.62,8.084-8.084v-1.078C449.713,224.588,446.093,220.968,441.629,220.968z"/>
	<path style="fill:#FFFFFF;" d="M215.579,261.389c0-4.465,3.62-8.084,8.084-8.084h1.078c4.465,0,8.084,3.62,8.084,8.084
		s-3.62,8.084-8.084,8.084h-1.078C219.199,269.474,215.579,265.854,215.579,261.389z M256,269.474h86.232
		c4.465,0,8.084-3.62,8.084-8.084s-3.62-8.084-8.084-8.084H256c-4.465,0-8.084,3.62-8.084,8.084S251.535,269.474,256,269.474z
		 M405.712,296.421H223.663c-4.465,0-8.084,3.62-8.084,8.084s3.62,8.084,8.084,8.084h182.049c4.465,0,8.084-3.62,8.084-8.084
		S410.177,296.421,405.712,296.421z M192.404,296.421h-1.078c-4.465,0-8.084,3.62-8.084,8.084s3.62,8.084,8.084,8.084h1.078
		c4.465,0,8.084-3.62,8.084-8.084S196.869,296.421,192.404,296.421z"/>
</g>
<path style="fill:#1A6399;" d="M428.463,444.632c-41.671,0-75.453-33.781-75.453-75.453s33.781-75.453,75.453-75.453
	s75.453,33.781,75.453,75.453S470.135,444.632,428.463,444.632z"/>
<path style="fill:#F9A100;" d="M428.463,401.516c-17.86,0-32.337-14.477-32.337-32.337c0-17.86,14.477-32.337,32.337-32.337
	c17.86,0,32.337,14.477,32.337,32.337C460.8,387.039,446.323,401.516,428.463,401.516z"/>
<path style="fill:#F9B300;" d="M428.463,336.842c3.266,0,6.418,0.489,9.39,1.389c0.901,2.972,1.389,6.124,1.389,9.39
	c0,17.86-14.477,32.337-32.337,32.337c-3.266,0-6.418-0.489-9.39-1.389c-0.901-2.972-1.389-6.124-1.389-9.39
	C396.126,351.319,410.604,336.842,428.463,336.842z"/>
<path d="M428.463,328.758c-22.289,0-40.421,18.132-40.421,40.421c0,22.289,18.132,40.421,40.421,40.421s40.421-18.132,40.421-40.421
	C468.884,346.89,450.752,328.758,428.463,328.758z M428.463,393.432c-13.373,0-24.253-10.88-24.253-24.253
	s10.879-24.253,24.253-24.253s24.253,10.88,24.253,24.253S441.837,393.432,428.463,393.432z M17.246,444.632
	c0,4.466-3.62,8.084-8.084,8.084H8.084c-4.465,0-8.084-3.618-8.084-8.084s3.62-8.084,8.084-8.084h1.078
	C13.627,436.547,17.246,440.166,17.246,444.632z M232.825,444.632c0,4.466-3.62,8.084-8.084,8.084h-1.078
	c-4.465,0-8.084-3.618-8.084-8.084s3.62-8.084,8.084-8.084h1.078C229.206,436.547,232.825,440.166,232.825,444.632z
	 M265.162,444.632c0,4.466-3.62,8.084-8.084,8.084H256c-4.465,0-8.084-3.618-8.084-8.084s3.62-8.084,8.084-8.084h1.078
	C261.543,436.547,265.162,440.166,265.162,444.632z M503.916,436.547h-26.134C498.51,421.332,512,396.805,512,369.179
	c0-21.512-8.177-41.145-21.581-55.97c0.008-0.147,0.023-0.292,0.023-0.44V196.716c0-75.78-61.651-137.432-137.432-137.432
	c-10.254,0-19.634,4.728-25.734,12.97s-7.878,18.595-4.881,28.401l23.603,77.197H189.477c-3.598,0-6.983-1.402-9.528-3.946
	l-41.267-41.267c-5.599-5.599-13.043-8.681-20.959-8.681H38.572C17.303,123.958,0,141.261,0,162.529
	c0,10.304,4.012,19.99,11.297,27.276l74.655,74.654C37.849,268.707,0,309.212,0,358.4c0,32.479,16.503,61.176,41.564,78.147h-1.143
	c-4.465,0-8.084,3.618-8.084,8.084s3.62,8.084,8.084,8.084h150.905c4.465,0,8.084-3.618,8.084-8.084s-3.62-8.084-8.084-8.084
	h-44.258c22.959-15.548,38.729-40.94,41.213-70.063h156.713c-0.029,0.897-0.068,1.791-0.068,2.695
	c0,27.626,13.49,52.153,34.218,67.368h-90.807c-4.465,0-8.084,3.618-8.084,8.084s3.62,8.084,8.084,8.084h215.579
	c4.465,0,8.084-3.618,8.084-8.084S508.38,436.547,503.916,436.547z M94.316,436.547c-43.091,0-78.147-35.056-78.147-78.147
	s35.056-78.147,78.147-78.147c8.594,0,16.94,1.373,24.923,4.065l-24.764,29.05c-0.053-0.001-0.106-0.008-0.158-0.008
	c-24.836,0-45.041,20.205-45.041,45.041s20.205,45.041,45.041,45.041c22.074,0,40.478-15.968,44.299-36.957h33.43
	C167.987,405.791,134.676,436.547,94.316,436.547z M117.983,366.484h4.044c-3.505,11.996-14.598,20.788-27.712,20.788
	c-15.921,0-28.872-12.953-28.872-28.872c0-13.212,8.924-24.372,21.059-27.789c-0.179,1.361-0.271,2.738-0.271,4.122
	C86.232,352.24,100.475,366.484,117.983,366.484z M117.983,350.316c-8.593,0-15.583-6.99-15.583-15.583
	c0-3.681,1.31-7.255,3.668-10.043l89.614-105.124c2.896-3.398,2.49-8.5-0.908-11.397c-3.398-2.894-8.499-2.491-11.397,0.909
	l-52.987,62.159c-6.685-2.776-13.605-4.751-20.707-5.911l-86.953-86.952c-4.232-4.234-6.562-9.861-6.562-15.845
	c0-12.353,10.05-22.403,22.404-22.403h79.151c3.598,0,6.983,1.402,9.528,3.946l41.267,41.267c5.6,5.598,13.044,8.681,20.96,8.681
	h161.465l19.223,62.877c1.305,4.268,5.824,6.673,10.094,5.367c4.27-1.305,6.672-5.824,5.367-10.093L337.859,95.929
	c-1.483-4.854-0.604-9.978,2.416-14.058c3.019-4.079,7.662-6.419,12.736-6.419c66.865,0,121.263,54.398,121.263,121.263v102.659
	c-13.164-8.668-28.904-13.732-45.811-13.732c-39.575,0-72.785,27.671-81.363,64.674H117.983z M361.095,369.179
	c0-37.147,30.222-67.368,67.368-67.368s67.368,30.221,67.368,67.368s-30.222,67.368-67.368,67.368S361.095,406.326,361.095,369.179z
	"/>
<g>
</g>
<g>
</g>
<g>
</g>
<g>
</g>
<g>
</g>
<g>
</g>
<g>
</g>
<g>
</g>
<g>
</g>
<g>
</g>
<g>
</g>
<g>
</g>
<g>
</g>
<g>
</g>
<g>
</g>
</svg>
