<?xml version="1.0" encoding="iso-8859-1"?>
<!-- Generator: Adobe Illustrator 19.0.0, SVG Export Plug-In . SVG Version: 6.00 Build 0)  -->
<svg version="1.1" id="Layer_1" xmlns="http://www.w3.org/2000/svg" xmlns:xlink="http://www.w3.org/1999/xlink" x="0px" y="0px"
	 viewBox="0 0 512 512" style="enable-background:new 0 0 512 512;" xml:space="preserve">
<path style="fill:#004859;" d="M404.99,503.916H107.01c-24.547,0-44.141-20.465-43.075-44.988l15.384-353.833l68.891-97.011h215.579
	l68.891,97.011l15.384,353.833C449.132,483.451,429.537,503.916,404.99,503.916z"/>
<path style="fill:#002E35;" d="M448.065,458.928c1.066,24.524-18.528,44.988-43.075,44.988H107.01
	c-24.547,0-44.141-20.465-43.075-44.988l15.384-353.833l17.62-24.813c19.509,147.843,146.016,261.95,299.187,261.95
	c15.887,0,31.484-1.235,46.708-3.601L448.065,458.928z"/>
<path style="fill:#FFFFFF;" d="M114.801,300.924l0.094-2.161c0.194-4.461,3.986-7.921,8.428-7.724
	c4.46,0.194,7.919,3.968,7.724,8.428l-0.094,2.161c-0.189,4.341-3.768,7.732-8.07,7.732c-0.119,0-0.238-0.002-0.358-0.008
	C118.065,309.159,114.607,305.385,114.801,300.924z M402.258,417.303c-0.194-4.46-3.975-7.909-8.427-7.725
	c-4.46,0.194-7.919,3.968-7.725,8.428c0.275,6.31-1.98,12.297-6.348,16.858c-4.368,4.562-10.251,7.073-16.566,7.073H148.809
	c-6.315,0-12.199-2.513-16.566-7.073c-4.368-4.562-6.623-10.548-6.348-16.858l3.315-76.224c0.194-4.46-3.265-8.234-7.725-8.428
	c-4.47-0.186-8.234,3.265-8.427,7.725l-3.315,76.224c-0.468,10.757,3.376,20.965,10.822,28.743
	c7.446,7.776,17.476,12.059,28.244,12.059h214.384c10.767,0,20.798-4.284,28.245-12.059
	C398.882,438.268,402.726,428.06,402.258,417.303z"/>
<path d="M511.974,490.404l-31.326-384.337c-0.786-9.64-4.27-18.824-10.072-26.56L426.307,20.48C416.69,7.656,401.378,0,385.347,0
	h-21.558h-75.586c-0.013,0-0.026,0-0.039,0h-64.33c-0.012,0-0.024,0-0.036,0h-75.588h-21.558c-16.03,0-31.342,7.656-40.96,20.48
	L41.423,79.507c-5.802,7.737-9.285,16.921-10.071,26.56L0.027,490.404C0.009,490.623,0,490.842,0,491.061
	C0,502.607,9.393,512,20.939,512c8.612,0,16.243-5.166,19.441-13.162l15.094-37.734c0.098-0.246,0.218-0.476,0.35-0.697
	c-0.119,13.408,4.877,26.062,14.203,35.802C79.777,506.392,92.911,512,107.009,512h297.98c14.098,0,27.233-5.608,36.983-15.791
	c9.327-9.741,14.323-22.394,14.205-35.801c0.133,0.221,0.252,0.452,0.35,0.696l15.094,37.735
	c3.198,7.995,10.83,13.161,19.441,13.161c11.545,0,20.939-9.393,20.939-20.939C512,490.842,511.99,490.623,511.974,490.404z
	 M56.57,442.204c-7.206,1.144-13.33,5.95-16.108,12.895l-15.094,37.734c-0.729,1.822-2.467,2.999-4.429,2.999
	c-2.547,0-4.634-2.006-4.764-4.521L47.467,107.38c0.538-6.596,2.92-12.879,6.891-18.172l44.269-59.027
	c6.581-8.774,17.058-14.013,28.025-14.013h5.901l-59.826,84.245c-0.902,1.27-1.417,2.773-1.485,4.33L56.57,442.204z
	 M430.293,485.027c-6.671,6.967-15.658,10.805-25.304,10.805H107.01c-9.646,0-18.632-3.837-25.304-10.804
	c-6.671-6.966-10.114-16.112-9.696-25.749l15.28-351.449l65.094-91.662h20.405l-20.352,42.306c-1.935,4.024-0.243,8.854,3.78,10.79
	c1.13,0.543,2.324,0.801,3.499,0.801c3.009,0,5.899-1.688,7.291-4.581l23.724-49.316h21.715l-7.232,21.696
	c-1.412,4.236,0.877,8.814,5.114,10.226c0.848,0.282,1.71,0.417,2.558,0.417c3.385,0,6.539-2.143,7.668-5.53l8.935-26.809h18.426
	v45.811c0,4.465,3.62,8.084,8.084,8.084c4.466,0,8.084-3.62,8.084-8.084V16.168h18.426l8.937,26.809
	c1.13,3.388,4.284,5.53,7.668,5.53c0.847,0,1.71-0.135,2.558-0.417c4.236-1.412,6.525-5.99,5.112-10.226l-7.232-21.696h21.714
	l23.724,49.315c1.393,2.894,4.281,4.581,7.291,4.581c1.176,0,2.369-0.258,3.499-0.801c4.024-1.936,5.717-6.766,3.781-10.79
	L339.21,16.168h20.405l65.094,91.661l15.28,351.449C440.407,468.915,436.964,478.059,430.293,485.027z M491.061,495.832
	c-1.962,0-3.701-1.177-4.429-2.999l-15.094-37.735c-2.778-6.945-8.902-11.75-16.108-12.894l-14.672-337.461
	c-0.068-1.556-0.584-3.06-1.485-4.33l-59.826-84.245h5.901c10.969,0,21.446,5.239,28.025,14.013l44.269,59.027
	c3.971,5.294,6.353,11.578,6.891,18.173l31.292,383.931C495.695,493.826,493.608,495.832,491.061,495.832z M153.614,96.086
	l-0.587,1.451c-1.273,3.144-4.3,5.052-7.496,5.052c-1.011,0-2.037-0.191-3.032-0.593c-4.138-1.676-6.134-6.389-4.459-10.528
	l0.587-1.451c1.676-4.139,6.39-6.135,10.528-4.459C153.293,87.234,155.289,91.948,153.614,96.086z M373.959,91.464
	c1.678,4.137-0.316,8.852-4.453,10.53c-0.995,0.404-2.024,0.595-3.035,0.595c-3.195,0-6.221-1.906-7.495-5.048l-0.589-1.451
	c-1.678-4.137,0.316-8.852,4.453-10.53c4.136-1.682,8.852,0.315,10.531,4.452L373.959,91.464z"/>
<g>
</g>
<g>
</g>
<g>
</g>
<g>
</g>
<g>
</g>
<g>
</g>
<g>
</g>
<g>
</g>
<g>
</g>
<g>
</g>
<g>
</g>
<g>
</g>
<g>
</g>
<g>
</g>
<g>
</g>
</svg>
