<?xml version="1.0" encoding="iso-8859-1"?>
<!-- Generator: Adobe Illustrator 19.0.0, SVG Export Plug-In . SVG Version: 6.00 Build 0)  -->
<svg version="1.1" id="Layer_1" xmlns="http://www.w3.org/2000/svg" xmlns:xlink="http://www.w3.org/1999/xlink" x="0px" y="0px"
	 viewBox="0 0 512 512" style="enable-background:new 0 0 512 512;" xml:space="preserve">
<path style="fill:#797979;" d="M429.385,54.793L429.385,54.793c0,25.797-21.006,46.709-46.919,46.709H316.78h-28.152V54.793
	c0-25.796,21.006-46.708,46.919-46.708h46.919C408.379,8.084,429.385,28.996,429.385,54.793z M158.285,20.466l-45.32,12.09
	c-25.03,6.676-39.883,32.288-33.177,57.206l0,0c6.707,24.918,32.434,39.704,57.464,33.028l63.448-16.924l27.192-7.253
	l-12.144-45.116C209.042,28.577,183.315,13.79,158.285,20.466z"/>
<path style="fill:#636363;" d="M429.351,53.477c-8.435-8.08-19.889-13.055-32.518-13.055h-46.919
	c-25.913,0-46.919,20.912-46.919,46.708v14.373h-14.368V54.793c0-25.796,21.006-46.708,46.919-46.708h46.919
	C407.934,8.084,428.649,28.29,429.351,53.477z M158.285,20.466l-45.32,12.09c-24.602,6.562-39.356,31.417-33.487,55.927
	c6.047-9.977,15.817-17.736,28.016-20.99l45.32-12.09c25.03-6.676,50.757,8.11,57.464,33.029l3.736,13.882l13.878-3.703
	l-12.144-45.116C209.042,28.577,183.315,13.79,158.285,20.466z"/>
<path style="fill:#1A6399;" d="M383.368,195.797v287.678c0,11.289-9.151,20.44-20.44,20.44H230.57
	c-11.289,0-20.44-9.151-20.44-20.44V195.797c0-5.644,4.576-10.22,10.22-10.22h152.798
	C378.793,185.578,383.368,190.154,383.368,195.797z"/>
<path style="fill:#007DBC;" d="M296.749,192.804v296.658c0,7.982-6.471,14.453-14.453,14.453h-57.713
	c-7.982,0-14.453-6.471-14.453-14.453V192.804c0-3.991,3.236-7.226,7.226-7.226h72.167
	C293.514,185.578,296.749,188.813,296.749,192.804z"/>
<path style="fill:#F93100;" d="M383.392,288.337H210.105c-5.966,0-10.803-4.837-10.803-10.803v-32.288
	c0-5.966,4.837-10.803,10.803-10.803h173.287c5.966,0,10.803,4.837,10.803,10.803v32.288
	C394.196,283.5,389.359,288.337,383.392,288.337z"/>
<path style="fill:#FFFFFF;" d="M404.662,54.793c0,4.466-3.636,8.084-8.121,8.084c-4.485,0-8.121-3.618-8.121-8.084
	c0-5.844-4.776-10.599-10.646-10.599h-42.227c-4.485,0-8.121-3.62-8.121-8.084s3.636-8.084,8.121-8.084h42.227
	C392.6,28.025,404.662,40.033,404.662,54.793z M163.469,39.728l-40.788,10.88c-14.321,3.82-22.85,18.527-19.013,32.783
	c1.161,4.313,5.614,6.872,9.946,5.717c4.332-1.156,6.903-5.589,5.742-9.902c-1.52-5.645,1.858-11.469,7.528-12.981l40.788-10.881
	c4.332-1.154,6.903-5.588,5.742-9.9S167.801,38.572,163.469,39.728z M350.886,312.589c-4.485,0-8.121,3.62-8.121,8.084v64.674
	c0,4.466,3.636,8.084,8.121,8.084s8.121-3.618,8.121-8.084v-64.674C359.007,316.209,355.371,312.589,350.886,312.589z
	 M350.886,408.522c-4.485,0-8.121,3.62-8.121,8.084v1.078c0,4.466,3.636,8.084,8.121,8.084s8.121-3.618,8.121-8.084v-1.078
	C359.007,412.142,355.371,408.522,350.886,408.522z"/>
<path style="fill:#A50000;" d="M394.196,245.221v32.337c0,5.953-4.847,10.779-10.827,10.779h-86.62v-53.895h86.62
	C389.348,234.442,394.196,239.268,394.196,245.221z"/>
<path d="M401.333,495.832h-16.347c1.802-3.727,2.813-7.903,2.813-12.31V296.421h2.707c4.485,0,8.121-3.618,8.121-8.084v-53.895
	c0-4.466-3.636-8.084-8.121-8.084h-2.707v-30.583c0-10.08-8.238-18.281-18.363-18.281h-68.256v-67.907h85.717
	c30.348,0,55.039-24.58,55.039-54.794C441.937,24.58,417.246,0,386.897,0h-46.919c-30.348,0-55.039,24.58-55.039,54.793v46.709
	v75.992H257.53l-21.794-80.975l-12.144-45.116c-3.805-14.137-12.912-25.952-25.645-33.27c-12.732-7.317-27.565-9.265-41.765-5.474
	l-45.32,12.09c-29.314,7.82-46.773,37.925-38.918,67.108c3.805,14.137,12.912,25.951,25.644,33.269
	c8.482,4.874,17.893,7.364,27.43,7.364c4.78,0,9.594-0.625,14.335-1.891l82.796-22.085l18.567,68.981h-24.032
	c-10.126,0-18.364,8.201-18.364,18.281v30.582h-2.707c-4.485,0-8.121,3.618-8.121,8.084v53.895c0,4.466,3.636,8.084,8.121,8.084
	h2.707v187.101c0,4.406,1.011,8.582,2.813,12.31h-38.002c-4.485,0-8.121,3.618-8.121,8.084s3.636,8.084,8.121,8.084h238.203
	c4.485,0,8.121-3.618,8.121-8.084S405.82,495.832,401.333,495.832z M301.181,54.793c0-21.298,17.404-38.624,38.798-38.624h46.92
	c21.394,0,38.798,17.326,38.798,38.624s-17.404,38.625-38.798,38.625h-85.717V54.793z M135.151,114.981
	c-10.01,2.67-20.465,1.299-29.441-3.859c-8.975-5.158-15.394-13.488-18.076-23.453c-5.537-20.572,6.77-41.792,27.435-47.306
	l45.32-12.09c3.343-0.891,6.735-1.332,10.104-1.332c6.723,0,13.357,1.756,19.335,5.191c8.975,5.159,15.396,13.488,18.077,23.454
	l10.042,37.307L135.151,114.981z M203.734,280.253v-37.726h2.686c0.008,0,0.014,0.001,0.02,0.001c0.006,0,0.014-0.001,0.02-0.001
	h173.196c0.008,0,0.014,0.001,0.02,0.001c0.007,0,0.014-0.001,0.021-0.001h2.686v37.726H203.734z M214.561,195.775
	c0-1.165,0.952-2.113,2.122-2.113h152.753c1.171,0,2.122,0.947,2.122,2.113v30.583H214.561V195.775z M214.561,483.522V296.421
	h156.998v187.101c0,6.788-5.547,12.31-12.365,12.31H226.927C220.108,495.832,214.561,490.31,214.561,483.522z M138.769,503.916
	c0,4.466-3.636,8.084-8.121,8.084h-1.082c-4.485,0-8.121-3.618-8.121-8.084s3.636-8.084,8.121-8.084h1.082
	C135.133,495.832,138.769,499.45,138.769,503.916z M441.937,503.916c0,4.466-3.636,8.084-8.121,8.084h-1.082
	c-4.485,0-8.121-3.618-8.121-8.084s3.636-8.084,8.121-8.084h1.082C438.301,495.832,441.937,499.45,441.937,503.916z M96.543,503.916
	c0,4.466-3.636,8.084-8.121,8.084h-1.082c-4.485,0-8.121-3.618-8.121-8.084s3.636-8.084,8.121-8.084h1.082
	C92.907,495.832,96.543,499.45,96.543,503.916z"/>
<g>
</g>
<g>
</g>
<g>
</g>
<g>
</g>
<g>
</g>
<g>
</g>
<g>
</g>
<g>
</g>
<g>
</g>
<g>
</g>
<g>
</g>
<g>
</g>
<g>
</g>
<g>
</g>
<g>
</g>
</svg>
