<?xml version="1.0" encoding="iso-8859-1"?>
<!-- Generator: Adobe Illustrator 19.0.0, SVG Export Plug-In . SVG Version: 6.00 Build 0)  -->
<svg version="1.1" id="Layer_1" xmlns="http://www.w3.org/2000/svg" xmlns:xlink="http://www.w3.org/1999/xlink" x="0px" y="0px"
	 viewBox="0 0 512 512" style="enable-background:new 0 0 512 512;" xml:space="preserve">
<path style="fill:#FFB150;" d="M287.008,255.473l-31.541,31.54L14.604,46.158c-8.71-8.709-8.71-22.831,0-31.54l0,0
	c8.71-8.709,22.832-8.709,31.541,0L287.008,255.473z"/>
<path style="fill:#D18839;" d="M46.145,14.616l240.863,240.857l-16.824,16.824L29.321,31.44c-6.05-6.05-7.888-14.71-5.532-22.354
	C31.435,6.729,40.094,8.566,46.145,14.616z"/>
<path style="fill:#F93100;" d="M379.405,499.762l-90.267-90.264c-26.199-26.199-31.729-65.225-16.621-96.856l-30.373-30.372
	c-1.742-1.742-1.742-4.566,0-6.308l33.81-33.809c1.742-1.742,4.566-1.742,6.308,0l30.373,30.372
	c31.633-15.107,70.659-9.578,96.859,16.621l90.267,90.264c5.539,5.539,5.539,14.519,0,20.059L399.465,499.762
	C393.926,505.301,384.945,505.301,379.405,499.762z"/>
<path style="fill:#BC0000;" d="M499.762,399.468l-50.148,50.147L259.05,259.057l16.906-16.905c1.742-1.742,4.566-1.742,6.308,0
	l30.373,30.372c31.633-15.107,70.659-9.578,96.859,16.621l90.267,90.264C505.301,384.949,505.301,393.928,499.762,399.468z"/>
<path style="fill:#FFFFFF;" d="M385.123,373.693c3.157,3.157,3.157,8.276,0,11.432c-3.157,3.157-8.276,3.157-11.433,0
	l-50.148-50.147c-3.157-3.157-3.157-8.276,0-11.432c3.157-3.157,8.276-3.157,11.433,0L385.123,373.693z M415.212,403.781
	l-1.004-1.004c-3.157-3.157-8.276-3.157-11.433,0s-3.157,8.276,0,11.432l1.004,1.004c3.157,3.157,8.276,3.157,11.433,0
	C418.369,412.056,418.369,406.938,415.212,403.781z"/>
<path style="fill:#A50000;" d="M256.881,225.347l-31.541,31.54c-3.157,3.157-8.276,3.157-11.433,0
	c-3.157-3.157-3.157-8.276,0-11.432l31.541-31.54c3.157-3.157,8.276-3.157,11.433,0C260.038,217.071,260.038,222.19,256.881,225.347
	z"/>
<path d="M505.478,373.693l-90.267-90.265c-26.502-26.5-66.338-34.416-100.766-20.529l-26.464-26.464
	c-3.213-3.213-7.748-4.301-11.87-3.292L51.862,8.901C46.123,3.161,38.491,0,30.375,0S14.625,3.161,8.887,8.9
	c-11.848,11.848-11.848,31.125,0,42.974l224.248,224.243c-1.008,4.122,0.08,8.655,3.293,11.87l26.466,26.463
	c-13.89,34.427-5.974,74.263,20.529,100.764l90.266,90.263c4.206,4.206,9.798,6.523,15.747,6.523c5.948,0,11.54-2.316,15.746-6.522
	l100.296-100.294c4.206-4.206,6.522-9.798,6.522-15.746C512,383.49,509.684,377.899,505.478,373.693z M20.32,20.332
	c2.686-2.685,6.256-4.164,10.055-4.164s7.368,1.479,10.055,4.165l222.958,222.953l-20.108,20.107L20.32,40.44
	C14.776,34.897,14.776,25.877,20.32,20.332z M494.045,393.751L393.749,494.044v0.001c-1.152,1.151-2.684,1.786-4.313,1.786
	s-3.16-0.635-4.314-1.787l-90.267-90.264c-23.036-23.035-29.082-58.261-15.043-87.654c1.477-3.091,0.844-6.778-1.578-9.201
	l-27.811-27.81l28.686-28.684l27.811,27.81c2.422,2.421,6.109,3.055,9.2,1.578c29.396-14.036,64.623-7.993,87.659,15.043
	l90.267,90.265C496.423,387.504,496.423,391.373,494.045,393.751z"/>
<g>
</g>
<g>
</g>
<g>
</g>
<g>
</g>
<g>
</g>
<g>
</g>
<g>
</g>
<g>
</g>
<g>
</g>
<g>
</g>
<g>
</g>
<g>
</g>
<g>
</g>
<g>
</g>
<g>
</g>
</svg>
