<?xml version="1.0" encoding="iso-8859-1"?>
<!-- Generator: Adobe Illustrator 19.0.0, SVG Export Plug-In . SVG Version: 6.00 Build 0)  -->
<svg version="1.1" id="Layer_1" xmlns="http://www.w3.org/2000/svg" xmlns:xlink="http://www.w3.org/1999/xlink" x="0px" y="0px"
	 viewBox="0 0 512 512" style="enable-background:new 0 0 512 512;" xml:space="preserve">
<path style="fill:#004859;" d="M342.232,417.313L342.232,417.313c0,47.829-38.607,86.602-86.232,86.602H94.316
	c-47.625,0-86.232-38.773-86.232-86.602v-86.602v-86.602v-29.445c0-91.568,60.274-172.109,147.854-197.569l2.9-0.843
	c129.533-37.658,258.847,59.95,258.847,195.38l0,0c0,17.936-14.477,32.476-32.337,32.476H191.326
	c-23.812,0-43.116,19.387-43.116,43.301l0,0c0,23.914,19.304,43.301,43.116,43.301H256
	C303.625,330.711,342.232,369.484,342.232,417.313z"/>
<path style="fill:#002E35;" d="M342.232,417.313L342.232,417.313c0,47.829-38.607,86.602-86.232,86.602H94.316
	c-47.625,0-86.232-38.773-86.232-86.602v-86.602v-86.602v-29.445c0-89.146,57.133-167.833,140.968-195.427
	c-19.794,31.865-31.023,69.315-31.023,108.824v29.445v86.602v86.602c0,47.829,38.607,86.602,86.232,86.602L342.232,417.313
	L342.232,417.313z"/>
<path style="fill:#007DBC;" d="M256,460.615L256,460.615c-23.812,0-43.116-19.304-43.116-43.116v-0.371
	c0-23.812,19.304-43.116,43.116-43.116l0,0c23.812,0,43.116,19.304,43.116,43.116v0.371
	C299.116,441.312,279.812,460.615,256,460.615z"/>
<path style="fill:#005975;" d="M256,438.964L256,438.964c-11.906,0-21.558-9.651-21.558-21.558v-0.185
	c0-11.906,9.651-21.558,21.558-21.558l0,0c11.906,0,21.558,9.651,21.558,21.558v0.185C277.558,429.312,267.906,438.964,256,438.964z
	"/>
<path style="fill:#FFFFFF;" d="M363.983,207c-0.189,0.013-0.377,0.019-0.564,0.019c-4.211,0-7.763-3.278-8.057-7.561
	c-4.066-59.293-44.923-110.527-101.669-127.488c-4.279-1.279-6.715-5.8-5.442-10.098c1.274-4.298,5.774-6.743,10.055-5.466
	c63.174,18.883,108.66,75.923,113.188,141.936C371.8,202.817,368.438,206.692,363.983,207z M215.251,49.812
	c-0.788-0.012-1.576-0.017-2.367-0.017c-4.465,0-8.084,3.635-8.084,8.119s3.62,8.119,8.084,8.119c0.71,0,1.42,0.004,2.128,0.015
	c0.041,0,0.081,0.001,0.122,0.001c4.409,0,8.015-3.557,8.081-7.999C223.282,53.566,219.715,49.877,215.251,49.812z"/>
<path d="M482.358,236.024h-64.739c5.112-6.793,8.15-15.244,8.15-24.393c0-67.333-30.805-129.074-84.516-169.391
	C287.891,2.184,220.58-10.117,156.581,8.488l-2.9,0.843C109.011,22.318,70.633,48.915,42.695,86.246
	C14.764,123.57,0,167.976,0,214.664v202.65C0,469.523,42.31,512,94.316,512h157.912H256h140.126C460.02,512,512,459.811,512,395.663
	V265.759C512,249.363,498.703,236.024,482.358,236.024z M349.969,409.229c-2.479-29.291-18.292-54.826-41.31-70.435h111.721v56.868
	c0,4.602-0.317,9.129-0.918,13.566h-69.492V409.229z M436.547,395.663v-56.868h59.284v56.868c0,4.602-0.317,9.129-0.918,13.566
	h-59.158C436.272,404.777,436.547,400.252,436.547,395.663z M495.832,265.759v56.869H256h-64.674
	c-19.316,0-35.032-15.799-35.032-35.218c0-19.418,15.716-35.217,35.032-35.217h183.242h10.779h97.011
	C489.788,252.193,495.832,258.279,495.832,265.759z M252.227,495.833H94.316c-43.091,0-78.147-35.223-78.147-78.518V214.664
	c0-87.445,58.404-165.497,142.027-189.808l2.9-0.843c18.062-5.25,36.403-7.834,54.581-7.834c41.27,0,81.676,13.324,115.869,38.991
	C381.15,92.406,409.6,149.434,409.6,211.633c0,13.45-10.879,24.393-24.253,24.393h-10.779H191.326
	c-28.231,0-51.2,23.051-51.2,51.385c0,28.335,22.969,51.385,51.2,51.385H256c43.091,0,78.147,35.223,78.147,78.518
	S299.091,495.833,256,495.833H252.227z M349.969,425.398h65.926c-12.637,40.761-50.545,70.435-95.221,70.435h-12.015
	C331.677,480.223,347.49,454.688,349.969,425.398z M396.126,495.833h-16.589c25.869-15.383,45.299-40.572,53.168-70.435h58.642
	C478.71,466.158,440.803,495.833,396.126,495.833z M307.2,417.501v-0.375c0-28.23-22.969-51.198-51.2-51.198
	s-51.2,22.968-51.2,51.198v0.375c0,28.23,22.969,51.198,51.2,51.198S307.2,445.731,307.2,417.501z M220.968,417.501v-0.375
	c0-19.316,15.716-35.03,35.032-35.03s35.032,15.715,35.032,35.03v0.375c0,19.316-15.716,35.029-35.032,35.029
	S220.968,436.817,220.968,417.501z"/>
<g>
</g>
<g>
</g>
<g>
</g>
<g>
</g>
<g>
</g>
<g>
</g>
<g>
</g>
<g>
</g>
<g>
</g>
<g>
</g>
<g>
</g>
<g>
</g>
<g>
</g>
<g>
</g>
<g>
</g>
</svg>
