<?xml version="1.0" encoding="iso-8859-1"?>
<!-- Generator: Adobe Illustrator 19.0.0, SVG Export Plug-In . SVG Version: 6.00 Build 0)  -->
<svg version="1.1" id="Layer_1" xmlns="http://www.w3.org/2000/svg" xmlns:xlink="http://www.w3.org/1999/xlink" x="0px" y="0px"
	 viewBox="0 0 512 512" style="enable-background:new 0 0 512 512;" xml:space="preserve">
<path style="fill:#F9B300;" d="M406.319,100.034v75.294h-43.025V110.79c0-5.941-4.816-10.756-10.756-10.756H126.655
	c-11.881,0-21.513-9.631-21.513-21.513l0,0c0-11.881,9.631-21.513,21.513-21.513h236.639
	C387.056,57.008,406.319,76.272,406.319,100.034z"/>
<path style="fill:#F96800;" d="M363.294,175.328V110.79c0-5.941-4.816-10.756-10.756-10.756H126.655
	c-11.881,0-21.513-9.631-21.513-21.513l0,0c0-1.861,0.261-3.656,0.706-5.378h236.471c23.762,0,43.025,19.263,43.025,43.025v59.16
	H363.294z"/>
<path style="fill:#636363;" d="M341.782,454.992H169.681c-71.286,0-129.076-57.789-129.076-129.076v-43.025
	c0-71.286,57.789-129.076,129.076-129.076h172.101c71.286,0,129.076,57.789,129.076,129.076v43.025
	C470.857,397.202,413.068,454.992,341.782,454.992z"/>
<path style="fill:#4B4B4B;" d="M471.395,282.891v43.025c0,71.286-57.789,129.076-129.076,129.076H170.218
	c-71.286,0-129.076-57.789-129.076-129.076V319.4c18.986,10.983,41.027,17.272,64.538,17.272h172.101
	c71.286,0,129.076-57.789,129.076-129.076v-36.509C445.437,193.406,471.395,235.116,471.395,282.891z"/>
<path style="fill:#F9B300;" d="M433.978,207.597H77.484c-8.487,0-15.366-6.88-15.366-15.366l0,0
	c0-21.216,17.199-38.415,38.415-38.415h310.397c21.216,0,38.415,17.199,38.415,38.415l0,0
	C449.345,200.717,442.465,207.597,433.978,207.597z"/>
<path style="fill:#F96800;" d="M449.387,186.084c0.322,2.002,0.496,4.054,0.496,6.146l0,0c0,8.487-6.88,15.366-15.366,15.366H78.022
	c-8.487,0-15.366-6.88-15.366-15.366l0,0c0-21.216,17.199-38.415,38.415-38.415h8.525c-2.504,5.102-3.915,10.836-3.915,16.902l0,0
	c0,8.487,6.88,15.366,15.366,15.366H449.387z"/>
<path style="fill:#FFFFFF;" d="M166.992,396.908c0,4.455-3.612,8.067-8.067,8.067h-1.076c-4.455,0-8.067-3.612-8.067-8.067
	s3.612-8.067,8.067-8.067h1.076C163.38,388.84,166.992,392.452,166.992,396.908z M417.076,313.546c-4.455,0-8.067,3.612-8.067,8.067
	c0,37.068-30.159,67.227-67.227,67.227H191.193c-4.455,0-8.067,3.612-8.067,8.067s3.612,8.067,8.067,8.067h150.588
	c45.965,0,83.361-37.396,83.361-83.361C425.143,317.158,421.531,313.546,417.076,313.546z"/>
<path d="M457.143,192.23c0-24.466-19.004-44.563-43.025-46.34v-45.856c0-28.172-22.921-51.092-51.092-51.092H126.387
	c-16.31,0-29.58,13.27-29.58,29.58s13.27,29.58,29.58,29.58h225.882c1.483,0,2.689,1.206,2.689,2.689v34.958H100.264
	c-25.63,0-46.482,20.852-46.482,46.482c0,4.379,1.21,8.479,3.31,11.989c-16.232,23.126-24.822,50.286-24.822,78.672v43.025
	c0,52.326,29.462,97.895,72.663,121.008H40.336c-4.456,0-8.067,3.611-8.067,8.067c0,4.456,3.611,8.067,8.067,8.067h129.076h172.101
	h86.05c4.456,0,8.067-3.611,8.067-8.067c0-4.456-3.611-8.067-8.067-8.067h-21.571c43.202-23.113,72.663-68.682,72.663-121.008
	v-43.025c0-28.386-8.59-55.543-24.821-78.673C455.933,200.708,457.143,196.609,457.143,192.23z M352.269,91.966H126.387
	c-7.414,0-13.445-6.031-13.445-13.445c0-7.414,6.031-13.445,13.445-13.445h236.639c19.276,0,34.958,15.682,34.958,34.958v45.714
	h-26.891V110.79C371.092,100.411,362.648,91.966,352.269,91.966z M100.264,161.882h310.397c16.735,0,30.348,13.613,30.348,30.348
	c0,4.025-3.274,7.299-7.299,7.299H77.215c-4.025,0-7.299-3.274-7.299-7.299C69.916,175.496,83.529,161.882,100.264,161.882z
	 M462.521,325.916c0,66.725-54.284,121.008-121.008,121.008H169.412c-66.725,0-121.008-54.284-121.008-121.008v-43.025
	c0-24.672,7.355-48.287,21.257-68.483c2.373,0.81,4.912,1.256,7.555,1.256h356.494c2.643,0,5.182-0.446,7.555-1.256
	c13.902,20.197,21.257,43.813,21.257,68.483V325.916z M17.21,454.992c0,4.456-3.611,8.067-8.067,8.067H8.067
	c-4.456,0-8.067-3.611-8.067-8.067c0-4.456,3.611-8.067,8.067-8.067h1.076C13.599,446.924,17.21,450.535,17.21,454.992z
	 M467.899,454.992c0,4.456-3.611,8.067-8.067,8.067h-1.076c-4.456,0-8.067-3.611-8.067-8.067c0-4.456,3.611-8.067,8.067-8.067h1.076
	C464.288,446.924,467.899,450.535,467.899,454.992z M512,454.992c0,4.456-3.611,8.067-8.067,8.067h-1.076
	c-4.456,0-8.067-3.611-8.067-8.067c0-4.456,3.611-8.067,8.067-8.067h1.076C508.389,446.924,512,450.535,512,454.992z"/>
<g>
</g>
<g>
</g>
<g>
</g>
<g>
</g>
<g>
</g>
<g>
</g>
<g>
</g>
<g>
</g>
<g>
</g>
<g>
</g>
<g>
</g>
<g>
</g>
<g>
</g>
<g>
</g>
<g>
</g>
</svg>
