<?xml version="1.0" encoding="iso-8859-1"?>
<!-- Generator: Adobe Illustrator 19.0.0, SVG Export Plug-In . SVG Version: 6.00 Build 0)  -->
<svg version="1.1" id="Layer_1" xmlns="http://www.w3.org/2000/svg" xmlns:xlink="http://www.w3.org/1999/xlink" x="0px" y="0px"
	 viewBox="0 0 512 512" style="enable-background:new 0 0 512 512;" xml:space="preserve">
<path style="fill:#002E35;" d="M52.78,413.216l111.617-111.622l46.012,46.014L98.792,459.23c8.47,8.471,8.47,22.206,0,30.676
	l-7.668,7.669c-8.47,8.471-22.204,8.471-30.675,0l-46.012-46.014c-8.47-8.471-8.47-22.206,0-30.676l7.668-7.669
	C30.577,404.745,44.31,404.745,52.78,413.216z"/>
<path style="fill:#004859;" d="M72.989,433.424l2.892,2.892l103.995-104.001l22.913,22.914L98.793,459.23
	c8.47,8.471,8.47,22.206,0,30.676l-7.668,7.669c-0.878,0.878-1.824,1.643-2.804,2.339l-28.085-28.086l-3.761-3.761l-6.266-6.267
	l-2.798-2.798c-7.062-7.063-7.062-18.515,0-25.578l0,0C54.475,426.362,65.925,426.362,72.989,433.424z"/>
<path style="fill:#FFB150;" d="M497.563,106.453l-7.668,7.669L198.486,359.533l-46.012-46.014L397.87,22.093l7.668-7.669
	c8.47-8.471,22.205-8.471,30.675,0l61.349,61.353C506.034,84.248,506.034,97.981,497.563,106.453z"/>
<path style="fill:#D18839;" d="M466.888,91.114L175.479,336.525l-23.006-23.008L397.87,22.093l7.668-7.669
	c8.47-8.471,22.205-8.471,30.675,0l38.343,38.345c8.47,8.471,8.47,22.206,0,30.676L466.888,91.114z"/>
<path style="fill:#FFFFFF;" d="M336.301,201.147c2.965,3.338,2.663,8.449-0.675,11.414l-0.946,0.841
	c-3.216,2.857-8.078,2.681-11.081-0.322c-0.113-0.113-0.224-0.232-0.332-0.352c-2.965-3.338-2.663-8.449,0.675-11.413l0.946-0.841
	C328.225,197.508,333.338,197.822,336.301,201.147z M472.546,80.03c-2.969-3.323-8.076-3.637-11.413-0.672L348.484,179.495
	c-3.337,2.966-3.637,8.077-0.67,11.414c0.108,0.122,0.218,0.237,0.331,0.35c3.003,3.004,7.866,3.18,11.082,0.32L471.875,91.443
	C475.211,88.478,475.512,83.367,472.546,80.03z"/>
<path d="M503.279,70.06L441.93,8.707c-11.61-11.61-30.499-11.608-42.107,0l-7.669,7.669c-0.163,0.163-0.319,0.334-0.468,0.51
	L146.512,308.047l-94.52,94.525c-11.337-6.344-25.974-4.701-35.603,4.928l-7.669,7.669C3.097,420.791,0,428.269,0,436.223
	c0,7.953,3.098,15.43,8.721,21.053l46.012,46.016c5.806,5.806,13.428,8.708,21.053,8.707c7.624-0.001,15.25-2.904,21.053-8.707
	l7.669-7.67c9.628-9.629,11.27-24.267,4.927-35.604l94.521-94.526l291.144-245.187c0.177-0.15,0.346-0.305,0.509-0.468l7.668-7.669
	c5.624-5.623,8.722-13.101,8.722-21.055C512,83.161,508.902,75.684,503.279,70.06z M93.076,484.19l-7.669,7.669
	c-2.57,2.571-5.987,3.985-9.621,3.985c-3.635,0-7.052-1.415-9.621-3.985l-46.012-46.016c-2.57-2.57-3.985-5.987-3.985-9.621
	c0-3.634,1.415-7.05,3.985-9.62l7.669-7.669c2.57-2.571,5.987-3.985,9.621-3.985c3.635,0,7.052,1.415,9.621,3.985l46.012,46.015
	C98.381,470.252,98.381,478.885,93.076,484.19z M98.792,447.797l-34.579-34.581l23.076-23.077l17.289,17.29
	c1.578,1.578,3.648,2.367,5.716,2.367s4.138-0.789,5.716-2.367c3.157-3.158,3.157-8.276,0-11.434l-17.289-17.289l19.241-19.243
	l17.289,17.29c1.578,1.578,3.648,2.367,5.716,2.367c2.068,0,4.138-0.789,5.716-2.367c3.157-3.158,3.157-8.276,0-11.434
	l-17.289-17.289l23.076-23.078l34.579,34.581L98.792,447.797z M491.847,100.735l-7.425,7.425L198.955,348.567l-35.518-35.519
	L403.831,27.565l7.425-7.423c2.57-2.571,5.987-3.985,9.621-3.985s7.052,1.415,9.621,3.985l61.349,61.353
	c2.57,2.57,3.985,5.987,3.985,9.621C495.832,94.749,494.416,98.166,491.847,100.735z"/>
<g>
</g>
<g>
</g>
<g>
</g>
<g>
</g>
<g>
</g>
<g>
</g>
<g>
</g>
<g>
</g>
<g>
</g>
<g>
</g>
<g>
</g>
<g>
</g>
<g>
</g>
<g>
</g>
<g>
</g>
</svg>
