<?xml version="1.0" encoding="iso-8859-1"?>
<!-- Generator: Adobe Illustrator 19.0.0, SVG Export Plug-In . SVG Version: 6.00 Build 0)  -->
<svg version="1.1" id="Layer_1" xmlns="http://www.w3.org/2000/svg" xmlns:xlink="http://www.w3.org/1999/xlink" x="0px" y="0px"
	 viewBox="0 0 512 512" style="enable-background:new 0 0 512 512;" xml:space="preserve">
<path style="fill:#5A968A;" d="M40.421,406.905V126.653c0-11.906,9.651-21.558,21.558-21.558h388.042
	c11.906,0,21.558,9.651,21.558,21.558v280.253"/>
<path style="fill:#6BAA9E;" d="M256,406.905H126.653V137.432H256V406.905z"/>
<path style="fill:#AEE5DF;" d="M40.421,169.768v-43.116c0-11.906,9.651-21.558,21.558-21.558h388.042
	c11.906,0,21.558,9.651,21.558,21.558v43.116H40.421z"/>
<path style="fill:#84C1B6;" d="M52.718,107.208l73.935,62.56v237.137H40.421V126.653C40.421,118.066,45.453,110.675,52.718,107.208z
	 M459.282,107.208l-73.935,62.56v237.137h86.232V126.653C471.579,118.066,466.547,110.675,459.282,107.208z"/>
<path d="M503.916,398.821h-24.253V126.653c0-11.377-6.447-21.272-15.876-26.239c-0.055-0.029-0.109-0.057-0.164-0.084
	c-4.078-2.116-8.701-3.319-13.602-3.319H61.979c-4.907,0-9.535,1.206-13.615,3.325c-0.046,0.024-0.093,0.046-0.139,0.071
	c-9.436,4.965-15.888,14.863-15.888,26.246v272.168H8.084c-4.466,0-8.084,3.62-8.084,8.084s3.618,8.084,8.084,8.084h495.832
	c4.466,0,8.084-3.62,8.084-8.084S508.382,398.821,503.916,398.821z M256,377.263c-4.466,0-8.084,3.62-8.084,8.084v13.474H134.737
	V285.642h42.038v45.811c0,4.465,3.618,8.084,8.084,8.084c4.466,0,8.084-3.62,8.084-8.084v-45.811h54.973v35.032
	c0,4.465,3.618,8.084,8.084,8.084s8.084-3.62,8.084-8.084v-35.032h48.505v45.811c0,4.465,3.618,8.084,8.084,8.084
	s8.084-3.62,8.084-8.084v-45.811h24.253c4.466,0,8.084-3.62,8.084-8.084c0-4.465-3.618-8.084-8.084-8.084h-24.253v-37.726h48.505
	v167.074H264.084v-13.474C264.084,380.883,260.466,377.263,256,377.263z M387.929,157.093c-0.916,0.763-1.774,1.579-2.583,2.435
	h-21.557c-4.466,0-8.084,3.62-8.084,8.084c0,4.465,3.618,8.084,8.084,8.084h13.777c-0.194,1.371-0.303,2.763-0.303,4.169v35.713
	h-48.505v-15.629c0-4.465-3.618-8.084-8.084-8.084s-8.084,3.62-8.084,8.084v15.629h-2.695c-4.466,0-8.084,3.62-8.084,8.084
	c0,4.465,3.618,8.084,8.084,8.084h2.695v37.726h-48.505v-93.777h35.032c4.466,0,8.084-3.62,8.084-8.084
	c0-4.465-3.618-8.084-8.084-8.084h-35.032v-22.097c0-4.465-3.618-8.084-8.084-8.084s-8.084,3.62-8.084,8.084v22.097h-54.973v-22.097
	c0-4.465-3.618-8.084-8.084-8.084c-4.466,0-8.084,3.62-8.084,8.084v22.097h-50.12c-0.808-0.855-1.666-1.671-2.583-2.435
	l-52.698-43.915h369.252L387.929,157.093z M134.434,175.697h42.341v39.882h-42.038v-35.713
	C134.737,178.459,134.627,177.068,134.434,175.697z M134.737,231.747h42.038v37.726h-42.038V231.747z M192.943,231.747h35.391
	c4.466,0,8.084-3.62,8.084-8.084c0-4.465-3.618-8.084-8.084-8.084h-35.391v-39.882h54.973v93.777h-54.973V231.747z M393.432,179.866
	c0-4.011,1.768-7.783,4.848-10.351l61.953-51.627c2.028,2.358,3.262,5.418,3.262,8.765v272.167h-70.063V179.866z M48.505,126.653
	c0-3.347,1.234-6.406,3.262-8.765l61.953,51.627c3.081,2.568,4.848,6.34,4.848,10.351v218.956H48.505V126.653z M339.537,167.613
	c0,4.465-3.618,8.084-8.084,8.084h-1.078c-4.466,0-8.084-3.62-8.084-8.084c0-4.465,3.618-8.084,8.084-8.084h1.078
	C335.918,159.528,339.537,163.148,339.537,167.613z M291.032,223.663c0,4.465-3.618,8.084-8.084,8.084h-1.078
	c-4.466,0-8.084-3.62-8.084-8.084c0-4.465,3.618-8.084,8.084-8.084h1.078C287.413,215.579,291.032,219.199,291.032,223.663z
	 M192.943,363.789v1.078c0,4.465-3.618,8.084-8.084,8.084c-4.466,0-8.084-3.62-8.084-8.084v-1.078c0-4.465,3.618-8.084,8.084-8.084
	C189.325,355.705,192.943,359.325,192.943,363.789z M264.084,354.088c0,4.465-3.618,8.084-8.084,8.084s-8.084-3.62-8.084-8.084
	v-1.078c0-4.465,3.618-8.084,8.084-8.084s8.084,3.62,8.084,8.084V354.088z M312.589,364.867v-0.688c0-4.465,3.618-8.084,8.084-8.084
	s8.084,3.62,8.084,8.084v0.688c0,4.465-3.618,8.084-8.084,8.084S312.589,369.332,312.589,364.867z"/>
<g>
</g>
<g>
</g>
<g>
</g>
<g>
</g>
<g>
</g>
<g>
</g>
<g>
</g>
<g>
</g>
<g>
</g>
<g>
</g>
<g>
</g>
<g>
</g>
<g>
</g>
<g>
</g>
<g>
</g>
</svg>
