<?xml version="1.0" encoding="iso-8859-1"?>
<!-- Generator: Adobe Illustrator 19.0.0, SVG Export Plug-In . SVG Version: 6.00 Build 0)  -->
<svg version="1.1" id="Layer_1" xmlns="http://www.w3.org/2000/svg" xmlns:xlink="http://www.w3.org/1999/xlink" x="0px" y="0px"
	 viewBox="0 0 512.001 512.001" style="enable-background:new 0 0 512.001 512.001;" xml:space="preserve">
<path style="fill:#D18839;" d="M256,503.916C119.08,503.916,8.084,392.92,8.084,256S119.08,8.085,256,8.085
	S503.916,119.081,503.916,256S392.92,503.916,256,503.916z"/>
<path style="fill:#F1C864;" d="M379.958,470.742C305.858,427.875,256,347.763,256,256S305.858,84.126,379.958,41.259
	C454.058,84.126,503.916,164.238,503.916,256S454.058,427.875,379.958,470.742z"/>
<path style="fill:#BC0000;" d="M256,450.021c-107.155,0-194.021-86.866-194.021-194.021S148.845,61.979,256,61.979
	S450.021,148.846,450.021,256S363.155,450.021,256,450.021z"/>
<path style="fill:#F93100;" d="M256,256c0-70.146,29.141-133.48,75.968-178.579c69.398,29.56,118.053,98.386,118.053,178.579
	S401.366,405.019,331.968,434.58C285.141,389.48,256,326.148,256,256z"/>
<path style="fill:#FFFFFF;" d="M264.084,105.095c0,4.465-3.62,8.084-8.084,8.084c-78.752,0-142.821,64.07-142.821,142.821
	c0,4.465-3.62,8.084-8.084,8.084s-8.084-3.62-8.084-8.084c0-87.666,71.322-158.989,158.989-158.989
	C260.465,97.011,264.084,100.63,264.084,105.095z M286.72,100.245h-1.078c-4.465,0-8.084,3.62-8.084,8.084s3.62,8.084,8.084,8.084
	h1.078c4.465,0,8.084-3.62,8.084-8.084S291.185,100.245,286.72,100.245z"/>
<path style="fill:#D18839;" d="M256,353.011c-53.578,0-97.011-43.433-97.011-97.011S202.422,158.99,256,158.99
	S353.01,202.423,353.01,256S309.578,353.011,256,353.011z"/>
<g>
	<path style="fill:#FFB150;" d="M274.934,351.158C262.743,321.855,256,289.717,256,256s6.743-65.855,18.934-95.158
		c44.513,8.807,78.076,48.06,78.076,95.158S319.446,342.35,274.934,351.158z"/>
	<path style="fill:#FFB150;" d="M256,288.337c-17.86,0-32.337-14.477-32.337-32.337c0-17.86,14.477-32.337,32.337-32.337
		s32.337,14.477,32.337,32.337C288.337,273.86,273.86,288.337,256,288.337z"/>
</g>
<path style="fill:#D18839;" d="M256,288.337v-64.674c17.86,0,32.337,14.477,32.337,32.337
	C288.337,273.86,273.86,288.337,256,288.337z"/>
<path d="M512,256c0-68.379-26.628-132.667-74.982-181.019C388.667,26.629,324.379,0,256,0S123.333,26.629,74.982,74.982
	C26.628,123.333,0,187.621,0,256S26.628,388.668,74.982,437.02C123.333,485.372,187.62,512,256,512s132.667-26.628,181.019-74.982
	C485.372,388.668,512,324.381,512,256z M256,495.832C123.756,495.832,16.168,388.244,16.168,256S123.756,16.169,256,16.169
	S495.832,123.758,495.832,256S388.244,495.832,256,495.832z M256,53.895C144.559,53.895,53.895,144.559,53.895,256
	S144.559,458.106,256,458.106S458.105,367.442,458.105,256S367.441,53.895,256,53.895z M256,441.937
	c-102.526,0-185.937-83.411-185.937-185.937S153.474,70.064,256,70.064S441.937,153.474,441.937,256S358.526,441.937,256,441.937z
	 M256,215.579c-22.289,0-40.421,18.132-40.421,40.421s18.132,40.421,40.421,40.421s40.421-18.132,40.421-40.421
	C296.421,233.712,278.289,215.579,256,215.579z M231.747,256c0-10.539,6.759-19.525,16.168-22.862v45.724
	C238.507,275.525,231.747,266.539,231.747,256z M264.084,278.863v-45.724c9.409,3.337,16.168,12.324,16.168,22.862
	C280.253,266.539,273.493,275.525,264.084,278.863z M256,150.906c-57.95,0-105.095,47.145-105.095,105.095
	S198.05,361.095,256,361.095S361.095,313.95,361.095,256S313.95,150.906,256,150.906z M256,344.927
	c-49.033,0-88.926-39.893-88.926-88.926s39.893-88.926,88.926-88.926s88.926,39.893,88.926,88.926S305.033,344.927,256,344.927z
	 M509.633,498.199c3.157,3.158,3.157,8.276,0,11.433c-1.579,1.578-3.649,2.367-5.717,2.367s-4.138-0.789-5.717-2.367l-1.078-1.078
	c-3.157-3.158-3.157-8.276,0-11.433c3.158-3.156,8.276-3.156,11.433,0L509.633,498.199z M488.075,476.641
	c3.157,3.158,3.157,8.276,0,11.433c-1.579,1.578-3.649,2.367-5.717,2.367s-4.138-0.789-5.717-2.367l-21.558-21.558
	c-3.157-3.158-3.157-8.276,0-11.433c3.158-3.156,8.276-3.156,11.433,0L488.075,476.641z M455.738,498.199
	c3.157,3.158,3.157,8.276,0,11.433c-1.579,1.578-3.649,2.367-5.717,2.367s-4.138-0.789-5.717-2.367l-1.078-1.078
	c-3.157-3.158-3.157-8.276,0-11.433c3.158-3.156,8.276-3.156,11.433,0L455.738,498.199z M437.414,479.875
	c3.157,3.158,3.157,8.276,0,11.433c-1.579,1.578-3.649,2.367-5.717,2.367c-2.068,0-4.138-0.789-5.717-2.367l-10.779-10.779
	c-3.157-3.158-3.157-8.276,0-11.433c3.158-3.156,8.276-3.156,11.433,0L437.414,479.875z M509.633,444.304
	c3.157,3.158,3.157,8.276,0,11.433c-1.579,1.578-3.649,2.367-5.717,2.367s-4.138-0.789-5.717-2.367l-1.078-1.078
	c-3.157-3.158-3.157-8.276,0-11.433c3.158-3.156,8.276-3.156,11.433,0L509.633,444.304z M491.309,425.98
	c3.157,3.158,3.157,8.276,0,11.433c-1.579,1.578-3.649,2.367-5.717,2.367s-4.138-0.789-5.717-2.367l-10.779-10.779
	c-3.157-3.158-3.157-8.276,0-11.433c3.158-3.156,8.276-3.156,11.433,0L491.309,425.98z"/>
<g>
</g>
<g>
</g>
<g>
</g>
<g>
</g>
<g>
</g>
<g>
</g>
<g>
</g>
<g>
</g>
<g>
</g>
<g>
</g>
<g>
</g>
<g>
</g>
<g>
</g>
<g>
</g>
<g>
</g>
</svg>
