<?xml version="1.0" encoding="iso-8859-1"?>
<!-- Generator: Adobe Illustrator 19.0.0, SVG Export Plug-In . SVG Version: 6.00 Build 0)  -->
<svg version="1.1" id="Layer_1" xmlns="http://www.w3.org/2000/svg" xmlns:xlink="http://www.w3.org/1999/xlink" x="0px" y="0px"
	 viewBox="0 0 512 512" style="enable-background:new 0 0 512 512;" xml:space="preserve">
<path style="fill:#FFB150;" d="M501.985,132.088L272.821,361.437c-8.438,8.444-22.117,8.444-30.555,0l0,0
	c-12.657-12.666-33.176-12.666-45.832,0l-89.7,89.771c-2.084,2.085-2.109,5.45-0.077,7.566c2.089,2.176,2.261,5.538,0.129,7.671
	L72.359,500.9c-4.219,4.222-11.059,4.222-15.278,0l-45.833-45.87c-4.219-4.222-4.219-11.068,0-15.29l34.375-34.402
	c2.084-2.085,5.446-2.111,7.56-0.078c2.174,2.091,5.534,2.263,7.666,0.129l89.752-89.824c12.657-12.666,12.657-33.203,0-45.87l0,0
	c-8.438-8.444-8.438-22.136,0-30.58L379.764,9.769c8.438-8.444,42.637,12.092,76.388,45.87S510.423,123.644,501.985,132.088z"/>
<path style="fill:#D18839;" d="M478.959,109.026L249.796,338.375c-8.438,8.444-22.117,8.444-30.555,0l0,0
	c-12.657-12.666-33.177-12.666-45.832,0l-89.7,89.772c-2.084,2.085-2.109,5.45-0.077,7.566c2.089,2.176,2.26,5.538,0.128,7.671
	l-34.427,34.454c-4.219,4.222-11.059,4.222-15.278,0l-22.983-23.001c-4.033-4.235-3.981-10.936,0.176-15.096l34.374-34.402
	c2.084-2.085,5.446-2.111,7.56-0.078c2.174,2.091,5.534,2.262,7.666,0.129l89.752-89.824c12.657-12.666,12.657-33.203,0-45.87
	c-8.438-8.444-8.438-22.136,0-30.58L379.764,9.769c7.462-7.468,35.075,7.739,64.705,34.718
	C471.302,74.058,486.403,101.575,478.959,109.026z"/>
<path style="fill:#004859;" d="M196.485,361.489l-89.699,89.772c-2.084,2.085-2.109,5.45-0.077,7.566
	c2.089,2.176,2.26,5.538,0.129,7.671l-34.427,34.454c-4.219,4.222-11.059,4.222-15.278,0l-45.833-45.87
	c-4.219-4.222-4.219-11.068,0-15.29l34.374-34.402c2.084-2.085,5.446-2.111,7.56-0.078c2.174,2.091,5.534,2.263,7.666,0.129
	l89.752-89.824c11.347-11.356,12.513-29.034,3.514-41.699c12.709-11.841,32.602-11.576,44.979,0.812l38.194,38.224
	c12.377,12.387,12.643,32.296,0.812,45.016C225.497,348.966,207.833,350.133,196.485,361.489z"/>
<path style="fill:#007DBC;" d="M57.142,500.979L37.838,481.66c-4.004-4.237-3.943-10.915,0.204-15.065l34.374-34.402
	c2.084-2.085,5.446-2.111,7.56-0.078c2.174,2.091,5.534,2.263,7.666,0.129l111.122-111.229
	c11.347-11.356,12.513-29.034,3.514-41.699c0.249-0.232,0.504-0.451,0.759-0.673l34.312,34.338
	c12.377,12.387,12.643,32.296,0.812,45.015c-12.654-9.007-30.319-7.84-41.666,3.516l-89.7,89.772
	c-2.084,2.085-2.109,5.45-0.078,7.566c2.089,2.176,2.261,5.538,0.129,7.671l-34.427,34.454
	C68.202,505.201,61.361,505.201,57.142,500.979z"/>
<path style="fill:#FFFFFF;" d="M400.694,188.251c3.156,3.164,3.153,8.29-0.005,11.45l-0.764,0.764
	c-3.157,3.159-8.274,3.157-11.43-0.003c0,0-0.001-0.001-0.002-0.002c-3.156-3.164-3.153-8.29,0.005-11.45l0.763-0.764
	c3.157-3.159,8.274-3.158,11.429,0.002C400.693,188.249,400.694,188.251,400.694,188.251z M468.679,120.21
	c0,0-0.001-0.001-0.002-0.002c-3.156-3.16-8.273-3.163-11.43-0.002l-45.832,45.869c-3.158,3.161-3.16,8.288-0.003,11.452
	l0.001,0.001c3.156,3.16,8.273,3.163,11.43,0.002l45.832-45.87C471.833,128.5,471.835,123.373,468.679,120.21z"/>
<path d="M501.819,99.331c-8.987-14.98-23.176-32.47-39.954-49.25c-6.838-6.84-67.415-66.233-87.815-45.837L144.886,233.432
	c-5.609,5.61-8.699,13.068-8.699,21.003c0,7.934,3.089,15.393,8.699,21.003c4.593,4.593,7.122,10.699,7.122,17.195
	c0,6.496-2.53,12.602-7.122,17.196l-87.997,88.007c-0.11-0.072-0.225-0.133-0.337-0.202c-0.154-0.1-0.312-0.193-0.471-0.281
	c-0.109-0.061-0.218-0.124-0.329-0.182c-0.042-0.02-0.083-0.041-0.125-0.06c-5.077-2.601-11.503-1.784-15.718,2.428L5.535,433.916
	C1.965,437.485,0,442.231,0,447.278c0,5.049,1.965,9.795,5.534,13.364l45.833,45.837C55.048,510.16,59.884,512,64.719,512
	s9.672-1.84,13.353-5.521l34.427-34.43c4.589-4.59,5.134-11.6,1.642-16.922l88.007-88.015c9.487-9.488,24.92-9.488,34.405,0
	c11.574,11.574,30.406,11.577,41.983,0l229.164-229.187c0,0,0,0,0.001,0C514.963,130.659,513.04,118.035,501.819,99.331z
	 M190.718,355.665l-89.7,89.71c-4.571,4.574-5.157,11.754-1.71,16.989l-32.665,32.668c-1.063,1.061-2.79,1.062-3.85,0
	l-45.833-45.837c-0.691-0.691-0.794-1.497-0.794-1.917c0-0.418,0.103-1.224,0.794-1.915l32.432-32.435l26.157,24.667
	c1.562,1.472,3.554,2.202,5.541,2.202c2.149,0,4.295-0.854,5.885-2.542c3.061-3.253,2.909-8.373-0.341-11.438L68.697,408.9
	l87.616-87.625c7.65-7.651,11.862-17.822,11.862-28.643c0-5.573-1.125-10.971-3.255-15.944c9.268-5.108,21.021-3.711,28.861,4.13
	l38.194,38.197c7.714,7.716,9.182,19.292,4.31,28.503C221.332,340.65,203.02,343.363,190.718,355.665z M495.804,126.947
	L267.108,355.665c-4.785,4.783-12.28,5.213-17.57,1.319c9.385-15.626,7.255-36.023-6.136-49.415l-38.194-38.197
	c-13.466-13.465-33.88-15.554-49.515-6.065c-2.151-2.461-3.338-5.573-3.338-8.872c0-3.61,1.406-7.003,3.959-9.556L385.01,16.157
	c2.057-0.193,9.118,1.239,22.856,10.057c13.074,8.392,28.192,20.935,42.573,35.315c14.375,14.376,26.912,29.493,35.303,42.565
	C494.559,117.828,495.992,124.906,495.804,126.947z"/>
<g>
</g>
<g>
</g>
<g>
</g>
<g>
</g>
<g>
</g>
<g>
</g>
<g>
</g>
<g>
</g>
<g>
</g>
<g>
</g>
<g>
</g>
<g>
</g>
<g>
</g>
<g>
</g>
<g>
</g>
</svg>
