<?xml version="1.0" encoding="iso-8859-1"?>
<!-- Generator: Adobe Illustrator 19.0.0, SVG Export Plug-In . SVG Version: 6.00 Build 0)  -->
<svg version="1.1" id="Layer_1" xmlns="http://www.w3.org/2000/svg" xmlns:xlink="http://www.w3.org/1999/xlink" x="0px" y="0px"
	 viewBox="0 0 512 512" style="enable-background:new 0 0 512 512;" xml:space="preserve">
<path style="fill:#636363;" d="M212.884,153.359h-97.011c-5.953,0-10.779-4.826-10.779-10.779v-4.856
	c0-5.953,4.826-10.779,10.779-10.779h97.011V153.359z M109.047,452.896L109.047,452.896c-14.089,0-25.511,11.421-25.511,25.51l0,0
	c0,14.089,11.421,25.511,25.511,25.511l0,0c14.089,0,25.511-11.421,25.511-25.511l0,0
	C134.557,464.317,123.135,452.896,109.047,452.896z M417.684,460.8h64.674l-86.232-323.368h-64.674L417.684,460.8z"/>
<path style="fill:#007DBC;" d="M471.579,439.242L471.579,439.242c0,17.86-14.477,32.337-32.337,32.337H40.421
	c-17.86,0-32.337-14.477-32.337-32.337l0,0c0-17.86,14.477-32.337,32.337-32.337h398.821
	C457.102,406.905,471.579,421.382,471.579,439.242z M404.97,14.292L358.334,88.91c-9.654,15.445-26.583,24.828-44.797,24.828
	H210.749c-7.294,0-13.206,5.913-13.206,13.206v26.414c0,7.294,5.913,13.206,13.206,13.206h201.768
	c13.075,0,24.181-9.565,26.122-22.496L456.76,23.25c1.198-7.985-4.986-15.166-13.061-15.166h-27.531
	C411.616,8.084,407.384,10.43,404.97,14.292z"/>
<path style="fill:#004859;" d="M390.453,333.722h61.424c13.709,0,25.456,9.803,27.908,23.291l24.131,132.72
	c0,7.833-6.35,14.183-14.183,14.183H248.625c-7.833,0-14.183-6.35-14.183-14.183l0,0
	C234.442,403.57,304.291,333.722,390.453,333.722z"/>
<path style="fill:#FFFFFF;" d="M458.105,447.562c0,11.757-9.565,21.322-21.322,21.322H331.453c-4.465,0-8.084-3.62-8.084-8.084
	c0-4.465,3.62-8.084,8.084-8.084h105.331c2.652,0,4.842-2.014,5.122-4.592l-7.231-39.773c-0.799-4.393,2.115-8.602,6.507-9.4
	c4.393-0.801,8.602,2.115,9.4,6.507l7.392,40.658C458.061,446.593,458.105,447.078,458.105,447.562z M299.116,452.716h-1.078
	c-4.465,0-8.084,3.62-8.084,8.084c0,4.465,3.62,8.084,8.084,8.084h1.078c4.465,0,8.084-3.62,8.084-8.084
	C307.2,456.335,303.58,452.716,299.116,452.716z"/>
<path d="M511.87,488.286l-24.131-132.719c-2.983-16.403-16.639-28.546-33.026-29.813l-40.309-151.16
	c16.367-0.866,29.769-12.928,32.229-29.326l18.123-120.819c0.921-6.135-0.874-12.351-4.922-17.051
	C455.783,2.696,449.904,0,443.699,0h-27.531c-7.389,0-14.139,3.741-18.055,10.007l-46.635,74.618
	c-8.23,13.168-22.414,21.029-37.942,21.029H210.749c-8.879,0-16.496,5.467-19.687,13.207h-75.189
	c-10.401,0-18.863,8.463-18.863,18.863v4.855c0,10.401,8.463,18.863,18.863,18.863h75.187c3.191,7.74,10.808,13.207,19.687,13.207
	H333.01l40.495,151.859c-49.826,5.135-93.106,32.66-119.595,72.313H40.421C18.132,398.821,0,416.953,0,439.242
	c0,22.289,18.132,40.421,40.421,40.421h35.064c0.219,5.901,1.959,11.42,4.851,16.168H51.2c-4.465,0-8.084,3.618-8.084,8.084
	S46.735,512,51.2,512h197.425h61.27h179.838c12.278,0,22.267-9.99,22.267-22.267C512,489.248,511.956,488.763,511.87,488.286z
	 M113.179,142.579v-4.855c0-1.486,1.209-2.695,2.695-2.695h73.584v10.244h-73.584C114.388,145.273,113.179,144.065,113.179,142.579z
	 M205.626,153.357v-26.413c0-2.825,2.298-5.123,5.122-5.123h102.788c21.14,0,40.449-10.702,51.652-28.629l46.636-74.618l0,0
	c0.942-1.507,2.565-2.407,4.344-2.407h27.53c2.044,0,3.309,1.115,3.882,1.78c0.572,0.664,1.488,2.081,1.185,4.104L430.642,142.87
	c-1.357,9.046-8.98,15.61-18.127,15.61H210.749C207.924,158.481,205.626,156.183,205.626,153.357z M349.743,174.649h47.94
	l40.265,150.988h-47.495c-0.149,0-0.295,0.005-0.444,0.005L349.743,174.649z M16.168,439.242c0-13.372,10.879-24.253,24.253-24.253
	h203.97c-7.699,14.984-13.149,31.303-15.926,48.505H40.421C27.048,463.495,16.168,452.614,16.168,439.242z M226.676,479.663
	c-0.203,3.332-0.318,6.687-0.318,10.07c0,2.117,0.316,4.157,0.87,6.099h-89.47c2.892-4.748,4.633-10.267,4.851-16.168H226.676z
	 M91.685,479.663h34.724c-0.649,9.021-8.178,16.168-17.363,16.168C99.863,495.832,92.334,488.684,91.685,479.663z M489.733,495.832
	H309.895h-61.27c-3.363,0-6.099-2.736-6.099-6.099c0-81.566,66.36-147.926,147.927-147.926h57.986c0.009,0,0.017,0.002,0.026,0.002
	c0.011,0,0.022-0.002,0.032-0.002h3.379c9.808,0,18.2,7.004,19.954,16.654l23.973,131.851
	C495.513,493.404,492.901,495.832,489.733,495.832z M17.246,503.916c0,4.466-3.62,8.084-8.084,8.084H8.084
	C3.62,512,0,508.382,0,503.916s3.62-8.084,8.084-8.084h1.078C13.627,495.832,17.246,499.45,17.246,503.916z"/>
<g>
</g>
<g>
</g>
<g>
</g>
<g>
</g>
<g>
</g>
<g>
</g>
<g>
</g>
<g>
</g>
<g>
</g>
<g>
</g>
<g>
</g>
<g>
</g>
<g>
</g>
<g>
</g>
<g>
</g>
</svg>
