<?xml version="1.0" encoding="iso-8859-1"?>
<!-- Generator: Adobe Illustrator 19.0.0, SVG Export Plug-In . SVG Version: 6.00 Build 0)  -->
<svg version="1.1" id="Layer_1" xmlns="http://www.w3.org/2000/svg" xmlns:xlink="http://www.w3.org/1999/xlink" x="0px" y="0px"
	 viewBox="0 0 512 512" style="enable-background:new 0 0 512 512;" xml:space="preserve">
<path style="fill:#1A6399;" d="M212.876,358.4c0-80.366,65.151-145.516,145.52-145.516s145.52,65.15,145.52,145.516
	s-65.151,145.516-145.52,145.516S212.876,438.766,212.876,358.4z"/>
<path style="fill:#007DBC;" d="M358.396,212.884c13.941,0,27.423,1.964,40.187,5.624c3.661,12.764,5.624,26.246,5.624,40.186
	c0,80.366-65.151,145.516-145.52,145.516c-13.941,0-27.423-1.964-40.187-5.624c-3.661-12.764-5.624-26.246-5.624-40.186
	C212.876,278.034,278.027,212.884,358.396,212.884z"/>
<path style="fill:#F93100;" d="M412.292,223.663c0,11.906-24.13,21.558-53.896,21.558c-29.766,0-53.897-9.651-53.897-21.558
	s24.13-21.558,53.897-21.558C388.162,202.105,412.292,211.757,412.292,223.663z M137.421,8.084H51.186
	c-11.906,0-21.559,9.651-21.559,21.558l0,0c0,11.906,9.653,21.558,21.559,21.558h86.234c11.906,0,21.559-9.651,21.559-21.558l0,0
	C158.979,17.736,149.328,8.084,137.421,8.084z"/>
<path style="fill:#FFFFFF;" d="M458.105,358.4c0,54.978-44.728,99.705-99.708,99.705c-4.465,0-8.084-3.62-8.084-8.084
	c0-4.465,3.62-8.084,8.084-8.084c46.064,0,83.539-37.474,83.539-83.537c0-4.465,3.62-8.084,8.084-8.084
	S458.105,353.936,458.105,358.4z M450.019,320.135c-4.465,0-8.084,3.62-8.084,8.084v1.078c0,4.465,3.62,8.084,8.084,8.084
	s8.084-3.62,8.084-8.084v-1.078C458.105,323.754,454.484,320.135,450.019,320.135z"/>
<path style="fill:#A50000;" d="M158.979,29.642L158.979,29.642c0,11.906-9.653,21.558-21.559,21.558H51.186
	c-10.365,0-19.015-7.318-21.083-17.066c2.586,1.098,5.43,1.706,8.417,1.706h86.234c11.906,0,21.559-9.651,21.559-21.558l0,0
	c0-1.541-0.168-3.042-0.475-4.492C153.562,13.07,158.979,20.723,158.979,29.642z"/>
<path d="M222.9,468.586c-3.657-2.557-8.7-1.667-11.26,1.99c-11.066,15.814-29.946,25.256-50.506,25.256
	c-32.987,0-59.825-24.419-59.825-54.434V134.737h32.068c11.703,0,22.335-6.909,27.089-17.603l23.953-53.895
	c3.642-8.196,3.407-17.468-0.646-25.44c-3.8-7.476-10.429-12.911-18.36-15.134C162.269,9.679,150.551,0,136.61,0H50.375
	c-13.94,0-25.658,9.677-28.806,22.664c-8.231,2.311-15.063,8.112-18.751,15.931c-3.666,7.776-3.76,16.757-0.254,24.643
	l23.954,53.895c4.754,10.695,15.387,17.604,27.089,17.604h31.535v306.661c0,38.93,34.091,70.602,75.994,70.602
	c25.833,0,49.666-12.021,63.754-32.156C227.449,476.186,226.558,471.146,222.9,468.586z M50.375,16.169h86.234
	c7.43,0,13.474,6.044,13.474,13.474s-6.045,13.474-13.474,13.474H50.375c-7.43,0-13.474-6.044-13.474-13.474
	S42.945,16.169,50.375,16.169z M41.293,110.567L17.339,56.673c-1.617-3.639-1.58-7.61,0.105-11.18
	c1.132-2.4,2.908-4.367,5.071-5.726c4.147,11.374,15.069,19.517,27.859,19.517h86.234c12.795,0,23.721-8.15,27.865-19.53
	c2.047,1.284,3.744,3.122,4.888,5.371c1.864,3.665,1.963,7.766,0.283,11.547l-23.953,53.895c-2.16,4.86-6.993,8.001-12.313,8.001
	H53.606C48.288,118.569,43.454,115.428,41.293,110.567z M484.879,271.227c-16.518-23.919-39.179-42.476-65.712-53.907
	c-3.737-9.572-15.885-16.274-31.13-19.957v-24.36c0-13.147-8.607-24.317-20.481-28.186V70.602C367.557,31.672,333.466,0,291.563,0
	S215.57,31.672,215.57,70.602v34.493v107.789v88.865c-7.102,17.883-10.779,37.032-10.779,56.651
	c0,84.696,68.907,153.6,153.604,153.6S512,443.096,512,358.4C512,327.064,502.623,296.92,484.879,271.227z M404.193,223.549
	c0.001,0.04-0.003,0.078,0,0.117l0.005,0.073c-0.218,3.529-15.952,13.397-45.802,13.397c-29.849,0-45.582-9.867-45.802-13.397
	l0.005-0.073c0.002-0.04-0.002-0.078,0-0.117c0.19-2.086,5.664-6.31,16.153-9.454v2.023c0,4.466,3.62,8.084,8.084,8.084
	s8.084-3.618,8.084-8.084v-5.207c4.114-0.455,8.603-0.721,13.474-0.721s9.36,0.266,13.474,0.721v5.207
	c0,4.466,3.62,8.084,8.084,8.084s8.084-3.618,8.084-8.084v-2.023C398.528,217.239,404.003,221.463,404.193,223.549z M371.87,173.002
	v21.68c-4.434-0.435-8.957-0.661-13.474-0.661c-4.516,0-9.04,0.225-13.474,0.661v-21.68c0-4.861,2.597-9.117,6.467-11.487v8.253
	c0,4.466,3.62,8.084,8.084,8.084s8.084-3.618,8.084-8.084v-6.617C370.203,165.613,371.87,169.113,371.87,173.002z M231.739,212.884
	V105.095V70.602c0-30.015,26.837-54.434,59.825-54.434s59.825,24.419,59.825,54.434v73.602
	c-12.974,3.157-22.637,14.867-22.637,28.798v24.36c-15.245,3.683-27.391,10.386-31.13,19.957
	c-26.532,11.431-49.194,29.988-65.712,53.907c-0.059,0.086-0.113,0.175-0.172,0.261L231.739,212.884L231.739,212.884z
	 M358.396,495.832c-75.782,0-137.436-61.651-137.436-137.432c0-53.791,30.677-101.721,78.845-124.348
	c8.869,12.676,33.845,19.253,58.591,19.253c24.746,0,49.722-6.578,58.591-19.253c48.167,22.627,78.845,70.557,78.845,124.348
	C495.832,434.18,434.178,495.832,358.396,495.832z"/>
<g>
</g>
<g>
</g>
<g>
</g>
<g>
</g>
<g>
</g>
<g>
</g>
<g>
</g>
<g>
</g>
<g>
</g>
<g>
</g>
<g>
</g>
<g>
</g>
<g>
</g>
<g>
</g>
<g>
</g>
</svg>
