<?xml version="1.0" encoding="iso-8859-1"?>
<!-- Generator: Adobe Illustrator 19.0.0, SVG Export Plug-In . SVG Version: 6.00 Build 0)  -->
<svg version="1.1" id="Layer_1" xmlns="http://www.w3.org/2000/svg" xmlns:xlink="http://www.w3.org/1999/xlink" x="0px" y="0px"
	 viewBox="0 0 512 512" style="enable-background:new 0 0 512 512;" xml:space="preserve">
<path style="fill:#D18839;" d="M48.866,498.571l-35.438-35.437c-7.142-7.142-7.142-18.721,0-25.863l109.324-109.324
	c0.23-0.23,0.466-0.453,0.707-0.67L473.403,12.771c7.231-6.499,18.281-6.203,25.156,0.67l0,0c6.874,6.874,7.169,17.925,0.67,25.156
	L184.722,388.541c-0.217,0.241-0.441,0.478-0.67,0.707L74.727,498.571C67.586,505.714,56.008,505.714,48.866,498.571z"/>
<path style="fill:#FFB150;" d="M184.052,389.248L74.727,498.571c-7.142,7.142-18.721,7.142-25.863,0l-17.718-17.718L498.559,13.441
	c6.874,6.874,7.169,17.925,0.67,25.156L184.722,388.541C184.506,388.783,184.281,389.019,184.052,389.248z"/>
<path style="fill:#8C1A00;" d="M164.691,408.609l-89.962,89.962c-7.142,7.142-18.721,7.142-25.863,0l-35.438-35.438
	c-7.142-7.142-7.142-18.721,0-25.862l89.962-89.962L164.691,408.609z"/>
<path style="fill:#BF4D00;" d="M164.691,408.609l-89.962,89.962c-7.142,7.142-18.721,7.142-25.863,0l-30.65-30.65
	c7.142,7.142,18.721,7.142,25.863,0l89.962-89.962L164.691,408.609z"/>
<path style="fill:#F93100;" d="M157.069,416.231l-61.3-61.3l22.866-22.866l61.3,61.3L157.069,416.231z"/>
<path style="fill:#F9B300;" d="M157.069,416.231l-61.3-61.3l11.433-11.433l61.3,61.3L157.069,416.231z"/>
<path style="fill:#FFFFFF;" d="M330.308,181.691c3.157,3.158,3.157,8.276,0,11.434l-152.44,152.44
	c-3.157,3.157-8.276,3.157-11.433,0s-3.157-8.276,0-11.433l152.441-152.441C322.032,178.534,327.151,178.534,330.308,181.691z
	 M353.175,158.826c-3.157-3.157-8.276-3.157-11.433,0l-0.762,0.762c-3.157,3.157-3.157,8.276,0,11.433
	c3.157,3.158,8.276,3.158,11.433,0l0.762-0.762C356.332,167.102,356.332,161.982,353.175,158.826z"/>
<path d="M504.275,7.724c-9.917-9.913-25.849-10.336-36.277-0.966l-349.94,314.504c-0.347,0.311-0.687,0.634-1.024,0.969
	L7.712,431.555c-10.282,10.282-10.282,27.012,0,37.295l35.437,35.438C48.29,509.429,55.043,512,61.796,512
	s13.507-2.571,18.648-7.711L189.76,394.971c0.331-0.331,0.652-0.669,0.973-1.025L505.242,44.002
	C514.614,33.574,514.189,17.639,504.275,7.724z M493.216,33.193L178.718,383.127c-0.122,0.136-0.247,0.268-0.383,0.403
	L69.011,492.855c-3.979,3.979-10.452,3.979-14.43,0l-35.437-35.437c-3.979-3.979-3.979-10.452,0-14.43l76.624-76.624l32.556,32.556
	c1.578,1.578,3.648,2.367,5.716,2.367c2.068,0,4.138-0.789,5.716-2.367c3.157-3.158,3.157-8.276,0-11.434l-32.555-32.556
	l11.432-11.432l32.556,32.556c1.578,1.578,3.648,2.367,5.716,2.367c2.068,0,4.138-0.789,5.716-2.367
	c3.157-3.158,3.157-8.276,0-11.434l-32.48-32.481L478.808,18.784c4.033-3.627,10.2-3.461,14.035,0.373
	C496.678,22.994,496.842,29.159,493.216,33.193z"/>
<g>
</g>
<g>
</g>
<g>
</g>
<g>
</g>
<g>
</g>
<g>
</g>
<g>
</g>
<g>
</g>
<g>
</g>
<g>
</g>
<g>
</g>
<g>
</g>
<g>
</g>
<g>
</g>
<g>
</g>
</svg>
