<?xml version="1.0" encoding="iso-8859-1"?>
<!-- Generator: Adobe Illustrator 19.0.0, SVG Export Plug-In . SVG Version: 6.00 Build 0)  -->
<svg version="1.1" id="Layer_1" xmlns="http://www.w3.org/2000/svg" xmlns:xlink="http://www.w3.org/1999/xlink" x="0px" y="0px"
	 viewBox="0 0 512 512" style="enable-background:new 0 0 512 512;" xml:space="preserve">
<path style="fill:#BC0000;" d="M420.379,181.494v0.813c0,5.98-0.886,11.927-2.628,17.646l-56.484,185.395v97.011
	c0,11.906-9.623,21.558-21.495,21.558H167.809c-11.872,0-21.495-9.651-21.495-21.558v-97.011L94.74,159.638
	c-4.935-21.595-4.004-44.121,2.694-65.234l8.324-26.235c11.352-35.784,44.49-60.085,81.933-60.085h82.222
	c35.615,0,64.486,28.955,64.486,64.674v43.116c0,0,8.678,0,20.52,0C391.068,115.874,420.379,145.272,420.379,181.494z"/>
<path style="fill:#A50000;" d="M138.216,94.405c-6.698,21.112-7.628,43.639-2.694,65.234l51.575,225.708v97.011
	c0,11.906,9.623,21.558,21.495,21.558H167.81c-11.872,0-21.495-9.651-21.495-21.558v-97.011L94.74,159.638
	c-4.935-21.595-4.004-44.121,2.694-65.234l8.324-26.235c11.352-35.784,44.49-60.085,81.933-60.085h40.782
	c-37.443,0-70.581,24.301-81.934,60.086L138.216,94.405z M334.398,115.874L334.398,115.874v102.673
	c0,8.779,7.096,15.896,15.849,15.896c7.661,0,14.224-5.494,15.594-13.052l10.083-55.615
	C380.634,139.791,360.731,115.874,334.398,115.874z"/>
<path style="fill:#FF0000;" d="M334.398,72.758v43.116H153.879c-11.025,0-19.037-10.716-15.714-21.258
	c0.023-0.07,0.044-0.14,0.067-0.211l8.324-26.235c11.351-35.784,44.49-60.085,81.933-60.085h41.425
	C305.527,8.084,334.398,37.04,334.398,72.758z"/>
<path style="fill:#FFFFFF;" d="M255.999,71.411c0,4.465-3.609,8.084-8.061,8.084h-75.234c-16.298,0-29.556,13.297-29.556,29.642
	c0,4.465-3.609,8.084-8.061,8.084c-4.452,0-8.06-3.62-8.06-8.084c0-25.26,20.491-45.811,45.678-45.811h75.234
	C252.39,63.326,255.999,66.946,255.999,71.411z M135.088,128.404c-4.452,0-8.06,3.62-8.06,8.084v0.943
	c0,4.465,3.609,8.084,8.06,8.084s8.061-3.62,8.061-8.084v-0.943C143.148,132.024,139.539,128.404,135.088,128.404z"/>
<path style="fill:#720000;" d="M339.589,503.916H167.751c-11.906,0-21.558-9.651-21.558-21.558v-97.011h214.953v97.011
	C361.147,494.264,351.494,503.916,339.589,503.916z"/>
<path style="fill:#FF0000;" d="M382.732,450.021H232.389c-17.86,0-32.337-14.477-32.337-32.337v-32.337
	c0-17.86,14.477-32.337,32.337-32.337h150.342c5.953,0,10.779,4.826,10.779,10.779v75.453
	C393.511,445.195,388.684,450.021,382.732,450.021z"/>
<path style="fill:#720000;" d="M334.352,417.684h-75.14c-8.929,0-16.168-7.239-16.168-16.168l0,0
	c0-8.929,7.239-16.168,16.168-16.168h75.14c8.929,0,16.168,7.239,16.168,16.168l0,0C350.52,410.445,343.281,417.684,334.352,417.684
	z"/>
<path d="M364.525,108.414c-4.419-0.575-8.485,2.537-9.065,6.966c-0.58,4.426,2.538,8.485,6.966,9.065
	c28.429,3.723,49.869,28.249,49.869,57.049v0.813c0,5.188-0.766,10.332-2.278,15.291l-44.887,147.329H232.389
	c-22.289,0-40.421,18.132-40.421,40.421v32.337c0,22.289,18.132,40.421,40.421,40.421h150.343c10.402,0,18.863-8.463,18.863-18.863
	v-75.453c0-10.401-8.463-18.863-18.863-18.863h-0.698l43.45-142.617c1.978-6.487,2.98-13.217,2.98-20.004v-0.813
	C428.464,144.605,400.976,113.188,364.525,108.414z M385.427,363.789v75.453c0,1.486-1.208,2.695-2.695,2.695H232.389
	c-13.372,0-24.253-10.88-24.253-24.253v-32.337c0-13.372,10.88-24.253,24.253-24.253h138.705c0.01,0,0.019,0.002,0.029,0.002
	c0.009,0,0.017-0.002,0.026-0.002h11.583C384.218,361.095,385.427,362.303,385.427,363.789z M369.352,482.358
	c0,16.344-13.27,29.642-29.58,29.642H167.809c-16.31,0-29.58-13.298-29.58-29.642v-96.099L86.857,161.44
	c-5.252-22.984-4.26-47.009,2.869-69.48l8.324-26.234C110.522,26.414,146.547,0,187.69,0h82.223c40.015,0,72.57,32.639,72.57,72.758
	v96.741c0,4.466-3.618,8.084-8.084,8.084c-4.466,0-8.084-3.618-8.084-8.084V72.758c0-31.203-25.301-56.589-56.402-56.589H187.69
	c-34.066,0-63.895,21.88-74.228,54.447l-8.324,26.235c-6.257,19.724-7.128,40.813-2.518,60.988l50.139,219.425h17.258
	c4.466,0,8.084,3.618,8.084,8.084s-3.618,8.084-8.084,8.084h-15.619v88.926c0,7.43,6.016,13.474,13.411,13.474h171.963
	c7.394,0,13.411-6.044,13.411-13.474c0-4.466,3.618-8.084,8.084-8.084S369.352,477.892,369.352,482.358z M334.352,377.263h-75.14
	c-13.372,0-24.253,10.88-24.253,24.253s10.88,24.253,24.253,24.253h75.14c13.372,0,24.253-10.88,24.253-24.253
	S347.724,377.263,334.352,377.263z M334.352,409.6h-75.14c-4.458,0-8.084-3.626-8.084-8.084s3.626-8.084,8.084-8.084h75.14
	c4.458,0,8.084,3.626,8.084,8.084S338.809,409.6,334.352,409.6z M342.483,201.027v1.078c0,4.466-3.618,8.084-8.084,8.084
	c-4.466,0-8.084-3.618-8.084-8.084v-1.078c0-4.466,3.618-8.084,8.084-8.084C338.864,192.943,342.483,196.562,342.483,201.027z"/>
<g>
</g>
<g>
</g>
<g>
</g>
<g>
</g>
<g>
</g>
<g>
</g>
<g>
</g>
<g>
</g>
<g>
</g>
<g>
</g>
<g>
</g>
<g>
</g>
<g>
</g>
<g>
</g>
<g>
</g>
</svg>
