<?xml version="1.0" encoding="iso-8859-1"?>
<!-- Generator: Adobe Illustrator 19.0.0, SVG Export Plug-In . SVG Version: 6.00 Build 0)  -->
<svg version="1.1" id="Layer_1" xmlns="http://www.w3.org/2000/svg" xmlns:xlink="http://www.w3.org/1999/xlink" x="0px" y="0px"
	 viewBox="0 0 512 512" style="enable-background:new 0 0 512 512;" xml:space="preserve">
<path style="fill:#565656;" d="M353.01,388.042H158.989V102.4H353.01V388.042z"/>
<path style="fill:#AAAAAA;" d="M169.768,97.011L256,226.358v167.074c0,23.812-19.304,43.116-43.116,43.116h-64.674
	c-23.812,0-43.116-19.304-43.116-43.116V242.526c0-5.953-4.826-10.779-10.779-10.779l0,0c-47.625,0-86.232-38.607-86.232-86.232
	v-26.947c0-11.906,9.651-21.558,21.558-21.558h75.453H169.768z"/>
<path style="fill:#727272;" d="M406.905,97.011h75.453c11.906,0,21.558,9.651,21.558,21.558v26.947
	c0,47.625-38.607,86.232-86.232,86.232l0,0c-5.953,0-10.779,4.826-10.779,10.779v150.905c0,23.812-19.304,43.116-43.116,43.116
	h-64.674c-23.812,0-43.116-19.304-43.116-43.116V226.358l86.232-129.347H406.905z"/>
<path style="fill:#939393;" d="M51.2,97.011L51.2,97.011c0-11.906,9.651-21.558,21.558-21.558h97.011
	c11.906,0,21.558,9.651,21.558,21.558l0,0c0,29.765-24.13,53.895-53.895,53.895h-32.337C75.33,150.905,51.2,126.776,51.2,97.011z
	 M460.8,97.011L460.8,97.011c0-11.906-9.651-21.558-21.558-21.558h-97.011c-11.906,0-21.558,9.651-21.558,21.558l0,0
	c0,29.765,24.13,53.895,53.895,53.895h32.337C436.67,150.905,460.8,126.776,460.8,97.011z"/>
<path style="fill:#BCBCBC;" d="M299.116,287.124L299.116,287.124c0,11.906-9.651,21.558-21.558,21.558h-43.116
	c-11.906,0-21.558-9.651-21.558-21.558l0,0c0-11.906,9.651-21.558,21.558-21.558h43.116
	C289.464,265.566,299.116,275.218,299.116,287.124z M277.558,341.019h-43.116c-11.906,0-21.558,9.651-21.558,21.558l0,0
	c0,11.906,9.651,21.558,21.558,21.558h43.116c11.906,0,21.558-9.651,21.558-21.558l0,0
	C299.116,350.67,289.464,341.019,277.558,341.019z"/>
<path style="fill:#F99900;" d="M191.326,220.968v10.779c0,5.953-4.826,10.779-10.779,10.779h-32.337
	c-5.953,0-10.779-4.826-10.779-10.779v-10.779c0-5.953,4.826-10.779,10.779-10.779h32.337
	C186.501,210.189,191.326,215.015,191.326,220.968z M363.789,210.189h-32.337c-5.953,0-10.779,4.826-10.779,10.779v10.779
	c0,5.953,4.826,10.779,10.779,10.779h32.337c5.953,0,10.779-4.826,10.779-10.779v-10.779
	C374.568,215.015,369.743,210.189,363.789,210.189z"/>
<path style="fill:#BCBCBC;" d="M121.263,125.575L121.263,125.575c-28.272,0-51.444-21.775-53.699-49.466
	c1.666-0.413,3.4-0.656,5.193-0.656h97.011c1.794,0,3.527,0.244,5.193,0.656C172.707,103.8,149.535,125.575,121.263,125.575z
	 M444.435,76.109c-1.666-0.413-3.4-0.656-5.193-0.656h-97.011c-1.794,0-3.527,0.244-5.193,0.656
	c2.255,27.691,25.426,49.466,53.699,49.466l0,0C419.009,125.575,442.18,103.8,444.435,76.109z"/>
<path style="fill:#E2E2E2;" d="M277.558,297.903h-43.116c-5.953,0-10.779-4.826-10.779-10.779l0,0
	c0-5.953,4.826-10.779,10.779-10.779h43.116c5.953,0,10.779,4.826,10.779,10.779l0,0
	C288.337,293.077,283.511,297.903,277.558,297.903z M288.337,362.577L288.337,362.577c0-5.953-4.826-10.779-10.779-10.779h-43.116
	c-5.953,0-10.779,4.826-10.779,10.779l0,0c0,5.953,4.826,10.779,10.779,10.779h43.116
	C283.511,373.356,288.337,368.53,288.337,362.577z"/>
<path d="M482.358,88.926h-14.603c-3.529-12.426-14.971-21.558-28.512-21.558h-97.011c-15.435,0-28.147,11.861-29.514,26.947H199.282
	c-1.367-15.086-14.078-26.947-29.514-26.947H72.758c-13.542,0-24.983,9.132-28.512,21.558H29.642C13.297,88.926,0,102.223,0,118.568
	v26.947c0,52.006,42.31,94.316,94.316,94.316c1.485,0,2.695,1.209,2.695,2.695v150.905c0,28.231,22.969,51.2,51.2,51.2h64.674
	c18.089,0,34.005-9.438,43.116-23.64c9.11,14.202,25.027,23.64,43.116,23.64h64.674c28.231,0,51.2-22.969,51.2-51.2V242.526
	c0-1.485,1.208-2.695,2.695-2.695c52.006,0,94.316-42.31,94.316-94.316v-26.947C512,102.223,498.702,88.926,482.358,88.926z
	 M342.232,83.537h97.011c7.43,0,13.474,6.044,13.474,13.474c0,25.26-20.55,45.811-45.811,45.811h-32.337
	c-25.26,0-45.811-20.55-45.811-45.811C328.758,89.581,334.802,83.537,342.232,83.537z M234.442,300.598
	c-7.43,0-13.474-6.044-13.474-13.474s6.044-13.474,13.474-13.474h43.116c7.43,0,13.474,6.044,13.474,13.474
	s-6.044,13.474-13.474,13.474H234.442z M256,211.784l-61.089-91.632c1.256-3.106,2.265-6.337,3.006-9.668h116.164
	c0.742,3.331,1.752,6.56,3.006,9.668L256,211.784z M72.758,83.537h97.011c7.43,0,13.474,6.044,13.474,13.474
	c0,25.26-20.55,45.811-45.811,45.811h-32.337c-25.26,0-45.811-20.55-45.811-45.811C59.284,89.581,65.328,83.537,72.758,83.537z
	 M212.884,428.463h-64.674c-19.316,0-35.032-15.716-35.032-35.032V242.526c0-10.401-8.463-18.863-18.863-18.863
	c-43.091,0-78.147-35.056-78.147-78.147v-26.947c0-7.43,6.044-13.474,13.474-13.474H43.66c3.975,30.366,30.001,53.895,61.435,53.895
	h32.337c19.563,0,37.026-9.12,48.393-23.32l62.453,93.68c-0.235,0.758-0.362,1.563-0.362,2.398v25.735h-13.474
	c-16.345,0-29.642,13.297-29.642,29.642c0,16.345,13.297,29.642,29.642,29.642h13.474v16.168h-13.474
	c-16.345,0-29.642,13.297-29.642,29.642c0,16.345,13.297,29.642,29.642,29.642h13.574c-0.059,0.397-0.1,0.8-0.1,1.213
	C247.916,412.747,232.2,428.463,212.884,428.463z M234.442,376.051c-7.43,0-13.474-6.044-13.474-13.474s6.044-13.474,13.474-13.474
	h43.116c7.43,0,13.474,6.044,13.474,13.474s-6.044,13.474-13.474,13.474H234.442z M495.832,145.516
	c0,43.091-35.056,78.147-78.147,78.147c-10.401,0-18.863,8.463-18.863,18.863v150.905c0,19.316-15.715,35.032-35.032,35.032h-64.674
	c-19.317,0-35.032-15.716-35.032-35.032c0-0.413-0.041-0.816-0.1-1.213h13.574c16.344,0,29.642-13.297,29.642-29.642
	c0-16.345-13.298-29.642-29.642-29.642h-13.474v-16.168h13.474c16.344,0,29.642-13.297,29.642-29.642
	c0-16.345-13.298-29.642-29.642-29.642h-13.474v-25.735c0-0.835-0.127-1.641-0.362-2.399l62.453-93.68
	c11.367,14.201,28.83,23.321,48.393,23.321h32.337c31.435,0,57.458-23.528,61.435-53.895h14.018c7.43,0,13.474,6.044,13.474,13.474
	V145.516z M156.295,361.095v1.078c0,4.465-3.62,8.084-8.084,8.084c-4.465,0-8.084-3.62-8.084-8.084v-1.078
	c0-4.465,3.62-8.084,8.084-8.084C152.675,353.01,156.295,356.63,156.295,361.095z M156.295,324.312v1.078
	c0,4.465-3.62,8.084-8.084,8.084c-4.465,0-8.084-3.62-8.084-8.084v-1.078c0-4.465,3.62-8.084,8.084-8.084
	C152.675,316.227,156.295,319.847,156.295,324.312z M156.295,285.642v1.078c0,4.465-3.62,8.084-8.084,8.084
	c-4.465,0-8.084-3.62-8.084-8.084v-1.078c0-4.465,3.62-8.084,8.084-8.084C152.675,277.558,156.295,281.177,156.295,285.642z
	 M371.874,361.095v1.078c0,4.465-3.618,8.084-8.084,8.084s-8.084-3.62-8.084-8.084v-1.078c0-4.465,3.618-8.084,8.084-8.084
	S371.874,356.63,371.874,361.095z M371.874,324.312v1.078c0,4.465-3.618,8.084-8.084,8.084s-8.084-3.62-8.084-8.084v-1.078
	c0-4.465,3.618-8.084,8.084-8.084S371.874,319.847,371.874,324.312z M371.874,285.642v1.078c0,4.465-3.618,8.084-8.084,8.084
	s-8.084-3.62-8.084-8.084v-1.078c0-4.465,3.618-8.084,8.084-8.084S371.874,281.177,371.874,285.642z M180.547,202.105h-32.337
	c-10.401,0-18.863,8.463-18.863,18.863v10.779c0,10.401,8.463,18.863,18.863,18.863h32.337c10.401,0,18.863-8.463,18.863-18.863
	v-10.779C199.411,210.568,190.948,202.105,180.547,202.105z M183.242,231.747c0,1.485-1.209,2.695-2.695,2.695h-32.337
	c-1.485,0-2.695-1.209-2.695-2.695v-10.779c0-1.485,1.209-2.695,2.695-2.695h32.337c1.485,0,2.695,1.209,2.695,2.695V231.747z
	 M363.789,202.105h-32.337c-10.401,0-18.863,8.463-18.863,18.863v10.779c0,10.401,8.463,18.863,18.863,18.863h32.337
	c10.401,0,18.863-8.463,18.863-18.863v-10.779C382.653,210.568,374.19,202.105,363.789,202.105z M366.484,231.747
	c0,1.485-1.208,2.695-2.695,2.695h-32.337c-1.486,0-2.695-1.209-2.695-2.695v-10.779c0-1.485,1.208-2.695,2.695-2.695h32.337
	c1.486,0,2.695,1.209,2.695,2.695V231.747z"/>
<g>
</g>
<g>
</g>
<g>
</g>
<g>
</g>
<g>
</g>
<g>
</g>
<g>
</g>
<g>
</g>
<g>
</g>
<g>
</g>
<g>
</g>
<g>
</g>
<g>
</g>
<g>
</g>
<g>
</g>
</svg>
