<?xml version="1.0" encoding="iso-8859-1"?>
<!-- Generator: Adobe Illustrator 19.0.0, SVG Export Plug-In . SVG Version: 6.00 Build 0)  -->
<svg version="1.1" id="Layer_1" xmlns="http://www.w3.org/2000/svg" xmlns:xlink="http://www.w3.org/1999/xlink" x="0px" y="0px"
	 viewBox="0 0 512 512" style="enable-background:new 0 0 512 512;" xml:space="preserve">
<path style="fill:#659F00;" d="M482.358,428.463H29.642c-11.906,0-21.558-9.651-21.558-21.558V105.095
	c0-11.906,9.651-21.558,21.558-21.558h452.716c11.906,0,21.558,9.651,21.558,21.558v301.811
	C503.916,418.812,494.264,428.463,482.358,428.463z"/>
<path d="M482.358,75.453H29.642C13.297,75.453,0,88.75,0,105.095v301.811c0,16.345,13.297,29.642,29.642,29.642h452.716
	c16.344,0,29.642-13.297,29.642-29.642V105.095C512,88.75,498.702,75.453,482.358,75.453z M113.179,355.705v-91.621h285.642v91.621
	H113.179z M16.168,355.705V156.295h80.842v199.411H16.168z M398.821,156.295v91.621H113.179v-91.621H398.821z M414.989,156.295
	h80.842v199.411h-80.842V156.295z M29.642,91.621h452.716c7.43,0,13.474,6.044,13.474,13.474v35.032H16.168v-35.032
	C16.168,97.665,22.212,91.621,29.642,91.621z M482.358,420.379H29.642c-7.43,0-13.474-6.044-13.474-13.474v-35.032h479.663v35.032
	C495.832,414.335,489.788,420.379,482.358,420.379z"/>
<g>
</g>
<g>
</g>
<g>
</g>
<g>
</g>
<g>
</g>
<g>
</g>
<g>
</g>
<g>
</g>
<g>
</g>
<g>
</g>
<g>
</g>
<g>
</g>
<g>
</g>
<g>
</g>
<g>
</g>
</svg>
