<?xml version="1.0" encoding="iso-8859-1"?>
<!-- Generator: Adobe Illustrator 19.0.0, SVG Export Plug-In . SVG Version: 6.00 Build 0)  -->
<svg version="1.1" id="Layer_1" xmlns="http://www.w3.org/2000/svg" xmlns:xlink="http://www.w3.org/1999/xlink" x="0px" y="0px"
	 viewBox="0 0 512 512" style="enable-background:new 0 0 512 512;" xml:space="preserve">
<path style="fill:#FFB150;" d="M441.938,455.409L441.938,455.409c0,26.789-21.833,48.505-48.764,48.505H172.387
	c-25.294,0-46.389-19.238-48.581-44.304L91.236,68.274c-0.312-3.561-3.309-6.296-6.903-6.296h-4.44c-3.613,0-6.619-2.76-6.907-6.343
	l-2.889-35.913C69.594,13.451,74.575,8.084,80.9,8.084h55.197c5.649,0,10.351,4.318,10.802,9.92l2.938,36.533
	c0.322,4.011-2.863,7.442-6.907,7.442l0,0c-4.196,0-7.429,3.68-6.867,7.816l40.726,299.768
	c2.906,21.387,21.259,37.342,42.955,37.342h173.43C420.105,406.904,441.938,428.621,441.938,455.409z"/>
<path style="fill:#D18839;" d="M440.353,443.116c1.032,3.927,1.585,8.045,1.585,12.293l0,0c0,26.789-21.833,48.505-48.764,48.505
	H172.387c-25.294,0-46.389-19.238-48.581-44.304L91.236,68.274c-0.312-3.561-3.309-6.296-6.903-6.296h-4.439
	c-3.613,0-6.619-2.76-6.907-6.343l-2.889-35.913C69.594,13.451,74.575,8.084,80.9,8.084h21.094h4.439
	c3.595,0,6.592,2.734,6.903,6.296l32.57,391.337c2.191,25.065,23.287,44.304,48.581,44.304h220.786
	C424.447,450.02,433.025,447.497,440.353,443.116z"/>
<path style="fill:#007DBC;" d="M142.323,115.874H95.197l-3.961-47.6c-0.312-3.561-3.309-6.296-6.903-6.296h-4.439
	c-3.613,0-6.619-2.76-6.907-6.343l-2.889-35.913C69.594,13.451,74.575,8.084,80.9,8.084h55.197c5.649,0,10.351,4.318,10.802,9.919
	l2.938,36.533c0.322,4.011-2.863,7.442-6.907,7.442l0,0c-4.196,0-7.429,3.68-6.867,7.816L142.323,115.874z"/>
<g>
	<path style="fill:#004859;" d="M95.198,115.874l-3.962-47.6c-0.312-3.561-3.309-6.296-6.903-6.296h-4.439
		c-3.613,0-6.619-2.76-6.907-6.343l-2.889-35.913C69.594,13.451,74.575,8.084,80.9,8.084h21.094h4.439
		c3.595,0,6.592,2.734,6.903,6.296l8.447,101.493H95.198z"/>
	<path style="fill:#004859;" d="M366.51,406.904l21.673,97.011H203.962l-25.598-127.308c5.544,17.75,22.143,30.297,41.379,30.297
		H366.51z"/>
</g>
<path style="fill:#007DBC;" d="M229.271,406.904h46.597l21.673,97.011h-46.597L229.271,406.904z M341.586,503.915h46.597
	l-21.673-97.011h-46.597L341.586,503.915z"/>
<path d="M393.174,398.82h-29.982c-0.024,0-0.049,0-0.072,0h-89.812c-0.024,0-0.049,0-0.072,0h-53.491
	c-17.572,0-32.594-13.046-34.945-30.346L144.25,70.004c3.704-0.329,7.191-2.028,9.726-4.775c2.824-3.061,4.252-7.195,3.919-11.341
	l-2.938-36.533C154.174,7.623,145.89,0,136.097,0H80.9c-5.276,0-10.352,2.22-13.924,6.091c-3.557,3.853-5.356,9.059-4.937,14.28
	l2.889,35.911c0.621,7.728,7.195,13.781,14.967,13.781h3.379l32.479,390.253c1.236,14.15,7.712,27.227,18.234,36.82
	c10.509,9.585,24.147,14.863,38.401,14.863h74.461c0.008,0,0.016,0.001,0.024,0.001c0.008,0,0.015-0.001,0.022-0.001h89.84
	c0.008,0,0.016,0.001,0.024,0.001s0.015-0.001,0.022-0.001h56.393c31.346,0,56.848-25.387,56.848-56.589
	C450.022,424.207,424.52,398.82,393.174,398.82z M393.174,495.83h-49.759l-11.288-57.292c-0.863-4.382-5.118-7.237-9.494-6.369
	c-4.381,0.863-7.232,5.114-6.369,9.494l10.672,54.169h-73.408l-11.287-57.292c-0.863-4.382-5.118-7.237-9.494-6.369
	c-4.381,0.863-7.232,5.114-6.369,9.494l10.671,54.169h-64.662c-21.265,0-38.687-15.874-40.525-36.89L99.498,70.063h11.746
	c4.465,0,8.084-3.618,8.084-8.084s-3.62-8.084-8.084-8.084H80.956l-2.8-34.819c-0.081-1.008,0.404-1.698,0.702-2.019
	c0.306-0.331,0.979-0.888,2.043-0.888h55.197c1.427,0,2.632,1.091,2.744,2.483l2.838,35.295c-3.876,0.323-7.494,2.136-10.07,5.088
	c-2.841,3.255-4.138,7.573-3.557,11.849l40.725,299.768c0.299,2.2,0.746,4.348,1.315,6.445l14.673,74.486
	c0.759,3.853,4.139,6.523,7.923,6.523c0.518,0,1.044-0.05,1.572-0.154c4.381-0.863,7.232-5.114,6.369-9.494l-8.14-41.323
	c7.956,4.98,17.324,7.854,27.255,7.854h46.816l11.456,58.152c0.759,3.853,4.139,6.523,7.923,6.523c0.518,0,1.043-0.05,1.572-0.154
	c4.381-0.863,7.233-5.114,6.369-9.494l-10.84-55.029h73.408l11.456,58.152c0.759,3.853,4.139,6.523,7.923,6.523
	c0.518,0,1.044-0.05,1.572-0.154c4.381-0.863,7.233-5.114,6.369-9.494l-10.84-55.029h20.247c22.431,0,40.68,18.132,40.68,40.421
	C433.853,477.698,415.605,495.83,393.174,495.83z M206.549,473.436c1.456,4.221-0.786,8.823-5.007,10.278
	c-0.873,0.301-1.762,0.444-2.637,0.444c-3.353,0-6.488-2.102-7.642-5.451l-0.497-1.442c-1.455-4.221,0.786-8.823,5.007-10.278
	c4.221-1.453,8.824,0.786,10.279,5.007L206.549,473.436z"/>
<g>
</g>
<g>
</g>
<g>
</g>
<g>
</g>
<g>
</g>
<g>
</g>
<g>
</g>
<g>
</g>
<g>
</g>
<g>
</g>
<g>
</g>
<g>
</g>
<g>
</g>
<g>
</g>
<g>
</g>
</svg>
