<?xml version="1.0" encoding="iso-8859-1"?>
<!-- Generator: Adobe Illustrator 19.0.0, SVG Export Plug-In . SVG Version: 6.00 Build 0)  -->
<svg version="1.1" id="Layer_1" xmlns="http://www.w3.org/2000/svg" xmlns:xlink="http://www.w3.org/1999/xlink" x="0px" y="0px"
	 viewBox="0 0 512 512" style="enable-background:new 0 0 512 512;" xml:space="preserve">
<path style="fill:#007DBC;" d="M8.084,333.66v-75.342c0-136.719,110.995-247.55,247.916-247.55l0,0
	c136.92,0,247.916,110.832,247.916,247.55v199.819c0,28.911-27.97,49.605-55.669,41.187l-409.6-124.477
	C20.492,369.329,8.084,352.609,8.084,333.66z"/>
<path style="fill:#1A6399;" d="M503.916,258.318v199.819c0,28.911-27.97,49.605-55.669,41.187l-259.874-78.976
	c-25.498-42.686-40.162-92.573-40.162-145.885c0-113.615,66.534-211.705,162.814-257.566
	C421.461,41.888,503.916,140.484,503.916,258.318z"/>
<path style="fill:#91CEC5;" d="M319.917,182.976h171.535c8.078,24.429,12.464,50.535,12.464,77.667v126.832H344.879
	c-20.388,0-37.99-14.261-42.191-34.183l-24.962-118.394C272.084,208.139,292.531,182.976,319.917,182.976z"/>
<path style="fill:#FFFFFF;" d="M349.735,88.458c-1.994,3.989-6.848,5.61-10.844,3.62C313.02,79.189,285.131,72.655,256,72.655
	c-102.526,0-185.937,83.288-185.937,185.663c0,28.989,6.501,56.75,19.323,82.512c1.987,3.993,0.357,8.838-3.641,10.821
	c-1.155,0.573-2.383,0.845-3.592,0.845c-2.973,0-5.834-1.643-7.246-4.481c-13.944-28.014-21.014-58.192-21.014-89.697
	C53.895,147.04,144.559,56.51,256,56.51c31.659,0,61.977,7.105,90.11,21.121C350.104,79.621,351.728,84.469,349.735,88.458z
	 M401.965,118.735c-0.579-0.604-1.163-1.204-1.749-1.801c-3.127-3.182-8.246-3.228-11.432-0.106
	c-3.186,3.123-3.234,8.234-0.106,11.415c0.539,0.549,1.076,1.101,1.608,1.656c1.588,1.656,3.712,2.49,5.84,2.49
	c2.01,0,4.023-0.744,5.59-2.241C404.941,127.065,405.052,121.955,401.965,118.735z M330.756,245.972
	c-0.876-4.371-5.134-7.204-9.512-6.333c-4.378,0.874-7.218,5.128-6.342,9.498l19.402,96.868c0.769,3.837,4.145,6.491,7.919,6.491
	c0.525,0,1.059-0.052,1.594-0.158c4.378-0.874,7.218-5.128,6.342-9.498L330.756,245.972z M320.674,224.414
	c4.465,0,8.084-3.614,8.084-8.072v-1.077c0-4.458-3.62-8.072-8.084-8.072s-8.084,3.614-8.084,8.072v1.077
	C312.589,220.8,316.209,224.414,320.674,224.414z"/>
<path style="fill:#002E35;" d="M218.274,215.266c-14.883,0-26.947-12.047-26.947-26.907c0-14.861,12.065-26.907,26.947-26.907
	c14.882,0,26.947,12.047,26.947,26.907C245.221,203.219,233.156,215.266,218.274,215.266z M229.053,247.555
	c-8.929,0-16.168,7.227-16.168,16.145c0,8.916,7.239,16.145,16.168,16.145s16.168-7.228,16.168-16.145
	C245.221,254.783,237.982,247.555,229.053,247.555z"/>
<path style="fill:#AEE5DF;" d="M503.916,260.643v126.832h-75.453l-32.337-204.499h95.326
	C499.53,207.406,503.916,233.511,503.916,260.643z"/>
<path d="M437.019,77.565C388.667,29.284,324.379,2.694,256,2.694S123.333,29.284,74.981,77.565S0,190.038,0,258.318v75.342
	c0,22.658,14.585,42.314,36.293,48.911l409.6,124.477c4.978,1.512,10.042,2.258,15.059,2.258c10.783,0,21.343-3.442,30.33-10.09
	C504.448,489.473,512,474.501,512,458.137V258.318C512,190.038,485.372,125.846,437.019,77.565z M495.832,258.318v121.085H344.879
	c-16.47,0-30.887-11.681-34.28-27.773l-24.962-118.394c-2.185-10.364,0.395-21.023,7.077-29.248
	c6.682-8.223,16.597-12.94,27.203-12.94h166.269C492.453,212.399,495.832,234.971,495.832,258.318z M481.656,486.243
	c-9.008,6.665-20.327,8.62-31.056,5.359L41,367.125c-14.852-4.514-24.831-17.962-24.831-33.465v-75.342
	C16.168,126.269,123.756,18.839,256,18.839c102.877,0,190.823,65.021,224.813,156.065H319.917c-15.5,0-29.991,6.893-39.758,18.912
	c-9.767,12.02-13.537,27.599-10.343,42.745l24.962,118.394c4.959,23.52,26.03,40.591,50.102,40.591h150.953v16.614
	c-0.844-0.299-1.748-0.469-2.695-0.469h-21.558c-4.465,0-8.084,3.614-8.084,8.072s3.62,8.072,8.084,8.072h21.558
	c0.946,0,1.851-0.17,2.695-0.469v30.77C495.832,469.333,490.665,479.577,481.656,486.243z M218.274,153.377
	c-19.316,0-35.032,15.692-35.032,34.98s15.716,34.98,35.032,34.98s35.032-15.692,35.032-34.98S237.59,153.377,218.274,153.377z
	 M218.274,207.193c-10.401,0-18.863-8.45-18.863-18.835c0-10.385,8.463-18.835,18.863-18.835c10.401,0,18.863,8.45,18.863,18.835
	C237.137,198.743,228.674,207.193,218.274,207.193z M229.053,239.482c-13.373,0-24.253,10.864-24.253,24.217
	c0,13.353,10.879,24.217,24.253,24.217c13.373,0,24.253-10.864,24.253-24.217C253.305,250.346,242.426,239.482,229.053,239.482z
	 M229.053,271.771c-4.458,0-8.084-3.621-8.084-8.072s3.626-8.072,8.084-8.072c4.458,0,8.084,3.621,8.084,8.072
	C237.137,268.151,233.511,271.771,229.053,271.771z"/>
<g>
</g>
<g>
</g>
<g>
</g>
<g>
</g>
<g>
</g>
<g>
</g>
<g>
</g>
<g>
</g>
<g>
</g>
<g>
</g>
<g>
</g>
<g>
</g>
<g>
</g>
<g>
</g>
<g>
</g>
</svg>
