<?xml version="1.0" encoding="iso-8859-1"?>
<!-- Generator: Adobe Illustrator 19.0.0, SVG Export Plug-In . SVG Version: 6.00 Build 0)  -->
<svg version="1.1" id="Layer_1" xmlns="http://www.w3.org/2000/svg" xmlns:xlink="http://www.w3.org/1999/xlink" x="0px" y="0px"
	 viewBox="0 0 512 512" style="enable-background:new 0 0 512 512;" xml:space="preserve">
<path style="fill:#B5CE00;" d="M208.483,110.485L208.483,110.485c2.869,0,5.675,0.849,8.063,2.441l93.349,62.232v53.895
	l-107.789-53.895l-7.958-47.75C192.67,118.55,199.502,110.485,208.483,110.485z"/>
<path style="fill:#F93100;" d="M295.481,165.549l172.56,115.04c22.413,14.942,35.875,40.096,35.875,67.032l0,0H8.084v-1.193
	c0-42.008,7.222-83.703,21.351-123.264l28.233-79.053c2.586-7.238,9.441-12.069,17.128-12.069l0,0c5.525,0,10.75,2.512,14.201,6.825
	l16.572,20.715c13.326,16.658,33.502,26.355,54.835,26.355l0,0c11.649,0,23.115-2.898,33.366-8.433l28.443-15.36
	c10.384-5.608,22.002-8.544,33.804-8.544l0,0C270.063,153.601,283.795,157.758,295.481,165.549z"/>
<path style="fill:#CC0000;" d="M480.431,290.779c14.885,14.946,23.485,35.323,23.485,56.843l0,0H8.084v-1.193
	c0-42.008,7.222-83.703,21.351-123.264l28.233-79.053c2.586-7.238,9.441-12.069,17.128-12.069l0,0c5.524,0,10.75,2.512,14.201,6.825
	l16.572,20.715c3.485,4.356,7.446,8.222,11.766,11.577c48.214,71.793,166.927,122.567,305.738,122.567
	C442.64,293.727,461.805,292.713,480.431,290.779z"/>
<path style="fill:#B5CE00;" d="M503.916,346.678v1.824c0,1.505-0.622,2.951-1.731,3.968
	c-34.406,31.527-79.402,49.046-126.126,49.046H71.311c-34.919,0-63.227-28.308-63.227-63.227l0,0
	c0-12.54,10.455-22.551,22.983-22.005l376.875,28.935c20.281,1.558,40.498-3.723,57.428-14.997l0,0
	c4.071-2.711,8.854-4.159,13.745-4.159l0,0c12.27,0,22.451,8.912,24.441,20.615H503.916z"/>
<path style="fill:#CDEF00;" d="M48.319,317.582l359.968,27.636c20.281,1.558,40.498-3.723,57.428-14.997l0,0
	c4.071-2.711,8.854-4.159,13.745-4.159l0,0c12.297,0,22.498,8.952,24.455,20.693c-27.035,14.599-57.485,22.422-88.707,22.422
	H110.459C79.515,369.179,53.78,346.944,48.319,317.582z"/>
<path d="M511.961,345.129c-0.639-22.744-10.019-44.173-25.777-60.024c-0.05-0.051-0.099-0.101-0.151-0.15
	c-4.092-4.096-8.603-7.822-13.508-11.093l-93.423-62.283c-0.011-0.008-0.023-0.015-0.033-0.023l-48.474-32.316
	c-0.01-0.006-0.018-0.013-0.028-0.019l-30.601-20.401c-0.004-0.003-0.009-0.005-0.013-0.009l-78.922-52.614
	c-3.727-2.486-8.066-3.799-12.547-3.799c-6.662,0-12.952,2.915-17.258,7.998s-6.148,11.767-5.053,18.34l6.679,40.073l-2.923,1.579
	c-9.04,4.882-19.249,7.463-29.525,7.463c-13.895,0-27.085-4.572-37.814-12.829c-0.274-0.235-0.557-0.455-0.856-0.648
	c-3.597-2.869-6.905-6.16-9.852-9.844l-16.573-20.715c-5.012-6.265-12.49-9.858-20.512-9.858c-11.073,0-21.016,7.006-24.74,17.435
	l-28.233,79.053c-13.036,36.496-19.804,69.192-21.391,103.9C0.255,328.205,0,337.523,0,338.29c0,0.658,0.061,2.813,0.077,3.019
	c1.589,37.925,32.925,68.291,71.235,68.291h304.748c49.761,0,97.133-18.768,133.393-52.847c1.625-1.527,2.548-3.661,2.548-5.891
	C512,348.906,511.961,345.129,511.961,345.129z M202.121,126.081c-0.427-2.566,0.719-4.379,1.441-5.231
	c0.722-0.852,2.321-2.281,4.922-2.281c1.277,0,2.515,0.375,3.578,1.083l39.029,26.019c-11.419,0.718-22.639,3.916-32.719,9.359
	l-10.481,5.66L202.121,126.081z M197.61,184.617l28.443-15.359c9.174-4.955,19.536-7.573,29.962-7.573
	c12.485,0,24.576,3.659,34.967,10.582l8.38,5.587h-11.026c-4.465,0-8.084,3.618-8.084,8.084c0,4.466,3.62,8.084,8.084,8.084h35.28
	l24.253,16.168h-16.416c-4.465,0-8.084,3.618-8.084,8.084c0,4.466,3.62,8.084,8.084,8.084h40.668l24.253,16.168h-11.026
	c-4.465,0-8.084,3.618-8.084,8.084c0,4.466,3.62,8.084,8.084,8.084h32.337c0.835,0,1.641-0.127,2.398-0.362l39.179,26.12
	c-12,0.788-24.108,1.19-36.188,1.19c-66.153,0-129.704-11.675-183.786-33.761c-38.584-15.757-70.385-35.94-93.694-59.26
	c4.83,0.921,9.783,1.4,14.81,1.4C173.352,194.022,186.218,190.769,197.61,184.617z M37.048,225.884l28.233-79.053
	c1.433-4.01,5.256-6.704,9.513-6.704c3.086,0,5.961,1.382,7.889,3.792l16.572,20.715c3.65,4.562,7.74,8.645,12.182,12.216
	c25.005,36.568,67.055,67.67,121.735,90.001c56.005,22.871,121.672,34.96,189.9,34.96c18.147,0,36.357-0.883,54.201-2.604
	c5.505,6.136,9.916,13.157,13.052,20.742c-3.501-1.273-7.276-1.97-11.211-1.97c-6.508,0-12.811,1.907-18.227,5.513
	c-15.351,10.223-33.939,15.071-52.327,13.666L31.686,308.222c-0.089-0.008-0.179-0.013-0.268-0.017
	c-4.873-0.201-9.592,0.742-13.874,2.711C20.09,282.958,26.373,255.775,37.048,225.884z M376.059,393.432H71.311
	c-29.748,0-54.054-23.681-55.093-53.181c0.001-1.168,0.024-2.325,0.037-3.487c0.349-3.254,1.812-6.245,4.213-8.544
	c2.623-2.51,6.019-3.873,9.623-3.873c0.168,0,0.337,0.003,0.506,0.009l376.726,28.923c21.982,1.692,44.184-4.111,62.528-16.328
	c2.753-1.832,5.956-2.803,9.264-2.803c8.104,0,14.878,5.796,16.397,13.46C462.653,377.187,420.388,393.432,376.059,393.432z"/>
<g>
</g>
<g>
</g>
<g>
</g>
<g>
</g>
<g>
</g>
<g>
</g>
<g>
</g>
<g>
</g>
<g>
</g>
<g>
</g>
<g>
</g>
<g>
</g>
<g>
</g>
<g>
</g>
<g>
</g>
</svg>
