<?xml version="1.0" encoding="iso-8859-1"?>
<!-- Generator: Adobe Illustrator 19.0.0, SVG Export Plug-In . SVG Version: 6.00 Build 0)  -->
<svg version="1.1" id="Layer_1" xmlns="http://www.w3.org/2000/svg" xmlns:xlink="http://www.w3.org/1999/xlink" x="0px" y="0px"
	 viewBox="0 0 512 512" style="enable-background:new 0 0 512 512;" xml:space="preserve">
<path style="fill:#007DBC;" d="M257.477,503.916h-2.956c-63.215,0-112.861-54.149-107.384-117.127l3.253-37.41
	c5.403-62.134,5.403-124.621,0-186.755l-3.253-37.41C141.661,62.233,191.306,8.084,254.521,8.084h2.956
	c63.215,0,112.861,54.149,107.384,117.127l-3.253,37.41c-5.404,62.134-5.404,124.621,0,186.755l3.253,37.41
	C370.337,449.767,320.692,503.916,257.477,503.916z"/>
<path style="fill:#266DAD;" d="M364.861,386.789c5.477,62.978-44.169,117.127-107.384,117.127h-2.956
	c-7.158,0-14.139-0.701-20.889-2.023c52.86-10.359,91.352-59.257,86.496-115.104l-3.253-37.41
	c-5.404-62.134-5.404-124.621,0-186.755l3.253-37.41c4.856-55.848-33.636-104.745-86.496-115.105
	c6.75-1.323,13.731-2.023,20.889-2.023h2.956c63.215,0,112.861,54.149,107.384,117.127l-3.253,37.41
	c-5.404,62.134-5.404,124.621,0,186.755L364.861,386.789z"/>
<path d="M369.662,348.677c-5.347-61.497-5.347-123.859,0-185.356l3.253-37.41c2.807-32.269-8.138-64.469-30.027-88.344
	C320.998,13.692,289.866,0,257.477,0h-2.954c-32.391,0-63.521,13.692-85.41,37.568s-32.834,56.075-30.027,88.344l3.253,37.41
	c5.347,61.497,5.347,123.859,0,185.356l-3.253,37.41c-2.807,32.269,8.138,64.469,30.027,88.344C191,498.307,222.131,512,254.521,512
	h2.955c32.391,0,63.521-13.693,85.41-37.568c21.889-23.875,32.834-56.075,30.027-88.344L369.662,348.677z M330.969,463.505
	c-18.835,20.545-45.622,32.326-73.493,32.326h-2.955c-27.871,0-54.658-11.782-73.493-32.326
	c-15.458-16.86-24.566-38.548-26.003-61.133c0.202-0.166,0.398-0.341,0.586-0.529l145.785-145.785c3.157-3.158,3.157-8.276,0-11.433
	c-3.157-3.156-8.276-3.156-11.432,0L155.962,378.628l2.482-28.549c5.428-62.425,5.428-125.731,0-188.156l-3.253-37.41
	c-2.414-27.767,7.003-55.474,25.838-76.016c18.834-20.545,45.621-32.327,73.492-32.327h2.955c27.871,0,54.658,11.782,73.493,32.326
	c16.061,17.518,25.267,40.245,26.136,63.777l-143.67,143.67c-3.157,3.158-3.157,8.276,0,11.433c1.578,1.578,3.648,2.367,5.716,2.367
	c2.068,0,4.138-0.789,5.716-2.367l130.9-130.9l-2.212,25.446c-5.428,62.425-5.428,125.731,0,188.156l3.253,37.41
	C359.221,415.255,349.804,442.962,330.969,463.505z M222.923,89.465v-1.078c0-4.466,3.62-8.084,8.084-8.084
	c4.465,0,8.084,3.618,8.084,8.084v1.078c0,4.466-3.62,8.084-8.084,8.084C226.542,97.549,222.923,93.931,222.923,89.465z
	 M266.038,89.465v-1.078c0-4.466,3.62-8.084,8.084-8.084s8.084,3.618,8.084,8.084v1.078c0,4.466-3.62,8.084-8.084,8.084
	S266.038,93.931,266.038,89.465z M222.923,118.838v-1.078c0-4.466,3.62-8.084,8.084-8.084c4.465,0,8.084,3.618,8.084,8.084v1.078
	c0,4.466-3.62,8.084-8.084,8.084C226.542,126.922,222.923,123.304,222.923,118.838z M266.038,118.838v-1.078
	c0-4.466,3.62-8.084,8.084-8.084s8.084,3.618,8.084,8.084v1.078c0,4.466-3.62,8.084-8.084,8.084S266.038,123.304,266.038,118.838z
	 M222.923,148.211v-1.078c0-4.466,3.62-8.084,8.084-8.084c4.465,0,8.084,3.618,8.084,8.084v1.078c0,4.466-3.62,8.084-8.084,8.084
	C226.542,156.295,222.923,152.676,222.923,148.211z M266.038,148.211v-1.078c0-4.466,3.62-8.084,8.084-8.084
	s8.084,3.618,8.084,8.084v1.078c0,4.466-3.62,8.084-8.084,8.084S266.038,152.676,266.038,148.211z M239.091,363.789v1.078
	c0,4.466-3.62,8.084-8.084,8.084c-4.465,0-8.084-3.618-8.084-8.084v-1.078c0-4.466,3.62-8.084,8.084-8.084
	C235.471,355.705,239.091,359.324,239.091,363.789z M282.207,363.789v1.078c0,4.466-3.62,8.084-8.084,8.084
	s-8.084-3.618-8.084-8.084v-1.078c0-4.466,3.62-8.084,8.084-8.084S282.207,359.324,282.207,363.789z M239.091,393.162v1.078
	c0,4.466-3.62,8.084-8.084,8.084c-4.465,0-8.084-3.618-8.084-8.084v-1.078c0-4.466,3.62-8.084,8.084-8.084
	C235.471,385.078,239.091,388.696,239.091,393.162z M282.207,393.162v1.078c0,4.466-3.62,8.084-8.084,8.084
	s-8.084-3.618-8.084-8.084v-1.078c0-4.466,3.62-8.084,8.084-8.084S282.207,388.696,282.207,393.162z M239.091,422.535v1.078
	c0,4.466-3.62,8.084-8.084,8.084c-4.465,0-8.084-3.618-8.084-8.084v-1.078c0-4.466,3.62-8.084,8.084-8.084
	C235.471,414.451,239.091,418.069,239.091,422.535z M282.207,422.535v1.078c0,4.466-3.62,8.084-8.084,8.084
	s-8.084-3.618-8.084-8.084v-1.078c0-4.466,3.62-8.084,8.084-8.084S282.207,418.069,282.207,422.535z M193.609,287.202
	c3.157,3.157,3.156,8.276-0.001,11.432l-3.099,3.099c-1.578,1.578-3.648,2.367-5.716,2.367c-2.068,0-4.138-0.789-5.717-2.368
	c-3.157-3.157-3.156-8.276,0.001-11.432l3.099-3.099C185.333,284.045,190.452,284.046,193.609,287.202z M333.735,214.847
	c3.157,3.158,3.157,8.276,0,11.433l-3.099,3.099c-1.578,1.578-3.648,2.367-5.716,2.367s-4.138-0.789-5.716-2.367
	c-3.157-3.158-3.157-8.276,0-11.433l3.099-3.099C325.458,211.692,330.577,211.692,333.735,214.847z"/>
<g>
</g>
<g>
</g>
<g>
</g>
<g>
</g>
<g>
</g>
<g>
</g>
<g>
</g>
<g>
</g>
<g>
</g>
<g>
</g>
<g>
</g>
<g>
</g>
<g>
</g>
<g>
</g>
<g>
</g>
</svg>
