<?xml version="1.0" encoding="iso-8859-1"?>
<!-- Generator: Adobe Illustrator 19.0.0, SVG Export Plug-In . SVG Version: 6.00 Build 0)  -->
<svg version="1.1" id="Layer_1" xmlns="http://www.w3.org/2000/svg" xmlns:xlink="http://www.w3.org/1999/xlink" x="0px" y="0px"
	 viewBox="0 0 512 512" style="enable-background:new 0 0 512 512;" xml:space="preserve">
<path style="fill:#007DBC;" d="M204.147,53.976l30.295,121.182l238.43,149.019c12.606,7.879,20.264,21.696,20.264,36.562v62.335
	H8.084V195.087c0-28.865,23.4-52.266,52.266-52.266l0,0c20.655,0,39.372-12.164,47.76-31.038l6.473-14.563
	c13.894-31.262,44.895-51.409,79.106-51.409l0,0C198.636,45.811,202.947,49.177,204.147,53.976z"/>
<path style="fill:#F99900;" d="M493.137,360.739v62.335H8.084v-86.232h5.389l102.4-204.8l129.347,86.232L136.534,336.842h33.235
	l105.291,6.581c44.77,2.798,89.617,4.198,134.475,4.198l0,0c10.453,0,18.928-8.474,18.928-18.929v-32.271l44.409,27.756
	C485.478,332.055,493.137,345.873,493.137,360.739z"/>
<path style="fill:#A80000;" d="M99.705,149.467v-24.525c3.391-3.879,6.243-8.294,8.405-13.159l6.473-14.563
	c13.894-31.262,44.895-51.409,79.106-51.409l0,0c4.946,0,9.258,3.366,10.457,8.165l30.296,121.182L455.41,313.263v8.768
	c0,14.133-11.457,25.59-25.59,25.59l0,0c-4.423,0-8.769-1.146-12.616-3.326L112.679,171.731
	C104.661,167.187,99.705,158.683,99.705,149.467z M171.384,338.044c-11.877-51.192-57.488-87.433-110.041-87.433H8.084v161.684
	H188.61L171.384,338.044z"/>
<path style="fill:#004859;" d="M503.916,438.073L503.916,438.073c0,15.528-12.589,28.117-28.117,28.117H54.484
	c-25.626,0-46.4-20.774-46.4-46.4l0,0c0-27.213,23.309-48.583,50.42-46.226l419.731,36.499
	C492.764,411.325,503.916,423.489,503.916,438.073z"/>
<path style="fill:#002E35;" d="M498.797,421.902c3.23,4.589,5.119,10.174,5.119,16.171l0,0c0,15.528-12.589,28.117-28.117,28.117
	H54.484c-25.626,0-46.4-20.774-46.4-46.4l0,0c0-5.701,1.035-11.14,2.902-16.164c6.565,17.651,23.562,30.227,43.498,30.227h421.315
	C485.308,433.853,493.708,429.127,498.797,421.902z"/>
<path d="M501.221,412.205v-51.466c0-17.769-8.996-34-24.064-43.418l-235.663-147.29L211.99,52.014
	c-2.104-8.412-9.63-14.287-18.3-14.287c-37.366,0-71.317,22.063-86.493,56.21l-6.473,14.563
	c-7.083,15.938-22.931,26.237-40.374,26.237C27.072,134.737,0,161.81,0,195.087v222.597c0,0.244,0.015,0.484,0.037,0.722
	C0.025,418.868,0,419.327,0,419.789c0,30.043,24.441,54.484,54.484,54.484h421.315c19.962,0,36.201-16.24,36.201-36.201
	C512,427.932,507.913,418.775,501.221,412.205z M485.053,360.739v42.33c-1.975-0.513-4.015-0.878-6.118-1.061l-289.861-25.205
	l-7.568-31.296l157.356,8.831c16.165,0.908,32.574,1.368,48.769,1.368h40.473c0.226,0,0.449-0.015,0.673-0.033
	c0.348,0.011,0.695,0.033,1.043,0.033c16.685,0,30.567-12.2,33.213-28.145l5.555,3.472
	C478.898,337.476,485.053,348.581,485.053,360.739z M107.296,177.909c0.461,0.292,0.921,0.585,1.398,0.856l105.067,59.538
	l-54.371,54.371c-6.438-8.913-14.068-16.979-22.743-23.872c-17.966-14.276-39.784-23.121-62.498-25.56L107.296,177.909z
	 M177.341,329.079c-2.31-7.746-5.382-15.227-9.164-22.329l60.179-60.179l164.055,92.965h-4.778c-15.895,0-31.999-0.452-47.864-1.342
	L177.341,329.079z M61.31,258.695c0.009,0,0.018,0.001,0.027,0.001c0.006,0,0.013-0.001,0.019-0.001
	c49.059,0.005,91.065,33.385,102.17,81.25l8.555,35.381L59.204,365.51c-15.165-1.319-30.313,3.827-41.54,14.119
	c-0.512,0.47-1.004,0.958-1.496,1.445v-122.38H61.31z M121.97,100.503c12.584-28.313,40.736-46.608,71.719-46.608
	c1.238,0,2.313,0.84,2.614,2.042l27.785,111.137h-21.983c-4.466,0-8.084,3.62-8.084,8.084c0,4.465,3.618,8.084,8.084,8.084h30.019
	l25.869,16.168h-12.773c-4.466,0-8.084,3.62-8.084,8.084c0,4.465,3.618,8.084,8.084,8.084h38.643l25.869,16.168h-13.132
	c-4.466,0-8.084,3.62-8.084,8.084c0,4.465,3.618,8.084,8.084,8.084h39.001l23.229,14.518h-12.647c-4.466,0-8.084,3.62-8.084,8.084
	c0,4.465,3.618,8.084,8.084,8.084h38.516l62.626,39.142v4.288c0,9.653-7.854,17.506-17.506,17.506c-3.019,0-6.003-0.787-8.631-2.275
	L116.664,164.697c-5.474-3.101-8.874-8.938-8.874-15.23v-21.62c3.046-3.872,5.65-8.15,7.708-12.781L121.97,100.503z M60.349,150.905
	c11.254,0,22.021-3.142,31.272-8.75v7.311c0,5.599,1.415,11.002,3.962,15.792l-39.204,77.268H16.168v-47.439
	C16.168,170.726,35.989,150.905,60.349,150.905z M475.799,458.105H54.484c-21.128,0-38.316-17.188-38.316-38.316
	c0-10.868,4.412-20.898,12.422-28.243c7.162-6.564,16.208-10.079,25.782-10.079c1.137,0,2.282,0.05,3.432,0.15l419.73,36.499
	c10.431,0.908,18.297,9.488,18.297,19.957C495.832,449.119,486.845,458.105,475.799,458.105z"/>
<g>
</g>
<g>
</g>
<g>
</g>
<g>
</g>
<g>
</g>
<g>
</g>
<g>
</g>
<g>
</g>
<g>
</g>
<g>
</g>
<g>
</g>
<g>
</g>
<g>
</g>
<g>
</g>
<g>
</g>
</svg>
