<?xml version="1.0" encoding="iso-8859-1"?>
<!-- Generator: Adobe Illustrator 19.0.0, SVG Export Plug-In . SVG Version: 6.00 Build 0)  -->
<svg version="1.1" id="Layer_1" xmlns="http://www.w3.org/2000/svg" xmlns:xlink="http://www.w3.org/1999/xlink" x="0px" y="0px"
	 viewBox="0 0 512 512" style="enable-background:new 0 0 512 512;" xml:space="preserve">
<path style="fill:#266DAD;" d="M53.107,8.605c5.893,0,11.496,2.559,15.357,7.012L342.05,331.294v32.269h-53.782v-32.269
	L37.751,42.235C26.346,29.075,35.694,8.605,53.107,8.605z"/>
<path style="fill:#1A6399;" d="M53.107,8.605c5.62,0,10.957,2.348,14.79,6.426c-6.568,7.11-7.89,18.686-0.507,27.204l250.519,289.06
	v32.269h-29.64v-32.269L37.751,42.235C26.346,29.075,35.694,8.605,53.107,8.605z"/>
<path style="fill:#004859;" d="M268.42,385.076h3.714v-47.418c0-3.514,2.849-6.363,6.363-6.363h62.567
	c3.514,0,6.363,2.849,6.363,6.363v47.418h3.714c6.859,0,12.42,5.561,12.42,12.42v30.605H256v-30.605
	C256,390.637,261.561,385.076,268.42,385.076z"/>
<path style="fill:#002E35;" d="M363.563,406.588v21.513H256v-30.605c0-6.859,5.561-12.42,12.42-12.42h3.714v-47.418
	c0-3.515,2.849-6.363,6.363-6.363h20.527v10.756c0,11.881,9.631,21.513,21.513,21.513h26.891v21.513h-59.16v10.756
	c0,5.941,4.816,10.756,10.756,10.756L363.563,406.588L363.563,406.588z"/>
<path style="fill:#004859;" d="M449.613,391.285v36.816h-32.269v-36.816c0-3.429,2.78-6.21,6.21-6.21h19.849
	C446.833,385.076,449.613,387.856,449.613,391.285z M196.009,385.076H176.16c-3.429,0-6.21,2.78-6.21,6.21v36.816h32.269v-36.816
	C202.218,387.856,199.438,385.076,196.009,385.076z"/>
<path style="fill:#6D6D6D;" d="M471.126,439.519v31.607c0,17.821-14.447,32.269-32.269,32.269H180.706
	c-17.822,0-32.269-14.448-32.269-32.269v-31.607H471.126z"/>
<path style="fill:#266DAD;" d="M137.681,417.345h344.202c11.881,0,21.513,9.631,21.513,21.513v10.756
	c0,11.881-9.631,21.513-21.513,21.513H137.681c-11.881,0-21.513-9.631-21.513-21.513v-10.756
	C116.168,426.976,125.799,417.345,137.681,417.345z"/>
<path style="fill:#1A6399;" d="M137.681,417.345h32.269c0,11.881,9.631,21.513,21.513,21.513h311.933v10.756
	c0,11.881-9.631,21.513-21.513,21.513H137.681c-11.881,0-21.513-9.631-21.513-21.513v-10.756
	C116.168,426.976,125.799,417.345,137.681,417.345z"/>
<path d="M482.42,409.277h-24.202v-18.824c0-7.414-6.031-13.445-13.445-13.445h-21.513c-7.414,0-13.445,6.031-13.445,13.445v18.824
	h-37.647v-13.445c0-9.463-7.028-17.297-16.134-18.608v-40.551c0-5.905-3.832-10.923-9.136-12.725L75.097,10.334
	c-5.394-6.226-13.215-9.796-21.452-9.796c-11.253,0-21.148,6.359-25.823,16.596c-4.676,10.238-3.001,21.88,4.37,30.385
	l240.089,277.026c-4.531,2.164-7.677,6.779-7.677,12.127v40.551c-9.106,1.312-16.134,9.145-16.134,18.608v13.445h-37.647v-18.824
	c0-7.414-6.031-13.445-13.445-13.445h-21.513c-7.414,0-13.445,6.031-13.445,13.445v18.824h-24.202c-16.31,0-29.58,13.27-29.58,29.58
	v10.756c0,16.31,13.27,29.58,29.58,29.58h3.501c1.214,5.958,3.746,11.441,7.278,16.134h-64.56c-4.456,0-8.067,3.611-8.067,8.067
	c0,4.456,3.611,8.067,8.067,8.067h387.227c4.456,0,8.067-3.611,8.067-8.067c0-4.456-3.611-8.067-8.067-8.067h-0.023
	c3.531-4.693,6.063-10.177,7.278-16.134h3.501c16.31,0,29.58-13.27,29.58-29.58v-10.756C512,422.547,498.73,409.277,482.42,409.277z
	 M425.95,393.143h16.134v16.134H425.95V393.143z M280.74,377.008v-37.647h59.16v37.647H280.74z M42.499,23.836
	c2.048-4.486,6.214-7.164,11.146-7.164c3.556,0,6.931,1.541,9.26,4.229l262.016,302.325h-32.43L44.386,36.952
	C41.156,33.225,40.45,28.321,42.499,23.836z M264.605,395.832c0-1.483,1.206-2.689,2.689-2.689h86.05
	c1.483,0,2.689,1.206,2.689,2.689v13.445h-91.429V395.832z M178.555,393.143h16.134v16.134h-16.134V393.143z M439.395,495.328
	H181.244c-10.516,0-19.484-6.745-22.814-16.134h303.78C458.879,488.582,449.911,495.328,439.395,495.328z M495.866,449.613
	c0,7.414-6.031,13.445-13.445,13.445H138.218c-7.414,0-13.445-6.031-13.445-13.445v-10.756c0-7.414,6.031-13.445,13.445-13.445
	H482.42c7.414,0,13.445,6.031,13.445,13.445V449.613z M512,503.395c0,4.456-3.611,8.067-8.067,8.067h-1.076
	c-4.456,0-8.067-3.611-8.067-8.067c0-4.456,3.611-8.067,8.067-8.067h1.076C508.389,495.328,512,498.939,512,503.395z
	 M60.235,503.395c0,4.456-3.611,8.067-8.067,8.067h-1.076c-4.456,0-8.067-3.611-8.067-8.067c0-4.456,3.611-8.067,8.067-8.067h1.076
	C56.624,495.328,60.235,498.939,60.235,503.395z M17.21,503.395c0,4.456-3.611,8.067-8.067,8.067H8.067
	c-4.456,0-8.067-3.611-8.067-8.067c0-4.456,3.611-8.067,8.067-8.067h1.076C13.599,495.328,17.21,498.939,17.21,503.395z"/>
<g>
</g>
<g>
</g>
<g>
</g>
<g>
</g>
<g>
</g>
<g>
</g>
<g>
</g>
<g>
</g>
<g>
</g>
<g>
</g>
<g>
</g>
<g>
</g>
<g>
</g>
<g>
</g>
<g>
</g>
</svg>
