<?xml version="1.0" encoding="iso-8859-1"?>
<!-- Generator: Adobe Illustrator 19.0.0, SVG Export Plug-In . SVG Version: 6.00 Build 0)  -->
<svg version="1.1" id="Layer_1" xmlns="http://www.w3.org/2000/svg" xmlns:xlink="http://www.w3.org/1999/xlink" x="0px" y="0px"
	 viewBox="0 0 512 512" style="enable-background:new 0 0 512 512;" xml:space="preserve">
<path style="fill:#004859;" d="M18.863,234.442h43.116v43.116H18.863c-5.953,0-10.779-4.826-10.779-10.779v-21.558
	C8.084,239.268,12.91,234.442,18.863,234.442z M493.137,234.442h-43.116v43.116h43.116c5.953,0,10.779-4.826,10.779-10.779v-21.558
	C503.916,239.268,499.09,234.442,493.137,234.442z M320.674,234.442H191.326v43.116h129.347V234.442z"/>
<path style="fill:#007DBC;" d="M142.292,331.453h-26.418c-41.671,0-75.453-33.781-75.453-75.453l0,0
	c0-41.671,33.781-75.453,75.453-75.453h74.11c24.554,0,44.46,19.905,44.46,44.46l0,0c0,6.221-1.305,12.372-3.832,18.057
	l-19.369,43.58C199.131,313.893,172.11,331.453,142.292,331.453z M369.708,331.453h26.418c41.671,0,75.453-33.781,75.453-75.453l0,0
	c0-41.671-33.781-75.453-75.453-75.453h-74.11c-24.554,0-44.46,19.905-44.46,44.46l0,0c0,6.221,1.305,12.372,3.832,18.057
	l19.369,43.58C312.869,313.893,339.89,331.453,369.708,331.453z"/>
<path style="fill:#84C1B6;" d="M182.476,209.805c10.824,0,19.63,8.806,19.63,19.63c0,2.764-0.569,5.447-1.692,7.973l-16.602,37.354
	c-7.406,16.665-23.977,27.433-42.214,27.433h-22.644c-25.473,0-46.195-20.723-46.195-46.195s20.723-46.195,46.195-46.195H182.476z
	 M329.524,209.805c-10.824,0-19.63,8.806-19.63,19.63c0,2.764,0.569,5.447,1.692,7.973l16.602,37.354
	c7.406,16.665,23.977,27.433,42.214,27.433h22.644c25.473,0,46.195-20.723,46.195-46.195s-20.723-46.195-46.195-46.195H329.524z"/>
<path style="fill:#F9A100;" d="M277.558,245.221h-43.116c-5.953,0-10.779-4.826-10.779-10.779v-21.558
	c0-5.953,4.826-10.779,10.779-10.779h43.116c5.953,0,10.779,4.826,10.779,10.779v21.558
	C288.337,240.395,283.511,245.221,277.558,245.221z"/>
<path style="fill:#F4CF30;" d="M288.337,212.884c0,5.953-4.826,10.779-10.779,10.779h-43.116c-5.953,0-10.779-4.826-10.779-10.779
	s4.826-10.779,10.779-10.779h43.116C283.511,202.105,288.337,206.931,288.337,212.884z"/>
<path style="fill:#FFFFFF;" d="M137.487,281.022h-9.435c-4.465,0-8.084-3.62-8.084-8.084s3.62-8.084,8.084-8.084h9.435
	c4.408,0,8.412-2.602,10.201-6.629l5.47-12.308c1.814-4.081,6.592-5.917,10.67-4.105c4.08,1.813,5.918,6.59,4.105,10.67
	l-5.47,12.308C158.082,274.651,148.277,281.022,137.487,281.022z M109.576,267.487c3.157-3.157,3.157-8.276,0-11.432l-0.762-0.762
	c-3.157-3.157-8.276-3.157-11.432,0c-3.157,3.157-3.157,8.276,0,11.432l0.762,0.762c1.578,1.578,3.648,2.368,5.716,2.368
	C105.928,269.855,107.996,269.065,109.576,267.487z M392.032,272.938c0-4.465-3.62-8.084-8.084-8.084h-9.435
	c-4.408,0-8.412-2.602-10.201-6.629l-5.47-12.308c-1.814-4.081-6.591-5.919-10.67-4.105c-4.08,1.813-5.918,6.59-4.105,10.67
	l5.47,12.308c4.382,9.86,14.186,16.232,24.976,16.232h9.435C388.413,281.022,392.032,277.403,392.032,272.938z M413.858,267.487
	l0.762-0.762c3.157-3.157,3.157-8.276,0-11.432c-3.157-3.157-8.276-3.157-11.432,0l-0.762,0.762c-3.157,3.157-3.157,8.276,0,11.432
	c1.578,1.578,3.648,2.368,5.716,2.368S412.279,269.065,413.858,267.487z"/>
<path d="M204.328,248.504l-13.129,29.541c-8.703,19.582-28.174,32.234-49.603,32.234h-22.643c-29.93,0-54.28-24.349-54.28-54.28
	s24.35-54.28,54.28-54.28h63.522c5.295,0,10.448,1.506,14.903,4.355c3.761,2.405,4.86,7.404,2.454,11.166
	c-2.404,3.76-7.403,4.861-11.166,2.454c-1.849-1.182-3.989-1.808-6.191-1.808h-63.522C97.939,217.889,80.842,234.985,80.842,256
	s17.096,38.111,38.111,38.111h22.643c15.045,0,28.716-8.884,34.828-22.633l13.129-29.541c1.814-4.08,6.59-5.92,10.67-4.105
	C204.303,239.646,206.141,244.424,204.328,248.504z M512,245.221v21.558c0,10.401-8.463,18.863-18.863,18.863h-18.926
	c-11.987,31.469-42.459,53.895-78.085,53.895h-26.418c-32.979,0-62.944-19.472-76.336-49.609l-1.905-4.286h-70.934l-1.905,4.286
	c-13.394,30.137-43.358,49.609-76.336,49.609h-26.418c-35.625,0-66.098-22.426-78.085-53.895H18.863
	C8.463,285.642,0,277.18,0,266.779v-21.558c0-10.401,8.463-18.863,18.863-18.863h18.926c11.987-31.469,42.459-53.895,78.085-53.895
	h74.11c16.939,0,32.682,8.164,42.498,21.66c0.645-0.067,1.299-0.102,1.961-0.102h43.116c0.663,0,1.316,0.036,1.961,0.102
	c9.816-13.496,25.559-21.66,42.498-21.66h74.11c35.625,0,66.098,22.426,78.085,53.895h18.926
	C503.537,226.358,512,234.82,512,245.221z M278.595,236.929c0.019-0.009,0.037-0.019,0.056-0.028c0.001,0,0.002-0.001,0.004-0.001
	c0.94-0.421,1.599-1.361,1.599-2.457v-21.558c0-1.486-1.208-2.695-2.695-2.695h-43.116c-1.486,0-2.695,1.208-2.695,2.695v21.558
	c0,1.095,0.659,2.035,1.599,2.457c0.001,0.001,0.002,0.001,0.004,0.001c0.019,0.009,0.037,0.019,0.056,0.028
	c0.319,0.134,0.669,0.208,1.037,0.208h43.116C277.925,237.137,278.275,237.062,278.595,236.929z M33.438,269.474
	c-0.715-4.389-1.102-8.886-1.102-13.474s0.387-9.084,1.102-13.474H18.863c-1.486,0-2.695,1.208-2.695,2.695v21.558
	c0,1.486,1.208,2.695,2.695,2.695H33.438z M203.854,283.361l16.289-36.651c-2.837-3.302-4.564-7.584-4.564-12.269v-21.558
	c0-3.784,1.131-7.305,3.057-10.262c-6.835-8.738-17.357-13.991-28.653-13.991h-74.11c-37.147,0-67.368,30.221-67.368,67.368
	s30.221,67.368,67.368,67.368h26.418C168.888,323.368,193.052,307.665,203.854,283.361z M284.281,269.474l-7.186-16.168h-42.19
	l-7.186,16.168H284.281z M463.495,256c0-37.147-30.221-67.368-67.368-67.368h-74.11c-11.295,0-21.818,5.253-28.653,13.991
	c1.926,2.957,3.057,6.477,3.057,10.262v21.558c0,4.685-1.727,8.966-4.564,12.269l16.289,36.651
	c10.802,24.303,34.966,40.007,61.562,40.007h26.418C433.274,323.368,463.495,293.147,463.495,256z M495.832,245.221
	c0-1.486-1.208-2.695-2.695-2.695h-14.575c0.715,4.389,1.102,8.886,1.102,13.474s-0.387,9.084-1.102,13.474h14.575
	c1.486,0,2.695-1.208,2.695-2.695V245.221z M393.047,201.72h-63.522c-5.295,0-10.448,1.506-14.903,4.355
	c-3.761,2.405-4.86,7.404-2.454,11.166c2.406,3.761,7.404,4.861,11.166,2.454c1.849-1.182,3.989-1.808,6.191-1.808h63.522
	c21.015,0,38.111,17.096,38.111,38.111s-17.096,38.111-38.111,38.111h-22.643c-15.045,0-28.716-8.884-34.828-22.633l-13.129-29.541
	c-1.813-4.079-6.587-5.918-10.67-4.105c-4.08,1.813-5.918,6.59-4.105,10.67l13.129,29.541c8.703,19.582,28.174,32.234,49.603,32.234
	h22.643c29.931,0,54.28-24.35,54.28-54.28S422.977,201.72,393.047,201.72z"/>
<g>
</g>
<g>
</g>
<g>
</g>
<g>
</g>
<g>
</g>
<g>
</g>
<g>
</g>
<g>
</g>
<g>
</g>
<g>
</g>
<g>
</g>
<g>
</g>
<g>
</g>
<g>
</g>
<g>
</g>
</svg>
