<?xml version="1.0" encoding="iso-8859-1"?>
<!-- Generator: Adobe Illustrator 19.0.0, SVG Export Plug-In . SVG Version: 6.00 Build 0)  -->
<svg version="1.1" id="Layer_1" xmlns="http://www.w3.org/2000/svg" xmlns:xlink="http://www.w3.org/1999/xlink" x="0px" y="0px"
	 viewBox="0 0 512 512" style="enable-background:new 0 0 512 512;" xml:space="preserve">
<path style="fill:#939393;" d="M503.916,256c0,136.92-110.996,247.916-247.916,247.916S8.084,392.92,8.084,256
	S119.08,8.084,256,8.084S503.916,119.08,503.916,256z"/>
<path style="fill:#AAAAAA;" d="M464.34,229.098c0,115.063-93.277,208.34-208.34,208.34S47.66,344.161,47.66,229.098
	S140.937,20.758,256,20.758S464.34,114.035,464.34,229.098z"/>
<path style="fill:#424242;" d="M186.432,131.737L153.45,30.23C184.704,16.01,219.425,8.084,256,8.084s71.296,7.926,102.55,22.144
	l-32.981,101.507H186.432V131.737z M8.774,274.56c5.55,74.981,44.453,140.67,101.922,182.313l76.245-85.914l-69.057-119.611
	L8.774,274.56z M394.115,251.348l-69.057,119.611l76.245,85.914c57.47-41.643,96.372-107.334,101.923-182.313L394.115,251.348z"/>
<path style="fill:#D3D3D3;" d="M186.943,370.96l-69.057-119.611l69.057-119.611h138.115l69.057,119.611L325.057,370.96H186.943z"/>
<path style="fill:#E2E2E2;" d="M198.814,328.838l-38.515-66.711c-3.851-6.67-3.851-14.888,0-21.558l38.515-66.711
	c3.851-6.67,10.968-10.779,18.67-10.779h77.031c7.702,0,14.819,4.109,18.669,10.779l38.515,66.711c3.851,6.67,3.851,14.888,0,21.558
	l-38.515,66.711c-3.851,6.67-10.968,10.779-18.669,10.779h-77.031C209.783,339.617,202.666,335.508,198.814,328.838z"/>
<path style="fill:#5B5B5B;" d="M439.748,344.054c-2.828,5.893-5.933,11.627-9.295,17.189c-22.927,37.92-75.982,42.859-105.395,9.716
	l0,0l69.057-119.612l0,0C435.739,260.203,458.167,305.691,439.748,344.054z M186.432,131.737h139.137l0,0
	c11.995-36.916-13.495-75.454-52.173-78.726c-5.734-0.485-11.536-0.733-17.395-0.733s-11.661,0.248-17.395,0.733
	C199.927,56.283,174.437,94.82,186.432,131.737L186.432,131.737z M117.885,251.348c-41.624,8.855-64.051,54.343-45.633,92.706
	c2.828,5.893,5.933,11.627,9.295,17.189c22.927,37.92,75.982,42.859,105.395,9.716l0,0L117.885,251.348L117.885,251.348z"/>
<path style="fill:#FFFFFF;" d="M98.677,374.116c2.684,3.569,1.966,8.637-1.602,11.32c-1.456,1.095-3.161,1.623-4.853,1.623
	c-2.454,0-4.879-1.113-6.467-3.226c-18.673-24.831-31.429-52.765-37.913-83.024c-0.936-4.365,1.845-8.663,6.211-9.599
	c4.364-0.935,8.663,1.844,9.599,6.211C69.64,325.369,81.424,351.173,98.677,374.116z M200.817,50.34l-0.826,0.222
	c-4.309,1.167-6.856,5.608-5.689,9.917c0.975,3.602,4.237,5.973,7.799,5.973c0.7,0,1.411-0.092,2.119-0.283l0.76-0.205
	c4.314-1.149,6.88-5.578,5.73-9.893C209.561,51.756,205.128,49.192,200.817,50.34z M122.464,400.45
	c-3.279-3.03-8.394-2.827-11.425,0.452c-3.03,3.279-2.827,8.395,0.452,11.425l0.579,0.532c1.553,1.426,3.513,2.131,5.467,2.131
	c2.184,0,4.361-0.88,5.955-2.615c3.02-3.289,2.804-8.402-0.485-11.422L122.464,400.45z M457.949,291.212
	c-4.367-0.93-8.664,1.844-9.6,6.21l-0.153,0.708c-0.956,4.361,1.804,8.672,6.167,9.628c0.583,0.128,1.165,0.189,1.739,0.189
	c3.714,0,7.061-2.577,7.889-6.355l0.169-0.778C465.094,296.445,462.314,292.147,457.949,291.212z M312.017,50.565
	c-18.169-4.943-37.016-7.449-56.017-7.449c-7.213,0-14.491,0.365-21.632,1.087c-4.442,0.448-7.68,4.413-7.231,8.855
	c0.448,4.442,4.409,7.68,8.855,7.231c6.602-0.666,13.335-1.004,20.008-1.004c17.568,0,34.986,2.315,51.772,6.881
	c0.71,0.194,1.424,0.286,2.127,0.286c3.557,0,6.818-2.366,7.795-5.964C318.867,56.179,316.325,51.737,312.017,50.565z
	 M449.49,323.774c-4.151-1.643-8.848,0.392-10.49,4.544c-10.582,26.754-27.32,51.356-48.406,71.145
	c-3.255,3.056-3.417,8.172-0.362,11.428c1.592,1.696,3.741,2.551,5.896,2.551c1.983,0,3.971-0.725,5.531-2.189
	c22.813-21.41,40.923-48.033,52.375-76.989C455.677,330.113,453.642,325.415,449.49,323.774z"/>
<path d="M437.019,74.981C388.667,26.628,324.379,0,256,0S123.333,26.628,74.981,74.981S0,187.62,0,256
	s26.628,132.667,74.981,181.019S187.62,512,256,512s132.667-26.628,181.019-74.981S512,324.379,512,256
	S485.372,123.333,437.019,74.981z M495.832,256c0,2.908-0.071,5.8-0.174,8.685l-96.341-20.495l-65.132-112.811l29.175-89.793
	C441.845,81.043,495.832,162.33,495.832,256z M320.39,362.874H191.61l-64.39-111.527l64.39-111.527h128.78l64.39,111.527
	L320.39,362.874z M348.577,34.764l-28.881,88.889H192.305l-28.882-88.889C191.923,22.793,223.202,16.168,256,16.168
	S320.077,22.793,348.577,34.764z M148.64,41.584l29.176,89.793l-65.133,112.812l-96.341,20.495
	c-0.102-2.884-0.174-5.776-0.174-8.685C16.168,162.33,70.155,81.043,148.64,41.584z M17.465,280.976l96.356-20.498l63.206,109.475
	l-67.372,75.914C59.043,406.766,24.424,347.924,17.465,280.976z M122.84,455.368l67.736-76.326h130.848l67.736,76.326
	c-38.119,25.544-83.928,40.463-133.16,40.463S160.959,480.912,122.84,455.368z M402.345,445.867l-67.372-75.914l63.206-109.475
	l96.356,20.498C487.576,347.924,452.957,406.766,402.345,445.867z"/>
<g>
</g>
<g>
</g>
<g>
</g>
<g>
</g>
<g>
</g>
<g>
</g>
<g>
</g>
<g>
</g>
<g>
</g>
<g>
</g>
<g>
</g>
<g>
</g>
<g>
</g>
<g>
</g>
<g>
</g>
</svg>
