<?xml version="1.0" encoding="iso-8859-1"?>
<!-- Generator: Adobe Illustrator 19.0.0, SVG Export Plug-In . SVG Version: 6.00 Build 0)  -->
<svg version="1.1" id="Layer_1" xmlns="http://www.w3.org/2000/svg" xmlns:xlink="http://www.w3.org/1999/xlink" x="0px" y="0px"
	 viewBox="0 0 512 512" style="enable-background:new 0 0 512 512;" xml:space="preserve">
<path style="fill:#AEE5DF;" d="M336.855,153.338l142.494,78.372c15.152,8.333,24.566,24.255,24.566,41.547l0,0
	c0,26.187-21.229,47.417-47.417,47.417H51.211c-26.643,0-46.909-23.924-42.529-50.204L26.647,162.68
	c3.465-20.79,21.452-36.028,42.529-36.028h163.788C269.289,126.653,305.026,135.832,336.855,153.338z"/>
<path style="fill:#002E35;" d="M503.916,273.257L503.916,273.257c0,26.187-21.229,47.417-47.417,47.417H51.211
	c-26.643,0-46.909-23.924-42.529-50.204L26.647,162.68c3.465-20.789,21.452-36.028,42.529-36.028h163.788
	c26.379,0,52.445,4.846,76.93,14.202c0.449,0.171,0.852,0.326,1.229,0.471v0.014l0,0l-17.325,46.202
	c-2.643,7.046,2.566,14.563,10.092,14.563h30.871c4.493,0,8.515-2.787,10.092-6.994l11.619-30.984l122.877,67.582
	C494.501,240.043,503.916,255.964,503.916,273.257z"/>
<path style="fill:#1A6399;" d="M503.916,273.257L503.916,273.257c0,26.187-21.229,47.417-47.417,47.417H51.212
	c-26.9,0-47.232-24.363-42.421-50.828l5.88-32.337c3.727-20.502,21.583-35.403,42.421-35.403h112.677
	c35.718,0,64.674-28.955,64.674-64.674l0,0c0-3.671-0.322-7.266-0.91-10.77c26.627,0.07,52.924,5.083,77.591,14.679l-17.325,46.202
	c-2.642,7.047,2.566,14.563,10.092,14.563h30.871c4.493,0,8.515-2.787,10.092-6.994l11.619-30.984l122.877,67.582
	C494.501,240.043,503.916,255.964,503.916,273.257z"/>
<path style="fill:#007DBC;" d="M470.917,227.071c0.419,2.536,0.662,5.119,0.662,7.74l0,0c0,26.187-21.229,47.417-47.417,47.417
	H18.876c-3.693,0-7.254-0.474-10.652-1.334c-0.274-3.6-0.113-7.302,0.568-11.049l5.88-32.337
	c3.727-20.502,21.583-35.403,42.421-35.403h112.676c35.718,0,64.674-28.956,64.674-64.674l0,0c0-3.671-0.322-7.266-0.91-10.77
	c26.627,0.07,52.924,5.083,77.591,14.679l-17.325,46.202c-2.643,7.046,2.566,14.563,10.092,14.563h30.871
	c4.493,0,8.515-2.787,10.092-6.994l11.619-30.984"/>
<path style="fill:#FFFFFF;" d="M463.85,268.248c-8.868,14.584-24.342,23.291-41.392,23.291H299.116c-4.465,0-8.084-3.62-8.084-8.084
	s3.62-8.084,8.084-8.084h123.341c11.359,0,21.668-5.802,27.578-15.523c2.32-3.815,7.293-5.027,11.108-2.708
	C464.957,259.46,466.17,264.433,463.85,268.248z M266.779,275.371h-1.078c-4.465,0-8.084,3.62-8.084,8.084s3.62,8.084,8.084,8.084
	h1.078c4.465,0,8.084-3.62,8.084-8.084S271.244,275.371,266.779,275.371z"/>
<path d="M456.499,328.758c30.604,0,55.501-24.898,55.501-55.501c0-20.241-11.018-38.875-28.754-48.63l-142.494-78.372
	c-8.588-4.723-17.475-8.851-26.581-12.395c-0.07-0.028-0.136-0.064-0.208-0.089c-0.066-0.025-0.133-0.04-0.198-0.064
	c-25.418-9.835-52.561-15.013-79.894-15.125c-0.044-0.001-0.087-0.001-0.132-0.002c-0.259,0-0.517-0.012-0.776-0.012H69.176
	c-25.131,0-46.372,17.992-50.504,42.782L0.707,269.14c-2.479,14.876,1.689,30.006,11.436,41.513
	c9.747,11.507,23.987,18.105,39.067,18.105h56.579v48.505H40.421c-4.465,0-8.084,3.618-8.084,8.084s3.62,8.084,8.084,8.084h150.905
	c17.104,0,32.423-10.83,38.119-26.948c1.488-4.209-0.719-8.828-4.928-10.315c-4.208-1.487-8.828,0.718-10.315,4.928
	c-3.418,9.671-12.611,16.167-22.875,16.167h-67.368v-48.505h233.587v48.505h-67.368c-4.466,0-8.084,3.618-8.084,8.084
	s3.618,8.084,8.084,8.084h150.905c17.103,0,32.422-10.83,38.119-26.947c1.487-4.209-0.719-8.828-4.928-10.315
	c-4.21-1.49-8.828,0.719-10.315,4.928c-3.418,9.67-12.611,16.166-22.875,16.166h-67.368v-48.505H456.499z M346.447,167.839
	l-9.162,24.434c-0.391,1.046-1.407,1.748-2.523,1.748h-30.871c-1.228,0-1.913-0.727-2.215-1.16c-0.3-0.432-0.739-1.331-0.308-2.481
	l14.397-38.392c5.851,2.543,11.592,5.352,17.195,8.433L346.447,167.839z M34.621,164.009c2.827-16.962,17.359-29.272,34.555-29.272
	h157.109c0.044,0.902,0.073,1.802,0.073,2.695c0,31.203-25.385,56.589-56.589,56.589H57.092c-10.675,0-20.682,3.293-28.971,8.984
	L34.621,164.009z M24.481,300.202c-6.67-7.874-9.521-18.226-7.826-28.404l5.053-30.32c0.432-0.765,0.75-1.611,0.916-2.524
	c3.031-16.666,17.527-28.765,34.467-28.765h112.677c40.119,0,72.758-32.639,72.758-72.758c0-0.813-0.024-1.631-0.053-2.449
	c19.843,0.918,39.476,4.695,58.215,11.159l-14.461,38.561c-2.172,5.792-1.365,12.284,2.159,17.368
	c3.524,5.083,9.319,8.118,15.503,8.118h30.872c7.818,0,14.916-4.918,17.662-12.238l8.339-22.238l114.691,63.079
	c12.569,6.915,20.378,20.12,20.378,34.466c0,21.688-17.644,39.332-39.332,39.332H51.211
	C40.893,312.589,31.15,308.075,24.481,300.202z M17.246,385.347c0,4.466-3.62,8.084-8.084,8.084H8.084
	c-4.465,0-8.084-3.618-8.084-8.084s3.62-8.084,8.084-8.084h1.078C13.627,377.263,17.246,380.882,17.246,385.347z M267.002,385.347
	c0,4.466-3.618,8.084-8.084,8.084h-1.078c-4.465,0-8.084-3.618-8.084-8.084s3.62-8.084,8.084-8.084h1.078
	C263.384,377.263,267.002,380.882,267.002,385.347z"/>
<g>
</g>
<g>
</g>
<g>
</g>
<g>
</g>
<g>
</g>
<g>
</g>
<g>
</g>
<g>
</g>
<g>
</g>
<g>
</g>
<g>
</g>
<g>
</g>
<g>
</g>
<g>
</g>
<g>
</g>
</svg>
