<?xml version="1.0" encoding="iso-8859-1"?>
<!-- Generator: Adobe Illustrator 19.0.0, SVG Export Plug-In . SVG Version: 6.00 Build 0)  -->
<svg version="1.1" id="Layer_1" xmlns="http://www.w3.org/2000/svg" xmlns:xlink="http://www.w3.org/1999/xlink" x="0px" y="0px"
	 viewBox="0 0 512 512" style="enable-background:new 0 0 512 512;" xml:space="preserve">
<path style="fill:#F93100;" d="M272.987,503.916h-33.972c-9.188,0-17.366-5.824-20.372-14.506l-16.704-48.256
	c-17.729-51.216-26.78-105.033-26.78-159.231l0,0c0-45.797,6.463-91.363,19.196-135.353l34.094-117.777
	C231.999,16.526,243.23,8.084,256,8.084l0,0c12.77,0,24.001,8.442,27.552,20.707l34.094,117.777
	c12.734,43.99,19.196,89.557,19.196,135.353l0,0c0,54.198-9.051,108.015-26.779,159.231l-16.704,48.256
	C290.352,498.092,282.174,503.916,272.987,503.916z"/>
<path style="fill:#BC0000;" d="M336.842,281.922L336.842,281.922c0,54.198-9.051,108.015-26.779,159.231l-16.704,48.256
	c-3.005,8.682-11.184,14.506-20.372,14.506H256V8.084c12.77,0,24.001,8.442,27.552,20.707l34.094,117.777
	C330.379,190.559,336.842,236.126,336.842,281.922z"/>
<path style="fill:#939393;" d="M277.558,342.232h-43.116c-11.906,0-21.558-9.651-21.558-21.558v-92.008
	c0-20.622,16.717-37.339,37.339-37.339h11.553c20.622,0,37.339,16.717,37.339,37.339v92.008
	C299.116,332.58,289.464,342.232,277.558,342.232z"/>
<path style="fill:#868686;" d="M299.116,228.666v92.008c0,11.906-9.651,21.558-21.558,21.558h-32.337
	c11.906,0,21.558-9.651,21.558-21.558v-92.008c0-17.015-11.384-31.36-26.947-35.863c3.301-0.955,6.784-1.477,10.392-1.477h11.553
	C282.399,191.326,299.116,208.043,299.116,228.666z"/>
<path style="fill:#FFFFFF;" d="M264.084,40.421v75.453c0,4.465-3.62,8.084-8.084,8.084c-4.465,0-8.084-3.62-8.084-8.084V40.421
	c0-4.465,3.62-8.084,8.084-8.084C260.465,32.337,264.084,35.956,264.084,40.421z M256,140.126c-4.465,0-8.084,3.62-8.084,8.084
	v1.078c0,4.465,3.62,8.084,8.084,8.084c4.465,0,8.084-3.62,8.084-8.084v-1.078C264.084,143.746,260.465,140.126,256,140.126z"/>
<path d="M264.084,385.347v1.078c0,4.466-3.62,8.084-8.084,8.084c-4.465,0-8.084-3.618-8.084-8.084v-1.078
	c0-4.466,3.62-8.084,8.084-8.084C260.465,377.263,264.084,380.882,264.084,385.347z M393.432,331.453v21.558
	c0,4.466-3.62,8.084-8.084,8.084s-8.084-3.618-8.084-8.084v-2.695h-37.095c-4.425,31.734-11.914,62.998-22.465,93.482
	l-16.704,48.257C296.868,503.984,285.611,512,272.987,512h-33.973c-12.624,0-23.882-8.016-28.011-19.946l-16.704-48.257
	c-10.552-30.483-18.042-61.747-22.465-93.481h-37.096v2.695c0,4.466-3.62,8.084-8.084,8.084s-8.084-3.618-8.084-8.084v-21.558
	c0-4.466,3.62-8.084,8.084-8.084s8.084,3.618,8.084,8.084v2.695h35.095c-1.831-17.299-2.758-34.722-2.758-52.224
	c0-46.57,6.565-92.866,19.515-137.601l34.094-117.778C225.207,10.915,239.729,0,256,0s30.793,10.915,35.317,26.543l34.094,117.777
	c12.95,44.736,19.515,91.031,19.515,137.602c0,17.502-0.927,34.925-2.758,52.225h35.095v-2.695c0-4.466,3.62-8.084,8.084-8.084
	S393.432,326.987,393.432,331.453z M186.107,334.147h21.946c-2.074-4.045-3.253-8.623-3.253-13.474v-92.008
	c0-25.047,20.377-45.424,45.424-45.424h11.553c25.047,0,45.424,20.377,45.424,45.424v92.008c0,4.851-1.178,9.428-3.253,13.474
	h21.946c1.895-17.296,2.865-34.719,2.865-52.225c0-45.048-6.351-89.832-18.877-133.106L275.787,31.039
	c-2.535-8.756-10.671-14.871-19.787-14.871c-9.116,0-17.252,6.115-19.787,14.871l-34.094,117.777
	c-12.526,43.274-18.877,88.058-18.877,133.106C183.242,299.428,184.212,316.851,186.107,334.147z M277.558,334.147
	c7.43,0,13.474-6.044,13.474-13.474v-92.008c0-16.132-13.123-29.255-29.255-29.255h-11.553c-16.132,0-29.255,13.123-29.255,29.255
	v92.008c0,7.43,6.044,13.474,13.474,13.474H277.558z M323.85,350.316h-135.7c4.317,29.932,11.468,59.42,21.427,88.192l16.704,48.257
	c1.878,5.423,6.994,9.066,12.733,9.066h8.901v-78.147c0-4.466,3.62-8.084,8.084-8.084c4.465,0,8.084,3.618,8.084,8.084v78.147h8.902
	c5.739,0,10.855-3.643,12.733-9.066l16.704-48.257C312.383,409.736,319.533,380.248,323.85,350.316z"/>
<g>
</g>
<g>
</g>
<g>
</g>
<g>
</g>
<g>
</g>
<g>
</g>
<g>
</g>
<g>
</g>
<g>
</g>
<g>
</g>
<g>
</g>
<g>
</g>
<g>
</g>
<g>
</g>
<g>
</g>
</svg>
