<?xml version="1.0" encoding="iso-8859-1"?>
<!-- Generator: Adobe Illustrator 19.0.0, SVG Export Plug-In . SVG Version: 6.00 Build 0)  -->
<svg version="1.1" id="Layer_1" xmlns="http://www.w3.org/2000/svg" xmlns:xlink="http://www.w3.org/1999/xlink" x="0px" y="0px"
	 viewBox="0 0 512 512" style="enable-background:new 0 0 512 512;" xml:space="preserve">
<path style="fill:#BCBCBC;" d="M256,417.684C119.08,417.684,8.084,345.296,8.084,256S119.08,94.316,256,94.316
	S503.916,166.704,503.916,256S392.92,417.684,256,417.684z"/>
<path style="fill:#A3A3A3;" d="M148.211,227.76c0-2.576,1.822-4.783,4.347-5.289c30.359-6.091,65.705-9.587,103.442-9.587
	s73.083,3.496,103.442,9.587c2.525,0.507,4.347,2.714,4.347,5.289v34.922c0,2.576-1.822,4.783-4.347,5.289
	c-30.359,6.091-65.705,9.587-103.442,9.587s-73.083-3.496-103.442-9.587c-2.526-0.507-4.347-2.714-4.347-5.289L148.211,227.76
	L148.211,227.76z"/>
<path style="fill:#FF0000;" d="M12.64,225.05C34.785,150.561,135.312,94.316,256,94.316s221.215,56.246,243.36,130.735
	c-54.928-40.056-143.467-66.061-243.36-66.061S67.569,184.995,12.64,225.05z"/>
<path style="fill:#266DAD;" d="M503.721,262.126C498.781,348.581,389.773,417.684,256,417.684S13.219,348.581,8.279,262.126
	C62.811,304.028,153.418,331.453,256,331.453S449.189,304.028,503.721,262.126z"/>
<path style="fill:#FFFFFF;" d="M371.398,364.885c1.509,4.202-0.674,8.831-4.876,10.34c-33.175,11.911-71.393,18.207-110.522,18.207
	s-77.346-6.296-110.521-18.208c-4.203-1.508-6.385-6.138-4.876-10.34c1.508-4.203,6.139-6.388,10.34-4.876
	c31.441,11.289,67.769,17.256,105.057,17.256s73.616-5.967,105.058-17.256C365.261,358.497,369.889,360.682,371.398,364.885z
	 M398.553,353.194c-1.886-4.046-6.695-5.797-10.742-3.912l-0.977,0.455c-4.046,1.886-5.798,6.696-3.912,10.742
	c1.371,2.942,4.288,4.671,7.333,4.671c1.144,0,2.306-0.245,3.41-0.759l0.977-0.455C398.687,362.051,400.439,357.241,398.553,353.194
	z"/>
<path d="M512,256c0-46.012-27.091-89.019-76.281-121.1C387.596,103.516,323.77,86.232,256,86.232S124.404,103.516,76.282,134.9
	C27.091,166.981,0,209.988,0,256c0,1.239,0.025,2.516,0.071,3.87c1.476,44.549,28.401,86.05,76.21,117.23
	C124.404,408.484,188.23,425.768,256,425.768s131.596-17.284,179.718-48.668c47.809-31.18,74.734-72.681,76.21-117.23
	C511.975,258.516,512,257.238,512,256z M19.016,232.336C73.788,191.439,162.078,167.074,256,167.074s182.212,24.366,236.984,65.262
	c1.869,7.709,2.846,15.605,2.847,23.644c-54.576,42.253-143.832,67.389-239.83,67.389S70.745,298.233,16.168,255.98
	C16.171,247.939,17.146,240.045,19.016,232.336z M256,102.4c104.947,0,194.356,43.398,226.799,103.643
	C425.191,171.225,342.735,150.905,256,150.905S86.809,171.225,29.201,206.043C61.644,145.798,151.053,102.4,256,102.4z M256,409.6
	c-120.794,0-220.999-57.493-237.447-131.995C76.386,316.616,163.355,339.537,256,339.537s179.614-22.92,237.447-61.932
	C476.999,352.107,376.794,409.6,256,409.6z M361.031,275.898c6.282-1.26,10.843-6.818,10.843-13.216V227.76
	c0-6.398-4.56-11.956-10.841-13.216C329.257,208.169,292.937,204.8,256,204.8s-73.257,3.37-105.031,9.744
	c-6.283,1.26-10.843,6.818-10.843,13.216v34.922c0,6.398,4.559,11.956,10.841,13.216c31.775,6.375,68.095,9.744,105.032,9.744
	S329.257,282.273,361.031,275.898z M156.295,229.973c30.233-5.894,64.651-9.005,99.705-9.005s69.471,3.111,99.705,9.005v30.497
	c-30.233,5.894-64.651,9.005-99.705,9.005s-69.471-3.111-99.705-9.005V229.973z"/>
<g>
</g>
<g>
</g>
<g>
</g>
<g>
</g>
<g>
</g>
<g>
</g>
<g>
</g>
<g>
</g>
<g>
</g>
<g>
</g>
<g>
</g>
<g>
</g>
<g>
</g>
<g>
</g>
<g>
</g>
</svg>
