<?xml version="1.0" encoding="iso-8859-1"?>
<!-- Generator: Adobe Illustrator 19.0.0, SVG Export Plug-In . SVG Version: 6.00 Build 0)  -->
<svg version="1.1" id="Layer_1" xmlns="http://www.w3.org/2000/svg" xmlns:xlink="http://www.w3.org/1999/xlink" x="0px" y="0px"
	 viewBox="0 0 512 512" style="enable-background:new 0 0 512 512;" xml:space="preserve">
<path style="fill:#FFB150;" d="M503.916,256c0,16.41-4.717,32.505-13.745,46.207C440.057,378.264,353.895,428.463,256,428.463l0,0
	c-97.894,0-184.057-50.199-234.17-126.256C12.801,288.505,8.084,272.41,8.084,256l0,0c0-16.41,4.717-32.505,13.745-46.207
	C71.943,133.735,158.105,83.537,256,83.537l0,0c97.894,0,184.057,50.199,234.17,126.255C499.199,223.495,503.916,239.59,503.916,256
	L503.916,256z"/>
<path style="fill:#D18839;" d="M496.35,220.989c4.984,10.942,7.566,22.889,7.566,35.011l0,0c0,16.41-4.717,32.505-13.745,46.207
	C440.057,378.264,353.895,428.463,256,428.463l0,0c-97.894,0-184.057-50.199-234.17-126.256C12.801,288.505,8.084,272.41,8.084,256
	l0,0c0-12.122,2.582-24.069,7.566-35.011c60.037,54.706,145.5,88.906,240.35,88.906h0.001
	C350.85,309.895,436.313,275.695,496.35,220.989z"/>
<path style="fill:#B22600;" d="M105.095,127.609V384.39c-33.183-21.25-61.596-49.296-83.265-82.183
	C12.801,288.505,8.084,272.41,8.084,256l0,0c0-16.41,4.717-32.505,13.745-46.208C43.498,176.905,71.912,148.859,105.095,127.609z
	 M256,83.537c-30.088,0-59.065,4.749-86.232,13.526v317.873c27.166,8.777,56.143,13.527,86.232,13.527l0,0
	c30.088,0,59.065-4.749,86.232-13.527V97.063C315.065,88.286,286.088,83.537,256,83.537L256,83.537z M490.17,209.792
	c-21.669-32.887-50.082-60.933-83.265-82.183V384.39c33.183-21.25,61.596-49.296,83.265-82.183
	c9.028-13.702,13.745-29.798,13.745-46.207l0,0C503.916,239.59,499.199,223.495,490.17,209.792z"/>
<path style="fill:#8C1A00;" d="M495.251,218.682c5.702,11.558,8.665,24.338,8.665,37.318l0,0c0,16.41-4.717,32.505-13.745,46.207
	c-21.669,32.887-50.082,60.933-83.265,82.183V277.72C440.204,262.542,470.071,242.497,495.251,218.682z M16.749,218.682
	C11.047,230.24,8.084,243.019,8.084,256l0,0c0,16.41,4.717,32.505,13.745,46.207c21.669,32.887,50.082,60.933,83.265,82.183V277.72
	C71.796,262.542,41.929,242.497,16.749,218.682z M256,309.895L256,309.895c-29.861,0-58.775-3.496-86.232-10.032v115.074
	c27.166,8.777,56.143,13.527,86.232,13.527l0,0c30.088,0,59.065-4.749,86.232-13.527V299.863
	C314.775,306.399,285.861,309.895,256,309.895z"/>
<path style="fill:#FFFFFF;" d="M311.443,388.099c-18.147,3.538-36.801,5.332-55.443,5.332c-7.08,0-14.235-0.261-21.265-0.774
	c-4.453-0.324-7.8-4.198-7.474-8.651c0.324-4.453,4.21-7.808,8.651-7.474c6.641,0.485,13.399,0.731,20.088,0.731
	c17.605,0,35.217-1.693,52.347-5.034c4.383-0.856,8.627,2.006,9.482,6.388C318.684,383,315.824,387.244,311.443,388.099z
	 M204.574,372.408l-0.918-0.178c-4.382-0.854-8.629,2.003-9.484,6.384c-0.856,4.382,2.003,8.629,6.384,9.484l0.974,0.189
	c0.514,0.099,1.026,0.147,1.531,0.147c3.801,0,7.188-2.694,7.93-6.564C211.831,377.484,208.959,373.248,204.574,372.408z"/>
<path d="M496.921,205.344c-36.74-55.761-90.625-96.113-152.219-115.977c-0.033-0.011-0.066-0.023-0.1-0.033
	C316.383,80.245,286.546,75.453,256,75.453s-60.383,4.792-88.602,13.881c-0.033,0.011-0.067,0.023-0.1,0.033
	C105.704,109.232,51.82,149.584,15.079,205.344C5.214,220.315,0,237.832,0,256s5.214,35.685,15.079,50.656
	c36.736,55.754,90.612,96.103,152.198,115.97c0.045,0.014,0.088,0.03,0.134,0.044c28.216,9.087,58.048,13.878,88.59,13.878
	c30.544,0,60.377-4.791,88.594-13.879c0.041-0.012,0.08-0.027,0.121-0.04c61.589-19.866,115.468-60.217,152.206-115.973
	C506.786,291.685,512,274.168,512,256S506.786,220.315,496.921,205.344z M398.821,132.026v247.948
	c-15.33,9.455-31.575,17.367-48.505,23.61V108.416C367.246,114.66,383.491,122.571,398.821,132.026z M161.684,108.416v295.169
	c-16.93-6.244-33.175-14.156-48.505-23.61V132.026C128.509,122.571,144.754,114.66,161.684,108.416z M28.58,297.76
	c-8.12-12.323-12.412-26.763-12.412-41.76c0-14.997,4.292-29.437,12.412-41.76c18.609-28.243,41.881-52.292,68.43-71.42v226.36
	C70.461,350.052,47.189,326.002,28.58,297.76z M256,420.379c-26.862,0-53.14-3.93-78.147-11.404V103.026
	C202.86,95.551,229.138,91.621,256,91.621s53.14,3.93,78.147,11.404v305.95C309.14,416.449,282.862,420.379,256,420.379z
	 M483.42,297.76c-18.609,28.243-41.881,52.292-68.43,71.42V142.82c26.55,19.128,49.821,43.177,68.43,71.42
	c8.12,12.322,12.412,26.763,12.412,41.76C495.832,270.997,491.539,285.437,483.42,297.76z M317.979,256
	c0,4.465-3.62,8.084-8.084,8.084H307.2v13.474c0,4.465-3.62,8.084-8.084,8.084c-4.465,0-8.084-3.62-8.084-8.084v-13.474h-26.947
	v13.474c0,4.465-3.62,8.084-8.084,8.084c-4.465,0-8.084-3.62-8.084-8.084v-13.474h-26.947v13.474c0,4.465-3.62,8.084-8.084,8.084
	c-4.465,0-8.084-3.62-8.084-8.084v-13.474h-2.695c-4.465,0-8.084-3.62-8.084-8.084c0-4.465,3.62-8.084,8.084-8.084h2.695v-13.474
	c0-4.465,3.62-8.084,8.084-8.084c4.465,0,8.084,3.62,8.084,8.084v13.474h26.947v-13.474c0-4.465,3.62-8.084,8.084-8.084
	c4.465,0,8.084,3.62,8.084,8.084v13.474h26.947v-13.474c0-4.465,3.62-8.084,8.084-8.084c4.465,0,8.084,3.62,8.084,8.084v13.474
	h2.695C314.359,247.916,317.979,251.535,317.979,256z"/>
<g>
</g>
<g>
</g>
<g>
</g>
<g>
</g>
<g>
</g>
<g>
</g>
<g>
</g>
<g>
</g>
<g>
</g>
<g>
</g>
<g>
</g>
<g>
</g>
<g>
</g>
<g>
</g>
<g>
</g>
</svg>
