<?xml version="1.0" encoding="iso-8859-1"?>
<!-- Generator: Adobe Illustrator 19.0.0, SVG Export Plug-In . SVG Version: 6.00 Build 0)  -->
<svg version="1.1" id="Layer_1" xmlns="http://www.w3.org/2000/svg" xmlns:xlink="http://www.w3.org/1999/xlink" x="0px" y="0px"
	 viewBox="0 0 512 512" style="enable-background:new 0 0 512 512;" xml:space="preserve">
<path style="fill:#ABACAD;" d="M432.262,219.382L432.262,219.382c15.185,12.373,23.225,31.485,21.452,50.993l-14.829,163.115
	c-0.902,9.919-9.218,17.514-19.178,17.514H300.82c-9.96,0-18.277-7.595-19.178-17.514l-14.829-163.115
	c-1.773-19.508,6.267-38.62,21.452-50.993l0,0c14.456-11.779,22.481-29.707,21.633-48.335l-4.784-105.25
	c-1.429-31.441,23.675-57.713,55.148-57.713l0,0c31.473,0,56.578,26.272,55.148,57.713l-4.784,105.25
	C409.782,189.675,417.806,207.604,432.262,219.382z"/>
<path style="fill:#CDCECE;" d="M453.714,270.375L438.885,433.49c-0.902,9.919-9.218,17.514-19.178,17.514h-41.676l13.379-147.169
	c2.39-26.292-8.446-52.053-28.913-68.73l0,0c-0.044-0.036-0.088-0.072-0.133-0.108c-7.505-6.143-11.73-15.43-11.73-25.13V8.942
	c3.126-0.553,6.339-0.858,9.629-0.858l0,0c31.473,0,56.578,26.272,55.148,57.713l-4.784,105.25
	c-0.847,18.628,7.178,36.556,21.633,48.335l0,0C447.447,231.755,455.487,250.868,453.714,270.375z"/>
<path style="fill:#F93100;" d="M441.67,402.861l-2.784,30.629c-0.902,9.919-9.218,17.514-19.178,17.514H300.82
	c-9.96,0-18.277-7.595-19.178-17.514l-2.784-30.629H441.67z M411.471,152.515H309.057l0.842,18.532
	c0.312,6.847-0.585,13.595-2.55,19.982h105.83c-1.964-6.387-2.862-13.136-2.55-19.982L411.471,152.515z"/>
<path style="fill:#A50000;" d="M379.521,451.004h-78.7c-9.96,0-18.277-7.595-19.178-17.514l-2.784-30.629H382.41L379.521,451.004z
	 M350.635,191.03v-38.514h-41.579l0.842,18.532c0.312,6.847-0.585,13.596-2.55,19.982H350.635z"/>
<path style="fill:#8F9091;" d="M223.734,219.382L223.734,219.382c15.185,12.373,23.225,31.485,21.452,50.993l-14.829,163.115
	c-0.902,9.919-9.218,17.514-19.178,17.514H92.293c-9.96,0-18.277-7.595-19.178-17.514L58.286,270.375
	c-1.773-19.508,6.267-38.62,21.452-50.993l0,0c14.456-11.779,22.481-29.707,21.633-48.335l-4.784-105.25
	c-1.429-31.441,23.675-57.713,55.148-57.713l0,0c31.473,0,56.578,26.272,55.148,57.713l-4.784,105.25
	C201.255,189.675,209.279,207.604,223.734,219.382z"/>
<path style="fill:#ABACAD;" d="M245.187,270.375L230.358,433.49c-0.902,9.919-9.218,17.514-19.178,17.514h-41.675l13.379-147.169
	c2.391-26.292-8.446-52.053-28.913-68.73l0,0c-0.044-0.036-0.088-0.072-0.133-0.108c-7.505-6.143-11.73-15.43-11.73-25.13V8.942
	c3.126-0.553,6.339-0.858,9.629-0.858l0,0c31.473,0,56.578,26.272,55.148,57.713l-4.784,105.25
	c-0.847,18.628,7.178,36.556,21.633,48.335l0,0C238.92,231.755,246.96,250.868,245.187,270.375z"/>
<path style="fill:#F93100;" d="M202.101,171.047c-0.312,6.847,0.585,13.595,2.55,19.982H98.821
	c1.965-6.387,2.862-13.136,2.55-19.982l-0.843-18.532h102.414L202.101,171.047z"/>
<path style="fill:#A50000;" d="M233.142,402.861l-2.784,30.629c-0.902,9.919-9.218,17.514-19.178,17.514H92.293
	c-9.96,0-18.277-7.595-19.178-17.514l-2.784-30.629H233.142z M142.107,191.03v-38.514h-41.579l0.843,18.532
	c0.312,6.847-0.585,13.596-2.55,19.982H142.107z"/>
<path style="fill:#CDCECE;" d="M336.6,244.624L336.6,244.624c16.999,13.851,26,35.247,24.016,57.085l-16.6,182.601
	c-1.009,11.104-10.32,19.606-21.47,19.606H189.455c-11.15,0-20.46-8.502-21.47-19.606l-16.6-182.601
	c-1.985-21.838,7.016-43.233,24.014-57.084l0,0c16.182-13.186,25.166-33.256,24.218-54.109l-5.356-117.824
	C192.663,37.495,220.767,8.084,256,8.084l0,0c35.233,0,63.337,29.41,61.736,64.607l-5.356,117.824
	C311.434,211.368,320.416,231.438,336.6,244.624z"/>
<path style="fill:#E2E2E2;" d="M360.614,301.708l-16.601,182.601c-1.01,11.104-10.32,19.606-21.47,19.606H275.89l14.977-164.751
	c2.675-29.433-9.456-58.271-32.368-76.94l0,0c-0.05-0.04-0.099-0.081-0.148-0.121c-8.402-6.877-13.131-17.273-13.131-28.132V9.045
	c3.5-0.619,7.096-0.96,10.779-0.96l0,0c35.233,0,63.337,29.41,61.736,64.607l-5.356,117.824
	c-0.947,20.853,8.035,40.923,24.218,54.109l0,0C353.598,258.475,362.599,279.871,360.614,301.708z"/>
<path style="fill:#F93100;" d="M347.131,450.021l-3.117,34.289c-1.01,11.104-10.32,19.606-21.47,19.606H189.455
	c-11.15,0-20.46-8.502-21.47-19.606l-3.117-34.289H347.131z M313.325,169.768H198.675l0.943,20.746
	c0.348,7.665-0.655,15.22-2.855,22.37h118.472c-2.199-7.15-3.203-14.705-2.855-22.37L313.325,169.768z"/>
<path style="fill:#A50000;" d="M277.558,503.916h-88.103c-11.15,0-20.46-8.502-21.47-19.606l-3.117-34.289h115.921L277.558,503.916z
	 M245.221,212.884v-43.116h-46.546l0.943,20.746c0.348,7.665-0.655,15.22-2.855,22.37H245.221z"/>
<path style="fill:#FFFFFF;" d="M425.765,280.04l-2.49,27.387c-0.382,4.198-3.907,7.353-8.041,7.353
	c-0.246,0-0.493-0.011-0.742-0.033c-4.446-0.404-7.724-4.336-7.32-8.783l2.49-27.388c1.172-12.893-4.12-25.472-14.155-33.649
	c-3.461-2.82-3.981-7.913-1.161-11.374c2.82-3.463,7.913-3.981,11.374-1.161C419.932,243.972,427.425,261.783,425.765,280.04z
	 M413.784,322.572c-4.44-0.414-8.38,2.869-8.785,7.316l-0.052,0.565c-0.405,4.446,2.869,8.38,7.316,8.785
	c0.25,0.023,0.498,0.033,0.744,0.033c4.133,0,7.658-3.154,8.041-7.349l0.052-0.565C421.505,326.91,418.231,322.977,413.784,322.572z
	 M397.17,60.924c0-17.701-14.401-32.102-32.103-32.102c-4.465,0-8.084,3.62-8.084,8.084s3.62,8.084,8.084,8.084
	c8.786,0,15.934,7.149,15.934,15.933c0,4.466,3.62,8.084,8.084,8.084S397.17,65.389,397.17,60.924z M261.389,32.337
	c-4.465,0-8.084,3.618-8.084,8.084s3.62,8.084,8.084,8.084c10.401,0,18.863,8.463,18.863,18.863c0,4.466,3.62,8.084,8.084,8.084
	s8.084-3.618,8.084-8.084C296.421,48.053,280.705,32.337,261.389,32.337z M321.347,361.905c-4.446-0.415-8.378,2.869-8.785,7.316
	l-0.058,0.636c-0.405,4.446,2.87,8.378,7.317,8.784c0.25,0.023,0.497,0.034,0.744,0.034c4.133,0,7.658-3.155,8.041-7.351
	l0.058-0.634C329.069,366.244,325.794,362.311,321.347,361.905z M311.768,260.512c-3.461-2.819-8.554-2.3-11.374,1.16
	c-2.82,3.462-2.3,8.554,1.161,11.375c11.515,9.382,17.586,23.815,16.241,38.605l-2.794,30.73c-0.404,4.446,2.873,8.378,7.319,8.783
	c0.249,0.023,0.496,0.033,0.742,0.033c4.134,0,7.66-3.156,8.041-7.353l2.794-30.729C335.73,292.961,327.457,273.296,311.768,260.512
	z"/>
<path d="M478.585,450.021c0,4.466-3.618,8.084-8.084,8.084h-95.933c-4.466,0-8.084-3.618-8.084-8.084s3.618-8.084,8.084-8.084
	h45.006c5.795,0,10.561-4.351,11.084-10.122l14.797-162.753c1.528-16.813-5.372-33.216-18.46-43.881
	c-16.332-13.308-25.512-33.817-24.554-54.862l4.774-105.017c0.589-12.946-4.019-25.235-12.971-34.605
	c-8.955-9.368-21.021-14.528-33.981-14.528c-8.712,0-17.21,2.397-24.574,6.931c-3.801,2.338-8.781,1.156-11.122-2.646
	c-2.341-3.801-1.155-8.781,2.646-11.122C337.129,3.226,348.557,0,360.264,0c17.417,0,33.636,6.935,45.669,19.526
	c12.033,12.593,18.224,29.11,17.434,46.509l-4.774,105.017c-0.725,15.955,6.233,31.505,18.616,41.593
	c17.264,14.067,26.365,35.703,24.349,57.879l-14.796,162.753c-0.279,3.076-1.051,5.987-2.231,8.659h25.971
	C474.967,441.937,478.585,445.555,478.585,450.021z M145.516,450.021c0-4.466-3.618-8.084-8.084-8.084H92.425
	c-5.795,0-10.561-4.351-11.085-10.122l-1.977-21.747h47.289c4.466,0,8.084-3.618,8.084-8.084c0-4.466-3.618-8.084-8.084-8.084
	h-48.76L66.544,269.061c-1.528-16.813,5.372-33.216,18.46-43.881c8.721-7.105,15.377-16.275,19.565-26.473h66.381
	c4.466,0,8.084-3.618,8.084-8.084c0-4.466-3.618-8.084-8.084-8.084h-61.981c0.565-4.021,0.776-8.109,0.59-12.221l-0.456-10.04
	h61.847c4.466,0,8.084-3.618,8.084-8.084c0-4.466-3.618-8.084-8.084-8.084h-62.583l-3.582-78.808
	c-0.589-12.946,4.019-25.235,12.971-34.605c8.954-9.368,21.021-14.528,33.98-14.528c8.71,0,17.208,2.397,24.574,6.931
	c3.799,2.339,8.783,1.156,11.122-2.646c2.341-3.802,1.156-8.782-2.646-11.122C174.869,3.226,163.441,0,151.736,0
	c-17.417,0-33.635,6.935-45.668,19.526c-12.034,12.593-18.225,29.11-17.434,46.51l4.774,105.017
	c0.725,15.955-6.233,31.505-18.616,41.593c-17.264,14.067-26.365,35.703-24.349,57.879L65.24,433.278
	c0.279,3.076,1.051,5.987,2.231,8.659h-27.05c-4.466,0-8.084,3.618-8.084,8.084s3.618,8.084,8.084,8.084h97.011
	C141.897,458.105,145.516,454.487,145.516,450.021z M72.758,495.832H71.68c-4.466,0-8.084,3.618-8.084,8.084S67.214,512,71.68,512
	h1.078c4.466,0,8.084-3.618,8.084-8.084S77.224,495.832,72.758,495.832z M503.916,441.937h-1.078c-4.466,0-8.084,3.618-8.084,8.084
	s3.618,8.084,8.084,8.084h1.078c4.466,0,8.084-3.618,8.084-8.084S508.382,441.937,503.916,441.937z M9.162,441.937H8.084
	c-4.466,0-8.084,3.618-8.084,8.084s3.618,8.084,8.084,8.084h1.078c4.466,0,8.084-3.618,8.084-8.084S13.628,441.937,9.162,441.937z
	 M41.499,495.832h-1.078c-4.466,0-8.084,3.618-8.084,8.084S35.955,512,40.421,512h1.078c4.466,0,8.084-3.618,8.084-8.084
	S45.965,495.832,41.499,495.832z M407.983,495.832h-1.078c-4.466,0-8.084,3.618-8.084,8.084S402.44,512,406.905,512h1.078
	c4.466,0,8.084-3.618,8.084-8.084S412.449,495.832,407.983,495.832z M382.653,503.916c0,4.466-3.618,8.084-8.084,8.084H105.095
	c-4.466,0-8.084-3.618-8.084-8.084s3.618-8.084,8.084-8.084h57.923c-1.655-3.272-2.729-6.91-3.082-10.791l-16.6-182.601
	c-2.232-24.553,7.845-48.51,26.959-64.083c14.132-11.516,22.075-29.264,21.249-47.475l-5.356-117.824
	c-0.875-19.249,5.975-37.524,19.288-51.454S236.73,0,256,0s37.212,7.672,50.525,21.604c13.313,13.932,20.162,32.205,19.288,51.454
	l-3.229,71.051h56.895c4.466,0,8.084,3.618,8.084,8.084c0,4.466-3.618,8.084-8.084,8.084h-57.63l-1.012,22.261h58.642
	c4.466,0,8.084,3.618,8.084,8.084c0,4.466-3.618,8.084-8.084,8.084H320.66c1.41,15.37,8.951,29.794,21.046,39.649
	c19.113,15.573,29.192,39.53,26.959,64.083l-8.315,91.46h47.95c4.466,0,8.084,3.618,8.084,8.084c0,4.466-3.618,8.084-8.084,8.084
	h-49.42l-6.816,74.973c-0.352,3.88-1.427,7.518-3.082,10.791h25.586C379.034,495.832,382.653,499.45,382.653,503.916z
	 M189.456,495.832h133.089c7.015,0,12.783-5.269,13.419-12.254l16.6-182.601c1.744-19.191-6.132-37.914-21.071-50.085
	c-17.632-14.367-27.729-36.314-27.241-59.001c-0.066-0.414-0.109-0.834-0.109-1.268c0-0.645,0.083-1.268,0.225-1.867l5.292-116.432
	c0.673-14.796-4.593-28.842-14.825-39.55C284.603,22.067,270.81,16.168,256,16.168c-14.81,0-28.603,5.898-38.835,16.605
	c-10.232,10.709-15.498,24.755-14.825,39.55l4.061,89.361h71.157c4.466,0,8.084,3.618,8.084,8.084c0,4.466-3.618,8.084-8.084,8.084
	h-70.422l0.559,12.294c0.224,4.935-0.06,9.841-0.811,14.653h70.673c4.466,0,8.084,3.618,8.084,8.084s-3.618,8.084-8.084,8.084
	h-75.116c-4.619,11.54-12.103,21.911-21.935,29.923c-14.937,12.172-22.815,30.895-21.071,50.085l12.815,140.96h137.644
	c4.466,0,8.084,3.618,8.084,8.084s-3.618,8.084-8.084,8.084H173.721l2.315,25.473C176.672,490.563,182.441,495.832,189.456,495.832z
	"/>
<g>
</g>
<g>
</g>
<g>
</g>
<g>
</g>
<g>
</g>
<g>
</g>
<g>
</g>
<g>
</g>
<g>
</g>
<g>
</g>
<g>
</g>
<g>
</g>
<g>
</g>
<g>
</g>
<g>
</g>
</svg>
