<?xml version="1.0" encoding="iso-8859-1"?>
<!-- Generator: Adobe Illustrator 19.0.0, SVG Export Plug-In . SVG Version: 6.00 Build 0)  -->
<svg version="1.1" id="Layer_1" xmlns="http://www.w3.org/2000/svg" xmlns:xlink="http://www.w3.org/1999/xlink" x="0px" y="0px"
	 viewBox="0 0 512 512" style="enable-background:new 0 0 512 512;" xml:space="preserve">
<path style="fill:#1A6399;" d="M479.153,8.084L479.153,8.084c12.955,0,23.131,11.127,22.007,24.069l-32.375,373.31
	c-4.83,55.701-51.335,98.452-107.095,98.452H150.309c-55.761,0-102.264-42.75-107.095-98.452L10.84,32.154
	C9.717,19.211,19.892,8.084,32.847,8.084l0,0c5.366,0,9.802,4.19,10.125,9.561l0.146,2.436c0.321,5.37,4.759,9.561,10.125,9.561
	h44.179c5.84,0,10.474-4.934,10.125-10.779l0,0c-0.35-5.845,4.284-10.779,10.125-10.779h1.232c11.459,0,21.015,8.785,22.007,20.231
	l21.643,249.566c4.215,48.603,44.793,85.907,93.449,85.907l0,0c48.656,0,89.235-37.304,93.449-85.907l21.643-249.566
	c0.992-11.446,10.547-20.231,22.006-20.231h1.232c5.84,0,10.474,4.934,10.125,10.779l0,0c-0.35,5.845,4.284,10.779,10.125,10.779
	h44.179c5.366,0,9.802-4.19,10.125-9.561l0.146-2.436C469.35,12.274,473.787,8.084,479.153,8.084z"/>
<path style="fill:#002E35;" d="M430.53,61.979L430.53,61.979c19.181,0,34.245,16.475,32.583,35.635l-26.455,305.049
	c-3.407,39.289-35.636,68.916-74.967,68.916H150.309c-39.33,0-71.559-29.627-74.967-68.916L48.887,97.614
	C47.226,78.453,62.29,61.979,81.47,61.979l0,0c16.965,0,31.113,13.007,32.583,29.953l16.369,188.751
	c2.739,31.589,17.085,60.787,40.393,82.214c23.309,21.427,53.562,33.229,85.184,33.229c34.011,0,66.437-13.65,90.345-38.248
	c20.568-21.162,32.796-49.085,35.348-78.525l16.254-187.422C399.416,74.986,413.565,61.979,430.53,61.979z"/>
<path style="fill:#007DBC;" d="M472.577,361.745l-3.791,43.719c-4.83,55.701-51.335,98.452-107.095,98.452H150.309
	c-55.761,0-102.264-42.75-107.095-98.452l-3.791-43.719c18.235,39.62,58.178,66.718,103.993,66.718h65.853
	c8.357,0,15.488,6.058,16.863,14.323l0,0c1.728,10.395,10.697,18.014,21.208,18.014h17.323c10.509,0,19.48-7.619,21.208-18.014l0,0
	c1.374-8.265,8.506-14.323,16.863-14.323h65.853C414.399,428.463,454.343,401.365,472.577,361.745z"/>
<path d="M501.379,9.802C495.683,3.572,487.582,0,479.153,0c-9.614,0-17.597,7.538-18.172,17.161l-0.146,2.436
	c-0.066,1.101-0.979,1.961-2.076,1.961h-44.178c-0.744,0-1.233-0.357-1.514-0.655c-0.28-0.299-0.606-0.812-0.562-1.554
	c0.3-5.001-1.494-9.961-4.919-13.608C404.159,2.091,399.329,0,394.333,0h-1.232c-15.76,0-28.674,11.872-30.04,27.616
	l-21.643,249.566c-3.883,44.766-40.604,78.524-85.418,78.524s-81.535-33.758-85.417-78.524L148.94,27.616
	C147.575,11.872,134.661,0,118.901,0h-1.232c-4.996,0-9.826,2.091-13.252,5.739c-3.426,3.648-5.219,8.607-4.92,13.608
	c0.044,0.743-0.281,1.256-0.563,1.554c-0.282,0.3-0.773,0.656-1.516,0.656H53.242c-1.098,0-2.01-0.862-2.076-1.96L51.02,17.16
	C50.444,7.538,42.461,0,32.847,0c-8.429,0-16.531,3.572-22.226,9.802c-5.696,6.229-8.543,14.631-7.814,23.052l32.375,373.311
	c2.511,28.96,15.663,55.728,37.032,75.373C93.583,501.181,121.319,512,150.309,512h211.383c28.991,0,56.725-10.819,78.096-30.463
	c21.368-19.645,34.521-46.413,37.031-75.373l32.375-373.311C509.923,24.434,507.075,16.033,501.379,9.802z M361.691,495.832H150.309
	c-51.973,0-94.56-39.15-99.063-91.067l-0.98-11.295c22.967,26.85,56.906,43.078,93.151,43.078h65.853
	c4.433,0,8.181,3.183,8.91,7.568c2.385,14.352,14.649,24.769,29.159,24.769h17.323c14.511,0,26.774-10.417,29.159-24.769
	c0.73-4.385,4.478-7.568,8.911-7.568h65.853c36.243,0,70.184-16.228,93.15-43.078l-0.98,11.295
	C456.252,456.681,413.665,495.832,361.691,495.832z M493.129,31.454l-28.455,328.114c-17.592,36.98-55.152,60.81-96.089,60.81
	h-65.853c-12.348,0-22.785,8.865-24.816,21.078c-1.084,6.525-6.658,11.259-13.254,11.259h-17.323
	c-6.596,0-12.171-4.735-13.255-11.258c-2.03-12.214-12.466-21.079-24.814-21.079h-65.853c-40.938,0-78.498-23.83-96.09-60.812
	L18.871,31.454c-0.344-3.975,0.946-7.785,3.636-10.725c2.689-2.94,6.362-4.559,10.34-4.559c1.098,0,2.01,0.862,2.076,1.96
	l0.146,2.438c0.577,9.621,8.56,17.159,18.173,17.159h44.178c4.997,0,9.827-2.091,13.253-5.739s5.218-8.608,4.918-13.608
	c-0.044-0.743,0.281-1.256,0.563-1.554c0.281-0.299,0.772-0.655,1.513-0.655h1.232c7.332,0,13.34,5.523,13.975,12.847
	l21.643,249.566c2.214,25.529,13.807,49.123,32.643,66.439c18.838,17.314,43.286,26.851,68.841,26.851s50.001-9.537,68.839-26.852
	c18.837-17.315,30.429-40.91,32.643-66.439l21.643-249.565c0.635-7.325,6.643-12.849,13.975-12.849h1.232
	c0.743,0,1.232,0.357,1.513,0.655s0.607,0.812,0.563,1.553c-0.301,5.001,1.493,9.961,4.918,13.608
	c3.426,3.648,8.258,5.741,13.255,5.741h44.178c9.614,0,17.597-7.538,18.172-17.16l0.146-2.436v-0.001
	c0.066-1.101,0.979-1.961,2.076-1.961c3.979,0,7.651,1.62,10.34,4.559C492.182,23.669,493.474,27.479,493.129,31.454z
	 M148.027,317.49c1.796,4.085-0.051,8.858-4.125,10.658c-4.073,1.805-8.833-0.05-10.63-4.136
	c-5.939-13.508-9.6-27.851-10.881-42.629L106.021,92.632c-1.116-12.867-11.67-22.569-24.55-22.569
	c-6.99,0-13.441,2.846-18.165,8.012c-4.723,5.165-6.991,11.856-6.387,18.839L80,363.046c0.386,4.447-2.897,8.368-7.333,8.754
	c-0.238,0.022-0.474,0.03-0.707,0.03c-4.137,0.001-7.658-3.173-8.023-7.385L40.856,98.314C39.868,86.93,43.72,75.57,51.421,67.147
	c7.702-8.423,18.654-13.253,30.05-13.253c21.308,0,38.769,16.052,40.615,37.337l16.369,188.751
	C139.582,292.988,142.803,305.607,148.027,317.49z M166.541,346.883c2.902,3.387,2.517,8.491-0.859,11.4
	c-1.522,1.312-3.391,1.954-5.251,1.954c-2.269,0-4.524-0.955-6.118-2.814l-0.44-0.516c-2.884-3.401-2.475-8.504,0.917-11.396
	c3.392-2.892,8.479-2.481,11.365,0.921L166.541,346.883z M383.055,312.363c-6.409,19.239-17.106,36.929-30.937,51.157
	c-25.503,26.24-59.638,40.691-96.118,40.691c-28.478,0-55.686-8.841-78.681-25.567c-3.604-2.623-4.406-7.677-1.791-11.292
	c2.614-3.615,7.656-4.419,11.26-1.797c20.223,14.711,44.157,22.487,69.213,22.487c32.094,0,62.129-12.716,84.57-35.807
	c12.144-12.495,21.547-28.053,27.191-44.995c1.411-4.235,5.98-6.521,10.201-5.106C382.185,303.548,384.466,308.128,383.055,312.363z
	 M460.58,67.149c7.702,8.422,11.552,19.783,10.564,31.165L447.971,365.53c-0.365,4.209-3.886,7.385-8.023,7.385
	c-0.234,0-0.47-0.01-0.707-0.03c-4.437-0.386-7.72-4.306-7.334-8.754L455.08,96.914c0.606-6.983-1.663-13.673-6.385-18.839
	c-4.724-5.165-11.176-8.011-18.165-8.011c-12.88,0-23.435,9.702-24.55,22.569l-16.254,187.422c-0.386,4.448-4.305,7.754-8.73,7.353
	c-4.437-0.386-7.72-4.306-7.334-8.754l16.254-187.422c1.845-21.285,19.306-37.337,40.614-37.337
	C441.925,53.895,452.879,58.725,460.58,67.149z"/>
<g>
</g>
<g>
</g>
<g>
</g>
<g>
</g>
<g>
</g>
<g>
</g>
<g>
</g>
<g>
</g>
<g>
</g>
<g>
</g>
<g>
</g>
<g>
</g>
<g>
</g>
<g>
</g>
<g>
</g>
</svg>
