<?xml version="1.0" encoding="iso-8859-1"?>
<!-- Generator: Adobe Illustrator 19.0.0, SVG Export Plug-In . SVG Version: 6.00 Build 0)  -->
<svg version="1.1" id="Layer_1" xmlns="http://www.w3.org/2000/svg" xmlns:xlink="http://www.w3.org/1999/xlink" x="0px" y="0px"
	 viewBox="0 0 511.999 511.999" style="enable-background:new 0 0 511.999 511.999;" xml:space="preserve">
<path style="fill:#BC0000;" d="M288.336,402.551v79.807c0,11.906-9.651,21.558-21.558,21.558h-21.558
	c-11.906,0-21.558-9.651-21.558-21.558v-72.084v-7.723v-5.389c0-21.846-9.69-42.34-26.587-56.229
	c-3.699-3.042-4.003-8.682-0.44-12.104c2.977-2.859,7.723-2.854,10.904-0.224c20.223,16.72,31.935,41.212,32.274,67.388h0.016v6.559
	H288.336z"/>
<path style="fill:#FF0000;" d="M314.893,340.932c-16.896,13.889-26.587,34.384-26.587,56.229v5.389h0.03v79.807
	c0,11.906-9.651,21.558-21.558,21.558l0,0c-11.906,0-21.558-9.651-21.558-21.558v-79.807h26.917v-6.559h0.016
	c0.34-26.176,12.051-50.668,32.274-67.388c3.181-2.63,7.927-2.634,10.904,0.224C318.897,332.249,318.593,337.89,314.893,340.932z"/>
<path style="fill:#720000;" d="M288.336,471.579h-64.674v-32.337h64.674V471.579z"/>
<path style="fill:#AEE5DF;" d="M255.999,353.01L255.999,353.01c-83.343,0-150.905-67.562-150.905-150.905v-43.116
	c0-83.343,67.562-150.905,150.905-150.905l0,0c83.343,0,150.905,67.562,150.905,150.905v43.116
	C406.905,285.448,339.342,353.01,255.999,353.01z"/>
<path style="fill:#91CEC5;" d="M331.452,332.817c-22.197,12.841-47.965,20.193-75.453,20.193l0,0
	c-83.343,0-150.905-67.562-150.905-150.905v-43.116c0-83.343,67.562-150.905,150.905-150.905l0,0
	c27.487,0,53.256,7.352,75.453,20.193V332.817z"/>
<path style="fill:#79B7AC;" d="M255.999,353.01L255.999,353.01c-83.343,0-150.905-67.562-150.905-150.905v-43.116
	c0-83.343,67.562-150.905,150.905-150.905l0,0V353.01z"/>
<path style="fill:#6BAA9E;" d="M180.547,28.277c22.197-12.841,47.965-20.193,75.453-20.193l0,0V353.01l0,0
	c-27.487,0-53.256-7.352-75.453-20.193V28.277z"/>
<path style="fill:#91CEC5;" d="M115.014,105.095h281.97c6.403,16.739,9.92,34.904,9.92,53.895v43.116
	c0,18.99-3.517,37.156-9.921,53.895H115.015c-6.403-16.739-9.921-34.904-9.921-53.895v-43.116
	C105.094,139.999,108.611,121.833,115.014,105.095z"/>
<path style="fill:#5A968A;" d="M331.452,256H180.547V105.095h150.905V256z"/>
<path style="fill:#AEE5DF;" d="M255.999,256h-75.453V105.095h75.453V256z"/>
<path style="fill:#84C1B6;" d="M115.014,105.095h281.97c6.403,16.739,9.92,34.904,9.92,53.895v21.558H105.093v-21.558
	C105.094,139.999,108.611,121.833,115.014,105.095z"/>
<path style="fill:#79B7AC;" d="M331.452,180.547H180.547v-75.453h150.905V180.547z"/>
<path style="fill:#AEE5DF;" d="M331.452,180.547h-75.453v-75.453h75.453V180.547z"/>
<path d="M255.999,0C168.332,0,97.01,71.322,97.01,158.989v43.116c0,63.686,37.645,118.738,91.848,144.095
	c0.045,0.039,0.086,0.083,0.133,0.121c16.897,13.889,26.587,34.384,26.587,56.228l0,0l0,0v79.807
	c0,16.345,13.297,29.642,29.642,29.642h21.558c16.345,0,29.642-13.297,29.642-29.642v-79.807l0,0l0,0
	c0-21.846,9.69-42.34,26.587-56.229c0.047-0.039,0.087-0.082,0.133-0.121c54.203-25.356,91.848-80.408,91.848-144.094v-43.116
	C414.989,71.322,343.667,0,255.999,0z M264.084,16.402c21.339,1.196,41.441,7.099,59.284,16.685v63.923h-2.695
	c-4.465,0-8.084,3.62-8.084,8.084s3.62,8.084,8.084,8.084h2.695v35.032c0,4.465,3.62,8.084,8.084,8.084s8.084-3.62,8.084-8.084
	v-35.032h51.749c4.885,14.386,7.536,29.794,7.536,45.811v13.474H264.084V16.402z M384.658,97.011h-45.122V43.22
	C358.685,57.077,374.28,75.554,384.658,97.011z M172.463,43.22v53.79h-45.122C137.719,75.554,153.314,57.077,172.463,43.22z
	 M113.178,202.105v-13.474h35.032c4.465,0,8.084-3.62,8.084-8.084c0-4.465-3.62-8.084-8.084-8.084h-35.032v-13.474
	c0-16.016,2.651-31.425,7.536-45.811h51.749v134.737h-51.749C115.829,233.53,113.178,218.122,113.178,202.105z M127.341,264.084
	h45.122v53.79C153.314,304.018,137.719,285.541,127.341,264.084z M280.252,482.358c0,7.43-6.044,13.474-13.474,13.474h-21.558
	c-7.43,0-13.474-6.044-13.474-13.474v-2.695h24.253c4.465,0,8.084-3.62,8.084-8.084s-3.62-8.084-8.084-8.084h-24.253v-16.168h24.253
	c4.465,0,8.084-3.62,8.084-8.084c0-4.465-3.62-8.084-8.084-8.084h-24.253v-20.523h48.505V482.358z M280.623,394.466h-49.246
	c-1.217-13.463-5.456-26.319-12.311-37.712c11.857,2.832,24.221,4.341,36.933,4.341c12.712,0,25.076-1.509,36.933-4.341
	C286.078,368.146,281.839,381.003,280.623,394.466z M339.536,317.874v-104.99c0-4.465-3.62-8.084-8.084-8.084
	s-8.084,3.62-8.084,8.084v115.123c-17.844,9.586-37.945,15.488-59.284,16.685v-56.356c0-4.465-3.62-8.084-8.084-8.084
	s-8.084,3.62-8.084,8.084v56.356c-21.339-1.196-41.441-7.099-59.284-16.685v-63.923h110.484c4.465,0,8.084-3.62,8.084-8.084
	c0-4.465-3.62-8.084-8.084-8.084H188.631V113.179h35.032c4.465,0,8.084-3.62,8.084-8.084s-3.62-8.084-8.084-8.084h-35.032V33.087
	c17.843-9.586,37.945-15.488,59.284-16.685v156.061h-35.032c-4.465,0-8.084,3.62-8.084,8.084c0,4.465,3.62,8.084,8.084,8.084h35.032
	v35.032c0,4.465,3.62,8.084,8.084,8.084s8.084-3.62,8.084-8.084v-35.032H398.82v13.474c0,16.016-2.651,31.425-7.536,45.811h-27.496
	c-4.465,0-8.084,3.62-8.084,8.084c0,4.465,3.62,8.084,8.084,8.084h20.869C374.28,285.541,358.685,304.018,339.536,317.874z
	 M296.421,105.095c0,4.465-3.62,8.084-8.084,8.084h-1.078c-4.465,0-8.084-3.62-8.084-8.084s3.62-8.084,8.084-8.084h1.078
	C292.801,97.011,296.421,100.63,296.421,105.095z"/>
<g>
</g>
<g>
</g>
<g>
</g>
<g>
</g>
<g>
</g>
<g>
</g>
<g>
</g>
<g>
</g>
<g>
</g>
<g>
</g>
<g>
</g>
<g>
</g>
<g>
</g>
<g>
</g>
<g>
</g>
</svg>
