<?xml version="1.0" encoding="iso-8859-1"?>
<!-- Generator: Adobe Illustrator 19.0.0, SVG Export Plug-In . SVG Version: 6.00 Build 0)  -->
<svg version="1.1" id="Layer_1" xmlns="http://www.w3.org/2000/svg" xmlns:xlink="http://www.w3.org/1999/xlink" x="0px" y="0px"
	 viewBox="0 0 512 512" style="enable-background:new 0 0 512 512;" xml:space="preserve">
<path style="fill:#BCBCBC;" d="M199.411,40.421v172.463c0,4.465-3.62,8.084-8.084,8.084c-4.465,0-8.084-3.62-8.084-8.084V40.421
	c0-4.465,3.62-8.084,8.084-8.084C195.791,32.337,199.411,35.956,199.411,40.421z M320.674,32.337c-4.465,0-8.084,3.62-8.084,8.084
	v172.463c0,4.465,3.62,8.084,8.084,8.084s8.084-3.62,8.084-8.084V40.421C328.758,35.956,325.138,32.337,320.674,32.337z
	 M123.959,32.337c-22.672,0-41.966,16.21-45.874,38.543L8.206,470.185c-0.77,4.398,2.172,8.588,6.57,9.357
	c0.472,0.083,0.941,0.123,1.403,0.123c3.853,0,7.267-2.766,7.954-6.692L94.011,73.668c2.552-14.581,15.148-25.162,29.948-25.162
	c4.465,0,8.084-3.62,8.084-8.084S128.424,32.337,123.959,32.337z M503.794,470.185L433.915,70.88
	c-3.908-22.333-23.201-38.543-45.874-38.543c-4.465,0-8.084,3.62-8.084,8.084s3.62,8.084,8.084,8.084
	c14.802,0,27.397,10.582,29.948,25.162l69.879,399.305c0.687,3.927,4.1,6.692,7.954,6.692c0.462,0,0.931-0.04,1.403-0.123
	C501.622,478.773,504.563,474.583,503.794,470.185z"/>
<path style="fill:#6C6A6A;" d="M78.147,503.916c-8.929,0-16.168-7.239-16.168-16.168l0,0c0-8.929,7.239-16.168,16.168-16.168H153.6
	c8.929,0,16.168,7.239,16.168,16.168l0,0c0,8.929-7.239,16.168-16.168,16.168H78.147z M433.853,503.916
	c8.929,0,16.168-7.239,16.168-16.168l0,0c0-8.929-7.239-16.168-16.168-16.168H358.4c-8.929,0-16.168,7.239-16.168,16.168l0,0
	c0,8.929,7.239,16.168,16.168,16.168H433.853z"/>
<path style="fill:#FF0000;" d="M191.326,274.863c-16.345,0-29.642-13.297-29.642-29.642s13.297-29.642,29.642-29.642
	s29.642,13.297,29.642,29.642S207.672,274.863,191.326,274.863z M191.326,227.436c-9.807,0-17.785,7.979-17.785,17.785
	c0,9.807,7.979,17.785,17.785,17.785c9.807,0,17.785-7.979,17.785-17.785C209.112,235.414,201.133,227.436,191.326,227.436z
	 M320.674,274.863c-16.345,0-29.642-13.297-29.642-29.642s13.297-29.642,29.642-29.642c16.345,0,29.642,13.297,29.642,29.642
	S337.019,274.863,320.674,274.863z M320.674,227.436c-9.807,0-17.785,7.979-17.785,17.785c0,9.807,7.979,17.785,17.785,17.785
	s17.785-7.979,17.785-17.785C338.459,235.414,330.48,227.436,320.674,227.436z"/>
<path d="M471.579,495.832h-14.864c0.898-2.531,1.391-5.25,1.391-8.084c0-13.372-10.879-24.253-24.253-24.253h-29.642V8.084
	c0-4.466-3.62-8.084-8.084-8.084c-4.465,0-8.084,3.618-8.084,8.084v24.253H123.958V8.084c0-4.466-3.62-8.084-8.084-8.084
	s-8.084,3.618-8.084,8.084v455.411H78.147c-13.373,0-24.253,10.88-24.253,24.253c0,2.834,0.494,5.553,1.39,8.084H40.421
	c-4.465,0-8.084,3.618-8.084,8.084S35.956,512,40.421,512h431.158c4.465,0,8.084-3.618,8.084-8.084S476.044,495.832,471.579,495.832
	z M441.937,487.747c0,4.458-3.626,8.084-8.084,8.084H358.4c-4.458,0-8.084-3.626-8.084-8.084s3.626-8.084,8.084-8.084h75.453
	C438.311,479.663,441.937,483.289,441.937,487.747z M123.958,48.505h264.084v414.989H358.4c-13.373,0-24.253,10.88-24.253,24.253
	c0,2.834,0.494,5.553,1.391,8.084H176.462c0.898-2.531,1.39-5.25,1.39-8.084c0-13.372-10.879-24.253-24.253-24.253h-29.642V48.505z
	 M70.063,487.747c0-4.458,3.626-8.084,8.084-8.084H153.6c4.458,0,8.084,3.626,8.084,8.084s-3.626,8.084-8.084,8.084H78.147
	C73.689,495.832,70.063,492.206,70.063,487.747z M17.246,503.916c0,4.466-3.62,8.084-8.084,8.084H8.084
	C3.62,512,0,508.382,0,503.916s3.62-8.084,8.084-8.084h1.078C13.627,495.832,17.246,499.45,17.246,503.916z M512,503.916
	c0,4.466-3.62,8.084-8.084,8.084h-1.078c-4.465,0-8.084-3.618-8.084-8.084s3.62-8.084,8.084-8.084h1.078
	C508.38,495.832,512,499.45,512,503.916z M191.326,285.642c22.289,0,40.421-18.132,40.421-40.421S213.615,204.8,191.326,204.8
	s-40.421,18.132-40.421,40.421S169.038,285.642,191.326,285.642z M191.326,220.968c13.373,0,24.253,10.88,24.253,24.253
	c0,13.372-10.879,24.253-24.253,24.253c-13.373,0-24.253-10.88-24.253-24.253C167.074,231.849,177.953,220.968,191.326,220.968z
	 M320.674,285.642c22.289,0,40.421-18.132,40.421-40.421S342.962,204.8,320.674,204.8c-22.289,0-40.421,18.132-40.421,40.421
	S298.385,285.642,320.674,285.642z M320.674,220.968c13.373,0,24.253,10.88,24.253,24.253c0,13.372-10.879,24.253-24.253,24.253
	c-13.373,0-24.253-10.88-24.253-24.253C296.421,231.849,307.3,220.968,320.674,220.968z"/>
<g>
</g>
<g>
</g>
<g>
</g>
<g>
</g>
<g>
</g>
<g>
</g>
<g>
</g>
<g>
</g>
<g>
</g>
<g>
</g>
<g>
</g>
<g>
</g>
<g>
</g>
<g>
</g>
<g>
</g>
</svg>
