<?xml version="1.0" encoding="iso-8859-1"?>
<!-- Generator: Adobe Illustrator 19.0.0, SVG Export Plug-In . SVG Version: 6.00 Build 0)  -->
<svg version="1.1" id="Layer_1" xmlns="http://www.w3.org/2000/svg" xmlns:xlink="http://www.w3.org/1999/xlink" x="0px" y="0px"
	 viewBox="0 0 512 512" style="enable-background:new 0 0 512 512;" xml:space="preserve">
<path style="fill:#F9A100;" d="M455.41,503.915H56.589l8.648-77.833c1.213-10.918,10.442-19.177,21.426-19.177h7.652L197.799,24.019
	c2.541-9.404,11.071-15.935,20.811-15.935h74.78c9.74,0,18.27,6.531,20.811,15.933l103.483,382.887h7.652
	c10.985,0,20.213,8.26,21.426,19.177L455.41,503.915z"/>
<path style="fill:#F96800;" d="M288.337,406.905v97.009H56.589l8.648-77.833c1.213-10.918,10.442-19.177,21.426-19.177h7.652
	L197.799,24.019c2.541-9.404,11.071-15.935,20.811-15.935l0,0c9.067,0,16.738,6.703,17.952,15.689L288.337,406.905z"/>
<path style="fill:#FFFFFF;" d="M365.873,368.366c-0.697,0.186-1.399,0.275-2.089,0.275c-3.573,0-6.841-2.386-7.806-6.003
	l-0.455-1.705c-1.15-4.314,1.414-8.744,5.727-9.895c4.315-1.153,8.744,1.413,9.895,5.727l0.455,1.705
	C372.751,362.786,370.187,367.215,365.873,368.366z M362.968,326.102l-68.75-257.811c-1.15-4.315-5.581-6.88-9.894-5.728
	c-4.314,1.15-6.878,5.58-5.728,9.894l68.75,257.811c0.965,3.616,4.233,6.003,7.806,6.003c0.69,0,1.391-0.089,2.089-0.275
	C361.554,334.846,364.119,330.416,362.968,326.102z"/>
<path style="fill:#F93100;" d="M446.763,426.082l8.648,77.833H56.589l8.648-77.833c1.213-10.918,10.442-19.177,21.426-19.177
	h338.672C436.321,406.904,445.549,415.164,446.763,426.082z"/>
<path style="fill:#D31900;" d="M288.337,503.915H56.589l8.648-77.833c1.213-10.918,10.442-19.177,21.426-19.177h201.673V503.915z"/>
<path d="M17.246,503.915c0,4.466-3.62,8.084-8.084,8.084H8.084C3.62,511.999,0,508.38,0,503.915s3.62-8.084,8.084-8.084h1.078
	C13.627,495.83,17.246,499.449,17.246,503.915z M503.916,495.83h-1.078c-4.466,0-8.084,3.618-8.084,8.084s3.618,8.084,8.084,8.084
	h1.078c4.466,0,8.084-3.618,8.084-8.084S508.382,495.83,503.916,495.83z M479.663,503.915c0,4.466-3.618,8.084-8.084,8.084H455.42
	c-0.006,0-0.013,0.001-0.018,0.001c-0.008,0-0.015-0.001-0.023-0.001H56.622c-0.008,0-0.015,0.001-0.023,0.001
	c-0.006,0-0.013-0.001-0.018-0.001h-16.16c-4.465,0-8.084-3.618-8.084-8.084s3.62-8.084,8.084-8.084h8.933l7.849-70.642
	c1.671-15.032,14.336-26.369,29.461-26.369h1.463L189.995,21.908C193.481,9.009,205.247,0,218.61,0h74.779
	c13.363,0,25.129,9.009,28.616,21.908L423.873,398.82h1.463c15.125,0,27.79,11.336,29.46,26.369l7.849,70.642h8.932
	C476.045,495.83,479.663,499.449,479.663,503.915z M65.621,495.83h380.757l-7.651-68.857c-0.759-6.833-6.516-11.985-13.391-11.985
	h-7.626c-0.011,0-0.022,0.002-0.032,0.002c-0.009,0-0.017-0.002-0.026-0.002h-43.622c-4.466,0-8.084-3.618-8.084-8.084
	c0-4.466,3.618-8.084,8.084-8.084h33.096L306.397,26.127c-1.585-5.864-6.934-9.959-13.007-9.959h-74.779
	c-6.074,0-11.422,4.095-13.007,9.959L104.876,398.82h161.903c4.466,0,8.084,3.618,8.084,8.084c0,4.466-3.618,8.084-8.084,8.084
	H86.664c-6.875,0-12.632,5.152-13.392,11.985L65.621,495.83z M300.194,398.82h-1.078c-4.466,0-8.084,3.618-8.084,8.084
	c0,4.466,3.618,8.084,8.084,8.084h1.078c4.466,0,8.084-3.618,8.084-8.084C308.278,402.44,304.659,398.82,300.194,398.82z
	 M332.531,398.82h-1.078c-4.466,0-8.084,3.618-8.084,8.084c0,4.466,3.618,8.084,8.084,8.084h1.078c4.466,0,8.084-3.618,8.084-8.084
	C340.615,402.44,336.996,398.82,332.531,398.82z"/>
<g>
</g>
<g>
</g>
<g>
</g>
<g>
</g>
<g>
</g>
<g>
</g>
<g>
</g>
<g>
</g>
<g>
</g>
<g>
</g>
<g>
</g>
<g>
</g>
<g>
</g>
<g>
</g>
<g>
</g>
</svg>
