<?xml version="1.0" encoding="iso-8859-1"?>
<!-- Generator: Adobe Illustrator 19.0.0, SVG Export Plug-In . SVG Version: 6.00 Build 0)  -->
<svg version="1.1" id="Layer_1" xmlns="http://www.w3.org/2000/svg" xmlns:xlink="http://www.w3.org/1999/xlink" x="0px" y="0px"
	 viewBox="0 0 512 512" style="enable-background:new 0 0 512 512;" xml:space="preserve">
<path style="fill:#007DBC;" d="M482.358,281.869v146.594H360.197l21.436-150.049c1.719-12.037,12.028-20.977,24.187-20.977h52.107
	C471.419,257.437,482.358,268.376,482.358,281.869z"/>
<g>
	<path style="fill:#266DAD;" d="M378.469,300.553h39.934c13.493,0,24.433,10.939,24.433,24.433v103.478h-82.639L378.469,300.553z"/>
	<path style="fill:#266DAD;" d="M280.253,367.832v36.379c0,13.394-10.859,24.253-24.253,24.253h-78.147H32.337
		c-13.394,0-24.253-10.859-24.253-24.253V234.442c0-13.394,10.859-24.253,24.253-24.253h80.023c10.198,0,19.307,6.38,22.792,15.965
		l36.894,101.46c3.485,9.585,12.594,15.965,22.792,15.965h61.161C269.394,343.579,280.253,354.438,280.253,367.832z"/>
</g>
<path style="fill:#007DBC;" d="M280.253,367.832v6.737h-37.726H97.011c-13.394,0-24.253-10.859-24.253-24.253V210.189h39.602
	c10.198,0,19.307,6.38,22.792,15.965l36.894,101.46c3.485,9.585,12.594,15.965,22.792,15.965h61.161
	C269.394,343.579,280.253,354.438,280.253,367.832z"/>
<path style="fill:#F93100;" d="M343.57,72.758H39.082c-17.12,0-30.998-13.878-30.998-30.998v-2.677
	c0-17.12,13.878-30.998,30.998-30.998H343.57c17.12,0,30.998,13.878,30.998,30.998v2.677
	C374.568,58.88,360.691,72.758,343.57,72.758z"/>
<path style="fill:#D31900;" d="M374.568,40.421v1.339c0,17.12-13.878,30.998-30.998,30.998H39.082
	c-17.12,0-30.998-13.878-30.998-30.998v-1.339H374.568z"/>
<path style="fill:#004859;" d="M428.463,503.916c-41.671,0-75.453-33.781-75.453-75.453s33.781-75.453,75.453-75.453
	s75.453,33.781,75.453,75.453S470.135,503.916,428.463,503.916z M158.989,428.463c0-41.671-33.781-75.453-75.453-75.453
	S8.084,386.792,8.084,428.463s33.781,75.453,75.453,75.453S158.989,470.135,158.989,428.463z"/>
<path style="fill:#F9A100;" d="M428.463,460.8c-17.86,0-32.337-14.477-32.337-32.337c0-17.86,14.477-32.337,32.337-32.337
	c17.86,0,32.337,14.477,32.337,32.337C460.8,446.323,446.323,460.8,428.463,460.8z M115.874,428.463
	c0-17.86-14.477-32.337-32.337-32.337S51.2,410.604,51.2,428.463c0,17.86,14.477,32.337,32.337,32.337
	S115.874,446.323,115.874,428.463z"/>
<path style="fill:#F9B300;" d="M460.8,428.463c0,2.847-0.371,5.606-1.062,8.236c-3.87,1.637-8.125,2.543-12.592,2.543
	c-17.86,0-32.337-14.477-32.337-32.337c0-2.847,0.371-5.606,1.062-8.236c3.87-1.637,8.125-2.543,12.592-2.543
	C446.323,396.126,460.8,410.604,460.8,428.463z M83.537,396.126c-4.467,0-8.721,0.905-12.592,2.543
	c-0.691,2.63-1.062,5.389-1.062,8.236c0,17.86,14.477,32.337,32.337,32.337c4.467,0,8.721-0.905,12.592-2.543
	c0.691-2.63,1.062-5.389,1.062-8.236C115.874,410.604,101.396,396.126,83.537,396.126z"/>
<path d="M83.537,388.042c-22.289,0-40.421,18.132-40.421,40.421s18.132,40.421,40.421,40.421s40.421-18.132,40.421-40.421
	S105.826,388.042,83.537,388.042z M83.537,452.716c-13.372,0-24.253-10.88-24.253-24.253s10.88-24.253,24.253-24.253
	s24.253,10.88,24.253,24.253S96.909,452.716,83.537,452.716z M490.442,372.52v-90.651c0-17.93-14.587-32.517-32.517-32.517h-13.214
	L345.558,80.791c20.63-1.038,37.095-18.149,37.095-39.032v-2.677C382.653,17.533,365.12,0,343.57,0H39.082
	C17.533,0,0,17.533,0,39.082v2.677c0,19.249,13.992,35.282,32.337,38.487v121.858c0,0.342,0.028,0.676,0.069,1.007
	c-13.966,3.574-24.322,16.264-24.322,31.33v157.373c0,0.252,0.015,0.501,0.038,0.747C2.92,403.445,0,415.619,0,428.463
	c0,27.626,13.49,52.153,34.219,67.368H8.084c-4.466,0-8.084,3.618-8.084,8.084S3.618,512,8.084,512h150.905
	c4.466,0,8.084-3.618,8.084-8.084s-3.618-8.084-8.084-8.084h-26.135c18.682-13.714,31.476-34.99,33.82-59.284h97.409
	c0.766,0,1.524-0.037,2.277-0.089c0.373,0.053,0.75,0.089,1.137,0.089h77.826c2.344,24.295,15.138,45.57,33.82,59.284H256
	c-4.466,0-8.084,3.618-8.084,8.084S251.534,512,256,512h172.463C474.525,512,512,474.525,512,428.463
	C512,406.965,503.832,387.34,490.442,372.52z M474.274,281.869v76.789c-13.164-8.669-28.904-13.732-45.811-13.732
	c-19.016,0-36.559,6.399-50.615,17.141l11.787-82.51c1.144-8.002,8.101-14.036,16.185-14.036h52.107
	C466.94,265.521,474.274,272.855,474.274,281.869z M405.819,249.353c-16.077,0-29.916,12.002-32.19,27.919l-1.118,7.826
	l-20.59-10.295l4.063-28.438c0.632-4.42-2.44-8.514-6.86-9.146c-4.405-0.618-8.514,2.441-9.146,6.86l-12.216,85.513
	c-0.632,4.42,2.44,8.514,6.86,9.146c0.387,0.055,0.773,0.082,1.153,0.082c3.958,0,7.417-2.91,7.993-6.942l5.743-40.204l19.288,9.643
	c0.432,0.216,0.875,0.377,1.324,0.51l-11.468,80.274c-0.031,0.22-0.046,0.438-0.06,0.654c-7.233,11.019-11.938,23.832-13.269,37.625
	h-53.253c2.76-4.76,4.35-10.281,4.35-16.168V367.83c0-17.831-14.506-32.337-32.337-32.337h-61.16
	c-6.773,0-12.88-4.277-15.195-10.644l-36.895-101.46c-4.631-12.732-16.843-21.285-30.39-21.285h-71.94V80.842h278.323l99.124,168.51
	H405.819z M16.168,41.76v-2.677c0-12.635,10.279-22.914,22.914-22.914H343.57c12.635,0,22.914,10.279,22.914,22.914v2.677
	c0,12.635-10.279,22.914-22.914,22.914H39.082C26.447,64.674,16.168,54.395,16.168,41.76z M24.253,234.442
	c0-8.915,7.253-16.168,16.168-16.168h80.023c6.773,0,12.88,4.277,15.195,10.643l36.895,101.459
	c4.63,12.733,16.843,21.287,30.39,21.287h61.16c8.915,0,16.168,7.253,16.168,16.168v36.379c0,8.915-7.253,16.168-16.168,16.168
	h-97.408c-4.08-42.283-39.804-75.453-83.139-75.453c-23.157,0-44.139,9.477-59.284,24.75V234.442z M83.537,495.832
	c-37.147,0-67.368-30.221-67.368-67.368s30.221-67.368,67.368-67.368s67.368,30.221,67.368,67.368S120.684,495.832,83.537,495.832z
	 M428.463,495.832c-37.147,0-67.368-30.221-67.368-67.368s30.221-67.368,67.368-67.368s67.368,30.221,67.368,67.368
	S465.611,495.832,428.463,495.832z M428.463,388.042c-22.289,0-40.421,18.132-40.421,40.421s18.132,40.421,40.421,40.421
	s40.421-18.132,40.421-40.421S450.752,388.042,428.463,388.042z M428.463,452.716c-13.372,0-24.253-10.88-24.253-24.253
	s10.88-24.253,24.253-24.253s24.253,10.88,24.253,24.253S441.836,452.716,428.463,452.716z M231.747,503.916
	c0,4.466-3.618,8.084-8.084,8.084h-1.078c-4.466,0-8.084-3.618-8.084-8.084s3.618-8.084,8.084-8.084h1.078
	C228.129,495.832,231.747,499.45,231.747,503.916z M200.488,503.916c0,4.466-3.618,8.084-8.084,8.084h-1.078
	c-4.466,0-8.084-3.618-8.084-8.084s3.618-8.084,8.084-8.084h1.078C196.87,495.832,200.488,499.45,200.488,503.916z"/>
<g>
</g>
<g>
</g>
<g>
</g>
<g>
</g>
<g>
</g>
<g>
</g>
<g>
</g>
<g>
</g>
<g>
</g>
<g>
</g>
<g>
</g>
<g>
</g>
<g>
</g>
<g>
</g>
<g>
</g>
</svg>
