<?xml version="1.0" encoding="iso-8859-1"?>
<!-- Generator: Adobe Illustrator 19.0.0, SVG Export Plug-In . SVG Version: 6.00 Build 0)  -->
<svg version="1.1" id="Layer_1" xmlns="http://www.w3.org/2000/svg" xmlns:xlink="http://www.w3.org/1999/xlink" x="0px" y="0px"
	 viewBox="0 0 512 512" style="enable-background:new 0 0 512 512;" xml:space="preserve">
<path style="fill:#939393;" d="M493.137,277.558H18.863c-5.953,0-10.779-4.826-10.779-10.779v-21.558
	c0-5.953,4.826-10.779,10.779-10.779h474.274c5.953,0,10.779,4.826,10.779,10.779v21.558
	C503.916,272.732,499.09,277.558,493.137,277.558z"/>
<path style="fill:#5B5B5B;" d="M503.916,256v10.779c0,5.953-4.826,10.779-10.779,10.779H18.863c-5.953,0-10.779-4.826-10.779-10.779
	V256H503.916z"/>
<path style="fill:#004859;" d="M169.768,126.653v258.695c0,11.906-9.651,21.558-21.558,21.558h-21.558
	c-11.906,0-21.558-9.651-21.558-21.558v-64.674c0,11.906-9.651,21.558-21.558,21.558H61.979c-11.906,0-21.558-9.651-21.558-21.558
	V191.326c0-11.906,9.651-21.558,21.558-21.558h21.558c11.906,0,21.558,9.651,21.558,21.558v-64.674
	c0-11.906,9.651-21.558,21.558-21.558h21.558C160.117,105.095,169.768,114.746,169.768,126.653z M450.021,169.768h-21.558
	c-11.906,0-21.558,9.651-21.558,21.558v-64.674c0-11.906-9.651-21.558-21.558-21.558h-21.558c-11.906,0-21.558,9.651-21.558,21.558
	v258.695c0,11.906,9.651,21.558,21.558,21.558h21.558c11.906,0,21.558-9.651,21.558-21.558v-64.674
	c0,11.906,9.651,21.558,21.558,21.558h21.558c11.906,0,21.558-9.651,21.558-21.558V191.326
	C471.579,179.42,461.927,169.768,450.021,169.768z"/>
<path style="fill:#007DBC;" d="M61.979,309.895L61.979,309.895c-11.906,0-21.558-9.651-21.558-21.558v-97.011
	c0-11.906,9.651-21.558,21.558-21.558h21.558v118.568C83.537,300.243,73.885,309.895,61.979,309.895z M148.211,288.337V105.095
	h-21.558c-11.906,0-21.558,9.651-21.558,21.558v161.684c0,11.906,9.651,21.558,21.558,21.558l0,0
	C138.559,309.895,148.211,300.243,148.211,288.337z M385.347,288.337V105.095h-21.558c-11.906,0-21.558,9.651-21.558,21.558v161.684
	c0,11.906,9.651,21.558,21.558,21.558l0,0C375.696,309.895,385.347,300.243,385.347,288.337z M450.021,288.337V169.768h-21.558
	c-11.906,0-21.558,9.651-21.558,21.558v97.011c0,11.906,9.651,21.558,21.558,21.558l0,0
	C440.37,309.895,450.021,300.243,450.021,288.337z"/>
<path style="fill:#FFFFFF;" d="M148.211,142.282v1.078c0,4.465-3.62,8.084-8.084,8.084c-4.465,0-8.084-3.62-8.084-8.084v-1.078
	c0-4.465,3.62-8.084,8.084-8.084C144.591,134.198,148.211,137.817,148.211,142.282z M140.126,161.684
	c-4.465,0-8.084,3.62-8.084,8.084v43.116c0,4.465,3.62,8.084,8.084,8.084c4.465,0,8.084-3.62,8.084-8.084v-43.116
	C148.211,165.304,144.591,161.684,140.126,161.684z M75.453,194.021c-4.465,0-8.084,3.62-8.084,8.084v1.078
	c0,4.465,3.62,8.084,8.084,8.084s8.084-3.62,8.084-8.084v-1.078C83.537,197.641,79.917,194.021,75.453,194.021z M75.453,221.507
	c-4.465,0-8.084,3.62-8.084,8.084V256c0,4.465,3.62,8.084,8.084,8.084s8.084-3.62,8.084-8.084v-26.408
	C83.537,225.127,79.917,221.507,75.453,221.507z M441.937,194.021c-4.465,0-8.084,3.62-8.084,8.084v1.078
	c0,4.465,3.62,8.084,8.084,8.084s8.084-3.62,8.084-8.084v-1.078C450.021,197.641,446.401,194.021,441.937,194.021z M377.263,161.684
	c-4.465,0-8.084,3.62-8.084,8.084v43.116c0,4.465,3.62,8.084,8.084,8.084c4.465,0,8.084-3.62,8.084-8.084v-43.116
	C385.347,165.304,381.728,161.684,377.263,161.684z M377.263,134.198c-4.465,0-8.084,3.62-8.084,8.084v1.078
	c0,4.465,3.62,8.084,8.084,8.084c4.465,0,8.084-3.62,8.084-8.084v-1.078C385.347,137.817,381.728,134.198,377.263,134.198z
	 M441.937,221.507c-4.465,0-8.084,3.62-8.084,8.084V256c0,4.465,3.62,8.084,8.084,8.084s8.084-3.62,8.084-8.084v-26.408
	C450.021,225.127,446.401,221.507,441.937,221.507z"/>
<path d="M493.137,226.358h-13.474v-35.032c0-16.344-13.297-29.642-29.642-29.642h-21.558c-4.848,0-9.429,1.171-13.474,3.243v-38.275
	c0-16.344-13.297-29.642-29.642-29.642h-21.558c-16.345,0-29.642,13.298-29.642,29.642v99.705H177.853v-99.705
	c0-16.344-13.297-29.642-29.642-29.642h-21.558c-16.345,0-29.642,13.298-29.642,29.642v38.275
	c-4.044-2.073-8.625-3.243-13.474-3.243H61.979c-16.345,0-29.642,13.298-29.642,29.642v35.032H18.863
	C8.463,226.358,0,234.82,0,245.221v21.558c0,10.401,8.463,18.863,18.863,18.863h13.474v35.032c0,16.344,13.297,29.642,29.642,29.642
	h21.558c4.848,0,9.429-1.171,13.474-3.243v38.275c0,4.851,1.178,9.428,3.253,13.474H78.147c-4.465,0-8.084,3.618-8.084,8.084
	s3.62,8.084,8.084,8.084h355.705c4.465,0,8.084-3.618,8.084-8.084s-3.62-8.084-8.084-8.084h-22.116
	c2.074-4.045,3.253-8.623,3.253-13.474v-38.275c4.044,2.073,8.625,3.243,13.474,3.243h21.558c16.345,0,29.642-13.298,29.642-29.642
	v-35.032h13.474c10.401,0,18.863-8.463,18.863-18.863v-21.558C512,234.82,503.537,226.358,493.137,226.358z M177.853,385.347
	v-99.705h156.295v99.705c0,4.851,1.178,9.428,3.253,13.474H174.6C176.674,394.776,177.853,390.198,177.853,385.347z
	 M334.147,242.526v26.947H177.853v-26.947H334.147z M18.863,269.474c-1.485,0-2.695-1.208-2.695-2.695v-21.558
	c0-1.486,1.209-2.695,2.695-2.695h13.474v26.947H18.863z M83.537,334.147H61.979c-7.43,0-13.474-6.044-13.474-13.474V191.326
	c0-7.43,6.044-13.474,13.474-13.474h21.558c7.43,0,13.474,6.044,13.474,13.474v129.347
	C97.011,328.104,90.967,334.147,83.537,334.147z M113.179,385.347v-64.674V191.326v-64.674c0-7.43,6.044-13.474,13.474-13.474
	h21.558c7.43,0,13.474,6.044,13.474,13.474v258.695c0,7.43-6.044,13.474-13.474,13.474h-21.558
	C119.223,398.821,113.179,392.777,113.179,385.347z M363.789,398.821c-7.43,0-13.474-6.044-13.474-13.474V126.653
	c0-7.43,6.044-13.474,13.474-13.474h21.558c7.43,0,13.474,6.044,13.474,13.474v64.674v129.347v64.674
	c0,7.43-6.044,13.474-13.474,13.474H363.789z M463.495,320.674c0,7.43-6.044,13.474-13.474,13.474h-21.558
	c-7.43,0-13.474-6.044-13.474-13.474V191.326c0-7.43,6.044-13.474,13.474-13.474h21.558c7.43,0,13.474,6.044,13.474,13.474V320.674z
	 M495.832,266.779c0,1.486-1.209,2.695-2.695,2.695h-13.474v-26.947h13.474c1.485,0,2.695,1.208,2.695,2.695V266.779z
	 M17.246,406.905c0,4.466-3.62,8.084-8.084,8.084H8.084c-4.465,0-8.084-3.618-8.084-8.084s3.62-8.084,8.084-8.084h1.078
	C13.627,398.821,17.246,402.44,17.246,406.905z M59.284,406.905c0,4.466-3.62,8.084-8.084,8.084h-1.078
	c-4.465,0-8.084-3.618-8.084-8.084s3.62-8.084,8.084-8.084H51.2C55.665,398.821,59.284,402.44,59.284,406.905z M469.962,406.905
	c0,4.466-3.62,8.084-8.084,8.084H460.8c-4.465,0-8.084-3.618-8.084-8.084s3.62-8.084,8.084-8.084h1.078
	C466.342,398.821,469.962,402.44,469.962,406.905z M512,406.905c0,4.466-3.62,8.084-8.084,8.084h-1.078
	c-4.465,0-8.084-3.618-8.084-8.084s3.62-8.084,8.084-8.084h1.078C508.38,398.821,512,402.44,512,406.905z"/>
<g>
</g>
<g>
</g>
<g>
</g>
<g>
</g>
<g>
</g>
<g>
</g>
<g>
</g>
<g>
</g>
<g>
</g>
<g>
</g>
<g>
</g>
<g>
</g>
<g>
</g>
<g>
</g>
<g>
</g>
</svg>
