<?xml version="1.0" encoding="iso-8859-1"?>
<!-- Generator: Adobe Illustrator 19.0.0, SVG Export Plug-In . SVG Version: 6.00 Build 0)  -->
<svg version="1.1" id="Layer_1" xmlns="http://www.w3.org/2000/svg" xmlns:xlink="http://www.w3.org/1999/xlink" x="0px" y="0px"
	 viewBox="0 0 512 512" style="enable-background:new 0 0 512 512;" xml:space="preserve">
<path style="fill:#BCBCBC;" d="M500.757,285.312c3.857,3.857,4.251,9.961,0.952,14.303c-24.743,32.557-57.278,69.676-94.845,107.244
	s-74.685,70.103-107.241,94.847c-4.342,3.301-10.446,2.905-14.303-0.952l-41.598-41.599c-3.857-3.857-4.251-9.961-0.952-14.303
	c24.743-32.557,57.278-69.676,94.845-107.244s74.685-70.103,107.241-94.847c4.342-3.301,10.446-2.905,14.303,0.952L500.757,285.312z
	"/>
<path style="fill:#939393;" d="M477.673,262.229l23.083,23.083c3.857,3.857,4.251,9.961,0.952,14.303
	c-24.743,32.557-57.278,69.676-94.845,107.244s-74.685,70.103-107.241,94.847c-4.342,3.301-10.446,2.905-14.303-0.952
	l-23.083-23.083c3.857,3.857,9.961,4.251,14.303,0.952c32.556-24.744,69.674-57.279,107.241-94.847s70.102-74.687,94.845-107.244
	C481.926,272.19,481.53,266.085,477.673,262.229z"/>
<path style="fill:#BCBCBC;" d="M368.392,337.61l-30.777,30.777L91.401,122.166l30.777-30.777L368.392,337.61z"/>
<path style="fill:#939393;" d="M353.003,352.999l-15.388,15.389L91.401,122.166l15.388-15.389L353.003,352.999z"/>
<path style="fill:#FFB150;" d="M276.062,245.277l-30.777,30.777L91.401,122.166l30.777-30.777L276.062,245.277z"/>
<path style="fill:#D18839;" d="M260.673,260.665l-15.388,15.389L91.401,122.166l15.388-15.389L260.673,260.665z"/>
<path style="fill:#004859;" d="M137.566,106.777l-30.777,30.777c-4.249,4.249-11.139,4.249-15.388,0L14.459,60.611
	c-8.499-8.499-8.499-22.279,0-30.777l15.388-15.389c8.499-8.499,22.278-8.499,30.777,0l76.942,76.944
	C141.815,95.638,141.815,102.528,137.566,106.777z"/>
<path style="fill:#002E35;" d="M122.177,122.166l-15.388,15.389c-4.249,4.249-11.139,4.249-15.388,0L14.459,60.611
	c-8.499-8.499-8.499-22.279,0-30.777l15.388-15.389c1.331-1.331,2.803-2.428,4.351-3.343c-4.923,8.344-3.825,19.258,3.343,26.426
	L122.177,122.166z"/>
<path style="fill:#FFB150;" d="M278.219,401.323c17.78-20.565,37.746-42.062,59.396-63.713
	c21.651-21.652,43.146-41.618,63.711-59.397l64.932,64.933c-17.78,20.565-37.745,42.062-59.395,63.713
	c-21.651,21.652-43.146,41.618-63.711,59.397L278.219,401.323z"/>
<path style="fill:#FFFFFF;" d="M375.488,333.166c3.1,3.207,3.047,8.3-0.095,11.442c-0.033,0.033-0.067,0.066-0.1,0.098
	c-5.145,4.973-10.333,10.075-15.42,15.163c-12.878,12.878-25.461,26.013-37.402,39.039c-0.082,0.089-0.165,0.176-0.25,0.261
	c-3.071,3.072-8.046,3.206-11.28,0.24c-3.323-3.045-3.547-8.208-0.502-11.53c12.1-13.201,24.85-26.509,37.893-39.552
	c5.152-5.152,10.406-10.319,15.617-15.356C367.189,329.839,372.356,329.926,375.488,333.166z M387.876,310.44l-0.327,0.3
	c-3.293,3.036-3.525,8.218-0.47,11.531c3.055,3.315,8.218,3.525,11.531,0.47l0.281-0.259l0.013-0.012
	c0.091-0.083,0.18-0.168,0.266-0.255c3.069-3.069,3.198-8.035,0.239-11.269C396.371,307.621,391.201,307.397,387.876,310.44z"/>
<path style="fill:#D18839;" d="M443.175,320.063l23.083,23.083c-17.78,20.565-37.745,42.062-59.395,63.713
	c-21.651,21.652-43.146,41.618-63.711,59.397l-23.082-23.083c20.565-17.78,42.061-37.746,63.711-59.397
	C405.431,362.125,425.397,340.629,443.175,320.063z"/>
<path d="M506.474,279.595l-41.598-41.599c-6.673-6.674-17.382-7.392-24.911-1.671c-27.474,20.882-57.085,46.412-86.717,74.706
	l-71.464-71.467c-0.002-0.001-0.003-0.003-0.005-0.005s-0.003-0.003-0.005-0.004L147.709,105.488
	c0.728-2.03,1.127-4.184,1.127-6.404c0-5.067-1.974-9.83-5.555-13.411L66.34,8.728c-11.637-11.637-30.572-11.637-42.209,0
	L8.742,24.117C3.104,29.754,0,37.25,0,45.223s3.104,15.469,8.742,21.106l76.942,76.944c3.697,3.697,8.554,5.546,13.41,5.546
	c2.169,0,4.331-0.389,6.396-1.126l205.547,205.549c-28.295,29.632-53.823,59.244-74.703,86.719
	c-5.721,7.528-5.003,18.238,1.671,24.912l41.597,41.598c3.658,3.659,8.528,5.529,13.423,5.529c4.035-0.001,8.087-1.272,11.488-3.857
	c34.081-25.903,71.449-58.95,108.066-95.567c36.62-36.621,69.665-73.991,95.564-108.068
	C513.865,296.982,513.148,286.271,506.474,279.595z M118.222,137.556l19.343-19.344l127.062,127.065l-19.343,19.344L118.222,137.556
	z M20.175,54.894c-2.584-2.584-4.005-6.017-4.005-9.671c0-3.654,1.423-7.089,4.005-9.672l15.389-15.388c2.667-2.667,6.169-4,9.672-4
	c3.502,0,7.005,1.333,9.672,4l76.942,76.944c0.712,0.712,0.819,1.545,0.819,1.977s-0.107,1.264-0.819,1.977l-30.772,30.773
	c-0.002,0.001-0.003,0.003-0.005,0.004l-0.001,0.001c-1.092,1.089-2.864,1.089-3.954-0.001L20.175,54.894z M256.718,276.054
	l19.343-19.344l65.565,65.566c-3.247,3.179-6.491,6.378-9.728,9.615c-3.237,3.238-6.436,6.482-9.615,9.729L256.718,276.054z
	 M294.729,495.27c-1.122,0.85-2.709,0.752-3.694-0.233l-41.598-41.599c-0.984-0.984-1.083-2.572-0.231-3.694
	c8.987-11.826,18.872-24.064,29.467-36.534l52.589,52.591C318.794,476.398,306.554,486.282,294.729,495.27z M401.146,401.142
	c-19.21,19.211-38.611,37.399-57.612,54.063L289.27,400.94c16.664-19.002,34.852-38.403,54.061-57.613
	c19.21-19.21,38.611-37.398,57.612-54.063l54.263,54.264C438.544,362.528,420.357,381.93,401.146,401.142z M495.271,294.723
	c-8.986,11.825-18.871,24.064-29.467,36.534l-52.589-52.59c12.469-10.596,24.709-20.481,36.533-29.469
	c0.511-0.388,1.118-0.579,1.72-0.579c0.721,0,1.438,0.274,1.974,0.811l41.597,41.598
	C496.023,292.014,496.124,293.601,495.271,294.723z"/>
<g>
</g>
<g>
</g>
<g>
</g>
<g>
</g>
<g>
</g>
<g>
</g>
<g>
</g>
<g>
</g>
<g>
</g>
<g>
</g>
<g>
</g>
<g>
</g>
<g>
</g>
<g>
</g>
<g>
</g>
</svg>
