<?xml version="1.0" encoding="iso-8859-1"?>
<!-- Generator: Adobe Illustrator 19.0.0, SVG Export Plug-In . SVG Version: 6.00 Build 0)  -->
<svg version="1.1" id="Layer_1" xmlns="http://www.w3.org/2000/svg" xmlns:xlink="http://www.w3.org/1999/xlink" x="0px" y="0px"
	 viewBox="0 0 512 512" style="enable-background:new 0 0 512 512;" xml:space="preserve">
<path style="fill:#AAAAAA;" d="M441.895,503.916H68.761c-26.58,0-45.937-25.059-39.088-50.602l26.887-100.279l144.991,10.059h-56.96
	c-22.343,0-40.454,18.014-40.454,40.235v10.059c0,22.221,18.112,40.235,40.454,40.235h116.305v-86.412l50.567,3.509v82.903h65.738
	c22.343,0,40.454-18.014,40.454-40.235v-10.059c0-9.869-3.579-18.903-9.507-25.902l55.018,3.817l18.013,72.827
	C487.449,479.427,468.15,503.916,441.895,503.916z"/>
<path style="fill:#D18839;" d="M504.592,300.57L504.592,300.57c0,58.743-50.008,105.207-108.934,101.214L41.686,377.797
	c-8.493-0.59-15.853-6.069-18.814-14.007l0,0C10.223,329.876,6.045,258.816,10.699,222.94L33.719,45.5
	C36.496,24.104,54.813,8.084,76.505,8.084l0,0c14.963,0,27.094,12.065,27.094,26.947l0,0c0,14.882,12.131,26.947,27.094,26.947
	h109.436c6.269,0,11.231,5.274,10.813,11.496l-4.208,62.772c-1.322,19.709,10.993,37.791,29.886,43.882l186.094,60.004
	C487.93,249.687,504.592,273.735,504.592,300.57z"/>
<path style="fill:#B2682F;" d="M249.966,88.055c-2.511-5.997-3.687-12.617-3.23-19.431l0.28-4.177
	c2.59,2.127,4.17,5.413,3.928,9.027L249.966,88.055z M497.268,270.771c-15.959,39.488-56.124,66.474-101.61,63.391L41.686,310.175
	c-8.493-0.59-15.853-6.069-18.814-14.007l0,0c-6.332-16.976-10.541-43.259-12.582-69.776
	c-3.977,36.812,0.326,104.541,12.582,137.399l0,0c2.961,7.939,10.321,13.419,18.814,14.007l353.972,23.987
	c58.926,3.993,108.934-42.471,108.934-101.214l0,0C504.592,289.958,501.978,279.786,497.268,270.771z"/>
<path style="fill:#720000;" d="M233.416,8.084h0.293c5.953,0,10.779,4.826,10.779,10.779v64.674H190.3V51.2
	C190.3,27.388,209.604,8.084,233.416,8.084z"/>
<path style="fill:#BC0000;" d="M21.897,137.432L33.823,45.5C36.599,24.104,54.917,8.084,76.608,8.084l0,0
	c14.963,0,27.094,12.065,27.094,26.947l0,0c0,14.882,12.131,26.947,27.094,26.947h109.436c6.269,0,11.231,5.274,10.813,11.496
	l-4.208,62.772c-0.027,0.396-0.039,0.79-0.054,1.185H21.897z"/>
<path style="fill:#B2682F;" d="M462.843,260.567L462.843,260.567c0,19.064-18.659,32.611-36.915,26.801l-203.888-64.89
	c-17.954-5.714-30.138-22.315-30.138-41.065V61.979h48.433c6.269,0,11.231,5.274,10.813,11.496l-4.208,62.772
	c-1.322,19.709,10.993,37.791,29.886,43.882l166.45,53.669C454.942,237.561,462.843,248.37,462.843,260.567z"/>
<path style="fill:#720000;" d="M40.29,377.797c-8.493-0.59-15.853-6.069-18.814-14.007l0,0
	C8.826,329.876,4.649,258.816,9.304,222.94l0.987-7.611c9.186-1.603,18.636-2.444,28.283-2.444
	c89.782,0,162.565,72.388,162.565,161.684c0,4.747-0.218,9.443-0.621,14.087L40.29,377.797z M165.893,105.095
	c0-4.465-3.629-8.084-8.106-8.084h-21.675c-4.477,0-8.106,3.62-8.106,8.084s3.629,8.084,8.106,8.084h21.675
	C162.264,113.179,165.893,109.559,165.893,105.095z"/>
<path style="fill:#FFB150;" d="M243.806,145.516h-21.615c-4.476,0-8.106-3.62-8.106-8.084c0-4.465,3.629-8.084,8.106-8.084h21.615
	c4.477,0,8.106,3.62,8.106,8.084C251.912,141.896,248.283,145.516,243.806,145.516z M222.192,102.4h21.615
	c4.477,0,8.106-3.62,8.106-8.084s-3.629-8.084-8.106-8.084h-21.615c-4.476,0-8.106,3.62-8.106,8.084S217.716,102.4,222.192,102.4z
	 M250.989,162.538l-21.615,10.779c-4.004,1.996-5.627,6.852-3.625,10.846c1.42,2.833,4.282,4.47,7.256,4.47
	c1.218,0,2.454-0.275,3.618-0.855l21.615-10.779c4.004-1.996,5.627-6.852,3.625-10.846
	C259.862,162.16,254.993,160.541,250.989,162.538z M285.872,177.208c-4.234-1.444-8.843,0.813-10.29,5.038l-7.565,22.097
	c-1.447,4.224,0.815,8.82,5.052,10.263c0.868,0.295,1.75,0.435,2.619,0.435c3.372,0,6.52-2.114,7.67-5.475l7.565-22.097
	C292.369,183.247,290.108,178.651,285.872,177.208z M362.855,200.275c-4.234-1.444-8.843,0.813-10.29,5.038l-7.565,22.097
	c-1.447,4.224,0.815,8.82,5.052,10.263c0.868,0.295,1.75,0.435,2.619,0.435c3.372,0,6.52-2.114,7.67-5.475l7.565-22.097
	C369.353,206.313,367.091,201.718,362.855,200.275z M324.41,188.257c-4.235-1.442-8.843,0.813-10.29,5.038l-7.565,22.097
	c-1.447,4.224,0.815,8.82,5.052,10.263c0.868,0.295,1.75,0.435,2.619,0.435c3.372,0,6.52-2.114,7.67-5.475l7.565-22.097
	C330.907,194.295,328.646,189.7,324.41,188.257z"/>
<path d="M488.35,452.135c3.583,14.488,0.342,29.542-8.89,41.297C470.192,505.233,456.245,512,441.197,512H68.063
	c-15.236,0-29.287-6.903-38.552-18.939c-9.23-11.992-12.28-27.239-8.368-41.836l12.443-46.41c1.157-4.313,5.601-6.871,9.924-5.721
	c4.325,1.152,6.893,5.585,5.737,9.898l-12.443,46.41c-2.601,9.702-0.572,19.839,5.565,27.814
	c6.172,8.016,15.537,12.616,25.694,12.616h373.134c10.033,0,19.328-4.509,25.501-12.369c6.14-7.818,8.294-17.825,5.912-27.457
	l-8.999-36.386c-1.071-4.334,1.583-8.716,5.93-9.784c4.34-1.076,8.737,1.577,9.811,5.912L488.35,452.135z M252.092,428.463v17.075
	h-108.2c-16.591,0-30.419-12.342-32.165-28.711c-0.122-1.132-0.182-2.288-0.182-3.44c0-4.466-3.628-8.084-8.106-8.084
	c-4.476,0-8.106,3.618-8.106,8.084c0,1.722,0.092,3.456,0.274,5.152c2.627,24.608,23.386,43.166,48.285,43.166h116.306
	c4.477,0,8.106-3.618,8.106-8.084v-25.159c0-4.466-3.628-8.084-8.106-8.084C255.721,420.379,252.092,423.998,252.092,428.463z
	 M310.765,420.379c-4.477,0-8.106,3.618-8.106,8.084v25.159c0,4.466,3.628,8.084,8.106,8.084h65.738
	c19.895,0,37.569-11.856,45.03-30.205c1.683-4.138-0.317-8.852-4.466-10.53c-4.147-1.677-8.875,0.316-10.557,4.454
	c-4.968,12.218-16.746,20.112-30.008,20.112h-57.632v-17.075C318.871,423.998,315.242,420.379,310.765,420.379z M14.578,366.607
	C1.462,331.446-2.973,259.948,1.962,221.902l23.021-177.44C28.271,19.114,50.121,0,75.807,0c19.409,0,35.199,15.715,35.199,35.032
	c0,10.401,8.519,18.863,18.989,18.863h51.503V51.2c0-28.231,23.028-51.2,51.334-51.2h0.152c10.429,0,18.913,8.463,18.913,18.863
	v39.693c0.481,0.417,0.942,0.859,1.381,1.326c3.561,3.796,5.403,8.948,5.056,14.13l-4.208,62.772
	c-1.075,16.033,8.915,30.693,24.291,35.65l186.094,60.004c0.129,0.042,0.259,0.087,0.385,0.136
	c28.174,10.675,47.104,38,47.104,67.996c0,30.615-12.369,59.004-34.829,79.935c-20.651,19.245-47.05,29.608-75.026,29.608
	c-2.566,0-5.144-0.087-7.735-0.263l-193.927-13.142c-0.217,0.017-0.434,0.031-0.655,0.031c-0.234,0-0.471-0.01-0.709-0.03
	c-0.351-0.03-0.692-0.089-1.028-0.163L40.436,385.863C28.783,385.054,18.638,377.496,14.578,366.607z M197.709,53.895h37.976V18.863
	c0-1.486-1.212-2.695-2.702-2.695h-0.152c-19.367,0-35.122,15.715-35.122,35.032L197.709,53.895L197.709,53.895z M29.772,360.971
	c1.846,4.955,6.471,8.394,11.779,8.761l150.678,10.211c0.065-1.807,0.106-3.602,0.106-5.374c0-84.696-69.29-153.6-154.459-153.6
	c-4.476,0-8.106-3.618-8.106-8.084c0-4.466,3.628-8.084,8.106-8.084c94.108,0,170.67,76.158,170.67,169.768
	c0,2.133-0.05,4.296-0.135,6.471l187.099,12.679c26.278,1.777,51.363-7.107,70.595-25.028c19.142-17.84,29.685-42.033,29.685-68.121
	c0-23.258-14.645-44.455-36.466-52.809L273.43,187.822c-22.461-7.242-37.05-28.672-35.48-52.114l4.208-62.772
	c0.068-1.007-0.423-1.689-0.721-2.007c-0.303-0.323-0.966-0.866-2.005-0.866H129.995c-19.409,0-35.2-15.715-35.2-35.032
	c0-10.401-8.519-18.863-18.988-18.863c-17.563,0-32.501,13.055-34.748,30.369l-10.743,82.81h149.36c4.477,0,8.106,3.618,8.106,8.084
	c0,4.466-3.628,8.084-8.106,8.084H28.374c-0.052,0-0.102-0.006-0.154-0.008l-10.181,78.47
	C13.438,259.445,17.645,328.463,29.772,360.971z"/>
<g>
</g>
<g>
</g>
<g>
</g>
<g>
</g>
<g>
</g>
<g>
</g>
<g>
</g>
<g>
</g>
<g>
</g>
<g>
</g>
<g>
</g>
<g>
</g>
<g>
</g>
<g>
</g>
<g>
</g>
</svg>
