<?xml version="1.0" encoding="iso-8859-1"?>
<!-- Generator: Adobe Illustrator 19.0.0, SVG Export Plug-In . SVG Version: 6.00 Build 0)  -->
<svg version="1.1" id="Layer_1" xmlns="http://www.w3.org/2000/svg" xmlns:xlink="http://www.w3.org/1999/xlink" x="0px" y="0px"
	 viewBox="0 0 512 512" style="enable-background:new 0 0 512 512;" xml:space="preserve">
<path style="fill:#4B4B4B;" d="M453.358,108.013l49.17,134.786c13.578,37.22-74.782,103.477-197.358,147.988
	S72.22,441.21,58.642,403.989L9.472,269.203L453.358,108.013z"/>
<path style="fill:#3D3D3D;" d="M501.84,242.798c13.578,37.22-74.782,103.477-197.358,147.988S71.531,441.21,57.954,403.989
	L8.783,269.203l52.372-19.017l43.355,94.637c16.495,36.006,126.046,21.217,244.686-33.031
	c60.387-27.612,111.478-60.123,144.928-90.142L501.84,242.798z"/>
<path style="fill:#868686;" d="M453.358,108.013C466.937,145.233,378.576,211.49,256,256.001S23.05,306.423,9.472,269.203
	S84.254,165.727,206.83,121.215S439.78,70.792,453.358,108.013z"/>
<path style="fill:#6D6D6D;" d="M429.397,89.043c-33.292,32.46-96.632,68.863-173.397,96.739
	c-94.192,34.205-181.17,45.611-222.567,32.172c33.292-32.46,96.632-68.863,173.397-96.739C301.022,87.01,388,75.604,429.397,89.043z
	"/>
<path style="fill:#FFFFFF;" d="M294.63,288.858c1.513,4.229-0.664,8.892-4.865,10.415l-0.965,0.35
	c-0.905,0.329-1.831,0.484-2.74,0.484c-3.312,0-6.418-2.063-7.606-5.38c-1.513-4.229,0.664-8.892,4.865-10.415l0.965-0.35
	C288.486,282.437,293.116,284.63,294.63,288.858z M452.755,198.138c-2.934-3.389-8.04-3.744-11.405-0.79
	c-33.461,29.345-77.39,55.41-127.036,75.377c-4.147,1.667-6.164,6.403-4.508,10.576c1.263,3.183,4.3,5.12,7.51,5.12
	c0.998,0,2.014-0.188,2.997-0.582c51.314-20.638,96.841-47.687,131.658-78.221C455.336,206.667,455.688,201.527,452.755,198.138z
	 M348.682,307.732l-0.965,0.351c-4.198,1.526-6.374,6.19-4.857,10.418c1.189,3.315,4.294,5.375,7.603,5.375
	c0.912,0,1.839-0.156,2.745-0.486l0.965-0.351c4.198-1.526,6.374-6.19,4.857-10.418
	C357.515,308.394,352.882,306.206,348.682,307.732z M468.018,239.975c-2.934-3.389-8.04-3.744-11.405-0.79
	c-21.934,19.235-49.529,37.778-79.802,53.624c-3.961,2.074-5.503,6.987-3.443,10.974c1.44,2.789,4.26,4.385,7.179,4.385
	c1.256,0,2.531-0.295,3.722-0.919c31.84-16.666,59.753-35.438,82.964-55.793C470.599,248.505,470.951,243.364,468.018,239.975z"/>
<path d="M510.124,240.028l-49.171-134.786c-8.003-21.939-39.27-32.093-90.416-29.35C323.2,78.427,264.081,91.824,204.07,113.616
	C103.738,150.051,23.552,201.924,4.539,242.699c-4.967,10.651-5.863,20.502-2.662,29.275l49.17,134.786
	c7.151,19.598,32.855,29.788,74.722,29.788c5,0,10.24-0.146,15.696-0.438c47.336-2.535,106.455-15.932,166.465-37.724
	c100.332-36.434,180.517-88.309,199.531-129.083C512.428,258.651,513.324,248.801,510.124,240.028z M19.192,249.532
	c17.048-36.56,95.342-86.201,190.396-120.718C268.144,107.549,325.609,94.49,371.4,92.037c5.067-0.272,9.928-0.405,14.571-0.405
	c33.352,0,55.321,6.897,59.791,19.152c1.676,4.594,0.961,10.281-2.127,16.901c-17.049,36.56-95.342,86.201-190.396,120.718
	c-58.556,21.265-116.021,34.324-161.811,36.777c-41.468,2.219-69.271-4.787-74.363-18.747
	C15.39,261.838,16.105,256.152,19.192,249.532z M492.808,262.47c-17.05,36.56-95.343,86.201-190.396,120.718
	c-58.556,21.265-116.021,34.324-161.811,36.777c-41.467,2.22-69.271-4.787-74.363-18.747L27.359,294.645
	c12.431,4.708,28.927,7.115,49.239,7.115c5.003,0,10.237-0.146,15.696-0.438c47.336-2.535,106.455-15.932,166.465-37.724
	c96.765-35.138,174.782-84.637,197.264-124.692l38.912,106.662C496.611,250.164,495.895,255.849,492.808,262.47z"/>
<g>
</g>
<g>
</g>
<g>
</g>
<g>
</g>
<g>
</g>
<g>
</g>
<g>
</g>
<g>
</g>
<g>
</g>
<g>
</g>
<g>
</g>
<g>
</g>
<g>
</g>
<g>
</g>
<g>
</g>
</svg>
