<?xml version="1.0" encoding="iso-8859-1"?>
<!-- Generator: Adobe Illustrator 19.0.0, SVG Export Plug-In . SVG Version: 6.00 Build 0)  -->
<svg version="1.1" id="Layer_1" xmlns="http://www.w3.org/2000/svg" xmlns:xlink="http://www.w3.org/1999/xlink" x="0px" y="0px"
	 viewBox="0 0 512.001 512.001" style="enable-background:new 0 0 512.001 512.001;" xml:space="preserve">
<path style="fill:#004859;" d="M299.124,158.99h-86.234V83.537c0-11.906,9.651-21.558,21.558-21.558h43.118
	c11.906,0,21.558,9.651,21.558,21.558V158.99z M67.753,115.65l-30.488,30.487l99.087,99.084l30.488-30.487L67.753,115.65z
	 M345.174,211.801l30.488,30.487l99.087-99.084l-30.488-30.487L345.174,211.801z"/>
<path style="fill:#007DBC;" d="M98.241,146.137l-30.488,30.488c-8.418,8.418-22.068,8.418-30.487,0L14.4,153.759
	c-8.419-8.419-8.419-22.069,0-30.488l30.488-30.488c8.418-8.418,22.068-8.418,30.487,0l22.866,22.866
	C106.661,124.068,106.661,137.719,98.241,146.137z M413.773,143.205l30.488,30.488c8.418,8.418,22.068,8.418,30.487,0l22.866-22.866
	c8.419-8.419,8.419-22.069,0-30.488L467.126,89.85c-8.418-8.418-22.068-8.418-30.487,0l-22.866,22.866
	C405.353,121.135,405.353,134.786,413.773,143.205z"/>
<path style="fill:#AEE5DF;" d="M450.033,309.895c0,107.155-86.869,194.021-194.026,194.021S61.98,417.05,61.98,309.895
	s86.869-194.021,194.026-194.021S450.033,202.74,450.033,309.895z"/>
<path style="fill:#79B7AC;" d="M440.42,370.331c-25.404,77.56-98.36,133.585-184.413,133.585
	c-107.158,0-194.026-86.866-194.026-194.021c0-94.213,67.157-172.732,156.211-190.326c-6.23,19.022-9.613,39.332-9.613,60.436
	c0,107.155,86.869,194.021,194.026,194.021C415.547,374.027,428.188,372.748,440.42,370.331z"/>
<path style="fill:#BC0000;" d="M490.456,309.895c0,4.465-3.62,8.084-8.084,8.084h-291.04c-4.465,0-8.084-3.62-8.084-8.084
	c0-4.465,3.62-8.084,8.084-8.084h291.039C486.837,301.811,490.456,305.43,490.456,309.895z"/>
<path style="fill:#720000;" d="M288.344,309.895c0,17.86-14.478,32.337-32.338,32.337s-32.338-14.477-32.338-32.337
	c0-17.86,14.478-32.337,32.338-32.337S288.344,292.035,288.344,309.895z"/>
<path style="fill:#FF0000;" d="M272.176,309.895c0,8.929-7.239,16.168-16.168,16.168c-8.929,0-16.168-7.239-16.168-16.168
	c0-8.929,7.239-16.168,16.168-16.168C264.937,293.727,272.176,300.966,272.176,309.895z"/>
<path d="M503.332,114.623l-30.488-30.487c-11.557-11.558-30.364-11.558-41.921,0l-22.866,22.865
	c-5.599,5.599-8.682,13.043-8.682,20.961c0,5.144,1.31,10.085,3.756,14.452l-14.761,14.76c-0.578-0.501-1.151-1.009-1.735-1.504
	c-14.946-12.671-31.575-23.001-49.289-30.783c4.974-11.266,7.589-23.562,7.589-35.961C344.934,39.892,305.041,0,256.005,0
	s-88.928,39.892-88.928,88.926c0,12.407,2.615,24.701,7.594,35.972c-19.266,8.504-36.96,19.928-52.523,33.713l-13.273-13.273
	c6.292-11.282,4.659-25.83-4.917-35.405L81.092,87.067c-11.557-11.558-30.364-11.558-41.921,0L8.682,117.555
	C3.083,123.153,0,130.598,0,138.515c0,7.918,3.083,15.361,8.682,20.96l22.865,22.865c5.599,5.599,13.043,8.682,20.961,8.682
	c5.145,0,10.085-1.309,14.453-3.756l16.879,16.879c-18.979,30.784-29.946,67.008-29.946,105.75
	C53.895,421.336,144.562,512,256.005,512c48.09,0,94.686-17.177,131.201-48.368c36.109-30.843,60.3-73.482,68.115-120.062
	c0.739-4.403-2.231-8.571-6.636-9.31c-4.398-0.739-8.571,2.231-9.31,6.636c-15.061,89.776-92.179,154.937-183.369,154.937
	c-102.528,0-185.942-83.411-185.942-185.937s83.413-185.937,185.942-185.937c63.097,0,119.641,31.409,153.392,80.587
	c0.365,0.804,0.867,1.56,1.509,2.232c13.846,20.818,23.657,44.713,28.225,70.694c0.774,4.397,4.966,7.333,9.363,6.562
	c4.398-0.773,7.335-4.965,6.562-9.363c-4.538-25.812-14.124-50.386-27.969-72.373l17.964-17.964
	c4.369,2.448,9.309,3.756,14.453,3.756c7.918,0,15.362-3.083,20.961-8.682l22.866-22.865
	C514.89,144.985,514.89,126.18,503.332,114.623z M183.247,88.927c0-40.119,32.64-72.758,72.76-72.758s72.76,32.639,72.76,72.758
	c0,10.381-2.236,20.668-6.486,30.052c-4.96-1.721-9.989-3.247-15.072-4.578V83.537c0-16.345-13.298-29.642-29.643-29.642H234.45
	c-16.345,0-29.643,13.297-29.643,29.642v30.83c-5.107,1.339-10.134,2.877-15.077,4.597
	C185.481,109.584,183.247,99.306,183.247,88.927z M42.982,170.908l-22.866-22.865c-2.545-2.545-3.946-5.928-3.946-9.528
	c0-3.599,1.401-6.983,3.946-9.527L50.604,98.5c2.627-2.627,6.077-3.94,9.528-3.94s6.901,1.313,9.528,3.94l22.866,22.865
	c5.254,5.254,5.254,13.801,0,19.055l-30.488,30.487c-2.545,2.545-5.928,3.946-9.528,3.946S45.527,173.453,42.982,170.908z
	 M79.186,176.624l19.055-19.055l12.233,12.233c-6.254,6.494-12.075,13.406-17.424,20.686L79.186,176.624z M220.975,110.836V83.537
	c0-7.43,6.045-13.474,13.474-13.474h43.117c7.43,0,13.474,6.044,13.474,13.474v27.32c-11.505-2.026-23.225-3.068-35.033-3.068
	C244.061,107.79,232.356,108.839,220.975,110.836z M400.159,168.25l13.613-13.613l19.055,19.055l-15.063,15.063
	C412.374,181.558,406.497,174.703,400.159,168.25z M491.898,145.11l-22.866,22.865c-2.544,2.545-5.928,3.946-9.527,3.946
	c-3.599,0-6.983-1.401-9.527-3.946l-30.488-30.487c-2.545-2.545-3.946-5.928-3.946-9.528s1.401-6.983,3.946-9.528l22.866-22.865
	c2.627-2.627,6.077-3.94,9.527-3.94c3.45,0,6.901,1.313,9.527,3.94l30.488,30.487C497.152,131.308,497.152,139.856,491.898,145.11z
	 M296.43,309.895c0-22.289-18.133-40.421-40.422-40.421c-22.289,0-40.422,18.132-40.422,40.421
	c0,22.289,18.133,40.421,40.422,40.421C278.296,350.316,296.43,332.184,296.43,309.895z M256.008,334.148
	c-13.373,0-24.254-10.879-24.254-24.253c0-13.373,10.88-24.253,24.254-24.253c13.373,0,24.254,10.879,24.254,24.253
	C280.261,323.268,269.381,334.148,256.008,334.148z M256.008,177.853c-4.465,0-8.084-3.62-8.084-8.084V158.99
	c0-4.465,3.62-8.084,8.084-8.084c4.465,0,8.084,3.62,8.084,8.084v10.779C264.092,174.233,260.472,177.853,256.008,177.853z
	 M256.008,441.937c4.465,0,8.084,3.62,8.084,8.084V460.8c0,4.465-3.62,8.084-8.084,8.084c-4.465,0-8.084-3.62-8.084-8.084v-10.779
	C247.922,445.557,251.542,441.937,256.008,441.937z M162.637,216.527c-1.578,1.578-3.648,2.368-5.716,2.368
	s-4.138-0.789-5.716-2.368l-7.622-7.622c-3.157-3.157-3.157-8.276,0-11.432c3.157-3.157,8.276-3.157,11.433,0l7.622,7.622
	C165.794,208.252,165.794,213.371,162.637,216.527z M368.433,410.885c3.157,3.157,3.157,8.276,0,11.432
	c-1.578,1.578-3.648,2.368-5.716,2.368s-4.138-0.789-5.716-2.368l-7.622-7.622c-3.157-3.157-3.157-8.276,0-11.432
	c3.157-3.157,8.276-3.157,11.433,0L368.433,410.885z M368.433,208.905l-7.622,7.622c-1.578,1.578-3.648,2.368-5.716,2.368
	s-4.138-0.789-5.716-2.368c-3.157-3.157-3.157-8.276,0-11.432l7.622-7.622c3.157-3.157,8.276-3.157,11.433,0
	C371.59,200.629,371.59,205.748,368.433,208.905z M162.637,403.263c3.157,3.157,3.157,8.276,0,11.432l-7.622,7.622
	c-1.578,1.578-3.648,2.368-5.716,2.368c-2.068,0-4.138-0.789-5.716-2.368c-3.157-3.157-3.157-8.276,0-11.432l7.622-7.622
	C154.361,400.106,159.48,400.106,162.637,403.263z M115.877,301.811c4.465,0,8.084,3.62,8.084,8.084c0,4.465-3.62,8.084-8.084,8.084
	h-10.779c-4.465,0-8.084-3.62-8.084-8.084c0-4.465,3.62-8.084,8.084-8.084H115.877z"/>
<g>
</g>
<g>
</g>
<g>
</g>
<g>
</g>
<g>
</g>
<g>
</g>
<g>
</g>
<g>
</g>
<g>
</g>
<g>
</g>
<g>
</g>
<g>
</g>
<g>
</g>
<g>
</g>
<g>
</g>
</svg>
