<?xml version="1.0" encoding="iso-8859-1"?>
<!-- Generator: Adobe Illustrator 19.0.0, SVG Export Plug-In . SVG Version: 6.00 Build 0)  -->
<svg version="1.1" id="Layer_1" xmlns="http://www.w3.org/2000/svg" xmlns:xlink="http://www.w3.org/1999/xlink" x="0px" y="0px"
	 viewBox="0 0 512 512" style="enable-background:new 0 0 512 512;" xml:space="preserve">
<path style="fill:#D18839;" d="M417.684,169.768v66.377c0,48.949-35.006,90.893-83.165,99.649l0,0
	c-20.502,3.727-35.403,21.583-35.403,42.421v104.143c0,11.906-9.651,21.558-21.558,21.558h-43.116
	c-11.906,0-21.558-9.651-21.558-21.558V378.215c0-20.837-14.902-38.693-35.403-42.421l0,0
	c-48.159-8.756-83.165-50.701-83.165-99.649v-66.377C94.316,80.472,166.704,8.084,256,8.084l0,0
	C345.296,8.084,417.684,80.472,417.684,169.768z"/>
<path style="fill:#FFB150;" d="M276.392,503.916h-40.783c-12.55,0-22.724-10.174-22.724-22.724V311.061
	c0-12.55,10.174-22.724,22.724-22.724h40.783c12.55,0,22.724,10.174,22.724,22.724v170.131
	C299.116,493.742,288.942,503.916,276.392,503.916z"/>
<path style="fill:#BC0000;" d="M108.82,288.337c-9.234-15.336-14.504-33.233-14.504-52.192v-66.377
	C94.316,80.472,166.704,8.084,256,8.084l0,0c89.296,0,161.684,72.388,161.684,161.684v66.377c0,18.959-5.27,36.855-14.504,52.192
	H108.82z"/>
<path style="fill:#A54300;" d="M299.116,363.789v117.402c0,12.55-10.174,22.724-22.724,22.724h-40.783
	c-12.55,0-22.724-10.174-22.724-22.724V363.789H299.116z"/>
<path style="fill:#4F2000;" d="M299.116,406.905v74.286c0,12.55-10.174,22.724-22.724,22.724h-40.783
	c-12.55,0-22.724-10.174-22.724-22.724v-74.286H299.116z"/>
<path style="fill:#6D2C00;" d="M299.116,450.021v31.171c0,12.55-10.174,22.724-22.724,22.724h-40.783
	c-12.55,0-22.724-10.174-22.724-22.724v-31.171H299.116z"/>
<path style="fill:#A50000;" d="M256,288.337H108.82c-9.234-15.336-14.504-33.233-14.504-52.192v-66.377
	C94.316,80.472,166.704,8.084,256,8.084l0,0V288.337z"/>
<path d="M256,0C162.389,0,86.232,76.158,86.232,169.768v66.377c0,52.887,37.767,98.141,89.803,107.603
	c16.667,3.031,28.766,17.525,28.766,34.467v104.143c0,16.344,13.298,29.642,29.642,29.642h43.116
	c16.344,0,29.642-13.298,29.642-29.642V378.215c0-16.941,12.098-31.436,28.766-34.467c52.035-9.462,89.803-54.715,89.803-107.603
	v-66.377C425.768,76.158,349.611,0,256,0z M102.4,169.768c0-84.696,68.904-153.6,153.6-153.6s153.6,68.904,153.6,153.6v66.377
	c0,15.859-3.999,30.905-11.097,44.107H113.497c-7.098-13.202-11.097-28.248-11.097-44.107V169.768z M220.968,414.989h70.063v26.947
	h-70.063V414.989z M291.43,371.874c-0.258,2.083-0.399,4.197-0.399,6.341v20.606h-70.063v-20.606c0-2.144-0.141-4.259-0.399-6.341
	H291.43z M277.558,495.832h-43.116c-7.43,0-13.474-6.044-13.474-13.474v-24.253h70.063v24.253
	C291.032,489.788,284.988,495.832,277.558,495.832z M333.073,327.841c-10.007,1.819-18.883,6.471-25.873,13.031v-20.198
	c0-4.466-3.618-8.084-8.084-8.084s-8.084,3.618-8.084,8.084v35.032h-70.063v-35.032c0-4.466-3.618-8.084-8.084-8.084
	s-8.084,3.618-8.084,8.084v20.198c-6.99-6.56-15.866-11.211-25.873-13.031c-21.917-3.985-40.854-15.429-54.412-31.42h262.971
	C373.927,312.412,354.99,323.856,333.073,327.841z"/>
<g>
</g>
<g>
</g>
<g>
</g>
<g>
</g>
<g>
</g>
<g>
</g>
<g>
</g>
<g>
</g>
<g>
</g>
<g>
</g>
<g>
</g>
<g>
</g>
<g>
</g>
<g>
</g>
<g>
</g>
</svg>
