<?xml version="1.0" encoding="iso-8859-1"?>
<!-- Generator: Adobe Illustrator 19.0.0, SVG Export Plug-In . SVG Version: 6.00 Build 0)  -->
<svg version="1.1" id="Layer_1" xmlns="http://www.w3.org/2000/svg" xmlns:xlink="http://www.w3.org/1999/xlink" x="0px" y="0px"
	 viewBox="0 0 512 512" style="enable-background:new 0 0 512 512;" xml:space="preserve">
<path style="fill:#BC0000;" d="M17.533,448.755l83.827-83.829l45.72,45.721l-83.814,83.817c-12.628,12.628-33.104,12.628-45.732,0
	l0,0C4.909,481.84,4.909,461.378,17.533,448.755z"/>
<path style="fill:#6D6D6D;" d="M497.603,14.399L497.603,14.399c8.415,8.415,8.415,22.057,0,30.473L208.039,334.445l-30.48-30.481
	L467.115,14.399C475.534,5.98,489.185,5.98,497.603,14.399z"/>
<path style="fill:#4B4B4B;" d="M497.6,44.875l-289.561,289.57l-15.24-15.24L482.36,29.635c5.637-5.637,13.617-7.48,20.804-5.565
	C505.078,31.258,503.237,39.238,497.6,44.875z"/>
<path style="fill:#A4A4A5;" d="M215.679,296.364L215.679,296.364c42.077,42.078,42.077,110.287,0,152.365l-15.257,15.257
	c-8.418,8.418-22.07,8.418-30.488,0L48.014,342.06c-8.415-8.415-8.415-22.057,0-30.473l15.224-15.224
	C105.33,254.27,173.587,254.27,215.679,296.364z"/>
<path style="fill:#BCBCBC;" d="M185.179,418.267l-30.48,30.481l-91.44-91.443l30.48-30.481c25.251-25.252,66.189-25.251,91.44,0l0,0
	C210.43,352.076,210.43,393.016,185.179,418.267z"/>
<path style="fill:#FFFFFF;" d="M183.593,324.554c-2.86,3.427-7.957,3.886-11.384,1.025c-20.444-17.065-50.085-15.711-68.945,3.15
	c-3.156,3.156-8.274,3.156-11.43,0c-3.156-3.156-3.156-8.274,0-11.43c11.966-11.967,27.861-18.952,44.76-19.667
	c16.791-0.711,33.118,4.807,45.975,15.539C185.986,316.026,186.454,321.127,183.593,324.554z M202.705,332.921l-0.762-0.762
	c-3.156-3.156-8.274-3.156-11.43,0c-3.156,3.156-3.156,8.274,0,11.43l0.762,0.762c3.156,3.156,8.274,3.156,11.43,0
	C205.861,341.195,205.861,336.077,202.705,332.921z"/>
<path d="M512,29.637c0-7.916-3.083-15.359-8.68-20.956C497.721,3.083,490.279,0,482.363,0c-7.917,0-15.36,3.083-20.957,8.68
	l-263.71,263.709c-44.332-25.765-102.229-19.691-140.156,18.236l-15.24,15.24c-11.555,11.556-11.555,30.359,0,41.915l32.383,32.383
	l-17.133,17.132c-0.003,0.003-0.008,0.006-0.011,0.01s-0.006,0.008-0.01,0.011l-45.71,45.71
	c-15.757,15.758-15.757,41.397,0.001,57.154C19.696,508.061,30.046,512,40.395,512s20.698-3.939,28.577-11.817l62.865-62.865
	l32.383,32.383c5.779,5.777,13.368,8.666,20.957,8.666c7.589,0,15.18-2.89,20.958-8.666l15.24-15.24
	c37.927-37.928,44.001-95.825,18.235-140.156l263.709-263.71C508.917,44.997,512,37.554,512,29.637z M57.538,488.749
	c-9.453,9.453-24.836,9.452-34.287,0.001c-7.446-7.447-9-18.562-4.716-27.57l16.144,16.143c1.578,1.578,3.648,2.367,5.716,2.367
	c2.068,0,4.138-0.789,5.717-2.368c3.157-3.157,3.157-8.276-0.001-11.433l-17.143-17.142l11.428-11.428l17.143,17.143
	c1.579,1.579,3.648,2.368,5.717,2.368c2.068,0,4.138-0.789,5.716-2.367c3.158-3.157,3.158-8.276,0.001-11.433l-17.144-17.144
	l11.427-11.427l17.143,17.143c1.579,1.578,3.649,2.367,5.717,2.367c2.068,0,4.138-0.789,5.717-2.367
	c3.157-3.158,3.157-8.276,0-11.434L74.69,403.024l11.426-11.426l34.287,34.287L57.538,488.749z M209.941,443.027l-15.24,15.24
	c-5.25,5.253-13.796,5.253-19.047,0L53.732,336.346c-5.252-5.25-5.252-13.796,0-19.047l15.24-15.24
	c19.432-19.433,44.958-29.15,70.484-29.15s51.051,9.716,70.484,29.15l0.001,0.001C248.807,340.924,248.807,404.162,209.941,443.027z
	 M491.885,39.16L230.341,300.706c-2.762-3.489-5.746-6.859-8.967-10.08c-3.222-3.221-6.591-6.204-10.079-8.966L472.84,20.115
	c5.249-5.252,13.794-5.254,19.046,0C497.137,25.365,497.137,33.909,491.885,39.16z"/>
<g>
</g>
<g>
</g>
<g>
</g>
<g>
</g>
<g>
</g>
<g>
</g>
<g>
</g>
<g>
</g>
<g>
</g>
<g>
</g>
<g>
</g>
<g>
</g>
<g>
</g>
<g>
</g>
<g>
</g>
</svg>
