<?xml version="1.0" encoding="iso-8859-1"?>
<!-- Generator: Adobe Illustrator 19.0.0, SVG Export Plug-In . SVG Version: 6.00 Build 0)  -->
<svg version="1.1" id="Layer_1" xmlns="http://www.w3.org/2000/svg" xmlns:xlink="http://www.w3.org/1999/xlink" x="0px" y="0px"
	 viewBox="0 0 512.001 512.001" style="enable-background:new 0 0 512.001 512.001;" xml:space="preserve">
<path style="fill:#F99900;" d="M439.243,180.548c5.953,0,10.779,4.826,10.779,10.779v291.032c0,11.906-9.651,21.558-21.558,21.558
	H83.537c-11.906,0-21.558-9.651-21.558-21.558V191.327c0-5.953,4.826-10.779,10.779-10.779h10.779
	c23.812,0,43.116-19.304,43.116-43.116V40.422l75.453-32.337h107.789l75.453,32.337v97.011c0,23.812,19.304,43.116,43.116,43.116
	H439.243z"/>
<path style="fill:#007DBC;" d="M399.961,169.77c-14.023,0-25.392,11.369-25.392,25.392v308.755H137.432V195.161
	c0-14.023-11.369-25.392-25.392-25.392c8.956-7.901,14.613-19.455,14.613-32.337V40.422l43.116-18.478V56.97
	c0,51.27,37.296,93.806,86.232,102.021c48.936-8.215,86.232-50.749,86.232-102.021V21.944l43.116,18.478v97.011
	C385.348,150.315,391.005,161.869,399.961,169.77z"/>
<path style="fill:#004859;" d="M202.106,61.98V8.085l0,0h107.789l0,0V61.98c0,32.044-23.309,58.629-53.895,63.763
	C225.415,120.609,202.106,94.024,202.106,61.98z"/>
<path style="fill:#F99900;" d="M314.167,207.072c3.357-0.702,6.507,1.838,6.507,5.267v47.723c0,3.429-3.152,5.968-6.507,5.267
	c-17.901-3.744-37.55-5.813-58.166-5.813s-40.265,2.07-58.166,5.813c-3.357,0.702-6.507-1.838-6.507-5.267v-47.723
	c0-3.429,3.152-5.968,6.507-5.267c17.901,3.744,37.55,5.813,58.166,5.813S296.265,210.816,314.167,207.072z"/>
<path d="M439.243,172.464h-10.779c-19.317,0-35.032-15.716-35.032-35.032V40.422c0-3.234-1.927-6.157-4.9-7.431l-42.963-18.413
	c-0.102-0.046-0.206-0.092-0.312-0.135L313.244,0.723c-1.013-0.461-2.137-0.72-3.323-0.723c-0.009,0-0.017,0-0.025,0H202.107
	c-0.009,0-0.017,0-0.026,0c-1.185,0.003-2.31,0.262-3.322,0.723l-32.013,13.721c-0.106,0.043-0.209,0.087-0.313,0.135L123.47,32.991
	c-2.974,1.274-4.901,4.197-4.901,7.431v97.011c0,19.316-15.716,35.032-35.032,35.032H72.758c-10.401,0-18.863,8.463-18.863,18.863
	v291.032c0,16.345,13.297,29.642,29.642,29.642h344.926c16.344,0,29.642-13.297,29.642-29.642V191.327
	C458.106,180.927,449.643,172.464,439.243,172.464z M210.19,16.17h91.621V61.98c0,27.285-19.184,50.433-45.811,55.549
	c-26.626-5.117-45.811-28.265-45.811-55.549V16.17z M177.853,27.275l16.168-6.93V61.98c0,35.668,25.503,65.837,60.64,71.735
	c0.886,0.149,1.791,0.149,2.676,0c35.138-5.898,60.641-36.067,60.641-71.735V20.345l16.168,6.93v29.696
	c0,46.31-32.782,85.548-78.147,93.813c-45.365-8.265-78.147-47.503-78.147-93.813V27.275z M129.348,495.833H83.537
	c-7.43,0-13.474-6.044-13.474-13.474V191.327c0-1.485,1.209-2.695,2.695-2.695h10.779c11.704,0,22.501-3.946,31.135-10.58
	c8.299,1.271,14.676,8.459,14.676,17.108V495.833z M366.485,195.161v300.671H145.516V195.161c0-13.228-7.712-24.688-18.876-30.122
	c5.123-7.971,8.097-17.448,8.097-27.607v-91.68l26.947-11.549V56.97c0,26.542,9.483,52.256,26.703,72.408
	c17.022,19.921,40.559,33.268,66.274,37.585c0.886,0.149,1.791,0.149,2.676,0c25.715-4.316,49.251-17.665,66.274-37.585
	c17.22-20.15,26.704-45.865,26.704-72.406V34.204l26.947,11.549v91.68c0,10.159,2.974,19.636,8.097,27.607
	C374.197,170.472,366.485,181.934,366.485,195.161z M441.937,482.359c0,7.43-6.044,13.474-13.474,13.474h-45.811V195.161
	c0-8.649,6.377-15.836,14.676-17.108c8.634,6.633,19.431,10.58,31.135,10.58h10.779c1.486,0,2.695,1.209,2.695,2.695V482.359z
	 M296.422,331.454v25.675c0,7.191-3.996,13.656-10.428,16.871l-52.756,26.378c-0.919,0.459-1.49,1.383-1.49,2.41v14.897
	c0,1.485,1.209,2.695,2.695,2.695h43.116c1.486,0,2.695-1.209,2.695-2.695c0-4.465,3.618-8.084,8.084-8.084s8.084,3.62,8.084,8.084
	c0,10.401-8.463,18.863-18.863,18.863h-43.116c-10.401,0-18.863-8.463-18.863-18.863v-14.897c0-7.191,3.996-13.655,10.428-16.871
	l52.755-26.378c0.921-0.46,1.491-1.383,1.491-2.41v-25.675c0-7.43-6.044-13.474-13.474-13.474h-21.558
	c-7.43,0-13.474,6.044-13.474,13.474c0,4.465-3.62,8.084-8.084,8.084c-4.465,0-8.084-3.62-8.084-8.084
	c0-16.345,13.297-29.642,29.642-29.642h21.558C283.124,301.812,296.422,315.108,296.422,331.454z M323.788,201.892
	c-3.167-2.573-7.279-3.569-11.276-2.732c-17.905,3.744-36.917,5.642-56.512,5.642c-19.594,0-38.607-1.898-56.512-5.642
	c-4-0.833-8.11,0.16-11.276,2.732c-3.158,2.566-4.97,6.375-4.97,10.447v47.722c0,4.072,1.812,7.88,4.97,10.447
	c3.167,2.573,7.277,3.567,11.277,2.732c17.904-3.744,36.917-5.642,56.511-5.642c19.595,0,38.607,1.898,56.512,5.642
	c0.928,0.194,1.862,0.29,2.789,0.29c3.068,0,6.056-1.047,8.487-3.022c3.159-2.566,4.97-6.375,4.97-10.447v-47.722
	C328.758,208.266,326.946,204.458,323.788,201.892z M312.59,256.76c-18.036-3.538-37.056-5.329-56.589-5.329
	s-38.554,1.793-56.589,5.33V215.64c18.036,3.538,37.056,5.33,56.589,5.33s38.554-1.793,56.589-5.329V256.76z"/>
<g>
</g>
<g>
</g>
<g>
</g>
<g>
</g>
<g>
</g>
<g>
</g>
<g>
</g>
<g>
</g>
<g>
</g>
<g>
</g>
<g>
</g>
<g>
</g>
<g>
</g>
<g>
</g>
<g>
</g>
</svg>
