<?xml version="1.0" encoding="iso-8859-1"?>
<!-- Generator: Adobe Illustrator 19.0.0, SVG Export Plug-In . SVG Version: 6.00 Build 0)  -->
<svg version="1.1" id="Layer_1" xmlns="http://www.w3.org/2000/svg" xmlns:xlink="http://www.w3.org/1999/xlink" x="0px" y="0px"
	 viewBox="0 0 512 512" style="enable-background:new 0 0 512 512;" xml:space="preserve">
<path style="fill:#F9B300;" d="M399.2,32.409l101.146,91.033c2.271,2.044,3.568,4.956,3.568,8.012v105.122
	c0,5.052-3.509,9.426-8.441,10.522l-88.568,19.681v215.579c0,11.906-9.651,21.558-21.558,21.558H126.653
	c-11.906,0-21.558-9.651-21.558-21.558V266.779l-88.57-19.682c-4.931-1.096-8.441-5.47-8.441-10.522V131.452
	c0-3.056,1.297-5.968,3.568-8.012l101.146-91.033c1.979-1.782,4.548-2.767,7.211-2.767h271.98
	C394.653,29.642,397.221,30.627,399.2,32.409z"/>
<path style="fill:#F9A100;" d="M256,503.916H126.653c-11.906,0-21.558-9.651-21.558-21.558V266.779l-88.57-19.682
	c-4.931-1.096-8.441-5.47-8.441-10.522V131.452c0-3.056,1.297-5.967,3.568-8.012l101.146-91.033
	c1.979-1.782,4.548-2.767,7.211-2.767H256V503.916z"/>
<path style="fill:#EA8500;" d="M105.095,266.779l-88.57-19.682c-4.931-1.096-8.441-5.47-8.441-10.522v-37.726
	c0,5.052,3.509,9.426,8.441,10.522l88.57,19.682V266.779z"/>
<path style="fill:#659F00;" d="M363.789,191.326c0,11.906-9.651,21.558-21.558,21.558c-11.906,0-21.558-9.651-21.558-21.558
	s9.651-21.558,21.558-21.558C354.138,169.768,363.789,179.42,363.789,191.326z"/>
<path style="fill:#8C1A00;" d="M353.01,105.095H158.989V8.084H353.01V105.095z"/>
<path style="fill:#F96800;" d="M406.905,460.8v21.558c0,11.906-9.651,21.558-21.558,21.558H126.653
	c-11.906,0-21.558-9.651-21.558-21.558V460.8H406.905z M351.206,116.793l34.272-94.246c2.557-7.03-2.649-14.462-10.13-14.462
	h-49.285l-43.116,97.011l54.72,18.24C343.208,125.181,349.211,122.281,351.206,116.793z"/>
<path style="fill:#F9A100;" d="M406.905,229.053l88.57-19.682c4.931-1.096,8.441-5.47,8.441-10.522v37.726
	c0,5.052-3.509,9.426-8.441,10.522l-88.57,19.682V229.053z"/>
<path style="fill:#F93100;" d="M229.053,105.095l-54.72,18.24c-5.54,1.846-11.543-1.054-13.538-6.542l-34.272-94.246
	c-2.557-7.03,2.649-14.462,10.13-14.462h49.285L229.053,105.095z M256,503.916H126.653c-11.906,0-21.558-9.651-21.558-21.558V460.8
	H256V503.916z"/>
<path d="M505.756,117.431l-101.146-91.03c-2.97-2.673-6.683-4.308-10.617-4.727c0.712-4.74-0.393-9.634-3.195-13.633
	C387.27,3.006,381.495,0,375.348,0h-49.285H185.937h-49.285c-6.147,0-11.924,3.006-15.451,8.041
	c-2.8,3.999-3.907,8.893-3.195,13.633c-3.934,0.419-7.648,2.053-10.617,4.727L6.245,117.431C2.275,121.003,0,126.114,0,131.454
	v105.121c0,8.91,6.075,16.482,14.771,18.414l82.239,18.277v209.093c0,16.344,13.298,29.642,29.642,29.642h258.695
	c16.344,0,29.642-13.298,29.642-29.642V273.265l82.239-18.276c8.696-1.932,14.771-9.504,14.771-18.414V131.455
	C512,126.114,509.725,121.003,505.756,117.431z M377.555,17.316c0.301,0.429,0.742,1.32,0.326,2.466l-34.272,94.247
	c-0.502,1.381-1.992,2.101-3.385,1.636l-46.273-15.425l37.365-84.073h44.031C376.568,16.168,377.255,16.888,377.555,17.316z
	 M277.694,97.011h-43.387l-35.929-80.842h115.247L277.694,97.011z M134.445,17.316c0.3-0.428,0.986-1.148,2.208-1.148h44.031
	l37.365,84.073l-46.272,15.425c-1.399,0.465-2.883-0.254-3.386-1.636l-34.272-94.246C133.703,18.637,134.144,17.746,134.445,17.316z
	 M493.721,239.205l-78.732,17.495v-65.374c0-4.466-3.618-8.084-8.084-8.084s-8.084,3.618-8.084,8.084v75.453v215.579
	c0,7.43-6.044,13.474-13.474,13.474H126.653c-7.43,0-13.474-6.044-13.474-13.474v-13.474h261.389c4.466,0,8.084-3.618,8.084-8.084
	s-3.618-8.084-8.084-8.084H113.179V266.779v-75.453c0-4.466-3.618-8.084-8.084-8.084c-4.466,0-8.084,3.618-8.084,8.084v65.374
	l-78.732-17.495c-1.243-0.276-2.111-1.358-2.111-2.63v-19.329l59,14.275c0.639,0.154,1.278,0.229,1.908,0.229
	c3.647,0,6.956-2.485,7.851-6.185c1.05-4.34-1.617-8.708-5.956-9.759l-62.802-15.194v-69.158c0-0.763,0.326-1.494,0.892-2.003
	l101.146-91.033c0.496-0.446,1.136-0.692,1.802-0.692c1.134,0,2.212-0.235,3.192-0.656l29.995,82.486
	c2.795,7.684,9.934,12.437,17.648,12.437c1.998,0,4.035-0.319,6.045-0.988l53.477-17.825h17.55v67.368
	c0,4.466,3.618,8.084,8.084,8.084s8.084-3.618,8.084-8.084v-67.368h17.55l53.477,17.825c2.009,0.669,4.046,0.988,6.045,0.988
	c7.712,0,14.852-4.754,17.647-12.437l29.995-82.486c0.98,0.421,2.058,0.656,3.192,0.656c0.666,0,1.306,0.246,1.802,0.692
	l101.147,91.033c0.566,0.51,0.891,1.24,0.891,2.003v69.679l-60.647,14.672c-4.34,1.051-7.006,5.419-5.956,9.759
	c0.896,3.701,4.205,6.185,7.851,6.185c0.629,0,1.269-0.074,1.908-0.229l56.845-13.753v18.806
	C495.832,237.847,494.964,238.929,493.721,239.205z M289.954,179.469v1.078c0,4.466-3.618,8.084-8.084,8.084
	c-4.466,0-8.084-3.618-8.084-8.084v-1.078c0-4.466,3.618-8.084,8.084-8.084C286.335,171.385,289.954,175.004,289.954,179.469z
	 M289.954,147.133v1.078c0,4.466-3.618,8.084-8.084,8.084c-4.466,0-8.084-3.618-8.084-8.084v-1.078c0-4.466,3.618-8.084,8.084-8.084
	C286.335,139.048,289.954,142.667,289.954,147.133z M342.232,161.684c-16.344,0-29.642,13.298-29.642,29.642
	s13.298,29.642,29.642,29.642s29.642-13.298,29.642-29.642S358.576,161.684,342.232,161.684z M342.232,204.8
	c-7.43,0-13.474-6.044-13.474-13.474s6.044-13.474,13.474-13.474s13.474,6.044,13.474,13.474S349.661,204.8,342.232,204.8z"/>
<g>
</g>
<g>
</g>
<g>
</g>
<g>
</g>
<g>
</g>
<g>
</g>
<g>
</g>
<g>
</g>
<g>
</g>
<g>
</g>
<g>
</g>
<g>
</g>
<g>
</g>
<g>
</g>
<g>
</g>
</svg>
