<?xml version="1.0" encoding="iso-8859-1"?>
<!-- Generator: Adobe Illustrator 19.0.0, SVG Export Plug-In . SVG Version: 6.00 Build 0)  -->
<svg version="1.1" id="Layer_1" xmlns="http://www.w3.org/2000/svg" xmlns:xlink="http://www.w3.org/1999/xlink" x="0px" y="0px"
	 viewBox="0 0 512.001 512.001" style="enable-background:new 0 0 512.001 512.001;" xml:space="preserve">
<path style="fill:#FF0000;" d="M489.163,451.018l-197.76,53.23c-11.51,3.098-23.343-3.759-26.425-15.314l-83.68-313.712
	c-3.081-11.547,3.747-23.416,15.25-26.513l197.76-53.229c11.51-3.098,23.343,3.759,26.425,15.314l83.68,313.712
	C507.494,436.052,500.668,447.921,489.163,451.018z"/>
<path style="fill:#BC0000;" d="M390.275,477.634l-98.896,26.619c-11.499,3.095-23.318-3.76-26.399-15.31l-83.681-313.714
	c-3.081-11.551,3.742-23.423,15.241-26.518l98.896-26.619L390.275,477.634z"/>
<path style="fill:#F9B300;" d="M315.454,363.287l-197.76,53.23c-11.51,3.098-23.343-3.759-26.425-15.314L7.588,87.492
	c-3.081-11.547,3.747-23.416,15.25-26.513L220.599,7.75c11.51-3.098,23.343,3.759,26.425,15.314l83.68,313.712
	C333.785,348.322,326.957,360.191,315.454,363.287z"/>
<path style="fill:#F9A100;" d="M216.566,389.904l-98.896,26.619c-11.499,3.095-23.318-3.76-26.399-15.31L7.59,87.499
	C4.509,75.948,11.333,64.075,22.832,60.98l98.896-26.619L216.566,389.904z"/>
<path style="fill:#FFFFFF;" d="M405.13,271.894c-1.155-4.331,1.403-8.784,5.715-9.945c4.313-1.161,8.744,1.41,9.899,5.742
	l0.279,1.046c1.155,4.331-1.403,8.784-5.715,9.945c-4.313,1.161-8.744-1.41-9.899-5.741L405.13,271.894z M457.006,403.633
	l-27.894-104.571c-1.155-4.331-5.587-6.902-9.899-5.741s-6.87,5.613-5.716,9.945l27.894,104.571c0.385,1.441-0.47,2.929-1.905,3.315
	l-135.331,36.425c-1.435,0.386-2.916-0.472-3.299-1.913c-1.155-4.331-5.588-6.902-9.899-5.742c-4.312,1.161-6.87,5.613-5.715,9.945
	c2.692,10.09,13.054,16.101,23.099,13.396l135.331-36.425C453.715,424.133,459.698,413.724,457.006,403.633z M255.402,211.333
	c-1.156-4.331-5.587-6.902-9.899-5.741c-4.313,1.161-6.87,5.613-5.716,9.945l27.894,104.571c0.385,1.441-0.47,2.929-1.906,3.315
	l-135.331,36.425c-1.435,0.386-2.916-0.472-3.299-1.913c-1.156-4.331-5.588-6.902-9.899-5.742c-4.312,1.161-6.87,5.613-5.715,9.945
	c2.692,10.09,13.054,16.101,23.099,13.396l135.331-36.426c10.045-2.703,16.028-13.113,13.337-23.203L255.402,211.333z
	 M231.698,185.209c1.156,4.332,5.587,6.902,9.899,5.741s6.87-5.613,5.716-9.945l-0.279-1.046c-1.156-4.331-5.587-6.902-9.899-5.741
	s-6.87,5.613-5.715,9.945L231.698,185.209z"/>
<path d="M339.827,335.805l-83.68-313.712c-2.054-7.703-6.983-14.134-13.876-18.112c-6.867-3.962-14.862-5.01-22.513-2.95
	L21.998,54.262C6.201,58.513-3.214,74.863,1.011,90.706l83.68,313.71c2.054,7.703,6.983,14.136,13.876,18.112
	c4.566,2.635,9.632,3.981,14.765,3.981c2.584,0,5.185-0.342,7.748-1.032l197.76-53.229
	C334.638,367.997,344.054,351.648,339.827,335.805z M116.854,409.798c-3.452,0.929-7.061,0.456-10.162-1.332
	c-3.128-1.804-5.365-4.728-6.299-8.232L16.712,86.523c-1.924-7.213,2.343-14.653,9.513-16.582l197.76-53.23
	c1.156-0.31,2.329-0.465,3.495-0.465c2.316,0,4.605,0.608,6.667,1.798c3.128,1.804,5.365,4.728,6.299,8.232l83.68,313.712
	c1.924,7.213-2.342,14.652-9.511,16.581L116.854,409.798z M490.009,457.733l-197.79,53.237c-2.559,0.689-5.157,1.03-7.738,1.03
	c-5.128,0-10.188-1.345-14.751-3.977c-6.891-3.976-11.818-10.408-13.873-18.112l-18.52-69.433c-1.156-4.332,1.423-8.782,5.758-9.937
	c4.332-1.154,8.787,1.421,9.943,5.755l18.52,69.433c0.935,3.504,3.17,6.428,6.295,8.231c3.096,1.786,6.697,2.259,10.14,1.331
	l197.79-53.238c7.165-1.928,11.429-9.369,9.504-16.587l-83.681-313.714c-0.935-3.504-3.17-6.427-6.295-8.231
	c-3.096-1.785-6.695-2.257-10.14-1.33L312,124.577c-4.33,1.166-8.791-1.398-9.958-5.728c-1.167-4.33,1.399-8.786,5.732-9.952
	l83.17-22.386c7.643-2.059,15.631-1.01,22.489,2.947c6.891,3.976,11.818,10.408,13.872,18.112l83.681,313.714
	C515.216,437.131,505.805,453.482,490.009,457.733z"/>
<g>
</g>
<g>
</g>
<g>
</g>
<g>
</g>
<g>
</g>
<g>
</g>
<g>
</g>
<g>
</g>
<g>
</g>
<g>
</g>
<g>
</g>
<g>
</g>
<g>
</g>
<g>
</g>
<g>
</g>
</svg>
