<?xml version="1.0" encoding="iso-8859-1"?>
<!-- Generator: Adobe Illustrator 19.0.0, SVG Export Plug-In . SVG Version: 6.00 Build 0)  -->
<svg version="1.1" id="Layer_1" xmlns="http://www.w3.org/2000/svg" xmlns:xlink="http://www.w3.org/1999/xlink" x="0px" y="0px"
	 viewBox="0 0 512 512" style="enable-background:new 0 0 512 512;" xml:space="preserve">
<path style="fill:#9E9E9E;" d="M503.916,256c0,136.92-110.996,247.916-247.916,247.916S8.084,392.92,8.084,256
	S119.08,8.084,256,8.084S503.916,119.08,503.916,256z"/>
<path style="fill:#B2B2B2;" d="M396.126,256c0,118.409-83.018,217.414-194.021,242.023C91.103,473.414,8.084,374.409,8.084,256
	S91.103,38.586,202.105,13.977C313.108,38.586,396.126,137.591,396.126,256z"/>
<path style="fill:#9E9E9E;" d="M272.712,317.776c0,68.46-55.498,123.958-123.958,123.958c-46.009,0-86.163-25.066-107.551-62.287
	l-0.182,0.106C20.069,343.179,8.084,300.989,8.084,256C8.084,119.079,119.079,8.084,256,8.084v247.349l-0.068,0.039
	C266.597,273.779,272.712,295.063,272.712,317.776z"/>
<path style="fill:#939393;" d="M255.932,255.473c10.665,18.307,16.78,39.59,16.78,62.303c0,30.534-11.046,58.482-29.351,80.085
	C138.754,368.787,61.979,272.859,61.979,158.989c0-23.845,3.375-46.9,9.659-68.724C117.019,39.816,182.8,8.084,256,8.084v247.349
	L255.932,255.473z"/>
<path style="fill:#AAAAAA;" d="M503.916,256c0,44.989-11.985,87.179-32.935,123.553l-0.308-0.178
	c10.411-18.146,16.366-39.177,16.366-61.598c0-68.46-55.498-123.958-123.958-123.958c-45.964,0-86.083,25.017-107.488,62.176
	c-68.272-0.22-123.55-55.629-123.55-123.952C132.042,63.582,187.54,8.084,256,8.084c1.07,0,2.137,0.014,3.2,0.041
	C394.643,9.841,503.916,120.15,503.916,256z"/>
<path style="fill:#BCBCBC;" d="M470.672,379.375c10.411-18.146,16.366-39.177,16.366-61.598c0-68.46-55.498-123.958-123.958-123.958
	c-45.964,0-86.083,25.017-107.488,62.176c-40.864-0.132-77.067-20.04-99.553-50.65c31.108-65.633,97.955-111.029,175.413-111.029
	c66.555,0,125.274,33.517,160.223,84.586c7.935,24.268,12.241,50.178,12.241,77.099c0,44.989-11.985,87.179-32.935,123.553
	L470.672,379.375z"/>
<path d="M437.019,74.981C388.667,26.628,324.379,0,256,0S123.333,26.628,74.982,74.981C26.628,123.333,0,187.62,0,256
	s26.628,132.667,74.982,181.019C123.333,485.372,187.62,512,256,512s132.667-26.628,181.019-74.981
	C485.372,388.667,512,324.379,512,256S485.372,123.333,437.019,74.981z M56.384,123.215c-1.655,11.815-2.489,23.767-2.489,35.774
	c0,100.779,59.451,192.525,151.459,233.735c1.073,0.481,2.195,0.708,3.301,0.708c3.088,0,6.038-1.781,7.383-4.782
	c1.825-4.074,0.001-8.858-4.073-10.683C125.762,339.36,70.063,253.406,70.063,158.989c0-21.887,2.961-43.57,8.787-64.488
	c24.823-27.205,55.814-48.683,90.735-62.218c-27.934,24.229-45.627,59.967-45.627,99.759c0,71.174,56.79,129.51,127.435,131.95
	c8.664,16.517,13.234,34.999,13.234,53.784c0,63.893-51.981,115.874-115.874,115.874c-41.377,0-79.902-22.312-100.542-58.23
	c-0.217-0.378-0.47-0.729-0.742-1.063C27.56,339.414,16.168,299.013,16.168,256C16.168,206.929,30.993,161.26,56.384,123.215z
	 M256,495.832c-5.596,0-11.145-0.208-16.647-0.587c41.782-15.977,79.174-42.892,107.663-77.96
	c36.882-45.401,57.194-102.679,57.194-161.284c0-4.465-3.618-8.084-8.084-8.084c-4.466,0-8.084,3.62-8.084,8.084
	c0,110.953-78.092,208.948-185.939,233.723c-36.046-8.308-69.001-24.776-96.837-47.329c13.799,4.833,28.476,7.425,43.488,7.425
	c72.809,0,132.042-59.234,132.042-132.042c0-21.72-5.355-43.097-15.52-62.137c21.192-33.267,58.196-53.736,97.804-53.736
	c63.892,0,115.874,51.98,115.874,115.874c0,20.229-5.288,40.138-15.293,57.576c-0.331,0.577-0.573,1.178-0.75,1.789
	C421.21,448.094,344.08,495.832,256,495.832z M492.886,293.544c-11.412-61.274-65.273-107.81-129.806-107.81
	c-45.475,0-87.947,23.662-111.998,62.074c-61.588-2.59-110.956-53.6-110.956-115.766c0-62.894,50.369-114.246,112.887-115.836
	c0.996-0.012,1.988-0.038,2.987-0.038c88.088,0,165.222,47.744,206.92,118.706c-36.215-31.023-82.67-48.643-131.468-48.643
	c-61.298,0-118.591,27.365-157.19,75.076c-2.808,3.472-2.27,8.562,1.201,11.37c3.471,2.809,8.561,2.269,11.37-1.201
	c35.513-43.899,88.227-69.077,144.62-69.077c60.991,0,118.015,29.903,152.823,80.039c7.491,23.191,11.556,47.908,11.556,73.561
	C495.832,268.771,494.817,281.308,492.886,293.544z"/>
<g>
</g>
<g>
</g>
<g>
</g>
<g>
</g>
<g>
</g>
<g>
</g>
<g>
</g>
<g>
</g>
<g>
</g>
<g>
</g>
<g>
</g>
<g>
</g>
<g>
</g>
<g>
</g>
<g>
</g>
</svg>
