<?xml version="1.0" encoding="iso-8859-1"?>
<!-- Generator: Adobe Illustrator 19.0.0, SVG Export Plug-In . SVG Version: 6.00 Build 0)  -->
<svg version="1.1" id="Layer_1" xmlns="http://www.w3.org/2000/svg" xmlns:xlink="http://www.w3.org/1999/xlink" x="0px" y="0px"
	 viewBox="0 0 512 512" style="enable-background:new 0 0 512 512;" xml:space="preserve">
<path style="fill:#004859;" d="M342.232,406.905H169.768c-5.953,0-10.779-4.826-10.779-10.779V29.642
	c0-5.953,4.826-10.779,10.779-10.779h172.463c5.953,0,10.779,4.826,10.779,10.779v366.484
	C353.01,402.08,348.185,406.905,342.232,406.905z"/>
<path style="fill:#F93100;" d="M51.2,430.619h102.4v43.497c0,4.552-3.69,8.242-8.242,8.242H59.442c-4.552,0-8.242-3.69-8.242-8.242
	V430.619z M256,450.021v23.123c0,5.089,4.125,9.214,9.215,9.214h186.371c5.089,0,9.215-4.125,9.215-9.214v-23.123H256z"/>
<path style="fill:#A50000;" d="M47.656,110.125l111.334-15.809v355.705H51.2c-11.906,0-21.558-9.651-21.558-21.558V131.39
	C29.642,120.851,37.261,111.857,47.656,110.125z M464.344,112.872L353.01,94.316v355.705H460.8c11.906,0,21.558-9.651,21.558-21.558
	V134.135C482.358,123.598,474.739,114.604,464.344,112.872z"/>
<path style="fill:#007DBC;" d="M482.358,126.863c0,6.365-3.926,12.071-9.871,14.346l-74.657,28.56v301.81
	c0,17.859-14.478,32.337-32.337,32.337H256H146.507c-17.859,0-32.337-14.478-32.337-32.337v-301.81l-74.657-28.561
	c-5.946-2.274-9.871-7.98-9.871-14.346c0-6.171,3.693-11.743,9.377-14.146l119.971-50.737H256h97.011l119.971,50.738
	C478.665,115.12,482.358,120.692,482.358,126.863z"/>
<path style="fill:#1A6399;" d="M397.811,309.895v161.684c0,17.859-14.477,32.337-32.337,32.337H256h-0.018H146.507
	c-17.859,0-32.337-14.478-32.337-32.337V309.895h141.811H256H397.811z"/>
<path style="fill:#F93100;" d="M277.188,503.916h-42.376c-6.157,0-11.149-4.992-11.149-11.149V19.233
	c0-6.157,4.992-11.149,11.149-11.149h42.376c6.157,0,11.149,4.992,11.149,11.149v473.534
	C288.337,498.924,283.345,503.916,277.188,503.916z"/>
<path d="M476.131,105.272L361.095,56.621V29.642c0-10.401-8.463-18.863-18.863-18.863h-47.794C291.301,4.406,284.758,0,277.189,0
	h-42.376c-7.569,0-14.112,4.406-17.248,10.779h-47.796c-10.401,0-18.863,8.463-18.863,18.863v26.979L35.87,105.27
	c-8.694,3.677-14.312,12.153-14.312,21.592v301.6c0,13.542,9.132,24.983,21.558,28.512v16.168c0,9.538,7.76,17.298,17.298,17.298
	h50.359C117.562,503.251,131.029,512,146.507,512h218.985c15.479,0,28.946-8.749,35.734-21.558h50.358
	c9.539,0,17.299-7.76,17.299-17.299v-16.168c12.426-3.529,21.558-14.971,21.558-28.512V126.863
	C490.442,117.423,484.824,108.946,476.131,105.272z M344.926,29.642v24.253h-48.505V26.947h45.811
	C343.718,26.947,344.926,28.156,344.926,29.642z M389.745,334.147h-93.324v-16.168h93.324L389.745,334.147L389.745,334.147z
	 M234.812,16.168h42.376c1.689,0,3.064,1.374,3.064,3.064v473.534c0,1.689-1.374,3.064-3.064,3.064h-42.376
	c-1.689,0-3.064-1.374-3.064-3.064V19.233C231.747,17.543,233.122,16.168,234.812,16.168z M122.255,317.979h93.324v16.168h-93.324
	V317.979z M169.768,26.947h45.811v26.947h-48.505V29.642C167.074,28.156,168.283,26.947,169.768,26.947z M37.726,428.463v-301.6
	c0-2.93,1.743-5.56,4.441-6.701l118.462-50.098h54.95v231.747h-93.324V169.768c0-3.35-2.066-6.354-5.195-7.551l-42.427-16.231
	c-4.17-1.593-8.844,0.492-10.439,4.662c-1.595,4.17,0.493,8.844,4.662,10.439l37.232,14.243v266.605H51.2
	C43.77,441.937,37.726,435.893,37.726,428.463z M60.414,474.274c-0.623,0-1.13-0.508-1.13-1.131v-15.038h46.802v13.474
	c0,0.907,0.041,1.803,0.1,2.695H60.414z M122.255,471.579V350.316h93.324v142.451c0,1.046,0.107,2.064,0.268,3.064h-69.34
	C133.135,495.832,122.255,484.951,122.255,471.579z M365.492,495.832h-69.34c0.162-1,0.268-2.019,0.268-3.064V350.316h93.324
	v121.263C389.745,484.951,378.865,495.832,365.492,495.832z M451.585,474.274h-45.772c0.059-0.891,0.1-1.788,0.1-2.695v-13.541
	c0.326,0.04,0.655,0.067,0.992,0.067h45.811v15.038C452.716,473.766,452.208,474.274,451.585,474.274z M474.274,428.463
	c0,7.43-6.044,13.474-13.474,13.474h-53.895c-0.336,0-0.666,0.027-0.992,0.067V175.331l36.519-13.971
	c4.17-1.594,6.258-6.268,4.662-10.439c-1.594-4.169-6.266-6.255-10.439-4.662l-41.715,15.958c-3.129,1.196-5.195,4.199-5.195,7.551
	v132.042h-93.324V177.853h37.726v13.474c0,4.466,3.618,8.084,8.084,8.084c4.466,0,8.084-3.618,8.084-8.084v-13.474h13.474
	c4.466,0,8.084-3.618,8.084-8.084c0-4.466-3.618-8.084-8.084-8.084h-67.368V70.063h54.95l118.461,50.099
	c2.698,1.14,4.441,3.77,4.441,6.7v301.6H474.274z"/>
<g>
</g>
<g>
</g>
<g>
</g>
<g>
</g>
<g>
</g>
<g>
</g>
<g>
</g>
<g>
</g>
<g>
</g>
<g>
</g>
<g>
</g>
<g>
</g>
<g>
</g>
<g>
</g>
<g>
</g>
</svg>
