<?xml version="1.0" encoding="iso-8859-1"?>
<!-- Generator: Adobe Illustrator 19.0.0, SVG Export Plug-In . SVG Version: 6.00 Build 0)  -->
<svg version="1.1" id="Layer_1" xmlns="http://www.w3.org/2000/svg" xmlns:xlink="http://www.w3.org/1999/xlink" x="0px" y="0px"
	 viewBox="0 0 512 512" style="enable-background:new 0 0 512 512;" xml:space="preserve">
<path style="fill:#FFB150;" d="M417.684,289.783v-67.567c0-4.515,4.51-7.641,8.738-6.056l67.401,25.276
	c6.071,2.277,10.092,8.08,10.092,14.563l0,0c0,6.484-4.022,12.287-10.092,14.563l-67.401,25.276
	C422.194,297.425,417.684,294.299,417.684,289.783z"/>
<g>
	<path style="fill:#D18839;" d="M417.684,256h86.232c0,6.484-4.022,12.287-10.092,14.563l-67.401,25.276
		c-4.227,1.586-8.738-1.54-8.738-6.056V256z"/>
	<path style="fill:#D18839;" d="M137.563,279.939l-48.838,5.426c-14.268,1.586-26.746-9.584-26.746-23.939v-10.853
		c0-14.355,12.478-25.523,26.746-23.939l48.838,5.426c12.197,1.355,21.426,11.666,21.426,23.939l0,0
		C158.989,268.273,149.762,278.583,137.563,279.939z"/>
</g>
<path style="fill:#FFB150;" d="M158.989,256L158.989,256H61.979v-5.426c0-14.355,12.478-25.523,26.746-23.939l48.838,5.426
	C149.762,233.417,158.989,243.727,158.989,256z"/>
<path style="fill:#B2682F;" d="M374.568,221.515v68.969c0,38.052-18.742,73.629-50.137,95.169c-2.795,1.918-5.981,2.838-9.133,2.838
	c-5.15,0-10.213-2.454-13.346-7.022c-5.052-7.363-3.179-17.427,4.184-22.479c22.601-15.507,36.094-41.116,36.094-68.505v-68.969
	c0-27.388-13.493-52.998-36.094-68.505c-7.363-5.052-9.236-15.116-4.184-22.479c5.052-7.363,15.116-9.236,22.48-4.184
	C355.826,147.886,374.568,183.464,374.568,221.515z"/>
<path d="M496.662,233.867l-76.139-28.551c-2.483-0.931-5.264-0.586-7.443,0.925c-2.18,1.509-3.479,3.993-3.479,6.644v35.032h-26.947
	v-26.4c0-40.717-20.055-78.788-53.648-101.836c-9.479-6.504-21.975-5.317-30.107,2.145c-2.689-1.07-5.422-2.048-8.183-2.898
	c-38.494-11.844-64.357-46.861-64.357-87.136V8.084c0-4.466-3.62-8.084-8.084-8.084c-4.465,0-8.084,3.618-8.084,8.084v13.945
	c-1.103,0.389-2.14,1.015-3.021,1.897L54.413,176.68c-19.271,19.272-30.663,44.319-32.568,71.236H8.084
	C3.62,247.916,0,251.534,0,256s3.62,8.084,8.084,8.084h13.761c1.905,26.917,13.297,51.964,32.568,71.236l152.755,152.755
	c0.882,0.882,1.919,1.508,3.021,1.897v13.944c0,4.466,3.62,8.084,8.084,8.084c4.465,0,8.084-3.618,8.084-8.084V480.21
	c0-40.274,25.863-75.292,64.357-87.136c2.757-0.848,5.485-1.825,8.173-2.894c4.429,4.066,10.263,6.396,16.412,6.396
	c4.909,0,9.648-1.471,13.707-4.256c33.592-23.049,53.647-61.118,53.647-101.836v-26.4H409.6v35.032c0,2.652,1.3,5.135,3.479,6.644
	c1.371,0.951,2.981,1.44,4.605,1.44c0.956,0,1.918-0.169,2.838-0.515l76.139-28.551C505.837,274.693,512,265.798,512,256
	S505.837,237.307,496.662,233.867z M319.858,133.012c29.196,20.032,46.626,53.118,46.626,88.504v26.4h-16.168v-26.4
	c0-30.055-14.806-58.156-39.605-75.17c-3.676-2.523-4.614-7.566-2.093-11.241c1.565-2.281,4.1-3.507,6.679-3.507
	C316.872,131.597,318.464,132.056,319.858,133.012z M65.845,188.114L210.801,43.159c1.987,18.946,8.921,36.878,20.384,52.4
	c13.736,18.597,32.676,32.021,54.773,38.82c1.8,0.554,3.584,1.175,5.351,1.84c-1.261,8.847,2.4,18.069,10.253,23.458
	c20.405,13.999,32.586,37.115,32.586,61.839v26.4H166.042c-3.27-12.652-14.042-22.384-27.585-23.889L89.617,218.6
	c-9.083-1.009-18.198,1.908-25.007,8.002c-6.145,5.502-9.914,13.156-10.594,21.313H38.085
	C39.956,225.322,49.633,204.328,65.845,188.114z M136.671,271.904l-48.839,5.426c-4.585,0.509-9.003-0.904-12.439-3.98
	c-2.764-2.474-4.508-5.702-5.093-9.267h78.407C146.228,268.314,141.863,271.327,136.671,271.904L136.671,271.904z M70.3,247.916
	c0.586-3.565,2.33-6.793,5.093-9.267c2.977-2.665,6.692-4.082,10.612-4.082c0.605,0,1.215,0.033,1.827,0.102l48.838,5.426
	c5.192,0.578,9.558,3.59,12.036,7.82H70.3z M285.959,377.621c-22.098,6.799-41.039,20.223-54.774,38.82
	c-11.463,15.522-18.399,33.454-20.384,52.4L65.845,323.886c-16.213-16.214-25.889-37.209-27.761-59.802h15.931
	c0.679,8.158,4.448,15.812,10.594,21.313c5.923,5.301,13.591,8.197,21.465,8.197c1.178,0,2.361-0.065,3.543-0.196l48.839-5.426l0,0
	c13.544-1.506,24.314-11.237,27.584-23.889h168.106v26.4c0,24.724-12.181,47.84-32.585,61.84
	c-7.854,5.388-11.514,14.611-10.253,23.457C289.543,376.447,287.759,377.067,285.959,377.621z M366.484,290.484
	c0,35.386-17.431,68.471-46.626,88.503c-1.354,0.929-2.93,1.42-4.558,1.42c-2.674,0-5.172-1.313-6.681-3.512
	c-0.154-0.224-0.294-0.454-0.421-0.688c0,0-0.002-0.002-0.002-0.003c-1.971-3.594-0.933-8.181,2.517-10.549
	c24.798-17.015,39.604-45.115,39.604-75.17v-26.4h16.168V290.484z M490.984,262.994l-65.216,24.456v-23.367h13.474
	c4.465,0,8.084-3.618,8.084-8.084s-3.62-8.084-8.084-8.084h-13.474v-23.367l65.216,24.455c2.9,1.088,4.847,3.898,4.847,6.994
	S493.884,261.907,490.984,262.994z"/>
<g>
</g>
<g>
</g>
<g>
</g>
<g>
</g>
<g>
</g>
<g>
</g>
<g>
</g>
<g>
</g>
<g>
</g>
<g>
</g>
<g>
</g>
<g>
</g>
<g>
</g>
<g>
</g>
<g>
</g>
</svg>
