<?xml version="1.0" encoding="iso-8859-1"?>
<!-- Generator: Adobe Illustrator 19.0.0, SVG Export Plug-In . SVG Version: 6.00 Build 0)  -->
<svg version="1.1" id="Layer_1" xmlns="http://www.w3.org/2000/svg" xmlns:xlink="http://www.w3.org/1999/xlink" x="0px" y="0px"
	 viewBox="0 0 511.999 511.999" style="enable-background:new 0 0 511.999 511.999;" xml:space="preserve">
<path style="fill:#A50000;" d="M298.403,503.916h-84.807c-23.812,0-43.116-19.304-43.116-43.116V148.211
	c0-23.812,19.304-43.116,43.116-43.116h84.807c23.812,0,43.116,19.304,43.116,43.116V460.8
	C341.519,484.612,322.215,503.916,298.403,503.916z"/>
<path style="fill:#720000;" d="M207.895,407.983v-1.078c0-4.465,3.589-8.084,8.017-8.084s8.017,3.62,8.017,8.084v1.078
	c0,4.465-3.589,8.084-8.017,8.084S207.895,412.448,207.895,407.983z M301.432,161.684c-4.428,0-8.017,3.62-8.017,8.084v269.474
	c0,7.43-5.994,13.474-13.363,13.474h-42.759c-7.368,0-13.363-6.044-13.363-13.474c0-4.465-3.589-8.084-8.017-8.084
	s-8.017,3.62-8.017,8.084c0,16.345,13.188,29.642,29.397,29.642h42.759c16.209,0,29.397-13.297,29.397-29.642V169.768
	C309.449,165.304,305.86,161.684,301.432,161.684z"/>
<path style="fill:#FF0000;" d="M213.24,363.789L213.24,363.789c-23.616,0-42.759-19.144-42.759-42.759V147.854
	c0-23.616,19.144-42.759,42.759-42.759h42.759V321.03C255.999,344.645,236.855,363.789,213.24,363.789z"/>
<path style="fill:#FFFFFF;" d="M213.24,145.516v1.078c0,4.465-3.589,8.084-8.017,8.084s-8.017-3.62-8.017-8.084v-1.078
	c0-4.465,3.589-8.084,8.017-8.084S213.24,141.051,213.24,145.516z M205.223,169.768c-4.428,0-8.017,3.62-8.017,8.084v75.453
	c0,4.465,3.589,8.084,8.017,8.084s8.017-3.62,8.017-8.084v-75.453C213.24,173.388,209.65,169.768,205.223,169.768z"/>
<path d="M315.754,100.043c-0.026-0.032-0.047-0.067-0.073-0.098l-51.597-62.433V16.168h40.02c4.466,0,8.084-3.618,8.084-8.084
	S308.569,0,304.104,0h-96.209c-4.465,0-8.084,3.618-8.084,8.084s3.62,8.084,8.084,8.084h40.02v21.343l-51.597,62.432
	c-0.026,0.032-0.047,0.067-0.073,0.098c-19.717,7.125-33.849,26.025-33.849,48.168v312.589c0,28.231,22.969,51.2,51.2,51.2h84.807
	c28.231,0,51.2-22.969,51.2-51.2V148.209C349.603,126.067,335.47,107.168,315.754,100.043z M255.999,53.111l36.28,43.899h-72.561
	L255.999,53.111z M333.434,460.8c0,19.317-15.715,35.032-35.032,35.032h-84.807c-19.316,0-35.032-15.715-35.032-35.032V148.211
	c0-19.317,15.716-35.032,35.032-35.032h84.807c19.317,0,35.032,15.715,35.032,35.032V460.8z M162.396,8.084
	c0-4.466,3.62-8.084,8.084-8.084h1.069c4.465,0,8.084,3.618,8.084,8.084s-3.62,8.084-8.084,8.084h-1.069
	C166.016,16.168,162.396,12.55,162.396,8.084z M349.603,8.084c0,4.466-3.618,8.084-8.084,8.084h-1.069
	c-4.466,0-8.084-3.618-8.084-8.084S335.984,0,340.449,0h1.069C345.983,0,349.603,3.618,349.603,8.084z M135.806,8.084
	c0,4.466-3.62,8.084-8.084,8.084h-1.069c-4.465,0-8.084-3.618-8.084-8.084S122.187,0,126.652,0h1.069
	C132.186,0,135.806,3.618,135.806,8.084z M393.431,8.084c0,4.466-3.618,8.084-8.084,8.084h-1.069c-4.466,0-8.084-3.618-8.084-8.084
	S379.812,0,384.278,0h1.069C389.813,0,393.431,3.618,393.431,8.084z"/>
<g>
</g>
<g>
</g>
<g>
</g>
<g>
</g>
<g>
</g>
<g>
</g>
<g>
</g>
<g>
</g>
<g>
</g>
<g>
</g>
<g>
</g>
<g>
</g>
<g>
</g>
<g>
</g>
<g>
</g>
</svg>
