<?xml version="1.0" encoding="iso-8859-1"?>
<!-- Generator: Adobe Illustrator 19.0.0, SVG Export Plug-In . SVG Version: 6.00 Build 0)  -->
<svg version="1.1" id="Layer_1" xmlns="http://www.w3.org/2000/svg" xmlns:xlink="http://www.w3.org/1999/xlink" x="0px" y="0px"
	 viewBox="0 0 512.001 512.001" style="enable-background:new 0 0 512.001 512.001;" xml:space="preserve">
<path style="fill:#F93100;" d="M321.001,390.737c0,8.929-7.246,16.168-16.184,16.168h-97.105c-8.938,0-16.185-7.239-16.185-16.168
	c0-8.929,7.246-16.168,16.185-16.168h97.105C313.755,374.568,321.001,381.808,321.001,390.737z M298.15,450.021h-83.769
	c-6.662,0-12.063,5.396-12.063,12.051v29.793c0,6.655,5.401,12.051,12.063,12.051h83.769c6.662,0,12.063-5.396,12.063-12.051
	v-29.793C310.212,455.417,304.811,450.021,298.15,450.021z"/>
<path style="fill:#8C1A00;" d="M318.818,382.653c1.38,2.38,2.183,5.136,2.183,8.084c0,8.929-7.246,16.168-16.185,16.168h-97.105
	c-8.938,0-16.185-7.239-16.185-16.168c0-2.948,0.803-5.704,2.183-8.084c2.799,4.828,8.014,8.084,14.002,8.084h97.105
	C310.804,390.737,316.019,387.48,318.818,382.653z"/>
<path style="fill:#007DBC;" d="M400.827,197.015c-31.788-45.82-84.796-75.83-144.826-75.83s-113.038,30.01-144.826,75.83
	c-14.595,21.036-41.65,29.461-65.725,20.707l0,0c-34.773-12.644-48.407-54.779-27.315-85.155
	C70.366,57.345,157.421,8.084,256.001,8.084s185.635,49.261,237.867,124.484c21.091,30.376,7.458,72.51-27.315,85.155l0,0
	C442.476,226.476,415.421,218.052,400.827,197.015z"/>
<path style="fill:#004859;" d="M481.471,209.618c-4.404,3.335-9.393,6.094-14.92,8.105l0,0c-24.076,8.755-51.131,0.33-65.726-20.707
	c-31.788-45.82-84.796-75.83-144.826-75.83s-113.038,30.01-144.826,75.83c-14.594,21.036-41.649,29.461-65.724,20.707l0,0
	c-5.527-2.01-10.515-4.77-14.92-8.105c1.093-8.247,3.892-16.397,8.604-23.839c47.62-75.223,126.989-124.485,216.867-124.485
	s169.247,49.261,216.867,124.484C477.579,193.221,480.378,201.37,481.471,209.618z"/>
<path style="fill:#FFFFFF;" d="M209.97,65.904c0.921,4.369-1.879,8.657-6.253,9.576c-49.336,10.374-93.204,35.391-123.525,70.445
	c-1.6,1.85-3.857,2.798-6.127,2.798c-1.874,0-3.758-0.647-5.287-1.967c-3.381-2.919-3.754-8.024-0.832-11.403
	c32.621-37.714,79.655-64.597,132.438-75.695C204.759,58.741,209.05,61.534,209.97,65.904z M237.072,54.806l-0.425,0.036
	c-4.454,0.366-7.767,4.271-7.401,8.72c0.348,4.224,3.888,7.421,8.056,7.421c0.223,0,0.447-0.01,0.674-0.028l0.42-0.034
	c4.454-0.365,7.768-4.268,7.403-8.718C245.434,57.751,241.53,54.44,237.072,54.806z M58.521,160.88
	c-3.839-2.284-8.806-1.025-11.093,2.81c-0.4,0.672-0.797,1.344-1.189,2.02c-2.243,3.862-0.927,8.809,2.938,11.049
	c1.278,0.741,2.675,1.093,4.054,1.093c2.79,0,5.506-1.443,7.006-4.028c0.362-0.623,0.727-1.244,1.096-1.864
	C63.62,168.127,62.36,163.165,58.521,160.88z M466.288,165.707l-0.468-0.801c-2.258-3.855-7.215-5.15-11.071-2.896
	c-3.858,2.255-5.156,7.207-2.898,11.06l0.443,0.759c1.502,2.583,4.216,4.025,7.004,4.025c1.381,0,2.779-0.354,4.057-1.096
	C467.221,174.515,468.534,169.568,466.288,165.707z M276.948,54.932l-0.857-0.073c-4.462-0.377-8.368,2.93-8.742,7.378
	c-0.375,4.45,2.932,8.359,7.385,8.734l0.796,0.068c0.241,0.022,0.481,0.031,0.719,0.031c4.148,0,7.681-3.17,8.052-7.376
	C284.692,59.245,281.4,55.323,276.948,54.932z M311.559,59.534c-4.375-0.911-8.661,1.897-9.571,6.268
	c-0.91,4.371,1.898,8.652,6.274,9.562c48.046,9.989,91.189,34.004,121.483,67.625c1.597,1.773,3.803,2.675,6.017,2.675
	c1.928,0,3.865-0.686,5.412-2.076c3.321-2.987,3.589-8.099,0.6-11.417C409.194,96.015,362.949,70.218,311.559,59.534z"/>
<path d="M500.516,127.961C444.88,47.836,353.473,0,256.001,0S67.121,47.836,11.486,127.961c-11.444,16.481-14.51,36.93-8.412,56.101
	c6.138,19.299,20.574,34.335,39.608,41.256c7.93,2.882,16.13,4.124,24.187,3.874l116.704,158.986
	c-0.088,0.841-0.136,1.694-0.136,2.558c0,13.372,10.891,24.253,24.276,24.253h8.092v26.947h-1.425
	c-11.113,0-20.154,9.033-20.154,20.136v29.792c0,11.103,9.041,20.136,20.154,20.136h83.769c11.114,0,20.156-9.033,20.156-20.136
	v-29.792c0-11.103-9.041-20.136-20.156-20.136h-1.424v-26.947h8.092c13.385,0,24.276-10.88,24.276-24.253
	c0-0.863-0.047-1.717-0.136-2.558L445.663,229.19c0.494,0.011,0.985,0.044,1.48,0.044c7.406,0,14.906-1.272,22.176-3.915
	c19.035-6.921,33.471-21.958,39.608-41.256C515.025,164.891,511.96,144.442,500.516,127.961z M295.882,366.484h-19.612
	l29.968-229.524c22.01,6.901,42.41,18.283,59.891,33.437L295.882,366.484z M259.95,366.484h-7.37L222.063,132.75
	c11.061-2.283,22.422-3.481,33.938-3.481c11.694,0,23.23,1.231,34.453,3.584L259.95,366.484z M206.273,136.806l29.987,229.678
	h-19.612l-70.37-196.432C163.804,154.957,184.239,143.638,206.273,136.806z M133.475,182.3l66.445,185.473
	c-2.94,0.998-5.628,2.544-7.942,4.516L84.683,226.121c13.126-4.215,24.889-12.602,33.143-24.499
	C122.594,194.748,127.835,188.302,133.475,182.3z M269.752,458.105v37.726h-26.973v-37.726H269.752z M210.41,491.864v-29.792
	c0-2.187,1.781-3.968,3.97-3.968h12.214v37.726H214.38C212.191,495.832,210.41,494.052,210.41,491.864z M302.121,462.073v29.792
	c0,2.187-1.782,3.968-3.971,3.968h-12.213v-37.726h12.213C300.339,458.105,302.121,459.885,302.121,462.073z M280.541,441.937
	h-48.553v-26.947h48.553V441.937z M304.817,398.821h-97.105c-4.462,0-8.092-3.626-8.092-8.084s3.63-8.084,8.092-8.084h3.21
	c0.01,0,0.018,0.002,0.027,0.002c0.016,0,0.033-0.002,0.05-0.002h34.443c0.008,0,0.015,0.001,0.023,0.001
	c0.005,0,0.011-0.001,0.016-0.001h21.568c0.005,0,0.011,0.001,0.016,0.001c0.008,0,0.015-0.001,0.023-0.001h34.443
	c0.016,0,0.033,0.002,0.05,0.002c0.01,0,0.018-0.002,0.027-0.002h3.21c4.462,0,8.092,3.626,8.092,8.084
	S309.28,398.821,304.817,398.821z M320.551,372.29c-2.314-1.974-5.001-3.518-7.942-4.516l66.296-185.059
	c5.494,5.885,10.609,12.191,15.268,18.907c8.345,12.028,20.275,20.464,33.574,24.632L320.551,372.29z M493.505,179.167
	c-4.607,14.483-15.44,25.766-29.721,30.959c-20.699,7.527-43.851,0.238-56.307-17.715c-34.453-49.661-91.079-79.309-151.475-79.309
	s-117.024,29.649-151.475,79.309c-12.457,17.954-35.609,25.244-56.307,17.715c-14.281-5.192-25.114-16.477-29.721-30.959
	c-4.566-14.355-2.273-29.661,6.286-41.99C77.396,61.406,163.832,16.168,256.001,16.168s178.605,45.237,231.218,121.008
	C495.778,149.505,498.07,164.81,493.505,179.167z"/>
<g>
</g>
<g>
</g>
<g>
</g>
<g>
</g>
<g>
</g>
<g>
</g>
<g>
</g>
<g>
</g>
<g>
</g>
<g>
</g>
<g>
</g>
<g>
</g>
<g>
</g>
<g>
</g>
<g>
</g>
</svg>
