<?xml version="1.0" encoding="iso-8859-1"?>
<!-- Generator: Adobe Illustrator 19.0.0, SVG Export Plug-In . SVG Version: 6.00 Build 0)  -->
<svg version="1.1" id="Layer_1" xmlns="http://www.w3.org/2000/svg" xmlns:xlink="http://www.w3.org/1999/xlink" x="0px" y="0px"
	 viewBox="0 0 512 512" style="enable-background:new 0 0 512 512;" xml:space="preserve">
<path style="fill:#F93100;" d="M406.905,105.095H105.095V20.306c0-6.75,5.472-12.222,12.222-12.222h277.366
	c6.75,0,12.222,5.472,12.222,12.222L406.905,105.095L406.905,105.095z"/>
<path style="fill:#007DBC;" d="M450.021,126.653V460.8c0,23.812-19.304,43.116-43.116,43.116h-86.232
	c-23.812,0-43.116-19.304-43.116-43.116V245.221c0-11.906-9.651-21.558-21.558-21.558l0,0c-11.906,0-21.558,9.651-21.558,21.558
	V460.8c0,23.812-19.304,43.116-43.116,43.116h-86.232c-23.812,0-43.116-19.304-43.116-43.116V126.653
	c0-23.812,19.304-43.116,43.116-43.116h86.232h129.347h86.232C430.717,83.537,450.021,102.841,450.021,126.653z"/>
<g>
	<path style="fill:#1A6399;" d="M153.6,8.084h43.116v86.232c0,5.953-4.826,10.779-10.779,10.779h-21.558
		c-5.953,0-10.779-4.826-10.779-10.779V8.084z M315.284,8.084v86.232c0,5.953,4.826,10.779,10.779,10.779h21.558
		c5.953,0,10.779-4.826,10.779-10.779V8.084H315.284z"/>
	<path style="fill:#1A6399;" d="M61.979,309.895l172.463,43.116V460.8c0,23.812-19.304,43.116-43.116,43.116h-86.232
		c-23.812,0-43.116-19.304-43.116-43.116V309.895z M277.558,353.01V460.8c0,23.812,19.304,43.116,43.116,43.116h86.232
		c23.812,0,43.116-19.304,43.116-43.116V309.895L277.558,353.01z"/>
</g>
<path d="M414.989,76.097V18.863C414.989,8.463,406.527,0,396.126,0H115.874c-10.401,0-18.863,8.463-18.863,18.863v57.234
	c-24.404,3.888-43.116,25.075-43.116,50.555V460.8c0,28.231,22.969,51.2,51.2,51.2h86.232c28.231,0,51.2-22.969,51.2-51.2V245.221
	c0-7.43,6.044-13.474,13.474-13.474c7.43,0,13.474,6.044,13.474,13.474V460.8c0,28.231,22.969,51.2,51.2,51.2h86.232
	c28.231,0,51.2-22.969,51.2-51.2V126.653C458.105,101.172,439.393,79.985,414.989,76.097z M398.821,18.863v56.589h-32.337V16.168
	h29.642C397.613,16.168,398.821,17.377,398.821,18.863z M161.684,16.168h26.947v78.147c0,1.486-1.208,2.695-2.695,2.695h-21.558
	c-1.486,0-2.695-1.208-2.695-2.695V16.168z M204.8,16.168h102.4v59.284H204.8V16.168z M323.368,16.168h26.947v78.147
	c0,1.486-1.208,2.695-2.695,2.695h-21.558c-1.486,0-2.695-1.208-2.695-2.695V16.168z M115.874,16.168h29.642v59.284h-32.337V18.863
	C113.179,17.377,114.387,16.168,115.874,16.168z M406.905,495.832h-86.232c-19.317,0-35.032-15.715-35.032-35.032V359.323
	l134.131-33.532c4.332-1.083,6.964-5.472,5.882-9.805c-1.083-4.332-5.475-6.962-9.805-5.882l-130.209,32.552v-97.435
	c0-16.344-13.298-29.642-29.642-29.642s-29.642,13.298-29.642,29.642v97.435L96.149,310.104c-4.331-1.08-8.72,1.55-9.805,5.882
	c-1.082,4.332,1.55,8.721,5.882,9.805l134.131,33.532V460.8c0,19.317-15.715,35.032-35.032,35.032h-86.232
	c-19.317,0-35.032-15.715-35.032-35.032v-97.435l130.209,32.551c0.659,0.164,1.318,0.244,1.967,0.244
	c3.622,0,6.918-2.452,7.837-6.126c1.082-4.332-1.55-8.721-5.882-9.805L70.063,346.698V177.853h80.842v13.474
	c0,4.466,3.618,8.084,8.084,8.084c4.466,0,8.084-3.618,8.084-8.084v-13.474h13.474c4.466,0,8.084-3.618,8.084-8.084
	c0-4.466-3.618-8.084-8.084-8.084H70.063v-35.032c0-19.317,15.715-35.032,35.032-35.032h40.421v2.695
	c0,10.401,8.463,18.863,18.863,18.863h21.558c10.401,0,18.863-8.463,18.863-18.863v-2.695h102.4v2.695
	c0,10.401,8.463,18.863,18.863,18.863h21.558c10.401,0,18.863-8.463,18.863-18.863v-2.695h40.421
	c19.317,0,35.032,15.715,35.032,35.032v35.032H331.453c-4.466,0-8.084,3.618-8.084,8.084c0,4.466,3.618,8.084,8.084,8.084h13.474
	v13.474c0,4.466,3.618,8.084,8.084,8.084c4.466,0,8.084-3.618,8.084-8.084v-13.474h80.842v168.846l-134.131,33.532
	c-4.332,1.083-6.964,5.472-5.882,9.805c0.919,3.672,4.215,6.126,7.837,6.126c0.65,0,1.31-0.079,1.967-0.244l130.209-32.552V460.8
	C441.937,480.117,426.222,495.832,406.905,495.832z M264.084,33.415v1.078c0,4.466-3.618,8.084-8.084,8.084
	s-8.084-3.618-8.084-8.084v-1.078c0-4.466,3.618-8.084,8.084-8.084S264.084,28.949,264.084,33.415z M264.084,59.823v1.078
	c0,4.466-3.618,8.084-8.084,8.084s-8.084-3.618-8.084-8.084v-1.078c0-4.466,3.618-8.084,8.084-8.084S264.084,55.357,264.084,59.823z
	"/>
<g>
</g>
<g>
</g>
<g>
</g>
<g>
</g>
<g>
</g>
<g>
</g>
<g>
</g>
<g>
</g>
<g>
</g>
<g>
</g>
<g>
</g>
<g>
</g>
<g>
</g>
<g>
</g>
<g>
</g>
</svg>
