<?xml version="1.0" encoding="iso-8859-1"?>
<!-- Generator: Adobe Illustrator 19.0.0, SVG Export Plug-In . SVG Version: 6.00 Build 0)  -->
<svg version="1.1" id="Layer_1" xmlns="http://www.w3.org/2000/svg" xmlns:xlink="http://www.w3.org/1999/xlink" x="0px" y="0px"
	 viewBox="0 0 512 512" style="enable-background:new 0 0 512 512;" xml:space="preserve">
<path style="fill:#547A00;" d="M363.789,476.968L363.789,476.968c0,14.882-12.065,26.947-26.947,26.947H175.158
	c-14.882,0-26.947-12.065-26.947-26.947l0,0c0-14.883,12.065-26.947,26.947-26.947h161.684
	C351.725,450.021,363.789,462.086,363.789,476.968z"/>
<path style="fill:#BF4D00;" d="M277.558,503.916h-43.116L223.663,353.01h64.674L277.558,503.916z"/>
<path style="fill:#F96800;" d="M299.116,385.347h-86.232c-5.953,0-10.779-4.826-10.779-10.779v-43.116
	c0-5.953,4.826-10.779,10.779-10.779h86.232c5.953,0,10.779,4.826,10.779,10.779v43.116
	C309.895,380.522,305.069,385.347,299.116,385.347z"/>
<path style="fill:#E2E2E2;" d="M423.074,175.158c0,92.272-74.802,167.074-167.074,167.074S88.926,267.43,88.926,175.158
	S163.728,8.084,256,8.084S423.074,82.886,423.074,175.158z"/>
<path style="fill:#CDCECE;" d="M423.074,175.158c0,92.272-74.802,167.074-167.074,167.074c-62.986,0-117.821-34.859-146.292-86.332
	c2.048,0.06,4.102,0.1,6.166,0.1c113.108,0,204.8-91.692,204.8-204.8c0-10.57-0.802-20.953-2.347-31.092
	C379.726,44.813,423.074,104.919,423.074,175.158z"/>
<path style="fill:#FFFFFF;" d="M145.516,211.806v1.078c0,4.466-3.62,8.084-8.084,8.084c-4.465,0-8.084-3.618-8.084-8.084v-1.078
	c0-4.466,3.62-8.084,8.084-8.084C141.896,203.722,145.516,207.341,145.516,211.806z M256,43.116
	c-72.809,0-132.042,59.234-132.042,132.042c0,4.466,3.62,8.084,8.084,8.084c4.465,0,8.084-3.618,8.084-8.084
	c0-63.892,51.98-115.874,115.874-115.874c4.465,0,8.084-3.618,8.084-8.084C264.084,46.735,260.465,43.116,256,43.116z"/>
<path d="M431.158,175.158C431.158,78.575,352.583,0,256,0S80.842,78.575,80.842,175.158c0,74.799,47.135,138.787,113.258,163.851
	c-0.046,0.349-0.079,0.704-0.079,1.067v34.493c0,10.401,8.463,18.863,18.863,18.863h5.562l7.315,102.4h-50.603
	c-10.401,0-18.863-8.463-18.863-18.863c0-10.401,8.463-18.863,18.863-18.863h26.947c4.465,0,8.084-3.618,8.084-8.084
	s-3.62-8.084-8.084-8.084h-26.947c-19.316,0-35.032,15.715-35.032,35.032c0,19.317,15.716,35.032,35.032,35.032h161.684
	c19.316,0,35.032-15.715,35.032-35.032c0-19.317-15.716-35.032-35.032-35.032h-26.947c-4.465,0-8.084,3.618-8.084,8.084
	s3.62,8.084,8.084,8.084h26.947c10.401,0,18.863,8.463,18.863,18.863c0,10.401-8.463,18.863-18.863,18.863H286.24l7.315-102.4h5.562
	c10.401,0,18.863-8.463,18.863-18.863v-34.493c0-0.363-0.032-0.718-0.079-1.067C384.023,313.944,431.158,249.957,431.158,175.158z
	 M270.031,495.832H241.97l-7.315-102.4h42.689L270.031,495.832z M301.811,374.568c0,1.486-1.209,2.695-2.695,2.695h-86.232
	c-1.485,0-2.695-1.208-2.695-2.695v-30.343c14.609,3.963,29.964,6.09,45.811,6.09s31.202-2.128,45.811-6.09V374.568z M256,334.147
	c-87.667,0-158.989-71.322-158.989-158.989S168.333,16.168,256,16.168s158.989,71.322,158.989,158.989S343.667,334.147,256,334.147z
	 M286.72,288.337c0,4.466-3.62,8.084-8.084,8.084h-1.078c-4.465,0-8.084-3.618-8.084-8.084s3.62-8.084,8.084-8.084h1.078
	C283.1,280.253,286.72,283.871,286.72,288.337z M328.758,288.337c0,4.466-3.62,8.084-8.084,8.084h-1.078
	c-4.465,0-8.084-3.618-8.084-8.084s3.62-8.084,8.084-8.084h1.078C325.138,280.253,328.758,283.871,328.758,288.337z
	 M242.526,288.337c0,4.466-3.62,8.084-8.084,8.084h-1.078c-4.465,0-8.084-3.618-8.084-8.084s3.62-8.084,8.084-8.084h1.078
	C238.907,280.253,242.526,283.871,242.526,288.337z M268.396,245.221c0-4.466,3.62-8.084,8.084-8.084h1.078
	c4.465,0,8.084,3.618,8.084,8.084c0,4.466-3.62,8.084-8.084,8.084h-1.078C272.015,253.305,268.396,249.687,268.396,245.221z
	 M329.836,245.221c0,4.466-3.62,8.084-8.084,8.084h-1.078c-4.465,0-8.084-3.618-8.084-8.084c0-4.466,3.62-8.084,8.084-8.084h1.078
	C326.216,237.137,329.836,240.755,329.836,245.221z M371.874,245.221c0,4.466-3.62,8.084-8.084,8.084h-1.078
	c-4.465,0-8.084-3.618-8.084-8.084c0-4.466,3.62-8.084,8.084-8.084h1.078C368.254,237.137,371.874,240.755,371.874,245.221z
	 M296.421,202.105c0,4.466-3.62,8.084-8.084,8.084h-1.078c-4.465,0-8.084-3.618-8.084-8.084s3.62-8.084,8.084-8.084h1.078
	C292.801,194.021,296.421,197.64,296.421,202.105z M340.615,202.105c0,4.466-3.62,8.084-8.084,8.084h-1.078
	c-4.465,0-8.084-3.618-8.084-8.084s3.62-8.084,8.084-8.084h1.078C336.995,194.021,340.615,197.64,340.615,202.105z M383.73,202.105
	c0,4.466-3.62,8.084-8.084,8.084h-1.078c-4.465,0-8.084-3.618-8.084-8.084s3.62-8.084,8.084-8.084h1.078
	C380.111,194.021,383.73,197.64,383.73,202.105z M340.615,158.989c0,4.466-3.62,8.084-8.084,8.084h-1.078
	c-4.465,0-8.084-3.618-8.084-8.084c0-4.466,3.62-8.084,8.084-8.084h1.078C336.995,150.905,340.615,154.524,340.615,158.989z
	 M375.646,150.905h1.078c4.465,0,8.084,3.618,8.084,8.084c0,4.466-3.62,8.084-8.084,8.084h-1.078c-4.465,0-8.084-3.618-8.084-8.084
	C367.562,154.524,371.182,150.905,375.646,150.905z M356.783,115.874c0-4.466,3.62-8.084,8.084-8.084h1.078
	c4.465,0,8.084,3.618,8.084,8.084s-3.62,8.084-8.084,8.084h-1.078C360.403,123.958,356.783,120.339,356.783,115.874z"/>
<g>
</g>
<g>
</g>
<g>
</g>
<g>
</g>
<g>
</g>
<g>
</g>
<g>
</g>
<g>
</g>
<g>
</g>
<g>
</g>
<g>
</g>
<g>
</g>
<g>
</g>
<g>
</g>
<g>
</g>
</svg>
