<?xml version="1.0" encoding="iso-8859-1"?>
<!-- Generator: Adobe Illustrator 19.0.0, SVG Export Plug-In . SVG Version: 6.00 Build 0)  -->
<svg version="1.1" id="Layer_1" xmlns="http://www.w3.org/2000/svg" xmlns:xlink="http://www.w3.org/1999/xlink" x="0px" y="0px"
	 viewBox="0 0 512 512" style="enable-background:new 0 0 512 512;" xml:space="preserve">
<path style="fill:#007DBC;" d="M503.916,169.768L503.916,169.768c0,11.906-9.651,21.558-21.558,21.558H29.642
	c-11.906,0-21.558-9.651-21.558-21.558l0,0c0-23.812,19.304-43.116,43.116-43.116h409.6
	C484.612,126.653,503.916,145.957,503.916,169.768z"/>
<path style="fill:#79B7AC;" d="M342.232,385.347L342.232,385.347c-13.393,0-25.822-6.964-32.814-18.386l-25.29-41.307
	c-5.994-9.791-16.647-15.759-28.127-15.759l0,0l0,0c-11.48,0-22.132,5.969-28.127,15.759l-25.291,41.308
	c-6.993,11.421-19.422,18.386-32.814,18.386l0,0c-71.436,0-129.347-57.911-129.347-129.347v-64.674
	c0-11.906,9.651-21.558,21.558-21.558h388.042c11.906,0,21.558,9.651,21.558,21.558v64.674
	C471.579,327.436,413.668,385.347,342.232,385.347z"/>
<path style="fill:#91CEC5;" d="M454.884,170.34L290.799,336.551l-6.672-10.897c-5.994-9.791-16.647-15.759-28.127-15.759l0,0
	c-11.48,0-22.132,5.969-28.127,15.759l-25.291,41.308c-6.993,11.421-19.422,18.386-32.814,18.386l0,0
	c-35.402,0-67.478-14.228-90.835-37.273L254.96,169.768h195.061C451.696,169.768,453.319,169.979,454.884,170.34z"/>
<path style="fill:#FFFFFF;" d="M145.098,229.406l-59.756,59.195c-1.576,1.562-3.634,2.341-5.689,2.341
	c-2.081,0-4.163-0.799-5.743-2.395c-3.142-3.172-3.118-8.29,0.054-11.432l59.756-59.195c3.172-3.142,8.291-3.118,11.432,0.054
	C148.294,221.146,148.269,226.264,145.098,229.406z M314.419,304.179l-1.078,1.078c-3.157,3.157-3.157,8.276,0,11.432
	c1.578,1.578,3.648,2.368,5.716,2.368s4.138-0.789,5.716-2.368l1.078-1.078c3.157-3.157,3.157-8.276,0-11.432
	C322.695,301.021,317.575,301.021,314.419,304.179z M343.057,217.974c-3.142-3.172-8.261-3.196-11.432-0.054l-59.756,59.195
	c-3.171,3.142-3.196,8.261-0.054,11.432c1.58,1.595,3.662,2.395,5.743,2.395c2.057,0,4.113-0.779,5.689-2.341l59.756-59.195
	C346.174,226.264,346.199,221.146,343.057,217.974z M160.067,210.189c2.068,0,4.138-0.789,5.716-2.368l1.078-1.078
	c3.157-3.157,3.157-8.276,0-11.432c-3.157-3.157-8.276-3.157-11.432,0l-1.078,1.078c-3.157,3.157-3.157,8.276,0,11.432
	C155.929,209.4,157.999,210.189,160.067,210.189z M357.973,210.189c2.068,0,4.138-0.789,5.716-2.368l1.078-1.078
	c3.157-3.157,3.157-8.276,0-11.432c-3.157-3.157-8.276-3.157-11.432,0l-1.078,1.078c-3.157,3.157-3.157,8.276,0,11.432
	C353.835,209.4,355.905,210.189,357.973,210.189z M450.021,169.768h-2.27L334.899,282.621c-3.157,3.157-3.157,8.276,0,11.432
	c1.578,1.578,3.648,2.368,5.716,2.368s4.138-0.789,5.716-2.368L464.76,175.624C460.903,172.003,455.728,169.768,450.021,169.768z
	 M111.35,304.076l-1.162,1.149c-3.174,3.14-3.202,8.258-0.063,11.432c1.581,1.599,3.664,2.399,5.748,2.399
	c2.053,0,4.109-0.778,5.685-2.337l1.162-1.149c3.174-3.14,3.202-8.258,0.063-11.432C119.644,300.964,114.525,300.935,111.35,304.076
	z M133.425,281.092c-3.174,3.14-3.202,8.259-0.063,11.432c1.581,1.599,3.664,2.399,5.748,2.399c2.053,0,4.109-0.778,5.685-2.337
	l124.165-122.819h-22.992L133.425,281.092z"/>
<path d="M512,169.768c0,6.908-2.43,13.634-6.84,18.941c-2.853,3.433-7.953,3.905-11.385,1.05c-3.434-2.853-3.903-7.951-1.05-11.385
	c2.032-2.445,3.105-5.42,3.105-8.606c0-19.317-15.715-35.032-35.032-35.032h-409.6c-19.316,0-35.03,15.715-35.03,35.032
	c0,3.912,1.698,7.626,4.658,10.19c3.375,2.923,3.741,8.028,0.818,11.403c-1.599,1.846-3.85,2.792-6.114,2.792
	c-1.876,0-3.761-0.65-5.289-1.974C3.733,186.544,0,178.373,0,169.768c0-28.231,22.969-51.2,51.2-51.2h409.6
	C489.031,118.568,512,141.537,512,169.768z M479.663,191.326V256c0,75.78-61.651,137.432-137.432,137.432
	c-16.092,0-31.307-8.525-39.71-22.25l-25.29-41.307c-4.493-7.337-12.63-11.896-21.232-11.896s-16.739,4.558-21.231,11.896
	l-25.291,41.308c-8.402,13.724-23.618,22.249-39.71,22.249c-75.78,0-137.432-61.651-137.432-137.432v-64.674
	c0-16.344,13.298-29.642,29.642-29.642h388.042C466.365,161.684,479.663,174.982,479.663,191.326z M463.495,191.326
	c0-7.43-6.044-13.474-13.474-13.474H61.979c-7.43,0-13.474,6.044-13.474,13.474V256c0,66.865,54.398,121.263,121.263,121.263
	c10.504,0,20.436-5.564,25.92-14.522l25.291-41.308c7.411-12.103,20.829-19.622,35.021-19.622c14.19,0,27.61,7.519,35.022,19.621
	l25.29,41.308c5.484,8.958,15.416,14.524,25.92,14.524c66.865,0,121.263-54.398,121.263-121.263V191.326z"/>
<g>
</g>
<g>
</g>
<g>
</g>
<g>
</g>
<g>
</g>
<g>
</g>
<g>
</g>
<g>
</g>
<g>
</g>
<g>
</g>
<g>
</g>
<g>
</g>
<g>
</g>
<g>
</g>
<g>
</g>
</svg>
