<?xml version="1.0" encoding="iso-8859-1"?>
<!-- Generator: Adobe Illustrator 19.0.0, SVG Export Plug-In . SVG Version: 6.00 Build 0)  -->
<svg version="1.1" id="Layer_1" xmlns="http://www.w3.org/2000/svg" xmlns:xlink="http://www.w3.org/1999/xlink" x="0px" y="0px"
	 viewBox="0 0 512 512" style="enable-background:new 0 0 512 512;" xml:space="preserve">
<path style="fill:#007DBC;" d="M502.07,266.619l-30.221,173.768c-2.694,15.487-13.592,28.303-28.465,33.395
	c-56.289,19.272-119.957,30.133-187.383,30.133s-131.095-10.861-187.383-30.133c-14.873-5.092-25.771-17.908-28.465-33.395
	L9.931,266.619c-1.229-7.067-1.846-14.226-1.846-21.398l0,0c0-130.967,106.169-237.137,237.137-237.137h21.558
	c130.967,0,237.137,106.169,237.137,237.137l0,0C503.916,252.393,503.299,259.553,502.07,266.619z"/>
<path style="fill:#266DAD;" d="M481.444,385.212l-9.595,55.176c-2.694,15.487-13.592,28.303-28.465,33.395
	c-56.289,19.272-119.957,30.133-187.383,30.133s-131.095-10.861-187.383-30.133c-14.873-5.092-25.771-17.908-28.465-33.395
	L9.931,266.619c-1.229-7.067-1.846-14.226-1.846-21.398l0,0c0-80.31,39.93-151.285,101.01-194.183
	c-2.616,15.836-3.999,32.089-3.999,48.667c0,163.708,132.713,296.421,296.421,296.421
	C429.212,396.126,456.016,392.316,481.444,385.212z"/>
<path style="fill:#FFFFFF;" d="M458.106,256c0,4.465-3.62,8.084-8.084,8.084s-8.084-3.62-8.084-8.084
	c0-86.94-59.048-161.409-143.594-181.096c-4.349-1.012-7.053-5.358-6.04-9.706c1.012-4.348,5.356-7.053,9.706-6.041
	c43.694,10.174,83.323,35.144,111.591,70.308C442.301,165.165,458.106,210.103,458.106,256z M257.31,53.899l-1.31-0.004
	c-4.465,0-8.084,3.62-8.084,8.084s3.62,8.084,8.084,8.084l1.209,0.004c0.017,0,0.034,0,0.052,0c4.441,0,8.055-3.586,8.083-8.034
	C265.372,57.569,261.775,53.927,257.31,53.899z"/>
<path d="M440.177,71.823C393.86,25.507,332.281,0,266.779,0h-21.558C179.72,0,118.141,25.507,71.824,71.823
	C25.508,118.14,0.001,179.72,0.001,245.221c0,7.614,0.662,15.281,1.966,22.783l30.221,173.77
	c3.204,18.419,16.16,33.615,33.811,39.658C125.243,501.716,189.169,512,256.001,512s130.757-10.284,190.002-30.568
	c17.652-6.043,30.608-21.239,33.81-39.658l30.222-173.771c1.304-7.503,1.965-15.168,1.965-22.782
	C512.001,179.72,486.493,118.14,440.177,71.823z M494.105,265.233l-30.221,173.77c-2.192,12.604-11.052,23-23.12,27.132
	c-57.554,19.705-119.719,29.697-184.764,29.697s-127.21-9.992-184.765-29.697c-12.068-4.132-20.926-14.528-23.119-27.132
	l-30.22-173.77c-1.147-6.59-1.728-13.323-1.728-20.012c0-126.3,102.752-229.053,229.053-229.053h21.558
	c126.3,0,229.053,102.752,229.053,229.053C495.832,251.909,495.251,258.643,494.105,265.233z M326.447,397.335
	c3.125,3.188,3.074,8.307-0.114,11.432c-11.186,10.963-25.964,17.002-41.612,17.002c-13.134,0-25.656-4.253-35.953-12.103
	c-10.299,7.849-22.82,12.103-35.954,12.103c-15.649,0-30.427-6.038-41.612-17.001c-3.188-3.125-3.24-8.244-0.114-11.432
	c3.126-3.187,8.243-3.239,11.432-0.114c8.145,7.983,18.904,12.38,30.294,12.38c11.39,0,22.15-4.397,30.294-12.38
	c3.144-3.08,8.174-3.078,11.318,0c8.145,7.983,18.904,12.38,30.294,12.38s22.15-4.397,30.294-12.38
	C318.204,394.096,323.323,394.147,326.447,397.335z M326.447,347.352c3.125,3.188,3.074,8.307-0.114,11.432
	c-11.186,10.963-25.964,17.001-41.612,17.001c-13.134,0-25.656-4.253-35.953-12.103c-10.298,7.848-22.82,12.103-35.953,12.103
	c-15.649,0-30.427-6.038-41.612-17.001c-3.188-3.125-3.24-8.244-0.114-11.432c3.126-3.187,8.243-3.239,11.432-0.114
	c8.145,7.983,18.904,12.38,30.294,12.38c11.39,0,22.15-4.397,30.294-12.38c3.144-3.08,8.174-3.078,11.318,0
	c8.145,7.983,18.904,12.38,30.294,12.38s22.15-4.397,30.294-12.38C318.204,344.112,323.323,344.164,326.447,347.352z"/>
<g>
</g>
<g>
</g>
<g>
</g>
<g>
</g>
<g>
</g>
<g>
</g>
<g>
</g>
<g>
</g>
<g>
</g>
<g>
</g>
<g>
</g>
<g>
</g>
<g>
</g>
<g>
</g>
<g>
</g>
</svg>
