<?xml version="1.0" encoding="iso-8859-1"?>
<!-- Generator: Adobe Illustrator 19.0.0, SVG Export Plug-In . SVG Version: 6.00 Build 0)  -->
<svg version="1.1" id="Layer_1" xmlns="http://www.w3.org/2000/svg" xmlns:xlink="http://www.w3.org/1999/xlink" x="0px" y="0px"
	 viewBox="0 0 512 512" style="enable-background:new 0 0 512 512;" xml:space="preserve">
<path style="fill:#F93100;" d="M212.884,126.653h-43.116V83.537c0-11.906,9.651-21.558,21.558-21.558s21.558,9.651,21.558,21.558
	V126.653z M493.137,342.232H169.768l0,0c0,59.531,48.258,107.789,107.789,107.789h129.347c53.578,0,97.011-43.433,97.011-97.011l0,0
	C503.916,347.057,499.09,342.232,493.137,342.232z"/>
<path style="fill:#F96800;" d="M406.905,342.232L29.642,385.347l0,0c-11.906,0-21.558-9.651-21.558-21.558v-70.063
	c0-110.132,89.279-199.41,199.411-199.41l0,0c110.132,0,199.411,89.279,199.411,199.41V342.232z"/>
<path style="fill:#F99900;" d="M94.316,377.956V306.9c0-83.623,35.648-158.909,92.561-211.528c0.412-0.042,0.827-0.071,1.238-0.111
	C252.24,148.09,293.127,228.109,293.127,317.68v37.556L94.316,377.956z"/>
<path d="M493.137,334.147h-78.147v-40.421c0-109.886-85.865-200.078-194.021-207.045v-3.144c0-16.345-13.298-29.642-29.642-29.642
	s-29.642,13.297-29.642,29.642v7.801C69.241,112.251,0,195.05,0,293.726v70.063c0,16.345,13.298,29.642,29.642,29.642
	c0.306,0,0.613-0.017,0.918-0.052l64.58-7.38c0.002,0,0.005-0.001,0.008-0.001l72.09-8.238
	c15.293,47.538,59.993,80.345,110.32,80.345h129.347C464.855,458.105,512,410.96,512,353.01
	C512,342.61,503.537,334.147,493.137,334.147z M177.853,83.537c0-7.43,6.044-13.474,13.474-13.474S204.8,76.107,204.8,83.537v2.729
	c-9.135,0.117-18.13,0.826-26.947,2.092V83.537z M29.235,377.257c-7.242-0.216-13.066-6.174-13.066-13.467v-70.063
	c0-105.498,85.828-191.326,191.326-191.326s191.326,85.828,191.326,191.326v41.293l-97.61,11.155v-28.495
	c0-41.917-8.583-82.431-25.512-120.416c-1.818-4.08-6.6-5.909-10.674-4.094c-4.078,1.817-5.91,6.597-4.094,10.674
	c15.999,35.901,24.111,74.2,24.111,113.834v30.343L102.4,368.895V306.9c0-56.94,16.998-111.738,49.155-158.469
	c2.531-3.678,1.601-8.712-2.077-11.242c-3.678-2.531-8.713-1.601-11.244,2.077c-34.021,49.44-52.003,107.407-52.003,167.634v63.843
	L29.235,377.257z M406.905,441.937H277.558c-42.213,0-79.812-26.824-93.872-66.058l223.681-25.563h85.769
	c1.486,0,2.695,1.209,2.695,2.695C495.832,402.045,455.939,441.937,406.905,441.937z M245.356,173.908
	c-2.287-3.835-1.032-8.797,2.804-11.084c3.833-2.287,8.797-1.033,11.083,2.804l0.468,0.784c2.274,3.842,1.006,8.801-2.837,11.075
	c-1.292,0.765-2.711,1.129-4.111,1.129c-2.763,0-5.454-1.416-6.963-3.967L245.356,173.908z"/>
<g>
</g>
<g>
</g>
<g>
</g>
<g>
</g>
<g>
</g>
<g>
</g>
<g>
</g>
<g>
</g>
<g>
</g>
<g>
</g>
<g>
</g>
<g>
</g>
<g>
</g>
<g>
</g>
<g>
</g>
</svg>
