<?xml version="1.0" encoding="iso-8859-1"?>
<!-- Generator: Adobe Illustrator 19.0.0, SVG Export Plug-In . SVG Version: 6.00 Build 0)  -->
<svg version="1.1" id="Layer_1" xmlns="http://www.w3.org/2000/svg" xmlns:xlink="http://www.w3.org/1999/xlink" x="0px" y="0px"
	 viewBox="0 0 512 512" style="enable-background:new 0 0 512 512;" xml:space="preserve">
<path style="fill:#FF0000;" d="M60.844,331.453L60.844,331.453c-21.436,0-39.561-15.857-42.395-37.089L8.28,218.154
	c-3.418-25.62,16.528-48.386,42.395-48.386l0,0c21.436,0,39.561,15.857,42.395,37.089l10.169,76.209
	C106.656,308.688,86.71,331.453,60.844,331.453z M451.156,331.453L451.156,331.453c21.436,0,39.561-15.857,42.395-37.089
	l10.169-76.209c3.419-25.62-16.527-48.386-42.395-48.386l0,0c-21.436,0-39.561,15.857-42.395,37.089l-10.169,76.209
	C405.343,308.688,425.29,331.453,451.156,331.453z"/>
<path style="fill:#BC0000;" d="M256,503.916L256,503.916c-92.06,0-169.343-69.285-179.291-160.738L55.85,151.409
	C47.526,74.89,107.509,8.084,184.536,8.084h142.928c77.026,0,137.01,66.806,128.687,143.324l-20.86,191.769
	C425.342,434.631,348.06,503.916,256,503.916z"/>
<path style="fill:#A50000;" d="M456.15,151.409l-20.861,191.769C425.342,434.631,348.06,503.916,256,503.916l0,0
	c-56.101,0-106.715-25.73-139.946-66.528c80.297-11.568,144.4-76.153,153.4-158.883l20.861-191.769
	c3.106-28.56-3.306-55.765-16.566-78.651h53.716C404.491,8.084,464.473,74.89,456.15,151.409z"/>
<path style="fill:#720000;" d="M333.056,264.798l-21.224,6.06c-13.893,3.967-23.471,16.655-23.471,31.093v7.945
	c0,17.86,14.488,32.337,32.361,32.337l0,0c5.958,0,10.788,4.826,10.788,10.779l0,0c0,41.671-33.807,75.453-75.509,75.453l0,0
	c-41.703,0-75.509-33.781-75.509-75.453l0,0c0-5.953,4.83-10.779,10.786-10.779l0,0c17.873,0,32.361-14.477,32.361-32.337v-7.945
	c0-14.437-9.578-27.126-23.471-31.093l-21.224-6.06c-18.686-5.335-32.379-21.303-34.789-40.573l0,0
	c-3.617-28.916,18.946-54.455,48.109-54.455h127.474c29.162,0,51.726,25.54,48.109,54.455l0,0
	C365.434,243.493,351.742,259.462,333.056,264.798z"/>
<path style="fill:#FF0000;" d="M309.952,126.653H202.048c-11.906,0-21.558-9.651-21.558-21.558V83.537
	c0-11.906,9.651-21.558,21.558-21.558h107.903c11.906,0,21.558,9.651,21.558,21.558v21.558
	C331.51,117.001,321.857,126.653,309.952,126.653z"/>
<path style="fill:#FFFFFF;" d="M132.621,67.408c2.957,3.347,2.638,8.456-0.712,11.411c-16.827,14.84-26.478,36.203-26.478,58.613
	v32.337c0,4.465-3.622,8.084-8.091,8.084c-4.468,0-8.091-3.62-8.091-8.084v-32.337c0-27.044,11.646-52.827,31.952-70.736
	C124.552,63.741,129.664,64.06,132.621,67.408z M157.174,49.692c-0.736-4.403-4.897-7.375-9.312-6.644l-1.064,0.178
	c-4.408,0.735-7.384,4.9-6.648,9.304c0.661,3.954,4.087,6.755,7.97,6.755c0.442,0,0.89-0.037,1.342-0.111l1.064-0.178
	C154.932,58.262,157.909,54.096,157.174,49.692z"/>
<path style="fill:#F96800;" d="M331.51,83.537v10.779H180.49V83.537c0-11.906,9.659-21.558,21.574-21.558h107.87
	C321.851,61.979,331.51,71.63,331.51,83.537z"/>
<path d="M499.406,179.029c-9.171-10.466-22.211-16.684-36.057-17.285l1.029-9.462c4.216-38.75-8.307-77.615-34.357-106.629
	C403.972,16.639,366.658,0,327.65,0H184.722C145.714,0,108.4,16.641,82.351,45.653C56.3,74.666,43.777,113.531,47.993,152.282
	l1.028,9.452c-13.982,0.506-27.174,6.736-36.426,17.295C2.937,190.051-1.49,204.701,0.447,219.223l10.169,76.208
	c2.127,15.938,11.821,30.082,25.933,37.835c1.236,0.679,2.573,1.001,3.89,1.001c2.855,0,5.624-1.513,7.097-4.191
	c2.153-3.913,0.723-8.827-3.192-10.979c-9.627-5.288-16.24-14.934-17.689-25.803l-10.169-76.208
	c-1.321-9.903,1.698-19.891,8.283-27.408c6.565-7.494,16.04-11.799,26.005-11.824l18.078,166.198
	C79.267,439.798,159.803,512,256.185,512c96.383,0,176.919-72.202,187.333-167.948l18.077-166.188
	c9.829,0.129,19.151,4.413,25.636,11.814c6.585,7.516,9.604,17.505,8.283,27.408l-10.169,76.208
	c-1.45,10.868-8.063,20.514-17.689,25.803c-3.916,2.151-5.344,7.067-3.192,10.979c1.472,2.676,4.242,4.191,7.097,4.191
	c1.318,0,2.655-0.322,3.89-1.001c14.112-7.752,23.806-21.896,25.933-37.835l10.169-76.208
	C513.49,204.701,509.064,190.05,499.406,179.029z M448.292,150.534l-20.859,191.77c-9.521,87.525-83.14,153.527-171.247,153.527
	c-88.106,0-161.726-66.002-171.247-153.527l-20.859-191.77c-3.72-34.192,7.331-68.484,30.317-94.084s55.907-40.282,90.326-40.282
	h142.927c34.419,0,67.344,14.682,90.328,40.283C440.962,82.051,452.012,116.344,448.292,150.534z M319.922,161.684H192.449
	c-16.219,0-31.678,6.969-42.412,19.119c-10.735,12.149-15.737,28.342-13.725,44.423c2.818,22.524,18.752,41.108,40.595,47.345
	l21.225,6.059c10.365,2.959,17.603,12.548,17.603,23.319v7.945c0,13.372-10.888,24.253-24.271,24.253
	c-10.409,0-18.877,8.463-18.877,18.863c0,46.062,37.503,83.537,83.599,83.537s83.599-37.475,83.599-83.537
	c0-10.401-8.468-18.863-18.877-18.863c-13.383,0-24.271-10.88-24.271-24.253v-7.945c0-10.77,7.239-20.36,17.604-23.319l21.225-6.06
	c21.841-6.237,37.776-24.82,40.595-47.343c0,0,0,0,0-0.001c2.011-16.082-2.992-32.273-13.726-44.424
	C351.599,168.653,336.141,161.684,319.922,161.684z M360.003,223.221c-2.012,16.082-13.389,29.35-28.984,33.803l-21.225,6.059
	c-17.274,4.932-29.339,20.914-29.339,38.867v7.945c0,22.289,18.146,40.421,40.451,40.421c1.487,0,2.697,1.208,2.697,2.695
	c0,37.148-30.244,67.368-67.419,67.368s-67.419-30.221-67.419-67.368c0-1.486,1.209-2.695,2.697-2.695
	c22.305,0,40.451-18.132,40.451-40.421v-7.945c0-17.951-12.064-33.933-29.338-38.867l-21.225-6.058
	c-15.596-4.454-26.973-17.722-28.984-33.804c-1.437-11.482,2.134-23.043,9.799-31.718c7.664-8.675,18.701-13.65,30.281-13.65
	h127.474c11.58,0,22.617,4.974,30.28,13.65C357.867,200.178,361.439,211.739,360.003,223.221z M202.249,134.737h107.871
	c16.356,0,29.665-13.298,29.665-29.642V83.537c0-16.344-13.308-29.642-29.665-29.642H202.249c-16.356,0-29.665,13.298-29.665,29.642
	v21.558C172.586,121.439,185.894,134.737,202.249,134.737z M188.766,83.537c0-7.43,6.049-13.474,13.483-13.474h107.871
	c7.435,0,13.483,6.044,13.483,13.474v21.558c0,7.43-6.049,13.474-13.483,13.474H202.249c-7.435,0-13.483-6.044-13.483-13.474V83.537
	z"/>
<g>
</g>
<g>
</g>
<g>
</g>
<g>
</g>
<g>
</g>
<g>
</g>
<g>
</g>
<g>
</g>
<g>
</g>
<g>
</g>
<g>
</g>
<g>
</g>
<g>
</g>
<g>
</g>
<g>
</g>
</svg>
