<?xml version="1.0" encoding="iso-8859-1"?>
<!-- Generator: Adobe Illustrator 19.0.0, SVG Export Plug-In . SVG Version: 6.00 Build 0)  -->
<svg version="1.1" id="Layer_1" xmlns="http://www.w3.org/2000/svg" xmlns:xlink="http://www.w3.org/1999/xlink" x="0px" y="0px"
	 viewBox="0 0 512 512" style="enable-background:new 0 0 512 512;" xml:space="preserve">
<path style="fill:#BC0000;" d="M450.021,417.683c5.953,0,10.779,4.826,10.779,10.779v75.453H203.076
	c-14.114,0-27.334-6.908-35.394-18.493L46.693,311.5C21.558,275.368,8.084,232.406,8.084,188.391V79.354
	c0-10.141,7.069-18.912,16.978-21.065l219.652-47.751c7.502-1.631,15.156-2.453,22.833-2.453l0,0
	c20.61,0,40.785,5.925,58.122,17.071l124.351,79.94l10.747,63.617c0.969,5.74-2.793,11.211-8.498,12.361l-22.713,4.579
	l-50.332,122.74c-2.272,5.54-2.137,11.776,0.372,17.213l42.497,92.078L450.021,417.683z"/>
<path style="fill:#FF0000;" d="M191.85,22.03l52.864-11.493c7.502-1.631,15.156-2.453,22.833-2.453l0,0
	c20.61,0,40.785,5.925,58.122,17.071l124.351,79.94l10.747,63.617c0.969,5.74-2.793,11.211-8.498,12.361l-22.713,4.579l-39.6,96.57
	l-66.469-78.79l-10.899-75.08l-69.22-16.656L191.85,22.03L191.85,22.03z"/>
<path style="fill:#990000;" d="M300.087,503.915h-97.011c-14.114,0-27.334-6.908-35.394-18.493L46.693,311.5
	C21.558,275.368,8.084,232.406,8.084,188.39V79.354c0-10.141,7.069-18.912,16.978-21.065l80.033-17.398v38.464v73.708v35.33
	c0,44.016,13.474,86.976,38.609,123.11l120.988,173.922C272.753,497.006,285.973,503.915,300.087,503.915z"/>
<path style="fill:#F96800;" d="M492.198,503.915H363.789V450.02h128.409c6.472,0,11.718,5.246,11.718,11.718v30.459
	C503.916,498.669,498.67,503.915,492.198,503.915z"/>
<path style="fill:#FF0000;" d="M90.539,281.816l-16.025-37.391c-5.474-12.771,2.386-27.307,16.068-29.722l118.311-20.879
	c16.642-2.937,30.039,13.546,23.762,29.236l-23.307,58.269c-3.274,8.184-11.2,13.551-20.017,13.551h-78.978
	C101.73,294.881,93.936,289.741,90.539,281.816z"/>
<path style="fill:#720000;" d="M449.174,104.549L8.084,180.333v-44.024l385.539-67.47L449.174,104.549z M98.065,385.346h214.523
	v-42.829H68.271L98.065,385.346z M385.347,385.346h-43.116v118.568h43.116V385.346z"/>
<path style="fill:#470000;" d="M379.596,325.606l42.497,92.078H298.55c-4.205,0-8.025-2.445-9.787-6.262l-34.931-75.684
	c-5.447-11.802-5.28-25.432,0.457-37.096l42.384-86.181c1.533-3.117,4.474-5.304,7.901-5.876l124.937-20.823l-50.287,122.631
	C376.952,313.933,377.086,320.168,379.596,325.606z"/>
<path d="M493.137,441.936h-24.253v-13.474c0-10.401-8.463-18.863-18.863-18.863h-22.755l-40.33-87.382
	c-1.563-3.386-1.647-7.307-0.232-10.757l48.69-118.737l18.473-3.724c10.046-2.025,16.579-11.527,14.872-21.632l-10.747-63.617
	c-0.379-2.243-1.685-4.223-3.599-5.454l-124.35-79.941C311.364,6.348,289.753,0,267.547,0c-8.242,0-16.502,0.887-24.55,2.638
	L23.346,50.388C9.819,53.329,0,65.51,0,79.354v109.038c0,45.887,13.852,90.055,40.057,127.726l120.989,173.92
	c9.566,13.752,25.279,21.961,42.03,21.961h68.004c0.005,0,0.012,0.001,0.017,0.001c0.005,0,0.01-0.001,0.015-0.001h222.024
	c10.401,0,18.863-8.463,18.863-18.863v-32.337C512,450.398,503.537,441.936,493.137,441.936z M452.716,428.462v13.474h-59.284
	v-16.168h28.661h27.928C451.506,425.767,452.716,426.976,452.716,428.462z M275.428,495.83l-67.956-102.4h64.085l9.867,21.378
	c3.072,6.658,9.795,10.959,17.127,10.959h35.596v70.063H275.428z M192.446,377.262h-87.352c-0.882,0-1.728,0.146-2.522,0.406
	l-18.831-27.067h168.047l12.305,26.661h-71.62C192.465,377.262,192.456,377.262,192.446,377.262z M350.316,425.767h26.947v70.063
	h-26.947V425.767z M371.743,305.324c-3.113,7.593-2.926,16.219,0.512,23.668l37.202,80.606H298.55c-1.048,0-2.008-0.614-2.447-1.565
	l-34.931-75.684c-4.446-9.633-4.31-20.619,0.372-30.141l42.385-86.182c0.382-0.777,1.12-1.325,1.975-1.467l110.621-18.437
	L371.743,305.324z M450.672,173.149l-22.713,4.578c-0.332,0.067-0.656,0.154-0.973,0.261l-96.082,16.013l-9.28-60.116
	l119.014-20.827c0.86-0.151,1.661-0.435,2.393-0.824l9.768,57.824C453.04,171.503,452.107,172.861,450.672,173.149z M16.168,144.223
	l377.112-65.994l32.648,20.988L16.168,170.925V144.223z M187.923,31.158l36.422,60.222l-111.167,19.454V47.406L187.923,31.158z
	 M246.433,18.437c6.922-1.506,14.027-2.269,21.115-2.269c19.099,0,37.686,5.458,53.751,15.786l51.913,33.373l-131.78,23.062
	l-36.809-60.862L246.433,18.437z M26.78,66.188l70.23-15.267v62.741l-80.842,14.147V79.354
	C16.168,73.061,20.631,67.524,26.78,66.188z M16.168,188.391v-1.052l289.524-50.666l9.26,59.986l-11.706,1.951
	c-5.982,0.996-11.151,4.84-13.827,10.282l-42.384,86.182c-6.094,12.393-6.904,26.48-2.422,39.359H72.495l-19.165-27.55
	C29.018,271.937,16.168,230.962,16.168,188.391z M174.318,480.805l-60.781-87.373h74.53l67.956,102.4h-52.947
	C191.614,495.83,180.863,490.214,174.318,480.805z M495.832,493.136c0,1.486-1.209,2.695-2.695,2.695h-99.705v-37.726h99.705
	c1.485,0,2.695,1.208,2.695,2.695V493.136z M83.109,285.001c4.678,10.914,15.372,17.965,27.245,17.965h78.978
	c12.191,0,22.994-7.314,27.522-18.634l23.307-58.269c4.053-10.131,2.364-21.237-4.52-29.706
	c-6.882-8.468-17.411-12.395-28.154-10.494L89.176,206.742c-8.967,1.582-16.594,7.084-20.925,15.095
	c-4.33,8.01-4.757,17.403-1.17,25.772L83.109,285.001z M82.476,229.525c1.968-3.641,5.435-6.141,9.511-6.861l118.312-20.879
	c0.811-0.143,1.618-0.212,2.417-0.212c4.011,0,7.772,1.773,10.38,4.983c3.129,3.849,3.897,8.897,2.054,13.503l-23.307,58.269
	c-2.059,5.146-6.969,8.47-12.51,8.47h-78.978c-5.397,0-10.258-3.206-12.384-8.166l-16.025-37.39
	C80.314,237.436,80.508,233.166,82.476,229.525z"/>
<g>
</g>
<g>
</g>
<g>
</g>
<g>
</g>
<g>
</g>
<g>
</g>
<g>
</g>
<g>
</g>
<g>
</g>
<g>
</g>
<g>
</g>
<g>
</g>
<g>
</g>
<g>
</g>
<g>
</g>
</svg>
