<?xml version="1.0" encoding="iso-8859-1"?>
<!-- Generator: Adobe Illustrator 19.0.0, SVG Export Plug-In . SVG Version: 6.00 Build 0)  -->
<svg version="1.1" id="Layer_1" xmlns="http://www.w3.org/2000/svg" xmlns:xlink="http://www.w3.org/1999/xlink" x="0px" y="0px"
	 viewBox="0 0 511.999 511.999" style="enable-background:new 0 0 511.999 511.999;" xml:space="preserve">
<path style="fill:#FFB150;" d="M8.084,78.494c0-8.201,4.636-15.719,11.999-19.328C85.459,27.132,167.243,8.084,256,8.084
	s170.541,19.047,235.917,51.083c7.364,3.609,11.999,11.127,11.999,19.328v247.222c0,8.201-4.636,15.719-11.999,19.328
	c-65.375,32.035-147.16,51.083-235.917,51.083S85.459,377.078,20.083,345.043c-7.363-3.608-11.999-11.127-11.999-19.328V78.494z"/>
<path style="fill:#F7A246;" d="M425.245,371.349C374.097,387.217,316.681,396.125,256,396.125
	c-88.757,0-170.541-19.047-235.917-51.082c-7.363-3.608-11.999-11.127-11.999-19.328V78.494c0-8.201,4.636-15.719,11.999-19.328
	c20.68-10.133,43.007-18.962,66.672-26.305L425.245,371.349z"/>
<path style="fill:#91CEC5;" d="M328.111,503.915H183.889c-20.701,0-38.481-14.712-42.355-35.048l-36.439-191.31h301.811
	l-36.44,191.309C366.592,489.201,348.812,503.915,328.111,503.915z"/>
<path style="fill:#AEE5DF;" d="M406.905,277.557l-36.44,191.309c-3.874,20.336-21.653,35.048-42.355,35.048h-72.111V277.557H406.905
	z"/>
<path style="fill:#91CEC5;" d="M299.116,503.915h-86.232l-43.116-226.357h172.463L299.116,503.915z"/>
<path style="fill:#AEE5DF;" d="M256,503.915h-43.116l-43.116-226.357H256V503.915z"/>
<path style="fill:#FF0000;" d="M396.194,309.894H115.806c-17.822,0-32.269-14.447-32.269-32.269v-0.136
	c0-17.822,14.447-32.269,32.269-32.269h280.39c17.822,0,32.269,14.447,32.269,32.269v0.136
	C428.463,295.447,414.016,309.894,396.194,309.894z"/>
<path style="fill:#A80000;" d="M428.463,277.557L428.463,277.557H83.537l0,0c0-17.859,14.477-32.337,32.337-32.337h280.253
	C413.986,245.22,428.463,259.698,428.463,277.557z"/>
<path style="fill:#79B7AC;" d="M135.891,439.241l-11.292-59.284h262.801l-11.292,59.284H135.891z"/>
<path style="fill:#66A397;" d="M200.565,439.241l-11.292-59.284h133.454l-11.292,59.284H200.565z"/>
<path style="fill:#5A968A;" d="M189.273,379.957H256v59.284h-55.435L189.273,379.957z"/>
<path d="M377.263,212.883v-86.232c0-7.43-6.044-13.474-13.474-13.474H148.211c-7.43,0-13.474,6.044-13.474,13.474v86.232
	c0,4.465-3.62,8.084-8.084,8.084s-8.084-3.62-8.084-8.084v-86.232c0-16.345,13.297-29.642,29.642-29.642h215.579
	c16.345,0,29.642,13.297,29.642,29.642v86.232c0,4.465-3.62,8.084-8.084,8.084S377.263,217.348,377.263,212.883z M407.762,316.263
	l-29.355,154.115c-4.593,24.116-25.746,41.62-50.296,41.62h-33.57c-0.012,0-0.024,0.001-0.036,0.001
	c-0.011,0-0.023-0.001-0.033-0.001h-76.943c-0.011,0-0.023,0.001-0.033,0.001c-0.012,0-0.024-0.001-0.036-0.001h-33.571
	c-24.55,0-45.703-17.504-50.296-41.62l-29.355-154.115c-16.633-5.009-28.785-20.462-28.785-38.706
	c0-22.289,18.132-40.421,40.421-40.421h280.253c22.289,0,40.421,18.132,40.421,40.421
	C436.547,295.801,424.395,311.254,407.762,316.263z M115.874,301.809h64.764c0.014,0,0.028,0,0.042,0h150.639
	c0.012,0,0.025,0,0.037,0h64.771c13.373,0,24.253-10.879,24.253-24.253s-10.879-24.253-24.253-24.253H115.874
	c-13.373,0-24.253,10.879-24.253,24.253S102.5,301.809,115.874,301.809z M287.806,495.83l33.877-177.853H190.317l10.266,53.895
	h44.638c4.465,0,8.084,3.62,8.084,8.084s-3.62,8.084-8.084,8.084h-41.559l8.212,43.116h22.568c4.465,0,8.084,3.62,8.084,8.084
	s-3.62,8.084-8.084,8.084h-19.487l9.239,48.505H287.806z M121.024,317.978l10.266,53.895h52.834l-10.266-53.895H121.024z
	 M142.582,431.157h52.834l-8.212-43.116h-52.834L142.582,431.157z M183.889,495.83h23.845l-9.239-48.505h-52.834l3.815,20.028
	C152.619,483.854,167.092,495.83,183.889,495.83z M390.976,317.978h-52.834L304.265,495.83h23.846
	c16.797,0,31.27-11.976,34.413-28.477L390.976,317.978z M278.636,371.873h-1.078c-4.465,0-8.084,3.62-8.084,8.084
	s3.62,8.084,8.084,8.084h1.078c4.465,0,8.084-3.62,8.084-8.084S283.1,371.873,278.636,371.873z M343.309,371.873h-1.078
	c-4.465,0-8.084,3.62-8.084,8.084s3.62,8.084,8.084,8.084h1.078c4.465,0,8.084-3.62,8.084-8.084S347.774,371.873,343.309,371.873z
	 M267.857,431.157h-1.078c-4.465,0-8.084,3.62-8.084,8.084s3.62,8.084,8.084,8.084h1.078c4.465,0,8.084-3.62,8.084-8.084
	S272.321,431.157,267.857,431.157z M495.474,51.907C426.174,17.949,343.366,0,256,0S85.826,17.949,16.526,51.907
	C6.487,56.827,0,67.263,0,78.494v247.222c0,11.232,6.487,21.668,16.526,26.587c20.079,9.839,41.835,18.501,64.662,25.747
	c4.258,1.352,8.801-1.004,10.151-5.259c1.351-4.256-1.005-8.801-5.259-10.151c-22.068-7.004-43.075-15.366-62.439-24.855
	c-4.539-2.226-7.472-6.963-7.472-12.07V78.494c0-5.107,2.933-9.844,7.473-12.068C90.738,33.547,171.087,16.168,256,16.168
	s165.262,17.379,232.359,50.257c4.539,2.224,7.473,6.961,7.473,12.068v247.222c0,5.107-2.933,9.843-7.473,12.068
	c-19.455,9.533-40.431,17.896-62.342,24.855c-4.256,1.352-6.609,5.897-5.257,10.152c1.093,3.442,4.274,5.638,7.703,5.638
	c0.811,0,1.636-0.123,2.449-0.382c22.67-7.2,44.392-15.862,64.562-25.746c10.04-4.92,16.526-15.356,16.526-26.587V78.494
	C512,67.263,505.513,56.827,495.474,51.907z"/>
<g>
</g>
<g>
</g>
<g>
</g>
<g>
</g>
<g>
</g>
<g>
</g>
<g>
</g>
<g>
</g>
<g>
</g>
<g>
</g>
<g>
</g>
<g>
</g>
<g>
</g>
<g>
</g>
<g>
</g>
</svg>
