<?xml version="1.0" encoding="iso-8859-1"?>
<!-- Generator: Adobe Illustrator 19.0.0, SVG Export Plug-In . SVG Version: 6.00 Build 0)  -->
<svg version="1.1" id="Layer_1" xmlns="http://www.w3.org/2000/svg" xmlns:xlink="http://www.w3.org/1999/xlink" x="0px" y="0px"
	 viewBox="0 0 512.002 512.002" style="enable-background:new 0 0 512.002 512.002;" xml:space="preserve">
<path style="fill:#3D3D3D;" d="M393.874,499.799l-2.059,4.118h-60.362l-10.779-32.337v-21.558h43.116v21.558h12.643
	c3.027,0,6.012,0.705,8.72,2.059l0,0C394.785,478.455,398.69,490.167,393.874,499.799z M180.353,473.639L180.353,473.639
	c-2.708-1.354-5.693-2.059-8.72-2.059h-12.644v-21.558h-43.116v21.558l10.779,32.337h60.362l2.059-4.118
	C193.89,490.167,189.985,478.455,180.353,473.639z"/>
<path style="fill:#4F2000;" d="M382.114,296.961l-25.68,174.619h-32.337V320.675L382.114,296.961z M122.341,471.58h32.337
	l25.68-161.684l-58.017,10.779V471.58z"/>
<path style="fill:#BC0000;" d="M172.643,417.685v43.116c0,5.953-4.826,10.779-10.779,10.779h-45.991
	c-5.953,0-10.779-4.826-10.779-10.779v-43.116c0-5.953,4.826-10.779,10.779-10.779h45.991
	C167.816,406.906,172.643,411.732,172.643,417.685z M364.148,406.906h-45.991c-5.953,0-10.779,4.826-10.779,10.779v43.116
	c0,5.953,4.826,10.779,10.779,10.779h45.991c5.953,0,10.779-4.826,10.779-10.779v-43.116
	C374.927,411.732,370.102,406.906,364.148,406.906z"/>
<path style="fill:#8E3900;" d="M503.916,96.862v12.961c0,14.024-13.181,24.316-26.787,20.914l-40.078-10.019
	c-10.929-2.732-22.118,3.41-25.68,14.097l-26.024,78.071v64.674c0,31.155-22.032,57.16-51.365,63.296L316.552,471.58h-43.116
	V342.233l1.03-0.515l-50.803-8.467l-37.117-6.186c-17.686-2.948-35.693-0.956-52.139,5.516l-18.533,139H72.758V354.628v-12.396
	v-1.859C60.201,335.932,51.2,323.972,51.2,309.896v10.779c0,23.812-19.304,43.116-43.116,43.116l0,0V256.001
	c0-23.812,19.304-43.116,43.116-43.116l0,0l0,0c12.564-18.846,36.612-26.316,57.643-17.903l10.203,4.081
	c5.035,2.015,10.376,3.158,15.794,3.385l144.648,6.027L353.01,40.422l7.924-23.771c1.705-5.116,6.493-8.566,11.885-8.566l0,0
	c6.919,0,12.528,5.609,12.528,12.528v19.808h6.891c16.733,0,33.238,3.897,48.205,11.379l51.556,25.778
	C499.302,81.231,503.916,88.696,503.916,96.862z"/>
<path style="fill:#BF4D00;" d="M148.211,220.068v-14.223c0-11.906,9.651-21.558,21.558-21.558l9.004,2.251
	c22.396,5.6,45.828,5.6,68.224,0l9.004-2.251c11.906,0,21.558,9.651,21.558,21.558v17.815c0,25.225-21.559,45.061-46.697,42.967
	l-43.116-3.593C165.4,261.173,148.211,242.492,148.211,220.068z"/>
<path style="fill:#4F2000;" d="M8.084,363.79L8.084,363.79V256.001c0-23.812,19.304-43.116,43.116-43.116l0,0v107.789
	C51.2,344.487,31.896,363.79,8.084,363.79z"/>
<path style="fill:#8C1A00;" d="M169.768,205.897v-21.609l9.004,2.251c22.396,5.6,45.828,5.6,68.224,0l9.004-2.251v24.303
	c0,19.451-17.047,34.5-36.348,32.087l-21.558-2.695C181.912,235.961,169.768,222.205,169.768,205.897z"/>
<path style="fill:#5B5B5B;" d="M344.29,499.799l-2.059,4.118h-46.125c-4.639,0-8.759-2.969-10.226-7.371l-8.322-24.966v-21.558
	h43.116v21.558h6.175c3.027,0,6.012,0.705,8.72,2.059l0,0C345.202,478.455,349.106,490.167,344.29,499.799z M130.77,473.639
	L130.77,473.639c-2.708-1.354-5.693-2.059-8.72-2.059h-6.176v-21.558H72.758v21.558l8.322,24.966
	c1.467,4.401,5.587,7.371,10.226,7.371h46.125l2.059-4.118C144.306,490.167,140.402,478.455,130.77,473.639z"/>
<path style="fill:#F93100;" d="M332.172,417.685v43.116c0,5.953-4.826,10.779-10.779,10.779h-45.991
	c-5.953,0-10.779-4.826-10.779-10.779v-43.116c0-5.953,4.826-10.779,10.779-10.779h45.991
	C327.345,406.906,332.172,411.732,332.172,417.685z M120.904,406.906H74.914c-5.953,0-10.779,4.826-10.779,10.779v43.116
	c0,5.953,4.826,10.779,10.779,10.779h45.991c5.953,0,10.779-4.826,10.779-10.779v-43.116
	C131.683,411.732,126.856,406.906,120.904,406.906z"/>
<path d="M495.614,70.349l-51.555-25.777c-15.651-7.826-33.129-12.044-50.628-12.228V20.614c0-11.366-9.246-20.613-20.613-20.613
	c-8.886,0-16.744,5.664-19.555,14.093l-7.807,23.423l-65.825,150.458c-5.418-7.146-13.993-11.773-23.632-11.773
	c-0.661,0-1.32,0.081-1.961,0.241l-9.004,2.252c-21.034,5.259-43.27,5.26-64.303,0l-9.004-2.252c-0.641-0.16-1.3-0.241-1.961-0.241
	c-12.391,0-23.025,7.647-27.448,18.465l-7.145-0.298c-4.513-0.189-8.93-1.135-13.129-2.813l-10.202-4.081
	c-23.125-9.248-49.729-1.859-64.892,17.516C20.702,207.159,0,229.201,0,256.001V363.79c0,4.466,3.62,8.084,8.084,8.084
	c21.678,0,40.239-13.549,47.695-32.618c2.64,2.502,5.626,4.66,8.895,6.389v56.221c-5.181,3.366-8.623,9.193-8.623,15.819v43.116
	c0,7.264,4.134,13.571,10.167,16.721l6.103,18.31H40.421c-4.465,0-8.084,3.618-8.084,8.084c0,4.466,3.62,8.084,8.084,8.084h43.116
	h49.583h4.312h49.583h25.869c4.465,0,8.084-3.618,8.084-8.084c0-4.466-3.62-8.084-8.084-8.084h-14.071
	c0.786-4.456,0.458-9.063-1.013-13.476c-2.329-6.989-7.242-12.653-13.833-15.949c-1.193-0.596-2.434-1.094-3.703-1.511
	c0.294-1.32,0.461-2.688,0.461-4.096v-43.116c0-5.899-2.726-11.169-6.979-14.631l10.818-68.113c0.218,0.035,0.435,0.063,0.652,0.098
	l80.135,13.356v53.356c-5.286,3.346-8.814,9.23-8.814,15.935v43.116c0,7.353,4.239,13.721,10.393,16.831L273.386,497
	c-2.343,1.415-3.915,3.979-3.915,6.917c0,4.466,3.618,8.084,8.084,8.084h6.658h50.661h3.234h50.661h50.472
	c4.466,0,8.084-3.618,8.084-8.084s-3.618-8.084-8.084-8.084H400.57c0.786-4.456,0.458-9.063-1.012-13.476
	c-2.33-6.989-7.243-12.653-13.833-15.949c-1.04-0.52-2.117-0.967-3.216-1.351c0.318-1.37,0.502-2.791,0.502-4.257v-43.116
	c0-6.444-3.251-12.136-8.195-15.541l15.02-102.135c0.387-1.185,0.743-2.38,1.07-3.587h18.778c26.86,0,49.3-20.994,51.087-47.794
	l7.453-111.786l6.946,1.736c8.914,2.229,18.185,0.263,25.432-5.393c7.245-5.657,11.4-14.172,11.4-23.364V96.861
	C512,85.562,505.722,75.403,495.614,70.349z M439.012,112.874c-14.931-3.731-30.442,4.782-35.311,19.383l-4.821,14.464
	l-22.556-43.242h81.344l-2.96,13.318L439.012,112.874z M365.116,280.254c-16.104,0-30.08-10.912-33.985-26.535
	c-0.019-0.077-0.04-0.154-0.061-0.23l-24.173-85.909c-0.085-0.305-0.192-0.597-0.308-0.883l38.534-88.076l46.648,89.43
	l-14.092,42.278c-0.275,0.825-0.415,1.688-0.415,2.557v64.674c0,0.902-0.026,1.8-0.069,2.695h-12.078V280.254z M360.417,43.662
	c0.098-0.223,0.186-0.452,0.263-0.683l7.924-23.771c0.605-1.817,2.3-3.039,4.216-3.039c2.45,0,4.444,1.994,4.444,4.444v19.808
	c0,4.466,3.618,8.084,8.084,8.084h6.892c15.398,0,30.817,3.64,44.589,10.527l27.646,13.823l-3.217,14.478
	c-0.153-0.009-0.303-0.024-0.457-0.024h-92.909l-14.45-27.703L360.417,43.662z M156.295,205.846c0-7.133,5.572-12.99,12.592-13.446
	l7.925,1.982c23.598,5.899,48.546,5.899,72.146,0l7.925-1.982c7.02,0.456,12.592,6.311,12.592,13.446v17.815
	c0,9.912-4.017,19.067-11.311,25.78c-7.294,6.711-16.745,9.954-26.629,9.132l-43.116-3.594
	c-18.013-1.502-32.122-16.836-32.122-34.911V205.846z M43.116,320.675c0,16.536-11.515,30.431-26.947,34.091v-98.764
	c0-16.534,11.517-30.419,26.947-34.08v77.524v10.449V320.675z M120.904,414.991c1.485,0,2.695,1.208,2.695,2.695v43.116
	c0,1.486-1.209,2.695-2.695,2.695H74.914c-1.485,0-2.695-1.208-2.695-2.695v-43.116c0-0.975,0.526-1.824,1.304-2.296
	c0.638-0.06,1.253-0.198,1.839-0.399H120.904z M83.974,479.664h38.076c1.762,0,3.528,0.417,5.105,1.205
	c2.727,1.365,4.76,3.707,5.725,6.6c0.923,2.768,0.761,5.724-0.451,8.363H89.364L83.974,479.664z M182.011,495.833H149.23
	c0.786-4.456,0.458-9.063-1.013-13.476c-1.872-5.619-5.436-10.356-10.176-13.719c1.097-2.391,1.727-5.038,1.727-7.836v-43.116
	c0-5.738-2.584-10.877-6.64-14.339l8.646-64.848c8.612-2.884,17.579-4.442,26.594-4.651l-10.319,64.975h-5.715
	c-4.465,0-8.084,3.618-8.084,8.084c0,4.466,3.62,8.084,8.084,8.084h9.531c1.485,0,2.695,1.208,2.695,2.695v43.116
	c0,1.486-1.209,2.695-2.695,2.695c-4.465,0-8.084,3.618-8.084,8.084s3.62,8.084,8.084,8.084c0.029,0,0.056-0.004,0.085-0.004
	c0.029,0,0.056,0.004,0.085,0.004h9.599c1.762,0,3.528,0.417,5.105,1.205c2.727,1.365,4.76,3.707,5.725,6.6
	C183.384,490.238,183.223,493.193,182.011,495.833z M187.876,319.09c-3.103-0.517-6.223-0.881-9.345-1.119
	c-0.133-0.013-0.265-0.026-0.398-0.032c-15.833-1.149-31.796,1.258-46.686,7.116c-2.731,1.075-4.665,3.545-5.053,6.454
	l-8.975,67.312H80.842v-52.104c1.622-1.677,2.476-4.013,2.237-6.422c-0.332-3.337-2.688-6.122-5.923-7.002
	c-10.522-2.861-17.871-12.483-17.871-23.398v-10.449v-83.988c10.711-14.167,29.904-19.633,46.555-12.969l10.203,4.081
	c5.904,2.361,12.114,3.692,18.46,3.955l5.623,0.235v9.31c0,26.417,20.622,48.829,46.948,51.022l43.116,3.594
	c1.409,0.117,2.817,0.176,4.221,0.176c12.78,0,25.232-4.812,34.699-13.521c10.506-9.668,16.533-23.401,16.533-37.678v-9.948
	c0.5-0.587,0.926-1.256,1.251-1.998l9.51-21.737l19.072,67.782c5.749,22.768,26.145,38.661,49.64,38.661h8.876
	c-6.48,18.172-22.044,32.416-41.667,36.521c-3.355,0.702-5.905,3.445-6.357,6.845l-7.872,59.034H281.52v-53.156
	c0.856-1.528,1.213-3.331,0.94-5.149c-0.521-3.462-3.211-6.197-6.666-6.772L187.876,319.09z M272.707,460.801v-43.116
	c0-1.486,1.208-2.695,2.695-2.695h45.991c1.486,0,2.695,1.208,2.695,2.695v43.116c0,1.486-1.208,2.695-2.695,2.695h-45.991
	C273.916,463.496,272.707,462.287,272.707,460.801z M284.653,479.664h36.74h1.336c1.762,0,3.527,0.417,5.105,1.205
	c2.727,1.365,4.76,3.707,5.725,6.6c0.922,2.768,0.76,5.724-0.452,8.363h-43.064L284.653,479.664z M383.767,495.833h-33.858
	c0.786-4.456,0.458-9.063-1.012-13.476c-1.892-5.675-5.508-10.45-10.32-13.819c1.069-2.364,1.678-4.979,1.678-7.737v-43.116
	c0-5.657-2.515-10.725-6.471-14.186l7.486-56.149c10.365-3.06,19.697-8.364,27.51-15.294l-9.817,66.766h-4.516
	c-4.466,0-8.084,3.618-8.084,8.084c0,4.466,3.618,8.084,8.084,8.084h9.701c1.486,0,2.695,1.208,2.695,2.695v43.116
	c0,1.486-1.208,2.695-2.695,2.695h-0.359c-4.466,0-8.084,3.618-8.084,8.084s3.618,8.084,8.084,8.084h9.6
	c1.762,0,3.527,0.417,5.105,1.205c2.727,1.365,4.76,3.707,5.725,6.6C385.141,490.238,384.979,493.192,383.767,495.833z
	 M444.638,247.553c-1.222,18.337-16.576,32.701-34.954,32.701h-16.309c0.033-0.896,0.056-1.794,0.056-2.695v-63.362l25.61-76.826
	c2.212-6.638,9.26-10.508,16.05-8.811l17.193,4.298L444.638,247.553z M495.832,109.822c0,4.178-1.888,8.049-5.183,10.62
	c-3.293,2.572-7.505,3.463-11.559,2.45l-8.691-2.173l8.98-40.411l9.003,4.501c4.595,2.298,7.448,6.916,7.448,12.052v12.961H495.832z
	 M392.354,68.447c0-4.466,3.618-8.084,8.084-8.084h5.389c4.466,0,8.084,3.618,8.084,8.084s-3.618,8.084-8.084,8.084h-5.389
	C395.972,76.532,392.354,72.913,392.354,68.447z M17.246,503.917c0,4.466-3.62,8.084-8.084,8.084H8.084
	c-4.465,0-8.084-3.618-8.084-8.084c0-4.466,3.62-8.084,8.084-8.084h1.078C13.627,495.833,17.246,499.451,17.246,503.917z
	 M254.383,503.917c0,4.466-3.62,8.084-8.084,8.084h-1.078c-4.465,0-8.084-3.618-8.084-8.084c0-4.466,3.62-8.084,8.084-8.084h1.078
	C250.764,495.833,254.383,499.451,254.383,503.917z M512,503.917c0,4.466-3.618,8.084-8.084,8.084h-1.078
	c-4.466,0-8.084-3.618-8.084-8.084c0-4.466,3.618-8.084,8.084-8.084h1.078C508.382,495.833,512,499.451,512,503.917z
	 M480.741,503.917c0,4.466-3.618,8.084-8.084,8.084h-1.078c-4.466,0-8.084-3.618-8.084-8.084c0-4.466,3.618-8.084,8.084-8.084h1.078
	C477.123,495.833,480.741,499.451,480.741,503.917z"/>
<g>
</g>
<g>
</g>
<g>
</g>
<g>
</g>
<g>
</g>
<g>
</g>
<g>
</g>
<g>
</g>
<g>
</g>
<g>
</g>
<g>
</g>
<g>
</g>
<g>
</g>
<g>
</g>
<g>
</g>
</svg>
