<?xml version="1.0" encoding="iso-8859-1"?>
<!-- Generator: Adobe Illustrator 19.0.0, SVG Export Plug-In . SVG Version: 6.00 Build 0)  -->
<svg version="1.1" id="Layer_1" xmlns="http://www.w3.org/2000/svg" xmlns:xlink="http://www.w3.org/1999/xlink" x="0px" y="0px"
	 viewBox="0 0 512 512" style="enable-background:new 0 0 512 512;" xml:space="preserve">
<path style="fill:#8E3900;" d="M431.303,431.303c-96.818,96.818-253.789,96.818-350.606,0s-96.818-253.789,0-350.606
	s253.789-96.818,350.606,0S528.12,334.486,431.303,431.303z"/>
<g>
	<path style="fill:#6D2C00;" d="M443.533,418.152c-3.892,4.492-7.961,8.883-12.23,13.151c-96.818,96.818-253.789,96.818-350.606,0
		s-96.818-253.789,0-350.606c4.268-4.268,8.66-8.338,13.151-12.23C139.674,130.658,194.178,194.178,256,256
		S381.342,372.326,443.533,418.152z"/>
	<path style="fill:#6D2C00;" d="M80.697,431.303L431.303,80.697c96.818,96.818,96.818,253.789,0,350.606
		S177.514,528.12,80.697,431.303z"/>
</g>
<path style="fill:#4F2000;" d="M80.697,431.303L256,256c61.822,61.822,125.342,116.326,187.533,162.152
	c-3.892,4.492-7.961,8.883-12.23,13.151C334.486,528.12,177.514,528.12,80.697,431.303z"/>
<path style="fill:#8E3900;" d="M497.243,198.781l-35.907,30.652c-42.774,36.515-106.435,34.005-146.202-5.762l-26.804-26.804
	c-39.768-39.768-42.277-103.428-5.762-146.202l30.652-35.907c43.273,10.22,84.334,32.189,118.084,65.939
	S487.022,155.509,497.243,198.781z"/>
<path style="fill:#4F2000;" d="M80.697,431.303c-33.75-33.75-55.72-74.811-65.939-118.084l35.907-30.652
	c42.774-36.515,106.435-34.005,146.202,5.762l26.804,26.804c39.768,39.768,42.277,103.427,5.762,146.202l-30.652,35.907
	C155.508,487.022,114.447,465.052,80.697,431.303z"/>
<path style="fill:#BF4D00;" d="M301.731,210.269l-13.401-13.401c-39.768-39.768-42.277-103.428-5.762-146.202l30.652-35.907
	c43.272,10.22,84.334,32.189,118.084,65.939L301.731,210.269z"/>
<path style="fill:#421B00;" d="M210.269,301.731l13.401,13.401c39.768,39.768,42.277,103.427,5.762,146.202l-30.652,35.907
	c-43.272-10.22-84.334-32.189-118.084-65.939L210.269,301.731z"/>
<path style="fill:#FFFFFF;" d="M270.49,459.143c0.168,4.461-3.312,8.215-7.774,8.383l-1.145,0.04
	c-2.324,0.073-4.45-0.842-5.973-2.365c-1.402-1.402-2.295-3.321-2.363-5.46c-0.141-4.462,3.363-8.194,7.826-8.335l1.046-0.036
	C266.568,451.2,270.322,454.68,270.49,459.143z M389.848,408.965c-2.808-3.46-7.902-4.001-11.371-1.19
	c-25.306,20.512-55.632,34.493-87.701,40.429c-4.39,0.813-7.29,5.031-6.478,9.421c0.309,1.67,1.111,3.124,2.227,4.24
	c1.818,1.818,4.473,2.741,7.194,2.238c34.715-6.426,67.543-21.56,94.939-43.767C392.126,417.525,392.659,412.434,389.848,408.965z
	 M245.644,42.099c-0.916,0.039-1.831,0.085-2.746,0.136c-4.458,0.247-7.872,4.06-7.625,8.519c0.114,2.067,0.996,3.91,2.353,5.268
	c1.569,1.569,3.775,2.49,6.166,2.357c0.846-0.047,1.693-0.089,2.541-0.125c4.46-0.191,7.923-3.96,7.733-8.422
	C253.875,45.371,250.104,41.911,245.644,42.099z M208.162,47.047c-24.598,5.498-47.772,15.21-68.879,28.867
	c-3.749,2.425-4.821,7.431-2.395,11.179c0.317,0.49,0.678,0.935,1.075,1.331c2.638,2.638,6.846,3.172,10.104,1.064
	c19.493-12.612,40.899-21.583,63.621-26.662c4.357-0.974,7.1-5.296,6.127-9.654C216.841,48.816,212.519,46.074,208.162,47.047z"/>
<path d="M437.019,74.981C388.667,26.628,324.379,0,256,0S123.333,26.628,74.981,74.981S0,187.62,0,256
	s26.628,132.667,74.981,181.019S187.62,512,256,512s132.667-26.628,181.019-74.981S512,324.379,512,256
	S485.372,123.333,437.019,74.981z M294.045,191.151c-36.536-36.536-38.878-95.939-5.33-135.237l27.344-32.031
	c37.708,9.69,73.499,28.664,103.705,56.921L301.732,198.836L294.045,191.151z M431.197,92.237
	c28.26,30.208,47.233,65.996,56.923,103.703l-32.033,27.345c-39.298,33.547-98.702,31.205-135.237-5.33l-7.685-7.685L431.197,92.237
	z M298.12,19.994l-21.701,25.422c-18.985,22.239-28.806,50.578-27.654,79.795s13.173,56.696,33.849,77.371l7.685,7.685
	l-34.272,34.272C199.94,187.908,149.513,128.883,105.966,68.895C149.632,33.824,202.805,16.281,256,16.281
	C270.099,16.281,284.197,17.529,298.12,19.994z M86.413,86.413c2.378-2.378,4.803-4.679,7.255-6.936
	c43.864,60.3,94.578,119.605,150.927,176.496l-34.326,34.326l-7.685-7.685c-20.676-20.676-48.154-32.697-77.371-33.849
	c-29.224-1.157-57.556,8.668-79.795,27.654L19.994,298.12C6.794,223.555,28.924,143.903,86.413,86.413z M217.955,320.849
	c36.536,36.536,38.878,95.939,5.33,135.237l-27.345,32.033c-37.708-9.689-73.495-28.662-103.703-56.923l118.033-118.033
	L217.955,320.849z M80.803,419.763c-28.26-30.208-47.233-65.996-56.923-103.703l32.033-27.345
	c39.298-33.547,98.701-31.205,135.237,5.33l7.685,7.685L80.803,419.763z M213.879,492.007l21.702-25.423
	c18.985-22.239,28.806-50.578,27.654-79.795c-1.151-29.217-13.173-56.696-33.849-77.371l-7.685-7.685l34.326-34.326
	c56.89,56.349,116.196,107.063,176.496,150.927c-2.257,2.452-4.558,4.877-6.936,7.255
	C368.098,483.076,288.445,505.206,213.879,492.007z M443.105,406.034c-59.989-43.547-119.014-93.975-175.645-150.061l34.272-34.272
	l7.685,7.685c20.676,20.676,48.154,32.697,77.371,33.849c1.541,0.061,3.076,0.091,4.611,0.091c27.576,0,54.118-9.761,75.184-27.745
	l25.423-21.702C503.768,280.321,487.468,350.793,443.105,406.034z"/>
<g>
</g>
<g>
</g>
<g>
</g>
<g>
</g>
<g>
</g>
<g>
</g>
<g>
</g>
<g>
</g>
<g>
</g>
<g>
</g>
<g>
</g>
<g>
</g>
<g>
</g>
<g>
</g>
<g>
</g>
</svg>
