<?xml version="1.0" encoding="iso-8859-1"?>
<!-- Generator: Adobe Illustrator 19.0.0, SVG Export Plug-In . SVG Version: 6.00 Build 0)  -->
<svg version="1.1" id="Layer_1" xmlns="http://www.w3.org/2000/svg" xmlns:xlink="http://www.w3.org/1999/xlink" x="0px" y="0px"
	 viewBox="0 0 512 512" style="enable-background:new 0 0 512 512;" xml:space="preserve">
<path style="fill:#636363;" d="M503.916,476.968L503.916,476.968c0,14.882-12.065,26.947-26.947,26.947H35.032
	c-14.882,0-26.947-12.065-26.947-26.947l0,0c0-13.037,9.258-23.91,21.558-26.407v-10.6h441.937v10.06h5.389
	C491.851,450.021,503.916,462.086,503.916,476.968z"/>
<path style="fill:#BCBCBC;" d="M471.579,400.872v49.149c0,11.906-9.651,21.558-21.558,21.558H161.874
	c-0.452,0-0.871-0.237-1.104-0.625l0,0c-7.792-12.986-21.826-20.933-36.972-20.933H29.642v-28.588
	c0-64.735,3.299-129.429,9.885-193.829l19.52-190.855C60.712,20.467,74.426,8.084,90.793,8.084h1.083
	c8.464,0,16.58,3.362,22.565,9.346l18.272,18.272c9.337,9.337,23.459,11.958,35.524,6.596l70.795-31.465
	c4.08-1.813,8.495-2.751,12.961-2.751l0,0c19.263,0,34.135,16.937,31.643,36.038l-22.896,175.535
	c-2.734,20.954,10.124,40.802,30.364,46.874l103.658,31.097C440.356,311.307,471.579,353.271,471.579,400.872z"/>
<path style="fill:#004859;" d="M239.033,10.835c4.08-1.813,8.495-2.751,12.961-2.751l0,0c19.263,0,34.135,16.937,31.643,36.038
	l-22.896,175.535c-2.734,20.954,10.124,40.802,30.364,46.874l103.658,31.097c44.071,13.221,74.71,52.874,76.707,98.498H277.558
	c-71.436,0-129.347-57.911-129.347-129.347V44.235c6.57,1.493,13.589,0.926,20.027-1.936L239.033,10.835z"/>
<path style="fill:#002E35;" d="M132.714,35.703c5.389,5.389,12.374,8.525,19.637,9.197c0.666,9.086,0.559,18.365-0.414,27.773l0,0
	c-2.918,98.713-54.692,126.468-110.221,133.538L59.047,36.749C60.712,20.467,74.426,8.084,90.793,8.084h1.083
	c8.464,0,16.58,3.362,22.565,9.346L132.714,35.703z"/>
<path style="fill:#007DBC;" d="M277.558,180.547H115.874c-11.906,0-21.558-9.651-21.558-21.558v-32.337
	c0-11.906,9.651-21.558,21.558-21.558h161.684c11.906,0,21.558,9.651,21.558,21.558v32.337
	C299.116,170.896,289.464,180.547,277.558,180.547z M330.382,246.471l-19.246-9.713c-10.629-5.365-23.594-1.096-28.959,9.533
	l-14.569,28.869c-5.365,10.629-1.096,23.594,9.533,28.959l19.246,9.713c10.629,5.365,23.594,1.096,28.959-9.533l14.569-28.868
	C345.279,264.801,341.011,251.836,330.382,246.471z M427.393,283.333l-19.246-9.713c-10.629-5.365-23.594-1.096-28.959,9.533
	l-14.569,28.868c-5.365,10.629-1.096,23.595,9.533,28.959l19.246,9.713c10.629,5.365,23.594,1.096,28.959-9.533l14.569-28.869
	C442.289,301.663,438.022,288.697,427.393,283.333z"/>
<path style="fill:#004859;" d="M145.516,132.042V153.6c0,4.465-3.62,8.084-8.084,8.084c-4.465,0-8.084-3.62-8.084-8.084v-21.558
	c0-4.465,3.62-8.084,8.084-8.084C141.896,123.958,145.516,127.577,145.516,132.042z M169.768,123.958
	c-4.465,0-8.084,3.62-8.084,8.084V153.6c0,4.465,3.62,8.084,8.084,8.084c4.465,0,8.084-3.62,8.084-8.084v-21.558
	C177.853,127.577,174.233,123.958,169.768,123.958z M202.105,123.958c-4.465,0-8.084,3.62-8.084,8.084V153.6
	c0,4.465,3.62,8.084,8.084,8.084c4.465,0,8.084-3.62,8.084-8.084v-21.558C210.189,127.577,206.57,123.958,202.105,123.958z
	 M234.442,123.958c-4.465,0-8.084,3.62-8.084,8.084V153.6c0,4.465,3.62,8.084,8.084,8.084c4.465,0,8.084-3.62,8.084-8.084v-21.558
	C242.526,127.577,238.907,123.958,234.442,123.958z M266.779,123.958c-4.465,0-8.084,3.62-8.084,8.084V153.6
	c0,4.465,3.62,8.084,8.084,8.084s8.084-3.62,8.084-8.084v-21.558C274.863,127.577,271.244,123.958,266.779,123.958z"/>
<path d="M479.663,442.05v-41.178c0-31.879-13.05-62.129-36.014-83.964l0.492-0.974c3.568-7.068,4.169-15.102,1.693-22.623
	s-7.732-13.627-14.799-17.193l-19.247-9.714c-7.069-3.569-15.103-4.167-22.624-1.692c-7.52,2.476-13.627,7.733-17.195,14.801
	l-1.245,2.466l-22.035-6.611c4.758-13.788-1.289-29.362-14.666-36.112l-19.246-9.713c-7.069-3.569-15.103-4.17-22.623-1.693
	c-7.522,2.476-13.628,7.733-17.195,14.801l-0.831,1.647c-4.47-6.922-6.451-15.317-5.371-23.594l4.182-32.072h4.618
	c16.345,0,29.642-13.298,29.642-29.642v-32.337c0-13.855-9.558-25.518-22.426-28.75l6.879-52.735
	c1.489-11.411-2.012-22.915-9.605-31.562C274.456,4.959,263.5,0,251.993,0c-5.632,0-11.097,1.16-16.244,3.447l-70.795,31.464
	c-3.339,1.482-6.917,2.134-10.449,2.011c-0.453-0.072-0.916-0.106-1.388-0.098c-5.442-0.504-10.689-2.84-14.687-6.838
	l-18.272-18.272C112.603,4.16,102.56,0,91.877,0h-1.083C70.205,0,53.1,15.445,51.006,35.926L31.485,226.784
	c-6.587,64.41-9.927,129.9-9.927,194.651v23.202C8.911,449.925,0,462.424,0,476.968C0,496.285,15.716,512,35.032,512h441.937
	C496.284,512,512,496.285,512,476.968C512,458.559,497.724,443.433,479.663,442.05z M394.221,280.068
	c3.418-1.127,7.07-0.853,10.283,0.769l19.247,9.714c3.212,1.622,5.602,4.398,6.727,7.816c1.125,3.418,0.853,7.071-0.77,10.283
	l-14.569,28.869c-1.621,3.212-4.397,5.602-7.815,6.727c-3.418,1.125-7.071,0.852-10.284-0.77l-19.246-9.713
	c-3.213-1.622-5.602-4.398-6.727-7.816c-1.125-3.419-0.853-7.071,0.77-10.284l10.298-20.406c0.004-0.009,0.01-0.018,0.014-0.027
	l4.258-8.436C388.027,283.583,390.803,281.194,394.221,280.068z M297.21,243.206c3.418-1.124,7.071-0.853,10.284,0.77l19.246,9.713
	c6.632,3.347,9.304,11.468,5.958,18.1l-14.569,28.868c-3.347,6.632-11.464,9.305-18.1,5.959l0,0l-19.246-9.714
	c-3.213-1.622-5.602-4.398-6.727-7.816s-0.853-7.071,0.77-10.283l14.57-28.869C291.015,246.721,293.792,244.332,297.21,243.206z
	 M266.107,260.192l-5.716,11.328c-3.568,7.068-4.168,15.102-1.692,22.623c2.476,7.52,7.732,13.628,14.801,17.193l19.246,9.714l0,0
	c4.204,2.122,8.749,3.195,13.325,3.195c3.118,0,6.251-0.499,9.299-1.503c7.52-2.476,13.627-7.733,17.195-14.801l8.999-17.833
	l21.765,6.53l-5.926,11.743c-3.568,7.069-4.168,15.103-1.692,22.624s7.732,13.627,14.801,17.193l19.246,9.713
	c4.204,2.122,8.749,3.195,13.326,3.195c3.118,0,6.251-0.498,9.298-1.502c7.522-2.476,13.628-7.733,17.195-14.801l6.409-12.701
	c14.644,15.364,23.966,34.942,26.68,55.94H277.558c-66.865-0.001-121.263-54.399-121.263-121.264v-43.116
	c0-4.466-3.62-8.084-8.084-8.084c-4.465,0-8.084,3.618-8.084,8.084v43.116c0,75.78,61.651,137.432,137.432,137.432h185.937v45.811
	c0,7.43-6.044,13.474-13.474,13.474H165.543c-9.53-13.387-25.183-21.558-41.744-21.558H37.726v-20.503
	c0-64.203,3.312-129.139,9.843-193.007L49.1,213.46c26.149-4,47.059-12.214,63.748-24.981c0.995,0.101,2.004,0.153,3.025,0.153
	h140.761l-3.911,29.981C250.755,233.715,255.749,249.087,266.107,260.192z M291.032,126.653v32.337
	c0,7.43-6.044,13.474-13.474,13.474H115.874c-7.43,0-13.474-6.044-13.474-13.474v-32.337c0-7.43,6.044-13.474,13.474-13.474h33.847
	c0.009,0,0.017,0.001,0.025,0.001c0.008,0,0.015-0.001,0.024-0.001h127.789C284.988,113.179,291.032,119.223,291.032,126.653z
	 M171.521,49.687l70.795-31.464c3.066-1.364,6.322-2.053,9.677-2.053c6.855,0,13.382,2.955,17.905,8.107s6.609,12.005,5.723,18.803
	l-7.035,53.931H159.074c0.936-7.57,1.541-15.535,1.795-23.804c0.695-6.835,0.955-13.744,0.795-20.634
	C165.02,52.04,168.337,51.102,171.521,49.687z M67.089,37.57c1.248-12.201,11.439-21.402,23.703-21.402h1.083
	c6.364,0,12.348,2.478,16.847,6.979l18.272,18.272c5.181,5.18,11.613,8.699,18.479,10.429c0.204,6.672-0.036,13.372-0.72,19.991
	c-0.02,0.198-0.033,0.396-0.04,0.594c-0.254,8.606-0.908,16.84-1.939,24.577h-26.902c-16.345,0-29.642,13.298-29.642,29.642v32.337
	c0,8.565,3.655,16.288,9.483,21.704c-12.311,7.655-27.14,12.971-44.909,16.096L67.089,37.57z M476.968,495.832H35.032
	c-10.401,0-18.863-8.463-18.863-18.863c0-10.401,8.463-18.863,18.863-18.863h88.768c12.234,0,23.745,6.517,30.037,17.002
	c1.683,2.81,4.763,4.556,8.039,4.556h288.146c13.514,0,24.936-9.094,28.49-21.48c9.681,0.79,17.321,8.905,17.321,18.786
	C495.832,487.369,487.369,495.832,476.968,495.832z"/>
<g>
</g>
<g>
</g>
<g>
</g>
<g>
</g>
<g>
</g>
<g>
</g>
<g>
</g>
<g>
</g>
<g>
</g>
<g>
</g>
<g>
</g>
<g>
</g>
<g>
</g>
<g>
</g>
<g>
</g>
</svg>
