<?xml version="1.0" encoding="iso-8859-1"?>
<!-- Generator: Adobe Illustrator 19.0.0, SVG Export Plug-In . SVG Version: 6.00 Build 0)  -->
<svg version="1.1" id="Layer_1" xmlns="http://www.w3.org/2000/svg" xmlns:xlink="http://www.w3.org/1999/xlink" x="0px" y="0px"
	 viewBox="0 0 512 512" style="enable-background:new 0 0 512 512;" xml:space="preserve">
<path style="fill:#004859;" d="M180.547,28.857v378.831c0,11.473-9.301,20.773-20.773,20.773H93.531
	c-11.473,0-20.773-9.3-20.773-20.773V28.857c0-11.473,9.301-20.773,20.773-20.773h66.242
	C171.246,8.084,180.547,17.384,180.547,28.857z M418.469,8.084h-66.242c-11.473,0-20.773,9.3-20.773,20.773v378.831
	c0,11.473,9.301,20.773,20.773,20.773h66.242c11.473,0,20.773-9.3,20.773-20.773V28.857C439.242,17.384,429.941,8.084,418.469,8.084
	z"/>
<path style="fill:#F93100;" d="M359.686,503.916H152.314c-49.197,0-88.424-41.094-86.139-90.238l11.624-249.919
	C81.01,94.733,137.908,40.421,207.008,40.421h97.984c69.1,0,125.997,54.312,129.207,123.338l11.624,249.919
	C448.11,462.822,408.883,503.916,359.686,503.916z"/>
<path style="fill:#A50000;" d="M66.491,406.905h379.018l0.315,6.772c2.286,49.144-36.942,90.238-86.139,90.238H152.314
	c-49.197,0-88.424-41.094-86.139-90.238L66.491,406.905z"/>
<path style="fill:#007DBC;" d="M75.883,204.983l1.918-41.224c3.21-69.025,60.108-123.338,129.207-123.338h97.984
	c69.1,0,125.997,54.313,129.207,123.338l1.918,41.224c-23.232-46.574-71.33-78.331-126.567-78.331H202.45
	C147.212,126.653,99.115,158.408,75.883,204.983z M443.643,266.779H68.357c-9.476,0-17.157,7.681-17.157,17.157v30.361
	c0,9.476,7.681,17.157,17.157,17.157h375.287c9.476,0,17.157-7.681,17.157-17.157v-30.361
	C460.8,274.46,453.119,266.779,443.643,266.779z"/>
<path style="fill:#004859;" d="M320.674,256h53.895c5.953,0,10.779,4.826,10.779,10.779v64.674c0,5.953-4.826,10.779-10.779,10.779
	h-53.895c-5.953,0-10.779-4.826-10.779-10.779v-64.674C309.895,260.826,314.72,256,320.674,256z"/>
<path d="M447.326,258.966V28.857C447.326,12.946,434.381,0,418.469,0h-66.242c-15.913,0-28.858,12.946-28.858,28.857v4.702
	c-5.301-0.706-10.696-1.11-16.168-1.196V14.901C307.2,6.684,300.516,0,292.299,0h-72.598C211.484,0,204.8,6.684,204.8,14.901v17.463
	c-5.472,0.086-10.867,0.49-16.168,1.196v-4.702C188.632,12.946,175.686,0,159.774,0H93.531C77.619,0,64.674,12.946,64.674,28.857
	v230.108c-12.178,1.788-21.558,12.302-21.558,24.968v30.362c0,11.567,7.826,21.336,18.459,24.307L58.101,413.3
	c-1.208,25.997,8.022,50.682,25.991,69.506C102.062,501.633,126.289,512,152.315,512h207.371c26.026,0,50.254-10.367,68.223-29.192
	c17.97-18.825,27.2-43.509,25.991-69.506l-3.474-74.698c10.632-2.972,18.458-12.74,18.458-24.308v-30.362
	C468.884,271.267,459.504,260.755,447.326,258.966z M391.585,258.695c-3.035-6.362-9.511-10.779-17.017-10.779h-53.895
	c-7.505,0-13.982,4.417-17.017,10.779H81.478l2.398-51.561c22.967-44.693,68.239-72.397,118.574-72.397h107.099
	c50.336,0,95.607,27.704,118.575,72.397l2.398,51.561H391.585z M434.283,339.537l2.757,59.284H74.96l2.757-59.284h225.94
	c3.035,6.362,9.511,10.779,17.017,10.779h53.895c7.505,0,13.982-4.417,17.017-10.779H434.283z M377.263,331.453
	c0,1.486-1.208,2.695-2.695,2.695h-53.895c-1.486,0-2.695-1.208-2.695-2.695v-64.674c0-1.486,1.208-2.695,2.695-2.695h53.895
	c1.486,0,2.695,1.208,2.695,2.695V331.453z M207.009,48.505h97.983c64.91,0,118.117,50.79,121.133,115.629l0.512,11
	c-10.46-13.172-23.112-24.56-37.489-33.621c-23.817-15.011-51.34-22.945-79.597-22.945h-107.1c-28.257,0-55.78,7.934-79.597,22.945
	c-14.377,9.061-27.03,20.449-37.489,33.621l0.512-11C88.892,99.296,142.099,48.505,207.009,48.505z M339.537,28.857
	c0-6.997,5.692-12.689,12.689-12.689h66.242c6.998,0,12.69,5.692,12.69,12.689v86.25c-16.674-38.577-50.43-67.775-91.621-78.4
	V28.857z M291.032,16.168v16.168h-70.063V16.168H291.032z M93.531,16.168h66.242c6.998,0,12.69,5.692,12.69,12.689v7.849
	c-41.191,10.626-74.947,39.824-91.621,78.401v-86.25C80.842,21.861,86.534,16.168,93.531,16.168z M59.284,283.935
	c0-5.003,4.069-9.072,9.072-9.072h233.455v48.505H68.356c-5.003,0-9.072-4.069-9.072-9.072V283.935z M416.213,471.645
	c-14.889,15.597-34.965,24.187-56.528,24.187h-207.37c-21.563,0-41.639-8.59-56.527-24.187
	c-14.674-15.372-22.297-35.46-21.557-56.655h363.537C438.509,436.185,430.886,456.273,416.213,471.645z M452.716,314.297
	c0,5.002-4.069,9.072-9.072,9.072h-50.213v-48.505h50.213c5.003,0,9.072,4.069,9.072,9.072V314.297z M361.095,282.947v32.337
	c0,4.466-3.618,8.084-8.084,8.084c-4.466,0-8.084-3.618-8.084-8.084v-32.337c0-4.466,3.618-8.084,8.084-8.084
	C357.476,274.863,361.095,278.482,361.095,282.947z M183.242,94.316c0-4.466,3.618-8.084,8.084-8.084h129.347
	c4.466,0,8.084,3.618,8.084,8.084c0,4.466-3.618,8.084-8.084,8.084H191.326C186.861,102.4,183.242,98.782,183.242,94.316z"/>
<g>
</g>
<g>
</g>
<g>
</g>
<g>
</g>
<g>
</g>
<g>
</g>
<g>
</g>
<g>
</g>
<g>
</g>
<g>
</g>
<g>
</g>
<g>
</g>
<g>
</g>
<g>
</g>
<g>
</g>
</svg>
