<?xml version="1.0" encoding="iso-8859-1"?>
<!-- Generator: Adobe Illustrator 19.0.0, SVG Export Plug-In . SVG Version: 6.00 Build 0)  -->
<svg version="1.1" id="Layer_1" xmlns="http://www.w3.org/2000/svg" xmlns:xlink="http://www.w3.org/1999/xlink" x="0px" y="0px"
	 viewBox="0 0 512 512" style="enable-background:new 0 0 512 512;" xml:space="preserve">
<path style="fill:#F93100;" d="M429.157,105.095H82.844V29.642c0-11.906,9.651-21.558,21.558-21.558h303.197
	c11.906,0,21.558,9.651,21.558,21.558V105.095z"/>
<path style="fill:#BC0000;" d="M457.002,180.35l-26.149,303.849c-0.959,11.152-10.328,19.717-21.565,19.717h-80.13
	c-10.89,0-20.084-8.058-21.468-18.817l-26.667-207.168C279.409,265.392,268.693,256,256.001,256l0,0
	c-12.692,0-23.409,9.392-25.022,21.931l-26.667,207.168c-1.385,10.758-10.578,18.817-21.468,18.817h-80.13
	c-11.237,0-20.606-8.565-21.565-19.717L54.999,180.35c-2.976-34.582,6.936-69.046,27.845-96.813h27.055h146.101h146.1h27.055
	C450.066,111.304,459.978,145.768,457.002,180.35z"/>
<path style="fill:#F93100;" d="M149.99,385.347H69.557c-11.31,0-20.713-8.673-21.581-19.904l-7.492-97.01
	c-0.967-12.521,8.972-23.211,21.581-23.211h102.909c13.266,0,23.41,11.777,21.393,24.836l-14.985,97.011
	C169.758,377.584,160.673,385.347,149.99,385.347z M362.011,385.347h80.432c11.31,0,20.713-8.673,21.581-19.904l7.492-97.01
	c0.967-12.521-8.972-23.211-21.581-23.211H347.028c-13.266,0-23.41,11.777-21.393,24.836l14.985,97.011
	C342.243,377.584,351.328,385.347,362.011,385.347z"/>
<path style="fill:#720000;" d="M256.001,256L256.001,256c-18.548,0-34.193-13.756-36.494-32.087L201.889,83.537h108.223
	l-17.617,140.376C290.193,242.244,274.548,256,256.001,256z"/>
<path d="M71.159,300.194c-4.466,0-8.084-3.62-8.084-8.084s3.618-8.084,8.084-8.084h75.756c4.466,0,8.084,3.62,8.084,8.084
	s-3.618,8.084-8.084,8.084H71.159z M139.338,346.543c4.466,0,8.084-3.62,8.084-8.084c0-4.465-3.618-8.084-8.084-8.084H74.404
	c-4.466,0-8.084,3.62-8.084,8.084c0,4.465,3.618,8.084,8.084,8.084H139.338z M479.576,269.054l-7.491,97.011
	c-1.071,13.875-11.818,25.029-25.278,27.04l-7.899,91.786C437.578,500.346,424.845,512,409.289,512h-80.131
	c-14.911,0-27.588-11.121-29.487-25.868l-26.667-207.169c-1.091-8.482-8.401-14.878-17.004-14.878
	c-8.603,0-15.913,6.396-17.005,14.879l-26.667,207.168C210.43,500.879,197.753,512,182.843,512h-80.13
	c-15.557,0-28.29-11.654-29.621-27.108l-7.9-91.786c-13.459-2.011-24.205-13.167-25.277-27.04l-7.492-97.011
	c-0.633-8.189,2.209-16.346,7.795-22.38c3.246-3.506,7.281-6.141,11.706-7.745l-4.981-57.886
	c-3.073-35.704,6.797-71.157,27.816-100.158V29.642C74.76,13.297,88.058,0,104.402,0h303.196c16.345,0,29.642,13.297,29.642,29.642
	v51.244c21.018,29,30.888,64.453,27.816,100.157l-4.982,57.886c4.425,1.604,8.46,4.238,11.706,7.745
	C477.368,252.709,480.209,260.867,479.576,269.054z M90.93,29.642v8.084h143.427c4.466,0,8.084,3.62,8.084,8.084
	s-3.618,8.084-8.084,8.084H90.93v21.558h330.144V29.642c0-7.43-6.044-13.474-13.474-13.474H104.403
	C96.973,16.168,90.93,22.212,90.93,29.642z M284.473,222.906L300.95,91.621h-89.897l16.476,131.285
	c1.79,14.257,14.03,25.009,28.473,25.009C270.443,247.916,282.683,237.164,284.473,222.906z M69.557,377.263h80.432
	c6.743,0,12.38-4.807,13.404-11.43l14.985-97.01c0.598-3.871-0.525-7.801-3.081-10.781c-2.582-3.009-6.343-4.736-10.322-4.736
	H62.065c-3.838,0-7.382,1.546-9.98,4.353c-2.574,2.78-3.831,6.385-3.54,10.152l7.492,97.011
	C56.576,371.797,62.515,377.263,69.557,377.263z M232.623,257.509c-11.306-6.905-19.392-18.681-21.139-32.589L194.757,91.621H86.961
	c-18.124,25.62-26.602,56.721-23.907,88.036l4.946,57.48h96.974c8.704,0,16.94,3.783,22.597,10.38
	c5.632,6.568,8.105,15.233,6.785,23.773L179.372,368.3c-2.251,14.562-14.608,25.131-29.382,25.131H81.451l7.752,90.074
	c0.605,7.027,6.412,12.326,13.51,12.326h80.13c6.805,0,12.587-5.057,13.451-11.765l26.667-207.168
	C223.937,269.303,227.472,262.572,232.623,257.509z M430.55,393.432h-68.539c-14.776,0-27.133-10.569-29.381-25.13l-14.985-97.011
	c-1.319-8.541,1.153-17.205,6.785-23.774c5.657-6.597,13.893-10.38,22.597-10.38h96.974l4.948-57.48
	c2.695-31.316-5.784-62.417-23.907-88.036H317.244L300.515,224.92c-1.745,13.909-9.833,25.685-21.139,32.589
	c5.151,5.063,8.686,11.794,9.663,19.39l26.667,207.168c0.864,6.707,6.646,11.764,13.451,11.764h80.131
	c7.098,0,12.906-5.299,13.509-12.326L430.55,393.432z M459.917,257.658c-2.598-2.807-6.142-4.353-9.98-4.353h-102.91
	c-3.979,0-7.741,1.727-10.322,4.736c-2.556,2.98-3.679,6.91-3.081,10.781l14.986,97.01c1.023,6.624,6.659,11.43,13.403,11.43h77.197
	c0.013,0,0.027,0,0.04,0h3.196c7.043,0,12.982-5.466,13.521-12.443l7.491-97.011C463.747,264.043,462.491,260.438,459.917,257.658z
	 M440.842,284.025h-75.756c-4.466,0-8.084,3.62-8.084,8.084s3.618,8.084,8.084,8.084h75.756c4.466,0,8.084-3.62,8.084-8.084
	S445.308,284.025,440.842,284.025z M437.597,330.375h-64.933c-4.466,0-8.084,3.62-8.084,8.084c0,4.465,3.618,8.084,8.084,8.084
	h64.933c4.466,0,8.084-3.62,8.084-8.084C445.681,333.994,442.061,330.375,437.597,330.375z M265.74,53.895h1.082
	c4.466,0,8.084-3.62,8.084-8.084s-3.618-8.084-8.084-8.084h-1.082c-4.466,0-8.084,3.62-8.084,8.084S261.276,53.895,265.74,53.895z"
	/>
<g>
</g>
<g>
</g>
<g>
</g>
<g>
</g>
<g>
</g>
<g>
</g>
<g>
</g>
<g>
</g>
<g>
</g>
<g>
</g>
<g>
</g>
<g>
</g>
<g>
</g>
<g>
</g>
<g>
</g>
</svg>
