<?xml version="1.0" encoding="iso-8859-1"?>
<!-- Generator: Adobe Illustrator 19.0.0, SVG Export Plug-In . SVG Version: 6.00 Build 0)  -->
<svg version="1.1" id="Layer_1" xmlns="http://www.w3.org/2000/svg" xmlns:xlink="http://www.w3.org/1999/xlink" x="0px" y="0px"
	 viewBox="0 0 512 512" style="enable-background:new 0 0 512 512;" xml:space="preserve">
<path style="fill:#1A6399;" d="M450.021,503.916H61.979c-11.906,0-21.558-9.651-21.558-21.558V29.642
	c0-11.906,9.651-21.558,21.558-21.558h388.042c11.906,0,21.558,9.651,21.558,21.558v452.716
	C471.579,494.264,461.927,503.916,450.021,503.916z"/>
<path style="fill:#004859;" d="M471.579,266.779v215.579c0,11.906-9.651,21.558-21.558,21.558H61.979
	c-11.906,0-21.558-9.651-21.558-21.558V266.779H471.579z"/>
<path style="fill:#79B7AC;" d="M471.579,204.8v43.116v43.116H40.421v-43.116V204.8H471.579z"/>
<path style="fill:#91CEC5;" d="M83.537,291.032H40.421v-43.116h43.116V291.032z M169.768,247.916h-43.116v43.116h43.116V247.916z
	 M256,247.916h-43.116v43.116H256V247.916z M342.232,247.916h-43.116v43.116h43.116V247.916z M428.463,247.916h-43.116v43.116
	h43.116V247.916z M126.653,204.8H83.537v43.116h43.116V204.8z M212.884,204.8h-43.116v43.116h43.116V204.8z M299.116,204.8H256
	v43.116h43.116V204.8z M385.347,204.8h-43.116v43.116h43.116V204.8z M471.579,204.8h-43.116v43.116h43.116V204.8z"/>
<path style="fill:#BFE3E8;" d="M264.084,179.469v1.078c0,4.466-3.62,8.084-8.084,8.084c-4.465,0-8.084-3.618-8.084-8.084v-1.078
	c0-4.466,3.62-8.084,8.084-8.084C260.465,171.385,264.084,175.004,264.084,179.469z M247.916,8.084v140.126
	c0,4.466,3.62,8.084,8.084,8.084c4.465,0,8.084-3.618,8.084-8.084V8.084H247.916z M256,355.705c-4.465,0-8.084,3.618-8.084,8.084
	v140.126h16.168V363.789C264.084,359.324,260.465,355.705,256,355.705z M256,322.29c-4.465,0-8.084,3.618-8.084,8.084v1.078
	c0,4.466,3.62,8.084,8.084,8.084c4.465,0,8.084-3.618,8.084-8.084v-1.078C264.084,325.909,260.465,322.29,256,322.29z"/>
<path d="M503.916,291.032h-24.253V29.642C479.663,13.298,466.365,0,450.021,0H61.979C45.635,0,32.337,13.298,32.337,29.642v261.389
	H8.084c-4.466,0-8.084,3.618-8.084,8.084s3.618,8.084,8.084,8.084h24.253v175.158c0,16.344,13.298,29.642,29.642,29.642h388.042
	c16.344,0,29.642-13.298,29.642-29.642V307.2h24.253c4.466,0,8.084-3.618,8.084-8.084S508.382,291.032,503.916,291.032z
	 M428.463,226.358c-4.466,0-8.084,3.618-8.084,8.084v13.474h-26.947v-13.474c0-4.466-3.618-8.084-8.084-8.084
	s-8.084,3.618-8.084,8.084v13.474h-26.947v-13.474c0-4.466-3.618-8.084-8.084-8.084s-8.084,3.618-8.084,8.084v13.474H307.2v-13.474
	c0-4.466-3.618-8.084-8.084-8.084s-8.084,3.618-8.084,8.084v13.474h-26.947v-13.474c0-4.466-3.618-8.084-8.084-8.084
	s-8.084,3.618-8.084,8.084v13.474h-26.947v-13.474c0-4.466-3.618-8.084-8.084-8.084s-8.084,3.618-8.084,8.084v13.474h-26.947
	v-13.474c0-4.466-3.618-8.084-8.084-8.084c-4.466,0-8.084,3.618-8.084,8.084v13.474h-26.947v-13.474
	c0-4.466-3.618-8.084-8.084-8.084c-4.466,0-8.084,3.618-8.084,8.084v13.474H91.621v-13.474c0-4.466-3.618-8.084-8.084-8.084
	c-4.466,0-8.084,3.618-8.084,8.084v13.474H48.505v-26.947h414.989v26.947h-26.947v-13.474
	C436.547,229.976,432.929,226.358,428.463,226.358z M61.979,16.168h388.042c7.43,0,13.474,6.044,13.474,13.474V204.8H48.505V29.642
	C48.505,22.212,54.549,16.168,61.979,16.168z M48.505,264.084h26.947v10.24c0,4.466,3.618,8.084,8.084,8.084
	c4.466,0,8.084-3.618,8.084-8.084v-10.24h26.947v10.24c0,4.466,3.618,8.084,8.084,8.084c4.466,0,8.084-3.618,8.084-8.084v-10.24
	h26.947v10.24c0,4.466,3.618,8.084,8.084,8.084c4.466,0,8.084-3.618,8.084-8.084v-10.24H204.8v10.24
	c0,4.466,3.618,8.084,8.084,8.084s8.084-3.618,8.084-8.084v-10.24h26.947v10.24c0,4.466,3.618,8.084,8.084,8.084
	s8.084-3.618,8.084-8.084v-10.24h26.947v10.24c0,4.466,3.618,8.084,8.084,8.084s8.084-3.618,8.084-8.084v-10.24h26.947v10.24
	c0,4.466,3.618,8.084,8.084,8.084s8.084-3.618,8.084-8.084v-10.24h26.947v10.24c0,4.466,3.618,8.084,8.084,8.084
	s8.084-3.618,8.084-8.084v-10.24h26.947v10.24c0,4.466,3.618,8.084,8.084,8.084s8.084-3.618,8.084-8.084v-10.24h26.947v26.947
	H48.505V264.084z M463.495,482.358c0,7.43-6.044,13.474-13.474,13.474H61.979c-7.43,0-13.474-6.044-13.474-13.474V307.2h414.989
	V482.358z"/>
<g>
</g>
<g>
</g>
<g>
</g>
<g>
</g>
<g>
</g>
<g>
</g>
<g>
</g>
<g>
</g>
<g>
</g>
<g>
</g>
<g>
</g>
<g>
</g>
<g>
</g>
<g>
</g>
<g>
</g>
</svg>
