<?xml version="1.0" encoding="iso-8859-1"?>
<!-- Generator: Adobe Illustrator 19.0.0, SVG Export Plug-In . SVG Version: 6.00 Build 0)  -->
<svg version="1.1" id="Layer_1" xmlns="http://www.w3.org/2000/svg" xmlns:xlink="http://www.w3.org/1999/xlink" x="0px" y="0px"
	 viewBox="0 0 512 512" style="enable-background:new 0 0 512 512;" xml:space="preserve">
<g>
	<path style="fill:#8E3900;" d="M234.442,148.211h-64.674v-43.116c0-17.86,14.477-32.337,32.337-32.337l0,0
		c17.86,0,32.337,14.477,32.337,32.337V148.211z"/>
	<path style="fill:#8E3900;" d="M503.916,390.737L503.916,390.737c0,26.789-21.716,48.505-48.505,48.505H29.642
		c-11.906,0-21.558-9.651-21.558-21.558v-75.453H455.41C482.199,342.232,503.916,363.948,503.916,390.737z"/>
</g>
<path style="fill:#D18839;" d="M342.647,404.025l-310.747,32.71c-12.729,1.34-23.815-8.64-23.815-21.439v-94.622
	c0-113.108,91.692-204.8,204.8-204.8l0,0c113.108,0,204.8,91.692,204.8,204.8l0,0C417.684,363.565,385.302,399.535,342.647,404.025z
	"/>
<path style="fill:#B2682F;" d="M158.989,391.02L8.084,406.905v-86.232c0-109.813,86.429-199.431,194.972-204.561
	c-26.292,14.771-44.066,42.909-44.066,75.213V391.02z"/>
<path style="fill:#4F2000;" d="M105.095,320.674c0,11.906-9.651,21.558-21.558,21.558s-21.558-9.651-21.558-21.558
	c0-11.906,9.651-21.558,21.558-21.558S105.095,308.767,105.095,320.674z M234.442,277.558c-11.906,0-21.558,9.651-21.558,21.558
	c0,11.906,9.651,21.558,21.558,21.558S256,311.022,256,299.116C256,287.209,246.349,277.558,234.442,277.558z"/>
<path style="fill:#FF0000;" d="M417.538,325.46c-6.68,67.074-66.989,79.901-91.479,82.479L32.011,438.891
	c-12.788,1.346-23.927-8.681-23.927-21.541v-19.26l368.458-38.785C396.196,357.235,412.041,343.522,417.538,325.46z"/>
<path d="M455.41,334.147h-30.627c0.457-3.126,0.758-6.302,0.892-9.519c0.099-0.68,0.119-1.359,0.047-2.021
	c0.013-0.645,0.045-1.285,0.045-1.933c0-107.327-79.84-196.341-183.242-210.81v-4.77c0-22.289-18.132-40.421-40.421-40.421
	s-40.421,18.132-40.421,40.421v8.934C68.951,137.011,0,220.935,0,320.674v75.453v0.003c0,0.011,0,0.021,0,0.031v21.523
	c0,12.866,8.242,23.839,19.721,27.929c0.21,0.082,0.426,0.154,0.645,0.219c2.92,0.964,6.036,1.494,9.276,1.494H455.41
	c31.204,0,56.589-25.387,56.589-56.589S486.614,334.147,455.41,334.147z M23.835,429.823c-4.527-2.174-7.667-6.791-7.667-12.139
	v-14.28l361.352-38.037c7.99-0.841,15.51-3.347,22.186-7.19c-11.702,20.562-32.795,35.165-57.916,37.809L23.835,429.823z
	 M409.6,320.674c0,0.524-0.026,1.041-0.037,1.563c-4.992,14.833-18.095,25.405-33.735,27.051l-208.755,21.974V200
	c0-31.187,16.555-60.111,43.337-76.011c0.825-0.011,1.647-0.031,2.474-0.031C321.354,123.958,409.6,212.204,409.6,320.674z
	 M177.853,105.095c0-13.372,10.879-24.253,24.253-24.253c13.373,0,24.253,10.88,24.253,24.253v3.133
	c-4.457-0.28-8.947-0.439-13.474-0.439c-1.262,0-2.519,0.026-3.777,0.047c-0.635-0.067-1.278-0.057-1.92,0.03
	c-9.964,0.263-19.755,1.228-29.335,2.821V105.095z M181.134,126.533c-19.077,19.321-30.228,45.631-30.228,73.467v172.963
	L16.168,387.146v-66.473C16.168,223.012,87.709,141.759,181.134,126.533z M455.41,431.158H164.086l179.407-19.093
	c36.607-3.853,66.188-28.633,77.412-61.749h34.506c22.289,0,40.421,18.132,40.421,40.421
	C495.832,413.026,477.699,431.158,455.41,431.158z M83.537,350.316c16.345,0,29.642-13.298,29.642-29.642
	s-13.297-29.642-29.642-29.642s-29.642,13.298-29.642,29.642S67.192,350.316,83.537,350.316z M83.537,307.2
	c7.43,0,13.474,6.044,13.474,13.474s-6.044,13.474-13.474,13.474c-7.43,0-13.474-6.044-13.474-13.474S76.107,307.2,83.537,307.2z
	 M234.442,328.758c16.345,0,29.642-13.298,29.642-29.642s-13.297-29.642-29.642-29.642S204.8,282.772,204.8,299.116
	S218.097,328.758,234.442,328.758z M234.442,285.642c7.43,0,13.474,6.044,13.474,13.474s-6.044,13.474-13.474,13.474
	s-13.474-6.044-13.474-13.474S227.012,285.642,234.442,285.642z"/>
<g>
</g>
<g>
</g>
<g>
</g>
<g>
</g>
<g>
</g>
<g>
</g>
<g>
</g>
<g>
</g>
<g>
</g>
<g>
</g>
<g>
</g>
<g>
</g>
<g>
</g>
<g>
</g>
<g>
</g>
</svg>
