<?xml version="1.0" encoding="iso-8859-1"?>
<!-- Generator: Adobe Illustrator 19.0.0, SVG Export Plug-In . SVG Version: 6.00 Build 0)  -->
<svg version="1.1" id="Layer_1" xmlns="http://www.w3.org/2000/svg" xmlns:xlink="http://www.w3.org/1999/xlink" x="0px" y="0px"
	 viewBox="0 0 512 512" style="enable-background:new 0 0 512 512;" xml:space="preserve">
<path style="fill:#BC0000;" d="M101.397,238.636L101.397,238.636c-12.629,12.629-33.103,12.629-45.731,0l-38.109-38.109
	c-12.629-12.629-12.629-33.103,0-45.731l0,0c12.629-12.629,33.103-12.629,45.731,0l38.109,38.109
	C114.025,205.533,114.025,226.008,101.397,238.636z"/>
<path style="fill:#FF0000;" d="M503.916,180.57v88.812c0,10.839-8.049,19.994-18.8,21.381l-133.698,17.252
	c1.041,7.666,1.592,15.487,1.592,23.439c0,95.678-77.912,173.159-173.753,172.459C85.244,503.224,8.564,426.361,8.087,332.347
	C7.62,240.314,79.249,164.919,169.769,159.335l312.567-0.322C494.25,158.999,503.916,168.655,503.916,180.57z"/>
<path style="fill:#BC0000;" d="M180.548,223.663c59.53,0,107.789,48.26,107.789,107.789s-48.26,107.789-107.789,107.789
	S72.758,390.983,72.758,331.453S121.018,223.663,180.548,223.663z"/>
<path style="fill:#720000;" d="M51.338,188.578c-6.314,6.314-16.551,6.314-22.865,0c-6.314-6.314-6.314-16.551,0-22.865
	c6.314-6.314,16.551-6.314,22.865,0C57.653,172.027,57.653,182.263,51.338,188.578z M256,175.158
	c0,20.836,16.891,37.726,37.726,37.726l0,0c20.836,0,37.726-16.891,37.726-37.726v-15.991L256,159.245V175.158z M180.548,223.663
	v215.579c-59.53,0-107.789-48.26-107.789-107.789S121.018,223.663,180.548,223.663z"/>
<path d="M482.359,150.928c-0.01,0-0.021,0-0.031,0l-150.871,0.156c-0.001,0-0.002,0-0.004,0s-0.003,0-0.004,0l-75.443,0.078
	c-0.002,0-0.004,0-0.006,0c-0.002,0-0.004,0-0.006,0l-86.234,0.089c-0.163,0-0.327,0.005-0.489,0.015
	c-27.51,1.697-53.262,9.53-75.982,22.099l-24.285-24.286c-5.817-5.817-12.982-9.48-20.498-11.003v-32.981
	c0.001-13.373,10.88-24.253,24.254-24.253h398.821C493.868,80.842,512,62.71,512,40.421S493.868,0,471.579,0H72.758
	C50.469,0,32.337,18.132,32.337,40.421c0,4.465,3.62,8.084,8.084,8.084s8.084-3.62,8.084-8.084
	c0-13.373,10.879-24.253,24.253-24.253h398.821c13.373,0,24.253,10.879,24.253,24.253s-10.879,24.253-24.253,24.253H72.758
	c-22.289,0-40.421,18.132-40.421,40.421v32.981c-7.516,1.523-14.681,5.186-20.498,11.003c-15.76,15.76-15.76,41.403,0,57.164
	l21.169,21.169C12.019,257.142-0.196,293.428,0.002,332.388c0.499,98.317,80.886,178.888,179.197,179.607
	c0.456,0.003,0.905,0.004,1.36,0.004c47.984-0.001,93.106-18.583,127.184-52.413c34.404-34.153,53.352-79.659,53.352-128.135
	c0-5.454-0.251-10.957-0.749-16.439l125.806-16.233C500.888,296.878,512,284.24,512,269.382v-88.813
	c0-7.924-3.087-15.371-8.692-20.97C497.709,154.006,490.271,150.928,482.359,150.928z M264.084,167.322l59.284-0.061v7.898
	c0,16.345-13.297,29.642-29.642,29.642c-16.345,0-29.642-13.297-29.642-29.642V167.322z M23.272,194.811
	c-9.455-9.456-9.455-24.842,0-34.299c2.642-2.643,5.756-4.519,9.065-5.685v14.941c0,4.465,3.62,8.084,8.084,8.084
	s8.084-3.62,8.084-8.084v-14.942c3.309,1.165,6.423,3.042,9.065,5.685l21.561,21.561c-13.47,9.169-25.627,20.098-36.136,32.461
	L23.272,194.811z M495.832,269.382c0,6.754-5.051,12.498-11.749,13.363l-133.698,17.251c-2.135,0.276-4.073,1.393-5.383,3.101
	s-1.883,3.871-1.593,6.005c1.008,7.413,1.518,14.933,1.518,22.35c0,44.134-17.251,85.565-48.574,116.661
	c-31.027,30.803-72.106,47.719-115.796,47.719c-0.412,0-0.827-0.001-1.238-0.004c-89.505-0.654-162.692-74.009-163.146-163.521
	c-0.303-59.779,31.477-112.643,79.514-141.666c0.259-0.135,0.511-0.285,0.757-0.448c21.726-12.967,46.733-21.078,73.582-22.773
	l77.891-0.081v7.819c0,25.26,20.55,45.811,45.811,45.811s45.811-20.55,45.811-45.811v-7.914l142.807-0.148c0.004,0,0.009,0,0.014,0
	c3.596,0,6.978,1.399,9.522,3.942c2.548,2.545,3.952,5.931,3.952,9.532L495.832,269.382L495.832,269.382z M180.548,215.579
	c-63.893,0-115.874,51.98-115.874,115.874s51.98,115.874,115.874,115.874s115.874-51.98,115.874-115.874
	S244.441,215.579,180.548,215.579z M188.632,430.829v-67.04c0-4.465-3.62-8.084-8.084-8.084c-4.465,0-8.084,3.62-8.084,8.084v67.04
	c-51.211-4.129-91.621-47.12-91.621-99.376s40.41-95.247,91.621-99.377v67.04c0,4.465,3.62,8.084,8.084,8.084
	c4.465,0,8.084-3.62,8.084-8.084v-67.04c51.211,4.129,91.621,47.12,91.621,99.377S239.844,426.7,188.632,430.829z M188.632,331.453
	v1.078c0,4.465-3.62,8.084-8.084,8.084c-4.465,0-8.084-3.62-8.084-8.084v-1.078c0-4.465,3.62-8.084,8.084-8.084
	C185.012,323.369,188.632,326.988,188.632,331.453z"/>
<g>
</g>
<g>
</g>
<g>
</g>
<g>
</g>
<g>
</g>
<g>
</g>
<g>
</g>
<g>
</g>
<g>
</g>
<g>
</g>
<g>
</g>
<g>
</g>
<g>
</g>
<g>
</g>
<g>
</g>
</svg>
