<?xml version="1.0" encoding="iso-8859-1"?>
<!-- Generator: Adobe Illustrator 19.0.0, SVG Export Plug-In . SVG Version: 6.00 Build 0)  -->
<svg version="1.1" id="Layer_1" xmlns="http://www.w3.org/2000/svg" xmlns:xlink="http://www.w3.org/1999/xlink" x="0px" y="0px"
	 viewBox="0 0 512 512" style="enable-background:new 0 0 512 512;" xml:space="preserve">
<path style="fill:#A0A0A0;" d="M503.916,182.25v300.107c0,11.906-9.651,21.558-21.558,21.558h-43.116
	c-11.906,0-21.558-9.651-21.558-21.558v-97.011L305.429,497.601c-4.043,4.043-9.526,6.314-15.244,6.314h-68.372
	c-5.717,0-11.2-2.271-15.244-6.314L94.316,385.347v97.011c0,11.906-9.651,21.558-21.558,21.558H29.642
	c-11.906,0-21.558-9.651-21.558-21.558V182.25c0-26.959,16.722-51.09,41.966-60.556l44.266-16.6l75.453-32.337l0,0V29.642
	c0-11.906,9.651-21.558,21.558-21.558h129.347c11.906,0,21.558,9.651,21.558,21.558v43.116l75.453,32.337l44.266,16.6
	C487.193,131.16,503.916,155.291,503.916,182.25z"/>
<path style="fill:#BCBCBC;" d="M342.232,72.758h-71.533l70.703,388.871l-35.973,35.973c-4.043,4.043-9.526,6.314-15.244,6.314
	h-68.372c-5.717,0-11.2-2.271-15.244-6.314L94.316,385.347v97.011c0,11.906-9.651,21.558-21.558,21.558H29.642
	c-11.906,0-21.558-9.651-21.558-21.558V182.25c0-26.959,16.722-51.09,41.966-60.556l44.266-16.6l75.453-32.337l0,0V29.642
	c0-11.906,9.651-21.558,21.558-21.558h129.347c11.906,0,21.558,9.651,21.558,21.558V72.758z"/>
<path style="fill:#868686;" d="M266.779,72.758h-97.011V24.253c0-8.929,7.239-16.168,16.168-16.168h64.674
	c8.929,0,16.168,7.239,16.168,16.168V72.758z"/>
<path style="fill:#A0A0A0;" d="M72.758,503.916H29.642c-11.906,0-21.558-9.651-21.558-21.558V182.25
	c0-26.959,16.722-51.09,41.966-60.556l44.266-16.6v377.263C94.316,494.264,84.664,503.916,72.758,503.916z"/>
<path style="fill:#868686;" d="M417.684,482.358V105.095l44.266,16.6c25.242,9.466,41.966,33.597,41.966,60.556v300.107
	c0,11.906-9.651,21.558-21.558,21.558h-43.116C427.336,503.916,417.684,494.264,417.684,482.358z"/>
<path style="fill:#F7A246;" d="M331.453,137.432h43.116c5.953,0,10.779,4.826,10.779,10.779v21.558
	c0,5.953-4.826,10.779-10.779,10.779h-43.116c-5.953,0-10.779-4.826-10.779-10.779v-21.558
	C320.674,142.257,325.499,137.432,331.453,137.432z"/>
<path style="fill:#D18839;" d="M385.347,158.989v10.779c0,5.953-4.826,10.779-10.779,10.779h-43.116
	c-5.953,0-10.779-4.826-10.779-10.779v-10.779H385.347z"/>
<path style="fill:#868686;" d="M94.316,460.8v21.558c0,11.906-9.651,21.558-21.558,21.558H29.642
	c-11.906,0-21.558-9.651-21.558-21.558V460.8H94.316z"/>
<path style="fill:#707070;" d="M503.916,460.8v21.558c0,11.906-9.651,21.558-21.558,21.558h-43.116
	c-11.906,0-21.558-9.651-21.558-21.558V460.8H503.916z"/>
<path d="M464.789,114.125L420.698,97.59l-70.382-30.163V29.642C350.316,13.298,337.018,0,320.674,0H191.326
	c-16.344,0-29.642,13.298-29.642,29.642v37.786L91.302,97.59l-44.091,16.535C18.973,124.713,0,152.092,0,182.25v300.107
	C0,498.702,13.298,512,29.642,512h43.116c16.344,0,29.642-13.298,29.642-29.642v-77.494l98.454,98.455
	c5.6,5.598,13.044,8.681,20.96,8.681h68.373c7.916,0,15.359-3.083,20.96-8.681l36.796-36.797c0.003-0.003,0.006-0.006,0.01-0.01
	l61.648-61.648v77.494c0,16.344,13.298,29.642,29.642,29.642h43.116C498.702,512,512,498.702,512,482.358V182.25
	C512,152.092,493.027,124.713,464.789,114.125z M299.714,491.885c-2.545,2.544-5.93,3.946-9.527,3.946h-68.373
	c-3.599,0-6.984-1.402-9.528-3.946L102.4,381.998V191.326c0-4.466-3.618-8.084-8.084-8.084c-4.466,0-8.084,3.618-8.084,8.084
	v194.021v10.779v86.232c0,7.43-6.044,13.474-13.474,13.474H29.642c-7.43,0-13.474-6.044-13.474-13.474v-13.474h45.811
	c4.466,0,8.084-3.618,8.084-8.084s-3.618-8.084-8.084-8.084H16.168V182.25c0-23.457,14.756-44.751,36.72-52.986l44.266-16.6
	c0.115-0.043,0.232-0.089,0.345-0.139l73.928-31.684h63.015c4.466,0,8.084-3.618,8.084-8.084c0-4.466-3.618-8.084-8.084-8.084
	h-56.589V29.642c0-7.43,6.044-13.474,13.474-13.474h59.284c4.458,0,8.084,3.626,8.084,8.084v48.505c0,0.517,0.05,1.035,0.149,1.544
	l74.632,383.822L299.714,491.885z M495.832,482.358c0,7.43-6.044,13.474-13.474,13.474h-43.116c-7.43,0-13.474-6.044-13.474-13.474
	v-13.474h45.811c4.466,0,8.084-3.618,8.084-8.084s-3.618-8.084-8.084-8.084h-45.811v-56.589v-10.779V191.326
	c0-4.466-3.618-8.084-8.084-8.084c-4.466,0-8.084,3.618-8.084,8.084v190.672l-62.335,62.336L274.863,71.979V24.253
	c0-2.834-0.494-5.553-1.391-8.084h47.201c7.43,0,13.474,6.044,13.474,13.474v35.032h-35.032c-4.466,0-8.084,3.618-8.084,8.084
	c0,4.466,3.618,8.084,8.084,8.084h41.457l73.927,31.684c0.113,0.05,0.23,0.096,0.345,0.139l44.266,16.6
	c21.964,8.235,36.721,29.529,36.721,52.986V482.358z M374.568,129.347h-43.116c-10.401,0-18.863,8.463-18.863,18.863v21.558
	c0,10.401,8.463,18.863,18.863,18.863h43.116c10.401,0,18.863-8.463,18.863-18.863v-21.558
	C393.432,137.81,384.969,129.347,374.568,129.347z M377.263,169.768c0,1.486-1.208,2.695-2.695,2.695h-43.116
	c-1.486,0-2.695-1.208-2.695-2.695v-21.558c0-1.486,1.208-2.695,2.695-2.695h43.116c1.486,0,2.695,1.208,2.695,2.695V169.768z"/>
<g>
</g>
<g>
</g>
<g>
</g>
<g>
</g>
<g>
</g>
<g>
</g>
<g>
</g>
<g>
</g>
<g>
</g>
<g>
</g>
<g>
</g>
<g>
</g>
<g>
</g>
<g>
</g>
<g>
</g>
</svg>
