<?xml version="1.0" encoding="iso-8859-1"?>
<!-- Generator: Adobe Illustrator 19.0.0, SVG Export Plug-In . SVG Version: 6.00 Build 0)  -->
<svg version="1.1" id="Layer_1" xmlns="http://www.w3.org/2000/svg" xmlns:xlink="http://www.w3.org/1999/xlink" x="0px" y="0px"
	 viewBox="0 0 512 512" style="enable-background:new 0 0 512 512;" xml:space="preserve">
<path style="fill:#F9B300;" d="M347.621,234.442H164.379V30.748c0-12.518,10.147-22.664,22.664-22.664h137.913
	c12.518,0,22.664,10.147,22.664,22.664v203.694H347.621z"/>
<path style="fill:#F9A100;" d="M331.453,234.442H164.379V30.748c0-12.518,10.147-22.664,22.664-22.664h36.62L331.453,234.442z"/>
<path style="fill:#939393;" d="M483.464,406.905H28.536c-11.295,0-20.452-9.157-20.452-20.452V233.336
	c0-11.295,9.157-20.452,20.452-20.452h454.929c11.295,0,20.452,9.157,20.452,20.452v153.118
	C503.916,397.749,494.759,406.905,483.464,406.905z"/>
<path style="fill:#868686;" d="M503.916,309.895v76.559c0,11.295-9.157,20.452-20.452,20.452H28.536
	c-11.295,0-20.452-9.157-20.452-20.452v-76.559H503.916z"/>
<path style="fill:#636363;" d="M110.484,309.895c0,14.883-12.065,26.947-26.947,26.947s-26.947-12.065-26.947-26.947
	c0-14.882,12.065-26.947,26.947-26.947S110.484,295.012,110.484,309.895z M169.768,282.947c-14.883,0-26.947,12.065-26.947,26.947
	c0,14.883,12.065,26.947,26.947,26.947c14.882,0,26.947-12.065,26.947-26.947C196.716,295.012,184.651,282.947,169.768,282.947z
	 M256,282.947c-14.882,0-26.947,12.065-26.947,26.947c0,14.883,12.065,26.947,26.947,26.947s26.947-12.065,26.947-26.947
	C282.947,295.012,270.882,282.947,256,282.947z M342.232,282.947c-14.883,0-26.947,12.065-26.947,26.947
	c0,14.883,12.065,26.947,26.947,26.947s26.947-12.065,26.947-26.947C369.179,295.012,357.114,282.947,342.232,282.947z
	 M428.463,282.947c-14.883,0-26.947,12.065-26.947,26.947c0,14.883,12.065,26.947,26.947,26.947s26.947-12.065,26.947-26.947
	C455.41,295.012,443.346,282.947,428.463,282.947z"/>
<path d="M483.464,414.989c15.735,0,28.536-12.801,28.536-28.536V233.336c0-15.735-12.801-28.536-28.536-28.536H355.705V29.642
	C355.705,13.298,342.408,0,326.063,0H185.937c-16.345,0-29.642,13.298-29.642,29.642V204.8H28.536C12.801,204.8,0,217.601,0,233.336
	v153.118c0,15.734,12.801,28.535,28.536,28.535h68.474v80.842H40.421c-4.465,0-8.084,3.618-8.084,8.084S35.956,512,40.421,512
	h463.495c4.465,0,8.084-3.618,8.084-8.084s-3.62-8.084-8.084-8.084h-88.926v-80.842H483.464z M172.463,29.642
	c0-7.43,6.044-13.474,13.474-13.474h140.126c7.43,0,13.474,6.044,13.474,13.474V204.8H172.463V29.642z M16.168,386.453V233.336
	c0-6.82,5.548-12.368,12.368-12.368h454.929c6.82,0,12.368,5.548,12.368,12.368v153.118c0,6.819-5.548,12.368-12.368,12.368H28.536
	C21.716,398.821,16.168,393.273,16.168,386.453z M398.821,495.832H113.179v-80.842h285.642V495.832z M17.246,503.916
	c0,4.466-3.62,8.084-8.084,8.084H8.084C3.62,512,0,508.382,0,503.916s3.62-8.084,8.084-8.084h1.078
	C13.627,495.832,17.246,499.45,17.246,503.916z M118.568,309.895c0-19.317-15.716-35.032-35.032-35.032
	s-35.032,15.715-35.032,35.032c0,19.317,15.716,35.032,35.032,35.032S118.568,329.212,118.568,309.895z M83.537,328.758
	c-10.401,0-18.863-8.463-18.863-18.863c0-10.401,8.463-18.863,18.863-18.863s18.863,8.463,18.863,18.863
	C102.4,320.295,93.937,328.758,83.537,328.758z M92.16,309.895c0,4.466-3.62,8.084-8.084,8.084h-1.078
	c-4.465,0-8.084-3.618-8.084-8.084s3.62-8.084,8.084-8.084h1.078C88.54,301.811,92.16,305.429,92.16,309.895z M169.768,344.926
	c19.316,0,35.032-15.715,35.032-35.032c0-19.317-15.716-35.032-35.032-35.032s-35.032,15.715-35.032,35.032
	C134.737,329.212,150.453,344.926,169.768,344.926z M169.768,291.032c10.401,0,18.863,8.463,18.863,18.863
	c0,10.401-8.463,18.863-18.863,18.863c-10.401,0-18.863-8.463-18.863-18.863C150.905,299.494,159.368,291.032,169.768,291.032z
	 M161.145,309.895c0-4.466,3.62-8.084,8.084-8.084h1.078c4.465,0,8.084,3.618,8.084,8.084s-3.62,8.084-8.084,8.084h-1.078
	C164.765,317.979,161.145,314.36,161.145,309.895z M256,344.926c19.316,0,35.032-15.715,35.032-35.032
	c0-19.317-15.716-35.032-35.032-35.032s-35.032,15.715-35.032,35.032C220.968,329.212,236.684,344.926,256,344.926z M256,291.032
	c10.401,0,18.863,8.463,18.863,18.863c0,10.401-8.463,18.863-18.863,18.863c-10.401,0-18.863-8.463-18.863-18.863
	C237.137,299.494,245.599,291.032,256,291.032z M247.377,309.895c0-4.466,3.62-8.084,8.084-8.084h1.078
	c4.465,0,8.084,3.618,8.084,8.084s-3.62,8.084-8.084,8.084h-1.078C250.996,317.979,247.377,314.36,247.377,309.895z
	 M342.232,344.926c19.316,0,35.032-15.715,35.032-35.032c0-19.317-15.716-35.032-35.032-35.032S307.2,290.578,307.2,309.895
	C307.2,329.212,322.916,344.926,342.232,344.926z M342.232,291.032c10.401,0,18.863,8.463,18.863,18.863
	c0,10.401-8.463,18.863-18.863,18.863c-10.401,0-18.863-8.463-18.863-18.863C323.368,299.494,331.831,291.032,342.232,291.032z
	 M333.608,309.895c0-4.466,3.62-8.084,8.084-8.084h1.078c4.465,0,8.084,3.618,8.084,8.084s-3.62,8.084-8.084,8.084h-1.078
	C337.228,317.979,333.608,314.36,333.608,309.895z M428.463,344.926c19.316,0,35.032-15.715,35.032-35.032
	c0-19.317-15.716-35.032-35.032-35.032s-35.032,15.715-35.032,35.032C393.432,329.212,409.147,344.926,428.463,344.926z
	 M428.463,291.032c10.401,0,18.863,8.463,18.863,18.863c0,10.401-8.463,18.863-18.863,18.863c-10.401,0-18.863-8.463-18.863-18.863
	C409.6,299.494,418.063,291.032,428.463,291.032z M419.84,309.895c0-4.466,3.62-8.084,8.084-8.084h1.078
	c4.465,0,8.084,3.618,8.084,8.084s-3.62,8.084-8.084,8.084h-1.078C423.46,317.979,419.84,314.36,419.84,309.895z M290.202,158.989
	c0,4.466-3.62,8.084-8.084,8.084h-44.774c-4.465,0-8.084-3.618-8.084-8.084c0-4.466,3.62-8.084,8.084-8.084h21.765V78.798
	L234.931,98.14c-3.486,2.789-8.574,2.224-11.363-1.262c-2.789-3.486-2.224-8.574,1.262-11.363l37.311-29.849
	c2.427-1.942,5.752-2.32,8.552-0.973c2.801,1.346,4.582,4.179,4.582,7.287v88.926h6.84
	C286.583,150.905,290.202,154.524,290.202,158.989z"/>
<g>
</g>
<g>
</g>
<g>
</g>
<g>
</g>
<g>
</g>
<g>
</g>
<g>
</g>
<g>
</g>
<g>
</g>
<g>
</g>
<g>
</g>
<g>
</g>
<g>
</g>
<g>
</g>
<g>
</g>
</svg>
