<?xml version="1.0" encoding="iso-8859-1"?>
<!-- Generator: Adobe Illustrator 19.0.0, SVG Export Plug-In . SVG Version: 6.00 Build 0)  -->
<svg version="1.1" id="Layer_1" xmlns="http://www.w3.org/2000/svg" xmlns:xlink="http://www.w3.org/1999/xlink" x="0px" y="0px"
	 viewBox="0 0 512 512" style="enable-background:new 0 0 512 512;" xml:space="preserve">
<path style="fill:#939393;" d="M277.441,439.242H234.56V288.337h42.882V439.242z"/>
<path style="fill:#004859;" d="M448.854,299.116H63.146c-11.906,0-21.558-9.651-21.558-21.558v-32.337h428.824v32.337
	C470.412,289.464,460.76,299.116,448.854,299.116z"/>
<path style="fill:#BC0000;" d="M477.082,256H34.918c-13.311,0-23.404-12.067-21.125-25.252l3.614-20.893
	C37.582,93.226,138.26,8.084,256,8.084l0,0c117.74,0,218.418,85.142,238.592,201.771l3.614,20.893
	C500.487,243.933,490.393,256,477.082,256z"/>
<path style="fill:#F93100;" d="M477.082,256H336.345C313.46,144.924,217.058,64.236,103.986,62.033
	C145.822,28.107,198.904,8.084,256,8.084l0,0c117.74,0,218.418,85.142,238.592,201.771l3.614,20.893
	C500.487,243.933,490.393,256,477.082,256z"/>
<path style="fill:#720000;" d="M170.259,212.884c-17.593,0-27.819-20.207-17.271-34.364c23.463-31.489,60.869-51.867,103.012-51.867
	s79.55,20.378,103.012,51.867c10.548,14.157,0.322,34.364-17.271,34.364l0,0c-6.678,0-13.033-3.083-17.031-8.46
	c-15.637-21.032-40.585-34.655-68.71-34.655s-53.073,13.624-68.709,34.655C183.292,209.801,176.936,212.884,170.259,212.884
	L170.259,212.884z"/>
<path style="fill:#FFFFFF;" d="M234.023,64.135c0,4.465-3.6,8.084-8.04,8.084h-1.072c-4.441,0-8.04-3.62-8.04-8.084
	s3.6-8.084,8.04-8.084h1.072C230.423,56.051,234.023,59.67,234.023,64.135z M189.131,65.351
	c-31.739,11.254-60.436,30.604-82.989,55.955c-22.703,25.52-38.666,56.569-46.163,89.79c-0.983,4.355,1.731,8.685,6.062,9.673
	c0.599,0.137,1.198,0.203,1.786,0.203c3.671,0,6.987-2.545,7.834-6.297c13.912-61.646,59.44-113.019,118.818-134.075
	c4.188-1.485,6.385-6.103,4.908-10.313C197.911,66.075,193.32,63.865,189.131,65.351z M452.022,211.095
	c-7.498-33.222-23.461-64.272-46.165-89.792c-22.554-25.352-51.252-44.701-82.992-55.956c-4.188-1.482-8.779,0.725-10.257,4.936
	c-1.477,4.21,0.721,8.827,4.909,10.312c59.379,21.055,104.909,72.429,118.823,134.076c0.847,3.752,4.162,6.297,7.834,6.297
	c0.589,0,1.188-0.066,1.787-0.203C450.29,219.779,453.005,215.45,452.022,211.095z M256.536,53.895h-1.072
	c-4.441,0-8.04,3.62-8.04,8.084s3.6,8.084,8.04,8.084h1.072c4.441,0,8.04-3.62,8.04-8.084S260.977,53.895,256.536,53.895z
	 M287.09,56.051h-1.073c-4.441,0-8.04,3.62-8.04,8.084s3.6,8.084,8.04,8.084h1.073c4.441,0,8.04-3.62,8.04-8.084
	S291.531,56.051,287.09,56.051z"/>
<path style="fill:#3D3D3D;" d="M293.523,471.579L293.523,471.579c2.96,0,5.36,2.413,5.36,5.389v21.558
	c0,2.976-2.399,5.389-5.36,5.389h-75.044c-2.96,0-5.36-2.413-5.36-5.389v-21.558c0-2.976,2.399-5.389,5.36-5.389l0,0
	c2.96,0,5.36-2.413,5.36-5.389v-26.947c0-5.953,4.8-10.779,10.721-10.779h42.882c5.921,0,10.721,4.826,10.721,10.779v26.947
	C288.162,469.165,290.562,471.579,293.523,471.579z"/>
<path d="M506.172,229.371l-3.614-20.893c-10.08-58.274-40.429-111.339-85.456-149.417C372.067,20.975,314.853,0,256,0
	S139.932,20.975,94.896,59.061C49.87,97.139,19.522,150.204,9.442,208.478l-3.614,20.893c-1.499,8.666,0.885,17.49,6.541,24.206
	c5.316,6.314,12.955,10.078,21.135,10.469v13.512c0,16.344,13.245,29.642,29.526,29.642h163.445v115.037
	c-6.328,3.041-10.721,9.509-10.721,17.005v24.531c-6.112,1.265-10.721,6.701-10.721,13.196v21.558
	c0,7.43,6.031,13.474,13.445,13.474h75.044c7.414,0,13.445-6.044,13.445-13.474v-21.558c0-6.494-4.608-11.93-10.721-13.196v-24.531
	c0-7.496-4.392-13.965-10.72-17.005V307.2h163.444c16.281,0,29.526-13.298,29.526-29.642v-13.512
	c8.18-0.39,15.819-4.153,21.136-10.469C505.287,246.859,507.671,238.036,506.172,229.371z M290.799,479.385v16.447h-69.596v-16.447
	c6.112-1.265,10.721-6.701,10.721-13.196v-26.947c0-1.486,1.182-2.695,2.637-2.695h42.883c1.454,0,2.635,1.208,2.635,2.695v26.947
	C280.077,472.684,284.686,478.12,290.799,479.385z M448.97,291.032H277.441c-4.466,0-8.084,3.618-8.084,8.084v121.263h-26.713V307.2
	h2.637c4.465,0,8.084-3.618,8.084-8.084s-3.62-8.084-8.084-8.084H234.56H63.029c-7.365,0-13.357-6.044-13.357-13.474v-13.474
	h412.656v13.474C462.327,284.988,456.335,291.032,448.97,291.032z M487.262,243.164c-2.542,3.02-6.253,4.751-10.18,4.751H34.918
	c-3.928,0-7.639-1.731-10.181-4.751c-2.576-3.06-3.662-7.083-2.978-11.038l3.614-20.893C44.924,98.205,141.917,16.168,256,16.168
	c114.082,0,211.074,82.036,230.625,195.066l3.614,20.893C490.924,236.082,489.84,240.104,487.262,243.164z M256,118.568
	c-43.484,0-83.393,20.091-109.496,55.121c-6.706,9-7.731,20.848-2.674,30.918c5.066,10.091,15.193,16.361,26.429,16.361
	c9.27,0,18.062-4.382,23.52-11.721c14.832-19.953,37.511-31.396,62.221-31.396c24.71,0,47.389,11.443,62.221,31.395
	c5.457,7.339,14.249,11.721,23.52,11.721c11.236,0,21.364-6.269,26.43-16.361c5.055-10.071,4.03-21.918-2.675-30.919
	C339.395,138.659,299.484,118.568,256,118.568z M353.72,197.354c-2.34,4.663-6.819,7.446-11.979,7.446
	c-4.181,0-8.122-1.943-10.543-5.199c-17.916-24.097-45.324-37.917-75.198-37.917c-29.875,0-57.284,13.82-75.197,37.917
	c-2.421,3.256-6.362,5.199-10.544,5.199c-5.161,0-9.639-2.783-11.979-7.446c-2.33-4.641-1.885-9.877,1.19-14.004
	c23.02-30.894,58.203-48.613,96.53-48.613s73.51,17.718,96.53,48.612C355.605,187.477,356.05,192.712,353.72,197.354z"/>
<g>
</g>
<g>
</g>
<g>
</g>
<g>
</g>
<g>
</g>
<g>
</g>
<g>
</g>
<g>
</g>
<g>
</g>
<g>
</g>
<g>
</g>
<g>
</g>
<g>
</g>
<g>
</g>
<g>
</g>
</svg>
