<?xml version="1.0" encoding="iso-8859-1"?>
<!-- Generator: Adobe Illustrator 19.0.0, SVG Export Plug-In . SVG Version: 6.00 Build 0)  -->
<svg version="1.1" id="Layer_1" xmlns="http://www.w3.org/2000/svg" xmlns:xlink="http://www.w3.org/1999/xlink" x="0px" y="0px"
	 viewBox="0 0 512 512" style="enable-background:new 0 0 512 512;" xml:space="preserve">
<path style="fill:#F96800;" d="M169.956,261.389H40.889l-9.086-54.635c-1.049-6.307-5.046-11.731-10.752-14.59l-1.404-0.704
	c-6.756-3.386-11.024-10.306-11.024-17.876l0,0c0-11.038,8.928-19.985,19.942-19.985h94.288c8.806,0,16.57,5.789,19.101,14.242
	L169.956,261.389z"/>
<path style="fill:#F93100;" d="M9.876,180.547h91.451c8.806,0,16.57,5.789,19.101,14.242l19.936,66.6H40.889l-9.087-54.635
	c-1.049-6.307-5.046-11.731-10.752-14.59l-1.404-0.704C15.048,189.158,11.608,185.216,9.876,180.547z"/>
<path style="fill:#BC0000;" d="M105.422,239.832l72.867-29.21c22.916-9.186,47.37-13.906,72.051-13.906l0,0
	c18.026,0,35.964,2.518,53.297,7.481l168.716,48.309c18.364,5.258,31.025,22.08,31.025,41.221l0,0
	c0,11.906-9.631,21.558-21.512,21.558H105.422V239.832z"/>
<path style="fill:#720000;" d="M352.852,218.289L352.852,218.289l119.501,34.217c6.174,1.768,11.694,4.853,16.314,8.884h0.012
	c0.22,0.192,0.429,0.397,0.645,0.594c0.328,0.299,0.66,0.593,0.979,0.901c0.271,0.262,0.527,0.536,0.79,0.804
	c0.522,0.531,1.028,1.076,1.521,1.634c0.291,0.329,0.586,0.654,0.867,0.993c0.237,0.286,0.461,0.582,0.691,0.874
	c0.269,0.343,0.541,0.683,0.8,1.034c0.217,0.293,0.424,0.594,0.633,0.894c0.255,0.365,0.51,0.731,0.755,1.104
	c0.194,0.296,0.38,0.596,0.567,0.897c0.244,0.393,0.483,0.789,0.714,1.19c0.169,0.293,0.334,0.589,0.497,0.886
	c0.234,0.428,0.458,0.861,0.677,1.297c0.141,0.281,0.282,0.563,0.418,0.847c0.227,0.479,0.441,0.964,0.651,1.451
	c0.109,0.253,0.222,0.504,0.327,0.761c0.234,0.575,0.451,1.158,0.661,1.744c0.053,0.148,0.115,0.291,0.166,0.439h-0.005
	c1.524,4.415,2.35,9.129,2.35,13.995l0,0c0,11.906-9.631,21.558-21.512,21.558H105.422v-53.895h204.33
	C333.556,261.389,352.852,242.093,352.852,218.289z"/>
<path style="fill:#1A6399;" d="M352.8,277.558c0-26.789,21.669-48.505,48.4-48.505s48.4,21.716,48.4,48.505
	s-21.669,48.505-48.4,48.505S352.8,304.347,352.8,277.558z"/>
<path style="fill:#F9A100;" d="M385.067,277.558c0-8.929,7.223-16.168,16.133-16.168s16.133,7.239,16.133,16.168
	c0,8.929-7.223,16.168-16.133,16.168S385.067,286.487,385.067,277.558z"/>
<path style="fill:#FFFFFF;" d="M156.515,253.305h142.507c4.465,0,8.084,3.62,8.084,8.084s-3.62,8.084-8.084,8.084H156.515
	c-4.465,0-8.084-3.62-8.084-8.084S152.05,253.305,156.515,253.305z M317.289,261.389c0,4.465,3.62,8.084,8.084,8.084h1.076
	c4.465,0,8.084-3.62,8.084-8.084s-3.62-8.084-8.084-8.084h-1.076C320.909,253.305,317.289,256.925,317.289,261.389z"/>
<path style="fill:#1A6399;" d="M105.422,326.063c-35.641,0-64.534-28.955-64.534-64.674s28.893-64.674,64.534-64.674
	s64.534,28.956,64.534,64.674S141.063,326.063,105.422,326.063z"/>
<path style="fill:#F9A100;" d="M105.422,293.726c-17.821,0-32.267-14.477-32.267-32.337s14.446-32.337,32.267-32.337
	s32.267,14.477,32.267,32.337S123.242,293.726,105.422,293.726z"/>
<path style="fill:#F9B300;" d="M136.313,252.039c-2.848,8.548-10.883,14.716-20.37,14.716c-11.868,0-21.488-9.642-21.488-21.534
	c0-6.319,2.732-11.984,7.058-15.924c1.283-0.155,2.585-0.245,3.908-0.245C119.998,229.053,132.311,238.74,136.313,252.039z"/>
<path d="M510.924,293.726c0-22.628-15.167-42.774-36.884-48.991l-35.686-10.218c-0.46-0.133-0.923-0.213-1.384-0.262
	c-9.826-8.284-22.492-13.286-36.308-13.286c-2.655,0-5.263,0.198-7.821,0.555c-0.231-0.089-0.467-0.172-0.709-0.243l-86.807-24.856
	c-18.059-5.172-36.74-7.793-55.522-7.793c-25.826,0-51.08,4.873-75.059,14.486l-12.795,5.13l-12.789-42.725
	c-3.582-11.967-14.371-20.007-26.845-20.007H28.026C12.573,145.516,0,158.108,0,173.585c0,10.698,5.935,20.318,15.488,25.104
	l1.402,0.702c3.385,1.696,5.776,4.945,6.401,8.69l8.996,54.096c0.425,39.756,32.819,71.97,72.597,71.97
	c13.926,0,26.944-3.956,38.008-10.794c0.096,0.003,0.191,0.015,0.288,0.015h224.379c9.31,6.771,20.745,10.779,33.103,10.779
	s23.793-4.008,33.103-10.779h47.564C497.649,323.368,510.924,310.07,510.924,293.726z M180.76,218.126
	c22.057-8.843,45.286-13.326,69.042-13.326c17.276,0,34.459,2.411,51.072,7.168l67.371,19.29
	c-14.539,10.249-24.066,27.175-24.066,46.299c0,10.862,3.077,21.016,8.395,29.642H161.248
	c10.154-12.518,16.255-28.461,16.255-45.811c0-13.804-3.857-26.722-10.547-37.73L180.76,218.126z M24.133,184.935l-1.403-0.702
	c-4.047-2.029-6.561-6.108-6.561-10.649c0-6.562,5.319-11.901,11.858-11.901h94.288c5.275,0,9.839,3.406,11.357,8.475l8.655,28.913
	c-10.941-6.624-23.754-10.442-37.442-10.442c-26.565,0-49.83,14.373-62.491,35.757l-3.153-18.961
	C37.772,196.602,32.124,188.941,24.133,184.935z M48.435,261.389c0-31.203,25.323-56.589,56.449-56.589s56.449,25.387,56.449,56.589
	s-25.323,56.589-56.449,56.589S48.435,292.592,48.435,261.389z M360.347,277.558c0-22.289,18.085-40.421,40.315-40.421
	s40.315,18.132,40.315,40.421c0,22.289-18.085,40.421-40.315,40.421S360.347,299.847,360.347,277.558z M481.33,307.2h-32.577
	c5.317-8.626,8.395-18.78,8.395-29.642c0-7.85-1.606-15.331-4.503-22.132l16.947,4.853c14.818,4.244,25.167,17.997,25.167,33.448
	C494.756,301.156,488.733,307.2,481.33,307.2z M400.662,253.305c-13.354,0-24.217,10.88-24.217,24.253
	c0,13.372,10.863,24.253,24.217,24.253c13.354,0,24.218-10.88,24.218-24.253C424.88,264.186,414.016,253.305,400.662,253.305z
	 M400.662,285.642c-4.438,0-8.049-3.626-8.049-8.084s3.611-8.084,8.049-8.084c4.439,0,8.05,3.626,8.05,8.084
	C408.712,282.016,405.101,285.642,400.662,285.642z M104.885,220.968c-22.25,0-40.351,18.132-40.351,40.421
	c0,22.289,18.101,40.421,40.351,40.421s40.351-18.132,40.351-40.421S127.133,220.968,104.885,220.968z M104.885,285.642
	c-13.334,0-24.183-10.88-24.183-24.253s10.849-24.253,24.183-24.253s24.183,10.88,24.183,24.253S118.218,285.642,104.885,285.642z
	 M48.435,358.4c0,4.466-3.618,8.084-8.084,8.084h-1.075c-4.466,0-8.084-3.618-8.084-8.084c0-4.466,3.618-8.084,8.084-8.084h1.075
	C44.816,350.316,48.435,353.934,48.435,358.4z M17.244,358.4c0,4.466-3.618,8.084-8.084,8.084H8.084
	C3.618,366.484,0,362.866,0,358.4c0-4.466,3.618-8.084,8.084-8.084H9.16C13.626,350.316,17.244,353.934,17.244,358.4z M512,358.4
	c0,4.466-3.618,8.084-8.084,8.084h-1.076c-4.466,0-8.084-3.618-8.084-8.084c0-4.466,3.618-8.084,8.084-8.084h1.076
	C508.382,350.316,512,353.934,512,358.4z M0,277.558c0-4.466,3.618-8.084,8.084-8.084H9.16c4.466,0,8.084,3.618,8.084,8.084
	s-3.618,8.084-8.084,8.084H8.084C3.618,285.642,0,282.024,0,277.558z M478.657,358.4c0,4.466-3.618,8.084-8.084,8.084H72.618
	c-4.466,0-8.084-3.618-8.084-8.084c0-4.466,3.618-8.084,8.084-8.084h397.955C475.039,350.316,478.657,353.934,478.657,358.4z
	 M29.596,317.979H8.084c-4.466,0-8.084-3.618-8.084-8.084s3.618-8.084,8.084-8.084h21.512c4.466,0,8.084,3.618,8.084,8.084
	S34.061,317.979,29.596,317.979z"/>
<g>
</g>
<g>
</g>
<g>
</g>
<g>
</g>
<g>
</g>
<g>
</g>
<g>
</g>
<g>
</g>
<g>
</g>
<g>
</g>
<g>
</g>
<g>
</g>
<g>
</g>
<g>
</g>
<g>
</g>
</svg>
