<?xml version="1.0" encoding="iso-8859-1"?>
<!-- Generator: Adobe Illustrator 19.0.0, SVG Export Plug-In . SVG Version: 6.00 Build 0)  -->
<svg version="1.1" id="Layer_1" xmlns="http://www.w3.org/2000/svg" xmlns:xlink="http://www.w3.org/1999/xlink" x="0px" y="0px"
	 viewBox="0 0 512 512" style="enable-background:new 0 0 512 512;" xml:space="preserve">
<path style="fill:#B2682F;" d="M288.337,18.863v474.274c0,5.953-4.826,10.779-10.779,10.779h-43.116
	c-5.953,0-10.779-4.826-10.779-10.779V18.863c0-5.953,4.826-10.779,10.779-10.779h43.116
	C283.511,8.084,288.337,12.91,288.337,18.863z"/>
<path style="fill:#D18839;" d="M223.056,270.32l-78.733,226.358c-1.507,4.333-5.592,7.238-10.181,7.238H92.294
	c-7.416,0-12.617-7.316-10.181-14.32l78.733-226.358c1.507-4.333,5.592-7.238,10.181-7.238h41.849
	C220.291,256,225.492,263.316,223.056,270.32z M288.944,270.32l78.733,226.358c1.507,4.333,5.592,7.238,10.181,7.238h41.849
	c7.416,0,12.617-7.316,10.181-14.32l-78.733-226.358c-1.507-4.333-5.592-7.238-10.181-7.238h-41.849
	C291.708,256,286.508,263.316,288.944,270.32z"/>
<path style="fill:#E2E2E2;" d="M460.8,245.221c0,113.108-91.692,204.8-204.8,204.8s-204.8-91.692-204.8-204.8
	s91.692-204.8,204.8-204.8S460.8,132.113,460.8,245.221z"/>
<path style="fill:#6D6D6D;" d="M417.684,245.221c0,89.296-72.388,161.684-161.684,161.684S94.316,334.517,94.316,245.221
	S166.704,83.537,256,83.537S417.684,155.925,417.684,245.221z"/>
<path style="fill:#007DBC;" d="M374.568,245.221c0,65.483-53.085,118.568-118.568,118.568s-118.568-53.085-118.568-118.568
	S190.517,126.653,256,126.653S374.568,179.738,374.568,245.221z"/>
<path style="fill:#F93100;" d="M331.453,245.221c0,41.671-33.781,75.453-75.453,75.453s-75.453-33.781-75.453-75.453
	s33.781-75.453,75.453-75.453S331.453,203.55,331.453,245.221z"/>
<path style="fill:#F9B300;" d="M288.337,245.221c0,17.86-14.477,32.337-32.337,32.337s-32.337-14.477-32.337-32.337
	S238.14,212.884,256,212.884S288.337,227.361,288.337,245.221z"/>
<path d="M17.246,503.916c0,4.466-3.62,8.084-8.084,8.084H8.084C3.62,512,0,508.382,0,503.916s3.62-8.084,8.084-8.084h1.078
	C13.627,495.832,17.246,499.45,17.246,503.916z M512,503.916c0,4.466-3.62,8.084-8.084,8.084h-84.209h-41.849H277.558h-43.116
	h-100.3H92.294H40.421c-4.465,0-8.084-3.618-8.084-8.084s3.62-8.084,8.084-8.084h33.208c-0.426-2.951-0.156-6.003,0.848-8.892
	l31.569-90.762c-38.843-38.586-62.931-92.009-62.931-150.957c0-103.566,74.343-190.08,172.463-209.018v-17.34
	C215.579,8.463,224.041,0,234.442,0h43.116c10.401,0,18.863,8.463,18.863,18.863v17.34
	c98.12,18.938,172.463,105.452,172.463,209.018c0,58.948-24.088,112.371-62.931,150.957l31.569,90.762
	c1.005,2.889,1.275,5.94,0.848,8.892h65.545C508.38,495.832,512,499.45,512,503.916z M231.747,33.727
	c7.962-0.908,16.052-1.39,24.253-1.39c8.201,0,16.29,0.483,24.253,1.39V18.863c0-1.486-1.209-2.695-2.695-2.695h-43.116
	c-1.485,0-2.695,1.208-2.695,2.695V33.727z M256,441.937c108.47,0,196.716-88.246,196.716-196.716S364.47,48.505,256,48.505
	S59.284,136.751,59.284,245.221S147.53,441.937,256,441.937z M296.421,493.137c0,0.917-0.088,1.812-0.216,2.695h62.618
	l-19.094-54.896c-13.754,5.906-28.252,10.397-43.308,13.303v38.898H296.421z M172.271,440.935l-19.094,54.896h62.617
	c-0.127-0.883-0.216-1.777-0.216-2.695v-38.898C200.523,451.333,186.025,446.842,172.271,440.935z M134.142,495.832
	c1.146,0,2.169-0.728,2.546-1.81l20.896-60.078c-13.807-7.229-26.725-15.929-38.55-25.891l-29.285,84.198
	c-0.398,1.144,0.047,2.023,0.348,2.447c0.301,0.424,0.986,1.134,2.197,1.134L134.142,495.832L134.142,495.832z M277.558,495.832
	c1.485,0,2.695-1.208,2.695-2.695v-36.422c-7.962,0.908-16.052,1.391-24.253,1.391c-8.201,0-16.29-0.483-24.253-1.391v36.422
	c0,1.486,1.209,2.695,2.695,2.695H277.558z M419.706,495.832c1.21,0,1.895-0.71,2.197-1.134c0.301-0.424,0.746-1.303,0.349-2.447
	l-29.286-84.198c-11.825,9.962-24.742,18.662-38.55,25.891l20.896,60.078c0.377,1.082,1.399,1.81,2.546,1.81L419.706,495.832
	L419.706,495.832z M256,118.568c69.837,0,126.653,56.816,126.653,126.653S325.837,371.874,256,371.874
	s-126.653-56.816-126.653-126.653S186.163,118.568,256,118.568z M145.516,245.221c0,60.922,49.563,110.484,110.484,110.484
	s110.484-49.563,110.484-110.484S316.922,134.737,256,134.737S145.516,184.3,145.516,245.221z M172.463,245.221
	c0-46.062,37.474-83.537,83.537-83.537s83.537,37.475,83.537,83.537S302.063,328.758,256,328.758S172.463,291.283,172.463,245.221z
	 M188.632,245.221c0,37.147,30.222,67.368,67.368,67.368s67.368-30.221,67.368-67.368S293.146,177.853,256,177.853
	S188.632,208.074,188.632,245.221z M215.579,245.221c0-22.289,18.132-40.421,40.421-40.421s40.421,18.132,40.421,40.421
	S278.289,285.642,256,285.642S215.579,267.51,215.579,245.221z M231.747,245.221c0,13.372,10.879,24.253,24.253,24.253
	s24.253-10.88,24.253-24.253c0-13.372-10.879-24.253-24.253-24.253S231.747,231.849,231.747,245.221z M171.11,392.267
	c1.275,0.737,2.667,1.088,4.041,1.088c2.791,0,5.507-1.448,7.005-4.037c2.236-3.865,0.915-8.811-2.95-11.046
	c-47.376-27.406-76.806-78.388-76.806-133.051s29.431-105.646,76.805-133.051c3.864-2.236,5.186-7.181,2.95-11.046
	c-2.236-3.863-7.183-5.186-11.046-2.949c-25.34,14.659-46.592,35.738-61.46,60.958c-15.319,25.989-23.417,55.757-23.417,86.088
	s8.098,60.099,23.418,86.088C124.518,356.53,145.77,377.608,171.11,392.267z M332.795,112.17
	c47.375,27.405,76.805,78.388,76.805,133.051s-29.431,105.646-76.805,133.051c-3.864,2.236-5.186,7.181-2.95,11.046
	c1.498,2.589,4.214,4.037,7.005,4.037c1.373,0,2.766-0.35,4.041-1.088c25.34-14.659,46.592-35.738,61.46-60.958
	c15.319-25.989,23.417-55.757,23.417-86.088s-8.098-60.099-23.418-86.088c-14.867-25.22-36.12-46.299-61.46-60.958
	c-3.864-2.234-8.81-0.916-11.046,2.949C327.609,104.989,328.929,109.934,332.795,112.17z M201.027,102.4h1.078
	c4.465,0,8.084-3.618,8.084-8.084c0-4.466-3.62-8.084-8.084-8.084h-1.078c-4.465,0-8.084,3.618-8.084,8.084
	C192.943,98.782,196.563,102.4,201.027,102.4z M309.895,102.4h1.078c4.465,0,8.084-3.618,8.084-8.084
	c0-4.466-3.62-8.084-8.084-8.084h-1.078c-4.465,0-8.084,3.618-8.084,8.084C301.811,98.782,305.43,102.4,309.895,102.4z
	 M202.105,388.042h-1.078c-4.465,0-8.084,3.618-8.084,8.084c0,4.466,3.62,8.084,8.084,8.084h1.078c4.465,0,8.084-3.618,8.084-8.084
	C210.189,391.661,206.57,388.042,202.105,388.042z M310.973,388.042h-1.078c-4.465,0-8.084,3.618-8.084,8.084
	c0,4.466,3.62,8.084,8.084,8.084h1.078c4.465,0,8.084-3.618,8.084-8.084C319.057,391.661,315.437,388.042,310.973,388.042z"/>
<g>
</g>
<g>
</g>
<g>
</g>
<g>
</g>
<g>
</g>
<g>
</g>
<g>
</g>
<g>
</g>
<g>
</g>
<g>
</g>
<g>
</g>
<g>
</g>
<g>
</g>
<g>
</g>
<g>
</g>
</svg>
