<?xml version="1.0" encoding="iso-8859-1"?>
<!-- Generator: Adobe Illustrator 19.0.0, SVG Export Plug-In . SVG Version: 6.00 Build 0)  -->
<svg version="1.1" id="Layer_1" xmlns="http://www.w3.org/2000/svg" xmlns:xlink="http://www.w3.org/1999/xlink" x="0px" y="0px"
	 viewBox="0 0 512 512" style="enable-background:new 0 0 512 512;" xml:space="preserve">
<path style="fill:#E2E2E2;" d="M503.916,51.2v102.4v113.179v102.4c0,5.953-4.826,10.779-10.779,10.779h-102.4H277.558H164.379
	H16.707V266.779V153.6V40.421h147.672h113.179h113.179h102.4C499.09,40.421,503.916,45.247,503.916,51.2z"/>
<path style="fill:#002E35;" d="M390.737,153.6H277.558V40.421h113.179V153.6z M40.421,40.421V153.6h123.958V40.421H40.421z
	 M390.737,153.6v113.179h113.179V153.6H390.737z M164.379,153.6v113.179h113.179V153.6H164.379z M277.558,379.958h113.179V266.779
	H277.558V379.958z M40.421,379.958h123.958V266.779H40.421V379.958z"/>
<path style="fill:#BF4D00;" d="M29.642,503.916L29.642,503.916c-11.906,0-21.558-9.651-21.558-21.558V29.642
	c0-11.906,9.651-21.558,21.558-21.558l0,0c11.906,0,21.558,9.651,21.558,21.558v452.716C51.2,494.264,41.549,503.916,29.642,503.916
	z"/>
<path style="fill:#8C1A00;" d="M40.421,501.009c-3.173,1.838-6.848,2.907-10.779,2.907c-11.906,0-21.558-9.651-21.558-21.558V29.642
	c0-11.906,9.651-21.558,21.558-21.558c3.931,0,7.606,1.069,10.779,2.907c-6.437,3.73-10.779,10.675-10.779,18.65v452.716
	C29.642,490.332,33.984,497.279,40.421,501.009z"/>
<path d="M493.137,32.337H59.284v-2.695C59.284,13.298,45.986,0,29.642,0S0,13.298,0,29.642v452.716C0,498.702,13.298,512,29.642,512
	s29.642-13.298,29.642-29.642v-94.316h433.853c10.401,0,18.863-8.463,18.863-18.863V51.2C512,40.799,503.537,32.337,493.137,32.337z
	 M43.116,482.358c0,7.43-6.044,13.474-13.474,13.474s-13.474-6.044-13.474-13.474V29.642c0-7.43,6.044-13.474,13.474-13.474
	s13.474,6.044,13.474,13.474V482.358z M495.832,369.179c0,1.486-1.208,2.695-2.695,2.695H59.284V48.505h433.853
	c1.486,0,2.695,1.208,2.695,2.695V369.179z"/>
<g>
</g>
<g>
</g>
<g>
</g>
<g>
</g>
<g>
</g>
<g>
</g>
<g>
</g>
<g>
</g>
<g>
</g>
<g>
</g>
<g>
</g>
<g>
</g>
<g>
</g>
<g>
</g>
<g>
</g>
</svg>
