<?xml version="1.0" encoding="iso-8859-1"?>
<!-- Generator: Adobe Illustrator 19.0.0, SVG Export Plug-In . SVG Version: 6.00 Build 0)  -->
<svg version="1.1" id="Layer_1" xmlns="http://www.w3.org/2000/svg" xmlns:xlink="http://www.w3.org/1999/xlink" x="0px" y="0px"
	 viewBox="0 0 512.001 512.001" style="enable-background:new 0 0 512.001 512.001;" xml:space="preserve">
<g>
	<path style="fill:#F93100;" d="M173.481,46.173l3.403-0.912c13.866-3.715,27.884,5.447,30.045,19.638l7.399,48.58
		c1.66,10.901-4.294,21.336-14.116,25.651c-10.663,1.173-21.037-4.886-25.05-15.156l-17.882-45.771
		C152.055,64.831,159.614,49.888,173.481,46.173z"/>
	<path style="fill:#F93100;" d="M406.249,78.202l-17.882,45.771c-4.013,10.27-14.387,16.329-25.05,15.156
		c-9.821-4.315-15.776-14.75-14.116-25.651l7.399-48.58c2.161-14.192,16.179-23.354,30.045-19.638l3.403,0.912
		C403.915,49.888,411.473,64.831,406.249,78.202z"/>
</g>
<path style="fill:#6D2C00;" d="M258.628,295.688L113.813,440.503c-2.105,2.105-5.517,2.105-7.622,0l-30.487-30.487
	c-2.105-2.105-2.105-5.517,0-7.622l144.815-144.815c2.105-2.105,5.517-2.105,7.622,0l30.487,30.487
	C260.733,290.17,260.733,293.583,258.628,295.688z"/>
<path style="fill:#F93100;" d="M283.668,40.421h3.523c14.355,0,25.523,12.478,23.939,26.746l-5.426,48.838
	c-1.218,10.959-9.671,19.497-20.273,21.124c-10.603-1.627-19.056-10.165-20.273-21.124l-5.426-48.838
	C258.144,52.899,269.313,40.421,283.668,40.421z"/>
<path style="fill:#BC0000;" d="M200.995,138.794c-1.341,0.647-2.759,1.177-4.246,1.576c-11.855,3.177-24.202-3.069-28.669-14.5
	l-17.882-45.771c-5.225-13.371,2.335-28.314,16.201-32.03l9.596-2.572L200.995,138.794z M362.534,138.794
	c1.341,0.647,2.759,1.177,4.246,1.576c11.855,3.177,24.202-3.069,28.669-14.5l17.882-45.771c5.225-13.371-2.335-28.314-16.201-32.03
	l-9.596-2.572L362.534,138.794z M286.273,40.421h-9.935c-14.355,0-25.523,12.478-23.939,26.746l5.426,48.838
	c1.355,12.197,11.666,21.426,23.939,21.426c1.538,0,3.046-0.146,4.509-0.424V40.421z"/>
<path style="fill:#D18839;" d="M341.766,503.916H221.763c-5.665,0-10.364-4.386-10.753-10.037l-20.071-291.032
	c-0.43-6.23,4.509-11.521,10.753-11.521h160.146c6.245,0,11.183,5.29,10.753,11.521l-20.071,291.032
	C352.13,499.53,347.431,503.916,341.766,503.916z"/>
<path style="fill:#B2682F;" d="M356.231,440.067l-3.711,53.812c-0.39,5.651-5.088,10.037-10.753,10.037H221.763
	c-5.665,0-10.364-4.386-10.753-10.037l-20.071-291.032c-0.43-6.23,4.509-11.521,10.753-11.521h46.637l11.616,168.442
	c3.118,45.214,40.706,80.299,86.027,80.299H356.231z"/>
<path style="fill:#8E3900;" d="M384.165,299.116h-204.8c-2.976,0-5.389-2.413-5.389-5.389v-43.116c0-2.976,2.413-5.389,5.389-5.389
	h204.8c2.976,0,5.389,2.413,5.389,5.389v43.116C389.554,296.702,387.141,299.116,384.165,299.116z"/>
<path style="fill:#E28A3B;" d="M265.596,309.895H233.26c-2.976,0-5.389-2.413-5.389-5.389v-64.674c0-2.976,2.413-5.389,5.389-5.389
	h32.337c2.976,0,5.389,2.413,5.389,5.389v64.674C270.986,307.481,268.573,309.895,265.596,309.895z"/>
<path style="fill:#FFB150;" d="M270.986,239.832v47.572c-1.984,0.603-4.088,0.933-6.27,0.933c-11.906,0-21.558-9.651-21.558-21.558
	v-32.337h22.439C268.573,234.442,270.986,236.855,270.986,239.832z"/>
<path d="M404.397,41.059l6.33-23.53c1.16-4.312-1.395-8.746-5.706-9.906c-4.306-1.159-8.746,1.394-9.906,5.706l-6.338,23.558
	c-8.111-1.471-16.536,0.197-23.482,4.738c-7.647,5.001-12.823,13.038-14.201,22.05l-7.429,48.579
	c-2.062,13.481,4.577,26.411,15.998,32.841l-10.263,38.146h-57.373v-38.751c12.702-3.263,22.475-14.037,23.987-27.589l5.449-48.839
	c1.011-9.062-1.9-18.164-7.988-24.968c-5.527-6.18-13.232-9.966-21.447-10.639V8.084c0-4.466-3.618-8.084-8.084-8.084
	c-4.466,0-8.084,3.618-8.084,8.084v24.371c-8.215,0.674-15.918,4.459-21.447,10.639c-6.088,6.805-8.999,15.905-7.988,24.968
	l5.449,48.839c1.512,13.55,11.284,24.325,23.985,27.589v38.751h-57.371l-10.263-38.146c11.42-6.432,18.058-19.36,15.997-32.841
	l-7.429-48.579c-1.379-9.012-6.555-17.049-14.2-22.05c-6.945-4.54-15.371-6.209-23.48-4.738l-6.338-23.558
	c-1.161-4.312-5.598-6.865-9.907-5.706c-4.312,1.16-6.866,5.594-5.706,9.906l6.33,23.53c-7.752,2.769-14.206,8.41-17.94,15.798
	c-4.12,8.15-4.57,17.697-1.235,26.195l17.954,45.771c4.941,12.595,17.023,20.461,30.02,20.461c0.105,0,0.21-0.009,0.315-0.01
	l9.164,34.061c-4.583,0.434-8.907,2.532-12.065,5.918c-3.552,3.806-5.383,8.964-5.023,14.153l2.333,33.732h-5.892
	c-7.442,0-13.496,6.044-13.496,13.474v43.116c0,2.054,0.476,3.995,1.303,5.739l-97.599,97.201c-2.557,2.547-3.963,5.935-3.963,9.54
	s1.409,6.992,3.965,9.538l30.612,30.486c2.628,2.618,6.08,3.928,9.532,3.928s6.903-1.31,9.531-3.927l75.294-74.987l8.53,123.193
	c0.032,0.472,0.098,0.933,0.165,1.395h-50.932c-4.465,0-8.084,3.618-8.084,8.084c0,4.466,3.62,8.084,8.084,8.084h248.93
	c4.466,0,8.084-3.618,8.084-8.084c0-4.466-3.618-8.084-8.084-8.084h-40.108c0.067-0.461,0.133-0.923,0.165-1.395L376.019,307.2
	h10.743c7.441,0,13.495-6.044,13.495-13.474v-43.116c0-7.43-6.053-13.474-13.495-13.474h-5.892l2.336-33.732
	c0.359-5.188-1.471-10.347-5.023-14.153c-3.16-3.386-7.483-5.483-12.066-5.918l9.164-34.061c0.105,0,0.21,0.01,0.315,0.01
	c12.997,0,25.08-7.868,30.022-20.461l17.956-45.771c3.334-8.499,2.883-18.046-1.236-26.195
	C418.603,49.469,412.149,43.829,404.397,41.059z M301.425,53.874c3.069,3.431,4.478,7.833,3.969,12.396l-5.449,48.838
	c-0.582,5.215-3.635,9.594-7.918,12.068V48.736C295.648,49.318,298.923,51.078,301.425,53.874z M267.942,115.108l-5.45-48.839
	c-0.51-4.562,0.901-8.964,3.97-12.395c2.502-2.796,5.776-4.556,9.397-5.139v78.439C271.577,124.702,268.523,120.322,267.942,115.108
	z M359.648,114.7l7.429-48.579c0.695-4.543,3.205-8.437,7.068-10.963c2.677-1.75,5.7-2.648,8.791-2.648
	c0.536,0,1.075,0.036,1.614,0.089l-20.391,75.788C360.666,124.898,358.855,119.883,359.648,114.7z M193.742,55.158
	c3.862,2.527,6.373,6.42,7.068,10.963l7.429,48.579c0.792,5.184-1.018,10.196-4.51,13.686l-20.386-75.774
	C186.985,52.247,190.602,53.106,193.742,55.158z M177.321,122.917l-17.954-45.771c-1.678-4.278-1.461-8.893,0.613-12.995
	c1.689-3.341,4.395-5.883,7.739-7.375l20.384,75.764C183.325,131.251,179.239,127.804,177.321,122.917z M183.797,253.305h37.947
	v37.726h-37.947V253.305z M265.036,301.811h-27.123v-59.284h27.123V301.811z M111.477,432.904l-26.809-26.699l99.411-99.005h7.789
	l2.957,42.698L111.477,432.904z M346.923,493.319c-0.097,1.41-1.297,2.513-2.731,2.513H223.696c-1.435,0-2.634-1.103-2.732-2.513
	l-9.741-140.668c-0.008-0.176-0.017-0.351-0.037-0.526l-3.111-44.924h13.943c1.257,6.143,6.703,10.779,13.212,10.779h32.491
	c6.508,0,11.955-4.636,13.211-10.779h78.881L346.923,493.319z M384.089,291.032H281.204v-37.726H384.09L384.089,291.032
	L384.089,291.032z M367.077,202.287l-2.414,34.849h-83.732c-1.256-6.143-6.702-10.779-13.211-10.779h-32.491
	c-6.509,0-11.955,4.636-13.212,10.779h-18.794l-2.413-34.849c-0.069-1.004,0.418-1.686,0.715-2.004
	c0.304-0.327,0.97-0.873,2.018-0.873h8.718c0.009,0,0.017,0.002,0.026,0.002c0.011,0,0.022-0.002,0.032-0.002H355.57
	c0.011,0,0.022,0.002,0.032,0.002c0.009,0,0.017-0.002,0.026-0.002h8.717c1.048,0,1.714,0.548,2.018,0.873
	C366.659,200.601,367.146,201.284,367.077,202.287z M408.521,77.146l-17.956,45.771c-1.918,4.888-6.003,8.333-10.781,9.623
	l20.384-75.763c3.345,1.492,6.05,4.033,7.739,7.375C409.982,68.253,410.199,72.87,408.521,77.146z M130.764,503.916
	c0,4.466-3.62,8.084-8.084,8.084h-1.082c-4.465,0-8.084-3.618-8.084-8.084s3.62-8.084,8.084-8.084h1.082
	C127.144,495.832,130.764,499.45,130.764,503.916z M87.472,503.916c0,4.466-3.62,8.084-8.084,8.084h-1.082
	c-4.465,0-8.084-3.618-8.084-8.084s3.62-8.084,8.084-8.084h1.082C83.853,495.832,87.472,499.45,87.472,503.916z M444.633,503.916
	c0,4.466-3.618,8.084-8.084,8.084h-1.082c-4.466,0-8.084-3.618-8.084-8.084s3.618-8.084,8.084-8.084h1.082
	C441.013,495.832,444.633,499.45,444.633,503.916z"/>
<g>
</g>
<g>
</g>
<g>
</g>
<g>
</g>
<g>
</g>
<g>
</g>
<g>
</g>
<g>
</g>
<g>
</g>
<g>
</g>
<g>
</g>
<g>
</g>
<g>
</g>
<g>
</g>
<g>
</g>
</svg>
