<?xml version="1.0" encoding="iso-8859-1"?>
<!-- Generator: Adobe Illustrator 19.0.0, SVG Export Plug-In . SVG Version: 6.00 Build 0)  -->
<svg version="1.1" id="Layer_1" xmlns="http://www.w3.org/2000/svg" xmlns:xlink="http://www.w3.org/1999/xlink" x="0px" y="0px"
	 viewBox="0 0 512 512" style="enable-background:new 0 0 512 512;" xml:space="preserve">
<path style="fill:#9D9D9D;" d="M212.884,407.264h-32.337V93.777h32.337V407.264z"/>
<path style="fill:#BCBCBC;" d="M212.884,407.264h-16.168V93.777h16.168V407.264z"/>
<path style="fill:#636363;" d="M342.232,450.021L342.232,450.021c0,29.765-24.13,53.895-53.895,53.895h-53.895
	c-29.765,0-53.895-24.13-53.895-53.895v-53.895h107.789C318.102,396.126,342.232,420.256,342.232,450.021z"/>
<path style="fill:#797979;" d="M342.232,450.021L342.232,450.021c0,6.444-1.135,12.621-3.209,18.349
	c-5.728,2.074-11.905,3.209-18.349,3.209h-53.895c-29.765,0-53.895-24.13-53.895-53.895v-21.558h75.453
	C318.102,396.126,342.232,420.256,342.232,450.021z"/>
<path style="fill:#BC0000;" d="M212.884,105.095h-32.337c-5.953,0-10.779-4.826-10.779-10.779V18.863
	c0-5.953,4.826-10.779,10.779-10.779h32.337c5.953,0,10.779,4.826,10.779,10.779v75.453
	C223.663,100.269,218.837,105.095,212.884,105.095z"/>
<path style="fill:#F93100;" d="M202.105,8.084v64.674c0,5.953-4.826,10.779-10.779,10.779h-21.558V18.863
	c0-5.953,4.826-10.779,10.779-10.779H202.105z"/>
<path style="fill:#FFFFFF;" d="M312.589,450.021c0,16.345-13.297,29.642-29.642,29.642h-48.505c-4.465,0-8.084-3.618-8.084-8.084
	s3.62-8.084,8.084-8.084h48.505c7.43,0,13.474-6.044,13.474-13.474c0-4.466,3.62-8.084,8.084-8.084S312.589,445.555,312.589,450.021
	z"/>
<path d="M288.337,388.042h-67.368v-276.71c6.362-3.034,10.779-9.511,10.779-17.017V18.863C231.747,8.463,223.285,0,212.884,0
	h-32.337c-10.401,0-18.863,8.463-18.863,18.863v75.453c0,7.505,4.417,13.982,10.779,17.017v338.689
	c0,34.176,27.803,61.979,61.979,61.979h53.895c34.176,0,61.979-27.803,61.979-61.979S322.513,388.042,288.337,388.042z
	 M177.853,18.863c0-1.486,1.209-2.695,2.695-2.695h32.337c1.485,0,2.695,1.208,2.695,2.695v75.453c0,1.486-1.209,2.695-2.695,2.695
	h-32.337c-1.485,0-2.695-1.208-2.695-2.695V18.863z M288.337,495.832h-53.895c-25.26,0-45.811-20.55-45.811-45.811V113.179H204.8
	v274.89c-4.212,0.278-7.545,3.774-7.545,8.057c0,4.466,3.62,8.084,8.084,8.084h7.545h3.234h72.219
	c25.26,0,45.811,20.55,45.811,45.811S313.597,495.832,288.337,495.832z"/>
<g>
</g>
<g>
</g>
<g>
</g>
<g>
</g>
<g>
</g>
<g>
</g>
<g>
</g>
<g>
</g>
<g>
</g>
<g>
</g>
<g>
</g>
<g>
</g>
<g>
</g>
<g>
</g>
<g>
</g>
</svg>
