<?xml version="1.0" encoding="iso-8859-1"?>
<!-- Generator: Adobe Illustrator 19.0.0, SVG Export Plug-In . SVG Version: 6.00 Build 0)  -->
<svg version="1.1" id="Layer_1" xmlns="http://www.w3.org/2000/svg" xmlns:xlink="http://www.w3.org/1999/xlink" x="0px" y="0px"
	 viewBox="0 0 512.001 512.001" style="enable-background:new 0 0 512.001 512.001;" xml:space="preserve">
<path style="fill:#1A6399;" d="M480.569,151.283c57.834,124.026,4.176,271.453-119.851,329.287S89.265,484.745,31.432,360.719
	S27.256,89.266,151.282,31.432S422.736,27.256,480.569,151.283z"/>
<path style="fill:#007DBC;" d="M360.338,116.894c35.208,75.504,2.542,165.254-72.963,200.461s-165.254,2.542-200.463-72.963
	s-2.542-165.253,72.963-200.46S325.129,41.39,360.338,116.894z"/>
<path style="fill:#002E35;" d="M165.244,137.847c6.286,13.481,0.454,29.505-13.027,35.793s-29.505,0.454-35.793-13.027
	s-0.454-29.505,13.027-35.793C142.933,118.532,158.958,124.366,165.244,137.847z M236.854,74.737
	c-13.481,6.286-19.314,22.311-13.027,35.793s22.311,19.314,35.793,13.027c13.481-6.286,19.314-22.311,13.027-35.793
	S250.335,68.451,236.854,74.737z M224.129,187.653c-13.481,6.286-19.314,22.311-13.027,35.793s22.311,19.314,35.793,13.027
	c13.481-6.286,19.314-22.311,13.027-35.793C253.636,187.199,237.611,181.367,224.129,187.653z"/>
<path style="fill:#FFFFFF;" d="M439.073,170.632c47.072,100.946,3.242,221.368-97.705,268.44c-4.044,1.886-8.852,0.136-10.738-3.908
	c-1.886-4.044-0.136-8.852,3.908-10.738c92.87-43.307,133.194-154.095,89.888-246.965c-1.886-4.044-0.136-8.852,3.908-10.738
	C432.38,164.838,437.187,166.588,439.073,170.632z M87.573,334.539c-1.886-4.044-6.694-5.794-10.738-3.908
	c-4.044,1.885-5.794,6.694-3.908,10.738c22.803,48.901,63.283,85.994,113.985,104.448c2.097,0.763,4.304,0.605,6.178-0.269
	c1.874-0.874,3.415-2.463,4.178-4.56c1.526-4.193-0.636-8.83-4.829-10.356C145.795,413.654,108.552,379.527,87.573,334.539z
	 M71.864,309.77c4.044-1.886,5.794-6.694,3.908-10.738l-0.455-0.977c-1.886-4.044-6.694-5.794-10.738-3.908
	c-4.044,1.886-5.794,6.694-3.908,10.738l0.455,0.977C63.012,309.906,67.82,311.656,71.864,309.77z M226.181,439.629
	c-4.213-1.475-8.823,0.745-10.295,4.957c-1.475,4.211,0.745,8.821,4.957,10.295l1.016,0.356c2.072,0.725,4.239,0.556,6.083-0.303
	c1.905-0.888,3.463-2.514,4.212-4.654c1.475-4.211-0.745-8.821-4.957-10.295L226.181,439.629z M409.316,149.883
	c2.453,2.596,6.218,3.206,9.286,1.774c0.765-0.357,1.489-0.842,2.136-1.454c3.243-3.066,3.387-8.179,0.321-11.421l-1.047-1.108
	c-3.066-3.242-8.182-3.388-11.422-0.32c-3.243,3.066-3.387,8.179-0.321,11.421L409.316,149.883z"/>
<path d="M487.892,147.867C459.01,85.927,407.734,38.941,343.511,15.566c-64.22-23.375-133.702-20.341-195.643,8.542
	C85.927,52.992,38.942,104.267,15.567,168.49c-23.374,64.221-20.341,133.702,8.542,195.643
	c28.882,61.94,80.159,108.926,144.382,132.301c28.56,10.395,58.15,15.567,87.665,15.567c36.854,0,73.584-8.069,107.978-24.108
	c61.94-28.882,108.926-80.159,132.301-144.381C519.809,279.289,516.776,209.808,487.892,147.867z M357.303,473.247
	c-119.789,55.86-262.689,3.846-318.55-115.944C-17.104,237.514,34.907,94.614,154.698,38.754
	c32.674-15.236,67.058-22.445,100.936-22.445c90.324,0,176.991,51.273,217.614,138.389
	C529.106,274.486,477.094,417.387,357.303,473.247z M126.037,117.497c-17.499,8.16-25.094,29.033-16.935,46.531
	c3.953,8.475,10.969,14.906,19.758,18.104c3.907,1.423,7.957,2.13,11.995,2.13c5.043,0,10.071-1.105,14.778-3.299
	c8.475-3.953,14.906-10.969,18.104-19.758c3.198-8.788,2.784-18.295-1.168-26.772C164.407,116.933,143.534,109.338,126.037,117.497z
	 M158.55,155.677c-1.722,4.732-5.184,8.51-9.748,10.639c-4.562,2.129-9.682,2.353-14.416,0.629
	c-4.732-1.722-8.51-5.184-10.639-9.748c-2.129-4.564-2.351-9.684-0.629-14.416s5.185-8.51,9.748-10.64
	c2.569-1.199,5.273-1.765,7.938-1.765c7.104,0,13.921,4.032,17.116,10.885C160.05,145.826,160.273,150.945,158.55,155.677z
	 M260.212,66.245c-8.79-3.198-18.297-2.783-26.773,1.17c-17.496,8.159-25.093,29.032-16.935,46.529
	c5.935,12.726,18.593,20.215,31.787,20.215c4.946,0,9.972-1.054,14.743-3.279c17.496-8.16,25.093-29.033,16.935-46.531
	C276.017,75.874,269,69.444,260.212,66.245z M256.204,116.235c-9.416,4.395-20.662,0.302-25.056-9.12
	c-4.392-9.421-0.302-20.661,9.119-25.055c2.535-1.181,5.241-1.776,7.957-1.776c2.174,0,4.356,0.38,6.459,1.147
	c4.732,1.722,8.511,5.184,10.64,9.748C269.717,100.601,265.626,111.84,256.204,116.235z M220.715,180.33
	c-8.475,3.953-14.906,10.97-18.104,19.758c-3.199,8.788-2.784,18.296,1.167,26.772c5.935,12.726,18.593,20.215,31.787,20.215
	c4.946,0,9.972-1.054,14.743-3.278c17.497-8.159,25.094-29.033,16.935-46.531C259.086,179.77,238.216,172.174,220.715,180.33z
	 M243.48,229.151c-9.418,4.392-20.661,0.303-25.056-9.12c-2.128-4.564-2.351-9.684-0.629-14.415c1.724-4.732,5.185-8.511,9.75-10.64
	c2.534-1.181,5.241-1.776,7.957-1.776c2.174,0,4.355,0.38,6.459,1.147c4.732,1.722,8.51,5.185,10.639,9.748
	C256.992,213.517,252.903,224.757,243.48,229.151z"/>
<g>
</g>
<g>
</g>
<g>
</g>
<g>
</g>
<g>
</g>
<g>
</g>
<g>
</g>
<g>
</g>
<g>
</g>
<g>
</g>
<g>
</g>
<g>
</g>
<g>
</g>
<g>
</g>
<g>
</g>
</svg>
