<?xml version="1.0" encoding="iso-8859-1"?>
<!-- Generator: Adobe Illustrator 19.0.0, SVG Export Plug-In . SVG Version: 6.00 Build 0)  -->
<svg version="1.1" id="Layer_1" xmlns="http://www.w3.org/2000/svg" xmlns:xlink="http://www.w3.org/1999/xlink" x="0px" y="0px"
	 viewBox="0 0 512 512" style="enable-background:new 0 0 512 512;" xml:space="preserve">
<path style="fill:#FF0000;" d="M256,272.168c-68.46,0-123.958-55.498-123.958-123.958S187.54,24.253,256,24.253
	S379.958,79.75,379.958,148.211S324.46,272.168,256,272.168z"/>
<path style="fill:#007DBC;" d="M379.958,487.747C311.498,487.747,256,432.25,256,363.789s55.498-123.958,123.958-123.958
	s123.958,55.498,123.958,123.958S448.418,487.747,379.958,487.747z"/>
<path style="fill:#F9B300;" d="M132.042,487.747c-68.46,0-123.958-55.498-123.958-123.958s55.498-123.958,123.958-123.958
	S256,295.329,256,363.789S200.502,487.747,132.042,487.747z"/>
<path style="fill:#F9A100;" d="M256,363.789c0,68.46-55.498,123.958-123.958,123.958S8.084,432.25,8.084,363.789
	s55.498-123.958,123.958-123.958c16.438,0,32.123,3.207,46.478,9.018c-6.501-1.476-13.257-2.281-20.204-2.281
	c-50.229,0-90.947,40.719-90.947,90.947s40.719,90.947,90.947,90.947s90.947-40.719,90.947-90.947
	c0-6.947-0.805-13.703-2.281-20.204C252.793,331.666,256,347.352,256,363.789z"/>
<path style="fill:#BC0000;" d="M379.958,148.211c0,68.46-55.498,123.958-123.958,123.958s-123.958-55.498-123.958-123.958
	S187.54,24.253,256,24.253c16.438,0,32.123,3.207,46.478,9.018c-6.501-1.476-13.257-2.281-20.204-2.281
	c-50.229,0-90.947,40.719-90.947,90.947s40.719,90.947,90.947,90.947s90.947-40.719,90.947-90.947
	c0-6.947-0.805-13.703-2.281-20.204C376.751,116.087,379.958,131.773,379.958,148.211z"/>
<path style="fill:#1A6399;" d="M503.916,363.789c0,68.46-55.498,123.958-123.958,123.958S256,432.25,256,363.789
	s55.498-123.958,123.958-123.958c16.438,0,32.123,3.207,46.478,9.018c-6.501-1.476-13.257-2.281-20.204-2.281
	c-50.229,0-90.947,40.719-90.947,90.947s40.719,90.947,90.947,90.947s90.947-40.719,90.947-90.947
	c0-6.947-0.805-13.703-2.281-20.204C500.709,331.666,503.916,347.352,503.916,363.789z"/>
<path style="fill:#FFFFA9;" d="M153.6,401.516c-32.742,0-59.284-26.542-59.284-59.284s26.542-59.284,59.284-59.284
	s59.284,26.542,59.284,59.284S186.342,401.516,153.6,401.516z M460.8,342.232c0-32.742-26.542-59.284-59.284-59.284
	s-59.284,26.542-59.284,59.284s26.542,59.284,59.284,59.284S460.8,374.974,460.8,342.232z M336.842,126.653
	c0-32.742-26.542-59.284-59.284-59.284s-59.284,26.542-59.284,59.284s26.542,59.284,59.284,59.284S336.842,159.395,336.842,126.653z
	"/>
<path style="fill:#FFFFFF;" d="M140.126,455.41c0,4.465-3.62,8.084-8.084,8.084c-54.978,0-99.705-44.727-99.705-99.705
	c0-4.465,3.62-8.084,8.084-8.084s8.084,3.62,8.084,8.084c0,46.063,37.474,83.537,83.537,83.537
	C136.507,447.326,140.126,450.946,140.126,455.41z M164.052,438.534l-0.762,0.762c-3.157,3.157-3.157,8.276,0,11.432
	c1.578,1.578,3.648,2.368,5.716,2.368c2.068,0,4.138-0.789,5.716-2.368l0.762-0.762c3.157-3.157,3.157-8.276,0-11.432
	C172.328,435.378,167.208,435.378,164.052,438.534z M379.958,447.326c-46.062,0-83.537-37.474-83.537-83.537
	c0-4.465-3.618-8.084-8.084-8.084s-8.084,3.62-8.084,8.084c0,54.978,44.727,99.705,99.705,99.705c4.466,0,8.084-3.62,8.084-8.084
	C388.042,450.946,384.424,447.326,379.958,447.326z M423.401,438.534c-3.158-3.157-8.276-3.157-11.433,0l-0.762,0.762
	c-3.157,3.157-3.157,8.276,0,11.432c1.579,1.578,3.649,2.368,5.717,2.368c2.068,0,4.138-0.789,5.717-2.368l0.762-0.762
	C426.557,446.81,426.557,441.691,423.401,438.534z M256,231.747c-46.063,0-83.537-37.474-83.537-83.537
	c0-4.465-3.62-8.084-8.084-8.084c-4.465,0-8.084,3.62-8.084,8.084c0,54.978,44.727,99.705,99.705,99.705
	c4.466,0,8.084-3.62,8.084-8.084C264.084,235.367,260.466,231.747,256,231.747z M292.964,237.518c2.068,0,4.138-0.789,5.717-2.368
	l0.762-0.762c3.157-3.157,3.157-8.276,0-11.432c-3.158-3.157-8.276-3.157-11.433,0l-0.762,0.762c-3.157,3.157-3.157,8.276,0,11.432
	C288.826,236.728,290.896,237.518,292.964,237.518z"/>
<path d="M153.6,274.863c-37.146,0-67.368,30.221-67.368,67.368S116.454,409.6,153.6,409.6s67.368-30.221,67.368-67.368
	S190.746,274.863,153.6,274.863z M153.6,393.432c-28.231,0-51.2-22.969-51.2-51.2s22.969-51.2,51.2-51.2s51.2,22.969,51.2,51.2
	S181.831,393.432,153.6,393.432z M167.074,315.284v53.895c0,4.466-3.62,8.084-8.084,8.084c-4.465,0-8.084-3.618-8.084-8.084v-34.378
	l-7.758,7.758c-3.157,3.156-8.276,3.156-11.432,0c-3.157-3.158-3.157-8.276,0-11.433l21.558-21.558
	c2.313-2.313,5.792-3.002,8.81-1.752C165.104,309.066,167.074,312.015,167.074,315.284z M379.958,231.747
	c-8.034,0-15.9,0.723-23.542,2.104c19.708-23.073,31.626-52.989,31.626-85.641c0-72.809-59.234-132.042-132.042-132.042
	S123.958,75.402,123.958,148.211c0,32.652,11.918,62.567,31.627,85.641c-7.642-1.381-15.509-2.104-23.542-2.104
	C59.234,231.747,0,290.981,0,363.789s59.234,132.042,132.042,132.042c56.823,0,105.376-36.08,123.958-86.533
	c18.582,50.454,67.135,86.533,123.958,86.533c72.809,0,132.042-59.234,132.042-132.042S452.766,231.747,379.958,231.747z
	 M256,32.337c63.893,0,115.874,51.981,115.874,115.874S319.893,264.084,256,264.084s-115.874-51.981-115.874-115.874
	S192.107,32.337,256,32.337z M279.542,278.149c-10.059,11.777-18.092,25.335-23.542,40.132
	c-5.45-14.798-13.482-28.356-23.542-40.132c7.641,1.381,15.509,2.104,23.542,2.104S271.9,279.529,279.542,278.149z M132.042,479.663
	c-63.893,0-115.874-51.981-115.874-115.874s51.98-115.874,115.874-115.874s115.874,51.981,115.874,115.874
	S195.935,479.663,132.042,479.663z M379.958,479.663c-63.893,0-115.874-51.981-115.874-115.874s51.98-115.874,115.874-115.874
	s115.874,51.981,115.874,115.874S443.851,479.663,379.958,479.663z M401.516,274.863c-37.146,0-67.368,30.221-67.368,67.368
	s30.222,67.368,67.368,67.368s67.368-30.221,67.368-67.368S438.662,274.863,401.516,274.863z M401.516,393.432
	c-28.231,0-51.2-22.969-51.2-51.2s22.969-51.2,51.2-51.2c28.231,0,51.2,22.969,51.2,51.2S429.747,393.432,401.516,393.432z
	 M425.768,322.306v10.78c0,5.062-2.515,9.761-6.726,12.568l-23.163,15.441h21.805c4.465,0,8.084,3.618,8.084,8.084
	s-3.62,8.084-8.084,8.084h-25.315c-8.329,0-15.106-6.776-15.106-15.106c0-5.062,2.515-9.761,6.726-12.568l25.611-17.073v-9.148
	h-16.168v2.695c0,4.466-3.62,8.084-8.084,8.084s-8.084-3.618-8.084-8.084v-3.758c0-8.33,6.777-15.106,15.106-15.106h18.295
	C418.992,307.2,425.768,313.976,425.768,322.306z M277.558,194.021c37.146,0,67.368-30.221,67.368-67.368
	s-30.222-67.368-67.368-67.368s-67.368,30.221-67.368,67.368S240.411,194.021,277.558,194.021z M277.558,75.453
	c28.231,0,51.2,22.969,51.2,51.2s-22.969,51.2-51.2,51.2s-51.2-22.969-51.2-51.2S249.327,75.453,277.558,75.453z M251.419,110.968
	c0-9.957,8.101-18.058,18.058-18.058h16.161c9.958,0,18.058,8.101,18.058,18.058v0.224c0,4.21-1.483,8.313-4.177,11.55
	l-13.441,16.157c-0.282,0.338-0.438,0.769-0.438,1.208v12.203c0,4.466-3.62,8.084-8.084,8.084c-4.465,0-8.084-3.618-8.084-8.084
	v-12.203c0-4.21,1.483-8.313,4.177-11.55l13.441-16.157c0.282-0.338,0.438-0.769,0.438-1.208v-0.224c0-1.042-0.848-1.89-1.89-1.89
	h-16.161c-1.042,0-1.89,0.847-1.89,1.89c0,4.466-3.62,8.084-8.084,8.084S251.419,115.434,251.419,110.968z"/>
<g>
</g>
<g>
</g>
<g>
</g>
<g>
</g>
<g>
</g>
<g>
</g>
<g>
</g>
<g>
</g>
<g>
</g>
<g>
</g>
<g>
</g>
<g>
</g>
<g>
</g>
<g>
</g>
<g>
</g>
</svg>
