<?xml version="1.0" encoding="iso-8859-1"?>
<!-- Generator: Adobe Illustrator 19.0.0, SVG Export Plug-In . SVG Version: 6.00 Build 0)  -->
<svg version="1.1" id="Layer_1" xmlns="http://www.w3.org/2000/svg" xmlns:xlink="http://www.w3.org/1999/xlink" x="0px" y="0px"
	 viewBox="0 0 512 512" style="enable-background:new 0 0 512 512;" xml:space="preserve">
<path style="fill:#F9B300;" d="M145.383,330.022l58.783-313.514c0.803-4.282,4.541-7.385,8.898-7.385l0,0
	c82.993,0,150.273,67.279,150.273,150.273v259.86c0,3.492-3.281,6.054-6.669,5.207l-179.499-44.875
	C155.128,374.078,141.196,352.352,145.383,330.022z"/>
<path style="fill:#F96800;" d="M161.275,245.266l28.176-150.273h159.417c9.274,19.52,14.47,41.354,14.47,64.403v85.87H161.275z"/>
<path style="fill:#F93100;" d="M157.249,266.734l18.113-96.604h187.975v96.604H157.249z"/>
<path style="fill:#BC0000;" d="M144.828,341.87c-0.355-3.871-0.195-7.849,0.554-11.848l15.892-84.756h202.063v96.604H144.828z"/>
<path style="fill:#720000;" d="M363.338,320.402V426.13l-186.168-46.543c-22.041-5.51-35.973-27.236-31.786-49.565l1.803-9.62
	H363.338z"/>
<path style="fill:#A0A0A0;" d="M449.208,470.675L449.208,470.675c0,17.785-14.417,32.201-32.201,32.201H84.26
	c-17.785,0-32.201-14.417-32.201-32.201l0,0c0-5.928,4.806-10.734,10.734-10.734h375.681
	C444.402,459.941,449.208,464.747,449.208,470.675z"/>
<path style="fill:#858585;" d="M449.208,470.675c0,17.785-14.417,32.201-32.201,32.201H84.26c-14.531,0-26.811-9.628-30.818-22.851
	c2.959,0.897,6.098,1.384,9.35,1.384h332.746c14.019,0,25.94-8.962,30.362-21.467h12.574
	C444.402,459.941,449.208,464.747,449.208,470.675z"/>
<path d="M17.174,502.876c0,4.447-3.603,8.05-8.05,8.05H8.05c-4.447,0-8.05-3.603-8.05-8.05c0-4.447,3.603-8.05,8.05-8.05h1.073
	C13.571,494.826,17.174,498.429,17.174,502.876z M503.95,494.826h-1.073c-4.447,0-8.05,3.603-8.05,8.05
	c0,4.447,3.603,8.05,8.05,8.05h1.073c4.447,0,8.05-3.603,8.05-8.05C512,498.429,508.397,494.826,503.95,494.826z M478.725,502.876
	c0,4.447-3.603,8.05-8.05,8.05h-53.669h-10.734H94.994H84.26H41.325c-4.447,0-8.05-3.603-8.05-8.05c0-4.447,3.603-8.05,8.05-8.05
	H52.08c-5.065-6.732-8.072-15.096-8.072-24.151c0-10.357,8.427-18.784,18.784-18.784h292.495v-19.475l-180.072-45.017
	c-26.129-6.534-42.709-32.388-37.746-58.86l58.786-313.514c1.516-8.085,8.585-13.952,16.81-13.952
	c87.3,0,158.323,71.023,158.323,158.323v246.876v19.857v25.761h67.086c10.357,0,18.784,8.427,18.784,18.784
	c0,9.055-3.007,17.419-8.073,24.151h21.49C475.122,494.826,478.725,498.429,478.725,502.876z M355.287,415.82v-9.548V159.396
	c0-78.422-63.8-142.222-142.222-142.222c-0.482,0-0.897,0.343-0.986,0.818L199.15,86.943h78.318c4.447,0,8.05,3.603,8.05,8.05
	s-3.603,8.05-8.05,8.05h-81.336l-11.07,59.036h113.873c4.447,0,8.05,3.603,8.05,8.05c0,4.447-3.603,8.05-8.05,8.05H182.043
	l-11.07,59.036h127.961c4.447,0,8.05,3.603,8.05,8.05c0,4.447-3.603,8.05-8.05,8.05H170.13c-0.735,0-1.444-0.107-2.12-0.291
	l-11.124,59.327h142.049c4.447,0,8.05,3.603,8.05,8.05c0,4.447-3.603,8.05-8.05,8.05H153.867l-0.572,3.053
	c-3.395,18.113,7.948,35.802,25.828,40.273L355.287,415.82z M417.006,494.826c13.316,0,24.151-10.835,24.151-24.151
	c0-1.48-1.203-2.683-2.683-2.683H62.792c-1.48,0-2.683,1.203-2.683,2.683c0,13.316,10.835,24.151,24.151,24.151h10.734h311.279
	H417.006z M331.136,312.352h-1.073c-4.447,0-8.05,3.603-8.05,8.05c0,4.447,3.603,8.05,8.05,8.05h1.073c4.447,0,8.05-3.603,8.05-8.05
	C339.187,315.956,335.583,312.352,331.136,312.352z M331.136,237.216h-1.073c-4.447,0-8.05,3.603-8.05,8.05
	c0,4.447,3.603,8.05,8.05,8.05h1.073c4.447,0,8.05-3.603,8.05-8.05C339.187,240.819,335.583,237.216,331.136,237.216z
	 M331.136,162.08h-1.073c-4.447,0-8.05,3.603-8.05,8.05c0,4.447,3.603,8.05,8.05,8.05h1.073c4.447,0,8.05-3.603,8.05-8.05
	C339.187,165.683,335.583,162.08,331.136,162.08z M309.669,86.943h-1.073c-4.447,0-8.05,3.603-8.05,8.05s3.603,8.05,8.05,8.05h1.073
	c4.447,0,8.05-3.603,8.05-8.05S314.116,86.943,309.669,86.943z"/>
<g>
</g>
<g>
</g>
<g>
</g>
<g>
</g>
<g>
</g>
<g>
</g>
<g>
</g>
<g>
</g>
<g>
</g>
<g>
</g>
<g>
</g>
<g>
</g>
<g>
</g>
<g>
</g>
<g>
</g>
</svg>
