<?xml version="1.0" encoding="iso-8859-1"?>
<!-- Generator: Adobe Illustrator 19.0.0, SVG Export Plug-In . SVG Version: 6.00 Build 0)  -->
<svg version="1.1" id="Layer_1" xmlns="http://www.w3.org/2000/svg" xmlns:xlink="http://www.w3.org/1999/xlink" x="0px" y="0px"
	 viewBox="0 0 512 512" style="enable-background:new 0 0 512 512;" xml:space="preserve">
<path style="fill:#AAAAAA;" d="M431.303,80.697c96.818,96.818,96.818,253.789,0,350.606s-253.789,96.818-350.606,0
	s-96.818-253.789,0-350.606S334.486-16.12,431.303,80.697z"/>
<path style="fill:#D3D3D3;" d="M316.771,15.624c66.182,77.94,62.493,194.929-11.083,268.505
	c-77.469,77.469-203.073,77.469-280.543,0c-6.111-6.109-11.736-12.521-16.883-19.182c-2.383-66.395,21.75-133.565,72.435-184.25
	C144.689,16.705,234.958-4.977,316.771,15.624z"/>
<path style="fill:#FFFFFF;" d="M463.981,301.54c-8.672,39.774-28.537,76.08-57.449,104.991
	c-19.086,19.086-41.214,34.163-65.771,44.809c-1.048,0.454-2.139,0.669-3.211,0.669c-3.124,0-6.1-1.822-7.421-4.871
	c-1.776-4.096,0.105-8.857,4.201-10.632c22.682-9.835,43.129-23.767,60.77-41.408c26.718-26.718,45.073-60.261,53.084-97.003
	c0.952-4.362,5.258-7.128,9.621-6.176C462.166,292.87,464.932,297.178,463.981,301.54z M298.994,447.985l-0.895,0.197
	c-4.362,0.949-7.13,5.255-6.181,9.618c0.824,3.783,4.171,6.367,7.891,6.367c0.569,0,1.147-0.06,1.727-0.186l0.977-0.215
	c4.358-0.971,7.102-5.292,6.131-9.65C307.672,449.759,303.354,447.013,298.994,447.985z"/>
<path d="M512,256c0-68.379-26.628-132.667-74.981-181.019S324.379,0,256,0S123.333,26.628,74.981,74.981S0,187.62,0,256
	s26.628,132.667,74.981,181.019C123.333,485.372,187.62,512,256,512c1.31,0,2.616-0.028,3.922-0.047c0.016,0,0.032,0,0.047,0
	c0.009,0,0.017-0.001,0.026-0.001c66.884-1.018,129.615-27.523,177.024-74.931C485.372,388.667,512,324.379,512,256z
	 M495.781,251.868c-45.175-0.735-88.236-13.851-125.414-37.825l5.678-5.678c3.157-3.158,3.157-8.276,0-11.433
	c-3.158-3.156-8.276-3.156-11.433,0l-7.745,7.745c-7.18-5.361-14.097-11.164-20.731-17.378l9.422-9.422
	c3.157-3.158,3.157-8.276,0-11.433c-3.158-3.156-8.276-3.156-11.433,0l-9.422,9.422c-6.214-6.634-12.011-13.555-17.374-20.735
	l7.74-7.74c3.157-3.158,3.157-8.276,0-11.433c-3.158-3.156-8.276-3.156-11.433,0l-5.676,5.676
	c-23.975-37.178-37.094-80.236-37.828-125.412c62.516,1.05,121.133,25.872,165.455,70.195
	C469.909,130.736,494.732,189.353,495.781,251.868z M16.219,260.129c45.178,0.72,88.236,13.847,125.415,37.828l-5.678,5.678
	c-3.157,3.158-3.157,8.276,0,11.433c1.579,1.578,3.649,2.367,5.717,2.367c2.068,0,4.138-0.789,5.717-2.367l7.741-7.741
	c7.18,5.363,14.1,11.161,20.734,17.375l-9.422,9.422c-3.157,3.158-3.157,8.276,0,11.433c1.579,1.578,3.649,2.367,5.717,2.367
	c2.068,0,4.138-0.789,5.717-2.367l9.422-9.422c6.214,6.634,12.011,13.555,17.374,20.735l-7.74,7.74
	c-3.157,3.158-3.157,8.276,0,11.433c1.579,1.578,3.649,2.367,5.717,2.367s4.138-0.789,5.717-2.367l5.676-5.676
	c23.975,37.178,37.094,80.236,37.828,125.412c-62.516-1.05-121.133-25.872-165.455-70.195
	C42.09,381.263,17.268,322.645,16.219,260.129z M268.033,495.536c-0.508-30.984-6.509-61.233-17.911-90.034
	c-6.536-16.51-14.702-32.143-24.412-46.801l13.143-13.143c3.157-3.158,3.157-8.276,0-11.433c-3.158-3.156-8.276-3.156-11.433,0
	l-11.212,11.212c-5.43-7.146-11.253-14.033-17.466-20.642l9.626-9.626c3.157-3.158,3.157-8.276,0-11.433
	c-3.158-3.156-8.276-3.156-11.433,0l-9.626,9.626c-6.609-6.214-13.495-12.037-20.642-17.467l11.212-11.212
	c3.157-3.158,3.157-8.276,0-11.433c-3.158-3.156-8.276-3.156-11.433,0l-13.143,13.143c-14.658-9.711-30.291-17.876-46.801-24.412
	c-28.8-11.401-59.054-17.395-90.034-17.909c2.922-59.543,27.498-115.105,69.95-157.556c42.451-42.452,98.012-67.028,157.554-69.95
	c0.508,30.984,6.509,61.233,17.911,90.034c6.536,16.51,14.702,32.143,24.412,46.801l-13.143,13.143
	c-3.157,3.158-3.157,8.276,0,11.433c1.579,1.578,3.649,2.367,5.717,2.367s4.138-0.789,5.717-2.367l11.212-11.212
	c5.43,7.146,11.253,14.033,17.466,20.642l-9.626,9.626c-3.157,3.158-3.157,8.276,0,11.433c1.579,1.578,3.649,2.367,5.717,2.367
	s4.138-0.789,5.717-2.367l9.626-9.626c6.609,6.214,13.495,12.037,20.642,17.467l-11.212,11.212c-3.157,3.158-3.157,8.276,0,11.433
	c1.579,1.578,3.649,2.367,5.717,2.367s4.138-0.789,5.717-2.367l13.143-13.143c14.658,9.711,30.291,17.876,46.801,24.412
	c28.802,11.402,59.049,17.407,90.034,17.915c-2.923,59.541-27.499,115.101-69.95,157.55
	C383.135,468.038,327.574,492.614,268.033,495.536z"/>
<g>
</g>
<g>
</g>
<g>
</g>
<g>
</g>
<g>
</g>
<g>
</g>
<g>
</g>
<g>
</g>
<g>
</g>
<g>
</g>
<g>
</g>
<g>
</g>
<g>
</g>
<g>
</g>
<g>
</g>
</svg>
